<svg width="507" height="518" viewBox="0 0 507 518" fill="none" xmlns="http://www.w3.org/2000/svg">
<path d="M257.654 16V6.662H256.632L254.294 9.07L254.994 9.784L256.492 8.188V16H257.654ZM263.028 16.168C265.576 16.168 266.598 13.606 266.598 11.338C266.598 9.056 265.576 6.522 263.028 6.522C260.466 6.522 259.458 9.056 259.458 11.338C259.458 13.606 260.466 16.168 263.028 16.168ZM263.028 15.132C261.25 15.132 260.648 13.2 260.648 11.338C260.648 9.476 261.25 7.558 263.028 7.558C264.806 7.558 265.408 9.476 265.408 11.338C265.408 13.2 264.806 15.132 263.028 15.132ZM271.39 16.168C273.224 16.168 274.736 15.216 274.736 13.634C274.736 12.388 273.672 11.534 272.51 11.184C273.588 10.876 274.596 10.162 274.596 8.944C274.596 7.264 272.93 6.522 271.39 6.522C269.836 6.522 268.198 7.264 268.198 8.944C268.198 10.162 269.192 10.876 270.27 11.184C269.108 11.534 268.044 12.388 268.044 13.634C268.044 15.23 269.542 16.168 271.39 16.168ZM271.39 10.708C270.83 10.61 269.374 10.232 269.374 9.098C269.374 8.132 270.256 7.558 271.39 7.558C272.51 7.558 273.42 8.132 273.42 9.098C273.42 10.232 271.964 10.61 271.39 10.708ZM271.39 15.132C270.228 15.132 269.22 14.516 269.22 13.508C269.22 12.29 270.816 11.772 271.39 11.702C271.964 11.772 273.56 12.29 273.56 13.508C273.56 14.516 272.538 15.132 271.39 15.132ZM279.749 16.168C282.297 16.168 283.319 13.606 283.319 11.338C283.319 9.056 282.297 6.522 279.749 6.522C277.187 6.522 276.179 9.056 276.179 11.338C276.179 13.606 277.187 16.168 279.749 16.168ZM279.749 15.132C277.971 15.132 277.369 13.2 277.369 11.338C277.369 9.476 277.971 7.558 279.749 7.558C281.527 7.558 282.129 9.476 282.129 11.338C282.129 13.2 281.527 15.132 279.749 15.132Z" fill="#FF4A48"/>
<path d="M491 239.654L500.338 239.654L500.338 238.632L497.93 236.294L497.216 236.994L498.812 238.492L491 238.492L491 239.654ZM490.832 245.028C490.832 247.576 493.394 248.598 495.662 248.598C497.944 248.598 500.478 247.576 500.478 245.028C500.478 242.466 497.944 241.458 495.662 241.458C493.394 241.458 490.832 242.466 490.832 245.028ZM491.868 245.028C491.868 243.25 493.8 242.648 495.662 242.648C497.524 242.648 499.442 243.25 499.442 245.028C499.442 246.806 497.524 247.408 495.662 247.408C493.8 247.408 491.868 246.806 491.868 245.028ZM490.832 253.39C490.832 255.224 491.784 256.736 493.366 256.736C494.612 256.736 495.466 255.672 495.816 254.51C496.124 255.588 496.838 256.596 498.056 256.596C499.736 256.596 500.478 254.93 500.478 253.39C500.478 251.836 499.736 250.198 498.056 250.198C496.838 250.198 496.124 251.192 495.816 252.27C495.466 251.108 494.612 250.044 493.366 250.044C491.77 250.044 490.832 251.542 490.832 253.39ZM496.292 253.39C496.39 252.83 496.768 251.374 497.902 251.374C498.868 251.374 499.442 252.256 499.442 253.39C499.442 254.51 498.868 255.42 497.902 255.42C496.768 255.42 496.39 253.964 496.292 253.39ZM491.868 253.39C491.868 252.228 492.484 251.22 493.492 251.22C494.71 251.22 495.228 252.816 495.298 253.39C495.228 253.964 494.71 255.56 493.492 255.56C492.484 255.56 491.868 254.538 491.868 253.39ZM490.832 261.749C490.832 264.297 493.394 265.319 495.662 265.319C497.944 265.319 500.478 264.297 500.478 261.749C500.478 259.187 497.944 258.179 495.662 258.179C493.394 258.179 490.832 259.187 490.832 261.749ZM491.868 261.749C491.868 259.971 493.8 259.369 495.662 259.369C497.524 259.369 499.442 259.971 499.442 261.749C499.442 263.527 497.524 264.129 495.662 264.129C493.8 264.129 491.868 263.527 491.868 261.749Z" fill="#FF4A48"/>
<rect width="398" height="398" transform="translate(70 52)" fill="white"/>
<path d="M348.625 177.5H189.375C179.227 177.5 171 185.727 171 195.875V306.125C171 316.273 179.227 324.5 189.375 324.5H348.625C358.773 324.5 367 316.273 367 306.125V195.875C367 185.727 358.773 177.5 348.625 177.5ZM354.75 306.125C354.75 309.502 352.002 312.25 348.625 312.25H189.375C185.998 312.25 183.25 309.502 183.25 306.125V195.875C183.25 192.498 185.998 189.75 189.375 189.75H348.625C352.002 189.75 354.75 192.498 354.75 195.875V306.125ZM213.875 241.812C225.715 241.812 235.312 232.215 235.312 220.375C235.312 208.535 225.715 198.938 213.875 198.938C202.035 198.938 192.438 208.535 192.438 220.375C192.438 232.215 202.035 241.812 213.875 241.812ZM213.875 211.188C218.941 211.188 223.062 215.309 223.062 220.375C223.062 225.441 218.941 229.562 213.875 229.562C208.809 229.562 204.688 225.441 204.688 220.375C204.688 215.309 208.809 211.188 213.875 211.188ZM293.128 220.003L256.75 256.382L244.872 244.504C241.284 240.916 235.466 240.916 231.879 244.504L198.191 278.191C197.338 279.044 196.661 280.057 196.199 281.172C195.738 282.286 195.5 283.481 195.5 284.688V295.406C195.5 297.943 197.557 300 200.094 300H337.906C340.443 300 342.5 297.943 342.5 295.406V260.188C342.5 257.751 341.532 255.414 339.809 253.691L306.122 220.003C302.534 216.416 296.716 216.416 293.128 220.003ZM330.25 287.75H207.75V285.956L238.375 255.331L256.75 273.706L299.625 230.831L330.25 261.456V287.75Z" fill="#E0E4E8"/>
<line x1="70.5" y1="24" x2="70.5" y2="36" stroke="#FF4A48"/>
<line x1="468.499" y1="24" x2="468.499" y2="36" stroke="#FF4A48"/>
<line x1="70" y1="29.5" x2="467.999" y2="29.5" stroke="#FF4A48"/>
<line x1="489" y1="52.5" x2="477" y2="52.5" stroke="#FF4A48"/>
<line x1="489" y1="450.5" x2="477" y2="450.5" stroke="#FF4A48"/>
<line x1="483.5" y1="52" x2="483.5" y2="450" stroke="#FF4A48"/>
<line x1="102.501" y1="52" x2="102.501" y2="463.411" stroke="#9F9F9F" stroke-dasharray="5 5"/>
<line x1="70.501" y1="52" x2="70.501" y2="463.411" stroke="#9F9F9F" stroke-dasharray="5 5"/>
<path d="M82.425 498.601L84.553 495.731V494.583H78.673V495.801H83.027L80.759 498.867L81.277 499.665H81.613C82.789 499.665 83.671 500.309 83.671 501.485C83.671 502.647 82.789 503.291 81.613 503.291C80.549 503.291 79.779 502.843 79.485 501.933L78.393 502.577C78.897 503.893 80.171 504.565 81.613 504.565C83.377 504.565 84.973 503.473 84.973 501.485C84.973 499.861 83.839 498.867 82.425 498.601ZM85.9561 504.383H92.2841V503.123H87.8461L90.3521 500.631C91.3181 499.665 92.1021 498.615 92.1021 497.397C92.1021 495.465 90.5761 494.401 89.0501 494.401C87.7761 494.401 86.5861 495.031 85.9561 496.333L87.0481 496.977C87.4681 496.095 88.1681 495.661 89.0641 495.661C89.9741 495.661 90.8001 496.263 90.8001 497.411C90.8001 498.237 90.1841 499.021 89.4141 499.791L85.9561 503.319V504.383Z" fill="#FF4A48"/>
<line x1="70.501" y1="471.107" x2="70.501" y2="483.896" stroke="#FF4A48"/>
<line x1="102.501" y1="471.107" x2="102.501" y2="483.896" stroke="#FF4A48"/>
<line x1="70.001" y1="477.002" x2="102.001" y2="477.002" stroke="#FF4A48"/>
<line x1="468" y1="450.5" x2="57.0361" y2="450.5" stroke="#9F9F9F" stroke-dasharray="5 5"/>
<line x1="468" y1="418.5" x2="57.0361" y2="418.5" stroke="#9F9F9F" stroke-dasharray="5 5"/>
<path d="M15.218 436.576L12.348 434.448L11.2 434.448L11.2 440.328L12.418 440.328L12.418 435.974L15.484 438.242L16.282 437.724L16.282 437.388C16.282 436.212 16.926 435.33 18.102 435.33C19.264 435.33 19.908 436.212 19.908 437.388C19.908 438.452 19.46 439.222 18.55 439.516L19.194 440.608C20.51 440.104 21.182 438.83 21.182 437.388C21.182 435.624 20.09 434.028 18.102 434.028C16.478 434.028 15.484 435.162 15.218 436.576ZM21 433.045L21 426.717L19.74 426.717L19.74 431.155L17.248 428.649C16.282 427.683 15.232 426.899 14.014 426.899C12.082 426.899 11.018 428.425 11.018 429.951C11.018 431.225 11.648 432.415 12.95 433.045L13.594 431.953C12.712 431.533 12.278 430.833 12.278 429.937C12.278 429.027 12.88 428.201 14.028 428.201C14.854 428.201 15.638 428.817 16.408 429.587L19.936 433.045L21 433.045Z" fill="#FF4A48"/>
<line x1="47.8291" y1="418.5" x2="34.785" y2="418.5" stroke="#FF4A48"/>
<line x1="47.8291" y1="450.5" x2="34.785" y2="450.5" stroke="#FF4A48"/>
<line x1="41.8069" y1="418" x2="41.8069" y2="450" stroke="#FF4A48"/>
</svg>
