<?xml version="1.0" encoding="utf-8"?>
<!-- Generator: Adobe Illustrator 25.2.1, SVG Export Plug-In . SVG Version: 6.00 Build 0)  -->
<svg version="1.1" id="Layer_1" xmlns="http://www.w3.org/2000/svg" xmlns:xlink="http://www.w3.org/1999/xlink" x="0px" y="0px"
	 viewBox="0 0 72 72" style="enable-background:new 0 0 72 72;" xml:space="preserve">
<style type="text/css">
	.st0{fill-rule:evenodd;clip-rule:evenodd;fill:url(#SVGID_1_);fill-opacity:0.25;}
	.st1{fill-rule:evenodd;clip-rule:evenodd;fill:url(#SVGID_2_);fill-opacity:0.25;}
	.st2{fill:none;stroke:#0073EC;}
</style>
<g>
	<radialGradient id="SVGID_1_" cx="36.5417" cy="37.7083" r="10.4308" gradientUnits="userSpaceOnUse">
		<stop  offset="0" style="stop-color:#0073EC"/>
		<stop  offset="1" style="stop-color:#0073EC;stop-opacity:0"/>
	</radialGradient>
	<path class="st0" d="M45.5,39.8c-1.1,0.9-2.4,1.6-3.7,2.1l2.4,4.1l2.4,1c0.1,0,0.2,0.1,0.3,0.1c0.1,0,0.2,0,0.3-0.1
		c0.1-0.1,0.2-0.1,0.2-0.2c0.1-0.1,0.1-0.2,0.1-0.3l0.3-2.5L45.5,39.8z"/>
	<radialGradient id="SVGID_2_" cx="36.5417" cy="37.7083" r="10.4267" gradientUnits="userSpaceOnUse">
		<stop  offset="0" style="stop-color:#0073EC"/>
		<stop  offset="1" style="stop-color:#0073EC;stop-opacity:0"/>
	</radialGradient>
	<path class="st1" d="M47.4,35.7c0.2-0.3,0.1-0.8-0.3-1l-1.3-0.7c-0.3-0.2-0.7-0.1-1,0.2c-1.2,1.8-3,3.1-5.1,3.8
		c-2.1,0.7-4.4,0.7-6.5,0.1l3-5c0,0,0,0,0.1,0c0,0,0,0,0.1,0h0.1l2.3,3.8c1.4-0.4,2.7-1.1,3.7-2.1l-2.3-3.8c0.4-0.6,0.6-1.3,0.5-2.1
		c0-0.7-0.2-1.4-0.6-2c-0.4-0.6-0.9-1.1-1.6-1.5C38,25.2,37.3,25,36.5,25c-0.8,0-1.5,0.2-2.1,0.5c-0.7,0.4-1.2,0.9-1.6,1.5
		c-0.4,0.6-0.6,1.3-0.6,2c0,0.7,0.2,1.4,0.5,2.1l-3.1,5.1l0,0C29,35.6,28.5,35,28,34.3c-0.2-0.3-0.6-0.4-1-0.2l-1.3,0.7
		c-0.4,0.2-0.5,0.6-0.3,1c0.7,1.1,1.6,2,2.6,2.9l0,0L25,43.9l0.3,2.5c0,0.1,0.1,0.2,0.1,0.3c0.1,0.1,0.1,0.2,0.2,0.2
		C25.8,47,25.9,47,26,47s0.2,0,0.3-0.1l2.4-1l3.2-5.3c1.5,0.5,3,0.8,4.6,0.8c2.2,0,4.3-0.5,6.2-1.5C44.7,39,46.3,37.5,47.4,35.7z
		 M35.1,28.9c0.1-0.3,0.2-0.5,0.4-0.7c0.2-0.2,0.5-0.3,0.7-0.4c0.3-0.1,0.6,0,0.8,0.1c0.3,0.1,0.5,0.3,0.6,0.5
		c0.2,0.2,0.2,0.5,0.2,0.8c0,0.4-0.1,0.7-0.4,1c-0.3,0.3-0.6,0.4-1,0.4c-0.3,0-0.6-0.1-0.8-0.2c-0.2-0.1-0.4-0.4-0.5-0.6
		C35.1,29.4,35.1,29.1,35.1,28.9z"/>
</g>
<path class="st2" d="M47.9,36c-1.2,1.8-2.9,3.3-4.9,4.4c-2,1-4.2,1.6-6.5,1.6h0c-1.5,0-3-0.2-4.4-0.7l-3,4.9l-0.1,0.1l-0.2,0.1
	l-2.4,1c-0.2,0.1-0.4,0.1-0.5,0.1c-0.2,0-0.4-0.1-0.5-0.2c-0.2-0.1-0.3-0.2-0.4-0.4c-0.1-0.2-0.2-0.3-0.2-0.5v0L24.5,44l0-0.2
	l0.1-0.1l3-4.9L25.1,36c-0.4-0.6-0.1-1.4,0.5-1.7c0,0,0.8-0.5,1.3-0.7c0.9-0.4,1.6,0.4,1.6,0.4l1,1.4l2.6-4.3
	c-0.3-0.6-0.5-1.3-0.4-2.1c0-0.8,0.3-1.6,0.7-2.3c0.4-0.7,1-1.3,1.8-1.7c0.7-0.4,1.6-0.6,2.4-0.6c0.8,0,1.7,0.2,2.4,0.6
	c0.7,0.4,1.3,1,1.8,1.7c0.4,0.7,0.7,1.5,0.7,2.3c0,0.7-0.2,1.4-0.5,2.1l2.1,3.6l0.2,0.3L43,35.3c-1.1,1-2.4,1.8-3.9,2.2l-0.4,0.1
	l-0.2-0.3l-2-3.3L34.1,38c1.8,0.4,3.8,0.4,5.6-0.2c2-0.7,3.7-2,4.8-3.7l0,0c0.3-0.5,1-0.7,1.6-0.4l0,0l1.3,0.7 M41.6,41.4l-0.6,0.2
	l0.3,0.5l2.4,4.1l0.1,0.1l0.2,0.1l2.4,1c0,0,0,0,0,0c0.2,0.1,0.4,0.1,0.5,0.1c0.2,0,0.4-0.1,0.5-0.2c0.2-0.1,0.3-0.2,0.4-0.4
	l-0.4-0.3L48,47c0.1-0.2,0.2-0.3,0.2-0.5l0,0l0.3-2.5l0-0.2l-0.1-0.1L46,39.6l-0.3-0.5l-0.4,0.3C44.1,40.3,42.9,40.9,41.6,41.4z
	 M47.9,36c0.4-0.6,0.1-1.4-0.5-1.7"/>
<circle class="st2" cx="36.5" cy="29.1" r="1"/>
</svg>
