<?xml version="1.0" encoding="utf-8"?>
<!-- Generator: Adobe Illustrator 25.2.1, SVG Export Plug-In . SVG Version: 6.00 Build 0)  -->
<svg version="1.1" id="Layer_1" xmlns="http://www.w3.org/2000/svg" xmlns:xlink="http://www.w3.org/1999/xlink" x="0px" y="0px"
	 viewBox="0 0 72 72" style="enable-background:new 0 0 72 72;" xml:space="preserve">
<style type="text/css">
	.st0{fill-rule:evenodd;clip-rule:evenodd;fill:url(#SVGID_1_);fill-opacity:0.25;}
	.st1{fill:#0073EC;}
</style>
<radialGradient id="SVGID_1_" cx="-250.75" cy="596.3913" r="1" gradientTransform="matrix(7.347881e-16 12 11.5 -7.041719e-16 -6819 3045)" gradientUnits="userSpaceOnUse">
	<stop  offset="0" style="stop-color:#0073EC"/>
	<stop  offset="1" style="stop-color:#0073EC;stop-opacity:0"/>
</radialGradient>
<path class="st0" d="M42.1,33.2l0.8,0.3l4.4,0.7l0,0c1.7,0.4,2.5,0.7,3,0.9c0.2,0.1,0.4,0.2,0.5,0.3c0.1,0.1,0.1,0.2,0.1,0.3
	c0,0.1,0,0.2,0,0.2v0v0c0,0,0,0.1,0,0.2c0,0.1-0.1,0.2-0.1,0.3c-0.1,0.1-0.3,0.3-0.5,0.3c-0.4,0.2-1.3,0.5-3,0.9l0,0l-4.4,0.7
	l-0.7,0.3l-4.5,6.9h0c0.3,0,0.6,0,0.8,0.1c0.1,0,0.3,0.1,0.4,0.2c0.1,0.1,0.4,0.4,0.4,0.9c0,0.5-0.3,0.8-0.4,0.9
	c-0.1,0.1-0.3,0.2-0.4,0.2C38.3,48,38,48,37.8,48h-5.5v-2.4H33V39l-0.7-0.4l-2.7,3h-0.7l-0.6-0.7v-3.5h0.3v-0.1L28,37.2v-2.6
	l0.6-0.1v-0.1h-0.3v-3.5l0.6-0.7h0.7l2.7,3.5l0.7-0.9v-6.4h-0.7V24h5.5c0.3,0,0.6,0,0.8,0.1c0.1,0,0.3,0.1,0.4,0.2
	c0.1,0.1,0.4,0.4,0.4,0.9c0,0.5-0.3,0.8-0.4,0.9c-0.1,0.1-0.3,0.2-0.4,0.2c-0.2,0.1-0.5,0.1-0.8,0.1h0L42.1,33.2z M38.2,24.5
	C38.2,24.5,38.2,24.5,38.2,24.5L38.2,24.5z M38.2,46.1C38.2,46.1,38.2,46.1,38.2,46.1L38.2,46.1z M38.2,47.5L38.2,47.5L38.2,47.5
	L38.2,47.5z"/>
<path class="st1" d="M48.1,34.1l-4.6-0.6l-0.7-0.2l-4.6-6.7c0.3,0,0.5-0.1,0.7-0.1c0.2-0.1,0.4-0.1,0.5-0.2c0.3-0.2,0.5-0.6,0.5-0.9
	c0-0.4-0.2-0.7-0.5-0.9c-0.1-0.1-0.3-0.2-0.5-0.2C38.6,24,38.3,24,38,24h-5.9v2.6h0.7v6.3h-0.5l-2-2.6h-1.7L27.9,31v3.5h0.3v0.1
	l-0.6,0.1v2.6l0.6,0.1v0.1h-0.3V41l0.7,0.7h1.7l2-2.6h0.5v6.4h-0.7V48H38c0.4,0,0.7,0,0.9-0.1c0.2-0.1,0.4-0.1,0.5-0.3
	c0.3-0.2,0.5-0.6,0.5-0.9s-0.2-0.7-0.5-0.9c-0.1-0.1-0.3-0.2-0.5-0.2c-0.2-0.1-0.5-0.1-0.7-0.1l4.7-6.8l0.5-0.2l4.7-0.7
	c3.5-0.9,3.9-1.1,3.9-1.8S51.6,35,48.1,34.1z M33,25h4.9c0.2,0,0.5,0,0.6,0.1c0.1,0,0.2,0.1,0.2,0.1l0.1,0.1c0,0,0,0.1-0.1,0.1
	c0,0-0.1,0.1-0.2,0.1c-0.2,0.1-0.4,0.1-0.6,0.1h-1.7l5,7.3h-7.5v-7.3H33V25z M36.3,46.4H38c0.2,0,0.5,0,0.6,0.1
	c0.1,0,0.2,0.1,0.2,0.1l0.1,0.1c0,0,0,0.1-0.1,0.1c-0.1,0-0.1,0.1-0.2,0.1C38.4,47,38.2,47,38,47h-4.9v-0.6h0.7v-7.3h7.6L36.3,46.4z
	 M47.9,36.8l-4.7,0.7L41.5,38h-9.7l-2,2.6H29l-0.1-0.1v-2.1h0.3v-0.7H31v-1l-2.3-0.3v-0.9l2.3-0.3v-1h-1.8v-0.7h-0.3v-2.1l0.1-0.1
	h0.8l2,2.6h9.7l1.6,0.6l4.7,0.7c1.7,0.4,2.5,0.7,2.9,0.8C50.4,36.1,49.6,36.3,47.9,36.8z M51,36C51,35.9,51,35.9,51,36L51,36z"/>
<path class="st1" d="M25.6,39.5h-4.1c-0.3,0-0.5,0.2-0.5,0.5s0.2,0.5,0.5,0.5h4.1c0.3,0,0.5-0.2,0.5-0.5S25.9,39.5,25.6,39.5z"/>
<path class="st1" d="M26.4,31.5h-4.1c-0.3,0-0.5,0.2-0.5,0.5s0.2,0.5,0.5,0.5h4.1c0.3,0,0.5-0.2,0.5-0.5S26.7,31.5,26.4,31.5z"/>
<path class="st1" d="M25.9,34.3c-1.2-0.6-3.2,1.2-3.6,1.5l-0.4,0.4l0.5,0.4c0.3,0.2,1.8,1.3,2.9,1.3c0.2,0,0.5,0,0.7-0.1
	c0.4-0.2,0.8-0.6,0.8-1.5C26.8,35.2,26.5,34.6,25.9,34.3z M25.5,36.9c-0.4,0.2-1.3-0.2-2-0.7c0.8-0.6,1.7-1.1,2-0.9
	C25.9,35.5,25.9,36.7,25.5,36.9z"/>
</svg>
