<?xml version="1.0" encoding="utf-8"?>
<!-- Generator: Adobe Illustrator 25.2.1, SVG Export Plug-In . SVG Version: 6.00 Build 0)  -->
<svg version="1.1" id="Layer_1" xmlns="http://www.w3.org/2000/svg" xmlns:xlink="http://www.w3.org/1999/xlink" x="0px" y="0px"
	 viewBox="0 0 72 72" style="enable-background:new 0 0 72 72;" xml:space="preserve">
<style type="text/css">
	.st0{fill:url(#SVGID_1_);fill-opacity:0.25;}
	.st1{fill:#0073EC;}
</style>
<radialGradient id="SVGID_1_" cx="-251.8688" cy="592.158" r="1" gradientTransform="matrix(7.827759e-16 12.7837 14.0411 -8.597694e-16 -8278.0898 3256.4373)" gradientUnits="userSpaceOnUse">
	<stop  offset="0" style="stop-color:#0073EC"/>
	<stop  offset="1" style="stop-color:#0073EC;stop-opacity:0"/>
</radialGradient>
<path class="st0" d="M22.4,49.4V23.8h28.1v25.6H22.4z"/>
<path class="st1" d="M25.1,41.6c0,0.3,0.2,0.5,0.5,0.5h0c0.3,0,0.5-0.2,0.5-0.5v-0.5c0-0.3-0.2-0.5-0.5-0.5c-0.3,0-0.5,0.2-0.5,0.5
	V41.6z"/>
<path class="st1" d="M28.6,31.8c0.3,0,0.5-0.2,0.5-0.5v0c0-0.3-0.2-0.5-0.5-0.5H28c-0.3,0-0.5,0.2-0.5,0.5v0c0,0.3,0.2,0.5,0.5,0.5
	L28.6,31.8L28.6,31.8z"/>
<path class="st1" d="M25.1,38.6c0,0.3,0.2,0.5,0.5,0.5h0c0.3,0,0.5-0.2,0.5-0.5v-0.5c0-0.3-0.2-0.5-0.5-0.5h0
	c-0.3,0-0.5,0.2-0.5,0.5V38.6z"/>
<path class="st1" d="M25.1,35.6c0,0.3,0.2,0.5,0.5,0.5h0c0.3,0,0.5-0.2,0.5-0.5v-0.5c0-0.3-0.2-0.5-0.5-0.5h0
	c-0.3,0-0.5,0.2-0.5,0.5V35.6z"/>
<path class="st1" d="M30,43.6h-0.5c-0.3,0-0.5,0.2-0.5,0.5v0c0,0.3,0.2,0.5,0.5,0.5H30c0.3,0,0.5-0.2,0.5-0.5v0
	C30.4,43.8,30.2,43.6,30,43.6z"/>
<path class="st1" d="M26.3,31.8c-0.2-0.2-0.6-0.2-0.7,0.1c-0.1,0.2-0.2,0.4-0.3,0.6c-0.1,0.3,0.1,0.6,0.4,0.6h0
	c0.2,0,0.4-0.1,0.5-0.3c0-0.1,0.1-0.2,0.2-0.3C26.4,32.2,26.4,32,26.3,31.8L26.3,31.8z"/>
<path class="st1" d="M45.6,32.1c0.2,0.1,0.4,0.1,0.6-0.1l0,0c0.2-0.2,0.2-0.6-0.1-0.8C46,31.1,45.8,31,45.6,31
	c-0.3-0.1-0.6,0.1-0.6,0.4v0c0,0.2,0.1,0.4,0.3,0.5C45.4,32,45.5,32,45.6,32.1z"/>
<path class="st1" d="M43,31.9c0.3,0,0.5-0.2,0.5-0.5c0-0.3-0.2-0.5-0.5-0.5h-0.5c-0.3,0-0.5,0.2-0.5,0.5c0,0.3,0.2,0.5,0.5,0.5H43z"
	/>
<path class="st1" d="M40,31.9c0.3,0,0.5-0.2,0.5-0.5c0-0.3-0.2-0.5-0.5-0.5h-0.5c-0.3,0-0.5,0.2-0.5,0.5c0,0.3,0.2,0.5,0.5,0.5H40z"
	/>
<path class="st1" d="M32.3,44.6h0.5c0.3,0,0.5-0.2,0.5-0.5s-0.2-0.5-0.5-0.5h-0.5c-0.3,0-0.5,0.2-0.5,0.5S32,44.6,32.3,44.6z"/>
<path class="st1" d="M37.1,31.9c0.3,0,0.5-0.2,0.5-0.5c0-0.3-0.2-0.5-0.5-0.5h-0.5c-0.3,0-0.5,0.2-0.5,0.5c0,0.3,0.2,0.5,0.5,0.5
	H37.1z"/>
<path class="st1" d="M31.4,30.8h-0.5c-0.3,0-0.5,0.2-0.5,0.5c0,0.3,0.2,0.5,0.5,0.5h0.5c0.3,0,0.5-0.2,0.5-0.5
	C31.8,31.1,31.6,30.8,31.4,30.8z"/>
<path class="st1" d="M34.2,30.8h-0.5c-0.3,0-0.5,0.2-0.5,0.5s0.2,0.5,0.5,0.5h0.5c0.3,0,0.5-0.2,0.5-0.5
	C34.7,31,34.4,30.8,34.2,30.8z"/>
<path class="st1" d="M35.1,44.5h0.5c0.3,0,0.5-0.2,0.5-0.5c0-0.3-0.2-0.5-0.5-0.5h-0.5c-0.3,0-0.5,0.2-0.5,0.5
	C34.6,44.3,34.8,44.5,35.1,44.5z"/>
<path class="st1" d="M26.2,43.8c0.1,0.2,0.3,0.3,0.5,0.4c0.3,0.2,0.6,0,0.7-0.3l0,0c0.1-0.2,0-0.4-0.2-0.6c-0.1-0.1-0.2-0.1-0.3-0.2
	c-0.1-0.2-0.4-0.2-0.6-0.1l0,0C26.1,43.2,26,43.6,26.2,43.8z"/>
<path class="st1" d="M27.5,25.8c0.3,0,0.5-0.2,0.5-0.5s-0.2-0.5-0.5-0.5S27,25.1,27,25.3C27,25.6,27.2,25.8,27.5,25.8z"/>
<path class="st1" d="M30,25.8c0.3,0,0.5-0.2,0.5-0.5c0-0.3-0.2-0.5-0.5-0.5c-0.3,0-0.5,0.2-0.5,0.5C29.5,25.6,29.7,25.9,30,25.8z"/>
<path class="st1" d="M24.9,25.8c0.3,0,0.5-0.2,0.5-0.5s-0.2-0.5-0.5-0.5s-0.5,0.2-0.5,0.5C24.4,25.6,24.7,25.8,24.9,25.8z"/>
<path class="st1" d="M50.5,23H22.5c-0.3,0-0.5,0.2-0.5,0.5v18.7c0,0.2,0.2,0.5,0.4,0.5c0.3,0,0.5-0.2,0.5-0.5V27.7h27.1l0,1.7
	c0,0.2,0.2,0.5,0.4,0.5c0,0,0,0,0,0c0.3,0,0.5-0.2,0.5-0.5v-5.9C51,23.2,50.8,23,50.5,23z M32,26.8h-9.1v-2.8H32V26.8z M50.1,26.8
	H32.9v-2.8h17.1V26.8z"/>
<path class="st1" d="M29.1,48.6h-6.2v-4.5c0-0.2-0.2-0.5-0.4-0.5c-0.3,0-0.5,0.2-0.5,0.5v5c0,0.3,0.2,0.5,0.5,0.5h6.6
	c0.1,0,0.2-0.1,0.3-0.1C29.7,49.1,29.5,48.6,29.1,48.6z"/>
<path class="st1" d="M50.1,46l-14.9,0c-0.3,0-0.5,0.1-0.7,0.4l-2.3,0.9c-0.2,0.1-0.4,0.4-0.4,0.6c0,0.3,0.2,0.5,0.4,0.6l2.3,0.9
	c0.2,0.2,0.4,0.4,0.7,0.4l14.9,0c0.5,0,0.9-0.4,0.9-0.9v-2C51,46.4,50.6,46,50.1,46z M32.6,47.9l1.8-0.7v1.4L32.6,47.9z M35.3,49.1
	c-0.1,0-0.2-0.1-0.2-0.2l0-0.7l13.2,0l0,0.8c0,0,0,0.1,0,0.1L35.3,49.1z M48.3,46.8l0,0.8l-13.2,0v-0.7c0-0.1,0.1-0.2,0.2-0.2
	L48.3,46.8C48.3,46.8,48.3,46.8,48.3,46.8z M50.2,49l-1.1,0c0,0,0-0.1,0-0.1v-2.1c0,0,0-0.1,0-0.1l1.1,0c0.1,0,0.2,0.1,0.2,0.2v1.9
	C50.4,48.9,50.3,49,50.2,49z"/>
<path class="st1" d="M50.7,31.1c-0.2-0.1-0.3,0-0.4,0.1L37.7,43.9c-0.1,0.1-0.2,0.3-0.1,0.5c0.1,0.2,0.2,0.3,0.4,0.3h12.6
	c0.2,0,0.4-0.2,0.4-0.4V31.5C51,31.3,50.9,31.2,50.7,31.1z M49.1,43.8h-0.5h-1h-0.5H39l11.1-11.2c0,0,0.1,0,0.1,0.1v11.2H49.1z"/>
<path class="st1" d="M48.5,36.6c-0.2-0.1-0.3,0-0.4,0.1L44,40.8c-0.1,0.1-0.1,0.3-0.1,0.5c0.1,0.2,0.2,0.3,0.4,0.3h4.1
	c0.2,0,0.4-0.2,0.4-0.4V37C48.8,36.8,48.7,36.6,48.5,36.6z M48.2,40.8C48.2,40.8,48.1,40.9,48.2,40.8L45,40.9
	c-0.1,0-0.1-0.1-0.1-0.2l3-3.1c0.1-0.1,0.2,0,0.2,0.1V40.8z"/>
<path class="st1" d="M41.7,42.9c-0.1,0-0.2,0.1-0.2,0.2v0.7h0.5v-0.7C41.9,43,41.8,42.9,41.7,42.9z"/>
<path class="st1" d="M43.1,42.9c-0.1,0-0.2,0.1-0.2,0.2v0.7h0.5v-0.7C43.4,43,43.3,42.9,43.1,42.9z"/>
<path class="st1" d="M44.6,42.9c-0.1,0-0.2,0.1-0.2,0.2v0.7h0.5v-0.7C44.8,43,44.7,42.9,44.6,42.9z"/>
<path class="st1" d="M46,42.9c-0.1,0-0.2,0.1-0.2,0.2v0.7h0.5v-0.7C46.2,43,46.1,42.9,46,42.9z"/>
<path class="st1" d="M47.4,42.9c-0.1,0-0.2,0.1-0.2,0.2l0,0.7h0.5l0-0.7C47.7,43,47.6,42.9,47.4,42.9z"/>
<path class="st1" d="M48.9,42.9c-0.1,0-0.2,0.1-0.2,0.2l0,0.7h0.5l0-0.7C49.1,43,49,42.9,48.9,42.9z"/>
</svg>
