<?xml version="1.0" encoding="utf-8"?>
<!-- Generator: Adobe Illustrator 25.2.1, SVG Export Plug-In . SVG Version: 6.00 Build 0)  -->
<svg version="1.1" id="Layer_1" xmlns="http://www.w3.org/2000/svg" xmlns:xlink="http://www.w3.org/1999/xlink" x="0px" y="0px"
	 viewBox="0 0 72 72" style="enable-background:new 0 0 72 72;" xml:space="preserve">
<style type="text/css">
	.st0{fill:url(#SVGID_1_);fill-opacity:0.25;}
	.st1{fill:#0073EC;}
	.st2{fill-rule:evenodd;clip-rule:evenodd;fill:#0073EC;}
</style>
<radialGradient id="SVGID_1_" cx="-253.2939" cy="592.9259" r="1" gradientTransform="matrix(8.537993e-16 13.9436 13.5 -8.266366e-16 -7968 3567.772)" gradientUnits="userSpaceOnUse">
	<stop  offset="0" style="stop-color:#0073EC"/>
	<stop  offset="1" style="stop-color:#0073EC;stop-opacity:0"/>
</radialGradient>
<path class="st0" d="M38.3,22.1c5.5,0.8,9.8,5.5,10.1,11.2h0.4c0.3,0,0.6,0.1,0.8,0.3c0.2,0.2,0.3,0.5,0.3,0.8v5.5
	c0,0.1,0,0.2,0,0.2v2.6c0,0.1,0,0.2,0,0.2v5.5c0,0.3-0.1,0.6-0.4,0.8c-0.2,0.2-0.5,0.3-0.8,0.4H24.2c-0.3,0-0.6-0.1-0.8-0.4
	C23.1,49.3,23,49,23,48.7V34.6c0-0.3,0.1-0.6,0.4-0.8c0.2-0.2,0.5-0.3,0.8-0.4h0.4c0.3-5.7,4.5-10.4,10.1-11.2
	C35.3,22,37,21.9,38.3,22.1z"/>
<path class="st1" d="M42.5,37c0.2-0.4,0.7-0.6,1.1-0.4c0.4,0.2,0.6,0.7,0.4,1.1c-0.2,0.4-0.7,0.6-1.1,0.4
	C42.5,37.9,42.3,37.4,42.5,37z"/>
<path class="st1" d="M46.2,38.1c0.5,0,0.8-0.4,0.8-0.8c0-0.5-0.4-0.8-0.8-0.8c-0.5,0-0.8,0.4-0.8,0.8C45.4,37.7,45.8,38.1,46.2,38.1
	z"/>
<path class="st1" d="M39.8,36.5c0.1,0,0.2,0,0.3-0.1c0.2,0,0.4,0.1,0.5,0.2c0.1,0.1,0.2,0.3,0.3,0.5c0,0.2,0,0.4-0.2,0.6
	c-0.1,0.2-0.3,0.3-0.5,0.3s-0.4,0-0.6-0.1c-0.2-0.1-0.3-0.3-0.4-0.5c-0.1-0.2,0-0.4,0-0.6C39.5,36.7,39.6,36.6,39.8,36.5z"/>
<path class="st2" d="M48.8,33.3h-0.4c-0.3-6-5-10.9-11-11.3c0,0-0.1,0-0.1,0c0,0-0.1,0-0.1,0.1c0,0-0.1,0.1-0.1,0.1c0,0,0,0.1,0,0.1
	c0,0,0,0.1,0,0.1c0,0,0,0.1,0.1,0.1c0,0,0.1,0.1,0.1,0.1c0,0,0.1,0,0.1,0c2.7,0.2,5.3,1.4,7.2,3.3c1.9,2,3,4.6,3.2,7.3h-0.6
	c-0.2-2.7-1.3-5.2-3.3-7.1c-2-1.9-4.6-2.9-7.3-2.9c-2.7,0-5.3,1-7.3,2.9c-2,1.9-3.1,4.4-3.3,7.1h-0.6c0.1-2.7,1.3-5.3,3.2-7.3
	c1.9-2,4.5-3.1,7.2-3.3c0,0,0.1,0,0.1,0c0,0,0.1,0,0.1-0.1c0,0,0.1-0.1,0.1-0.1c0,0,0-0.1,0-0.1c0,0,0-0.1,0-0.1c0,0,0-0.1-0.1-0.1
	S35.8,22,35.8,22c0,0-0.1,0-0.1,0c-6,0.4-10.8,5.3-11.1,11.3h-0.4c-0.3,0-0.6,0.1-0.8,0.4c-0.2,0.2-0.3,0.5-0.4,0.8V40
	c0,0.3,0.1,0.6,0.4,0.8c0.2,0.2,0.5,0.3,0.8,0.4h24.6c0.3,0,0.6-0.1,0.8-0.4c0.2-0.2,0.3-0.5,0.4-0.8v-5.5c0-0.3-0.1-0.6-0.3-0.8
	C49.4,33.5,49.1,33.3,48.8,33.3z M27.8,29.2l0.6,0.3c0.1,0,0.2,0.1,0.3,0c0.1,0,0.2-0.1,0.2-0.2c0-0.1,0.1-0.2,0-0.3
	c0-0.1-0.1-0.2-0.2-0.2l-0.6-0.3c0.8-1.3,1.9-2.3,3.1-3.1l0.3,0.6c0,0,0.1,0.1,0.1,0.1c0,0,0.1,0.1,0.1,0.1c0,0,0.1,0,0.1,0
	c0,0,0.1,0,0.1,0c0,0,0.1-0.1,0.1-0.1c0,0,0-0.1,0.1-0.1c0,0,0-0.1,0-0.1c0,0,0-0.1,0-0.1l-0.3-0.6c1.3-0.7,2.8-1.1,4.3-1.1v0.7
	c0,0.1,0,0.2,0.1,0.2c0.1,0.1,0.2,0.1,0.2,0.1c0.1,0,0.2,0,0.2-0.1c0.1-0.1,0.1-0.2,0.1-0.2V24c1.5,0,3,0.4,4.3,1.1l-0.3,0.6
	c0,0,0,0.1,0,0.1c0,0,0,0.1,0,0.1c0,0,0,0.1,0.1,0.1s0.1,0.1,0.1,0.1c0,0,0.1,0,0.1,0c0,0,0.1,0,0.1,0s0.1,0,0.1-0.1
	c0,0,0.1-0.1,0.1-0.1l0.3-0.6c1.3,0.8,2.3,1.9,3.1,3.1L44.3,29c-0.1,0-0.1,0.1-0.2,0.2c0,0.1,0,0.2,0,0.3s0.1,0.1,0.2,0.2
	c0.1,0,0.2,0,0.3,0l0.6-0.3c0.7,1.3,1.1,2.8,1.2,4.3h-4.5c0-0.7-0.2-1.4-0.6-2.1c-0.3-0.6-0.8-1.2-1.3-1.7l0.6-1
	c0.1-0.1,0.1-0.2,0.1-0.4c0-0.1,0-0.3,0-0.4c0-0.1-0.1-0.2-0.2-0.3c-0.1-0.1-0.2-0.2-0.3-0.2c-0.2-0.1-0.5-0.1-0.7-0.1
	c-0.2,0.1-0.4,0.2-0.6,0.4l-0.6,1c-0.6-0.2-1.2-0.3-1.8-0.3c-1.4,0-2.7,0.5-3.6,1.4c-1,0.9-1.6,2.2-1.7,3.5h-4.5l0,0
	C26.7,32,27.1,30.6,27.8,29.2z M39.1,34.1c-0.1,0.6-0.4,1.2-0.9,1.7c-0.5,0.4-1.1,0.7-1.8,0.7s-1.3-0.2-1.8-0.7
	c-0.5-0.4-0.8-1-0.9-1.7c0-0.2-0.1-0.3-0.2-0.4c-0.1-0.1-0.3-0.2-0.5-0.2h-1.3c0.1-0.7,0.3-1.4,0.6-2s0.8-1.1,1.4-1.5
	c0.6-0.4,1.3-0.6,1.9-0.7c0.7-0.1,1.4,0,2.1,0.2L36.5,32c-0.5,0-1,0.2-1.3,0.5c-0.3,0.3-0.5,0.8-0.5,1.3c0,0.5,0.2,1,0.5,1.3
	c0.3,0.3,0.8,0.5,1.3,0.5c0.3,0,0.6-0.1,0.9-0.2c0.3-0.1,0.5-0.4,0.7-0.6c0,0,0-0.1,0.1-0.1c0,0,0-0.1,0-0.1c0,0,0-0.1-0.1-0.1
	c0,0-0.1-0.1-0.1-0.1s-0.1,0-0.1-0.1c0,0-0.1,0-0.1,0c0,0-0.1,0-0.1,0.1c0,0-0.1,0.1-0.1,0.1c-0.1,0.2-0.3,0.4-0.6,0.4
	c-0.2,0.1-0.5,0.1-0.7,0c-0.2-0.1-0.4-0.2-0.6-0.4s-0.2-0.4-0.2-0.7c0-0.2,0.1-0.5,0.2-0.7c0.1-0.2,0.4-0.3,0.6-0.4
	c0.2-0.1,0.5-0.1,0.7,0c0.2,0.1,0.4,0.2,0.6,0.4c0,0.1,0.1,0.1,0.2,0.1c0.1,0,0.2,0,0.2,0c0.1,0,0.1-0.1,0.2-0.2s0.1-0.2,0-0.2
	l1.5-2.6c0.9,0.8,1.5,1.9,1.5,3.1h-1.4c-0.2,0-0.3,0.1-0.5,0.2C39.2,33.8,39.1,34,39.1,34.1z M39.5,28.2c0-0.1,0.1-0.1,0.1-0.1
	c0.1,0,0.1,0,0.2,0c0,0,0.1,0,0.1,0.1c0,0,0,0.1,0,0.1c0,0,0,0.1,0,0.1c0,0,0,0.1,0,0.1l-0.7,1.3c0,0.1-0.2,0.3-0.3,0.5l0,0
	c-0.4,0.7-1.1,1.9-1.3,2.2c-0.1-0.1-0.3-0.2-0.4-0.2L39.5,28.2z M49.1,40.1c0,0.1,0,0.2-0.1,0.2c-0.1,0.1-0.1,0.1-0.2,0.1H24.2
	c-0.1,0-0.2,0-0.2-0.1c-0.1-0.1-0.1-0.1-0.1-0.2v-5.5c0,0,0-0.1,0-0.1c0,0,0-0.1,0.1-0.1c0,0,0.1,0,0.1-0.1c0,0,0.1,0,0.1,0h3.3l0,0
	h5.7c0,0.1,0,0.2,0,0.3c0.2,0.8,0.6,1.5,1.2,2c0.6,0.5,1.4,0.7,2.2,0.7c0.8,0,1.6-0.4,2.1-0.9c0.6-0.5,0.9-1.3,1-2.1h5.7l0,0h3.3
	c0.1,0,0.2,0,0.2,0.1c0.1,0.1,0.1,0.1,0.1,0.2L49.1,40.1z"/>
<path class="st1" d="M47,45.7c0.1,0.4-0.2,0.9-0.6,1c-0.4,0.1-0.9-0.2-1-0.6c-0.1-0.4,0.2-0.9,0.6-1C46.5,45,46.9,45.3,47,45.7z"/>
<path class="st1" d="M40.9,45.9c0,0.5-0.4,0.8-0.8,0.8c-0.5,0-0.8-0.4-0.8-0.8c0-0.5,0.4-0.8,0.8-0.8C40.6,45.1,40.9,45.4,40.9,45.9
	z"/>
<path class="st1" d="M43.8,45.3c0.3,0.3,0.3,0.8,0,1.2c-0.3,0.3-0.8,0.3-1.2,0c-0.3-0.3-0.3-0.8,0-1.2C43,45,43.5,45,43.8,45.3z"/>
<path class="st2" d="M48.8,41.9H24.2c-0.3,0-0.6,0.1-0.8,0.4c-0.2,0.2-0.3,0.5-0.4,0.8v5.5c0,0.3,0.1,0.6,0.4,0.8
	c0.2,0.2,0.5,0.3,0.8,0.4h24.6c0.3,0,0.6-0.1,0.8-0.4c0.2-0.2,0.3-0.5,0.4-0.8v-5.5c0-0.3-0.1-0.6-0.4-0.8
	C49.4,42.1,49.1,41.9,48.8,41.9z M49.1,48.7c0,0.1,0,0.2-0.1,0.2C49,48.9,48.9,49,48.8,49H24.2c-0.1,0-0.2,0-0.2-0.1
	c-0.1-0.1-0.1-0.1-0.1-0.2v-5.5c0,0,0-0.1,0-0.1c0,0,0-0.1,0.1-0.1c0,0,0.1,0,0.1-0.1c0,0,0.1,0,0.1,0h24.6c0.1,0,0.2,0,0.2,0.1
	c0.1,0.1,0.1,0.1,0.1,0.2L49.1,48.7z"/>
</svg>
