<?xml version="1.0" encoding="utf-8"?>
<!-- Generator: Adobe Illustrator 25.2.1, SVG Export Plug-In . SVG Version: 6.00 Build 0)  -->
<svg version="1.1" id="Layer_1" xmlns="http://www.w3.org/2000/svg" xmlns:xlink="http://www.w3.org/1999/xlink" x="0px" y="0px"
	 viewBox="0 0 72 72" style="enable-background:new 0 0 72 72;" xml:space="preserve">
<style type="text/css">
	.st0{fill:url(#SVGID_1_);fill-opacity:0.25;}
	.st1{fill:#0073EC;}
	.st2{fill-rule:evenodd;clip-rule:evenodd;fill:#0073EC;}
</style>
<radialGradient id="SVGID_1_" cx="-249.9565" cy="592.2143" r="1" gradientTransform="matrix(7.041719e-16 11.5 14 -8.572528e-16 -8255 2910)" gradientUnits="userSpaceOnUse">
	<stop  offset="0" style="stop-color:#0073EC"/>
	<stop  offset="1" style="stop-color:#0073EC;stop-opacity:0"/>
</radialGradient>
<rect x="22" y="24" class="st0" width="28" height="23"/>
<path class="st1" d="M26.3,26.1c0-0.2,0.2-0.4,0.4-0.4c0.2,0,0.4,0.2,0.4,0.4c0,0.2-0.2,0.4-0.4,0.4C26.5,26.5,26.3,26.3,26.3,26.1z
	"/>
<path class="st1" d="M29,25.6c-0.2,0-0.4,0.2-0.4,0.4c0,0.2,0.2,0.4,0.4,0.4s0.4-0.2,0.4-0.4C29.5,25.8,29.3,25.6,29,25.6z"/>
<path class="st1" d="M24,26.1c0-0.2,0.2-0.4,0.4-0.4c0.2,0,0.4,0.2,0.4,0.4c0,0.2-0.2,0.4-0.4,0.4C24.2,26.5,24,26.3,24,26.1z"/>
<path class="st1" d="M29.5,30.2H24c-0.2,0-0.4-0.2-0.4-0.4s0.2-0.4,0.4-0.4h5.4c0.2,0,0.4,0.2,0.4,0.4S29.7,30.2,29.5,30.2z"/>
<path class="st1" d="M29.5,31.3H24c-0.2,0-0.4,0.2-0.4,0.4s0.2,0.4,0.4,0.4h5.4c0.2,0,0.4-0.2,0.4-0.4S29.7,31.3,29.5,31.3z"/>
<path class="st1" d="M24,34.8h5.4c0.2,0,0.4,0.2,0.4,0.4c0,0.2-0.2,0.4-0.4,0.4H24c-0.2,0-0.4-0.2-0.4-0.4
	C23.7,35,23.8,34.8,24,34.8z"/>
<path class="st1" d="M29.5,33.1H24c-0.2,0-0.4,0.2-0.4,0.4c0,0.2,0.2,0.4,0.4,0.4h5.4c0.2,0,0.4-0.2,0.4-0.4
	C29.9,33.2,29.7,33.1,29.5,33.1z"/>
<path class="st1" d="M39.4,30.2H34c-0.2,0-0.4-0.2-0.4-0.4s0.2-0.4,0.4-0.4h5.4c0.2,0,0.4,0.2,0.4,0.4S39.7,30.2,39.4,30.2z"/>
<path class="st1" d="M34,35.9h5.4c0.2,0,0.4-0.2,0.4-0.4c0-0.2-0.2-0.4-0.4-0.4H34c-0.2,0-0.4,0.2-0.4,0.4
	C33.6,35.7,33.8,35.9,34,35.9z"/>
<path class="st1" d="M38.6,32.1h-2.9c-0.2,0-0.4-0.2-0.4-0.4s0.2-0.4,0.4-0.4h2.9c0.2,0,0.4,0.2,0.4,0.4S38.8,32.1,38.6,32.1z"/>
<path class="st1" d="M35.7,33.9h5.4c0.2,0,0.4-0.2,0.4-0.4c0-0.2-0.2-0.4-0.4-0.4h-5.4c-0.2,0-0.4,0.2-0.4,0.4
	C35.3,33.7,35.5,33.9,35.7,33.9z"/>
<path class="st1" d="M46.3,32.1h-6c-0.2,0-0.4-0.2-0.4-0.4s0.2-0.4,0.4-0.4h6c0.2,0,0.4,0.2,0.4,0.4S46.5,32.1,46.3,32.1z"/>
<path class="st1" d="M46.3,33.1h-3.4c-0.2,0-0.4,0.2-0.4,0.4c0,0.2,0.2,0.4,0.4,0.4h3.4c0.2,0,0.4-0.2,0.4-0.4
	C46.7,33.2,46.5,33.1,46.3,33.1z"/>
<path class="st1" d="M39.4,38.3H34c-0.2,0-0.4-0.2-0.4-0.4c0-0.2,0.2-0.4,0.4-0.4h5.4c0.2,0,0.4,0.2,0.4,0.4
	C39.8,38.1,39.7,38.3,39.4,38.3z"/>
<path class="st1" d="M39.4,43.2H34c-0.2,0-0.4,0.2-0.4,0.4c0,0.2,0.2,0.4,0.4,0.4h5.4c0.2,0,0.4-0.2,0.4-0.4
	C39.8,43.4,39.7,43.2,39.4,43.2z"/>
<path class="st1" d="M38.6,40.2h-2.9c-0.2,0-0.4-0.2-0.4-0.4c0-0.2,0.2-0.4,0.4-0.4h2.9c0.2,0,0.4,0.2,0.4,0.4
	C39,40,38.8,40.2,38.6,40.2z"/>
<path class="st1" d="M41.1,41.1h-5.4c-0.2,0-0.4,0.2-0.4,0.4c0,0.2,0.2,0.4,0.4,0.4h5.4c0.2,0,0.4-0.2,0.4-0.4
	C41.5,41.3,41.3,41.1,41.1,41.1z"/>
<path class="st1" d="M40.3,39.4h6c0.2,0,0.4,0.2,0.4,0.4c0,0.2-0.2,0.4-0.4,0.4h-6c-0.2,0-0.4-0.2-0.4-0.4
	C39.9,39.5,40.1,39.4,40.3,39.4z"/>
<path class="st1" d="M46.3,41.1h-3.4c-0.2,0-0.4,0.2-0.4,0.4c0,0.2,0.2,0.4,0.4,0.4h3.4c0.2,0,0.4-0.2,0.4-0.4
	C46.7,41.3,46.5,41.1,46.3,41.1z"/>
<path class="st2" d="M49.9,24.2v3.1h0v20.1c0,0.1-0.1,0.2-0.2,0.2H22.2c-0.1,0-0.2-0.1-0.2-0.2V28.1h0v-3.9c0-0.1,0.1-0.2,0.2-0.2
	h27.5C49.9,24,49.9,24.1,49.9,24.2z M49.2,24.8H22.8v2.5h26.4V24.8z M31,28.1h-8.2v18.7H31V28.1z M31.8,46.8h17.4V28.1H31.8V46.8z"
	/>
</svg>
