<?xml version="1.0" encoding="utf-8"?>
<!-- Generator: Adobe Illustrator 25.2.1, SVG Export Plug-In . SVG Version: 6.00 Build 0)  -->
<svg version="1.1" id="Layer_1" xmlns="http://www.w3.org/2000/svg" xmlns:xlink="http://www.w3.org/1999/xlink" x="0px" y="0px"
	 viewBox="0 0 72 72" style="enable-background:new 0 0 72 72;" xml:space="preserve">
<style type="text/css">
	.st0{fill:url(#SVGID_1_);fill-opacity:0.25;}
	.st1{fill-rule:evenodd;clip-rule:evenodd;fill:#0073EC;}
	.st2{fill:#0073EC;}
</style>
<radialGradient id="SVGID_1_" cx="-269.8376" cy="559.323" r="1" gradientTransform="matrix(13.8833 -19.2 -20.5182 -14.8365 15257.4033 3155.7085)" gradientUnits="userSpaceOnUse">
	<stop  offset="0" style="stop-color:#0073EC"/>
	<stop  offset="1" style="stop-color:#0073EC;stop-opacity:0"/>
	<stop  offset="1" style="stop-color:#0073EC;stop-opacity:0"/>
</radialGradient>
<path class="st0" d="M23.2,19.6c0.2-0.2,0.5-0.4,0.7-0.5c0.1,0,5.5-0.1,12.1,0l12,0l0.3,0.2c0.1,0.1,0.3,0.3,0.4,0.4
	c0.1,0.1,1.1,2.1,2.2,4.3c2.3,4.6,2.1,4.2,1.9,5.4c-0.2,1.2-0.8,2.4-1.6,3.1l-0.4,0.3l0,8.6l0,8.6h0.4c0.3,0,0.4,0,0.5,0.2
	c0.2,0.2,0.2,0.5,0,0.8L51.6,51H36H20.4l-0.2-0.2c-0.2-0.2-0.2-0.5,0-0.8c0.1-0.2,0.2-0.2,0.5-0.2h0.4v-8.6v-8.6l-0.3-0.2
	c-0.8-0.6-1.5-2-1.8-3.2c-0.2-1.1-0.3-0.8,1.9-5.4C22.1,21.6,23.1,19.7,23.2,19.6z"/>
<path class="st1" d="M24,19c-0.3,0.1-0.6,0.3-0.7,0.5c-0.1,0.1-1.1,2.1-2.2,4.3c-2.3,4.6-2.1,4.2-1.9,5.4c0.2,1.2,1,2.6,1.8,3.2
	l0.3,0.2v17.1h-0.4c-0.3,0-0.4,0-0.5,0.2c-0.2,0.2-0.2,0.5,0,0.8l0.2,0.2h31.2l0.2-0.2c0.2-0.2,0.2-0.5,0-0.8
	c-0.1-0.2-0.2-0.2-0.5-0.2h-0.4l0-17.1l0.4-0.3c0.8-0.7,1.4-1.9,1.6-3.1c0.2-1.1,0.3-0.8-1.9-5.4c-1.1-2.3-2.1-4.2-2.2-4.3
	c-0.1-0.1-0.3-0.3-0.4-0.4L48.1,19l-12,0C29.5,19,24.1,19,24,19z M48,20.3c0.1,0.1,3.6,7.1,3.6,7.3c0,0-0.3,0-0.7,0
	c-0.7,0-0.7,0-0.9,0.2c-0.2,0.2-0.2,0.5,0,0.8c0.1,0.2,0.2,0.2,1,0.2c1,0,1,0,0.7,0.8c-0.4,1.3-1.3,2.3-2.5,2.7
	c-0.6,0.2-1.5,0.2-2-0.1c-0.9-0.4-1.7-1.1-2.1-2c-0.2-0.5-0.4-1.3-0.4-1.4c0,0,0.9,0,1.8,0h1.8l0.1-0.2c0.1-0.1,0.1-0.2,0.1-0.3
	c0-0.2-0.2-0.5-0.3-0.6c-0.2-0.1-24.7-0.1-24.9,0c-0.2,0.1-0.3,0.4-0.3,0.6c0,0.1,0.1,0.2,0.1,0.3l0.1,0.2h1.8c1,0,1.8,0,1.8,0
	c0.1,0.1-0.1,0.8-0.3,1.3c-0.4,0.9-1.2,1.7-2.1,2.1c-0.5,0.2-1.4,0.2-2,0.1c-1.1-0.3-2.2-1.4-2.5-2.7c-0.2-0.8-0.3-0.8,0.7-0.8
	c0.8,0,0.9,0,1-0.2c0.2-0.2,0.2-0.5,0-0.8c-0.1-0.2-0.2-0.2-0.9-0.2c-0.4,0-0.7,0-0.7,0c0-0.1,3.5-7.1,3.6-7.3l0.2-0.2h23.6L48,20.3
	z M35.5,28.8c0,0.2-0.2,0.9-0.4,1.3c-0.2,0.6-0.8,1.3-1.3,1.6c-0.2,0.1-0.6,0.3-0.9,0.5c-0.5,0.2-0.6,0.2-1.3,0.2
	c-0.6,0-0.8-0.1-1.1-0.2c-0.8-0.4-1.6-1.1-1.9-2c-0.1-0.3-0.3-1.1-0.3-1.2c0-0.1,0.7-0.1,3.6-0.1C33.9,28.8,35.5,28.8,35.5,28.8z
	 M43.7,28.9c0,0.2-0.2,1-0.4,1.4c-0.4,0.8-1.2,1.6-2,1.9c-0.3,0.1-0.6,0.2-1.1,0.2c-0.6,0-0.8,0-1.2-0.2c-0.6-0.2-1-0.5-1.4-1
	c-0.5-0.6-0.9-1.3-1-2.2l0-0.3h3.6C43,28.8,43.7,28.8,43.7,28.9z M28.2,31.4c1.5,2.4,4.6,2.8,6.6,0.9c0.4-0.4,0.9-1,1-1.4
	c0.1-0.1,0.1-0.3,0.2-0.3c0,0,0.1,0.1,0.2,0.3c0.4,0.8,1.1,1.6,1.9,2.1c0.7,0.4,1.2,0.5,2,0.5c1.6,0,3.1-0.9,3.9-2.5l0.2-0.3
	l0.3,0.5c0.6,1,1.4,1.7,2.4,2.1c0.6,0.3,1.9,0.3,2.5,0.1c0.2-0.1,0.4-0.1,0.4-0.1s0,3.7,0,8.3v8.3h-1.7v-7.2c0-7.2,0-7.2-0.1-7.4
	l-0.1-0.2h-3.4c-3.3,0-3.4,0-3.5,0.2c-0.1,0.2-0.1,0.3-0.1,7.4v7.2H22.1v-8.3c0-4.6,0-8.3,0-8.3c0,0,0.2,0.1,0.4,0.1
	c0.5,0.1,1.6,0.1,2.1,0c1-0.3,2.2-1.3,2.8-2.3c0.2-0.4,0.3-0.5,0.3-0.3C27.9,30.9,28,31.2,28.2,31.4z M23.9,35.3
	c-0.1,0.2-0.1,0.2-0.1,6.2c0,5.8,0,6,0.1,6.2l0.1,0.2l14.7,0l0.4-0.4v-6.1c0-5.9,0-6.1-0.1-6.2l-0.1-0.2H24.1L23.9,35.3z M38.2,46.7
	l-13.4,0V36.2h13.4L38.2,46.7z M47.2,46.8h-5.4V36.2h5.4V46.8z M47.2,49.8h-5.4v-1.9h5.4V49.8z"/>
<path class="st2" d="M34.9,43.8c-0.6,0.3-1.2,0.5-1.9,0.5c-2,0-3.7-1.7-3.6-3.8c0-0.7,0.2-1.3,0.6-1.9c-1.1,0.6-1.9,1.8-1.9,3.1
	c0,2.1,1.6,3.7,3.6,3.8C33.1,45.6,34.3,44.9,34.9,43.8z"/>
<path class="st2" d="M31.9,38.5c-0.6,0-1.1,0.1-1.5,0.4c-0.3,0.5-0.5,1-0.5,1.6c0,1.8,1.4,3.2,3.2,3.3c0.5,0,1.1-0.1,1.6-0.4
	c0.3-0.5,0.4-1,0.4-1.6C35.1,39.9,33.7,38.5,31.9,38.5z"/>
</svg>
