<?xml version="1.0" encoding="utf-8"?>
<!-- Generator: Adobe Illustrator 25.2.1, SVG Export Plug-In . SVG Version: 6.00 Build 0)  -->
<svg version="1.1" id="Layer_1" xmlns="http://www.w3.org/2000/svg" xmlns:xlink="http://www.w3.org/1999/xlink" x="0px" y="0px"
	 viewBox="0 0 72 72" style="enable-background:new 0 0 72 72;" xml:space="preserve">
<style type="text/css">
	.st0{fill:url(#SVGID_1_);fill-opacity:0.25;}
	.st1{fill:#0073EC;}
</style>
<radialGradient id="SVGID_1_" cx="-249.4504" cy="596.8918" r="1" gradientTransform="matrix(6.859431e-16 11.2023 11.2591 -6.894211e-16 -6682.936 2828.6211)" gradientUnits="userSpaceOnUse">
	<stop  offset="0" style="stop-color:#0073EC"/>
	<stop  offset="1" style="stop-color:#0073EC;stop-opacity:0"/>
</radialGradient>
<path class="st0" d="M32.3,35.9l-5.1-0.2c-0.7,0-1.2-0.8-0.8-1.5l2.5-4.6c0.2-0.3,0.5-0.5,0.9-0.5h4.8c0.4,0,0.7-0.2,0.9-0.5
	c3.8-6.1,9.5-6,12.3-5.2c0.3,0.1,0.5,0.3,0.6,0.6c2,6.8-2.5,10.9-5.2,12.7c-0.3,0.2-0.5,0.5-0.5,0.9V42c0,0.4-0.2,0.7-0.5,0.9
	l-4.5,2.4c-0.7,0.4-1.5-0.1-1.5-0.9v-4.5C36.1,37.8,34.5,36,32.3,35.9z"/>
<path class="st1" d="M27.2,37.8l-3.5,3.5c-0.2,0.2-0.2,0.5,0,0.7c0.2,0.2,0.5,0.2,0.7,0l3.5-3.5c0.2-0.2,0.2-0.5,0-0.7
	C27.7,37.6,27.4,37.6,27.2,37.8z"/>
<path class="st1" d="M43.4,27c-0.5-0.2-1-0.3-1.5-0.1c-0.5,0.1-1,0.4-1.3,0.7c-0.4,0.4-0.6,0.8-0.7,1.3c-0.1,0.5,0,1,0.1,1.5
	c0.2,0.5,0.5,0.9,1,1.2c0.4,0.3,0.9,0.4,1.5,0.4c0.7,0,1.4-0.3,1.9-0.8s0.8-1.2,0.8-1.9c0-0.5-0.2-1-0.4-1.5S43.9,27.2,43.4,27z
	 M42.4,31c-0.3,0-0.6-0.1-0.9-0.3c-0.3-0.2-0.5-0.4-0.6-0.7c-0.1-0.3-0.2-0.6-0.1-0.9c0.1-0.3,0.2-0.6,0.4-0.8
	c0.2-0.2,0.5-0.4,0.8-0.4c0.3-0.1,0.6,0,0.9,0.1c0.3,0.1,0.6,0.3,0.7,0.6c0.3,0.2,0.4,0.5,0.4,0.8c0,0.4-0.2,0.8-0.5,1.2
	C43.3,30.9,42.8,31,42.4,31z"/>
<path class="st1" d="M32.2,42.6c0.4-0.4,0.7-1,0.7-1.6s-0.2-1.1-0.6-1.6c-0.4-0.4-1-0.6-1.6-0.6c-0.6,0-1.1,0.3-1.6,0.7
	c-0.3,0.3-0.5,0.9-0.7,1.4c-0.1,0.6-0.2,1.2-0.1,1.9v0.5h0.5c0.7,0,1.3,0,1.9-0.1C31.4,43.1,31.9,42.9,32.2,42.6z M29.4,42.4
	c0-0.4,0-0.8,0.1-1.2c0.1-0.5,0.3-0.8,0.4-0.9c0.3-0.3,0.6-0.4,0.9-0.4c0.3,0,0.6,0.1,0.8,0.3c0.2,0.2,0.3,0.5,0.3,0.8
	s-0.1,0.6-0.4,0.9c-0.1,0.1-0.4,0.3-0.9,0.4C30.3,42.3,29.9,42.4,29.4,42.4z"/>
<path class="st1" d="M49.3,27.6c0-1.1,0-2.3-0.3-3.8c-0.1-0.2-0.2-0.4-0.3-0.6c-0.2-0.2-0.4-0.3-0.7-0.4c-1.5-0.3-2.7-0.3-3.8-0.3
	c-2.1,0-3.9,0.5-5.5,1.5c-1.6,0.9-2.9,2.4-4.2,4.2h-4.3c-0.5,0-1,0.2-1.4,0.4c-0.4,0.2-0.8,0.6-1,1l0.4,0.2l-0.3-0.2L25.7,34
	c-0.1,0.2-0.1,0.4-0.2,0.7c0,0.4,0.2,0.8,0.5,1.1s0.7,0.5,1.1,0.5h4.6c0.5,0,1,0.1,1.4,0.3c0.5,0.2,0.9,0.5,1.2,0.8
	c0.3,0.3,0.6,0.8,0.8,1.2c0.2,0.5,0.3,0.9,0.3,1.4v0.5v4.2c0,0.4,0.2,0.8,0.5,1.1c0.3,0.3,0.7,0.5,1.1,0.5c0.2,0,0.5-0.1,0.7-0.2
	l4.4-2.2c0.4-0.2,0.8-0.6,1-1c0.2-0.4,0.4-0.9,0.4-1.4v-4.2c1.9-1.2,3.3-2.6,4.2-4.2C48.8,31.4,49.3,29.6,49.3,27.6z M26.7,35.1
	c-0.1-0.1-0.2-0.2-0.2-0.4c0-0.1,0-0.2,0.1-0.3l2.2-4.4c0.1-0.2,0.3-0.5,0.6-0.6c0.3-0.2,0.6-0.3,0.8-0.3H34c-0.8,1.6-2.1,4.2-3,6.1
	h-3.9C27,35.3,26.8,35.2,26.7,35.1z M42.3,42.4c-0.2,0.3-0.4,0.5-0.6,0.6l0.2,0.4l-0.1-0.1L41.7,43l-4.4,2.2c-0.1,0-0.2,0.1-0.3,0.1
	s-0.3-0.1-0.4-0.2c-0.1-0.1-0.2-0.2-0.2-0.4v-3.8c1.8-0.9,4.5-2.2,6.1-3v3.7C42.6,41.8,42.5,42.1,42.3,42.4z M47,32.6
	c-0.9,1.5-2.2,2.8-4.1,4c0,0,0,0-0.1,0c-1.4,0.7-4.2,2.1-6.3,3.1c0-0.5-0.1-1-0.3-1.5c-0.2-0.6-0.6-1.1-1-1.5c-0.4-0.4-1-0.8-1.5-1
	s-1-0.3-1.5-0.3c1-2.1,2.4-4.9,3.1-6.3c0,0,0-0.1,0.1-0.1c1.2-1.9,2.5-3.2,4-4.1s3.1-1.3,5-1.3c1.1,0,2.2,0,3.6,0.3
	c0,0,0.1,0,0.1,0.1C48,23.9,48,23.9,48,24c0.3,1.4,0.3,2.5,0.3,3.6C48.3,29.5,47.9,31.1,47,32.6z"/>
<path class="st1" d="M33.5,44.1L30,47.7c-0.2,0.2-0.2,0.5,0,0.7c0.2,0.2,0.5,0.2,0.7,0l3.5-3.5c0.2-0.2,0.2-0.5,0-0.7
	C34.1,43.9,33.7,43.9,33.5,44.1z"/>
</svg>
