<?xml version="1.0" encoding="utf-8"?>
<!-- Generator: Adobe Illustrator 25.2.1, SVG Export Plug-In . SVG Version: 6.00 Build 0)  -->
<svg version="1.1" id="Layer_1" xmlns="http://www.w3.org/2000/svg" xmlns:xlink="http://www.w3.org/1999/xlink" x="0px" y="0px"
	 viewBox="0 0 72 72" style="enable-background:new 0 0 72 72;" xml:space="preserve">
<style type="text/css">
	.st0{fill:url(#SVGID_1_);fill-opacity:0.25;}
	.st1{fill:none;stroke:#0073EC;}
</style>
<radialGradient id="SVGID_1_" cx="-249.7473" cy="593.6923" r="1" gradientTransform="matrix(6.965179e-16 11.375 13 -7.960204e-16 -7682 2877.25)" gradientUnits="userSpaceOnUse">
	<stop  offset="0" style="stop-color:#0073EC"/>
	<stop  offset="1" style="stop-color:#0073EC;stop-opacity:0"/>
</radialGradient>
<path class="st0" d="M26.3,28.3H23c0,6.3,5.1,11.4,11.4,11.4v7.3c0,0.4,0.4,0.8,0.8,0.8h1.6c0.4,0,0.8-0.4,0.8-0.8v-7.3
	C37.6,33.3,32.5,28.3,26.3,28.3z M45.8,25c-4.3,0-8,2.4-9.9,5.9c1.4,1.5,2.4,3.4,3,5.5C44.5,35.7,49,30.9,49,25H45.8z"/>
<path class="st1" d="M26.3,28.3H23c0,6.3,5.1,11.4,11.4,11.4v7.3c0,0.4,0.4,0.8,0.8,0.8h1.6c0.4,0,0.8-0.4,0.8-0.8v-7.3
	C37.6,33.3,32.5,28.3,26.3,28.3z M45.8,25c-4.3,0-8,2.4-9.9,5.9c1.4,1.5,2.4,3.4,3,5.5C44.5,35.7,49,30.9,49,25H45.8z"/>
</svg>
