<?xml version="1.0" encoding="utf-8"?>
<!-- Generator: Adobe Illustrator 25.2.1, SVG Export Plug-In . SVG Version: 6.00 Build 0)  -->
<svg version="1.1" id="Layer_1" xmlns="http://www.w3.org/2000/svg" xmlns:xlink="http://www.w3.org/1999/xlink" x="0px" y="0px"
	 viewBox="0 0 72 72" style="enable-background:new 0 0 72 72;" xml:space="preserve">
<style type="text/css">
	.st0{fill-rule:evenodd;clip-rule:evenodd;fill:url(#SVGID_1_);fill-opacity:0.25;}
	.st1{fill:#0073EC;}
	.st2{fill-rule:evenodd;clip-rule:evenodd;fill:#0073EC;}
</style>
<radialGradient id="SVGID_1_" cx="-253.3571" cy="592.2143" r="1" gradientTransform="matrix(8.572528e-16 14 14 -8.572528e-16 -8255 3583)" gradientUnits="userSpaceOnUse">
	<stop  offset="0" style="stop-color:#0073EC"/>
	<stop  offset="1" style="stop-color:#0073EC;stop-opacity:0"/>
</radialGradient>
<path class="st0" d="M46.2,30.8v-8.4c0-0.1,0-0.2-0.1-0.3C45.9,22,45.8,22,45.7,22H22.5c-0.1,0-0.2,0-0.3,0.1
	C22,22.2,22,22.4,22,22.5v20c0,0.1,0,0.2,0.1,0.3c0.1,0.1,0.2,0.1,0.3,0.1h11.8v0.6c-0.4,0.2-0.8,0.5-1.2,0.8l0,0
	c-1.4,1.4-2.2,3.1-2.2,5.1V50H50v-0.7c0-1.9-0.8-3.7-2.2-5.1l0,0c-0.5-0.5-1.2-0.9-1.9-1v-0.7c0.2-0.2,0.5-0.4,0.6-0.6
	c0.7-1.1,1.1-2.5,1.1-3.8v-0.9l0,0c-0.1-0.9-0.4-1.7-0.7-2.5c0,0,0,0,0-0.1c0,0,0-0.1-0.1-0.1l0,0v0l0-0.1l0,0
	c-0.3-0.4-0.3-0.8-0.6-1.3C46.2,32.3,46.2,31.5,46.2,30.8z"/>
<path class="st1" d="M25,25.9c0.5,0,1-0.4,1-1s-0.4-1-1-1c-0.5,0-1,0.4-1,1S24.4,25.9,25,25.9z"/>
<path class="st1" d="M28.9,25c0,0.5-0.4,1-1,1c-0.5,0-1-0.4-1-1s0.4-1,1-1C28.5,24,28.9,24.4,28.9,25z"/>
<path class="st1" d="M31,25.9c0.5,0,1-0.4,1-1s-0.4-1-1-1c-0.5,0-1,0.4-1,1S30.4,25.9,31,25.9z"/>
<path class="st2" d="M22.3,22c-0.1,0-0.2,0-0.2,0.1C22,22.2,22,22.2,22,22.3v20.2c0,0.1,0,0.2,0.1,0.2c0.1,0.1,0.2,0.1,0.2,0.1H36
	l-0.3-0.2c-0.3-0.2-0.5-0.5-0.6-0.7l0-0.1H23V28.3h22.1v3l0,0c0.3,0.2,0.5,0.4,0.8,0.6l0.2,0.2v-9.9c0-0.1,0-0.2-0.1-0.2
	C46,22,45.9,22,45.8,22H22.3z M23,27.3V23h22.1v4.3H23z"/>
<path class="st1" d="M30.1,33.4l-3.6-3l0.6,4.7l0.8-1.1l0.8,1.5l0.9-0.5l-0.8-1.4L30.1,33.4z"/>
<path class="st1" d="M33,38c0-4,3.3-7.3,7.3-7.3c2,0,3.8,0.8,5.1,2.1l0,0c0.6,0.6,0.9,1.1,1.3,1.7l0,0v0c0,0,0,0,0,0.1l0,0l0,0
	c0,0,0.1,0,0.1,0.1c0,0,0,0,0,0.1c0.3,0.8,0.6,1.6,0.7,2.5l0,0l0,0.9c0,1.3-0.4,2.7-1.1,3.8c-0.4,0.6-1,1-1.8,1h-6v-0.5
	c0-0.9,0.8-1.6,1.6-1.6c0.7,0,1.3,0.4,1.5,1h3c0.3,0,0.7-0.2,0.9-0.5l0,0c0.7-1.1,1-2.5,1-3.7l0,0l0-0.5c-0.1-0.1-0.1-0.2-0.1-0.2
	v-0.2c-0.6-2.8-3.1-4.9-6.1-4.9c-3.5,0-6.3,2.9-6.3,6.3c0,0.1-0.1,0.3-0.2,0.4c-0.1,0.1-0.2,0.2-0.4,0.2c-0.1,0-0.3-0.1-0.4-0.2
	C33.1,38.3,33,38.2,33,38z"/>
<path class="st1" d="M40.4,33.2c-2.7,0-4.8,2.1-4.8,4.8c0,1.8,1,3.3,2.4,4.2l0.2,0.1v-0.2c0-0.2,0.1-0.4,0.1-0.6l0,0
	c0-0.1,0-0.1,0.1-0.2l0-0.1l-0.1-0.1c-1.1-0.7-1.7-1.9-1.7-3.2c0-2.2,1.7-3.8,3.8-3.8c2.1,0,3.8,1.7,3.8,3.8c0,1.1-0.5,2.2-1.3,2.9
	l-0.2,0.2h0.4c0.4,0,0.9-0.1,1.2-0.3l0,0l0,0c0.6-0.8,0.9-1.8,0.9-2.8C45.2,35.4,43.1,33.2,40.4,33.2z"/>
<path class="st2" d="M43.5,43.6c1.5-0.6,3.1-0.2,4.3,0.9c1.4,1.3,2.2,3.1,2.2,5V50H31v-0.5c0-1.9,0.8-3.7,2.2-5
	c1.1-1.1,2.9-1.4,4.3-0.9c1,0.3,2,0.5,3.1,0.5C41.5,44.2,42.6,44,43.5,43.6L43.5,43.6z M33.9,45.2c-1.1,1-1.7,2.3-1.8,3.7H49
	c-0.2-1.4-0.8-2.8-1.8-3.7c-0.9-0.8-2.1-1-3.2-0.6c-1.1,0.4-2.2,0.6-3.4,0.6s-2.3-0.2-3.4-0.6l0,0C36,44.1,34.7,44.4,33.9,45.2z"/>
</svg>
