<?xml version="1.0" encoding="utf-8"?>
<!-- Generator: Adobe Illustrator 25.2.1, SVG Export Plug-In . SVG Version: 6.00 Build 0)  -->
<svg version="1.1" id="Layer_1" xmlns="http://www.w3.org/2000/svg" xmlns:xlink="http://www.w3.org/1999/xlink" x="0px" y="0px"
	 viewBox="0 0 72 72" style="enable-background:new 0 0 72 72;" xml:space="preserve">
<style type="text/css">
	.st0{fill-rule:evenodd;clip-rule:evenodd;fill:url(#SVGID_1_);fill-opacity:0.25;}
	.st1{fill:#0073EC;}
	.st2{fill-rule:evenodd;clip-rule:evenodd;fill:#0073EC;}
</style>
<radialGradient id="SVGID_1_" cx="-252.1398" cy="565.2186" r="1" gradientTransform="matrix(18.1204 4.7807 4.6924 -17.7856 1951.2489 11297.7539)" gradientUnits="userSpaceOnUse">
	<stop  offset="0" style="stop-color:#0073EC"/>
	<stop  offset="1" style="stop-color:#0073EC;stop-opacity:0"/>
	<stop  offset="1" style="stop-color:#0073EC;stop-opacity:0"/>
</radialGradient>
<path class="st0" d="M51.1,32.4c0,0.1,0,0.1-0.1,0.2v0.6c0.1,0,0.2,0,0.3,0.1c0.1,0.1,0.3,0.2,0.4,0.3c0.1,0.1,0.2,0.2,0.3,0.4
	C52,34,52,34.2,52,34.4V40c0,0.2-0.1,0.4-0.2,0.6v2c0.1,0.2,0.1,0.4,0.2,0.6v5.6c0,0.3-0.1,0.6-0.4,0.9c-0.2,0.2-0.5,0.4-0.8,0.4H37
	V50h-4.3c-0.2,0.1-0.5,0.3-0.8,0.4c-1,0.4-2,0.6-3.1,0.6c-1.1,0-2.1-0.2-3.1-0.6c-0.9-0.4-1.8-1-2.5-1.7c-0.7-0.7-1.3-1.6-1.7-2.6
	c-0.4-1-0.6-2-0.6-3.1c0-1.1,0.2-2.1,0.6-3.1c0.7-1.6,1.9-3,3.4-3.8v-0.8l0,0c-0.1,0-0.1-0.1-0.1-0.2c0-0.1-0.1-0.1-0.1-0.2v-0.5
	c0-0.3,0.1-0.6,0.4-0.9c0.2-0.2,0.5-0.4,0.9-0.4h0.1v-0.7c0,0,0,0,0,0c0-0.1,0-0.1,0-0.2c-0.1-1.1,0.3-2.2,0.9-3.1
	c0.6-0.9,1.6-1.6,2.7-1.8c0.1-0.5,0.3-0.9,0.6-1.3c0.3-0.4,0.6-0.7,1.1-1c0.4-0.2,0.9-0.4,1.3-0.4c0.5-0.1,1,0,1.4,0.1
	c0.8-1.4,2.1-2.5,3.6-3.1c1.5-0.6,3.1-0.7,4.7-0.3c1.6,0.4,3,1.3,4,2.6c1,1.3,1.6,2.8,1.7,4.4c0.9,0.3,1.6,0.8,2.2,1.6
	C50.8,30.6,51.1,31.5,51.1,32.4L51.1,32.4z"/>
<path class="st1" d="M47.7,46.6c0.1,0.1,0.3,0.1,0.5,0.1c0.1,0,0.2,0,0.3-0.1c0.1,0,0.2-0.1,0.3-0.2c0.1-0.1,0.1-0.2,0.2-0.3
	c0-0.1,0.1-0.2,0.1-0.3c0-0.2,0-0.3-0.1-0.5c-0.1-0.1-0.2-0.2-0.4-0.3c-0.2-0.1-0.3-0.1-0.5,0c-0.2,0-0.3,0.1-0.4,0.2
	c-0.1,0.1-0.2,0.3-0.2,0.4c0,0.2,0,0.3,0,0.5C47.5,46.4,47.6,46.5,47.7,46.6z"/>
<path class="st1" d="M45.9,45.4c0.1,0.1,0.1,0.3,0.1,0.5h0c0,0.2-0.1,0.4-0.2,0.6c-0.2,0.2-0.4,0.2-0.6,0.2c-0.2,0-0.3,0-0.5-0.1
	c-0.1-0.1-0.2-0.2-0.3-0.4c-0.1-0.2-0.1-0.3,0-0.5c0-0.2,0.1-0.3,0.2-0.4c0.1-0.1,0.3-0.2,0.4-0.2c0.2,0,0.3,0,0.5,0
	C45.7,45.2,45.8,45.3,45.9,45.4z"/>
<path class="st1" d="M38,41.8l12.8,0.1c0.3,0,0.6,0.1,0.8,0.4c0.2,0.2,0.4,0.5,0.4,0.9v5.6c0,0.3-0.1,0.6-0.4,0.9
	c-0.2,0.2-0.5,0.4-0.8,0.4H35.1c-0.1,0-0.2,0-0.2-0.1s-0.1-0.1-0.2-0.2c0-0.1-0.1-0.2-0.1-0.2c0-0.1,0-0.2,0.1-0.2l0,0
	c0-0.1,0.1-0.1,0.2-0.2C35,49,35,49,35.1,49h15.7c0.1,0,0.2,0,0.2-0.1c0.1-0.1,0.1-0.1,0.1-0.2v-5.6c0-0.1,0-0.2-0.1-0.2
	c-0.1-0.1-0.1-0.1-0.2-0.1L38,42.7c-0.1,0-0.2,0-0.3-0.1s-0.1-0.2-0.2-0.3l0,0c0-0.1,0-0.1,0-0.2c0-0.1,0-0.1,0.1-0.2
	c0-0.1,0.1-0.1,0.2-0.1C37.9,41.8,38,41.8,38,41.8z"/>
<path class="st1" d="M42.7,45.4c0.1,0.1,0.1,0.3,0.1,0.5c0,0.2-0.1,0.4-0.2,0.6c-0.2,0.2-0.4,0.2-0.6,0.2c-0.2,0-0.3,0-0.5-0.1
	c-0.1-0.1-0.2-0.2-0.3-0.4c-0.1-0.2-0.1-0.3,0-0.5c0-0.2,0.1-0.3,0.2-0.4s0.3-0.2,0.4-0.2c0.2,0,0.3,0,0.5,0
	C42.5,45.2,42.6,45.3,42.7,45.4z"/>
<path class="st1" d="M26,33.1h24.8c0.2,0,0.3,0,0.5,0.1c0.1,0.1,0.3,0.2,0.4,0.3c0.1,0.1,0.2,0.2,0.3,0.4C52,34,52,34.2,52,34.4V40
	c0,0.3-0.1,0.6-0.4,0.9c-0.2,0.2-0.5,0.4-0.8,0.4H38c-0.1,0-0.2,0-0.3-0.1c-0.1-0.1-0.1-0.1-0.2-0.2l0,0c0-0.1,0-0.1,0-0.2
	c0-0.1,0-0.1,0.1-0.2c0-0.1,0.1-0.1,0.2-0.1c0.1,0,0.1-0.1,0.2-0.1h12.8c0,0,0.1,0,0.1,0c0,0,0.1,0,0.1-0.1c0,0,0-0.1,0.1-0.1
	c0,0,0-0.1,0-0.1v-5.6c0,0,0-0.1,0-0.1c0,0,0-0.1-0.1-0.1c0,0-0.1-0.1-0.1-0.1c0,0-0.1,0-0.1,0H26c-0.1,0-0.2,0-0.2,0.1
	c-0.1,0.1-0.1,0.1-0.1,0.2v0.5c0,0.1,0,0.2-0.1,0.3c-0.1,0.1-0.1,0.1-0.2,0.2l0,0c-0.1,0-0.1,0-0.2,0c-0.1,0-0.1,0-0.2-0.1
	c-0.1,0-0.1-0.1-0.1-0.2c0-0.1-0.1-0.1-0.1-0.2v-0.5c0-0.3,0.1-0.6,0.4-0.9C25.4,33.3,25.7,33.1,26,33.1z"/>
<path class="st1" d="M42.7,36.7c0.1,0.1,0.1,0.3,0.1,0.5c0,0.2-0.1,0.4-0.2,0.6C42.5,37.9,42.3,38,42,38c-0.2,0-0.3,0-0.5-0.1
	c-0.1-0.1-0.2-0.2-0.3-0.4c-0.1-0.2-0.1-0.3,0-0.5c0-0.2,0.1-0.3,0.2-0.4c0.1-0.1,0.3-0.2,0.4-0.2c0.2,0,0.3,0,0.5,0
	C42.5,36.5,42.6,36.6,42.7,36.7z"/>
<path class="st1" d="M48.9,36.7C49,36.8,49,37,49,37.2l0,0c0,0.1,0,0.2-0.1,0.3c0,0.1-0.1,0.2-0.2,0.3c-0.1,0.1-0.2,0.1-0.3,0.2
	c-0.1,0-0.2,0.1-0.3,0.1c-0.2,0-0.3,0-0.5-0.1c-0.1-0.1-0.2-0.2-0.3-0.4c-0.1-0.2-0.1-0.3,0-0.5c0-0.2,0.1-0.3,0.2-0.4
	c0.1-0.1,0.3-0.2,0.4-0.2s0.3,0,0.5,0C48.7,36.5,48.8,36.6,48.9,36.7z"/>
<path class="st1" d="M45.9,36.7C46,36.8,46,37,46,37.2l0,0c0,0.1,0,0.2-0.1,0.3c0,0.1-0.1,0.2-0.2,0.3c-0.1,0.1-0.2,0.1-0.3,0.2
	c-0.1,0-0.2,0.1-0.3,0.1c-0.2,0-0.3,0-0.5-0.1c-0.1-0.1-0.2-0.2-0.3-0.4c-0.1-0.2-0.1-0.3,0-0.5c0-0.2,0.1-0.3,0.2-0.4
	c0.1-0.1,0.3-0.2,0.4-0.2c0.2,0,0.3,0,0.5,0C45.7,36.5,45.8,36.6,45.9,36.7z"/>
<path class="st1" d="M26.7,32.7c-0.1,0-0.1,0-0.2,0c-0.1,0-0.2,0-0.3-0.1c-0.1-0.1-0.1-0.2-0.1-0.3c0-0.1,0-0.1,0-0.2
	c-0.1-1.1,0.3-2.2,0.9-3.1c0.6-0.9,1.6-1.6,2.7-1.8c0.1-0.5,0.3-0.9,0.6-1.3c0.3-0.4,0.6-0.7,1.1-1c0.4-0.2,0.9-0.4,1.3-0.4
	c0.5-0.1,1,0,1.4,0.1c0.8-1.4,2.1-2.5,3.6-3.1c1.5-0.6,3.1-0.7,4.7-0.3c1.6,0.4,3,1.3,4,2.6c1,1.3,1.6,2.8,1.7,4.4
	c0.9,0.3,1.6,0.8,2.2,1.6c0.5,0.7,0.8,1.6,0.8,2.6v0c0,0.1,0,0.2-0.1,0.2c-0.1,0.1-0.2,0.1-0.2,0.1h-0.1c0,0-0.1,0-0.1,0
	c0,0-0.1,0-0.1-0.1s-0.1-0.1-0.1-0.1c0,0,0-0.1,0-0.1v0c0-0.8-0.3-1.6-0.8-2.2c-0.5-0.6-1.2-1-1.9-1.2c-0.1,0-0.2-0.1-0.2-0.1
	c-0.1-0.1-0.1-0.2-0.1-0.2c0-3.7-3.1-6.7-6.7-6.7c-1.2,0-2.4,0.3-3.4,0.9c-1,0.6-1.9,1.5-2.5,2.6c0,0.1-0.1,0.2-0.2,0.2
	c-0.1,0-0.2,0-0.3,0c-0.3-0.1-0.7-0.2-1-0.2c-0.6,0-1.3,0.2-1.7,0.7s-0.8,1-0.9,1.7c0,0.1,0,0.2-0.1,0.2c-0.1,0.1-0.1,0.1-0.2,0.1
	c-0.9,0.2-1.8,0.7-2.4,1.5c-0.6,0.8-0.9,1.7-0.8,2.7c0,0.1,0,0.1,0,0.2c0,0.1,0,0.1,0,0.2c0,0.1,0,0.1-0.1,0.1
	C26.8,32.6,26.8,32.7,26.7,32.7z"/>
<path class="st1" d="M44.6,25.7c-0.1,0-0.1,0.1-0.2,0.1c-0.1,0-0.1,0-0.2,0c-0.1,0-0.1-0.1-0.1-0.1c-0.4-0.5-1-1-1.6-1.3
	c-0.6-0.3-1.3-0.4-2-0.4c-0.1,0-0.1,0-0.2,0c-0.1,0-0.1,0-0.1-0.1c0,0-0.1-0.1-0.1-0.1c0,0,0-0.1,0-0.2c0-0.1,0-0.1,0-0.2
	c0,0,0.1-0.1,0.1-0.1c0,0,0.1-0.1,0.1-0.1c0.1,0,0.1,0,0.2,0c0.8,0,1.6,0.2,2.3,0.5c0.7,0.3,1.4,0.8,1.9,1.5c0,0.1,0.1,0.1,0.1,0.2
	c0,0.1,0,0.2,0,0.2C44.7,25.6,44.7,25.7,44.6,25.7z"/>
<path class="st1" d="M33.1,44.4c-0.1,0.3-0.2,0.6-0.3,1.1c-0.1,0.4-0.3,1-0.5,1.6l-2.4-7.3c0.1,0,0.2,0,0.4,0c0.1,0,0.3,0,0.4,0
	c0.2,0,0.3-0.1,0.3-0.3c0-0.1-0.1-0.1-0.1-0.2c-0.1,0-0.1-0.1-0.2-0.1c-0.7,0-1.2,0.1-1.5,0.1c-0.4,0-0.7,0-1.1,0l-0.7-0.1l-0.3,0
	c0,0-0.1,0-0.1,0s-0.1,0-0.1,0c-0.1,0-0.1,0.1-0.1,0.2c0,0,0,0.1,0,0.1c0,0,0,0.1,0,0.1c0,0.1,0.1,0.1,0.2,0.1c0,0,0.1,0,0.2,0
	c0.1,0,0.3,0,0.5,0.1l1.1,2.9l-1.5,4.4l-2.5-7.3c0.1,0,0.3,0,0.4,0c0.1,0,0.3,0,0.4,0c0.2,0,0.3-0.1,0.3-0.3c0-0.1-0.1-0.1-0.1-0.2
	c-0.1,0-0.1-0.1-0.2-0.1c-0.4,0.1-0.8,0.1-1.2,0.1c-0.4,0-0.7,0-1,0c0.6-0.9,1.4-1.7,2.4-2.2c1-0.6,2.1-0.8,3.2-0.8
	c0.9,0,1.7,0.2,2.5,0.5c0.8,0.3,1.5,0.8,2.1,1.3c-0.2,0-0.4,0-0.6,0.1c-0.2,0.1-0.4,0.3-0.5,0.5c-0.1,0.2-0.1,0.5-0.1,0.7
	c0,0.3,0.1,0.5,0.2,0.7c0.1,0.2,0.2,0.5,0.4,0.7c0.1,0.2,0.2,0.4,0.3,0.5c0.2,0.3,0.3,0.7,0.3,1c0,0.4,0,0.9-0.2,1.3
	C33.2,43.8,33.2,44,33.1,44.4z"/>
<path class="st1" d="M34.9,40.6c0-0.1,0-0.3,0-0.4c0-0.1,0-0.3,0-0.4c0.8,1.5,1,3.3,0.5,5c-0.2,0.6-0.4,1.1-0.7,1.6
	c-0.3,0.5-0.7,1-1.1,1.4c-0.4,0.4-0.9,0.8-1.4,1.1c0.1-0.2,0.2-0.5,0.3-1c0.2-0.5,0.3-1,0.5-1.5c0.2-0.5,0.3-1,0.5-1.5
	c0.2-0.5,0.3-0.8,0.3-1c0.2-0.5,0.3-1,0.5-1.5C34.7,41.8,34.8,41.2,34.9,40.6z"/>
<path class="st1" d="M22.2,43c0,0.7,0.1,1.3,0.3,1.9c0.2,0.6,0.4,1.2,0.8,1.7c0.3,0.5,0.7,1,1.2,1.4c0.5,0.4,1,0.8,1.5,1l-3.2-8.9
	C22.4,41.1,22.2,42.1,22.2,43z"/>
<path class="st1" d="M27.9,49.7c-0.3,0-0.6-0.1-0.9-0.2l2-5.9l2.1,5.8C30.1,49.8,29,49.9,27.9,49.7z"/>
<path class="st2" d="M34.5,37.3c0.7,0.7,1.3,1.6,1.7,2.5v0c0.4,1,0.6,2,0.6,3.1s-0.2,2.1-0.6,3.1c-0.8,1.9-2.3,3.5-4.2,4.3
	c-1,0.4-2,0.6-3.1,0.6c-1.1,0-2.1-0.2-3.1-0.6c-0.9-0.4-1.8-1-2.5-1.7c-0.7-0.7-1.3-1.6-1.7-2.6c-0.4-1-0.6-2-0.6-3.1
	c0-1.1,0.2-2.1,0.6-3.1c0.8-1.9,2.3-3.4,4.2-4.3c1-0.4,2-0.6,3.1-0.6c1.1,0,2.1,0.2,3.1,0.6C32.9,36,33.8,36.6,34.5,37.3z
	 M31.8,49.9c1.8-0.8,3.2-2.2,3.9-4c0.4-0.9,0.6-1.9,0.6-2.9s-0.2-2-0.6-2.9c-0.4-0.9-0.9-1.7-1.6-2.4c-0.7-0.7-1.5-1.2-2.3-1.6
	c-0.9-0.4-1.9-0.6-2.9-0.6c-1,0-2,0.2-2.9,0.6c-0.9,0.4-1.7,0.9-2.3,1.6c-0.7,0.7-1.2,1.5-1.6,2.4C21.7,41,21.5,42,21.5,43
	s0.2,2,0.6,2.9c0.8,1.8,2.2,3.2,3.9,4c0.9,0.4,1.9,0.6,2.9,0.6C29.9,50.4,30.9,50.2,31.8,49.9z"/>
</svg>
