<?xml version="1.0" encoding="utf-8"?>
<!-- Generator: Adobe Illustrator 25.2.1, SVG Export Plug-In . SVG Version: 6.00 Build 0)  -->
<svg version="1.1" id="Layer_1" xmlns="http://www.w3.org/2000/svg" xmlns:xlink="http://www.w3.org/1999/xlink" x="0px" y="0px"
	 viewBox="0 0 72 72" style="enable-background:new 0 0 72 72;" xml:space="preserve">
<style type="text/css">
	.st0{fill:url(#SVGID_1_);fill-opacity:0.25;}
	.st1{fill-rule:evenodd;clip-rule:evenodd;fill:#0073EC;}
</style>
<radialGradient id="SVGID_1_" cx="-249.4053" cy="595.865" r="1" gradientTransform="matrix(6.843633e-16 11.1765 11.7647 -7.203801e-16 -6974.4082 2823.8315)" gradientUnits="userSpaceOnUse">
	<stop  offset="0" style="stop-color:#0073EC"/>
	<stop  offset="1" style="stop-color:#0073EC;stop-opacity:0"/>
</radialGradient>
<path class="st0" d="M24,25.2h23.5v22.4H24V25.2z"/>
<path class="st1" d="M47.4,46.9h-1.2v-0.7h-1.1v0.7h-3v-0.7H41v0.7h-3v-0.7h-1.1v0.7h-3v-0.7h-1.1v0.7h-3v-0.7h-1.1v0.7h-3v-0.7
	h-0.7v-3h0.7v-1.1h-0.7v-3h0.7V38h-0.7v-3h0.7v-1.1h-0.7v-3h0.7v-1.1h-0.7v-3h0.7v-1.1h-0.7v-1.2c0-0.3-0.3-0.6-0.6-0.6
	c-0.3,0-0.6,0.3-0.6,0.6V48h23.4c0.3,0,0.6-0.3,0.6-0.6S47.7,46.9,47.4,46.9z"/>
<path class="st1" d="M41.4,36.4l2.7-4.4l0.7,1.4l0.9-5l-4,3l1.6,0.1l-2.1,3.4l-3.5-3.2L34,37.2l-3.5-1.3l-2.9,4.2l0,0
	c-0.1,0.2-0.1,0.6,0.1,0.7c0.1,0.1,0.2,0.1,0.3,0.1c0.2,0,0.3-0.1,0.4-0.2l2.4-3.6l3.5,1.3l3.5-5.2L41.4,36.4z"/>
</svg>
