<?xml version="1.0" encoding="utf-8"?>
<!-- Generator: Adobe Illustrator 25.2.1, SVG Export Plug-In . SVG Version: 6.00 Build 0)  -->
<svg version="1.1" id="Layer_1" xmlns="http://www.w3.org/2000/svg" xmlns:xlink="http://www.w3.org/1999/xlink" x="0px" y="0px"
	 viewBox="0 0 72 72" style="enable-background:new 0 0 72 72;" xml:space="preserve">
<style type="text/css">
	.st0{fill:url(#SVGID_1_);fill-opacity:0.25;}
	.st1{fill:url(#SVGID_2_);fill-opacity:0.25;}
	.st2{fill:#0073EC;}
</style>
<radialGradient id="SVGID_1_" cx="-247.3391" cy="594.4536" r="1" gradientTransform="matrix(6.190835e-16 10.1104 12.5387 -7.677740e-16 -7417.1362 2536.8081)" gradientUnits="userSpaceOnUse">
	<stop  offset="0" style="stop-color:#0073EC"/>
	<stop  offset="1" style="stop-color:#0073EC;stop-opacity:0"/>
</radialGradient>
<path class="st0" d="M32.6,35c2.5,0,4.5-2,4.5-4.5s-2-4.5-4.5-4.5s-4.5,2-4.5,4.5S30.1,35,32.6,35z"/>
<radialGradient id="SVGID_2_" cx="-247.3391" cy="594.4536" r="1" gradientTransform="matrix(6.190835e-16 10.1104 12.5387 -7.677740e-16 -7417.1362 2536.8081)" gradientUnits="userSpaceOnUse">
	<stop  offset="0" style="stop-color:#0073EC"/>
	<stop  offset="1" style="stop-color:#0073EC;stop-opacity:0"/>
</radialGradient>
<path class="st1" d="M37.1,38.5c-1.2,0.2-4,0.4-6,0c-2.5-0.5-6-0.5-6.5,1.5s-1,5.5,0,6c0.8,0.4,13,0.2,19,0c1.8,0.2,5.5-0.5,5.5-4.5
	c0-5-3-6.5-5.5-6.5c-2,0-3.8,2.3-4.5,3.5H37.1z"/>
<path class="st2" d="M32.5,36c3,0,5.4-2.5,5.4-5.5S35.4,25,32.5,25S27,27.5,27,30.5S29.5,36,32.5,36z M32.5,26.4c2.2,0,4,1.9,4,4.1
	s-1.8,4.1-4,4.1s-4.1-1.9-4.1-4.1S30.2,26.4,32.5,26.4z M43.9,34.6c-3.4,0-6.1,2.8-6.1,6.2s2.7,6.2,6.1,6.2s6.1-2.8,6.1-6.2
	S47.3,34.6,43.9,34.6z M43.9,45.6c-2.6,0-4.7-2.2-4.7-4.8s2.1-4.8,4.7-4.8s4.7,2.2,4.7,4.8S46.5,45.6,43.9,45.6z M38.2,45.6H25
	c-0.4,0-0.7-0.3-0.7-0.7v-1.8c0-2.4,1.9-4.4,4.3-4.4c0.8,0,1.6,0.7,3.8,0.7c2.1,0,3-0.7,3.8-0.7c0.2,0,0.4,0,0.5,0.1
	c0.1-0.5,0.3-0.9,0.5-1.3c-0.3-0.1-0.7-0.1-1-0.1c-1.2,0-1.8,0.7-3.8,0.7c-2,0-2.6-0.7-3.8-0.7c-3.1,0-5.7,2.6-5.7,5.8v1.8
	c0,1.1,0.9,2.1,2,2.1h14.6C39.1,46.6,38.6,46.1,38.2,45.6z M46.2,40.1h-1.6v-2.3c0-0.2-0.2-0.4-0.4-0.4h-0.5c-0.2,0-0.4,0.2-0.4,0.4
	v3.3c0,0.2,0.2,0.4,0.4,0.4h2.6c0.2,0,0.4-0.2,0.4-0.4v-0.5C46.6,40.3,46.4,40.1,46.2,40.1z"/>
</svg>
