<?xml version="1.0" encoding="utf-8"?>
<!-- Generator: Adobe Illustrator 25.2.1, SVG Export Plug-In . SVG Version: 6.00 Build 0)  -->
<svg version="1.1" id="Layer_1" xmlns="http://www.w3.org/2000/svg" xmlns:xlink="http://www.w3.org/1999/xlink" x="0px" y="0px"
	 viewBox="0 0 72 72" style="enable-background:new 0 0 72 72;" xml:space="preserve">
<style type="text/css">
	.st0{fill:url(#SVGID_1_);fill-opacity:0.25;}
	.st1{fill:url(#SVGID_2_);fill-opacity:0.25;}
	.st2{fill:none;stroke:#0073EC;}
</style>
<radialGradient id="SVGID_1_" cx="-250.75" cy="593.6923" r="1" gradientTransform="matrix(7.347881e-16 12 13 -7.960204e-16 -7682 3045)" gradientUnits="userSpaceOnUse">
	<stop  offset="0" style="stop-color:#0073EC"/>
	<stop  offset="1" style="stop-color:#0073EC;stop-opacity:0"/>
</radialGradient>
<path class="st0" d="M46.1,46.5c1.1,0,1.4-1.1,1.4-1.5v-7.2c0.4-0.3,0.8-0.6,1.1-1.1c0.3-0.5,0.4-1,0.4-1.5s-0.1-1-0.4-1.5
	s-0.6-0.8-1.1-1.1v-7.2c0-0.4-0.3-1.5-1.4-1.5c-0.3,0-0.6,0.1-0.9,0.3l-3.8,3.2c-1.6,1.3-3.4,2.1-5.4,2.4v10.7
	c2,0.3,3.8,1.1,5.4,2.4l3.8,3.2C45.5,46.4,45.8,46.5,46.1,46.5z"/>
<radialGradient id="SVGID_2_" cx="-250.75" cy="593.6923" r="1" gradientTransform="matrix(7.347881e-16 12 13 -7.960204e-16 -7682 3045)" gradientUnits="userSpaceOnUse">
	<stop  offset="0" style="stop-color:#0073EC"/>
	<stop  offset="1" style="stop-color:#0073EC;stop-opacity:0"/>
</radialGradient>
<path class="st1" d="M23,37.5V33c0-0.8,0.3-1.6,0.8-2.1c0.5-0.6,1.3-0.9,2-0.9h8.7v10.5h-1.3c-0.1,0.5-0.2,1-0.2,1.5
	c0,1.3,0.4,2.6,1.2,3.6c0.7,1,0,2.4-1.2,2.4h-3.4c-0.5,0-1-0.3-1.3-0.8c-0.8-1.6-1.2-3.4-1.2-5.2c0-0.5,0-1,0.1-1.5h-1.5
	c-0.8,0-1.5-0.3-2-0.9C23.3,39.1,23,38.3,23,37.5z"/>
<path class="st2" d="M46.1,46L46.1,46c-0.2,0-0.4-0.1-0.6-0.2l-3.8-3.2l0,0c-1.5-1.2-3.3-2.1-5.2-2.4v-9.9c1.9-0.3,3.7-1.2,5.2-2.4
	l0,0l3.8-3.2c0,0,0,0,0,0c0.2-0.1,0.4-0.2,0.6-0.2h0c0.4,0,0.6,0.2,0.7,0.4c0.2,0.2,0.2,0.5,0.2,0.6v7.2V33l0.2,0.1
	c0.4,0.2,0.7,0.5,0.9,0.9l0,0c0.2,0.4,0.3,0.8,0.3,1.2s-0.1,0.9-0.3,1.2v0c-0.2,0.4-0.5,0.7-0.9,0.9l-0.2,0.1v0.3V45
	c0,0.1-0.1,0.4-0.2,0.6C46.7,45.8,46.5,46,46.1,46z M25.9,30.5h8.2V40h-0.8h-0.4l-0.1,0.4c-0.1,0.5-0.2,1.1-0.2,1.6v0
	c0,1.4,0.4,2.8,1.3,3.9c0.5,0.6,0,1.6-0.8,1.6h-3.4c-0.4,0-0.7-0.2-0.8-0.5l0,0c-0.7-1.6-1.1-3.3-1.1-5c0-0.5,0-1,0.1-1.4L28,40
	h-0.6h-1.5c-0.6,0-1.2-0.3-1.7-0.7l-0.4,0.3l0.4-0.3c-0.5-0.5-0.7-1.1-0.7-1.8V33c0-0.7,0.3-1.3,0.7-1.8
	C24.7,30.8,25.3,30.5,25.9,30.5z"/>
</svg>
