<?xml version="1.0" encoding="utf-8"?>
<!-- Generator: Adobe Illustrator 25.2.1, SVG Export Plug-In . SVG Version: 6.00 Build 0)  -->
<svg version="1.1" id="Layer_1" xmlns="http://www.w3.org/2000/svg" xmlns:xlink="http://www.w3.org/1999/xlink" x="0px" y="0px"
	 viewBox="0 0 72 72" style="enable-background:new 0 0 72 72;" xml:space="preserve">
<style type="text/css">
	.st0{fill:url(#SVGID_1_);fill-opacity:0.25;}
	.st1{fill:#0073EC;}
	.st2{fill-rule:evenodd;clip-rule:evenodd;fill:#0073EC;}
</style>
<radialGradient id="SVGID_1_" cx="-251.1225" cy="592.2143" r="1" gradientTransform="matrix(7.500962e-16 12.25 14 -8.572528e-16 -8255 3112.25)" gradientUnits="userSpaceOnUse">
	<stop  offset="0" style="stop-color:#0073EC"/>
	<stop  offset="1" style="stop-color:#0073EC;stop-opacity:0"/>
</radialGradient>
<rect x="22" y="23.8" class="st0" width="28" height="24.5"/>
<path class="st1" d="M29.3,32.7h3.4c0.2,0,0.4-0.2,0.4-0.4c0-0.2-0.2-0.4-0.4-0.4h-3.4c-0.2,0-0.4,0.2-0.4,0.4
	C28.9,32.6,29.1,32.7,29.3,32.7z"/>
<path class="st1" d="M31.3,34.2h-1.9c-0.2,0-0.4-0.2-0.4-0.4c0-0.2,0.2-0.4,0.4-0.4h1.9c0.2,0,0.4,0.2,0.4,0.4
	C31.7,34,31.5,34.2,31.3,34.2z"/>
<path class="st1" d="M32.8,34.2h0.5c0.2,0,0.4-0.2,0.4-0.4c0-0.2-0.2-0.4-0.4-0.4h-0.5c-0.2,0-0.4,0.2-0.4,0.4
	C32.4,34,32.6,34.2,32.8,34.2z"/>
<path class="st1" d="M42.7,34.2h-1.3c-0.2,0-0.4-0.2-0.4-0.4c0-0.2,0.2-0.4,0.4-0.4h1.3c0.2,0,0.4,0.2,0.4,0.4
	C43.1,34,42.9,34.2,42.7,34.2z"/>
<path class="st1" d="M34.8,34.2h1.1c0.2,0,0.4-0.2,0.4-0.4c0-0.2-0.2-0.4-0.4-0.4h-1.1c-0.2,0-0.4,0.2-0.4,0.4
	C34.4,34,34.6,34.2,34.8,34.2z"/>
<path class="st1" d="M39.9,34.2h-2.4c-0.2,0-0.4-0.2-0.4-0.4c0-0.2,0.2-0.4,0.4-0.4h2.4c0.2,0,0.4,0.2,0.4,0.4
	C40.3,34,40.1,34.2,39.9,34.2z"/>
<path class="st1" d="M29.3,36.5h3.4c0.2,0,0.4-0.2,0.4-0.4c0-0.2-0.2-0.4-0.4-0.4h-3.4c-0.2,0-0.4,0.2-0.4,0.4
	C28.9,36.3,29.1,36.5,29.3,36.5z"/>
<path class="st1" d="M40.1,37.1h1.9c0.2,0,0.4,0.2,0.4,0.4c0,0.2-0.2,0.4-0.4,0.4h-1.9c-0.2,0-0.4-0.2-0.4-0.4
	C39.7,37.3,39.9,37.1,40.1,37.1z"/>
<path class="st1" d="M38.8,37.1h-0.5c-0.2,0-0.4,0.2-0.4,0.4c0,0.2,0.2,0.4,0.4,0.4h0.5c0.2,0,0.4-0.2,0.4-0.4
	C39.2,37.3,39,37.1,38.8,37.1z"/>
<path class="st1" d="M29.3,37.1h1.3c0.2,0,0.4,0.2,0.4,0.4c0,0.2-0.2,0.4-0.4,0.4h-1.3c-0.2,0-0.4-0.2-0.4-0.4
	C28.9,37.3,29.1,37.1,29.3,37.1z"/>
<path class="st1" d="M36.9,37.1h-1.1c-0.2,0-0.4,0.2-0.4,0.4c0,0.2,0.2,0.4,0.4,0.4h1.1c0.2,0,0.4-0.2,0.4-0.4
	C37.3,37.3,37.1,37.1,36.9,37.1z"/>
<path class="st1" d="M32,37.1h2.4c0.2,0,0.4,0.2,0.4,0.4c0,0.2-0.2,0.4-0.4,0.4H32c-0.2,0-0.4-0.2-0.4-0.4
	C31.6,37.3,31.8,37.1,32,37.1z"/>
<path class="st1" d="M29.3,40.2h3.4c0.2,0,0.4-0.2,0.4-0.4c0-0.2-0.2-0.4-0.4-0.4h-3.4c-0.2,0-0.4,0.2-0.4,0.4
	C28.9,40,29.1,40.2,29.3,40.2z"/>
<path class="st1" d="M31.3,41.6h-1.9c-0.2,0-0.4-0.2-0.4-0.4c0-0.2,0.2-0.4,0.4-0.4h1.9c0.2,0,0.4,0.2,0.4,0.4
	C31.7,41.5,31.5,41.6,31.3,41.6z"/>
<path class="st1" d="M32.5,41.6H33c0.2,0,0.4-0.2,0.4-0.4c0-0.2-0.2-0.4-0.4-0.4h-0.5c-0.2,0-0.4,0.2-0.4,0.4
	C32.1,41.5,32.3,41.6,32.5,41.6z"/>
<path class="st1" d="M42.5,41.6h-1.3c-0.2,0-0.4-0.2-0.4-0.4c0-0.2,0.2-0.4,0.4-0.4h1.3c0.2,0,0.4,0.2,0.4,0.4
	C42.9,41.5,42.7,41.6,42.5,41.6z"/>
<path class="st1" d="M34.2,41.6h1.1c0.2,0,0.4-0.2,0.4-0.4c0-0.2-0.2-0.4-0.4-0.4h-1.1c-0.2,0-0.4,0.2-0.4,0.4
	C33.8,41.5,34,41.6,34.2,41.6z"/>
<path class="st1" d="M39.7,41.6h-3.2c-0.2,0-0.4-0.2-0.4-0.4c0-0.2,0.2-0.4,0.4-0.4h3.2c0.2,0,0.4,0.2,0.4,0.4
	C40.1,41.5,40,41.6,39.7,41.6z"/>
<path class="st1" d="M29.3,44h3.4c0.2,0,0.4-0.2,0.4-0.4c0-0.2-0.2-0.4-0.4-0.4h-3.4c-0.2,0-0.4,0.2-0.4,0.4
	C28.9,43.8,29.1,44,29.3,44z"/>
<path class="st1" d="M40.4,44.6h1.9c0.2,0,0.4,0.2,0.4,0.4s-0.2,0.4-0.4,0.4h-1.9c-0.2,0-0.4-0.2-0.4-0.4S40.2,44.6,40.4,44.6z"/>
<path class="st1" d="M38.9,44.6h-0.9c-0.2,0-0.4,0.2-0.4,0.4s0.2,0.4,0.4,0.4h0.9c0.2,0,0.4-0.2,0.4-0.4S39.2,44.6,38.9,44.6z"/>
<path class="st1" d="M29.3,44.6h1.3c0.2,0,0.4,0.2,0.4,0.4s-0.2,0.4-0.4,0.4h-1.3c-0.2,0-0.4-0.2-0.4-0.4S29.1,44.6,29.3,44.6z"/>
<path class="st1" d="M36.9,44.6h-1.1c-0.2,0-0.4,0.2-0.4,0.4s0.2,0.4,0.4,0.4h1.1c0.2,0,0.4-0.2,0.4-0.4S37.1,44.6,36.9,44.6z"/>
<path class="st1" d="M31.9,44.6h2.7c0.2,0,0.4,0.2,0.4,0.4s-0.2,0.4-0.4,0.4h-2.7c-0.2,0-0.4-0.2-0.4-0.4S31.6,44.6,31.9,44.6z"/>
<path class="st1" d="M26.9,26.7h-2.7c-0.2,0-0.4-0.2-0.4-0.4c0-0.2,0.2-0.4,0.4-0.4h2.7c0.2,0,0.4,0.2,0.4,0.4
	C27.3,26.5,27.1,26.7,26.9,26.7z"/>
<path class="st1" d="M47.5,26.6C47.5,26.6,47.5,26.6,47.5,26.6C47.5,26.6,47.5,26.6,47.5,26.6c0.1,0,0.1,0,0.2,0l0,0c0,0,0,0,0.1,0
	c0,0,0,0,0.1,0l0,0c0,0,0,0,0.1-0.1c0,0,0,0,0,0c0,0,0,0,0,0l0-0.1c0,0,0,0,0-0.1l0,0c0,0,0,0,0,0c0,0,0,0,0,0c0,0,0,0,0,0
	c0,0,0-0.1,0-0.1c0,0,0-0.1,0-0.1c0,0,0,0,0,0c0,0,0,0,0,0c0,0,0,0-0.1-0.1c0,0,0,0-0.1-0.1l-0.1,0c0,0,0,0,0,0c0,0,0,0,0,0
	c-0.1,0-0.1,0-0.2,0l0,0c0,0,0,0-0.1,0c0,0,0,0-0.1,0c0,0,0,0,0,0c0,0,0,0,0,0c0,0,0,0,0,0c0,0,0,0,0,0l0,0.1c0,0,0,0,0,0.1
	s0,0.1,0,0.1c0,0.1,0,0.2,0.1,0.3c0,0,0,0,0,0c0,0,0,0,0,0L47.5,26.6C47.4,26.6,47.4,26.6,47.5,26.6L47.5,26.6z"/>
<path class="st1" d="M30.6,28.4h-1.3c-0.2,0-0.4-0.2-0.4-0.4c0-0.2,0.2-0.4,0.4-0.4h1.3c0.2,0,0.4,0.2,0.4,0.4
	C31,28.3,30.8,28.4,30.6,28.4z"/>
<path class="st1" d="M32.1,28.4h1.3c0.2,0,0.4-0.2,0.4-0.4c0-0.2-0.2-0.4-0.4-0.4h-1.3c-0.2,0-0.4,0.2-0.4,0.4
	C31.7,28.3,31.9,28.4,32.1,28.4z"/>
<path class="st1" d="M36.1,28.4h-1.3c-0.2,0-0.4-0.2-0.4-0.4c0-0.2,0.2-0.4,0.4-0.4h1.3c0.2,0,0.4,0.2,0.4,0.4
	C36.5,28.3,36.3,28.4,36.1,28.4z"/>
<path class="st1" d="M37.6,28.4h1.3c0.2,0,0.4-0.2,0.4-0.4c0-0.2-0.2-0.4-0.4-0.4h-1.3c-0.2,0-0.4,0.2-0.4,0.4
	C37.2,28.3,37.4,28.4,37.6,28.4z"/>
<path class="st1" d="M42.7,26.7H29.3c-0.2,0-0.4-0.2-0.4-0.4c0-0.2,0.2-0.4,0.4-0.4h13.4c0.2,0,0.4,0.2,0.4,0.4
	C43.1,26.5,42.9,26.7,42.7,26.7z"/>
<path class="st2" d="M49.8,23.8H22.2c-0.1,0-0.2,0.1-0.2,0.2V48c0,0.1,0.1,0.2,0.2,0.2h27.6c0.1,0,0.2-0.1,0.2-0.2V24
	C50,23.8,49.9,23.8,49.8,23.8z M49.2,30.4v17H22.8v-17H49.2z M49.2,29.6v-5H22.8v5H49.2z"/>
</svg>
