<?xml version="1.0" encoding="utf-8"?>
<!-- Generator: Adobe Illustrator 25.2.1, SVG Export Plug-In . SVG Version: 6.00 Build 0)  -->
<svg version="1.1" id="Layer_1" xmlns="http://www.w3.org/2000/svg" xmlns:xlink="http://www.w3.org/1999/xlink" x="0px" y="0px"
	 viewBox="0 0 72 72" style="enable-background:new 0 0 72 72;" xml:space="preserve">
<style type="text/css">
	.st0{fill-rule:evenodd;clip-rule:evenodd;fill:url(#SVGID_1_);fill-opacity:0.25;}
	.st1{fill:#0073EC;}
	.st2{fill-rule:evenodd;clip-rule:evenodd;fill:#0073EC;}
</style>
<radialGradient id="SVGID_1_" cx="-254.5146" cy="565.0833" r="1" gradientTransform="matrix(20.9684 4.94 4.3877 -18.624 2891.0796 11821.6455)" gradientUnits="userSpaceOnUse">
	<stop  offset="0" style="stop-color:#0073EC"/>
	<stop  offset="1" style="stop-color:#0073EC;stop-opacity:0"/>
	<stop  offset="1" style="stop-color:#0073EC;stop-opacity:0"/>
</radialGradient>
<path class="st0" d="M53.4,38.4V37c0-0.7-0.5-1.4-1.2-1.6L50.6,35c0,0-0.1,0-0.1-0.1c0,0,0-0.1,0-0.1v-0.5c0.1-0.1,0.3-0.2,0.4-0.3
	c0.3-0.3,0.5-0.6,0.7-1c0.2-0.4,0.2-0.7,0.2-1.1v-0.7l0.2-0.3c0.2-0.3,0.3-0.7,0.3-1.1v-2c0-0.1,0-0.1,0-0.1c0,0,0-0.1-0.1-0.1
	c0,0-0.1-0.1-0.1-0.1c0,0-0.1,0-0.1,0c0,0,0,0,0,0c0,0,0,0,0,0H48c-0.7,0-1.3,0.3-1.8,0.7c-0.5,0.5-0.7,1.1-0.7,1.8v0
	c0,0.3,0.1,0.6,0.2,0.9l0.2,0.4v0.6c0,0.5,0.1,1,0.3,1.4c0.2,0.4,0.5,0.8,0.9,1.1v0.6c0,0.1,0,0.1-0.3,0.2l-0.8,0.2l-2.3-0.8
	c0-0.1,0-0.1,0-0.2c0-0.1,0-0.1-0.1-0.1l-0.7-0.8v-1.3c0.1-0.1,0.2-0.1,0.2-0.2c0.5-0.4,0.8-0.9,1.1-1.5c0.2-0.6,0.4-1.2,0.4-1.8v-1
	c0.3-0.6,0.4-1.2,0.4-1.9v-4.2c0-0.1,0-0.1,0-0.1c0,0,0,0,0-0.1c0,0,0,0,0-0.1c0,0-0.1-0.1-0.1-0.1c0,0-0.1,0-0.1,0h-5.9
	c-1,0-1.9,0.4-2.6,1.1c-0.7,0.7-1.1,1.7-1.1,2.6v0.8c0,0.7,0.1,1.3,0.4,1.9v0.9c0,0.7,0.1,1.4,0.4,2c0.3,0.6,0.7,1.2,1.2,1.6v1.3
	l-0.7,0.8c0,0-0.1,0.1-0.1,0.1c0,0.1,0,0.1,0,0.2l-2.4,0.9c-0.2,0.1-0.3,0.1-0.5,0.3L33,35.3c1.1-0.5,1.5-1.2,1.5-1.2
	c0-0.1,0-0.1,0-0.2c0,0,0-0.1,0-0.1c0,0,0-0.1,0-0.1c-0.3-0.6-0.3-1.6-0.3-2.4c0-0.3,0-0.5,0-0.8c-0.1-1.9-1.6-3.3-3.3-3.3
	s-3.2,1.4-3.3,3.3c0,0.2,0,0.5,0,0.8c0,0.8-0.1,1.9-0.3,2.4c0,0,0,0,0,0.1c0,0,0,0,0,0.1c0,0,0,0,0,0.1c0,0.1,0,0.1,0,0.2l0,0
	c0,0.1,0.4,0.7,1.5,1.2l-0.9,0.6c-0.1,0.1-0.2,0.2-0.3,0.2c-0.5-0.1-1-0.2-1.6-0.2c-1.1,0-2.1,0.2-3.1,0.6c-1.9,0.8-3.4,2.3-4.2,4.3
	c-0.4,1-0.6,2-0.6,3.1c0,1.1,0.2,2.1,0.6,3.1c0.4,1,1,1.8,1.7,2.6c0.7,0.7,1.6,1.3,2.5,1.7c1,0.4,2,0.6,3.1,0.6
	c1.1,0,2.1-0.2,3.1-0.6c1.2-0.5,2.3-1.3,3.1-2.4h1.1c0,0,0,0,0,0c0,0.1,0.1,0.1,0.2,0.1c0.1,0,0.1,0.1,0.2,0.1h19.1
	c0.3,0,0.6-0.1,0.9-0.4c0.2-0.2,0.4-0.5,0.4-0.9v-5.7c0-0.3-0.1-0.6-0.4-0.9c0,0-0.1-0.1-0.1-0.1L53.4,38.4L53.4,38.4z"/>
<path class="st1" d="M49.9,30.5c0.1,0,0.1,0,0.2,0c0.1,0,0.1,0,0.2-0.1c0.1,0,0.1-0.1,0.1-0.2c0,0,0-0.1,0-0.1c0-0.1,0-0.1,0-0.1
	c0,0,0-0.1-0.1-0.1c0,0-0.1-0.1-0.1-0.1c-0.9-0.5-2.6-0.5-2.7-0.5c-0.1,0-0.2,0-0.3,0.1c-0.1,0.1-0.1,0.2-0.1,0.3
	c0,0.1,0,0.2,0.1,0.3c0.1,0.1,0.2,0.1,0.3,0.1C48,30.2,49.3,30.2,49.9,30.5z"/>
<path class="st1" d="M37.5,25.5C37.5,25.5,37.5,25.5,37.5,25.5c0.9-0.2,1.7-0.2,2.6-0.1c1.2,0.1,2.1,0.4,2.6,0.9
	c0.1,0.1,0.2,0.1,0.3,0.1c0.1,0,0.2,0,0.3-0.1c0,0,0.1-0.1,0.1-0.1c0,0,0,0,0,0c0,0,0,0,0,0c0,0,0,0,0,0c0,0,0,0,0-0.1
	c0-0.1,0-0.1,0-0.2c0,0,0-0.1-0.1-0.1c-1.5-1.5-4.6-1.2-5.8-1c-0.2,0-0.4,0.1-0.5,0.3c-0.1,0.1-0.2,0.3-0.2,0.5v0.9
	c0,0.1,0,0.2,0.1,0.3c0.1,0.1,0.2,0.1,0.3,0.1c0.1,0,0.2,0,0.3-0.1c0.1-0.1,0.1-0.2,0.1-0.3V25.5z"/>
<path class="st2" d="M29.2,35.9l-0.9,0.2l-0.8-0.3l1.1-0.5c-1.1-0.5-1.5-1.1-1.5-1.2l0,0c0-0.1,0-0.1,0-0.2c0,0,0,0,0-0.1
	c0,0,0,0,0-0.1c0,0,0,0,0-0.1c0.3-0.6,0.3-1.6,0.3-2.4c0-0.3,0-0.5,0-0.8c0.1-1.9,1.6-3.3,3.3-3.3s3.2,1.4,3.3,3.3
	c0,0.2,0,0.5,0,0.8c0,0.8,0.1,1.9,0.3,2.4c0,0,0,0.1,0,0.1c0,0,0,0.1,0,0.1c0,0.1,0,0.1,0,0.2c0,0-0.4,0.7-1.5,1.2l0.4,0.2
	c0.1-0.1,0.3-0.2,0.5-0.3l2.4-0.9c0-0.1,0-0.1,0-0.2c0-0.1,0-0.1,0.1-0.1l0.7-0.8V32c-0.5-0.5-1-1-1.2-1.6c-0.3-0.6-0.4-1.3-0.4-2
	v-0.9c-0.3-0.6-0.4-1.2-0.4-1.9v-0.8c0-1,0.4-1.9,1.1-2.6c0.7-0.7,1.7-1.1,2.6-1.1h5.9c0.1,0,0.1,0,0.1,0c0,0,0.1,0,0.1,0.1
	c0,0,0,0,0,0.1c0,0,0,0,0,0.1c0,0,0,0.1,0,0.1v4.2c0,0.7-0.1,1.3-0.4,1.9v1c0,0.6-0.1,1.2-0.4,1.8c-0.2,0.6-0.6,1.1-1.1,1.5
	c-0.1,0.1-0.2,0.1-0.2,0.2v1.3l0.7,0.8c0,0,0.1,0.1,0.1,0.1c0,0.1,0,0.1,0,0.2l2.3,0.8l0.8-0.2c0.3-0.1,0.3-0.1,0.3-0.2v-0.6
	c-0.4-0.3-0.7-0.7-0.9-1.1c-0.2-0.4-0.3-0.9-0.3-1.4v-0.6l-0.2-0.4c-0.1-0.3-0.2-0.6-0.2-0.9v0c0-0.7,0.3-1.3,0.7-1.8
	c0.5-0.5,1.1-0.7,1.8-0.7h3.8c0,0,0,0,0,0c0,0,0,0,0,0c0,0,0.1,0,0.1,0c0,0,0.1,0,0.1,0.1c0,0,0.1,0.1,0.1,0.1c0,0,0,0.1,0,0.1v2
	c0,0.4-0.1,0.8-0.3,1.1l-0.2,0.3v0.7c0,0.4-0.1,0.8-0.2,1.1c-0.2,0.4-0.4,0.7-0.7,1c-0.1,0.1-0.2,0.2-0.4,0.3v0.5c0,0,0,0.1,0,0.1
	c0,0,0.1,0,0.1,0.1l1.6,0.5c0.7,0.2,1.2,0.9,1.2,1.6v3.2c0,0,0,0.1,0,0.1c0,0,0,0.1,0,0.1c0,0,0,0,0,0c0,0,0,0,0,0.1
	c-0.1,0.1-0.2,0.1-0.3,0.1c-0.1,0-0.2,0-0.3-0.1c-0.1-0.1-0.1-0.2-0.1-0.3V37c0-0.2-0.1-0.4-0.2-0.5c-0.1-0.1-0.3-0.3-0.5-0.3
	l-1.6-0.5c-0.1,0-0.1,0-0.2-0.1l-1,1v3.6c0,0.1,0,0.2-0.1,0.3c-0.1,0.1-0.2,0.1-0.3,0.1s-0.2,0-0.3-0.1c-0.1-0.1-0.1-0.2-0.1-0.3
	v-3.6l-1-1c-0.1,0.1-0.2,0.1-0.4,0.1l-0.1,0c0.4,0.4,0.6,0.9,0.6,1.4v3c0,0.1,0,0.2-0.1,0.3c-0.1,0.1-0.2,0.1-0.3,0.1
	c-0.1,0-0.2,0-0.3-0.1c-0.1-0.1-0.1-0.2-0.1-0.3v-3c0-0.3-0.1-0.5-0.2-0.7c-0.2-0.2-0.4-0.4-0.6-0.5l-2.5-0.9l-1.1,1.6
	c-0.1,0.1-0.2,0.2-0.3,0.2C42,37,41.8,37,41.7,37c0,0-0.1,0-0.1,0c-0.1,0-0.2,0-0.3-0.1c-0.1,0-0.2-0.1-0.3-0.2l-0.6-0.6v4.1
	c0,0.1,0,0.2-0.1,0.3c-0.1,0.1-0.2,0.1-0.3,0.1c-0.1,0-0.2,0-0.3-0.1c-0.1-0.1-0.1-0.2-0.1-0.3v-4.1L39,36.8
	c-0.1,0.1-0.2,0.1-0.3,0.2c-0.1,0-0.2,0.1-0.3,0.1c0,0,0,0,0,0l0,0l0,0c0,0,0,0,0,0c-0.1,0-0.2,0-0.3-0.1c-0.1-0.1-0.2-0.1-0.3-0.2
	l-1.1-1.6L34.1,36c-0.2,0.1-0.5,0.3-0.6,0.5c-0.2,0.2-0.2,0.5-0.2,0.7v3L32.5,39v-1.8c0-0.4,0.1-0.8,0.3-1.1l-0.4-0.2L32,36.3
	c-0.3,0.3-0.7,0.5-1.1,0.5c-0.4,0-0.8-0.2-1.1-0.5L29.2,35.9z M47.9,35l0.9,0.9l0.9-0.9c0,0,0-0.1,0-0.1c0,0,0-0.1,0-0.1v-0.2
	c-0.3,0.1-0.6,0.1-0.9,0.1h-0.1c-0.3,0-0.5-0.1-0.8-0.1v0.2C48,34.9,47.9,34.9,47.9,35z M46.7,31v0.7l0,0c0,1.2,0.9,2.2,2.1,2.2
	c0.3,0,0.6,0,0.8-0.1c0.3-0.1,0.5-0.3,0.7-0.5c0.2-0.2,0.4-0.4,0.5-0.7c0.1-0.3,0.2-0.5,0.2-0.8V31c0,0,0-0.1,0-0.1c0,0,0-0.1,0-0.1
	l0.2-0.4c0.1-0.2,0.2-0.5,0.2-0.8v-1.6H48c-0.5,0-0.9,0.2-1.2,0.5c-0.3,0.3-0.5,0.8-0.5,1.2v0c0,0.2,0,0.4,0.1,0.6l0.2,0.5
	C46.7,30.9,46.7,31,46.7,31z M38.4,36.3C38.4,36.3,38.4,36.3,38.4,36.3l1-1L37.6,34l-0.4,0.4L38.4,36.3
	C38.4,36.2,38.4,36.2,38.4,36.3C38.4,36.3,38.4,36.3,38.4,36.3C38.4,36.3,38.4,36.3,38.4,36.3z M37.9,33.3l2.1,1.4l2.1-1.4v-0.7
	c-0.7,0.3-1.4,0.5-2.1,0.5c-0.1,0-0.2,0-0.3,0c-0.6,0-1.3-0.2-1.8-0.5V33.3z M41.7,36.3C41.7,36.3,41.7,36.2,41.7,36.3l1.2-1.8
	L42.5,34l-1.8,1.3L41.7,36.3L41.7,36.3L41.7,36.3C41.6,36.3,41.6,36.3,41.7,36.3C41.6,36.3,41.6,36.3,41.7,36.3z M36.2,27.4v1
	c0,2.1,1.6,3.8,3.5,3.9c0.9,0.1,1.8-0.2,2.5-0.8l0,0c0.1-0.1,0.2-0.2,0.3-0.3c0.4-0.4,0.7-0.8,0.9-1.3c0.2-0.5,0.3-1,0.3-1.5v-1.1
	c0-0.1,0-0.1,0-0.2c0.3-0.5,0.4-1.1,0.4-1.6v-3.8h-5.5c-0.8,0-1.5,0.3-2.1,0.9c-0.6,0.6-0.9,1.3-0.9,2.1v0.8c0,0.6,0.1,1.1,0.4,1.6
	C36.2,27.3,36.2,27.3,36.2,27.4z M30.8,36c0.2,0,0.4-0.1,0.6-0.2l0.4-0.3c-0.1-0.1-0.1-0.3-0.1-0.4v-0.4c-0.3,0.1-0.6,0.1-0.9,0.1
	c-0.3,0-0.6,0-0.9-0.1v0.4c0,0.1,0,0.3-0.1,0.4l0.4,0.3C30.4,35.9,30.6,36,30.8,36z M32.5,34.7c0.7-0.3,1.1-0.6,1.3-0.8v0
	c-0.1-0.3-0.2-0.6-0.2-0.9c-0.2,0.5-0.6,1-1,1.3V34.7z M28.3,30.6c0,0.2,0,0.5,0,0.7c0,0,0,0,0,0c0,0,0,0,0,0.1c0,0,0,0,0.1,0
	c0,0,0.1,0,0.1,0c0,0,0,0,0,0c0,0,0,0,0,0c0,0,0.1,0,0.1,0.1c0,0,0.1,0.1,0.1,0.1c0,0,0,0.1,0,0.1c0,0,0,0,0,0c0,0,0,0,0,0
	c0,0.5,0.2,1,0.6,1.4c0.4,0.4,0.9,0.6,1.4,0.7c0.5,0,1.1-0.1,1.5-0.5c0.4-0.3,0.7-0.8,0.8-1.3c-0.6-1.4-2.3-1.6-2.8-1.6l-0.6,0.6
	c0,0-0.1,0.1-0.1,0.1c0,0-0.1,0-0.1,0c-0.1,0-0.1,0-0.2,0c0,0-0.1,0-0.1-0.1s-0.1-0.1-0.1-0.1c0,0,0-0.1,0-0.1l0,0c0,0,0,0,0,0
	c0,0,0,0,0,0c0,0,0,0,0,0c0,0,0,0,0,0c0,0,0,0,0,0c0,0,0-0.1,0.1-0.1l0.7-0.7c0,0,0.1-0.1,0.1-0.1c0,0,0.1,0,0.1,0
	c0.5,0,1,0.1,1.5,0.2c0.8,0.3,1.5,0.8,1.9,1.4v-0.1c0-0.3,0-0.5,0-0.7c0-0.7-0.3-1.3-0.8-1.8c-0.2-0.2-0.5-0.4-0.8-0.5
	c-0.3-0.1-0.6-0.2-0.9-0.2s-0.6,0.1-0.9,0.2c-0.3,0.1-0.6,0.3-0.8,0.5C28.6,29.3,28.3,30,28.3,30.6z M28.1,33c0,0.3-0.1,0.6-0.2,0.9
	c0.2,0.2,0.5,0.5,1.3,0.8v-0.5C28.7,33.9,28.4,33.5,28.1,33z"/>
<path class="st1" d="M46.9,46c0.5,0,0.8-0.4,0.8-0.8s-0.4-0.8-0.8-0.8c-0.5,0-0.8,0.4-0.8,0.8S46.4,46,46.9,46z"/>
<path class="st1" d="M50.8,45.2c0,0.5-0.4,0.8-0.8,0.8c-0.5,0-0.8-0.4-0.8-0.8s0.4-0.8,0.8-0.8C50.4,44.3,50.8,44.7,50.8,45.2z"/>
<path class="st1" d="M43.7,46c0.5,0,0.8-0.4,0.8-0.8c0-0.5-0.4-0.8-0.8-0.8c-0.5,0-0.8,0.4-0.8,0.8C42.8,45.6,43.2,46,43.7,46z"/>
<path class="st1" d="M34.7,41.1h17.9c0.3,0,0.6,0.1,0.9,0.4c0.2,0.2,0.4,0.5,0.4,0.9V48c0,0.3-0.1,0.6-0.4,0.9
	c-0.2,0.2-0.5,0.4-0.9,0.4H33.6c-0.1,0-0.1,0-0.2-0.1c-0.1,0-0.1-0.1-0.2-0.1c0-0.1-0.1-0.1-0.1-0.2c0-0.1,0-0.1,0-0.2l0,0
	c0-0.1,0.1-0.2,0.2-0.2c0.1-0.1,0.2-0.1,0.3-0.1h19.1c0.1,0,0.2,0,0.2-0.1c0.1-0.1,0.1-0.1,0.1-0.2v-5.7c0-0.1,0-0.2-0.1-0.2
	C52.8,42,52.7,42,52.6,42H34.7c0,0,0,0-0.1,0c-0.1,0-0.1,0-0.2,0c-0.1,0-0.1-0.1-0.2-0.1l0,0c0-0.1-0.1-0.1-0.1-0.2
	c0-0.1,0-0.2,0.1-0.2c0-0.1,0.1-0.1,0.2-0.2C34.6,41.1,34.7,41.1,34.7,41.1z"/>
<path class="st1" d="M30,45.6l0,0.2c-0.1,0.2-0.1,0.4-0.2,0.6c-0.1,0.4-0.3,1-0.5,1.6l-2.4-7.3c0.1,0,0.2,0,0.4,0c0,0,0,0,0.1,0
	c0,0,0.1,0,0.1,0c0.1,0,0.2,0,0.2,0c0.2,0,0.3-0.1,0.3-0.3c0,0,0-0.1,0-0.1c0,0,0,0,0,0c0,0,0,0,0,0c-0.1,0-0.1-0.1-0.2-0.1
	c-0.7,0-1.2,0.1-1.5,0.1c-0.4,0-0.7,0-1.1,0l-0.7-0.1l-0.3,0c0,0,0,0-0.1,0c0,0,0,0,0,0c0,0,0,0,0,0c0,0-0.1,0-0.1,0
	c-0.1,0-0.1,0.1-0.1,0.2c0,0,0,0,0,0c0,0,0,0,0,0.1c0,0,0,0,0,0.1c0,0,0,0,0,0c0,0,0,0.1,0.1,0.1c0,0,0,0,0,0c0,0,0,0,0,0
	c0,0,0,0,0,0c0,0,0,0,0,0l0,0c0,0,0.1,0,0.2,0c0.1,0,0.3,0,0.5,0.1l1.1,2.9l-1.5,4.4l-2.5-7.3c0.1,0,0.3,0,0.4,0c0.1,0,0.3,0,0.4,0
	c0.2,0,0.3-0.1,0.3-0.3c0-0.1-0.1-0.1-0.1-0.2c0,0,0,0-0.1,0c0,0-0.1,0-0.1,0c-0.4,0.1-0.8,0.1-1.2,0.1c-0.4,0-0.7,0-1,0
	c0.6-0.9,1.4-1.7,2.4-2.2c1-0.6,2.1-0.8,3.2-0.8c0.9,0,1.7,0.2,2.5,0.5c0.8,0.3,1.5,0.8,2.1,1.3c-0.2,0-0.4,0-0.6,0.1
	c-0.2,0.1-0.4,0.3-0.5,0.5c-0.1,0.2-0.1,0.5-0.1,0.7c0,0.3,0.1,0.5,0.2,0.7c0.1,0.2,0.2,0.5,0.4,0.7c0.1,0.2,0.2,0.4,0.3,0.5
	c0.2,0.3,0.3,0.7,0.3,1c0,0.4,0,0.9-0.2,1.3c0,0.2-0.1,0.5-0.2,0.8l0,0.1L30,45.6z"/>
<path class="st1" d="M31.9,41.3L31.9,41.3C31.9,41.2,31.9,41.2,31.9,41.3c0-0.2,0-0.3,0-0.5c0.8,1.5,1,3.3,0.5,5
	c-0.2,0.6-0.4,1.1-0.7,1.6c-0.3,0.5-0.7,1-1.1,1.4c-0.4,0.4-0.9,0.8-1.4,1.1c0.1-0.2,0.2-0.5,0.3-1c0.2-0.5,0.3-1,0.5-1.5
	c0.2-0.5,0.3-1,0.5-1.5c0-0.1,0.1-0.2,0.1-0.3c0.1-0.3,0.2-0.6,0.2-0.7c0.1-0.3,0.2-0.6,0.3-1c0.1-0.2,0.1-0.4,0.2-0.6
	c0.2-0.6,0.3-1.2,0.4-1.8C31.9,41.5,31.9,41.4,31.9,41.3L31.9,41.3z"/>
<path class="st1" d="M19.2,44c0,0.7,0.1,1.3,0.3,1.9c0.2,0.6,0.4,1.2,0.8,1.7c0.3,0.5,0.7,1,1.2,1.4c0.5,0.4,1,0.8,1.5,1l-3.2-8.9
	C19.4,42.1,19.2,43.1,19.2,44z"/>
<path class="st1" d="M24.9,50.7c-0.3,0-0.6-0.1-0.9-0.2l2-5.9l2.1,5.8C27.1,50.8,26,50.9,24.9,50.7z"/>
<path class="st2" d="M31.5,38.3c0.7,0.7,1.3,1.6,1.7,2.5v0c0.4,1,0.6,2,0.6,3.1s-0.2,2.1-0.6,3.1c-0.8,1.9-2.3,3.5-4.2,4.3
	c-1,0.4-2,0.6-3.1,0.6c-1.1,0-2.1-0.2-3.1-0.6c-0.9-0.4-1.8-1-2.5-1.7c-0.7-0.7-1.3-1.6-1.7-2.6c-0.4-1-0.6-2-0.6-3.1
	c0-1.1,0.2-2.1,0.6-3.1c0.8-1.9,2.3-3.4,4.2-4.3c1-0.4,2-0.6,3.1-0.6c1.1,0,2.1,0.2,3.1,0.6C29.9,37,30.8,37.6,31.5,38.3z
	 M28.8,50.9c1.8-0.8,3.2-2.2,3.9-4c0.4-0.9,0.6-1.9,0.6-2.9s-0.2-2-0.6-2.9c-0.4-0.9-0.9-1.7-1.6-2.4c-0.7-0.7-1.5-1.2-2.3-1.6
	c-0.9-0.4-1.9-0.6-2.9-0.6c-1,0-2,0.2-2.9,0.6c-0.9,0.4-1.7,0.9-2.3,1.6c-0.7,0.7-1.2,1.5-1.6,2.4C18.7,42,18.5,43,18.5,44
	s0.2,2,0.6,2.9c0.8,1.8,2.2,3.2,3.9,4c0.9,0.4,1.9,0.6,2.9,0.6C26.9,51.4,27.9,51.2,28.8,50.9z"/>
</svg>
