<?xml version="1.0" encoding="utf-8"?>
<!-- Generator: Adobe Illustrator 25.2.1, SVG Export Plug-In . SVG Version: 6.00 Build 0)  -->
<svg version="1.1" id="Layer_1" xmlns="http://www.w3.org/2000/svg" xmlns:xlink="http://www.w3.org/1999/xlink" x="0px" y="0px"
	 viewBox="0 0 72 72" style="enable-background:new 0 0 72 72;" xml:space="preserve">
<style type="text/css">
	.st0{fill-rule:evenodd;clip-rule:evenodd;fill:url(#SVGID_1_);fill-opacity:0.25;}
	.st1{fill:#0073EC;}
	.st2{fill-rule:evenodd;clip-rule:evenodd;fill:#0073EC;}
</style>
<radialGradient id="SVGID_1_" cx="-249.8525" cy="564.9949" r="1" gradientTransform="matrix(16 4.5 4.6671 -16.5941 1394.7751 10539.4092)" gradientUnits="userSpaceOnUse">
	<stop  offset="0" style="stop-color:#0073EC"/>
	<stop  offset="1" style="stop-color:#0073EC;stop-opacity:0"/>
	<stop  offset="1" style="stop-color:#0073EC;stop-opacity:0"/>
</radialGradient>
<path class="st0" d="M22,49c0,0.3,0.1,0.6,0.4,0.9c0.2,0.2,0.5,0.4,0.9,0.4h8.9h0h16.1c0.3,0,0.6-0.1,0.9-0.4
	c0.2-0.2,0.4-0.5,0.4-0.9v-5.7c0-0.3-0.1-0.6-0.4-0.9l0,0l-0.1-0.9v-1V38c0-0.7-0.5-1.4-1.2-1.6L46.1,36c0,0-0.1,0-0.1-0.1
	c0,0,0-0.1,0-0.1v-0.5c0.1-0.1,0.3-0.2,0.4-0.3c0.3-0.3,0.5-0.6,0.7-1c0.2-0.4,0.2-0.7,0.2-1.1v-0.7l0.2-0.3
	c0.2-0.3,0.3-0.7,0.3-1.1v-2c0-0.1,0-0.1,0-0.1c0,0,0-0.1-0.1-0.1c0,0-0.1-0.1-0.1-0.1c0,0-0.1,0-0.1,0h-3.8c-0.7,0-1.3,0.3-1.8,0.7
	c-0.5,0.5-0.7,1.1-0.7,1.8v0c0,0.3,0.1,0.6,0.2,0.9l0.2,0.4v0.6c0,0.5,0.1,1,0.3,1.4c0.2,0.4,0.5,0.8,0.9,1.1v0.6
	c0,0.1,0,0.1-0.3,0.2l-0.8,0.2l-2.3-0.8c0-0.1,0-0.1,0-0.2c0-0.1,0-0.1-0.1-0.1l-0.7-0.8v-1.3c0.1-0.1,0.2-0.1,0.2-0.2
	c0.5-0.4,0.8-0.9,1.1-1.5c0.2-0.6,0.4-1.2,0.4-1.8v-1c0.3-0.6,0.4-1.2,0.4-1.9v-4.2c0-0.1,0-0.1,0-0.1c0,0,0-0.1-0.1-0.1
	c0,0-0.1-0.1-0.1-0.1c0,0-0.1,0-0.1,0h-5.9c-1,0-1.9,0.4-2.6,1.1c-0.7,0.7-1.1,1.7-1.1,2.6v0.8c0,0.7,0.1,1.3,0.4,1.9v0.9
	c0,0.7,0.1,1.4,0.4,2c0.3,0.6,0.7,1.2,1.2,1.6v1.3l-0.7,0.8c0,0-0.1,0.1-0.1,0.1c0,0.1,0,0.1,0,0.2l-2.4,0.9
	c-0.2,0.1-0.3,0.1-0.5,0.3l-0.4-0.2c1.1-0.5,1.5-1.2,1.5-1.2c0-0.1,0-0.1,0-0.2c0-0.1,0-0.1,0-0.2c-0.3-0.6-0.3-1.6-0.3-2.4
	c0-0.3,0-0.5,0-0.8c-0.1-1.9-1.6-3.3-3.3-3.3c-1.8,0-3.2,1.4-3.3,3.3c0,0.2,0,0.5,0,0.8c0,0.8-0.1,1.9-0.3,2.4c0,0.1,0,0.1,0,0.2
	c0,0.1,0,0.1,0,0.2l0,0c0,0.1,0.4,0.7,1.5,1.2l-1.1,0.5c-0.3,0.1-0.5,0.3-0.7,0.6c-0.2,0.3-0.2,0.6-0.2,0.9v2.2v1L22,49z"/>
<path class="st1" d="M45.4,31.5c0.1,0,0.1,0,0.2,0c0.1,0,0.1,0,0.2-0.1c0.1,0,0.1-0.1,0.1-0.2c0,0,0-0.1,0-0.1c0-0.1,0-0.1,0-0.1
	c0,0,0-0.1-0.1-0.1c0,0-0.1-0.1-0.1-0.1c-0.9-0.5-2.6-0.5-2.7-0.5c-0.1,0-0.2,0-0.3,0.1c-0.1,0.1-0.1,0.2-0.1,0.3
	c0,0.1,0,0.2,0.1,0.3c0.1,0.1,0.2,0.1,0.3,0.1C43.5,31.2,44.8,31.2,45.4,31.5z"/>
<path class="st1" d="M33,26.5C33,26.5,33,26.5,33,26.5c0.9-0.2,1.7-0.2,2.6-0.1c1.2,0.1,2.1,0.4,2.6,0.9c0.1,0.1,0.2,0.1,0.3,0.1
	s0.2,0,0.3-0.1c0,0,0.1-0.1,0.1-0.1c0,0,0-0.1,0-0.2c0-0.1,0-0.1,0-0.2c0,0,0-0.1-0.1-0.1c-1.5-1.5-4.6-1.2-5.8-1
	c-0.2,0-0.4,0.1-0.5,0.3c-0.1,0.1-0.2,0.3-0.2,0.5v0.9c0,0.1,0,0.2,0.1,0.3c0.1,0.1,0.2,0.1,0.3,0.1c0.1,0,0.2,0,0.3-0.1
	c0.1-0.1,0.1-0.2,0.1-0.3V26.5z"/>
<path class="st2" d="M23.1,37.9c-0.1,0.1-0.1,0.3-0.1,0.5v3c0,0.2-0.2,0.4-0.4,0.4c-0.2,0-0.4-0.2-0.4-0.4v-3c0-0.3,0.1-0.6,0.2-0.9
	c0.2-0.3,0.4-0.5,0.7-0.6l1.1-0.5c-1.1-0.5-1.5-1.1-1.5-1.2l0,0c0-0.1,0-0.1,0-0.2c0-0.1,0-0.1,0-0.2c0.3-0.6,0.3-1.6,0.3-2.4
	c0-0.3,0-0.5,0-0.8c0.1-1.9,1.6-3.3,3.3-3.3c1.8,0,3.2,1.4,3.3,3.3c0,0.2,0,0.5,0,0.8c0,0.8,0.1,1.9,0.3,2.4c0,0.1,0,0.1,0,0.2
	c0,0.1,0,0.1,0,0.2c0,0-0.4,0.7-1.5,1.2l0.4,0.2c0.1-0.1,0.3-0.2,0.5-0.3l2.4-0.9c0-0.1,0-0.1,0-0.2c0-0.1,0-0.1,0.1-0.1l0.7-0.8V33
	c-0.5-0.5-1-1-1.2-1.6c-0.3-0.6-0.4-1.3-0.4-2v-0.9c-0.3-0.6-0.4-1.2-0.4-1.9v-0.8c0-1,0.4-1.9,1.1-2.6c0.7-0.7,1.7-1.1,2.6-1.1h5.9
	c0.1,0,0.1,0,0.1,0c0,0,0.1,0,0.1,0.1c0,0,0.1,0.1,0.1,0.1c0,0,0,0.1,0,0.1v4.2c0,0.7-0.1,1.3-0.4,1.9v1c0,0.6-0.1,1.2-0.4,1.8
	c-0.2,0.6-0.6,1.1-1.1,1.5c-0.1,0.1-0.2,0.1-0.2,0.2v1.3l0.7,0.8c0,0,0.1,0.1,0.1,0.1c0,0.1,0,0.1,0,0.2l2.3,0.8l0.8-0.2
	c0.3-0.1,0.3-0.1,0.3-0.2v-0.6c-0.4-0.3-0.7-0.7-0.9-1.1c-0.2-0.4-0.3-0.9-0.3-1.4v-0.6l-0.2-0.4c-0.1-0.3-0.2-0.6-0.2-0.9v0
	c0-0.7,0.3-1.3,0.7-1.8c0.5-0.5,1.1-0.7,1.8-0.7h3.8c0.1,0,0.1,0,0.1,0c0,0,0.1,0,0.1,0.1c0,0,0.1,0.1,0.1,0.1c0,0,0,0.1,0,0.1v2
	c0,0.4-0.1,0.8-0.3,1.1l-0.2,0.3v0.7c0,0.4-0.1,0.8-0.2,1.1c-0.2,0.4-0.4,0.7-0.7,1c-0.1,0.1-0.2,0.2-0.4,0.3v0.5c0,0,0,0.1,0,0.1
	c0,0,0.1,0,0.1,0.1l1.6,0.5c0.7,0.2,1.2,0.9,1.2,1.6v3.2c0,0.1,0,0.2-0.1,0.3c-0.1,0.1-0.2,0.1-0.3,0.1c-0.1,0-0.2,0-0.3-0.1
	c-0.1-0.1-0.1-0.2-0.1-0.3V38c0-0.2-0.1-0.4-0.2-0.5c-0.1-0.1-0.3-0.3-0.5-0.3l-1.6-0.5c-0.1,0-0.1,0-0.2-0.1l-1,1v3.6
	c0,0.1,0,0.2-0.1,0.3c-0.1,0.1-0.2,0.1-0.3,0.1s-0.2,0-0.3-0.1c-0.1-0.1-0.1-0.2-0.1-0.3v-3.6l-1-1c-0.1,0.1-0.2,0.1-0.4,0.1l-0.1,0
	c0.4,0.4,0.6,0.9,0.6,1.4v3c0,0.1,0,0.2-0.1,0.3c-0.1,0.1-0.2,0.1-0.3,0.1c-0.1,0-0.2,0-0.3-0.1c-0.1-0.1-0.1-0.2-0.1-0.3v-3
	c0-0.3-0.1-0.5-0.2-0.7c-0.2-0.2-0.4-0.4-0.6-0.5l-2.5-0.9l-1.1,1.6c-0.1,0.1-0.2,0.2-0.3,0.2C37.5,38,37.3,38,37.2,38
	c0,0-0.1,0-0.1,0c-0.1,0-0.2,0-0.3-0.1c-0.1,0-0.2-0.1-0.3-0.2l-0.6-0.6v4.1c0,0.1,0,0.2-0.1,0.3c-0.1,0.1-0.2,0.1-0.3,0.1
	c-0.1,0-0.2,0-0.3-0.1c-0.1-0.1-0.1-0.2-0.1-0.3v-4.1l-0.6,0.6c-0.1,0.1-0.2,0.1-0.3,0.2C34.1,38,34,38,33.9,38c0,0,0,0,0,0
	c0,0,0,0,0,0c-0.1,0-0.2,0-0.3-0.1c-0.1-0.1-0.2-0.1-0.3-0.2l-1.1-1.6L29.6,37c-0.2,0.1-0.5,0.3-0.6,0.5s-0.2,0.5-0.2,0.7v3.1
	c0,0.2-0.2,0.4-0.4,0.4c-0.2,0-0.4-0.2-0.4-0.4v-3.1c0-0.4,0.1-0.8,0.3-1.1l-0.4-0.2l-0.5,0.4c-0.3,0.3-0.7,0.5-1.1,0.5
	c-0.4,0-0.8-0.2-1.1-0.5l-0.5-0.4l-1.3,0.7C23.3,37.6,23.2,37.7,23.1,37.9z M43.4,36l0.9,0.9l0.9-0.9c0-0.1,0-0.2,0-0.2v-0.2
	c-0.3,0.1-0.6,0.1-0.9,0.1h-0.1c-0.3,0-0.5-0.1-0.8-0.1v0.2C43.5,35.9,43.4,35.9,43.4,36z M42.2,32v0.7l0,0c0,1.2,0.9,2.2,2.1,2.2
	c0.3,0,0.6,0,0.8-0.1c0.3-0.1,0.5-0.3,0.7-0.5c0.2-0.2,0.4-0.4,0.5-0.7c0.1-0.3,0.2-0.5,0.2-0.8V32c0-0.1,0-0.1,0-0.2l0.2-0.4
	c0.1-0.2,0.2-0.5,0.2-0.8v-1.6h-3.4c-0.5,0-0.9,0.2-1.2,0.5c-0.3,0.3-0.5,0.8-0.5,1.2v0c0,0.2,0,0.4,0.1,0.6l0.2,0.5
	C42.2,31.9,42.2,32,42.2,32z M33.9,37.3C33.9,37.3,33.9,37.3,33.9,37.3l1-1L33.1,35l-0.4,0.4L33.9,37.3
	C33.9,37.2,33.9,37.3,33.9,37.3z M33.4,34.3l2.1,1.4l2.1-1.4v-0.7c-0.7,0.3-1.4,0.5-2.1,0.5c-0.1,0-0.2,0-0.3,0l0,0
	c-0.6,0-1.3-0.2-1.8-0.5V34.3z M37.2,37.3C37.2,37.3,37.2,37.2,37.2,37.3l1.2-1.8L38,35l-1.8,1.3L37.2,37.3
	C37.1,37.2,37.1,37.3,37.2,37.3C37.1,37.3,37.1,37.3,37.2,37.3z M31.7,28.4v1c0,2.1,1.6,3.8,3.5,3.9c0.9,0.1,1.8-0.2,2.5-0.8l0,0
	c0.1-0.1,0.2-0.2,0.3-0.3c0.4-0.4,0.7-0.8,0.9-1.3c0.2-0.5,0.3-1,0.3-1.5v-1.1c0-0.1,0-0.1,0-0.2c0.3-0.5,0.4-1.1,0.4-1.6v-3.8h-5.5
	c-0.8,0-1.5,0.3-2.1,0.9c-0.6,0.6-0.9,1.3-0.9,2.1v0.8c0,0.6,0.1,1.1,0.4,1.6C31.7,28.3,31.7,28.3,31.7,28.4z M26.3,37
	c0.2,0,0.4-0.1,0.6-0.2l0.4-0.3c-0.1-0.1-0.1-0.3-0.1-0.4v-0.4c-0.3,0.1-0.6,0.1-0.9,0.1c-0.3,0-0.6,0-0.9-0.1v0.4
	c0,0.1,0,0.3-0.1,0.4l0.4,0.3C25.9,36.9,26.1,37,26.3,37z M28,35.7c0.7-0.3,1.1-0.6,1.3-0.8v0C29.1,34.6,29,34.3,29,34
	c-0.2,0.5-0.6,1-1,1.3V35.7z M23.8,31.6c0,0.2,0,0.5,0,0.7c0,0,0,0.1,0,0.1c0,0,0,0,0.1,0c0.1,0,0.1,0,0.1,0c0,0,0.1,0,0.1,0.1
	c0,0,0.1,0.1,0.1,0.1c0,0,0,0.1,0,0.1c0,0.5,0.2,1,0.6,1.4c0.4,0.4,0.9,0.6,1.4,0.7c0.5,0,1.1-0.1,1.5-0.5c0.4-0.3,0.7-0.8,0.8-1.3
	c-0.6-1.4-2.3-1.6-2.8-1.6l-0.6,0.6c0,0-0.1,0.1-0.1,0.1c0,0-0.1,0-0.1,0c-0.1,0-0.1,0-0.2,0c0,0-0.1,0-0.1-0.1c0,0-0.1-0.1-0.1-0.1
	c0,0,0-0.1,0-0.1c0-0.1,0-0.1,0-0.2c0,0,0-0.1,0.1-0.1l0.7-0.7c0,0,0.1-0.1,0.1-0.1c0,0,0.1,0,0.1,0c0.5,0,1,0.1,1.5,0.2
	c0.8,0.3,1.5,0.8,1.9,1.4v-0.1c0-0.3,0-0.5,0-0.7c0-0.7-0.3-1.3-0.8-1.8c-0.2-0.2-0.5-0.4-0.8-0.5c-0.3-0.1-0.6-0.2-0.9-0.2
	s-0.6,0.1-0.9,0.2c-0.3,0.1-0.6,0.3-0.8,0.5C24.1,30.3,23.8,31,23.8,31.6z M23.6,34c0,0.3-0.1,0.6-0.2,0.9c0.2,0.2,0.5,0.5,1.3,0.8
	v-0.5C24.2,34.9,23.9,34.5,23.6,34z"/>
<path class="st1" d="M42.4,47c0.5,0,0.8-0.4,0.8-0.8s-0.4-0.8-0.8-0.8s-0.8,0.4-0.8,0.8S41.9,47,42.4,47z"/>
<path class="st1" d="M46.3,46.2c0,0.5-0.4,0.8-0.8,0.8c-0.5,0-0.8-0.4-0.8-0.8s0.4-0.8,0.8-0.8C45.9,45.3,46.3,45.7,46.3,46.2z"/>
<path class="st1" d="M39.2,47c0.5,0,0.8-0.4,0.8-0.8c0-0.5-0.4-0.8-0.8-0.8c-0.5,0-0.8,0.4-0.8,0.8C38.3,46.6,38.7,47,39.2,47z"/>
<path class="st2" d="M40.1,42.1h8c0.3,0,0.6,0.1,0.9,0.4c0.2,0.2,0.4,0.5,0.4,0.9V49c0,0.3-0.1,0.6-0.4,0.9
	c-0.2,0.2-0.5,0.4-0.9,0.4H32.1c0,0,0,0,0,0h-8.9c-0.3,0-0.6-0.1-0.9-0.4C22.1,49.6,22,49.3,22,49v-5.7c0-0.3,0.1-0.6,0.4-0.9
	c0.2-0.2,0.5-0.4,0.9-0.4L40.1,42.1C40.1,42.1,40.1,42.1,40.1,42.1z M31.2,43C31.2,43,31.2,43,31.2,43l16.9,0c0.1,0,0.2,0,0.2,0.1
	c0.1,0.1,0.1,0.1,0.1,0.2V49c0,0.1,0,0.2-0.1,0.2c-0.1,0.1-0.1,0.1-0.2,0.1h-8.9c0,0,0,0,0,0H23.2c-0.1,0-0.2,0-0.2-0.1
	c-0.1-0.1-0.1-0.1-0.1-0.2v-5.7c0-0.1,0-0.2,0.1-0.2c0.1-0.1,0.1-0.1,0.2-0.1H31.2z"/>
</svg>
