<?xml version="1.0" encoding="utf-8"?>
<!-- Generator: Adobe Illustrator 25.2.1, SVG Export Plug-In . SVG Version: 6.00 Build 0)  -->
<svg version="1.1" id="Layer_1" xmlns="http://www.w3.org/2000/svg" xmlns:xlink="http://www.w3.org/1999/xlink" x="0px" y="0px"
	 viewBox="0 0 72 72" style="enable-background:new 0 0 72 72;" xml:space="preserve">
<style type="text/css">
	.st0{fill:url(#SVGID_1_);fill-opacity:0.25;}
	.st1{fill:url(#SVGID_2_);fill-opacity:0.25;}
	.st2{fill:url(#SVGID_3_);fill-opacity:0.25;}
	.st3{fill:#0073EC;}
	.st4{fill-rule:evenodd;clip-rule:evenodd;fill:#0073EC;}
</style>
<radialGradient id="SVGID_1_" cx="-253.3571" cy="590.3067" r="1" gradientTransform="matrix(8.572528e-16 14 15.5431 -9.517404e-16 -9139.4326 3583)" gradientUnits="userSpaceOnUse">
	<stop  offset="0" style="stop-color:#0073EC"/>
	<stop  offset="1" style="stop-color:#0073EC;stop-opacity:0"/>
</radialGradient>
<path class="st0" d="M22.3,22h11.1c1.1,0,2,0.9,2,2V48c0,1.1-0.9,2-2,2H22.3c-1.1,0-2-0.9-2-2V24C20.2,22.9,21.1,22,22.3,22z"/>
<radialGradient id="SVGID_2_" cx="-253.3571" cy="590.3067" r="1" gradientTransform="matrix(8.572528e-16 14 15.5431 -9.517404e-16 -9139.4326 3583)" gradientUnits="userSpaceOnUse">
	<stop  offset="0" style="stop-color:#0073EC"/>
	<stop  offset="1" style="stop-color:#0073EC;stop-opacity:0"/>
</radialGradient>
<path class="st1" d="M49.9,22.2H38.1c-0.8,0-1.4,0.6-1.4,1.4v6.6c0,0.8,0.6,1.4,1.4,1.4h6.5l3.9,3.7c0.1,0.1,0.2,0.2,0.3,0.2
	c0.1,0,0.2,0,0.2-0.1c0.2-0.1,0.3-0.3,0.2-0.5l-0.5-3.3H50c0.8,0,1.4-0.6,1.4-1.4v-6.6C51.2,22.8,50.6,22.2,49.9,22.2z"/>
<radialGradient id="SVGID_3_" cx="-253.3571" cy="590.3067" r="1" gradientTransform="matrix(8.572528e-16 14 15.5431 -9.517404e-16 -9139.4326 3583)" gradientUnits="userSpaceOnUse">
	<stop  offset="0" style="stop-color:#0073EC"/>
	<stop  offset="1" style="stop-color:#0073EC;stop-opacity:0"/>
</radialGradient>
<path class="st2" d="M49.9,36.2H38.1c-0.8,0-1.4,0.6-1.4,1.4v6.6c0,0.8,0.6,1.4,1.4,1.4h1.1l-0.5,3.3c0,0.2,0.1,0.4,0.2,0.5
	c0,0,0.1,0,0.1,0c0,0,0.1,0,0.1,0c0.2,0,0.2-0.1,0.3-0.2l3.9-3.7H50c0.8,0,1.4-0.6,1.4-1.4v-6.6C51.2,36.8,50.6,36.2,49.9,36.2z"/>
<path class="st3" d="M29.2,33c-0.2,0-0.5,0.1-0.8,0.2c0.3,0.4,0.5,0.8,0.5,1.4v0.6h2.5c0.4,0,0.7-0.3,0.7-0.7c0-0.9-0.7-1.6-1.6-1.6
	h-0.1c-0.1,0-0.2,0-0.2,0c-0.1,0-0.2,0-0.4,0C29.7,33.1,29.5,33.1,29.2,33L29.2,33z"/>
<path class="st3" d="M29.9,29.9c-0.8,0-1.4,0.6-1.4,1.4c0,0.8,0.6,1.4,1.4,1.4c0.8,0,1.4-0.6,1.4-1.4C31.3,30.5,30.7,29.9,29.9,29.9
	z"/>
<path class="st3" d="M24.6,33.5h-0.2c-0.9,0-1.6,0.7-1.6,1.7v0.4c0,0.4,0.3,0.7,0.7,0.7h4.1c0.4,0,0.7-0.3,0.7-0.7v-0.4
	c0-0.9-0.8-1.7-1.7-1.7h-0.2c-0.3,0.2-0.6,0.2-1,0.2C25.2,33.7,24.9,33.6,24.6,33.5z"/>
<path class="st3" d="M25.6,29.9c-0.9,0-1.6,0.7-1.6,1.6c0,0.8,0.7,1.6,1.6,1.6c0.9,0,1.6-0.7,1.6-1.6C27.1,30.6,26.5,29.9,25.6,29.9
	z"/>
<path class="st3" d="M26.4,42.8h-4c-0.3,0-0.5-0.2-0.5-0.5c0-0.2,0.2-0.5,0.5-0.5h4c0.2,0,0.5,0.2,0.5,0.5
	C26.8,42.5,26.6,42.8,26.4,42.8z"/>
<path class="st3" d="M32.3,45H33c0.2,0,0.5-0.2,0.5-0.5c0-0.2-0.2-0.5-0.5-0.5h-0.6c-0.2,0-0.5,0.2-0.5,0.5C32,44.7,32.1,45,32.3,45
	z"/>
<path class="st3" d="M24,45h-1.6c-0.2,0-0.5-0.2-0.5-0.5c0-0.2,0.2-0.5,0.5-0.5H24c0.3,0,0.5,0.2,0.5,0.5C24.4,44.7,24.2,45,24,45z"
	/>
<path class="st3" d="M29.7,45H31c0.2,0,0.5-0.2,0.5-0.5c0-0.2-0.2-0.5-0.5-0.5h-1.3c-0.2,0-0.5,0.2-0.5,0.5
	C29.3,44.7,29.4,45,29.7,45z"/>
<path class="st3" d="M25.3,45c-0.2,0-0.5-0.2-0.5-0.5c0-0.2,0.2-0.5,0.5-0.5h2.8c0.2,0,0.5,0.2,0.5,0.5c0,0.2-0.2,0.5-0.5,0.5H25.3z
	"/>
<path class="st3" d="M23.1,45.6h-0.7c-0.2,0-0.5,0.2-0.5,0.5s0.2,0.5,0.5,0.5H23c0.2,0,0.5-0.2,0.5-0.5
	C23.5,45.8,23.3,45.6,23.1,45.6z"/>
<path class="st3" d="M31.4,45.6H33c0.2,0,0.5,0.2,0.5,0.5s-0.2,0.5-0.5,0.5h-1.6c-0.2,0-0.5-0.2-0.5-0.5S31.2,45.6,31.4,45.6z"/>
<path class="st3" d="M25.7,45.6h-1.3c-0.2,0-0.5,0.2-0.5,0.5s0.2,0.5,0.5,0.5h1.3c0.2,0,0.5-0.2,0.5-0.5
	C26.2,45.8,26,45.6,25.7,45.6z"/>
<path class="st3" d="M27.1,45.6H30c0.3,0,0.5,0.2,0.5,0.5c0,0.2-0.2,0.5-0.5,0.5h-2.9c-0.2,0-0.5-0.2-0.5-0.5S26.9,45.6,27.1,45.6z"
	/>
<path class="st3" d="M32.8,43.1c0.1,0.1,0.2,0.1,0.2,0l0.8-0.8c0.2-0.2,0.2-0.6,0-0.8c-0.2-0.2-0.5-0.2-0.7,0.1l-0.1,0.1l-0.2-0.1
	c-0.2-0.2-0.5-0.2-0.7-0.1c-0.2,0.2-0.2,0.6-0.1,0.8L32.8,43.1z"/>
<path class="st4" d="M33.4,22H22.3c-1.1,0-2,0.9-2,2V48c0,1.1,0.9,2,2,2h11.1c1.1,0,2-0.9,2-2V24C35.4,22.9,34.5,22,33.4,22z
	 M22.2,22.9c-0.6,0-1.1,0.5-1.1,1.1v23.9c0,0.6,0.5,1.1,1.1,1.1h11.1c0.6,0,1.1-0.5,1.1-1.1l0.1-22.2V24c0-0.6-0.5-1.1-1.1-1.1h-1.5
	c-0.1,0.9-0.8,1.6-1.7,1.6h-4.8c-0.9,0-1.6-0.8-1.7-1.6H22.2z"/>
<path class="st3" d="M41.4,25.5h-1.6c-0.2,0-0.5-0.2-0.5-0.5c0-0.2,0.2-0.5,0.5-0.5h1.6c0.2,0,0.5,0.2,0.5,0.5
	C41.9,25.2,41.7,25.5,41.4,25.5z"/>
<path class="st3" d="M48.4,24.6h-1.3c-0.2,0-0.5,0.2-0.5,0.5c0,0.2,0.2,0.5,0.5,0.5h1.3c0.2,0,0.5-0.2,0.5-0.5
	C48.9,24.8,48.7,24.6,48.4,24.6z"/>
<path class="st3" d="M45.7,25.5h-2.9c-0.3,0-0.5-0.2-0.5-0.5c0-0.2,0.2-0.5,0.5-0.5h2.9c0.2,0,0.5,0.2,0.5,0.5
	C46.2,25.2,46,25.5,45.7,25.5z"/>
<path class="st3" d="M40.5,26.1h-0.6c-0.2,0-0.5,0.2-0.5,0.5c0,0.2,0.2,0.5,0.5,0.5h0.6c0.2,0,0.5-0.2,0.5-0.5
	C41,26.3,40.8,26.1,40.5,26.1z"/>
<path class="st3" d="M41.9,26.1h1.3c0.3,0,0.5,0.2,0.5,0.5c0,0.2-0.2,0.5-0.5,0.5h-1.3c-0.2,0-0.5-0.2-0.5-0.5
	C41.4,26.3,41.7,26.1,41.9,26.1z"/>
<path class="st3" d="M47.5,26.1h-2.9c-0.2,0-0.5,0.2-0.5,0.5c0,0.2,0.2,0.5,0.5,0.5h2.9c0.2,0,0.5-0.2,0.5-0.5
	C47.9,26.3,47.8,26.1,47.5,26.1z"/>
<path class="st4" d="M38.1,22.2h11.7c0.8,0,1.4,0.6,1.4,1.4v6.6c0,0.8-0.6,1.4-1.4,1.4h-1.1l0.5,3.3c0.1,0.2-0.1,0.4-0.2,0.5
	c-0.1,0.1-0.2,0.1-0.2,0.1c-0.1,0-0.2-0.1-0.3-0.2l-3.9-3.7h-6.5c-0.8,0-1.4-0.6-1.4-1.4v-6.6C36.8,22.8,37.4,22.2,38.1,22.2z
	 M49.9,30.6c0.2,0,0.5-0.2,0.5-0.5v-6.6c0-0.2-0.2-0.5-0.4-0.5H38.2c-0.2,0-0.5,0.2-0.5,0.5v6.6c0,0.2,0.2,0.5,0.5,0.5h6.7
	c0.1,0,0.2,0.1,0.3,0.2l3,2.9l-0.4-2.5c-0.1-0.2,0-0.3,0.1-0.4c0.1-0.1,0.2-0.2,0.4-0.2H49.9z"/>
<path class="st3" d="M39.9,40.5h1.6c0.2,0,0.5,0.2,0.5,0.5s-0.2,0.5-0.5,0.5h-1.6c-0.2,0-0.5-0.2-0.5-0.5S39.6,40.5,39.9,40.5z"/>
<path class="st3" d="M48.4,40.5h-1.3c-0.2,0-0.5,0.2-0.5,0.5s0.2,0.5,0.5,0.5h1.3c0.2,0,0.5-0.2,0.5-0.5S48.7,40.5,48.4,40.5z"/>
<path class="st3" d="M42.9,40.5h2.9c0.2,0,0.5,0.2,0.5,0.5s-0.2,0.5-0.5,0.5h-2.9c-0.2,0-0.5-0.2-0.5-0.5S42.7,40.5,42.9,40.5z"/>
<path class="st3" d="M39.9,39.9h0.7c0.2,0,0.5-0.2,0.5-0.5S40.8,39,40.5,39h-0.6c-0.2,0-0.5,0.2-0.5,0.5S39.6,39.9,39.9,39.9z"/>
<path class="st3" d="M43.2,39.9h-1.3c-0.2,0-0.5-0.2-0.5-0.5s0.2-0.5,0.5-0.5h1.3c0.2,0,0.5,0.2,0.5,0.5S43.4,39.9,43.2,39.9z"/>
<path class="st3" d="M44.6,39.9h2.9c0.2,0,0.5-0.2,0.5-0.5S47.7,39,47.5,39h-2.9c-0.2,0-0.5,0.2-0.5,0.5S44.3,39.9,44.6,39.9z"/>
<path class="st4" d="M49.9,36.2H38.1c-0.8,0-1.4,0.6-1.4,1.4v6.6c0,0.8,0.6,1.4,1.4,1.4h1.1l-0.5,3.3c0,0.2,0.1,0.4,0.2,0.5
	c0,0,0.1,0,0.1,0c0,0,0.1,0,0.1,0c0.2,0,0.2-0.1,0.3-0.2l3.9-3.7H50c0.8,0,1.4-0.6,1.4-1.4v-6.6C51.2,36.8,50.6,36.2,49.9,36.2z
	 M50.3,44.1c0,0.2-0.2,0.5-0.5,0.5h-6.7c-0.2,0-0.2,0.1-0.3,0.2l-3,2.9l0.4-2.5c0-0.2,0-0.3-0.1-0.4c-0.1-0.1-0.2-0.2-0.4-0.2h-1.6
	c-0.2,0-0.5-0.2-0.5-0.5v-6.6c0-0.2,0.2-0.5,0.5-0.5H50c0.2,0,0.5,0.2,0.5,0.5L50.3,44.1L50.3,44.1z"/>
</svg>
