<?xml version="1.0" encoding="utf-8"?>
<!-- Generator: Adobe Illustrator 25.2.1, SVG Export Plug-In . SVG Version: 6.00 Build 0)  -->
<svg version="1.1" id="Layer_1" xmlns="http://www.w3.org/2000/svg" xmlns:xlink="http://www.w3.org/1999/xlink" x="0px" y="0px"
	 viewBox="0 0 72 72" style="enable-background:new 0 0 72 72;" xml:space="preserve">
<style type="text/css">
	.st0{fill-rule:evenodd;clip-rule:evenodd;fill:url(#SVGID_1_);fill-opacity:0.25;}
	.st1{fill-rule:evenodd;clip-rule:evenodd;fill:url(#SVGID_2_);fill-opacity:0.25;}
	.st2{fill-rule:evenodd;clip-rule:evenodd;fill:#0073EC;}
	.st3{fill:#0073EC;}
</style>
<radialGradient id="SVGID_1_" cx="-251.6312" cy="590.9955" r="1" gradientTransform="matrix(7.720663e-16 12.6088 14.9482 -9.153133e-16 -8798.3701 3208.376)" gradientUnits="userSpaceOnUse">
	<stop  offset="0" style="stop-color:#0073EC"/>
	<stop  offset="1" style="stop-color:#0073EC;stop-opacity:0"/>
</radialGradient>
<path class="st0" d="M27,23.4c0.2-0.2,0.5-0.4,0.9-0.4h18.5c0.3,0,0.6,0.1,0.9,0.4c0.2,0.2,0.4,0.5,0.4,0.9v1.4
	c0,0.3-0.1,0.6-0.4,0.9c-0.2,0.2-0.5,0.4-0.9,0.4H39v1.9C44.6,29,49,33.5,49,39.1c0,0.5-0.2,1-0.6,1.4c-0.4,0.4-0.8,0.6-1.4,0.6H35
	c-0.3,0-0.6-0.1-0.9-0.2c-0.3-0.1-0.5-0.3-0.7-0.6l-1-1.3c0,0-0.1-0.1-0.1-0.1l-1.6-2.2c-0.1,0-0.2-0.1-0.2-0.2l-0.9-1.2l-7.2-2.9
	l-1.5-5l0,0c0-0.2,0-0.4,0-0.5c0-0.2,0.1-0.3,0.2-0.5c0.1-0.1,0.3-0.3,0.4-0.3c0.2-0.1,0.3-0.1,0.5-0.1H24c0.2,0,0.4,0,0.5,0.1
	c0.2,0.1,0.3,0.2,0.4,0.4l1.8,2.4h8.5v-1.8h-7.3c-0.3,0-0.6-0.1-0.9-0.4s-0.4-0.5-0.4-0.9v-1.4C26.7,23.9,26.8,23.6,27,23.4z"/>
<radialGradient id="SVGID_2_" cx="-251.6312" cy="590.9955" r="1" gradientTransform="matrix(7.720663e-16 12.6088 14.9482 -9.153133e-16 -8798.3701 3208.376)" gradientUnits="userSpaceOnUse">
	<stop  offset="0" style="stop-color:#0073EC"/>
	<stop  offset="1" style="stop-color:#0073EC;stop-opacity:0"/>
</radialGradient>
<path class="st1" d="M50.4,44.2c0.2,0.2,0.3,0.4,0.4,0.6c0.1,0.2,0.1,0.5,0.1,0.7s-0.1,0.5-0.2,0.7c-0.1,0.2-0.2,0.4-0.4,0.6
	c-0.8,0.7-1.5,1.1-2.2,1.3c-0.7,0.2-1.2,0.2-1.5,0.2H32.1c-0.5,0-0.9-0.2-1.2-0.5c-0.3-0.3-0.5-0.8-0.5-1.2v-1.4
	c0-0.5,0.2-0.9,0.5-1.2c0.3-0.3,0.8-0.5,1.2-0.5h14.5c0.1,0,0.1,0,0.2,0c0,0,0.1-0.1,0.2-0.2c0.3-0.3,0.7-0.5,1.2-0.5
	c0.5,0,0.9,0.2,1.2,0.5l0,0L50.4,44.2z"/>
<path class="st2" d="M27,23.4c0.2-0.2,0.5-0.4,0.9-0.4h18.5c0.3,0,0.6,0.1,0.9,0.4c0.2,0.2,0.4,0.5,0.4,0.9v1.4
	c0,0.3-0.1,0.6-0.4,0.9c-0.2,0.2-0.5,0.4-0.9,0.4H39v1.9C44.6,29,49,33.5,49,39.1c0,0.5-0.2,1-0.6,1.4c-0.4,0.4-0.8,0.6-1.4,0.6H35
	c-0.3,0-0.6-0.1-0.9-0.2c-0.3-0.1-0.5-0.3-0.7-0.6l-1-1.3c-0.2-0.2-0.1-0.5,0.1-0.7c0.2-0.2,0.5-0.1,0.7,0.1l1,1.3
	c0.1,0.1,0.2,0.2,0.3,0.3C34.7,40,34.8,40,35,40h12.1c0.2,0,0.5-0.1,0.7-0.3c0.2-0.2,0.3-0.4,0.3-0.7c0-5.2-4.2-9.4-9.4-9.4H26.2
	l-2.1-2.8c0,0,0,0-0.1-0.1c0,0-0.1,0-0.1,0h-1.8c0,0-0.1,0-0.1,0c0,0-0.1,0-0.1,0.1c0,0,0,0.1,0,0.1c0,0,0,0.1,0,0.1l1.3,4.6l7,2.8
	l1,1.4c0.2,0.2,0.1,0.5-0.1,0.7c-0.2,0.2-0.5,0.1-0.7-0.1l-0.9-1.2l-7.2-2.9l-1.5-5l0,0c0-0.2,0-0.4,0-0.5c0-0.2,0.1-0.3,0.2-0.5
	c0.1-0.1,0.3-0.3,0.4-0.3c0.2-0.1,0.3-0.1,0.5-0.1H24c0.2,0,0.4,0,0.5,0.1c0.2,0.1,0.3,0.2,0.4,0.4l1.8,2.4h8.5v-1.8h-7.3
	c-0.3,0-0.6-0.1-0.9-0.4s-0.4-0.5-0.4-0.9v-1.4C26.7,23.9,26.8,23.6,27,23.4z M36.2,28.7H38v-2.8h8.3c0.1,0,0.1,0,0.1-0.1
	c0,0,0.1-0.1,0.1-0.1v-1.4c0-0.1,0-0.1-0.1-0.1c0,0-0.1-0.1-0.1-0.1H27.9c-0.1,0-0.1,0-0.1,0.1c0,0-0.1,0.1-0.1,0.1v1.4
	c0,0.1,0,0.1,0.1,0.1c0,0,0.1,0.1,0.1,0.1h8.3V28.7z"/>
<path class="st2" d="M50.4,44.2c0.2,0.2,0.3,0.4,0.4,0.6c0.1,0.2,0.1,0.5,0.1,0.7s-0.1,0.5-0.2,0.7c-0.1,0.2-0.2,0.4-0.4,0.6
	c-0.8,0.7-1.5,1.1-2.2,1.3c-0.7,0.2-1.2,0.2-1.5,0.2H32.1c-0.5,0-0.9-0.2-1.2-0.5c-0.3-0.3-0.5-0.8-0.5-1.2v-1.4
	c0-0.5,0.2-0.9,0.5-1.2c0.3-0.3,0.8-0.5,1.2-0.5h14.5c0.1,0,0.1,0,0.2,0c0,0,0.1-0.1,0.2-0.2c0.3-0.3,0.7-0.5,1.2-0.5
	c0.5,0,0.9,0.2,1.2,0.5l0,0L50.4,44.2z M49.6,45.9c0.1-0.1,0.1-0.1,0.2-0.2c0-0.1,0.1-0.2,0.1-0.3c0-0.1,0-0.2,0-0.3
	c0-0.1-0.1-0.2-0.2-0.2l-1-1c-0.1-0.1-0.3-0.2-0.5-0.2c-0.2,0-0.4,0.1-0.5,0.2c-0.3,0.3-0.6,0.5-1.1,0.5H32.1
	c-0.2,0-0.4,0.1-0.5,0.2c-0.1,0.1-0.2,0.3-0.2,0.5v1.4c0,0.2,0.1,0.4,0.2,0.5c0.1,0.1,0.3,0.2,0.5,0.2h14.5
	C47.3,47.2,48.2,47.2,49.6,45.9z"/>
<path class="st3" d="M26.5,37c-0.3,0-0.5,0.2-0.5,0.5s0.2,0.5,0.5,0.5h6c0.3,0,0.5-0.2,0.5-0.5S32.8,37,32.5,37H26.5z"/>
<path class="st3" d="M24,40.5c0-0.3,0.2-0.5,0.5-0.5h6c0.3,0,0.5,0.2,0.5,0.5S30.8,41,30.5,41h-6C24.2,41,24,40.8,24,40.5z"/>
<path class="st2" d="M39,30.9v7.7h7.8l-0.2-1.2c-0.6-3.2-3.2-5.7-6.3-6.3L39,30.9z M40,32.2v5.5h5.5c-0.1-0.3-0.2-0.7-0.3-1
	c-0.7-2-2.3-3.5-4.3-4.2C40.6,32.3,40.3,32.2,40,32.2z"/>
</svg>
