<?xml version="1.0" encoding="utf-8"?>
<!-- Generator: Adobe Illustrator 25.2.1, SVG Export Plug-In . SVG Version: 6.00 Build 0)  -->
<svg version="1.1" id="Layer_1" xmlns="http://www.w3.org/2000/svg" xmlns:xlink="http://www.w3.org/1999/xlink" x="0px" y="0px"
	 viewBox="0 0 72 72" style="enable-background:new 0 0 72 72;" xml:space="preserve">
<style type="text/css">
	.st0{fill:url(#SVGID_1_);fill-opacity:0.25;}
	.st1{fill-rule:evenodd;clip-rule:evenodd;fill:#0073EC;}
	.st2{fill:#0073EC;}
</style>
<radialGradient id="SVGID_1_" cx="-247.53" cy="598.8222" r="1" gradientTransform="matrix(6.245883e-16 10.2003 10.4174 -6.378818e-16 -6199.6289 2564.1362)" gradientUnits="userSpaceOnUse">
	<stop  offset="0" style="stop-color:#0073EC"/>
	<stop  offset="1" style="stop-color:#0073EC;stop-opacity:0"/>
</radialGradient>
<path class="st0" d="M49,30.1v18.4c0,0.6-0.4,1-1,1H29.1c-0.6,0-1-0.4-1-1V30.1c0-0.6,0.4-1,1-1H48C48.5,29.1,49,29.5,49,30.1z"/>
<path class="st1" d="M35.4,37.3H31c-0.2,0-0.5-0.1-0.7-0.3c-0.2-0.2-0.3-0.4-0.3-0.7v-4.6c0-0.3,0.1-0.5,0.3-0.7
	c0.2-0.2,0.4-0.3,0.7-0.3h4.4c0.2,0,0.5,0.1,0.7,0.3s0.3,0.4,0.3,0.7v4.6c0,0.1,0,0.3-0.1,0.4c0,0.1-0.1,0.2-0.2,0.3
	c-0.1,0.1-0.2,0.2-0.3,0.2S35.5,37.3,35.4,37.3z M30.9,31.5c0,0-0.1,0.1-0.1,0.2v4.6c0,0.1,0,0.1,0.1,0.2c0,0,0.1,0.1,0.2,0.1h4.4
	c0,0,0.1,0,0.1,0c0,0,0.1,0,0.1-0.1l0,0c0,0,0-0.1,0-0.1v-4.6c0,0,0-0.1,0-0.1l0,0h0l-0.1,0c0,0-0.1,0-0.1,0H31
	C31,31.4,31,31.4,30.9,31.5C30.9,31.4,30.9,31.5,30.9,31.5z"/>
<path class="st1" d="M36.6,39.5c0.9,0,1.8-0.7,1.9-1.7c0-1.8,0-7.4,0-7.4c0-0.3,0-0.5-0.1-0.8c-0.1-0.2-0.2-0.5-0.4-0.6
	c-0.2-0.2-0.4-0.3-0.6-0.4c-0.2-0.1-0.5-0.2-0.7-0.2v-1l2.1-2.3h0c0.1,0.1,0.3,0.1,0.5,0.1c0.2,0,0.5-0.1,0.7-0.2
	c0.2-0.2,0.3-0.4,0.4-0.6c0.1-0.2,0.1-0.5,0-0.8c-0.1-0.2-0.2-0.4-0.5-0.6c-0.2-0.1-0.4-0.2-0.7-0.2c-0.2,0-0.5,0.1-0.7,0.3
	c-0.2,0.2-0.3,0.4-0.4,0.7c0,0.3,0,0.5,0.1,0.8h0L35.9,27c0,0-0.1,0.1-0.1,0.1s0,0.1,0,0.2v1.2h-0.7v-1.5c0-0.1,0-0.2-0.1-0.3
	c-0.1-0.1-0.2-0.1-0.3-0.1c-0.1,0-0.2,0-0.3,0.1c-0.1,0.1-0.1,0.2-0.1,0.3v1.5h-0.7v-2.8c0.2-0.1,0.4-0.2,0.5-0.4
	c0.1-0.2,0.2-0.4,0.2-0.6c0-0.2,0-0.5-0.2-0.7c-0.1-0.2-0.3-0.4-0.5-0.5c-0.2-0.1-0.4-0.1-0.6-0.1c-0.2,0-0.4,0.1-0.6,0.3
	c-0.2,0.2-0.3,0.4-0.3,0.6c-0.1,0.2,0,0.5,0,0.7c0.1,0.2,0.1,0.3,0.3,0.4s0.3,0.2,0.4,0.3v2.8h-0.7v-1.5c0-0.1,0-0.2-0.1-0.3
	c-0.1-0.1-0.2-0.1-0.3-0.1c-0.1,0-0.2,0-0.3,0.1c-0.1,0.1-0.1,0.2-0.1,0.3v1.5h-0.7v-2.8c0-0.1,0-0.2-0.1-0.3L29,23.8
	c0.1-0.2,0.1-0.3,0.1-0.5c0-0.2-0.1-0.5-0.2-0.7c-0.1-0.2-0.3-0.3-0.5-0.4c-0.2-0.1-0.4-0.1-0.6-0.1c-0.2,0-0.4,0.2-0.6,0.3
	c-0.2,0.2-0.3,0.4-0.3,0.6c0,0.2,0,0.5,0.1,0.7c0.1,0.2,0.2,0.4,0.4,0.5c0.2,0.1,0.4,0.2,0.6,0.2c0.2,0,0.3,0,0.5-0.1h0l1.4,1.5v2.6
	c-0.5,0-1,0.2-1.3,0.6c-0.3,0.4-0.5,0.9-0.5,1.4h-1.3l-1-1.1h0c0.1-0.2,0.1-0.3,0.1-0.5c0-0.2-0.1-0.5-0.2-0.7
	c-0.1-0.2-0.3-0.3-0.5-0.4c-0.2-0.1-0.4-0.1-0.6-0.1c-0.2,0-0.4,0.2-0.6,0.3c-0.2,0.2-0.3,0.4-0.3,0.6c0,0.2,0,0.5,0.1,0.7
	c0.1,0.2,0.2,0.4,0.4,0.5c0.2,0.1,0.4,0.2,0.6,0.2c0.2,0,0.3,0,0.5-0.1l1.1,1.2c0.1,0.1,0.2,0.1,0.3,0.1H28V32h-2.2
	c-0.1,0-0.2,0-0.2,0.1l-1.6,1.4c-0.2-0.2-0.5-0.3-0.7-0.3c-0.2,0-0.4,0.1-0.6,0.2c-0.2,0.1-0.3,0.3-0.4,0.5
	c-0.1,0.2-0.1,0.5-0.1,0.7c0,0.2,0.1,0.4,0.3,0.6c0.2,0.2,0.4,0.3,0.6,0.3c0.2,0,0.4,0,0.6-0.1c0.2-0.1,0.4-0.2,0.5-0.4
	c0.1-0.2,0.2-0.4,0.2-0.7c0-0.1,0-0.1,0-0.2l1.6-1.4H28v0.8h-1.1c-0.1,0-0.2,0-0.3,0.1c-0.1,0.1-0.1,0.2-0.1,0.3
	c0,0.1,0,0.2,0.1,0.3c0.1,0.1,0.2,0.1,0.3,0.1H28v0.8h-2.6c-0.1,0-0.2,0-0.3,0.1c-0.1,0.1-0.1,0.2-0.1,0.3s0,0.2,0.1,0.3
	c0.1,0.1,0.2,0.1,0.3,0.1H28v0.8h-1.9c-0.1,0-0.1,0-0.2,0c-0.1,0-0.1,0.1-0.1,0.1l-1.5,2.3c-0.1-0.1-0.3-0.1-0.5-0.1
	c-0.2,0-0.5,0.1-0.7,0.2c-0.2,0.2-0.3,0.4-0.4,0.6c-0.1,0.2-0.1,0.5,0,0.8c0.1,0.2,0.2,0.4,0.5,0.6c0.2,0.1,0.4,0.2,0.7,0.2
	c0.2,0,0.5-0.1,0.7-0.3c0.2-0.2,0.3-0.4,0.4-0.7c0-0.3,0-0.5-0.1-0.8l0-0.1l1.4-2.2H28c0,0.5,0.2,1,0.5,1.4c0.3,0.4,0.8,0.6,1.3,0.6
	H36.6z M39,23.8c0.1,0,0.1-0.1,0.2-0.1c0,0,0.1,0,0.1,0c0.1,0,0.1,0.1,0.2,0.1s0.1,0.1,0.1,0.2c0,0.1,0,0.1-0.1,0.2
	c0,0.1-0.1,0.1-0.1,0.1c-0.1,0-0.1,0.1-0.2,0.1c-0.1,0-0.1,0-0.2-0.1c0,0-0.1-0.1-0.1-0.1c0-0.1,0-0.1,0-0.2c0-0.1,0-0.1,0-0.2
	C38.9,23.8,38.9,23.8,39,23.8z M28.2,23.6c-0.1,0-0.1,0.1-0.2,0.1c-0.1,0-0.2,0-0.3-0.1c-0.1-0.1-0.1-0.2-0.1-0.3
	c0-0.1,0-0.2,0.1-0.3c0.1-0.1,0.2-0.1,0.3-0.1c0.1,0,0.1,0,0.2,0.1c0,0,0.1,0.1,0.1,0.1c0,0.1,0,0.1,0,0.2c0,0.1,0,0.1,0,0.2
	C28.3,23.5,28.3,23.6,28.2,23.6z M24.9,29.2c-0.1,0-0.1,0.1-0.2,0.1c-0.1,0-0.2,0-0.3-0.1c-0.1-0.1-0.1-0.2-0.1-0.3
	c0-0.1,0-0.1,0-0.2c0,0,0-0.1,0.1-0.1c0,0,0,0,0,0c0,0,0,0,0,0c0,0,0,0,0.1-0.1c0.1,0,0.1,0,0.2,0c0.1,0,0.1,0,0.2,0.1
	c0.1,0,0.1,0.1,0.1,0.1s0,0.1,0,0.2c0,0.1,0,0.1,0,0.2C25,29.1,24.9,29.1,24.9,29.2z M23.5,34.6c0,0.1-0.1,0.1-0.1,0.1
	c-0.1,0-0.1,0-0.2,0c-0.1,0-0.2,0-0.3-0.1c-0.1-0.1-0.1-0.2-0.1-0.3c0-0.1,0-0.1,0-0.2c0,0,0-0.1,0.1-0.1c0,0,0.1-0.1,0.1-0.1
	c0,0,0.1,0,0.1,0c0.1,0,0.2,0,0.3,0.1c0.1,0.1,0.1,0.2,0.1,0.3C23.5,34.4,23.5,34.5,23.5,34.6z M24.2,40.6c0,0-0.1,0.1-0.1,0.1
	c0,0-0.1,0-0.1,0c-0.1,0-0.2,0-0.3-0.1c-0.1-0.1-0.1-0.2-0.1-0.3c0-0.1,0-0.2,0.1-0.3c0.1-0.1,0.2-0.1,0.3-0.1c0,0,0.1,0,0.1,0
	c0,0,0.1,0,0.1,0.1c0,0,0.1,0.1,0.1,0.1c0,0,0,0.1,0,0.2s0,0.1,0,0.2C24.2,40.5,24.2,40.5,24.2,40.6z M33.2,24.2c0,0,0.1,0,0.1,0
	c0,0,0.1,0,0.1,0.1c0,0,0.1,0.1,0.1,0.1c0,0,0,0.1,0,0.2c0,0.1,0,0.1,0,0.2s-0.1,0.1-0.1,0.1c-0.1,0-0.1,0.1-0.2,0.1
	c-0.1,0-0.1,0-0.2-0.1l-0.1,0c-0.1-0.1-0.1-0.1-0.1-0.2c0-0.1,0-0.2,0-0.2c0-0.1,0.1-0.1,0.1-0.2C33.1,24.2,33.2,24.2,33.2,24.2z
	 M29.4,38.6c-0.2-0.1-0.4-0.2-0.5-0.4c-0.1-0.2-0.2-0.4-0.2-0.7v-7.1c0-0.3,0.1-0.6,0.3-0.8c0.2-0.2,0.5-0.3,0.8-0.3h6.7
	c0.2,0,0.4,0,0.5,0.1c0.2,0.1,0.3,0.3,0.4,0.4c0.1,0.2,0.2,0.4,0.2,0.6v7.1c0,0.3-0.1,0.6-0.3,0.8c-0.2,0.2-0.5,0.3-0.8,0.3h-6.7
	c-0.1,0-0.2,0-0.3-0.1L29.4,38.6z"/>
<path class="st2" d="M40.4,28.9l7.7,0c0.2,0,0.5,0.1,0.7,0.3c0.2,0.2,0.3,0.4,0.3,0.7v4.3c0,0.3-0.1,0.7-0.4,0.9
	c-0.2,0.2-0.5,0.4-0.9,0.4l-7.4,0c0,0-0.1,0-0.1,0c0,0,0,0-0.1,0c0,0,0,0,0,0c0,0,0,0,0,0c0,0,0-0.1-0.1-0.1c0,0,0-0.1,0-0.1v-0.1
	c0-0.1,0-0.2,0.1-0.2c0.1-0.1,0.1-0.1,0.2-0.1l7.8,0c0.1,0,0.1,0,0.2-0.1c0,0,0.1-0.1,0.1-0.2v-4.6c0-0.1,0-0.1-0.1-0.2
	c0,0-0.1-0.1-0.2-0.1l-7.7,0c-0.1,0-0.2,0-0.2-0.1c-0.1-0.1-0.1-0.1-0.1-0.2v-0.1c0-0.1,0-0.2,0.1-0.2C40.2,29,40.3,28.9,40.4,28.9z
	"/>
<path class="st2" d="M41.7,31.8c0.1,0.1,0.1,0.2,0.1,0.4c0,0.2-0.1,0.4-0.2,0.5c-0.1,0.1-0.3,0.2-0.5,0.2c-0.1,0-0.3,0-0.4-0.1
	c-0.1-0.1-0.2-0.2-0.2-0.3c0-0.1-0.1-0.3,0-0.4c0-0.1,0.1-0.3,0.2-0.4c0.1-0.1,0.2-0.2,0.3-0.2c0.1,0,0.3,0,0.4,0
	C41.6,31.6,41.7,31.7,41.7,31.8z"/>
<path class="st2" d="M41.7,39c0.1,0.1,0.1,0.2,0.1,0.4c0,0.2-0.1,0.4-0.2,0.5c-0.1,0.1-0.3,0.2-0.5,0.2c-0.1,0-0.3,0-0.4-0.1
	c-0.1-0.1-0.2-0.2-0.2-0.3c0-0.1-0.1-0.3,0-0.4c0-0.1,0.1-0.3,0.2-0.4c0.1-0.1,0.2-0.2,0.3-0.2c0.1,0,0.3,0,0.4,0
	C41.6,38.8,41.7,38.9,41.7,39z"/>
<path class="st2" d="M46.2,40.1c0.3-0.1,0.6-0.5,0.5-0.8c-0.1-0.4-0.4-0.6-0.8-0.5c-0.3,0.1-0.6,0.5-0.5,0.8
	C45.5,39.9,45.8,40.1,46.2,40.1z"/>
<path class="st2" d="M40.3,36.1l7.7,0c0.2,0,0.5,0.1,0.7,0.3c0.2,0.2,0.3,0.4,0.3,0.7v4.6c0,0.3-0.1,0.5-0.3,0.7
	c-0.2,0.2-0.4,0.3-0.7,0.3H28.7c-0.2,0-0.5-0.1-0.7-0.3c-0.2-0.2-0.3-0.4-0.3-0.7l0-1.1c0-0.1,0-0.1,0-0.2c0,0,0-0.1,0-0.1
	c0,0,0,0,0-0.1c0,0,0.1-0.1,0.1-0.1c0,0,0.1,0,0.1,0h0c0.1,0,0.2,0.1,0.2,0.1c0.1,0.1,0.1,0.2,0.1,0.2l0,1.1c0,0.1,0,0.1,0.1,0.2
	c0,0,0.1,0.1,0.2,0.1h19.4c0.1,0,0.1,0,0.2-0.1c0,0,0.1-0.1,0.1-0.2v-4.6c0-0.1,0-0.1-0.1-0.2c0,0-0.1-0.1-0.2-0.1l-7.7,0
	c0,0-0.1,0-0.1,0c0,0-0.1,0-0.1-0.1c0,0-0.1-0.1-0.1-0.1c0,0,0-0.1,0-0.1c0-0.1,0-0.2,0.1-0.3C40.1,36.2,40.2,36.1,40.3,36.1z"/>
<path class="st2" d="M43.8,40.1c0.3-0.1,0.6-0.5,0.5-0.8c-0.1-0.4-0.4-0.6-0.8-0.5c-0.3,0.1-0.6,0.5-0.5,0.8
	C43.1,39.9,43.5,40.1,43.8,40.1z"/>
<path class="st2" d="M43.7,32.9c0.4,0,0.6-0.3,0.6-0.7c0-0.4-0.3-0.7-0.6-0.7c-0.4,0-0.6,0.3-0.6,0.7C43,32.6,43.3,32.9,43.7,32.9z"
	/>
<path class="st2" d="M43.7,45.9c-0.1,0-0.3,0-0.4,0.1c-0.1,0.1-0.2,0.2-0.2,0.3c0,0.1-0.1,0.3,0,0.4c0,0.1,0.1,0.3,0.2,0.4
	c0.1,0.1,0.2,0.2,0.3,0.2c0.1,0,0.3,0,0.4,0c0.1-0.1,0.2-0.1,0.3-0.3c0.1-0.1,0.1-0.2,0.1-0.4c0-0.2-0.1-0.4-0.2-0.5
	C44,46,43.9,45.9,43.7,45.9z"/>
<path class="st2" d="M40.9,46c0.1-0.1,0.2-0.1,0.4-0.1c0.1,0,0.2,0,0.2,0.1c0.1,0,0.2,0.1,0.2,0.1c0.1,0.1,0.1,0.1,0.1,0.2
	c0,0.1,0,0.2,0,0.3c0,0.1,0,0.3-0.1,0.4s-0.2,0.2-0.3,0.3c-0.1,0.1-0.2,0.1-0.4,0c-0.1,0-0.2-0.1-0.3-0.2c-0.1-0.1-0.2-0.2-0.2-0.4
	c0-0.1,0-0.3,0-0.4C40.7,46.2,40.7,46.1,40.9,46z"/>
<path class="st2" d="M46,45.9c-0.1,0-0.3,0-0.4,0.1c-0.1,0.1-0.2,0.2-0.2,0.3c0,0.1-0.1,0.3,0,0.4c0,0.1,0.1,0.3,0.2,0.4
	c0.1,0.1,0.2,0.2,0.3,0.2c0.1,0,0.3,0,0.4,0c0.1-0.1,0.2-0.1,0.3-0.3c0.1-0.1,0.1-0.2,0.1-0.4c0-0.2-0.1-0.4-0.2-0.5
	C46.4,46,46.2,45.9,46,45.9z"/>
<path class="st1" d="M28.7,43.3h19.4c0.2,0,0.5,0.1,0.7,0.3c0.2,0.2,0.3,0.4,0.3,0.7v4.6c0,0.3-0.1,0.5-0.3,0.7
	c-0.2,0.2-0.4,0.3-0.7,0.3H28.7c-0.2,0-0.5-0.1-0.7-0.3c-0.2-0.2-0.3-0.4-0.3-0.7v-4.6c0-0.3,0.1-0.5,0.3-0.7
	C28.2,43.4,28.4,43.3,28.7,43.3z M48.3,49c0,0,0-0.1,0-0.1v-4.6c0,0,0-0.1,0-0.1l0,0h0l-0.1,0c0,0-0.1,0-0.1,0H28.7c0,0-0.1,0-0.1,0
	c0,0,0,0,0,0c0,0,0,0,0,0c0,0,0,0,0,0c0,0,0,0,0,0c0,0,0,0,0,0c0,0,0,0.1,0,0.1v4.6c0,0.1,0,0.1,0.1,0.2c0,0,0.1,0.1,0.2,0.1h19.4
	c0,0,0.1,0,0.1,0C48.2,49.1,48.2,49.1,48.3,49L48.3,49z"/>
<path class="st2" d="M46.7,32.2c0,0.4-0.3,0.7-0.6,0.7c-0.4,0-0.6-0.3-0.6-0.7c0-0.4,0.3-0.7,0.6-0.7C46.4,31.5,46.7,31.8,46.7,32.2
	z"/>
</svg>
