<?xml version="1.0" encoding="utf-8"?>
<!-- Generator: Adobe Illustrator 25.2.1, SVG Export Plug-In . SVG Version: 6.00 Build 0)  -->
<svg version="1.1" id="Layer_1" xmlns="http://www.w3.org/2000/svg" xmlns:xlink="http://www.w3.org/1999/xlink" x="0px" y="0px"
	 viewBox="0 0 72 72" style="enable-background:new 0 0 72 72;" xml:space="preserve">
<style type="text/css">
	.st0{fill-rule:evenodd;clip-rule:evenodd;fill:url(#SVGID_1_);fill-opacity:0.25;}
	.st1{fill:#0073EC;}
	.st2{fill-rule:evenodd;clip-rule:evenodd;fill:#0073EC;}
</style>
<radialGradient id="SVGID_1_" cx="-254.4" cy="588.5942" r="1" gradientTransform="matrix(9.184852e-16 15 17.25 -1.056258e-15 -10118 3852)" gradientUnits="userSpaceOnUse">
	<stop  offset="0" style="stop-color:#0073EC"/>
	<stop  offset="1" style="stop-color:#0073EC;stop-opacity:0"/>
</radialGradient>
<path class="st0" d="M38.3,21c-2.6,0-4.8,2.1-4.8,4.8v0.1c-0.6,0.2-1,0.7-1,1.4v3h-6.9c-0.4,0-0.9,0.2-1.2,0.5
	C24.2,31,24,31.4,24,31.9v4.4c-0.4,0.1-0.8,0.2-1.2,0.4c-1.9,0.8-3.4,2.3-4.2,4.3c-0.4,1-0.6,2-0.6,3.1c0,1.1,0.2,1.1,0.6,2.1
	c0.4,1,1,1.8,1.7,2.6c0.7,0.7,1.6,1.3,2.5,1.7c1,0.4,2,0.6,3.1,0.6c1.1,0,2.1-0.2,3.1-0.6c1.2-0.5,1.7-0.7,2.5-1.7L50.8,49
	c0.4,0,0.9-0.2,1.2-0.5c0.3-0.3,0.5-0.7,0.5-1.2v-5.6c0-0.5,0-1,0-1.5c0-0.9,0-1.8,0-2.9L52,31.9c0-0.4-0.2-0.9-0.5-1.2
	c-0.3-0.3-0.7-0.5-1.2-0.5H44v-3c0-0.6-0.4-1.2-1-1.4v-0.1C43,23.1,40.9,21,38.3,21z"/>
<path class="st1" d="M36,30c0.3,0,0.5,0.2,0.5,0.5v2c0,0.3-0.2,0.5-0.5,0.5s-0.5-0.2-0.5-0.5v-2C35.5,30.2,35.7,30,36,30z"/>
<path class="st2" d="M33.5,25c0-2.8,2.2-5,5-5s5,2.2,5,5v0.1c0.6,0.2,1,0.8,1,1.4v7c0,0.8-0.7,1.5-1.5,1.5h-9
	c-0.8,0-1.5-0.7-1.5-1.5v-7C32.5,25.8,32.9,25.3,33.5,25L33.5,25z M38.5,21c2.2,0,4,1.8,4,4h-8C34.5,22.8,36.3,21,38.5,21z M34,26h9
	c0.3,0,0.5,0.2,0.5,0.5v7c0,0.3-0.2,0.5-0.5,0.5h-3.5v-6h-6v-1.5C33.5,26.2,33.7,26,34,26z M33.5,29v4.5c0,0.3,0.2,0.5,0.5,0.5h4.5
	v-5H33.5z"/>
<path class="st1" d="M25.3,29.6c-0.5,0-0.9,0.2-1.2,0.5c-0.3,0.3-0.5,0.8-0.5,1.2v2.9c0,0.3,0.2,0.5,0.5,0.5s0.5-0.2,0.5-0.5v-2.9
	c0-0.2,0.1-0.4,0.2-0.5c0.1-0.1,0.3-0.2,0.5-0.2H31c0.3,0,0.5-0.2,0.5-0.5c0-0.3-0.2-0.5-0.5-0.5H25.3z"/>
<path class="st1" d="M46,29.6c-0.3,0-0.5,0.2-0.5,0.5c0,0.3,0.2,0.5,0.5,0.5h5.2c0.2,0,0.4,0.1,0.5,0.2c0.1,0.1,0.2,0.3,0.2,0.5v5.8
	c0,0.2-0.1,0.4-0.2,0.5c-0.1,0.1-0.3,0.2-0.5,0.2H34c-0.3,0-0.5,0.2-0.5,0.5c0,0.3,0.2,0.5,0.5,0.5h17.2h0c0.5,0,0.9-0.2,1.2-0.5
	c0.3-0.3,0.5-0.8,0.5-1.2v0v-5.8c0-0.5-0.2-0.9-0.5-1.2c-0.3-0.3-0.8-0.5-1.2-0.5H46z"/>
<path class="st1" d="M34.2,40c-0.3,0-0.5,0.2-0.5,0.5s0.2,0.5,0.5,0.5h17c0.2,0,0.4,0.1,0.5,0.2c0.1,0.1,0.2,0.3,0.2,0.5v5.8
	c0,0.2-0.1,0.4-0.2,0.5c-0.1,0.1-0.3,0.2-0.5,0.2h-18c-0.3,0-0.5,0.2-0.5,0.5s0.2,0.5,0.5,0.5h18c0.5,0,0.9-0.2,1.2-0.5
	c0.3-0.3,0.5-0.8,0.5-1.2v-5.8c0-0.5-0.2-0.9-0.5-1.2c-0.3-0.3-0.8-0.5-1.2-0.5H34.2z"/>
<path class="st1" d="M42,45.5c-0.2,0-0.3-0.1-0.5-0.1c-0.1-0.1-0.3-0.2-0.3-0.4c-0.1-0.2-0.1-0.3,0-0.5c0-0.2,0.1-0.3,0.2-0.4
	c0.1-0.1,0.3-0.2,0.4-0.2c0.2,0,0.3,0,0.5,0c0.2,0.1,0.3,0.2,0.4,0.3c0.1,0.1,0.1,0.3,0.1,0.5c0,0.1,0,0.2-0.1,0.3
	c0,0.1-0.1,0.2-0.2,0.3c-0.1,0.1-0.2,0.1-0.3,0.2C42.2,45.5,42.1,45.5,42,45.5z"/>
<path class="st1" d="M45.3,45.5c-0.2,0-0.3-0.1-0.5-0.1c-0.1-0.1-0.3-0.2-0.3-0.4c-0.1-0.2-0.1-0.3,0-0.5c0-0.2,0.1-0.3,0.2-0.4
	c0.1-0.1,0.3-0.2,0.4-0.2c0.2,0,0.3,0,0.5,0c0.2,0.1,0.3,0.2,0.4,0.3c0.1,0.1,0.1,0.3,0.1,0.5c0,0.1,0,0.2-0.1,0.3
	c0,0.1-0.1,0.2-0.2,0.3s-0.2,0.1-0.3,0.2C45.5,45.5,45.4,45.5,45.3,45.5z"/>
<path class="st1" d="M48.4,45.5c-0.2,0-0.3-0.1-0.5-0.1c-0.1-0.1-0.3-0.2-0.3-0.4c-0.1-0.2-0.1-0.3,0-0.5c0-0.2,0.1-0.3,0.2-0.4
	c0.1-0.1,0.3-0.2,0.4-0.2c0.2,0,0.3,0,0.5,0c0.2,0.1,0.3,0.2,0.4,0.3c0.1,0.1,0.1,0.3,0.1,0.5c0,0.1,0,0.2-0.1,0.3
	c0,0.1-0.1,0.2-0.2,0.3c-0.1,0.1-0.2,0.1-0.3,0.2C48.7,45.5,48.6,45.5,48.4,45.5z"/>
<path class="st1" d="M19.2,43.5c0,0.7,0.1,1.3,0.3,1.9c0.2,0.6,0.4,1.2,0.8,1.7c0.3,0.5,0.7,1,1.2,1.4c0.5,0.4,1,0.8,1.5,1l-3.2-8.9
	C19.4,41.6,19.2,42.6,19.2,43.5z"/>
<path class="st1" d="M24.9,50.2c-0.3,0-0.6-0.1-0.9-0.2l2-5.9l2.1,5.8C27.1,50.3,26,50.4,24.9,50.2z"/>
<path class="st1" d="M31.9,40.7c0,0.1,0,0.3,0,0.4c-0.1,0.6-0.2,1.2-0.4,1.8c-0.2,0.5-0.4,1-0.5,1.5c-0.1,0.2-0.2,0.5-0.3,1
	c-0.2,0.5-0.3,1-0.5,1.5c-0.2,0.5-0.3,1-0.5,1.5c-0.2,0.5-0.3,0.8-0.3,1c0.5-0.3,1-0.7,1.4-1.1c0.4-0.4,0.8-0.9,1.1-1.4
	c0.3-0.5,0.5-1.1,0.7-1.6c0.5-1.7,0.3-3.5-0.5-5C31.9,40.4,31.9,40.6,31.9,40.7z"/>
<path class="st1" d="M30.1,44.9c-0.1,0.3-0.2,0.6-0.3,1.1c-0.1,0.4-0.3,1-0.5,1.6l-2.4-7.3c0.1,0,0.2,0,0.4,0c0.1,0,0.3,0,0.4,0
	c0.2,0,0.3-0.1,0.3-0.3c0-0.1-0.1-0.1-0.1-0.2c-0.1,0-0.1-0.1-0.2-0.1c-0.7,0-1.2,0.1-1.5,0.1c-0.4,0-0.7,0-1.1,0l-0.7-0.1l-0.3,0
	c0,0-0.1,0-0.1,0s-0.1,0-0.1,0c-0.1,0-0.1,0.1-0.1,0.2c0,0,0,0.1,0,0.1c0,0,0,0.1,0,0.1c0,0.1,0.1,0.1,0.2,0.1c0,0,0.1,0,0.2,0
	c0.1,0,0.3,0,0.5,0.1l1.1,2.9l-1.5,4.4l-2.5-7.3c0.1,0,0.3,0,0.4,0c0.1,0,0.3,0,0.4,0c0.2,0,0.3-0.1,0.3-0.3c0-0.1-0.1-0.1-0.1-0.2
	c-0.1,0-0.1-0.1-0.2-0.1c-0.4,0.1-0.8,0.1-1.2,0.1c-0.4,0-0.7,0-1,0c0.6-0.9,1.4-1.7,2.4-2.2c1-0.6,2.1-0.8,3.2-0.8
	c0.9,0,1.7,0.2,2.5,0.5c0.8,0.3,1.5,0.8,2.1,1.3c-0.2,0-0.4,0-0.6,0.1c-0.2,0.1-0.4,0.3-0.5,0.5c-0.1,0.2-0.1,0.5-0.1,0.7
	c0,0.3,0.1,0.5,0.2,0.7c0.1,0.2,0.2,0.5,0.4,0.7c0.1,0.2,0.2,0.4,0.3,0.5c0.2,0.3,0.3,0.7,0.3,1c0,0.4,0,0.9-0.2,1.3
	C30.2,44.3,30.2,44.5,30.1,44.9z"/>
<path class="st2" d="M33.2,40.4c-0.4-1-1-1.8-1.7-2.5c-0.7-0.7-1.6-1.3-2.5-1.7c-1-0.4-2-0.6-3.1-0.6c-1.1,0-2.1,0.2-3.1,0.6
	c-1.9,0.8-3.4,2.3-4.2,4.3c-0.4,1-0.6,2-0.6,3.1c0,1.1,0.2,2.1,0.6,3.1c0.4,1,1,1.8,1.7,2.6c0.7,0.7,1.6,1.3,2.5,1.7
	c1,0.4,2,0.6,3.1,0.6c1.1,0,2.1-0.2,3.1-0.6c1.9-0.8,3.4-2.3,4.2-4.3c0.4-1,0.6-2,0.6-3.1S33.6,41.4,33.2,40.4L33.2,40.4z
	 M32.7,46.4c-0.8,1.8-2.2,3.2-3.9,4c-0.9,0.4-1.9,0.6-2.9,0.6c-1,0-2-0.2-2.9-0.6c-1.8-0.8-3.2-2.2-3.9-4c-0.4-0.9-0.6-1.9-0.6-2.9
	s0.2-2,0.6-2.9c0.4-0.9,0.9-1.7,1.6-2.4c0.7-0.7,1.5-1.2,2.3-1.6c0.9-0.4,1.9-0.6,2.9-0.6c1,0,2,0.2,2.9,0.6
	c0.9,0.4,1.7,0.9,2.3,1.6c0.7,0.7,1.2,1.5,1.6,2.4c0.4,0.9,0.6,1.9,0.6,2.9S33.1,45.5,32.7,46.4z"/>
</svg>
