<?xml version="1.0" encoding="utf-8"?>
<!-- Generator: Adobe Illustrator 25.2.1, SVG Export Plug-In . SVG Version: 6.00 Build 0)  -->
<svg version="1.1" id="Layer_1" xmlns="http://www.w3.org/2000/svg" xmlns:xlink="http://www.w3.org/1999/xlink" x="0px" y="0px"
	 viewBox="0 0 72 72" style="enable-background:new 0 0 72 72;" xml:space="preserve">
<style type="text/css">
	.st0{fill-rule:evenodd;clip-rule:evenodd;fill:url(#SVGID_1_);fill-opacity:0.25;}
	.st1{fill:#0073EC;}
	.st2{fill-rule:evenodd;clip-rule:evenodd;fill:#0073EC;}
</style>
<radialGradient id="SVGID_1_" cx="-253.3571" cy="591.8772" r="1" gradientTransform="matrix(8.572528e-16 14 14.25 -8.725609e-16 -8398 3583)" gradientUnits="userSpaceOnUse">
	<stop  offset="0" style="stop-color:#0073EC"/>
	<stop  offset="1" style="stop-color:#0073EC;stop-opacity:0"/>
</radialGradient>
<path class="st0" d="M31.5,26.8c0-2.6,2.1-4.8,4.8-4.8c2.6,0,4.8,2.1,4.8,4.8v0.1c0.6,0.2,1,0.7,1,1.4c0,2.9,0,3,0,3h6.3
	c0.4,0,0.9,0.2,1.2,0.5c0.3,0.3,0.5,0.7,0.5,1.2v5.6c0,1.6,0,2.9,0,4.4l0.5,5.6c0,0.4-0.2,0.9-0.5,1.2c-0.3,0.3-0.7,0.5-1.2,0.5
	H23.7c-0.4,0-0.9-0.2-1.2-0.5c-0.3-0.3-0.5-0.7-0.5-1.2c0-5.2,0-10.3,0-15.5c0-0.4,0.2-0.9,0.5-1.2s0.7-0.5,1.2-0.5h6.9
	c0,0,0,0.3,0-3C30.6,27.6,31,27.1,31.5,26.8L31.5,26.8z"/>
<path class="st1" d="M34.5,32c0-0.3-0.2-0.5-0.5-0.5s-0.5,0.2-0.5,0.5v2c0,0.3,0.2,0.5,0.5,0.5s0.5-0.2,0.5-0.5V32z"/>
<path class="st2" d="M36.5,21.5c-2.8,0-5,2.2-5,5v0.1c-0.6,0.2-1,0.8-1,1.4v7c0,0.8,0.7,1.5,1.5,1.5h9c0.8,0,1.5-0.7,1.5-1.5v-7
	c0-0.7-0.4-1.2-1-1.4v-0.1C41.5,23.7,39.3,21.5,36.5,21.5z M40.5,26.5c0-2.2-1.8-4-4-4s-4,1.8-4,4H40.5z M32,27.5
	c-0.3,0-0.5,0.2-0.5,0.5v1.5h6v6H41c0.3,0,0.5-0.2,0.5-0.5v-7c0-0.3-0.2-0.5-0.5-0.5H32z M31.5,35v-4.5h5v5H32
	C31.7,35.5,31.5,35.3,31.5,35z"/>
<path class="st1" d="M22,31.6c0.3-0.3,0.8-0.5,1.2-0.5H29c0.3,0,0.5,0.2,0.5,0.5s-0.2,0.5-0.5,0.5h-5.7c-0.2,0-0.4,0.1-0.5,0.2
	c-0.1,0.1-0.2,0.3-0.2,0.5v5.8c0,0.2,0.1,0.4,0.2,0.5c0.1,0.1,0.3,0.2,0.5,0.2h25.9c0.2,0,0.4-0.1,0.5-0.2c0.1-0.1,0.2-0.3,0.2-0.5
	v-5.8c0-0.2-0.1-0.4-0.2-0.5c-0.1-0.1-0.3-0.2-0.5-0.2H44c-0.3,0-0.5-0.2-0.5-0.5s0.2-0.5,0.5-0.5h5.2c0.5,0,0.9,0.2,1.2,0.5
	c0.3,0.3,0.5,0.8,0.5,1.2v5.8v0c0,0.5-0.2,0.9-0.5,1.2c-0.3,0.3-0.8,0.5-1.2,0.5h0H23.3h0c-0.5,0-0.9-0.2-1.2-0.5
	c-0.3-0.3-0.5-0.8-0.5-1.2v0v-5.8C21.5,32.4,21.7,32,22,31.6z"/>
<path class="st1" d="M39.5,46.9C39.7,47,39.8,47,40,47c0.1,0,0.2,0,0.3-0.1c0.1,0,0.2-0.1,0.3-0.2c0.1-0.1,0.1-0.2,0.2-0.3
	c0-0.1,0.1-0.2,0.1-0.3c0-0.2-0.1-0.3-0.1-0.5c-0.1-0.1-0.2-0.3-0.4-0.3c-0.2-0.1-0.3-0.1-0.5,0c-0.2,0-0.3,0.1-0.4,0.2
	c-0.1,0.1-0.2,0.3-0.2,0.4c0,0.2,0,0.3,0,0.5C39.3,46.7,39.4,46.8,39.5,46.9z"/>
<path class="st1" d="M42.8,46.9C43,47,43.1,47,43.3,47c0.1,0,0.2,0,0.3-0.1c0.1,0,0.2-0.1,0.3-0.2s0.1-0.2,0.2-0.3
	c0-0.1,0.1-0.2,0.1-0.3c0-0.2-0.1-0.3-0.1-0.5c-0.1-0.1-0.2-0.3-0.4-0.3c-0.2-0.1-0.3-0.1-0.5,0c-0.2,0-0.3,0.1-0.4,0.2
	c-0.1,0.1-0.2,0.3-0.2,0.4c0,0.2,0,0.3,0,0.5C42.6,46.6,42.7,46.8,42.8,46.9z"/>
<path class="st1" d="M46,46.9c0.1,0.1,0.3,0.1,0.5,0.1c0.1,0,0.2,0,0.3-0.1c0.1,0,0.2-0.1,0.3-0.2c0.1-0.1,0.1-0.2,0.2-0.3
	c0-0.1,0.1-0.2,0.1-0.3c0-0.2-0.1-0.3-0.1-0.5c-0.1-0.1-0.2-0.3-0.4-0.3c-0.2-0.1-0.3-0.1-0.5,0c-0.2,0-0.3,0.1-0.4,0.2
	c-0.1,0.1-0.2,0.3-0.2,0.4c0,0.2,0,0.3,0,0.5C45.7,46.6,45.8,46.8,46,46.9z"/>
<path class="st2" d="M22,42c0.3-0.3,0.8-0.5,1.2-0.5h25.9c0.5,0,0.9,0.2,1.2,0.5c0.3,0.3,0.5,0.8,0.5,1.2v5.8c0,0.5-0.2,0.9-0.5,1.2
	c-0.3,0.3-0.8,0.5-1.2,0.5H23.3c-0.5,0-0.9-0.2-1.2-0.5c-0.3-0.3-0.5-0.8-0.5-1.2v-5.8C21.5,42.8,21.7,42.3,22,42z M23.3,42.5
	c-0.2,0-0.4,0.1-0.5,0.2c-0.1,0.1-0.2,0.3-0.2,0.5v5.8c0,0.2,0.1,0.4,0.2,0.5c0.1,0.1,0.3,0.2,0.5,0.2h25.9c0.2,0,0.4-0.1,0.5-0.2
	c0.1-0.1,0.2-0.3,0.2-0.5v-5.8c0-0.2-0.1-0.4-0.2-0.5c-0.1-0.1-0.3-0.2-0.5-0.2H23.3z"/>
</svg>
