<?xml version="1.0" encoding="utf-8"?>
<!-- Generator: Adobe Illustrator 25.2.1, SVG Export Plug-In . SVG Version: 6.00 Build 0)  -->
<svg version="1.1" id="Layer_1" xmlns="http://www.w3.org/2000/svg" xmlns:xlink="http://www.w3.org/1999/xlink" x="0px" y="0px"
	 viewBox="0 0 72 72" style="enable-background:new 0 0 72 72;" xml:space="preserve">
<style type="text/css">
	.st0{fill:url(#SVGID_1_);fill-opacity:0.25;}
	.st1{fill:#0073EC;}
</style>
<radialGradient id="SVGID_1_" cx="-252.1538" cy="593.6923" r="1" gradientTransform="matrix(7.960204e-16 13 13 -7.960204e-16 -7682 3314)" gradientUnits="userSpaceOnUse">
	<stop  offset="0" style="stop-color:#0073EC"/>
	<stop  offset="1" style="stop-color:#0073EC;stop-opacity:0"/>
</radialGradient>
<path class="st0" d="M23,23h26v22h-2v4h-4v-4h-2v4h-3v-4H23V23z"/>
<path class="st1" d="M23.4,44V28.3h25.2V44c0,0.1-0.1,0.3-0.2,0.4c0,0-0.1,0.1-0.2,0.1c-0.1,0-0.1,0-0.2,0h-1v0.8h1.1
	c0.2,0,0.4,0,0.5-0.1c0.2-0.1,0.3-0.2,0.4-0.3c0.2-0.3,0.4-0.6,0.4-1V24c0-0.4-0.1-0.7-0.4-1c-0.1-0.1-0.3-0.2-0.4-0.3
	c-0.2-0.1-0.3-0.1-0.5-0.1H23.9c-0.2,0-0.4,0-0.5,0.1c-0.1,0.1-0.3,0.2-0.4,0.3c-0.3,0.3-0.4,0.6-0.4,1v20c0,0.4,0.1,0.7,0.4,1
	c0.1,0.1,0.3,0.2,0.4,0.3c0.2,0.1,0.3,0.1,0.5,0.1H36c0.2,0,0.4-0.2,0.4-0.4s-0.2-0.4-0.4-0.4H23.9c-0.1,0-0.1,0-0.2,0
	c-0.1,0-0.1-0.1-0.2-0.1C23.5,44.3,23.4,44.1,23.4,44z M23.4,27.5V24c0-0.1,0.1-0.3,0.2-0.4c0,0,0.1-0.1,0.2-0.1c0.1,0,0.1,0,0.2,0
	h24.2c0.1,0,0.1,0,0.2,0c0.1,0,0.1,0.1,0.2,0.1c0.1,0.1,0.2,0.2,0.2,0.4v3.5H23.4z"/>
<path class="st1" d="M35.6,32.3c0-0.4-0.3-0.8-0.7-0.8h-8.3c-0.4,0-0.7,0.3-0.7,0.8v6.6c0,0.4,0.3,0.8,0.7,0.8h8.3
	c0.4,0,0.7-0.3,0.7-0.8V32.3z M26.7,38.8v-6.5h8.2v6.5H26.7z"/>
<path class="st1" d="M42.9,49.3H47V31.5h-4.1V49.3z M43.7,45.3h1.2c0.2,0,0.4-0.2,0.4-0.4c0-0.2-0.2-0.4-0.4-0.4h-1.2v-1.6h1.2
	c0.2,0,0.4-0.2,0.4-0.4s-0.2-0.4-0.4-0.4h-1.2v-1.6h1.2c0.2,0,0.4-0.2,0.4-0.4c0-0.2-0.2-0.4-0.4-0.4h-1.2V38h1.2
	c0.2,0,0.4-0.2,0.4-0.4c0-0.2-0.2-0.4-0.4-0.4h-1.2v-1.6h1.2c0.2,0,0.4-0.2,0.4-0.4s-0.2-0.4-0.4-0.4h-1.2v-2.4h2.4v16.2h-2.4V45.3z
	"/>
<path class="st1" d="M28.3,25.3c-0.3-0.1-0.7,0-0.8,0.3c-0.1,0.3,0,0.7,0.3,0.8c0.3,0.1,0.7,0,0.8-0.3
	C28.7,25.8,28.6,25.4,28.3,25.3z"/>
<path class="st1" d="M25.8,26.4c0.3,0,0.6-0.3,0.6-0.6c0-0.3-0.3-0.6-0.6-0.6c-0.3,0-0.6,0.3-0.6,0.6C25.2,26.1,25.5,26.4,25.8,26.4
	z"/>
<path class="st1" d="M30.3,26.4c0.3,0,0.6-0.3,0.6-0.6c0-0.3-0.3-0.6-0.6-0.6c-0.3,0-0.6,0.3-0.6,0.6C29.7,26.1,30,26.4,30.3,26.4z"
	/>
<path class="st1" d="M40.9,33.7L40,31.5c-0.1-0.2-0.3-0.4-0.6-0.4c-0.3,0-0.5,0.2-0.6,0.4L38,33.7c-0.2,0.2-0.3,0.4-0.3,0.7v14.4
	c0,0.5,0.4,0.8,0.9,0.8h2c0.5,0,0.8-0.4,0.8-0.8V34.4C41.3,34.1,41.1,33.9,40.9,33.7z M40.6,34.4V47h-0.8V34.2h0.6
	C40.5,34.2,40.6,34.3,40.6,34.4z M39.5,31.8l0.7,1.7h-1.4L39.5,31.8z M38.3,47V34.4c0-0.1,0.1-0.2,0.2-0.2h0.6V47H38.3z M40.6,48.9
	c0,0.1-0.1,0.2-0.2,0.2h-1.8c-0.1,0-0.2-0.1-0.2-0.2v-1.1h2.2V48.9z"/>
<path class="st1" d="M35.2,41.6h-9c-0.2,0-0.4-0.2-0.4-0.4s0.2-0.4,0.4-0.4h9c0.2,0,0.4,0.2,0.4,0.4S35.4,41.6,35.2,41.6z"/>
</svg>
