<?xml version="1.0" encoding="utf-8"?>
<!-- Generator: Adobe Illustrator 25.2.1, SVG Export Plug-In . SVG Version: 6.00 Build 0)  -->
<svg version="1.1" id="Layer_1" xmlns="http://www.w3.org/2000/svg" xmlns:xlink="http://www.w3.org/1999/xlink" x="0px" y="0px"
	 viewBox="0 0 72 72" style="enable-background:new 0 0 72 72;" xml:space="preserve">
<style type="text/css">
	.st0{fill-rule:evenodd;clip-rule:evenodd;fill:url(#SVGID_1_);fill-opacity:0.25;}
	.st1{fill:#0073EC;}
	.st2{fill-rule:evenodd;clip-rule:evenodd;fill:#0073EC;}
</style>
<radialGradient id="SVGID_1_" cx="-255.3125" cy="589.7877" r="1" gradientTransform="matrix(9.797175e-16 16 16.0237 -9.811688e-16 -9414.5566 4121)" gradientUnits="userSpaceOnUse">
	<stop  offset="0" style="stop-color:#0073EC"/>
	<stop  offset="1" style="stop-color:#0073EC;stop-opacity:0"/>
</radialGradient>
<path class="st0" d="M39.2,25.6h11.6c0.3,0,0.6,0.1,0.8,0.4c0.2,0.2,0.4,0.6,0.4,0.9c0,8,0,15.9,0,23.9c0,0.3-0.1,0.7-0.4,0.9
	c-0.2,0.2-0.5,0.4-0.8,0.4H26.1c-0.3,0-0.6-0.1-0.8-0.4c-0.2-0.2-0.4-0.6-0.4-0.9c0-6.9,0-13.8,0-20.7h-3.1c-0.5,0-0.9-0.2-1.3-0.6
	c-0.3-0.4-0.5-0.8-0.5-1.3v-6.3c0-0.2,0-0.5,0.1-0.7c0.1-0.2,0.2-0.4,0.4-0.6c0.2-0.2,0.4-0.3,0.6-0.4c0.2-0.1,0.4-0.1,0.7-0.1h15.7
	c0.5,0,0.9,0.2,1.3,0.6c0.3,0.4,0.5,0.8,0.5,1.3V25.6z"/>
<path class="st1" d="M35.2,26.2c0.1,0.3,0.3,0.5,0.5,0.5s0.4,0,0.6-0.3c0.3-0.3,0.5-0.7,0.6-1.2c0-0.2,0.1-0.4,0.1-0.6
	c0-0.3,0-0.5-0.1-0.7c-0.1-0.3-0.3-0.5-0.5-0.5c-0.3-0.1-0.6,0.1-0.8,0.5c-0.2,0.3-0.3,0.6-0.4,1c0,0.2-0.1,0.4-0.1,0.6
	C35.1,25.7,35.1,26,35.2,26.2z"/>
<path class="st1" d="M30.8,26.7c-0.2,0-0.3-0.2-0.5-0.5c-0.1-0.2-0.1-0.5-0.1-0.7c0-0.2,0-0.4,0.1-0.6c0.1-0.4,0.2-0.7,0.4-1
	c0.3-0.4,0.5-0.6,0.8-0.5c0.2,0,0.3,0.2,0.5,0.5c0.1,0.2,0.1,0.5,0.1,0.7c0,0.2,0,0.4-0.1,0.6c-0.1,0.5-0.3,0.9-0.6,1.2
	C31.2,26.7,31,26.8,30.8,26.7z"/>
<path class="st1" d="M48.3,30.6c0.5,0,0.8-0.4,0.8-0.9c0-0.5-0.4-0.9-0.8-0.9c-0.5,0-0.8,0.4-0.8,0.9C47.4,30.2,47.8,30.6,48.3,30.6
	z"/>
<path class="st1" d="M42.1,30.6c0.5,0,0.8-0.4,0.8-0.9c0-0.5-0.4-0.9-0.8-0.9c-0.5,0-0.8,0.4-0.8,0.9C41.3,30.2,41.7,30.6,42.1,30.6
	z"/>
<path class="st1" d="M45.6,29c0.4,0.2,0.6,0.7,0.4,1.1c-0.2,0.4-0.7,0.6-1.1,0.5c-0.4-0.2-0.6-0.7-0.4-1.1
	C44.7,29,45.2,28.8,45.6,29z"/>
<path class="st2" d="M39.2,25.6h11.6c0.3,0,0.6,0.1,0.8,0.4c0.2,0.2,0.4,0.6,0.4,0.9v5.8c0,0.3-0.1,0.7-0.4,0.9
	c-0.2,0.2-0.5,0.4-0.8,0.4H26.1c-0.3,0-0.6-0.1-0.8-0.4c-0.2-0.2-0.4-0.6-0.4-0.9V30h-3.1c-0.5,0-0.9-0.2-1.3-0.6
	c-0.3-0.4-0.5-0.8-0.5-1.3v-6.3c0-0.2,0-0.5,0.1-0.7c0.1-0.2,0.2-0.4,0.4-0.6c0.2-0.2,0.4-0.3,0.6-0.4c0.2-0.1,0.4-0.1,0.7-0.1h15.7
	c0.5,0,0.9,0.2,1.3,0.6c0.3,0.4,0.5,0.8,0.5,1.3V25.6z M36.2,22c-0.7,0-1.4,0.4-1.8,1.2c-0.4,0.7-0.6,1.5-0.6,2.3
	c0,0.6,0.1,1.2,0.4,1.6c0.1,0.2,0.3,0.5,0.5,0.6c0.2,0.2,0.5,0.3,0.7,0.3c0.1,0,0.3,0,0.4,0c0.8,0,1.4-0.4,1.8-1.2
	c0.4-0.7,0.6-1.5,0.6-2.3c0-0.6-0.1-1.2-0.4-1.6c-0.1-0.2-0.3-0.5-0.5-0.6c-0.2-0.2-0.5-0.3-0.7-0.3C36.5,22,36.4,22,36.2,22z
	 M31.8,22c-0.1,0-0.3,0-0.4,0c-0.7,0-1.4,0.4-1.8,1.2c-0.4,0.7-0.6,1.5-0.6,2.3c0,0.6,0.1,1.2,0.4,1.6c0.1,0.2,0.3,0.5,0.5,0.6
	c0.2,0.2,0.5,0.3,0.7,0.3c0.1,0,0.3,0,0.4,0c0.8,0,1.4-0.4,1.8-1.2c0.4-0.7,0.6-1.5,0.6-2.3c0-0.6-0.1-1.2-0.4-1.6
	c-0.1-0.2-0.3-0.5-0.5-0.6C32.3,22.2,32,22.1,31.8,22z M22.3,28.5c0.2,0.4,0.3,0.6,0.5,0.6c0.3,0,0.7-0.5,1.2-1.4
	c0.2-0.5,0.6-1.3,1.1-2.4c0.4,1.5,1,2.7,1.7,3.5c0.2,0.2,0.4,0.3,0.6,0.3c0.1,0,0.2,0,0.2-0.1c0.1-0.1,0.1-0.1,0.2-0.2
	c0.1-0.2,0.1-0.4,0.1-0.5c-0.1-0.7,0-1.8,0.2-3.1c0.2-1.4,0.5-2.4,0.8-3C29,22,29,21.9,29,21.7c0-0.1,0-0.2-0.1-0.3
	c0-0.1-0.1-0.1-0.2-0.2c-0.1-0.1-0.1-0.1-0.2-0.1c-0.1,0-0.2,0-0.3,0c-0.1,0-0.2,0-0.3,0.1c-0.1,0.1-0.2,0.2-0.2,0.3
	c-0.5,0.9-0.8,2.4-1,4.5c-0.3-0.8-0.5-1.7-0.7-2.8c-0.1-0.5-0.3-0.7-0.6-0.7c-0.2,0-0.4,0.2-0.6,0.5l-1.7,3.4
	c-0.3-1.2-0.6-2.6-0.8-4.3c-0.1-0.4-0.3-0.6-0.7-0.6c-0.2,0-0.4,0.1-0.5,0.3C21,21.8,21,21.9,21,22c0,0.1,0,0.2,0,0.3
	C21.4,25.3,21.9,27.4,22.3,28.5z M51.1,32.9c0.1-0.1,0.1-0.1,0.1-0.2v-5.8c0-0.1,0-0.2-0.1-0.2c-0.1-0.1-0.1-0.1-0.2-0.1H39.2v1.6
	c0,0.5-0.2,1-0.5,1.3c-0.3,0.4-0.8,0.6-1.3,0.6h-5.6l0.8,2l-3.4-2h-3.4v2.6c0,0.1,0,0.2,0.1,0.2c0.1,0.1,0.1,0.1,0.2,0.1h24.7
	C50.9,33,51,32.9,51.1,32.9z"/>
<path class="st1" d="M47.8,38.1c0.1-0.1,0.3-0.1,0.5-0.1c0.1,0,0.2,0,0.3,0.1c0.1,0,0.2,0.1,0.3,0.2s0.1,0.2,0.2,0.3
	c0,0.1,0.1,0.2,0.1,0.3c0,0.2,0,0.3-0.1,0.5c-0.1,0.1-0.2,0.3-0.4,0.3c-0.2,0.1-0.3,0.1-0.5,0c-0.2,0-0.3-0.1-0.4-0.2
	c-0.1-0.1-0.2-0.3-0.2-0.4s0-0.3,0-0.5C47.6,38.3,47.7,38.2,47.8,38.1z"/>
<path class="st1" d="M45.3,37.9c-0.2,0-0.3,0.1-0.5,0.1c-0.1,0.1-0.2,0.2-0.3,0.4c-0.1,0.2-0.1,0.3,0,0.5c0,0.2,0.1,0.3,0.2,0.4
	c0.1,0.1,0.3,0.2,0.4,0.2c0.2,0,0.3,0,0.5,0c0.2-0.1,0.3-0.2,0.4-0.3c0.1-0.1,0.1-0.3,0.1-0.5c0-0.1,0-0.2-0.1-0.3
	c0-0.1-0.1-0.2-0.2-0.3c-0.1-0.1-0.2-0.1-0.3-0.2C45.5,38,45.4,37.9,45.3,37.9z"/>
<path class="st1" d="M41.7,38.1c0.1-0.1,0.3-0.1,0.5-0.1c0.1,0,0.2,0,0.3,0.1c0.1,0,0.2,0.1,0.3,0.2c0.1,0.1,0.1,0.2,0.2,0.3
	c0,0.1,0.1,0.2,0.1,0.3c0,0.2,0,0.3-0.1,0.5c-0.1,0.1-0.2,0.3-0.4,0.3c-0.2,0.1-0.3,0.1-0.5,0c-0.2,0-0.3-0.1-0.4-0.2
	c-0.1-0.1-0.2-0.3-0.2-0.4s0-0.3,0-0.5S41.5,38.2,41.7,38.1z"/>
<path class="st2" d="M26.1,34.6h24.7c0.3,0,0.6,0.1,0.8,0.4c0.2,0.2,0.4,0.6,0.4,0.9v5.8c0,0.3-0.1,0.7-0.4,0.9
	c-0.2,0.2-0.5,0.4-0.8,0.4H26.1c-0.3,0-0.6-0.1-0.8-0.4c-0.2-0.2-0.4-0.6-0.4-0.9v-5.8c0-0.3,0.1-0.7,0.4-0.9
	C25.5,34.8,25.8,34.6,26.1,34.6z M51.1,41.9c0.1-0.1,0.1-0.1,0.1-0.2v-5.8c0-0.1,0-0.2-0.1-0.2c-0.1-0.1-0.1-0.1-0.2-0.1H26.1
	c-0.1,0-0.2,0-0.2,0.1c-0.1,0.1-0.1,0.1-0.1,0.2v5.8c0,0.1,0,0.2,0.1,0.2C26,42,26.1,42,26.1,42h24.7C50.9,42,51,42,51.1,41.9z"/>
<path class="st1" d="M45.6,47c-0.4-0.2-0.9,0-1.1,0.5c-0.2,0.4,0,0.9,0.4,1.1c0.4,0.2,0.9,0,1.1-0.5C46.2,47.7,46,47.2,45.6,47z"/>
<path class="st1" d="M42.9,47.8c0,0.5-0.4,0.9-0.8,0.9c-0.5,0-0.8-0.4-0.8-0.9c0-0.5,0.4-0.9,0.8-0.9C42.6,47,42.9,47.4,42.9,47.8z"
	/>
<path class="st1" d="M49.1,47.8c0,0.5-0.4,0.9-0.8,0.9c-0.5,0-0.8-0.4-0.8-0.9c0-0.5,0.4-0.9,0.8-0.9C48.7,47,49.1,47.4,49.1,47.8z"
	/>
<path class="st2" d="M50.9,43.7H26.1c-0.3,0-0.6,0.1-0.8,0.4c-0.2,0.2-0.4,0.6-0.4,0.9v5.8c0,0.3,0.1,0.7,0.4,0.9
	c0.2,0.2,0.5,0.4,0.8,0.4h24.7c0.3,0,0.6-0.1,0.8-0.4c0.2-0.2,0.4-0.6,0.4-0.9v-5.8c0-0.3-0.1-0.7-0.4-0.9
	C51.5,43.8,51.2,43.7,50.9,43.7z M51.2,50.7c0,0.1,0,0.2-0.1,0.2c-0.1,0.1-0.1,0.1-0.2,0.1H26.1c-0.1,0-0.2,0-0.2-0.1
	c-0.1-0.1-0.1-0.1-0.1-0.2v-5.8c0-0.1,0-0.2,0.1-0.2c0.1-0.1,0.1-0.1,0.2-0.1h24.7c0.1,0,0.2,0,0.2,0.1c0.1,0.1,0.1,0.1,0.1,0.2
	V50.7z"/>
</svg>
