<?xml version="1.0" encoding="utf-8"?>
<!-- Generator: Adobe Illustrator 25.2.1, SVG Export Plug-In . SVG Version: 6.00 Build 0)  -->
<svg version="1.1" id="Layer_1" xmlns="http://www.w3.org/2000/svg" xmlns:xlink="http://www.w3.org/1999/xlink" x="0px" y="0px"
	 viewBox="0 0 72 72" style="enable-background:new 0 0 72 72;" xml:space="preserve">
<style type="text/css">
	.st0{fill-rule:evenodd;clip-rule:evenodd;fill:url(#SVGID_1_);fill-opacity:0.25;}
	.st1{fill:#0073EC;}
</style>
<radialGradient id="SVGID_1_" cx="-250.4241" cy="592.2143" r="1" gradientTransform="matrix(7.218987e-16 11.7895 14 -8.572528e-16 -8255 2988.165)" gradientUnits="userSpaceOnUse">
	<stop  offset="0" style="stop-color:#0073EC"/>
	<stop  offset="1" style="stop-color:#0073EC;stop-opacity:0"/>
</radialGradient>
<path class="st0" d="M22,24.4c0-0.1,0-0.1,0-0.2c0-0.1,0.1-0.1,0.1-0.1c0,0,0.1-0.1,0.1-0.1c0.1,0,0.1,0,0.2,0h25.2
	c0.1,0,0.1,0,0.2,0c0.1,0,0.1,0.1,0.1,0.1c0,0,0.1,0.1,0.1,0.1c0,0.1,0,0.1,0,0.2l0.1,8.9c0,0,0,0.1,0,0.1h0.3c0.4,0,0.8,0.2,1,0.4
	s0.4,0.6,0.4,1v0.3c0,0,0,0.1,0,0.1c0,0.1,0.1,0.3,0.1,0.4v6.3c0,0.1,0,0.2,0,0.3v0.3c0,0.4-0.2,0.8-0.4,1c-0.3,0.3-0.6,0.4-1,0.4
	h-0.3l-0.1,3c0,0.1,0,0.1,0,0.2c0,0.1-0.1,0.1-0.1,0.1c0,0-0.1,0.1-0.1,0.1c-0.1,0-0.1,0-0.2,0H22.4c-0.1,0-0.2,0-0.3-0.1
	c-0.1-0.1-0.1-0.2-0.1-0.3v-3.6h0L22,24.4z"/>
<path class="st1" d="M26.9,25.6c-0.1,0-0.2,0-0.2,0.1s-0.1,0.1-0.2,0.2c0,0.1,0,0.2,0,0.3s0.1,0.2,0.1,0.2c0.1,0.1,0.1,0.1,0.2,0.1
	c0.1,0,0.2,0,0.3,0c0.1,0,0.1-0.1,0.2-0.2c0-0.1,0.1-0.2,0.1-0.2c0-0.1,0-0.2-0.1-0.3C27.1,25.7,27,25.6,26.9,25.6z"/>
<path class="st1" d="M29.2,25.6c-0.1,0-0.1,0-0.2,0c-0.1,0-0.1,0.1-0.1,0.1c0,0-0.1,0.1-0.1,0.1c0,0.1,0,0.1,0,0.2
	c0,0.1,0,0.2,0.1,0.2c0,0.1,0.1,0.1,0.2,0.2c0.1,0,0.2,0,0.3,0s0.2-0.1,0.2-0.1c0.1-0.1,0.1-0.1,0.1-0.2c0-0.1,0-0.2,0-0.3
	c0-0.1-0.1-0.1-0.2-0.2C29.4,25.7,29.3,25.6,29.2,25.6z"/>
<path class="st1" d="M24.6,25.6c-0.1,0-0.1,0-0.2,0c-0.1,0-0.1,0.1-0.1,0.1c0,0-0.1,0.1-0.1,0.1c0,0.1,0,0.1,0,0.2
	c0,0.1,0,0.2,0.1,0.2c0,0.1,0.1,0.1,0.2,0.2s0.2,0,0.3,0c0.1,0,0.2-0.1,0.2-0.1c0.1-0.1,0.1-0.1,0.1-0.2c0-0.1,0-0.2,0-0.3
	c0-0.1-0.1-0.1-0.2-0.2C24.8,25.7,24.7,25.6,24.6,25.6z"/>
<path class="st1" d="M22.4,41.5c0.1,0,0.1,0,0.2,0c0.1,0,0.1,0,0.2-0.1c0,0,0.1-0.1,0.1-0.1c0-0.1,0-0.1,0-0.2V28.2h24.4v4.3
	c0,0.1,0,0.2,0.1,0.3c0.1,0.1,0.2,0.1,0.3,0.1c0.1,0,0.1,0,0.2,0c0.1,0,0.1,0,0.1-0.1c0,0,0.1-0.1,0.1-0.1c0-0.1,0-0.1,0-0.2l0-8
	c0-0.1,0-0.1,0-0.2c0-0.1-0.1-0.1-0.1-0.1c0,0-0.1-0.1-0.1-0.1c-0.1,0-0.1,0-0.2,0H22.4c-0.1,0-0.1,0-0.2,0c-0.1,0-0.1,0.1-0.1,0.1
	c0,0-0.1,0.1-0.1,0.1c0,0.1,0,0.1,0,0.2V41c0,0.1,0,0.2,0.1,0.3C22.2,41.4,22.3,41.5,22.4,41.5z M31.8,24.8h15.4v2.5H31.8V24.8z
	 M22.8,24.8H31v2.5h-8.2L22.8,24.8z"/>
<path class="st1" d="M35,41.6H25c0,0-0.1,0-0.1,0c0,0-0.1,0-0.1,0.1c0,0-0.1,0.1-0.1,0.1c0,0,0,0.1,0,0.1s0,0.1,0,0.1
	c0,0,0,0.1,0.1,0.1c0,0,0.1,0.1,0.1,0.1c0,0,0.1,0,0.1,0H35c0,0,0.1,0,0.1,0c0,0,0.1,0,0.1-0.1c0,0,0.1-0.1,0.1-0.1c0,0,0-0.1,0-0.1
	s0-0.1,0-0.1c0,0,0-0.1-0.1-0.1c0,0-0.1-0.1-0.1-0.1C35.1,41.6,35.1,41.6,35,41.6z"/>
<path class="st1" d="M35,43.9H25c-0.1,0-0.2,0-0.3,0.1s-0.1,0.2-0.1,0.3s0,0.2,0.1,0.3c0.1,0.1,0.2,0.1,0.3,0.1H35
	c0.1,0,0.2,0,0.3-0.1c0.1-0.1,0.1-0.2,0.1-0.3s0-0.2-0.1-0.3S35.1,43.9,35,43.9z"/>
<path class="st1" d="M41.3,41.8c0,0.1,0,0.1,0,0.2c0,0,0,0.1,0.1,0.1c0,0,0.1,0.1,0.1,0.1c0,0,0.1,0,0.2,0H46c0.1,0,0.1,0,0.2,0
	c0,0,0.1,0,0.1-0.1c0,0,0.1-0.1,0.1-0.1c0,0,0-0.1,0-0.2v-2.1c0-0.1,0-0.1,0-0.2c0,0,0-0.1-0.1-0.1s-0.1-0.1-0.1-0.1
	c0,0-0.1,0-0.2,0h-4.3c-0.1,0-0.1,0-0.2,0c0,0-0.1,0-0.1,0.1s-0.1,0.1-0.1,0.1c0,0,0,0.1,0,0.2V41.8z"/>
<path class="st1" d="M44.3,38.3c0.1,0,0.2,0,0.2-0.1c0.1-0.1,0.1-0.2,0.1-0.2v-2.2c0-0.1,0-0.2-0.1-0.2c-0.1-0.1-0.2-0.1-0.2-0.1
	h-2.7c0,0-0.1,0-0.1,0c0,0-0.1,0-0.1,0.1c0,0-0.1,0.1-0.1,0.1c0,0,0,0.1,0,0.1v2.2c0,0.1,0,0.2,0.1,0.2c0.1,0.1,0.2,0.1,0.2,0.1
	H44.3z"/>
<path class="st1" d="M49.6,35.6c0.1,0,0.2,0,0.3-0.1c0.1-0.1,0.1-0.2,0.1-0.3v-0.3c0-0.4-0.2-0.8-0.4-1s-0.6-0.4-1-0.4h-7.8
	c-0.4,0-0.8,0.2-1,0.4c-0.3,0.3-0.4,0.6-0.4,1v7.8c0,0.4,0.2,0.8,0.4,1c0.3,0.3,0.6,0.4,1,0.4h7.8c0.4,0,0.8-0.2,1-0.4
	c0.3-0.3,0.4-0.6,0.4-1v-3.8c0-0.4-0.2-0.8-0.4-1c-0.3-0.3-0.6-0.4-1-0.4h-1.6c-0.1,0-0.1,0-0.2,0c0,0-0.1,0-0.1,0.1
	c0,0-0.1,0.1-0.1,0.1c0,0,0,0.1,0,0.2c0,0.1,0,0.1,0,0.2c0,0,0.1,0.1,0.1,0.1c0,0,0.1,0.1,0.1,0.1c0,0,0.1,0,0.2,0h1.6
	c0.1,0,0.2,0,0.3,0.1c0.1,0,0.2,0.1,0.2,0.1c0.1,0.1,0.1,0.1,0.1,0.2c0,0.1,0.1,0.2,0.1,0.3v3.8c0,0.2-0.1,0.4-0.2,0.5
	c-0.1,0.1-0.3,0.2-0.5,0.2h-7.8c-0.2,0-0.4-0.1-0.5-0.2C40,43,40,42.9,40,42.7v-7.8c0-0.2,0.1-0.4,0.2-0.5s0.3-0.2,0.5-0.2h7.8
	c0.2,0,0.4,0.1,0.5,0.2c0.1,0.1,0.2,0.3,0.2,0.5v0.3c0,0.1,0,0.2,0.1,0.3S49.5,35.6,49.6,35.6z"/>
<path class="st1" d="M47.6,45.2c-0.1,0-0.2,0.1-0.3,0.1c-0.1,0.1-0.1,0.2-0.1,0.3v1.1H22.8v-4c0-0.1,0-0.2-0.1-0.3
	c-0.1-0.1-0.2-0.1-0.3-0.1c-0.1,0-0.1,0-0.2,0c-0.1,0-0.1,0-0.2,0.1c0,0-0.1,0.1-0.1,0.1c0,0.1,0,0.1,0,0.2v4.4c0,0.1,0,0.2,0.1,0.3
	c0.1,0.1,0.2,0.1,0.3,0.1h25.2c0.1,0,0.1,0,0.2,0c0.1,0,0.1-0.1,0.1-0.1c0,0,0.1-0.1,0.1-0.1c0-0.1,0-0.1,0-0.2v-1.5
	c0-0.1,0-0.1,0-0.2c0-0.1-0.1-0.1-0.1-0.1c0,0-0.1-0.1-0.2-0.1C47.7,45.2,47.7,45.2,47.6,45.2z"/>
<path class="st1" d="M32.6,36.7c0.1-0.3,0.2-0.5,0.2-0.7c0.1-0.2,0.1-0.4,0.2-0.5c0.1-0.3,0.1-0.6,0.1-0.9c0-0.2-0.1-0.5-0.2-0.7
	c-0.1-0.1-0.1-0.3-0.2-0.4c-0.1-0.2-0.2-0.3-0.3-0.5c-0.1-0.2-0.1-0.3-0.2-0.5c0-0.2,0-0.3,0.1-0.5c0.1-0.2,0.2-0.3,0.4-0.4
	c0.1-0.1,0.3-0.1,0.4-0.1c-0.4-0.4-0.9-0.7-1.4-0.9c-0.6-0.3-1.3-0.4-2-0.3c-0.7,0-1.4,0.2-2,0.6c-0.7,0.4-1.2,0.9-1.7,1.5
	c0.2,0,0.4,0,0.7,0c0.3,0,0.6,0,0.8-0.1c0.1,0,0.1,0,0.1,0.1c0,0,0.1,0.1,0.1,0.1c0,0.1,0,0.2-0.2,0.2c-0.1,0-0.2,0-0.3,0
	c-0.1,0-0.2,0-0.3,0l1.7,5l1-3l-0.7-2c-0.2,0-0.3,0-0.4,0c-0.1,0-0.1,0-0.1,0c0,0-0.1,0-0.1-0.1c0,0,0,0,0-0.1c0,0,0,0,0-0.1
	c0,0,0-0.1,0.1-0.1c0,0,0,0,0.1,0c0,0,0,0,0.1,0l0.2,0l0.5,0c0.3,0,0.5,0,0.8,0c0.2,0,0.5-0.1,1-0.1c0.1,0,0.1,0,0.1,0.1
	c0,0,0.1,0.1,0.1,0.1c0,0.1,0,0.2-0.2,0.2c-0.1,0-0.2,0-0.3,0c-0.1,0-0.2,0-0.3,0l1.7,5C32.4,37.4,32.5,37,32.6,36.7z"/>
<path class="st1" d="M28.6,39.5c0.2,0.1,0.4,0.1,0.6,0.1c0.7,0.1,1.5,0,2.2-0.2l-1.5-4L28.6,39.5z"/>
<path class="st1" d="M35,32.9c-0.3-0.7-0.7-1.2-1.2-1.7c-0.5-0.5-1.1-0.9-1.8-1.2c-0.7-0.3-1.4-0.4-2.1-0.4c-0.7,0-1.5,0.1-2.1,0.4
	c-1.3,0.6-2.4,1.6-2.9,2.9c-0.3,0.7-0.4,1.4-0.4,2.1c0,0.7,0.1,1.5,0.4,2.1c0.3,0.7,0.7,1.2,1.2,1.8c0.5,0.5,1.1,0.9,1.7,1.2
	c0.7,0.3,1.4,0.4,2.1,0.4c0.7,0,1.5-0.1,2.1-0.4c1.3-0.6,2.4-1.6,2.9-2.9c0.3-0.7,0.4-1.4,0.4-2.1C35.4,34.3,35.3,33.6,35,32.9
	L35,32.9z M34.6,37c-0.5,1.2-1.5,2.2-2.7,2.7c-0.6,0.3-1.3,0.4-2,0.4c-0.7,0-1.4-0.1-2-0.4c-1.2-0.5-2.2-1.5-2.7-2.7
	c-0.3-0.6-0.4-1.3-0.4-2c0-0.7,0.1-1.4,0.4-2c0.3-0.6,0.6-1.2,1.1-1.6c0.5-0.5,1-0.8,1.6-1.1c0.6-0.3,1.3-0.4,2-0.4
	c0.7,0,1.4,0.1,2,0.4c0.6,0.3,1.2,0.6,1.6,1.1c0.5,0.5,0.8,1,1.1,1.6c0.3,0.6,0.4,1.3,0.4,2C35,35.7,34.9,36.4,34.6,37L34.6,37z"/>
<path class="st1" d="M34.1,33.1c0,0.1,0,0.2,0,0.3c0,0.4-0.1,0.8-0.3,1.2c-0.1,0.4-0.2,0.7-0.4,1.1c-0.1,0.1-0.1,0.4-0.2,0.7
	c-0.1,0.3-0.2,0.7-0.4,1c-0.1,0.4-0.2,0.7-0.4,1c-0.1,0.3-0.2,0.5-0.2,0.7c0.4-0.2,0.7-0.4,1-0.7c0.3-0.3,0.5-0.6,0.7-1
	c0.2-0.4,0.4-0.7,0.5-1.1c0.3-1.1,0.2-2.4-0.4-3.4C34.1,33,34.1,33,34.1,33.1z"/>
<path class="st1" d="M25.3,35c0,0.4,0.1,0.9,0.2,1.3c0.1,0.4,0.3,0.8,0.5,1.2c0.2,0.4,0.5,0.7,0.8,1c0.3,0.3,0.7,0.5,1.1,0.7
	l-2.2-6.1C25.4,33.8,25.3,34.4,25.3,35z"/>
</svg>
