<svg id="Layer_1" xmlns="http://www.w3.org/2000/svg" viewBox="0 0 768 768"><style>.st0{fill:#fff}.st1{fill-opacity:.4}.st1,.st2{fill:#0073ec}.st3{fill:#a644e5;fill-opacity:.4}</style><g id="Page-1"><g id="spot-illustration:infrastructure"><path id="Fill-1" class="st0" d="M526 512l9 61H417l8.9-61"/><g id="Group-105"><path id="Fill-2" class="st1" d="M529.1 532.2L526 511H425.9l-3.1 21.2z"/><path id="Fill-4" class="st0" d="M385.8 443.1h320.1v32s3.7 26-23 31.6c0 0-3.9.6-7.7.4H385.8s1.1-9.8-8.3-16.6c0 0-4.8-3.7-11.2-3.8v-15s9.6.2 15.4-7.8c0 0 4.8-4.9 4.2-15l-.1-5.8z"/><path id="Fill-6" class="st0" d="M383.2 572.3h196.5v15.4H368.2"/><path id="Fill-8" class="st0" d="M710.1 437.5V213.1c0-17.4-14.2-31.6-31.8-31.6h-409c-17.5 0-31.8 14.1-31.8 31.6v224.4"/><path id="Fill-10" class="st2" d="M463.8 183.5h-46.5c-2.2 0-4-1.8-4-4s1.8-4 4-4h46.5c2.2 0 4 1.8 4 4s-1.8 4-4 4"/><path id="Fill-12" class="st1" d="M678.1 435.6V229.5c0-8.8-7.2-16-16-16H285.6c-8.8 0-16 7.2-16 16v206.1h408.5z"/><path id="Fill-14" class="st1" d="M493.9 475.1c0 11.1-9 20.1-20.1 20.1s-20.1-9-20.1-20.1 9-20.1 20.1-20.1 20.1 9 20.1 20.1"/><path id="Fill-16" class="st2" d="M473.8 459c-8.9 0-16.1 7.2-16.1 16.1 0 8.9 7.2 16.1 16.1 16.1 8.9 0 16.1-7.2 16.1-16.1 0-8.8-7.2-16.1-16.1-16.1m0 40.2c-13.3 0-24.1-10.8-24.1-24.1s10.8-24.1 24.1-24.1 24.1 10.8 24.1 24.1-10.8 24.1-24.1 24.1"/><path id="Fill-18" class="st0" d="M174.8 678.7l4.2 7.6c2.4 4.3 5.9 7.9 10.2 10.2l7.6 4.2-7.6 4.2c-4.3 2.4-7.9 5.9-10.2 10.2l-4.2 7.6-4.2-7.6c-2.4-4.3-5.9-7.9-10.2-10.2l-7.6-4.2 7.6-4.2c4.3-2.4 7.9-5.9 10.2-10.2l4.2-7.6z"/><path id="Fill-20" class="st0" d="M202.3 0l4.2 7.6c2.4 4.3 5.9 7.9 10.2 10.2l7.6 4.2-7.6 4.2c-4.3 2.4-7.9 5.9-10.2 10.2l-4.2 7.6-4.2-7.6c-2.4-4.3-5.9-7.9-10.2-10.2l-7.6-4.2 7.6-4.2c4.3-2.4 7.9-5.9 10.2-10.2l4.2-7.6z"/><path id="Fill-22" class="st0" d="M271.9 71.9c0 4.1-3.4 7.5-7.5 7.5s-7.5-3.4-7.5-7.5 3.4-7.5 7.5-7.5c4.2 0 7.5 3.4 7.5 7.5"/><path id="Fill-24" class="st0" d="M705.9 668.7c0 4.1-3.4 7.5-7.5 7.5s-7.5-3.4-7.5-7.5 3.4-7.5 7.5-7.5 7.5 3.3 7.5 7.5"/><path id="Fill-26" class="st0" d="M365.8 347.8H73.1c-8.8 0-16-7.2-16-16v-65c0-8.8 7.2-16 16-16h292.7c8.8 0 16 7.2 16 16v65c.1 8.8-7.1 16-16 16"/><path id="Fill-28" class="st0" d="M98.3 284.7v31.4"/><path id="Fill-30" class="st2" d="M98.3 320.1c-2.2 0-4-1.8-4-4v-31.4c0-2.2 1.8-4 4-4s4 1.8 4 4v31.4c0 2.2-1.8 4-4 4"/><path id="Fill-32" class="st0" d="M123.8 284.7v31.4"/><path id="Fill-34" class="st2" d="M123.8 320.1c-2.2 0-4-1.8-4-4v-31.4c0-2.2 1.8-4 4-4s4 1.8 4 4v31.4c0 2.2-1.8 4-4 4"/><path id="Fill-36" class="st0" d="M149.3 284.7v31.4"/><path id="Fill-38" class="st2" d="M149.3 320.1c-2.2 0-4-1.8-4-4v-31.4c0-2.2 1.8-4 4-4s4 1.8 4 4v31.4c0 2.2-1.8 4-4 4"/><path id="Fill-40" class="st0" d="M174.8 284.7v31.4"/><path id="Fill-42" class="st2" d="M174.8 320.1c-2.2 0-4-1.8-4-4v-31.4c0-2.2 1.8-4 4-4s4 1.8 4 4v31.4c0 2.2-1.7 4-4 4"/><path id="Fill-44" class="st0" d="M200.4 284.7v31.4"/><path id="Fill-46" class="st2" d="M200.4 320.1c-2.2 0-4-1.8-4-4v-31.4c0-2.2 1.8-4 4-4s4 1.8 4 4v31.4c0 2.2-1.8 4-4 4"/><path id="Fill-48" class="st2" d="M333.9 294.1c-5.2 0-9.3-4.2-9.3-9.3 0-5.2 4.2-9.3 9.3-9.3 5.2 0 9.3 4.2 9.3 9.3.1 5.1-4.1 9.3-9.3 9.3"/><path id="Fill-50" class="st2" d="M333.9 325.1c-5.2 0-9.3-4.2-9.3-9.3 0-5.2 4.2-9.3 9.3-9.3 5.2 0 9.3 4.2 9.3 9.3.1 5.1-4.1 9.3-9.3 9.3"/><path id="Fill-52" class="st0" d="M76.6 370.8h285.7v-23H76.6z"/><path id="Fill-54" class="st1" d="M76.6 370.8h285.7v-23H76.6z"/><path id="Fill-55" class="st0" d="M365.8 467.8H73.1c-8.8 0-16-7.2-16-16v-65c0-8.8 7.2-16 16-16h292.7c8.8 0 16 7.2 16 16v65c.1 8.8-7.1 16-16 16"/><path id="Fill-56" class="st0" d="M98.3 404.8v31.4"/><path id="Fill-57" class="st2" d="M98.3 440.1c-2.2 0-4-1.8-4-4v-31.4c0-2.2 1.8-4 4-4s4 1.8 4 4v31.4c0 2.3-1.8 4-4 4"/><path id="Fill-58" class="st0" d="M123.8 404.8v31.4"/><path id="Fill-59" class="st2" d="M123.8 440.1c-2.2 0-4-1.8-4-4v-31.4c0-2.2 1.8-4 4-4s4 1.8 4 4v31.4c0 2.3-1.8 4-4 4"/><path id="Fill-60" class="st0" d="M149.3 404.8v31.4"/><path id="Fill-61" class="st2" d="M149.3 440.1c-2.2 0-4-1.8-4-4v-31.4c0-2.2 1.8-4 4-4s4 1.8 4 4v31.4c0 2.3-1.8 4-4 4"/><path id="Fill-62" class="st0" d="M174.8 404.8v31.4"/><path id="Fill-63" class="st2" d="M174.8 440.1c-2.2 0-4-1.8-4-4v-31.4c0-2.2 1.8-4 4-4s4 1.8 4 4v31.4c0 2.3-1.7 4-4 4"/><path id="Fill-64" class="st0" d="M200.4 404.8v31.4"/><path id="Fill-65" class="st2" d="M200.4 440.1c-2.2 0-4-1.8-4-4v-31.4c0-2.2 1.8-4 4-4s4 1.8 4 4v31.4c0 2.3-1.8 4-4 4"/><path id="Fill-66" class="st2" d="M333.9 414.1c-5.2 0-9.3-4.2-9.3-9.3 0-5.2 4.2-9.3 9.3-9.3 5.2 0 9.3 4.2 9.3 9.3.1 5.1-4.1 9.3-9.3 9.3"/><path id="Fill-67" class="st2" d="M333.9 445.1c-5.2 0-9.3-4.2-9.3-9.3 0-5.2 4.2-9.3 9.3-9.3 5.2 0 9.3 4.2 9.3 9.3.1 5.1-4.1 9.3-9.3 9.3"/><path id="Fill-68" class="st0" d="M76.6 490.8h285.7v-23H76.6z"/><path id="Fill-69" class="st1" d="M76.6 490.8h285.7v-23H76.6z"/><path id="Fill-70" class="st0" d="M73.1 587.8h103c12.8-9.2 28.5-14.6 45.4-14.6 17 0 32.6 5.4 45.4 14.6h98.9c8.8 0 16-7.2 16-16v-65c0-8.8-7.2-16-16-16H73.1c-8.8 0-16 7.2-16 16v65c0 8.9 7.1 16 16 16"/><path id="Fill-71" class="st0" d="M98.3 524.8v31.4"/><path id="Fill-72" class="st2" d="M98.3 560.2c-2.2 0-4-1.8-4-4v-31.4c0-2.2 1.8-4 4-4s4 1.8 4 4v31.4c0 2.2-1.8 4-4 4"/><path id="Fill-73" class="st0" d="M123.8 524.8v31.4"/><path id="Fill-74" class="st2" d="M123.8 560.2c-2.2 0-4-1.8-4-4v-31.4c0-2.2 1.8-4 4-4s4 1.8 4 4v31.4c0 2.2-1.8 4-4 4"/><path id="Fill-75" class="st0" d="M149.3 524.8v31.4"/><path id="Fill-76" class="st2" d="M149.3 560.2c-2.2 0-4-1.8-4-4v-31.4c0-2.2 1.8-4 4-4s4 1.8 4 4v31.4c0 2.2-1.8 4-4 4"/><path id="Fill-77" class="st0" d="M174.8 524.8v31.4"/><path id="Fill-78" class="st2" d="M174.8 560.2c-2.2 0-4-1.8-4-4v-31.4c0-2.2 1.8-4 4-4s4 1.8 4 4v31.4c0 2.2-1.7 4-4 4"/><path id="Fill-79" class="st0" d="M200.4 524.8v31.4"/><path id="Fill-80" class="st2" d="M200.4 560.2c-2.2 0-4-1.8-4-4v-31.4c0-2.2 1.8-4 4-4s4 1.8 4 4v31.4c0 2.2-1.8 4-4 4"/><path id="Fill-81" class="st2" d="M333.9 534.1c-5.2 0-9.3-4.2-9.3-9.3 0-5.2 4.2-9.3 9.3-9.3 5.2 0 9.3 4.2 9.3 9.3.1 5.2-4.1 9.3-9.3 9.3"/><path id="Fill-82" class="st2" d="M333.9 565.1c-5.2 0-9.3-4.2-9.3-9.3 0-5.2 4.2-9.3 9.3-9.3 5.2 0 9.3 4.2 9.3 9.3.1 5.1-4.1 9.3-9.3 9.3"/><path id="Fill-83" class="st0" d="M169.6 182.1h-52.1c-2.1 0-3.8-1.6-4-3.6-2.2-23.5-21.7-41.3-45.4-41.3-7.9 0-15.7 2.1-22.5 5.9-1.1.6-2.5.7-3.7.2-1.2-.5-2-1.6-2.3-2.9-4.2-21.5-17.6-39.9-36.8-50.5-1.9-1.1-2.6-3.5-1.6-5.4 1.1-1.9 3.5-2.6 5.4-1.6 19.8 10.9 34 29.3 39.7 50.8 6.8-3 14.2-4.6 21.7-4.6 26.6 0 48.8 19.1 52.9 44.9h48.6c2.2 0 4 1.8 4 4 .1 2.3-1.7 4.1-3.9 4.1"/><path id="Fill-84" class="st0" d="M638.1 360.3h-.4c-4.6 0-8.7-2.9-10.4-7.2-.3-.8-.7-1.7-1-2.5-1.8-4.2-1-9 2.3-12.3l.3-.3c5.5-5.5 5.5-14.5 0-20l-8.3-8.3c-5.5-5.5-14.5-5.5-20 0-3.3 3.3-8.2 4.1-12.4 2.2-.9-.4-1.9-.8-2.8-1.2-4.3-1.7-7.1-5.7-7.1-10.3 0-7.8-6.3-14.1-14.2-14.1h-11.8c-7.8 0-14.2 6.3-14.2 14.1 0 4.6-2.9 8.6-7.1 10.3-.9.4-1.9.8-2.8 1.2-4.2 1.9-9.2 1.1-12.4-2.2-5.5-5.5-14.5-5.5-20 0l-8.3 8.3c-5.5 5.5-5.5 14.5 0 20l.3.3c3.2 3.2 4.1 8.1 2.3 12.3-.4.8-.7 1.7-1 2.5-1.7 4.3-5.7 7.2-10.4 7.2h-.7c-7.8 0-14.2 6.3-14.2 14.1v11.8c0 7.8 6.3 14.1 14.2 14.1h1.1c4.4 0 8.5 2.6 10.2 6.8.4.9.7 1.8 1.1 2.7 1.8 4.1.9 9-2.3 12.1l-.8.8c-4.2 4.2-5.2 10.4-3 15.6h147.6c2.2-5.2 1.2-11.3-3-15.6l-.8-.8c-3.2-3.2-4.2-8-2.3-12.1.4-.9.8-1.8 1.1-2.7 1.7-4.1 5.7-6.8 10.2-6.8h1.1c7.8 0 14.2-6.3 14.2-14.1v-11.8c-.1-7.7-6.4-14.1-14.3-14.1m-80 58.3c-20.1 0-36.5-16.3-36.5-36.4 0-20.1 16.3-36.4 36.5-36.4s36.5 16.3 36.5 36.4c-.1 20.1-16.4 36.4-36.5 36.4m0 0c-20.1 0-36.5-16.3-36.5-36.4 0-20.1 16.3-36.4 36.5-36.4s36.5 16.3 36.5 36.4c-.1 20.1-16.4 36.4-36.5 36.4m80-58.3h-.4c-4.6 0-8.7-2.9-10.4-7.2-.3-.8-.7-1.7-1-2.5-1.8-4.2-1-9 2.3-12.3l.3-.3c5.5-5.5 5.5-14.5 0-20l-8.3-8.3c-5.5-5.5-14.5-5.5-20 0-3.3 3.3-8.2 4.1-12.4 2.2-.9-.4-1.9-.8-2.8-1.2-4.3-1.7-7.1-5.7-7.1-10.3 0-7.8-6.3-14.1-14.2-14.1h-11.8c-7.8 0-14.2 6.3-14.2 14.1 0 4.6-2.9 8.6-7.1 10.3-.9.4-1.9.8-2.8 1.2-4.2 1.9-9.2 1.1-12.4-2.2-5.5-5.5-14.5-5.5-20 0l-8.3 8.3c-5.5 5.5-5.5 14.5 0 20l.3.3c3.2 3.2 4.1 8.1 2.3 12.3-.4.8-.7 1.7-1 2.5-1.7 4.3-5.7 7.2-10.4 7.2h-.7c-7.8 0-14.2 6.3-14.2 14.1v11.8c0 7.8 6.3 14.1 14.2 14.1h1.1c4.4 0 8.5 2.6 10.2 6.8.4.9.7 1.8 1.1 2.7 1.8 4.1.9 9-2.3 12.1l-.8.8c-4.2 4.2-5.2 10.4-3 15.6h147.6c2.2-5.2 1.2-11.3-3-15.6l-.8-.8c-3.2-3.2-4.2-8-2.3-12.1.4-.9.8-1.8 1.1-2.7 1.7-4.1 5.7-6.8 10.2-6.8h1.1c7.8 0 14.2-6.3 14.2-14.1v-11.8c-.1-7.7-6.4-14.1-14.3-14.1"/><path id="Fill-85" class="st0" d="M764 86.5h-25.7c-1.1 0-2.1-.4-2.8-1.2-.8-.8-1.2-1.8-1.2-2.9V81.8c0-39.8-32.5-72.3-72.4-72.3-31.7 0-59.5 20.3-69 50.5-.4 1.3-1.5 2.3-2.8 2.7-1.3.4-2.7 0-3.7-.9-9.8-8.8-22.3-13.6-35.5-13.6-22.6 0-42.7 14.3-50.1 35.6-.6 1.6-2.1 2.7-3.8 2.7h-43.3c-2.2 0-4-1.8-4-4s1.8-4 4-4h40.5c9.2-23 31.6-38.3 56.7-38.3 13.1 0 25.8 4.2 36.3 11.9 12.1-30.5 41.4-50.6 74.7-50.6 43.2 0 78.6 34.2 80.3 76.9H764c2.2 0 4 1.8 4 4s-1.8 4.1-4 4.1"/><path id="Fill-86" class="st0" d="M439.7 202.1c-12.4 0-22.4-10-22.4-22.3s10-22.3 22.4-22.3c12.3 0 22.4 10 22.4 22.3-.1 12.3-10.1 22.3-22.4 22.3m49.1-34.6h-.3c-2.8 0-5.3-1.8-6.4-4.4l-.6-1.5c-1.1-2.6-.6-5.5 1.4-7.5l.2-.2c3.4-3.4 3.4-8.9 0-12.3l-5.1-5.1c-3.4-3.4-8.9-3.4-12.3 0-2 2-5 2.5-7.6 1.4-.6-.2-1.1-.5-1.7-.7-2.6-1-4.4-3.5-4.4-6.3 0-4.8-3.9-8.7-8.7-8.7H436c-4.8 0-8.7 3.9-8.7 8.7 0 2.8-1.8 5.3-4.4 6.3-.6.2-1.2.5-1.7.7-2.6 1.1-5.6.6-7.6-1.4-3.4-3.4-8.9-3.4-12.3 0l-5.1 5.1c-3.4 3.4-3.4 8.9 0 12.3l.2.2c2 2 2.5 5 1.4 7.5l-.6 1.5c-1 2.7-3.5 4.4-6.4 4.4h-.3c-4.8 0-8.7 3.9-8.7 8.7v7.2c0 4.8 3.9 8.7 8.7 8.7h.6c2.7 0 5.2 1.6 6.2 4.1.2.6.5 1.1.7 1.6 1.1 2.5.5 5.5-1.4 7.4l-.5.5c-3.4 3.4-3.4 8.9 0 12.3l5.1 5.1c3.4 3.4 8.9 3.4 12.3 0l.6-.6c1.9-1.9 4.9-2.5 7.4-1.5l1.5.6c2.6 1 4.2 3.5 4.2 6.3v.9c0 4.8 3.9 8.7 8.7 8.7h7.2c4.8 0 8.7-3.9 8.7-8.7v-.9c0-2.8 1.7-5.3 4.2-6.3l1.5-.6c2.5-1.1 5.4-.5 7.4 1.5l.6.6c3.4 3.4 8.9 3.4 12.3 0l5.1-5.1c3.4-3.4 3.4-8.9 0-12.3l-.5-.5c-2-2-2.6-4.9-1.4-7.4.2-.5.5-1.1.7-1.6 1-2.5 3.5-4.1 6.2-4.1h.6c4.8 0 8.7-3.9 8.7-8.7v-7.2c.3-4.9-3.6-8.7-8.4-8.7"/><path id="Fill-87" class="st0" d="M439.7 202.1c-12.4 0-22.4-10-22.4-22.3s10-22.3 22.4-22.3c12.3 0 22.4 10 22.4 22.3-.1 12.3-10.1 22.3-22.4 22.3m49.1-34.6h-.3c-2.8 0-5.3-1.8-6.4-4.4l-.6-1.5c-1.1-2.6-.6-5.5 1.4-7.5l.2-.2c3.4-3.4 3.4-8.9 0-12.3l-5.1-5.1c-3.4-3.4-8.9-3.4-12.3 0-2 2-5 2.5-7.6 1.4-.6-.2-1.1-.5-1.7-.7-2.6-1-4.4-3.5-4.4-6.3 0-4.8-3.9-8.7-8.7-8.7H436c-4.8 0-8.7 3.9-8.7 8.7 0 2.8-1.8 5.3-4.4 6.3-.6.2-1.2.5-1.7.7-2.6 1.1-5.6.6-7.6-1.4-3.4-3.4-8.9-3.4-12.3 0l-5.1 5.1c-3.4 3.4-3.4 8.9 0 12.3l.2.2c2 2 2.5 5 1.4 7.5l-.6 1.5c-1 2.7-3.5 4.4-6.4 4.4h-.3c-4.8 0-8.7 3.9-8.7 8.7v7.2c0 4.8 3.9 8.7 8.7 8.7h.6c2.7 0 5.2 1.6 6.2 4.1.2.6.5 1.1.7 1.6 1.1 2.5.5 5.5-1.4 7.4l-.5.5c-3.4 3.4-3.4 8.9 0 12.3l5.1 5.1c3.4 3.4 8.9 3.4 12.3 0l.6-.6c1.9-1.9 4.9-2.5 7.4-1.5l1.5.6c2.6 1 4.2 3.5 4.2 6.3v.9c0 4.8 3.9 8.7 8.7 8.7h7.2c4.8 0 8.7-3.9 8.7-8.7v-.9c0-2.8 1.7-5.3 4.2-6.3l1.5-.6c2.5-1.1 5.4-.5 7.4 1.5l.6.6c3.4 3.4 8.9 3.4 12.3 0l5.1-5.1c3.4-3.4 3.4-8.9 0-12.3l-.5-.5c-2-2-2.6-4.9-1.4-7.4.2-.5.5-1.1.7-1.6 1-2.5 3.5-4.1 6.2-4.1h.6c4.8 0 8.7-3.9 8.7-8.7v-7.2c.3-4.9-3.6-8.7-8.4-8.7"/><path id="Fill-88" class="st0" d="M710.1 286.6c-11.5 0-20.8-9.3-20.8-20.8s9.3-20.8 20.8-20.8 20.8 9.3 20.8 20.8-9.3 20.8-20.8 20.8m45.8-32.2h-.3c-2.7 0-5-1.7-5.9-4.1-.2-.5-.4-1-.6-1.4-1-2.4-.5-5.2 1.3-7l.2-.2c3.2-3.2 3.2-8.3 0-11.4l-4.8-4.8c-3.2-3.2-8.3-3.2-11.4 0-1.9 1.9-4.7 2.3-7.1 1.3-.5-.2-1.1-.5-1.6-.7-2.4-1-4.1-3.3-4.1-5.9 0-4.5-3.6-8.1-8.1-8.1h-6.7c-4.5 0-8.1 3.6-8.1 8.1 0 2.6-1.6 4.9-4.1 5.9-.5.2-1.1.4-1.6.7-2.4 1.1-5.2.6-7.1-1.3-3.2-3.2-8.3-3.2-11.4 0l-4.8 4.8c-3.2 3.2-3.2 8.3 0 11.4l.2.2c1.8 1.8 2.3 4.6 1.3 7-.2.5-.4 1-.6 1.4-1 2.5-3.3 4.1-5.9 4.1h-.3c-4.5 0-8.1 3.6-8.1 8.1v6.7c0 4.5 3.6 8.1 8.1 8.1h.6c2.5 0 4.9 1.5 5.8 3.9l.6 1.5c1.1 2.4.5 5.1-1.3 6.9l-.4.4c-3.2 3.2-3.2 8.3 0 11.4l4.8 4.8c3.2 3.2 8.3 3.2 11.4 0l.6-.6c1.8-1.8 4.5-2.4 6.9-1.4.4.2.9.4 1.4.6 2.4.9 3.9 3.3 3.9 5.8v.9c0 4.5 3.6 8.1 8.1 8.1h6.7c4.5 0 8.1-3.6 8.1-8.1v-.9c0-2.6 1.5-4.9 3.9-5.8.5-.2.9-.4 1.4-.6 2.3-1 5.1-.4 6.9 1.4l.6.6c3.2 3.2 8.3 3.2 11.4 0l4.8-4.8c3.2-3.2 3.2-8.3 0-11.4l-.4-.4c-1.8-1.8-2.4-4.6-1.3-6.9l.6-1.5c.9-2.4 3.3-3.9 5.8-3.9h.6c4.5 0 8.1-3.6 8.1-8.1v-6.7c0-4.5-3.7-8.1-8.1-8.1"/><path id="Fill-89" class="st0" d="M710.1 286.6c-11.5 0-20.8-9.3-20.8-20.8s9.3-20.8 20.8-20.8 20.8 9.3 20.8 20.8-9.3 20.8-20.8 20.8m45.8-32.2h-.3c-2.7 0-5-1.7-5.9-4.1-.2-.5-.4-1-.6-1.4-1-2.4-.5-5.2 1.3-7l.2-.2c3.2-3.2 3.2-8.3 0-11.4l-4.8-4.8c-3.2-3.2-8.3-3.2-11.4 0-1.9 1.9-4.7 2.3-7.1 1.3-.5-.2-1.1-.5-1.6-.7-2.4-1-4.1-3.3-4.1-5.9 0-4.5-3.6-8.1-8.1-8.1h-6.7c-4.5 0-8.1 3.6-8.1 8.1 0 2.6-1.6 4.9-4.1 5.9-.5.2-1.1.4-1.6.7-2.4 1.1-5.2.6-7.1-1.3-3.2-3.2-8.3-3.2-11.4 0l-4.8 4.8c-3.2 3.2-3.2 8.3 0 11.4l.2.2c1.8 1.8 2.3 4.6 1.3 7-.2.5-.4 1-.6 1.4-1 2.5-3.3 4.1-5.9 4.1h-.3c-4.5 0-8.1 3.6-8.1 8.1v6.7c0 4.5 3.6 8.1 8.1 8.1h.6c2.5 0 4.9 1.5 5.8 3.9l.6 1.5c1.1 2.4.5 5.1-1.3 6.9l-.4.4c-3.2 3.2-3.2 8.3 0 11.4l4.8 4.8c3.2 3.2 8.3 3.2 11.4 0l.6-.6c1.8-1.8 4.5-2.4 6.9-1.4.4.2.9.4 1.4.6 2.4.9 3.9 3.3 3.9 5.8v.9c0 4.5 3.6 8.1 8.1 8.1h6.7c4.5 0 8.1-3.6 8.1-8.1v-.9c0-2.6 1.5-4.9 3.9-5.8.5-.2.9-.4 1.4-.6 2.3-1 5.1-.4 6.9 1.4l.6.6c3.2 3.2 8.3 3.2 11.4 0l4.8-4.8c3.2-3.2 3.2-8.3 0-11.4l-.4-.4c-1.8-1.8-2.4-4.6-1.3-6.9l.6-1.5c.9-2.4 3.3-3.9 5.8-3.9h.6c4.5 0 8.1-3.6 8.1-8.1v-6.7c0-4.5-3.7-8.1-8.1-8.1"/><path id="Fill-90" class="st0" d="M626.3 708.2l5.7 10.3c3.2 5.9 8 10.7 13.9 13.9l10.4 5.7-10.4 5.7c-5.9 3.2-10.7 8-13.9 13.9l-5.7 10.3-5.7-10.3c-3.2-5.9-8-10.7-13.9-13.9l-10.4-5.7 10.4-5.7c5.9-3.2 10.7-8 13.9-13.9l5.7-10.3z"/><path id="Fill-91" class="st3" d="M174.8 678.7l4.2 7.6c2.4 4.3 5.9 7.9 10.2 10.2l7.6 4.2-7.6 4.2c-4.3 2.4-7.9 5.9-10.2 10.2l-4.2 7.6-4.2-7.6c-2.4-4.3-5.9-7.9-10.2-10.2l-7.6-4.2 7.6-4.2c4.3-2.4 7.9-5.9 10.2-10.2l4.2-7.6z"/><path id="Fill-92" class="st3" d="M202.3 0l4.2 7.6c2.4 4.3 5.9 7.9 10.2 10.2l7.6 4.2-7.6 4.2c-4.3 2.4-7.9 5.9-10.2 10.2l-4.2 7.6-4.2-7.6c-2.4-4.3-5.9-7.9-10.2-10.2l-7.6-4.2 7.6-4.2c4.3-2.4 7.9-5.9 10.2-10.2l4.2-7.6z"/><path id="Fill-93" class="st3" d="M271.9 71.9c0 4.1-3.4 7.5-7.5 7.5s-7.5-3.4-7.5-7.5 3.4-7.5 7.5-7.5c4.2 0 7.5 3.4 7.5 7.5"/><path id="Fill-94" class="st3" d="M705.9 668.7c0 4.1-3.4 7.5-7.5 7.5s-7.5-3.4-7.5-7.5 3.4-7.5 7.5-7.5 7.5 3.3 7.5 7.5"/><path id="Fill-95" class="st3" d="M626.3 708.2l5.7 10.3c3.2 5.9 8 10.7 13.9 13.9l10.4 5.7-10.4 5.7c-5.9 3.2-10.7 8-13.9 13.9l-5.7 10.3-5.7-10.3c-3.2-5.9-8-10.7-13.9-13.9l-10.4-5.7 10.4-5.7c5.9-3.2 10.7-8 13.9-13.9l5.7-10.3z"/><path id="Fill-96" class="st0" d="M558.1 414.6c-17.9 0-32.4-14.5-32.4-32.4s14.6-32.4 32.4-32.4c17.9 0 32.4 14.5 32.4 32.4s-14.5 32.4-32.4 32.4m80.4-54.3h-.5c-4.6 0-8.7-2.9-10.4-7.2-.3-.8-.7-1.7-1-2.5-1.8-4.2-1-9 2.3-12.3l.3-.3c5.5-5.5 5.5-14.5 0-20l-8.3-8.3c-5.5-5.5-14.5-5.5-20 0-3.3 3.3-8.2 4.1-12.4 2.2-.9-.4-1.9-.8-2.8-1.2-4.3-1.7-7.1-5.7-7.1-10.3 0-7.8-6.3-14.1-14.2-14.1h-11.8c-7.8 0-14.2 6.3-14.2 14.1 0 4.6-2.9 8.6-7.1 10.3-.9.4-1.9.8-2.8 1.2-4.2 1.9-9.2 1.1-12.4-2.2-5.5-5.5-14.5-5.5-20 0l-8.3 8.3c-5.5 5.5-5.5 14.5 0 20l.3.3c3.2 3.2 4.1 8.1 2.3 12.3-.4.8-.7 1.7-1 2.5-1.7 4.3-5.7 7.2-10.4 7.2h-.4c-7.8 0-14.2 6.3-14.2 14.1v11.8c0 7.8 6.3 14.1 14.2 14.1h1.1c4.4 0 8.5 2.6 10.2 6.8.4.9.7 1.8 1.1 2.7 1.8 4.1.9 9-2.3 12.1l-.8.8c-4.2 4.2-5.2 10.4-3 15.6h147.6c2.2-5.2 1.2-11.3-3-15.6l-.8-.8c-3.2-3.2-4.2-8-2.3-12.1.4-.9.8-1.8 1.1-2.7 1.7-4.1 5.7-6.8 10.2-6.8h1.1c7.8 0 14.2-6.3 14.2-14.1v-11.8c-.4-7.7-6.7-14.1-14.5-14.1"/><path id="Fill-97" class="st2" d="M439.7 161.4c10.1 0 18.4 8.2 18.4 18.3 0 10.1-8.2 18.3-18.4 18.3-10.1 0-18.4-8.2-18.4-18.3 0-10 8.2-18.3 18.4-18.3m0 44.7c14.5 0 26.4-11.8 26.4-26.3s-11.8-26.3-26.4-26.3-26.4 11.8-26.4 26.3 11.8 26.3 26.4 26.3"/><path id="Fill-98" class="st2" d="M558.1 349.8c17.9 0 32.4 14.5 32.4 32.4s-14.6 32.4-32.4 32.4c-17.9 0-32.4-14.5-32.4-32.4-.1-17.8 14.5-32.4 32.4-32.4m0 72.8c22.3 0 40.5-18.1 40.5-40.4 0-22.3-18.2-40.4-40.5-40.4s-40.5 18.1-40.5 40.4c0 22.3 18.2 40.4 40.5 40.4"/><path id="Fill-99" class="st2" d="M759.8 269.2c0 2.3-1.8 4.1-4.1 4.1h-.6c-4.2 0-8 2.5-9.5 6.4-.2.5-.4.9-.6 1.4-1.7 3.8-.9 8.4 2.1 11.4l.4.4c.8.8 1.2 1.8 1.2 2.9 0 1.1-.4 2.1-1.2 2.9l-4.8 4.8c-.8.8-1.8 1.2-2.9 1.2s-2.1-.4-2.9-1.2l-.6-.6c-3-3-7.4-3.9-11.3-2.2-.4.2-.8.3-1.2.5-3.9 1.5-6.5 5.4-6.5 9.6v.9c0 2.3-1.8 4.1-4.1 4.1h-6.7c-2.3 0-4.1-1.8-4.1-4.1v-.9c0-4.2-2.6-8-6.5-9.6-.4-.2-.8-.3-1.2-.5-1.3-.6-2.7-.8-4-.8-2.7 0-5.3 1-7.3 3l-.6.6c-1.6 1.6-4.2 1.6-5.8 0l-4.8-4.8c-.8-.8-1.2-1.8-1.2-2.9s.4-2.1 1.2-2.9l.4-.4c3-3 3.9-7.6 2.2-11.4-.2-.5-.4-.9-.6-1.4-1.6-3.9-5.3-6.4-9.5-6.4h-.6c-2.3 0-4.1-1.8-4.1-4.1v-6.7c0-2.3 1.8-4.1 4.1-4.1h.3c4.3 0 8.1-2.6 9.7-6.7.2-.4.3-.9.5-1.3 1.7-3.9.8-8.4-2.2-11.4l-.2-.2c-.8-.8-1.2-1.8-1.2-2.9 0-1.1.4-2.1 1.2-2.9l4.8-4.8c1.6-1.6 4.2-1.6 5.8 0 3 3 7.6 3.9 11.6 2.1.5-.2 1-.4 1.4-.6 4-1.6 6.6-5.4 6.6-9.6 0-2.3 1.8-4.1 4.1-4.1h6.7c2.3 0 4.1 1.8 4.1 4.1 0 4.3 2.6 8 6.6 9.6.5.2 1 .4 1.4.6 4 1.8 8.5.9 11.6-2.1.8-.8 1.8-1.2 2.9-1.2 1.1 0 2.1.4 2.9 1.2l4.8 4.8c.8.8 1.2 1.8 1.2 2.9s-.4 2.1-1.2 2.9l-.2.2c-3 3-3.8 7.5-2.2 11.4.2.4.4.9.5 1.3 1.6 4.1 5.4 6.7 9.7 6.7h.3c2.3 0 4.1 1.8 4.1 4.1v6.7zm-53.7 165.9h-69.3c.7-5.5-1.1-11.1-5.2-15.2l-.8-.8c-2-2-2.6-5.1-1.5-7.7.4-.9.8-1.9 1.2-2.8 1-2.5 3.6-4.2 6.4-4.2h1.1c10 0 18.2-8.1 18.2-18.1v-11.8c0-10-8.2-18.1-18.2-18.1h-.4c-2.9 0-5.5-1.8-6.6-4.7-.3-.9-.7-1.8-1.1-2.7-1.2-2.7-.6-5.8 1.4-7.9l.3-.3c3.4-3.4 5.3-8 5.3-12.8 0-4.8-1.9-9.4-5.3-12.8l-8.3-8.3c-7.1-7.1-18.6-7.1-25.6-.1l-.1.1c-2.1 2.1-5.2 2.6-8 1.4-1-.4-2-.8-2.9-1.2-2.8-1.1-4.6-3.7-4.6-6.6 0-10-8.2-18.1-18.2-18.1h-11.8c-10 0-18.2 8.1-18.2 18.1 0 2.9-1.8 5.5-4.6 6.6-1 .4-2 .8-2.9 1.2-2.8 1.2-5.9.7-8-1.4-7.1-7.1-18.6-7.1-25.7 0l-8.3 8.3c-3.4 3.4-5.3 8-5.3 12.8 0 4.8 1.9 9.4 5.3 12.8l.3.3c2 2 2.6 5.1 1.4 7.9-.4.9-.7 1.8-1.1 2.7-1.1 2.8-3.7 4.7-6.6 4.7h-.4c-10 0-18.2 8.1-18.2 18.1v11.8c0 10 8.2 18.1 18.2 18.1h1.1c2.8 0 5.4 1.7 6.4 4.2.4.9.8 1.9 1.2 2.8 1.1 2.6.5 5.6-1.5 7.7l-.8.8c-4.1 4.1-5.9 9.7-5.2 15.2h-93.4v-48.3c0-10.9-8.7-19.7-19.6-20v-15c10.8-.3 19.6-9.1 19.6-20v-65c0-11-9-20-20-20H241.5v-35.7c0-15.2 12.5-27.6 27.8-27.6h108.6c0 7 5.7 12.6 12.7 12.6h.6c1.1 0 2.1.7 2.5 1.6.2.6.5 1.2.8 1.8.4 1 .2 2.2-.6 3l-.5.5c-4.9 4.9-4.9 13 0 17.9l5.1 5.1c2.4 2.4 5.6 3.7 9 3.7 3.4 0 6.6-1.3 9-3.7l.7-.6c.8-.8 2-1 3-.6.5.2 1.1.4 1.6.7 1 .4 1.7 1.4 1.7 2.5v.9c0 7 5.7 12.7 12.7 12.7h7.2c7 0 12.7-5.7 12.7-12.7v-.9c0-1.1.7-2.1 1.7-2.5.5-.2 1.1-.4 1.6-.7 1-.4 2.2-.2 3 .6l.6.6c2.4 2.4 5.6 3.7 9 3.7 3.4 0 6.6-1.3 9-3.7l5.1-5.1c2.4-2.4 3.7-5.6 3.7-9s-1.3-6.6-3.7-9l-.5-.5c-.8-.8-1-2-.6-3 .3-.6.5-1.2.8-1.8.4-1 1.4-1.6 2.5-1.6h.6c7 0 12.6-5.6 12.7-12.6h176.9c14.3 0 26.1 10.8 27.6 24.6-6.4.3-11.5 5.6-11.5 12.1 0 .9-.6 1.8-1.5 2.2-.6.2-1.2.5-1.7.7-.9.4-2 .2-2.7-.4-4.7-4.7-12.4-4.7-17.1 0l-4.8 4.8c-2.3 2.3-3.5 5.3-3.5 8.5s1.3 6.3 3.5 8.5l.2.2c.7.7.8 1.7.5 2.6-.2.5-.4 1-.6 1.6-.4 1-1.2 1.6-2.2 1.6h-.3c-6.7 0-12.1 5.4-12.1 12.1v6.7c0 6.7 5.4 12.1 12.1 12.1h.6c.9 0 1.8.5 2.1 1.3.2.6.5 1.1.7 1.7.4.8.2 1.8-.5 2.5l-.4.4c-2.3 2.3-3.5 5.3-3.5 8.5s1.3 6.3 3.5 8.5l4.8 4.8c4.7 4.7 12.4 4.7 17.1 0l.6-.6c.7-.7 1.6-.9 2.5-.5l1.5.6c.8.3 1.4 1.2 1.4 2.1v.9c0 6.5 5.2 11.8 11.7 12.1v111.5zM494 408.2c-.4-.8-.7-1.7-1.1-2.5-2.3-5.6-7.7-9.3-13.9-9.3h-1c-5.6 0-10.2-4.6-10.2-10.1v-11.8c0-5.6 4.6-10.1 10.2-10.1h.4c6.3 0 11.8-3.9 14.1-9.8.3-.8.6-1.6 1-2.4 2.5-5.8 1.2-12.3-3.1-16.7l-.3-.3c-1.9-1.9-3-4.5-3-7.2s1.1-5.3 3-7.2l8.3-8.3c4-4 10.4-4 14.4 0 4.4 4.4 11.1 5.6 16.9 3 .9-.4 1.8-.8 2.6-1.1 5.9-2.3 9.7-7.8 9.7-14 0-5.6 4.6-10.1 10.2-10.1H564c5.6 0 10.2 4.6 10.2 10.1 0 6.2 3.8 11.7 9.7 14 .9.4 1.8.7 2.6 1.1 5.8 2.6 12.4 1.4 16.8-3 0 0 .1 0 .1-.1 4-4 10.4-4 14.4 0l8.3 8.3c1.9 1.9 3 4.5 3 7.2s-1.1 5.3-3 7.2l-.3.3c-4.4 4.4-5.6 10.9-3.1 16.7.3.8.7 1.6 1 2.4 2.3 6 7.8 9.8 14.1 9.8h.4c5.6 0 10.2 4.6 10.2 10.1v11.8c0 5.6-4.6 10.1-10.2 10.1h-1.1c-6.2 0-11.6 3.6-13.9 9.3-.3.8-.7 1.7-1.1 2.5-2.5 5.6-1.2 12.2 3.1 16.6l.8.8c2.3 2.3 3.4 5.6 2.9 8.7H487.2c-.5-3.2.5-6.4 2.9-8.7l.8-.8c4.3-4.2 5.6-10.9 3.1-16.5zM706.1 479c0 15.5-12.5 28.1-27.8 28.1H385.9v-.3c0-10.9-8.7-19.7-19.6-20v-15c10.8-.3 19.6-9.1 19.6-20v-8.7h320.2V479zm-284.5 89.3l7.9-53.2h93l7.9 53.2H421.6zm-35.7 0v-53.2h35.5l-7.9 53.2h-27.6zm189.8 8v7.4H381.9c1.6-2.2 2.8-4.7 3.4-7.4h190.4zM362.3 463.8H73.1c-6.6 0-12-5.4-12-12v-65c0-6.6 5.4-12 12-12h292.7c6.6 0 12 5.4 12 12v65c0 6.6-5.4 12-12 12h-3.5zm-301.2-132v-65c0-6.6 5.4-12 12-12h292.7c6.6 0 12 5.4 12 12v65c0 6.6-5.4 12-12 12H73.1c-6.6 0-12-5.4-12-12zm324.8-155.7c0-2.6 2.1-4.7 4.7-4.7h.3c4.5 0 8.5-2.8 10.1-7 .2-.5.4-.9.6-1.4 1.8-4.1.9-8.8-2.3-11.9l-.2-.2c-1.8-1.8-1.8-4.8 0-6.6l5.1-5.1c.9-.9 2.1-1.4 3.3-1.4 1.2 0 2.4.5 3.3 1.4 3.2 3.2 7.9 4 12.1 2.2.5-.2 1-.4 1.6-.7 4.2-1.7 6.9-5.6 6.9-10 0-2.6 2.1-4.7 4.7-4.7h7.2c2.6 0 4.7 2.1 4.7 4.7 0 4.4 2.7 8.4 6.9 10 .5.2 1 .4 1.6.7 4.1 1.8 8.9 1 12-2.2.9-.9 2.1-1.4 3.3-1.4 1.3 0 2.4.5 3.3 1.4l5.1 5.1c.9.9 1.4 2.1 1.4 3.3 0 1.2-.5 2.4-1.4 3.3l-.2.2c-3.1 3.1-4 7.8-2.3 11.9.2.5.4.9.6 1.4 1.6 4.3 5.6 7 10.1 7h.3c2.6 0 4.7 2.1 4.7 4.7v7.2c0 2.6-2.1 4.7-4.7 4.7h-.6c-4.4 0-8.3 2.6-10 6.7l-.6 1.5c-1.8 4-.9 8.8 2.2 11.9l.5.5c.9.9 1.4 2.1 1.4 3.3s-.5 2.4-1.4 3.3l-5.1 5.1c-.9.9-2.1 1.4-3.3 1.4-1.3 0-2.4-.5-3.3-1.4l-.6-.6c-3.1-3.1-7.8-4-11.8-2.3-.4.2-.9.4-1.3.5-4.1 1.6-6.8 5.6-6.8 10v.9c0 2.6-2.1 4.7-4.7 4.7H436c-2.6 0-4.7-2.1-4.7-4.7v-.9c0-4.4-2.7-8.4-6.8-10-.4-.2-.9-.4-1.3-.5-1.4-.6-2.8-.9-4.2-.9-2.8 0-5.5 1.1-7.6 3.2l-.7.6c-.9.9-2.1 1.4-3.3 1.4-1.2 0-2.4-.5-3.3-1.4l-5.1-5.1c-1.8-1.8-1.8-4.8 0-6.6l.5-.5c3.1-3.1 4-7.9 2.2-11.9l-.6-1.5c-1.6-4-5.5-6.7-10-6.7h-.6c-2.6 0-4.7-2.1-4.7-4.7v-7.2zm367.3 72.7c-.2-.5-.4-1.1-.6-1.6-.4-.9-.2-1.9.5-2.6 2.4-2.4 3.7-5.5 3.7-8.7 0-3.2-1.3-6.3-3.5-8.5l-4.8-4.8c-2.3-2.3-5.3-3.5-8.6-3.5-3.2 0-6.3 1.3-8.6 3.5-.7.7-1.7.8-2.7.4-2.7-1.1-3.3-2-3.3-2.9 0-6.5-5.1-11.7-11.5-12.1-1.5-18.2-16.9-32.5-35.6-32.5H501.4c-.3-6.7-5.9-12.1-12.7-12.1-1.4 0-2.5-.7-2.9-1.9-.2-.6-.4-1.1-.7-1.7-.5-1.1-.3-2.3.6-3.1 2.6-2.6 3.9-5.8 3.9-9.1 0-3.4-1.3-6.6-3.7-9l-5.1-5.1c-2.4-2.4-5.6-3.7-9-3.7-3.4 0-6.5 1.3-8.9 3.7-.9.9-2.1 1.1-3.2.6-.6-.3-1.2-.5-1.9-.8-1.1-.4-1.8-1.5-1.8-2.6 0-7-5.7-12.7-12.7-12.7H436c-7 0-12.7 5.7-12.7 12.7 0 1.1-.7 2.2-1.8 2.6-.6.2-1.3.5-1.9.8-1.1.5-2.4.3-3.2-.5-2.4-2.4-5.6-3.7-9-3.7s-6.6 1.3-9 3.7l-5.1 5.1c-4.9 4.9-4.9 13 0 17.9 1 1 1.2 2.2.7 3.3-.2.6-.5 1.1-.7 1.7-.4 1.1-1.5 1.9-2.6 1.9-7.1 0-12.6 5.4-12.9 12.1H269.3c-19.7 0-35.7 15.9-35.7 35.5v35.7H73.1c-11 0-20 9-20 20v65c0 10.9 8.7 19.7 19.6 20v15c-10.8.3-19.6 9.1-19.6 20v65c0 10.9 8.7 19.7 19.6 20v15c-10.8.3-19.6 9.1-19.6 20v65c0 11 9 20 20 20h91.8c3-2.9 6.3-5.6 9.8-8H73.1c-6.6 0-12-5.4-12-12v-65c0-6.6 5.4-12 12-12h292.7c6.6 0 12 5.4 12 12v65c0 6.6-5.4 12-12 12h-97.7c3.5 2.4 6.8 5.1 9.8 8h87.8c.8 0 1.6-.1 2.4-.2h211.4c2.2 0 4-1.8 4-4v-15.4c0-2.2-1.8-4-4-4h-41.2l-7.9-53.2h147.8c19.7 0 35.8-16.2 35.8-36.1V439c-.1-1.1 0-1.4 0-1.6V323.6c6.3-.4 11.3-5.6 11.3-12 0-1.8.6-2.6 1.4-3 2.3-1 3.3-.8 3.9-.1 2.9 2.9 5.9 4.1 9.2 4.1 3.2 0 6.3-1.3 8.6-3.5l4.8-4.8c2.3-2.3 3.5-5.3 3.5-8.5s-1.3-6.3-3.5-8.5c-1.1-1.1-1.3-2.1-.9-2.9.2-.5.5-1.1.7-1.7.3-.8 1.2-1.3 2.1-1.3 7.3 0 12.7-5.4 12.7-12.1v-6.7c0-6.7-5.4-12.1-12.1-12.1-1.2-.1-2.1-.8-2.5-1.7z"/><path id="Fill-99-path" class="st0" d="M80.6 486.8h277.7v-15H80.6z"/><path id="Fill-99-path_1_" class="st0" d="M80.6 366.8h277.7v-15H80.6z"/><path id="Fill-99-path-Copy-2" class="st1" d="M80.6 486.8h277.7v-15H80.6z"/><path id="Fill-99-path-Copy" class="st1" d="M80.6 366.8h277.7v-15H80.6z"/><path id="Fill-100" class="st2" d="M714.1 282.1v-32.5c7.3 1.8 12.7 8.4 12.7 16.3 0 7.8-5.5 14.4-12.7 16.2m-21-16.3c0-8 5.6-14.6 13-16.4v32.7c-7.4-1.6-13-8.3-13-16.3m16.8-24.8c-13.7 0-24.8 11.1-24.8 24.8 0 13.7 11.1 24.8 24.8 24.8s24.8-11.1 24.8-24.8c.1-13.6-11.1-24.8-24.8-24.8"/><path id="Fill-101" class="st3" d="M169.6 182.1h-52.1c-2.1 0-3.8-1.6-4-3.6-2.2-23.5-21.7-41.3-45.4-41.3-7.9 0-15.7 2.1-22.5 5.9-1.1.6-2.5.7-3.7.2-1.2-.5-2-1.6-2.3-2.9-4.2-21.5-17.6-39.9-36.8-50.5-1.9-1.1-2.6-3.5-1.6-5.4 1.1-1.9 3.5-2.6 5.4-1.6 19.8 10.9 34 29.3 39.7 50.8 6.8-3 14.2-4.6 21.7-4.6 26.6 0 48.8 19.1 52.9 44.9h48.6c2.2 0 4 1.8 4 4 .1 2.3-1.7 4.1-3.9 4.1"/><path id="Fill-102" class="st3" d="M764 86.5h-25.7c-1.1 0-2.1-.4-2.8-1.2-.8-.8-1.2-1.8-1.2-2.9V81.8c0-39.8-32.5-72.3-72.4-72.3-31.7 0-59.5 20.3-69 50.5-.4 1.3-1.5 2.3-2.8 2.7-1.3.4-2.7 0-3.7-.9-9.8-8.8-22.3-13.6-35.5-13.6-22.6 0-42.7 14.3-50.1 35.6-.6 1.6-2.1 2.7-3.8 2.7h-43.3c-2.2 0-4-1.8-4-4s1.8-4 4-4h40.5c9.2-23 31.6-38.3 56.7-38.3 13.1 0 25.8 4.2 36.3 11.9 12.1-30.5 41.4-50.6 74.7-50.6 43.2 0 78.6 34.2 80.3 76.9H764c2.2 0 4 1.8 4 4s-1.8 4.1-4 4.1"/><path id="Fill-103" class="st0" d="M454 678.5h-82.1c-2.1 0-3.8-1.6-4-3.6-2.2-23.5-21.7-41.3-45.4-41.3-7.9 0-15.7 2.1-22.5 5.9-1.1.6-2.5.7-3.7.2-1.2-.5-2-1.6-2.3-2.9-6.7-34.5-37.2-59.6-72.5-59.6-32.4 0-60.7 20.7-70.4 51.5-.4 1.3-1.5 2.3-2.8 2.7-1.3.4-2.7 0-3.7-.9-10-9-22.8-13.9-36.2-13.9-29.8 0-54.1 24.2-54.1 54 0 1.1 0 2.2.1 3.6.1 1.1-.3 2.2-1.1 3-.8.8-1.8 1.3-2.9 1.3H4c-2.2 0-4-1.8-4-4s1.8-4 4-4h42.3c.1-34.2 27.9-61.9 62.1-61.9 13.4 0 26.4 4.3 37 12.2 12.3-31.1 42.2-51.6 76.1-51.6 37.3 0 69.8 25.4 79.2 61 6.8-3 14.2-4.6 21.7-4.6 26.6 0 48.8 19.1 52.9 44.9H454c2.2 0 4 1.8 4 4s-1.8 4-4 4"/><path id="Fill-104" class="st3" d="M454 678.5h-82.1c-2.1 0-3.8-1.6-4-3.6-2.2-23.5-21.7-41.3-45.4-41.3-7.9 0-15.7 2.1-22.5 5.9-1.1.6-2.5.7-3.7.2-1.2-.5-2-1.6-2.3-2.9-6.7-34.5-37.2-59.6-72.5-59.6-32.4 0-60.7 20.7-70.4 51.5-.4 1.3-1.5 2.3-2.8 2.7-1.3.4-2.7 0-3.7-.9-10-9-22.8-13.9-36.2-13.9-29.8 0-54.1 24.2-54.1 54 0 1.1 0 2.2.1 3.6.1 1.1-.3 2.2-1.1 3-.8.8-1.8 1.3-2.9 1.3H4c-2.2 0-4-1.8-4-4s1.8-4 4-4h42.3c.1-34.2 27.9-61.9 62.1-61.9 13.4 0 26.4 4.3 37 12.2 12.3-31.1 42.2-51.6 76.1-51.6 37.3 0 69.8 25.4 79.2 61 6.8-3 14.2-4.6 21.7-4.6 26.6 0 48.8 19.1 52.9 44.9H454c2.2 0 4 1.8 4 4s-1.8 4-4 4"/></g></g></g></svg>