<svg id="Layer_1" xmlns="http://www.w3.org/2000/svg" viewBox="0 0 768 768"><style>.st0{fill:#fff}.st1{opacity:.4}.st2,.st3{fill:#0073ec}.st3{opacity:.4;enable-background:new}.st4{fill:#a644e5}</style><g id="Layer_2_1_"><g id="Layer_1-2"><path class="st0" d="M10.3 583.3h284s7 25 47 31h48s48 1 57-4c0 0 21-12 29-27l281.5-.5s14 57-31 66h-35s-31-27-71 0c0 0-31-70-102-43 0 0-24 3-45 43h-430s-29-1-32-36l-.5-29.5z"/><path class="st0" d="M64.8 165.1c0-19.9 16.1-36 36-36h576.4c19.9 0 36 16.1 36 36v410.1H472.3c-1.6 0-3 .9-3.7 2.4-7.6 17.4-24.8 28.7-43.8 28.7h-81.9c-19 0-36.2-11.3-43.8-28.8-.6-1.5-2.1-2.4-3.7-2.4H64.8v-410z"/><g class="st1"><path class="st2" d="M295.4 579.2c8.2 18.9 26.9 31.1 47.5 31.1h81.9c20.6 0 39.3-12.2 47.5-31.1h197.5V172.4H100.1v406.7h195.3v.1z"/></g><path class="st0" d="M160.8 222.1h440.8v319.1H160.8z"/><circle class="st2" cx="192.7" cy="247.7" r="9.2"/><circle class="st2" cx="229.7" cy="247.7" r="9.2"/><circle class="st2" cx="266.6" cy="247.7" r="9.2"/><g class="st1"><path class="st2" d="M160.8 450h139.8V335.3h-32V418H160.8z"/></g><path class="st2" d="M601.5 218.1H160.8c-2.2 0-4 1.8-4 4v319.1c0 2.2 1.8 4 4 4h440.8c2.2 0 4-1.8 4-4V222.1c-.1-2.2-1.9-4-4.1-4zm-4 8v43.5H164.8v-43.5h432.7zM164.8 537.2V277.6h432.8v259.6H164.8z"/><path class="st0" d="M82.8 303.3h185.9v114.6H82.8z"/><path class="st2" d="M287.8 317.3h-16.5c-2.2 0-4-1.8-4-4s1.8-4 4-4h16.5c2.2 0 4 1.8 4 4s-1.8 4-4 4zM326 317.3h-19.1c-2.2 0-4-1.8-4-4s1.8-4 4-4H326c2.2 0 4 1.8 4 4s-1.8 4-4 4zM361.5 333.8c-2.2 0-4-1.8-4-4v-12.5H345c-2.2 0-4-1.8-4-4s1.8-4 4-4h16.5c2.2 0 4 1.8 4 4v16.5c0 2.2-1.7 4-4 4zM361.5 388.3c-2.2 0-4-1.8-4-4v-27.2c0-2.2 1.8-4 4-4s4 1.8 4 4v27.2c0 2.2-1.7 4-4 4zM361.5 432H345c-2.2 0-4-1.8-4-4s1.8-4 4-4h12.5v-12.5c0-2.2 1.8-4 4-4s4 1.8 4 4V428c0 2.2-1.8 4-4 4zM327.8 432h-16.5c-2.2 0-4-1.8-4-4s1.8-4 4-4h16.5c2.2 0 4 1.8 4 4s-1.8 4-4 4z"/><path class="st2" d="M268.6 299.3H82.8c-2.2 0-4 1.8-4 4V418c0 2.2 1.8 4 4 4h185.8c2.2 0 4-1.8 4-4V303.3c0-2.2-1.8-4-4-4zm-4 8v100.4l-63.9-63.9c-.8-.8-2-1.2-3.1-1.2-1.2.1-2.2.7-2.9 1.6l-27.5 37.4-52.5-52.5c-1.6-1.5-4.1-1.5-5.7.1-.1.1-.2.3-.3.4l-21.8 29.6v-51.9h177.7zM86.8 372.7l25.5-34.6 61.3 61.3c1.5 1.6 4.1 1.7 5.7.1 1.6-1.5 1.7-4.1.1-5.7l-.1-.1-6.4-6.4 25.5-34.6 61.1 61.1H86.8v-41.1z"/><path class="st3" d="M264.6 307.3v100.4l-63.9-63.9c-.8-.8-2-1.2-3.1-1.2-1.2.1-2.2.7-2.9 1.6l-27.5 37.4-52.5-52.5c-1.6-1.5-4.1-1.5-5.7.1-.1.1-.2.3-.3.4l-21.8 29.6v-51.9h177.7z"/><path class="st2" d="M162.7 353.4c-10.4 0-18.8-8.4-18.8-18.8s8.4-18.8 18.8-18.8 18.8 8.4 18.8 18.8c-.1 10.4-8.5 18.8-18.8 18.8zm0-29.6c-5.9 0-10.8 4.8-10.8 10.8 0 5.9 4.8 10.8 10.8 10.8 5.9 0 10.8-4.8 10.8-10.8-.1-5.9-4.9-10.7-10.8-10.8zM477.6 317.3h-62.5c-2.2 0-4-1.8-4-4s1.8-4 4-4h62.5c2.2 0 4 1.8 4 4s-1.8 4-4 4zM555.8 343.4H415.1c-2.2 0-4-1.8-4-4s1.8-4 4-4h140.7c2.2 0 4 1.8 4 4s-1.8 4-4 4zM555.8 369.5H415.1c-2.2 0-4-1.8-4-4s1.8-4 4-4h140.7c2.2 0 4 1.8 4 4s-1.8 4-4 4zM541 432H415.1c-2.2 0-4-1.8-4-4v-32.1c0-2.2 1.8-4 4-4H541c2.2 0 4 1.8 4 4V428c0 2.2-1.8 4-4 4zm-121.9-8H537v-24.1H419.1V424zM563 475.4H193.6c-2.2 0-4-1.8-4-4s1.8-4 4-4H563c2.2 0 4 1.8 4 4s-1.8 4-4 4zM563.7 503.2h-370c-2.2 0-4-1.8-4-4s1.8-4 4-4h370c2.2 0 4 1.8 4 4s-1.8 4-4 4z"/><circle class="st2" cx="384.7" cy="151.7" r="9.2"/><path class="st0" d="M694.9 34.5l-4.4 8c-2.5 4.5-6.2 8.3-10.7 10.7l-8 4.4 8 4.4c4.5 2.5 8.2 6.2 10.7 10.7l4.4 8 4.4-8c2.5-4.5 6.2-8.3 10.7-10.8l8-4.4-8-4.4c-4.5-2.5-8.3-6.2-10.8-10.7l-4.3-7.9zM555.8 720.4l-4.4 8c-2.5 4.5-6.2 8.2-10.7 10.7l-8 4.4 8 4.4c4.5 2.5 8.2 6.2 10.7 10.7l4.4 8 4.4-8c2.5-4.5 6.2-8.3 10.7-10.7l8-4.4-8-4.4c-4.5-2.5-8.2-6.2-10.7-10.7l-4.4-8z"/><circle class="st0" cx="754.7" cy="13" r="7.9"/><g class="st1"><path class="st4" d="M694.9 34.5l-4.4 8c-2.5 4.5-6.2 8.3-10.7 10.7l-8 4.4 8 4.4c4.5 2.5 8.2 6.2 10.7 10.7l4.4 8 4.4-8c2.5-4.5 6.2-8.3 10.7-10.8l8-4.4-8-4.4c-4.5-2.5-8.3-6.2-10.8-10.7l-4.3-7.9z"/></g><g class="st1"><path class="st4" d="M555.8 720.4l-4.4 8c-2.5 4.5-6.2 8.2-10.7 10.7l-8 4.4 8 4.4c4.5 2.5 8.2 6.2 10.7 10.7l4.4 8 4.4-8c2.5-4.5 6.2-8.3 10.7-10.7l8-4.4-8-4.4c-4.5-2.5-8.2-6.2-10.7-10.7l-4.4-8z"/></g><g class="st1"><circle class="st4" cx="754.7" cy="13" r="7.9"/></g><path class="st3" d="M419.1 399.8H537v24.1H419.1z"/><circle class="st0" cx="162.7" cy="334.6" r="10.8"/><path class="st2" d="M761.1 575.2h-39.8V165.1c0-24.3-19.7-44-44-44H100.8c-24.3 0-44 19.7-44 44v410.1H6.7c-2.2 0-4 1.8-4 4v33.6c0 24.3 19.7 44 44 44H470l2.7-8h-426c-19.9 0-36-16.1-36-36v-29.6h282.2c9.4 19.1 28.8 31.1 50.1 31.1h81.9c21.2 0 40.7-12.1 50.1-31.1h282.2v29.6c0 19.9-16.1 36-36 36H691c3.2 2.3 6.2 5 8.8 8h21.4c24.3 0 44-19.7 44-44v-33.6c-.1-2.3-1.9-4-4.1-4zm-47.9 0H472.3c-1.6 0-3 .9-3.7 2.4-7.6 17.4-24.8 28.7-43.8 28.7h-81.9c-19 0-36.2-11.3-43.8-28.8-.6-1.5-2.1-2.4-3.7-2.4H64.8v-410c0-19.9 16.1-36 36-36h576.4c19.9 0 36 16.1 36 36v410.1z"/><path class="st0" d="M223.4 705.2H136c-2.2 0-4-1.8-4-4s1.8-4 4-4h87.3c2.2 0 4 1.8 4 4s-1.7 4-3.9 4zM763.7 705.2h-52.2c-2.2 0-4-1.8-4-4v-.3c.1-1.3.1-2.4.1-3.5 0-28.8-23.4-52.1-52.2-52.1-12.9 0-25.3 4.8-34.8 13.4-1.6 1.5-4.2 1.3-5.6-.3-.4-.4-.7-.9-.8-1.5-11.9-37.5-51.9-58.3-89.4-46.4-24.9 7.9-43.4 28.7-48.4 54.3-.4 2.2-2.5 3.6-4.7 3.2-.4-.1-.8-.2-1.2-.4-21.1-12-47.9-4.6-59.9 16.5-3.1 5.4-4.9 11.4-5.5 17.6-.2 2.1-1.9 3.6-4 3.6H257.4c-2.2 0-4-1.8-4-4s1.8-4 4-4h140.1c4.7-28.3 31.4-47.4 59.7-42.7 4.3.7 8.4 1.9 12.4 3.7 11.2-42.3 54.6-67.5 96.9-56.3 24.2 6.4 44 23.9 53.3 47.2 26.7-19.7 64.4-14 84.1 12.7 7.6 10.3 11.7 22.7 11.7 35.5h48.1c2.2 0 4 1.8 4 4s-1.8 3.8-4 3.8zM458.4 83.9h-96.9c-1.7 0-3.2-1.1-3.8-2.7-9.2-26.6-38.3-40.8-65-31.5-6.4 2.2-12.4 5.7-17.4 10.3-1.6 1.5-4.2 1.3-5.6-.3-.4-.4-.7-.9-.8-1.5-11.7-36.7-50.9-57.1-87.7-45.5-29 9.2-48.8 36.1-48.8 66.5v.7c0 2.2-1.8 4-4 4H74.1c-2.2 0-4-1.8-4-4s1.8-4 4-4h50.4C126.4 33 162.7-.3 205.6 1.6 236.1 2.9 263 22 274.4 50.4 300.7 31 337.7 36.7 357 62.9c3 4 5.4 8.4 7.2 13h94.2c2.2 0 4 1.8 4 4s-1.8 4-4 4zM33.6 83.3H4.3c-2.2 0-4-1.8-4-4s1.8-4 4-4h29.3c2.2 0 4 1.8 4 4s-1.8 4-4 4z"/><g class="st1"><path class="st4" d="M223.4 705.2H136c-2.2 0-4-1.8-4-4s1.8-4 4-4h87.3c2.2 0 4 1.8 4 4s-1.7 4-3.9 4z"/></g><g class="st1"><path class="st4" d="M763.7 705.2h-52.2c-2.2 0-4-1.8-4-4v-.3c.1-1.3.1-2.4.1-3.5 0-28.8-23.4-52.1-52.2-52.1-12.9 0-25.3 4.8-34.8 13.4-1.6 1.5-4.2 1.3-5.6-.3-.4-.4-.7-.9-.8-1.5-11.9-37.5-51.9-58.3-89.4-46.4-24.9 7.9-43.4 28.7-48.4 54.3-.4 2.2-2.5 3.6-4.7 3.2-.4-.1-.8-.2-1.2-.4-21.1-12-47.9-4.6-59.9 16.5-3.1 5.4-4.9 11.4-5.5 17.6-.2 2.1-1.9 3.6-4 3.6H257.4c-2.2 0-4-1.8-4-4s1.8-4 4-4h140.1c4.7-28.3 31.4-47.4 59.7-42.7 4.3.7 8.4 1.9 12.4 3.7 11.2-42.3 54.6-67.5 96.9-56.3 24.2 6.4 44 23.9 53.3 47.2 26.7-19.7 64.4-14 84.1 12.7 7.6 10.3 11.7 22.7 11.7 35.5h48.1c2.2 0 4 1.8 4 4s-1.8 3.8-4 3.8z"/></g><g class="st1"><path class="st4" d="M458.4 83.9h-96.9c-1.7 0-3.2-1.1-3.8-2.7-9.2-26.6-38.3-40.8-65-31.5-6.4 2.2-12.4 5.7-17.4 10.3-1.6 1.5-4.2 1.3-5.6-.3-.4-.4-.7-.9-.8-1.5-11.7-36.7-50.9-57.1-87.7-45.5-29 9.2-48.8 36.1-48.8 66.5v.7c0 2.2-1.8 4-4 4H74.1c-2.2 0-4-1.8-4-4s1.8-4 4-4h50.4C126.4 33 162.7-.3 205.6 1.6 236.1 2.9 263 22 274.4 50.4 300.7 31 337.7 36.7 357 62.9c3 4 5.4 8.4 7.2 13h94.2c2.2 0 4 1.8 4 4s-1.8 4-4 4z"/></g><g class="st1"><path class="st4" d="M33.6 83.3H4.3c-2.2 0-4-1.8-4-4s1.8-4 4-4h29.3c2.2 0 4 1.8 4 4s-1.8 4-4 4z"/></g></g></g></svg>