<svg id="Layer_1" data-name="Layer 1" xmlns="http://www.w3.org/2000/svg" viewBox="0 0 768 768"><defs><style>.cls-1{fill:#fff}.cls-2,.cls-4{opacity:.4}.cls-3{fill:#a644e5}.cls-4,.cls-5{fill:#0073ec}</style></defs><path class="cls-1" d="M644.81 157.28A347.59 347.59 0 0 1 728.49 384c0 192.75-156.26 349-349 349a347.72 347.72 0 0 1-235.33-91.28A348.22 348.22 0 0 0 409.49 764c192.74 0 349-156.25 349-349a348 348 0 0 0-113.68-257.72z"/><g class="cls-2"><path class="cls-3" d="M644.81 157.28A347.59 347.59 0 0 1 728.49 384c0 192.75-156.26 349-349 349a347.72 347.72 0 0 1-235.33-91.28A348.22 348.22 0 0 0 409.49 764c192.74 0 349-156.25 349-349a348 348 0 0 0-113.68-257.72z"/></g><path class="cls-1" d="M380 35a347.48 347.48 0 0 0-166.68 42.3l-84.65-.63 1.21 63.94a351.27 351.27 0 0 0-31 36.55l-39-1.45.73 67.51A347.88 347.88 0 0 0 31 384c0 192.75 156.25 349 349 349s349-156.25 349-349S572.75 35 380 35z"/><circle class="cls-4" cx="380.29" cy="386.31" r="311.7"/><path class="cls-1" d="M161.1 41.62h53v30.81h-53z"/><path class="cls-4" d="M161.1 41.62h53v30.81h-53z"/><path class="cls-1" d="M65 179.71h129.1V385a4 4 0 0 0 8 0V175.71a4 4 0 0 0-4-4h-65v-90.8h109v332.16a4 4 0 0 0 8 0V146.89h110.41V322.6h.12l-87 119.31a40.1 40.1 0 0 0-24.87-8.62H224l-21-34.6a4 4 0 0 0-3.41-1.92h-62.2a4 4 0 0 0-3.44 6l2 3.33a18.11 18.11 0 0 0-11.32 6.58A18.11 18.11 0 0 0 92.28 424v9.26H65z"/><path class="cls-4" d="M65 179.71h129.1V385a4 4 0 0 0 8 0V175.71a4 4 0 0 0-4-4h-65v-90.8h109v332.16a4 4 0 0 0 8 0V146.89h110.41V322.6h.12l-87 119.31a40.1 40.1 0 0 0-24.87-8.62H224l-21-34.6a4 4 0 0 0-3.41-1.92h-62.2a4 4 0 0 0-3.44 6l2 3.33a18.11 18.11 0 0 0-11.32 6.58A18.11 18.11 0 0 0 92.28 424v9.26H65z"/><path class="cls-1" d="M37.75 437h222.36l19.95 18.75 6.94 44.17-93.5-1s2.3-21.43-25.35-28.43c0 0-25.4 1.34-25.65 29.42H96.75s.45-31.17-28.15-29.17c0 0-15.63 6.49-21.49 18.37z"/><path class="cls-4" d="M37.75 437h222.36l19.95 18.75 6.94 44.17-93.5-1s2.3-21.43-25.35-28.43c0 0-25.4 1.34-25.65 29.42H96.75s.45-31.17-28.15-29.17c0 0-15.63 6.49-21.49 18.37z"/><path class="cls-5" d="M444.44 627.9a54.16 54.16 0 0 1-32.53-10.77l-1.33-1a46.07 46.07 0 0 0-54.17-.88l-2.76 1.93a54.17 54.17 0 0 1-44.32 8.14 4 4 0 0 1 1.95-7.76 46.1 46.1 0 0 0 37.78-6.94l2.76-1.93a54.07 54.07 0 0 1 63.56 1l1.33 1a46.37 46.37 0 0 0 52.48 2l10-6.37a54.43 54.43 0 0 1 61.58 2.37 4 4 0 1 1-4.8 6.4 46.39 46.39 0 0 0-52.48-2l-10 6.37a54 54 0 0 1-29.05 8.44zM203.55 627a53.94 53.94 0 0 1-13.26-1.65 4 4 0 0 1 2-7.76 46.1 46.1 0 0 0 37.71-6.97l2.76-1.93a54.07 54.07 0 0 1 63.56 1l1.33 1a4 4 0 1 1-4.8 6.4l-1.33-1a46.05 46.05 0 0 0-54.17-.88l-2.76 1.93a54.2 54.2 0 0 1-31.04 9.86zM508.38 676.16a4 4 0 0 1-2.4-.8 46.39 46.39 0 0 0-52.48-2 4 4 0 1 1-4.3-6.75 54.43 54.43 0 0 1 61.58 2.39 4 4 0 0 1-2.4 7.2zM414.44 688.12a54.16 54.16 0 0 1-32.53-10.77l-1.33-1a46.07 46.07 0 0 0-54.17-.89l-2.76 1.93a54.14 54.14 0 0 1-44.32 8.15 4 4 0 0 1 1.95-7.76 46.1 46.1 0 0 0 37.78-6.94l2.76-1.93a54.05 54.05 0 0 1 63.56 1l1.33 1a46.37 46.37 0 0 0 52.48 2 4 4 0 1 1 4.3 6.75 54 54 0 0 1-29.05 8.46z"/><path class="cls-1" d="M697.44 49l-4.17 7.59A25.7 25.7 0 0 1 683 66.82L675.43 71l7.57 4.12a25.7 25.7 0 0 1 10.23 10.21l4.17 7.59 4.16-7.59a25.73 25.73 0 0 1 10.24-10.21l7.65-4.12-7.61-4.15a25.73 25.73 0 0 1-10.24-10.24z"/><ellipse class="cls-1" cx="751.49" cy="10.49" rx="7.51" ry="7.49"/><path class="cls-1" d="M697.44 49l-4.17 7.59A25.7 25.7 0 0 1 683 66.82L675.43 71l7.57 4.12a25.7 25.7 0 0 1 10.23 10.21l4.17 7.59 4.16-7.59a25.73 25.73 0 0 1 10.24-10.21l7.65-4.12-7.61-4.15a25.73 25.73 0 0 1-10.24-10.24zM50.44 637l-4.17 7.59A25.7 25.7 0 0 1 36 654.82L28.43 659l7.57 4.12a25.7 25.7 0 0 1 10.23 10.21l4.17 7.59 4.16-7.59a25.73 25.73 0 0 1 10.24-10.21l7.65-4.12-7.61-4.15a25.73 25.73 0 0 1-10.24-10.24zM707.44 699l-4.17 7.59A25.7 25.7 0 0 1 693 716.82l-7.57 4.18 7.61 4.15a25.7 25.7 0 0 1 10.23 10.21l4.17 7.59 4.16-7.59a25.73 25.73 0 0 1 10.24-10.21l7.61-4.15-7.61-4.15a25.73 25.73 0 0 1-10.24-10.21z"/><ellipse class="cls-1" cx="751.49" cy="10.49" rx="7.51" ry="7.49"/><path class="cls-5" d="M492.17 224.5A42.81 42.81 0 1 1 535 181.69a42.86 42.86 0 0 1-42.83 42.81zm0-77.61a34.81 34.81 0 1 0 34.83 34.8 34.85 34.85 0 0 0-34.83-34.8zM158.1 164.5a4 4 0 0 1-4-4v-57.65a4 4 0 0 1 8 0v57.65a4 4 0 0 1-4 4zM178.1 164.5a4 4 0 0 1-4-4v-57.65a4 4 0 0 1 8 0v57.65a4 4 0 0 1-4 4zM198.1 164.78a4 4 0 0 1-4-4v-57.93a4 4 0 0 1 8 0v57.93a4 4 0 0 1-4 4zM178.1 65.67a4 4 0 0 1-4-4v-8.82a4 4 0 1 1 8 0v8.82a4 4 0 0 1-4 4zM198.1 65.67a4 4 0 0 1-4-4v-8.82a4 4 0 1 1 8 0v8.82a4 4 0 0 1-4 4zM218.1 394.78a4 4 0 0 1-4-4V102.85a4 4 0 0 1 8 0v287.93a4 4 0 0 1-4 4z"/><path class="cls-1" d="M144.36 404.77h52.93l20.81 33.56h-58l-15.74-33.56z"/><circle class="cls-5" cx="100.1" cy="212.34" r="5.5"/><circle class="cls-5" cx="130.1" cy="212.34" r="5.5"/><circle class="cls-5" cx="160.1" cy="212.34" r="5.5"/><circle class="cls-5" cx="100.1" cy="242.34" r="5.5"/><circle class="cls-5" cx="130.1" cy="242.34" r="5.5"/><circle class="cls-5" cx="160.1" cy="242.34" r="5.5"/><circle class="cls-5" cx="100.1" cy="272.34" r="5.5"/><circle class="cls-5" cx="130.1" cy="272.34" r="5.5"/><circle class="cls-5" cx="160.1" cy="272.34" r="5.5"/><circle class="cls-5" cx="100.1" cy="302.34" r="5.5"/><circle class="cls-5" cx="130.1" cy="302.34" r="5.5"/><circle class="cls-5" cx="160.1" cy="302.34" r="5.5"/><circle class="cls-5" cx="100.1" cy="332.34" r="5.5"/><circle class="cls-5" cx="130.1" cy="332.34" r="5.5"/><circle class="cls-5" cx="160.1" cy="332.34" r="5.5"/><circle class="cls-5" cx="100.1" cy="362.34" r="5.5"/><circle class="cls-5" cx="130.1" cy="362.34" r="5.5"/><circle class="cls-5" cx="160.1" cy="362.34" r="5.5"/><path class="cls-5" d="M334.59 179.71H273.1a4 4 0 0 1 0-8h61.49a4 4 0 0 1 0 8zM334.59 199.71H273.1a4 4 0 0 1 0-8h61.49a4 4 0 0 1 0 8zM334.59 219.71H273.1a4 4 0 0 1 0-8h61.49a4 4 0 0 1 0 8zM334.59 239.71H273.1a4 4 0 0 1 0-8h61.49a4 4 0 0 1 0 8zM334.59 259.71H273.1a4 4 0 0 1 0-8h61.49a4 4 0 1 1 0 8zM334.59 279.71H273.1a4 4 0 0 1 0-8h61.49a4 4 0 0 1 0 8zM334.59 299.71H273.1a4 4 0 0 1 0-8h61.49a4 4 0 0 1 0 8zM334.59 319.71H273.1a4 4 0 0 1 0-8h61.49a4 4 0 0 1 0 8zM334.59 339.71H273.1a4 4 0 0 1 0-8h61.49a4 4 0 0 1 0 8zM314.59 359.71H273.1a4 4 0 0 1 0-8h41.49a4 4 0 0 1 0 8zM294.59 379.71H273.1a4 4 0 0 1 0-8h21.49a4 4 0 0 1 0 8z"/><path class="cls-1" d="M189.26 496.07A21.11 21.11 0 1 1 168.15 475a21.13 21.13 0 0 1 21.11 21.07z"/><path class="cls-5" d="M168.15 507.92A11.85 11.85 0 1 1 180 496.07a11.87 11.87 0 0 1-11.85 11.85zm0-15.7a3.85 3.85 0 1 0 3.85 3.85 3.86 3.86 0 0 0-3.85-3.85z"/><path class="cls-1" d="M60 513.45q-4.59-11.36-8.36-23c.05-.13.12-.25.16-.39a21.1 21.1 0 1 1 8.43 23.55c-.05-.08-.13-.11-.23-.16z"/><path class="cls-5" d="M72.45 507.92a11.85 11.85 0 1 1 11.85-11.85 11.86 11.86 0 0 1-11.85 11.85zm0-15.7a3.85 3.85 0 1 0 3.85 3.85 3.86 3.86 0 0 0-3.85-3.85z"/><circle class="cls-1" cx="215.62" cy="469" r="9.69"/><circle class="cls-1" cx="260.1" cy="469" r="9.69"/><path class="cls-5" d="M185.63 431a4.14 4.14 0 0 1-1.33-.23L161 422.5a4 4 0 0 1 2.7-7.5l23.3 8.22a4 4 0 0 1-1.34 7.77zM194.43 421a3.9 3.9 0 0 1-1.34-.23l-14.46-5.13a4 4 0 0 1 2.68-7.54l14.45 5.13a4 4 0 0 1-1.33 7.77z"/><path class="cls-1" d="M492.17 146.89a34.81 34.81 0 1 0 34.83 34.8 34.85 34.85 0 0 0-34.83-34.8z"/><g class="cls-2"><path class="cls-3" d="M697.44 49l-4.17 7.59A25.7 25.7 0 0 1 683 66.82L675.43 71l7.57 4.12a25.7 25.7 0 0 1 10.23 10.21l4.17 7.59 4.16-7.59a25.73 25.73 0 0 1 10.24-10.21l7.65-4.12-7.61-4.15a25.73 25.73 0 0 1-10.24-10.24z"/></g><g class="cls-2"><path class="cls-3" d="M50.44 637l-4.17 7.59A25.7 25.7 0 0 1 36 654.82L28.43 659l7.57 4.12a25.7 25.7 0 0 1 10.23 10.21l4.17 7.59 4.16-7.59a25.73 25.73 0 0 1 10.24-10.21l7.65-4.12-7.61-4.15a25.73 25.73 0 0 1-10.24-10.24z"/></g><g class="cls-2"><path class="cls-3" d="M707.44 699l-4.17 7.59A25.7 25.7 0 0 1 693 716.82l-7.57 4.18 7.61 4.15a25.7 25.7 0 0 1 10.23 10.21l4.17 7.59 4.16-7.59a25.73 25.73 0 0 1 10.24-10.21l7.61-4.15-7.61-4.15a25.73 25.73 0 0 1-10.24-10.21z"/></g><g class="cls-2"><ellipse class="cls-3" cx="751.49" cy="10.49" rx="7.51" ry="7.49"/></g><path class="cls-1" d="M140.28 413.57L152 433.29h-23.43V424a10.13 10.13 0 0 1 10.12-10.13 4 4 0 0 0 1.59-.3zM120.53 424v9.26h-20.25V424a10.13 10.13 0 1 1 20.25 0zM64.58 524.19a29 29 0 0 0 35.76-21.27h38.35a3.82 3.82 0 0 0 1.13-.18 29.1 29.1 0 0 0 56.62.18h35.4a28.93 28.93 0 0 0 28.07 22.26h.21a29.14 29.14 0 0 0 28.81-25.06 4 4 0 0 0 .21-1.2v-.69c0-.65.08-1.3.08-2a4.6 4.6 0 0 0-.08-.84v-21.8a40.15 40.15 0 0 0-9.64-26.12l112.2-154a35.69 35.69 0 0 1 28.69-14.72h.37a35.68 35.68 0 0 1 28.6 14.25L491 347.49a4 4 0 0 0 1.11 1L343 552.29a18.36 18.36 0 0 1-14.78 7.51l-245.07.28a339.61 339.61 0 0 1-18.57-35.89z"/><path class="cls-5" d="M344.17 520.05H304a4 4 0 0 1 0-8h40.17a4 4 0 1 1 0 8z"/><path class="cls-5" d="M741.12 406.56a35.65 35.65 0 0 0-8.41-8.73c.18-4.6.29-9.2.29-13.83A353.12 353.12 0 0 0 222.1 68.21V37.62a4 4 0 0 0-4-4h-61a4 4 0 0 0-4 4v35.29h-24a4 4 0 0 0-4 4v62.9a355.43 355.43 0 0 0-27.1 31.9H61a4 4 0 0 0-4 4v65.68a353.08 353.08 0 1 0 648.26 280 349.61 349.61 0 0 0 26.91-113.31 27.83 27.83 0 0 1 2.33 3 27.42 27.42 0 0 1 4.29 20.67 4 4 0 0 0 3.21 4.65 3.81 3.81 0 0 0 .75.07 4 4 0 0 0 3.93-3.25 35.35 35.35 0 0 0-5.56-26.66zM380 39a345 345 0 0 1 344.8 333.69l-89.51-124.57-.07-.09a43.61 43.61 0 0 0-35-17.3h-.46a43.63 43.63 0 0 0-35.07 18L496.84 342l-41.12-53.86a44 44 0 0 0-70.48.72l-16.73 23V142.89a4 4 0 0 0-4-4H250.1v-62a4 4 0 0 0-4-4h-15.4A346.13 346.13 0 0 1 380 39zm-218.9 2.62h53v30.8h-53zm-36 109.89v20.2h-17c5.37-6.93 11.07-13.71 17-20.2zM65 179.71h129.1V385a4 4 0 0 0 8 0V175.71a4 4 0 0 0-4-4h-65v-90.8h109v332.16a4 4 0 0 0 8 0V146.89h110.41V322.6h.12l-87 119.31a40.1 40.1 0 0 0-24.87-8.62H224l-21-34.6a4 4 0 0 0-3.41-1.92h-62.2a4 4 0 0 0-3.44 6l2 3.33a18.11 18.11 0 0 0-11.32 6.58A18.11 18.11 0 0 0 92.28 424v9.26H65zm75.28 233.86L152 433.29h-23.43V424a10.13 10.13 0 0 1 10.12-10.13 4 4 0 0 0 1.59-.3zM120.53 424v9.26h-20.25V424a10.13 10.13 0 1 1 20.25 0zM35 384a342.84 342.84 0 0 1 22-121.5v170.79H38.49A348.74 348.74 0 0 1 35 384zm13.28 95.3a342.26 342.26 0 0 1-8.57-38H159a4 4 0 0 0 3.44-6l-18.1-30.48h52.93L214.49 433H176a4 4 0 0 0 0 8h44.29a4 4 0 0 0 1.5.29h27a32.38 32.38 0 0 1 32.34 32.34v21.29h-83.9a29.1 29.1 0 0 0-58.16 0H101.13a29.09 29.09 0 0 0-52.85-15.62zm141 16.77A21.11 21.11 0 1 1 168.15 475a21.13 21.13 0 0 1 21.11 21.07zM60 513.45q-4.59-11.36-8.36-23c.05-.13.12-.25.16-.39a21.1 21.1 0 1 1 8.43 23.55c-.05-.08-.13-.11-.23-.16zm4.56 10.74a29 29 0 0 0 35.76-21.27h38.35a3.82 3.82 0 0 0 1.13-.18 29.1 29.1 0 0 0 56.62.18h35.4a28.93 28.93 0 0 0 28.07 22.26h.21a29.14 29.14 0 0 0 28.81-25.06 4 4 0 0 0 .21-1.2v-.69c0-.65.08-1.3.08-2a4.6 4.6 0 0 0-.08-.84v-21.8a40.15 40.15 0 0 0-9.64-26.12l112.2-154a35.69 35.69 0 0 1 28.69-14.72h.37A35.68 35.68 0 0 1 449.36 293L491 347.49a4 4 0 0 0 1.11 1L343 552.29a18.36 18.36 0 0 1-14.78 7.51H290l-206.83.24a339.61 339.61 0 0 1-18.59-35.85zM380 729a344.37 344.37 0 0 1-240.16-97.29 348.28 348.28 0 0 1-51.79-63.63l235.11-.53h238.15a277.1 277.1 0 0 0 7.1 105.57A342.61 342.61 0 0 1 380 729zm244-101a348.36 348.36 0 0 1-48.51 40.44 269 269 0 0 1-6.06-100.84h99.47c.29 1.3.58 2.61.88 3.92A347.89 347.89 0 0 1 624 628zm53-68.11h-1.5A269.5 269.5 0 0 1 678.67 444l2.94-11.75a15.41 15.41 0 0 1 29.28 9 4 4 0 0 0 3.18 4.68 3.81 3.81 0 0 0 .75.07 4 4 0 0 0 3.93-3.25 23.4 23.4 0 0 0-33-25.54 27.6 27.6 0 0 1 31.12-17.76 27.83 27.83 0 0 1 7.66 2.66A342.1 342.1 0 0 1 677 559.84zm47.86-166.39a36.38 36.38 0 0 0-6.51-1.89 35.63 35.63 0 0 0-35 13.46 36 36 0 0 0-9.49-16 34.6 34.6 0 0 0-13.07-8.07 35.6 35.6 0 0 0-46.67 26.81 4.08 4.08 0 0 0 2.38 4.59 4 4 0 0 0 5.46-3 27.58 27.58 0 0 1 54.49 8.25 23.4 23.4 0 0 0-42.21 8.86 4.06 4.06 0 0 0 2.41 4.56 4 4 0 0 0 5.43-3 15.42 15.42 0 1 1 30.29 5.77 3.88 3.88 0 0 0 .1 1.86l-1.56 6.26a277.55 277.55 0 0 0-3.6 117.78h-96.82q1.83-11.55 4.68-23l3-11.75a15.41 15.41 0 0 1 29.28 9 4.14 4.14 0 0 0 3.46 4.8h.47a4 4 0 0 0 3.92-3.25 23.39 23.39 0 0 0-33-25.54 27.58 27.58 0 0 1 53.07 14.32 4.13 4.13 0 0 0 2.86 4.79 4.25 4.25 0 0 0 1.05.13 4 4 0 0 0 3.92-3.25A35.59 35.59 0 0 0 579.82 498a35.57 35.57 0 0 0-69.19 2.74 4.08 4.08 0 0 0 2.37 4.59 4 4 0 0 0 5.46-3 27.57 27.57 0 0 1 54.54 8.26 23.19 23.19 0 0 0-14.84-9.65 23.44 23.44 0 0 0-27.35 18.43 4.11 4.11 0 0 0 3 4.83 4 4 0 0 0 4.83-3.15 15.42 15.42 0 1 1 30.29 5.77 3.92 3.92 0 0 0 .11 1.87l-1.57 6.25q-3.09 12.34-5 24.9H348.56L571.2 253.46a35.73 35.73 0 0 1 28.69-14.73h.37a35.69 35.69 0 0 1 28.57 14.11l95.92 133.49c.07.09.15.17.22.25.03 2.31-.05 4.62-.11 6.92z"/><path class="cls-1" d="M280.06 502.92a21.13 21.13 0 0 1-19.94 14.26H260a21 21 0 0 1-19.82-14.26zM677 559.84h-1.5A269.5 269.5 0 0 1 678.67 444l2.94-11.75a15.41 15.41 0 0 1 29.28 9 4 4 0 0 0 3.18 4.68 3.81 3.81 0 0 0 .75.07 4 4 0 0 0 3.93-3.25 23.4 23.4 0 0 0-33-25.54 27.6 27.6 0 0 1 31.12-17.76 27.83 27.83 0 0 1 7.66 2.66A342.1 342.1 0 0 1 677 559.84z"/><path class="cls-1" d="M724.86 393.5a36.38 36.38 0 0 0-6.51-1.89 35.63 35.63 0 0 0-35 13.46 36 36 0 0 0-9.49-16 34.6 34.6 0 0 0-13.07-8.07 35.6 35.6 0 0 0-46.67 26.81 4.08 4.08 0 0 0 2.38 4.59 4 4 0 0 0 5.46-3 27.58 27.58 0 0 1 54.49 8.25 23.4 23.4 0 0 0-42.21 8.86 4.06 4.06 0 0 0 2.41 4.56 4 4 0 0 0 5.43-3 15.42 15.42 0 1 1 30.29 5.77 3.88 3.88 0 0 0 .1 1.86l-1.56 6.26a277.55 277.55 0 0 0-3.6 117.78h-96.82q1.83-11.55 4.68-23l3-11.75a15.41 15.41 0 0 1 29.28 9 4.14 4.14 0 0 0 3.46 4.8h.47a4 4 0 0 0 3.92-3.25 23.39 23.39 0 0 0-33-25.54 27.58 27.58 0 0 1 53.07 14.32 4.13 4.13 0 0 0 2.86 4.79 4.25 4.25 0 0 0 1.05.13 4 4 0 0 0 3.92-3.25A35.59 35.59 0 0 0 579.82 498a35.57 35.57 0 0 0-69.19 2.74 4.08 4.08 0 0 0 2.37 4.59 4 4 0 0 0 5.46-3 27.57 27.57 0 0 1 54.54 8.26 23.19 23.19 0 0 0-14.84-9.65 23.44 23.44 0 0 0-27.35 18.43 4.11 4.11 0 0 0 3 4.83 4 4 0 0 0 4.83-3.15 15.42 15.42 0 1 1 30.29 5.77 3.92 3.92 0 0 0 .11 1.87l-1.57 6.25q-3.09 12.34-5 24.9H348.56L571.2 253.46a35.73 35.73 0 0 1 28.69-14.73h.37a35.69 35.69 0 0 1 28.57 14.11l95.92 133.49c.07.09.15.17.22.25.03 2.31-.05 4.62-.11 6.92z"/></svg>