<svg id="Layer_1" xmlns="http://www.w3.org/2000/svg" viewBox="0 0 768 768"><style>.st0{fill:#fff}.st1,.st2{opacity:.4;fill:#a644e5;enable-background:new}.st2{fill:#0073ec}.st3{fill:none}.st4{fill:#0073ec}.st5{opacity:.4}.st6{fill:#a644e5}</style><g id="Layer_2_1_"><g id="Illustrations"><path class="st0" d="M255.3 219.1h-.4c-1.9-.2-3.6-1.6-4-3.5l-23.4-103.4-17.7 63.7c-.5 1.9-2.3 3.3-4.3 3.3h-35c-2.5 0-4.5-2-4.5-4.5s2-4.5 4.5-4.5H202l21.6-77.5c.6-2 2.4-3.3 4.4-3.3 2.1 0 3.8 1.5 4.3 3.5l24.2 106.6 24.6-61.9c.9-2.3 3.5-3.4 5.8-2.5 1.3.5 2.3 1.6 2.7 3l10.1 37.1H323c2.5 0 4.5 2 4.5 4.5s-2 4.5-4.5 4.5h-26.7c-2 0-3.8-1.4-4.3-3.3l-7.4-27.4-24.9 62.7c-.9 1.8-2.6 3-4.4 2.9z"/><path class="st1" d="M255.3 219.1h-.4c-1.9-.2-3.6-1.6-4-3.5l-23.4-103.4-17.7 63.7c-.5 1.9-2.3 3.3-4.3 3.3h-35c-2.5 0-4.5-2-4.5-4.5s2-4.5 4.5-4.5H202l21.6-77.5c.6-2 2.4-3.3 4.4-3.3 2.1 0 3.8 1.5 4.3 3.5l24.2 106.6 24.6-61.9c.9-2.3 3.5-3.4 5.8-2.5 1.3.5 2.3 1.6 2.7 3l10.1 37.1H323c2.5 0 4.5 2 4.5 4.5s-2 4.5-4.5 4.5h-26.7c-2 0-3.8-1.4-4.3-3.3l-7.4-27.4-24.9 62.7c-.9 1.8-2.6 3-4.4 2.9z"/><path class="st0" d="M644.7 203.8v-26.4c0-11.9 9.7-21.6 21.6-21.6H357.2c-17.7 0-32 14.3-32 32v16h319.5zM471.1 332.9v-.2c0-4.4-3.6-8-8-8H83.8c-4.4 0-8 3.6-8 8v253.1c25.8-33.2 73.6-39.1 106.7-13.3 11.3 8.8 19.8 20.5 24.7 33.9h4.9c20.2-15.2 48.1-15.2 68.3 0h182.4c4.5 0 8.2-3.7 8.2-8.2l.1-265.3z"/><path class="st2" d="M471.1 332.9v-.2c0-4.4-3.6-8-8-8H83.8c-4.4 0-8 3.6-8 8v253.1c25.8-33.2 73.6-39.1 106.7-13.3 11.3 8.8 19.8 20.5 24.7 33.9h4.9c20.2-15.2 48.1-15.2 68.3 0h182.4c4.5 0 8.2-3.7 8.2-8.2l.1-265.3z"/><path class="st0" d="M663.5 155.9c-11.2.9-19.8 10.3-19.8 21.5v26.4H375.8v121h86.3c4.4 0 8 3.6 8 8v265.5c0 3.4-2.1 6.4-5.3 7.7h221.9V181.2c0-13.2-10.1-24.2-23.2-25.3z"/><path class="st3" d="M638.2 337.7h-165"/><path class="st4" d="M638.2 342.2h-165c-2.5 0-4.5-2-4.5-4.5s2-4.5 4.5-4.5h165.1c2.5 0 4.5 2 4.5 4.5s-2.1 4.5-4.6 4.5z"/><path class="st3" d="M638.2 308.7h-215"/><path class="st4" d="M638.2 313.3h-215c-2.5 0-4.5-2-4.5-4.5s2-4.5 4.5-4.5h215.1c2.5 0 4.5 2 4.5 4.5s-2.1 4.5-4.6 4.5z"/><path class="st3" d="M596.4 279.8H424.8"/><path class="st4" d="M596.5 284.3H424.8c-2.5 0-4.5-2-4.5-4.5s2-4.5 4.5-4.5h171.7c2.5 0 4.5 2 4.5 4.5s-2 4.5-4.5 4.5z"/><path class="st0" d="M532.3 425.4c-.9-11.8-1.2-24.2 2.7-34.8 3.9-10.7 13.3-18.8 22-15.5-5.1 21.1-12.7 41.6-22.7 60.9 9.6-24.8 23.2-46.9 39.7-64.6 1.9-2 4.6-4 6.6-2.1 1.1 1 1.4 2.9 1.6 4.6 1.7 13.2.8 26.5-2.7 39.3-.1-4.3 2.8-8.4 6.1-8.5 3.3 10.1 5 20.7 5 31.3l10.4-17c3.8 2.6 5.9 8.8 4.9 14.3 17.9-1.3 35.3-12.2 47.4-29.5"/><path class="st4" d="M590.7 440.5c-2.5 0-4.5-2-4.5-4.5 0-7.2-.8-14.3-2.4-21.3-.8 2.3-3.4 3.6-5.7 2.7-1.7-.6-2.9-2.3-3-4.1-.1-2.3.5-4.6 1.5-6.7 2.2-10.6 2.6-21.4 1.2-32.1 0-.2 0-.3-.1-.5l-.4.4c-10.9 11.9-20.3 25.1-27.9 39.4-3.3 8.2-7 16.3-11.1 24.1-1.2 2.2-3.9 3-6.1 1.8-2-1.1-2.9-3.4-2.1-5.5l1.8-4.5c-2.2-.2-4-1.9-4.2-4.1-.9-12.3-1.2-25.3 3-36.7 3-8.1 8.5-14.6 14.9-17.5 4-2 8.7-2.2 12.9-.6 2.1.8 3.3 3 2.8 5.2-.4 1.5-.7 3-1.1 4.5 3.3-4.3 6.8-8.4 10.5-12.3 2.6-2.8 5.3-4.3 7.9-4.3 1.9 0 3.8.7 5.1 2.1 2 2 2.6 4.6 2.9 7.2 1.2 9 1.2 18 0 27 1.5.4 2.7 1.5 3.2 3 1.9 5.9 3.3 12.1 4.2 18.2l3-4.9c1.3-2.1 4-2.8 6.2-1.5.1.1.2.1.3.2 3.8 2.7 6.3 7.6 6.9 12.8 14.8-2.7 28.9-12.3 39.1-27 1.4-2 4.2-2.5 6.3-1.1 2 1.4 2.5 4.2 1.1 6.2-12.9 18.5-31.5 30-50.8 31.4-2.5.2-4.6-1.6-4.8-4.1 0-.4 0-.8.1-1.2.3-1.7.2-3.4-.2-5.1l-6.7 11.1c-.8 1.5-2.2 2.3-3.8 2.3zM551.5 379c-.7.2-1.4.4-2 .7-4.2 1.9-8.1 6.7-10.2 12.5-3.1 8.3-3.3 18-2.8 27.7 1.5-3.3 3.2-6.5 4.8-9.7 4-10.2 7.4-20.6 10.2-31.2z"/><path class="st0" d="M245.8 440.7h55.3v27.4h-55.3zM245.8 468.1h55.3v27.4h-55.3zM188.1 324.8V293c0-13.3 10.7-24 24-24h122.7c13.3 0 24 10.7 24 24v31.7h22.7v-38.4c0-22.1-17.9-40-40-40h-136c-22.1 0-40 17.9-40 40v38.4l22.6.1z"/><path class="st2" d="M188.1 324.8V293c0-13.3 10.7-24 24-24h122.7c13.3 0 24 10.7 24 24v31.7h22.7v-38.4c0-22.1-17.9-40-40-40h-136c-22.1 0-40 17.9-40 40v38.4l22.6.1z"/><path class="st3" d="M541.8 493.5h-78.3"/><path class="st0" d="M67.8 80.5l-4.1-7.6c-2.4-4.3-5.9-7.8-10.2-10.2l-7.6-4.2 7.6-4.1c4.3-2.4 7.8-5.9 10.2-10.2l4.1-7.6 4.1 7.6c2.4 4.3 5.9 7.8 10.2 10.2l7.6 4.1-7.6 4.2c-4.3 2.4-7.8 5.9-10.2 10.2l-4.1 7.6zM488.9 767.7l-4.1-7.6c-2.3-4.3-5.9-7.9-10.2-10.2l-7.6-4.2 7.6-4.2c4.3-2.3 7.9-5.9 10.2-10.2l4.1-7.6 4.1 7.6c2.3 4.3 5.9 7.9 10.2 10.2l7.6 4.2-7.6 4.2c-4.3 2.3-7.9 5.9-10.2 10.2l-4.1 7.6z"/><circle class="st0" cx="8" cy="7.8" r="7.5"/><path class="st0" d="M737.5 648.5l5.6 10.3c3.2 5.9 8 10.7 13.9 13.9l10.3 5.6L757 684c-5.9 3.2-10.7 8-13.9 13.9l-5.6 10.3-5.6-10.3c-3.2-5.9-8-10.7-13.9-13.9l-10.3-5.6 10.3-5.6c5.9-3.2 10.7-8 13.9-13.9l5.6-10.4z"/><g class="st5"><path class="st6" d="M67.8 80.5l-4.1-7.6c-2.4-4.3-5.9-7.8-10.2-10.2l-7.6-4.2 7.6-4.1c4.3-2.4 7.8-5.9 10.2-10.2l4.1-7.6 4.1 7.6c2.4 4.3 5.9 7.8 10.2 10.2l7.6 4.1-7.6 4.2c-4.3 2.4-7.8 5.9-10.2 10.2l-4.1 7.6z"/></g><g class="st5"><path class="st6" d="M488.9 767.7l-4.1-7.6c-2.3-4.3-5.9-7.9-10.2-10.2l-7.6-4.2 7.6-4.2c4.3-2.3 7.9-5.9 10.2-10.2l4.1-7.6 4.1 7.6c2.3 4.3 5.9 7.9 10.2 10.2l7.6 4.2-7.6 4.2c-4.3 2.3-7.9 5.9-10.2 10.2l-4.1 7.6z"/></g><g class="st5"><circle class="st6" cx="8" cy="7.8" r="7.5"/></g><g class="st5"><path class="st6" d="M737.5 648.5l5.6 10.3c3.2 5.9 8 10.7 13.9 13.9l10.3 5.6L757 684c-5.9 3.2-10.7 8-13.9 13.9l-5.6 10.3-5.6-10.3c-3.2-5.9-8-10.7-13.9-13.9l-10.3-5.6 10.3-5.6c5.9-3.2 10.7-8 13.9-13.9l5.6-10.4z"/></g><g class="st5"><path class="st4" d="M649.5 176.6V203c0 3.1-2.5 5.6-5.6 5.6H381.3v16.6h284.2v-64.7c-8.9.1-16 7.2-16 16.1z"/></g><path class="st0" d="M541.6 485.8c14.6-1.1 25.1-4.5 25.2-8.9l.4-16.5c0-.4-.1-.7-.2-1-.1-.4-.3-.7-.6-1-.3-.4-.6-.7-.9-1-1.2-1-2.4-1.7-3.8-2.3-1-.4-2.1-.9-3.2-1.3-.8-.3-1.6-.5-2.5-.8s-1.8-.5-2.8-.7c-1.9-.5-4-.9-6.2-1.2-1.7-.3-3.6-.5-5.5-.8l.2-8.3c.1-5.6-17.2-10.6-38.7-11.1-7.3-.2-14.6.2-21.8 1.2-1 .2-2 .3-3 .5-3.3.6-6.5 1.5-9.5 2.8-1.1.5-2.1 1.1-3 1.8-.2.1-.4.3-.5.5-.7.6-1.2 1.5-1.3 2.5l-.4 16.5c-.1 4.4 10.6 8.4 25.6 10.2v1.3c-14.6 1.1-25.1 4.5-25.2 8.9l-.4 16.5c0 .5.1 1.1.4 1.5v102.4c-.1 5.6 17.2 10.6 38.7 11.1 21.5.5 39-3.6 39.2-9.2l-.4-103.9.2-9.7z"/><path class="st0" d="M594.8 566.5c-4.9-4.7-10.1-8.9-15.7-12.8-.7-.5-1.5-1-2.2-1.4l-.9-.6c-.7-.4-1.4-.8-2-1.2-.8-.5-1.6-.9-2.4-1.3-.6-.3-1.1-.6-1.7-.8l-1.2-.5c-.9-.4-1.8-.7-2.7-1-3-.9-5.3-.9-6.5.4l-11.3 12c-3.9 4.1 5.7 19.4 21.3 34.1 15.7 14.8 31.5 23.4 35.3 19.3l11.3-12c3.9-4.2-5.7-19.5-21.3-34.2z"/><g class="st5"><path class="st4" d="M541.6 485.8c14.6-1.1 25.1-4.5 25.2-8.9l.4-16.5c0-.4-.1-.7-.2-1-.1-.4-.3-.7-.6-1-.3-.4-.6-.7-.9-1-1.2-1-2.4-1.7-3.8-2.3-1-.4-2.1-.9-3.2-1.3-.8-.3-1.6-.5-2.5-.8s-1.8-.5-2.8-.7c-1.9-.5-4-.9-6.2-1.2-1.7-.3-3.6-.5-5.5-.8l.2-8.3c.1-5.6-17.2-10.6-38.7-11.1-7.3-.2-14.6.2-21.8 1.2-1 .2-2 .3-3 .5-3.3.6-6.5 1.5-9.5 2.8-1.1.5-2.1 1.1-3 1.8-.2.1-.4.3-.5.5-.7.6-1.2 1.5-1.3 2.5l-.4 16.5c-.1 4.4 10.6 8.4 25.6 10.2v1.3c-14.6 1.1-25.1 4.5-25.2 8.9l-.4 16.5c0 .5.1 1.1.4 1.5v102.4c-.1 5.6 17.2 10.6 38.7 11.1 21.5.5 39-3.6 39.2-9.2l-.4-103.9.2-9.7z"/><path class="st4" d="M594.8 566.5c-4.9-4.7-10.1-8.9-15.7-12.8-.7-.5-1.5-1-2.2-1.4l-.9-.6c-.7-.4-1.4-.8-2-1.2-.8-.5-1.6-.9-2.4-1.3-.6-.3-1.1-.6-1.7-.8l-1.2-.5c-.9-.4-1.8-.7-2.7-1-3-.9-5.3-.9-6.5.4l-11.3 12c-3.9 4.1 5.7 19.4 21.3 34.1 15.7 14.8 31.5 23.4 35.3 19.3l11.3-12c3.9-4.2-5.7-19.5-21.3-34.2z"/></g><path class="st0" d="M763 110.8h-30.8c-2.5 0-4.5-2-4.5-4.5v-.3c.1-1.4.1-2.5.1-3.6 0-29.5-23.9-53.4-53.4-53.4-13.2 0-26 4.9-35.8 13.7-1.8 1.7-4.7 1.5-6.3-.3-.4-.5-.7-1-.9-1.7-12.1-38.4-53.1-59.7-91.6-47.6-25.5 8.1-44.6 29.4-49.7 55.6-.5 2.4-2.9 4-5.3 3.5-.5-.1-.9-.3-1.3-.5-21.6-12.2-49-4.7-61.2 16.9-3.1 5.5-5.1 11.6-5.7 18-.2 2.3-2.2 4.1-4.5 4.1h-77.3c-2.5 0-4.5-2-4.5-4.5s2-4.5 4.5-4.5h73.4c5-29.3 32.9-49 62.2-44 4.2.7 8.3 1.9 12.2 3.6 11.8-43.7 56.7-69.7 100.5-57.9 24.8 6.7 45.1 24.6 54.7 48.5 27.9-20.2 66.9-14 87.1 13.9 7.6 10.5 11.7 23 11.9 36H763c2.5 0 4.5 2 4.5 4.5s-2 4.4-4.5 4.5z"/><g class="st5"><path class="st6" d="M763 110.8h-30.8c-2.5 0-4.5-2-4.5-4.5v-.3c.1-1.4.1-2.5.1-3.6 0-29.5-23.9-53.4-53.4-53.4-13.2 0-26 4.9-35.8 13.7-1.8 1.7-4.7 1.5-6.3-.3-.4-.5-.7-1-.9-1.7-12.1-38.4-53.1-59.7-91.6-47.6-25.5 8.1-44.6 29.4-49.7 55.6-.5 2.4-2.9 4-5.3 3.5-.5-.1-.9-.3-1.3-.5-21.6-12.2-49-4.7-61.2 16.9-3.1 5.5-5.1 11.6-5.7 18-.2 2.3-2.2 4.1-4.5 4.1h-77.3c-2.5 0-4.5-2-4.5-4.5s2-4.5 4.5-4.5h73.4c5-29.3 32.9-49 62.2-44 4.2.7 8.3 1.9 12.2 3.6 11.8-43.7 56.7-69.7 100.5-57.9 24.8 6.7 45.1 24.6 54.7 48.5 27.9-20.2 66.9-14 87.1 13.9 7.6 10.5 11.7 23 11.9 36H763c2.5 0 4.5 2 4.5 4.5s-2 4.4-4.5 4.5z"/></g><path class="st0" d="M106 203.9v-32.2c6.2 1 12.1 3.6 17.1 7.4.9.6 1.9.9 3 .9 2.7 0 4.9-2.2 4.9-4.9 0-1.6-.9-3.2-2.2-4.1-6.6-4.9-14.5-7.9-22.8-8.6v-23c0-2.5-2-4.5-4.5-4.5s-4.5 2-4.5 4.5v22.8c-15.7 1.1-26.8 11.2-26.8 24.6v.3c0 14 8.5 20.8 26.8 25.3v33.2c-8.2-1.2-14.9-4.5-21.6-10.2-.8-.8-2-1.2-3.1-1.2-2.7 0-4.9 2.2-4.9 5 0 1.5.7 3 1.9 3.9 7.9 6.5 17.5 10.6 27.7 11.8V274c0 2.5 2 4.5 4.5 4.5s4.5-2 4.5-4.5v-18.9c16.7-.9 28.5-10.7 28.5-25.5v-.3c0-13.6-9-21-28.5-25.4zm-25.5-17.8v-.3c0-7.5 6.4-13.6 16.6-14.5v30.4c-13.3-3.8-16.6-8.3-16.6-15.6zm43.7 44.5c0 8.4-7.1 14.6-18.1 15.3v-31.5c14.5 3.8 18.1 8.4 18.1 15.9v.3z"/><path class="st1" d="M106 203.9v-32.2c6.2 1 12.1 3.6 17.1 7.4.9.6 1.9.9 3 .9 2.7 0 4.9-2.2 4.9-4.9 0-1.6-.9-3.2-2.2-4.1-6.6-4.9-14.5-7.9-22.8-8.6v-23c0-2.5-2-4.5-4.5-4.5s-4.5 2-4.5 4.5v22.8c-15.7 1.1-26.8 11.2-26.8 24.6v.3c0 14 8.5 20.8 26.8 25.3v33.2c-8.2-1.2-14.9-4.5-21.6-10.2-.8-.8-2-1.2-3.1-1.2-2.7 0-4.9 2.2-4.9 5 0 1.5.7 3 1.9 3.9 7.9 6.5 17.5 10.6 27.7 11.8V274c0 2.5 2 4.5 4.5 4.5s4.5-2 4.5-4.5v-18.9c16.7-.9 28.5-10.7 28.5-25.5v-.3c0-13.6-9-21-28.5-25.4zm-25.5-17.8v-.3c0-7.5 6.4-13.6 16.6-14.5v30.4c-13.3-3.8-16.6-8.3-16.6-15.6zm43.7 44.5c0 8.4-7.1 14.6-18.1 15.3v-31.5c14.5 3.8 18.1 8.4 18.1 15.9v.3z"/><path class="st4" d="M668.6 152c-.7-.4-1.5-.7-2.3-.7H357.2c-20.1 0-36.5 16.3-36.5 36.5v16c0 2.5 2 4.5 4.5 4.5h47.1v46c-8.3-8-19.3-12.4-30.8-12.4h-136c-24.6 0-44.5 19.9-44.5 44.5v33.9H83.8c-6.9 0-12.5 5.6-12.5 12.5v259.5c2.6-4.2 5.6-8.1 9-11.7V454.9c8.4 11.2 21.5 17.7 35.5 17.7h125.5v22.9c0 2.5 2 4.5 4.5 4.5h55.3c2.5 0 4.5-2 4.5-4.5v-22.9h125.5c12.4 0 24.2-5.2 32.6-14.2.8 3.5 4.3 6.5 10.5 8.8-5.9 2-10.1 5.1-10.3 9.8v120.5c0 1.4.3 2.7 1 3.9-.6.4-1.3.6-2 .6H282c3.7 2.6 7 5.6 10 9h170.9c3.5 0 6.8-1.4 9.1-3.9 2 .9 4.1 1.6 6.3 2.2 7.7 2.2 17.8 3.6 28.6 3.8h3.7c8.4.1 16.8-.7 25-2.5l1-.2h46.9c6.3 4.2 13.1 7.7 18.4 7.7 2.3.1 4.5-.8 6.1-2.4l5.1-5.4c.3.1.6.1.8.1h73.8c2.5 0 4.5-2 4.5-4.5V181.2c0-14.1-9.8-26.3-23.6-29.2zm-338.9 47.3v-11.5c0-15.2 12.3-27.5 27.5-27.5h289.4c-4.1 4.7-6.4 10.8-6.4 17.1v21.9H329.7zm-159.7 87c0-19.6 15.9-35.5 35.5-35.5h136c19.6 0 35.5 15.9 35.5 35.5v33.9h-13.7V293c0-15.7-12.8-28.5-28.5-28.5H212.1c-15.7 0-28.5 12.8-28.5 28.5v27.3H170v-34zm184.3 6.7v27.3H192.6V293c0-10.8 8.7-19.5 19.5-19.5h122.7c10.8 0 19.5 8.7 19.5 19.5zm-57.7 198h-46.3v-18.4h46.3V491zm0-27.4h-46.3v-18.4h46.3v18.4zm170-35.5c0 2.3-.2 4.6-.7 6.9-1.3 1.4-2 3.1-2 5v1.9c-5.5 13.2-18.4 21.8-32.7 21.8H305.6v-22.9c0-2.5-2-4.5-4.5-4.5h-55.3c-2.5 0-4.5 2-4.5 4.5v22.9H115.8c-19.6 0-35.5-15.9-35.5-35.5V333c0-2 1.7-3.7 3.7-3.7h378.9c2 0 3.7 1.7 3.7 3.7v95.1zm5.9 28.1l.2-6.4c11.7 5.1 31.2 5.8 34.3 5.9h3.8c8.4.1 16.8-.7 25-2.5 2-.5 3.9-1 5.8-1.8l-.2 6.4c-2.2 2.2-14.2 5.9-34.6 5.4-20.5-.5-32.3-4.7-34.3-7zm1.3-15.8l.1-.5.2-.1.1-.1c.2-.1.5-.2.8-.4l.1-.1.9-.4.2-.1 1-.4.3-.1c.4-.1.7-.2 1.1-.3l.4-.1 1.2-.3.5-.1 1.3-.3.6-.1 1.4-.3.8-.1 1.3-.2 1-.1 1.3-.2 1-.1 1.6-.2.9-.1 2-.2.9-.1 2.1-.1h.8c.8 0 1.6-.1 2.4-.1h7c1 0 2.2.1 3.3.1h.3l3 .2h.4c.9.1 1.8.1 2.7.2h.4c.9.1 1.7.2 2.6.3h.4l2.4.3h.3c.8.1 1.6.2 2.4.4h.1l2.3.4 2.1.4h.2l1.8.4.2.1 1.6.5.2.1 1.5.5.2.1c.5.1.9.3 1.3.5h.1c.4.2.8.3 1.2.5.4.2.7.3 1 .5.3.2.6.3.8.5h.1c.2.1.4.3.6.4-3.3 2.2-15 5.3-33.9 4.9-17.8-.2-29.2-3.7-32.9-6.1zm-.2 36.7l.6-.4.1-.1c.2-.1.5-.3.8-.4h.1c.3-.1.6-.3 1-.4h.1l1.1-.4.2-.1c.4-.1.8-.2 1.3-.4l.3-.1c.5-.1.9-.2 1.4-.4l.3-.1 1.6-.4.3-.1 1.8-.3h.3c.6-.1 1.3-.2 2-.3h.1c.6-.1 1.3-.2 2-.3v1.9c-.1 2.9 1.5 5.5 4.8 7.7-11-1.4-17.8-3.8-20.2-5.5v.1zm-.7 9.8c11.7 5 31 5.7 34.1 5.8h3.8c7.6.1 15.2-.6 22.6-2h1.5c1.7 0 4 0 6.6-.1l-.1 4.2c-2.2 2.2-14.2 5.9-34.6 5.4-19.4-.5-31-4.3-33.9-6.7v-6.6zm34.3 82.5c-20.5-.5-32.3-4.8-34.3-7v-7.1c1.8.8 3.6 1.4 5.5 1.9 7.7 2.2 17.8 3.5 28.6 3.8 1.2 0 2.5.1 3.7.1 8.3.1 16.5-.7 24.6-2.5 2.2-.5 4.3-1.2 6.4-2v7.6c-2.6 2.2-14.5 5.7-34.5 5.2zm34.4 4.8v7.3c-2.3 2.2-14.3 5.8-34.5 5.3-20.5-.5-32.3-4.8-34.3-7v-7c1.8.8 3.6 1.4 5.5 1.9 7.7 2.2 17.8 3.5 28.6 3.8h2.8c6.8-.1 22.1-.5 31.9-4.3zm-.8-27.4c-1.9 2.1-13.5 5.8-33.6 5.3-20.5-.5-32.3-4.8-34.3-7v-7c1.8.8 3.6 1.4 5.5 1.9 7.7 2.2 17.8 3.6 28.6 3.8h3.7c8.3.1 16.5-.7 24.6-2.5 2.1-.5 4.3-1.2 6.3-2v5.5c-.5.6-.7 1.3-.8 2zm0-17.3c-1.9 2.1-13.5 5.8-33.6 5.3-20.5-.5-32.3-4.8-34.3-7v-7.1c1.8.8 3.6 1.4 5.5 1.9 7.7 2.2 17.8 3.6 28.6 3.8h3.7c8.3.1 16.5-.7 24.6-2.5 2.1-.5 4.2-1.2 6.2-2v5.6c-.4.7-.6 1.3-.7 2zm-67.9-19v-6.9c1.7.7 3.4 1.3 5.1 1.8 7.7 2.2 17.8 3.6 28.6 3.8h2.8c6.7 0 22.1-.5 32-4.3v5.6c-.3.5-.5 1.1-.6 1.7-1.9 2.1-13.5 5.8-33.6 5.3-20.5-.5-32.3-4.8-34.3-7zm34.3 93.6c-20.5-.5-32.3-4.8-34.3-7v-7c1.8.8 3.6 1.4 5.5 1.9 7.7 2.2 17.8 3.6 28.6 3.8h2.8c6.7 0 22-.4 31.9-4.3v7.3c-2.1 2.1-14.1 5.8-34.5 5.3zm39.5-122.8c-1.4.1-2.8.2-4.3.3l-2.2.1h-.2c-1.5 0-3.1.1-4.8.1h-3c-20.4-.5-32.2-4.8-34.3-7l.1-2.9c2.8.2 5.7.4 8.6.5h5.5c.9.2 1.8.3 2.7.4 4.1.6 8.5 1.1 13.1 1.3h.9c1.2.1 2.4.1 3.6.1h5.3c2.9 0 6.7-.2 10.7-.6 6.2-.5 13-1.6 18.3-3.6l-.2 6.4c-1.4 1.4-6.9 3.4-16.1 4.6-1 .1-2.3.2-3.7.3zm3.8 120.1c.2-.7.3-1.3.3-2v-.1l-.1-16.6c0-.2.1-.4.1-.6 0-.3 0-.6-.1-.9V579c4.7 6.3 10 12.2 15.7 17.6.7.7 2.7 2.5 5.5 4.9h-21.4zm51.4 7.7c-1.9.1-7-1.9-14.2-6.8-.1-.1-.2-.2-.3-.2-5.2-3.7-10.1-7.7-14.7-12.1-14.9-14-20.8-25.1-20.8-28.1l4.4-4.6c.9 1.8 1.8 3.6 2.9 5.3 4.2 6.8 10.9 14.5 18.7 21.9 7.8 7.4 16 13.6 23 17.4 1.8 1 3.6 1.8 5.5 2.6l-4.5 4.6zm-18-31.1c-13.8-13-19.9-23.4-20.7-27.3h.2c2.5.5 7.5 2.7 14.2 7.4l.2.1c.6.4 1.2.9 1.9 1.3l.4.3 1.8 1.3.7.6c.5.4 1.1.8 1.6 1.3.3.3.7.6 1 .8l1.4 1.2c.5.4 1 .8 1.5 1.3l1.1.9c.9.8 1.7 1.6 2.6 2.4.9.8 1.8 1.7 2.6 2.5l.8.8 1.6 1.6.9 1c.4.5.9.9 1.3 1.4l.9 1 1.2 1.3.8 1c.3.4.7.8 1 1.2l.8.9.9 1.2.7.9.8 1.1c.2.3.4.6.6.8l.7 1 .6.8.6 1 .5.7.6.9.4.7.5.9.3.6c.1.2.3.6.4.9.1.1.1.3.2.4.2.4.3.8.5 1.1 0 .1.1.2.1.3.1.2.2.5.2.7.1.2.1.2.1.3s.1.3.1.4c-4-.5-14.9-6-28.6-19zm99.3 23.4h-62.4c2.4-5.8-2.7-14.8-8.7-22.6-3.3-4.3-6.9-8.3-10.7-12.2l-.9-.9-1.2-1.2-.6-.6-.9-.8c-3.2-3-31.9-29.5-41.7-19.1l-5.6 6-.2-54.5.1-5.6c11.9-1.3 25.1-4.6 25.3-12.8l.4-16.5c.2-8.5-13.5-12.4-25.5-14.2l-.2 9c2.1.4 4.1.7 5.8 1.1h.1l1.2.3h.1c.4.1.8.2 1.1.3h.1c1.5.4 2.8.8 3.9 1.2h.1l.5.2.4.1.4.2.4.2.3.1.4.2.2.1.4.2.2.1.3.2.2.1h.1c-2.4 1.6-9.1 3.6-19.6 4.5 2-1.4 3.2-3.7 3.3-6.2l.4-16.5v-.1c0-2.7-1.4-5.1-4.2-7.2-1.3-.9-2.6-1.7-4-2.3l-2.1-.9c-.7-.3-1.5-.6-2.3-.8-.6-.2-1.2-.4-1.8-.5-7.7-2.2-17.8-3.5-28.6-3.8-1.2 0-5.2-.1-10.3.1-6.6.3-15 1.1-21.8 3.2v-96.8c0-6.9-5.6-12.5-12.5-12.5H386v-33.9c0-7-1.7-14-4.9-20.2.1-.4.2-.8.2-1.3v-56.5h263.4c2.5 0 4.5-2 4.5-4.5v-26.4c0-8.7 6.6-16 15.2-17 10.7 1.1 18.8 10.1 18.8 20.8v420.2z"/><path class="st0" d="M393.3 637.7H300c-1.9 0-3.6-1.2-4.2-3-9.5-27.3-39.2-41.8-66.5-32.3-6.6 2.3-12.7 5.9-17.9 10.6-1.8 1.7-4.7 1.5-6.3-.3-.4-.5-.8-1-.9-1.7-11.9-37.7-52.1-58.6-89.8-46.7-29.8 9.4-50 37-50 68.3V633.2c0 2.5-2 4.5-4.4 4.5H6c-2.5 0-4.5-2-4.5-4.5s2-4.5 4.5-4.5h49.6c2.1-44.4 39.9-78.7 84.3-76.6 31.3 1.5 58.9 21 70.7 50.1 27.4-19.8 65.7-13.7 85.6 13.7 2.9 4 5.3 8.3 7.1 12.8h90.2c2.5 0 4.5 2 4.5 4.5-.2 2.5-2.2 4.5-4.7 4.5z"/><path class="st1" d="M393.3 637.7H300c-1.9 0-3.6-1.2-4.2-3-9.5-27.3-39.2-41.8-66.5-32.3-6.6 2.3-12.7 5.9-17.9 10.6-1.8 1.7-4.7 1.5-6.3-.3-.4-.5-.8-1-.9-1.7-11.9-37.7-52.1-58.6-89.8-46.7-29.8 9.4-50 37-50 68.3V633.2c0 2.5-2 4.5-4.4 4.5H6c-2.5 0-4.5-2-4.5-4.5s2-4.5 4.5-4.5h49.6c2.1-44.4 39.9-78.7 84.3-76.6 31.3 1.5 58.9 21 70.7 50.1 27.4-19.8 65.7-13.7 85.6 13.7 2.9 4 5.3 8.3 7.1 12.8h90.2c2.5 0 4.5 2 4.5 4.5-.2 2.5-2.2 4.5-4.7 4.5z"/></g></g></svg>