<svg id="Layer_1" data-name="Layer 1" xmlns="http://www.w3.org/2000/svg" viewBox="0 0 768 768"><defs><style>.cls-1{fill:#fff}.cls-2{opacity:.4}.cls-3{fill:#a644e5}.cls-4{fill:#0073ec}</style></defs><path class="cls-1" d="M636.81 157.28A347.59 347.59 0 0 1 720.49 384c0 192.75-156.26 349-349 349a347.72 347.72 0 0 1-235.33-91.28A348.22 348.22 0 0 0 401.49 764c192.74 0 349-156.25 349-349a348 348 0 0 0-113.68-257.72z"/><g class="cls-2"><path class="cls-3" d="M636.81 157.28A347.59 347.59 0 0 1 720.49 384c0 192.75-156.26 349-349 349a347.72 347.72 0 0 1-235.33-91.28A348.22 348.22 0 0 0 401.49 764c192.74 0 349-156.25 349-349a348 348 0 0 0-113.68-257.72z"/></g><circle class="cls-1" cx="372" cy="384" r="349"/><path class="cls-4" d="M372 737A353.09 353.09 0 0 1 234.6 58.74a353.09 353.09 0 0 1 274.8 650.52A350.74 350.74 0 0 1 372 737zm0-698a345 345 0 0 0-243.95 589A345 345 0 1 0 616 140.05 342.75 342.75 0 0 0 372 39z"/><g class="cls-2"><circle class="cls-4" cx="372.29" cy="386.31" r="311.7"/></g><path class="cls-4" d="M335.91 632.1a4 4 0 0 1-3.05-1.4L309.19 603l-32.75-3.6a4 4 0 0 1-3.06-2l-4.09-7.4-13.09 9.49a4 4 0 0 1-3.27.65 4 4 0 0 1-2.62-2l-2.55-4.88-8.59 8.3-20.83 23.74a3.92 3.92 0 0 1-2.68 1.35l-26 2.1a4 4 0 0 1-2.93-7l24.72-21.34-12.61-3.15a4 4 0 0 1-2.9-2.87l-6.75-26a4 4 0 0 1 2.7-4.83l22.29-6.82-1.58-5.69-12.7-1a4 4 0 0 1-3.54-3l-2.51-9.62a4 4 0 0 1 3.55-5l14.66-1.18-10.71-18.81a4 4 0 0 1-.25-3.41 4 4 0 0 1 2-2.17c1.9-1.17 14.56-10.72 25.68-19.25a4 4 0 0 1 3.53-.67L288 502.85a4 4 0 0 1 2.9 3.63l4 73.94 23.39 1.83a4 4 0 0 1 2.75 1.41L352 620.5a4 4 0 0 1-1.62 6.3l-13 5a4 4 0 0 1-1.47.3zm-56.54-40.41l32.27 3.55a4 4 0 0 1 2.61 1.37l22.85 26.73 5.13-2L316 590.09l-25.21-2a4 4 0 0 1-3.68-3.77l-4-74.6-51-14.58c-12.27 9.4-18.58 14.11-21.91 16.5l12 21.08a4 4 0 0 1-3.15 6L202.83 540l.59 2.27 12.66 1a4 4 0 0 1 3.53 2.93l3.39 12.18a4 4 0 0 1-2.68 4.89l-22.35 6.83 5.19 19.95 17.79 4.44a4 4 0 0 1 1.65 6.91l-21.29 18.38 12.13-1 19.86-22.64a2.66 2.66 0 0 1 .23-.24l12.56-12.14a4 4 0 0 1 3.42-1.08 4 4 0 0 1 2.91 2.1l2.88 5.52 13-9.42a4 4 0 0 1 5.85 1.3zm-75.77-85zm0 0zM508.88 620.79a3.25 3.25 0 0 1-.44 0 4 4 0 0 1-2.79-1.61l-9.5-13a4 4 0 0 1-.56-3.63l3.5-10.5a4 4 0 0 1 5.86-2.16l19.5 11.75a4 4 0 0 1 .56 6.44l-13.5 11.75a4 4 0 0 1-2.63.96zm-5.05-17.7l5.71 7.82 6.07-5.29-10.51-6.33zM491.88 586.29a4 4 0 0 1-3.62-2.31l-4-8.5a4 4 0 0 1 2.34-5.48l11.46-4a4 4 0 0 1 5 2.21l3.5 8.25a4 4 0 0 1 0 3.12 4 4 0 0 1-2.25 2.18l-11 4.25a4 4 0 0 1-1.43.28zm1.53-10.19l.52 1.11 3.66-1.42-.43-1zM471.88 576.79a3.85 3.85 0 0 1-1.1-.16l-10.5-3a4 4 0 0 1-2.9-3.84v-8a4 4 0 0 1 5.61-3.67l12.5 5.5a4 4 0 0 1 2.15 5l-2 5.5a4 4 0 0 1-3.76 2.67zM446.47 567.79h-8.09a4 4 0 0 1-4-4v-7.5a4 4 0 0 1 4-4h12.5a4 4 0 0 1 3.45 6l-4.41 7.5a4 4 0 0 1-3.45 2z"/><path class="cls-1" d="M689.44 49l-4.17 7.59A25.7 25.7 0 0 1 675 66.82L667.43 71l7.57 4.12a25.7 25.7 0 0 1 10.23 10.21l4.17 7.59 4.16-7.59a25.73 25.73 0 0 1 10.24-10.21l7.65-4.12-7.61-4.15a25.73 25.73 0 0 1-10.24-10.24z"/><ellipse class="cls-1" cx="743.49" cy="10.49" rx="7.51" ry="7.49"/><path class="cls-1" d="M689.44 49l-4.17 7.59A25.7 25.7 0 0 1 675 66.82L667.43 71l7.57 4.12a25.7 25.7 0 0 1 10.23 10.21l4.17 7.59 4.16-7.59a25.73 25.73 0 0 1 10.24-10.21l7.65-4.12-7.61-4.15a25.73 25.73 0 0 1-10.24-10.24zM42.44 637l-4.17 7.59A25.7 25.7 0 0 1 28 654.82L20.43 659l7.57 4.12a25.7 25.7 0 0 1 10.23 10.21l4.17 7.59 4.16-7.59a25.73 25.73 0 0 1 10.24-10.21l7.65-4.12-7.61-4.15a25.73 25.73 0 0 1-10.24-10.24zM699.44 699l-4.17 7.59A25.7 25.7 0 0 1 685 716.82l-7.57 4.18 7.61 4.15a25.7 25.7 0 0 1 10.23 10.21l4.17 7.59 4.16-7.59a25.73 25.73 0 0 1 10.24-10.21l7.61-4.15-7.61-4.15a25.73 25.73 0 0 1-10.24-10.21z"/><ellipse class="cls-1" cx="743.49" cy="10.49" rx="7.51" ry="7.49"/><g class="cls-2"><path class="cls-3" d="M689.44 49l-4.17 7.59A25.7 25.7 0 0 1 675 66.82L667.43 71l7.57 4.12a25.7 25.7 0 0 1 10.23 10.21l4.17 7.59 4.16-7.59a25.73 25.73 0 0 1 10.24-10.21l7.65-4.12-7.61-4.15a25.73 25.73 0 0 1-10.24-10.24z"/></g><g class="cls-2"><ellipse class="cls-3" cx="743.49" cy="10.49" rx="7.51" ry="7.49"/></g><g class="cls-2"><path class="cls-3" d="M42.44 637l-4.17 7.59A25.7 25.7 0 0 1 28 654.82L20.43 659l7.57 4.12a25.7 25.7 0 0 1 10.23 10.21l4.17 7.59 4.16-7.59a25.73 25.73 0 0 1 10.24-10.21l7.65-4.12-7.61-4.15a25.73 25.73 0 0 1-10.24-10.24z"/></g><g class="cls-2"><path class="cls-3" d="M699.44 699l-4.17 7.59A25.7 25.7 0 0 1 685 716.82l-7.57 4.18 7.61 4.15a25.7 25.7 0 0 1 10.23 10.21l4.17 7.59 4.16-7.59a25.73 25.73 0 0 1 10.24-10.21l7.61-4.15-7.61-4.15a25.73 25.73 0 0 1-10.24-10.21z"/></g><path class="cls-1" d="M493.41 576.1l.52 1.11 3.66-1.42-.43-.99-3.75 1.3z"/><path class="cls-1" d="M493.41 576.1l.52 1.11 3.66-1.42-.43-.99-3.75 1.3zM503.83 603.09l5.71 7.82 6.07-5.28-10.51-6.34-1.27 3.8z"/><path class="cls-1" d="M503.83 603.09l5.71 7.82 6.07-5.28-10.51-6.34-1.27 3.8zM279.37 591.69l32.27 3.55a4 4 0 0 1 2.61 1.37l22.85 26.73 5.13-2L316 590.09l-25.21-2a4 4 0 0 1-3.68-3.77l-4-74.6-51-14.58c-12.27 9.4-18.58 14.11-21.91 16.5l12 21.08a4 4 0 0 1-3.15 6L202.83 540l.59 2.27 12.66 1a4 4 0 0 1 3.53 2.93l3.39 12.18a4 4 0 0 1-2.68 4.89l-22.35 6.83 5.19 19.95 17.79 4.44a4 4 0 0 1 1.65 6.91l-21.29 18.38 12.13-1 19.86-22.64a2.66 2.66 0 0 1 .23-.24l12.56-12.14a4 4 0 0 1 3.42-1.08 4 4 0 0 1 2.91 2.1l2.88 5.52 13-9.42a4 4 0 0 1 5.85 1.3z"/><path class="cls-1" d="M279.37 591.69l32.27 3.55a4 4 0 0 1 2.61 1.37l22.85 26.73 5.13-2L316 590.09l-25.21-2a4 4 0 0 1-3.68-3.77l-4-74.6-51-14.58c-12.27 9.4-18.58 14.11-21.91 16.5l12 21.08a4 4 0 0 1-3.15 6L202.83 540l.59 2.27 12.66 1a4 4 0 0 1 3.53 2.93l3.39 12.18a4 4 0 0 1-2.68 4.89l-22.35 6.83 5.19 19.95 17.79 4.44a4 4 0 0 1 1.65 6.91l-21.29 18.38 12.13-1 19.86-22.64a2.66 2.66 0 0 1 .23-.24l12.56-12.14a4 4 0 0 1 3.42-1.08 4 4 0 0 1 2.91 2.1l2.88 5.52 13-9.42a4 4 0 0 1 5.85 1.3zM169.91 211l15 9.5 3-12.5s223 46.5 257 39.5l-2.5 20 29.5-9s-12 54.5 2.5 65.5l17.5-52.5 22 11.5v37.5s51-32 54.5-51.5c0 0 29.5-11 31.5-11.5s9-33.5 9-33.5l24 39-43.5 65.5 4 59.5-50.5 53 29 53-12.5 24-33-56-70.5-4.5-49 15-26.91 20V516s-47.09-16-42.59-51l-18.5 10.5-31-44.5-14.5 9-66.5-23.5-25.5 1-35.47-67.5-2.53-63s36.5-47.5 26.5-76z"/><path class="cls-1" d="M169.91 211l15 9.5 3-12.5s223 46.5 257 39.5l-2.5 20 29.5-9s-12 54.5 2.5 65.5l17.5-52.5 22 11.5v37.5s51-32 54.5-51.5c0 0 29.5-11 31.5-11.5s9-33.5 9-33.5l24 39-43.5 65.5 4 59.5-50.5 53 29 53-12.5 24-33-56-70.5-4.5-49 15-26.91 20V516s-47.09-16-42.59-51l-18.5 10.5-31-44.5-14.5 9-66.5-23.5-25.5 1-35.47-67.5-2.53-63s36.5-47.5 26.5-76z"/><path d="M496.71 322.69h-1.06a34.32 34.32 0 0 0-4.2.25c-23.29 2.73-35.54 29.14-23.08 49l27.53 42.25 26.33-41.73c13.66-20.88-.59-49.05-25.52-49.77zm-1.24 43.69a11.71 11.71 0 1 1 11.7-11.71 11.7 11.7 0 0 1-11.7 11.71z" fill="#0073ec" opacity=".4"/><path class="cls-4" d="M636.32 260.9l-24-39a4 4 0 0 0-7.32 1.27c-2.63 12.41-6.14 26.91-7.71 31-5.84 2-24.17 8.83-30.27 11.1a4 4 0 0 0-2.54 3c-2.29 12.74-30.35 33.93-46.57 44.83V283a4 4 0 0 0-2.14-3.54l-22-11.5a4 4 0 0 0-5.65 2.28L473.2 315c-4.16-12.54-1-39 2.62-55.62a4 4 0 0 0-5.07-4.69l-23.6 7.2 1.73-13.89a4 4 0 0 0-4.77-4.42c-26.25 5.41-178.53-23.47-255.38-39.5a4 4 0 0 0-4.71 3l-1.69 7.06-10.28-6.51a4 4 0 0 0-5.91 4.7c9.16 26.13-25.55 71.79-25.9 72.24a4 4 0 0 0-.82 2.6l2.53 63a4.06 4.06 0 0 0 .45 1.7l35.47 67.5a4.07 4.07 0 0 0 3.7 2.14l24.73-1 65.78 23.24a4 4 0 0 0 3.44-.37l11.28-7 28.83 41.39a4 4 0 0 0 5.26 1.19l12.3-7c.79 12.94 8.09 24.86 21.43 34.83a97.13 97.13 0 0 0 24.09 13A4 4 0 0 0 384 516v-21.49l24.75-18.39 47.64-14.58 67.61 4.32L556 520a4 4 0 0 0 3.44 2h.11a4 4 0 0 0 3.44-2.15l12.5-24a4 4 0 0 0 0-3.77l-27.59-50.44 48.48-50.88a4 4 0 0 0 1.1-3l-3.91-58.15 42.75-64.37a4 4 0 0 0 0-4.34zm-142.1 16.32l15.69 8.2v35.08a3.94 3.94 0 0 0 .18 1.14 35.5 35.5 0 0 0-13.26-2.95 40.64 40.64 0 0 0-5.84.25 35.61 35.61 0 0 0-11.85 3.57zm-2.31 49.67a33.26 33.26 0 0 1 3.75-.22h.94a27.34 27.34 0 0 1 23.66 14.91 28.05 28.05 0 0 1-1.42 28.72l-23 36.45-24.09-37a28.23 28.23 0 0 1-1.53-27.33 27.53 27.53 0 0 1 21.69-15.53zm94.17-.6a4 4 0 0 0-.66 2.48l3.88 57.74-49.3 51.73a4 4 0 0 0-.61 4.68l28 51.13-8.18 15.7L529.86 460a4 4 0 0 0-3.19-2l-70.5-4.5a4.09 4.09 0 0 0-1.43.16l-49 15a4.33 4.33 0 0 0-1.21.62l-26.92 20a4 4 0 0 0-1.61 3.22V510c-11.56-5.22-37.79-19.9-34.62-44.53a4 4 0 0 0-4-4.51 4 4 0 0 0-2 .52l-15.33 8.7-28.85-41.47a4 4 0 0 0-5.4-1.11l-12.86 8-64.69-22.86a4 4 0 0 0-1.49-.23l-23 .9-33.86-64.47-2.43-60.68c5.14-6.94 29.71-41.69 28.08-68.95l7.22 4.57a4 4 0 0 0 6-2.45l2.1-8.73c28.18 5.82 193.51 39.48 244.48 39.48 1.79 0 3.44 0 4.93-.13L438.45 267a4 4 0 0 0 1.39 3.56 4 4 0 0 0 3.74.77l23.13-7.06c-1 5.47-2.27 13.73-3 22.54-1.72 21.65 1 34.86 8.26 40.38h.05a36.34 36.34 0 0 0-7 46.88l27.53 42.26a4 4 0 0 0 3.35 1.81 4 4 0 0 0 3.36-1.86l26.28-41.67a36.39 36.39 0 0 0-10.49-50.31 4.38 4.38 0 0 0 1-.44c5.18-3.25 49.19-31.36 55.73-51.87 11.17-4.16 27.51-10.19 29.11-10.64 2.4-.6 4.06-1 9.83-26.82l17.46 28.36z"/><path class="cls-4" d="M495.47 370.38a15.71 15.71 0 1 0-15.7-15.71 15.72 15.72 0 0 0 15.7 15.71zm0-23.41a7.71 7.71 0 1 1-7.7 7.7 7.71 7.71 0 0 1 7.7-7.67z"/></svg>