<svg id="Layer_1" xmlns="http://www.w3.org/2000/svg" viewBox="0 0 768 768"><style>.st0{fill:#fff}.st1{opacity:.4}.st2{fill:#a644e5}.st4{fill:#0073ec}</style><g id="Layer_2_1_"><g id="Layer_1-2"><path class="st0" d="M762.2 252.2h-45.8c-2.2 0-4-1.8-4-4v-.3c.1-1.3.1-2.4.1-3.5 0-26.5-19.8-48.8-46.1-51.8-2.2-.3-3.8-2.2-3.5-4.5.3-2.2 2.2-3.8 4.5-3.5 30.3 3.5 53.1 29.1 53.2 59.5h41.7c2.2 0 4 1.8 4 4s-1.9 4.1-4.1 4.1z"/><g class="st1"><path class="st2" d="M762.2 252.2h-45.8c-2.2 0-4-1.8-4-4v-.3c.1-1.3.1-2.4.1-3.5 0-26.5-19.8-48.8-46.1-51.8-2.2-.3-3.8-2.2-3.5-4.5.3-2.2 2.2-3.8 4.5-3.5 30.3 3.5 53.1 29.1 53.2 59.5h41.7c2.2 0 4 1.8 4 4s-1.9 4.1-4.1 4.1z"/></g><path class="st0" d="M98 33.7c0-14.1 11.4-25.5 25.5-25.5h517.1c14.1 0 25.5 11.4 25.5 25.5v89.5c0 14.1-11.4 25.5-25.5 25.5h-517c-14.1 0-25.5-11.4-25.5-25.5L98 33.7zM548.5 383.1c-.6 0-1.1.2-1.6.5-.3.1-27.9 15.5-56.2 34.2-36.8 24.2-57.5 42.2-63.1 54.9H413v-17.5c39-13.9 65.6-50.3 67.2-91.7 12.6-2.2 21-14.1 18.9-26.7-1.7-9.7-9.2-17.2-18.9-18.9-.3-7-1.3-14-3-20.9 1.3-11.7-.5-23.6-5-34.5-12.9-31.3-44.4-45.3-68.6-51.6-1.2-.3-29.4-7.5-72.1 5.3l-16.9-18.6c-1.5-1.6-4-1.7-5.7-.2-.9.9-1.4 2.1-1.3 3.3l2.6 25.5c-6-2.6-15.3-5.4-24.7-4.3-2.2.3-3.8 2.3-3.5 4.5.1 1 .7 2 1.5 2.7 3.7 2.9 8.9 8.2 10.6 12.2-6 4.9-19.6 20.1-15.4 56.6.1.7.4 1.4.9 2-1.3 5.9-2.1 11.9-2.3 18-12.6 2.2-21 14.1-18.9 26.7 1.7 9.7 9.2 17.2 18.9 18.9 1.5 41.4 28 77.6 67 91.6v17.5h-13.6c-3.5-7.9-15.7-23.3-60.5-53.1-23.1-15.4-46.3-28.8-55.2-33.9 0-.1-.1-.2-.1-.3l-35.4-80.2-14.4-59.4-.1-.2-5.9-19.6c27.7-29.2 60.8-52.7 97.6-69.1.1-.1.3-.1.4-.2H507c36.3 16.1 69.1 39.1 96.6 67.7l-6.4 21.1c0 .1 0 .1-.1.2l-14.4 59.5-34.2 78zM599.6 655.2c-25.8 25.9-56.1 47-89.4 62.3l-2.9-139.9c-.1-10 4.4-19.4 12.3-25.6l86.7-68.2c1.6-1.2 2-3.4 1-5.1l-14.8-26.1c0-.1.1-.2.1-.2l50.7-122.8c.1-.2.2-.5.2-.8l7.7-39.7c66.4 119.9 45.3 269.2-51.6 366.1zM58.6 767.2H29.2c-2.2 0-4-1.8-4-4s1.8-4 4-4h29.3c2.2 0 4 1.8 4 4s-1.7 4-3.9 4zM251.2 692.2s-28-10-50 0c0 0-135.5-95.5-129.5-248.5 0 0 12-122 41-160l11 46 49 121-18 30 89 70s16 9 13 37l-5.5 104.5z"/><path d="M382.2 183.3c-140.5 0-254.4 113.9-254.4 254.4 0 91.3 48.9 175.7 128.2 220.9l.7-90s-4-16-13-18l-84.5-70.5 52-88s107 55 121 88h12.5s6 25.5 36 27.5c0 0 27-2 31-32h18s24-35 49-44l71-44 56 93-98 78-4 15L506 660c80.6-44.9 130.6-130 130.6-222.3 0-140.5-113.9-254.4-254.4-254.4z" opacity=".4" fill="#0073ec"/><path class="st0" d="M302.7 242.5c-.5-4.2-3.3-8.6-6.4-12.2 5.8 1.2 11.4 3.2 16.6 6.1 1.9 1.1 4.3.5 5.5-1.3.5-.7.6-1.6.6-2.5l-2.1-20.7 10.5 11.5c1 1.2 2.7 1.6 4.1 1.1 41.7-13.1 69.8-6 70.1-5.9 32.4 8.4 53.6 24.1 63.1 46.6 2.1 5.1 3.6 10.4 4.4 15.8-9.3-15.4-18.1-23.1-18.5-23.5-1.7-1.5-4.2-1.3-5.6.4-.6.7-1 1.7-1 2.6v32.8c-44.1-1.6-60.1-29-60.8-30.2-.7-1.3-2-2.1-3.5-2-.3 0-.7 0-1 .1-1.8.5-3 2-3 3.8l-.2 18.3c-20.4-8.4-30-27.5-30.1-27.7-1-2-3.4-2.8-5.3-1.9-1.1.6-2 1.6-2.2 2.9l-2.9 15.1c-14.1-2.6-19.4-12.3-19.7-12.8-1-2-3.4-2.7-5.4-1.7-.1.1-.3.1-.4.2-10.2 6.8-18.2 17.4-23.5 25.8.4-28.5 14-36.4 14.7-36.8 1.3-.7 2.2-2.3 2-3.9z"/><path class="st0" d="M288.4 294.8c3.6-6.7 11.5-19.9 22.2-28.4 3.8 4.8 12.2 12.4 27 13.7 2 .2 3.9-1.2 4.3-3.2l1.7-8.9c6.1 8.2 17.3 19.7 34.5 24.8 2.1.6 4.3-.6 5-2.7.1-.4.2-.7.2-1.1l.1-12.4c9.7 10.2 29.7 24.9 64.4 24.9 2.2 0 4-1.8 4-4v-26.8c7.1 8.7 13.1 18.2 17.7 28.4 1.8 7.3 2.8 14.9 2.8 22.5 0 2.2 1.8 4 4 4h.1c8.4 0 15.1 6.8 15.1 15.2 0 8.4-6.8 15.1-15.2 15.1-2.2 0-4 1.8-4 4.1-.1 51.4-41.7 93-93.1 93.1h-.9c-51.4-.1-93.1-41.8-93.1-93.2 0-2.2-1.8-4-4-4-8.4 0-15.2-6.7-15.2-15.1s6.7-15.2 15.1-15.2c2.2 0 4-1.7 4.1-3.9v-.1c0-8.3 1.1-16.5 3.3-24.5.2-.8.2-1.5-.1-2.3zM378.6 502.1c-14.6 0-26.4-11.8-26.4-26.4v-18c8.5 2.3 17.2 3.4 26 3.4h.9c8.7 0 17.4-1.1 25.9-3.4v18c0 14.5-11.8 26.4-26.4 26.4zM205.7 385.2l-32.3 55.1-46.9-113.5-34.1-177.1c-.7-3.7-.2-7.6 1.4-10.9 5.8 11 17.2 18 29.7 18h27.6c0 .5.1.9.3 1.4 1.6 3.9-.3 8.4-4.2 10.1l-8.9 3.6c-1.9.8-2.9 2.9-2.3 4.9l21.5 71 14.4 59.6c.1.2.1.5.2.7l33.8 76.8s-.1.1-.2.3zM555.5 386.8l34.7-78.8c.1-.2.2-.4.2-.7l14.4-59.6 6.6-21.8c.6-.8.9-1.7.8-2.6l14.1-46.6c.6-2-.4-4.1-2.3-4.9l-8.9-3.7c-4-1.6-5.9-6.2-4.2-10.1.2-.4.3-.9.3-1.4h29.4c11.7 0 22.6-6.1 28.7-16.2 1.1 2.9 1.3 6.1.7 9.1l-34.2 177.2-48.2 116.8-32.1-56.7z"/><path class="st0" d="M159.2 480.2l52-88s107 55 121 88h12.5s6 25.5 36 27.5c0 0 27-2 31-32h18s24-35 49-44l71-44 56 93-98 78-4 15 4 149s-78 31-129 26c0 0-27-41-79-10 0 0-21-39-44-45l1-125s-4-16-13-18l-84.5-70.5z"/><g class="st1"><path class="st4" d="M406.5 455.1c-9.4 3-19.3 4.5-29.2 4.5h-.9c-8.8 0-17.6-1.2-26.1-3.6l-2 1.6v13.8c9.1 2.7 18.6 4.1 28.1 4.1h.9c10.8 0 21.6-1.8 31.8-5.4v-12.6l-2.6-2.4z"/></g><circle class="st4" cx="367.9" cy="533.3" r="4.3"/><circle class="st4" cx="367.9" cy="550.6" r="4.3"/><path class="st4" d="M390.6 372.7h-14.3c-5.8 0-10.5-4.7-10.5-10.5 0-2.1.7-4.2 1.9-6 5.9-8.4 7.4-15.9 5.4-26.9-.4-2.2 1-4.3 3.2-4.7s4.3 1 4.7 3.2c2.4 13 .4 22.8-6.7 32.9-.8 1.1-.5 2.7.6 3.5.4.3.9.4 1.4.5h14.3c2.2 0 4 1.8 4 4s-1.8 4-4 4zM353.7 334.9c-2.2 0-4-1.8-4-4-.1-2.3-2-4-4.3-3.9-2.1.1-3.8 1.8-3.9 3.9 0 2.2-1.8 4-4 4s-4-1.8-4-4c.2-6.7 5.8-11.9 12.5-11.8 6.4.2 11.6 5.3 11.8 11.8-.1 2.2-1.8 4-4.1 4zM418.4 334.9c-2.2 0-4-1.8-4-4-.1-2.3-2-4-4.3-3.9-2.1.1-3.8 1.8-3.9 3.9 0 2.2-1.8 4-4 4s-4-1.8-4-4c.2-6.7 5.8-11.9 12.5-11.8 6.4.2 11.6 5.3 11.8 11.8-.1 2.2-1.9 4-4.1 4zM360.1 317.3c-1.4 0-2.8-.8-3.5-2-3.9-6.8-12.7-9.2-19.5-5.2-2.2 1.3-4 3.1-5.2 5.2-1 2-3.4 2.7-5.4 1.7s-2.7-3.4-1.7-5.4c.1-.1.1-.2.2-.3 6.2-10.7 19.8-14.3 30.4-8.1 3.4 2 6.2 4.8 8.1 8.1 1.1 1.9.5 4.4-1.5 5.5-.6.3-1.2.5-1.9.5zM426.1 317.3c-1.4 0-2.7-.8-3.5-2-3.9-6.8-12.7-9.2-19.5-5.2-2.2 1.3-4 3.1-5.2 5.2-1.1 1.9-3.6 2.6-5.5 1.5s-2.6-3.6-1.5-5.5c6.2-10.7 19.8-14.3 30.4-8.1 3.4 2 6.2 4.8 8.1 8.1 1.1 1.9.5 4.4-1.5 5.5-.4.3-1.1.5-1.8.5zM167.7 129.7c-2.2 0-4-1.8-4-4 0-.5.1-1 .3-1.4l34.8-91.6c.8-2.1 3.1-3.1 5.2-2.3 2.1.8 3.1 3.1 2.3 5.2l-34.9 91.6c-.5 1.4-2 2.5-3.7 2.5zM204.9 129.7c-2.2 0-4-1.8-4-4 0-.5.1-1 .3-1.4L236 32.6c.7-2.1 3-3.2 5-2.6s3.2 3 2.6 5c0 .1-.1.2-.1.3l-34.8 91.6c-.7 1.7-2.1 2.8-3.8 2.8zM140.3 70.2c-7.7 0-13.9-6.2-13.9-13.9s6.2-13.9 13.9-13.9 13.9 6.2 13.9 13.9-6.2 13.9-13.9 13.9zm0-19.8c-3.3 0-5.9 2.6-5.9 5.9 0 3.3 2.6 5.9 5.9 5.9 3.3 0 5.9-2.6 5.9-5.9 0-3.3-2.6-5.9-5.9-5.9zM140.3 107.4c-7.7 0-13.9-6.2-13.9-13.9s6.2-13.9 13.9-13.9 13.9 6.2 13.9 13.9c0 7.6-6.2 13.9-13.9 13.9zm0-19.8c-3.3 0-5.9 2.6-5.9 5.9s2.6 5.9 5.9 5.9c3.3 0 5.9-2.6 5.9-5.9s-2.6-5.9-5.9-5.9z"/><g class="st1"><path class="st4" d="M150 171.7c6-2.5 8.9-9.3 6.4-15.4-.6-1.4-1.5-2.8-2.6-3.9h-19l-.2.1v-.1H127c-14 0-26-9.8-29-23.4-6.6 4.9-9.8 13.1-8.2 21.1l7.2 37.6h47.9l-3.8-12.5 8.9-3.5z"/></g><path class="st4" d="M380.2 426.7c16.3.1 30.4-11.1 34-27 .7-2.9 0-5.9-1.9-8.2-1.9-2.4-4.7-3.8-7.8-3.8h-48.9c-3 0-5.9 1.4-7.8 3.8-1.8 2.3-2.5 5.3-1.9 8.2 3.9 15.8 18 27 34.3 27zm0-8c-7 0-13.6-2.7-18.7-7.5h37.4c-5 4.8-11.7 7.5-18.7 7.5zm24.4-23c.1 0 .3 0 .4.1h.1c.4.1.7.3.9.6.4.5.5 1 .3 1.6 0 .2-.1.3-.1.5s-.2.6-.3.9c-.4 1.3-.9 2.5-1.4 3.7h-48.7c-.6-1.2-1.1-2.5-1.5-3.8l-.2-.8c-.1-.2-.1-.4-.2-.6-.2-1 .3-1.9 1.3-2.2h49.4z"/><path class="st4" d="M654 277.5c-.1-.2-.2-.3-.3-.5l24.2-125.8c1.4-7-.3-14.3-4.7-20.1.7-2.6 1-5.3 1-8V33.7c0-18.5-15-33.5-33.5-33.5H123.6c-18.5 0-33.5 15-33.5 33.5v89.5c0 2.1.2 4.2.6 6.3l-.2.2c-5.2 5.9-7.4 13.8-5.9 21.5l25 129.5c-.8.3-1.5.9-1.9 1.7-80.2 141.6-39.5 321 94 414.1.6.5 1.4.7 2.2.8 2.2 0 4-1.8 4-4 0-1.3-.6-2.5-1.7-3.3C78 600.4 37.4 429.1 111.6 291.6l7.2 37.1c.1.3.1.5.2.8L168.4 449 151 478.5c-1 1.7-.6 3.9 1 5.2l86.7 68.2c7.8 6.2 12.3 15.6 12.3 25.6l-3 116c-.1 2.2 1.7 4 3.9 4.1h.1c2.2 0 3.9-1.7 4-3.9l3-116.1c.1-12.5-5.5-24.3-15.3-32l-84-66.1 51-87.1c44.6 25.1 112.2 69.2 113.5 86.6l4.3 57.5c.1 1.7 1.3 3.2 3 3.6.3.1.7.1 1 .1 1.3 0 2.6-.7 3.3-1.8.1-.2 14-20.9 31.5-22.9 2.2-.3 3.7-2.2 3.5-4.4-.1-.8-.4-1.6-1-2.2 2.9.8 5.8 1.2 8.8 1.1h1.9c-.5.7-.8 1.5-.8 2.4v45.3c0 2.2 1.8 4 4 4s4-1.8 4-4v-42.1c20.1-2.7 37.1 22.6 37.3 22.8 1.2 1.8 3.7 2.3 5.5 1.1 1.1-.7 1.8-1.9 1.8-3.2l1.3-57.5v-.2c.3-.4.5-.8.7-1.3 6.6-21.4 83.4-68.2 114.7-85.8l33.8 59.8c.1.2.2.3.3.5l.3.9 15.2 26.9-84 66.1c-9.8 7.7-15.4 19.5-15.3 32l2.9 143.2c-38 16.1-78.9 24.4-120.2 24.3-2.2 0-4 1.8-4 4s1.8 4 4 4c174.3 0 315.5-141.3 315.5-315.6.1-56.3-15-111.6-43.5-160.1zM98 33.7c0-14.1 11.4-25.5 25.5-25.5h517.1c14.1 0 25.5 11.4 25.5 25.5v89.5c0 14.1-11.4 25.5-25.5 25.5h-517c-14.1 0-25.5-11.4-25.5-25.5L98 33.7zm505.6 133.4c1.6 3.9 4.7 6.9 8.6 8.5l5.5 2.3-11.4 37.8c-23.6-23.8-50.8-43.8-80.7-59H603c-1 3.4-.8 7.1.6 10.4zm-444.2-10.4h79.3c-30.5 15.6-58.2 36-82.1 60.5l-11.9-39.3 5.5-2.3c7.5-3 11.5-11.2 9.2-18.9zm46.3 228.5l-32.3 55.1-46.9-113.5-34.1-177.1c-.7-3.7-.2-7.6 1.4-10.9 5.8 11 17.2 18 29.7 18h27.6c0 .5.1.9.3 1.4 1.6 3.9-.3 8.4-4.2 10.1l-8.9 3.6c-1.9.8-2.9 2.9-2.3 4.9l21.5 71 14.4 59.6c.1.2.1.5.2.7l33.8 76.8s-.1.1-.2.3zm130 140.7l-3.4-45.2h12.2c1.8 12.2 10 22.6 21.5 27.1-13 1.6-23.8 10.9-30.3 18.1zm-33-283.4c-.5-4.2-3.3-8.6-6.4-12.2 5.8 1.2 11.4 3.2 16.5 6.1 1.9 1.1 4.3.5 5.5-1.3.5-.7.6-1.6.6-2.5l-2.1-20.7 10.5 11.5c1 1.2 2.7 1.6 4.1 1.1 41.7-13.1 69.8-6 70.1-5.9 32.4 8.4 53.6 24.1 63.1 46.6 2.1 5.1 3.6 10.4 4.4 15.8-9.3-15.4-18.1-23.1-18.5-23.5-1.7-1.5-4.2-1.3-5.6.4-.6.7-1 1.7-1 2.6v32.8c-44.1-1.6-60.1-29-60.8-30.2-.7-1.3-2-2.1-3.5-2-.3 0-.7 0-1 .1-1.8.5-3 2-3 3.8l-.2 18.3c-20.4-8.4-30-27.5-30.1-27.7-1-2-3.4-2.8-5.3-1.9-1.1.6-2 1.6-2.2 2.9l-2.9 15.1c-14.1-2.6-19.4-12.3-19.7-12.8-1-2-3.4-2.7-5.4-1.7-.1.1-.3.1-.4.2-10.2 6.8-18.2 17.4-23.5 25.8.4-28.5 14-36.4 14.7-36.8 1.4-.7 2.3-2.3 2.1-3.9zm-14.3 52.3c3.6-6.7 11.5-19.9 22.2-28.4 3.8 4.8 12.2 12.4 27 13.7 2 .2 3.9-1.2 4.3-3.2l1.7-8.9c6.1 8.2 17.3 19.7 34.5 24.8 2.1.6 4.3-.6 5-2.7.1-.4.2-.7.2-1.1l.1-12.4c9.7 10.2 29.7 24.9 64.4 24.9 2.2 0 4-1.8 4-4v-26.8c7.1 8.7 13.1 18.2 17.7 28.4 1.8 7.3 2.8 14.9 2.8 22.5 0 2.2 1.8 4 4 4h.1c8.4 0 15.1 6.8 15.1 15.2 0 8.4-6.8 15.1-15.2 15.1-2.2 0-4 1.8-4 4.1-.1 51.4-41.7 93-93.1 93.1h-.9c-51.4-.1-93.1-41.8-93.1-93.2 0-2.2-1.8-4-4-4-8.4 0-15.2-6.7-15.2-15.1s6.7-15.2 15.1-15.2c2.2 0 4-1.7 4.1-3.9v-.1c0-8.3 1.1-16.5 3.3-24.5.2-.8.2-1.5-.1-2.3zm90.2 207.3c-14.6 0-26.4-11.8-26.4-26.4v-18c8.5 2.3 17.2 3.4 26 3.4h.9c8.7 0 17.4-1.1 25.9-3.4v18c0 14.5-11.8 26.4-26.4 26.4zm46 23.2c-2.1-2.3-4.4-4.5-6.8-6.5-8.6-7.2-17.5-11-26-11.3 11.2-4.6 19.2-14.8 21-26.9h12.9l-1.1 44.7zm123.9-142.2c-.6 0-1.1.2-1.6.5-.3.1-27.9 15.5-56.2 34.2-36.8 24.2-57.5 42.2-63.1 54.9H413v-17.5c39-13.9 65.6-50.3 67.2-91.7 12.6-2.2 21-14.1 18.9-26.7-1.7-9.7-9.2-17.2-18.9-18.9-.3-7-1.3-14-3-20.9 1.3-11.7-.5-23.6-5-34.5-12.9-31.3-44.4-45.3-68.6-51.6-1.2-.3-29.4-7.5-72.1 5.3l-16.9-18.6c-1.5-1.6-4-1.7-5.7-.2-.9.9-1.4 2.1-1.3 3.3l2.6 25.5c-6-2.6-15.3-5.4-24.7-4.3-2.2.3-3.8 2.3-3.5 4.5.1 1 .7 2 1.5 2.7 3.7 2.9 8.9 8.2 10.6 12.2-6 4.9-19.6 20.1-15.4 56.6.1.7.4 1.4.9 2-1.3 5.9-2.1 11.9-2.3 18-12.6 2.2-21 14.1-18.9 26.7 1.7 9.7 9.2 17.2 18.9 18.9 1.5 41.4 28 77.6 67 91.6v17.5h-13.6c-3.5-7.9-15.7-23.3-60.5-53.1-23.1-15.4-46.3-28.8-55.2-33.9 0-.1-.1-.2-.1-.3l-35.4-80.2-14.4-59.4-.1-.2-5.9-19.6c27.7-29.2 60.8-52.7 97.6-69.1.1-.1.3-.1.4-.2H507c36.3 16.1 69.1 39.1 96.6 67.7l-6.4 21.1c0 .1 0 .1-.1.2l-14.4 59.5-34.2 78zm7 3.7l34.7-78.8c.1-.2.2-.4.2-.7l14.4-59.6 6.6-21.8c.6-.8.9-1.7.8-2.6l14.1-46.6c.6-2-.4-4.1-2.3-4.9l-8.9-3.7c-4-1.6-5.9-6.2-4.2-10.1.2-.4.3-.9.3-1.4h29.4c11.7 0 22.6-6.1 28.7-16.2 1.1 2.9 1.3 6.1.7 9.1l-34.2 177.2-48.2 116.8-32.1-56.7zm44 268.3c-25.8 25.9-56.1 47-89.4 62.3l-2.8-139.9c-.1-10 4.4-19.4 12.3-25.6l86.7-68.2c1.6-1.2 2-3.4 1-5.1l-14.8-26.1c0-.1.1-.2.1-.2l50.7-122.8c.1-.2.2-.5.2-.8l7.7-39.7c66.4 120 45.3 269.3-51.7 366.1z"/><g class="st1"><path class="st4" d="M614.4 171.7c-6-2.5-8.9-9.4-6.4-15.4.6-1.4 1.5-2.8 2.6-3.9h19l.2.1v-.1h7.6c14 0 26-9.8 29-23.4 6.6 4.9 9.8 13.1 8.2 21.1l-7.2 37.6h-47.9l3.8-12.5-8.9-3.5z"/></g><path class="st0" d="M677.9 674.4l-4.4 8c-2.5 4.5-6.2 8.2-10.7 10.7l-8 4.4 8 4.4c4.5 2.5 8.3 6.2 10.7 10.7l4.4 8 4.4-8c2.5-4.5 6.2-8.2 10.7-10.7l8-4.4-8-4.4c-4.5-2.5-8.2-6.2-10.7-10.7l-4.4-8z"/><circle class="st0" cx="737.7" cy="652.8" r="7.9"/><g class="st1"><path class="st2" d="M677.9 674.4l-4.4 8c-2.5 4.5-6.2 8.2-10.7 10.7l-8 4.4 8 4.4c4.5 2.5 8.3 6.2 10.7 10.7l4.4 8 4.4-8c2.5-4.5 6.2-8.2 10.7-10.7l8-4.4-8-4.4c-4.5-2.5-8.2-6.2-10.7-10.7l-4.4-8z"/></g><path class="st0" d="M24.9 36.4l-4.4 8c-2.5 4.5-6.2 8.2-10.7 10.7l-8 4.4 8 4.4c4.5 2.5 8.2 6.2 10.7 10.7l4.4 8 4.4-8c2.5-4.5 6.2-8.2 10.7-10.7l8-4.4-8-4.4c-4.5-2.5-8.2-6.2-10.7-10.7l-4.4-8z"/><g class="st1"><path class="st2" d="M24.9 36.4l-4.4 8c-2.5 4.5-6.2 8.2-10.7 10.7l-8 4.4 8 4.4c4.5 2.5 8.2 6.2 10.7 10.7l4.4 8 4.4-8c2.5-4.5 6.2-8.2 10.7-10.7l8-4.4-8-4.4c-4.5-2.5-8.2-6.2-10.7-10.7l-4.4-8z"/></g><g class="st1"><circle class="st2" cx="737.7" cy="652.8" r="7.9"/></g><path class="st0" d="M483.3 767.8h-96.9c-1.7 0-3.2-1.1-3.8-2.7-9.2-26.7-38.3-40.8-65-31.6-6.5 2.2-12.4 5.7-17.5 10.3-1.6 1.5-4.2 1.4-5.6-.3-.4-.4-.7-.9-.9-1.5-11.6-36.7-50.8-57.1-87.6-45.5-29 9.2-48.7 36.1-48.7 66.5V763.6c0 2.2-1.8 4-4 4H99.1c-2.2 0-4-1.8-4-4s1.8-4 4-4h50.4c1.9-42.9 38.2-76.2 81.1-74.3 30.5 1.3 57.4 20.4 68.8 48.8 26.3-19.3 63.3-13.7 82.6 12.6 2.9 4 5.4 8.4 7.2 13h94.2c2.2 0 4 1.8 4 4s-1.8 4.1-4.1 4.1z"/><g class="st1"><path class="st2" d="M58.6 767.2H29.2c-2.2 0-4-1.8-4-4s1.8-4 4-4h29.3c2.2 0 4 1.8 4 4s-1.7 4-3.9 4z"/></g><g class="st1"><path class="st2" d="M483.3 767.8h-96.9c-1.7 0-3.2-1.1-3.8-2.7-9.2-26.7-38.3-40.8-65-31.6-6.5 2.2-12.4 5.7-17.5 10.3-1.6 1.5-4.2 1.4-5.6-.3-.4-.4-.7-.9-.9-1.5-11.6-36.7-50.8-57.1-87.6-45.5-29 9.2-48.7 36.1-48.7 66.5V763.6c0 2.2-1.8 4-4 4H99.1c-2.2 0-4-1.8-4-4s1.8-4 4-4h50.4c1.9-42.9 38.2-76.2 81.1-74.3 30.5 1.3 57.4 20.4 68.8 48.8 26.3-19.3 63.3-13.7 82.6 12.6 2.9 4 5.4 8.4 7.2 13h94.2c2.2 0 4 1.8 4 4s-1.8 4.1-4.1 4.1z"/></g><path d="M302.7 242.5c-.5-4.2-3.3-8.6-6.4-12.2 5.8 1.2 11.4 3.2 16.6 6.1 1.9 1.1 4.3.5 5.5-1.3.5-.7.6-1.6.6-2.5l-2.1-20.7 10.5 11.5c1 1.2 2.7 1.6 4.1 1.1 41.7-13.1 69.8-6 70.1-5.9 32.4 8.4 53.6 24.1 63.1 46.6 2.1 5.1 3.6 10.4 4.4 15.8-9.3-15.4-18.1-23.1-18.5-23.5-1.7-1.5-4.2-1.3-5.6.4-.6.7-1 1.7-1 2.6v32.8c-44.1-1.6-60.1-29-60.8-30.2-.7-1.3-2-2.1-3.5-2-.3 0-.7 0-1 .1-1.8.5-3 2-3 3.8l-.2 18.3c-20.4-8.4-30-27.5-30.1-27.7-1-2-3.4-2.8-5.3-1.9-1.1.6-2 1.6-2.2 2.9l-2.9 15.1c-14.1-2.6-19.4-12.3-19.7-12.8-1-2-3.4-2.7-5.4-1.7-.1.1-.3.1-.4.2-10.2 6.8-18.2 17.4-23.5 25.8.4-28.5 14-36.4 14.7-36.8 1.3-.7 2.2-2.3 2-3.9z" opacity=".4" fill="#a644e5"/></g></g></svg>