<svg id="Layer_1" data-name="Layer 1" xmlns="http://www.w3.org/2000/svg" viewBox="0 0 768 768"><defs><style>.cls-1{fill:#fff}.cls-2{opacity:.4}.cls-3{fill:#a644e5}.cls-5{fill:#0073ec}</style></defs><path class="cls-1" d="M344.71 64l.36-.65 3.73-6.53a59 59 0 0 0-75.61-4.71 77.78 77.78 0 0 0-149.92 25.52H72.9a4 4 0 0 0 0 8h54.31a4 4 0 0 0 4-4V81a69.78 69.78 0 0 1 136.3-21 4 4 0 0 0 6.5 1.76 51.05 51.05 0 0 1 70.7 2.24zM457.18 77.63h-30.54c1.36 2.68 2.67 5.34 3.92 8h26.62a4 4 0 0 0 0-8z"/><g class="cls-2"><path class="cls-3" d="M344.71 64l.36-.65 3.73-6.53a59 59 0 0 0-75.61-4.71 77.78 77.78 0 0 0-149.92 25.52H72.9a4 4 0 0 0 0 8h54.31a4 4 0 0 0 4-4V81a69.78 69.78 0 0 1 136.3-21 4 4 0 0 0 6.5 1.76 51.05 51.05 0 0 1 70.7 2.24zM457.18 77.63h-30.54c1.36 2.68 2.67 5.34 3.92 8h26.62a4 4 0 0 0 0-8z"/></g><path class="cls-1" d="M546 618.94a79.31 79.31 0 0 0-63.68 32.14l.19-.59h-436a36 36 0 0 1-36-36v-29.65h282.16A55.83 55.83 0 0 0 342.73 616h81.87a55.83 55.83 0 0 0 50.06-31.12h282.22v29.65a36 36 0 0 1-36 36H609.32A78.9 78.9 0 0 0 546 618.94z"/><path class="cls-1" d="M63.61 166.77a36 36 0 0 1 36-36H676a36 36 0 0 1 36 36v410.07H471.11a4 4 0 0 0-3.66 2.4A47.83 47.83 0 0 1 423.6 608h-81.87a47.82 47.82 0 0 1-43.84-28.72 4 4 0 0 0-3.67-2.4H63.61z"/><path d="M454.16 174.14c3.38 53.79-12.88 107.09-43.38 164.71h-57.56c-30.5-57.62-46.76-110.92-43.38-164.71H98.92v406.7h195.3A51.81 51.81 0 0 0 341.73 612h81.87a51.81 51.81 0 0 0 47.51-31.12h197.54V174.14z" fill="#0073ec" opacity=".4"/><path class="cls-1" d="M530.68 533.49a72.39 72.39 0 0 0-15.47 1.68v-12.82h-.66a47.21 47.21 0 0 0-85.38-19c-26.77-49.42-36.73-120.77-40.41-164.49h-14.31c-3.63 43.09-13.34 113-39.23 162.34a47.22 47.22 0 0 0-84.14 34.51 72.34 72.34 0 0 0-85.63 45.14h128.77A51.81 51.81 0 0 0 341.73 612h81.87a51.81 51.81 0 0 0 47.51-31.12h127.44a72.32 72.32 0 0 0-67.87-47.39zM693.73 36.18l-4.36 8a27.06 27.06 0 0 1-10.73 10.72l-8 4.36 8 4.36a27 27 0 0 1 10.73 10.73l4.36 8 4.36-8a27.06 27.06 0 0 1 10.72-10.75l8-4.36-8-4.36a27.1 27.1 0 0 1-10.72-10.72zM554.57 722.07l-4.36 8a27 27 0 0 1-10.72 10.72l-8 4.37 8 4.36a27 27 0 0 1 10.72 10.72l4.36 8 4.36-8a26.93 26.93 0 0 1 10.73-10.72l8-4.36-8-4.37A26.93 26.93 0 0 1 558.93 730z"/><circle class="cls-1" cx="753.51" cy="14.64" r="7.87"/><g class="cls-2"><path class="cls-3" d="M693.73 36.18l-4.36 8a27.06 27.06 0 0 1-10.73 10.72l-8 4.36 8 4.36a27 27 0 0 1 10.73 10.73l4.36 8 4.36-8a27.06 27.06 0 0 1 10.72-10.75l8-4.36-8-4.36a27.1 27.1 0 0 1-10.72-10.72z"/></g><g class="cls-2"><path class="cls-3" d="M554.57 722.07l-4.36 8a27 27 0 0 1-10.72 10.72l-8 4.37 8 4.36a27 27 0 0 1 10.72 10.72l4.36 8 4.36-8a26.93 26.93 0 0 1 10.73-10.72l8-4.36-8-4.37A26.93 26.93 0 0 1 558.93 730z"/></g><g class="cls-2"><circle class="cls-3" cx="753.51" cy="14.64" r="7.87"/></g><path class="cls-5" d="M759.88 576.84H720V166.77a44.05 44.05 0 0 0-44-44H99.61a44.05 44.05 0 0 0-44 44v410.07H5.45a4 4 0 0 0-4 4v33.65a44.05 44.05 0 0 0 44 44h433.39l2.66-8h-436a36 36 0 0 1-36-36v-29.65h282.17A55.83 55.83 0 0 0 341.73 616h81.87a55.83 55.83 0 0 0 50.06-31.12h282.22v29.65a36 36 0 0 1-36 36H599.72a54.19 54.19 0 0 1 8.8 8h111.36a44.05 44.05 0 0 0 44-44v-33.69a4 4 0 0 0-4-4zm-47.86 0H471.11a4 4 0 0 0-3.66 2.4A47.83 47.83 0 0 1 423.6 608h-81.87a47.82 47.82 0 0 1-43.84-28.72 4 4 0 0 0-3.67-2.4H63.61V166.77a36 36 0 0 1 36-36H676a36 36 0 0 1 36 36z"/><path class="cls-1" d="M222.16 724.93h-87.34a4 4 0 0 1 0-8h87.34a4 4 0 0 1 0 8zM762.53 724.93h-52.24a4 4 0 0 1-4-4.26c.09-1.34.13-2.45.13-3.47a52.15 52.15 0 0 0-87-38.75 4 4 0 0 1-6.49-1.77 71.21 71.21 0 0 0-137.78 7.82 4 4 0 0 1-5.91 2.72 43.9 43.9 0 0 0-65.4 34.08 4 4 0 0 1-4 3.63H256.15a4 4 0 1 1 0-8h140.14a51.93 51.93 0 0 1 72.13-39 79.21 79.21 0 0 1 150.15-9.08 60.15 60.15 0 0 1 95.86 48.13h48.1a4 4 0 0 1 0 8zM32.39 85H3.05a4 4 0 1 1 0-8h29.34a4 4 0 0 1 0 8z"/><g class="cls-2"><path class="cls-3" d="M222.16 724.93h-87.34a4 4 0 0 1 0-8h87.34a4 4 0 0 1 0 8z"/></g><g class="cls-2"><path class="cls-3" d="M762.53 724.93h-52.24a4 4 0 0 1-4-4.26c.09-1.34.13-2.45.13-3.47a52.15 52.15 0 0 0-87-38.75 4 4 0 0 1-6.49-1.77 71.21 71.21 0 0 0-137.78 7.82 4 4 0 0 1-5.91 2.72 43.9 43.9 0 0 0-65.4 34.08 4 4 0 0 1-4 3.63H256.15a4 4 0 1 1 0-8h140.14a51.93 51.93 0 0 1 72.13-39 79.21 79.21 0 0 1 150.15-9.08 60.15 60.15 0 0 1 95.86 48.13h48.1a4 4 0 0 1 0 8z"/></g><g class="cls-2"><path class="cls-3" d="M32.39 85H3.05a4 4 0 1 1 0-8h29.34a4 4 0 0 1 0 8z"/></g><path class="cls-1" d="M353.22 338.85c-51-96.43-62.24-180.79-8.15-275.54l35-61.31 38.86 61.31c54.09 94.75 42.89 179.11-8.15 275.54z"/><path d="M353.22 338.85c-51-96.43-62.24-180.79-8.15-275.54l35-61.31 38.86 61.31c54.09 94.75 42.89 179.11-8.15 275.54z" fill="#a644e5" opacity=".4"/><path class="cls-1" d="M328.89 401.69a5.21 5.21 0 0 1-9.16 4.39l-51.75-65a11.55 11.55 0 0 1-.91-13.12l45.59-80.6c6.78 28.19 18.42 57.76 35.43 90.33a68.07 68.07 0 0 0-19.2 64zM496 341.05l-51.75 65a5.21 5.21 0 0 1-9.16-4.39 68.07 68.07 0 0 0-19.2-64c17-32.57 28.65-62.14 35.43-90.33L497 328a11.53 11.53 0 0 1-1 13.05z"/><path class="cls-5" d="M503.9 324l-50-88.4a253.73 253.73 0 0 0 4.37-34.93c2.53-47-9.2-92.63-35.87-139.34l-.09-.16L383.45-.14A3.94 3.94 0 0 0 380-2a4 4 0 0 0-3.38 2l-35 61.31c-26.67 46.71-38.4 92.29-35.87 139.34a253.73 253.73 0 0 0 4.37 34.93l-50 88.35a19.49 19.49 0 0 0 1.6 22.07l51.75 65a13.22 13.22 0 0 0 23.23-11.13 60.07 60.07 0 0 1 17.53-57.08h55.54a60.07 60.07 0 0 1 17.53 57.08 13 13 0 0 0 7.18 14.81 13.45 13.45 0 0 0 5.82 1.35 13 13 0 0 0 10.23-5l51.75-65A19.47 19.47 0 0 0 503.9 324zM348.55 65.29l31.7-55.54 35.25 55.62c31.89 55.89 42.09 109.63 30.41 168.79a4.11 4.11 0 0 0-.4 2c-6.34 30.89-18.63 63.27-36.89 98.21h-53.24c-18.26-34.94-30.55-67.32-36.89-98.21a4.11 4.11 0 0 0-.4-2C306.4 175 316.62 121.21 348.55 65.29zm-19.66 336.4a5.21 5.21 0 0 1-9.16 4.39l-51.75-65a11.55 11.55 0 0 1-.91-13.12l45.59-80.6c6.78 28.19 18.42 57.76 35.43 90.33a68.07 68.07 0 0 0-19.2 64zM496 341.05l-51.75 65a5.21 5.21 0 0 1-9.16-4.39 68.07 68.07 0 0 0-19.2-64c17-32.57 28.65-62.14 35.43-90.33L497 328a11.53 11.53 0 0 1-1 13.05z"/><circle class="cls-1" cx="382" cy="147.35" r="31.48"/><path class="cls-5" d="M382 182.83a35.49 35.49 0 1 1 35.48-35.48A35.52 35.52 0 0 1 382 182.83zm0-63a27.49 27.49 0 1 0 27.48 27.49A27.52 27.52 0 0 0 382 119.86z"/><circle class="cls-5" cx="382" cy="147.35" r="13.17"/><path class="cls-1" d="M546 428.73l4.83 8.82a29.9 29.9 0 0 0 11.86 11.87l8.83 4.82-8.83 4.83a29.88 29.88 0 0 0-11.86 11.86l-4.83 8.82-4.82-8.82a29.88 29.88 0 0 0-11.86-11.86l-8.83-4.83 8.83-4.82a29.9 29.9 0 0 0 11.86-11.87zM581.31 325.44l3.55 6.49a21.93 21.93 0 0 0 8.73 8.72l6.49 3.55-6.49 3.55a22 22 0 0 0-8.73 8.73l-3.55 6.52-3.54-6.49a22 22 0 0 0-8.73-8.73l-6.49-3.55 6.49-3.55a22 22 0 0 0 8.73-8.72zM190.68 394.3l3.55 6.49a21.93 21.93 0 0 0 8.73 8.72l6.49 3.55-6.45 3.55a21.89 21.89 0 0 0-8.73 8.73l-3.55 6.48-3.55-6.48a21.87 21.87 0 0 0-8.72-8.73l-6.49-3.55 6.49-3.55a21.91 21.91 0 0 0 8.72-8.72z"/></svg>