<svg id="Layer_1" xmlns="http://www.w3.org/2000/svg" viewBox="0 0 768 768"><style>.st0{fill:#fff}.st1{fill:#0073ec;enable-background:new}.st1,.st2{opacity:.4}.st3{fill:#0073ec}.st4,.st5{fill:#a644e5}.st5{opacity:.4;enable-background:new}</style><path class="st0" d="M130.1 258.7c-7.3 0-13.2-5.9-13.2-13.2V116c0-7.3 5.9-13.2 13.2-13.2h513.6c7.3 0 13.2 5.9 13.2 13.2v129.5c0 7.3-5.9 13.2-13.2 13.2H130.1zM149.9 266.7h474v30.9h-474zM130.1 461.5c-7.3 0-13.2-5.9-13.2-13.2V318.8c0-7.3 5.9-13.2 13.2-13.2h513.6c7.3 0 13.2 5.9 13.2 13.2v69.9c-18.4-13.5-39.1-23.3-61.1-29v-.7c0-8.7-7.1-15.8-15.8-15.8-7 0-13.1 4.6-15.1 11.3-4.7-.4-9.5-.6-14.2-.6-71.4 0-136.1 42.2-164.8 107.5H130.1zM149.9 500.3v-30.9h232.6c-3.8 10-6.8 20.3-8.8 30.9H149.9z"/><path class="st1" d="M149.9 266.7h474v30.9h-474zM149.9 500.3v-30.9h232.6c-3.8 10-6.8 20.3-8.8 30.9H149.9z"/><path class="st0" d="M381.5 502.6C398.7 409 488.6 347 582.2 364.3c93.6 17.2 155.5 107.1 138.3 200.7-17.2 93.6-107.1 155.5-200.7 138.3-81.7-15-141.1-86.3-141.1-169.4 0-9 .7-17.9 2.1-26.7l.7-4.6z"/><g class="st2"><path class="st3" d="M599.5 617.3l-37-16.9c-7.2-3.3-15.7-2.3-22 2.6l-10.5 8.2c-48.4-13.8-61.6-61.6-61.6-61.6l8.1-10.5c4.9-6.3 5.9-14.8 2.6-22l-16.9-37c-4.9-10.7-17.6-15.5-28.3-10.6-1.4.6-2.7 1.4-3.9 2.3-11.3 8.4-23.1 23.1-26.4 48.2-.8 6.3.2 12.7 1.7 18.8C439.5 673.7 559.5 676 559.5 676c25.2-3.3 39.8-15.1 48.2-26.4 7.1-9.5 5.1-22.9-4.4-29.9-1.1-1-2.4-1.8-3.8-2.4z"/></g><path class="st0" d="M386.7 661.5c-4.8-29.2-32.3-49-61.4-44.2-4.5.7-8.9 2-13.1 3.9-.2-.7-.4-1.3-.6-2-1.1-3.7-2.4-7.4-4-10.9-7.3-16.1-19.6-29.4-35-37.9-12.1-6.7-25.7-10.2-39.5-10.2-1.4 0-2.7 0-4.1.1-2.5.1-4.9.3-7.3.7-12.7 1.7-24.7 6.4-35.3 13.7-2.8 1.9-5.5 4.1-8 6.3-9.4 8.5-16.8 19-21.4 30.8-10.7-8-23.7-12.2-37-12.2-1.1 0-2.1 0-3.2.1v-78.1c0-7.3 5.9-13.2 13.2-13.2h242.3c-1.2 8.5-1.8 17-1.8 25.6-.1 47.9 19 93.8 53 127.6h-36.8zM117.9 107.9c-1.6 0-3.1-1-3.7-2.5C104.9 82 78.4 70.6 55 79.9c-1.9.8-3.8 1.7-5.6 2.7-1.1.6-2.5.7-3.7.2-1.2-.5-2-1.6-2.2-2.9C39.3 58.4 25.8 40 6.7 29.4c-1.9-1.1-2.6-3.6-1.5-5.5s3.4-2.5 5.3-1.5c19.6 10.8 34 29.2 39.6 50.8 27-12 58.7.2 70.7 27.3.3.6.5 1.2.8 1.8.8 2.1-.2 4.4-2.2 5.2-.5.3-1 .4-1.5.4zM693.8.5l4.2 7.6c2.4 4.3 5.9 7.9 10.2 10.2l7.6 4.2-7.6 4.2c-4.3 2.4-7.9 5.9-10.2 10.2l-4.2 7.6-4.2-7.6c-2.4-4.3-5.9-7.9-10.2-10.2l-7.6-4.2 7.6-4.2c4.3-2.4 7.9-5.9 10.2-10.2l4.2-7.6z"/><circle class="st0" cx="755.9" cy="72.4" r="7.5"/><path class="st0" d="M238.3 707.7L244 718c3.2 5.9 8 10.7 13.9 13.9l10.3 5.7-10.3 5.7c-5.9 3.2-10.7 8.1-13.9 13.9l-5.7 10.3-5.6-10.3c-3.2-5.9-8-10.7-13.9-13.9l-10.3-5.7 10.3-5.7c5.9-3.2 10.7-8.1 13.9-13.9l5.6-10.3z"/><g class="st2"><path class="st4" d="M117.9 107.9c-1.6 0-3.1-1-3.7-2.5C104.9 82 78.4 70.6 55 79.9c-1.9.8-3.8 1.7-5.6 2.7-1.1.6-2.5.7-3.7.2-1.2-.5-2-1.6-2.2-2.9C39.3 58.4 25.8 40 6.7 29.4c-1.9-1.1-2.6-3.6-1.5-5.5s3.4-2.5 5.3-1.5c19.6 10.8 34 29.2 39.6 50.8 27-12 58.7.2 70.7 27.3.3.6.5 1.2.8 1.8.8 2.1-.2 4.4-2.2 5.2-.5.3-1 .4-1.5.4z"/></g><path class="st5" d="M693.8.5l4.2 7.6c2.4 4.3 5.9 7.9 10.2 10.2l7.6 4.2-7.6 4.2c-4.3 2.4-7.9 5.9-10.2 10.2l-4.2 7.6-4.2-7.6c-2.4-4.3-5.9-7.9-10.2-10.2l-7.6-4.2 7.6-4.2c4.3-2.4 7.9-5.9 10.2-10.2l4.2-7.6z"/><circle class="st5" cx="755.9" cy="72.4" r="7.5"/><g class="st2"><path class="st4" d="M238.3 707.7L244 718c3.2 5.9 8 10.7 13.9 13.9l10.3 5.7-10.3 5.7c-5.9 3.2-10.7 8.1-13.9 13.9l-5.7 10.3-5.6-10.3c-3.2-5.9-8-10.7-13.9-13.9l-10.3-5.7 10.3-5.7c5.9-3.2 10.7-8.1 13.9-13.9l5.6-10.3z"/></g><path class="st3" d="M182.4 213.2c-2.2 0-4-1.8-4-4v-53c0-2.2 1.8-4 4-4s4 1.8 4 4v53c0 2.2-1.7 4-4 4zM225.5 213.2c-2.2 0-4-1.8-4-4v-53c0-2.2 1.8-4 4-4s4 1.8 4 4v53c0 2.2-1.8 4-4 4zM268.5 213.2c-2.2 0-4-1.8-4-4v-53c0-2.2 1.8-4 4-4s4 1.8 4 4v53c0 2.2-1.7 4-4 4zM311.6 213.2c-2.2 0-4-1.8-4-4v-53c0-2.2 1.8-4 4-4s4 1.8 4 4v53c0 2.2-1.8 4-4 4zM354.6 213.2c-2.2 0-4-1.8-4-4v-53c0-2.2 1.8-4 4-4s4 1.8 4 4v53c0 2.2-1.8 4-4 4z"/><circle class="st3" cx="580" cy="156.2" r="15.8"/><g class="st2"><circle class="st3" cx="580" cy="208.5" r="15.8"/></g><path class="st3" d="M182.4 416c-2.2 0-4-1.8-4-4v-53c0-2.2 1.8-4 4-4s4 1.8 4 4v53c0 2.2-1.7 4-4 4zM225.5 416c-2.2 0-4-1.8-4-4v-53c0-2.2 1.8-4 4-4s4 1.8 4 4v53c0 2.2-1.8 4-4 4zM268.5 416c-2.2 0-4-1.8-4-4v-53c0-2.2 1.8-4 4-4s4 1.8 4 4v53c0 2.2-1.7 4-4 4zM311.6 416c-2.2 0-4-1.8-4-4v-53c0-2.2 1.8-4 4-4s4 1.8 4 4v53c0 2.2-1.8 4-4 4zM354.6 416c-2.2 0-4-1.8-4-4v-53c0-2.2 1.8-4 4-4s4 1.8 4 4v53c0 2.2-1.8 4-4 4zM182.4 585.7c-2.2 0-4-1.8-4-4v-20c0-2.2 1.8-4 4-4s4 1.8 4 4v20c0 2.2-1.7 4-4 4zM225.5 567.7c-2.2 0-4-1.8-4-4v-2c0-2.2 1.8-4 4-4s4 1.8 4 4v2c0 2.2-1.8 4-4 4zM268.5 574.7c-2.2 0-4-1.8-4-4v-9c0-2.2 1.8-4 4-4s4 1.8 4 4v9c0 2.2-1.7 4-4 4zM311.6 618.7c-2.2 0-4-1.8-4-4v-53c0-2.2 1.8-4 4-4s4 1.8 4 4v53c0 2.2-1.8 4-4 4zM354.6 618.7c-2.2 0-4-1.8-4-4v-53c0-2.2 1.8-4 4-4s4 1.8 4 4v53c0 2.2-1.8 4-4 4z"/><path class="st3" d="M664.9 394.8v-76.1c0-11.7-9.5-21.2-21.2-21.2h-11.8v-30.9h11.8c11.7 0 21.2-9.5 21.2-21.2V116c0-11.7-9.5-21.2-21.2-21.2H130.1c-11.7 0-21.2 9.5-21.2 21.2v129.5c0 11.7 9.5 21.2 21.2 21.2h11.8v30.9h-11.8c-11.7 0-21.2 9.5-21.2 21.2v129.5c0 11.7 9.5 21.2 21.2 21.2h11.8v30.9h-11.8c-11.7 0-21.2 9.5-21.2 21.2V602c0 2.2 1.8 4 4 4s4-1.8 4-4v-80.5c0-7.3 5.9-13.2 13.2-13.2h242.3c-14.1 98.4 54.3 189.6 152.7 203.7 98.4 14.1 189.6-54.3 203.7-152.7 1.2-8.4 1.8-16.9 1.8-25.3.1-54-24-105-65.7-139.2zM130.1 258.7c-7.3 0-13.2-5.9-13.2-13.2V116c0-7.3 5.9-13.2 13.2-13.2h513.6c7.3 0 13.2 5.9 13.2 13.2v129.5c0 7.3-5.9 13.2-13.2 13.2H130.1zm493.8 8v30.9h-474v-30.9h474zM130.1 461.5c-7.3 0-13.2-5.9-13.2-13.2V318.8c0-7.3 5.9-13.2 13.2-13.2h513.6c7.3 0 13.2 5.9 13.2 13.2v69.9c-18.4-13.5-39.1-23.3-61.1-29v-.7c0-8.7-7.1-15.8-15.8-15.8-7 0-13.1 4.6-15.1 11.3-4.7-.4-9.5-.6-14.2-.6-71.4 0-136.1 42.2-164.8 107.5H130.1zm19.8 38.8v-30.9h232.6c-3.8 10-6.8 20.3-8.8 30.9H149.9zm231.6 2.3C398.7 409 488.6 347 582.2 364.3c93.6 17.2 155.5 107.1 138.3 200.7-17.2 93.6-107.1 155.5-200.7 138.3-81.7-15-141.1-86.3-141.1-169.4 0-9 .7-17.9 2.1-26.7l.7-4.6z"/><path class="st3" d="M561.4 406.4c-45 0-86.3 24.5-107.8 64-3.3-2-7.1-3-11-3v8c5.3 0 10 3.1 12.2 7.8l16.9 37c2.1 4.5 1.5 9.9-1.6 13.8l-8.2 10.5c-1.6 2-2.1 4.6-1.4 7 3.2 10 7.8 19.4 13.8 28 13.3 19.5 31.8 33 53.4 39.2.7.2 1.5.3 2.2.3 1.8 0 3.5-.6 4.9-1.7l10.5-8.2c2.4-1.8 5.2-2.8 8.2-2.8 1.9 0 3.8.4 5.6 1.2l37 16.9c3.7 1.7 6.4 5 7.4 8.9.4 1.4.5 2.9.4 4.4v.2c-.2 2.4-1.1 4.7-2.6 6.7-9.5 12.8-23.8 20.6-42.2 23.2-4.1-.2-30.5-2-60.3-17.1-18.8-9.5-35.4-22.7-48.9-38.8-17-20.3-29.4-45.6-36.9-75.2-1.6-6.5-2.1-11.4-1.5-15.8 2.5-18.8 10.3-33.2 23.3-42.9 2.3-1.7 5.1-2.6 7.9-2.6v-8c-4.6 0-9 1.5-12.7 4.2-11.3 8.4-23.1 23.1-26.4 48.2-.8 6.3.2 12.7 1.7 18.8C439.5 673.7 559.5 676 559.5 676c25.2-3.3 39.8-15.1 48.2-26.4 1.8-2.4 3.1-5.2 3.7-8.1 62-27.6 89.8-100.2 62.2-162.1-19.6-44.4-63.6-73-112.2-73zm50.2 226.1c-1.4-6.7-5.9-12.4-12.1-15.2l-37-16.9c-7.2-3.3-15.7-2.3-22 2.6l-10.5 8.2c-48.4-13.8-61.6-61.6-61.6-61.6l8.1-10.5c4.9-6.3 5.9-14.8 2.6-22l-16.9-37c-.7-1.4-1.5-2.8-2.4-4 29.5-56.2 98.8-77.8 155-48.4 56.2 29.5 77.8 98.8 48.4 155-11.5 21.7-29.6 39.2-51.6 49.8z"/><path class="st3" d="M561.4 455c-2.2 0-4-1.8-4-4v-16.1c0-2.2 1.8-4 4-4s4 1.8 4 4V451c0 2.2-1.8 4-4 4zM653.9 538.3h-16.1c-2.2 0-4-1.8-4-4s1.8-4 4-4h16.1c2.2 0 4 1.8 4 4s-1.8 4-4 4zM630.1 601.4c-.8 0-1.7-.3-2.3-.8l-13.1-9.4c-1.8-1.3-2.2-3.8-.9-5.6 1.3-1.8 3.8-2.2 5.6-.9l13.1 9.4c1.8 1.3 2.2 3.8.9 5.6-.9 1.1-2.1 1.7-3.3 1.7zM617.7 480.1c-2.2 0-4-1.8-4-4 0-1.1.5-2.2 1.3-2.9l11.8-11c1.6-1.5 4.1-1.4 5.7.2 1.5 1.6 1.4 4.1-.2 5.7l-11.8 11c-.9.6-1.8 1-2.8 1zM506.2 480.5c-1.1 0-2.2-.5-2.9-1.3l-11-11.8c-1.7-1.4-1.9-4-.4-5.6s4-1.9 5.6-.4l.6.6 11 11.7c1.5 1.6 1.4 4.1-.2 5.7-.7.7-1.7 1.1-2.7 1.1zM584.5 561.3c-.9 0-1.7-.3-2.4-.8l-23-17.7c-1-.8-1.6-1.9-1.6-3.2v-44.8c0-2.2 1.8-4 4-4s4 1.8 4 4v42.9l21.4 16.5c1.8 1.3 2.1 3.9.7 5.6-.7.9-1.9 1.5-3.1 1.5z"/><path class="st0" d="M423.1 661.5h-36.5c-4.8-29.2-32.3-49-61.4-44.2-4.5.7-8.9 2-13.1 3.9-.2-.7-.4-1.3-.6-2-1.1-3.7-2.4-7.4-4-10.9-7.3-16.1-19.6-29.4-35-37.9-12.1-6.7-25.7-10.2-39.5-10.2-1.4 0-2.7 0-4.1.1-2.5.1-4.9.3-7.3.7-12.7 1.7-24.7 6.4-35.3 13.7-2.8 1.9-5.5 4.1-8 6.3-9.4 8.5-16.8 19-21.4 30.8-10.7-8-23.7-12.2-37-12.2-1.1 0-2.1 0-3.2.1-32.7 1.7-58.6 28.8-58.7 61.8H10.8c-2.2 0-4 1.8-4 4s1.8 4 4 4h51.3c2.2 0 4-1.8 4-4v-.3c-.1-1.4-.1-2.5-.1-3.6-.1-29.8 24.1-54 53.9-54.1 13.4 0 26.4 4.9 36.3 13.9 1.6 1.5 4.2 1.3 5.6-.3.4-.4.7-.9.8-1.5 12.3-38.8 53.7-60.4 92.6-48.1 25.7 8.1 45 29.7 50.1 56.2.4 2.2 2.5 3.6 4.7 3.2.4-.1.8-.2 1.2-.5 21.9-12.4 49.7-4.8 62.1 17.1 3.2 5.6 5.1 11.8 5.7 18.2.2 2.1 1.9 3.6 4 3.6h48.5c-2.7-2.4-5.6-5-8.4-7.8z"/><path class="st5" d="M423.1 661.5h-36.5c-4.8-29.2-32.3-49-61.4-44.2-4.5.7-8.9 2-13.1 3.9-.2-.7-.4-1.3-.6-2-1.1-3.7-2.4-7.4-4-10.9-7.3-16.1-19.6-29.4-35-37.9-12.1-6.7-25.7-10.2-39.5-10.2-1.4 0-2.7 0-4.1.1-2.5.1-4.9.3-7.3.7-12.7 1.7-24.7 6.4-35.3 13.7-2.8 1.9-5.5 4.1-8 6.3-9.4 8.5-16.8 19-21.4 30.8-10.7-8-23.7-12.2-37-12.2-1.1 0-2.1 0-3.2.1-32.7 1.7-58.6 28.8-58.7 61.8H10.8c-2.2 0-4 1.8-4 4s1.8 4 4 4h51.3c2.2 0 4-1.8 4-4v-.3c-.1-1.4-.1-2.5-.1-3.6-.1-29.8 24.1-54 53.9-54.1 13.4 0 26.4 4.9 36.3 13.9 1.6 1.5 4.2 1.3 5.6-.3.4-.4.7-.9.8-1.5 12.3-38.8 53.7-60.4 92.6-48.1 25.7 8.1 45 29.7 50.1 56.2.4 2.2 2.5 3.6 4.7 3.2.4-.1.8-.2 1.2-.5 21.9-12.4 49.7-4.8 62.1 17.1 3.2 5.6 5.1 11.8 5.7 18.2.2 2.1 1.9 3.6 4 3.6h48.5c-2.7-2.4-5.6-5-8.4-7.8z"/></svg>