<svg id="Layer_1" data-name="Layer 1" xmlns="http://www.w3.org/2000/svg" viewBox="0 0 768 768"><defs><style>.cls-1{fill:#fff}.cls-2,.cls-4{opacity:.4}.cls-3{fill:#a644e5}.cls-4,.cls-6{fill:#0073ec}</style></defs><path class="cls-1" d="M635.81 157.78a347.59 347.59 0 0 1 83.68 226.72c0 192.75-156.26 349-349 349a347.72 347.72 0 0 1-235.33-91.28A348.22 348.22 0 0 0 400.49 764.5c192.74 0 349-156.25 349-349a348 348 0 0 0-113.68-257.72z"/><g class="cls-2"><path class="cls-3" d="M635.81 157.78a347.59 347.59 0 0 1 83.68 226.72c0 192.75-156.26 349-349 349a347.72 347.72 0 0 1-235.33-91.28A348.22 348.22 0 0 0 400.49 764.5c192.74 0 349-156.25 349-349a348 348 0 0 0-113.68-257.72z"/></g><circle class="cls-1" cx="371" cy="384.5" r="349"/><circle class="cls-4" cx="371.29" cy="386.81" r="311.7"/><path class="cls-1" d="M674 549.83H477.19a17.6 17.6 0 0 0-16.86-22.9l-47.58.23a4 4 0 0 0-3.8 5.19l5.37 17.13-65.7.31-8.89-25 15.72-.08a4 4 0 0 0 2.36-7.21l-19.49-14.47a3.89 3.89 0 0 0-2.4-.79l-14 .07a11.24 11.24 0 0 0-5.31 1.34l-25.76-22.19h56.1a4 4 0 0 0 4-4A181.92 181.92 0 0 1 374.36 388h319.56a181.49 181.49 0 0 1 18.25 46.35 4.29 4.29 0 0 0 .19.54A341.12 341.12 0 0 1 674 549.83z"/><path class="cls-4" d="M674 549.83H477.19a17.6 17.6 0 0 0-16.86-22.9l-47.58.23a4 4 0 0 0-3.8 5.19l5.37 17.13-65.7.31-8.89-25 15.72-.08a4 4 0 0 0 2.36-7.21l-19.49-14.47a3.89 3.89 0 0 0-2.4-.79l-14 .07a11.24 11.24 0 0 0-5.31 1.34l-25.76-22.19h56.1a4 4 0 0 0 4-4A181.92 181.92 0 0 1 374.36 388h319.56a181.49 181.49 0 0 1 18.25 46.35 4.29 4.29 0 0 0 .19.54A341.12 341.12 0 0 1 674 549.83z"/><path d="M530.92 167.8H307.3a4 4 0 0 1-4-3.74c-.08-1.11-.11-2.05-.11-2.95a44.44 44.44 0 0 1 69.66-36.59 58.18 58.18 0 0 1 109.39 6.75 38.51 38.51 0 0 1 52.66 32.16 4 4 0 0 1-4 4.37zm-219.7-8h215a30.52 30.52 0 0 0-44.72-19.31 4 4 0 0 1-5.9-2.71 50.17 50.17 0 0 0-97.08-5.51A4 4 0 0 1 372 134a36.45 36.45 0 0 0-60.81 25.77z" fill="#071c26"/><path class="cls-6" d="M488.25 214.43a4 4 0 0 1-3.7-2.46l-7-16.72a4 4 0 1 1 7.38-3.08l7 16.72a4 4 0 0 1-2.16 5.23 4 4 0 0 1-1.52.31zM460.38 214.43a4 4 0 0 1-3.7-2.46l-7-16.72a4 4 0 1 1 7.38-3.08l7 16.72a4 4 0 0 1-3.69 5.54zM432.51 214.43a4 4 0 0 1-3.69-2.46l-7-16.72a4 4 0 1 1 7.38-3.08l7 16.72a4 4 0 0 1-3.69 5.54zM404.64 214.43A4 4 0 0 1 401 212l-7-16.72a4 4 0 1 1 7.39-3.08l7 16.72a4 4 0 0 1-3.69 5.54zM376.78 214.43a4 4 0 0 1-3.7-2.46l-7-16.72a4 4 0 1 1 7.39-3.08l7 16.72a4 4 0 0 1-2.16 5.23 4 4 0 0 1-1.53.31zM348.91 214.43a4 4 0 0 1-3.7-2.46l-7-16.72a4 4 0 1 1 7.38-3.08l7 16.72a4 4 0 0 1-2.16 5.23 4 4 0 0 1-1.52.31zM484.07 248.57a4 4 0 0 1-3.7-2.47l-7-16.72a4 4 0 1 1 7.38-3.07l7 16.72a4 4 0 0 1-2.16 5.23 4 4 0 0 1-1.52.31zM456.2 248.57a4 4 0 0 1-3.7-2.47l-7-16.72a4 4 0 1 1 7.38-3.07l7 16.72a4 4 0 0 1-3.69 5.54zM428.33 248.57a4 4 0 0 1-3.69-2.47l-7-16.72a4 4 0 1 1 7.38-3.07L432 243a4 4 0 0 1-3.69 5.54zM400.46 248.57a4 4 0 0 1-3.69-2.47l-7-16.72a4 4 0 0 1 7.39-3.07l7 16.72a4 4 0 0 1-3.69 5.54zM372.59 248.57a4 4 0 0 1-3.69-2.47l-7-16.72a4 4 0 0 1 7.39-3.07l7 16.72a4 4 0 0 1-2.16 5.23 4 4 0 0 1-1.54.31zM584.38 441.8a44.87 44.87 0 0 1-26.91-8.91l-1.07-.81a36.73 36.73 0 0 0-43.19-.71l-2.21 1.57a44.7 44.7 0 0 1-52.57-.86 36.73 36.73 0 0 0-43.19-.71 4 4 0 1 1-4.58-6.55 44.7 44.7 0 0 1 52.57.86 36.71 36.71 0 0 0 43.18.71l2.24-1.57a44.72 44.72 0 0 1 52.58.86l1.07.81a37 37 0 0 0 41.84 1.6l8.14-5.18a45 45 0 0 1 50.94 2 4 4 0 1 1-4.81 6.4 37 37 0 0 0-41.83-1.61l-8.14 5.18a44.67 44.67 0 0 1-24.06 6.92zM609.48 478a4 4 0 0 1-2.4-.8 36.77 36.77 0 0 0-37.22-4.1 4 4 0 0 1-3.29-7.29 44.79 44.79 0 0 1 45.32 5 4 4 0 0 1-2.41 7.2zM536 486.14a45 45 0 0 1-26.94-8.95 36.73 36.73 0 0 0-43.19-.71 4 4 0 0 1-4.59-6.55 44.72 44.72 0 0 1 52.58.86 36.78 36.78 0 0 0 40.69 2.31 4 4 0 1 1 4 6.9 44.49 44.49 0 0 1-22.55 6.14z"/><path class="cls-1" d="M688.44 49.52l-4.17 7.59A25.7 25.7 0 0 1 674 67.32l-7.61 4.15 7.61 4.15a25.7 25.7 0 0 1 10.23 10.21l4.17 7.59 4.16-7.59a25.73 25.73 0 0 1 10.24-10.21l7.61-4.15-7.61-4.15a25.73 25.73 0 0 1-10.2-10.21z"/><ellipse class="cls-1" cx="742.49" cy="10.99" rx="7.51" ry="7.49"/><path class="cls-1" d="M688.44 49.52l-4.17 7.59A25.7 25.7 0 0 1 674 67.32l-7.61 4.15 7.61 4.15a25.7 25.7 0 0 1 10.23 10.21l4.17 7.59 4.16-7.59a25.73 25.73 0 0 1 10.24-10.21l7.61-4.15-7.61-4.15a25.73 25.73 0 0 1-10.2-10.21zM41.44 637.52l-4.17 7.59A25.7 25.7 0 0 1 27 655.32l-7.61 4.15 7.61 4.15a25.7 25.7 0 0 1 10.23 10.21l4.17 7.59 4.16-7.59a25.73 25.73 0 0 1 10.24-10.21l7.61-4.15-7.61-4.15a25.73 25.73 0 0 1-10.2-10.21zM698.44 699.52l-4.17 7.59A25.7 25.7 0 0 1 684 717.32l-7.61 4.15 7.61 4.15a25.7 25.7 0 0 1 10.23 10.21l4.17 7.59 4.16-7.59a25.73 25.73 0 0 1 10.24-10.21l7.61-4.15-7.61-4.15a25.73 25.73 0 0 1-10.24-10.21z"/><ellipse class="cls-1" cx="742.49" cy="10.99" rx="7.51" ry="7.49"/><path class="cls-6" d="M696.26 247.1a352.89 352.89 0 0 0-574.87-112.21c-.15.16-.3.32-.46.47-6.17-3.31-12.88-9.14-19.34-19.09V89.58c10.37 12 20.92 16.09 28.58 17.3a38.22 38.22 0 0 0 5.92.47 32.88 32.88 0 0 0 12.52-2.27 4 4 0 0 0-3.26-7.31c-1 .42-23.95 9.94-44.37-22.49a.56.56 0 0 0 0-.08 2.31 2.31 0 0 0-.24-.29 1.73 1.73 0 0 0-.21-.25v-.06c-.07-.07-.16-.13-.24-.2l-.3-.24h-.08l-.22-.11-.32-.17h-.11l-.33-.1c-.1 0-.2-.07-.3-.09H96.93c-.1 0-.19.06-.3.09a1.73 1.73 0 0 0-.32.11h-.11a2.06 2.06 0 0 0-.33.17l-.22.11h-.09a3.36 3.36 0 0 0-.29.24l-.25.2-.05.06a1.73 1.73 0 0 0-.21.25 2.31 2.31 0 0 0-.24.29.56.56 0 0 0-.05.08C73.8 107.68 50.85 98.21 49.83 97.77a4 4 0 0 0-3.26 7.31 32.94 32.94 0 0 0 12.52 2.27 38.44 38.44 0 0 0 5.93-.47c12.14-1.88 21.62-9.29 28.57-17.32v26.71c-20.25 31.25-42.76 22-43.76 21.54a4 4 0 0 0-3.26 7.3 32.71 32.71 0 0 0 12.52 2.27 38.37 38.37 0 0 0 5.93-.46c12.14-1.92 21.62-9.29 28.57-17.32v26.7c-20.25 31.26-42.76 22-43.76 21.54a4 4 0 0 0-3.26 7.31 32.94 32.94 0 0 0 12.52 2.27A37.24 37.24 0 0 0 65 187a42.79 42.79 0 0 0 19.38-8.59 348.66 348.66 0 0 0-25.51 41.09 24.36 24.36 0 0 1-9-1.62 4 4 0 0 0-3.26 7.31 30.2 30.2 0 0 0 8.34 2c-3.25 6.52-6.32 13.13-9.17 19.88A353.09 353.09 0 0 0 696.26 521.9a354.15 354.15 0 0 0 0-274.8zm18.43 167.53A191.7 191.7 0 0 0 703 388h13q-.17 13.4-1.31 26.63zM371 39.5A345 345 0 0 1 716 380h-17.47a192.33 192.33 0 0 0-45.3-52.06 191.28 191.28 0 0 0-164.59-36.15h-.13a3.84 3.84 0 0 0-1.93.52A192 192 0 0 0 369.73 380H234.4v-52.25c10.36 12 20.91 16.09 28.57 17.3a38.35 38.35 0 0 0 5.93.47 33 33 0 0 0 12.52-2.27 4 4 0 0 0-3.26-7.31c-1 .42-23.5 9.75-43.76-21.54v-26.69c10.36 12 20.91 16.1 28.57 17.31a38.28 38.28 0 0 0 5.93.46 32.77 32.77 0 0 0 12.52-2.27 4 4 0 0 0-3.26-7.3c-1 .41-23.5 9.74-43.76-21.54v-26.69c10.36 12 20.91 16.09 28.57 17.3a38.35 38.35 0 0 0 5.93.47 32.66 32.66 0 0 0 12.52-2.28 4 4 0 0 0-3.26-7.3c-1 .42-23.5 9.75-43.76-21.54v-26.69c10.36 12 20.91 16.09 28.57 17.3a37.15 37.15 0 0 0 5.93.47 33 33 0 0 0 12.52-2.27 4 4 0 0 0-3.29-7.3c-.23.11-23.76 10.2-44.35-22.5v-.05l-.06-.08a3.36 3.36 0 0 0-.24-.29l-.2-.25h-.06a2.41 2.41 0 0 0-.24-.21 2.31 2.31 0 0 0-.29-.24h-.08l-.23-.11-.32-.17h-.11c-.11 0-.22-.07-.33-.11l-.3-.09h-1.69a2.46 2.46 0 0 0-.29.09 3.38 3.38 0 0 0-.34.11h-.11l-.32.17-.23.11h-.08a2.31 2.31 0 0 0-.29.24 1.73 1.73 0 0 0-.25.21h-.06l-.2.25c-.08.1-.17.19-.24.29v.13c-20.4 32.4-43.36 22.93-44.37 22.49a4 4 0 0 0-3.26 7.31 32.85 32.85 0 0 0 12.51 2.27 37.06 37.06 0 0 0 5.93-.47c12.15-1.92 21.62-9.29 28.58-17.32v26.71c-20.25 31.25-42.76 22-43.76 21.54a4 4 0 0 0-3.26 7.3 32.52 32.52 0 0 0 12.51 2.28 38.25 38.25 0 0 0 5.93-.47c12.15-1.92 21.62-9.29 28.58-17.32v26.71c-20.25 31.25-42.76 22-43.76 21.54a4 4 0 0 0-3.26 7.3 32.63 32.63 0 0 0 12.51 2.27 38.18 38.18 0 0 0 5.93-.46c12.15-1.92 21.62-9.29 28.58-17.33v26.71c-20.25 31.26-42.76 22-43.76 21.54a4 4 0 0 0-3.26 7.31 32.85 32.85 0 0 0 12.51 2.27 38.25 38.25 0 0 0 5.93-.47c12.15-1.91 21.62-9.29 28.58-17.32v98.21l-44.84-38.44H210a4 4 0 0 0 0-8h-36.31a3.94 3.94 0 0 0-1 .15l-71.07-61.23V209.69c10.37 12 20.92 16.09 28.58 17.3a38.22 38.22 0 0 0 5.92.47 32.88 32.88 0 0 0 12.52-2.27 4 4 0 0 0-3.28-7.3c-.23.1-23.29 10-43.74-21.55v-26.69c10.37 12 20.92 16.09 28.58 17.3a37 37 0 0 0 5.92.47 32.88 32.88 0 0 0 12.52-2.27 4 4 0 0 0-3.28-7.3c-.22.1-19.79 8.5-38.86-14.83q7.78-9.26 16.27-18.06a40 40 0 0 0 7.43 2 38.15 38.15 0 0 0 5.92.46 32.65 32.65 0 0 0 12.52-2.27 4 4 0 1 0-3.28-7.29c-.13.05-6.84 2.93-16.2.69A342.69 342.69 0 0 1 371 39.5zM689.16 380h-62.07v-60.42A184.38 184.38 0 0 1 689.16 380zm-70.07-64.9V380h-36.86v-79.37a179.13 179.13 0 0 1 36.86 14.47zm-44.86-16.44V380h-36.86v-85.67a184 184 0 0 1 36.86 4.33zm-44.86-4.3V380h-36.86v-80.93a182 182 0 0 1 36.86-4.71zm-44.86 6.77V380h-36.86v-64a181.9 181.9 0 0 1 36.86-14.87zm-44.86 19.46V380h-60.53a184.74 184.74 0 0 1 60.53-59.41zM365.23 388A189.9 189.9 0 0 0 343 473.45l-61.41.05-47.66-41.05a4 4 0 0 0 .46-1.81V388zM101.59 156.3v-26.69a57 57 0 0 0 13.56 11.69c-4.67 4.9-9.16 9.93-13.52 15.06zm-8 23v17.07c-8.47 13.07-17.33 19-24.85 21.55a345.74 345.74 0 0 1 24.85-38.65zM63.8 227.16c.4 0 .81-.1 1.22-.17 12.14-1.92 21.62-9.29 28.57-17.32v101.86L45.38 270a341.79 341.79 0 0 1 18.42-42.84zm54.6 392.29a346.22 346.22 0 0 1-45.84-61.62h45.84zm496.55 9a345 345 0 0 1-487.9 0l-.65-.67v-69.95H309a4 4 0 0 0 0-8H126.4v-22.08c10.36 12 20.91 16.09 28.57 17.3a38.35 38.35 0 0 0 5.93.47 33 33 0 0 0 12.52-2.27 4 4 0 0 0-3.26-7.31c-1 .42-23.5 9.75-43.76-21.54v-26.69c10.36 12 20.91 16.1 28.57 17.31a38.28 38.28 0 0 0 5.93.46 32.77 32.77 0 0 0 12.52-2.27 4 4 0 0 0-3.26-7.3c-1 .41-23.5 9.74-43.76-21.54v-26.69c10.36 12 20.91 16.09 28.57 17.3a38.35 38.35 0 0 0 5.93.47 32.66 32.66 0 0 0 12.52-2.28 4 4 0 0 0-3.26-7.3c-1 .41-23.5 9.75-43.76-21.54v-26.69c10.36 12 20.91 16.09 28.57 17.3a37.15 37.15 0 0 0 5.93.47 33 33 0 0 0 12.52-2.27 4 4 0 0 0-3.29-7.3c-.23.11-23.75 10.2-44.35-22.5l-.06-.08a3.36 3.36 0 0 0-.24-.29l-.2-.25-.06-.05a2.41 2.41 0 0 0-.24-.21 2.31 2.31 0 0 0-.29-.24l-.08-.05-.23-.11-.32-.17h-.11a3.38 3.38 0 0 0-.34-.11 2.46 2.46 0 0 0-.29-.09H121.63a2.46 2.46 0 0 0-.29.09 3.38 3.38 0 0 0-.34.11h-.11l-.32.17-.23.11-.08.05a3.5 3.5 0 0 0-.3.24 2.41 2.41 0 0 0-.24.21l-.06.05-.2.25c-.08.1-.17.19-.24.29v.08c-20.4 32.4-43.36 22.93-44.37 22.49a4 4 0 0 0-3.26 7.31 32.85 32.85 0 0 0 12.51 2.27 37.06 37.06 0 0 0 5.93-.47c12.15-1.92 21.62-9.29 28.58-17.32v26.71c-20.25 31.25-42.76 22-43.76 21.54a4 4 0 0 0-3.26 7.3 32.52 32.52 0 0 0 12.51 2.28 38.25 38.25 0 0 0 5.93-.47c12.15-1.92 21.62-9.29 28.58-17.32v26.71c-20.25 31.25-42.76 22-43.76 21.54a4 4 0 0 0-3.26 7.3 32.63 32.63 0 0 0 12.51 2.27 38.18 38.18 0 0 0 5.93-.46c12.15-1.92 21.62-9.29 28.58-17.33v26.71c-20.25 31.26-42.76 22-43.76 21.54a4 4 0 0 0-3.26 7.31 32.85 32.85 0 0 0 12.51 2.27 38.25 38.25 0 0 0 5.93-.47c12.15-1.91 21.62-9.29 28.58-17.32v22.1H68a346.9 346.9 0 0 1-25.37-271.65l268.79 231.57A11.26 11.26 0 0 0 322 524.9h9.25l9.47 26.59a1.94 1.94 0 0 0-.21.29l-17.55 29a57.08 57.08 0 0 0-26.24-6.37h-.28a57.41 57.41 0 0 0 .27 114.81h.29a57.48 57.48 0 0 0 57-53.68h6.37a15 15 0 0 0 27.63-1.9 57.47 57.47 0 0 0 57.33 54.79h.28a57.41 57.41 0 0 0-.27-114.81H445a57.21 57.21 0 0 0-13.89 1.77l-6-18.28-6.88-22 42.16-.2h.05a9.6 9.6 0 0 1 0 19.19l-15.54.08a4 4 0 0 0 0 8l15.54-.08a17.5 17.5 0 0 0 11.4-4.29h197.6A346.83 346.83 0 0 1 615 628.45zM319 512.21a3.16 3.16 0 0 1 3-1.87l12.64-.06 8.79 6.52-21.4.1a3.27 3.27 0 0 1-2.56-1.22 3.19 3.19 0 0 1-.47-3.47zm130.08 117.56L433.64 583a48.83 48.83 0 0 1 11.41-1.4h.24a49.41 49.41 0 0 1 .23 98.81h-.24a49.46 49.46 0 0 1-49.36-47.79h1a4 4 0 0 0 0-8h-.65a49.52 49.52 0 0 1 29.75-39.12l15.44 46.76a4 4 0 1 0 7.59-2.51zm-60.83-5.19a14.92 14.92 0 0 0-16.83-10.79l-19.95-56 65.32-.31.66 2 6.08 18.41a57.56 57.56 0 0 0-35.28 46.69zm-13.55 8.06h4.87a7.05 7.05 0 1 1 0-8h-4.87a4 4 0 1 0 0 8zm-10.59-15.52a15 15 0 0 0-5.33 10.31h-4.83a57.4 57.4 0 0 0-24.15-42.6l14.37-23.71zm-70.82 12.53a4 4 0 0 0 3.42 6.07l49.23-.23a49.45 49.45 0 0 1-49 45.64h-.24a49.41 49.41 0 0 1-.23-98.81h.24a49.14 49.14 0 0 1 22.09 5.23zm32.35-37.94a49.38 49.38 0 0 1 20.29 35.78l-42.09.2zM674 549.83H477.19a17.6 17.6 0 0 0-16.86-22.9l-47.58.23a4 4 0 0 0-3.8 5.19l5.37 17.13-65.7.31-8.89-25 15.72-.08a4 4 0 0 0 2.36-7.21l-19.49-14.47a3.89 3.89 0 0 0-2.4-.79l-14 .07a11.24 11.24 0 0 0-5.31 1.34l-25.76-22.19h56.1a4 4 0 0 0 4-4A181.92 181.92 0 0 1 374.36 388h319.56a181.49 181.49 0 0 1 18.25 46.35 4.29 4.29 0 0 0 .19.54A341.12 341.12 0 0 1 674 549.83z"/><path class="cls-6" d="M530.92 167.8H307.3a4 4 0 0 1-4-3.74c-.08-1.11-.11-2.05-.11-2.95a44.44 44.44 0 0 1 69.66-36.59 58.18 58.18 0 0 1 109.39 6.75 38.51 38.51 0 0 1 52.66 32.16 4 4 0 0 1-4 4.37zm-219.7-8h215a30.52 30.52 0 0 0-44.72-19.31 4 4 0 0 1-5.9-2.71 50.17 50.17 0 0 0-97.08-5.51A4 4 0 0 1 372 134a36.45 36.45 0 0 0-60.81 25.77z"/><path class="cls-1" d="M311.22 159.8h215a30.52 30.52 0 0 0-44.72-19.31 4 4 0 0 1-5.9-2.71 50.17 50.17 0 0 0-97.08-5.51A4 4 0 0 1 372 134a36.45 36.45 0 0 0-60.81 25.77zM615 628.45a345 345 0 0 1-487.9 0l-.65-.67v-69.95H309a4 4 0 0 0 0-8H126.4v-22.08c10.36 12 20.91 16.09 28.57 17.3a38.35 38.35 0 0 0 5.93.47 33 33 0 0 0 12.52-2.27 4 4 0 0 0-3.26-7.31c-1 .42-23.5 9.75-43.76-21.54v-26.69c10.36 12 20.91 16.1 28.57 17.31a38.28 38.28 0 0 0 5.93.46 32.77 32.77 0 0 0 12.52-2.27 4 4 0 0 0-3.26-7.3c-1 .41-23.5 9.74-43.76-21.54v-26.69c10.36 12 20.91 16.09 28.57 17.3a38.35 38.35 0 0 0 5.93.47 32.66 32.66 0 0 0 12.52-2.28 4 4 0 0 0-3.26-7.3c-1 .41-23.5 9.75-43.76-21.54v-26.69c10.36 12 20.91 16.09 28.57 17.3a37.15 37.15 0 0 0 5.93.47 33 33 0 0 0 12.52-2.27 4 4 0 0 0-3.29-7.3c-.23.11-23.75 10.2-44.35-22.5l-.06-.08a3.36 3.36 0 0 0-.24-.29l-.2-.25-.06-.05a2.41 2.41 0 0 0-.24-.21 2.31 2.31 0 0 0-.29-.24l-.08-.05-.23-.11-.32-.17h-.11a3.38 3.38 0 0 0-.34-.11 2.46 2.46 0 0 0-.29-.09H121.63a2.46 2.46 0 0 0-.29.09 3.38 3.38 0 0 0-.34.11h-.11l-.32.17-.23.11-.08.05a3.5 3.5 0 0 0-.3.24 2.41 2.41 0 0 0-.24.21l-.06.05-.2.25c-.08.1-.17.19-.24.29v.08c-20.4 32.4-43.36 22.93-44.37 22.49a4 4 0 0 0-3.26 7.31 32.85 32.85 0 0 0 12.51 2.27 37.06 37.06 0 0 0 5.93-.47c12.15-1.92 21.62-9.29 28.58-17.32v26.71c-20.25 31.25-42.76 22-43.76 21.54a4 4 0 0 0-3.26 7.3 32.52 32.52 0 0 0 12.51 2.28 38.25 38.25 0 0 0 5.93-.47c12.15-1.92 21.62-9.29 28.58-17.32v26.71c-20.25 31.25-42.76 22-43.76 21.54a4 4 0 0 0-3.26 7.3 32.63 32.63 0 0 0 12.51 2.27 38.18 38.18 0 0 0 5.93-.46c12.15-1.92 21.62-9.29 28.58-17.33v26.71c-20.25 31.26-42.76 22-43.76 21.54a4 4 0 0 0-3.26 7.31 32.85 32.85 0 0 0 12.51 2.27 38.25 38.25 0 0 0 5.93-.47c12.15-1.91 21.62-9.29 28.58-17.32v22.1H68a346.9 346.9 0 0 1-25.37-271.65l268.79 231.57A11.26 11.26 0 0 0 322 524.9h9.25l9.47 26.59a1.94 1.94 0 0 0-.21.29l-17.55 29a57.08 57.08 0 0 0-26.24-6.37h-.28a57.41 57.41 0 0 0 .27 114.81h.29a57.48 57.48 0 0 0 57-53.68h6.37a15 15 0 0 0 27.63-1.9 57.47 57.47 0 0 0 57.33 54.79h.28a57.41 57.41 0 0 0-.27-114.81H445a57.21 57.21 0 0 0-13.89 1.77l-6-18.28-6.88-22 42.16-.2h.05a9.6 9.6 0 0 1 0 19.19l-15.54.08a4 4 0 0 0 0 8l15.54-.08a17.5 17.5 0 0 0 11.4-4.29h197.6A346.83 346.83 0 0 1 615 628.45z"/><path class="cls-4" d="M308 549.83H126.4v-22.08c10.36 12 20.91 16.09 28.57 17.3a38.35 38.35 0 0 0 5.93.47 33 33 0 0 0 12.52-2.27 4 4 0 0 0-3.26-7.31c-1 .42-23.5 9.75-43.76-21.54v-26.69c10.36 12 20.91 16.1 28.57 17.31a38.28 38.28 0 0 0 5.93.46 32.77 32.77 0 0 0 12.52-2.27 4 4 0 0 0-3.26-7.3c-1 .41-23.5 9.74-43.76-21.54v-26.69c10.36 12 20.91 16.09 28.57 17.3a38.35 38.35 0 0 0 5.93.47 32.66 32.66 0 0 0 12.52-2.28 4 4 0 0 0-3.26-7.3c-1 .41-23.5 9.75-43.76-21.54v-26.69c10.36 12 20.91 16.09 28.57 17.3a37.15 37.15 0 0 0 5.93.47 33 33 0 0 0 12.52-2.27 4 4 0 0 0-3.29-7.3c-.23.11-23.75 10.2-44.35-22.5l-.06-.08a3.36 3.36 0 0 0-.24-.29l-.2-.25-.06-.05a2.41 2.41 0 0 0-.24-.21 2.31 2.31 0 0 0-.29-.24l-.08-.05-.23-.11-.32-.17h-.11a3.38 3.38 0 0 0-.34-.11 2.46 2.46 0 0 0-.29-.09H121.63a2.46 2.46 0 0 0-.29.09 3.38 3.38 0 0 0-.34.11h-.11l-.32.17-.23.11-.08.05a3.5 3.5 0 0 0-.3.24 2.41 2.41 0 0 0-.24.21l-.06.05-.2.25c-.08.1-.17.19-.24.29v.08c-20.4 32.4-43.36 22.93-44.37 22.49a4 4 0 0 0-3.26 7.31 32.85 32.85 0 0 0 12.51 2.27 37.06 37.06 0 0 0 5.93-.47c12.15-1.92 21.62-9.29 28.58-17.32v26.71c-20.25 31.25-42.76 22-43.76 21.54a4 4 0 0 0-3.26 7.3 32.52 32.52 0 0 0 12.51 2.28 38.25 38.25 0 0 0 5.93-.47c12.15-1.92 21.62-9.29 28.58-17.32v26.71c-20.25 31.25-42.76 22-43.76 21.54a4 4 0 0 0-3.26 7.3 32.63 32.63 0 0 0 12.51 2.27 38.18 38.18 0 0 0 5.93-.46c12.15-1.92 21.62-9.29 28.58-17.33v26.71c-20.25 31.26-42.76 22-43.76 21.54a4 4 0 0 0-3.26 7.31 32.85 32.85 0 0 0 12.51 2.27 38.25 38.25 0 0 0 5.93-.47c12.15-1.91 21.62-9.29 28.58-17.32v22.1H68a346.9 346.9 0 0 1-25.37-271.65l268.79 231.57A11.26 11.26 0 0 0 322 524.9h9.25l9.47 26.59-1.55 2.51H313s-.1-4.5-5-4.17z"/><path class="cls-1" d="M118.4 619.45a346.22 346.22 0 0 1-45.84-61.62h45.84zM319 512.21a3.16 3.16 0 0 1 3-1.87l12.64-.06 8.79 6.52-21.4.1a3.27 3.27 0 0 1-2.56-1.22 3.19 3.19 0 0 1-.47-3.47zM449.08 629.77L433.64 583a48.83 48.83 0 0 1 11.41-1.4h.24a49.41 49.41 0 0 1 .23 98.81h-.24a49.46 49.46 0 0 1-49.36-47.79h1a4 4 0 0 0 0-8h-.65a49.52 49.52 0 0 1 29.75-39.12l15.44 46.76a4 4 0 1 0 7.59-2.51z"/><path class="cls-1" d="M388.25 624.58a14.92 14.92 0 0 0-16.83-10.79l-19.95-56 65.32-.31.66 2 6.08 18.41a57.56 57.56 0 0 0-35.28 46.69zM374.7 632.64h4.87a7.05 7.05 0 1 1 0-8h-4.87a4 4 0 1 0 0 8zM293.29 629.65a4 4 0 0 0 3.42 6.07l49.23-.23a49.45 49.45 0 0 1-49 45.64h-.24a49.41 49.41 0 0 1-.23-98.81h.24a49.14 49.14 0 0 1 22.09 5.23z"/><path class="cls-1" d="M325.64 591.71a49.38 49.38 0 0 1 20.29 35.78l-42.09.2zM364.11 617.12a15 15 0 0 0-5.33 10.31h-4.83a57.4 57.4 0 0 0-24.15-42.6l14.37-23.71zM365.23 388A189.9 189.9 0 0 0 343 473.45l-61.41.05-47.66-41.05a4 4 0 0 0 .46-1.81V388zM181.77 387.5h44.63v38.44l-44.63-38.44z"/><path class="cls-4" d="M418.21 535.13l43.12-.15s5.78-.21 8.31 6.9c0 0 3 9-7.51 12.08h-38z"/><g class="cls-2"><path class="cls-3" d="M688.44 49.52l-4.17 7.59A25.7 25.7 0 0 1 674 67.32l-7.61 4.15 7.61 4.15a25.7 25.7 0 0 1 10.23 10.21l4.17 7.59 4.16-7.59a25.73 25.73 0 0 1 10.24-10.21l7.61-4.15-7.61-4.15a25.73 25.73 0 0 1-10.2-10.21z"/></g><g class="cls-2"><ellipse class="cls-3" cx="742.49" cy="10.99" rx="7.51" ry="7.49"/></g><g class="cls-2"><path class="cls-3" d="M41.44 637.52l-4.17 7.59A25.7 25.7 0 0 1 27 655.32l-7.61 4.15 7.61 4.15a25.7 25.7 0 0 1 10.23 10.21l4.17 7.59 4.16-7.59a25.73 25.73 0 0 1 10.24-10.21l7.61-4.15-7.61-4.15a25.73 25.73 0 0 1-10.2-10.21z"/></g><g class="cls-2"><path class="cls-3" d="M698.44 699.52l-4.17 7.59A25.7 25.7 0 0 1 684 717.32l-7.61 4.15 7.61 4.15a25.7 25.7 0 0 1 10.23 10.21l4.17 7.59 4.16-7.59a25.73 25.73 0 0 1 10.24-10.21l7.61-4.15-7.61-4.15a25.73 25.73 0 0 1-10.24-10.21z"/></g></svg>