<svg id="Layer_1" xmlns="http://www.w3.org/2000/svg" viewBox="0 0 768 768"><style>.st0{fill:#fff}.st1{opacity:.4}.st2{fill:#0073ec}.st3{fill:#a644e5}</style><g id="Layer_2_1_"><g id="Illustrations"><path class="st0" d="M314.8 67.9s7.1 14 27.1 15.8l3.7-19.2s12 24.5 38.5 32.3l.2-24.4s18.5 33.1 70 33.1V67.7s14.3 12.5 25.9 37.8c0 0 11.4-62.8-72.2-84.6 0 0-29.6-7.9-74 6.1L314.8 6l3.4 33.5s-14.8-9-29.6-7.3c0 0 12.2 9.6 13.1 17.4 0 0-21.5 11.3-16.4 55.8-.1.1 11.3-25.4 29.5-37.5z"/><g class="st1"><path class="st2" d="M314.8 67.9s7.1 14 27.1 15.8l3.7-19.2s12 24.5 38.5 32.3l.2-24.4s18.5 33.1 70 33.1V67.7s14.3 12.5 25.9 37.8c0 0 11.4-62.8-72.2-84.6 0 0-29.6-7.9-74 6.1L314.8 6l3.4 33.5s-14.8-9-29.6-7.3c0 0 12.2 9.6 13.1 17.4 0 0-21.5 11.3-16.4 55.8-.1.1 11.3-25.4 29.5-37.5z"/></g><path class="st0" d="M762.7 427.8h-77.6c-2.1 0-3.8-1.6-4-3.6-2.3-25-24.5-43.4-49.6-41.1-6.4.6-12.6 2.6-18.2 5.7-1.9 1.1-4.4.4-5.5-1.5-.2-.4-.4-.8-.5-1.2-7.8-40-46.6-66.1-86.6-58.3-8.8 1.7-17.3 5.1-24.9 9.8-1.8 1.2-4.3.7-5.5-1.1s-.7-4.3 1.1-5.5c.1 0 .1-.1.2-.1 38.3-23.9 88.8-12.2 112.7 26.1 4.4 7 7.6 14.6 9.7 22.5 27-12 58.7.2 70.7 27.2 1.9 4.2 3.2 8.6 3.9 13.1h74c2.2 0 4 1.8 4 4s-1.7 4-3.9 4z"/><g class="st1"><path class="st3" d="M762.7 427.8h-77.6c-2.1 0-3.8-1.6-4-3.6-2.3-25-24.5-43.4-49.6-41.1-6.4.6-12.6 2.6-18.2 5.7-1.9 1.1-4.4.4-5.5-1.5-.2-.4-.4-.8-.5-1.2-7.8-40-46.6-66.1-86.6-58.3-8.8 1.7-17.3 5.1-24.9 9.8-1.8 1.2-4.3.7-5.5-1.1s-.7-4.3 1.1-5.5c.1 0 .1-.1.2-.1 38.3-23.9 88.8-12.2 112.7 26.1 4.4 7 7.6 14.6 9.7 22.5 27-12 58.7.2 70.7 27.2 1.9 4.2 3.2 8.6 3.9 13.1h74c2.2 0 4 1.8 4 4s-1.7 4-3.9 4z"/></g><path class="st0" d="M60 159.3H5.3c-2.2 0-4-1.8-4-4s1.8-4 4-4H56c1.8-44.3 39.3-78.8 83.6-76.9 31.7 1.3 59.6 21.1 71.3 50.6 22.4-16.5 53.1-15.8 74.7 1.7 1.7 1.4 2 3.9.6 5.6-1.4 1.7-3.9 2-5.6.6-20.3-16.4-49.5-15.7-68.8 1.8-1.6 1.5-4.2 1.3-5.6-.3-.4-.4-.7-.9-.8-1.5-12.1-38.1-52.7-59.2-90.8-47.1C84.4 95.2 64 123.1 64 154.6V155.2c0 2.3-1.8 4.1-4 4.1z"/><g class="st1"><path class="st3" d="M60 159.3H5.3c-2.2 0-4-1.8-4-4s1.8-4 4-4H56c1.8-44.3 39.3-78.8 83.6-76.9 31.7 1.3 59.6 21.1 71.3 50.6 22.4-16.5 53.1-15.8 74.7 1.7 1.7 1.4 2 3.9.6 5.6-1.4 1.7-3.9 2-5.6.6-20.3-16.4-49.5-15.7-68.8 1.8-1.6 1.5-4.2 1.3-5.6-.3-.4-.4-.7-.9-.8-1.5-12.1-38.1-52.7-59.2-90.8-47.1C84.4 95.2 64 123.1 64 154.6V155.2c0 2.3-1.8 4.1-4 4.1z"/></g><path class="st0" d="M422.1 313.7s61.8 16 76.5 27.8c0 0 31.2 20.1 49.4 58.4l57.6 120.2-45.5 32.5v-92.4s.3-21-25.7-26.5l-304.8-1c-26 5.5-25.7 26.5-25.7 26.5v92.4l-45.6-32.5 57.6-120.2c18.2-38.3 50.4-58.4 50.4-58.4 14.8-11.8 75.5-27.8 75.5-27.8l3.9 8.3c0 20.8 16.9 37.7 37.7 37.7 20.8 0 37.7-16.9 37.7-37.7v-10.6"/><g class="st1"><path class="st2" d="M422.1 313.7s61.8 16 76.5 27.8c0 0 31.2 20.1 49.4 58.4l57.6 120.2-45.5 32.5v-92.4s.3-21-25.7-26.5l-304.8-1c-26 5.5-25.7 26.5-25.7 26.5v92.4l-45.6-32.5 57.6-120.2c18.2-38.3 50.4-58.4 50.4-58.4 14.8-11.8 75.5-27.8 75.5-27.8l3.9 8.3c0 20.8 16.9 37.7 37.7 37.7 20.8 0 37.7-16.9 37.7-37.7v-10.6"/></g><path class="st0" d="M559.8 551.6l45.9-31.3L666.1 646s7.7 21.3-16.2 30.3h-98.3c6-6.1 9.1-14.6 8.3-23.2l-.1-101.5zM158.3 519.1l45.5 31.1v25s-27.5 2.2-47 19.8c0 0-20.2 18.5-25.2 40.6 0 0-12.8-5.6-27.2-4.1l53.9-112.4zM303.5 621.9l-24.6-2.6c2.4 4.4 4.4 9.1 5.9 13.9 5.4-4.9 11.8-8.7 18.7-11.3zM487.7 144c0-13.2-2.6-26.3-7.5-38.6-9-19.7-19.7-31.7-24-35.9-.6-.6-1.2-1.2-1.9-1.8v37.8c-51.5 0-70-33.1-70-33.1l-.2 24.4c-26.5-7.8-38.5-32.3-38.5-32.3l-3.7 19.2C322 82 314.8 67.9 314.8 67.9c-18.2 12.1-29.6 37.5-29.6 37.6-4.9 12.3-7.5 25.4-7.5 38.6-11.4.3-20.4 9.7-20.1 21 .2 11 9.1 19.9 20.1 20.1v.1c0 57.7 46.8 104.5 104.5 104.5h1c57.7 0 104.5-46.8 104.5-104.5v-.1c11.4-.3 20.4-9.7 20.1-21-.2-11-9.1-19.9-20.1-20.2z"/><path class="st0" d="M346.7 284.3h74v37c0 20.4-16.6 37-37 37s-37-16.6-37-37v-37z"/><g class="st1"><path class="st2" d="M347.1 278v26.7c11.7 4.3 24 6.6 36.5 6.6h1c12.5 0 24.8-2.2 36.5-6.6V278h-74z"/></g><path class="st0" d="M464 77v86.2c0 24.2-19.7 43.9-43.9 43.9H346c-24.2 0-43.9-19.7-43.9-43.9V76.3c-15.5 12.7-24.4 31.7-24.4 51.8v62.2c0 55.2 44.8 100 100 100h9.9c55.2 0 100-44.8 100-100v-62.2c.1-19.7-8.6-38.4-23.6-51.1z"/><g class="st1"><path class="st2" d="M464 77v86.2c0 24.2-19.7 43.9-43.9 43.9H346c-24.2 0-43.9-19.7-43.9-43.9V76.3c-15.5 12.7-24.4 31.7-24.4 51.8v62.2c0 55.2 44.8 100 100 100h9.9c55.2 0 100-44.8 100-100v-62.2c.1-19.7-8.6-38.4-23.6-51.1z"/></g><path class="st0" d="M384.3 252.9c15.5 0 28.9-10.7 32.4-25.8.7-3.4-1.4-6.7-4.8-7.4-.4-.1-.9-.1-1.3-.1H358c-3.4 0-6.3 2.7-6.3 6.2 0 .5 0 .9.1 1.4 3.6 15 17 25.7 32.5 25.7z"/><path class="st0" d="M351.9 227.4c.8 3.1 2 6.1 3.6 8.9h57.6c1.6-2.8 2.8-5.8 3.6-8.9.8-3.4-1.3-6.8-4.6-7.6-.5-.1-1-.2-1.5-.2H358c-3.5 0-6.3 2.8-6.3 6.3.1.5.1 1 .2 1.5z"/><path class="st2" d="M418.7 219.5c-2-2.5-4.9-3.9-8.1-3.9H358c-3.2 0-6.2 1.4-8.1 3.9-1.9 2.4-2.6 5.5-1.9 8.5 4.7 20.1 24.7 32.6 44.8 27.9 13.9-3.2 24.7-14 27.9-27.9.6-3-.1-6.1-2-8.5zm-8.1 4.1c.2 0 .4 0 .6.1h.1c1.1.4 1.8 1.6 1.5 2.7l-.1.5c-.1.4-.2.7-.3 1.1-.4 1.4-1 2.9-1.6 4.2H358c-.7-1.4-1.2-2.8-1.6-4.2-.1-.3-.2-.6-.2-.9s-.1-.4-.2-.7c-.2-.7 0-1.4.4-2 .3-.4.7-.6 1.1-.8h.1c.2-.1.4-.1.6-.1l52.4.1zm-26.3 25.3c-7.8 0-15.3-3.1-20.8-8.6h41.6c-5.5 5.5-13 8.6-20.8 8.6zM395.5 198.8h-15.4c-6.1 0-11-5-11-11 0-2.2.7-4.4 2-6.2 6.4-9.1 8-17.3 5.8-29.2-.4-2.2 1-4.3 3.2-4.7 2.2-.4 4.3 1 4.7 3.2 2.5 13.9.4 24.4-7.1 35.2-.9 1.4-.6 3.2.8 4.2.5.3 1 .5 1.6.5h15.4c2.2 0 4 1.8 4 4s-1.8 4-4 4z"/><circle class="st2" cx="347.1" cy="154.1" r="8.7"/><circle class="st2" cx="416.7" cy="154.1" r="8.7"/><path class="st2" d="M328.6 139.2c-.7 0-1.4-.2-2-.5-1.9-1.1-2.6-3.6-1.5-5.5 6.5-11.3 21-15.2 32.3-8.7 3.6 2.1 6.6 5.1 8.7 8.7 1.2 1.9.6 4.3-1.2 5.5-1.9 1.2-4.3.6-5.5-1.2-.1-.1-.1-.2-.2-.3-4.3-7.5-13.9-10.1-21.4-5.7-2.4 1.4-4.4 3.4-5.7 5.7-.7 1.2-2.1 2-3.5 2zM433.7 139.2c-1.4 0-2.7-.8-3.5-2-4.3-7.5-13.9-10.1-21.4-5.7-2.4 1.4-4.4 3.4-5.7 5.7-1 2-3.4 2.7-5.4 1.7-2-1-2.7-3.4-1.7-5.4.1-.1.1-.2.2-.3 6.5-11.3 21-15.2 32.3-8.7 3.6 2.1 6.6 5.1 8.7 8.7 1.1 1.9.5 4.4-1.4 5.5-.7.3-1.4.5-2.1.5z"/><path class="st0" d="M531.9 437.2H231.8c-13.3 0-24 10.7-24 24V582c.9 0 1.9-.1 2.9-.1 33.9 0 63.9 22 74.2 54.3 23.8-21.5 60.6-19.5 82 4.3 9.6 10.7 14.9 24.5 14.9 38.9v1.2h150.1c13.3 0 24-10.7 24-24V461.2c0-13.2-10.8-24-24-24z"/><g class="st1"><path class="st2" d="M531.9 437.2H231.8c-13.3 0-24 10.7-24 24V582c.9 0 1.9-.1 2.9-.1 33.9 0 63.9 22 74.2 54.3 23.8-21.5 60.6-19.5 82 4.3 9.6 10.7 14.9 24.5 14.9 38.9v1.2h150.1c13.3 0 24-10.7 24-24V461.2c0-13.2-10.8-24-24-24z"/></g><path class="st0" d="M664.6 684.3h-283c-2.2 0-4-1.8-4-4v-.3c.1-1.4.1-2.5.1-3.6 0-29.9-24.2-54.1-54.1-54.1-13.4 0-26.3 5-36.2 13.9-1.6 1.5-4.2 1.3-5.6-.3-.4-.4-.7-.9-.8-1.5-12.3-38.9-53.8-60.4-92.6-48.1-25.7 8.1-45 29.7-50.2 56.2-.4 2.2-2.5 3.6-4.7 3.2-.4-.1-.8-.2-1.2-.4-21.9-12.4-49.7-4.8-62.1 17.1-3.2 5.6-5.1 11.8-5.7 18.2-.2 2.1-1.9 3.6-4 3.6H27.9c-2.2 0-4-1.8-4-4s1.8-4 4-4h29c4.8-29.2 32.3-49 61.5-44.2 4.5.7 8.9 2 13.1 3.9 11.5-43.7 56.2-69.8 99.9-58.3 25.2 6.6 45.7 24.8 55.3 49 27.5-20.4 66.4-14.7 86.8 12.8 7.9 10.7 12.2 23.6 12.2 36.9h278.9c2.2 0 4 1.8 4 4s-1.8 4-4 4z"/><circle class="st0" cx="381.8" cy="565.1" r="32.3"/><path class="st0" d="M504.3 534l2.4-.9c12.1-4.6 18.2-18.1 13.6-30.2v-.1l-.9-2.4-24.3 9.2 9.2 24.4z"/><path class="st0" d="M504.3 534l2.4-.9c12.1-4.6 18.2-18.1 13.6-30.2v-.1l-.9-2.4-24.3 9.2 9.2 24.4z" opacity=".3"/><path d="M504.3 538c-1.7 0-3.2-1-3.7-2.6l-9.3-24.3c-.8-2.1.2-4.4 2.3-5.2l24.3-9.2c2.1-.8 4.4.3 5.2 2.3l.9 2.4c5.4 14.1-1.7 30-15.9 35.4l-2.4.9c-.4.2-.9.3-1.4.3zm-4.1-26l6.4 16.8c8.7-4.1 13.1-13.9 10.4-23.2l-16.8 6.4z" fill="#071c26"/><circle class="st2" cx="368" cy="384.4" r="5.2"/><circle class="st2" cx="368" cy="405.3" r="5.2"/><path class="st0" d="M761.6 6h-182v139.4h45.2l-18.6 49.4 70.7-49.4h84.7z"/><path class="st2" d="M606.3 198.8c-2.2 0-4-1.8-4-4 0-.5.1-1 .3-1.4l16.6-44h-39.5c-2.2 0-4-1.8-4-4V6c0-2.2 1.8-4 4-4h182c2.2 0 4 1.8 4 4v139.4c0 2.2-1.8 4-4 4h-83.4l-69.6 48.7c-.8.5-1.6.7-2.4.7zm-22.6-57.4h41.2c2.2 0 4 1.8 4 4 0 .5-.1 1-.3 1.4l-14 37.3 60.1-42c.7-.5 1.5-.7 2.3-.7h80.7V10h-174v131.4z"/><circle class="st2" cx="626.6" cy="78.3" r="11"/><circle class="st2" cx="670.6" cy="78.3" r="11"/><circle class="st2" cx="714.6" cy="78.3" r="11"/><circle class="st0" cx="148.8" cy="285.6" r="7.5"/><path class="st0" d="M76.8 325.1l5.7 10.3c3.2 5.9 8 10.7 13.9 13.9l10.3 5.7-10.3 5.6c-5.9 3.2-10.7 8-13.9 13.9L76.8 385l-5.7-10.4c-3.2-5.9-8-10.7-13.9-13.9L46.9 355l10.4-5.7c5.9-3.2 10.7-8 13.9-13.9l5.6-10.3zM211 671.4l-4.2 7.7c-2.4 4.3-5.9 7.9-10.2 10.2l-7.6 4.2 7.6 4.2c4.3 2.4 7.9 5.9 10.2 10.2l4.2 7.6 4.2-7.6c2.4-4.3 5.9-7.9 10.2-10.2l7.6-4.2-7.6-4.2c-4.3-2.4-7.9-5.9-10.2-10.2l-4.2-7.7zM738.1 684.6h-48c-2.2 0-4-1.8-4-4s1.8-4 4-4h48c2.2 0 4 1.8 4 4s-1.8 4-4 4z"/><g class="st1"><path class="st3" d="M738.1 684.6h-48c-2.2 0-4-1.8-4-4s1.8-4 4-4h48c2.2 0 4 1.8 4 4s-1.8 4-4 4z"/></g><path class="st2" d="M210.6 574.9h1.1V461.2c0-11 9-20 20-20h151V514c0 2.2 1.8 4 4 4h54.1l13.4 35c.4 1 1.1 1.8 2.1 2.2.5.2 1.1.3 1.6.3s1-.1 1.4-.3l46.3-17.6 2.4-.9c14.1-5.4 21.2-21.2 15.9-35.4l-.9-2.4-17.7-46.3c-.8-2.1-3.1-3.1-5.2-2.3l-34 12.9v-22.1h65.6c11 0 20 9 20 20v195.3c0 8.1-4.8 15.3-12.2 18.5-.6.3-1.2.7-1.6 1.3h13.7c5.2-5.2 8.1-12.3 8.1-19.7v-40.8l24.6-2.3c2.2-.2 3.8-2.2 3.6-4.4-.2-2.2-2.2-3.8-4.4-3.6l-23.9 2.2V461.2c0-15.5-12.5-28-28-28H231.8c-15.5 0-28 12.5-28 28v114c2.2-.2 4.5-.3 6.8-.3zm296-46.1l-6.4-16.8 16.8-6.4c2.7 9.3-1.7 19.1-10.4 23.2zM466.3 514v-42.1l33.1-12.6 14.8 38.8-20.5 7.8c-2.1.8-3.1 3.1-2.3 5.2l7.8 20.6-38.8 14.8-10.9-28.5h12.8c2.2 0 4-1.8 4-4zm-75.5-71.5h67.5V510h-67.5v-67.5z"/><path class="st0" d="M390.8 442.5h67.5V510h-67.5z"/><path class="st0" d="M449.5 518h12.8c2.2 0 4-1.8 4-4v-42.1l33.1-12.6 14.8 38.8-20.5 7.8c-2.1.8-3.1 3.1-2.3 5.2l7.8 20.6-38.8 14.8-10.9-28.5z"/><g class="st1"><path class="st2" d="M466.3 471.9v42.4c0 2.1-1.7 3.8-3.8 3.8h-13l6.1 16h26.6v-68.2l-15.9 6z"/></g><circle class="st0" cx="756.1" cy="758.5" r="7.5"/><g class="st1"><circle class="st3" cx="756.1" cy="758.5" r="7.5"/></g><path class="st2" d="M672.4 640.6L555.3 396.4c-2.4-5.1-5.2-10-8.2-14.7l-4.1-6.4c-16.3-25.2-40.4-44.2-67.8-53.6-1-.3-2-.7-3-1l-47.8-15c-.2 0-.4-.1-.6-.1V286c39.8-16.1 66.4-54.1 67.9-97 13.4-2.2 22.5-14.8 20.3-28.2-1.7-10.4-9.9-18.6-20.3-20.3-.4-12.1-2.9-24.1-7.4-35.4 1.3-12-.5-24.1-5.1-35.3-13.2-32-45.4-46.4-70.1-52.8-1.2-.3-30.1-7.7-73.8 5.4l-17.4-19c-1.5-1.6-4-1.8-5.7-.3-.9.9-1.4 2.1-1.3 3.4l2.7 26.3c-6.1-2.6-15.7-5.6-25.4-4.5-2.2.3-3.8 2.2-3.5 4.4.1 1.1.7 2 1.5 2.7 3 2.4 9 8.1 11 12.6-6.1 4.9-19.9 20.2-15.9 57-4.4 11.3-6.9 23.3-7.4 35.4-13.4 2.2-22.5 14.8-20.3 28.2 1.7 10.4 9.9 18.6 20.3 20.3 1.5 42.9 28.1 80.9 67.9 97v19l-50.1 15.8c-1 .3-2 .6-3 1-27.5 9.3-51.6 28.4-67.8 53.6l-4.1 6.4c-3 4.7-5.8 9.6-8.2 14.7l-114 237.1c3.2-.9 6.5-1.6 9.8-1.9l111.2-231.7c2.3-4.8 4.9-9.4 7.7-13.8l4.1-6.4c15.3-23.7 37.9-41.6 63.7-50.3 1-.3 1.9-.6 2.9-.9l22.1-7 5 66.9c.1 1.7 1.3 3.1 3 3.6.3.1.7.1 1 .1 1.3 0 2.6-.7 3.3-1.8.2-.3 17.2-25.7 38.9-28.1 2.2-.3 3.8-2.2 3.5-4.4-.3-2.2-2.2-3.8-4.4-3.5-16.7 2-30.5 14.6-38.1 23.3L324 319l17.7-5.6v6.9c0 2.2 1.8 4 4 4s4-1.8 4-4v-31.4c10.5 3.3 21.5 5 32.5 5h1c11 0 22-1.7 32.5-5v31.4c0 2.2 1.8 4 4 4s4-1.8 4-4V314l18.7 5.9-4.3 57.6c-3.1-3.6-6.5-6.9-10.1-10-13.9-11.7-28.4-15.9-41.8-12.3-1.7.5-3 2.1-3 3.9v55c0 2.2 1.8 4 4 4s4-1.8 4-4v-51.8c10-1.6 20.6 2.1 31.5 11.2 5.8 4.9 10.9 10.6 15.3 16.8 1.2 1.8 3.7 2.4 5.5 1.1 1-.7 1.7-1.8 1.8-3.1l4.9-66 19.4 6.1c1 .3 1.9.6 2.9.9 25.8 8.8 48.4 26.6 63.7 50.3l4.1 6.4c2.9 4.4 5.4 9 7.7 13.8L665.2 644c2.9 6 3 12.9.3 19s-7.9 10.7-14.3 12.6c-.4.1-.8.3-1.2.6h14.6c.3 0 .7.1 1 .2 3.1-2.9 5.5-6.3 7.2-10.1 3.7-8.2 3.5-17.6-.4-25.7zM303.5 53.2c1.5-.8 2.3-2.4 2.1-4-.5-4.4-3.5-9-6.7-12.6 6 1.2 11.9 3.3 17.2 6.3 1.9 1.2 4.3.6 5.5-1.3.5-.7.7-1.6.6-2.5L320 17.7l10.9 12c1 1.1 2.7 1.6 4.1 1.1 42.7-13.4 71.5-6.1 71.8-6.1 33.2 8.6 55 24.7 64.6 47.8 2.2 5.3 3.7 10.9 4.5 16.6-9.6-16-18.7-24-19.2-24.4-1.7-1.5-4.2-1.3-5.6.4-.6.7-1 1.7-1 2.6v33.7c-45.2-1.6-61.7-29.8-62.4-31-.7-1.2-2.1-2-3.5-2-.3 0-.7 0-1 .1-1.8.5-3 2-3 3.8l-.2 18.8c-21-8.6-30.9-28.2-31-28.5-1-2-3.4-2.8-5.4-1.8-1.1.6-1.9 1.6-2.2 2.8l-3 15.5c-14.6-2.6-20-12.6-20.3-13.1-.5-1-1.5-1.7-2.5-2-1.1-.3-2.3-.1-3.2.6-10.5 7-18.8 18.1-24.2 26.6.6-29.5 14.6-37.7 15.3-38zm79.7 232.6h-1c-55.5-.1-100.5-45.1-100.5-100.6 0-2.2-1.8-4-4-4-9.2-.2-16.4-7.8-16.2-17 .2-8.9 7.3-16 16.2-16.2 2.2 0 4-1.7 4.1-3.9v-.1c.1-13 2.6-25.8 7.6-37.8 2-4.1 11.1-22 24.6-32.7 3.9 4.9 12.4 12.7 27.7 14.1 2 .2 3.9-1.2 4.3-3.2l1.8-9.4c6.2 8.3 17.7 20.3 35.4 25.5 2.1.6 4.3-.6 5-2.7.1-.4.2-.7.2-1.1l.1-12.9c9.9 10.4 30.4 25.6 66 25.6 2.2 0 4-1.8 4-4V77.8c7.2 8.7 13.2 18.3 17.9 28.5 4.9 12 7.5 24.9 7.6 37.9 0 2.2 1.8 4 4 4h.1c9.2.2 16.4 7.9 16.2 17-.2 8.8-7.4 16-16.2 16.2-2.2 0-4 1.9-4 4.1-.5 55.3-45.5 100.3-100.9 100.3z"/><path class="st0" d="M664.6 684.3h-283c-2.2 0-4-1.8-4-4v-.3c.1-1.4.1-2.5.1-3.6 0-29.9-24.2-54.1-54.1-54.1-13.4 0-26.3 5-36.2 13.9-1.6 1.5-4.2 1.3-5.6-.3-.4-.4-.7-.9-.8-1.5-12.3-38.9-53.8-60.4-92.6-48.1-25.7 8.1-45 29.7-50.2 56.2-.4 2.2-2.5 3.6-4.7 3.2-.4-.1-.8-.2-1.2-.4-21.9-12.4-49.7-4.8-62.1 17.1-3.2 5.6-5.1 11.8-5.7 18.2-.2 2.1-1.9 3.6-4 3.6H27.9c-2.2 0-4-1.8-4-4s1.8-4 4-4h29c4.8-29.2 32.3-49 61.5-44.2 4.5.7 8.9 2 13.1 3.9 11.5-43.7 56.2-69.8 99.9-58.3 25.2 6.6 45.7 24.8 55.3 49 27.5-20.4 66.4-14.7 86.8 12.8 7.9 10.7 12.2 23.6 12.2 36.9h278.9c2.2 0 4 1.8 4 4s-1.8 4-4 4z"/><g class="st1"><path class="st3" d="M664.6 684.3h-283c-2.2 0-4-1.8-4-4v-.3c.1-1.4.1-2.5.1-3.6 0-29.9-24.2-54.1-54.1-54.1-13.4 0-26.3 5-36.2 13.9-1.6 1.5-4.2 1.3-5.6-.3-.4-.4-.7-.9-.8-1.5-12.3-38.9-53.8-60.4-92.6-48.1-25.7 8.1-45 29.7-50.2 56.2-.4 2.2-2.5 3.6-4.7 3.2-.4-.1-.8-.2-1.2-.4-21.9-12.4-49.7-4.8-62.1 17.1-3.2 5.6-5.1 11.8-5.7 18.2-.2 2.1-1.9 3.6-4 3.6H27.9c-2.2 0-4-1.8-4-4s1.8-4 4-4h29c4.8-29.2 32.3-49 61.5-44.2 4.5.7 8.9 2 13.1 3.9 11.5-43.7 56.2-69.8 99.9-58.3 25.2 6.6 45.7 24.8 55.3 49 27.5-20.4 66.4-14.7 86.8 12.8 7.9 10.7 12.2 23.6 12.2 36.9h278.9c2.2 0 4 1.8 4 4s-1.8 4-4 4z"/></g><g class="st1"><circle class="st3" cx="148.8" cy="285.6" r="7.5"/></g><g class="st1"><path class="st3" d="M76.8 325.1l5.7 10.3c3.2 5.9 8 10.7 13.9 13.9l10.3 5.7-10.3 5.6c-5.9 3.2-10.7 8-13.9 13.9L76.8 385l-5.7-10.4c-3.2-5.9-8-10.7-13.9-13.9L46.9 355l10.4-5.7c5.9-3.2 10.7-8 13.9-13.9l5.6-10.3z"/></g><g class="st1"><path class="st3" d="M211 671.4l-4.2 7.7c-2.4 4.3-5.9 7.9-10.2 10.2l-7.6 4.2 7.6 4.2c4.3 2.4 7.9 5.9 10.2 10.2l4.2 7.6 4.2-7.6c2.4-4.3 5.9-7.9 10.2-10.2l7.6-4.2-7.6-4.2c-4.3-2.4-7.9-5.9-10.2-10.2l-4.2-7.7z"/></g></g></g></svg>