<svg id="Layer_1" xmlns="http://www.w3.org/2000/svg" viewBox="0 0 768 768"><style>.st0{fill:#fff}.st1{fill:#0073ec;enable-background:new}.st1,.st2{opacity:.4}.st3{fill:#a644e5}.st4{fill:#0073ec}</style><path class="st0" d="M546.5 164.9H713V284H546.5zM546.5 356.9H713V476H546.5zM546.5 547.8H713V667H546.5zM27.1 302.8v-98c0-5 4-9 9-9H425c5 0 9 4 9 9v98c0 5-4 9-9 9H36.1c-4.9 0-9-4-9-9zM52.1 473.4h357v21.4h-357zM434 358.3v98c0 5-4 9-9 9H36.1c-5 0-9-4-9-9v-98c0-5 4-9 9-9H425c5 0 9 4 9 9zM52.1 319.9h357v21.4h-357z"/><path class="st1" d="M52.1 473.4h357v21.4h-357zM52.1 319.9h357v21.4h-357z"/><path class="st0" d="M327.4 616.2c-11.5-43.7-56.2-69.8-99.8-58.3-25.1 6.6-45.6 24.8-55.2 48.9-27.3-20.3-65.9-14.8-86.4 12.3-.4-.2-.9-.2-1.3-.2H37.1c-5 0-9-4-9-9v-98c0-5 4-9 9-9H426c5 0 9 4 9 9v98c0 5-4 9-9 9h-48.2c-.4 0-.8.1-1.2.2-15-8.9-33.3-9.9-49.2-2.9zM80 49.3l4.1 7.7c2.4 4.3 5.9 7.8 10.2 10.2l7.7 4.2-7.6 4.2c-4.3 2.4-7.9 5.9-10.3 10.2L80 93.3l-4.2-7.6c-2.4-4.3-5.9-7.9-10.3-10.2L58 71.3l7.6-4.2c4.3-2.4 7.8-5.9 10.2-10.2l4.2-7.6z"/><circle class="st0" cx="142" cy="121.3" r="7.5"/><g class="st2"><path class="st3" d="M80 49.3l4.1 7.7c2.4 4.3 5.9 7.8 10.2 10.2l7.7 4.2-7.6 4.2c-4.3 2.4-7.9 5.9-10.3 10.2L80 93.3l-4.2-7.6c-2.4-4.3-5.9-7.9-10.3-10.2L58 71.3l7.6-4.2c4.3-2.4 7.8-5.9 10.2-10.2l4.2-7.6z"/></g><g class="st2"><circle class="st3" cx="142" cy="121.3" r="7.5"/></g><path class="st4" d="M715.4 292H544c-3 0-5.5-2.5-5.5-5.5V162.4c0-3.1 2.5-5.5 5.5-5.5h171.4c3.1 0 5.5 2.5 5.5 5.5v124.1c0 3-2.4 5.5-5.5 5.5zm-168.9-8H713V164.9H546.5V284zm168.9-119.1z"/><circle class="st4" cx="569.5" cy="183.3" r="6.7"/><circle class="st4" cx="596.5" cy="183.3" r="6.7"/><circle class="st4" cx="623.4" cy="183.3" r="6.7"/><path class="st4" d="M75.8 279.4c-2.2 0-4-1.8-4-4v-40.1c0-2.2 1.8-4 4-4s4 1.8 4 4v40.2c0 2.1-1.8 3.9-4 3.9zM108.4 279.4c-2.2 0-4-1.8-4-4v-40.1c0-2.2 1.8-4 4-4s4 1.8 4 4v40.2c0 2.1-1.8 3.9-4 3.9zM141 279.4c-2.2 0-4-1.8-4-4v-40.1c0-2.2 1.8-4 4-4s4 1.8 4 4v40.2c0 2.1-1.8 3.9-4 3.9zM173.6 279.4c-2.2 0-4-1.8-4-4v-40.1c0-2.2 1.8-4 4-4s4 1.8 4 4v40.2c-.1 2.1-1.8 3.9-4 3.9zM206.1 279.4c-2.2 0-4-1.8-4-4v-40.1c0-2.2 1.8-4 4-4s4 1.8 4 4v40.2c0 2.1-1.8 3.9-4 3.9z"/><circle class="st4" cx="376.8" cy="235.2" r="11.9"/><circle class="st4" cx="376.8" cy="274.9" r="11.9" opacity=".3"/><path class="st4" d="M75.8 432.9c-2.2 0-4-1.8-4-4v-40.2c0-2.2 1.8-4 4-4s4 1.8 4 4v40.1c0 2.3-1.8 4.1-4 4.1zM108.4 432.9c-2.2 0-4-1.8-4-4v-40.2c0-2.2 1.8-4 4-4s4 1.8 4 4v40.1c0 2.3-1.8 4.1-4 4.1zM141 432.9c-2.2 0-4-1.8-4-4v-40.2c0-2.2 1.8-4 4-4s4 1.8 4 4v40.1c0 2.3-1.8 4.1-4 4.1zM173.6 432.9c-2.2 0-4-1.8-4-4v-40.2c0-2.2 1.8-4 4-4s4 1.8 4 4v40.1c0 2.3-1.8 4.1-4 4.1zM206.1 432.9c-2.2 0-4-1.8-4-4v-40.2c0-2.2 1.8-4 4-4s4 1.8 4 4v40.1c0 2.3-1.8 4.1-4 4.1z"/><circle class="st4" cx="376.8" cy="388.8" r="11.9"/><g class="st2"><circle class="st4" cx="376.8" cy="428.4" r="11.9"/></g><path class="st4" d="M425 319.9c9.4 0 17-7.6 17-17v-98c0-9.4-7.6-17-17-17H36.1c-9.4 0-17 7.6-17 17v98c0 9.4 7.6 17 17 17H44v21.4h-7.9c-9.4 0-17 7.6-17 17v98c0 9.4 7.6 17 17 17H44v21.4h-7.9c-9.4 0-17 7.6-17 17v98c0 9.4 7.6 17 17 17h47.4c2.2 0 4-1.8 4-4s-1.8-4-4-4H36.1c-5 0-9-4-9-9v-98c0-5 4-9 9-9H425c5 0 9 4 9 9v98c0 5-4 9-9 9h-48.2c-2.2 0-4 1.8-4 4s1.8 4 4 4H425c9.4 0 17-7.6 17-17v-98c0-9.4-7.6-17-17-17h-8v-21.3h8c9.4 0 17-7.6 17-17v-98c0-9.4-7.6-17-17-17h-8v-21.5h8zm-397.9-17v-98c0-5 4-9 9-9H425c5 0 9 4 9 9v98c0 5-4 9-9 9H36.1c-4.9 0-9-4-9-9 0 0 0-.1 0 0zM409 494.8H52.1v-21.4H409v21.4zm25-136.5v98c0 5-4 9-9 9H36.1c-5 0-9-4-9-9v-98c0-5 4-9 9-9H425c5 0 9 4 9 9zm-25-17H52.1v-21.5H409v21.5z"/><path class="st4" d="M75.8 586.4c-2.2 0-4-1.8-4-4v-40.1c0-2.2 1.8-4 4-4s4 1.8 4 4v40.2c0 2.1-1.8 3.9-4 3.9zM108.4 586.4c-2.2 0-4-1.8-4-4v-40.1c0-2.2 1.8-4 4-4s4 1.8 4 4v40.2c0 2.1-1.8 3.9-4 3.9zM141 586.4c-2.2 0-4-1.8-4-4v-40.1c0-2.2 1.8-4 4-4s4 1.8 4 4v40.2c0 2.1-1.8 3.9-4 3.9zM173.6 586.4c-2.2 0-4-1.8-4-4v-40.1c0-2.2 1.8-4 4-4s4 1.8 4 4v40.2c-.1 2.1-1.8 3.9-4 3.9zM206.1 573.4c-2.2 0-4-1.8-4-4v-27.1c0-2.2 1.8-4 4-4s4 1.8 4 4v27.2c0 2.1-1.8 3.9-4 3.9z"/><circle class="st4" cx="376.8" cy="542.3" r="11.9"/><g class="st2"><circle class="st4" cx="376.8" cy="581.9" r="11.9"/></g><path class="st4" d="M508.1 614h-35c-2.2 0-4-1.8-4-4V224c0-2.2 1.8-4 4-4h35c2.2 0 4 1.8 4 4s-1.8 4-4 4h-31v378h31c2.2 0 4 1.8 4 4s-1.8 4-4 4z"/><path class="st4" d="M508.1 420h-18c-2.2 0-4-1.8-4-4s1.8-4 4-4h18c2.2 0 4 1.8 4 4s-1.8 4-4 4z"/><g class="st2"><path class="st4" d="M566.1 212h61v49h-61z"/></g><path class="st4" d="M688.1 221h-43c-2.2 0-4-1.8-4-4s1.8-4 4-4h43c2.2 0 4 1.8 4 4s-1.8 4-4 4zM688.1 241h-43c-2.2 0-4-1.8-4-4s1.8-4 4-4h43c2.2 0 4 1.8 4 4s-1.8 4-4 4zM688.1 261h-43c-2.2 0-4-1.8-4-4s1.8-4 4-4h43c2.2 0 4 1.8 4 4s-1.8 4-4 4zM715.4 484H544c-3 0-5.5-2.5-5.5-5.5V354.4c0-3.1 2.5-5.5 5.5-5.5h171.4c3.1 0 5.5 2.5 5.5 5.5v124.1c0 3-2.4 5.5-5.5 5.5zm-168.9-8H713V356.9H546.5V476zm168.9-119.1z"/><circle class="st4" cx="569.5" cy="375.3" r="6.7"/><circle class="st4" cx="596.5" cy="375.3" r="6.7"/><circle class="st4" cx="623.4" cy="375.3" r="6.7"/><g class="st2"><path class="st4" d="M566.1 404h61v49h-61z"/></g><path class="st4" d="M688.1 413h-43c-2.2 0-4-1.8-4-4s1.8-4 4-4h43c2.2 0 4 1.8 4 4s-1.8 4-4 4zM688.1 433h-43c-2.2 0-4-1.8-4-4s1.8-4 4-4h43c2.2 0 4 1.8 4 4s-1.8 4-4 4zM688.1 453h-43c-2.2 0-4-1.8-4-4s1.8-4 4-4h43c2.2 0 4 1.8 4 4s-1.8 4-4 4zM715.4 676H544c-3 0-5.5-2.5-5.5-5.5V546.4c0-3.1 2.5-5.5 5.5-5.5h171.4c3.1 0 5.5 2.5 5.5 5.5v124.1c0 3-2.4 5.5-5.5 5.5zm-168.9-8H713V548.8H546.5V668zm168.9-119.2z"/><circle class="st4" cx="569.5" cy="567.3" r="6.7"/><circle class="st4" cx="596.5" cy="567.3" r="6.7"/><circle class="st4" cx="623.4" cy="567.3" r="6.7"/><g class="st2"><path class="st4" d="M566.1 596h61v49h-61z"/></g><path class="st4" d="M688.1 605h-43c-2.2 0-4-1.8-4-4s1.8-4 4-4h43c2.2 0 4 1.8 4 4s-1.8 4-4 4zM688.1 625h-43c-2.2 0-4-1.8-4-4s1.8-4 4-4h43c2.2 0 4 1.8 4 4s-1.8 4-4 4zM688.1 645h-43c-2.2 0-4-1.8-4-4s1.8-4 4-4h43c2.2 0 4 1.8 4 4s-1.8 4-4 4z"/><path class="st0" d="M479.4 664.5h-82c-2.1 0-3.8-1.6-4-3.6-2.3-25-24.5-43.4-49.6-41.1-6.4.6-12.6 2.6-18.2 5.7-1.9 1.1-4.4.4-5.5-1.5-.2-.4-.4-.8-.4-1.2-7.8-40-46.5-66.1-86.5-58.3-26.5 5.2-48.1 24.4-56.2 50.2-.7 2.1-2.9 3.3-5 2.6-.5-.2-1-.5-1.5-.8-22.1-20-56.3-18.3-76.3 3.8-9 10-14 22.9-13.9 36.3 0 1.1 0 2.2.1 3.6.1 2.2-1.5 4.1-3.7 4.3H25.1c-2.2 0-4-1.8-4-4s1.8-4 4-4h47.2c0-34.2 27.8-62 62.1-61.9 13.3 0 26.3 4.3 36.9 12.3 16.6-42 64.2-62.5 106.1-45.9 24.2 9.6 42.3 30.1 48.9 55.2 27-12 58.6.2 70.6 27.2 1.9 4.2 3.2 8.6 3.9 13.1h78.5c2.2 0 4 1.8 4 4s-1.7 4-3.9 4z"/><g class="st2"><path class="st0" d="M479.4 664.5h-82c-2.1 0-3.8-1.6-4-3.6-2.3-25-24.5-43.4-49.6-41.1-6.4.6-12.6 2.6-18.2 5.7-1.9 1.1-4.4.4-5.5-1.5-.2-.4-.4-.8-.4-1.2-7.8-40-46.5-66.1-86.5-58.3-26.5 5.2-48.1 24.4-56.2 50.2-.7 2.1-2.9 3.3-5 2.6-.5-.2-1-.5-1.5-.8-22.1-20-56.3-18.3-76.3 3.8-9 10-14 22.9-13.9 36.3 0 1.1 0 2.2.1 3.6.1 2.2-1.5 4.1-3.7 4.3H25.1c-2.2 0-4-1.8-4-4s1.8-4 4-4h47.2c0-34.2 27.8-62 62.1-61.9 13.3 0 26.3 4.3 36.9 12.3 16.6-42 64.2-62.5 106.1-45.9 24.2 9.6 42.3 30.1 48.9 55.2 27-12 58.6.2 70.6 27.2 1.9 4.2 3.2 8.6 3.9 13.1h78.5c2.2 0 4 1.8 4 4s-1.7 4-3.9 4z"/></g><g class="st2"><path class="st3" d="M479.4 664.5h-82c-2.1 0-3.8-1.6-4-3.6-2.3-25-24.5-43.4-49.6-41.1-6.4.6-12.6 2.6-18.2 5.7-1.9 1.1-4.4.4-5.5-1.5-.2-.4-.4-.8-.4-1.2-7.8-40-46.5-66.1-86.5-58.3-26.5 5.2-48.1 24.4-56.2 50.2-.7 2.1-2.9 3.3-5 2.6-.5-.2-1-.5-1.5-.8-22.1-20-56.3-18.3-76.3 3.8-9 10-14 22.9-13.9 36.3 0 1.1 0 2.2.1 3.6.1 2.2-1.5 4.1-3.7 4.3H25.1c-2.2 0-4-1.8-4-4s1.8-4 4-4h47.2c0-34.2 27.8-62 62.1-61.9 13.3 0 26.3 4.3 36.9 12.3 16.6-42 64.2-62.5 106.1-45.9 24.2 9.6 42.3 30.1 48.9 55.2 27-12 58.6.2 70.6 27.2 1.9 4.2 3.2 8.6 3.9 13.1h78.5c2.2 0 4 1.8 4 4s-1.7 4-3.9 4z"/><g class="st2"><path class="st3" d="M479.4 664.5h-82c-2.1 0-3.8-1.6-4-3.6-2.3-25-24.5-43.4-49.6-41.1-6.4.6-12.6 2.6-18.2 5.7-1.9 1.1-4.4.4-5.5-1.5-.2-.4-.4-.8-.4-1.2-7.8-40-46.5-66.1-86.5-58.3-26.5 5.2-48.1 24.4-56.2 50.2-.7 2.1-2.9 3.3-5 2.6-.5-.2-1-.5-1.5-.8-22.1-20-56.3-18.3-76.3 3.8-9 10-14 22.9-13.9 36.3 0 1.1 0 2.2.1 3.6.1 2.2-1.5 4.1-3.7 4.3H25.1c-2.2 0-4-1.8-4-4s1.8-4 4-4h47.2c0-34.2 27.8-62 62.1-61.9 13.3 0 26.3 4.3 36.9 12.3 16.6-42 64.2-62.5 106.1-45.9 24.2 9.6 42.3 30.1 48.9 55.2 27-12 58.6.2 70.6 27.2 1.9 4.2 3.2 8.6 3.9 13.1h78.5c2.2 0 4 1.8 4 4s-1.7 4-3.9 4z"/></g></g><path class="st0" d="M220.4 706.2l5.7 10.3c3.2 5.9 8 10.7 13.9 13.9l10.3 5.7-10.3 5.7c-5.9 3.2-10.7 8-13.9 13.9l-5.7 10.3-5.6-10.3c-3.2-5.9-8-10.7-13.9-13.9l-10.3-5.7 10.3-5.7c5.9-3.2 10.7-8 13.9-13.9l5.6-10.3z"/><g class="st2"><path class="st3" d="M220.4 706.2l5.7 10.3c3.2 5.9 8 10.7 13.9 13.9l10.3 5.7-10.3 5.7c-5.9 3.2-10.7 8-13.9 13.9l-5.7 10.3-5.6-10.3c-3.2-5.9-8-10.7-13.9-13.9l-10.3-5.7 10.3-5.7c5.9-3.2 10.7-8 13.9-13.9l5.6-10.3z"/></g><path class="st0" d="M746.2 82.6h-96.9c-1.7 0-3.2-1.1-3.8-2.7-9.2-26.7-38.3-40.8-65-31.6-6.5 2.2-12.4 5.8-17.5 10.3-1.6 1.5-4.2 1.4-5.6-.3-.4-.4-.7-.9-.9-1.5-11.6-36.7-50.9-57.1-87.6-45.4-29 9.2-48.7 36.1-48.7 66.5V78.5c0 2.2-1.8 4-4 4h-54.3c-2.2 0-4-1.8-4-4s1.8-4 4-4h50.4c1.8-42.9 38.1-76.2 81.1-74.4 30.6 1.3 57.5 20.4 68.9 48.8 26.3-19.3 63.3-13.7 82.6 12.6 2.9 4 5.4 8.4 7.2 13h94.2c2.2 0 4 1.8 4 4s-1.9 4.1-4.1 4.1zM321.4 82H292c-2.2 0-4-1.8-4-4s1.8-4 4-4h29.3c2.2 0 4 1.8 4 4s-1.7 4-3.9 4z"/><g class="st2"><path class="st3" d="M746.2 82.6h-96.9c-1.7 0-3.2-1.1-3.8-2.7-9.2-26.7-38.3-40.8-65-31.6-6.5 2.2-12.4 5.8-17.5 10.3-1.6 1.5-4.2 1.4-5.6-.3-.4-.4-.7-.9-.9-1.5-11.6-36.7-50.9-57.1-87.6-45.4-29 9.2-48.7 36.1-48.7 66.5V78.5c0 2.2-1.8 4-4 4h-54.3c-2.2 0-4-1.8-4-4s1.8-4 4-4h50.4c1.8-42.9 38.1-76.2 81.1-74.4 30.6 1.3 57.5 20.4 68.9 48.8 26.3-19.3 63.3-13.7 82.6 12.6 2.9 4 5.4 8.4 7.2 13h94.2c2.2 0 4 1.8 4 4s-1.9 4.1-4.1 4.1z"/></g><g class="st2"><path class="st3" d="M321.4 82H292c-2.2 0-4-1.8-4-4s1.8-4 4-4h29.3c2.2 0 4 1.8 4 4s-1.7 4-3.9 4z"/></g></svg>