<svg id="Layer_1" xmlns="http://www.w3.org/2000/svg" viewBox="0 0 768 768"><style>.st0{fill:#fff}.st1{opacity:.4}.st2{fill:#0073ec}.st3{fill:none}.st4{fill:#a644e5}</style><g id="Layer_2_1_"><g id="Illustrations"><path class="st0" d="M514.7 618.2c25.4 0 49.4 11.8 64.9 32h54.5c22.1 0 40-17.9 40-40v-456c0-22.1-17.9-40-40-40h-496c-22.1 0-40 17.9-40 40v456c0 22.1 17.9 40 40 40h311.5c15.6-20.2 39.6-32.1 65.1-32z"/><g class="st1"><path class="st2" d="M161.1 146.2h450.1c17.1 0 31 13.9 31 30.9v410.1c0 17.1-13.9 31-31 31H161.1c-17.1 0-30.9-13.9-30.9-31V177.1c-.1-17.1 13.8-30.9 30.9-30.9z"/></g><path class="st0" d="M395.7 306.6c-21.2-23.3-51.2-36.6-82.7-36.7-61.4 0-111.4 49.9-111.4 111.1 0 2.2 1.8 3.9 3.9 3.9h75.3c-.2-1.3-.2-2.6-.2-3.9.1-17.9 14.7-32.4 32.7-32.3 9.6.1 18.7 4.3 24.8 11.7l61-50c-1.1-1.3-2.2-2.6-3.4-3.8z"/><g class="st1"><path class="st2" d="M395.7 306.6c-21.2-23.3-51.2-36.6-82.7-36.7-61.4 0-111.4 49.9-111.4 111.1 0 2.2 1.8 3.9 3.9 3.9h75.3c-.2-1.3-.2-2.6-.2-3.9.1-17.9 14.7-32.4 32.7-32.3 9.6.1 18.7 4.3 24.8 11.7l61-50c-1.1-1.3-2.2-2.6-3.4-3.8z"/></g><path class="st0" d="M395.9 85.2h-93.6c-1.7 0-3.2-1.1-3.8-2.7-9.7-27.7-39.9-42.3-67.6-32.6-6.6 2.3-12.7 5.9-17.9 10.6-1.6 1.5-4.2 1.3-5.6-.3-.4-.4-.7-.9-.8-1.5-12.2-38.1-52.9-59.1-91-46.9-29.9 9.6-50.3 37.3-50.4 68.7V81.1c0 2.2-1.8 4-4 4H5c-2.2 0-4-1.8-4-4s1.8-4 4-4h52.2c2-44.3 39.5-78.7 83.9-76.7 31.5 1.4 59.3 21.1 71 50.4 27.1-20 65.4-14.3 85.4 12.9 3 4.1 5.6 8.6 7.5 13.4h90.8c2.2 0 4 1.8 4 4s-1.7 4.1-3.9 4.1z"/><ellipse class="st0" cx="313" cy="381" rx="13.4" ry="13.3"/><path class="st0" d="M313 269.9c21.3 0 42.1 6.1 60 17.5-46.5-30.3-109.4-21.8-145.9 21.6-.5.6-.9 1.5-.9 2.3 21.2-26.2 53.1-41.4 86.8-41.4zM423.8 376.8c-.9-24.2-9.7-47.4-25-66.2L338 360.4c-1.9-2.3-4.1-4.3-6.6-6 .6.5 1.3 1 1.9 1.5 7.4 6.2 11.7 15.4 11.7 25l78.9.9c0-1.6-.1-3.3-.1-5z"/><path class="st3" d="M313 243.8v9.1M283.2 246.9l2.8 8.7M256.6 256.3l4.3 8M233 268.1l5.5 7.3M211.6 289.2l7.3 5.5M193.5 310.3l7.9 4.6M182.1 337l8.7 2.6M174.9 364.1l9.1 1.5M343.5 246.9l-2.7 8.7M370.2 256.3l-4.3 8M393.8 268.1l-5.5 7.3M415.2 289.2l-7.3 5.5M433.3 310.3l-7.9 4.6M444.7 337l-8.7 2.6M451.9 364.1l-9.1 1.5"/><path class="st2" d="M313 237c-79.9 0-144.8 64.8-144.8 144.4 0 2.2 1.8 4 4 4s4-1.8 4-4c0-4.4.2-8.7.6-12.9l6.6 1h.6c2.2 0 4-1.8 4-4 0-2-1.4-3.6-3.4-3.9l-6.8-1.1c1-6.5 2.5-13 4.5-19.3l7.5 2.2c.4.1.8.2 1.1.2 2.2 0 4-1.8 4-4 0-1.8-1.2-3.4-2.9-3.9l-7.1-2.1c2.4-6.4 5.3-12.7 8.7-18.7l5.9 3.4c.6.4 1.3.5 2 .5 2.2 0 4-1.8 4-4 0-1.4-.8-2.8-2-3.5l-5.8-3.3c3.5-5.5 7.4-10.7 11.7-15.6l7.2 5.4c1.8 1.3 4.3 1 5.6-.8s1-4.3-.8-5.6l-6.6-5c5.1-5.2 10.5-10 16.3-14.4l4.2 5.6c1.3 1.8 3.8 2.1 5.6.8 1.8-1.3 2.1-3.8.8-5.6l-4.1-5.4c5-3.3 10.3-6.4 15.7-9l4.1 7.5c.9 2 3.2 3 5.3 2.1 2-.9 3-3.2 2.1-5.3l-.3-.6-3.8-7c6.2-2.6 12.6-4.7 19.1-6.3l2.4 7.7c.5 1.7 2.1 2.8 3.8 2.8.4 0 .8-.1 1.2-.2 2.1-.7 3.3-2.9 2.6-5l-2.2-7.1c7.1-1.3 14.3-2 21.5-2.2v7.9c0 2.2 1.8 4 4 4s4-1.8 4-4V245c7.4.2 14.9 1 22.2 2.4l-2.2 6.9c-.7 2.1.5 4.3 2.6 5 .4.1.8.2 1.2.2 1.7 0 3.3-1.1 3.8-2.8l2.4-7.6c6.5 1.7 12.8 3.8 19 6.4l-3.7 6.8c-1.2 1.8-.7 4.3 1.1 5.5 1.8 1.2 4.3.7 5.5-1.1l.3-.6 3.9-7.2c5.4 2.7 10.6 5.7 15.6 9L385 273c-1.4 1.7-1.2 4.2.5 5.6s4.2 1.2 5.6-.5c.1-.1.1-.2.2-.3l4-5.2c5.7 4.3 11.1 9.1 16.1 14.3l-6.1 4.6c-1.8 1.3-2.1 3.8-.8 5.6s3.8 2.1 5.6.8l6.7-5.1c4.2 4.9 8.1 10.1 11.6 15.6l-5.2 3c-1.9 1.1-2.6 3.5-1.5 5.5.7 1.2 2 2 3.5 2 .7 0 1.4-.2 2-.5l5.3-3c3.3 6 6.2 12.2 8.6 18.5l-6.4 1.9c-2.1.6-3.3 2.8-2.7 5 .5 1.7 2.1 2.9 3.9 2.9.4 0 .8-.1 1.1-.2l6.8-2c1.9 6.3 3.4 12.7 4.4 19.2l-6.1 1c-2.2.3-3.7 2.4-3.3 4.6.3 1.9 2 3.4 3.9 3.4h.6l5.8-.9c.4 4.2.6 8.5.6 12.8 0 2.2 1.8 4 4 4s4-1.8 4-4C457.9 301.8 392.9 237 313 237z"/><path class="st2" d="M313 265.9c-63.6 0-115.4 51.6-115.4 115.1 0 4.4 3.5 7.9 7.9 7.9h75.3c2.2 0 4-1.8 4-4v-.5c-.1-1.1-.2-2.3-.2-3.4.1-15.7 12.9-28.4 28.6-28.4 7 0 13.8 2.7 19 7.4l-8.7 7.2c-7.7-5.8-18.6-4.3-24.4 3.4s-4.3 18.6 3.4 24.4 18.6 4.3 24.4-3.4c4-5.3 4.6-12.3 1.7-18.2l8.7-7.2c2.8 4.5 4.2 9.6 4.2 14.9 0 1.1-.1 2.3-.2 3.4-.3 2.2 1.3 4.2 3.5 4.5h75.8c4.4 0 7.9-3.5 7.9-7.9-.1-63.7-51.8-115.3-115.5-115.2zm9.4 115.1c0 5.2-4.2 9.4-9.3 9.4-5.2 0-9.4-4.2-9.4-9.3 0-5.2 4.2-9.4 9.3-9.4 1.4 0 2.7.3 4 .9l-6.5 5.4c-1.7 1.4-2 3.9-.5 5.6.8.9 1.9 1.5 3.1 1.5.9 0 1.8-.3 2.5-.9l6.5-5.4c.2.7.3 1.5.3 2.2zm27.1-.1c0-7.1-2.1-14-6-19.9l37-30.6c1.7-1.4 1.9-4 .4-5.6-1.4-1.6-3.8-1.9-5.5-.5l-37 30.6c-14.5-14-37.6-13.6-51.6.8-6.5 6.8-10.2 15.8-10.3 25.2h-71c.1-59 48.2-107 107.4-107 30.4 0 59.3 12.9 79.8 35.4 17.8 19.6 27.7 45.2 27.7 71.7l-70.9-.1z"/><path class="st0" d="M433 443h128c22.1 0 40 17.9 40 40s-17.9 40-40 40H433c-22.1 0-40-17.9-40-40s17.9-40 40-40z"/><path class="st2" d="M561 527H433c-24.3 0-44-19.7-44-44s19.7-44 44-44h128c24.3 0 44 19.7 44 44s-19.7 44-44 44zm-128-80c-19.9 0-36 16.1-36 36s16.1 36 36 36h128c19.9 0 36-16.1 36-36s-16.1-36-36-36H433z"/><circle class="st2" cx="436.3" cy="483.1" r="24"/><ellipse class="st2" cx="212.9" cy="456" rx="12.7" ry="12.6"/><ellipse class="st2" cx="263.6" cy="456" rx="12.7" ry="12.6"/><ellipse class="st2" cx="314.3" cy="456" rx="12.7" ry="12.6"/><ellipse class="st2" cx="212.9" cy="505.9" rx="12.7" ry="12.6"/><ellipse class="st2" cx="263.6" cy="505.9" rx="12.7" ry="12.6"/><ellipse class="st2" cx="314.3" cy="505.9" rx="12.7" ry="12.6"/><ellipse class="st2" cx="212.9" cy="555.8" rx="12.7" ry="12.6"/><ellipse class="st2" cx="263.6" cy="555.8" rx="12.7" ry="12.6"/><ellipse class="st2" cx="314.3" cy="555.8" rx="12.7" ry="12.6"/><path class="st0" d="M504.3 232.9h32v64h-32z"/><path class="st2" d="M536.3 228.9h-12.8v-33c0-2.2-1.8-4-4-4s-4 1.8-4 4v33h-11.2c-2.2 0-4 1.8-4 4v64c0 2.2 1.8 4 4 4h11.2v84c0 2.2 1.8 4 4 4s4-1.8 4-4v-84.1h12.8c2.2 0 4-1.8 4-4v-64c0-2.1-1.8-3.9-4-3.9zm-4 64h-24v-56h24v56z"/><path class="st0" d="M563.2 282.8h32v64h-32z"/><path class="st2" d="M595.2 278.8h-12.8v-82.9c0-2.2-1.8-4-4-4s-4 1.8-4 4v82.9h-11.2c-2.2 0-4 1.8-4 4v64c0 2.2 1.8 4 4 4h11.2v34.1c0 2.2 1.8 4 4 4s4-1.8 4-4v-34.1h12.8c2.2 0 4-1.8 4-4v-64c0-2.2-1.8-4-4-4zm-4 64h-24v-56h24v56z"/><path class="st0" d="M76 707.9l5.7 10.3c3.2 5.9 8 10.7 13.9 13.9l10.3 5.6-10.4 5.7c-5.9 3.2-10.7 8-13.9 13.9L76 767.6l-5.7-10.3c-3.2-5.8-8.1-10.6-14-13.8L46 737.7l10.3-5.6c5.9-3.2 10.7-8 13.9-13.9l5.8-10.3zM762.5 727.3h-18.3c-2.2 0-4-1.8-4-4s1.8-4 4-4h18.3c2.2 0 4 1.8 4 4s-1.8 4-4 4z"/><path class="st2" d="M452.9 646.2H138.1c-19.9 0-36-16.1-36-36v-456c0-19.9 16.1-36 36-36h496c19.9 0 36 16.1 36 36v456c0 19.9-16.1 36-36 36h-57.8c2.2 2.5 4.3 5.2 6.2 8h51.6c24.3 0 44-19.7 44-44v-456c0-24.3-19.7-44-44-44h-496c-24.3 0-44 19.7-44 44v456c0 24.3 19.7 44 44 44h308.7c1.9-2.8 3.9-5.5 6.1-8z"/><path class="st0" d="M712.7 727.3h-47.8c-2.1 0-3.8-1.6-4-3.6-2.4-25.1-24.7-43.4-49.8-41-6.4.6-12.5 2.6-18.1 5.7-1.9 1.1-4.4.4-5.5-1.5-.2-.4-.4-.8-.4-1.2-7.9-40-46.8-66-86.8-58.1-26.4 5.2-47.8 24.4-56 50-.7 2.1-2.9 3.3-5 2.6-.5-.2-1-.5-1.5-.8-22.2-20-56.5-18.1-76.4 4.1-8.9 9.9-13.8 22.6-13.8 35.9 0 1.1 0 2.2.1 3.6.1 2.2-1.5 4.1-3.7 4.3H293.3c-2.2 0-4-1.8-4-4s1.8-4 4-4h46.2c.2-34.3 28.1-62 62.4-61.8 13.2.1 26.1 4.3 36.7 12.2 16.8-42 64.4-62.4 106.4-45.7 24 9.6 42.1 30 48.8 55 27.1-12 58.7.2 70.7 27.3 1.8 4.1 3.1 8.5 3.9 12.9h44.3c2.2 0 4 1.8 4 4s-1.8 4.1-4 4.1zM705.4 46.6l-4.2 7.6c-2.4 4.3-5.9 7.9-10.3 10.2l-7.6 4.2 7.6 4.1c4.3 2.4 7.9 5.9 10.2 10.2l4.2 7.6 4.2-7.6c2.4-4.3 5.9-7.8 10.2-10.2l7.6-4.2-7.6-4.1c-4.3-2.4-7.9-5.9-10.2-10.2l-4.1-7.6zM24 491.4l-4.2 7.6c-2.4 4.3-5.9 7.8-10.2 10.2L2 513.4l7.6 4.2c4.3 2.4 7.9 5.9 10.2 10.2l4.1 7.6 4.2-7.6c2.4-4.3 5.9-7.9 10.2-10.2l7.6-4.1-7.6-4.1c-4.3-2.4-7.9-5.9-10.2-10.2l-4.1-7.8z"/><ellipse class="st0" cx="759.5" cy="8.1" rx="7.5" ry="7.5"/><g class="st1"><path class="st4" d="M395.9 85.2h-93.6c-1.7 0-3.2-1.1-3.8-2.7-9.7-27.7-39.9-42.3-67.6-32.6-6.6 2.3-12.7 5.9-17.9 10.6-1.6 1.5-4.2 1.3-5.6-.3-.4-.4-.7-.9-.8-1.5-12.2-38.1-52.9-59.1-91-46.9-29.9 9.6-50.3 37.3-50.4 68.7V81.1c0 2.2-1.8 4-4 4H5c-2.2 0-4-1.8-4-4s1.8-4 4-4h52.2c2-44.3 39.5-78.7 83.9-76.7 31.5 1.4 59.3 21.1 71 50.4 27.1-20 65.4-14.3 85.4 12.9 3 4.1 5.6 8.6 7.5 13.4h90.8c2.2 0 4 1.8 4 4s-1.7 4.1-3.9 4.1z"/></g><g class="st1"><path class="st4" d="M76 707.9l5.7 10.3c3.2 5.9 8 10.7 13.9 13.9l10.3 5.6-10.4 5.7c-5.9 3.2-10.7 8-13.9 13.9L76 767.6l-5.7-10.3c-3.2-5.8-8.1-10.6-14-13.8L46 737.7l10.3-5.6c5.9-3.2 10.7-8 13.9-13.9l5.8-10.3z"/></g><g class="st1"><path class="st4" d="M705.4 46.6l-4.2 7.6c-2.4 4.3-5.9 7.9-10.3 10.2l-7.6 4.2 7.6 4.1c4.3 2.4 7.9 5.9 10.2 10.2l4.2 7.6 4.2-7.6c2.4-4.3 5.9-7.8 10.2-10.2l7.6-4.2-7.6-4.1c-4.3-2.4-7.9-5.9-10.2-10.2l-4.1-7.6zM24 491.4l-4.2 7.6c-2.4 4.3-5.9 7.8-10.2 10.2L2 513.4l7.6 4.2c4.3 2.4 7.9 5.9 10.2 10.2l4.1 7.6 4.2-7.6c2.4-4.3 5.9-7.9 10.2-10.2l7.6-4.1-7.6-4.1c-4.3-2.4-7.9-5.9-10.2-10.2l-4.1-7.8z"/><ellipse class="st4" cx="759.5" cy="8.1" rx="7.5" ry="7.5"/></g><path d="M762.5 727.3h-18.3c-2.2 0-4-1.8-4-4s1.8-4 4-4h18.3c2.2 0 4 1.8 4 4s-1.8 4-4 4z" opacity=".4" fill="#a644e5"/><path class="st4" d="M712.7 727.3h-47.8c-2.1 0-3.8-1.6-4-3.6-2.4-25.1-24.7-43.4-49.8-41-6.4.6-12.5 2.6-18.1 5.7-1.9 1.1-4.4.4-5.5-1.5-.2-.4-.4-.8-.4-1.2-7.9-40-46.8-66-86.8-58.1-26.4 5.2-47.8 24.4-56 50-.7 2.1-2.9 3.3-5 2.6-.5-.2-1-.5-1.5-.8-22.2-20-56.5-18.1-76.4 4.1-8.9 9.9-13.8 22.6-13.8 35.9 0 1.1 0 2.2.1 3.6.1 2.2-1.5 4.1-3.7 4.3H293.3c-2.2 0-4-1.8-4-4s1.8-4 4-4h46.2c.2-34.3 28.1-62 62.4-61.8 13.2.1 26.1 4.3 36.7 12.2 16.8-42 64.4-62.4 106.4-45.7 24 9.6 42.1 30 48.8 55 27.1-12 58.7.2 70.7 27.3 1.8 4.1 3.1 8.5 3.9 12.9h44.3c2.2 0 4 1.8 4 4s-1.8 4.1-4 4.1z" opacity=".41"/></g></g></svg>