<svg id="Layer_1" xmlns="http://www.w3.org/2000/svg" viewBox="0 0 768 768"><style>.st0{fill:#fff}.st1{opacity:.4}.st2{fill:#0073ec}.st3{fill:none}.st4{opacity:.4;fill:#0073ec;enable-background:new}.st6{fill:#a644e5}</style><g id="Layer_2_1_"><g id="Illustrations"><path class="st0" d="M105 210h528v384H105z"/><g class="st1"><path class="st2" d="M105 210h528v60H105z"/></g><path class="st0" d="M498.2 109.9h-95.3c-2.2 0-4-1.8-4-4v-.3c.1-1.4.1-2.5.1-3.6 0-29.8-24.1-54-53.9-54.1-13.4 0-26.3 4.9-36.3 13.9-1.6 1.5-4.2 1.4-5.6-.3-.4-.4-.7-.9-.9-1.5-12.2-38.7-53.6-60.2-92.5-48-25.7 8.1-45 29.7-50.1 56.2-.4 2.2-2.5 3.6-4.7 3.2-.4-.1-.8-.2-1.2-.5-21.9-12.4-49.6-4.7-62.1 17.1-3.2 5.6-5.1 11.8-5.7 18.2-.2 2.1-1.9 3.6-4 3.6H4.5c-2.2 0-4-1.8-4-4s1.8-4 4-4h74c4.8-29.2 32.3-49 61.5-44.2 4.5.7 8.9 2 13 3.9 11.5-43.7 56.2-69.7 99.9-58.2C278 10 298.4 28.1 308 52.2c27.5-20.4 66.3-14.7 86.7 12.7 7.9 10.7 12.2 23.6 12.3 36.9h91.2c2.2 0 4 1.8 4 4s-1.8 4.1-4 4.1z"/><path class="st3" d="M563 274.1h68.2M106.6 274.1h419.5"/><path class="st0" d="M285 119.5l5.6 10.3c3.2 5.9 8 10.7 13.9 13.9l10.3 5.7-10.3 5.6c-5.9 3.2-10.7 8-13.9 13.9l-5.7 10.4-5.7-10.3c-3.2-5.9-8-10.7-13.9-13.9l-10.3-5.6 10.3-5.7c5.9-3.2 10.7-8 13.9-13.9l5.8-10.4zM209.1 71.4l4.2 7.6c2.4 4.3 5.9 7.9 10.2 10.2l7.6 4.2-7.6 4.2c-4.3 2.4-7.9 5.9-10.2 10.2l-4.2 7.6-4.2-7.6c-2.4-4.3-5.9-7.9-10.2-10.2l-7.6-4.2 7.6-4.2c4.3-2.4 7.9-5.9 10.2-10.2l4.2-7.6zM383.8 591.8l1.5-121.4 52 31.8 29.2-103.7 37.2 24.9 103.7-261 38.1 14.4-9.6-58.3-9.7-58.2-45.6 37.4-45.6 37.5 40.3 15.2-87.8 220.9-41.3-27.5-29.6 105.5-65.7-40.1-1.5 182.6"/><path class="st4" d="M383.8 591.8l1.5-121.4 52 31.8 29.2-103.7 37.2 24.9 103.7-261 38.1 14.4-9.6-58.3-9.7-58.2-45.6 37.4-45.6 37.5 40.3 15.2-87.8 220.9-41.3-27.5-29.6 105.5-65.7-40.1-1.5 182.6"/><path class="st2" d="M200.3 408.8c-15.1 0-27.3-12.3-27.3-27.3 0-15.1 12.2-27.3 27.3-27.3 2.2 0 4 1.8 4 4s-1.8 4-4 4c-10.7 0-19.3 8.6-19.3 19.3s8.6 19.3 19.3 19.3 19.3-8.6 19.3-19.3c0-2.2 1.8-4 4-4s4 1.8 4 4c0 15-12.2 27.2-27.3 27.3zM200.3 510.5c-10.9 0-20.8-6.5-25.1-16.5-.9-2-.1-4.4 1.9-5.3s4.4-.1 5.3 1.9c0 .1.1.1.1.2a19.356 19.356 0 0 0 35.6-15.2c-3-7.1-10-11.7-17.8-11.7-2.2 0-4-1.8-4-4s1.8-4 4-4c15.1.3 27.1 12.8 26.8 27.8-.3 14.8-12.1 26.6-26.8 26.8zM295.4 368.3h-35.2c-2.2 0-4-1.8-4-4s1.8-4 4-4h35.2c2.2 0 4 1.8 4 4s-1.8 4-4 4zM279.3 405.3h-19c-2.2 0-4-1.8-4-4s1.8-4 4-4h19c2.2 0 4 1.8 4 4s-1.8 4-4 4zM295.4 470.1h-35.2c-2.2 0-4-1.8-4-4s1.8-4 4-4h35.2c2.2 0 4 1.8 4 4s-1.8 4-4 4zM279.3 507.1h-19c-2.2 0-4-1.8-4-4s1.8-4 4-4h19c2.2 0 4 1.8 4 4s-1.8 4-4 4z"/><path class="st0" d="M542.3 730.4H442.1c-1.7 0-3.2-1.1-3.8-2.7-9.6-27.6-39.7-42.3-67.3-32.7-6.7 2.3-12.8 6-18.1 10.7-1.6 1.5-4.2 1.3-5.6-.3-.4-.4-.7-.9-.8-1.5-12-38-52.7-59.1-90.7-47.1-30 9.5-50.4 37.4-50.4 68.9v.7c0 2.2-1.8 4-4 4h-56.1c-2.2 0-4-1.8-4-4s1.8-4 4-4h52.2c1.8-44.3 39.2-78.7 83.5-76.9 31.6 1.3 59.5 21.1 71.2 50.5 27.1-20 65.2-14.3 85.2 12.8 3.1 4.2 5.6 8.8 7.6 13.6h97.4c2.2 0 4 1.8 4 4s-1.9 4-4.1 4zM103.3 729.7H73c-2.2 0-4-1.8-4-4s1.8-4 4-4h30.3c2.2 0 4 1.8 4 4s-1.8 4-4 4zM746 724l4.2 7.6c2.4 4.3 5.9 7.9 10.2 10.2l7.6 4.2-7.6 4.2c-4.3 2.4-7.9 5.9-10.2 10.2L746 768l-4.2-7.6c-2.4-4.3-5.9-7.9-10.2-10.2L724 746l7.6-4.2c4.3-2.4 7.9-5.9 10.2-10.2l4.2-7.6zM22 407.2l4.2 7.6c2.4 4.3 5.9 7.9 10.2 10.2l7.6 4.2-7.6 4.1c-4.3 2.4-7.9 5.9-10.2 10.2l-4.1 7.6-4.2-7.6c-2.4-4.3-5.9-7.9-10.2-10.2L0 429.2l7.6-4.2c4.3-2.4 7.9-5.9 10.2-10.2l4.2-7.6zM746 0l4.2 7.6c2.4 4.3 5.9 7.9 10.2 10.2L768 22l-7.6 4.2c-4.3 2.4-7.9 5.9-10.2 10.2L746 44l-4.2-7.6c-2.4-4.3-5.9-7.9-10.2-10.2L724 22l7.6-4.2c4.3-2.4 7.9-5.9 10.2-10.2L746 0z"/><path class="st2" d="M588.1 517.1c2.8-.3 4.9-2.8 4.6-5.6-.2-1.5-1-2.9-2.2-3.7l-36.7-25-36.7-25c-2.3-1.6-5.5-1-7.1 1.3-.9 1.3-1.1 2.8-.7 4.3l11.9 42.7 11.9 42.8c.8 2.7 3.6 4.3 6.3 3.6 1.5-.4 2.7-1.4 3.3-2.8l5.5-12c1.2-2.6 4.2-3.7 6.8-2.5.8.4 1.5.9 2 1.7l17 23.7c1.6 2.3 4.8 2.8 7.1 1.2l6.5-4.7c2.3-1.7 2.8-4.9 1.2-7.2L572 526.5c-1.7-2.3-1.1-5.5 1.2-7.2.7-.5 1.6-.8 2.4-.9l12.5-1.3z"/><circle class="st2" cx="144.6" cy="242.3" r="12"/><circle class="st2" cx="193.6" cy="242.3" r="12"/><circle class="st2" cx="241.5" cy="242.3" r="12"/><circle class="st0" cx="364.4" cy="169.8" r="7.5"/><circle class="st0" cx="689" cy="684.4" r="7.5"/><path class="st0" d="M763.5 465.3h-43.2c-.1-31.6-24-58.1-55.4-61.5V241.7h-28v352c0 2.2-1.8 4-4 4h-496v28h528V411.9c27.1 3.4 47.4 26.3 47.4 53.6 0 1 0 2.2-.1 3.6-.1 2.2 1.5 4.1 3.7 4.3H763.5c2.2 0 4-1.8 4-4s-1.7-4.1-4-4.1z"/><path class="st4" d="M664.9 403.8V241.7h-28v352c0 2.2-1.8 4-4 4h-496v28h528V411.9h.1l-.1-8.1z"/><path d="M712.4 465.5c0 1 0 2.2-.1 3.6-.1 2.2 1.5 4.1 3.7 4.3H763.6c2.2 0 4-1.8 4-4s-1.8-4-4-4h-43.2c-.1-31.6-23.9-58.1-55.4-61.5v8.1c27 3.3 47.3 26.2 47.4 53.5z" opacity=".4" fill="#a644e5"/><path class="st2" d="M649.5 176.1L630.2 59.6c-.4-2.2-2.4-3.7-4.6-3.3-.7.1-1.4.4-1.9.9l-91.3 75c-1.7 1.4-2 3.9-.6 5.6.4.5 1 1 1.7 1.2l36.4 13.7-21 53h-444c-2.2 0-4 1.8-4 4v384c0 2.2 1.8 4 4 4h528c2.2 0 4-1.8 4-4v-384c0-2.2-1.8-4-4-4h-38.4l15.2-38.1 34.5 12.9c2.1.8 4.4-.3 5.1-2.3.2-.7.3-1.4.2-2.1zm-103.7 37.6l-22.4 56.4H108.9v-56.4h436.9zm-436.9 64.4h411.3l-34.6 87.1-37.1-24.8c-1.8-1.2-4.3-.7-5.5 1.1-.2.3-.4.7-.5 1.1l-28.2 100.5-61.3-37.3c-1.9-1.2-4.3-.6-5.5 1.3-.4.6-.6 1.3-.6 2.1l-1.5 180.5H108.9V278.1zm278.9 311.6l1.4-112.2 46.1 28.1c1.9 1.1 4.3.6 5.5-1.3.2-.3.3-.6.4-1l27.7-98.4 32.6 21.8c1.8 1.2 4.3.7 5.5-1.1.2-.2.3-.5.4-.7l58.3-146.7h63.2v311.6H387.8v-.1zm241.1-376v56.4h-60l22.4-56.4h37.6zm-20.1-55c-2-.8-4.3.2-5.1 2.3L501.8 417.3l-33.1-22.1c-1.8-1.2-4.3-.7-5.5 1.1-.2.3-.4.7-.5 1.1L435 496l-47.6-29c-1.9-1.1-4.3-.6-5.5 1.3-.4.6-.6 1.3-.6 2l-1.5 119.3h-26.3l1.4-173.4 59.6 36.4c1.9 1.2 4.3.6 5.5-1.3.2-.3.3-.7.4-1l28.2-100.2 36.6 24.4c1 .7 2.3.8 3.4.5 1.2-.4 2.1-1.2 2.5-2.4l38.6-97L579 151.9c.8-2.1-.2-4.4-2.2-5.2h-.1L542.9 134l80.5-66.2 17 102.9-31.6-12z"/><g class="st1"><path class="st6" d="M498.2 109.9h-95.3c-2.2 0-4-1.8-4-4v-.3c.1-1.4.1-2.5.1-3.6 0-29.8-24.1-54-53.9-54.1-13.4 0-26.3 4.9-36.3 13.9-1.6 1.5-4.2 1.4-5.6-.3-.4-.4-.7-.9-.9-1.5-12.2-38.7-53.6-60.2-92.5-48-25.7 8.1-45 29.7-50.1 56.2-.4 2.2-2.5 3.6-4.7 3.2-.4-.1-.8-.2-1.2-.5-21.9-12.4-49.6-4.7-62.1 17.1-3.2 5.6-5.1 11.8-5.7 18.2-.2 2.1-1.9 3.6-4 3.6H4.5c-2.2 0-4-1.8-4-4s1.8-4 4-4h74c4.8-29.2 32.3-49 61.5-44.2 4.5.7 8.9 2 13 3.9 11.5-43.7 56.2-69.7 99.9-58.2C278 10 298.4 28.1 308 52.2c27.5-20.4 66.3-14.7 86.7 12.7 7.9 10.7 12.2 23.6 12.3 36.9h91.2c2.2 0 4 1.8 4 4s-1.8 4.1-4 4.1z"/></g><g class="st1"><path class="st6" d="M285 119.5l5.6 10.3c3.2 5.9 8 10.7 13.9 13.9l10.3 5.7-10.3 5.6c-5.9 3.2-10.7 8-13.9 13.9l-5.7 10.4-5.7-10.3c-3.2-5.9-8-10.7-13.9-13.9l-10.3-5.6 10.3-5.7c5.9-3.2 10.7-8 13.9-13.9l5.8-10.4z"/></g><g class="st1"><path class="st6" d="M209.1 71.4l4.2 7.6c2.4 4.3 5.9 7.9 10.2 10.2l7.6 4.2-7.6 4.2c-4.3 2.4-7.9 5.9-10.2 10.2l-4.2 7.6-4.2-7.6c-2.4-4.3-5.9-7.9-10.2-10.2l-7.6-4.2 7.6-4.2c4.3-2.4 7.9-5.9 10.2-10.2l4.2-7.6z"/></g><g class="st1"><path class="st6" d="M542.3 730.4H442.1c-1.7 0-3.2-1.1-3.8-2.7-9.6-27.6-39.7-42.3-67.3-32.7-6.7 2.3-12.8 6-18.1 10.7-1.6 1.5-4.2 1.3-5.6-.3-.4-.4-.7-.9-.8-1.5-12-38-52.7-59.1-90.7-47.1-30 9.5-50.4 37.4-50.4 68.9v.7c0 2.2-1.8 4-4 4h-56.1c-2.2 0-4-1.8-4-4s1.8-4 4-4h52.2c1.8-44.3 39.2-78.7 83.5-76.9 31.6 1.3 59.5 21.1 71.2 50.5 27.1-20 65.2-14.3 85.2 12.8 3.1 4.2 5.6 8.8 7.6 13.6h97.4c2.2 0 4 1.8 4 4s-1.9 4-4.1 4z"/></g><g class="st1"><path class="st6" d="M103.3 729.7H73c-2.2 0-4-1.8-4-4s1.8-4 4-4h30.3c2.2 0 4 1.8 4 4s-1.8 4-4 4z"/></g><g class="st1"><path class="st6" d="M746 724l4.2 7.6c2.4 4.3 5.9 7.9 10.2 10.2l7.6 4.2-7.6 4.2c-4.3 2.4-7.9 5.9-10.2 10.2L746 768l-4.2-7.6c-2.4-4.3-5.9-7.9-10.2-10.2L724 746l7.6-4.2c4.3-2.4 7.9-5.9 10.2-10.2l4.2-7.6z"/></g><g class="st1"><path class="st6" d="M22 407.2l4.2 7.6c2.4 4.3 5.9 7.9 10.2 10.2l7.6 4.2-7.6 4.1c-4.3 2.4-7.9 5.9-10.2 10.2l-4.1 7.6-4.2-7.6c-2.4-4.3-5.9-7.9-10.2-10.2L0 429.2l7.6-4.2c4.3-2.4 7.9-5.9 10.2-10.2l4.2-7.6z"/></g><g class="st1"><path class="st6" d="M746 0l4.2 7.6c2.4 4.3 5.9 7.9 10.2 10.2L768 22l-7.6 4.2c-4.3 2.4-7.9 5.9-10.2 10.2L746 44l-4.2-7.6c-2.4-4.3-5.9-7.9-10.2-10.2L724 22l7.6-4.2c4.3-2.4 7.9-5.9 10.2-10.2L746 0z"/></g><g class="st1"><circle class="st6" cx="364.4" cy="169.8" r="7.5"/></g><g class="st1"><circle class="st6" cx="689" cy="684.4" r="7.5"/></g></g></g></svg>