<svg id="Layer_1" xmlns="http://www.w3.org/2000/svg" viewBox="0 0 768 768"><style>.st0{fill:#fff}.st1{opacity:.4}.st2{fill:#0073ec}.st3{fill:#a644e5}.st4{opacity:.4;fill:#0073ec;enable-background:new}</style><path class="st0" d="M9 307.8v-98c0-5 4-9 9-9h388.8c5 0 9 4 9 9v98c0 5-4 9-9 9H18c-5 0-9-4-9-9zM34 324.9h357v21.4H34zM9 461.4v-98c0-5 4-9 9-9h388.8c5 0 9 4 9 9v98c0 5-4 9-9 9H18c-5 0-9-4.1-9-9zM34 478.4h357v21.4H34z"/><path class="st0" d="M733.9 334.5C718.3 390 695.5 440.6 666.2 485c-35.5 53.9-82.2 99.5-136.9 133.8-39.7-24.7-75.3-55.5-105.4-91.3V517c0-9.4-7.6-17-17-17h-8v-21.5h7.9c9.4 0 17-7.6 17-17v-98c0-9.4-7.6-17-17-17h-7.9V325h7.9c9.4 0 17-7.6 17-17v-98c0-9.4-7.6-17-17-17H306c-.3-12.3 0-21.2.1-25.9h32.2c27.2-1.2 67.5-5.7 105.4-19.8 41.6-15.6 71.2-39.3 88.1-70.6 16.9 30.9 46.4 54.4 87.7 69.8 37.9 14.2 78.2 18.6 105.4 19.8H757c.3 16.4.1 85.5-23.1 168.2z"/><path class="st0" d="M18 627.9h46.1c18.6-28.7 57-37 85.7-18.4 1.1.7 2.2 1.5 3.3 2.3 16.6-42 64.2-62.5 106.1-45.9 24.2 9.6 42.3 30.1 48.9 55.2 18.1-8 39.2-5.4 54.8 6.7h43.8c7.2 0 13-5.8 13-13v-98c0-7.2-5.8-13-13-13H18c-7.2 0-13 5.8-13 13v98c0 7.3 5.8 13.1 13 13.1zM182.6 678.7l4.2 7.6c2.4 4.3 5.9 7.9 10.2 10.2l7.6 4.2-7.6 4.2c-4.3 2.4-7.9 5.9-10.2 10.2l-4.2 7.6-4.2-7.6c-2.4-4.3-5.9-7.9-10.2-10.2l-7.6-4.2 7.6-4.2c4.3-2.4 7.9-5.9 10.2-10.2l4.2-7.6zM340 0l4.2 7.6c2.4 4.3 5.9 7.9 10.2 10.2L362 22l-7.6 4.2c-4.3 2.4-7.9 5.9-10.2 10.2L340 44l-4.2-7.6c-2.4-4.3-5.9-7.9-10.2-10.2L318 22l7.6-4.2c4.3-2.4 7.8-5.9 10.2-10.2L340 0z"/><circle class="st0" cx="402" cy="71.9" r="7.5"/><circle class="st0" cx="705.4" cy="668.7" r="7.5"/><path class="st0" d="M633.5 708.2l5.7 10.3c3.2 5.9 8 10.7 13.9 13.9l10.3 5.7-10.3 5.7c-5.9 3.2-10.7 8-13.9 13.9l-5.6 10.3-5.7-10.3c-3.2-5.9-8-10.7-13.9-13.9l-10.3-5.7 10.3-5.7c5.9-3.2 10.7-8 13.9-13.9l5.6-10.3z"/><g class="st1"><path class="st2" d="M531.3 127.6c.1.2.2.5.3.7l.1-.1-.4-.6zM710.6 202.2h-28c-42.9-1.9-122.8-13.9-151-73.9-21.5 46.7-74.2 64.5-117 71.1 3.3 2.5 5.2 6.3 5.2 10.4v98c0 7.2-5.8 13-13 13h-11.9v29.4h11.9c7.2 0 13 5.8 13 13v92.2c28.1 43.3 65.5 79.8 109.6 106.9l-.3.6C723 443.2 710.6 202.2 710.6 202.2z"/></g><path class="st0" d="M539.2 266.2l13.2 40.6c.7 2.2 2.7 3.6 5 3.6h42.7c2.9 0 5.3 2.3 5.3 5.3 0 1.7-.8 3.3-2.2 4.3l-34.5 25.1c-1.9 1.3-2.6 3.7-1.9 5.9l13.2 40.6c.9 2.8-.6 5.8-3.4 6.6-1.6.5-3.4.2-4.7-.7l-34.5-25.1c-1.9-1.3-4.4-1.3-6.2 0l-34.5 25.1c-2.4 1.7-5.7 1.2-7.4-1.2-1-1.4-1.3-3.1-.7-4.7l13.1-40.6c.7-2.2-.1-4.6-1.9-5.9L465.2 320c-2.4-1.7-2.9-5-1.2-7.4 1-1.4 2.6-2.2 4.3-2.2H511c2.3 0 4.3-1.5 5-3.6l13.2-40.6c.9-2.8 3.9-4.3 6.7-3.3 1.5.5 2.8 1.7 3.3 3.3z"/><path class="st2" d="M57.6 284.4c-2.2 0-4-1.8-4-4v-40.1c0-2.2 1.8-4 4-4s4 1.8 4 4v40.2c0 2.1-1.8 3.9-4 3.9zM90.2 284.4c-2.2 0-4-1.8-4-4v-40.1c0-2.2 1.8-4 4-4s4 1.8 4 4v40.2c0 2.1-1.8 3.9-4 3.9zM122.8 284.4c-2.2 0-4-1.8-4-4v-40.1c0-2.2 1.8-4 4-4s4 1.8 4 4v40.2c0 2.1-1.8 3.9-4 3.9zM155.4 284.4c-2.2 0-4-1.8-4-4v-40.1c0-2.2 1.8-4 4-4s4 1.8 4 4v40.2c0 2.1-1.8 3.9-4 3.9zM188 284.4c-2.2 0-4-1.8-4-4v-40.1c0-2.2 1.8-4 4-4s4 1.8 4 4v40.2c0 2.1-1.8 3.9-4 3.9z"/><circle class="st2" cx="358.6" cy="240.2" r="11.9"/><g class="st1"><circle class="st2" cx="358.6" cy="279.9" r="11.9"/></g><path class="st2" d="M57.6 437.9c-2.2 0-4-1.8-4-4v-40.2c0-2.2 1.8-4 4-4s4 1.8 4 4v40.1c0 2.3-1.8 4.1-4 4.1zM90.2 437.9c-2.2 0-4-1.8-4-4v-40.2c0-2.2 1.8-4 4-4s4 1.8 4 4v40.1c0 2.3-1.8 4.1-4 4.1zM122.8 437.9c-2.2 0-4-1.8-4-4v-40.2c0-2.2 1.8-4 4-4s4 1.8 4 4v40.1c0 2.3-1.8 4.1-4 4.1zM155.4 437.9c-2.2 0-4-1.8-4-4v-40.2c0-2.2 1.8-4 4-4s4 1.8 4 4v40.1c0 2.3-1.8 4.1-4 4.1zM188 437.9c-2.2 0-4-1.8-4-4v-40.2c0-2.2 1.8-4 4-4s4 1.8 4 4v40.1c0 2.3-1.8 4.1-4 4.1z"/><circle class="st2" cx="358.6" cy="393.8" r="11.9"/><g class="st1"><circle class="st2" cx="358.6" cy="433.4" r="11.9"/></g><path class="st2" d="M764.8 161.9c-.1-2.1-1.9-3.8-4-3.8h-35.7C596.4 152.2 551.3 99 535.7 66.6c-.1-.5-.3-1-.6-1.4l-.5-.7c-1.2-1.8-3.7-2.4-5.5-1.2-1.3.9-2 2.5-1.7 4.1-15.6 32.4-60.6 85.6-189.4 91.4h-35.7c-2.1 0-3.9 1.6-4 3.7 0 .5-.8 11.4-.4 30.2H18c-9.4 0-17 7.6-17 17v98c0 9.4 7.6 17 17 17h8v21.4h-8c-9.4 0-17 7.6-17 17v98c0 9.4 7.6 17 17 17h8v21.4h-8c-9.4 0-17 7.6-17 17v98c0 9.4 7.6 17 17 17h48c2.2 0 4-1.8 4-4s-1.8-4-4-4H18c-5 0-9-4-9-9v-98c0-5 4-9 9-9h388.8c5 0 9 4 9 9v98c0 5-4 9-9 9h-48.2c-2.2 0-4 1.8-4 4s1.8 4 4 4h48.2c9.4 0 17-7.6 17-17v-74.9c29.2 33.3 63.2 62.2 100.8 85.6.1.3.2.5.4.8.7 1.2 2 1.9 3.4 1.9.7 0 1.5-.2 2.1-.6 56.9-35.1 105.5-82.2 142.3-138 29.8-45 52.9-96.4 68.8-152.7 26.9-95.8 23.3-174 23.2-174.7zM9 307.8v-98c0-5 4-9 9-9h388.8c5 0 9 4 9 9v98c0 5-4 9-9 9H18c-5 0-9-4-9-9zm25 17h357v21.4H34v-21.4zM9 461.4v-98c0-5 4-9 9-9h388.8c5 0 9 4 9 9v98c0 5-4 9-9 9H18c-5 0-9-4.1-9-9zm25 38.4v-21.4h357v21.4H34zm700-165.3C718.3 390 695.5 440.6 666.2 485c-35.5 53.9-82.2 99.5-136.9 133.8-39.7-24.7-75.3-55.5-105.4-91.3V517c0-9.4-7.6-17-17-17h-8v-21.5h7.9c9.4 0 17-7.6 17-17v-98c0-9.4-7.6-17-17-17h-7.9V325h7.9c9.4 0 17-7.6 17-17v-98c0-9.4-7.6-17-17-17H306c-.3-12.3 0-21.2.1-25.9h32.2c27.2-1.2 67.5-5.7 105.4-19.8 41.6-15.6 71.2-39.3 88.1-70.6 16.9 30.9 46.4 54.4 87.7 69.8 37.9 14.2 78.2 18.6 105.4 19.8H757c.3 16.4.1 85.5-23 168.2z"/><path class="st2" d="M57.6 591.4c-2.2 0-4-1.8-4-4v-40.1c0-2.2 1.8-4 4-4s4 1.8 4 4v40.2c0 2.1-1.8 3.9-4 3.9zM90.2 591.4c-2.2 0-4-1.8-4-4v-40.1c0-2.2 1.8-4 4-4s4 1.8 4 4v40.2c0 2.1-1.8 3.9-4 3.9zM122.8 591.4c-2.2 0-4-1.8-4-4v-40.1c0-2.2 1.8-4 4-4s4 1.8 4 4v40.2c0 2.1-1.8 3.9-4 3.9zM155.4 591.4c-2.2 0-4-1.8-4-4v-40.1c0-2.2 1.8-4 4-4s4 1.8 4 4v40.2c0 2.1-1.8 3.9-4 3.9zM188 578.4c-2.2 0-4-1.8-4-4v-27.1c0-2.2 1.8-4 4-4s4 1.8 4 4v27.2c0 2.1-1.8 3.9-4 3.9z"/><circle class="st2" cx="358.6" cy="547.3" r="11.9"/><g class="st1"><circle class="st2" cx="358.6" cy="586.9" r="11.9"/></g><path class="st0" d="M169.3 122.1h-52c-2.1 0-3.8-1.6-4-3.6C111 93.4 88.8 75 63.8 77.4c-6.4.6-12.7 2.6-18.3 5.8-1.1.6-2.5.7-3.7.2-1.2-.5-2-1.6-2.2-2.9-4.2-21.6-17.7-40-36.8-50.6-1.9-1.1-2.6-3.6-1.5-5.5s3.4-2.5 5.3-1.5c19.6 10.8 34 29.2 39.6 50.8 27-12 58.7.2 70.7 27.3 1.8 4.2 3.2 8.6 3.9 13.1h48.5c2.2 0 4 1.8 4 4s-1.8 4-4 4z"/><g class="st1"><path class="st3" d="M182.6 678.7l4.2 7.6c2.4 4.3 5.9 7.9 10.2 10.2l7.6 4.2-7.6 4.2c-4.3 2.4-7.9 5.9-10.2 10.2l-4.2 7.6-4.2-7.6c-2.4-4.3-5.9-7.9-10.2-10.2l-7.6-4.2 7.6-4.2c4.3-2.4 7.9-5.9 10.2-10.2l4.2-7.6zM340 0l4.2 7.6c2.4 4.3 5.9 7.9 10.2 10.2L362 22l-7.6 4.2c-4.3 2.4-7.9 5.9-10.2 10.2L340 44l-4.2-7.6c-2.4-4.3-5.9-7.9-10.2-10.2L318 22l7.6-4.2c4.3-2.4 7.8-5.9 10.2-10.2L340 0z"/><circle class="st3" cx="402" cy="71.9" r="7.5"/><circle class="st3" cx="705.4" cy="668.7" r="7.5"/><path class="st3" d="M633.5 708.2l5.7 10.3c3.2 5.9 8 10.7 13.9 13.9l10.3 5.7-10.3 5.7c-5.9 3.2-10.7 8-13.9 13.9l-5.6 10.3-5.7-10.3c-3.2-5.9-8-10.7-13.9-13.9l-10.3-5.7 10.3-5.7c5.9-3.2 10.7-8 13.9-13.9l5.6-10.3z"/></g><g class="st1"><path class="st3" d="M169.3 122.1h-52c-2.1 0-3.8-1.6-4-3.6C111 93.4 88.8 75 63.8 77.4c-6.4.6-12.7 2.6-18.3 5.8-1.1.6-2.5.7-3.7.2-1.2-.5-2-1.6-2.2-2.9-4.2-21.6-17.7-40-36.8-50.6-1.9-1.1-2.6-3.6-1.5-5.5s3.4-2.5 5.3-1.5c19.6 10.8 34 29.2 39.6 50.8 27-12 58.7.2 70.7 27.3 1.8 4.2 3.2 8.6 3.9 13.1h48.5c2.2 0 4 1.8 4 4s-1.8 4-4 4z"/></g><path class="st0" d="M461.3 669.5h-82c-2.1 0-3.8-1.6-4-3.6-2.3-25-24.5-43.4-49.6-41.1-6.4.6-12.6 2.6-18.2 5.7-1.9 1.1-4.4.4-5.5-1.5-.2-.4-.4-.8-.5-1.2-7.8-40-46.5-66.1-86.5-58.2-26.5 5.2-48 24.4-56.2 50.1-.7 2.1-2.9 3.3-5 2.6-.5-.2-1-.5-1.5-.8-22.1-20-56.3-18.3-76.3 3.8-9 10-14 22.9-13.9 36.3 0 1.1 0 2.2.1 3.6.1 2.2-1.5 4.1-3.7 4.3H6.9c-2.2 0-4-1.8-4-4s1.8-4 4-4h47.2c0-34.2 27.8-62 62.1-61.9 13.3 0 26.3 4.3 36.9 12.3 16.6-42 64.2-62.5 106.1-45.9 24.2 9.6 42.3 30.1 48.9 55.2 27-12 58.6.2 70.6 27.2 1.9 4.2 3.2 8.6 3.9 13.1h78.5c2.2 0 4 1.8 4 4s-1.6 4-3.8 4z"/><g class="st1"><path class="st3" d="M461.3 669.5h-82c-2.1 0-3.8-1.6-4-3.6-2.3-25-24.5-43.4-49.6-41.1-6.4.6-12.6 2.6-18.2 5.7-1.9 1.1-4.4.4-5.5-1.5-.2-.4-.4-.8-.5-1.2-7.8-40-46.5-66.1-86.5-58.2-26.5 5.2-48 24.4-56.2 50.1-.7 2.1-2.9 3.3-5 2.6-.5-.2-1-.5-1.5-.8-22.1-20-56.3-18.3-76.3 3.8-9 10-14 22.9-13.9 36.3 0 1.1 0 2.2.1 3.6.1 2.2-1.5 4.1-3.7 4.3H6.9c-2.2 0-4-1.8-4-4s1.8-4 4-4h47.2c0-34.2 27.8-62 62.1-61.9 13.3 0 26.3 4.3 36.9 12.3 16.6-42 64.2-62.5 106.1-45.9 24.2 9.6 42.3 30.1 48.9 55.2 27-12 58.6.2 70.6 27.2 1.9 4.2 3.2 8.6 3.9 13.1h78.5c2.2 0 4 1.8 4 4s-1.6 4-3.8 4z"/></g><path class="st4" d="M34 324.9h357v21.4H34zM34 478.4h357v21.4H34z"/></svg>