<svg id="Layer_1" xmlns="http://www.w3.org/2000/svg" viewBox="0 0 768 768"><style>.st0{fill:#fff}.st2,.st3{opacity:.4}.st3{enable-background:new}.st3,.st4{fill:#a644e5}.st5{fill:#0073ec}</style><path class="st0" d="M193.1 646.3c0 9.4-7.6 17-17 17s-17-7.6-17-17 7.6-17 17-17 17 7.6 17 17zM401 646.3c0 9.4-7.6 17-17 17s-17-7.6-17-17 7.6-17 17-17 17 7.6 17 17zM609 646.3c0 9.4-7.6 17-17 17s-17-7.6-17-17 7.6-17 17-17 17 7.6 17 17zM177.8 495.4c-33.4-14.5-55-48-55-85.4-.1-24.1 9.1-47.3 25.7-64.8 16.2-17.2 38.6-27.2 62.2-27.8 2.2 0 4-1.9 3.9-4.1 0-.4-.1-.8-.2-1.1-3.6-11.2-5.4-22.9-5.4-34.7 0-61.6 48.7-111.8 108.5-111.8 49.2 0 92.4 34.2 104.9 83.2.6 2.1 2.7 3.4 4.9 2.9.6-.2 1.2-.5 1.7-.9 14.9-14 34.5-21.8 54.9-21.9 45.2 0 81.9 37.9 81.9 84.4 0 .4 0 .8-.1 1.2s-.1.9-.1 1.3c-.1 1.9 1.2 3.6 3 4 19.6 4.9 37 16.3 49.3 32.2 12.9 16.5 19.8 36.9 19.7 57.9 0 37.8-21.9 71.4-55.8 85.7-.7.3-1.2.7-1.7 1.3h-47.2c7-3.9 13.2-9.1 18.4-15.2 10.5-12.5 16.3-28.4 16.3-44.8 0-30.6-19.5-57.1-47.9-65.5-.7-34.1-27.9-61.5-61.1-61.5-13.1 0-25.8 4.3-36.2 12.3-11-32.3-40.8-54.4-74.5-54.4-43.5 0-78.9 36.4-78.9 81 0 6.8.8 13.6 2.5 20.2-15.6 1.6-30.1 8.8-40.9 20.2-26.3 27.8-25.1 71.7 2.8 98 3.9 3.7 8.3 6.9 12.9 9.6h-67c0-.6-.7-1.2-1.5-1.5z"/><path class="st0" d="M268.5 497c-.5-.4-1.1-.8-1.8-.9-27.1-5.7-46.7-30.5-46.7-59-.1-15.7 5.9-30.8 16.7-42.2 10.5-11.2 25.1-17.7 40.4-18 2.2-.1 4-1.9 3.9-4.1 0-.4-.1-.8-.2-1.1-2.3-7.3-3.5-15-3.5-22.7 0-40.3 31.8-73 70.9-73 32.1 0 60.3 22.3 68.5 54.3.6 2.1 2.7 3.4 4.9 2.9.6-.2 1.2-.5 1.7-.9 9.6-9.1 22.4-14.2 35.6-14.2 29.3 0 53.2 24.6 53.2 54.8V374.6c-.1 1.9 1.2 3.5 3 4 26.4 6.5 44.8 30.5 44.8 58.6 0 29.7-21.5 55.3-49.9 59.6-.3.1-.7.2-1 .3l-240.5-.1z"/><path d="M268.5 497c-.5-.4-1.1-.8-1.8-.9-27.1-5.7-46.7-30.5-46.7-59-.1-15.7 5.9-30.8 16.7-42.2 10.5-11.2 25.1-17.7 40.4-18 2.2-.1 4-1.9 3.9-4.1 0-.4-.1-.8-.2-1.1-2.3-7.3-3.5-15-3.5-22.7 0-40.3 31.8-73 70.9-73 32.1 0 60.3 22.3 68.5 54.3.6 2.1 2.7 3.4 4.9 2.9.6-.2 1.2-.5 1.7-.9 9.6-9.1 22.4-14.2 35.6-14.2 29.3 0 53.2 24.6 53.2 54.8V374.6c-.1 1.9 1.2 3.5 3 4 26.4 6.5 44.8 30.5 44.8 58.6 0 29.7-21.5 55.3-49.9 59.6-.3.1-.7.2-1 .3l-240.5-.1z" opacity=".4" fill="#0073ec"/><path class="st0" d="M356.3 392.6h55.4c4.7 0 8.5 3.8 8.5 8.5v55.4c0 4.7-3.8 8.5-8.5 8.5h-55.4c-4.7 0-8.5-3.8-8.5-8.5v-55.4c0-4.7 3.8-8.5 8.5-8.5z"/><path class="st0" d="M683.2 462.4C662 484.5 632.7 497 602.1 497h-4.8c30-17.8 48.8-50.7 48.8-87 .1-22.7-7.4-44.8-21.4-62.8a98.593 98.593 0 0 0-50.6-34.3c-.2-50.8-40.5-92-89.9-92-20.2 0-39.8 7-55.5 19.8-15.4-49.2-60.1-83-110.9-83-64.3 0-116.5 53.8-116.5 119.8 0 10.9 1.4 21.7 4.3 32.1-23.9 1.9-46.2 12.6-62.6 30-18 19-28 44.2-27.9 70.3 0 36.3 18.8 69.2 48.8 87h-.4c-30.6 0-60-12.5-81.2-34.6-44.7-46.5-45-119.9-.8-166.8 20.7-22 49.3-34.8 79.5-35.5 4.4-.1 7.9-3.8 7.8-8.2 0-.7-.1-1.5-.4-2.2-4.6-14.4-6.9-29.4-6.9-44.6-.2-37.9 14.5-74.4 40.9-101.6 26.3-27.1 61.3-42 98.4-42 63.1 0 118.5 43.9 134.7 106.8.7 2.7 2.8 4.9 5.5 5.7.7.2 1.5.3 2.2.3 2 0 4-.8 5.5-2.1 18.9-17.9 44-27.8 70-27.9 57.6 0 104.5 48.3 104.5 107.8 0 .4 0 .9-.1 1.4s-.1 1.1-.1 1.8c-.1 3.8 2.4 7.1 6.1 8 25 6.3 47.3 20.8 63.1 41.2 36.2 47.6 32.6 114.7-9 158zM25 1.3L29.1 9c2.4 4.3 5.9 7.8 10.2 10.2l7.7 4.2-7.6 4.2c-4.3 2.4-7.9 5.9-10.3 10.2L25 45.3l-4.2-7.6c-2.4-4.3-5.9-7.9-10.3-10.2L3 23.3l7.6-4.2c4.3-2.4 7.8-5.9 10.2-10.2L25 1.3zM682 690.3l4.2 7.6c2.4 4.3 5.9 7.9 10.2 10.2l7.6 4.2-7.6 4.2c-4.3 2.4-7.9 5.9-10.2 10.2l-4.2 7.6-4.2-7.6c-2.4-4.3-5.9-7.9-10.2-10.2l-7.6-4.2 7.6-4.2c4.3-2.4 7.8-5.9 10.2-10.2l4.2-7.6z"/><circle class="st0" cx="87" cy="73.3" r="7.5"/><path class="st0" d="M761.2 84.6h-96.9c-1.7 0-3.2-1.1-3.8-2.7-9.2-26.7-38.3-40.8-65-31.6-6.5 2.2-12.4 5.8-17.5 10.3-1.6 1.5-4.2 1.4-5.6-.3-.4-.4-.7-.9-.9-1.5-11.6-36.7-50.9-57.1-87.6-45.4-29 9.2-48.7 36.1-48.7 66.5V80.5c0 2.2-1.8 4-4 4h-54.3c-2.2 0-4-1.8-4-4s1.8-4 4-4h50.4c1.8-42.9 38.1-76.2 81.1-74.4 30.6 1.3 57.5 20.4 68.9 48.8 26.3-19.3 63.3-13.7 82.6 12.6 2.9 4 5.4 8.4 7.2 13h94.2c2.2 0 4 1.8 4 4s-1.9 4.1-4.1 4.1zM524.4 766.5h-82c-2.1 0-3.8-1.6-4-3.6-2.3-25-24.5-43.4-49.6-41.1-6.4.6-12.6 2.6-18.2 5.7-1.9 1.1-4.4.4-5.5-1.5-.2-.4-.4-.8-.4-1.2-7.8-40-46.5-66.1-86.5-58.3-26.5 5.2-48.1 24.4-56.2 50.2-.7 2.1-2.9 3.3-5 2.6-.5-.2-1-.5-1.5-.8-22.1-20-56.3-18.3-76.3 3.8-9 10-14 22.9-13.9 36.3 0 1.1 0 2.2.1 3.6.1 2.2-1.5 4.1-3.7 4.3H70.1c-2.2 0-4-1.8-4-4s1.8-4 4-4h47.2c0-34.2 27.8-62 62.1-61.9 13.3 0 26.3 4.3 36.9 12.3 16.6-42 64.2-62.5 106.1-45.9 24.2 9.6 42.3 30.1 48.9 55.2 27-12 58.6.2 70.6 27.2 1.9 4.2 3.2 8.6 3.9 13.1h78.5c2.2 0 4 1.8 4 4s-1.7 4-3.9 4z"/><g class="st2"><path class="st0" d="M524.4 766.5h-82c-2.1 0-3.8-1.6-4-3.6-2.3-25-24.5-43.4-49.6-41.1-6.4.6-12.6 2.6-18.2 5.7-1.9 1.1-4.4.4-5.5-1.5-.2-.4-.4-.8-.4-1.2-7.8-40-46.5-66.1-86.5-58.3-26.5 5.2-48.1 24.4-56.2 50.2-.7 2.1-2.9 3.3-5 2.6-.5-.2-1-.5-1.5-.8-22.1-20-56.3-18.3-76.3 3.8-9 10-14 22.9-13.9 36.3 0 1.1 0 2.2.1 3.6.1 2.2-1.5 4.1-3.7 4.3H70.1c-2.2 0-4-1.8-4-4s1.8-4 4-4h47.2c0-34.2 27.8-62 62.1-61.9 13.3 0 26.3 4.3 36.9 12.3 16.6-42 64.2-62.5 106.1-45.9 24.2 9.6 42.3 30.1 48.9 55.2 27-12 58.6.2 70.6 27.2 1.9 4.2 3.2 8.6 3.9 13.1h78.5c2.2 0 4 1.8 4 4s-1.7 4-3.9 4z"/></g><path class="st3" d="M25 1.3L29.1 9c2.4 4.3 5.9 7.8 10.2 10.2l7.7 4.2-7.6 4.2c-4.3 2.4-7.9 5.9-10.3 10.2L25 45.3l-4.2-7.6c-2.4-4.3-5.9-7.9-10.3-10.2L3 23.3l7.6-4.2c4.3-2.4 7.8-5.9 10.2-10.2L25 1.3zM682 690.3l4.2 7.6c2.4 4.3 5.9 7.9 10.2 10.2l7.6 4.2-7.6 4.2c-4.3 2.4-7.9 5.9-10.2 10.2l-4.2 7.6-4.2-7.6c-2.4-4.3-5.9-7.9-10.2-10.2l-7.6-4.2 7.6-4.2c4.3-2.4 7.8-5.9 10.2-10.2l4.2-7.6z"/><circle class="st3" cx="87" cy="73.3" r="7.5"/><g class="st2"><path class="st4" d="M761.2 84.6h-96.9c-1.7 0-3.2-1.1-3.8-2.7-9.2-26.7-38.3-40.8-65-31.6-6.5 2.2-12.4 5.8-17.5 10.3-1.6 1.5-4.2 1.4-5.6-.3-.4-.4-.7-.9-.9-1.5-11.6-36.7-50.9-57.1-87.6-45.4-29 9.2-48.7 36.1-48.7 66.5V80.5c0 2.2-1.8 4-4 4h-54.3c-2.2 0-4-1.8-4-4s1.8-4 4-4h50.4c1.8-42.9 38.1-76.2 81.1-74.4 30.6 1.3 57.5 20.4 68.9 48.8 26.3-19.3 63.3-13.7 82.6 12.6 2.9 4 5.4 8.4 7.2 13h94.2c2.2 0 4 1.8 4 4s-1.9 4.1-4.1 4.1z"/></g><g class="st2"><path class="st4" d="M524.4 766.5h-82c-2.1 0-3.8-1.6-4-3.6-2.3-25-24.5-43.4-49.6-41.1-6.4.6-12.6 2.6-18.2 5.7-1.9 1.1-4.4.4-5.5-1.5-.2-.4-.4-.8-.4-1.2-7.8-40-46.5-66.1-86.5-58.3-26.5 5.2-48.1 24.4-56.2 50.2-.7 2.1-2.9 3.3-5 2.6-.5-.2-1-.5-1.5-.8-22.1-20-56.3-18.3-76.3 3.8-9 10-14 22.9-13.9 36.3 0 1.1 0 2.2.1 3.6.1 2.2-1.5 4.1-3.7 4.3H70.1c-2.2 0-4-1.8-4-4s1.8-4 4-4h47.2c0-34.2 27.8-62 62.1-61.9 13.3 0 26.3 4.3 36.9 12.3 16.6-42 64.2-62.5 106.1-45.9 24.2 9.6 42.3 30.1 48.9 55.2 27-12 58.6.2 70.6 27.2 1.9 4.2 3.2 8.6 3.9 13.1h78.5c2.2 0 4 1.8 4 4s-1.7 4-3.9 4z"/><g class="st2"><path class="st4" d="M524.4 766.5h-82c-2.1 0-3.8-1.6-4-3.6-2.3-25-24.5-43.4-49.6-41.1-6.4.6-12.6 2.6-18.2 5.7-1.9 1.1-4.4.4-5.5-1.5-.2-.4-.4-.8-.4-1.2-7.8-40-46.5-66.1-86.5-58.3-26.5 5.2-48.1 24.4-56.2 50.2-.7 2.1-2.9 3.3-5 2.6-.5-.2-1-.5-1.5-.8-22.1-20-56.3-18.3-76.3 3.8-9 10-14 22.9-13.9 36.3 0 1.1 0 2.2.1 3.6.1 2.2-1.5 4.1-3.7 4.3H70.1c-2.2 0-4-1.8-4-4s1.8-4 4-4h47.2c0-34.2 27.8-62 62.1-61.9 13.3 0 26.3 4.3 36.9 12.3 16.6-42 64.2-62.5 106.1-45.9 24.2 9.6 42.3 30.1 48.9 55.2 27-12 58.6.2 70.6 27.2 1.9 4.2 3.2 8.6 3.9 13.1h78.5c2.2 0 4 1.8 4 4s-1.7 4-3.9 4z"/></g></g><path class="st5" d="M630.6 255.5c0-1.2.2-2.3.2-3.5 0-63.9-50.4-115.8-112.5-115.8-28 .1-55 10.8-75.4 30.1-16.7-64.9-74.1-112.8-142.4-112.8-81.4 0-147.3 67.9-147.3 151.6 0 15.9 2.4 31.8 7.2 47-66.6 1.5-120.2 57.5-120.2 126.4 0 69.9 55 126.5 122.9 126.5H380v51.2H211.7c-21.9 0-39.6 17.7-39.7 39.6v24.3c0 .5.1.9.2 1.3-13.7 2.1-23 14.8-21 28.5 2.1 13.7 14.8 23 28.5 21 13.7-2.1 23-14.8 21-28.5-1.6-10.8-10.1-19.3-21-21 .2-.4.2-.9.2-1.3v-24.3c0-17.5 14.2-31.6 31.6-31.6H380v56.5c0 .3 0 .5.1.8-13.6 2.2-22.9 15-20.8 28.6 2.2 13.6 15 22.9 28.6 20.8 13.6-2.2 22.9-15 20.8-28.6-1.7-10.7-10.1-19.1-20.8-20.8.1-.3.1-.5.1-.8v-56.5h168.3c17.5 0 31.6 14.2 31.7 31.6v24.3c0 .5.1.9.2 1.3-13.7 2.1-23 14.8-21 28.5 2.1 13.7 14.8 23 28.5 21 13.7-2.1 23-14.8 21-28.5-1.6-10.8-10.1-19.3-21-21 .2-.4.2-.9.2-1.3v-24.3c0-21.9-17.8-39.6-39.6-39.6H388V505h214.1C670 505 725 448.4 725 378.5c0-59.7-40.3-109.7-94.4-123zM193.1 646.3c0 9.4-7.6 17-17 17s-17-7.6-17-17 7.6-17 17-17 17 7.6 17 17zm208 0c0 9.4-7.6 17-17 17s-17-7.6-17-17 7.6-17 17-17c9.3 0 16.9 7.6 17 17zm208 0c0 9.4-7.6 17-17 17s-17-7.6-17-17 7.6-17 17-17c9.3 0 16.9 7.6 17 17zM177.8 495.4c-33.4-14.5-55-48-55-85.4-.1-24.1 9.1-47.3 25.7-64.8 16.2-17.2 38.6-27.2 62.2-27.8 2.2 0 4-1.9 3.9-4.1 0-.4-.1-.8-.2-1.1-3.6-11.2-5.4-22.9-5.4-34.7 0-61.6 48.7-111.8 108.5-111.8 49.2 0 92.4 34.2 104.9 83.2.6 2.1 2.7 3.4 4.9 2.9.6-.2 1.2-.5 1.7-.9 14.9-14 34.5-21.8 54.9-21.9 45.2 0 81.9 37.9 81.9 84.4 0 .4 0 .8-.1 1.2s-.1.9-.1 1.3c-.1 1.9 1.2 3.6 3 4 19.6 4.9 37 16.3 49.3 32.2 12.9 16.5 19.8 36.9 19.7 57.9 0 37.8-21.9 71.4-55.8 85.7-.7.3-1.2.7-1.7 1.3h-47.2c7-3.9 13.2-9.1 18.4-15.2 10.5-12.5 16.3-28.4 16.3-44.8 0-30.6-19.5-57.1-47.9-65.5-.7-34.1-27.9-61.5-61.1-61.5-13.1 0-25.8 4.3-36.2 12.3-11-32.3-40.8-54.4-74.5-54.4-43.5 0-78.9 36.4-78.9 81 0 6.8.8 13.6 2.5 20.2-15.6 1.6-30.1 8.8-40.9 20.2-26.3 27.8-25.1 71.7 2.8 98 3.9 3.7 8.3 6.9 12.9 9.6h-67c0-.6-.7-1.2-1.5-1.5zm90.7 1.6c-.5-.4-1.1-.8-1.8-.9-27.1-5.7-46.7-30.5-46.7-59-.1-15.7 5.9-30.8 16.7-42.2 10.5-11.2 25.1-17.7 40.4-18 2.2-.1 4-1.9 3.9-4.1 0-.4-.1-.8-.2-1.1-2.3-7.3-3.5-15-3.5-22.7 0-40.3 31.8-73 70.9-73 32.1 0 60.3 22.3 68.5 54.3.6 2.1 2.7 3.4 4.9 2.9.6-.2 1.2-.5 1.7-.9 9.6-9.1 22.4-14.2 35.6-14.2 29.3 0 53.2 24.6 53.2 54.8V374.6c-.1 1.9 1.2 3.5 3 4 26.4 6.5 44.8 30.5 44.8 58.6 0 29.7-21.5 55.3-49.9 59.6-.3.1-.7.2-1 .3l-240.5-.1zm414.7-34.6C662 484.5 632.7 497 602.1 497h-4.8c30-17.8 48.8-50.7 48.8-87 .1-22.7-7.4-44.8-21.4-62.8a98.593 98.593 0 0 0-50.6-34.3c-.2-50.8-40.5-92-89.9-92-20.2 0-39.8 7-55.5 19.8-15.4-49.2-60.1-83-110.9-83-64.3 0-116.5 53.8-116.5 119.8 0 10.9 1.4 21.7 4.3 32.1-23.9 1.9-46.2 12.6-62.6 30-18 19-28 44.2-27.9 70.3 0 36.3 18.8 69.2 48.8 87h-.4c-30.6 0-60-12.5-81.2-34.6-44.7-46.5-45-119.9-.8-166.8 20.7-22 49.3-34.8 79.5-35.5 4.4-.1 7.9-3.8 7.8-8.2 0-.7-.1-1.5-.4-2.2-4.6-14.4-6.9-29.4-6.9-44.6-.2-37.9 14.5-74.4 40.9-101.6 26.3-27.1 61.3-42 98.4-42 63.1 0 118.5 43.9 134.7 106.8.7 2.7 2.8 4.9 5.5 5.7.7.2 1.5.3 2.2.3 2 0 4-.8 5.5-2.1 18.9-17.9 44-27.8 70-27.9 57.6 0 104.5 48.3 104.5 107.8 0 .4 0 .9-.1 1.4s-.1 1.1-.1 1.8c-.1 3.8 2.4 7.1 6.1 8 25 6.3 47.3 20.8 63.1 41.2 36.2 47.6 32.6 114.7-9 158z"/><path class="st5" d="M411.7 384.6h-6.2v-8.2c0-11.9-9.6-21.5-21.5-21.5s-21.5 9.6-21.5 21.5v8.2h-6.2c-9.1 0-16.5 7.4-16.5 16.5v55.4c0 9.1 7.4 16.5 16.5 16.5h55.4c9.1 0 16.5-7.4 16.5-16.5v-55.4c0-9.1-7.4-16.5-16.5-16.5zm-41.2-8.3c0-7.5 6-13.5 13.5-13.5s13.5 6 13.5 13.5v8.2h-27v-8.2zm49.7 80.2c0 4.7-3.8 8.5-8.5 8.5h-55.4c-4.7 0-8.5-3.8-8.5-8.5v-55.4c0-4.7 3.8-8.5 8.5-8.5h55.4c4.7 0 8.5 3.8 8.5 8.5v55.4z"/><path class="st5" d="M393.9 421.8c0-5.8-4.7-10.5-10.5-10.5s-10.5 4.7-10.5 10.5c0 3 1.3 5.9 3.6 7.9l-2.9 16.5h19.7l-2.9-16.5c2.2-2 3.5-4.9 3.5-7.9z"/><path class="st3" d="M683.2 462.4C662 484.5 632.7 497 602.1 497h-4.8c30-17.8 48.8-50.7 48.8-87 .1-22.7-7.4-44.8-21.4-62.8a98.593 98.593 0 0 0-50.6-34.3c-.2-50.8-40.5-92-89.9-92-20.2 0-39.8 7-55.5 19.8-15.4-49.2-60.1-83-110.9-83-64.3 0-116.5 53.8-116.5 119.8 0 10.9 1.4 21.7 4.3 32.1-23.9 1.9-46.2 12.6-62.6 30-18 19-28 44.2-27.9 70.3 0 36.3 18.8 69.2 48.8 87h-.4c-30.6 0-60-12.5-81.2-34.6-44.7-46.5-45-119.9-.8-166.8 20.7-22 49.3-34.8 79.5-35.5 4.4-.1 7.9-3.8 7.8-8.2 0-.7-.1-1.5-.4-2.2-4.6-14.4-6.9-29.4-6.9-44.6-.2-37.9 14.5-74.4 40.9-101.6 26.3-27.1 61.3-42 98.4-42 63.1 0 118.5 43.9 134.7 106.8.7 2.7 2.8 4.9 5.5 5.7.7.2 1.5.3 2.2.3 2 0 4-.8 5.5-2.1 18.9-17.9 44-27.8 70-27.9 57.6 0 104.5 48.3 104.5 107.8 0 .4 0 .9-.1 1.4s-.1 1.1-.1 1.8c-.1 3.8 2.4 7.1 6.1 8 25 6.3 47.3 20.8 63.1 41.2 36.2 47.6 32.6 114.7-9 158z"/></svg>