<svg id="Layer_1" xmlns="http://www.w3.org/2000/svg" viewBox="0 0 768 768"><style>.st0{fill:#fff}.st4{fill:#a644e5}.st5{fill:#0073ec}</style><path class="st0" d="M168.2 500c-65.6 0-118.9-54.9-118.9-122.5-.1-31.9 12-62.6 34-85.7 21.4-22.8 51-36 82.2-36.7 2.2 0 4-1.9 3.9-4.1 0-.4-.1-.8-.2-1.1-4.7-14.8-7.1-30.2-7.1-45.8 0-81.4 64.3-147.6 143.3-147.6 65 0 122 45.1 138.5 109.8.6 2.1 2.7 3.4 4.9 2.9.6-.2 1.2-.5 1.7-.9 19.7-18.5 45.7-28.9 72.7-29 59.8 0 108.5 50.1 108.5 111.8 0 .6 0 1.1-.1 1.7s-.1 1.1-.1 1.6c-.1 1.9 1.2 3.5 3 4 25.9 6.5 48.9 21.5 65.3 42.6 31.5 40.9 34.8 97 8.1 141.3-14.8-25.3-35.6-46.5-60.5-62 0-.1 0-.3-.1-.4-9.2-34.1-35.3-60.7-68.4-70-.2-50.8-40.5-92-89.9-92-20.2 0-39.8 7-55.5 19.8-15.4-49.2-60.1-83-110.9-83-64.3 0-116.5 53.8-116.5 119.8 0 10.9 1.4 21.7 4.3 32.1-23.9 1.9-46.2 12.6-62.6 30-18 19-28 44.2-27.9 70.3 0 41.9 25.1 78 60.7 93h-12.4z"/><path class="st0" d="M219.5 500c-.5-.3-1.1-.4-1.8-.4-49.6 0-89.9-41.5-89.9-92.6-.1-24.1 9.1-47.3 25.7-64.8 16.2-17.2 38.6-27.2 62.2-27.8 2.2 0 4-1.9 3.9-4.1 0-.4-.1-.8-.2-1.1-3.6-11.2-5.4-22.9-5.4-34.7 0-61.6 48.7-111.8 108.5-111.8 49.2 0 92.4 34.2 104.9 83.2.6 2.1 2.7 3.4 4.9 2.9.6-.2 1.2-.5 1.7-.9 14.9-14 34.5-21.8 54.9-21.9 45.2 0 81.9 37.9 81.9 84.4 0 .4 0 .8-.1 1.2s-.1.9-.1 1.3c-.1 1.9 1.2 3.6 3 4 29.2 7.2 52.9 28.9 63.3 57.6-35.6-18.9-76.6-25.3-116.3-18.3-9-24.2-31.5-40.2-57-40.2-13.1 0-25.8 4.3-36.2 12.3-11-32.3-40.8-54.4-74.5-54.4-43.5 0-78.9 36.4-78.9 81 0 6.8.8 13.6 2.5 20.2-15.6 1.6-30.1 8.8-40.9 20.2-26.3 27.9-25.1 71.8 2.8 98.2 2.5 2.4 5.2 4.5 8 6.5h-26.9z"/><path class="st0" d="M262.4 500c-.4-.6-1-1.1-1.7-1.4-21.6-9.5-35.6-31.2-35.6-55.5-.1-15.7 5.9-30.8 16.7-42.2 10.5-11.2 25.1-17.7 40.4-18 2.2-.1 4-1.9 3.9-4.1 0-.4-.1-.8-.2-1.1-2.3-7.3-3.5-15-3.5-22.7 0-40.3 31.8-73 70.9-73 32.1 0 60.3 22.3 68.5 54.3.6 2.1 2.7 3.4 4.9 2.9.6-.2 1.2-.5 1.7-.9 9.6-9.1 22.4-14.2 35.6-14.2 21.7 0 41 13.4 49.1 33.8-70 15.8-123.9 71.7-137.3 142.2H262.4z"/><path d="M168.2 500c-65.6 0-118.9-54.9-118.9-122.5-.1-31.9 12-62.6 34-85.7 21.4-22.8 51-36 82.2-36.7 2.2 0 4-1.9 3.9-4.1 0-.4-.1-.8-.2-1.1-4.7-14.8-7.1-30.2-7.1-45.8 0-81.4 64.3-147.6 143.3-147.6 65 0 122 45.1 138.5 109.8.6 2.1 2.7 3.4 4.9 2.9.6-.2 1.2-.5 1.7-.9 19.7-18.5 45.7-28.9 72.7-29 59.8 0 108.5 50.1 108.5 111.8 0 .6 0 1.1-.1 1.7s-.1 1.1-.1 1.6c-.1 1.9 1.2 3.5 3 4 25.9 6.5 48.9 21.5 65.3 42.6 31.5 40.9 34.8 97 8.1 141.3-14.8-25.3-35.6-46.5-60.5-62 0-.1 0-.3-.1-.4-9.2-34.1-35.3-60.7-68.4-70-.2-50.8-40.5-92-89.9-92-20.2 0-39.8 7-55.5 19.8-15.4-49.2-60.1-83-110.9-83-64.3 0-116.5 53.8-116.5 119.8 0 10.9 1.4 21.7 4.3 32.1-23.9 1.9-46.2 12.6-62.6 30-18 19-28 44.2-27.9 70.3 0 41.9 25.1 78 60.7 93h-12.4z" opacity=".4" fill="#a644e5"/><path d="M262.4 500c-.4-.6-1-1.1-1.7-1.4-21.6-9.5-35.6-31.2-35.6-55.5-.1-15.7 5.9-30.8 16.7-42.2 10.5-11.2 25.1-17.7 40.4-18 2.2-.1 4-1.9 3.9-4.1 0-.4-.1-.8-.2-1.1-2.3-7.3-3.5-15-3.5-22.7 0-40.3 31.8-73 70.9-73 32.1 0 60.3 22.3 68.5 54.3.6 2.1 2.7 3.4 4.9 2.9.6-.2 1.2-.5 1.7-.9 9.6-9.1 22.4-14.2 35.6-14.2 21.7 0 41 13.4 49.1 33.8-70 15.8-123.9 71.7-137.3 142.2H262.4z" opacity=".4" fill="#0073ec"/><path class="st0" d="M674.4 655c-67.2 67.2-176.1 67.2-243.2 0s-67.2-176.1 0-243.2 176.1-67.2 243.2 0c32.3 32.3 50.4 76 50.4 121.6.1 45.6-18.1 89.4-50.4 121.6zM181.3 121.1h-62c-1.1-.9-1.8-2.2-2-3.6C115 92.4 92.8 74 67.8 76.4c-6.4.6-12.7 2.6-18.3 5.8-1.1.6-2.5.7-3.7.2-1.2-.5-2-1.6-2.2-2.9-4.2-21.6-17.7-40-36.8-50.6-1.9-1.1-2.6-3.6-1.5-5.5s3.4-2.5 5.3-1.5c19.6 10.8 34 29.2 39.6 50.8 27-12 58.7.2 70.7 27.3 1.8 4.2 3.2 8.6 3.9 13.1h58.5c2.2 0 4 1.8 4 4s-1.8 4-6 4zM696 0l4.2 7.6c2.4 4.3 5.9 7.9 10.2 10.2L718 22l-7.6 4.2c-4.3 2.4-7.9 5.9-10.2 10.2L696 44l-4.2-7.6c-2.4-4.3-5.9-7.9-10.2-10.2L674 22l7.6-4.2c4.3-2.4 7.8-5.9 10.2-10.2L696 0z"/><circle class="st0" cx="758" cy="71.9" r="7.5"/><path class="st0" d="M240.4 707.2l5.7 10.3c3.2 5.9 8 10.7 13.9 13.9l10.3 5.7-10.3 5.7c-5.9 3.2-10.7 8-13.9 13.9l-5.7 10.3-5.6-10.3c-3.2-5.9-8-10.7-13.9-13.9l-10.3-5.7 10.3-5.7c5.9-3.2 10.7-8 13.9-13.9l5.6-10.3zM425.3 661h-36.5c-4.8-29.2-32.3-49-61.4-44.2-4.5.7-8.9 2-13.1 3.9-11.5-43.7-56.2-69.8-99.8-58.3-25.1 6.6-45.6 24.8-55.2 48.9-27.5-20.4-66.3-14.7-86.7 12.7-7.9 10.7-12.2 23.6-12.3 36.9H12.9c-2.2 0-4 1.8-4 4s1.8 4 4 4h51.3c2.2 0 4-1.8 4-4v-.3c-.1-1.4-.1-2.5-.1-3.6 0-29.8 24.1-54 53.9-54.1 13.4 0 26.3 4.9 36.3 13.9 1.6 1.5 4.2 1.3 5.6-.3.4-.4.7-.9.8-1.5 12.3-38.8 53.7-60.4 92.6-48.1 25.7 8.1 45 29.7 50.1 56.2.4 2.2 2.5 3.6 4.7 3.2.4-.1.8-.2 1.2-.5 21.9-12.4 49.7-4.8 62.1 17.1 3.2 5.6 5.1 11.8 5.7 18.2.2 2.1 1.9 3.6 4 3.6h48.5c-2.7-2.3-5.6-4.9-8.3-7.7z"/><g opacity=".4"><path class="st4" d="M181.3 121.1h-62c-1.1-.9-1.8-2.2-2-3.6C115 92.4 92.8 74 67.8 76.4c-6.4.6-12.7 2.6-18.3 5.8-1.1.6-2.5.7-3.7.2-1.2-.5-2-1.6-2.2-2.9-4.2-21.6-17.7-40-36.8-50.6-1.9-1.1-2.6-3.6-1.5-5.5s3.4-2.5 5.3-1.5c19.6 10.8 34 29.2 39.6 50.8 27-12 58.7.2 70.7 27.3 1.8 4.2 3.2 8.6 3.9 13.1h58.5c2.2 0 4 1.8 4 4s-1.8 4-6 4zM696 0l4.2 7.6c2.4 4.3 5.9 7.9 10.2 10.2L718 22l-7.6 4.2c-4.3 2.4-7.9 5.9-10.2 10.2L696 44l-4.2-7.6c-2.4-4.3-5.9-7.9-10.2-10.2L674 22l7.6-4.2c4.3-2.4 7.8-5.9 10.2-10.2L696 0z"/><circle class="st4" cx="758" cy="71.9" r="7.5"/><path class="st4" d="M240.4 707.2l5.7 10.3c3.2 5.9 8 10.7 13.9 13.9l10.3 5.7-10.3 5.7c-5.9 3.2-10.7 8-13.9 13.9l-5.7 10.3-5.6-10.3c-3.2-5.9-8-10.7-13.9-13.9l-10.3-5.7 10.3-5.7c5.9-3.2 10.7-8 13.9-13.9l5.6-10.3zM425.3 661h-36.5c-4.8-29.2-32.3-49-61.4-44.2-4.5.7-8.9 2-13.1 3.9-11.5-43.7-56.2-69.8-99.8-58.3-25.1 6.6-45.6 24.8-55.2 48.9-27.5-20.4-66.3-14.7-86.7 12.7-7.9 10.7-12.2 23.6-12.3 36.9H12.9c-2.2 0-4 1.8-4 4s1.8 4 4 4h51.3c2.2 0 4-1.8 4-4v-.3c-.1-1.4-.1-2.5-.1-3.6 0-29.8 24.1-54 53.9-54.1 13.4 0 26.3 4.9 36.3 13.9 1.6 1.5 4.2 1.3 5.6-.3.4-.4.7-.9.8-1.5 12.3-38.8 53.7-60.4 92.6-48.1 25.7 8.1 45 29.7 50.1 56.2.4 2.2 2.5 3.6 4.7 3.2.4-.1.8-.2 1.2-.5 21.9-12.4 49.7-4.8 62.1 17.1 3.2 5.6 5.1 11.8 5.7 18.2.2 2.1 1.9 3.6 4 3.6h48.5c-2.7-2.3-5.6-4.9-8.3-7.7z"/></g><path class="st5" d="M734 377.5c.2-29.5-9.6-58.1-27.7-81.4-16.8-21.6-40.1-37.3-66.5-44.7v-.4c0-66-52.3-119.8-116.5-119.8-26.8 0-52.8 9.5-73.3 26.8-19.4-64.7-78-109.4-144.5-109.4-83.4 0-151.3 69.8-151.3 155.6 0 14.6 2 29.1 5.9 43.2-31.5 2.1-61 16-82.7 38.9C54 310.9 41 343.6 41.2 377.5c0 72 56.9 130.5 126.9 130.5h206.3c-13.9 98.4 54.5 189.5 153 203.5 98.4 13.9 189.5-54.5 203.5-153 1.2-8.3 1.8-16.7 1.8-25.1 0-28.9-6.9-57.5-20.3-83.1 14.2-21.7 21.7-46.9 21.6-72.8zM168.2 500c-65.6 0-118.9-54.9-118.9-122.5-.1-31.9 12-62.6 34-85.7 21.4-22.8 51-36 82.2-36.7 2.2 0 4-1.9 3.9-4.1 0-.4-.1-.8-.2-1.1-4.7-14.8-7.1-30.2-7.1-45.8 0-81.4 64.3-147.6 143.3-147.6 65 0 122 45.1 138.5 109.8.6 2.1 2.7 3.4 4.9 2.9.6-.2 1.2-.5 1.7-.9 19.7-18.5 45.7-28.9 72.7-29 59.8 0 108.5 50.1 108.5 111.8 0 .6 0 1.1-.1 1.7s-.1 1.1-.1 1.6c-.1 1.9 1.2 3.5 3 4 25.9 6.5 48.9 21.5 65.3 42.6 31.5 40.9 34.8 97 8.1 141.3-14.8-25.3-35.6-46.5-60.5-62 0-.1 0-.3-.1-.4-9.2-34.1-35.3-60.7-68.4-70-.2-50.8-40.5-92-89.9-92-20.2 0-39.8 7-55.5 19.8-15.4-49.2-60.1-83-110.9-83-64.3 0-116.5 53.8-116.5 119.8 0 10.9 1.4 21.7 4.3 32.1-23.9 1.9-46.2 12.6-62.6 30-18 19-28 44.2-27.9 70.3 0 41.9 25.1 78 60.7 93h-12.4zm51.3 0c-.5-.3-1.1-.4-1.8-.4-49.6 0-89.9-41.5-89.9-92.6-.1-24.1 9.1-47.3 25.7-64.8 16.2-17.2 38.6-27.2 62.2-27.8 2.2 0 4-1.9 3.9-4.1 0-.4-.1-.8-.2-1.1-3.6-11.2-5.4-22.9-5.4-34.7 0-61.6 48.7-111.8 108.5-111.8 49.2 0 92.4 34.2 104.9 83.2.6 2.1 2.7 3.4 4.9 2.9.6-.2 1.2-.5 1.7-.9 14.9-14 34.5-21.8 54.9-21.9 45.2 0 81.9 37.9 81.9 84.4 0 .4 0 .8-.1 1.2s-.1.9-.1 1.3c-.1 1.9 1.2 3.6 3 4 29.2 7.2 52.9 28.9 63.3 57.6-35.6-18.9-76.6-25.3-116.3-18.3-9-24.2-31.5-40.2-57-40.2-13.1 0-25.8 4.3-36.2 12.3-11-32.3-40.8-54.4-74.5-54.4-43.5 0-78.9 36.4-78.9 81 0 6.8.8 13.6 2.5 20.2-15.6 1.6-30.1 8.8-40.9 20.2-26.3 27.9-25.1 71.8 2.8 98.2 2.5 2.4 5.2 4.5 8 6.5h-26.9zm42.8 0c-.4-.6-1-1.1-1.7-1.4-21.6-9.5-35.6-31.2-35.6-55.5-.1-15.7 5.9-30.8 16.7-42.2 10.5-11.2 25.1-17.7 40.4-18 2.2-.1 4-1.9 3.9-4.1 0-.4-.1-.8-.2-1.1-2.3-7.3-3.5-15-3.5-22.7 0-40.3 31.8-73 70.9-73 32.1 0 60.3 22.3 68.5 54.3.6 2.1 2.7 3.4 4.9 2.9.6-.2 1.2-.5 1.7-.9 9.6-9.1 22.4-14.2 35.6-14.2 21.7 0 41 13.4 49.1 33.8-70 15.8-123.9 71.7-137.3 142.2H262.3zm412 155c-67.2 67.2-176.1 67.2-243.2 0s-67.2-176.1 0-243.2 176.1-67.2 243.2 0c32.3 32.3 50.4 76 50.4 121.6.2 45.6-18 89.4-50.4 121.6z"/><path class="st5" d="M543.3 653h-.2c-6.9-.3-13.7-1.3-20.4-2.8-2.2-.5-3.5-2.6-3-4.8.5-2.2 2.6-3.5 4.8-3 6.2 1.4 12.6 2.3 19 2.6 2.2.1 4 1.9 3.9 4.1-.1 2.2-1.9 4-4.1 3.9zm19.9-.7c-2.2.1-4.1-1.6-4.2-3.8s1.6-4.1 3.8-4.2c6.4-.8 12.6-2.1 18.8-4 2.1-.7 4.4.5 5 2.6s-.5 4.4-2.6 5c-6.6 2-13.3 3.5-20.2 4.3-.3.1-.5.1-.6.1zm-58.6-8.1c-.5 0-1.1-.1-1.6-.3-6.3-2.7-12.4-5.9-18.2-9.7-1.9-1.2-2.4-3.7-1.2-5.5 1.2-1.9 3.7-2.4 5.5-1.2 5.4 3.5 11 6.5 17 9 2 .9 3 3.2 2.1 5.2-.5 1.5-2 2.4-3.6 2.5zm96.5-3.6c-2.2 0-4-1.8-4-4 0-1.5.8-2.9 2.2-3.6 5.7-2.9 11.1-6.4 16.2-10.2 1.7-1.4 4.2-1.2 5.6.5 1.4 1.7 1.2 4.2-.5 5.6-.1.1-.2.1-.3.2-5.5 4.2-11.3 7.8-17.4 11-.6.4-1.2.5-1.8.5zm-129.7-18c-1 0-2-.4-2.7-1.1-5-4.7-9.6-9.8-13.8-15.3-1.3-1.8-1-4.3.8-5.6 1.8-1.3 4.3-1 5.6.8 3.9 5.1 8.2 9.9 12.9 14.3 1.6 1.5 1.7 4 .2 5.7-.8.7-1.9 1.2-3 1.2zm161.2-6c-2.2 0-4-1.8-4-4 0-1 .4-2 1.1-2.7 4.4-4.7 8.3-9.8 11.8-15.2 1.1-1.9 3.6-2.5 5.5-1.4s2.5 3.6 1.4 5.5c-.1.1-.1.2-.2.3-3.7 5.8-8 11.2-12.6 16.3-.8.7-1.8 1.2-3 1.2zm-185.1-25.7c-1.5 0-2.9-.8-3.6-2.2-3.1-6.1-5.7-12.5-7.7-19.1-.6-2.1.7-4.3 2.8-4.9 2-.6 4.2.6 4.9 2.6 1.9 6.1 4.3 12.1 7.2 17.8 1 2 .2 4.4-1.7 5.4-.6.3-1.2.4-1.9.4zM436 553c-2 0-3.8-1.5-4-3.5-.6-4.7-.8-9.4-.8-14.2 0-2.1.1-4.3.2-6.4.1-2.2 2-3.9 4.2-3.8 2.2.1 3.9 2 3.8 4.2-.1 2-.2 4-.2 6 0 4.4.3 8.8.8 13.2.3 2.2-1.3 4.2-3.5 4.4-.2.1-.3.1-.5.1zm2.2-39.6c-.3 0-.6 0-.9-.1-2.2-.5-3.5-2.6-3-4.8 1.6-6.7 3.7-13.3 6.4-19.6.9-2 3.3-2.9 5.3-1.9 1.9.9 2.8 3.1 2 5.1-2.5 5.9-4.5 12-6 18.2-.4 1.8-2 3.1-3.8 3.1zm15.6-36.4c-.8 0-1.5-.2-2.2-.7-1.8-1.2-2.4-3.7-1.1-5.5 3.8-5.8 8-11.2 12.8-16.2 1.5-1.6 4-1.7 5.7-.2s1.7 4 .2 5.7c-4.4 4.7-8.4 9.7-11.9 15.1-.9 1.1-2.2 1.8-3.5 1.8zm27.1-28.9c-2.2 0-4-1.8-4-4 0-1.3.6-2.4 1.6-3.2 5.5-4.1 11.3-7.8 17.5-10.9 1.9-1.1 4.4-.3 5.4 1.6 1.1 1.9.3 4.4-1.6 5.4-.1 0-.1.1-.2.1-5.7 2.9-11.2 6.3-16.3 10.1-.7.6-1.5.9-2.4.9zm35.4-17.8c-2.2 0-4-1.8-4-4 0-1.8 1.2-3.4 2.9-3.9 3.3-1 6.7-1.9 10.1-2.5s6.7-1.2 10.1-1.6c2.2-.3 4.2 1.3 4.4 3.5s-1.3 4.2-3.5 4.4c-3.1.4-6.3.9-9.4 1.5s-6.3 1.4-9.4 2.4c-.4.1-.8.1-1.2.2zM662.9 539.3c-2.2 0-4-1.8-4-4 0-55.6-41.6-102.5-96.8-109.1-2.2-.2-3.8-2.1-3.6-4.3s2.1-3.8 4.3-3.6h.3c59.3 7.1 103.9 57.3 103.9 117-.1 2.2-1.9 4-4.1 4zM513.8 566.4c-2.2 0-4-1.8-4-4 0-1.2.6-2.4 1.6-3.2l33.6-25.9v-55c0-2.2 1.8-4 4-4s4 1.8 4 4v56.9c0 1.2-.6 2.4-1.6 3.2l-35.2 27.2c-.7.5-1.5.8-2.4.8z"/><path class="st5" d="M641 541.3l13.5 32.7c1.2 2.8 4.3 4.1 7.1 2.9.9-.4 1.8-1.1 2.3-1.9l20.2-29c1.7-2.5 1.1-5.8-1.3-7.5-.7-.5-1.6-.8-2.5-.9l-33.7-3.7c-3-.4-5.7 1.8-6 4.7-.1.9 0 1.9.4 2.7z"/></svg>