<svg width="396" height="263" viewBox="0 0 396 263" fill="none" xmlns="http://www.w3.org/2000/svg">
<path d="M65 27H330.961V210.761C330.961 224.441 319.871 235.531 306.191 235.531H89.7697C76.0898 235.531 65 224.441 65 210.761V27Z" fill="#F0F7FE"/>
<path d="M94.2356 78.1672C96.7296 78.1672 97.9557 76.8854 97.9557 75.1855C97.9557 71.7162 92.6194 72.7055 92.6194 71.2425C92.6194 70.6852 93.0931 70.3229 93.9291 70.3229C94.8765 70.3229 95.8797 70.6434 96.6321 71.3401L97.7328 69.8632C96.8132 69.0133 95.5871 68.5674 94.1102 68.5674C91.9227 68.5674 90.5852 69.8492 90.5852 71.3958C90.5852 74.893 95.9354 73.7644 95.9354 75.3806C95.9354 75.924 95.4199 76.4116 94.3192 76.4116C93.0374 76.4116 92.0203 75.8265 91.3654 75.1437L90.2787 76.6903C91.1564 77.5681 92.4383 78.1672 94.2356 78.1672ZM101.299 78.1672C102.037 78.1672 102.511 77.9721 102.776 77.7353L102.399 76.3838C102.302 76.4952 102.051 76.5928 101.786 76.5928C101.396 76.5928 101.173 76.2723 101.173 75.8404V72.8169H102.539V71.2704H101.173V69.4312H99.4039V71.2704H98.2892V72.8169H99.4039V76.3141C99.4039 77.5263 100.059 78.1672 101.299 78.1672ZM109.573 78V73.6529C109.573 71.7162 108.166 71.1032 106.62 71.1032C105.561 71.1032 104.502 71.4236 103.68 72.1621L104.376 73.4021C104.934 72.8866 105.603 72.608 106.313 72.608C107.205 72.608 107.79 73.0538 107.79 73.7365V74.5864C107.344 74.057 106.564 73.7644 105.658 73.7644C104.585 73.7644 103.331 74.3496 103.331 75.9379C103.331 77.4427 104.585 78.1672 105.658 78.1672C106.536 78.1672 107.33 77.8467 107.79 77.2894V78H109.573ZM106.369 76.969C105.672 76.969 105.101 76.6067 105.101 75.9658C105.101 75.3249 105.672 74.9487 106.369 74.9487C106.94 74.9487 107.497 75.1577 107.79 75.5478V76.3838C107.497 76.7739 106.94 76.969 106.369 76.969ZM113.084 78V73.5554C113.377 73.1235 114.157 72.7891 114.742 72.7891C114.951 72.7891 115.104 72.803 115.23 72.8309V71.1032C114.394 71.1032 113.572 71.5908 113.084 72.176V71.2704H111.315V78H113.084ZM118.592 78.1672C119.331 78.1672 119.805 77.9721 120.069 77.7353L119.693 76.3838C119.596 76.4952 119.345 76.5928 119.08 76.5928C118.69 76.5928 118.467 76.2723 118.467 75.8404V72.8169H119.833V71.2704H118.467V69.4312H116.698V71.2704H115.583V72.8169H116.698V76.3141C116.698 77.5263 117.352 78.1672 118.592 78.1672ZM121.921 70.5459C122.506 70.5459 122.98 70.0722 122.98 69.487C122.98 68.9018 122.506 68.442 121.921 68.442C121.35 68.442 120.876 68.9018 120.876 69.487C120.876 70.0722 121.35 70.5459 121.921 70.5459ZM122.813 78V71.2704H121.043V78H122.813ZM130.893 78V73.2489C130.893 71.9392 130.182 71.1032 128.691 71.1032C127.605 71.1032 126.769 71.6326 126.337 72.1342V71.2704H124.567V78H126.337V73.4579C126.643 73.0677 127.173 72.6776 127.869 72.6776C128.622 72.6776 129.109 72.9981 129.109 73.9316V78H130.893ZM135.395 80.7309C137.053 80.7309 139.031 80.1039 139.031 77.5541V71.2704H137.262V72.1342C136.718 71.4376 135.98 71.1032 135.172 71.1032C133.472 71.1032 132.204 72.3293 132.204 74.5307C132.204 76.7739 133.5 77.9443 135.172 77.9443C136.008 77.9443 136.732 77.5681 137.262 76.8993V77.5541C137.262 78.9196 136.244 79.2818 135.395 79.2818C134.559 79.2818 133.834 79.045 133.291 78.4598L132.496 79.7277C133.346 80.4661 134.252 80.7309 135.395 80.7309ZM135.743 76.3838C134.726 76.3838 134.029 75.6871 134.029 74.5307C134.029 73.3743 134.726 72.6776 135.743 72.6776C136.314 72.6776 136.955 72.9981 137.262 73.43V75.6175C136.955 76.0494 136.314 76.3838 135.743 76.3838ZM150.188 78V73.6529C150.188 71.7162 148.781 71.1032 147.235 71.1032C146.176 71.1032 145.117 71.4236 144.295 72.1621L144.991 73.4021C145.549 72.8866 146.218 72.608 146.928 72.608C147.82 72.608 148.405 73.0538 148.405 73.7365V74.5864C147.959 74.057 147.179 73.7644 146.273 73.7644C145.2 73.7644 143.947 74.3496 143.947 75.9379C143.947 77.4427 145.2 78.1672 146.273 78.1672C147.151 78.1672 147.945 77.8467 148.405 77.2894V78H150.188ZM146.984 76.969C146.287 76.969 145.716 76.6067 145.716 75.9658C145.716 75.3249 146.287 74.9487 146.984 74.9487C147.555 74.9487 148.112 75.1577 148.405 75.5478V76.3838C148.112 76.7739 147.555 76.969 146.984 76.969ZM154.187 78.1672C154.925 78.1672 155.399 77.9721 155.664 77.7353L155.287 76.3838C155.19 76.4952 154.939 76.5928 154.674 76.5928C154.284 76.5928 154.061 76.2723 154.061 75.8404V72.8169H155.427V71.2704H154.061V69.4312H152.292V71.2704H151.177V72.8169H152.292V76.3141C152.292 77.5263 152.947 78.1672 154.187 78.1672Z" fill="#111111"/>
<path d="M101.357 101.329C101.357 98.295 98.9513 97.5147 96.979 96.7345V93.115C97.7376 93.3101 98.2794 93.8302 98.6262 94.6972L101.14 93.2234C100.317 91.3811 98.7779 90.3842 96.979 90.1674V88.2385H95.5269V90.1241C93.2511 90.3408 91.2138 91.8146 91.2138 94.5021C91.2138 97.3847 93.4462 98.36 95.4618 99.1403C95.4835 99.1403 95.5052 99.1619 95.5269 99.1619V102.911C94.3348 102.738 93.5762 102.066 93.1211 100.939L90.542 102.435C91.3005 104.45 93.0994 105.686 95.5269 105.859V107.745H96.979V105.837C99.4931 105.534 101.357 103.952 101.357 101.329ZM94.1831 94.5238C94.1831 93.7869 94.6599 93.2234 95.5269 93.05V96.0843C94.5299 95.5858 94.1831 95.1523 94.1831 94.5238ZM96.979 102.868V99.7471C97.8676 100.159 98.3661 100.592 98.3661 101.351C98.3661 102.023 97.9543 102.651 96.979 102.868ZM106.121 90.4058L102.134 91.8146L102.87 94.3721L105.731 93.5702V105.577H108.722V90.4058H106.121ZM122.544 100.224H120.918V96.6261H117.906V100.224H113.961L118.989 90.4058H115.782L110.732 100.224V102.998H117.906V105.577H120.918V102.998H122.544V100.224ZM133.913 95.3691C133.913 92.2698 131.68 90.1024 128.408 90.1024C125.178 90.1024 122.924 92.2698 122.924 95.3691C122.924 98.425 125.113 100.571 128.256 100.636L124.875 105.577H128.299L133.024 98.4467H133.002C133.587 97.6014 133.913 96.5394 133.913 95.3691ZM125.893 95.3691C125.893 93.8519 127.02 92.92 128.408 92.92C129.838 92.92 130.943 93.8302 130.943 95.3691C130.943 96.9079 129.838 97.8398 128.408 97.8398C127.02 97.8398 125.893 96.9079 125.893 95.3691ZM134.283 105.859C135.302 105.859 136.125 105.035 136.125 104.017C136.125 102.998 135.302 102.175 134.283 102.175C133.264 102.175 132.441 102.998 132.441 104.017C132.441 105.035 133.264 105.859 134.283 105.859ZM143.349 105.881C147.229 105.881 149.418 102.673 149.418 97.9916C149.418 93.3101 147.229 90.1024 143.349 90.1024C139.491 90.1024 137.28 93.3101 137.28 97.9916C137.28 102.673 139.491 105.881 143.349 105.881ZM143.349 102.955C141.312 102.955 140.271 101.199 140.271 97.9916C140.271 94.7839 141.312 93.0067 143.349 93.0067C145.386 93.0067 146.448 94.7839 146.448 97.9916C146.448 101.199 145.386 102.955 143.349 102.955ZM157.001 105.881C160.88 105.881 163.069 102.673 163.069 97.9916C163.069 93.3101 160.88 90.1024 157.001 90.1024C153.143 90.1024 150.932 93.3101 150.932 97.9916C150.932 102.673 153.143 105.881 157.001 105.881ZM157.001 102.955C154.963 102.955 153.923 101.199 153.923 97.9916C153.923 94.7839 154.963 93.0067 157.001 93.0067C159.038 93.0067 160.1 94.7839 160.1 97.9916C160.1 101.199 159.038 102.955 157.001 102.955ZM165.776 107.745L174.445 88.2385H173.21L164.541 107.745H165.776ZM188.434 94.4371C186.96 94.4371 185.877 95.0223 185.205 95.9976C184.598 95.0006 183.601 94.4371 182.257 94.4371C180.87 94.4371 179.852 94.9789 179.245 95.8892V94.7405H176.449V105.577H179.245V99.487C179.245 97.8615 180.09 97.0379 181.282 97.0379C182.452 97.0379 183.103 97.8182 183.103 99.0969V105.577H185.898V99.487C185.898 97.8615 186.679 97.0379 187.914 97.0379C189.084 97.0379 189.735 97.8182 189.735 99.0969V105.577H192.531V98.9018C192.531 96.1927 190.905 94.4371 188.434 94.4371ZM200.063 105.881C203.249 105.881 205.807 103.388 205.807 100.159C205.807 96.9296 203.249 94.4371 200.063 94.4371C196.877 94.4371 194.342 96.9296 194.342 100.159C194.342 103.388 196.877 105.881 200.063 105.881ZM200.063 103.15C198.416 103.15 197.137 101.914 197.137 100.159C197.137 98.4034 198.416 97.168 200.063 97.168C201.732 97.168 203.011 98.4034 203.011 100.159C203.011 101.914 201.732 103.15 200.063 103.15Z" fill="#0073EC"/>
<g clip-path="url(#clip0_446_1745)">
<path d="M288.767 91.6478L289.485 92.3661C289.655 92.5362 289.931 92.5362 290.101 92.3661L296.673 85.8097L303.245 92.3661C303.415 92.5362 303.691 92.5362 303.861 92.3661L304.579 91.6478C304.749 91.4777 304.749 91.202 304.579 91.032L296.981 83.4337C296.811 83.2636 296.535 83.2636 296.365 83.4337L288.767 91.032C288.597 91.202 288.597 91.4777 288.767 91.6478Z" fill="#0073EC"/>
</g>
<rect x="90" y="139.799" width="215.961" height="55.7318" rx="27.8659" fill="#0073EC"/>
<path d="M149.128 173.425C150.521 173.425 151.654 173.072 152.527 172.366C153.401 171.66 153.846 170.712 153.846 169.505C153.846 168.762 153.642 168.112 153.363 167.666C153.122 167.22 152.527 166.756 152.137 166.514C151.952 166.384 151.673 166.254 151.32 166.124C150.967 165.975 150.688 165.864 150.484 165.808L149.592 165.511C148.626 165.214 147.976 164.935 147.623 164.693C147.289 164.433 147.121 164.099 147.121 163.69C147.121 162.929 147.772 162.39 148.831 162.39C149.964 162.39 150.8 162.947 151.32 164.062L153.475 162.817C152.583 160.978 150.93 159.901 148.831 159.901C147.66 159.901 146.638 160.253 145.803 160.959C144.967 161.647 144.558 162.594 144.558 163.765C144.558 164.954 144.985 165.845 145.784 166.44C146.601 167.016 147.307 167.294 148.478 167.647C149.537 167.944 150.261 168.223 150.67 168.483C151.078 168.725 151.283 169.078 151.283 169.542C151.283 170.341 150.633 170.917 149.202 170.917C147.716 170.917 146.713 170.248 146.211 168.929L144.019 170.211C144.744 172.199 146.546 173.425 149.128 173.425ZM156.596 162.761C157.413 162.761 158.082 162.093 158.082 161.294C158.082 160.495 157.413 159.808 156.596 159.808C155.797 159.808 155.128 160.495 155.128 161.294C155.128 162.093 155.797 162.761 156.596 162.761ZM157.804 173.165V163.876H155.407V173.165H157.804ZM167.112 165.028C166.406 164.08 165.422 163.616 164.14 163.616C162.839 163.616 161.743 164.08 160.852 165.009C159.96 165.938 159.514 167.053 159.514 168.372C159.514 169.691 159.96 170.824 160.833 171.753C161.725 172.663 162.821 173.128 164.14 173.128C165.422 173.128 166.406 172.663 167.112 171.716V172.719C167.112 174.186 166.183 175.004 164.678 175.004C163.527 175.004 162.709 174.577 162.245 173.703L160.201 174.874C161.019 176.36 162.598 177.14 164.604 177.14C165.942 177.14 167.075 176.769 168.022 176.007C168.97 175.245 169.453 174.149 169.453 172.719V163.876H167.112V165.028ZM167.112 168.372C167.112 169.858 166.016 170.917 164.511 170.917C163.006 170.917 161.91 169.858 161.91 168.372C161.91 167.647 162.152 167.034 162.635 166.57C163.137 166.087 163.75 165.845 164.511 165.845C165.273 165.845 165.886 166.087 166.369 166.57C166.871 167.034 167.112 167.647 167.112 168.372ZM176.79 163.616C175.527 163.616 174.598 164.043 174.022 164.916V163.876H171.626V173.165H174.022V168.149C174.022 166.607 174.821 165.845 176.066 165.845C177.181 165.845 177.905 166.514 177.905 167.759V173.165H180.301V167.461C180.301 166.254 179.967 165.325 179.298 164.638C178.648 163.95 177.812 163.616 176.79 163.616ZM191.952 173.425C193.42 173.425 194.609 173.016 195.538 172.199C196.466 171.381 196.931 170.285 196.931 168.91V160.161H194.367V168.706C194.367 170.062 193.606 170.917 191.952 170.917C190.299 170.917 189.537 170.062 189.537 168.706V160.161H186.992V168.91C186.992 170.285 187.456 171.381 188.385 172.199C189.314 173.016 190.503 173.425 191.952 173.425ZM204.535 163.616C203.235 163.616 202.231 164.062 201.525 164.972V163.876H199.129V176.88H201.525V172.069C202.231 172.979 203.235 173.425 204.535 173.425C205.78 173.425 206.857 172.96 207.73 172.013C208.622 171.065 209.068 169.895 209.068 168.52C209.068 167.146 208.622 165.994 207.73 165.046C206.857 164.099 205.78 163.616 204.535 163.616ZM202.25 170.415C201.767 169.914 201.525 169.282 201.525 168.52C201.525 167.759 201.767 167.127 202.25 166.644C202.733 166.142 203.346 165.901 204.089 165.901C204.832 165.901 205.445 166.142 205.928 166.644C206.43 167.127 206.671 167.759 206.671 168.52C206.671 169.282 206.43 169.914 205.928 170.415C205.445 170.898 204.832 171.14 204.089 171.14C203.346 171.14 202.733 170.898 202.25 170.415ZM223.037 168.093L217.464 160.161H215.514V173.165H218.077V165.214L223.651 173.165H225.601V160.161H223.037V168.093ZM235.816 172.013C236.763 171.065 237.246 169.895 237.246 168.52C237.246 167.146 236.763 165.994 235.816 165.046C234.868 164.099 233.698 163.616 232.323 163.616C230.949 163.616 229.778 164.099 228.831 165.046C227.883 165.994 227.419 167.146 227.419 168.52C227.419 169.895 227.883 171.065 228.831 172.013C229.778 172.96 230.949 173.425 232.323 173.425C233.698 173.425 234.868 172.96 235.816 172.013ZM230.521 170.36C230.057 169.876 229.815 169.263 229.815 168.52C229.815 167.777 230.057 167.164 230.521 166.681C231.004 166.198 231.599 165.957 232.323 165.957C233.048 165.957 233.642 166.198 234.125 166.681C234.608 167.164 234.85 167.777 234.85 168.52C234.85 169.263 234.608 169.876 234.125 170.36C233.642 170.843 233.048 171.084 232.323 171.084C231.599 171.084 231.004 170.843 230.521 170.36ZM247.449 169.598L245.759 163.876H243.492L241.802 169.579L240.223 163.876H237.678L240.631 173.165H242.916L244.626 167.536L246.335 173.165H248.62L251.573 163.876H249.028L247.449 169.598Z" fill="white"/>
<defs>
<clipPath id="clip0_446_1745">
<rect width="9.28863" height="18.5773" fill="white" transform="translate(305.961 83.2554) rotate(90)"/>
</clipPath>
</defs>
</svg>
