<svg width="396" height="263" viewBox="0 0 396 263" fill="none" xmlns="http://www.w3.org/2000/svg">
<path d="M49.6625 95.5211V91.9239H38.2714V111H42.0321V103.642H49.4445V100.045H42.0321V95.5211H49.6625ZM62.8674 111H66.9279L62.7039 103.806C64.884 102.797 66.3829 100.644 66.3829 98.2462C66.3829 94.758 63.5487 91.9239 60.0333 91.9239H52.4028V111H56.1635V104.378H59.0249L62.8674 111ZM56.1635 95.4393H60.0333C61.4503 95.4393 62.6222 96.6657 62.6222 98.2462C62.6222 99.8268 61.4503 101.08 60.0333 101.08H56.1635V95.4393ZM72.903 107.403V103.124H80.1247V99.5816H72.903V95.5211H80.806V91.9239H69.1423V111H80.9423V107.403H72.903ZM87.3538 107.403V103.124H94.5755V99.5816H87.3538V95.5211H95.2568V91.9239H83.5931V111H95.3931V107.403H87.3538Z" fill="#00CAAA"/>
<path d="M111.97 91.9239H104.857V111H108.618V104.732H111.97C115.648 104.732 118.483 101.898 118.483 98.328C118.483 94.758 115.648 91.9239 111.97 91.9239ZM111.97 101.217H108.618V95.4393H111.97C113.577 95.4393 114.749 96.6657 114.749 98.328C114.749 99.9631 113.577 101.217 111.97 101.217ZM123.99 99.7178V97.3742H120.475V111H123.99V104.487C123.99 101.625 126.307 100.808 128.132 101.026V97.1017C126.416 97.1017 124.699 97.8647 123.99 99.7178ZM131.933 95.7391C133.132 95.7391 134.113 94.758 134.113 93.5862C134.113 92.4144 133.132 91.4061 131.933 91.4061C130.761 91.4061 129.78 92.4144 129.78 93.5862C129.78 94.758 130.761 95.7391 131.933 95.7391ZM130.188 111H133.704V97.3742H130.188V111ZM145.887 97.3742L142.563 106.912L139.265 97.3742H135.395L140.573 111H144.579L149.757 97.3742H145.887ZM161.276 97.3742V98.982C160.294 97.7557 158.823 96.9927 156.834 96.9927C153.209 96.9927 150.211 100.127 150.211 104.187C150.211 108.248 153.209 111.382 156.834 111.382C158.823 111.382 160.294 110.618 161.276 109.392V111H164.791V97.3742H161.276ZM157.488 108.03C155.335 108.03 153.727 106.476 153.727 104.187C153.727 101.898 155.335 100.345 157.488 100.345C159.668 100.345 161.276 101.898 161.276 104.187C161.276 106.476 159.668 108.03 157.488 108.03ZM175.773 100.753V97.3742H172.693V93.559L169.178 94.6218V97.3742H166.807V100.753H169.178V106.422C169.178 110.101 170.84 111.545 175.773 111V107.812C173.756 107.921 172.693 107.893 172.693 106.422V100.753H175.773ZM180.796 105.631H191.07C191.152 105.168 191.206 104.705 191.206 104.187C191.206 100.181 188.345 96.9927 184.311 96.9927C180.033 96.9927 177.117 100.127 177.117 104.187C177.117 108.248 180.006 111.382 184.584 111.382C187.2 111.382 189.244 110.319 190.525 108.466L187.691 106.831C187.091 107.621 186.001 108.193 184.638 108.193C182.785 108.193 181.287 107.43 180.796 105.631ZM180.742 102.906C181.15 101.162 182.431 100.154 184.311 100.154C185.783 100.154 187.255 100.944 187.691 102.906H180.742ZM211.101 111H215.162L210.938 103.806C213.118 102.797 214.617 100.644 214.617 98.2462C214.617 94.758 211.783 91.9239 208.267 91.9239H200.637V111H204.397V104.378H207.259L211.101 111ZM204.397 95.4393H208.267C209.684 95.4393 210.856 96.6657 210.856 98.2462C210.856 99.8268 209.684 101.08 208.267 101.08H204.397V95.4393ZM219.491 105.631H229.765C229.847 105.168 229.901 104.705 229.901 104.187C229.901 100.181 227.04 96.9927 223.007 96.9927C218.728 96.9927 215.812 100.127 215.812 104.187C215.812 108.248 218.701 111.382 223.279 111.382C225.895 111.382 227.939 110.319 229.22 108.466L226.386 106.831C225.786 107.621 224.696 108.193 223.334 108.193C221.481 108.193 219.982 107.43 219.491 105.631ZM219.437 102.906C219.845 101.162 221.126 100.154 223.007 100.154C224.478 100.154 225.95 100.944 226.386 102.906H219.437ZM242.686 97.3742V99.0638C241.733 97.783 240.261 96.9927 238.326 96.9927C234.456 96.9927 231.54 100.154 231.54 103.969C231.54 107.812 234.456 110.945 238.326 110.945C240.261 110.945 241.733 110.155 242.686 108.874V110.346C242.686 112.499 241.324 113.698 239.116 113.698C237.018 113.698 236.119 112.853 235.546 111.79L232.549 113.507C233.748 115.715 236.091 116.832 239.007 116.832C242.605 116.832 246.12 114.815 246.12 110.346V97.3742H242.686ZM238.871 107.703C236.664 107.703 235.056 106.149 235.056 103.969C235.056 101.816 236.664 100.263 238.871 100.263C241.078 100.263 242.686 101.816 242.686 103.969C242.686 106.149 241.078 107.703 238.871 107.703ZM251.052 95.7391C252.251 95.7391 253.232 94.758 253.232 93.5862C253.232 92.4144 252.251 91.4061 251.052 91.4061C249.88 91.4061 248.899 92.4144 248.899 93.5862C248.899 94.758 249.88 95.7391 251.052 95.7391ZM249.308 111H252.823V97.3742H249.308V111ZM259.177 101.244C259.177 100.508 259.886 100.127 260.758 100.127C261.766 100.127 262.529 100.644 262.938 101.516L265.936 99.8813C264.873 98.001 262.965 96.9927 260.758 96.9927C257.951 96.9927 255.58 98.546 255.58 101.326C255.58 106.122 262.611 105.032 262.611 107.021C262.611 107.812 261.848 108.193 260.731 108.193C259.368 108.193 258.442 107.539 258.06 106.422L255.008 108.139C255.989 110.237 258.006 111.382 260.731 111.382C263.647 111.382 266.208 109.964 266.208 107.021C266.208 102.007 259.177 103.261 259.177 101.244ZM275.864 100.753V97.3742H272.784V93.559L269.269 94.6218V97.3742H266.898V100.753H269.269V106.422C269.269 110.101 270.931 111.545 275.864 111V107.812C273.847 107.921 272.784 107.893 272.784 106.422V100.753H275.864ZM282.071 99.7178V97.3742H278.555V111H282.071V104.487C282.071 101.625 284.387 100.808 286.213 101.026V97.1017C284.496 97.1017 282.779 97.8647 282.071 99.7178ZM298.119 97.3742V98.982C297.138 97.7557 295.666 96.9927 293.677 96.9927C290.053 96.9927 287.055 100.127 287.055 104.187C287.055 108.248 290.053 111.382 293.677 111.382C295.666 111.382 297.138 110.618 298.119 109.392V111H301.635V97.3742H298.119ZM294.331 108.03C292.178 108.03 290.57 106.476 290.57 104.187C290.57 101.898 292.178 100.345 294.331 100.345C296.511 100.345 298.119 101.898 298.119 104.187C298.119 106.476 296.511 108.03 294.331 108.03ZM312.616 100.753V97.3742H309.537V93.559L306.021 94.6218V97.3742H303.651V100.753H306.021V106.422C306.021 110.101 307.684 111.545 312.616 111V107.812C310.6 107.921 309.537 107.893 309.537 106.422V100.753H312.616ZM316.839 95.7391C318.038 95.7391 319.019 94.758 319.019 93.5862C319.019 92.4144 318.038 91.4061 316.839 91.4061C315.667 91.4061 314.686 92.4144 314.686 93.5862C314.686 94.758 315.667 95.7391 316.839 95.7391ZM315.095 111H318.61V97.3742H315.095V111ZM328.314 111.382C332.32 111.382 335.536 108.248 335.536 104.187C335.536 100.127 332.32 96.9927 328.314 96.9927C324.308 96.9927 321.119 100.127 321.119 104.187C321.119 108.248 324.308 111.382 328.314 111.382ZM328.314 107.948C326.243 107.948 324.635 106.394 324.635 104.187C324.635 101.98 326.243 100.426 328.314 100.426C330.412 100.426 332.02 101.98 332.02 104.187C332.02 106.394 330.412 107.948 328.314 107.948ZM345.585 96.9927C343.759 96.9927 342.342 97.674 341.524 98.9003V97.3742H338.009V111H341.524V103.642C341.524 101.271 342.805 100.263 344.522 100.263C346.102 100.263 347.22 101.217 347.22 103.07V111H350.735V102.634C350.735 99.0093 348.473 96.9927 345.585 96.9927Z" fill="#A644E5"/>
<path d="M37.3096 142.813H38.4133L40.1097 137.1L41.8061 142.813H42.9098L44.9639 135.659H43.9624L42.3273 141.546L40.59 135.659H39.6294L37.8921 141.546L36.257 135.659H35.2555L37.3096 142.813ZM45.9084 140.667H50.1904C50.2108 140.534 50.221 140.401 50.221 140.268C50.221 138.838 49.2195 137.57 47.6764 137.57C46.0822 137.57 44.9989 138.746 44.9989 140.258C44.9989 141.791 46.0924 142.946 47.7377 142.946C48.7596 142.946 49.5363 142.486 49.986 141.791L49.2297 141.362C48.9743 141.781 48.4633 142.108 47.7581 142.108C46.8077 142.108 46.0822 141.587 45.9084 140.667ZM47.6764 138.408C48.4428 138.408 49.1684 138.878 49.3217 139.89H45.9084C46.0515 139.001 46.7158 138.408 47.6764 138.408ZM56.6184 137.57C55.7498 137.57 55.0957 137.959 54.6869 138.582V135.659H53.7979V142.813H54.6869V141.934C55.0957 142.557 55.7498 142.946 56.6184 142.946C58.0389 142.946 59.2039 141.77 59.2039 140.258C59.2039 138.746 58.0389 137.57 56.6184 137.57ZM56.506 142.087C55.4738 142.087 54.6869 141.3 54.6869 140.258C54.6869 139.216 55.4738 138.429 56.506 138.429C57.5279 138.429 58.3148 139.216 58.3148 140.258C58.3148 141.3 57.5279 142.087 56.506 142.087ZM60.8882 140.667H65.1701C65.1905 140.534 65.2008 140.401 65.2008 140.268C65.2008 138.838 64.1993 137.57 62.6561 137.57C61.0619 137.57 59.9787 138.746 59.9787 140.258C59.9787 141.791 61.0721 142.946 62.7174 142.946C63.7394 142.946 64.5161 142.486 64.9657 141.791L64.2095 141.362C63.954 141.781 63.443 142.108 62.7379 142.108C61.7875 142.108 61.0619 141.587 60.8882 140.667ZM62.6561 138.408C63.4226 138.408 64.1482 138.878 64.3014 139.89H60.8882C61.0313 139.001 61.6955 138.408 62.6561 138.408ZM66.2228 142.813H67.1118V135.353H66.2228V142.813ZM68.9179 136.773C69.2449 136.773 69.5106 136.508 69.5106 136.181C69.5106 135.853 69.2449 135.578 68.9179 135.578C68.5806 135.578 68.3149 135.853 68.3149 136.181C68.3149 136.508 68.5806 136.773 68.9179 136.773ZM68.4682 142.813H69.3573V137.703H68.4682V142.813ZM71.3371 140.667H75.619C75.6394 140.534 75.6496 140.401 75.6496 140.268C75.6496 138.838 74.6481 137.57 73.105 137.57C71.5108 137.57 70.4276 138.746 70.4276 140.258C70.4276 141.791 71.521 142.946 73.1663 142.946C74.1883 142.946 74.9649 142.486 75.4146 141.791L74.6584 141.362C74.4029 141.781 73.8919 142.108 73.1868 142.108C72.2364 142.108 71.5108 141.587 71.3371 140.667ZM73.105 138.408C73.8715 138.408 74.597 138.878 74.7503 139.89H71.3371C71.4801 139.001 72.1444 138.408 73.105 138.408ZM80.0488 137.703L78.4444 141.862L76.84 137.703H75.8793L77.9232 142.813H78.9656L81.0095 137.703H80.0488ZM82.1852 140.667H86.4671C86.4875 140.534 86.4977 140.401 86.4977 140.268C86.4977 138.838 85.4962 137.57 83.9531 137.57C82.3589 137.57 81.2756 138.746 81.2756 140.258C81.2756 141.791 82.3691 142.946 84.0144 142.946C85.0364 142.946 85.813 142.486 86.2627 141.791L85.5065 141.362C85.251 141.781 84.74 142.108 84.0349 142.108C83.0845 142.108 82.3589 141.587 82.1852 140.667ZM83.9531 138.408C84.7196 138.408 85.4451 138.878 85.5984 139.89H82.1852C82.3282 139.001 82.9925 138.408 83.9531 138.408ZM93.6411 137.703L92.1696 141.709L90.4323 137.703H89.4819L91.7097 142.792L91.6177 142.987C91.352 143.661 90.9228 144.08 90.2381 144.029V144.857C91.2805 144.928 92.0776 144.274 92.5068 143.13L94.5915 137.703H93.6411ZM97.5359 142.946C99.0279 142.946 100.234 141.77 100.234 140.258C100.234 138.746 99.0279 137.57 97.5359 137.57C96.0439 137.57 94.8482 138.746 94.8482 140.258C94.8482 141.77 96.0439 142.946 97.5359 142.946ZM97.5359 142.077C96.5242 142.077 95.7373 141.29 95.7373 140.258C95.7373 139.226 96.5242 138.439 97.5359 138.439C98.5578 138.439 99.3447 139.226 99.3447 140.258C99.3447 141.29 98.5578 142.077 97.5359 142.077ZM104.808 137.703V140.411C104.808 141.617 104.143 142.098 103.326 142.098C102.539 142.098 102.059 141.627 102.059 140.789V137.703H101.17V140.841C101.17 142.149 101.956 142.946 103.152 142.946C103.867 142.946 104.43 142.68 104.808 142.077V142.813H105.697V137.703H104.808ZM110.372 139.083C110.372 138.623 110.821 138.398 111.281 138.398C111.731 138.398 112.18 138.592 112.375 139.052L113.121 138.633C112.794 137.969 112.119 137.57 111.281 137.57C110.249 137.57 109.472 138.194 109.472 139.093C109.472 140.943 112.334 140.319 112.334 141.413C112.334 141.914 111.864 142.108 111.322 142.108C110.688 142.108 110.218 141.801 110.055 141.311L109.288 141.75C109.585 142.455 110.3 142.946 111.322 142.946C112.415 142.946 113.233 142.363 113.233 141.413C113.233 139.532 110.372 140.176 110.372 139.083ZM116.78 137.57C116.065 137.57 115.503 137.836 115.125 138.439V135.659H114.236V142.813H115.125V140.105C115.125 138.899 115.789 138.419 116.607 138.419C117.394 138.419 117.874 138.889 117.874 139.727V142.813H118.763V139.676C118.763 138.367 117.976 137.57 116.78 137.57ZM122.406 142.946C123.898 142.946 125.104 141.77 125.104 140.258C125.104 138.746 123.898 137.57 122.406 137.57C120.914 137.57 119.718 138.746 119.718 140.258C119.718 141.77 120.914 142.946 122.406 142.946ZM122.406 142.077C121.394 142.077 120.607 141.29 120.607 140.258C120.607 139.226 121.394 138.439 122.406 138.439C123.428 138.439 124.214 139.226 124.214 140.258C124.214 141.29 123.428 142.077 122.406 142.077ZM129.677 137.703V140.411C129.677 141.617 129.013 142.098 128.196 142.098C127.409 142.098 126.928 141.627 126.928 140.789V137.703H126.039V140.841C126.039 142.149 126.826 142.946 128.022 142.946C128.737 142.946 129.299 142.68 129.677 142.077V142.813H130.566V137.703H129.677ZM131.92 142.813H132.809V135.353H131.92V142.813ZM138.396 135.659V138.582C137.988 137.959 137.334 137.57 136.465 137.57C135.044 137.57 133.879 138.746 133.879 140.258C133.879 141.77 135.044 142.946 136.465 142.946C137.334 142.946 137.988 142.557 138.396 141.934V142.813H139.285V135.659H138.396ZM136.577 142.087C135.555 142.087 134.768 141.3 134.768 140.258C134.768 139.216 135.555 138.429 136.577 138.429C137.609 138.429 138.396 139.216 138.396 140.258C138.396 141.3 137.609 142.087 136.577 142.087ZM146.008 137.57C145.139 137.57 144.485 137.959 144.076 138.582V135.659H143.187V142.813H144.076V141.934C144.485 142.557 145.139 142.946 146.008 142.946C147.428 142.946 148.593 141.77 148.593 140.258C148.593 138.746 147.428 137.57 146.008 137.57ZM145.895 142.087C144.863 142.087 144.076 141.3 144.076 140.258C144.076 139.216 144.863 138.429 145.895 138.429C146.917 138.429 147.704 139.216 147.704 140.258C147.704 141.3 146.917 142.087 145.895 142.087ZM150.278 140.667H154.56C154.58 140.534 154.59 140.401 154.59 140.268C154.59 138.838 153.589 137.57 152.046 137.57C150.451 137.57 149.368 138.746 149.368 140.258C149.368 141.791 150.462 142.946 152.107 142.946C153.129 142.946 153.905 142.486 154.355 141.791L153.599 141.362C153.343 141.781 152.832 142.108 152.127 142.108C151.177 142.108 150.451 141.587 150.278 140.667ZM152.046 138.408C152.812 138.408 153.538 138.878 153.691 139.89H150.278C150.421 139.001 151.085 138.408 152.046 138.408ZM162.398 137.703V138.582C161.989 137.959 161.335 137.57 160.466 137.57C159.046 137.57 157.881 138.746 157.881 140.258C157.881 141.77 159.046 142.946 160.466 142.946C161.335 142.946 161.989 142.557 162.398 141.934V142.813H163.287V137.703H162.398ZM160.579 142.087C159.557 142.087 158.77 141.3 158.77 140.258C158.77 139.216 159.557 138.429 160.579 138.429C161.611 138.429 162.398 139.216 162.398 140.258C162.398 141.3 161.611 142.087 160.579 142.087ZM167.455 137.57C166.586 137.57 165.932 137.959 165.523 138.582V135.659H164.634V142.813H165.523V141.934C165.932 142.557 166.586 142.946 167.455 142.946C168.875 142.946 170.04 141.77 170.04 140.258C170.04 138.746 168.875 137.57 167.455 137.57ZM167.342 142.087C166.31 142.087 165.523 141.3 165.523 140.258C165.523 139.216 166.31 138.429 167.342 138.429C168.364 138.429 169.151 139.216 169.151 140.258C169.151 141.3 168.364 142.087 167.342 142.087ZM171.101 142.813H171.99V135.353H171.101V142.813ZM173.97 140.667H178.252C178.272 140.534 178.282 140.401 178.282 140.268C178.282 138.838 177.281 137.57 175.738 137.57C174.143 137.57 173.06 138.746 173.06 140.258C173.06 141.791 174.154 142.946 175.799 142.946C176.821 142.946 177.598 142.486 178.047 141.791L177.291 141.362C177.036 141.781 176.525 142.108 175.819 142.108C174.869 142.108 174.143 141.587 173.97 140.667ZM175.738 138.408C176.504 138.408 177.23 138.878 177.383 139.89H173.97C174.113 139.001 174.777 138.408 175.738 138.408ZM184.639 138.562V137.703H183.28V136.272L182.391 136.538V137.703H181.379V138.562H182.391V141.331C182.391 142.608 183.106 143.017 184.639 142.813V142.016C183.729 142.057 183.28 142.108 183.28 141.331V138.562H184.639ZM187.834 142.946C189.326 142.946 190.531 141.77 190.531 140.258C190.531 138.746 189.326 137.57 187.834 137.57C186.341 137.57 185.146 138.746 185.146 140.258C185.146 141.77 186.341 142.946 187.834 142.946ZM187.834 142.077C186.822 142.077 186.035 141.29 186.035 140.258C186.035 139.226 186.822 138.439 187.834 138.439C188.855 138.439 189.642 139.226 189.642 140.258C189.642 141.29 188.855 142.077 187.834 142.077ZM196.536 142.946C197.537 142.946 198.406 142.414 198.835 141.617L198.079 141.178C197.793 141.709 197.231 142.067 196.536 142.067C195.514 142.067 194.737 141.28 194.737 140.258C194.737 139.226 195.514 138.439 196.536 138.439C197.221 138.439 197.793 138.797 198.048 139.338L198.794 138.909C198.406 138.102 197.548 137.57 196.536 137.57C194.993 137.57 193.848 138.746 193.848 140.258C193.848 141.77 194.993 142.946 196.536 142.946ZM202.045 142.946C203.537 142.946 204.743 141.77 204.743 140.258C204.743 138.746 203.537 137.57 202.045 137.57C200.553 137.57 199.357 138.746 199.357 140.258C199.357 141.77 200.553 142.946 202.045 142.946ZM202.045 142.077C201.033 142.077 200.246 141.29 200.246 140.258C200.246 139.226 201.033 138.439 202.045 138.439C203.067 138.439 203.854 139.226 203.854 140.258C203.854 141.29 203.067 142.077 202.045 142.077ZM208.335 137.57C207.62 137.57 207.058 137.836 206.68 138.439V137.703H205.791V142.813H206.68V140.105C206.68 138.899 207.344 138.419 208.162 138.419C208.949 138.419 209.429 138.889 209.429 139.727V142.813H210.318V139.676C210.318 138.367 209.531 137.57 208.335 137.57ZM214.339 138.562V137.703H212.98V136.272L212.091 136.538V137.703H211.079V138.562H212.091V141.331C212.091 142.608 212.806 143.017 214.339 142.813V142.016C213.429 142.057 212.98 142.108 212.98 141.331V138.562H214.339ZM216.31 138.562V137.703H215.421V142.813H216.31V140.105C216.31 138.899 217.138 138.511 217.905 138.541V137.611C217.261 137.611 216.637 137.846 216.31 138.562ZM220.897 142.946C222.389 142.946 223.595 141.77 223.595 140.258C223.595 138.746 222.389 137.57 220.897 137.57C219.405 137.57 218.209 138.746 218.209 140.258C218.209 141.77 219.405 142.946 220.897 142.946ZM220.897 142.077C219.885 142.077 219.098 141.29 219.098 140.258C219.098 139.226 219.885 138.439 220.897 138.439C221.919 138.439 222.706 139.226 222.706 140.258C222.706 141.29 221.919 142.077 220.897 142.077ZM224.643 142.813H225.532V135.353H224.643V142.813ZM231.988 137.57C231.272 137.57 230.71 137.836 230.332 138.439V135.659H229.443V142.813H230.332V140.105C230.332 138.899 230.996 138.419 231.814 138.419C232.601 138.419 233.081 138.889 233.081 139.727V142.813H233.97V139.676C233.97 138.367 233.183 137.57 231.988 137.57ZM237.613 142.946C239.105 142.946 240.311 141.77 240.311 140.258C240.311 138.746 239.105 137.57 237.613 137.57C236.121 137.57 234.925 138.746 234.925 140.258C234.925 141.77 236.121 142.946 237.613 142.946ZM237.613 142.077C236.601 142.077 235.814 141.29 235.814 140.258C235.814 139.226 236.601 138.439 237.613 138.439C238.635 138.439 239.422 139.226 239.422 140.258C239.422 141.29 238.635 142.077 237.613 142.077ZM247.179 137.703L246.054 141.597L244.849 137.703H243.99L242.784 141.587L241.66 137.703H240.73L242.314 142.813H243.224L244.419 139.032L245.615 142.813H246.525L248.109 137.703H247.179ZM257.097 137.57C256.433 137.57 255.85 137.856 255.492 138.439C255.196 137.887 254.685 137.57 253.99 137.57C253.367 137.57 252.835 137.816 252.467 138.388V137.703H251.578V142.813H252.467V139.972C252.467 138.868 253.091 138.419 253.775 138.419C254.44 138.419 254.859 138.858 254.859 139.665V142.813H255.748V139.972C255.748 138.868 256.289 138.419 257.005 138.419C257.679 138.419 258.129 138.858 258.129 139.665V142.813H259.018V139.635C259.018 138.357 258.231 137.57 257.097 137.57ZM263.776 137.703V140.411C263.776 141.617 263.112 142.098 262.295 142.098C261.508 142.098 261.027 141.627 261.027 140.789V137.703H260.138V140.841C260.138 142.149 260.925 142.946 262.121 142.946C262.836 142.946 263.398 142.68 263.776 142.077V142.813H264.666V137.703H263.776ZM268.421 142.946C269.422 142.946 270.291 142.414 270.72 141.617L269.964 141.178C269.678 141.709 269.116 142.067 268.421 142.067C267.399 142.067 266.622 141.28 266.622 140.258C266.622 139.226 267.399 138.439 268.421 138.439C269.105 138.439 269.678 138.797 269.933 139.338L270.679 138.909C270.291 138.102 269.432 137.57 268.421 137.57C266.878 137.57 265.733 138.746 265.733 140.258C265.733 141.77 266.878 142.946 268.421 142.946ZM274.142 137.57C273.427 137.57 272.865 137.836 272.487 138.439V135.659H271.598V142.813H272.487V140.105C272.487 138.899 273.151 138.419 273.969 138.419C274.756 138.419 275.236 138.889 275.236 139.727V142.813H276.125V139.676C276.125 138.367 275.338 137.57 274.142 137.57ZM282.323 142.946C283.815 142.946 285.021 141.77 285.021 140.258C285.021 138.746 283.815 137.57 282.323 137.57C280.831 137.57 279.635 138.746 279.635 140.258C279.635 141.77 280.831 142.946 282.323 142.946ZM282.323 142.077C281.311 142.077 280.524 141.29 280.524 140.258C280.524 139.226 281.311 138.439 282.323 138.439C283.345 138.439 284.131 139.226 284.131 140.258C284.131 141.29 283.345 142.077 282.323 142.077ZM288.505 136.385V135.526C287.044 135.424 286.267 136.191 286.267 137.55V137.703H285.45V138.562H286.267V142.813H287.156V138.562H288.505V137.703H287.156V137.55C287.156 136.661 287.616 136.313 288.505 136.385ZM295.304 137.703L293.832 141.709L292.095 137.703H291.144L293.372 142.792L293.28 142.987C293.015 143.661 292.585 144.08 291.901 144.029V144.857C292.943 144.928 293.74 144.274 294.169 143.13L296.254 137.703H295.304ZM299.199 142.946C300.691 142.946 301.896 141.77 301.896 140.258C301.896 138.746 300.691 137.57 299.199 137.57C297.706 137.57 296.511 138.746 296.511 140.258C296.511 141.77 297.706 142.946 299.199 142.946ZM299.199 142.077C298.187 142.077 297.4 141.29 297.4 140.258C297.4 139.226 298.187 138.439 299.199 138.439C300.22 138.439 301.007 139.226 301.007 140.258C301.007 141.29 300.22 142.077 299.199 142.077ZM306.47 137.703V140.411C306.47 141.617 305.806 142.098 304.988 142.098C304.202 142.098 303.721 141.627 303.721 140.789V137.703H302.832V140.841C302.832 142.149 303.619 142.946 304.815 142.946C305.53 142.946 306.092 142.68 306.47 142.077V142.813H307.359V137.703H306.47ZM309.602 138.562V137.703H308.713V142.813H309.602V140.105C309.602 138.899 310.43 138.511 311.196 138.541V137.611C310.552 137.611 309.929 137.846 309.602 138.562ZM317.442 137.57C316.573 137.57 315.919 137.959 315.51 138.582V137.703H314.621V144.857H315.51V141.934C315.919 142.557 316.573 142.946 317.442 142.946C318.862 142.946 320.027 141.77 320.027 140.258C320.027 138.746 318.862 137.57 317.442 137.57ZM317.329 142.087C316.297 142.087 315.51 141.3 315.51 140.258C315.51 139.216 316.297 138.429 317.329 138.429C318.351 138.429 319.138 139.216 319.138 140.258C319.138 141.3 318.351 142.087 317.329 142.087ZM321.711 140.667H325.993C326.014 140.534 326.024 140.401 326.024 140.268C326.024 138.838 325.022 137.57 323.479 137.57C321.885 137.57 320.802 138.746 320.802 140.258C320.802 141.791 321.895 142.946 323.541 142.946C324.562 142.946 325.339 142.486 325.789 141.791L325.033 141.362C324.777 141.781 324.266 142.108 323.561 142.108C322.611 142.108 321.885 141.587 321.711 140.667ZM323.479 138.408C324.246 138.408 324.971 138.878 325.125 139.89H321.711C321.854 139.001 322.519 138.408 323.479 138.408ZM327.935 138.562V137.703H327.046V142.813H327.935V140.105C327.935 138.899 328.763 138.511 329.529 138.541V137.611C328.885 137.611 328.262 137.846 327.935 138.562ZM330.976 139.083C330.976 138.623 331.426 138.398 331.885 138.398C332.335 138.398 332.785 138.592 332.979 139.052L333.725 138.633C333.398 137.969 332.723 137.57 331.885 137.57C330.853 137.57 330.077 138.194 330.077 139.093C330.077 140.943 332.938 140.319 332.938 141.413C332.938 141.914 332.468 142.108 331.926 142.108C331.293 142.108 330.823 141.801 330.659 141.311L329.893 141.75C330.189 142.455 330.904 142.946 331.926 142.946C333.02 142.946 333.837 142.363 333.837 141.413C333.837 139.532 330.976 140.176 330.976 139.083ZM337.152 142.946C338.644 142.946 339.85 141.77 339.85 140.258C339.85 138.746 338.644 137.57 337.152 137.57C335.66 137.57 334.464 138.746 334.464 140.258C334.464 141.77 335.66 142.946 337.152 142.946ZM337.152 142.077C336.14 142.077 335.353 141.29 335.353 140.258C335.353 139.226 336.14 138.439 337.152 138.439C338.174 138.439 338.961 139.226 338.961 140.258C338.961 141.29 338.174 142.077 337.152 142.077ZM343.443 137.57C342.727 137.57 342.165 137.836 341.787 138.439V137.703H340.898V142.813H341.787V140.105C341.787 138.899 342.451 138.419 343.269 138.419C344.056 138.419 344.536 138.889 344.536 139.727V142.813H345.425V139.676C345.425 138.367 344.638 137.57 343.443 137.57ZM350.897 137.703V138.582C350.488 137.959 349.834 137.57 348.966 137.57C347.545 137.57 346.38 138.746 346.38 140.258C346.38 141.77 347.545 142.946 348.966 142.946C349.834 142.946 350.488 142.557 350.897 141.934V142.813H351.786V137.703H350.897ZM349.078 142.087C348.056 142.087 347.269 141.3 347.269 140.258C347.269 139.216 348.056 138.429 349.078 138.429C350.11 138.429 350.897 139.216 350.897 140.258C350.897 141.3 350.11 142.087 349.078 142.087ZM353.133 142.813H354.022V135.353H353.133V142.813ZM36.1241 153.773C36.4511 153.773 36.7169 153.508 36.7169 153.181C36.7169 152.853 36.4511 152.578 36.1241 152.578C35.7869 152.578 35.5212 152.853 35.5212 153.181C35.5212 153.508 35.7869 153.773 36.1241 153.773ZM35.6745 159.813H36.5636V154.703H35.6745V159.813ZM40.4646 154.57C39.7492 154.57 39.1871 154.836 38.809 155.439V154.703H37.9199V159.813H38.809V157.105C38.809 155.899 39.4733 155.419 40.2908 155.419C41.0777 155.419 41.558 155.889 41.558 156.727V159.813H42.4471V156.676C42.4471 155.367 41.6602 154.57 40.4646 154.57ZM46.3147 153.385V152.526C44.8533 152.424 44.0766 153.191 44.0766 154.55V154.703H43.2591V155.562H44.0766V159.813H44.9657V155.562H46.3147V154.703H44.9657V154.55C44.9657 153.661 45.4256 153.313 46.3147 153.385ZM49.1137 159.946C50.6058 159.946 51.8116 158.77 51.8116 157.258C51.8116 155.746 50.6058 154.57 49.1137 154.57C47.6217 154.57 46.426 155.746 46.426 157.258C46.426 158.77 47.6217 159.946 49.1137 159.946ZM49.1137 159.077C48.102 159.077 47.3151 158.29 47.3151 157.258C47.3151 156.226 48.102 155.439 49.1137 155.439C50.1357 155.439 50.9226 156.226 50.9226 157.258C50.9226 158.29 50.1357 159.077 49.1137 159.077ZM53.7488 155.562V154.703H52.8598V159.813H53.7488V157.105C53.7488 155.899 54.5766 155.511 55.3431 155.541V154.611C54.6992 154.611 54.0759 154.846 53.7488 155.562ZM61.7314 154.57C61.0672 154.57 60.4847 154.856 60.127 155.439C59.8306 154.887 59.3197 154.57 58.6248 154.57C58.0014 154.57 57.47 154.816 57.1021 155.388V154.703H56.213V159.813H57.1021V156.972C57.1021 155.868 57.7255 155.419 58.4101 155.419C59.0744 155.419 59.4934 155.858 59.4934 156.665V159.813H60.3825V156.972C60.3825 155.868 60.9241 155.419 61.6395 155.419C62.3139 155.419 62.7636 155.858 62.7636 156.665V159.813H63.6527V156.635C63.6527 155.357 62.8658 154.57 61.7314 154.57ZM69.1163 154.703V155.582C68.7075 154.959 68.0535 154.57 67.1848 154.57C65.7643 154.57 64.5993 155.746 64.5993 157.258C64.5993 158.77 65.7643 159.946 67.1848 159.946C68.0535 159.946 68.7075 159.557 69.1163 158.934V159.813H70.0054V154.703H69.1163ZM67.2972 159.087C66.2753 159.087 65.4884 158.3 65.4884 157.258C65.4884 156.216 66.2753 155.429 67.2972 155.429C68.3294 155.429 69.1163 156.216 69.1163 157.258C69.1163 158.3 68.3294 159.087 67.2972 159.087ZM74.1321 155.562V154.703H72.7729V153.272L71.8838 153.538V154.703H70.8721V155.562H71.8838V158.331C71.8838 159.608 72.5992 160.017 74.1321 159.813V159.016C73.2225 159.057 72.7729 159.108 72.7729 158.331V155.562H74.1321ZM75.6343 153.773C75.9613 153.773 76.227 153.508 76.227 153.181C76.227 152.853 75.9613 152.578 75.6343 152.578C75.2971 152.578 75.0314 152.853 75.0314 153.181C75.0314 153.508 75.2971 153.773 75.6343 153.773ZM75.1847 159.813H76.0737V154.703H75.1847V159.813ZM79.8317 159.946C81.3237 159.946 82.5296 158.77 82.5296 157.258C82.5296 155.746 81.3237 154.57 79.8317 154.57C78.3396 154.57 77.144 155.746 77.144 157.258C77.144 158.77 78.3396 159.946 79.8317 159.946ZM79.8317 159.077C78.82 159.077 78.0331 158.29 78.0331 157.258C78.0331 156.226 78.82 155.439 79.8317 155.439C80.8536 155.439 81.6405 156.226 81.6405 157.258C81.6405 158.29 80.8536 159.077 79.8317 159.077ZM86.1223 154.57C85.407 154.57 84.8449 154.836 84.4668 155.439V154.703H83.5777V159.813H84.4668V157.105C84.4668 155.899 85.131 155.419 85.9486 155.419C86.7355 155.419 87.2158 155.889 87.2158 156.727V159.813H88.1049V156.676C88.1049 155.367 87.318 154.57 86.1223 154.57ZM92.3505 153.773C92.6776 153.773 92.9433 153.508 92.9433 153.181C92.9433 152.853 92.6776 152.578 92.3505 152.578C92.0133 152.578 91.7476 152.853 91.7476 153.181C91.7476 153.508 92.0133 153.773 92.3505 153.773ZM91.9009 159.813H92.79V154.703H91.9009V159.813ZM94.9028 156.083C94.9028 155.623 95.3525 155.398 95.8124 155.398C96.262 155.398 96.7117 155.592 96.9058 156.052L97.6518 155.633C97.3248 154.969 96.6503 154.57 95.8124 154.57C94.7802 154.57 94.0035 155.194 94.0035 156.093C94.0035 157.943 96.8649 157.319 96.8649 158.413C96.8649 158.914 96.3949 159.108 95.8532 159.108C95.2196 159.108 94.7495 158.801 94.586 158.311L93.8196 158.75C94.1159 159.455 94.8313 159.946 95.8532 159.946C96.9467 159.946 97.7642 159.363 97.7642 158.413C97.7642 156.532 94.9028 157.176 94.9028 156.083ZM102.138 156.083C102.138 155.623 102.588 155.398 103.048 155.398C103.497 155.398 103.947 155.592 104.141 156.052L104.887 155.633C104.56 154.969 103.886 154.57 103.048 154.57C102.016 154.57 101.239 155.194 101.239 156.093C101.239 157.943 104.1 157.319 104.1 158.413C104.1 158.914 103.63 159.108 103.089 159.108C102.455 159.108 101.985 158.801 101.821 158.311L101.055 158.75C101.351 159.455 102.067 159.946 103.089 159.946C104.182 159.946 105 159.363 105 158.413C105 156.532 102.138 157.176 102.138 156.083ZM108.547 154.57C107.832 154.57 107.27 154.836 106.891 155.439V152.659H106.002V159.813H106.891V157.105C106.891 155.899 107.556 155.419 108.373 155.419C109.16 155.419 109.64 155.889 109.64 156.727V159.813H110.53V156.676C110.53 155.367 109.743 154.57 108.547 154.57ZM116.002 154.703V155.582C115.593 154.959 114.939 154.57 114.07 154.57C112.65 154.57 111.485 155.746 111.485 157.258C111.485 158.77 112.65 159.946 114.07 159.946C114.939 159.946 115.593 159.557 116.002 158.934V159.813H116.891V154.703H116.002ZM114.183 159.087C113.161 159.087 112.374 158.3 112.374 157.258C112.374 156.216 113.161 155.429 114.183 155.429C115.215 155.429 116.002 156.216 116.002 157.258C116.002 158.3 115.215 159.087 114.183 159.087ZM119.127 155.562V154.703H118.238V159.813H119.127V157.105C119.127 155.899 119.955 155.511 120.721 155.541V154.611C120.077 154.611 119.454 154.846 119.127 155.562ZM121.935 157.667H126.217C126.237 157.534 126.247 157.401 126.247 157.268C126.247 155.838 125.246 154.57 123.703 154.57C122.109 154.57 121.025 155.746 121.025 157.258C121.025 158.791 122.119 159.946 123.764 159.946C124.786 159.946 125.563 159.486 126.012 158.791L125.256 158.362C125.001 158.781 124.49 159.108 123.785 159.108C122.834 159.108 122.109 158.587 121.935 157.667ZM123.703 155.408C124.469 155.408 125.195 155.878 125.348 156.89H121.935C122.078 156.001 122.742 155.408 123.703 155.408ZM131.49 152.659V155.582C131.082 154.959 130.427 154.57 129.559 154.57C128.138 154.57 126.973 155.746 126.973 157.258C126.973 158.77 128.138 159.946 129.559 159.946C130.427 159.946 131.082 159.557 131.49 158.934V159.813H132.379V152.659H131.49ZM129.671 159.087C128.649 159.087 127.862 158.3 127.862 157.258C127.862 156.216 128.649 155.429 129.671 155.429C130.703 155.429 131.49 156.216 131.49 157.258C131.49 158.3 130.703 159.087 129.671 159.087ZM138.683 159.946C140.175 159.946 141.381 158.77 141.381 157.258C141.381 155.746 140.175 154.57 138.683 154.57C137.191 154.57 135.995 155.746 135.995 157.258C135.995 158.77 137.191 159.946 138.683 159.946ZM138.683 159.077C137.671 159.077 136.884 158.29 136.884 157.258C136.884 156.226 137.671 155.439 138.683 155.439C139.705 155.439 140.492 156.226 140.492 157.258C140.492 158.29 139.705 159.077 138.683 159.077ZM144.973 154.57C144.258 154.57 143.696 154.836 143.318 155.439V154.703H142.429V159.813H143.318V157.105C143.318 155.899 143.982 155.419 144.8 155.419C145.587 155.419 146.067 155.889 146.067 156.727V159.813H146.956V156.676C146.956 155.367 146.169 154.57 144.973 154.57ZM148.197 159.813H149.086V152.353H148.197V159.813ZM150.892 153.773C151.219 153.773 151.485 153.508 151.485 153.181C151.485 152.853 151.219 152.578 150.892 152.578C150.555 152.578 150.289 152.853 150.289 153.181C150.289 153.508 150.555 153.773 150.892 153.773ZM150.443 159.813H151.332V154.703H150.443V159.813ZM155.233 154.57C154.517 154.57 153.955 154.836 153.577 155.439V154.703H152.688V159.813H153.577V157.105C153.577 155.899 154.241 155.419 155.059 155.419C155.846 155.419 156.326 155.889 156.326 156.727V159.813H157.215V156.676C157.215 155.367 156.428 154.57 155.233 154.57ZM159.08 157.667H163.362C163.382 157.534 163.392 157.401 163.392 157.268C163.392 155.838 162.391 154.57 160.848 154.57C159.254 154.57 158.17 155.746 158.17 157.258C158.17 158.791 159.264 159.946 160.909 159.946C161.931 159.946 162.708 159.486 163.157 158.791L162.401 158.362C162.146 158.781 161.635 159.108 160.93 159.108C159.979 159.108 159.254 158.587 159.08 157.667ZM160.848 155.408C161.614 155.408 162.34 155.878 162.493 156.89H159.08C159.223 156.001 159.887 155.408 160.848 155.408ZM164.567 159.925C164.945 159.925 165.232 159.629 165.232 159.261C165.232 158.893 164.945 158.597 164.567 158.597C164.199 158.597 163.903 158.893 163.903 159.261C163.903 159.629 164.199 159.925 164.567 159.925ZM172.458 159.946C174.533 159.946 176.168 158.29 176.168 156.236C176.168 154.172 174.533 152.526 172.458 152.526C170.384 152.526 168.759 154.172 168.759 156.236C168.759 158.29 170.384 159.946 172.458 159.946ZM172.458 159.016C170.895 159.016 169.699 157.8 169.699 156.236C169.699 154.662 170.895 153.446 172.458 153.446C174.022 153.446 175.218 154.662 175.218 156.236C175.218 157.8 174.022 159.016 172.458 159.016ZM180.794 154.703V157.411C180.794 158.617 180.13 159.098 179.312 159.098C178.525 159.098 178.045 158.627 178.045 157.789V154.703H177.156V157.841C177.156 159.149 177.943 159.946 179.139 159.946C179.854 159.946 180.416 159.68 180.794 159.077V159.813H181.683V154.703H180.794ZM183.926 155.562V154.703H183.037V159.813H183.926V157.105C183.926 155.899 184.754 155.511 185.52 155.541V154.611C184.876 154.611 184.253 154.846 183.926 155.562ZM190.58 159.813H191.684L193.38 154.1L195.076 159.813H196.18L198.234 152.659H197.233L195.598 158.546L193.86 152.659H192.9L191.162 158.546L189.527 152.659H188.526L190.58 159.813ZM203.681 152.659V155.694H200.207V152.659H199.256V159.813H200.207V156.594H203.681V159.813H204.621V152.659H203.681ZM209.474 159.946C211.548 159.946 213.183 158.29 213.183 156.236C213.183 154.172 211.548 152.526 209.474 152.526C207.399 152.526 205.774 154.172 205.774 156.236C205.774 158.29 207.399 159.946 209.474 159.946ZM209.474 159.016C207.91 159.016 206.714 157.8 206.714 156.236C206.714 154.662 207.91 153.446 209.474 153.446C211.037 153.446 212.233 154.662 212.233 156.236C212.233 157.8 211.037 159.016 209.474 159.016ZM214.326 152.659V159.813H215.276V152.659H214.326ZM219.011 159.946C220.472 159.946 221.484 159.149 221.484 157.892C221.484 156.512 220.308 156.144 219.062 155.735C218.06 155.419 217.559 155.173 217.559 154.509C217.559 153.855 218.091 153.446 218.857 153.446C219.726 153.446 220.227 153.937 220.482 154.55L221.279 154.09C220.881 153.191 220.032 152.526 218.857 152.526C217.662 152.526 216.609 153.262 216.609 154.55C216.609 155.878 217.713 156.236 218.857 156.604C219.91 156.931 220.543 157.176 220.543 157.912C220.543 158.556 220.043 159.016 219.031 159.016C217.989 159.016 217.375 158.505 217.12 157.718L216.302 158.188C216.681 159.261 217.651 159.946 219.011 159.946ZM227.954 152.659H225.164V159.813H227.954C229.926 159.813 231.347 158.219 231.347 156.236C231.347 154.254 229.926 152.659 227.954 152.659ZM227.954 158.914H226.114V153.559H227.954C229.425 153.559 230.437 154.724 230.437 156.236C230.437 157.749 229.425 158.914 227.954 158.914ZM234.809 159.946C236.301 159.946 237.507 158.77 237.507 157.258C237.507 155.746 236.301 154.57 234.809 154.57C233.317 154.57 232.121 155.746 232.121 157.258C232.121 158.77 233.317 159.946 234.809 159.946ZM234.809 159.077C233.797 159.077 233.01 158.29 233.01 157.258C233.01 156.226 233.797 155.439 234.809 155.439C235.831 155.439 236.617 156.226 236.617 157.258C236.617 158.29 235.831 159.077 234.809 159.077ZM244.073 154.57C243.409 154.57 242.826 154.856 242.469 155.439C242.172 154.887 241.661 154.57 240.966 154.57C240.343 154.57 239.812 154.816 239.444 155.388V154.703H238.555V159.813H239.444V156.972C239.444 155.868 240.067 155.419 240.752 155.419C241.416 155.419 241.835 155.858 241.835 156.665V159.813H242.724V156.972C242.724 155.868 243.266 155.419 243.981 155.419C244.656 155.419 245.105 155.858 245.105 156.665V159.813H245.994V156.635C245.994 155.357 245.207 154.57 244.073 154.57ZM251.458 154.703V155.582C251.049 154.959 250.395 154.57 249.526 154.57C248.106 154.57 246.941 155.746 246.941 157.258C246.941 158.77 248.106 159.946 249.526 159.946C250.395 159.946 251.049 159.557 251.458 158.934V159.813H252.347V154.703H251.458ZM249.639 159.087C248.617 159.087 247.83 158.3 247.83 157.258C247.83 156.216 248.617 155.429 249.639 155.429C250.671 155.429 251.458 156.216 251.458 157.258C251.458 158.3 250.671 159.087 249.639 159.087ZM254.144 153.773C254.471 153.773 254.736 153.508 254.736 153.181C254.736 152.853 254.471 152.578 254.144 152.578C253.806 152.578 253.541 152.853 253.541 153.181C253.541 153.508 253.806 153.773 254.144 153.773ZM253.694 159.813H254.583V154.703H253.694V159.813ZM258.484 154.57C257.769 154.57 257.207 154.836 256.829 155.439V154.703H255.94V159.813H256.829V157.105C256.829 155.899 257.493 155.419 258.31 155.419C259.097 155.419 259.578 155.889 259.578 156.727V159.813H260.467V156.676C260.467 155.367 259.68 154.57 258.484 154.57ZM266.95 152.659H264.355V159.813H265.305V157.258H266.95C268.269 157.258 269.26 156.257 269.26 154.959C269.26 153.651 268.269 152.659 266.95 152.659ZM266.95 156.369H265.305V153.548H266.95C267.737 153.548 268.32 154.141 268.32 154.959C268.32 155.766 267.737 156.369 266.95 156.369ZM271.07 155.562V154.703H270.181V159.813H271.07V157.105C271.07 155.899 271.898 155.511 272.664 155.541V154.611C272.02 154.611 271.397 154.846 271.07 155.562ZM273.984 153.773C274.311 153.773 274.576 153.508 274.576 153.181C274.576 152.853 274.311 152.578 273.984 152.578C273.646 152.578 273.381 152.853 273.381 153.181C273.381 153.508 273.646 153.773 273.984 153.773ZM273.534 159.813H274.423V154.703H273.534V159.813ZM279.356 154.703L277.752 158.862L276.147 154.703H275.187L277.231 159.813H278.273L280.317 154.703H279.356ZM285.1 154.703V155.582C284.691 154.959 284.037 154.57 283.169 154.57C281.748 154.57 280.583 155.746 280.583 157.258C280.583 158.77 281.748 159.946 283.169 159.946C284.037 159.946 284.691 159.557 285.1 158.934V159.813H285.989V154.703H285.1ZM283.281 159.087C282.259 159.087 281.472 158.3 281.472 157.258C281.472 156.216 282.259 155.429 283.281 155.429C284.313 155.429 285.1 156.216 285.1 157.258C285.1 158.3 284.313 159.087 283.281 159.087ZM289.738 159.946C290.739 159.946 291.608 159.414 292.037 158.617L291.281 158.178C290.995 158.709 290.433 159.067 289.738 159.067C288.716 159.067 287.939 158.28 287.939 157.258C287.939 156.226 288.716 155.439 289.738 155.439C290.422 155.439 290.995 155.797 291.25 156.338L291.996 155.909C291.608 155.102 290.749 154.57 289.738 154.57C288.195 154.57 287.05 155.746 287.05 157.258C287.05 158.77 288.195 159.946 289.738 159.946ZM296.491 154.703L295.02 158.709L293.282 154.703H292.332L294.56 159.792L294.468 159.987C294.202 160.661 293.773 161.08 293.088 161.029V161.857C294.131 161.928 294.928 161.274 295.357 160.13L297.442 154.703H296.491ZM301.189 153.773C301.516 153.773 301.781 153.508 301.781 153.181C301.781 152.853 301.516 152.578 301.189 152.578C300.851 152.578 300.586 152.853 300.586 153.181C300.586 153.508 300.851 153.773 301.189 153.773ZM300.739 159.813H301.628V154.703H300.739V159.813ZM303.741 156.083C303.741 155.623 304.191 155.398 304.65 155.398C305.1 155.398 305.55 155.592 305.744 156.052L306.49 155.633C306.163 154.969 305.488 154.57 304.65 154.57C303.618 154.57 302.842 155.194 302.842 156.093C302.842 157.943 305.703 157.319 305.703 158.413C305.703 158.914 305.233 159.108 304.691 159.108C304.058 159.108 303.588 158.801 303.424 158.311L302.658 158.75C302.954 159.455 303.669 159.946 304.691 159.946C305.785 159.946 306.602 159.363 306.602 158.413C306.602 156.532 303.741 157.176 303.741 156.083ZM310.66 153.773C310.987 153.773 311.252 153.508 311.252 153.181C311.252 152.853 310.987 152.578 310.66 152.578C310.322 152.578 310.057 152.853 310.057 153.181C310.057 153.508 310.322 153.773 310.66 153.773ZM310.21 159.813H311.099V154.703H310.21V159.813ZM315 154.57C314.285 154.57 313.723 154.836 313.344 155.439V154.703H312.455V159.813H313.344V157.105C313.344 155.899 314.009 155.419 314.826 155.419C315.613 155.419 316.093 155.889 316.093 156.727V159.813H316.983V156.676C316.983 155.367 316.196 154.57 315 154.57ZM320.625 159.946C321.627 159.946 322.495 159.414 322.925 158.617L322.168 158.178C321.882 158.709 321.32 159.067 320.625 159.067C319.603 159.067 318.827 158.28 318.827 157.258C318.827 156.226 319.603 155.439 320.625 155.439C321.31 155.439 321.882 155.797 322.138 156.338L322.884 155.909C322.495 155.102 321.637 154.57 320.625 154.57C319.082 154.57 317.938 155.746 317.938 157.258C317.938 158.77 319.082 159.946 320.625 159.946ZM323.802 159.813H324.692V152.353H323.802V159.813ZM329.574 154.703V157.411C329.574 158.617 328.909 159.098 328.092 159.098C327.305 159.098 326.825 158.627 326.825 157.789V154.703H325.935V157.841C325.935 159.149 326.722 159.946 327.918 159.946C328.633 159.946 329.195 159.68 329.574 159.077V159.813H330.463V154.703H329.574ZM336.047 152.659V155.582C335.638 154.959 334.984 154.57 334.116 154.57C332.695 154.57 331.53 155.746 331.53 157.258C331.53 158.77 332.695 159.946 334.116 159.946C334.984 159.946 335.638 159.557 336.047 158.934V159.813H336.936V152.659H336.047ZM334.228 159.087C333.206 159.087 332.419 158.3 332.419 157.258C332.419 156.216 333.206 155.429 334.228 155.429C335.26 155.429 336.047 156.216 336.047 157.258C336.047 158.3 335.26 159.087 334.228 159.087ZM338.907 157.667H343.188C343.209 157.534 343.219 157.401 343.219 157.268C343.219 155.838 342.218 154.57 340.675 154.57C339.08 154.57 337.997 155.746 337.997 157.258C337.997 158.791 339.091 159.946 340.736 159.946C341.758 159.946 342.534 159.486 342.984 158.791L342.228 158.362C341.972 158.781 341.461 159.108 340.756 159.108C339.806 159.108 339.08 158.587 338.907 157.667ZM340.675 155.408C341.441 155.408 342.167 155.878 342.32 156.89H338.907C339.05 156.001 339.714 155.408 340.675 155.408ZM348.462 152.659V155.582C348.053 154.959 347.399 154.57 346.531 154.57C345.11 154.57 343.945 155.746 343.945 157.258C343.945 158.77 345.11 159.946 346.531 159.946C347.399 159.946 348.053 159.557 348.462 158.934V159.813H349.351V152.659H348.462ZM346.643 159.087C345.621 159.087 344.834 158.3 344.834 157.258C344.834 156.216 345.621 155.429 346.643 155.429C347.675 155.429 348.462 156.216 348.462 157.258C348.462 158.3 347.675 159.087 346.643 159.087ZM39.9053 171.703V172.582C39.4965 171.959 38.8425 171.57 37.9738 171.57C36.5533 171.57 35.3883 172.746 35.3883 174.258C35.3883 175.77 36.5533 176.946 37.9738 176.946C38.8425 176.946 39.4965 176.557 39.9053 175.934V176.813H40.7944V171.703H39.9053ZM38.0862 176.087C37.0643 176.087 36.2774 175.3 36.2774 174.258C36.2774 173.216 37.0643 172.429 38.0862 172.429C39.1184 172.429 39.9053 173.216 39.9053 174.258C39.9053 175.3 39.1184 176.087 38.0862 176.087ZM44.9211 172.562V171.703H43.5619V170.272L42.6728 170.538V171.703H41.6611V172.562H42.6728V175.331C42.6728 176.608 43.3882 177.017 44.9211 176.813V176.016C44.0116 176.057 43.5619 176.108 43.5619 175.331V172.562H44.9211ZM53.0958 169.659V174.994L49.4169 169.659H48.6504V176.813H49.6008V171.468L53.2798 176.813H54.0462V169.659H53.0958ZM58.8977 176.946C60.9723 176.946 62.6074 175.29 62.6074 173.236C62.6074 171.172 60.9723 169.526 58.8977 169.526C56.8232 169.526 55.1983 171.172 55.1983 173.236C55.1983 175.29 56.8232 176.946 58.8977 176.946ZM58.8977 176.016C57.3342 176.016 56.1385 174.8 56.1385 173.236C56.1385 171.662 57.3342 170.446 58.8977 170.446C60.4613 170.446 61.657 171.662 61.657 173.236C61.657 174.8 60.4613 176.016 58.8977 176.016ZM69.6669 176.946C70.9954 176.946 72.1605 176.251 72.7532 175.198L71.9254 174.728C71.5166 175.505 70.648 176.016 69.6669 176.016C67.991 176.016 66.8668 174.8 66.8668 173.236C66.8668 171.662 67.991 170.446 69.6669 170.446C70.648 170.446 71.5166 170.957 71.9254 171.744L72.7532 171.264C72.1502 170.211 70.9852 169.526 69.6669 169.526C67.48 169.526 65.9266 171.172 65.9266 173.236C65.9266 175.29 67.48 176.946 69.6669 176.946ZM77.1309 176.946C79.2054 176.946 80.8405 175.29 80.8405 173.236C80.8405 171.172 79.2054 169.526 77.1309 169.526C75.0564 169.526 73.4315 171.172 73.4315 173.236C73.4315 175.29 75.0564 176.946 77.1309 176.946ZM77.1309 176.016C75.5673 176.016 74.3717 174.8 74.3717 173.236C74.3717 171.662 75.5673 170.446 77.1309 170.446C78.6945 170.446 79.8901 171.662 79.8901 173.236C79.8901 174.8 78.6945 176.016 77.1309 176.016ZM84.0332 176.946C85.4946 176.946 86.5063 176.149 86.5063 174.892C86.5063 173.512 85.331 173.144 84.0843 172.735C83.0828 172.419 82.582 172.173 82.582 171.509C82.582 170.855 83.1134 170.446 83.8799 170.446C84.7485 170.446 85.2493 170.937 85.5048 171.55L86.3019 171.09C85.9033 170.191 85.0551 169.526 83.8799 169.526C82.6842 169.526 81.6316 170.262 81.6316 171.55C81.6316 172.878 82.7353 173.236 83.8799 173.604C84.9325 173.931 85.5661 174.176 85.5661 174.912C85.5661 175.556 85.0653 176.016 84.0536 176.016C83.0113 176.016 82.3981 175.505 82.1426 174.718L81.3251 175.188C81.7032 176.261 82.674 176.946 84.0332 176.946ZM91.9505 169.659H86.7897V170.559H88.8949V176.813H89.8351V170.559H91.9505V169.659ZM96.3963 177.835H97.2854C96.57 176.404 96.1612 174.871 96.1612 173.236C96.1612 171.601 96.57 170.068 97.2854 168.637H96.3963C95.6809 170.068 95.2722 171.601 95.2722 173.236C95.2722 174.871 95.6809 176.404 96.3963 177.835ZM100.845 170.385V169.526C99.3831 169.424 98.6065 170.191 98.6065 171.55V171.703H97.7889V172.562H98.6065V176.813H99.4956V172.562H100.845V171.703H99.4956V171.55C99.4956 170.661 99.9554 170.313 100.845 170.385ZM103.644 176.946C105.136 176.946 106.341 175.77 106.341 174.258C106.341 172.746 105.136 171.57 103.644 171.57C102.152 171.57 100.956 172.746 100.956 174.258C100.956 175.77 102.152 176.946 103.644 176.946ZM103.644 176.077C102.632 176.077 101.845 175.29 101.845 174.258C101.845 173.226 102.632 172.439 103.644 172.439C104.666 172.439 105.452 173.226 105.452 174.258C105.452 175.29 104.666 176.077 103.644 176.077ZM108.279 172.562V171.703H107.39V176.813H108.279V174.105C108.279 172.899 109.106 172.511 109.873 172.541V171.611C109.229 171.611 108.606 171.846 108.279 172.562ZM116.077 172.562V171.703H114.718V170.272L113.829 170.538V171.703H112.817V172.562H113.829V175.331C113.829 176.608 114.544 177.017 116.077 176.813V176.016C115.168 176.057 114.718 176.108 114.718 175.331V172.562H116.077ZM119.675 171.57C118.959 171.57 118.397 171.836 118.019 172.439V169.659H117.13V176.813H118.019V174.105C118.019 172.899 118.683 172.419 119.501 172.419C120.288 172.419 120.768 172.889 120.768 173.727V176.813H121.657V173.676C121.657 172.367 120.87 171.57 119.675 171.57ZM123.522 174.667H127.804C127.824 174.534 127.834 174.401 127.834 174.268C127.834 172.838 126.833 171.57 125.29 171.57C123.695 171.57 122.612 172.746 122.612 174.258C122.612 175.791 123.706 176.946 125.351 176.946C126.373 176.946 127.15 176.486 127.599 175.791L126.843 175.362C126.587 175.781 126.076 176.108 125.371 176.108C124.421 176.108 123.695 175.587 123.522 174.667ZM125.29 172.408C126.056 172.408 126.782 172.878 126.935 173.89H123.522C123.665 173.001 124.329 172.408 125.29 172.408ZM131.411 176.813H132.3V169.353H131.411V176.813ZM134.106 170.773C134.433 170.773 134.699 170.508 134.699 170.181C134.699 169.853 134.433 169.578 134.106 169.578C133.769 169.578 133.503 169.853 133.503 170.181C133.503 170.508 133.769 170.773 134.106 170.773ZM133.657 176.813H134.546V171.703H133.657V176.813ZM138.528 170.385V169.526C137.067 169.424 136.29 170.191 136.29 171.55V171.703H135.473V172.562H136.29V176.813H137.179V172.562H138.528V171.703H137.179V171.55C137.179 170.661 137.639 170.313 138.528 170.385ZM139.549 174.667H143.831C143.852 174.534 143.862 174.401 143.862 174.268C143.862 172.838 142.86 171.57 141.317 171.57C139.723 171.57 138.64 172.746 138.64 174.258C138.64 175.791 139.733 176.946 141.379 176.946C142.4 176.946 143.177 176.486 143.627 175.791L142.871 175.362C142.615 175.781 142.104 176.108 141.399 176.108C140.449 176.108 139.723 175.587 139.549 174.667ZM141.317 172.408C142.084 172.408 142.809 172.878 142.963 173.89H139.549C139.692 173.001 140.357 172.408 141.317 172.408ZM149.84 176.946C151.332 176.946 152.538 175.77 152.538 174.258C152.538 172.746 151.332 171.57 149.84 171.57C148.348 171.57 147.153 172.746 147.153 174.258C147.153 175.77 148.348 176.946 149.84 176.946ZM149.84 176.077C148.829 176.077 148.042 175.29 148.042 174.258C148.042 173.226 148.829 172.439 149.84 172.439C150.862 172.439 151.649 173.226 151.649 174.258C151.649 175.29 150.862 176.077 149.84 176.077ZM156.023 170.385V169.526C154.562 169.424 153.785 170.191 153.785 171.55V171.703H152.967V172.562H153.785V176.813H154.674V172.562H156.023V171.703H154.674V171.55C154.674 170.661 155.134 170.313 156.023 170.385ZM162.821 171.703L161.35 175.709L159.613 171.703H158.662L160.89 176.792L160.798 176.987C160.532 177.661 160.103 178.08 159.418 178.029V178.857C160.461 178.928 161.258 178.274 161.687 177.13L163.772 171.703H162.821ZM166.716 176.946C168.208 176.946 169.414 175.77 169.414 174.258C169.414 172.746 168.208 171.57 166.716 171.57C165.224 171.57 164.028 172.746 164.028 174.258C164.028 175.77 165.224 176.946 166.716 176.946ZM166.716 176.077C165.704 176.077 164.918 175.29 164.918 174.258C164.918 173.226 165.704 172.439 166.716 172.439C167.738 172.439 168.525 173.226 168.525 174.258C168.525 175.29 167.738 176.077 166.716 176.077ZM173.988 171.703V174.411C173.988 175.617 173.324 176.098 172.506 176.098C171.719 176.098 171.239 175.627 171.239 174.789V171.703H170.35V174.841C170.35 176.149 171.137 176.946 172.332 176.946C173.048 176.946 173.61 176.68 173.988 176.077V176.813H174.877V171.703H173.988ZM177.12 172.562V171.703H176.231V176.813H177.12V174.105C177.12 172.899 177.947 172.511 178.714 172.541V171.611C178.07 171.611 177.447 171.846 177.12 172.562ZM186.369 169.659V172.582C185.961 171.959 185.307 171.57 184.438 171.57C183.017 171.57 181.852 172.746 181.852 174.258C181.852 175.77 183.017 176.946 184.438 176.946C185.307 176.946 185.961 176.557 186.369 175.934V176.813H187.259V169.659H186.369ZM184.55 176.087C183.528 176.087 182.742 175.3 182.742 174.258C182.742 173.216 183.528 172.429 184.55 172.429C185.583 172.429 186.369 173.216 186.369 174.258C186.369 175.3 185.583 176.087 184.55 176.087ZM191.007 176.946C192.499 176.946 193.705 175.77 193.705 174.258C193.705 172.746 192.499 171.57 191.007 171.57C189.515 171.57 188.319 172.746 188.319 174.258C188.319 175.77 189.515 176.946 191.007 176.946ZM191.007 176.077C189.995 176.077 189.208 175.29 189.208 174.258C189.208 173.226 189.995 172.439 191.007 172.439C192.029 172.439 192.816 173.226 192.816 174.258C192.816 175.29 192.029 176.077 191.007 176.077ZM200.272 171.57C199.607 171.57 199.025 171.856 198.667 172.439C198.371 171.887 197.86 171.57 197.165 171.57C196.542 171.57 196.01 171.816 195.642 172.388V171.703H194.753V176.813H195.642V173.972C195.642 172.868 196.266 172.419 196.95 172.419C197.615 172.419 198.034 172.858 198.034 173.665V176.813H198.923V173.972C198.923 172.868 199.464 172.419 200.18 172.419C200.854 172.419 201.304 172.858 201.304 173.665V176.813H202.193V173.635C202.193 172.357 201.406 171.57 200.272 171.57ZM207.656 171.703V172.582C207.248 171.959 206.594 171.57 205.725 171.57C204.304 171.57 203.139 172.746 203.139 174.258C203.139 175.77 204.304 176.946 205.725 176.946C206.594 176.946 207.248 176.557 207.656 175.934V176.813H208.546V171.703H207.656ZM205.837 176.087C204.815 176.087 204.029 175.3 204.029 174.258C204.029 173.216 204.815 172.429 205.837 172.429C206.87 172.429 207.656 173.216 207.656 174.258C207.656 175.3 206.87 176.087 205.837 176.087ZM210.342 170.773C210.669 170.773 210.935 170.508 210.935 170.181C210.935 169.853 210.669 169.578 210.342 169.578C210.005 169.578 209.739 169.853 209.739 170.181C209.739 170.508 210.005 170.773 210.342 170.773ZM209.893 176.813H210.782V171.703H209.893V176.813ZM214.683 171.57C213.967 171.57 213.405 171.836 213.027 172.439V171.703H212.138V176.813H213.027V174.105C213.027 172.899 213.691 172.419 214.509 172.419C215.296 172.419 215.776 172.889 215.776 173.727V176.813H216.665V173.676C216.665 172.367 215.878 171.57 214.683 171.57ZM218.376 177.835C219.092 176.404 219.501 174.871 219.501 173.236C219.501 171.601 219.092 170.068 218.376 168.637H217.487C218.203 170.068 218.611 171.601 218.611 173.236C218.611 174.871 218.203 176.404 217.487 177.835H218.376ZM227.556 171.703V172.582C227.147 171.959 226.493 171.57 225.625 171.57C224.204 171.57 223.039 172.746 223.039 174.258C223.039 175.77 224.204 176.946 225.625 176.946C226.493 176.946 227.147 176.557 227.556 175.934V176.813H228.445V171.703H227.556ZM225.737 176.087C224.715 176.087 223.928 175.3 223.928 174.258C223.928 173.216 224.715 172.429 225.737 172.429C226.769 172.429 227.556 173.216 227.556 174.258C227.556 175.3 226.769 176.087 225.737 176.087ZM232.337 171.57C231.622 171.57 231.06 171.836 230.681 172.439V171.703H229.792V176.813H230.681V174.105C230.681 172.899 231.346 172.419 232.163 172.419C232.95 172.419 233.43 172.889 233.43 173.727V176.813H234.32V173.676C234.32 172.367 233.533 171.57 232.337 171.57ZM239.791 169.659V172.582C239.383 171.959 238.729 171.57 237.86 171.57C236.44 171.57 235.275 172.746 235.275 174.258C235.275 175.77 236.44 176.946 237.86 176.946C238.729 176.946 239.383 176.557 239.791 175.934V176.813H240.681V169.659H239.791ZM237.972 176.087C236.951 176.087 236.164 175.3 236.164 174.258C236.164 173.216 236.951 172.429 237.972 172.429C239.005 172.429 239.791 173.216 239.791 174.258C239.791 175.3 239.005 176.087 237.972 176.087ZM250.602 171.703L249.478 175.597L248.272 171.703H247.413L246.207 175.587L245.083 171.703H244.153L245.737 176.813H246.647L247.842 173.032L249.038 176.813H249.948L251.532 171.703H250.602ZM252.896 170.773C253.223 170.773 253.489 170.508 253.489 170.181C253.489 169.853 253.223 169.578 252.896 169.578C252.559 169.578 252.293 169.853 252.293 170.181C252.293 170.508 252.559 170.773 252.896 170.773ZM252.447 176.813H253.336V171.703H252.447V176.813ZM254.692 176.813H255.581V169.353H254.692V176.813ZM256.937 176.813H257.827V169.353H256.937V176.813ZM262.627 172.562V171.703H261.738V176.813H262.627V174.105C262.627 172.899 263.455 172.511 264.221 172.541V171.611C263.577 171.611 262.954 171.846 262.627 172.562ZM265.435 174.667H269.717C269.737 174.534 269.748 174.401 269.748 174.268C269.748 172.838 268.746 171.57 267.203 171.57C265.609 171.57 264.525 172.746 264.525 174.258C264.525 175.791 265.619 176.946 267.264 176.946C268.286 176.946 269.063 176.486 269.512 175.791L268.756 175.362C268.501 175.781 267.99 176.108 267.285 176.108C266.334 176.108 265.609 175.587 265.435 174.667ZM267.203 172.408C267.969 172.408 268.695 172.878 268.848 173.89H265.435C265.578 173.001 266.242 172.408 267.203 172.408ZM273.314 171.57C272.599 171.57 272.037 171.836 271.659 172.439V171.703H270.77V176.813H271.659V174.105C271.659 172.899 272.323 172.419 273.14 172.419C273.927 172.419 274.408 172.889 274.408 173.727V176.813H275.297V173.676C275.297 172.367 274.51 171.57 273.314 171.57ZM277.161 174.667H281.443C281.464 174.534 281.474 174.401 281.474 174.268C281.474 172.838 280.472 171.57 278.929 171.57C277.335 171.57 276.252 172.746 276.252 174.258C276.252 175.791 277.345 176.946 278.991 176.946C280.012 176.946 280.789 176.486 281.239 175.791L280.483 175.362C280.227 175.781 279.716 176.108 279.011 176.108C278.061 176.108 277.335 175.587 277.161 174.667ZM278.929 172.408C279.696 172.408 280.421 172.878 280.575 173.89H277.161C277.304 173.001 277.969 172.408 278.929 172.408ZM288.315 171.703L287.191 175.597L285.985 171.703H285.127L283.921 175.587L282.797 171.703H281.867L283.451 176.813H284.361L285.556 173.032L286.752 176.813H287.661L289.245 171.703H288.315ZM296.946 171.703V172.582C296.537 171.959 295.883 171.57 295.015 171.57C293.594 171.57 292.429 172.746 292.429 174.258C292.429 175.77 293.594 176.946 295.015 176.946C295.883 176.946 296.537 176.557 296.946 175.934V176.813H297.835V171.703H296.946ZM295.127 176.087C294.105 176.087 293.318 175.3 293.318 174.258C293.318 173.216 294.105 172.429 295.127 172.429C296.159 172.429 296.946 173.216 296.946 174.258C296.946 175.3 296.159 176.087 295.127 176.087ZM302.708 171.703V174.411C302.708 175.617 302.044 176.098 301.226 176.098C300.439 176.098 299.959 175.627 299.959 174.789V171.703H299.07V174.841C299.07 176.149 299.857 176.946 301.052 176.946C301.768 176.946 302.33 176.68 302.708 176.077V176.813H303.597V171.703H302.708ZM307.73 172.562V171.703H306.371V170.272L305.482 170.538V171.703H304.47V172.562H305.482V175.331C305.482 176.608 306.197 177.017 307.73 176.813V176.016C306.821 176.057 306.371 176.108 306.371 175.331V172.562H307.73ZM310.925 176.946C312.417 176.946 313.623 175.77 313.623 174.258C313.623 172.746 312.417 171.57 310.925 171.57C309.433 171.57 308.237 172.746 308.237 174.258C308.237 175.77 309.433 176.946 310.925 176.946ZM310.925 176.077C309.913 176.077 309.126 175.29 309.126 174.258C309.126 173.226 309.913 172.439 310.925 172.439C311.947 172.439 312.734 173.226 312.734 174.258C312.734 175.29 311.947 176.077 310.925 176.077ZM320.189 171.57C319.525 171.57 318.943 171.856 318.585 172.439C318.289 171.887 317.778 171.57 317.083 171.57C316.459 171.57 315.928 171.816 315.56 172.388V171.703H314.671V176.813H315.56V173.972C315.56 172.868 316.183 172.419 316.868 172.419C317.532 172.419 317.951 172.858 317.951 173.665V176.813H318.84V173.972C318.84 172.868 319.382 172.419 320.097 172.419C320.772 172.419 321.221 172.858 321.221 173.665V176.813H322.111V173.635C322.111 172.357 321.324 171.57 320.189 171.57ZM327.574 171.703V172.582C327.165 171.959 326.511 171.57 325.643 171.57C324.222 171.57 323.057 172.746 323.057 174.258C323.057 175.77 324.222 176.946 325.643 176.946C326.511 176.946 327.165 176.557 327.574 175.934V176.813H328.463V171.703H327.574ZM325.755 176.087C324.733 176.087 323.946 175.3 323.946 174.258C323.946 173.216 324.733 172.429 325.755 172.429C326.787 172.429 327.574 173.216 327.574 174.258C327.574 175.3 326.787 176.087 325.755 176.087ZM332.59 172.562V171.703H331.231V170.272L330.342 170.538V171.703H329.33V172.562H330.342V175.331C330.342 176.608 331.057 177.017 332.59 176.813V176.016C331.68 176.057 331.231 176.108 331.231 175.331V172.562H332.59ZM334.092 170.773C334.419 170.773 334.685 170.508 334.685 170.181C334.685 169.853 334.419 169.578 334.092 169.578C333.755 169.578 333.489 169.853 333.489 170.181C333.489 170.508 333.755 170.773 334.092 170.773ZM333.643 176.813H334.532V171.703H333.643V176.813ZM338.29 176.946C339.291 176.946 340.16 176.414 340.589 175.617L339.833 175.178C339.547 175.709 338.984 176.067 338.29 176.067C337.268 176.067 336.491 175.28 336.491 174.258C336.491 173.226 337.268 172.439 338.29 172.439C338.974 172.439 339.547 172.797 339.802 173.338L340.548 172.909C340.16 172.102 339.301 171.57 338.29 171.57C336.746 171.57 335.602 172.746 335.602 174.258C335.602 175.77 336.746 176.946 338.29 176.946ZM345.628 171.703V172.582C345.219 171.959 344.565 171.57 343.696 171.57C342.276 171.57 341.111 172.746 341.111 174.258C341.111 175.77 342.276 176.946 343.696 176.946C344.565 176.946 345.219 176.557 345.628 175.934V176.813H346.517V171.703H345.628ZM343.809 176.087C342.787 176.087 342 175.3 342 174.258C342 173.216 342.787 172.429 343.809 172.429C344.841 172.429 345.628 173.216 345.628 174.258C345.628 175.3 344.841 176.087 343.809 176.087ZM347.864 176.813H348.753V169.353H347.864V176.813ZM350.109 176.813H350.998V169.353H350.109V176.813ZM355.921 171.703L354.45 175.709L352.712 171.703H351.762L353.99 176.792L353.898 176.987C353.632 177.661 353.203 178.08 352.518 178.029V178.857C353.561 178.928 354.358 178.274 354.787 177.13L356.872 171.703H355.921ZM357.248 176.925C357.626 176.925 357.912 176.629 357.912 176.261C357.912 175.893 357.626 175.597 357.248 175.597C356.88 175.597 356.584 175.893 356.584 176.261C356.584 176.629 356.88 176.925 357.248 176.925Z" fill="white"/>
</svg>
