<svg width="604" height="381" viewBox="0 0 604 381" fill="none" xmlns="http://www.w3.org/2000/svg">
<path d="M181.769 147.577H197.042C211.832 147.577 224.302 153.86 224.302 170.777C224.302 185.664 212.122 193.687 198.395 193.687H181.769V147.577ZM191.919 184.214H197.235C206.709 184.214 213.765 180.637 213.765 170.197C213.765 161.11 206.515 156.953 197.912 156.953H191.919V184.214V184.214Z" fill="#071C26"/>
<path d="M229.509 161.981H239.273V167.105H239.369C241.496 163.238 244.203 161.208 248.456 161.208C249.519 161.208 250.776 161.304 251.743 161.498V170.391C250.389 170.005 249.036 169.715 247.586 169.715C240.143 169.715 239.273 173.968 239.273 180.348V193.591H229.509V161.981Z" fill="#071C26"/>
<path d="M284.904 188.178C281.81 192.141 276.687 194.461 271.564 194.461C261.8 194.461 253.97 187.985 253.97 177.835C253.97 167.781 261.8 161.208 271.564 161.208C280.65 161.208 286.354 167.685 286.354 177.835V180.928H263.734C264.507 184.601 267.31 187.018 271.08 187.018C274.27 187.018 276.397 185.375 278.04 183.151L284.904 188.178ZM276.59 174.161C276.687 170.875 274.077 168.168 270.597 168.168C266.344 168.168 263.927 171.068 263.734 174.161H276.59Z" fill="#071C26"/>
<path d="M311.001 189.628H310.904C308.777 193.011 304.814 194.365 300.851 194.365C294.954 194.365 289.637 190.981 289.637 184.601C289.637 173.678 302.881 173.484 311.001 173.484C311.001 170.004 308.101 167.781 304.717 167.781C301.527 167.781 298.821 169.231 296.791 171.551L291.571 166.234C295.147 162.851 300.367 161.111 305.491 161.111C316.897 161.111 319.894 166.911 319.894 177.448V193.495H310.904V189.628H311.001ZM308.584 179.768C305.587 179.768 298.917 180.058 298.917 184.311C298.917 186.631 301.431 187.791 303.557 187.791C307.424 187.791 311.001 185.761 311.001 181.894V179.768H308.584Z" fill="#071C26"/>
<path d="M326.084 161.981H335.461V166.234H335.558C336.815 163.721 340.005 161.111 344.838 161.111C349.285 161.111 352.861 162.948 354.601 166.814C356.921 162.754 359.918 161.111 364.655 161.111C373.258 161.111 375.868 167.201 375.868 174.838V193.495H366.008V175.128C366.008 172.228 364.945 169.714 361.755 169.714C357.308 169.714 355.858 172.904 355.858 176.771V193.495H346.095V176.868C346.095 174.548 346.191 169.811 341.745 169.811C336.621 169.811 335.848 173.774 335.848 177.834V193.591H326.084V161.981Z" fill="#071C26"/>
<path d="M381.958 147.577H392.108V164.687H411.828V147.577H421.978V193.687H411.828V173.677H392.108V193.59H381.958V147.577Z" fill="#071C26"/>
<path d="M443.924 161.208C453.687 161.208 461.517 167.685 461.517 177.835C461.517 187.888 453.687 194.461 443.924 194.461C434.161 194.461 426.331 187.985 426.331 177.835C426.331 167.685 434.161 161.208 443.924 161.208ZM443.924 185.761C448.757 185.761 451.754 182.475 451.754 177.738C451.754 173.001 448.854 169.715 443.924 169.715C439.091 169.715 436.094 173.001 436.094 177.738C436.094 182.571 439.091 185.761 443.924 185.761Z" fill="#071C26"/>
<path d="M483.839 171.261C482.389 169.521 480.552 168.555 478.135 168.555C476.492 168.555 474.559 169.231 474.559 171.165C474.559 175.805 490.992 171.841 490.992 183.925C490.992 191.948 483.162 194.365 476.395 194.365C471.949 194.365 467.115 193.301 463.925 190.111L469.822 183.538C471.659 185.761 473.785 187.018 476.685 187.018C478.909 187.018 481.132 186.438 481.132 184.698C481.132 179.575 464.699 183.925 464.699 171.841C464.699 164.398 471.369 161.208 477.942 161.208C482.099 161.208 486.739 162.271 489.639 165.365L483.839 171.261Z" fill="#071C26"/>
<path d="M517.292 169.81H508.688V180.347C508.688 183.73 509.075 186.244 513.328 186.244C514.392 186.244 516.422 186.147 517.292 185.374V193.494C515.165 194.267 512.748 194.46 510.428 194.46C503.952 194.46 498.925 191.754 498.925 184.89V169.81H492.642V161.98H498.925V152.604H508.688V161.98H517.292V169.81Z" fill="#071C26"/>
<path d="M158.64 207.261C151.812 211.023 144.009 213.113 135.649 212.974C110.846 212.417 91.3389 192.491 91.7569 168.246C91.8962 160.025 94.4043 152.362 98.5845 145.952C85.3473 153.337 76.2903 167.132 76.0116 183.156C75.4542 207.261 95.101 227.326 119.764 227.883C136.206 228.162 150.558 219.941 158.64 207.261Z" fill="#071C26"/>
<path d="M121.778 144C115.09 144 108.82 145.672 103.246 148.738C99.7628 154.45 97.812 160.999 97.5334 167.688C97.1153 188.728 114.254 206.145 135.573 206.563C141.983 206.563 149.228 205.031 154.802 201.965C158.146 196.252 160.097 189.564 160.097 182.458C160.375 161.278 143.097 144 121.778 144Z" fill="#0073EC"/>
<path d="M520.675 147.769C520.675 147.285 520.772 146.802 520.965 146.319C521.159 145.835 521.449 145.545 521.739 145.159C522.029 144.869 522.415 144.579 522.899 144.385C523.285 144.192 523.769 144.095 524.252 144.095C524.735 144.095 525.219 144.192 525.605 144.385C525.992 144.579 526.379 144.772 526.765 145.159C527.055 145.449 527.345 145.835 527.539 146.319C527.732 146.802 527.829 147.189 527.829 147.769C527.829 148.252 527.732 148.735 527.539 149.219C527.345 149.605 527.055 149.992 526.765 150.379C526.475 150.669 526.089 150.959 525.605 151.152C525.219 151.345 524.735 151.442 524.252 151.442C523.769 151.442 523.285 151.345 522.899 151.152C522.512 150.959 522.125 150.765 521.739 150.379C521.449 150.089 521.159 149.702 520.965 149.219C520.772 148.735 520.675 148.252 520.675 147.769ZM521.352 147.769C521.352 148.155 521.449 148.639 521.545 148.929C521.739 149.315 521.932 149.605 522.125 149.895C522.415 150.185 522.705 150.379 523.092 150.572C523.479 150.765 523.865 150.765 524.252 150.765C524.639 150.765 525.025 150.669 525.412 150.572C525.799 150.379 526.089 150.185 526.379 149.895C526.669 149.605 526.862 149.315 526.959 148.929C527.152 148.542 527.152 148.155 527.152 147.769C527.152 147.382 527.055 146.899 526.959 146.609C526.765 146.222 526.572 145.932 526.379 145.642C526.089 145.352 525.799 145.159 525.412 144.965C525.025 144.772 524.639 144.772 524.252 144.772C523.865 144.772 523.479 144.869 523.092 144.965C522.705 145.159 522.415 145.352 522.125 145.642C521.835 145.932 521.642 146.222 521.545 146.609C521.352 146.899 521.352 147.285 521.352 147.769ZM522.899 145.642H524.445C525.412 145.642 525.895 146.029 525.895 146.802C525.895 147.189 525.799 147.479 525.605 147.672C525.412 147.865 525.122 147.962 524.832 147.962L525.992 149.799H525.315L524.155 147.962H523.479V149.799H522.802L522.899 145.642ZM523.479 147.479H524.155C524.252 147.479 524.445 147.479 524.542 147.479C524.639 147.479 524.832 147.479 524.929 147.382C525.025 147.382 525.122 147.285 525.219 147.189C525.315 147.092 525.315 146.995 525.315 146.802C525.315 146.705 525.315 146.512 525.219 146.415C525.122 146.319 525.122 146.222 525.025 146.222C524.929 146.222 524.832 146.125 524.735 146.125C524.639 146.125 524.542 146.125 524.445 146.125H523.575L523.479 147.479Z" fill="#071C26"/>
<path d="M191.199 225.9V214.294H189.755V219.288H182.969V214.294H181.525V225.9H182.969V220.576H189.755V225.9H191.199ZM207.902 226.109C211.33 226.109 213.679 223.534 213.679 220.106C213.679 216.678 211.33 214.103 207.902 214.103C204.474 214.103 202.142 216.678 202.142 220.106C202.142 223.534 204.474 226.109 207.902 226.109ZM207.902 224.822C205.292 224.822 203.639 222.803 203.639 220.106C203.639 217.392 205.292 215.391 207.902 215.391C210.494 215.391 212.182 217.392 212.182 220.106C212.182 222.803 210.494 224.822 207.902 224.822ZM228.376 226.109C231.508 226.109 232.656 224.369 232.656 222.699C232.656 218.366 225.783 219.862 225.783 217.252C225.783 216.156 226.792 215.408 228.167 215.408C229.437 215.408 230.655 215.826 231.525 216.8L232.395 215.739C231.421 214.712 230.046 214.103 228.289 214.103C225.992 214.103 224.287 215.425 224.287 217.339C224.287 221.481 231.16 219.81 231.16 222.803C231.16 223.708 230.498 224.822 228.428 224.822C226.792 224.822 225.539 224.021 224.791 223.151L223.921 224.265C224.878 225.344 226.375 226.109 228.376 226.109ZM247.726 225.9V215.582H251.415V214.294H242.61V215.582H246.282V225.9H247.726ZM263.478 225.9V214.294H262.034V225.9H263.478ZM284.502 225.9V214.294H283.058V223.36L276.376 214.294H274.897V225.9H276.342V216.643L283.11 225.9H284.502ZM301.415 226.127C303.312 226.127 304.895 225.326 305.974 224.108V219.932H300.545V221.22H304.547V223.569C303.956 224.16 302.807 224.822 301.415 224.822C298.875 224.822 296.944 222.855 296.944 220.106C296.944 217.322 298.875 215.391 301.415 215.391C302.807 215.391 304.043 216.052 304.774 216.991L305.922 216.261C304.913 215.008 303.486 214.103 301.415 214.103C298.109 214.103 295.447 216.487 295.447 220.106C295.447 223.708 298.109 226.127 301.415 226.127ZM338.646 225.9L335.514 221.167C337.097 221.028 338.542 219.88 338.542 217.792C338.542 215.652 337.01 214.294 334.888 214.294H330.224V225.9H331.669V221.289H334L336.941 225.9H338.646ZM334.714 220.019H331.669V215.582H334.714C336.088 215.582 337.045 216.469 337.045 217.792C337.045 219.097 336.088 220.019 334.714 220.019ZM357.131 225.9V224.613H350.972V220.611H357.01V219.323H350.972V215.582H357.131V214.294H349.528V225.9H357.131ZM371.475 222.264V221.115H367.299V222.264H371.475ZM383.495 225.9V214.294H382.051V225.9H383.495ZM406.276 225.9V214.294H404.206L400.604 223.238L396.985 214.294H394.914V225.9H396.358V216.139L400.308 225.9H400.9L404.832 216.139V225.9H406.276ZM427.619 225.9L422.956 214.294H421.164L416.483 225.9H418.136L419.163 223.308H424.94L425.966 225.9H427.619ZM424.522 222.038H419.598L422.051 215.773L424.522 222.038ZM442.689 226.127C444.586 226.127 446.169 225.326 447.248 224.108V219.932H441.819V221.22H445.821V223.569C445.23 224.16 444.081 224.822 442.689 224.822C440.149 224.822 438.217 222.855 438.217 220.106C438.217 217.322 440.149 215.391 442.689 215.391C444.081 215.391 445.317 216.052 446.047 216.991L447.196 216.261C446.187 215.008 444.76 214.103 442.689 214.103C439.383 214.103 436.721 216.487 436.721 220.106C436.721 223.708 439.383 226.127 442.689 226.127ZM459.739 225.9V214.294H458.295V225.9H459.739ZM480.763 225.9V214.294H479.319V223.36L472.637 214.294H471.158V225.9H472.603V216.643L479.371 225.9H480.763ZM499.782 225.9V224.613H493.622V220.611H499.66V219.323H493.622V215.582H499.782V214.294H492.178V225.9H499.782ZM514.752 225.9C518.371 225.9 520.703 223.412 520.703 220.106C520.703 216.817 518.371 214.294 514.752 214.294H510.784V225.9H514.752ZM514.752 224.613H512.229V215.582H514.752C517.623 215.582 519.206 217.6 519.206 220.106C519.206 222.594 517.57 224.613 514.752 224.613Z" fill="#071C26"/>
</svg>
