<svg width="604" height="381" viewBox="0 0 604 381" fill="none" xmlns="http://www.w3.org/2000/svg">
<path d="M177.37 198.701L191.061 194.569C204.318 190.568 217.96 195.361 224.596 217.347C230.435 236.695 222.664 250.417 210.36 254.131L195.456 258.629L177.37 198.701ZM200.839 243.57L205.604 242.132C214.096 239.569 219.018 233.012 214.923 219.443C211.359 207.634 203.23 204.193 195.518 206.52L190.146 208.141L200.839 243.57V243.57Z" fill="#071C26"/>
<path d="M225.824 204.503L234.576 201.862L236.585 208.52L236.672 208.494C237.062 202.893 238.692 199.523 242.504 198.372C243.457 198.085 244.622 197.87 245.564 197.86L249.052 209.418C247.688 209.282 246.361 209.271 245.061 209.664C238.389 211.677 239.278 217.44 241.78 225.732L246.975 242.944L238.223 245.585L225.824 204.503Z" fill="#071C26"/>
<path d="M285.753 223.566C284.534 229.554 280.852 233.955 276.26 235.341C267.508 237.983 257.949 231.683 253.968 218.492C250.025 205.426 254.465 194.764 263.216 192.123C271.361 189.665 279.014 196.539 282.995 209.731L284.209 213.751L263.933 219.871C266.067 224.436 269.528 226.818 272.907 225.798C275.766 224.935 277.028 222.224 277.629 218.89L285.753 223.566ZM272.803 207.598C271.6 203.3 268.199 200.489 265.08 201.43C261.267 202.581 260.239 207.004 261.279 211.076L272.803 207.598Z" fill="#071C26"/>
<path d="M309.716 218.387L309.629 218.413C309.05 223.386 306.028 226.217 302.475 227.289C297.19 228.884 291.097 225.925 288.595 217.634C284.31 203.437 296.105 199.603 303.384 197.406C302.019 192.883 298.547 190.778 295.514 191.694C292.655 192.557 290.797 195.173 289.888 198.738L283.123 193.24C285.002 187.875 288.999 184.202 293.591 182.816C303.816 179.73 308.777 186.457 312.91 200.151L319.204 221.007L311.146 223.439L309.629 218.413L309.716 218.387ZM303.682 206.226C300.996 207.037 295.131 209.218 296.799 214.746C297.709 217.761 300.417 218.589 302.323 218.014C305.789 216.968 308.199 213.362 306.682 208.337L305.848 205.573L303.682 206.226Z" fill="#071C26"/>
<path d="M312.39 178.377L320.795 175.84L322.463 181.368L322.55 181.342C322.691 177.735 324.526 173.48 328.859 172.173C332.845 170.97 336.771 172.389 339.847 176.944C340.334 171.04 342.376 168.093 346.622 166.812C354.334 164.484 359.062 171.693 362.057 181.618L369.375 205.866L360.537 208.533L353.333 184.663C352.195 180.894 350.256 177.915 347.397 178.778C343.411 179.981 343.363 184.519 344.879 189.544L351.439 211.279L342.687 213.92L336.166 192.311C335.256 189.296 333.484 183.114 329.498 184.317C324.906 185.703 325.767 191.063 327.36 196.339L333.54 216.818L324.789 219.459L312.39 178.377Z" fill="#071C26"/>
<path d="M356.82 144.544L365.918 141.798L372.629 164.035L390.306 158.701L383.594 136.463L392.693 133.717L410.779 193.645L401.681 196.391L393.832 170.385L376.155 175.719L383.966 201.6L374.868 204.346L356.82 144.544Z" fill="#071C26"/>
<path d="M417.711 145.495C426.463 142.854 436.022 149.153 440.003 162.345C443.946 175.411 439.506 186.072 430.754 188.714C422.003 191.355 412.444 185.055 408.463 171.864C404.481 158.672 408.96 148.136 417.711 145.495ZM427.342 177.406C431.674 176.099 433.071 171.017 431.213 164.861C429.355 158.704 425.467 155.217 421.048 156.551C416.715 157.859 415.318 162.941 417.176 169.097C419.072 175.379 423.009 178.714 427.342 177.406Z" fill="#071C26"/>
<path d="M457.436 147.761C455.454 145.892 453.428 145.132 451.262 145.786C449.789 146.231 448.322 147.633 449.08 150.146C450.9 156.176 464.076 146.58 468.815 162.284C471.962 172.712 465.892 177.971 459.826 179.801C455.84 181.004 451.091 180.93 446.98 177.647L449.687 167.508C452.206 169.901 454.605 170.959 457.204 170.175C459.197 169.573 460.963 168.218 460.28 165.956C458.271 159.298 445.247 169.397 440.507 153.693C437.588 144.019 442.315 138.068 448.207 136.29C451.933 135.166 456.509 135.292 460.322 138.528L457.436 147.761Z" fill="#071C26"/>
<path d="M486.853 136.83L479.141 139.158L483.274 152.852C484.601 157.249 485.934 160.411 489.746 159.26C490.699 158.973 492.481 158.298 492.957 157.057L496.142 167.611C494.54 169.191 492.449 170.096 490.37 170.724C484.564 172.476 478.997 170.318 476.305 161.398L470.39 141.799L464.757 143.499L461.686 133.322L467.318 131.622L463.64 119.436L472.392 116.795L476.07 128.981L483.782 126.654L486.853 136.83Z" fill="#071C26"/>
<path d="M175.604 249.539C172.382 254.213 168.098 257.562 162.861 259.005C147.286 263.157 129.733 248.853 123.395 226.914C121.245 219.475 120.719 212.094 121.575 205.531C115.353 214.674 113.474 228.811 117.661 243.312C123.874 265.151 141.552 279.555 157.04 275.429C167.341 272.595 174.028 262.489 175.604 249.539Z" fill="#071C26"/>
<path d="M135.863 199.301C131.704 200.556 128.26 203.24 125.628 207.05C125.017 212.855 125.586 219.126 127.232 225.209C132.698 244.258 148.095 256.746 161.466 253.122C165.452 251.919 169.541 249.177 172.172 245.367C172.697 239.588 172.091 233.192 170.157 226.784C164.567 207.636 149.121 195.3 135.863 199.301Z" fill="#0073EC"/>
</svg>
