<svg width="604" height="381" viewBox="0 0 604 381" fill="none" xmlns="http://www.w3.org/2000/svg">
<path d="M93.1238 190.532C93.1238 182.669 93.1238 174.805 93.1238 166.942C93.1411 158.462 99.5816 152 108.082 152C123.594 152 139.106 152 154.618 152C163.83 152 170.375 157.869 170.508 166.988C170.747 182.615 170.747 198.245 170.508 213.879C170.38 223.103 163.749 229.086 154.427 229.092C139.382 229.092 124.366 228.96 109.338 229.144C98.5921 229.277 92.5567 220.699 93.0254 212.962C93.4768 205.514 93.1238 198.014 93.1238 190.532ZM147.506 162.377V161.979L147.153 162.088L147.512 162.365C147.836 163.253 148.143 164.146 148.496 165.023C157.725 187.701 139.613 211.377 115.286 208.495C111.172 207.976 107.469 206.275 103.505 204.309C109.372 215.603 123.214 222.146 135.696 219.673C147.656 217.303 155.844 210.27 159.745 198.868C163.645 187.465 161.602 176.719 153.761 167.375C152.083 165.357 150.463 162.953 147.506 162.377ZM127.722 161.224C125.118 161.224 122.514 161.258 119.921 161.224C111.328 161.068 103.788 168.718 103.082 177.365C102.62 182.98 103.042 188.664 102.961 194.313C102.961 196.043 103.719 196.354 105.235 196.383C109.932 196.528 114.606 195.671 118.943 193.869C131.142 188.722 139.196 176.443 138.89 163.61C138.844 161.719 138.265 161.085 136.39 161.166C133.508 161.31 130.615 161.224 127.722 161.224Z" fill="#203A66"/>
<path d="M321.292 219.984C321.229 212.121 321.154 204.264 321.107 196.406C321.078 191.512 321.188 186.606 321.061 181.729C321.009 179.815 321.402 178.847 323.538 179.141C324.498 179.26 325.47 179.26 326.431 179.141C328.462 178.916 329.671 179.452 329.041 182.213C331.899 180.04 334.492 178.357 337.888 178.455C341.412 178.553 343.86 180.236 345.735 183.182C348.536 179.925 351.857 178.115 356.185 178.495C360.005 178.829 362.678 181.078 363.326 184.836C363.562 186.35 363.67 187.881 363.65 189.413C363.679 198.816 363.621 208.218 363.702 217.62C363.702 219.465 363.459 220.359 361.249 220.33C355.833 220.261 355.827 220.376 355.827 214.911C355.827 206.754 355.827 198.603 355.827 190.445C355.827 188.186 355.52 185.937 353.09 184.882C349.907 183.499 346.777 185.661 346.586 189.535C346.395 193.408 346.51 197.207 346.505 201.064C346.505 206.725 346.429 212.386 346.551 218.047C346.586 219.857 345.972 220.29 344.236 220.353C338.45 220.468 338.45 220.537 338.45 214.732V191.385C338.484 190.523 338.456 189.66 338.369 188.802C337.952 186.162 336.118 184.537 333.739 184.588C331.361 184.64 329.475 186.254 329.266 188.958C329.058 191.662 329.156 194.331 329.145 197.029C329.11 203.747 329.083 210.472 329.064 217.205C328.589 217.546 328.601 217.886 329.064 218.226V219.494L328.751 220.071C327.837 220.457 326.9 220.284 325.968 220.186H324.973H322.496L321.292 219.984Z" fill="#203A66"/>
<path d="M375.478 190.37C375.478 181.256 375.519 172.136 375.438 163.017C375.438 161.224 375.779 160.567 377.753 160.59C383.58 160.659 383.58 160.555 383.58 166.389C383.58 171.381 383.649 176.373 383.551 181.377C383.516 183.107 383.817 183.989 385.865 183.839C388.464 183.657 391.073 183.657 393.671 183.839C395.662 183.966 396.056 183.187 396.021 181.377C395.922 175.336 396.056 169.271 395.951 163.241C395.917 161.339 396.275 160.561 398.434 160.601C404.139 160.705 404.139 160.601 404.139 166.32C404.139 183.406 404.105 200.487 404.191 217.574C404.191 219.661 403.763 220.411 401.507 220.364C395.992 220.255 395.986 220.364 395.992 214.951C395.992 207.849 395.888 200.741 396.056 193.622C396.113 191.172 395.332 190.451 392.966 190.653C390.655 190.855 388.332 190.855 386.022 190.653C383.875 190.468 383.51 191.339 383.533 193.253C383.626 201.41 383.533 209.567 383.62 217.724C383.649 219.696 383.169 220.353 381.097 220.336C375.461 220.284 375.455 220.387 375.461 214.842L375.478 190.37Z" fill="#203A66"/>
<path d="M184.437 190.302C184.437 181.188 184.495 172.073 184.391 162.959C184.391 161.069 184.894 160.509 186.781 160.602C189.952 160.757 193.146 160.642 196.323 160.642C203.736 160.642 209.453 164.712 211.675 171.837C214.25 180.115 214.238 188.641 213.683 197.202C213.504 201.511 212.747 205.776 211.432 209.885C209.244 216.226 204.632 219.477 198.082 220.002C194.344 220.301 190.56 220.129 186.827 220.33C184.929 220.434 184.374 219.858 184.391 217.932C184.518 208.72 184.437 199.508 184.437 190.302ZM192.643 214.035C200.049 213.418 202.827 211.458 204.054 205.388C206.036 195.505 206.036 185.329 204.054 175.446C203.018 170.16 200.102 167.79 195.085 167.15C193.25 166.92 192.567 167.341 192.591 169.347C192.689 178.57 192.631 187.731 192.631 196.92L192.643 214.035Z" fill="#203A66"/>
<path d="M301.246 182.455C302.253 181.135 300.789 179.048 302.531 178.731C304.661 178.333 306.94 178.575 309.134 178.783C309.88 178.852 309.625 179.936 309.625 180.552C309.625 192.929 309.625 205.341 309.678 217.695C309.678 219.424 309.024 219.891 307.473 219.724C306.895 219.692 306.315 219.692 305.737 219.724C301.866 219.724 301.866 219.724 301.501 216.121C300.841 215.746 300.674 216.386 300.448 216.697C296.068 222.866 288.244 220.341 285.825 214.184C284.994 211.831 284.509 209.371 284.384 206.88C283.777 199.962 283.806 193.045 285.339 186.265C286.693 180.172 290.426 177.497 295.755 178.316C298.295 178.696 299.649 180.518 301.246 182.455ZM301.738 198.556C301.582 195.097 301.831 191.459 300.847 187.908C300.089 185.153 297.775 184.046 295.581 185.274C294.959 185.647 294.434 186.161 294.048 186.774C293.662 187.386 293.426 188.081 293.359 188.802C292.284 195.824 292.317 202.97 293.458 209.981C293.747 211.861 294.818 213.521 297.011 213.561C299.325 213.602 300.338 211.878 300.813 209.901C301.692 206.24 301.599 202.487 301.738 198.556V198.556Z" fill="#203A66"/>
<path d="M441.232 199.623C441.023 203.802 440.948 207.826 439.692 211.729C438.009 216.917 433.698 220.197 428.31 220.307C422.923 220.416 418.577 217.707 416.824 212.426C413.873 203.543 414.058 194.486 416.685 185.568C418.074 180.853 422.547 177.988 427.465 177.941C433.368 177.861 437.227 180.282 439.23 185.372C441.07 190.001 440.966 194.913 441.232 199.623ZM423.415 198.055C423.467 202.177 423.415 206.027 424.138 209.809C424.537 211.879 425.434 213.718 427.957 213.804C430.48 213.891 431.62 212.178 431.962 210.057C433.094 202.752 433.004 195.311 431.695 188.036C431.342 185.972 430.231 184.392 427.911 184.404C425.591 184.415 424.607 186.024 424.08 188.036C423.189 191.431 423.525 194.901 423.415 198.055Z" fill="#203A66"/>
<path d="M265.378 200.7C263.254 200.7 261.136 200.746 259.013 200.7C257.607 200.66 256.918 200.919 257.103 202.614C257.381 205.179 257.335 207.767 257.936 210.31C258.475 212.616 259.771 213.826 262.137 213.838C264.504 213.849 265.499 212.299 265.928 210.246C266.112 209.6 266.191 208.929 266.159 208.257C265.87 205.952 266.987 205.542 269.023 205.64C274.231 205.888 273.907 204.568 272.993 210.477C272.067 216.507 268.393 219.701 262.294 220.214C256.623 220.704 252.196 217.971 250.402 212.304C247.703 203.837 247.778 194.733 250.616 186.311C252.514 180.517 257.016 177.779 262.768 178.24C268.098 178.65 271.772 182.091 273.057 187.896C273.849 191.476 273.884 195.12 273.977 198.763C274.011 200.227 273.56 200.832 272.009 200.752C269.799 200.642 267.583 200.723 265.366 200.723L265.378 200.7ZM261.518 194.618C262.571 194.618 263.625 194.618 264.672 194.618C265.627 194.653 266.049 194.295 266.038 193.286C266.079 190.81 265.736 188.342 265.019 185.971C264.83 185.223 264.381 184.566 263.752 184.116C263.123 183.667 262.354 183.454 261.582 183.515C260.809 183.499 260.053 183.733 259.426 184.184C258.8 184.634 258.338 185.276 258.11 186.011C257.674 187.275 257.413 188.592 257.335 189.926C256.958 194.624 256.935 194.624 261.518 194.618V194.618Z" fill="#203A66"/>
<path d="M482.438 202.689C482.438 197.703 482.369 192.71 482.473 187.701C482.508 185.914 482.149 184.911 480.159 185.303C477.346 185.845 477.404 184.115 477.393 182.109C477.381 180.103 477.537 178.65 480.112 179.129C482.016 179.486 482.728 178.667 482.485 176.777C482.418 175.725 482.418 174.669 482.485 173.617C482.485 167.743 483.243 167.161 489.168 168.06C490.47 168.262 490.418 168.983 490.424 169.842C490.424 172.147 490.545 174.453 490.424 176.759C490.308 178.598 490.846 179.492 492.791 179.146C495.684 178.627 495.256 180.599 495.262 182.322C495.267 184.046 495.539 185.781 492.895 185.314C490.754 184.939 490.401 186.012 490.418 187.903C490.499 197.703 490.383 207.468 490.505 217.245C490.534 219.551 489.978 220.404 487.513 220.329C482.52 220.179 482.514 220.329 482.508 215.331C482.462 211.123 482.438 206.909 482.438 202.689Z" fill="#203A66"/>
<path d="M451.519 212.109C453.764 212.623 455.795 213.211 457.884 213.516C459.973 213.822 461.784 213.389 462.895 211.47C464.006 209.55 463.428 207.786 462.201 206.131C460.228 203.474 457.502 201.606 455.083 199.427C450.79 195.553 448.921 190.872 450.79 185.217C452.931 178.645 462.537 175.636 468.207 179.562C468.45 179.707 468.647 179.916 468.777 180.167C468.907 180.417 468.964 180.699 468.942 180.98C468.879 182.582 469.203 184.208 468.699 185.949C466.524 185.476 464.498 184.554 462.247 184.744C460.384 184.9 458.839 185.522 457.994 187.223C457.149 188.924 457.589 190.567 458.671 192.071C460.546 194.677 463.19 196.493 465.494 198.66C468.659 201.646 471.17 204.944 470.927 209.613C470.58 216.289 464.961 220.889 458.081 220.146C451.201 219.402 451.039 219.189 451.519 212.109Z" fill="#203A66"/>
<path d="M232.284 184.744C234.373 181.815 236.334 179.504 239.667 178.916C241.241 178.639 242.132 178.789 241.941 180.645C241.866 181.219 241.866 181.801 241.941 182.375C242.277 184.525 241.704 185.447 239.21 185.724C233.834 186.329 232.145 188.658 232.104 194.636C232.052 202.303 232 209.976 232.145 217.649C232.185 219.828 231.566 220.411 229.414 220.353C224.154 220.22 224.154 220.353 224.148 215.009C224.148 204.177 224.264 193.339 224.073 182.501C224.026 179.619 224.894 178.968 227.62 179.118C231.873 179.337 231.873 179.158 232.284 184.744Z" fill="#203A66"/>
<path d="M506.112 170.344C504.8 170.35 503.538 169.846 502.594 168.938C501.65 168.03 501.1 166.79 501.061 165.484C501.069 164.223 501.567 163.014 502.451 162.111C503.334 161.209 504.535 160.682 505.8 160.642C506.448 160.585 507.102 160.663 507.718 160.872C508.335 161.081 508.901 161.415 509.381 161.854C509.86 162.292 510.243 162.826 510.504 163.42C510.765 164.015 510.899 164.657 510.898 165.305C510.937 165.954 510.843 166.605 510.62 167.216C510.397 167.827 510.05 168.386 509.602 168.858C509.153 169.331 508.612 169.706 508.012 169.962C507.411 170.217 506.765 170.347 506.112 170.344V170.344ZM503.96 168.142C505.522 169.387 507.015 170.2 507.964 167.519C508.456 167.675 508.872 167.698 509.121 167.133C509.937 165.461 509.7 163.922 508.305 162.746C506.911 161.57 505.267 161.166 503.821 162.878C501.929 164.683 501.876 166.412 503.96 168.142Z" fill="#203A66"/>
<path d="M321.293 219.983L322.45 220.145C322.034 220.347 321.577 220.641 321.293 219.983Z" fill="#31679A"/>
<path d="M329.032 218.18C328.569 217.84 328.557 217.499 329.032 217.159V218.18Z" fill="#31679A"/>
<path d="M324.925 220.151H325.921C325.856 220.218 325.779 220.272 325.694 220.308C325.608 220.344 325.516 220.363 325.423 220.363C325.33 220.363 325.238 220.344 325.152 220.308C325.067 220.272 324.99 220.218 324.925 220.151Z" fill="#31679A"/>
<path d="M328.705 220.024L329.017 219.448C329.156 219.771 329.121 220.024 328.705 220.024Z" fill="#31679A"/>
<path d="M147.507 162.377C150.464 162.953 152.085 165.346 153.774 167.363C161.604 176.708 163.664 187.402 159.746 198.856C155.829 210.311 147.658 217.303 135.697 219.661C123.215 222.134 109.374 215.591 103.506 204.298C107.47 206.275 111.174 207.976 115.288 208.495C139.591 211.412 157.727 187.742 148.509 165.063C148.156 164.187 147.849 163.293 147.525 162.406L147.507 162.377Z" fill="#FDFDFD"/>
<path d="M127.723 161.223C130.616 161.223 133.51 161.315 136.403 161.189C138.278 161.108 138.856 161.765 138.903 163.633C139.227 176.465 131.155 188.744 118.956 193.892C114.614 195.689 109.936 196.54 105.236 196.388C103.72 196.388 102.922 196.054 102.962 194.319C103.043 188.669 102.621 182.985 103.084 177.37C103.79 168.717 111.33 161.067 119.929 161.223C122.515 161.223 125.125 161.223 127.723 161.223Z" fill="#31679A"/>
<path d="M147.529 162.377L147.17 162.1L147.523 161.99V162.388L147.529 162.377Z" fill="#FDFDFD"/>
<path d="M192.657 214.035V196.896C192.657 187.707 192.715 178.518 192.617 169.323C192.617 167.317 193.276 166.896 195.111 167.127C200.128 167.767 203.044 170.136 204.08 175.422C206.062 185.305 206.062 195.481 204.08 205.365C202.842 211.458 200.052 213.418 192.657 214.035Z" fill="#FDFDFD"/>
<path d="M301.728 198.556C301.59 202.488 301.682 206.241 300.803 209.901C300.328 211.879 299.344 213.602 297.001 213.562C294.808 213.522 293.737 211.832 293.448 209.982C292.307 202.97 292.274 195.824 293.35 188.802C293.416 188.082 293.652 187.387 294.038 186.774C294.424 186.161 294.949 185.647 295.572 185.274C297.765 184.046 300.079 185.153 300.837 187.909C301.821 191.46 301.572 195.126 301.728 198.556Z" fill="#FDFDFD"/>
<path d="M423.41 198.054C423.52 194.901 423.184 191.431 424.075 188.035C424.602 186.023 425.597 184.409 427.906 184.403C430.215 184.398 431.337 185.971 431.69 188.035C432.999 195.311 433.089 202.752 431.956 210.056C431.615 212.178 430.487 213.884 427.952 213.804C425.418 213.723 424.532 211.878 424.133 209.809C423.41 206.027 423.462 202.153 423.41 198.054Z" fill="#FDFDFD"/>
<path d="M261.528 194.624C256.945 194.624 256.968 194.624 257.35 189.926C257.423 188.593 257.678 187.276 258.108 186.012C258.335 185.276 258.797 184.635 259.424 184.184C260.05 183.734 260.807 183.499 261.58 183.516C262.352 183.454 263.12 183.667 263.75 184.117C264.379 184.566 264.828 185.223 265.017 185.971C265.73 188.345 266.07 190.815 266.024 193.293C266.024 194.302 265.613 194.659 264.658 194.624C263.634 194.596 262.581 194.619 261.528 194.624Z" fill="#FDFDFD"/>
<path d="M503.846 162.867C505.292 161.137 506.878 161.506 508.33 162.734C509.783 163.962 509.962 165.449 509.146 167.121C508.868 167.697 508.452 167.663 507.989 167.507L508.047 167.576C508.047 166.32 508.411 164.878 507.919 163.841C507.173 162.273 505.414 163.114 504.066 163.045L503.846 162.867Z" fill="#FDFDFD"/>
<path d="M507.962 167.507C507.013 170.188 505.52 169.375 503.957 168.13L503.911 168.164C505.398 168.47 505.138 166.579 505.647 166.435C507.128 166.308 506.446 168.608 508.014 167.588L507.962 167.507Z" fill="#FDFDFD"/>
<path d="M503.953 168.141C501.869 166.411 501.922 164.682 503.843 162.878L504.034 163.056C503.987 164.763 503.945 166.469 503.906 168.175L503.953 168.141Z" fill="#FDFDFD"/>
<path d="M503.911 168.141C503.95 166.434 503.992 164.728 504.038 163.022C505.387 163.091 507.146 162.249 507.892 163.817C508.384 164.855 508.008 166.296 508.02 167.553C506.451 168.567 507.134 166.267 505.653 166.4C505.138 166.579 505.398 168.469 503.911 168.141ZM506.689 164.613C506.689 164.175 506.475 164.036 506.197 164.082C505.919 164.129 505.578 164.255 505.543 164.417C505.515 164.499 505.51 164.587 505.528 164.672C505.546 164.756 505.587 164.835 505.647 164.898C505.706 164.961 505.782 165.007 505.865 165.031C505.949 165.055 506.038 165.056 506.122 165.034C506.359 165.011 506.538 164.757 506.689 164.636V164.613Z" fill="#203A66"/>
<path d="M506.694 164.636C506.544 164.757 506.364 165.01 506.144 165.056C506.06 165.079 505.972 165.078 505.888 165.054C505.804 165.03 505.729 164.984 505.669 164.921C505.61 164.857 505.569 164.779 505.551 164.694C505.532 164.61 505.538 164.522 505.566 164.44C505.601 164.278 505.977 164.145 506.22 164.105C506.463 164.065 506.712 164.197 506.694 164.636Z" fill="#FDFDFD"/>
</svg>
