<svg width="604" height="381" viewBox="0 0 604 381" fill="none" xmlns="http://www.w3.org/2000/svg">
<path d="M84 160H103.837C123.045 160 139.241 168.161 139.241 190.131C139.241 209.466 123.422 219.886 105.594 219.886H84V160ZM97.1825 207.583H104.088C116.391 207.583 125.556 202.937 125.556 189.378C125.556 177.577 116.14 172.178 104.966 172.178H97.1825V207.583V207.583Z" fill="#071C26"/>
<path d="M146.021 178.706H158.701V185.36H158.827C161.589 180.338 165.104 177.702 170.628 177.702C172.009 177.702 173.641 177.827 174.897 178.078V189.629C173.139 189.127 171.382 188.75 169.498 188.75C159.831 188.75 158.701 194.274 158.701 202.56V219.76H146.021V178.706Z" fill="#071C26"/>
<path d="M217.96 212.73C213.942 217.877 207.288 220.89 200.634 220.89C187.954 220.89 177.785 212.478 177.785 199.296C177.785 186.239 187.954 177.702 200.634 177.702C212.436 177.702 219.843 186.113 219.843 199.296V203.313H190.465C191.469 208.084 195.11 211.223 200.007 211.223C204.15 211.223 206.912 209.089 209.046 206.201L217.96 212.73ZM207.163 194.525C207.288 190.257 203.899 186.741 199.379 186.741C193.855 186.741 190.716 190.508 190.465 194.525H207.163Z" fill="#071C26"/>
<path d="M251.857 214.614H251.732C248.97 219.008 243.822 220.766 238.675 220.766C231.016 220.766 224.111 216.372 224.111 208.086C224.111 193.899 241.311 193.648 251.857 193.648C251.857 189.128 248.091 186.24 243.697 186.24C239.554 186.24 236.038 188.124 233.402 191.137L226.622 184.232C231.268 179.837 238.047 177.578 244.701 177.578C259.516 177.578 263.408 185.11 263.408 198.795V219.636H251.732V214.614H251.857ZM248.719 201.808C244.827 201.808 236.164 202.185 236.164 207.709C236.164 210.722 239.428 212.229 242.19 212.229C247.212 212.229 251.857 209.592 251.857 204.57V201.808H248.719Z" fill="#071C26"/>
<path d="M271.448 178.707H283.626V184.232H283.751C285.384 180.967 289.527 177.578 295.804 177.578C301.579 177.578 306.224 179.963 308.484 184.985C311.497 179.712 315.389 177.578 321.541 177.578C332.715 177.578 336.105 185.487 336.105 195.405V219.636H323.299V195.782C323.299 192.016 321.918 188.751 317.775 188.751C312 188.751 310.116 192.894 310.116 197.916V219.636H297.436V198.042C297.436 195.029 297.562 188.877 291.786 188.877C285.132 188.877 284.128 194.024 284.128 199.297V219.762H271.448V178.707Z" fill="#071C26"/>
<path d="M344.008 160H357.19V182.222H382.802V160H395.985V219.886H382.802V193.898H357.19V219.761H344.008V160Z" fill="#071C26"/>
<path d="M424.481 177.702C437.161 177.702 447.33 186.113 447.33 199.296C447.33 212.353 437.161 220.89 424.481 220.89C411.8 220.89 401.631 212.478 401.631 199.296C401.631 186.113 411.8 177.702 424.481 177.702ZM424.481 209.591C430.758 209.591 434.65 205.322 434.65 199.17C434.65 193.019 430.883 188.75 424.481 188.75C418.203 188.75 414.311 193.019 414.311 199.17C414.311 205.448 418.203 209.591 424.481 209.591Z" fill="#071C26"/>
<path d="M476.336 190.759C474.453 188.499 472.068 187.243 468.929 187.243C466.795 187.243 464.284 188.122 464.284 190.633C464.284 196.659 485.627 191.512 485.627 207.205C485.627 217.626 475.458 220.765 466.669 220.765C460.894 220.765 454.617 219.384 450.474 215.241L458.132 206.703C460.517 209.591 463.28 211.223 467.046 211.223C469.934 211.223 472.821 210.47 472.821 208.21C472.821 201.556 451.478 207.205 451.478 191.512C451.478 181.845 460.141 177.702 468.678 177.702C474.077 177.702 480.103 179.083 483.869 183.1L476.336 190.759Z" fill="#071C26"/>
<path d="M519.783 188.877H508.609V202.562C508.609 206.956 509.111 210.22 514.635 210.22C516.016 210.22 518.653 210.094 519.783 209.09V219.636C517.021 220.64 513.882 220.892 510.869 220.892C502.457 220.892 495.929 217.376 495.929 208.462V188.877H487.768V178.708H495.929V166.529H508.609V178.708H519.783V188.877Z" fill="#071C26"/>
</svg>
