<svg width="604" height="381" viewBox="0 0 604 381" fill="none" xmlns="http://www.w3.org/2000/svg">
<g filter="url(#filter0_d_480_2168)">
<path d="M162.73 168.625H178.392C193.558 168.625 206.345 175.068 206.345 192.415C206.345 207.68 193.855 215.907 179.779 215.907H162.73V168.625ZM173.138 206.193H178.59C188.304 206.193 195.54 202.525 195.54 191.82C195.54 182.502 188.106 178.24 179.284 178.24H173.138V206.193V206.193Z" fill="#071C26"/>
<path d="M211.695 183.394H221.707V188.648H221.806C223.987 184.683 226.762 182.601 231.124 182.601C232.214 182.601 233.503 182.701 234.494 182.899V192.018C233.106 191.622 231.719 191.324 230.232 191.324C222.599 191.324 221.707 195.686 221.707 202.228V215.808H211.695V183.394Z" fill="#071C26"/>
<path d="M268.501 210.257C265.329 214.321 260.075 216.7 254.821 216.7C244.81 216.7 236.781 210.059 236.781 199.651C236.781 189.342 244.81 182.601 254.821 182.601C264.139 182.601 269.988 189.243 269.988 199.651V202.823H246.792C247.585 206.59 250.46 209.068 254.326 209.068C257.597 209.068 259.778 207.383 261.463 205.103L268.501 210.257ZM259.976 195.884C260.075 192.514 257.399 189.738 253.83 189.738C249.469 189.738 246.991 192.712 246.792 195.884H259.976Z" fill="#071C26"/>
<path d="M295.265 211.743H295.165C292.985 215.213 288.921 216.601 284.856 216.601C278.81 216.601 273.358 213.131 273.358 206.589C273.358 195.388 286.938 195.19 295.265 195.19C295.265 191.621 292.291 189.341 288.821 189.341C285.55 189.341 282.775 190.828 280.693 193.207L275.34 187.755C279.008 184.286 284.361 182.502 289.614 182.502C301.311 182.502 304.384 188.449 304.384 199.254V215.708H295.165V211.743H295.265ZM292.786 201.633C289.714 201.633 282.874 201.93 282.874 206.292C282.874 208.671 285.451 209.86 287.632 209.86C291.597 209.86 295.265 207.778 295.265 203.813V201.633H292.786Z" fill="#071C26"/>
<path d="M310.726 183.394H320.341V187.755H320.44C321.728 185.178 325 182.502 329.956 182.502C334.516 182.502 338.183 184.385 339.967 188.35C342.346 184.187 345.419 182.502 350.276 182.502C359.099 182.502 361.775 188.746 361.775 196.577V215.708H351.664V196.875C351.664 193.901 350.574 191.324 347.303 191.324C342.743 191.324 341.256 194.595 341.256 198.56V215.708H331.244V198.659C331.244 196.28 331.344 191.423 326.784 191.423C321.53 191.423 320.737 195.487 320.737 199.65V215.808H310.726V183.394Z" fill="#071C26"/>
<path d="M368.015 168.625H378.423V186.17H398.644V168.625H409.052V215.907H398.644V195.388H378.423V215.808H368.015V168.625Z" fill="#071C26"/>
<path d="M431.551 182.601C441.563 182.601 449.592 189.243 449.592 199.651C449.592 209.96 441.563 216.7 431.551 216.7C421.539 216.7 413.51 210.059 413.51 199.651C413.51 189.243 421.539 182.601 431.551 182.601ZM431.551 207.779C436.507 207.779 439.58 204.409 439.58 199.552C439.58 194.695 436.606 191.324 431.551 191.324C426.595 191.324 423.522 194.695 423.522 199.552C423.522 204.508 426.595 207.779 431.551 207.779Z" fill="#071C26"/>
<path d="M472.494 192.91C471.008 191.126 469.124 190.135 466.646 190.135C464.961 190.135 462.978 190.829 462.978 192.811C462.978 197.569 479.83 193.505 479.83 205.896C479.83 214.123 471.801 216.601 464.862 216.601C460.302 216.601 455.346 215.511 452.075 212.24L458.121 205.499C460.005 207.779 462.185 209.068 465.159 209.068C467.439 209.068 469.719 208.473 469.719 206.689C469.719 201.435 452.868 205.896 452.868 193.505C452.868 185.873 459.707 182.601 466.448 182.601C470.71 182.601 475.468 183.692 478.442 186.864L472.494 192.91Z" fill="#071C26"/>
<path d="M506.794 191.423H497.972V202.228C497.972 205.697 498.369 208.274 502.73 208.274C503.821 208.274 505.902 208.175 506.794 207.382V215.709C504.614 216.502 502.136 216.7 499.757 216.7C493.115 216.7 487.961 213.924 487.961 206.886V191.423H481.518V183.394H487.961V173.779H497.972V183.394H506.794V191.423Z" fill="#071C26"/>
<path d="M144.789 205.003C139.932 207.68 134.381 209.167 128.434 209.068C110.789 208.671 96.912 194.496 97.2093 177.248C97.3085 171.4 99.0927 165.948 102.066 161.388C92.6496 166.642 86.2065 176.455 86.0082 187.855C85.6117 205.003 99.5883 219.277 117.133 219.674C128.83 219.872 139.04 214.024 144.789 205.003Z" fill="#071C26"/>
<path d="M119.013 160C114.255 160 109.794 161.189 105.829 163.37C103.351 167.434 101.963 172.093 101.765 176.851C101.468 191.819 113.66 204.21 128.826 204.507C133.386 204.507 138.54 203.417 142.505 201.236C144.884 197.172 146.272 192.414 146.272 187.358C146.47 172.291 134.179 160 119.013 160Z" fill="#0073EC"/>
<path d="M510.26 168.822C510.26 168.326 510.359 167.831 510.557 167.335C510.755 166.839 511.053 166.542 511.35 166.146C511.648 165.848 512.044 165.551 512.54 165.353C512.936 165.154 513.432 165.055 513.927 165.055C514.423 165.055 514.919 165.154 515.315 165.353C515.712 165.551 516.108 165.749 516.505 166.146C516.802 166.443 517.099 166.839 517.298 167.335C517.496 167.831 517.595 168.227 517.595 168.822C517.595 169.318 517.496 169.813 517.298 170.309C517.099 170.705 516.802 171.102 516.505 171.498C516.207 171.796 515.811 172.093 515.315 172.291C514.919 172.49 514.423 172.589 513.927 172.589C513.432 172.589 512.936 172.49 512.54 172.291C512.143 172.093 511.747 171.895 511.35 171.498C511.053 171.201 510.755 170.804 510.557 170.309C510.359 169.813 510.26 169.318 510.26 168.822ZM510.954 168.822C510.954 169.218 511.053 169.714 511.152 170.011C511.35 170.408 511.548 170.705 511.747 171.003C512.044 171.3 512.341 171.498 512.738 171.697C513.134 171.895 513.531 171.895 513.927 171.895C514.324 171.895 514.72 171.796 515.117 171.697C515.513 171.498 515.811 171.3 516.108 171.003C516.406 170.705 516.604 170.408 516.703 170.011C516.901 169.615 516.901 169.218 516.901 168.822C516.901 168.425 516.802 167.93 516.703 167.632C516.505 167.236 516.306 166.939 516.108 166.641C515.811 166.344 515.513 166.146 515.117 165.947C514.72 165.749 514.324 165.749 513.927 165.749C513.531 165.749 513.134 165.848 512.738 165.947C512.341 166.146 512.044 166.344 511.747 166.641C511.449 166.939 511.251 167.236 511.152 167.632C510.954 167.93 510.954 168.326 510.954 168.822ZM512.54 166.641H514.126C515.117 166.641 515.613 167.038 515.613 167.831C515.613 168.227 515.513 168.525 515.315 168.723C515.117 168.921 514.82 169.02 514.522 169.02L515.712 170.904H515.018L513.828 169.02H513.134V170.904H512.441L512.54 166.641ZM513.134 168.525H513.828C513.927 168.525 514.126 168.525 514.225 168.525C514.324 168.525 514.522 168.525 514.621 168.425C514.72 168.425 514.82 168.326 514.919 168.227C515.018 168.128 515.018 168.029 515.018 167.831C515.018 167.732 515.018 167.533 514.919 167.434C514.82 167.335 514.82 167.236 514.72 167.236C514.621 167.236 514.522 167.137 514.423 167.137C514.324 167.137 514.225 167.137 514.126 167.137H513.234L513.134 168.525Z" fill="#071C26"/>
</g>
<defs>
<filter id="filter0_d_480_2168" x="82" y="160" width="439.595" height="70.6788" filterUnits="userSpaceOnUse" color-interpolation-filters="sRGB">
<feFlood flood-opacity="0" result="BackgroundImageFix"/>
<feColorMatrix in="SourceAlpha" type="matrix" values="0 0 0 0 0 0 0 0 0 0 0 0 0 0 0 0 0 0 127 0" result="hardAlpha"/>
<feOffset dy="7"/>
<feGaussianBlur stdDeviation="2"/>
<feComposite in2="hardAlpha" operator="out"/>
<feColorMatrix type="matrix" values="0 0 0 0 0 0 0 0 0 0 0 0 0 0 0 0 0 0 0.35 0"/>
<feBlend mode="normal" in2="BackgroundImageFix" result="effect1_dropShadow_480_2168"/>
<feBlend mode="normal" in="SourceGraphic" in2="effect1_dropShadow_480_2168" result="shape"/>
</filter>
</defs>
</svg>
