<svg width="604" height="381" viewBox="0 0 604 381" fill="none" xmlns="http://www.w3.org/2000/svg">
<path d="M177.37 198.689L191.061 194.557C204.318 190.556 217.96 195.349 224.596 217.335C230.435 236.683 222.664 250.406 210.36 254.119L195.456 258.617L177.37 198.689ZM200.839 243.559L205.604 242.121C214.096 239.558 219.018 233.001 214.923 219.432C211.359 207.622 203.23 204.181 195.518 206.509L190.146 208.13L200.839 243.559V243.559Z" fill="#071C26"/>
<path d="M225.824 204.491L234.576 201.85L236.585 208.509L236.672 208.483C237.062 202.882 238.692 199.511 242.504 198.361C243.457 198.073 244.622 197.859 245.564 197.849L249.052 209.407C247.688 209.271 246.361 209.26 245.061 209.652C238.389 211.666 239.278 217.429 241.78 225.721L246.975 242.933L238.223 245.574L225.824 204.491Z" fill="#071C26"/>
<path d="M285.753 223.555C284.534 229.543 280.852 233.944 276.26 235.33C267.508 237.971 257.949 231.672 253.968 218.48C250.025 205.414 254.465 194.753 263.216 192.112C271.361 189.653 279.014 196.528 282.995 209.72L284.209 213.74L263.933 219.859C266.067 224.424 269.528 226.807 272.907 225.787C275.766 224.924 277.028 222.213 277.629 218.879L285.753 223.555ZM272.803 207.587C271.6 203.289 268.199 200.477 265.08 201.419C261.267 202.569 260.239 206.992 261.279 211.065L272.803 207.587Z" fill="#071C26"/>
<path d="M309.716 218.376L309.629 218.402C309.05 223.375 306.028 226.206 302.475 227.278C297.19 228.873 291.097 225.914 288.595 217.622C284.31 203.425 296.105 199.591 303.384 197.395C302.019 192.872 298.547 190.767 295.514 191.682C292.655 192.545 290.797 195.162 289.888 198.726L283.123 193.228C285.002 187.864 288.999 184.19 293.591 182.804C303.816 179.718 308.777 186.446 312.91 200.14L319.204 220.995L311.146 223.427L309.629 218.402L309.716 218.376ZM303.682 206.215C300.996 207.026 295.131 209.207 296.799 214.735C297.709 217.75 300.417 218.578 302.323 218.002C305.789 216.956 308.199 213.35 306.682 208.325L305.848 205.561L303.682 206.215Z" fill="#071C26"/>
<path d="M312.39 178.365L320.795 175.828L322.463 181.356L322.55 181.33C322.691 177.724 324.526 173.469 328.859 172.161C332.845 170.958 336.771 172.378 339.847 176.932C340.334 171.028 342.376 168.082 346.622 166.8C354.334 164.473 359.062 171.682 362.057 181.607L369.375 205.854L360.537 208.522L353.333 184.651C352.195 180.882 350.256 177.903 347.397 178.766C343.411 179.969 343.363 184.507 344.879 189.533L351.439 211.268L342.687 213.909L336.166 192.3C335.256 189.284 333.484 183.102 329.498 184.305C324.906 185.691 325.767 191.051 327.36 196.328L333.54 216.806L324.789 219.448L312.39 178.365Z" fill="#071C26"/>
<path d="M356.82 144.532L365.918 141.786L372.629 164.024L390.306 158.689L383.594 136.452L392.693 133.706L410.779 193.634L401.681 196.38L393.832 170.373L376.155 175.708L383.966 201.589L374.868 204.334L356.82 144.532Z" fill="#071C26"/>
<path d="M417.711 145.484C426.463 142.843 436.022 149.142 440.003 162.334C443.946 175.4 439.506 186.061 430.754 188.702C422.003 191.343 412.444 185.044 408.463 171.852C404.481 158.661 408.96 148.125 417.711 145.484ZM427.342 177.395C431.674 176.087 433.071 171.005 431.213 164.849C429.355 158.693 425.467 155.206 421.048 156.54C416.715 157.847 415.318 162.929 417.176 169.085C419.072 175.367 423.009 178.703 427.342 177.395Z" fill="#071C26"/>
<path d="M457.436 147.75C455.454 145.88 453.428 145.121 451.262 145.775C449.789 146.219 448.322 147.622 449.08 150.134C450.9 156.165 464.076 146.568 468.815 162.273C471.962 172.7 465.892 177.959 459.826 179.79C455.84 180.993 451.091 180.918 446.98 177.635L449.687 167.497C452.206 169.89 454.605 170.948 457.204 170.163C459.197 169.562 460.963 168.206 460.28 165.945C458.271 159.286 445.247 169.386 440.507 153.681C437.588 144.007 442.315 138.057 448.207 136.279C451.933 135.154 456.509 135.281 460.322 138.517L457.436 147.75Z" fill="#071C26"/>
<path d="M486.853 136.819L479.141 139.146L483.274 152.84C484.601 157.238 485.934 160.4 489.746 159.249C490.699 158.961 492.481 158.286 492.957 157.046L496.142 167.599C494.54 169.18 492.449 170.085 490.37 170.712C484.564 172.464 478.997 170.307 476.305 161.386L470.39 141.787L464.757 143.487L461.686 133.311L467.318 131.611L463.64 119.424L472.392 116.783L476.07 128.97L483.782 126.642L486.853 136.819Z" fill="#071C26"/>
<path d="M175.604 249.528C172.382 254.201 168.098 257.55 162.861 258.993C147.286 263.146 129.733 248.841 123.395 226.902C121.245 219.464 120.719 212.083 121.575 205.519C115.353 214.662 113.474 228.8 117.661 243.3C123.874 265.139 141.552 279.544 157.04 275.418C167.341 272.583 174.028 262.477 175.604 249.528Z" fill="#071C26"/>
<path d="M135.863 199.289C131.704 200.544 128.26 203.229 125.628 207.039C125.017 212.843 125.586 219.114 127.232 225.197C132.698 244.247 148.095 256.734 161.466 253.11C165.452 251.907 169.541 249.165 172.172 245.355C172.697 239.577 172.091 233.18 170.157 226.773C164.567 207.624 149.121 195.288 135.863 199.289Z" fill="#0073EC"/>
</svg>
