<svg width="250" height="250" viewBox="0 0 250 250" fill="none" xmlns="http://www.w3.org/2000/svg">
<path d="M190.495 158.731C179.384 164.662 166.684 167.957 153.078 167.738C112.712 166.859 80.9639 135.446 81.6442 97.223C81.871 84.2623 85.9529 72.1804 92.7561 62.0754C71.2127 73.7181 56.4724 95.4656 56.0188 120.728C55.1117 158.731 87.0868 190.364 127.226 191.243C153.985 191.682 177.343 178.721 190.495 158.731Z" fill="black"/>
<path d="M131.534 59C120.649 59 110.444 61.6361 101.373 66.4689C95.704 75.4754 92.5292 85.8 92.0757 96.3443C91.3953 129.515 119.288 156.974 153.985 157.633C164.416 157.633 176.209 155.216 185.28 150.384C190.722 141.377 193.897 130.833 193.897 119.63C194.35 86.2393 166.231 59 131.534 59Z" fill="#0073EC"/>
</svg>
