<svg width="604" height="381" viewBox="0 0 604 381" fill="none" xmlns="http://www.w3.org/2000/svg">
<path d="M152.313 170.553H169.115C185.385 170.553 199.102 177.465 199.102 196.074C199.102 212.45 185.704 221.276 170.604 221.276H152.313V170.553ZM163.479 210.855H169.328C179.749 210.855 187.511 206.921 187.511 195.436C187.511 185.44 179.536 180.868 170.072 180.868H163.479V210.855V210.855Z" fill="#071C26"/>
<path d="M204.842 186.397H215.582V192.033H215.689C218.028 187.78 221.006 185.547 225.685 185.547C226.854 185.547 228.237 185.653 229.3 185.866V195.649C227.811 195.224 226.323 194.905 224.727 194.905C216.539 194.905 215.582 199.583 215.582 206.602V221.17H204.842V186.397Z" fill="#071C26"/>
<path d="M265.781 215.215C262.378 219.575 256.742 222.127 251.106 222.127C240.366 222.127 231.753 215.002 231.753 203.837C231.753 192.778 240.366 185.547 251.106 185.547C261.102 185.547 267.376 192.671 267.376 203.837V207.24H242.493C243.344 211.281 246.428 213.939 250.575 213.939C254.084 213.939 256.423 212.131 258.231 209.686L265.781 215.215ZM256.636 199.796C256.742 196.181 253.871 193.203 250.043 193.203C245.364 193.203 242.706 196.393 242.493 199.796H256.636Z" fill="#071C26"/>
<path d="M294.492 216.809H294.386C292.047 220.531 287.687 222.02 283.327 222.02C276.84 222.02 270.992 218.298 270.992 211.28C270.992 199.264 285.56 199.051 294.492 199.051C294.492 195.223 291.302 192.777 287.58 192.777C284.071 192.777 281.094 194.372 278.861 196.924L273.118 191.076C277.053 187.354 282.795 185.44 288.431 185.44C300.979 185.44 304.276 191.82 304.276 203.411V221.063H294.386V216.809H294.492ZM291.834 205.963C288.537 205.963 281.2 206.282 281.2 210.961C281.2 213.513 283.965 214.789 286.304 214.789C290.558 214.789 294.492 212.556 294.492 208.302V205.963H291.834Z" fill="#071C26"/>
<path d="M311.079 186.397H321.393V191.076H321.5C322.882 188.311 326.391 185.44 331.708 185.44C336.6 185.44 340.534 187.46 342.448 191.714C345 187.247 348.297 185.44 353.508 185.44C362.972 185.44 365.843 192.139 365.843 200.54V221.063H354.996V200.859C354.996 197.669 353.827 194.904 350.317 194.904C345.426 194.904 343.831 198.413 343.831 202.667V221.063H333.091V202.773C333.091 200.221 333.197 195.01 328.305 195.01C322.669 195.01 321.819 199.37 321.819 203.836V221.169H311.079V186.397Z" fill="#071C26"/>
<path d="M372.536 170.553H383.702V189.375H405.395V170.553H416.56V221.276H405.395V199.264H383.702V221.17H372.536V170.553Z" fill="#071C26"/>
<path d="M440.696 185.547C451.436 185.547 460.05 192.671 460.05 203.837C460.05 214.896 451.436 222.127 440.696 222.127C429.956 222.127 421.343 215.002 421.343 203.837C421.343 192.671 429.956 185.547 440.696 185.547ZM440.696 212.557C446.013 212.557 449.31 208.941 449.31 203.731C449.31 198.52 446.12 194.905 440.696 194.905C435.379 194.905 432.083 198.52 432.083 203.731C432.083 209.047 435.379 212.557 440.696 212.557Z" fill="#071C26"/>
<path d="M484.619 196.606C483.024 194.692 481.004 193.628 478.345 193.628C476.537 193.628 474.411 194.373 474.411 196.5C474.411 201.604 492.488 197.244 492.488 210.536C492.488 219.362 483.875 222.021 476.431 222.021C471.539 222.021 466.223 220.851 462.713 217.342L469.2 210.111C471.22 212.557 473.56 213.939 476.75 213.939C479.196 213.939 481.642 213.301 481.642 211.387C481.642 205.751 463.564 210.536 463.564 197.244C463.564 189.056 470.901 185.547 478.132 185.547C482.705 185.547 487.809 186.716 490.999 190.119L484.619 196.606Z" fill="#071C26"/>
<path d="M521.415 195.01H511.951V206.601C511.951 210.323 512.376 213.088 517.055 213.088C518.225 213.088 520.458 212.981 521.415 212.131V221.063C519.076 221.914 516.417 222.127 513.865 222.127C506.74 222.127 501.211 219.149 501.211 211.599V195.01H494.299V186.397H501.211V176.082H511.951V186.397H521.415V195.01Z" fill="#071C26"/>
<path d="M133.067 209.579C127.857 212.45 121.902 214.045 115.522 213.939C96.5933 213.513 81.706 198.307 82.025 179.804C82.1314 173.53 84.0455 167.682 87.2356 162.79C77.1335 168.426 70.2215 178.953 70.0088 191.182C69.5835 209.579 84.5771 224.891 103.399 225.317C115.947 225.53 126.9 219.256 133.067 209.579Z" fill="#071C26"/>
<path d="M105.415 161.301C100.311 161.301 95.5258 162.577 91.2723 164.916C88.6139 169.276 87.1251 174.274 86.9125 179.378C86.5934 195.435 99.673 208.727 115.943 209.046C120.834 209.046 126.364 207.877 130.617 205.537C133.17 201.177 134.658 196.073 134.658 190.65C134.871 174.487 121.685 161.301 105.415 161.301Z" fill="#00BECA"/>
<path d="M525.132 170.765C525.132 170.233 525.239 169.701 525.451 169.169C525.664 168.638 525.983 168.319 526.302 167.893C526.621 167.574 527.046 167.255 527.578 167.043C528.003 166.83 528.535 166.724 529.067 166.724C529.599 166.724 530.13 166.83 530.556 167.043C530.981 167.255 531.406 167.468 531.832 167.893C532.151 168.212 532.47 168.638 532.682 169.169C532.895 169.701 533.001 170.127 533.001 170.765C533.001 171.296 532.895 171.828 532.682 172.36C532.47 172.785 532.151 173.21 531.832 173.636C531.513 173.955 531.087 174.274 530.556 174.486C530.13 174.699 529.599 174.805 529.067 174.805C528.535 174.805 528.003 174.699 527.578 174.486C527.153 174.274 526.727 174.061 526.302 173.636C525.983 173.317 525.664 172.891 525.451 172.36C525.239 171.828 525.132 171.296 525.132 170.765ZM525.877 170.765C525.877 171.19 525.983 171.722 526.089 172.041C526.302 172.466 526.515 172.785 526.727 173.104C527.046 173.423 527.365 173.636 527.791 173.848C528.216 174.061 528.641 174.061 529.067 174.061C529.492 174.061 529.918 173.955 530.343 173.848C530.768 173.636 531.087 173.423 531.406 173.104C531.725 172.785 531.938 172.466 532.044 172.041C532.257 171.615 532.257 171.19 532.257 170.765C532.257 170.339 532.151 169.808 532.044 169.489C531.832 169.063 531.619 168.744 531.406 168.425C531.087 168.106 530.768 167.893 530.343 167.681C529.918 167.468 529.492 167.468 529.067 167.468C528.641 167.468 528.216 167.574 527.791 167.681C527.365 167.893 527.046 168.106 526.727 168.425C526.408 168.744 526.196 169.063 526.089 169.489C525.877 169.808 525.877 170.233 525.877 170.765ZM527.578 168.425H529.28C530.343 168.425 530.875 168.85 530.875 169.701C530.875 170.127 530.768 170.446 530.556 170.658C530.343 170.871 530.024 170.977 529.705 170.977L530.981 172.998H530.237L528.961 170.977H528.216V172.998H527.472L527.578 168.425ZM528.216 170.446H528.961C529.067 170.446 529.28 170.446 529.386 170.446C529.492 170.446 529.705 170.446 529.811 170.339C529.918 170.339 530.024 170.233 530.13 170.127C530.237 170.02 530.237 169.914 530.237 169.701C530.237 169.595 530.237 169.382 530.13 169.276C530.024 169.169 530.024 169.063 529.918 169.063C529.811 169.063 529.705 168.957 529.599 168.957C529.492 168.957 529.386 168.957 529.28 168.957H528.322L528.216 170.446Z" fill="#071C26"/>
</svg>
