<svg width="604" height="381" viewBox="0 0 604 381" fill="none" xmlns="http://www.w3.org/2000/svg">
<g clip-path="url(#clip0_480_2315)">
<path d="M202.109 114.521H213.417C224.367 114.521 233.599 119.078 233.599 131.348C233.599 142.145 224.582 147.965 214.419 147.965H202.109V114.521ZM209.624 141.094H213.56C220.574 141.094 225.798 138.499 225.798 130.927C225.798 124.336 220.431 121.322 214.061 121.322H209.624V141.094V141.094Z" fill="#071C26"/>
<path d="M237.464 124.968H244.692V128.684H244.764C246.338 125.879 248.342 124.407 251.491 124.407C252.278 124.407 253.209 124.477 253.925 124.617V131.067C252.923 130.787 251.921 130.577 250.847 130.577C245.336 130.577 244.692 133.662 244.692 138.289V147.895H237.464V124.968Z" fill="#071C26"/>
<path d="M278.473 143.968C276.182 146.843 272.389 148.526 268.596 148.526C261.368 148.526 255.571 143.828 255.571 136.466C255.571 129.174 261.368 124.407 268.596 124.407C275.324 124.407 279.546 129.104 279.546 136.466V138.71H262.799C263.372 141.374 265.447 143.127 268.238 143.127C270.6 143.127 272.175 141.935 273.391 140.322L278.473 143.968ZM272.318 133.802C272.389 131.418 270.457 129.455 267.88 129.455C264.732 129.455 262.942 131.558 262.799 133.802H272.318Z" fill="#071C26"/>
<path d="M297.796 145.02H297.724C296.15 147.474 293.216 148.456 290.281 148.456C285.916 148.456 281.979 146.002 281.979 141.374C281.979 133.451 291.784 133.311 297.796 133.311C297.796 130.787 295.649 129.174 293.144 129.174C290.782 129.174 288.778 130.226 287.276 131.909L283.411 128.053C286.059 125.599 289.924 124.337 293.717 124.337C302.162 124.337 304.38 128.543 304.38 136.186V147.825H297.724V145.02H297.796ZM296.007 137.869C293.788 137.869 288.85 138.079 288.85 141.164C288.85 142.847 290.711 143.688 292.285 143.688C295.148 143.688 297.796 142.216 297.796 139.411V137.869H296.007Z" fill="#071C26"/>
<path d="M308.96 124.968H315.903V128.053H315.974C316.905 126.23 319.266 124.337 322.845 124.337C326.137 124.337 328.785 125.669 330.073 128.473C331.791 125.528 334.009 124.337 337.516 124.337C343.886 124.337 345.818 128.754 345.818 134.293V147.825H338.518V134.503C338.518 132.4 337.731 130.577 335.369 130.577C332.077 130.577 331.003 132.89 331.003 135.695V147.825H323.775V135.765C323.775 134.082 323.847 130.647 320.554 130.647C316.761 130.647 316.189 133.521 316.189 136.466V147.895H308.96V124.968Z" fill="#071C26"/>
<path d="M350.327 114.521H357.841V126.931H372.441V114.521H379.956V147.965H372.441V133.451H357.841V147.895H350.327V114.521Z" fill="#071C26"/>
<path d="M396.202 124.407C403.431 124.407 409.227 129.104 409.227 136.466C409.227 143.758 403.431 148.526 396.202 148.526C388.974 148.526 383.177 143.828 383.177 136.466C383.177 129.104 388.974 124.407 396.202 124.407ZM396.202 142.216C399.781 142.216 401.999 139.832 401.999 136.396C401.999 132.961 399.852 130.577 396.202 130.577C392.624 130.577 390.405 132.961 390.405 136.396C390.405 139.902 392.624 142.216 396.202 142.216Z" fill="#071C26"/>
<path d="M425.759 131.698C424.686 130.436 423.326 129.735 421.537 129.735C420.32 129.735 418.889 130.226 418.889 131.628C418.889 134.994 431.055 132.119 431.055 140.883C431.055 146.703 425.258 148.456 420.248 148.456C416.956 148.456 413.378 147.684 411.016 145.371L415.382 140.603C416.742 142.216 418.316 143.127 420.463 143.127C422.109 143.127 423.755 142.706 423.755 141.444C423.755 137.728 411.589 140.883 411.589 132.119C411.589 126.72 416.527 124.407 421.393 124.407C424.471 124.407 427.906 125.178 430.053 127.422L425.759 131.698Z" fill="#071C26"/>
<path d="M450.522 130.647H444.152V138.289C444.152 140.743 444.439 142.566 447.588 142.566C448.375 142.566 449.878 142.496 450.522 141.935V147.825C448.947 148.386 447.158 148.526 445.44 148.526C440.645 148.526 436.924 146.563 436.924 141.585V130.647H432.272V124.968H436.924V118.167H444.152V124.968H450.522V130.647Z" fill="#071C26"/>
<path d="M189.155 140.253C185.648 142.146 181.641 143.197 177.347 143.127C164.607 142.847 154.588 132.82 154.803 120.621C154.874 116.484 156.162 112.628 158.309 109.402C151.51 113.118 146.859 120.06 146.715 128.123C146.429 140.253 156.52 150.349 169.188 150.629C177.633 150.77 185.004 146.633 189.155 140.253Z" fill="#071C26"/>
<path d="M170.547 108.421C167.112 108.421 163.891 109.262 161.028 110.805C159.239 113.679 158.237 116.975 158.094 120.34C157.879 130.927 166.682 139.692 177.632 139.902C180.924 139.902 184.646 139.131 187.509 137.588C189.226 134.713 190.228 131.348 190.228 127.772C190.371 117.115 181.497 108.421 170.547 108.421Z" fill="#0073EC"/>
<path d="M453.026 114.661C453.026 114.31 453.098 113.96 453.241 113.609C453.384 113.258 453.599 113.048 453.814 112.768C454.028 112.557 454.315 112.347 454.672 112.207C454.959 112.066 455.317 111.996 455.674 111.996C456.032 111.996 456.39 112.066 456.676 112.207C456.963 112.347 457.249 112.487 457.535 112.768C457.75 112.978 457.965 113.258 458.108 113.609C458.251 113.96 458.322 114.24 458.322 114.661C458.322 115.011 458.251 115.362 458.108 115.712C457.965 115.993 457.75 116.273 457.535 116.554C457.32 116.764 457.034 116.974 456.676 117.115C456.39 117.255 456.032 117.325 455.674 117.325C455.317 117.325 454.959 117.255 454.672 117.115C454.386 116.974 454.1 116.834 453.814 116.554C453.599 116.343 453.384 116.063 453.241 115.712C453.098 115.362 453.026 115.011 453.026 114.661ZM453.527 114.661C453.527 114.941 453.599 115.292 453.67 115.502C453.814 115.782 453.957 115.993 454.1 116.203C454.315 116.414 454.529 116.554 454.816 116.694C455.102 116.834 455.388 116.834 455.674 116.834C455.961 116.834 456.247 116.764 456.533 116.694C456.819 116.554 457.034 116.414 457.249 116.203C457.464 115.993 457.607 115.782 457.678 115.502C457.821 115.222 457.821 114.941 457.821 114.661C457.821 114.38 457.75 114.03 457.678 113.819C457.535 113.539 457.392 113.329 457.249 113.118C457.034 112.908 456.819 112.768 456.533 112.627C456.247 112.487 455.961 112.487 455.674 112.487C455.388 112.487 455.102 112.557 454.816 112.627C454.529 112.768 454.315 112.908 454.1 113.118C453.885 113.329 453.742 113.539 453.67 113.819C453.527 114.03 453.527 114.31 453.527 114.661ZM454.672 113.118H455.818C456.533 113.118 456.891 113.399 456.891 113.96C456.891 114.24 456.819 114.45 456.676 114.591C456.533 114.731 456.318 114.801 456.104 114.801L456.963 116.133H456.462L455.603 114.801H455.102V116.133H454.601L454.672 113.118ZM455.102 114.45H455.603C455.674 114.45 455.818 114.45 455.889 114.45C455.961 114.45 456.104 114.45 456.175 114.38C456.247 114.38 456.318 114.31 456.39 114.24C456.462 114.17 456.462 114.1 456.462 113.96C456.462 113.889 456.462 113.749 456.39 113.679C456.318 113.609 456.318 113.539 456.247 113.539C456.175 113.539 456.104 113.469 456.032 113.469C455.961 113.469 455.889 113.469 455.818 113.469H455.173L455.102 114.45Z" fill="#071C26"/>
</g>
<path d="M151.518 170.883C151.111 171.29 151.111 171.95 151.518 172.357L158.152 178.991C158.559 179.399 159.219 179.399 159.627 178.991C160.034 178.584 160.034 177.924 159.627 177.517L153.729 171.62L159.627 165.722C160.034 165.315 160.034 164.655 159.627 164.248C159.219 163.841 158.559 163.841 158.152 164.248L151.518 170.883ZM453.234 172.357C453.641 171.95 453.641 171.29 453.234 170.883L446.6 164.248C446.193 163.841 445.533 163.841 445.125 164.248C444.718 164.655 444.718 165.315 445.125 165.722L451.023 171.62L445.125 177.517C444.718 177.924 444.718 178.584 445.125 178.991C445.533 179.399 446.193 179.399 446.6 178.991L453.234 172.357ZM152.255 172.662H452.497V170.577H152.255V172.662Z" fill="#CCCCCC"/>
<path d="M254.904 200.253L255.671 202.922L260.642 201.454V221.47H263.711V198.118H261.042L254.904 200.253ZM271.933 207.225L272.333 201.02H282.308V198.118H269.531L268.663 210.227H275.269C278.104 210.227 280.139 211.862 280.139 214.564C280.139 217.266 278.138 218.868 275.202 218.868C272.633 218.868 270.765 217.667 270.131 215.398L267.496 216.899C268.597 220.135 271.632 221.904 275.202 221.904C277.437 221.904 279.305 221.236 280.873 219.935C282.441 218.634 283.208 216.833 283.208 214.564C283.208 212.262 282.441 210.494 280.907 209.193C279.405 207.892 277.537 207.225 275.335 207.225H271.933ZM301.003 218.601C302.57 216.399 303.371 213.463 303.371 209.794C303.371 206.124 302.57 203.188 301.003 200.987C299.435 198.785 297.199 197.684 294.364 197.684C291.528 197.684 289.293 198.785 287.725 200.987C286.157 203.188 285.357 206.124 285.357 209.794C285.357 213.463 286.157 216.399 287.725 218.601C289.293 220.803 291.528 221.904 294.364 221.904C297.199 221.904 299.435 220.803 301.003 218.601ZM288.459 209.794C288.459 203.956 290.594 200.686 294.364 200.686C298.134 200.686 300.302 204.022 300.302 209.794C300.302 215.565 298.134 218.868 294.364 218.868C290.594 218.868 288.459 215.565 288.459 209.794ZM324.618 204.356C321.849 204.356 319.747 205.457 318.313 207.659V204.79H315.41V228.142H318.313V218.601C319.747 220.803 321.849 221.904 324.618 221.904C326.953 221.904 328.954 221.07 330.589 219.368C332.224 217.667 333.058 215.565 333.058 213.13C333.058 210.694 332.224 208.626 330.589 206.925C328.954 205.223 326.953 204.356 324.618 204.356ZM324.251 219.101C322.549 219.101 321.148 218.534 320.014 217.4C318.88 216.232 318.313 214.831 318.313 213.13C318.313 211.428 318.88 210.027 320.014 208.893C321.148 207.725 322.549 207.158 324.251 207.158C325.919 207.158 327.32 207.725 328.454 208.893C329.588 210.027 330.155 211.428 330.155 213.13C330.155 214.831 329.588 216.232 328.454 217.4C327.32 218.534 325.919 219.101 324.251 219.101ZM343.455 212.863L349.46 204.79H346.057L341.753 210.594L337.45 204.79H334.014L340.052 212.896L333.647 221.47H337.05L341.753 215.165L346.424 221.47H349.827L343.455 212.863ZM181.633 237.684C176.929 237.384 174.327 239.786 174.327 244.289V244.79H171.658V247.592H174.327V261.47H177.229V247.592H181.633V244.79H177.229V244.289C177.229 241.52 178.697 240.253 181.633 240.486V237.684ZM197.008 259.368C198.71 257.667 199.577 255.598 199.577 253.13C199.577 250.661 198.71 248.593 197.008 246.891C195.307 245.19 193.205 244.356 190.77 244.356C188.335 244.356 186.233 245.19 184.532 246.891C182.83 248.593 181.996 250.661 181.996 253.13C181.996 255.598 182.83 257.667 184.532 259.368C186.233 261.07 188.335 261.904 190.77 261.904C193.205 261.904 195.307 261.07 197.008 259.368ZM190.77 259.068C189.135 259.068 187.734 258.501 186.6 257.367C185.466 256.232 184.899 254.831 184.899 253.13C184.899 251.428 185.466 250.027 186.6 248.893C187.734 247.759 189.135 247.192 190.77 247.192C192.438 247.192 193.839 247.759 194.973 248.893C196.108 250.027 196.675 251.428 196.675 253.13C196.675 254.831 196.108 256.232 194.973 257.367C193.839 258.501 192.438 259.068 190.77 259.068ZM205.901 244.79H202.999V261.47H205.901V252.629C205.901 250.795 206.401 249.494 207.435 248.66C208.47 247.826 209.671 247.459 211.105 247.525V244.489C208.603 244.489 206.868 245.524 205.901 247.592V244.79ZM222.585 238.118V261.47H231.693C234.862 261.47 237.497 260.336 239.599 258.1C241.701 255.832 242.768 253.063 242.768 249.794C242.768 246.524 241.701 243.756 239.599 241.52C237.497 239.252 234.862 238.118 231.693 238.118H222.585ZM225.688 258.534V241.053H231.693C234.061 241.053 236.029 241.887 237.531 243.555C239.032 245.223 239.799 247.292 239.799 249.794C239.799 252.296 239.032 254.364 237.531 256.032C236.029 257.7 234.061 258.534 231.693 258.534H225.688ZM247.698 241.754C248.765 241.754 249.633 240.887 249.633 239.819C249.633 238.752 248.765 237.851 247.698 237.851C246.597 237.851 245.73 238.752 245.73 239.819C245.73 240.887 246.597 241.754 247.698 241.754ZM249.132 261.47V244.79H246.23V261.47H249.132ZM267.405 247.659C265.97 245.457 263.869 244.356 261.133 244.356C258.764 244.356 256.729 245.19 255.095 246.891C253.46 248.559 252.626 250.594 252.626 253.03C252.626 255.465 253.46 257.5 255.095 259.201C256.729 260.903 258.764 261.737 261.133 261.737C263.835 261.737 265.937 260.636 267.405 258.401V260.769C267.405 263.939 265.303 265.873 261.834 265.873C259.131 265.873 257.297 264.939 256.396 263.071L253.86 264.506C255.228 267.141 258.03 268.576 261.767 268.576C264.102 268.576 266.104 267.875 267.772 266.507C269.44 265.139 270.274 263.238 270.274 260.769V244.79H267.405V247.659ZM267.405 253.03C267.405 254.731 266.838 256.132 265.703 257.266C264.569 258.401 263.168 258.968 261.467 258.968C259.765 258.968 258.364 258.401 257.23 257.266C256.096 256.132 255.528 254.731 255.528 253.03C255.528 251.362 256.096 249.961 257.23 248.826C258.364 247.692 259.765 247.125 261.467 247.125C263.168 247.125 264.569 247.692 265.703 248.826C266.838 249.961 267.405 251.362 267.405 253.03ZM276.139 241.754C277.206 241.754 278.074 240.887 278.074 239.819C278.074 238.752 277.206 237.851 276.139 237.851C275.038 237.851 274.171 238.752 274.171 239.819C274.171 240.887 275.038 241.754 276.139 241.754ZM277.573 261.47V244.79H274.671V261.47H277.573ZM291.075 244.79H286.638V240.119L283.736 240.987V244.79H280.433V247.592H283.736V256.633C283.736 260.769 286.004 262.137 291.075 261.47V258.868C288.106 259.001 286.638 259.201 286.638 256.633V247.592H291.075V244.79ZM307.475 247.659C306.041 245.457 303.939 244.356 301.17 244.356C298.835 244.356 296.833 245.223 295.199 246.925C293.564 248.626 292.73 250.694 292.73 253.13C292.73 255.565 293.564 257.667 295.199 259.368C296.833 261.07 298.835 261.904 301.17 261.904C303.939 261.904 306.041 260.803 307.475 258.601V261.47H310.378V244.79H307.475V247.659ZM301.537 259.101C299.869 259.101 298.468 258.534 297.334 257.4C296.2 256.232 295.632 254.831 295.632 253.13C295.632 251.428 296.2 250.027 297.334 248.893C298.468 247.725 299.869 247.158 301.537 247.158C303.239 247.158 304.64 247.725 305.774 248.893C306.908 250.027 307.475 251.428 307.475 253.13C307.475 254.831 306.908 256.232 305.774 257.4C304.64 258.534 303.239 259.101 301.537 259.101ZM317.677 261.47V237.117H314.775V261.47H317.677ZM338.285 261.904C340.687 261.904 342.622 261.303 344.123 260.102C345.624 258.868 346.358 257.233 346.358 255.198C346.358 253.73 346.024 252.529 345.19 251.695C344.623 251.028 344.323 250.661 343.389 250.161C342.488 249.66 342.221 249.494 341.054 249.06C340.487 248.826 340.086 248.693 339.819 248.593L338.452 248.159C336.65 247.592 335.382 247.025 334.649 246.491C333.915 245.957 333.548 245.19 333.548 244.156C333.548 242.021 335.249 240.686 337.784 240.686C340.32 240.686 342.088 241.887 343.089 244.289L345.691 242.788C344.323 239.719 341.487 237.684 337.784 237.684C335.749 237.684 334.015 238.284 332.58 239.485C331.146 240.653 330.445 242.254 330.445 244.289C330.445 245.991 331.146 247.358 331.913 248.192C332.28 248.593 332.847 248.993 333.614 249.393C334.382 249.76 335.049 250.061 335.549 250.261L337.784 250.995C339.753 251.629 341.187 252.196 342.021 252.763C342.855 253.33 343.289 254.164 343.289 255.265C343.289 257.433 341.554 258.868 338.352 258.868C335.116 258.868 333.014 257.467 332.113 254.631L329.444 256.166C330.679 259.735 333.915 261.904 338.285 261.904ZM357.962 261.904C361.198 261.904 364.034 260.202 365.468 257.567L363 256.132C362.065 257.9 360.197 259.035 357.962 259.035C356.294 259.035 354.893 258.467 353.759 257.333C352.658 256.199 352.091 254.798 352.091 253.13C352.091 251.428 352.658 250.027 353.759 248.893C354.893 247.759 356.294 247.192 357.962 247.192C360.197 247.192 362.065 248.359 362.899 250.127L365.335 248.726C364.034 246.057 361.265 244.356 357.962 244.356C355.46 244.356 353.358 245.19 351.69 246.891C350.022 248.559 349.188 250.628 349.188 253.13C349.188 255.632 350.022 257.7 351.69 259.402C353.358 261.07 355.46 261.904 357.962 261.904ZM371.269 244.79H368.366V261.47H371.269V252.629C371.269 250.795 371.769 249.494 372.803 248.66C373.837 247.826 375.038 247.459 376.473 247.525V244.489C373.971 244.489 372.236 245.524 371.269 247.592V244.79ZM394.413 254.464C394.48 254.031 394.513 253.597 394.513 253.163C394.513 250.728 393.746 248.66 392.178 246.958C390.644 245.223 388.642 244.356 386.207 244.356C383.638 244.356 381.536 245.19 379.902 246.858C378.267 248.526 377.466 250.628 377.466 253.13C377.466 255.665 378.3 257.767 379.935 259.435C381.603 261.07 383.771 261.904 386.407 261.904C389.676 261.904 392.112 260.636 393.746 258.134L391.278 256.733C390.277 258.367 388.675 259.168 386.474 259.168C383.304 259.168 381.003 257.433 380.435 254.464H394.413ZM386.207 247.092C388.876 247.092 391.077 248.76 391.578 251.929H380.435C380.936 248.993 383.104 247.092 386.207 247.092ZM413.83 254.464C413.897 254.031 413.93 253.597 413.93 253.163C413.93 250.728 413.163 248.66 411.595 246.958C410.06 245.223 408.059 244.356 405.623 244.356C403.055 244.356 400.953 245.19 399.318 246.858C397.684 248.526 396.883 250.628 396.883 253.13C396.883 255.665 397.717 257.767 399.352 259.435C401.02 261.07 403.188 261.904 405.824 261.904C409.093 261.904 411.528 260.636 413.163 258.134L410.694 256.733C409.693 258.367 408.092 259.168 405.89 259.168C402.721 259.168 400.419 257.433 399.852 254.464H413.83ZM405.623 247.092C408.292 247.092 410.494 248.76 410.994 251.929H399.852C400.353 248.993 402.521 247.092 405.623 247.092ZM425.573 244.356C423.138 244.356 421.336 245.29 420.169 247.192V244.79H417.266V261.47H420.169V252.629C420.169 248.893 422.104 247.125 425.006 247.125C427.575 247.125 429.143 248.693 429.143 251.395V261.47H432.045V251.228C432.045 246.992 429.476 244.356 425.573 244.356Z" fill="black"/>
<defs>
<clipPath id="clip0_480_2315">
<rect width="312.752" height="42.7695" fill="white" transform="translate(146 108)"/>
</clipPath>
</defs>
</svg>
