<svg width="604" height="381" viewBox="0 0 604 381" fill="none" xmlns="http://www.w3.org/2000/svg">
<g clip-path="url(#clip0_480_2332)">
<path d="M202.109 114.521H213.417C224.367 114.521 233.599 119.078 233.599 131.348C233.599 142.145 224.582 147.965 214.419 147.965H202.109V114.521ZM209.624 141.094H213.56C220.574 141.094 225.798 138.499 225.798 130.927C225.798 124.336 220.431 121.322 214.061 121.322H209.624V141.094V141.094Z" fill="#071C26"/>
<path d="M237.464 124.968H244.692V128.684H244.764C246.338 125.879 248.342 124.407 251.491 124.407C252.278 124.407 253.209 124.477 253.925 124.617V131.067C252.923 130.787 251.921 130.577 250.847 130.577C245.336 130.577 244.692 133.662 244.692 138.289V147.895H237.464V124.968Z" fill="#071C26"/>
<path d="M278.473 143.968C276.182 146.843 272.389 148.526 268.596 148.526C261.368 148.526 255.571 143.828 255.571 136.466C255.571 129.174 261.368 124.407 268.596 124.407C275.324 124.407 279.546 129.104 279.546 136.466V138.71H262.799C263.372 141.374 265.447 143.127 268.238 143.127C270.6 143.127 272.175 141.935 273.391 140.322L278.473 143.968ZM272.318 133.802C272.389 131.418 270.457 129.455 267.88 129.455C264.732 129.455 262.942 131.558 262.799 133.802H272.318Z" fill="#071C26"/>
<path d="M297.796 145.02H297.724C296.15 147.474 293.216 148.456 290.281 148.456C285.916 148.456 281.979 146.002 281.979 141.374C281.979 133.451 291.784 133.311 297.796 133.311C297.796 130.787 295.649 129.174 293.144 129.174C290.782 129.174 288.778 130.226 287.276 131.909L283.411 128.053C286.059 125.599 289.924 124.337 293.717 124.337C302.162 124.337 304.38 128.543 304.38 136.186V147.825H297.724V145.02H297.796ZM296.007 137.869C293.788 137.869 288.85 138.079 288.85 141.164C288.85 142.847 290.711 143.688 292.285 143.688C295.148 143.688 297.796 142.216 297.796 139.411V137.869H296.007Z" fill="#071C26"/>
<path d="M308.96 124.968H315.903V128.053H315.974C316.905 126.23 319.266 124.337 322.845 124.337C326.137 124.337 328.785 125.669 330.073 128.473C331.791 125.528 334.009 124.337 337.516 124.337C343.886 124.337 345.818 128.754 345.818 134.293V147.825H338.518V134.503C338.518 132.4 337.731 130.577 335.369 130.577C332.077 130.577 331.003 132.89 331.003 135.695V147.825H323.775V135.765C323.775 134.082 323.847 130.647 320.554 130.647C316.761 130.647 316.189 133.521 316.189 136.466V147.895H308.96V124.968Z" fill="#071C26"/>
<path d="M350.327 114.521H357.841V126.931H372.441V114.521H379.956V147.965H372.441V133.451H357.841V147.895H350.327V114.521Z" fill="#071C26"/>
<path d="M396.202 124.407C403.431 124.407 409.227 129.104 409.227 136.466C409.227 143.758 403.431 148.526 396.202 148.526C388.974 148.526 383.177 143.828 383.177 136.466C383.177 129.104 388.974 124.407 396.202 124.407ZM396.202 142.216C399.781 142.216 401.999 139.832 401.999 136.396C401.999 132.961 399.852 130.577 396.202 130.577C392.624 130.577 390.405 132.961 390.405 136.396C390.405 139.902 392.624 142.216 396.202 142.216Z" fill="#071C26"/>
<path d="M425.759 131.698C424.686 130.436 423.326 129.735 421.537 129.735C420.32 129.735 418.889 130.226 418.889 131.628C418.889 134.994 431.055 132.119 431.055 140.883C431.055 146.703 425.258 148.456 420.248 148.456C416.956 148.456 413.378 147.684 411.016 145.371L415.382 140.603C416.742 142.216 418.316 143.127 420.463 143.127C422.109 143.127 423.755 142.706 423.755 141.444C423.755 137.728 411.589 140.883 411.589 132.119C411.589 126.72 416.527 124.407 421.393 124.407C424.471 124.407 427.906 125.178 430.053 127.422L425.759 131.698Z" fill="#071C26"/>
<path d="M450.522 130.647H444.152V138.289C444.152 140.743 444.439 142.566 447.588 142.566C448.375 142.566 449.878 142.496 450.522 141.935V147.825C448.947 148.386 447.158 148.526 445.44 148.526C440.645 148.526 436.924 146.563 436.924 141.585V130.647H432.272V124.968H436.924V118.167H444.152V124.968H450.522V130.647Z" fill="#071C26"/>
<path d="M189.155 140.253C185.648 142.146 181.641 143.197 177.347 143.127C164.607 142.847 154.588 132.82 154.803 120.621C154.874 116.484 156.162 112.628 158.309 109.402C151.51 113.118 146.859 120.06 146.715 128.123C146.429 140.253 156.52 150.349 169.188 150.629C177.633 150.77 185.004 146.633 189.155 140.253Z" fill="#071C26"/>
<path d="M170.547 108.421C167.112 108.421 163.891 109.262 161.028 110.805C159.239 113.679 158.237 116.975 158.094 120.34C157.879 130.927 166.682 139.692 177.632 139.902C180.924 139.902 184.646 139.131 187.509 137.588C189.226 134.713 190.228 131.348 190.228 127.772C190.371 117.115 181.497 108.421 170.547 108.421Z" fill="#0073EC"/>
<path d="M453.026 114.661C453.026 114.31 453.098 113.96 453.241 113.609C453.384 113.258 453.599 113.048 453.814 112.768C454.028 112.557 454.315 112.347 454.672 112.207C454.959 112.066 455.317 111.996 455.674 111.996C456.032 111.996 456.39 112.066 456.676 112.207C456.963 112.347 457.249 112.487 457.535 112.768C457.75 112.978 457.965 113.258 458.108 113.609C458.251 113.96 458.322 114.24 458.322 114.661C458.322 115.011 458.251 115.362 458.108 115.712C457.965 115.993 457.75 116.273 457.535 116.554C457.32 116.764 457.034 116.974 456.676 117.115C456.39 117.255 456.032 117.325 455.674 117.325C455.317 117.325 454.959 117.255 454.672 117.115C454.386 116.974 454.1 116.834 453.814 116.554C453.599 116.343 453.384 116.063 453.241 115.712C453.098 115.362 453.026 115.011 453.026 114.661ZM453.527 114.661C453.527 114.941 453.599 115.292 453.67 115.502C453.814 115.782 453.957 115.993 454.1 116.203C454.315 116.414 454.529 116.554 454.816 116.694C455.102 116.834 455.388 116.834 455.674 116.834C455.961 116.834 456.247 116.764 456.533 116.694C456.819 116.554 457.034 116.414 457.249 116.203C457.464 115.993 457.607 115.782 457.678 115.502C457.821 115.222 457.821 114.941 457.821 114.661C457.821 114.38 457.75 114.03 457.678 113.819C457.535 113.539 457.392 113.329 457.249 113.118C457.034 112.908 456.819 112.768 456.533 112.627C456.247 112.487 455.961 112.487 455.674 112.487C455.388 112.487 455.102 112.557 454.816 112.627C454.529 112.768 454.315 112.908 454.1 113.118C453.885 113.329 453.742 113.539 453.67 113.819C453.527 114.03 453.527 114.31 453.527 114.661ZM454.672 113.118H455.818C456.533 113.118 456.891 113.399 456.891 113.96C456.891 114.24 456.819 114.45 456.676 114.591C456.533 114.731 456.318 114.801 456.104 114.801L456.963 116.133H456.462L455.603 114.801H455.102V116.133H454.601L454.672 113.118ZM455.102 114.45H455.603C455.674 114.45 455.818 114.45 455.889 114.45C455.961 114.45 456.104 114.45 456.175 114.38C456.247 114.38 456.318 114.31 456.39 114.24C456.462 114.17 456.462 114.1 456.462 113.96C456.462 113.889 456.462 113.749 456.39 113.679C456.318 113.609 456.318 113.539 456.247 113.539C456.175 113.539 456.104 113.469 456.032 113.469C455.961 113.469 455.889 113.469 455.818 113.469H455.173L455.102 114.45Z" fill="#071C26"/>
</g>
<path d="M151.518 170.883C151.111 171.29 151.111 171.95 151.518 172.357L158.152 178.991C158.559 179.399 159.219 179.399 159.627 178.991C160.034 178.584 160.034 177.924 159.627 177.517L153.729 171.62L159.627 165.722C160.034 165.315 160.034 164.655 159.627 164.248C159.219 163.841 158.559 163.841 158.152 164.248L151.518 170.883ZM453.234 172.357C453.641 171.95 453.641 171.29 453.234 170.883L446.6 164.248C446.193 163.841 445.533 163.841 445.125 164.248C444.718 164.655 444.718 165.315 445.125 165.722L451.023 171.62L445.125 177.517C444.718 177.924 444.718 178.584 445.125 178.991C445.533 179.399 446.193 179.399 446.6 178.991L453.234 172.357ZM152.255 172.662H452.497V170.577H152.255V172.662Z" fill="#CCCCCC"/>
<path d="M266.075 200.853V198.118H252.064V201.02H262.439L257.034 208.326L258.269 210.227H259.069C261.972 210.227 263.973 211.862 263.973 214.564C263.973 217.266 261.972 218.868 259.069 218.868C256.367 218.868 254.699 217.8 253.999 215.632L251.397 217.166C252.564 220.236 255.5 221.904 259.069 221.904C261.305 221.904 263.173 221.236 264.741 219.935C266.309 218.634 267.076 216.833 267.076 214.564C267.076 210.861 264.574 208.359 261.004 207.692L266.075 200.853ZM285.463 218.601C287.031 216.399 287.831 213.463 287.831 209.794C287.831 206.124 287.031 203.188 285.463 200.987C283.895 198.785 281.66 197.684 278.824 197.684C275.988 197.684 273.753 198.785 272.185 200.987C270.617 203.188 269.817 206.124 269.817 209.794C269.817 213.463 270.617 216.399 272.185 218.601C273.753 220.803 275.988 221.904 278.824 221.904C281.66 221.904 283.895 220.803 285.463 218.601ZM272.919 209.794C272.919 203.956 275.054 200.686 278.824 200.686C282.594 200.686 284.762 204.022 284.762 209.794C284.762 215.565 282.594 218.868 278.824 218.868C275.054 218.868 272.919 215.565 272.919 209.794ZM317.885 204.356C315.55 204.356 313.815 205.29 312.647 207.192C311.613 205.29 309.979 204.356 307.743 204.356C305.575 204.356 303.907 205.257 302.773 207.025V204.79H299.87V221.47H302.773V212.196C302.773 208.826 304.608 207.125 307.043 207.125C309.211 207.125 310.579 208.626 310.579 211.195V221.47H313.481V212.196C313.481 208.76 315.083 207.125 317.585 207.125C319.82 207.125 321.254 208.626 321.254 211.195V221.47H324.157V211.095C324.157 206.958 321.621 204.356 317.885 204.356ZM346.195 204.356C343.86 204.356 342.126 205.29 340.958 207.192C339.924 205.29 338.289 204.356 336.054 204.356C333.886 204.356 332.218 205.257 331.083 207.025V204.79H328.181V221.47H331.083V212.196C331.083 208.826 332.918 207.125 335.353 207.125C337.522 207.125 338.89 208.626 338.89 211.195V221.47H341.792V212.196C341.792 208.76 343.393 207.125 345.895 207.125C348.13 207.125 349.565 208.626 349.565 211.195V221.47H352.467V211.095C352.467 206.958 349.932 204.356 346.195 204.356ZM179.336 237.684C174.632 237.384 172.03 239.786 172.03 244.289V244.79H169.361V247.592H172.03V261.47H174.932V247.592H179.336V244.79H174.932V244.289C174.932 241.52 176.4 240.253 179.336 240.486V237.684ZM194.712 259.368C196.413 257.667 197.28 255.598 197.28 253.13C197.28 250.661 196.413 248.593 194.712 246.891C193.01 245.19 190.908 244.356 188.473 244.356C186.038 244.356 183.936 245.19 182.235 246.891C180.533 248.593 179.699 250.661 179.699 253.13C179.699 255.598 180.533 257.667 182.235 259.368C183.936 261.07 186.038 261.904 188.473 261.904C190.908 261.904 193.01 261.07 194.712 259.368ZM188.473 259.068C186.839 259.068 185.437 258.501 184.303 257.367C183.169 256.232 182.602 254.831 182.602 253.13C182.602 251.428 183.169 250.027 184.303 248.893C185.437 247.759 186.839 247.192 188.473 247.192C190.141 247.192 191.542 247.759 192.677 248.893C193.811 250.027 194.378 251.428 194.378 253.13C194.378 254.831 193.811 256.232 192.677 257.367C191.542 258.501 190.141 259.068 188.473 259.068ZM203.604 244.79H200.702V261.47H203.604V252.629C203.604 250.795 204.105 249.494 205.139 248.66C206.173 247.826 207.374 247.459 208.808 247.525V244.489C206.306 244.489 204.572 245.524 203.604 247.592V244.79ZM220.288 238.118V261.47H223.391V253.13H228.762C230.93 253.13 232.698 252.396 234.133 250.961C235.567 249.527 236.301 247.725 236.301 245.624C236.301 243.489 235.567 241.721 234.133 240.286C232.698 238.852 230.93 238.118 228.762 238.118H220.288ZM223.391 250.227V241.02H228.762C231.331 241.02 233.232 242.955 233.232 245.624C233.232 246.925 232.799 248.026 231.965 248.926C231.131 249.794 230.063 250.227 228.762 250.227H223.391ZM242.21 244.79H239.307V261.47H242.21V252.629C242.21 250.795 242.71 249.494 243.744 248.66C244.778 247.826 245.979 247.459 247.414 247.525V244.489C244.912 244.489 243.177 245.524 242.21 247.592V244.79ZM251.721 241.754C252.789 241.754 253.656 240.887 253.656 239.819C253.656 238.752 252.789 237.851 251.721 237.851C250.62 237.851 249.753 238.752 249.753 239.819C249.753 240.887 250.62 241.754 251.721 241.754ZM253.156 261.47V244.79H250.254V261.47H253.156ZM265.89 244.356C263.455 244.356 261.654 245.29 260.486 247.192V244.79H257.584V261.47H260.486V252.629C260.486 248.893 262.421 247.125 265.323 247.125C267.892 247.125 269.46 248.693 269.46 251.395V261.47H272.362V251.228C272.362 246.992 269.793 244.356 265.89 244.356ZM285.488 244.79H281.051V240.119L278.149 240.987V244.79H274.846V247.592H278.149V256.633C278.149 260.769 280.417 262.137 285.488 261.47V258.868C282.519 259.001 281.051 259.201 281.051 256.633V247.592H285.488V244.79ZM316.01 238.118L308.604 250.461L301.165 238.118H297.662V261.47H300.765V243.255L308.404 255.932H308.804L316.444 243.222V261.47H319.513V238.118H316.01ZM338.018 247.659C336.583 245.457 334.481 244.356 331.712 244.356C329.377 244.356 327.376 245.223 325.741 246.925C324.106 248.626 323.272 250.694 323.272 253.13C323.272 255.565 324.106 257.667 325.741 259.368C327.376 261.07 329.377 261.904 331.712 261.904C334.481 261.904 336.583 260.803 338.018 258.601V261.47H340.92V244.79H338.018V247.659ZM332.079 259.101C330.411 259.101 329.01 258.534 327.876 257.4C326.742 256.232 326.175 254.831 326.175 253.13C326.175 251.428 326.742 250.027 327.876 248.893C329.01 247.725 330.411 247.158 332.079 247.158C333.781 247.158 335.182 247.725 336.316 248.893C337.45 250.027 338.018 251.428 338.018 253.13C338.018 254.831 337.45 256.232 336.316 257.4C335.182 258.534 333.781 259.101 332.079 259.101ZM354.391 244.79H349.954V240.119L347.052 240.987V244.79H343.749V247.592H347.052V256.633C347.052 260.769 349.32 262.137 354.391 261.47V258.868C351.422 259.001 349.954 259.201 349.954 256.633V247.592H354.391V244.79ZM372.993 254.464C373.06 254.031 373.093 253.597 373.093 253.163C373.093 250.728 372.326 248.66 370.758 246.958C369.223 245.223 367.222 244.356 364.787 244.356C362.218 244.356 360.116 245.19 358.481 246.858C356.847 248.526 356.046 250.628 356.046 253.13C356.046 255.665 356.88 257.767 358.515 259.435C360.183 261.07 362.351 261.904 364.987 261.904C368.256 261.904 370.691 260.636 372.326 258.134L369.857 256.733C368.856 258.367 367.255 259.168 365.053 259.168C361.884 259.168 359.582 257.433 359.015 254.464H372.993ZM364.787 247.092C367.455 247.092 369.657 248.76 370.158 251.929H359.015C359.516 248.993 361.684 247.092 364.787 247.092ZM379.332 244.79H376.429V261.47H379.332V252.629C379.332 250.795 379.832 249.494 380.866 248.66C381.901 247.826 383.102 247.459 384.536 247.525V244.489C382.034 244.489 380.299 245.524 379.332 247.592V244.79ZM388.844 241.754C389.911 241.754 390.779 240.887 390.779 239.819C390.779 238.752 389.911 237.851 388.844 237.851C387.743 237.851 386.875 238.752 386.875 239.819C386.875 240.887 387.743 241.754 388.844 241.754ZM390.278 261.47V244.79H387.376V261.47H390.278ZM408.517 247.659C407.083 245.457 404.981 244.356 402.212 244.356C399.877 244.356 397.875 245.223 396.241 246.925C394.606 248.626 393.772 250.694 393.772 253.13C393.772 255.565 394.606 257.667 396.241 259.368C397.875 261.07 399.877 261.904 402.212 261.904C404.981 261.904 407.083 260.803 408.517 258.601V261.47H411.419V244.79H408.517V247.659ZM402.579 259.101C400.911 259.101 399.51 258.534 398.376 257.4C397.241 256.232 396.674 254.831 396.674 253.13C396.674 251.428 397.241 250.027 398.376 248.893C399.51 247.725 400.911 247.158 402.579 247.158C404.28 247.158 405.681 247.725 406.816 248.893C407.95 250.027 408.517 251.428 408.517 253.13C408.517 254.831 407.95 256.232 406.816 257.4C405.681 258.534 404.28 259.101 402.579 259.101ZM418.719 261.47V237.117H415.817V261.47H418.719ZM425.616 249.293C425.616 247.859 426.951 247.058 428.585 247.058C430.353 247.058 431.554 247.759 432.155 249.193L434.59 247.826C433.523 245.657 431.288 244.356 428.585 244.356C426.884 244.356 425.483 244.823 424.349 245.757C423.248 246.691 422.681 247.892 422.681 249.327C422.681 252.863 426.083 253.73 428.719 254.431C430.554 254.865 432.021 255.598 432.021 256.899C432.021 258.467 430.62 259.168 428.719 259.168C426.684 259.168 425.116 258.167 424.582 256.566L422.08 258C423.048 260.369 425.483 261.904 428.719 261.904C430.554 261.904 432.021 261.436 433.189 260.536C434.357 259.635 434.957 258.401 434.957 256.899C434.991 253.33 431.521 252.363 428.919 251.795C427.084 251.295 425.616 250.594 425.616 249.293Z" fill="black"/>
<defs>
<clipPath id="clip0_480_2332">
<rect width="312.752" height="42.7695" fill="white" transform="translate(146 108)"/>
</clipPath>
</defs>
</svg>
