<?xml version="1.0" encoding="utf-8"?>
<!-- Generator: Adobe Illustrator 25.2.1, SVG Export Plug-In . SVG Version: 6.00 Build 0)  -->
<svg version="1.1" id="Layer_1" xmlns="http://www.w3.org/2000/svg" xmlns:xlink="http://www.w3.org/1999/xlink" x="0px" y="0px"
	 viewBox="0 0 72 352" style="enable-background:new 0 0 72 352;" xml:space="preserve">
<style type="text/css">
	.st0{fill:url(#SVGID_1_);fill-opacity:0.25;}
	.st1{fill:#0073EC;}
	.st2{fill-rule:evenodd;clip-rule:evenodd;fill:#0073EC;}
	.st3{fill:url(#SVGID_2_);fill-opacity:0.25;}
	.st4{fill:#A644E5;}
	.st5{fill-rule:evenodd;clip-rule:evenodd;fill:#A644E5;}
	.st6{fill:url(#SVGID_3_);fill-opacity:0.25;}
	.st7{fill:#00CAAA;}
	.st8{fill-rule:evenodd;clip-rule:evenodd;fill:#00CAAA;}
	.st9{fill:#434F58;}
	.st10{fill-rule:evenodd;clip-rule:evenodd;fill:#434F58;}
	.st11{fill:url(#SVGID_4_);fill-opacity:0.25;}
	.st12{fill:url(#SVGID_5_);fill-opacity:0.25;}
	.st13{fill:#677983;}
	.st14{fill-rule:evenodd;clip-rule:evenodd;fill:#677983;}
</style>
<radialGradient id="SVGID_1_" cx="-253.3368" cy="593.7844" r="1" gradientTransform="matrix(8.561384e-16 13.9818 12.9424 -7.924934e-16 -7648.9082 3578.229)" gradientUnits="userSpaceOnUse">
	<stop  offset="0" style="stop-color:#0073EC"/>
	<stop  offset="1" style="stop-color:#0073EC;stop-opacity:0"/>
</radialGradient>
<path class="st0" d="M35.4,22.1c-1.8,1.8-7.6,3.2-10.6,2.8c-4.5,13.9,0.9,20.1,4.4,22.3h3.4l2.8,2.8l2.8-2.8h3.4
	c9.8-7.6,8-17.7,5.3-22.3C45.1,26.3,38.2,23.3,35.4,22.1z"/>
<path class="st1" d="M36,20.9l0.4,0.2c1.2,0.8,3.2,1.6,5.3,2.2c2.1,0.6,4.2,1,5.4,0.9l0.5,0l0.2,0.4c2.7,6.2,2.8,11,1.5,14.8
	c-1.2,3.6-3.7,6.2-6.4,8.2c-0.3,0.2-0.7,0.2-0.9-0.1c-0.2-0.3-0.1-0.7,0.1-0.9c2.6-1.9,4.8-4.4,5.9-7.6c1.2-3.4,1.1-7.7-1.3-13.4
	c-1.5,0-3.4-0.4-5.4-0.9c-2-0.6-4-1.4-5.3-2.2c-1.4,0.8-3.3,1.6-5.3,2.2c-1.9,0.6-3.9,0.9-5.4,0.9C22.9,31.3,22.9,35.7,24,39
	c1.1,3.2,3.4,5.6,5.9,7.6c0.3,0.2,0.4,0.6,0.1,0.9c-0.2,0.3-0.6,0.4-0.9,0.1c-2.7-2-5.2-4.7-6.4-8.2c-1.3-3.8-1.2-8.6,1.5-14.8
	l0.2-0.4l0.5,0c1.2,0.1,3.3-0.2,5.4-0.9c2.1-0.6,4.1-1.4,5.3-2.2L36,20.9z"/>
<path class="st2" d="M44.4,30.6l-7.8-2.4c-0.6-0.2-1.2-0.2-1.7,0l-7.8,2.4c-0.6,0.2-1,0.7-1,1.4s0.4,1.2,1,1.4l0.7,0.2
	c-0.1,0.2-0.1,0.3-0.2,0.5c-0.3,0.2-0.5,0.5-0.5,0.9c0,0.3,0.2,0.6,0.4,0.8l-0.8,3.5c-0.1,0.3,0.2,0.6,0.5,0.6h1.7
	c0.3,0,0.5-0.3,0.5-0.6l-0.8-3.5c0.2-0.2,0.4-0.5,0.4-0.8c0-0.3-0.2-0.6-0.4-0.8c0-0.1,0.1-0.2,0.1-0.3l1.7,0.5L30,37.9
	c0,1.1,2.6,2,5.8,2c3.2,0,5.8-0.9,5.8-2l-0.4-3.5l3.3-1c0.6-0.2,1-0.7,1-1.4C45.4,31.4,45,30.8,44.4,30.6z M40.1,37.6
	c-1.8,1.1-6.8,1-8.6,0l0.3-2.8l3.1,1c0.3,0.1,1,0.2,1.7,0l3.1-1L40.1,37.6z M36.2,34.4c-0.3,0.1-0.6,0.1-0.9,0l-4.5-1.4l5.1-1
	c0.3,0,0.4-0.3,0.4-0.6c0-0.3-0.3-0.4-0.6-0.4l-6.1,1.2c-0.2,0-0.4,0.1-0.6,0.2L27.8,32l7.6-2.4c0.3-0.1,0.6-0.1,0.9,0l7.6,2.4
	L36.2,34.4z"/>
<path class="st2" d="M32.1,47.2l3.9-3.9l3.9,3.9l-3.9,3.9L32.1,47.2z M36.1,45.2l2.1,2.1l-2.1,2.1L34,47.2L36.1,45.2z"/>
<radialGradient id="SVGID_2_" cx="-253.3368" cy="593.7844" r="1" gradientTransform="matrix(8.561384e-16 13.9818 12.9424 -7.924934e-16 -7648.9082 3634.229)" gradientUnits="userSpaceOnUse">
	<stop  offset="0" style="stop-color:#A644E5"/>
	<stop  offset="1" style="stop-color:#A644E5;stop-opacity:0"/>
</radialGradient>
<path class="st3" d="M35.4,78.1c-1.8,1.8-7.6,3.2-10.6,2.8c-4.5,13.9,0.9,20.1,4.4,22.3h3.4l2.8,2.8l2.8-2.8h3.4
	c9.8-7.6,8-17.7,5.3-22.3C45.1,82.3,38.2,79.3,35.4,78.1z"/>
<path class="st4" d="M36,76.9l0.4,0.2c1.2,0.8,3.2,1.6,5.3,2.2c2.1,0.6,4.2,1,5.4,0.9l0.5,0l0.2,0.4c2.7,6.2,2.8,11,1.5,14.8
	c-1.2,3.6-3.7,6.2-6.4,8.2c-0.3,0.2-0.7,0.2-0.9-0.1c-0.2-0.3-0.1-0.7,0.1-0.9c2.6-2,4.8-4.4,5.9-7.6c1.2-3.4,1.1-7.7-1.3-13.4
	c-1.5,0-3.4-0.4-5.4-0.9c-2-0.6-4-1.4-5.3-2.2c-1.4,0.8-3.3,1.6-5.3,2.2c-1.9,0.6-3.9,0.9-5.4,0.9C22.9,87.3,22.9,91.7,24,95
	c1.1,3.2,3.4,5.6,5.9,7.6c0.3,0.2,0.4,0.6,0.1,0.9c-0.2,0.3-0.6,0.4-0.9,0.1c-2.7-2-5.2-4.7-6.4-8.2c-1.3-3.8-1.2-8.6,1.5-14.8
	l0.2-0.4l0.5,0c1.2,0.1,3.3-0.2,5.4-0.9c2.1-0.6,4.1-1.4,5.3-2.2L36,76.9z"/>
<path class="st5" d="M44.4,86.6l-7.8-2.4c-0.6-0.2-1.2-0.2-1.7,0l-7.8,2.4c-0.6,0.2-1,0.7-1,1.4s0.4,1.2,1,1.4l0.7,0.2
	c-0.1,0.2-0.1,0.3-0.2,0.5c-0.3,0.2-0.5,0.5-0.5,0.9c0,0.3,0.2,0.6,0.4,0.8l-0.8,3.5c-0.1,0.3,0.2,0.6,0.5,0.6h1.7
	c0.3,0,0.5-0.3,0.5-0.6l-0.8-3.5c0.2-0.2,0.4-0.5,0.4-0.8c0-0.3-0.2-0.6-0.4-0.8c0-0.1,0.1-0.2,0.1-0.3l1.7,0.5L30,93.9
	c0,1.1,2.6,2,5.8,2c3.2,0,5.8-0.9,5.8-2l-0.4-3.5l3.3-1c0.6-0.2,1-0.7,1-1.4C45.4,87.4,45,86.8,44.4,86.6z M40.1,93.6
	c-1.8,1.1-6.8,1-8.6,0l0.3-2.8l3.1,1c0.3,0.1,1,0.2,1.7,0l3.1-1L40.1,93.6z M36.2,90.4c-0.3,0.1-0.6,0.1-0.9,0l-4.5-1.4l5.1-1
	c0.3,0,0.4-0.3,0.4-0.6c0-0.3-0.3-0.4-0.6-0.4l-6.1,1.2c-0.2,0-0.4,0.1-0.6,0.2L27.8,88l7.6-2.4c0.3-0.1,0.6-0.1,0.9,0l7.6,2.4
	L36.2,90.4z"/>
<path class="st5" d="M32.1,103.2l3.9-3.9l3.9,3.9l-3.9,3.9L32.1,103.2z M36.1,101.2l2.1,2.1l-2.1,2.1l-2.1-2.1L36.1,101.2z"/>
<radialGradient id="SVGID_3_" cx="-253.3368" cy="593.7844" r="1" gradientTransform="matrix(8.561384e-16 13.9818 12.9424 -7.924934e-16 -7648.9082 3690.2292)" gradientUnits="userSpaceOnUse">
	<stop  offset="0" style="stop-color:#00CAAA"/>
	<stop  offset="1" style="stop-color:#00CAAA;stop-opacity:0"/>
</radialGradient>
<path class="st6" d="M35.4,134.1c-1.8,1.8-7.6,3.2-10.6,2.8c-4.5,13.9,0.9,20.1,4.4,22.3h3.4l2.8,2.8l2.8-2.8h3.4
	c9.8-7.6,8-17.7,5.3-22.3C45.1,138.3,38.2,135.3,35.4,134.1z"/>
<path class="st7" d="M36,132.9l0.4,0.2c1.2,0.8,3.2,1.6,5.3,2.2c2.1,0.6,4.2,1,5.4,0.9l0.5,0l0.2,0.4c2.7,6.2,2.8,11,1.5,14.8
	c-1.2,3.6-3.7,6.2-6.4,8.2c-0.3,0.2-0.7,0.2-0.9-0.1c-0.2-0.3-0.1-0.7,0.1-0.9c2.6-1.9,4.8-4.4,5.9-7.6c1.2-3.4,1.1-7.7-1.3-13.4
	c-1.5,0-3.4-0.4-5.4-0.9c-2-0.6-4-1.4-5.3-2.2c-1.4,0.8-3.3,1.6-5.3,2.2c-1.9,0.6-3.9,0.9-5.4,0.9c-2.4,5.8-2.4,10.1-1.3,13.4
	c1.1,3.2,3.4,5.6,5.9,7.6c0.3,0.2,0.4,0.6,0.1,0.9c-0.2,0.3-0.6,0.4-0.9,0.1c-2.7-2-5.2-4.7-6.4-8.2c-1.3-3.8-1.2-8.6,1.5-14.8
	l0.2-0.4l0.5,0c1.2,0.1,3.3-0.2,5.4-0.9c2.1-0.6,4.1-1.4,5.3-2.2L36,132.9z"/>
<path class="st8" d="M44.4,142.6l-7.8-2.4c-0.6-0.2-1.2-0.2-1.7,0l-7.8,2.4c-0.6,0.2-1,0.7-1,1.4s0.4,1.2,1,1.4l0.7,0.2
	c-0.1,0.2-0.1,0.3-0.2,0.5c-0.3,0.2-0.5,0.5-0.5,0.9c0,0.3,0.2,0.6,0.4,0.8l-0.8,3.5c-0.1,0.3,0.2,0.6,0.5,0.6h1.7
	c0.3,0,0.5-0.3,0.5-0.6l-0.8-3.5c0.2-0.2,0.4-0.5,0.4-0.8c0-0.3-0.2-0.6-0.4-0.8c0-0.1,0.1-0.2,0.1-0.3l1.7,0.5l-0.4,3.5
	c0,1.1,2.6,2,5.8,2c3.2,0,5.8-0.9,5.8-2l-0.4-3.5l3.3-1c0.6-0.2,1-0.7,1-1.4S45,142.8,44.4,142.6z M40.1,149.6c-1.8,1.1-6.8,1-8.6,0
	l0.3-2.8l3.1,1c0.3,0.1,1,0.2,1.7,0l3.1-1L40.1,149.6z M36.2,146.4c-0.3,0.1-0.6,0.1-0.9,0l-4.5-1.4l5.1-1c0.3,0,0.4-0.3,0.4-0.6
	c0-0.3-0.3-0.4-0.6-0.4l-6.1,1.2c-0.2,0-0.4,0.1-0.6,0.2l-1.2-0.4l7.6-2.4c0.3-0.1,0.6-0.1,0.9,0l7.6,2.4L36.2,146.4z"/>
<path class="st8" d="M32.1,159.2l3.9-3.9l3.9,3.9l-3.9,3.9L32.1,159.2z M36.1,157.2l2.1,2.1l-2.1,2.1l-2.1-2.1L36.1,157.2z"/>
<path class="st9" d="M36,188.9l0.4,0.2c1.2,0.8,3.2,1.6,5.3,2.2c2.1,0.6,4.2,1,5.4,0.9l0.5,0l0.2,0.4c2.7,6.2,2.8,11,1.5,14.8
	c-1.2,3.6-3.7,6.2-6.4,8.2c-0.3,0.2-0.7,0.2-0.9-0.1c-0.2-0.3-0.1-0.7,0.1-0.9c2.6-1.9,4.8-4.4,5.9-7.6c1.2-3.4,1.1-7.7-1.3-13.4
	c-1.5,0-3.4-0.4-5.4-0.9c-2-0.6-4-1.4-5.3-2.2c-1.4,0.8-3.3,1.6-5.3,2.2c-1.9,0.6-3.9,0.9-5.4,0.9c-2.4,5.8-2.4,10.1-1.3,13.4
	c1.1,3.2,3.4,5.6,5.9,7.6c0.3,0.2,0.4,0.6,0.1,0.9c-0.2,0.3-0.6,0.4-0.9,0.1c-2.7-2-5.2-4.7-6.4-8.2c-1.3-3.8-1.2-8.6,1.5-14.8
	l0.2-0.4l0.5,0c1.2,0.1,3.3-0.2,5.4-0.9c2.1-0.6,4.1-1.4,5.3-2.2L36,188.9z"/>
<path class="st10" d="M44.4,198.6l-7.8-2.4c-0.6-0.2-1.2-0.2-1.7,0l-7.8,2.4c-0.6,0.2-1,0.7-1,1.4s0.4,1.2,1,1.4l0.7,0.2
	c-0.1,0.2-0.1,0.3-0.2,0.5c-0.3,0.2-0.5,0.5-0.5,0.9c0,0.3,0.2,0.6,0.4,0.8l-0.8,3.5c-0.1,0.3,0.2,0.6,0.5,0.6h1.7
	c0.3,0,0.5-0.3,0.5-0.6l-0.8-3.5c0.2-0.2,0.4-0.5,0.4-0.8c0-0.3-0.2-0.6-0.4-0.8c0-0.1,0.1-0.2,0.1-0.3l1.7,0.5l-0.4,3.5
	c0,1.1,2.6,2,5.8,2c3.2,0,5.8-0.9,5.8-2l-0.4-3.5l3.3-1c0.6-0.2,1-0.7,1-1.4S45,198.8,44.4,198.6z M40.1,205.6c-1.8,1.1-6.8,1-8.6,0
	l0.3-2.8l3.1,1c0.3,0.1,1,0.2,1.7,0l3.1-1L40.1,205.6z M36.2,202.4c-0.3,0.1-0.6,0.1-0.9,0l-4.5-1.4l5.1-1c0.3,0,0.4-0.3,0.4-0.6
	c0-0.3-0.3-0.4-0.6-0.4l-6.1,1.2c-0.2,0-0.4,0.1-0.6,0.2l-1.2-0.4l7.6-2.4c0.3-0.1,0.6-0.1,0.9,0l7.6,2.4L36.2,202.4z"/>
<path class="st10" d="M32.1,215.2l3.9-3.9l3.9,3.9l-3.9,3.9L32.1,215.2z M36.1,213.2l2.1,2.1l-2.1,2.1l-2.1-2.1L36.1,213.2z"/>
<radialGradient id="SVGID_4_" cx="-253.3368" cy="593.7844" r="1" gradientTransform="matrix(8.561384e-16 13.9818 12.9424 -7.924934e-16 -7648.9082 3802.2292)" gradientUnits="userSpaceOnUse">
	<stop  offset="0" style="stop-color:#434F58"/>
	<stop  offset="1" style="stop-color:#434F58;stop-opacity:0"/>
</radialGradient>
<path class="st11" d="M35.4,246.1c-1.8,1.8-7.6,3.2-10.6,2.8c-4.5,13.9,0.9,20.1,4.4,22.3h3.4l2.8,2.8l2.8-2.8h3.4
	c9.8-7.6,8-17.7,5.3-22.3C45.1,250.3,38.2,247.3,35.4,246.1z"/>
<path class="st9" d="M36,244.9l0.4,0.2c1.2,0.8,3.2,1.6,5.3,2.2c2.1,0.6,4.2,1,5.4,0.9l0.5,0l0.2,0.4c2.7,6.2,2.8,11,1.5,14.8
	c-1.2,3.6-3.7,6.2-6.4,8.2c-0.3,0.2-0.7,0.2-0.9-0.1c-0.2-0.3-0.1-0.7,0.1-0.9c2.6-2,4.8-4.4,5.9-7.6c1.2-3.4,1.1-7.7-1.3-13.4
	c-1.5,0-3.4-0.4-5.4-0.9c-2-0.6-4-1.4-5.3-2.2c-1.4,0.8-3.3,1.6-5.3,2.2c-1.9,0.6-3.9,0.9-5.4,0.9c-2.4,5.8-2.4,10.1-1.3,13.4
	c1.1,3.2,3.4,5.6,5.9,7.6c0.3,0.2,0.4,0.6,0.1,0.9c-0.2,0.3-0.6,0.4-0.9,0.1c-2.7-2-5.2-4.7-6.4-8.2c-1.3-3.8-1.2-8.6,1.5-14.8
	l0.2-0.4l0.5,0c1.2,0.1,3.3-0.2,5.4-0.9c2.1-0.6,4.1-1.4,5.3-2.2L36,244.9z"/>
<path class="st10" d="M44.4,254.6l-7.8-2.4c-0.6-0.2-1.2-0.2-1.7,0l-7.8,2.4c-0.6,0.2-1,0.7-1,1.4c0,0.6,0.4,1.2,1,1.4l0.7,0.2
	c-0.1,0.2-0.1,0.3-0.2,0.5c-0.3,0.2-0.5,0.5-0.5,0.9c0,0.3,0.2,0.6,0.4,0.8l-0.8,3.5c-0.1,0.3,0.2,0.6,0.5,0.6h1.7
	c0.3,0,0.5-0.3,0.5-0.6l-0.8-3.5c0.2-0.2,0.4-0.5,0.4-0.8c0-0.3-0.2-0.6-0.4-0.8c0-0.1,0.1-0.2,0.1-0.3l1.7,0.5l-0.4,3.5
	c0,1.1,2.6,2,5.8,2c3.2,0,5.8-0.9,5.8-2l-0.4-3.5l3.3-1c0.6-0.2,1-0.7,1-1.4C45.4,255.4,45,254.8,44.4,254.6z M40.1,261.6
	c-1.8,1.1-6.8,1-8.6,0l0.3-2.8l3.1,1c0.3,0.1,1,0.2,1.7,0l3.1-1L40.1,261.6z M36.2,258.4c-0.3,0.1-0.6,0.1-0.9,0l-4.5-1.4l5.1-1
	c0.3,0,0.4-0.3,0.4-0.6c0-0.3-0.3-0.4-0.6-0.4l-6.1,1.2c-0.2,0-0.4,0.1-0.6,0.2l-1.2-0.4l7.6-2.4c0.3-0.1,0.6-0.1,0.9,0l7.6,2.4
	L36.2,258.4z"/>
<path class="st10" d="M32.1,271.2l3.9-3.9l3.9,3.9l-3.9,3.9L32.1,271.2z M36.1,269.2l2.1,2.1l-2.1,2.1l-2.1-2.1L36.1,269.2z"/>
<radialGradient id="SVGID_5_" cx="-253.3368" cy="593.7844" r="1" gradientTransform="matrix(8.561384e-16 13.9818 12.9424 -7.924934e-16 -7648.9082 3858.2292)" gradientUnits="userSpaceOnUse">
	<stop  offset="0" style="stop-color:#677983"/>
	<stop  offset="1" style="stop-color:#677983;stop-opacity:0"/>
</radialGradient>
<path class="st12" d="M35.4,302.1c-1.8,1.8-7.6,3.2-10.6,2.8c-4.5,13.9,0.9,20.1,4.4,22.3h3.4l2.8,2.8l2.8-2.8h3.4
	c9.8-7.6,8-17.7,5.3-22.3C45.1,306.3,38.2,303.3,35.4,302.1z"/>
<path class="st13" d="M36,300.9l0.4,0.2c1.2,0.8,3.2,1.6,5.3,2.2c2.1,0.6,4.2,1,5.4,0.9l0.5,0l0.2,0.4c2.7,6.2,2.8,11,1.5,14.8
	c-1.2,3.6-3.7,6.2-6.4,8.2c-0.3,0.2-0.7,0.2-0.9-0.1c-0.2-0.3-0.1-0.7,0.1-0.9c2.6-2,4.8-4.4,5.9-7.6c1.2-3.4,1.1-7.7-1.3-13.4
	c-1.5,0-3.4-0.4-5.4-0.9c-2-0.6-4-1.4-5.3-2.2c-1.4,0.8-3.3,1.6-5.3,2.2c-1.9,0.6-3.9,0.9-5.4,0.9c-2.4,5.8-2.4,10.1-1.3,13.4
	c1.1,3.2,3.4,5.6,5.9,7.6c0.3,0.2,0.4,0.6,0.1,0.9c-0.2,0.3-0.6,0.4-0.9,0.1c-2.7-2-5.2-4.7-6.4-8.2c-1.3-3.8-1.2-8.6,1.5-14.8
	l0.2-0.4l0.5,0c1.2,0.1,3.3-0.2,5.4-0.9c2.1-0.6,4.1-1.4,5.3-2.2L36,300.9z"/>
<path class="st14" d="M44.4,310.6l-7.8-2.4c-0.6-0.2-1.2-0.2-1.7,0l-7.8,2.4c-0.6,0.2-1,0.7-1,1.4s0.4,1.2,1,1.4l0.7,0.2
	c-0.1,0.2-0.1,0.3-0.2,0.5c-0.3,0.2-0.5,0.5-0.5,0.9c0,0.3,0.2,0.6,0.4,0.8l-0.8,3.5c-0.1,0.3,0.2,0.6,0.5,0.6h1.7
	c0.3,0,0.5-0.3,0.5-0.6l-0.8-3.5c0.2-0.2,0.4-0.5,0.4-0.8c0-0.3-0.2-0.6-0.4-0.8c0-0.1,0.1-0.2,0.1-0.3l1.7,0.5l-0.4,3.5
	c0,1.1,2.6,2,5.8,2c3.2,0,5.8-0.9,5.8-2l-0.4-3.5l3.3-1c0.6-0.2,1-0.7,1-1.4S45,310.8,44.4,310.6z M40.1,317.6c-1.8,1.1-6.8,1-8.6,0
	l0.3-2.8l3.1,1c0.3,0.1,1,0.2,1.7,0l3.1-1L40.1,317.6z M36.2,314.4c-0.3,0.1-0.6,0.1-0.9,0l-4.5-1.4l5.1-1c0.3,0,0.4-0.3,0.4-0.6
	c0-0.3-0.3-0.4-0.6-0.4l-6.1,1.2c-0.2,0-0.4,0.1-0.6,0.2l-1.2-0.4l7.6-2.4c0.3-0.1,0.6-0.1,0.9,0l7.6,2.4L36.2,314.4z"/>
<path class="st14" d="M32.1,327.2l3.9-3.9l3.9,3.9l-3.9,3.9L32.1,327.2z M36.1,325.2l2.1,2.1l-2.1,2.1l-2.1-2.1L36.1,325.2z"/>
</svg>
