<?xml version="1.0" encoding="utf-8"?>
<!-- Generator: Adobe Illustrator 25.2.1, SVG Export Plug-In . SVG Version: 6.00 Build 0)  -->
<svg version="1.1" id="Layer_1" xmlns="http://www.w3.org/2000/svg" xmlns:xlink="http://www.w3.org/1999/xlink" x="0px" y="0px"
	 viewBox="0 0 72 352" style="enable-background:new 0 0 72 352;" xml:space="preserve">
<style type="text/css">
	.st0{fill:url(#SVGID_1_);fill-opacity:0.25;}
	.st1{fill-rule:evenodd;clip-rule:evenodd;fill:url(#SVGID_2_);fill-opacity:0.25;}
	.st2{fill:url(#SVGID_3_);fill-opacity:0.25;}
	.st3{fill-rule:evenodd;clip-rule:evenodd;fill:url(#SVGID_4_);fill-opacity:0.25;}
	.st4{fill:url(#SVGID_5_);fill-opacity:0.25;}
	.st5{fill-rule:evenodd;clip-rule:evenodd;fill:url(#SVGID_6_);fill-opacity:0.25;}
	.st6{fill:url(#SVGID_7_);fill-opacity:0.25;}
	.st7{fill-rule:evenodd;clip-rule:evenodd;fill:url(#SVGID_8_);fill-opacity:0.25;}
	.st8{fill:url(#SVGID_9_);fill-opacity:0.25;}
	.st9{fill-rule:evenodd;clip-rule:evenodd;fill:url(#SVGID_10_);fill-opacity:0.25;}
	.st10{fill:#0073EC;}
	.st11{fill:#A644E5;}
	.st12{fill:#677983;}
	.st13{fill:#434F58;}
	.st14{fill:#00CAAA;}
</style>
<g>
	
		<radialGradient id="SVGID_1_" cx="-249.0909" cy="596.3932" r="0.9999" gradientTransform="matrix(6.735558e-16 11 11.5 -7.041719e-16 -6822 2776)" gradientUnits="userSpaceOnUse">
		<stop  offset="0" style="stop-color:#0073EC"/>
		<stop  offset="1" style="stop-color:#0073EC;stop-opacity:0"/>
	</radialGradient>
	<path class="st0" d="M41.8,41.9c1.3-0.5,2.6-1.2,3.7-2.1l2.5,4.1l-0.3,2.5c0,0.1-0.1,0.2-0.1,0.3c-0.1,0.1-0.1,0.2-0.2,0.2
		C47.3,47,47.1,47,47,47c-0.1,0-0.2,0-0.3-0.1l-2.4-1L41.8,41.9z"/>
	
		<radialGradient id="SVGID_2_" cx="-249.0909" cy="596.3932" r="1" gradientTransform="matrix(6.735558e-16 11 11.5 -7.041719e-16 -6822 2776)" gradientUnits="userSpaceOnUse">
		<stop  offset="0" style="stop-color:#0073EC"/>
		<stop  offset="1" style="stop-color:#0073EC;stop-opacity:0"/>
	</radialGradient>
	<path class="st1" d="M40.9,29.1c0,0.7-0.2,1.4-0.5,2.1l2.3,3.8c-1,1-2.3,1.7-3.7,2.1l-2.3-3.8h-0.1c0,0,0,0-0.1,0c0,0,0,0-0.1,0
		l-3,5c2.1,0.7,4.4,0.6,6.5-0.1c2.1-0.7,3.9-2.1,5.1-3.8c0.2-0.3,0.6-0.4,1-0.2l1.3,0.7c0.4,0.2,0.5,0.6,0.3,1
		c-1.2,1.8-2.8,3.2-4.7,4.2c-1.9,1-4.1,1.5-6.2,1.5c-1.6,0-3.1-0.3-4.6-0.8L28.8,46l-2.4,1C26.2,47,26.1,47,26,47
		c-0.1,0-0.2,0-0.3-0.1c-0.1-0.1-0.2-0.1-0.2-0.2c-0.1-0.1-0.1-0.2-0.1-0.3L25,43.9l3.2-5.3l0,0c-1-0.8-1.9-1.8-2.6-2.9
		c-0.2-0.3-0.1-0.8,0.3-1l1.3-0.7c0.3-0.2,0.7-0.1,1,0.2c0.5,0.7,1,1.3,1.6,1.8l0,0l3.1-5.1c-0.4-0.6-0.5-1.3-0.5-2.1
		c0-0.7,0.2-1.4,0.6-2c0.4-0.6,0.9-1.1,1.6-1.5c0.7-0.4,1.4-0.5,2.1-0.5c0.8,0,1.5,0.2,2.1,0.6c0.7,0.4,1.2,0.9,1.6,1.5
		S40.9,28.4,40.9,29.1z M35.8,30.3c0.2,0.1,0.5,0.2,0.8,0.2c0.4,0,0.7-0.1,1-0.4c0.3-0.3,0.4-0.6,0.4-1c0-0.3-0.1-0.5-0.2-0.8
		c-0.2-0.2-0.4-0.4-0.6-0.5c-0.3-0.1-0.5-0.1-0.8-0.1c-0.3,0.1-0.5,0.2-0.7,0.4s-0.3,0.4-0.4,0.7c-0.1,0.3,0,0.5,0.1,0.8
		C35.3,29.9,35.5,30.1,35.8,30.3z"/>
</g>
<radialGradient id="SVGID_3_" cx="-249.0909" cy="596.3913" r="1" gradientTransform="matrix(6.735558e-16 11 11.5 -7.041719e-16 -6822 2832)" gradientUnits="userSpaceOnUse">
	<stop  offset="0" style="stop-color:#A644E5"/>
	<stop  offset="1" style="stop-color:#A644E5;stop-opacity:0"/>
</radialGradient>
<path class="st2" d="M41.8,97.9c1.3-0.5,2.6-1.2,3.7-2.1l2.5,4.1l-0.3,2.5c0,0.1-0.1,0.2-0.1,0.3c-0.1,0.1-0.1,0.2-0.2,0.2
	c-0.1,0.1-0.2,0.1-0.3,0.1c-0.1,0-0.2,0-0.3-0.1l-2.4-1L41.8,97.9z"/>
<radialGradient id="SVGID_4_" cx="-249.0909" cy="596.3913" r="1" gradientTransform="matrix(6.735558e-16 11 11.5 -7.041719e-16 -6822 2832)" gradientUnits="userSpaceOnUse">
	<stop  offset="0" style="stop-color:#A644E5"/>
	<stop  offset="1" style="stop-color:#A644E5;stop-opacity:0"/>
</radialGradient>
<path class="st3" d="M40.9,85.1c0,0.7-0.2,1.4-0.5,2.1l2.3,3.8c-1,1-2.3,1.7-3.7,2.1l-2.3-3.8h-0.1c0,0,0,0-0.1,0c0,0,0,0-0.1,0
	l-3,5c2.1,0.7,4.4,0.6,6.5-0.1c2.1-0.7,3.9-2.1,5.1-3.8c0.2-0.3,0.6-0.4,1-0.2l1.3,0.7c0.4,0.2,0.5,0.6,0.3,1
	c-1.2,1.8-2.8,3.2-4.7,4.2c-1.9,1-4.1,1.5-6.2,1.5c-1.6,0-3.1-0.3-4.6-0.8l-3.2,5.3l-2.4,1c-0.1,0-0.2,0.1-0.3,0.1
	c-0.1,0-0.2,0-0.3-0.1c-0.1-0.1-0.2-0.1-0.2-0.2c-0.1-0.1-0.1-0.2-0.1-0.3L25,99.9l3.2-5.3l0,0c-1-0.8-1.9-1.8-2.6-2.9
	c-0.2-0.3-0.1-0.8,0.3-1l1.3-0.7c0.3-0.2,0.7-0.1,1,0.2c0.5,0.7,1,1.3,1.6,1.8l0,0l3.1-5.1c-0.4-0.6-0.5-1.3-0.5-2.1
	c0-0.7,0.2-1.4,0.6-2s0.9-1.1,1.6-1.5c0.7-0.4,1.4-0.5,2.1-0.5c0.8,0,1.5,0.2,2.1,0.6c0.7,0.4,1.2,0.9,1.6,1.5S40.8,84.4,40.9,85.1z
	 M35.7,86.3c0.2,0.1,0.5,0.2,0.8,0.2c0.4,0,0.7-0.1,1-0.4c0.3-0.3,0.4-0.6,0.4-1c0-0.3-0.1-0.5-0.2-0.8c-0.2-0.2-0.4-0.4-0.6-0.5
	c-0.3-0.1-0.5-0.1-0.8-0.1c-0.3,0.1-0.5,0.2-0.7,0.4s-0.3,0.4-0.4,0.7c-0.1,0.3,0,0.5,0.1,0.8C35.3,85.9,35.5,86.1,35.7,86.3z"/>
<radialGradient id="SVGID_5_" cx="-249.0909" cy="596.3913" r="1" gradientTransform="matrix(6.735558e-16 11 11.5 -7.041719e-16 -6822 2888)" gradientUnits="userSpaceOnUse">
	<stop  offset="0" style="stop-color:#00CAAA"/>
	<stop  offset="1" style="stop-color:#00CAAA;stop-opacity:0"/>
</radialGradient>
<path class="st4" d="M41.8,153.9c1.3-0.5,2.6-1.2,3.7-2.1l2.5,4.1l-0.3,2.5c0,0.1-0.1,0.2-0.1,0.3c-0.1,0.1-0.1,0.2-0.2,0.2
	c-0.1,0.1-0.2,0.1-0.3,0.1c-0.1,0-0.2,0-0.3-0.1l-2.4-1L41.8,153.9z"/>
<radialGradient id="SVGID_6_" cx="-249.0909" cy="596.3913" r="1" gradientTransform="matrix(6.735558e-16 11 11.5 -7.041719e-16 -6822 2888)" gradientUnits="userSpaceOnUse">
	<stop  offset="0" style="stop-color:#00CAAA"/>
	<stop  offset="1" style="stop-color:#00CAAA;stop-opacity:0"/>
</radialGradient>
<path class="st5" d="M40.9,141.1c0,0.7-0.2,1.4-0.5,2.1l2.3,3.8c-1,1-2.3,1.7-3.7,2.1l-2.3-3.8h-0.1c0,0,0,0-0.1,0c0,0,0,0-0.1,0
	l-3,5c2.1,0.7,4.4,0.6,6.5-0.1c2.1-0.7,3.9-2.1,5.1-3.8c0.2-0.3,0.6-0.4,1-0.2l1.3,0.7c0.4,0.2,0.5,0.6,0.3,1
	c-1.2,1.8-2.8,3.2-4.7,4.2c-1.9,1-4.1,1.5-6.2,1.5c-1.6,0-3.1-0.3-4.6-0.8l-3.2,5.3l-2.4,1c-0.1,0-0.2,0.1-0.3,0.1
	c-0.1,0-0.2,0-0.3-0.1c-0.1-0.1-0.2-0.1-0.2-0.2c-0.1-0.1-0.1-0.2-0.1-0.3l-0.3-2.5l3.2-5.3h0c-1-0.8-1.9-1.8-2.6-2.9
	c-0.2-0.3-0.1-0.8,0.3-1l1.3-0.7c0.3-0.2,0.7-0.1,1,0.2c0.5,0.7,1,1.3,1.6,1.8l0,0l3.1-5.1c-0.4-0.6-0.5-1.3-0.5-2.1
	c0-0.7,0.2-1.4,0.6-2c0.4-0.6,0.9-1.1,1.6-1.5c0.7-0.4,1.4-0.5,2.1-0.5s1.5,0.2,2.1,0.6c0.7,0.4,1.2,0.9,1.6,1.5
	C40.6,139.7,40.8,140.4,40.9,141.1z M35.7,142.3c0.2,0.1,0.5,0.2,0.8,0.2c0.4,0,0.7-0.1,1-0.4c0.3-0.3,0.4-0.6,0.4-1
	c0-0.3-0.1-0.5-0.2-0.8c-0.2-0.2-0.4-0.4-0.6-0.5c-0.3-0.1-0.5-0.1-0.8-0.1c-0.3,0.1-0.5,0.2-0.7,0.4c-0.2,0.2-0.3,0.4-0.4,0.7
	c-0.1,0.3,0,0.5,0.1,0.8C35.3,141.9,35.5,142.1,35.7,142.3z"/>
<radialGradient id="SVGID_7_" cx="-249.0909" cy="596.3913" r="1" gradientTransform="matrix(6.735558e-16 11 11.5 -7.041719e-16 -6822 3000)" gradientUnits="userSpaceOnUse">
	<stop  offset="0" style="stop-color:#434F58"/>
	<stop  offset="1" style="stop-color:#434F58;stop-opacity:0"/>
</radialGradient>
<path class="st6" d="M41.8,265.9c1.3-0.5,2.6-1.2,3.7-2.1l2.5,4.1l-0.3,2.5c0,0.1-0.1,0.2-0.1,0.3c-0.1,0.1-0.1,0.2-0.2,0.2
	c-0.1,0.1-0.2,0.1-0.3,0.1c-0.1,0-0.2,0-0.3-0.1l-2.4-1L41.8,265.9z"/>
<radialGradient id="SVGID_8_" cx="-249.0909" cy="596.3913" r="1" gradientTransform="matrix(6.735558e-16 11 11.5 -7.041719e-16 -6822 3000)" gradientUnits="userSpaceOnUse">
	<stop  offset="0" style="stop-color:#434F58"/>
	<stop  offset="1" style="stop-color:#434F58;stop-opacity:0"/>
</radialGradient>
<path class="st7" d="M40.9,253.1c0,0.7-0.2,1.4-0.5,2.1l2.3,3.8c-1,1-2.3,1.7-3.7,2.1l-2.3-3.8h-0.1c0,0,0,0-0.1,0c0,0,0,0-0.1,0
	l-3,5c2.1,0.7,4.4,0.6,6.5-0.1c2.1-0.7,3.9-2.1,5.1-3.8c0.2-0.3,0.6-0.4,1-0.2l1.3,0.7c0.4,0.2,0.5,0.6,0.3,1
	c-1.2,1.8-2.8,3.2-4.7,4.2c-1.9,1-4.1,1.5-6.2,1.5c-1.6,0-3.1-0.3-4.6-0.8l-3.2,5.3l-2.4,1c-0.1,0-0.2,0.1-0.3,0.1
	c-0.1,0-0.2,0-0.3-0.1c-0.1-0.1-0.2-0.1-0.2-0.2c-0.1-0.1-0.1-0.2-0.1-0.3l-0.3-2.5l3.2-5.3h0c-1-0.8-1.9-1.8-2.6-2.9
	c-0.2-0.3-0.1-0.8,0.3-1l1.3-0.7c0.3-0.2,0.7-0.1,1,0.2c0.5,0.7,1,1.3,1.6,1.8l0,0l3.1-5.1c-0.4-0.6-0.5-1.3-0.5-2.1
	c0-0.7,0.2-1.4,0.6-2c0.4-0.6,0.9-1.1,1.6-1.5c0.7-0.4,1.4-0.5,2.1-0.5s1.5,0.2,2.1,0.6c0.7,0.4,1.2,0.9,1.6,1.5
	C40.6,251.7,40.8,252.4,40.9,253.1z M35.7,254.3c0.2,0.1,0.5,0.2,0.8,0.2c0.4,0,0.7-0.1,1-0.4c0.3-0.3,0.4-0.6,0.4-1
	c0-0.3-0.1-0.5-0.2-0.8c-0.2-0.2-0.4-0.4-0.6-0.5c-0.3-0.1-0.5-0.1-0.8-0.1c-0.3,0.1-0.5,0.2-0.7,0.4c-0.2,0.2-0.3,0.4-0.4,0.7
	c-0.1,0.3,0,0.5,0.1,0.8C35.3,253.9,35.5,254.1,35.7,254.3z"/>
<radialGradient id="SVGID_9_" cx="-249.0909" cy="596.3913" r="1" gradientTransform="matrix(6.735558e-16 11 11.5 -7.041719e-16 -6822 3056)" gradientUnits="userSpaceOnUse">
	<stop  offset="0" style="stop-color:#677983"/>
	<stop  offset="1" style="stop-color:#677983;stop-opacity:0"/>
</radialGradient>
<path class="st8" d="M41.8,321.9c1.3-0.5,2.6-1.2,3.7-2.1l2.5,4.1l-0.3,2.5c0,0.1-0.1,0.2-0.1,0.3c-0.1,0.1-0.1,0.2-0.2,0.2
	c-0.1,0.1-0.2,0.1-0.3,0.1c-0.1,0-0.2,0-0.3-0.1l-2.4-1L41.8,321.9z"/>
<radialGradient id="SVGID_10_" cx="-249.0909" cy="596.3913" r="1" gradientTransform="matrix(6.735558e-16 11 11.5 -7.041719e-16 -6822 3056)" gradientUnits="userSpaceOnUse">
	<stop  offset="0" style="stop-color:#677983"/>
	<stop  offset="1" style="stop-color:#677983;stop-opacity:0"/>
</radialGradient>
<path class="st9" d="M40.9,309.1c0,0.7-0.2,1.4-0.5,2.1l2.3,3.8c-1,1-2.3,1.7-3.7,2.1l-2.3-3.8h-0.1c0,0,0,0-0.1,0c0,0,0,0-0.1,0
	l-3,5c2.1,0.7,4.4,0.6,6.5-0.1c2.1-0.7,3.9-2.1,5.1-3.8c0.2-0.3,0.6-0.4,1-0.2l1.3,0.7c0.4,0.2,0.5,0.6,0.3,1
	c-1.2,1.8-2.8,3.2-4.7,4.2c-1.9,1-4.1,1.5-6.2,1.5c-1.6,0-3.1-0.3-4.6-0.8l-3.2,5.3l-2.4,1c-0.1,0-0.2,0.1-0.3,0.1
	c-0.1,0-0.2,0-0.3-0.1c-0.1-0.1-0.2-0.1-0.2-0.2c-0.1-0.1-0.1-0.2-0.1-0.3l-0.3-2.5l3.2-5.3h0c-1-0.8-1.9-1.8-2.6-2.9
	c-0.2-0.3-0.1-0.8,0.3-1l1.3-0.7c0.3-0.2,0.7-0.1,1,0.2c0.5,0.7,1,1.3,1.6,1.8l0,0l3.1-5.1c-0.4-0.6-0.5-1.3-0.5-2.1
	c0-0.7,0.2-1.4,0.6-2c0.4-0.6,0.9-1.1,1.6-1.5c0.7-0.4,1.4-0.5,2.1-0.5s1.5,0.2,2.1,0.6c0.7,0.4,1.2,0.9,1.6,1.5
	C40.6,307.7,40.8,308.4,40.9,309.1z M35.7,310.3c0.2,0.1,0.5,0.2,0.8,0.2c0.4,0,0.7-0.1,1-0.4c0.3-0.3,0.4-0.6,0.4-1
	c0-0.3-0.1-0.5-0.2-0.8c-0.2-0.2-0.4-0.4-0.6-0.5c-0.3-0.1-0.5-0.1-0.8-0.1c-0.3,0.1-0.5,0.2-0.7,0.4c-0.2,0.2-0.3,0.4-0.4,0.7
	c-0.1,0.3,0,0.5,0.1,0.8C35.3,309.9,35.5,310.1,35.7,310.3z"/>
<g>
	<path class="st10" d="M49,43.7l-2.6-4.4l-0.3-0.5c0.8-0.8,1.6-1.6,2.2-2.5c0.3-0.4,0.3-0.9,0.2-1.3c-0.1-0.5-0.4-0.9-0.9-1.1l0,0
		l-1.3-0.7c-0.8-0.4-1.8-0.2-2.3,0.6c-0.2,0.3-0.4,0.5-0.6,0.8l-2.1-3.4c0.3-0.6,0.4-1.3,0.4-2c0-0.9-0.3-1.8-0.7-2.6
		c-0.5-0.8-1.1-1.4-1.9-1.9c-0.8-0.4-1.7-0.7-2.6-0.7c-0.9,0-1.8,0.2-2.6,0.7c-0.8,0.4-1.5,1.1-2,1.8c-0.5,0.8-0.7,1.7-0.8,2.5
		c0,0.7,0.1,1.4,0.4,2l-1.9,3.2l-0.2,0.2c-0.1-0.1-0.2-0.3-0.3-0.4c-0.5-0.7-1.5-1-2.3-0.6l-1.3,0.7l0,0c-0.4,0.2-0.7,0.6-0.9,1.1
		c-0.1,0.2-0.1,0.4,0,0.6c0,0.1,0,0.1,0,0.2c0.2,1,1.4,2.1,2.1,2.7L24,43.7l0.4,2.8c0,0.3,0.1,0.5,0.3,0.7c0.1,0.2,0.3,0.4,0.6,0.5
		c0.2,0.1,0.5,0.2,0.7,0.2c0,0,0.1,0,0.1,0c0.2,0,0.5,0,0.7-0.1l2.7-1.1l2.9-4.9c1.3,0.4,2.7,0.6,4.1,0.6c0,0,0,0,0,0
		c1.4,0,2.8-0.2,4.1-0.6l2.9,4.9l2.7,1.1c0.2,0.1,0.5,0.1,0.8,0.1c0.3,0,0.5-0.1,0.7-0.2c0.1,0,0.2-0.1,0.2-0.2l0.1,0l0.6-0.8
		l-0.1,0c0-0.1,0-0.2,0.1-0.3L49,43.7z M36.5,41.5C36.5,41.5,36.5,41.5,36.5,41.5c-1.4,0-2.9-0.2-4.2-0.7l-0.4-0.1L28.7,46l-2.4,1
		C26.2,47,26.1,47,26,47c-0.1,0-0.2,0-0.3-0.1c-0.1-0.1-0.2-0.1-0.2-0.2c-0.1-0.1-0.1-0.2-0.1-0.3L25,43.9l3.2-5.3l-0.3-0.3
		c-0.7-0.6-1.8-1.6-2-2.3c-0.1-0.2-0.1-0.4-0.1-0.5c0-0.2,0.2-0.4,0.4-0.5l0,0l0,0l1.3-0.7c0.3-0.2,0.7-0.1,1,0.2
		c0.1,0.2,0.2,0.3,0.3,0.5l0.9,1l0.6-0.8l2.5-4.2l-0.1-0.2c-0.3-0.6-0.4-1.2-0.4-1.8c0-0.7,0.2-1.4,0.6-2s0.9-1.1,1.6-1.5
		c0.7-0.4,1.4-0.5,2.1-0.5c0.8,0,1.5,0.2,2.1,0.6c0.7,0.4,1.2,0.9,1.6,1.5s0.6,1.3,0.6,2c0,0.6-0.1,1.3-0.4,1.8l-0.1,0.2l2.3,3.8
		l0,0c-1,1-2.3,1.7-3.7,2.1l-2.4-4l-3.1,5.2l0.7,0.2c0.8,0.2,1.7,0.3,2.5,0.3c1.1,0,2.3-0.2,3.4-0.6c2.1-0.7,3.9-2.1,5.1-3.8
		c0.2-0.3,0.6-0.4,1-0.2l1.3,0.7l0,0l0,0c0.2,0.1,0.3,0.3,0.4,0.5c0,0.1,0,0.3-0.1,0.5v0c-1.2,1.8-2.8,3.2-4.7,4.2
		S38.7,41.5,36.5,41.5z M38.1,37.6c-1,0.2-2.1,0.2-3.1,0l1.6-2.6L38.1,37.6z M47.7,46.4c0,0.1-0.1,0.2-0.1,0.3l0,0
		c-0.1,0.1-0.1,0.2-0.2,0.2C47.2,47,47.1,47,47,47c-0.1,0-0.2,0-0.3-0.1l-2.4-1l-2.4-4.1l0,0c1.3-0.5,2.6-1.2,3.7-2.1v0l2.5,4.1
		L47.7,46.4z"/>
	<path class="st10" d="M36.5,30.6c0.8,0,1.4-0.7,1.4-1.4s-0.7-1.4-1.4-1.4c-0.8,0-1.4,0.6-1.4,1.4S35.7,30.6,36.5,30.6z M36.5,28.7
		c0.2,0,0.4,0.2,0.4,0.4c0,0.2-0.2,0.4-0.4,0.4c-0.2,0-0.4-0.2-0.4-0.4C36.1,28.9,36.3,28.7,36.5,28.7z"/>
</g>
<g>
	<path class="st11" d="M49,99.7l-2.6-4.4l-0.3-0.5c0.8-0.8,1.6-1.6,2.2-2.5c0.3-0.4,0.3-0.9,0.2-1.3c-0.1-0.5-0.4-0.9-0.9-1.1l0,0
		l-1.3-0.7c-0.8-0.4-1.8-0.2-2.3,0.6c-0.2,0.3-0.4,0.5-0.6,0.8l-2.1-3.4c0.3-0.6,0.4-1.3,0.4-2c0-0.9-0.3-1.8-0.7-2.6
		c-0.5-0.8-1.1-1.4-1.9-1.9c-0.8-0.4-1.7-0.7-2.6-0.7c-0.9,0-1.8,0.2-2.6,0.7c-0.8,0.4-1.5,1.1-2,1.8c-0.5,0.8-0.7,1.7-0.8,2.5
		c0,0.7,0.1,1.4,0.4,2l-1.9,3.2l-0.2,0.2c-0.1-0.1-0.2-0.3-0.3-0.4c-0.5-0.7-1.5-1-2.3-0.6l-1.3,0.7l0,0c-0.4,0.2-0.7,0.6-0.9,1.1
		c-0.1,0.2-0.1,0.4,0,0.6c0,0.1,0,0.1,0,0.2c0.2,1,1.4,2.1,2.1,2.7L24,99.7l0.4,2.8c0,0.3,0.1,0.5,0.3,0.7c0.1,0.2,0.3,0.4,0.6,0.5
		c0.2,0.1,0.5,0.2,0.7,0.2c0,0,0.1,0,0.1,0c0.2,0,0.5,0,0.7-0.1l2.7-1.1l2.9-4.9c1.3,0.4,2.7,0.6,4.1,0.6c0,0,0,0,0,0
		c1.4,0,2.8-0.2,4.1-0.6l2.9,4.9l2.7,1.1c0.2,0.1,0.5,0.1,0.8,0.1c0.3,0,0.5-0.1,0.7-0.2c0.1,0,0.2-0.1,0.2-0.2l0.1,0l0.6-0.8
		l-0.1,0c0-0.1,0-0.2,0.1-0.3L49,99.7z M36.5,97.5C36.5,97.5,36.5,97.5,36.5,97.5c-1.4,0-2.9-0.2-4.2-0.7l-0.4-0.1l-3.2,5.3l-2.4,1
		c-0.1,0-0.2,0.1-0.3,0.1c-0.1,0-0.2,0-0.3-0.1c-0.1-0.1-0.2-0.1-0.2-0.2c-0.1-0.1-0.1-0.2-0.1-0.3L25,99.9l3.2-5.3l-0.3-0.3
		c-0.7-0.6-1.8-1.6-2-2.3c-0.1-0.2-0.1-0.4-0.1-0.5c0-0.2,0.2-0.4,0.4-0.5l0,0l0,0l1.3-0.7c0.3-0.2,0.7-0.1,1,0.2
		c0.1,0.2,0.2,0.3,0.3,0.5l0.9,1l0.6-0.8l2.5-4.2l-0.1-0.2c-0.3-0.6-0.4-1.2-0.4-1.8c0-0.7,0.2-1.4,0.6-2s0.9-1.1,1.6-1.5
		c0.7-0.4,1.4-0.5,2.1-0.5c0.8,0,1.5,0.2,2.1,0.6c0.7,0.4,1.2,0.9,1.6,1.5s0.6,1.3,0.6,2c0,0.6-0.1,1.3-0.4,1.8l-0.1,0.2l2.3,3.8
		l0,0c-1,1-2.3,1.7-3.7,2.1l-2.4-4l-3.1,5.2l0.7,0.2c0.8,0.2,1.7,0.3,2.5,0.3c1.1,0,2.3-0.2,3.4-0.6c2.1-0.7,3.9-2.1,5.1-3.8
		c0.2-0.3,0.6-0.4,1-0.2l1.3,0.7l0,0l0,0c0.2,0.1,0.3,0.3,0.4,0.5c0,0.1,0,0.3-0.1,0.5v0c-1.2,1.8-2.8,3.2-4.7,4.2
		S38.7,97.5,36.5,97.5z M38.1,93.6c-1,0.2-2.1,0.2-3.1,0l1.6-2.6L38.1,93.6z M47.7,102.4c0,0.1-0.1,0.2-0.1,0.3l0,0
		c-0.1,0.1-0.1,0.2-0.2,0.2c-0.1,0.1-0.2,0.1-0.3,0.1c-0.1,0-0.2,0-0.3-0.1l-2.4-1l-2.4-4.1l0,0c1.3-0.5,2.6-1.2,3.7-2.1v0l2.5,4.1
		L47.7,102.4z"/>
	<path class="st11" d="M36.5,86.6c0.8,0,1.4-0.7,1.4-1.4s-0.7-1.4-1.4-1.4c-0.8,0-1.4,0.6-1.4,1.4S35.7,86.6,36.5,86.6z M36.5,84.7
		c0.2,0,0.4,0.2,0.4,0.4c0,0.2-0.2,0.4-0.4,0.4c-0.2,0-0.4-0.2-0.4-0.4C36.1,84.9,36.3,84.7,36.5,84.7z"/>
</g>
<g>
	<path class="st12" d="M49,323.7l-2.6-4.4l-0.3-0.5c0.8-0.8,1.6-1.6,2.2-2.5c0.3-0.4,0.3-0.9,0.2-1.3c-0.1-0.5-0.4-0.9-0.9-1.1l0,0
		l-1.3-0.7c-0.8-0.4-1.8-0.2-2.3,0.6c-0.2,0.3-0.4,0.5-0.6,0.8l-2.1-3.4c0.3-0.6,0.4-1.3,0.4-2c0-0.9-0.3-1.8-0.7-2.6
		c-0.5-0.8-1.1-1.4-1.9-1.9c-0.8-0.4-1.7-0.7-2.6-0.7c-0.9,0-1.8,0.2-2.6,0.7c-0.8,0.4-1.5,1.1-2,1.8c-0.5,0.8-0.7,1.7-0.8,2.5
		c0,0.7,0.1,1.4,0.4,2l-1.9,3.2l-0.2,0.2c-0.1-0.1-0.2-0.3-0.3-0.4c-0.5-0.7-1.5-1-2.3-0.6l-1.3,0.7l0,0c-0.4,0.2-0.7,0.6-0.9,1.1
		c-0.1,0.2-0.1,0.4,0,0.6c0,0.1,0,0.1,0,0.2c0.2,1,1.4,2.1,2.1,2.7l-2.9,4.8l0.4,2.8c0,0.3,0.1,0.5,0.3,0.7c0.1,0.2,0.3,0.4,0.6,0.5
		c0.2,0.1,0.5,0.2,0.7,0.2c0,0,0.1,0,0.1,0c0.2,0,0.5,0,0.7-0.1l2.7-1.1l2.9-4.9c1.3,0.4,2.7,0.6,4.1,0.6c0,0,0,0,0,0
		c1.4,0,2.8-0.2,4.1-0.6l2.9,4.9l2.7,1.1c0.2,0.1,0.5,0.1,0.8,0.1c0.3,0,0.5-0.1,0.7-0.2c0.1,0,0.2-0.1,0.2-0.2l0.1,0l0.6-0.8
		l-0.1,0c0-0.1,0-0.2,0.1-0.3L49,323.7z M36.5,321.5C36.5,321.5,36.5,321.5,36.5,321.5c-1.4,0-2.9-0.2-4.2-0.7l-0.4-0.1l-3.2,5.3
		l-2.4,1c-0.1,0-0.2,0.1-0.3,0.1c-0.1,0-0.2,0-0.3-0.1c-0.1-0.1-0.2-0.1-0.2-0.2c-0.1-0.1-0.1-0.2-0.1-0.3l-0.3-2.5l3.2-5.3
		l-0.3-0.3c-0.7-0.6-1.8-1.6-2-2.3c-0.1-0.2-0.1-0.4-0.1-0.5c0-0.2,0.2-0.4,0.4-0.5l0,0l0,0l1.3-0.7c0.3-0.2,0.7-0.1,1,0.2
		c0.1,0.2,0.2,0.3,0.3,0.5l0.9,1l0.6-0.8l2.5-4.2l-0.1-0.2c-0.3-0.6-0.4-1.2-0.4-1.8c0-0.7,0.2-1.4,0.6-2s0.9-1.1,1.6-1.5
		c0.7-0.4,1.4-0.5,2.1-0.5c0.8,0,1.5,0.2,2.1,0.6c0.7,0.4,1.2,0.9,1.6,1.5s0.6,1.3,0.6,2c0,0.6-0.1,1.3-0.4,1.8l-0.1,0.2l2.3,3.8
		l0,0c-1,1-2.3,1.7-3.7,2.1l-2.4-4l-3.1,5.2l0.7,0.2c0.8,0.2,1.7,0.3,2.5,0.3c1.1,0,2.3-0.2,3.4-0.6c2.1-0.7,3.9-2.1,5.1-3.8
		c0.2-0.3,0.6-0.4,1-0.2l1.3,0.7l0,0l0,0c0.2,0.1,0.3,0.3,0.4,0.5c0,0.1,0,0.3-0.1,0.5v0c-1.2,1.8-2.8,3.2-4.7,4.2
		S38.7,321.5,36.5,321.5z M38.1,317.6c-1,0.2-2.1,0.2-3.1,0l1.6-2.6L38.1,317.6z M47.7,326.4c0,0.1-0.1,0.2-0.1,0.3l0,0
		c-0.1,0.1-0.1,0.2-0.2,0.2c-0.1,0.1-0.2,0.1-0.3,0.1c-0.1,0-0.2,0-0.3-0.1l-2.4-1l-2.4-4.1l0,0c1.3-0.5,2.6-1.2,3.7-2.1v0l2.5,4.1
		L47.7,326.4z"/>
	<path class="st12" d="M36.5,310.6c0.8,0,1.4-0.7,1.4-1.4s-0.7-1.4-1.4-1.4c-0.8,0-1.4,0.6-1.4,1.4S35.7,310.6,36.5,310.6z
		 M36.5,308.7c0.2,0,0.4,0.2,0.4,0.4c0,0.2-0.2,0.4-0.4,0.4c-0.2,0-0.4-0.2-0.4-0.4C36.1,308.9,36.3,308.7,36.5,308.7z"/>
</g>
<g>
	<path class="st13" d="M49,267.7l-2.6-4.4l-0.3-0.5c0.8-0.8,1.6-1.6,2.2-2.5c0.3-0.4,0.3-0.9,0.2-1.3c-0.1-0.5-0.4-0.9-0.9-1.1l0,0
		l-1.3-0.7c-0.8-0.4-1.8-0.2-2.3,0.6c-0.2,0.3-0.4,0.5-0.6,0.8l-2.1-3.4c0.3-0.6,0.4-1.3,0.4-2c0-0.9-0.3-1.8-0.7-2.6
		c-0.5-0.8-1.1-1.4-1.9-1.9c-0.8-0.4-1.7-0.7-2.6-0.7c-0.9,0-1.8,0.2-2.6,0.7c-0.8,0.4-1.5,1.1-2,1.8c-0.5,0.8-0.7,1.7-0.8,2.5
		c0,0.7,0.1,1.4,0.4,2l-1.9,3.2l-0.2,0.2c-0.1-0.1-0.2-0.3-0.3-0.4c-0.5-0.7-1.5-1-2.3-0.6l-1.3,0.7l0,0c-0.4,0.2-0.7,0.6-0.9,1.1
		c-0.1,0.2-0.1,0.4,0,0.6c0,0.1,0,0.1,0,0.2c0.2,1,1.4,2.1,2.1,2.7l-2.9,4.8l0.4,2.8c0,0.3,0.1,0.5,0.3,0.7c0.1,0.2,0.3,0.4,0.6,0.5
		c0.2,0.1,0.5,0.2,0.7,0.2c0,0,0.1,0,0.1,0c0.2,0,0.5,0,0.7-0.1l2.7-1.1l2.9-4.9c1.3,0.4,2.7,0.6,4.1,0.6c0,0,0,0,0,0
		c1.4,0,2.8-0.2,4.1-0.6l2.9,4.9l2.7,1.1c0.2,0.1,0.5,0.1,0.8,0.1c0.3,0,0.5-0.1,0.7-0.2c0.1,0,0.2-0.1,0.2-0.2l0.1,0l0.6-0.8
		l-0.1,0c0-0.1,0-0.2,0.1-0.3L49,267.7z M36.5,265.5C36.5,265.5,36.5,265.5,36.5,265.5c-1.4,0-2.9-0.2-4.2-0.7l-0.4-0.1l-3.2,5.3
		l-2.4,1c-0.1,0-0.2,0.1-0.3,0.1c-0.1,0-0.2,0-0.3-0.1c-0.1-0.1-0.2-0.1-0.2-0.2c-0.1-0.1-0.1-0.2-0.1-0.3l-0.3-2.5l3.2-5.3
		l-0.3-0.3c-0.7-0.6-1.8-1.6-2-2.3c-0.1-0.2-0.1-0.4-0.1-0.5c0-0.2,0.2-0.4,0.4-0.5l0,0l0,0l1.3-0.7c0.3-0.2,0.7-0.1,1,0.2
		c0.1,0.2,0.2,0.3,0.3,0.5l0.9,1l0.6-0.8l2.5-4.2l-0.1-0.2c-0.3-0.6-0.4-1.2-0.4-1.8c0-0.7,0.2-1.4,0.6-2s0.9-1.1,1.6-1.5
		c0.7-0.4,1.4-0.5,2.1-0.5c0.8,0,1.5,0.2,2.1,0.6c0.7,0.4,1.2,0.9,1.6,1.5s0.6,1.3,0.6,2c0,0.6-0.1,1.3-0.4,1.8l-0.1,0.2l2.3,3.8
		l0,0c-1,1-2.3,1.7-3.7,2.1l-2.4-4l-3.1,5.2l0.7,0.2c0.8,0.2,1.7,0.3,2.5,0.3c1.1,0,2.3-0.2,3.4-0.6c2.1-0.7,3.9-2.1,5.1-3.8
		c0.2-0.3,0.6-0.4,1-0.2l1.3,0.7l0,0l0,0c0.2,0.1,0.3,0.3,0.4,0.5c0,0.1,0,0.3-0.1,0.5v0c-1.2,1.8-2.8,3.2-4.7,4.2
		S38.7,265.5,36.5,265.5z M38.1,261.6c-1,0.2-2.1,0.2-3.1,0l1.6-2.6L38.1,261.6z M47.7,270.4c0,0.1-0.1,0.2-0.1,0.3l0,0
		c-0.1,0.1-0.1,0.2-0.2,0.2c-0.1,0.1-0.2,0.1-0.3,0.1c-0.1,0-0.2,0-0.3-0.1l-2.4-1l-2.4-4.1l0,0c1.3-0.5,2.6-1.2,3.7-2.1v0l2.5,4.1
		L47.7,270.4z"/>
	<path class="st13" d="M36.5,254.6c0.8,0,1.4-0.7,1.4-1.4s-0.7-1.4-1.4-1.4c-0.8,0-1.4,0.6-1.4,1.4S35.7,254.6,36.5,254.6z
		 M36.5,252.7c0.2,0,0.4,0.2,0.4,0.4c0,0.2-0.2,0.4-0.4,0.4c-0.2,0-0.4-0.2-0.4-0.4C36.1,252.9,36.3,252.7,36.5,252.7z"/>
</g>
<g>
	<path class="st13" d="M49,211.7l-2.6-4.4l-0.3-0.5c0.8-0.8,1.6-1.6,2.2-2.5c0.3-0.4,0.3-0.9,0.2-1.3c-0.1-0.5-0.4-0.9-0.9-1.1l0,0
		l-1.3-0.7c-0.8-0.4-1.8-0.2-2.3,0.6c-0.2,0.3-0.4,0.5-0.6,0.8l-2.1-3.4c0.3-0.6,0.4-1.3,0.4-2c0-0.9-0.3-1.8-0.7-2.6
		c-0.5-0.8-1.1-1.4-1.9-1.9c-0.8-0.4-1.7-0.7-2.6-0.7c-0.9,0-1.8,0.2-2.6,0.7c-0.8,0.4-1.5,1.1-2,1.8c-0.5,0.8-0.7,1.7-0.8,2.5
		c0,0.7,0.1,1.4,0.4,2l-1.9,3.2l-0.2,0.2c-0.1-0.1-0.2-0.3-0.3-0.4c-0.5-0.7-1.5-1-2.3-0.6l-1.3,0.7l0,0c-0.4,0.2-0.7,0.6-0.9,1.1
		c-0.1,0.2-0.1,0.4,0,0.6c0,0.1,0,0.1,0,0.2c0.2,1,1.4,2.1,2.1,2.7l-2.9,4.8l0.4,2.8c0,0.3,0.1,0.5,0.3,0.7c0.1,0.2,0.3,0.4,0.6,0.5
		c0.2,0.1,0.5,0.2,0.7,0.2c0,0,0.1,0,0.1,0c0.2,0,0.5,0,0.7-0.1l2.7-1.1l2.9-4.9c1.3,0.4,2.7,0.6,4.1,0.6c0,0,0,0,0,0
		c1.4,0,2.8-0.2,4.1-0.6l2.9,4.9l2.7,1.1c0.2,0.1,0.5,0.1,0.8,0.1c0.3,0,0.5-0.1,0.7-0.2c0.1,0,0.2-0.1,0.2-0.2l0.1,0l0.6-0.8
		l-0.1,0c0-0.1,0-0.2,0.1-0.3L49,211.7z M36.5,209.5C36.5,209.5,36.5,209.5,36.5,209.5c-1.4,0-2.9-0.2-4.2-0.7l-0.4-0.1l-3.2,5.3
		l-2.4,1c-0.1,0-0.2,0.1-0.3,0.1c-0.1,0-0.2,0-0.3-0.1c-0.1-0.1-0.2-0.1-0.2-0.2c-0.1-0.1-0.1-0.2-0.1-0.3l-0.3-2.5l3.2-5.3
		l-0.3-0.3c-0.7-0.6-1.8-1.6-2-2.3c-0.1-0.2-0.1-0.4-0.1-0.5c0-0.2,0.2-0.4,0.4-0.5l0,0l0,0l1.3-0.7c0.3-0.2,0.7-0.1,1,0.2
		c0.1,0.2,0.2,0.3,0.3,0.5l0.9,1l0.6-0.8l2.5-4.2l-0.1-0.2c-0.3-0.6-0.4-1.2-0.4-1.8c0-0.7,0.2-1.4,0.6-2s0.9-1.1,1.6-1.5
		c0.7-0.4,1.4-0.5,2.1-0.5c0.8,0,1.5,0.2,2.1,0.6c0.7,0.4,1.2,0.9,1.6,1.5s0.6,1.3,0.6,2c0,0.6-0.1,1.3-0.4,1.8l-0.1,0.2l2.3,3.8
		l0,0c-1,1-2.3,1.7-3.7,2.1l-2.4-4l-3.1,5.2l0.7,0.2c0.8,0.2,1.7,0.3,2.5,0.3c1.1,0,2.3-0.2,3.4-0.6c2.1-0.7,3.9-2.1,5.1-3.8
		c0.2-0.3,0.6-0.4,1-0.2l1.3,0.7l0,0l0,0c0.2,0.1,0.3,0.3,0.4,0.5c0,0.1,0,0.3-0.1,0.5v0c-1.2,1.8-2.8,3.2-4.7,4.2
		S38.7,209.5,36.5,209.5z M38.1,205.6c-1,0.2-2.1,0.2-3.1,0l1.6-2.6L38.1,205.6z M47.7,214.4c0,0.1-0.1,0.2-0.1,0.3l0,0
		c-0.1,0.1-0.1,0.2-0.2,0.2c-0.1,0.1-0.2,0.1-0.3,0.1c-0.1,0-0.2,0-0.3-0.1l-2.4-1l-2.4-4.1l0,0c1.3-0.5,2.6-1.2,3.7-2.1v0l2.5,4.1
		L47.7,214.4z"/>
	<path class="st13" d="M36.5,198.6c0.8,0,1.4-0.7,1.4-1.4s-0.7-1.4-1.4-1.4c-0.8,0-1.4,0.6-1.4,1.4S35.7,198.6,36.5,198.6z
		 M36.5,196.7c0.2,0,0.4,0.2,0.4,0.4c0,0.2-0.2,0.4-0.4,0.4c-0.2,0-0.4-0.2-0.4-0.4C36.1,196.9,36.3,196.7,36.5,196.7z"/>
</g>
<g>
	<path class="st14" d="M49,155.7l-2.6-4.4l-0.3-0.5c0.8-0.8,1.6-1.6,2.2-2.5c0.3-0.4,0.3-0.9,0.2-1.3c-0.1-0.5-0.4-0.9-0.9-1.1l0,0
		l-1.3-0.7c-0.8-0.4-1.8-0.2-2.3,0.6c-0.2,0.3-0.4,0.5-0.6,0.8l-2.1-3.4c0.3-0.6,0.4-1.3,0.4-2c0-0.9-0.3-1.8-0.7-2.6
		c-0.5-0.8-1.1-1.4-1.9-1.9c-0.8-0.4-1.7-0.7-2.6-0.7c-0.9,0-1.8,0.2-2.6,0.7c-0.8,0.4-1.5,1.1-2,1.8c-0.5,0.8-0.7,1.7-0.8,2.5
		c0,0.7,0.1,1.4,0.4,2l-1.9,3.2l-0.2,0.2c-0.1-0.1-0.2-0.3-0.3-0.4c-0.5-0.7-1.5-1-2.3-0.6l-1.3,0.7l0,0c-0.4,0.2-0.7,0.6-0.9,1.1
		c-0.1,0.2-0.1,0.4,0,0.6c0,0.1,0,0.1,0,0.2c0.2,1,1.4,2.1,2.1,2.7l-2.9,4.8l0.4,2.8c0,0.3,0.1,0.5,0.3,0.7c0.1,0.2,0.3,0.4,0.6,0.5
		c0.2,0.1,0.5,0.2,0.7,0.2c0,0,0.1,0,0.1,0c0.2,0,0.5,0,0.7-0.1l2.7-1.1l2.9-4.9c1.3,0.4,2.7,0.6,4.1,0.6c0,0,0,0,0,0
		c1.4,0,2.8-0.2,4.1-0.6l2.9,4.9l2.7,1.1c0.2,0.1,0.5,0.1,0.8,0.1c0.3,0,0.5-0.1,0.7-0.2c0.1,0,0.2-0.1,0.2-0.2l0.1,0l0.6-0.8
		l-0.1,0c0-0.1,0-0.2,0.1-0.3L49,155.7z M36.5,153.5C36.5,153.5,36.5,153.5,36.5,153.5c-1.4,0-2.9-0.2-4.2-0.7l-0.4-0.1l-3.2,5.3
		l-2.4,1c-0.1,0-0.2,0.1-0.3,0.1c-0.1,0-0.2,0-0.3-0.1c-0.1-0.1-0.2-0.1-0.2-0.2c-0.1-0.1-0.1-0.2-0.1-0.3l-0.3-2.5l3.2-5.3
		l-0.3-0.3c-0.7-0.6-1.8-1.6-2-2.3c-0.1-0.2-0.1-0.4-0.1-0.5c0-0.2,0.2-0.4,0.4-0.5l0,0l0,0l1.3-0.7c0.3-0.2,0.7-0.1,1,0.2
		c0.1,0.2,0.2,0.3,0.3,0.5l0.9,1l0.6-0.8l2.5-4.2l-0.1-0.2c-0.3-0.6-0.4-1.2-0.4-1.8c0-0.7,0.2-1.4,0.6-2s0.9-1.1,1.6-1.5
		c0.7-0.4,1.4-0.5,2.1-0.5c0.8,0,1.5,0.2,2.1,0.6c0.7,0.4,1.2,0.9,1.6,1.5s0.6,1.3,0.6,2c0,0.6-0.1,1.3-0.4,1.8l-0.1,0.2l2.3,3.8
		l0,0c-1,1-2.3,1.7-3.7,2.1l-2.4-4l-3.1,5.2l0.7,0.2c0.8,0.2,1.7,0.3,2.5,0.3c1.1,0,2.3-0.2,3.4-0.6c2.1-0.7,3.9-2.1,5.1-3.8
		c0.2-0.3,0.6-0.4,1-0.2l1.3,0.7l0,0l0,0c0.2,0.1,0.3,0.3,0.4,0.5c0,0.1,0,0.3-0.1,0.5v0c-1.2,1.8-2.8,3.2-4.7,4.2
		S38.7,153.5,36.5,153.5z M38.1,149.6c-1,0.2-2.1,0.2-3.1,0l1.6-2.6L38.1,149.6z M47.7,158.4c0,0.1-0.1,0.2-0.1,0.3l0,0
		c-0.1,0.1-0.1,0.2-0.2,0.2c-0.1,0.1-0.2,0.1-0.3,0.1c-0.1,0-0.2,0-0.3-0.1l-2.4-1l-2.4-4.1l0,0c1.3-0.5,2.6-1.2,3.7-2.1v0l2.5,4.1
		L47.7,158.4z"/>
	<path class="st14" d="M36.5,142.6c0.8,0,1.4-0.7,1.4-1.4s-0.7-1.4-1.4-1.4c-0.8,0-1.4,0.6-1.4,1.4S35.7,142.6,36.5,142.6z
		 M36.5,140.7c0.2,0,0.4,0.2,0.4,0.4c0,0.2-0.2,0.4-0.4,0.4c-0.2,0-0.4-0.2-0.4-0.4C36.1,140.9,36.3,140.7,36.5,140.7z"/>
</g>
</svg>
