<?xml version="1.0" encoding="utf-8"?>
<!-- Generator: Adobe Illustrator 25.2.1, SVG Export Plug-In . SVG Version: 6.00 Build 0)  -->
<svg version="1.1" id="Layer_1" xmlns="http://www.w3.org/2000/svg" xmlns:xlink="http://www.w3.org/1999/xlink" x="0px" y="0px"
	 viewBox="0 0 72 352" style="enable-background:new 0 0 72 352;" xml:space="preserve">
<style type="text/css">
	.st0{fill-rule:evenodd;clip-rule:evenodd;fill:url(#SVGID_1_);fill-opacity:0.25;}
	.st1{fill:#0073EC;}
	.st2{fill-rule:evenodd;clip-rule:evenodd;fill:url(#SVGID_2_);fill-opacity:0.25;}
	.st3{fill:#A644E5;}
	.st4{fill-rule:evenodd;clip-rule:evenodd;fill:url(#SVGID_3_);fill-opacity:0.25;}
	.st5{fill:#00CAAA;}
	.st6{fill:#434F58;}
	.st7{fill-rule:evenodd;clip-rule:evenodd;fill:url(#SVGID_4_);fill-opacity:0.25;}
	.st8{fill-rule:evenodd;clip-rule:evenodd;fill:url(#SVGID_5_);fill-opacity:0.25;}
	.st9{fill:#677983;}
</style>
<radialGradient id="SVGID_1_" cx="-250.75" cy="596.3913" r="1" gradientTransform="matrix(7.347881e-16 12 11.5 -7.041719e-16 -6819 3045)" gradientUnits="userSpaceOnUse">
	<stop  offset="0" style="stop-color:#0073EC"/>
	<stop  offset="1" style="stop-color:#0073EC;stop-opacity:0"/>
</radialGradient>
<path class="st0" d="M42.1,33.2l0.8,0.3l4.4,0.7l0,0c1.7,0.4,2.5,0.7,3,0.9c0.2,0.1,0.4,0.2,0.5,0.3c0.1,0.1,0.1,0.2,0.1,0.3
	c0,0.1,0,0.2,0,0.2v0v0c0,0,0,0.1,0,0.2c0,0.1-0.1,0.2-0.1,0.3c-0.1,0.1-0.3,0.3-0.5,0.3c-0.4,0.2-1.3,0.5-3,0.9l0,0l-4.4,0.7
	l-0.7,0.3l-4.5,6.9h0c0.3,0,0.6,0,0.8,0.1c0.1,0,0.3,0.1,0.4,0.2c0.1,0.1,0.4,0.4,0.4,0.9c0,0.5-0.3,0.8-0.4,0.9
	c-0.1,0.1-0.3,0.2-0.4,0.2C38.3,48,38,48,37.8,48h-5.5v-2.4H33V39l-0.7-0.4l-2.7,3h-0.7l-0.6-0.7v-3.5h0.3v-0.1L28,37.2v-2.6
	l0.6-0.1v-0.1h-0.3v-3.5l0.6-0.7h0.7l2.7,3.5l0.7-0.9v-6.4h-0.7V24h5.5c0.3,0,0.6,0,0.8,0.1c0.1,0,0.3,0.1,0.4,0.2
	c0.1,0.1,0.4,0.4,0.4,0.9c0,0.5-0.3,0.8-0.4,0.9c-0.1,0.1-0.3,0.2-0.4,0.2c-0.2,0.1-0.5,0.1-0.8,0.1h0L42.1,33.2z M38.2,24.5
	C38.2,24.5,38.2,24.5,38.2,24.5L38.2,24.5z M38.2,46.1C38.2,46.1,38.2,46.1,38.2,46.1L38.2,46.1z M38.2,47.5L38.2,47.5L38.2,47.5
	L38.2,47.5z"/>
<path class="st1" d="M48.1,34.1l-4.6-0.6l-0.7-0.2l-4.6-6.7c0.3,0,0.5-0.1,0.7-0.1c0.2-0.1,0.4-0.1,0.5-0.2c0.3-0.2,0.5-0.6,0.5-0.9
	c0-0.4-0.2-0.7-0.5-0.9c-0.1-0.1-0.3-0.2-0.5-0.2C38.6,24,38.3,24,38,24h-5.9v2.6h0.7v6.3h-0.5l-2-2.6h-1.7L27.9,31v3.5h0.3v0.1
	l-0.6,0.1v2.6l0.6,0.1v0.1h-0.3V41l0.7,0.7h1.7l2-2.6h0.5v6.4h-0.7V48H38c0.4,0,0.7,0,0.9-0.1c0.2-0.1,0.4-0.1,0.5-0.3
	c0.3-0.2,0.5-0.6,0.5-0.9s-0.2-0.7-0.5-0.9c-0.1-0.1-0.3-0.2-0.5-0.2c-0.2-0.1-0.5-0.1-0.7-0.1l4.7-6.8l0.5-0.2l4.7-0.7
	c3.5-0.9,3.9-1.1,3.9-1.8S51.6,35,48.1,34.1z M33,25h4.9c0.2,0,0.5,0,0.6,0.1c0.1,0,0.2,0.1,0.2,0.1l0.1,0.1c0,0,0,0.1-0.1,0.1
	c0,0-0.1,0.1-0.2,0.1c-0.2,0.1-0.4,0.1-0.6,0.1h-1.7l5,7.3h-7.5v-7.3H33V25z M36.3,46.4H38c0.2,0,0.5,0,0.6,0.1
	c0.1,0,0.2,0.1,0.2,0.1l0.1,0.1c0,0,0,0.1-0.1,0.1c-0.1,0-0.1,0.1-0.2,0.1C38.4,47,38.2,47,38,47h-4.9v-0.6h0.7v-7.3h7.6L36.3,46.4z
	 M47.9,36.8l-4.7,0.7L41.5,38h-9.7l-2,2.6H29l-0.1-0.1v-2.1h0.3v-0.7H31v-1l-2.3-0.3v-0.9l2.3-0.3v-1h-1.8v-0.7h-0.3v-2.1l0.1-0.1
	h0.8l2,2.6h9.7l1.6,0.6l4.7,0.7c1.7,0.4,2.5,0.7,2.9,0.8C50.4,36.1,49.6,36.3,47.9,36.8z M51,36C51,35.9,51,35.9,51,36L51,36z"/>
<path class="st1" d="M25.6,39.5h-4.1c-0.3,0-0.5,0.2-0.5,0.5s0.2,0.5,0.5,0.5h4.1c0.3,0,0.5-0.2,0.5-0.5S25.9,39.5,25.6,39.5z"/>
<path class="st1" d="M26.4,31.5h-4.1c-0.3,0-0.5,0.2-0.5,0.5s0.2,0.5,0.5,0.5h4.1c0.3,0,0.5-0.2,0.5-0.5S26.7,31.5,26.4,31.5z"/>
<path class="st1" d="M25.9,34.3c-1.2-0.6-3.2,1.2-3.6,1.5l-0.4,0.4l0.5,0.4c0.3,0.2,1.8,1.3,2.9,1.3c0.2,0,0.5,0,0.7-0.1
	c0.4-0.2,0.8-0.6,0.8-1.5C26.8,35.2,26.5,34.6,25.9,34.3z M25.5,36.9c-0.4,0.2-1.3-0.2-2-0.7c0.8-0.6,1.7-1.1,2-0.9
	C25.9,35.5,25.9,36.7,25.5,36.9z"/>
<radialGradient id="SVGID_2_" cx="-250.75" cy="596.3913" r="1" gradientTransform="matrix(7.347881e-16 12 11.5 -7.041719e-16 -6819 3101)" gradientUnits="userSpaceOnUse">
	<stop  offset="0" style="stop-color:#A644E5"/>
	<stop  offset="1" style="stop-color:#A644E5;stop-opacity:0"/>
</radialGradient>
<path class="st2" d="M42.1,89.2l0.8,0.3l4.4,0.7l0,0c1.7,0.4,2.5,0.7,3,0.9c0.2,0.1,0.4,0.2,0.5,0.3c0.1,0.1,0.1,0.2,0.1,0.3
	c0,0.1,0,0.2,0,0.2v0v0c0,0,0,0.1,0,0.2c0,0.1-0.1,0.2-0.1,0.3c-0.1,0.1-0.3,0.3-0.5,0.3c-0.4,0.2-1.3,0.5-3,0.9l0,0l-4.4,0.7
	l-0.7,0.3l-4.5,6.9h0c0.3,0,0.6,0,0.8,0.1c0.1,0,0.3,0.1,0.4,0.2c0.1,0.1,0.4,0.4,0.4,0.9s-0.3,0.8-0.4,0.9
	c-0.1,0.1-0.3,0.2-0.4,0.2c-0.2,0.1-0.5,0.1-0.8,0.1h-5.5v-2.4H33V95l-0.7-0.4l-2.7,3h-0.7l-0.6-0.7v-3.5h0.3v-0.1L28,93.2v-2.6
	l0.6-0.1v-0.1h-0.3v-3.5l0.6-0.7h0.7l2.7,3.5l0.7-0.9v-6.4h-0.7V80h5.5c0.3,0,0.6,0,0.8,0.1c0.1,0,0.3,0.1,0.4,0.2
	c0.1,0.1,0.4,0.4,0.4,0.9c0,0.5-0.3,0.8-0.4,0.9c-0.1,0.1-0.3,0.2-0.4,0.2c-0.2,0.1-0.5,0.1-0.8,0.1h0L42.1,89.2z M38.2,80.5
	C38.2,80.5,38.2,80.5,38.2,80.5L38.2,80.5z M38.2,102.1C38.2,102.1,38.2,102.1,38.2,102.1L38.2,102.1z M38.2,103.5L38.2,103.5
	L38.2,103.5L38.2,103.5z"/>
<path class="st3" d="M48.1,90.1l-4.6-0.6l-0.7-0.2l-4.6-6.7c0.3,0,0.5-0.1,0.7-0.1c0.2-0.1,0.4-0.1,0.5-0.2c0.3-0.2,0.5-0.6,0.5-0.9
	c0-0.4-0.2-0.7-0.5-0.9c-0.1-0.1-0.3-0.2-0.5-0.2C38.6,80,38.3,80,38,80h-5.9v2.6h0.7v6.3h-0.5l-2-2.6h-1.7L27.9,87v3.5h0.3v0.1
	l-0.6,0.1v2.6l0.6,0.1v0.1h-0.3V97l0.7,0.7h1.7l2-2.6h0.5v6.4h-0.7v2.5H38c0.4,0,0.7,0,0.9-0.1c0.2-0.1,0.4-0.1,0.5-0.3
	c0.3-0.2,0.5-0.6,0.5-0.9c0-0.3-0.2-0.7-0.5-0.9c-0.1-0.1-0.3-0.2-0.5-0.2c-0.2-0.1-0.5-0.1-0.7-0.1l4.7-6.8l0.5-0.2l4.7-0.7
	c3.5-0.9,3.9-1.1,3.9-1.8S51.6,91,48.1,90.1z M33,81h4.9c0.2,0,0.5,0,0.6,0.1c0.1,0,0.2,0.1,0.2,0.1l0.1,0.1c0,0,0,0.1-0.1,0.1
	c0,0-0.1,0.1-0.2,0.1c-0.2,0.1-0.4,0.1-0.6,0.1h-1.7l5,7.3h-7.5v-7.3H33V81z M36.3,102.4H38c0.2,0,0.5,0,0.6,0.1
	c0.1,0,0.2,0.1,0.2,0.1l0.1,0.1c0,0,0,0.1-0.1,0.1c-0.1,0-0.1,0.1-0.2,0.1c-0.2,0.1-0.4,0.1-0.6,0.1h-4.9v-0.6h0.7v-7.3h7.6
	L36.3,102.4z M47.9,92.8l-4.7,0.7L41.5,94h-9.7l-2,2.6H29l-0.1-0.1v-2.1h0.3v-0.7H31v-1l-2.3-0.3v-0.9l2.3-0.3v-1h-1.8v-0.7h-0.3
	v-2.1l0.1-0.1h0.8l2,2.6h9.7l1.6,0.6l4.7,0.7c1.7,0.4,2.5,0.7,2.9,0.8C50.4,92.1,49.6,92.3,47.9,92.8z M51,92C51,91.9,51,91.9,51,92
	L51,92z"/>
<path class="st3" d="M25.6,95.5h-4.1c-0.3,0-0.5,0.2-0.5,0.5s0.2,0.5,0.5,0.5h4.1c0.3,0,0.5-0.2,0.5-0.5S25.9,95.5,25.6,95.5z"/>
<path class="st3" d="M26.4,87.5h-4.1c-0.3,0-0.5,0.2-0.5,0.5s0.2,0.5,0.5,0.5h4.1c0.3,0,0.5-0.2,0.5-0.5S26.7,87.5,26.4,87.5z"/>
<path class="st3" d="M25.9,90.3c-1.2-0.6-3.2,1.2-3.6,1.5l-0.4,0.4l0.5,0.4c0.3,0.2,1.8,1.3,2.9,1.3c0.2,0,0.5,0,0.7-0.1
	c0.4-0.2,0.8-0.6,0.8-1.5C26.8,91.2,26.5,90.6,25.9,90.3z M25.5,92.9c-0.4,0.2-1.3-0.2-2-0.7c0.8-0.6,1.7-1.1,2-0.9
	C25.9,91.5,25.9,92.7,25.5,92.9z"/>
<radialGradient id="SVGID_3_" cx="-250.75" cy="596.3913" r="1" gradientTransform="matrix(7.347881e-16 12 11.5 -7.041719e-16 -6819 3157)" gradientUnits="userSpaceOnUse">
	<stop  offset="0" style="stop-color:#00CAAA"/>
	<stop  offset="1" style="stop-color:#00CAAA;stop-opacity:0"/>
</radialGradient>
<path class="st4" d="M42.1,145.2l0.8,0.3l4.4,0.7l0,0c1.7,0.4,2.5,0.7,3,0.9c0.2,0.1,0.4,0.2,0.5,0.3c0.1,0.1,0.1,0.2,0.1,0.3
	c0,0.1,0,0.2,0,0.2v0v0c0,0,0,0.1,0,0.2c0,0.1-0.1,0.2-0.1,0.3c-0.1,0.1-0.3,0.3-0.5,0.3c-0.4,0.2-1.3,0.5-3,0.9l0,0l-4.4,0.7
	l-0.7,0.3l-4.5,6.9h0c0.3,0,0.6,0,0.8,0.1c0.1,0,0.3,0.1,0.4,0.2c0.1,0.1,0.4,0.4,0.4,0.9s-0.3,0.8-0.4,0.9
	c-0.1,0.1-0.3,0.2-0.4,0.2c-0.2,0.1-0.5,0.1-0.8,0.1h-5.5v-2.4H33V151l-0.7-0.4l-2.7,3h-0.7l-0.6-0.7v-3.5h0.3v-0.1l-0.6-0.1v-2.6
	l0.6-0.1v-0.1h-0.3v-3.5l0.6-0.7h0.7l2.7,3.5l0.7-0.9v-6.4h-0.7V136h5.5c0.3,0,0.6,0,0.8,0.1c0.1,0,0.3,0.1,0.4,0.2
	c0.1,0.1,0.4,0.4,0.4,0.9s-0.3,0.8-0.4,0.9c-0.1,0.1-0.3,0.2-0.4,0.2c-0.2,0.1-0.5,0.1-0.8,0.1h0L42.1,145.2z M38.2,136.5
	C38.2,136.5,38.2,136.5,38.2,136.5L38.2,136.5z M38.2,158.1C38.2,158.1,38.2,158.1,38.2,158.1L38.2,158.1z M38.2,159.5L38.2,159.5
	L38.2,159.5L38.2,159.5z"/>
<path class="st5" d="M48.1,146.1l-4.6-0.6l-0.7-0.2l-4.6-6.7c0.3,0,0.5-0.1,0.7-0.1c0.2-0.1,0.4-0.1,0.5-0.2
	c0.3-0.2,0.5-0.6,0.5-0.9c0-0.4-0.2-0.7-0.5-0.9c-0.1-0.1-0.3-0.2-0.5-0.2c-0.3-0.3-0.6-0.3-0.9-0.3h-5.9v2.6h0.7v6.3h-0.5l-2-2.6
	h-1.7l-0.7,0.7v3.5h0.3v0.1l-0.6,0.1v2.6l0.6,0.1v0.1h-0.3v3.5l0.7,0.7h1.7l2-2.6h0.5v6.4h-0.7v2.5H38c0.4,0,0.7,0,0.9-0.1
	c0.2-0.1,0.4-0.1,0.5-0.3c0.3-0.2,0.5-0.6,0.5-0.9s-0.2-0.7-0.5-0.9c-0.1-0.1-0.3-0.2-0.5-0.2c-0.2-0.1-0.5-0.1-0.7-0.1l4.7-6.8
	l0.5-0.2l4.7-0.7c3.5-0.9,3.9-1.1,3.9-1.8S51.6,147,48.1,146.1z M33,137h4.9c0.2,0,0.5,0,0.6,0.1c0.1,0,0.2,0.1,0.2,0.1l0.1,0.1
	c0,0,0,0.1-0.1,0.1c0,0-0.1,0.1-0.2,0.1c-0.2,0.1-0.4,0.1-0.6,0.1h-1.7l5,7.3h-7.5v-7.3H33V137z M36.3,158.4H38c0.2,0,0.5,0,0.6,0.1
	c0.1,0,0.2,0.1,0.2,0.1l0.1,0.1c0,0,0,0.1-0.1,0.1c-0.1,0-0.1,0.1-0.2,0.1c-0.2,0.1-0.4,0.1-0.6,0.1h-4.9v-0.6h0.7v-7.3h7.6
	L36.3,158.4z M47.9,148.8l-4.7,0.7l-1.7,0.5h-9.7l-2,2.6H29l-0.1-0.1v-2.1h0.3v-0.7H31v-1l-2.3-0.3v-0.9l2.3-0.3v-1h-1.8v-0.7h-0.3
	v-2.1l0.1-0.1h0.8l2,2.6h9.7l1.6,0.6l4.7,0.7c1.7,0.4,2.5,0.7,2.9,0.8C50.4,148.1,49.6,148.3,47.9,148.8z M51,148
	C51,147.9,51,147.9,51,148L51,148z"/>
<path class="st5" d="M25.6,151.5h-4.1c-0.3,0-0.5,0.2-0.5,0.5s0.2,0.5,0.5,0.5h4.1c0.3,0,0.5-0.2,0.5-0.5S25.9,151.5,25.6,151.5z"/>
<path class="st5" d="M26.4,143.5h-4.1c-0.3,0-0.5,0.2-0.5,0.5s0.2,0.5,0.5,0.5h4.1c0.3,0,0.5-0.2,0.5-0.5S26.7,143.5,26.4,143.5z"/>
<path class="st5" d="M25.9,146.3c-1.2-0.6-3.2,1.2-3.6,1.5l-0.4,0.4l0.5,0.4c0.3,0.2,1.8,1.3,2.9,1.3c0.2,0,0.5,0,0.7-0.1
	c0.4-0.2,0.8-0.6,0.8-1.5C26.8,147.2,26.5,146.6,25.9,146.3z M25.5,148.9c-0.4,0.2-1.3-0.2-2-0.7c0.8-0.6,1.7-1.1,2-0.9
	C25.9,147.5,25.9,148.7,25.5,148.9z"/>
<path class="st6" d="M48.1,202.1l-4.6-0.6l-0.7-0.2l-4.6-6.7c0.3,0,0.5-0.1,0.7-0.1c0.2-0.1,0.4-0.1,0.5-0.2
	c0.3-0.2,0.5-0.6,0.5-0.9c0-0.4-0.2-0.7-0.5-0.9c-0.1-0.1-0.3-0.2-0.5-0.2c-0.3-0.3-0.6-0.3-0.9-0.3h-5.9v2.6h0.7v6.3h-0.5l-2-2.6
	h-1.7l-0.7,0.7v3.5h0.3v0.1l-0.6,0.1v2.6l0.6,0.1v0.1h-0.3v3.5l0.7,0.7h1.7l2-2.6h0.5v6.4h-0.7v2.5H38c0.4,0,0.7,0,0.9-0.1
	c0.2-0.1,0.4-0.1,0.5-0.3c0.3-0.2,0.5-0.6,0.5-0.9s-0.2-0.7-0.5-0.9c-0.1-0.1-0.3-0.2-0.5-0.2c-0.2-0.1-0.5-0.1-0.7-0.1l4.7-6.8
	l0.5-0.2l4.7-0.7c3.5-0.9,3.9-1.1,3.9-1.8S51.6,203,48.1,202.1z M33,193h4.9c0.2,0,0.5,0,0.6,0.1c0.1,0,0.2,0.1,0.2,0.1l0.1,0.1
	c0,0,0,0.1-0.1,0.1c0,0-0.1,0.1-0.2,0.1c-0.2,0.1-0.4,0.1-0.6,0.1h-1.7l5,7.3h-7.5v-7.3H33V193z M36.3,214.4H38c0.2,0,0.5,0,0.6,0.1
	c0.1,0,0.2,0.1,0.2,0.1l0.1,0.1c0,0,0,0.1-0.1,0.1c-0.1,0-0.1,0.1-0.2,0.1c-0.2,0.1-0.4,0.1-0.6,0.1h-4.9v-0.6h0.7v-7.3h7.6
	L36.3,214.4z M47.9,204.8l-4.7,0.7l-1.7,0.5h-9.7l-2,2.6H29l-0.1-0.1v-2.1h0.3v-0.7H31v-1l-2.3-0.3v-0.9l2.3-0.3v-1h-1.8v-0.7h-0.3
	v-2.1l0.1-0.1h0.8l2,2.6h9.7l1.6,0.6l4.7,0.7c1.7,0.4,2.5,0.7,2.9,0.8C50.4,204.1,49.6,204.3,47.9,204.8z M51,204
	C51,203.9,51,203.9,51,204L51,204z"/>
<path class="st6" d="M25.6,207.5h-4.1c-0.3,0-0.5,0.2-0.5,0.5s0.2,0.5,0.5,0.5h4.1c0.3,0,0.5-0.2,0.5-0.5S25.9,207.5,25.6,207.5z"/>
<path class="st6" d="M26.4,199.5h-4.1c-0.3,0-0.5,0.2-0.5,0.5s0.2,0.5,0.5,0.5h4.1c0.3,0,0.5-0.2,0.5-0.5S26.7,199.5,26.4,199.5z"/>
<path class="st6" d="M25.9,202.3c-1.2-0.6-3.2,1.2-3.6,1.5l-0.4,0.4l0.5,0.4c0.3,0.2,1.8,1.3,2.9,1.3c0.2,0,0.5,0,0.7-0.1
	c0.4-0.2,0.8-0.6,0.8-1.5C26.8,203.2,26.5,202.6,25.9,202.3z M25.5,204.9c-0.4,0.2-1.3-0.2-2-0.7c0.8-0.6,1.7-1.1,2-0.9
	C25.9,203.5,25.9,204.7,25.5,204.9z"/>
<radialGradient id="SVGID_4_" cx="-250.75" cy="596.3913" r="1" gradientTransform="matrix(7.347881e-16 12 11.5 -7.041719e-16 -6819 3269)" gradientUnits="userSpaceOnUse">
	<stop  offset="0" style="stop-color:#434F58"/>
	<stop  offset="1" style="stop-color:#434F58;stop-opacity:0"/>
</radialGradient>
<path class="st7" d="M42.1,257.2l0.8,0.3l4.4,0.7l0,0c1.7,0.4,2.5,0.7,3,0.9c0.2,0.1,0.4,0.2,0.5,0.3c0.1,0.1,0.1,0.2,0.1,0.3
	c0,0.1,0,0.2,0,0.2v0v0c0,0,0,0.1,0,0.2c0,0.1-0.1,0.2-0.1,0.3c-0.1,0.1-0.3,0.3-0.5,0.3c-0.4,0.2-1.3,0.5-3,0.9l0,0l-4.4,0.7
	l-0.7,0.3l-4.5,6.9h0c0.3,0,0.6,0,0.8,0.1c0.1,0,0.3,0.1,0.4,0.2c0.1,0.1,0.4,0.4,0.4,0.9s-0.3,0.8-0.4,0.9
	c-0.1,0.1-0.3,0.2-0.4,0.2c-0.2,0.1-0.5,0.1-0.8,0.1h-5.5v-2.4H33V263l-0.7-0.4l-2.7,3h-0.7l-0.6-0.7v-3.5h0.3v-0.1l-0.6-0.1v-2.6
	l0.6-0.1v-0.1h-0.3v-3.5l0.6-0.7h0.7l2.7,3.5l0.7-0.9v-6.4h-0.7V248h5.5c0.3,0,0.6,0,0.8,0.1c0.1,0,0.3,0.1,0.4,0.2
	c0.1,0.1,0.4,0.4,0.4,0.9s-0.3,0.8-0.4,0.9c-0.1,0.1-0.3,0.2-0.4,0.2c-0.2,0.1-0.5,0.1-0.8,0.1h0L42.1,257.2z M38.2,248.5
	C38.2,248.5,38.2,248.5,38.2,248.5L38.2,248.5z M38.2,270.1C38.2,270.1,38.2,270.1,38.2,270.1L38.2,270.1z M38.2,271.5L38.2,271.5
	L38.2,271.5L38.2,271.5z"/>
<path class="st6" d="M48.1,258.1l-4.6-0.6l-0.7-0.2l-4.6-6.7c0.3,0,0.5-0.1,0.7-0.1c0.2-0.1,0.4-0.1,0.5-0.2
	c0.3-0.2,0.5-0.6,0.5-0.9c0-0.4-0.2-0.7-0.5-0.9c-0.1-0.1-0.3-0.2-0.5-0.2c-0.3-0.3-0.6-0.3-0.9-0.3h-5.9v2.6h0.7v6.3h-0.5l-2-2.6
	h-1.7l-0.7,0.7v3.5h0.3v0.1l-0.6,0.1v2.6l0.6,0.1v0.1h-0.3v3.5l0.7,0.7h1.7l2-2.6h0.5v6.4h-0.7v2.5H38c0.4,0,0.7,0,0.9-0.1
	c0.2-0.1,0.4-0.1,0.5-0.3c0.3-0.2,0.5-0.6,0.5-0.9c0-0.3-0.2-0.7-0.5-0.9c-0.1-0.1-0.3-0.2-0.5-0.2c-0.2-0.1-0.5-0.1-0.7-0.1
	l4.7-6.8l0.5-0.2l4.7-0.7c3.5-0.9,3.9-1.1,3.9-1.8S51.6,259,48.1,258.1z M33,249h4.9c0.2,0,0.5,0,0.6,0.1c0.1,0,0.2,0.1,0.2,0.1
	l0.1,0.1c0,0,0,0.1-0.1,0.1c0,0-0.1,0.1-0.2,0.1c-0.2,0.1-0.4,0.1-0.6,0.1h-1.7l5,7.3h-7.5v-7.3H33V249z M36.3,270.4H38
	c0.2,0,0.5,0,0.6,0.1c0.1,0,0.2,0.1,0.2,0.1l0.1,0.1c0,0,0,0.1-0.1,0.1c-0.1,0-0.1,0.1-0.2,0.1c-0.2,0.1-0.4,0.1-0.6,0.1h-4.9v-0.6
	h0.7v-7.3h7.6L36.3,270.4z M47.9,260.8l-4.7,0.7l-1.7,0.5h-9.7l-2,2.6H29l-0.1-0.1v-2.1h0.3v-0.7H31v-1l-2.3-0.3v-0.9l2.3-0.3v-1
	h-1.8v-0.7h-0.3v-2.1l0.1-0.1h0.8l2,2.6h9.7l1.6,0.6l4.7,0.7c1.7,0.4,2.5,0.7,2.9,0.8C50.4,260.1,49.6,260.3,47.9,260.8z M51,260
	C51,259.9,51,259.9,51,260L51,260z"/>
<path class="st6" d="M25.6,263.5h-4.1c-0.3,0-0.5,0.2-0.5,0.5s0.2,0.5,0.5,0.5h4.1c0.3,0,0.5-0.2,0.5-0.5S25.9,263.5,25.6,263.5z"/>
<path class="st6" d="M26.4,255.5h-4.1c-0.3,0-0.5,0.2-0.5,0.5c0,0.3,0.2,0.5,0.5,0.5h4.1c0.3,0,0.5-0.2,0.5-0.5
	C26.9,255.7,26.7,255.5,26.4,255.5z"/>
<path class="st6" d="M25.9,258.3c-1.2-0.6-3.2,1.2-3.6,1.5l-0.4,0.4l0.5,0.4c0.3,0.2,1.8,1.3,2.9,1.3c0.2,0,0.5,0,0.7-0.1
	c0.4-0.2,0.8-0.6,0.8-1.5C26.8,259.2,26.5,258.6,25.9,258.3z M25.5,260.9c-0.4,0.2-1.3-0.2-2-0.7c0.8-0.6,1.7-1.1,2-0.9
	C25.9,259.5,25.9,260.7,25.5,260.9z"/>
<radialGradient id="SVGID_5_" cx="-250.75" cy="596.3913" r="1" gradientTransform="matrix(7.347881e-16 12 11.5 -7.041719e-16 -6819 3325)" gradientUnits="userSpaceOnUse">
	<stop  offset="0" style="stop-color:#677983"/>
	<stop  offset="1" style="stop-color:#677983;stop-opacity:0"/>
</radialGradient>
<path class="st8" d="M42.1,313.2l0.8,0.3l4.4,0.7l0,0c1.7,0.4,2.5,0.7,3,0.9c0.2,0.1,0.4,0.2,0.5,0.3c0.1,0.1,0.1,0.2,0.1,0.3
	c0,0.1,0,0.2,0,0.2v0v0c0,0,0,0.1,0,0.2c0,0.1-0.1,0.2-0.1,0.3c-0.1,0.1-0.3,0.3-0.5,0.3c-0.4,0.2-1.3,0.5-3,0.9l0,0l-4.4,0.7
	l-0.7,0.3l-4.5,6.9h0c0.3,0,0.6,0,0.8,0.1c0.1,0,0.3,0.1,0.4,0.2c0.1,0.1,0.4,0.4,0.4,0.9s-0.3,0.8-0.4,0.9
	c-0.1,0.1-0.3,0.2-0.4,0.2c-0.2,0.1-0.5,0.1-0.8,0.1h-5.5v-2.4H33V319l-0.7-0.4l-2.7,3h-0.7l-0.6-0.7v-3.5h0.3v-0.1l-0.6-0.1v-2.6
	l0.6-0.1v-0.1h-0.3v-3.5l0.6-0.7h0.7l2.7,3.5l0.7-0.9v-6.4h-0.7V304h5.5c0.3,0,0.6,0,0.8,0.1c0.1,0,0.3,0.1,0.4,0.2
	c0.1,0.1,0.4,0.4,0.4,0.9s-0.3,0.8-0.4,0.9c-0.1,0.1-0.3,0.2-0.4,0.2c-0.2,0.1-0.5,0.1-0.8,0.1h0L42.1,313.2z M38.2,304.5
	C38.2,304.5,38.2,304.5,38.2,304.5L38.2,304.5z M38.2,326.1C38.2,326.1,38.2,326.1,38.2,326.1L38.2,326.1z M38.2,327.5L38.2,327.5
	L38.2,327.5L38.2,327.5z"/>
<path class="st9" d="M48.1,314.1l-4.6-0.6l-0.7-0.2l-4.6-6.7c0.3,0,0.5-0.1,0.7-0.1c0.2-0.1,0.4-0.1,0.5-0.2
	c0.3-0.2,0.5-0.6,0.5-0.9c0-0.4-0.2-0.7-0.5-0.9c-0.1-0.1-0.3-0.2-0.5-0.2c-0.3-0.3-0.6-0.3-0.9-0.3h-5.9v2.6h0.7v6.3h-0.5l-2-2.6
	h-1.7l-0.7,0.7v3.5h0.3v0.1l-0.6,0.1v2.6l0.6,0.1v0.1h-0.3v3.5l0.7,0.7h1.7l2-2.6h0.5v6.4h-0.7v2.5H38c0.4,0,0.7,0,0.9-0.1
	c0.2-0.1,0.4-0.1,0.5-0.3c0.3-0.2,0.5-0.6,0.5-0.9c0-0.3-0.2-0.7-0.5-0.9c-0.1-0.1-0.3-0.2-0.5-0.2c-0.2-0.1-0.5-0.1-0.7-0.1
	l4.7-6.8l0.5-0.2l4.7-0.7c3.5-0.9,3.9-1.1,3.9-1.8S51.6,315,48.1,314.1z M33,305h4.9c0.2,0,0.5,0,0.6,0.1c0.1,0,0.2,0.1,0.2,0.1
	l0.1,0.1c0,0,0,0.1-0.1,0.1c0,0-0.1,0.1-0.2,0.1c-0.2,0.1-0.4,0.1-0.6,0.1h-1.7l5,7.3h-7.5v-7.3H33V305z M36.3,326.4H38
	c0.2,0,0.5,0,0.6,0.1c0.1,0,0.2,0.1,0.2,0.1l0.1,0.1c0,0,0,0.1-0.1,0.1c-0.1,0-0.1,0.1-0.2,0.1c-0.2,0.1-0.4,0.1-0.6,0.1h-4.9v-0.6
	h0.7v-7.3h7.6L36.3,326.4z M47.9,316.8l-4.7,0.7l-1.7,0.5h-9.7l-2,2.6H29l-0.1-0.1v-2.1h0.3v-0.7H31v-1l-2.3-0.3v-0.9l2.3-0.3v-1
	h-1.8v-0.7h-0.3v-2.1l0.1-0.1h0.8l2,2.6h9.7l1.6,0.6l4.7,0.7c1.7,0.4,2.5,0.7,2.9,0.8C50.4,316.1,49.6,316.3,47.9,316.8z M51,316
	C51,315.9,51,315.9,51,316L51,316z"/>
<path class="st9" d="M25.6,319.5h-4.1c-0.3,0-0.5,0.2-0.5,0.5s0.2,0.5,0.5,0.5h4.1c0.3,0,0.5-0.2,0.5-0.5S25.9,319.5,25.6,319.5z"/>
<path class="st9" d="M26.4,311.5h-4.1c-0.3,0-0.5,0.2-0.5,0.5s0.2,0.5,0.5,0.5h4.1c0.3,0,0.5-0.2,0.5-0.5S26.7,311.5,26.4,311.5z"/>
<path class="st9" d="M25.9,314.3c-1.2-0.6-3.2,1.2-3.6,1.5l-0.4,0.4l0.5,0.4c0.3,0.2,1.8,1.3,2.9,1.3c0.2,0,0.5,0,0.7-0.1
	c0.4-0.2,0.8-0.6,0.8-1.5C26.8,315.2,26.5,314.6,25.9,314.3z M25.5,316.9c-0.4,0.2-1.3-0.2-2-0.7c0.8-0.6,1.7-1.1,2-0.9
	C25.9,315.5,25.9,316.7,25.5,316.9z"/>
</svg>
