<?xml version="1.0" encoding="utf-8"?>
<!-- Generator: Adobe Illustrator 25.2.1, SVG Export Plug-In . SVG Version: 6.00 Build 0)  -->
<svg version="1.1" id="Layer_1" xmlns="http://www.w3.org/2000/svg" xmlns:xlink="http://www.w3.org/1999/xlink" x="0px" y="0px"
	 viewBox="0 0 72 352" style="enable-background:new 0 0 72 352;" xml:space="preserve">
<style type="text/css">
	.st0{fill:url(#SVGID_1_);fill-opacity:0.25;}
	.st1{fill:#0073EC;}
	.st2{fill-rule:evenodd;clip-rule:evenodd;fill:#0073EC;}
	.st3{fill:url(#SVGID_2_);fill-opacity:0.25;}
	.st4{fill:#A644E5;}
	.st5{fill-rule:evenodd;clip-rule:evenodd;fill:#A644E5;}
	.st6{fill:url(#SVGID_3_);fill-opacity:0.25;}
	.st7{fill:#00CAAA;}
	.st8{fill-rule:evenodd;clip-rule:evenodd;fill:#00CAAA;}
	.st9{fill:#434F58;}
	.st10{fill-rule:evenodd;clip-rule:evenodd;fill:#434F58;}
	.st11{fill:url(#SVGID_4_);fill-opacity:0.25;}
	.st12{fill:url(#SVGID_5_);fill-opacity:0.25;}
	.st13{fill:#677983;}
	.st14{fill-rule:evenodd;clip-rule:evenodd;fill:#677983;}
</style>
<radialGradient id="SVGID_1_" cx="-248.0897" cy="589.0267" r="1" gradientTransform="matrix(6.413047e-16 10.4733 16.7845 -1.027754e-15 -9850.7344 2628.791)" gradientUnits="userSpaceOnUse">
	<stop  offset="0" style="stop-color:#0073EC"/>
	<stop  offset="1" style="stop-color:#0073EC;stop-opacity:0"/>
</radialGradient>
<path class="st0" d="M51.3,31.5c-0.7-0.9-1.7-1.6-2.8-1.9c-0.1-2.2-0.9-4.2-2.3-5.9c-1.4-1.7-3.2-2.9-5.3-3.4
	c-2.1-0.5-4.3-0.4-6.3,0.4c-2,0.8-3.7,2.3-4.8,4.1c-0.6-0.2-1.3-0.3-1.9-0.2s-1.3,0.3-1.8,0.6c-0.6,0.3-1,0.8-1.4,1.3
	c-0.4,0.5-0.6,1.1-0.8,1.7c-1.4,0.4-2.7,1.2-3.6,2.4c-0.9,1.2-1.3,2.7-1.2,4.2c0.2,3.4,3.1,6.1,6.5,6.1h7.3l-0.4,0l14.4,0
	c1.1,0,2.2-0.3,3.1-0.9c0.9-0.6,1.7-1.4,2.1-2.4c0.5-1,0.7-2.1,0.5-3.2C52.4,33.4,52,32.4,51.3,31.5L51.3,31.5z"/>
<path class="st1" d="M38.4,22.9c-0.1,0-0.3,0.1-0.4,0.2c-0.1,0.1-0.2,0.2-0.2,0.4c0,0.1,0.1,0.3,0.2,0.4c0.1,0.1,0.2,0.2,0.4,0.2
	c0.9,0,1.8,0.2,2.6,0.6c0.8,0.4,1.6,1,2.1,1.7c0,0.1,0.1,0.1,0.2,0.1c0.1,0,0.1,0.1,0.2,0.1c0.1,0,0.1,0,0.2,0
	c0.1,0,0.1-0.1,0.2-0.1c0.1,0,0.1-0.1,0.1-0.2c0-0.1,0.1-0.1,0.1-0.2c0-0.1,0-0.1,0-0.2c0-0.1-0.1-0.1-0.1-0.2
	c-0.7-0.8-1.5-1.5-2.5-2C40.5,23.1,39.4,22.9,38.4,22.9z"/>
<path class="st2" d="M51.3,31.5c-0.7-0.9-1.7-1.6-2.8-1.9c-0.1-2.2-0.9-4.2-2.3-5.9c-1.4-1.7-3.2-2.9-5.3-3.4
	c-2.1-0.5-4.3-0.4-6.3,0.4c-2,0.8-3.7,2.3-4.8,4.1c-0.6-0.2-1.3-0.3-1.9-0.2s-1.3,0.3-1.8,0.6c-0.6,0.3-1,0.8-1.4,1.3
	c-0.4,0.5-0.6,1.1-0.8,1.7c-1.4,0.4-2.7,1.2-3.6,2.4c-0.9,1.2-1.3,2.7-1.2,4.2c0.2,3.4,3.1,6.1,6.5,6.1h7.3l-0.4,0l14.4,0
	c1.1,0,2.2-0.3,3.1-0.9c0.9-0.6,1.7-1.4,2.1-2.4c0.5-1,0.7-2.1,0.5-3.2C52.4,33.4,52,32.4,51.3,31.5L51.3,31.5z M46.7,39.9l-14.3,0
	l0.4,0h-7.3c-2.9,0-5.3-2.2-5.4-5.1c-0.1-1.3,0.3-2.6,1.1-3.6c0.8-1,1.9-1.7,3.2-2c0.1,0,0.2-0.1,0.3-0.2c0.1-0.1,0.1-0.2,0.1-0.3
	c0.1-0.5,0.3-1.1,0.6-1.5c0.3-0.5,0.7-0.8,1.2-1.1c0.5-0.3,1-0.4,1.6-0.5c0.5,0,1.1,0.1,1.6,0.3c0.1,0.1,0.3,0.1,0.4,0
	c0.1,0,0.2-0.1,0.3-0.2c0.8-1.4,1.9-2.6,3.3-3.4c1.4-0.8,3-1.3,4.6-1.3c5,0,9,4,9.1,9c0,0.1,0,0.2,0.1,0.3s0.2,0.2,0.3,0.2
	c1,0.2,1.9,0.8,2.6,1.6c0.7,0.8,1,1.8,1,2.9C51.5,37.7,49.3,39.9,46.7,39.9z"/>
<path class="st2" d="M37.6,42.3v6.2c0.4,0.1,0.8,0.4,1,0.8c0.2,0.4,0.3,0.8,0.3,1.2c-0.1,0.4-0.3,0.8-0.6,1.1
	c-0.3,0.3-0.8,0.4-1.2,0.4h0c-0.4,0-0.8-0.2-1.2-0.5c-0.3-0.3-0.5-0.7-0.6-1.1c-0.1-0.4,0-0.9,0.3-1.2c0.2-0.4,0.6-0.6,1-0.8v-6.2
	c0-0.1,0.1-0.3,0.2-0.4c0.1-0.1,0.2-0.2,0.4-0.2s0.3,0.1,0.4,0.2C37.5,42,37.6,42.1,37.6,42.3z M37,50.9L37,50.9
	c0.2,0,0.3,0,0.4-0.1c0.1-0.1,0.2-0.2,0.3-0.3c0.1-0.1,0.1-0.3,0-0.4c0-0.1-0.1-0.3-0.2-0.4c-0.1-0.1-0.2-0.1-0.2-0.2
	c-0.1,0-0.2-0.1-0.3-0.1h0c-0.2,0-0.4,0.1-0.5,0.2c-0.1,0.1-0.2,0.3-0.2,0.5c0,0.2,0.1,0.4,0.2,0.5c0.1,0.1,0.2,0.1,0.2,0.2
	C36.8,50.9,36.9,50.9,37,50.9z"/>
<path class="st2" d="M34.2,41.7c-0.1,0-0.3,0.1-0.4,0.2c-0.1,0.1-0.2,0.2-0.2,0.4v3c0,0.2-0.1,0.5-0.3,0.7c-0.2,0.2-0.4,0.3-0.7,0.3
	h-1.6c-0.1-0.4-0.4-0.8-0.8-1c-0.4-0.2-0.8-0.3-1.2-0.3s-0.8,0.3-1.1,0.6c-0.3,0.3-0.4,0.8-0.4,1.2s0.2,0.9,0.4,1.2
	c0.3,0.3,0.7,0.5,1.1,0.6s0.9,0,1.2-0.3c0.4-0.2,0.6-0.6,0.8-1h1.6c0.5,0,1-0.2,1.4-0.6c0.4-0.4,0.6-0.9,0.6-1.4v-3
	c0-0.1,0-0.1,0-0.2c0-0.1-0.1-0.1-0.1-0.2s-0.1-0.1-0.2-0.1C34.3,41.8,34.3,41.7,34.2,41.7z M29.5,47.4c-0.2,0-0.3,0-0.4-0.1
	c-0.1-0.1-0.2-0.2-0.3-0.3s-0.1-0.3,0-0.4c0-0.1,0.1-0.3,0.2-0.4c0.1-0.1,0.2-0.2,0.4-0.2c0.1,0,0.3,0,0.4,0
	c0.1,0.1,0.3,0.2,0.3,0.3c0.1,0.1,0.1,0.3,0.1,0.4c0,0.2-0.1,0.4-0.2,0.5C29.8,47.4,29.7,47.4,29.5,47.4z"/>
<path class="st2" d="M43.6,45.2c0.3-0.2,0.7-0.4,1.1-0.4l0,0c0.3,0,0.7,0.1,1,0.3c0.3,0.2,0.5,0.4,0.7,0.7c0.2,0.3,0.2,0.6,0.2,1
	c0,0.3-0.2,0.7-0.4,0.9c-0.2,0.3-0.5,0.5-0.8,0.6c-0.3,0.1-0.7,0.2-1,0.1s-0.6-0.2-0.9-0.4s-0.4-0.5-0.5-0.8h-1.6
	c-0.5,0-1-0.2-1.4-0.6c-0.4-0.4-0.6-0.9-0.6-1.4v-3c0-0.1,0.1-0.3,0.2-0.4c0.1-0.1,0.2-0.2,0.4-0.2c0.1,0,0.3,0.1,0.4,0.2
	c0.1,0.1,0.2,0.2,0.2,0.4v3c0,0.2,0.1,0.5,0.3,0.7c0.2,0.2,0.4,0.3,0.7,0.3h1.6C43,45.8,43.3,45.4,43.6,45.2z M44.2,47.3
	c0.1,0.1,0.3,0.1,0.4,0.1c0.1,0,0.2,0,0.3-0.1c0.1,0,0.2-0.1,0.2-0.2c0.1-0.1,0.1-0.2,0.2-0.2c0-0.1,0.1-0.2,0.1-0.3
	c0-0.2,0-0.3-0.1-0.4c-0.1-0.1-0.2-0.2-0.3-0.3c-0.1-0.1-0.3-0.1-0.4,0c-0.1,0-0.3,0.1-0.4,0.2c-0.1,0.1-0.2,0.2-0.2,0.4
	c0,0.1,0,0.3,0,0.4C44,47.1,44.1,47.2,44.2,47.3z"/>
<g>
	
		<radialGradient id="SVGID_2_" cx="-248.0897" cy="589.0267" r="1" gradientTransform="matrix(6.413047e-16 10.4733 16.7845 -1.027754e-15 -9850.7344 2684.791)" gradientUnits="userSpaceOnUse">
		<stop  offset="0" style="stop-color:#A644E5"/>
		<stop  offset="1" style="stop-color:#A644E5;stop-opacity:0"/>
	</radialGradient>
	<path class="st3" d="M51.3,87.5c-0.7-0.9-1.7-1.6-2.8-1.9c-0.1-2.2-0.9-4.2-2.3-5.9c-1.4-1.7-3.2-2.9-5.3-3.4
		c-2.1-0.5-4.3-0.4-6.3,0.4c-2,0.8-3.7,2.3-4.8,4.1c-0.6-0.2-1.3-0.3-1.9-0.2c-0.6,0.1-1.3,0.3-1.8,0.6c-0.6,0.3-1,0.8-1.4,1.3
		c-0.4,0.5-0.6,1.1-0.8,1.7c-1.4,0.4-2.7,1.2-3.6,2.4c-0.9,1.2-1.3,2.7-1.2,4.2c0.2,3.4,3.1,6.1,6.5,6.1h7.3l-0.4,0l14.4,0
		c1.1,0,2.2-0.3,3.1-0.9c0.9-0.6,1.7-1.4,2.1-2.4c0.5-1,0.7-2.1,0.5-3.2C52.4,89.4,52,88.4,51.3,87.5L51.3,87.5z"/>
</g>
<path class="st4" d="M38.4,78.9c-0.1,0-0.3,0.1-0.4,0.2c-0.1,0.1-0.2,0.2-0.2,0.4c0,0.1,0.1,0.3,0.2,0.4c0.1,0.1,0.2,0.2,0.4,0.2
	c0.9,0,1.8,0.2,2.6,0.6c0.8,0.4,1.6,1,2.1,1.7c0,0.1,0.1,0.1,0.2,0.1c0.1,0,0.1,0.1,0.2,0.1c0.1,0,0.1,0,0.2,0
	c0.1,0,0.1-0.1,0.2-0.1c0.1,0,0.1-0.1,0.1-0.2c0-0.1,0.1-0.1,0.1-0.2c0-0.1,0-0.1,0-0.2c0-0.1-0.1-0.1-0.1-0.2
	c-0.7-0.8-1.5-1.5-2.5-2C40.5,79.1,39.4,78.9,38.4,78.9z"/>
<path class="st5" d="M51.3,87.5c-0.7-0.9-1.7-1.6-2.8-1.9c-0.1-2.2-0.9-4.2-2.3-5.9c-1.4-1.7-3.2-2.9-5.3-3.4
	c-2.1-0.5-4.3-0.4-6.3,0.4c-2,0.8-3.7,2.3-4.8,4.1c-0.6-0.2-1.3-0.3-1.9-0.2c-0.6,0.1-1.3,0.3-1.8,0.6c-0.6,0.3-1,0.8-1.4,1.3
	c-0.4,0.5-0.6,1.1-0.8,1.7c-1.4,0.4-2.7,1.2-3.6,2.4c-0.9,1.2-1.3,2.7-1.2,4.2c0.2,3.4,3.1,6.1,6.5,6.1h7.3l-0.4,0l14.4,0
	c1.1,0,2.2-0.3,3.1-0.9c0.9-0.6,1.7-1.4,2.1-2.4c0.5-1,0.7-2.1,0.5-3.2C52.4,89.4,52,88.4,51.3,87.5L51.3,87.5z M46.7,95.9l-14.3,0
	l0.4,0h-7.3c-2.9,0-5.3-2.2-5.4-5.1c-0.1-1.3,0.3-2.6,1.1-3.6c0.8-1,1.9-1.7,3.2-2c0.1,0,0.2-0.1,0.3-0.2c0.1-0.1,0.1-0.2,0.1-0.3
	c0.1-0.5,0.3-1.1,0.6-1.5c0.3-0.5,0.7-0.8,1.2-1.1c0.5-0.3,1-0.4,1.6-0.5c0.5,0,1.1,0.1,1.6,0.3c0.1,0.1,0.3,0.1,0.4,0
	c0.1,0,0.2-0.1,0.3-0.2c0.8-1.4,1.9-2.6,3.3-3.4c1.4-0.8,3-1.3,4.6-1.3c5,0,9,4,9.1,9c0,0.1,0,0.2,0.1,0.3c0.1,0.1,0.2,0.2,0.3,0.2
	c1,0.2,1.9,0.8,2.6,1.6c0.7,0.8,1,1.8,1,2.9C51.5,93.7,49.3,95.9,46.7,95.9z"/>
<path class="st5" d="M37.6,98.3v6.2c0.4,0.1,0.8,0.4,1,0.8c0.2,0.4,0.3,0.8,0.3,1.2c-0.1,0.4-0.3,0.8-0.6,1.1
	c-0.3,0.3-0.8,0.4-1.2,0.4h0c-0.4,0-0.8-0.2-1.2-0.5c-0.3-0.3-0.5-0.7-0.6-1.1c-0.1-0.4,0-0.9,0.3-1.2c0.2-0.4,0.6-0.6,1-0.8v-6.2
	c0-0.1,0.1-0.3,0.2-0.4c0.1-0.1,0.2-0.2,0.4-0.2s0.3,0.1,0.4,0.2C37.5,98,37.6,98.1,37.6,98.3z M37,106.9L37,106.9
	c0.2,0,0.3,0,0.4-0.1c0.1-0.1,0.2-0.2,0.3-0.3c0.1-0.1,0.1-0.3,0-0.4c0-0.1-0.1-0.3-0.2-0.4c-0.1-0.1-0.2-0.1-0.2-0.2
	c-0.1,0-0.2-0.1-0.3-0.1h0c-0.2,0-0.4,0.1-0.5,0.2c-0.1,0.1-0.2,0.3-0.2,0.5c0,0.2,0.1,0.4,0.2,0.5c0.1,0.1,0.2,0.1,0.2,0.2
	C36.8,106.9,36.9,106.9,37,106.9z"/>
<path class="st5" d="M34.2,97.7c-0.1,0-0.3,0.1-0.4,0.2c-0.1,0.1-0.2,0.2-0.2,0.4v3c0,0.2-0.1,0.5-0.3,0.7c-0.2,0.2-0.4,0.3-0.7,0.3
	h-1.6c-0.1-0.4-0.4-0.8-0.8-1c-0.4-0.2-0.8-0.3-1.2-0.3c-0.4,0.1-0.8,0.3-1.1,0.6c-0.3,0.3-0.4,0.8-0.4,1.2c0,0.4,0.2,0.9,0.4,1.2
	c0.3,0.3,0.7,0.5,1.1,0.6s0.9,0,1.2-0.3c0.4-0.2,0.6-0.6,0.8-1h1.6c0.5,0,1-0.2,1.4-0.6c0.4-0.4,0.6-0.9,0.6-1.4v-3
	c0-0.1,0-0.1,0-0.2c0-0.1-0.1-0.1-0.1-0.2c0,0-0.1-0.1-0.2-0.1C34.3,97.8,34.3,97.7,34.2,97.7z M29.5,103.4c-0.2,0-0.3,0-0.4-0.1
	c-0.1-0.1-0.2-0.2-0.3-0.3c-0.1-0.1-0.1-0.3,0-0.4c0-0.1,0.1-0.3,0.2-0.4c0.1-0.1,0.2-0.2,0.4-0.2c0.1,0,0.3,0,0.4,0
	c0.1,0.1,0.3,0.2,0.3,0.3c0.1,0.1,0.1,0.3,0.1,0.4c0,0.2-0.1,0.4-0.2,0.5C29.8,103.4,29.7,103.4,29.5,103.4z"/>
<path class="st5" d="M43.6,101.2c0.3-0.2,0.7-0.4,1.1-0.4l0,0c0.3,0,0.7,0.1,1,0.3c0.3,0.2,0.5,0.4,0.7,0.7c0.2,0.3,0.2,0.6,0.2,1
	c0,0.3-0.2,0.7-0.4,0.9c-0.2,0.3-0.5,0.5-0.8,0.6c-0.3,0.1-0.7,0.2-1,0.1c-0.3-0.1-0.6-0.2-0.9-0.4s-0.4-0.5-0.5-0.8h-1.6
	c-0.5,0-1-0.2-1.4-0.6c-0.4-0.4-0.6-0.9-0.6-1.4v-3c0-0.1,0.1-0.3,0.2-0.4c0.1-0.1,0.2-0.2,0.4-0.2c0.1,0,0.3,0.1,0.4,0.2
	c0.1,0.1,0.2,0.2,0.2,0.4v3c0,0.2,0.1,0.5,0.3,0.7c0.2,0.2,0.4,0.3,0.7,0.3h1.6C43,101.8,43.3,101.4,43.6,101.2z M44.2,103.3
	c0.1,0.1,0.3,0.1,0.4,0.1c0.1,0,0.2,0,0.3-0.1c0.1,0,0.2-0.1,0.2-0.2c0.1-0.1,0.1-0.2,0.2-0.3c0-0.1,0.1-0.2,0.1-0.3
	c0-0.2,0-0.3-0.1-0.4c-0.1-0.1-0.2-0.2-0.3-0.3c-0.1-0.1-0.3-0.1-0.4,0c-0.1,0-0.3,0.1-0.4,0.2c-0.1,0.1-0.2,0.2-0.2,0.4
	c0,0.1,0,0.3,0,0.4C44,103.1,44.1,103.2,44.2,103.3z"/>
<g>
	
		<radialGradient id="SVGID_3_" cx="-248.0896" cy="589.0267" r="1" gradientTransform="matrix(6.413047e-16 10.4733 16.7845 -1.027754e-15 -9850.7344 2740.7908)" gradientUnits="userSpaceOnUse">
		<stop  offset="0" style="stop-color:#00CAAA"/>
		<stop  offset="1" style="stop-color:#00CAAA;stop-opacity:0"/>
	</radialGradient>
	<path class="st6" d="M51.3,143.5c-0.7-0.9-1.7-1.6-2.8-1.9c-0.1-2.2-0.9-4.2-2.3-5.9c-1.4-1.7-3.2-2.9-5.3-3.4
		c-2.1-0.5-4.3-0.4-6.3,0.4c-2,0.8-3.7,2.3-4.8,4.1c-0.6-0.2-1.3-0.3-1.9-0.2c-0.6,0.1-1.3,0.3-1.8,0.6c-0.6,0.3-1,0.8-1.4,1.3
		c-0.4,0.5-0.6,1.1-0.8,1.7c-1.4,0.4-2.7,1.2-3.6,2.4c-0.9,1.2-1.3,2.7-1.2,4.2c0.2,3.4,3.1,6.1,6.5,6.1h7.3l-0.4,0l14.4,0
		c1.1,0,2.2-0.3,3.1-0.9c0.9-0.6,1.7-1.4,2.1-2.4c0.5-1,0.7-2.1,0.5-3.2C52.4,145.4,52,144.4,51.3,143.5L51.3,143.5z"/>
</g>
<path class="st7" d="M38.4,134.9c-0.1,0-0.3,0.1-0.4,0.2c-0.1,0.1-0.2,0.2-0.2,0.4c0,0.1,0.1,0.3,0.2,0.4c0.1,0.1,0.2,0.2,0.4,0.2
	c0.9,0,1.8,0.2,2.6,0.6c0.8,0.4,1.6,1,2.1,1.7c0,0.1,0.1,0.1,0.2,0.1c0.1,0,0.1,0.1,0.2,0.1c0.1,0,0.1,0,0.2,0
	c0.1,0,0.1-0.1,0.2-0.1c0.1,0,0.1-0.1,0.1-0.2c0-0.1,0.1-0.1,0.1-0.2c0-0.1,0-0.1,0-0.2c0-0.1-0.1-0.1-0.1-0.2
	c-0.7-0.8-1.5-1.5-2.5-2C40.5,135.1,39.4,134.9,38.4,134.9z"/>
<path class="st8" d="M51.3,143.5c-0.7-0.9-1.7-1.6-2.8-1.9c-0.1-2.2-0.9-4.2-2.3-5.9c-1.4-1.7-3.2-2.9-5.3-3.4
	c-2.1-0.5-4.3-0.4-6.3,0.4c-2,0.8-3.7,2.3-4.8,4.1c-0.6-0.2-1.3-0.3-1.9-0.2c-0.6,0.1-1.3,0.3-1.8,0.6c-0.6,0.3-1,0.8-1.4,1.3
	c-0.4,0.5-0.6,1.1-0.8,1.7c-1.4,0.4-2.7,1.2-3.6,2.4c-0.9,1.2-1.3,2.7-1.2,4.2c0.2,3.4,3.1,6.1,6.5,6.1h7.3l-0.4,0l14.4,0
	c1.1,0,2.2-0.3,3.1-0.9c0.9-0.6,1.7-1.4,2.1-2.4c0.5-1,0.7-2.1,0.5-3.2C52.4,145.4,52,144.4,51.3,143.5L51.3,143.5z M46.7,151.9
	l-14.3,0l0.4,0h-7.3c-2.9,0-5.3-2.2-5.4-5.1c-0.1-1.3,0.3-2.6,1.1-3.6c0.8-1,1.9-1.7,3.2-2c0.1,0,0.2-0.1,0.3-0.2
	c0.1-0.1,0.1-0.2,0.1-0.3c0.1-0.5,0.3-1.1,0.6-1.5c0.3-0.5,0.7-0.8,1.2-1.1c0.5-0.3,1-0.4,1.6-0.5c0.5,0,1.1,0.1,1.6,0.3
	c0.1,0.1,0.3,0.1,0.4,0c0.1,0,0.2-0.1,0.3-0.2c0.8-1.4,1.9-2.6,3.3-3.4c1.4-0.8,3-1.3,4.6-1.3c5,0,9,4,9.1,9c0,0.1,0,0.2,0.1,0.3
	c0.1,0.1,0.2,0.2,0.3,0.2c1,0.2,1.9,0.8,2.6,1.6c0.7,0.8,1,1.8,1,2.9C51.5,149.7,49.3,151.9,46.7,151.9z"/>
<path class="st8" d="M37.6,154.3v6.2c0.4,0.1,0.8,0.4,1,0.8c0.2,0.4,0.3,0.8,0.3,1.2c-0.1,0.4-0.3,0.8-0.6,1.1
	c-0.3,0.3-0.8,0.4-1.2,0.4h0c-0.4,0-0.8-0.2-1.2-0.5c-0.3-0.3-0.5-0.7-0.6-1.1c-0.1-0.4,0-0.9,0.3-1.2c0.2-0.4,0.6-0.6,1-0.8v-6.2
	c0-0.1,0.1-0.3,0.2-0.4c0.1-0.1,0.2-0.2,0.4-0.2s0.3,0.1,0.4,0.2C37.5,154,37.6,154.1,37.6,154.3z M37,162.9L37,162.9
	c0.2,0,0.3,0,0.4-0.1c0.1-0.1,0.2-0.2,0.3-0.3c0.1-0.1,0.1-0.3,0-0.4c0-0.1-0.1-0.3-0.2-0.4c-0.1-0.1-0.2-0.1-0.2-0.2
	c-0.1,0-0.2-0.1-0.3-0.1h0c-0.2,0-0.4,0.1-0.5,0.2c-0.1,0.1-0.2,0.3-0.2,0.5c0,0.2,0.1,0.4,0.2,0.5c0.1,0.1,0.2,0.1,0.2,0.2
	C36.8,162.9,36.9,162.9,37,162.9z"/>
<path class="st8" d="M34.2,153.7c-0.1,0-0.3,0.1-0.4,0.2c-0.1,0.1-0.2,0.2-0.2,0.4v3c0,0.2-0.1,0.5-0.3,0.7
	c-0.2,0.2-0.4,0.3-0.7,0.3h-1.6c-0.1-0.4-0.4-0.8-0.8-1c-0.4-0.2-0.8-0.3-1.2-0.3c-0.4,0.1-0.8,0.3-1.1,0.6
	c-0.3,0.3-0.4,0.8-0.4,1.2c0,0.4,0.2,0.9,0.4,1.2c0.3,0.3,0.7,0.5,1.1,0.6c0.4,0.1,0.9,0,1.2-0.3c0.4-0.2,0.6-0.6,0.8-1h1.6
	c0.5,0,1-0.2,1.4-0.6c0.4-0.4,0.6-0.9,0.6-1.4v-3c0-0.1,0-0.1,0-0.2s-0.1-0.1-0.1-0.2c0,0-0.1-0.1-0.2-0.1
	C34.3,153.8,34.3,153.7,34.2,153.7z M29.5,159.4c-0.2,0-0.3,0-0.4-0.1c-0.1-0.1-0.2-0.2-0.3-0.3s-0.1-0.3,0-0.4
	c0-0.1,0.1-0.3,0.2-0.4c0.1-0.1,0.2-0.2,0.4-0.2c0.1,0,0.3,0,0.4,0c0.1,0.1,0.3,0.2,0.3,0.3c0.1,0.1,0.1,0.3,0.1,0.4
	c0,0.2-0.1,0.4-0.2,0.5C29.8,159.4,29.7,159.4,29.5,159.4z"/>
<path class="st8" d="M43.6,157.2c0.3-0.2,0.7-0.4,1.1-0.4l0,0c0.3,0,0.7,0.1,1,0.3c0.3,0.2,0.5,0.4,0.7,0.7c0.2,0.3,0.2,0.6,0.2,1
	c0,0.3-0.2,0.7-0.4,0.9c-0.2,0.3-0.5,0.5-0.8,0.6c-0.3,0.1-0.7,0.2-1,0.1c-0.3-0.1-0.6-0.2-0.9-0.4c-0.3-0.2-0.4-0.5-0.5-0.8h-1.6
	c-0.5,0-1-0.2-1.4-0.6c-0.4-0.4-0.6-0.9-0.6-1.4v-3c0-0.1,0.1-0.3,0.2-0.4s0.2-0.2,0.4-0.2c0.1,0,0.3,0.1,0.4,0.2
	c0.1,0.1,0.2,0.2,0.2,0.4v3c0,0.2,0.1,0.5,0.3,0.7c0.2,0.2,0.4,0.3,0.7,0.3h1.6C43,157.8,43.3,157.4,43.6,157.2z M44.2,159.3
	c0.1,0.1,0.3,0.1,0.4,0.1c0.1,0,0.2,0,0.3-0.1c0.1,0,0.2-0.1,0.2-0.2c0.1-0.1,0.1-0.2,0.2-0.3c0-0.1,0.1-0.2,0.1-0.3
	c0-0.2,0-0.3-0.1-0.4c-0.1-0.1-0.2-0.2-0.3-0.3c-0.1-0.1-0.3-0.1-0.4,0c-0.1,0-0.3,0.1-0.4,0.2c-0.1,0.1-0.2,0.2-0.2,0.4
	c0,0.1,0,0.3,0,0.4C44,159.1,44.1,159.2,44.2,159.3z"/>
<path class="st9" d="M38.4,190.9c-0.1,0-0.3,0.1-0.4,0.2c-0.1,0.1-0.2,0.2-0.2,0.4c0,0.1,0.1,0.3,0.2,0.4c0.1,0.1,0.2,0.2,0.4,0.2
	c0.9,0,1.8,0.2,2.6,0.6c0.8,0.4,1.6,1,2.1,1.7c0,0.1,0.1,0.1,0.2,0.1c0.1,0,0.1,0.1,0.2,0.1c0.1,0,0.1,0,0.2,0
	c0.1,0,0.1-0.1,0.2-0.1c0.1,0,0.1-0.1,0.1-0.2c0-0.1,0.1-0.1,0.1-0.2c0-0.1,0-0.1,0-0.2c0-0.1-0.1-0.1-0.1-0.2
	c-0.7-0.8-1.5-1.5-2.5-2C40.5,191.1,39.4,190.9,38.4,190.9z"/>
<path class="st10" d="M51.3,199.5c-0.7-0.9-1.7-1.6-2.8-1.9c-0.1-2.2-0.9-4.2-2.3-5.9c-1.4-1.7-3.2-2.9-5.3-3.4
	c-2.1-0.5-4.3-0.4-6.3,0.4c-2,0.8-3.7,2.3-4.8,4.1c-0.6-0.2-1.3-0.3-1.9-0.2c-0.6,0.1-1.3,0.3-1.8,0.6c-0.6,0.3-1,0.8-1.4,1.3
	c-0.4,0.5-0.6,1.1-0.8,1.7c-1.4,0.4-2.7,1.2-3.6,2.4c-0.9,1.2-1.3,2.7-1.2,4.2c0.2,3.4,3.1,6.1,6.5,6.1h7.3l-0.4,0l14.4,0
	c1.1,0,2.2-0.3,3.1-0.9c0.9-0.6,1.7-1.4,2.1-2.4c0.5-1,0.7-2.1,0.5-3.2C52.4,201.4,52,200.4,51.3,199.5L51.3,199.5z M46.7,207.9
	l-14.3,0l0.4,0h-7.3c-2.9,0-5.3-2.2-5.4-5.1c-0.1-1.3,0.3-2.6,1.1-3.6c0.8-1,1.9-1.7,3.2-2c0.1,0,0.2-0.1,0.3-0.2
	c0.1-0.1,0.1-0.2,0.1-0.3c0.1-0.5,0.3-1.1,0.6-1.5c0.3-0.5,0.7-0.8,1.2-1.1c0.5-0.3,1-0.4,1.6-0.5c0.5,0,1.1,0.1,1.6,0.3
	c0.1,0.1,0.3,0.1,0.4,0c0.1,0,0.2-0.1,0.3-0.2c0.8-1.4,1.9-2.6,3.3-3.4c1.4-0.8,3-1.3,4.6-1.3c5,0,9,4,9.1,9c0,0.1,0,0.2,0.1,0.3
	c0.1,0.1,0.2,0.2,0.3,0.2c1,0.2,1.9,0.8,2.6,1.6c0.7,0.8,1,1.8,1,2.9C51.5,205.7,49.3,207.9,46.7,207.9z"/>
<path class="st10" d="M37.6,210.3v6.2c0.4,0.1,0.8,0.4,1,0.8c0.2,0.4,0.3,0.8,0.3,1.2c-0.1,0.4-0.3,0.8-0.6,1.1
	c-0.3,0.3-0.8,0.4-1.2,0.4h0c-0.4,0-0.8-0.2-1.2-0.5c-0.3-0.3-0.5-0.7-0.6-1.1c-0.1-0.4,0-0.9,0.3-1.2c0.2-0.4,0.6-0.6,1-0.8v-6.2
	c0-0.1,0.1-0.3,0.2-0.4c0.1-0.1,0.2-0.2,0.4-0.2s0.3,0.1,0.4,0.2C37.5,210,37.6,210.1,37.6,210.3z M37,218.9L37,218.9
	c0.2,0,0.3,0,0.4-0.1c0.1-0.1,0.2-0.2,0.3-0.3c0.1-0.1,0.1-0.3,0-0.4c0-0.1-0.1-0.3-0.2-0.4c-0.1-0.1-0.2-0.1-0.2-0.2
	c-0.1,0-0.2-0.1-0.3-0.1h0c-0.2,0-0.4,0.1-0.5,0.2c-0.1,0.1-0.2,0.3-0.2,0.5c0,0.2,0.1,0.4,0.2,0.5c0.1,0.1,0.2,0.1,0.2,0.2
	C36.8,218.9,36.9,218.9,37,218.9z"/>
<path class="st10" d="M34.2,209.7c-0.1,0-0.3,0.1-0.4,0.2c-0.1,0.1-0.2,0.2-0.2,0.4v3c0,0.2-0.1,0.5-0.3,0.7
	c-0.2,0.2-0.4,0.3-0.7,0.3h-1.6c-0.1-0.4-0.4-0.8-0.8-1c-0.4-0.2-0.8-0.3-1.2-0.3c-0.4,0.1-0.8,0.3-1.1,0.6
	c-0.3,0.3-0.4,0.8-0.4,1.2c0,0.4,0.2,0.9,0.4,1.2c0.3,0.3,0.7,0.5,1.1,0.6c0.4,0.1,0.9,0,1.2-0.3c0.4-0.2,0.6-0.6,0.8-1h1.6
	c0.5,0,1-0.2,1.4-0.6c0.4-0.4,0.6-0.9,0.6-1.4v-3c0-0.1,0-0.1,0-0.2s-0.1-0.1-0.1-0.2c0,0-0.1-0.1-0.2-0.1
	C34.3,209.8,34.3,209.7,34.2,209.7z M29.5,215.4c-0.2,0-0.3,0-0.4-0.1c-0.1-0.1-0.2-0.2-0.3-0.3s-0.1-0.3,0-0.4
	c0-0.1,0.1-0.3,0.2-0.4c0.1-0.1,0.2-0.2,0.4-0.2c0.1,0,0.3,0,0.4,0c0.1,0.1,0.3,0.2,0.3,0.3c0.1,0.1,0.1,0.3,0.1,0.4
	c0,0.2-0.1,0.4-0.2,0.5C29.8,215.4,29.7,215.4,29.5,215.4z"/>
<path class="st10" d="M43.6,213.2c0.3-0.2,0.7-0.4,1.1-0.4l0,0c0.3,0,0.7,0.1,1,0.3c0.3,0.2,0.5,0.4,0.7,0.7c0.2,0.3,0.2,0.6,0.2,1
	c0,0.3-0.2,0.7-0.4,0.9c-0.2,0.3-0.5,0.5-0.8,0.6c-0.3,0.1-0.7,0.2-1,0.1c-0.3-0.1-0.6-0.2-0.9-0.4c-0.3-0.2-0.4-0.5-0.5-0.8h-1.6
	c-0.5,0-1-0.2-1.4-0.6c-0.4-0.4-0.6-0.9-0.6-1.4v-3c0-0.1,0.1-0.3,0.2-0.4s0.2-0.2,0.4-0.2c0.1,0,0.3,0.1,0.4,0.2
	c0.1,0.1,0.2,0.2,0.2,0.4v3c0,0.2,0.1,0.5,0.3,0.7c0.2,0.2,0.4,0.3,0.7,0.3h1.6C43,213.8,43.3,213.4,43.6,213.2z M44.2,215.3
	c0.1,0.1,0.3,0.1,0.4,0.1c0.1,0,0.2,0,0.3-0.1c0.1,0,0.2-0.1,0.2-0.2c0.1-0.1,0.1-0.2,0.2-0.3c0-0.1,0.1-0.2,0.1-0.3
	c0-0.2,0-0.3-0.1-0.4c-0.1-0.1-0.2-0.2-0.3-0.3c-0.1-0.1-0.3-0.1-0.4,0c-0.1,0-0.3,0.1-0.4,0.2c-0.1,0.1-0.2,0.2-0.2,0.4
	c0,0.1,0,0.3,0,0.4C44,215.1,44.1,215.2,44.2,215.3z"/>
<g>
	
		<radialGradient id="SVGID_4_" cx="-248.0896" cy="589.0267" r="1" gradientTransform="matrix(6.413047e-16 10.4733 16.7845 -1.027754e-15 -9850.7344 2852.7908)" gradientUnits="userSpaceOnUse">
		<stop  offset="0" style="stop-color:#434F58"/>
		<stop  offset="1" style="stop-color:#434F58;stop-opacity:0"/>
	</radialGradient>
	<path class="st11" d="M51.3,255.5c-0.7-0.9-1.7-1.6-2.8-1.9c-0.1-2.2-0.9-4.2-2.3-5.9c-1.4-1.7-3.2-2.9-5.3-3.4
		c-2.1-0.5-4.3-0.4-6.3,0.4c-2,0.8-3.7,2.3-4.8,4.1c-0.6-0.2-1.3-0.3-1.9-0.2c-0.6,0.1-1.3,0.3-1.8,0.6c-0.6,0.3-1,0.8-1.4,1.3
		c-0.4,0.5-0.6,1.1-0.8,1.7c-1.4,0.4-2.7,1.2-3.6,2.4c-0.9,1.2-1.3,2.7-1.2,4.2c0.2,3.4,3.1,6.1,6.5,6.1h7.3l-0.4,0l14.4,0
		c1.1,0,2.2-0.3,3.1-0.9s1.7-1.4,2.1-2.4c0.5-1,0.7-2.1,0.5-3.2C52.4,257.4,52,256.4,51.3,255.5L51.3,255.5z"/>
</g>
<path class="st9" d="M38.4,246.9c-0.1,0-0.3,0.1-0.4,0.2c-0.1,0.1-0.2,0.2-0.2,0.4c0,0.1,0.1,0.3,0.2,0.4c0.1,0.1,0.2,0.2,0.4,0.2
	c0.9,0,1.8,0.2,2.6,0.6c0.8,0.4,1.6,1,2.1,1.7c0,0.1,0.1,0.1,0.2,0.1c0.1,0,0.1,0.1,0.2,0.1c0.1,0,0.1,0,0.2,0
	c0.1,0,0.1-0.1,0.2-0.1c0.1,0,0.1-0.1,0.1-0.2c0-0.1,0.1-0.1,0.1-0.2c0-0.1,0-0.1,0-0.2c0-0.1-0.1-0.1-0.1-0.2
	c-0.7-0.8-1.5-1.5-2.5-2C40.5,247.1,39.4,246.9,38.4,246.9z"/>
<path class="st10" d="M51.3,255.5c-0.7-0.9-1.7-1.6-2.8-1.9c-0.1-2.2-0.9-4.2-2.3-5.9c-1.4-1.7-3.2-2.9-5.3-3.4
	c-2.1-0.5-4.3-0.4-6.3,0.4c-2,0.8-3.7,2.3-4.8,4.1c-0.6-0.2-1.3-0.3-1.9-0.2c-0.6,0.1-1.3,0.3-1.8,0.6c-0.6,0.3-1,0.8-1.4,1.3
	c-0.4,0.5-0.6,1.1-0.8,1.7c-1.4,0.4-2.7,1.2-3.6,2.4c-0.9,1.2-1.3,2.7-1.2,4.2c0.2,3.4,3.1,6.1,6.5,6.1h7.3l-0.4,0l14.4,0
	c1.1,0,2.2-0.3,3.1-0.9s1.7-1.4,2.1-2.4c0.5-1,0.7-2.1,0.5-3.2C52.4,257.4,52,256.4,51.3,255.5L51.3,255.5z M46.7,263.9l-14.3,0
	l0.4,0h-7.3c-2.9,0-5.3-2.2-5.4-5.1c-0.1-1.3,0.3-2.6,1.1-3.6c0.8-1,1.9-1.7,3.2-2c0.1,0,0.2-0.1,0.3-0.2c0.1-0.1,0.1-0.2,0.1-0.3
	c0.1-0.5,0.3-1.1,0.6-1.5c0.3-0.5,0.7-0.8,1.2-1.1c0.5-0.3,1-0.4,1.6-0.5c0.5,0,1.1,0.1,1.6,0.3c0.1,0.1,0.3,0.1,0.4,0
	c0.1,0,0.2-0.1,0.3-0.2c0.8-1.4,1.9-2.6,3.3-3.4c1.4-0.8,3-1.3,4.6-1.3c5,0,9,4,9.1,9c0,0.1,0,0.2,0.1,0.3c0.1,0.1,0.2,0.2,0.3,0.2
	c1,0.2,1.9,0.8,2.6,1.6c0.7,0.8,1,1.8,1,2.9C51.5,261.7,49.3,263.9,46.7,263.9z"/>
<path class="st10" d="M37.6,266.3v6.2c0.4,0.1,0.8,0.4,1,0.8c0.2,0.4,0.3,0.8,0.3,1.2c-0.1,0.4-0.3,0.8-0.6,1.1
	c-0.3,0.3-0.8,0.4-1.2,0.4h0c-0.4,0-0.8-0.2-1.2-0.5c-0.3-0.3-0.5-0.7-0.6-1.1c-0.1-0.4,0-0.9,0.3-1.2c0.2-0.4,0.6-0.6,1-0.8v-6.2
	c0-0.1,0.1-0.3,0.2-0.4c0.1-0.1,0.2-0.2,0.4-0.2s0.3,0.1,0.4,0.2C37.5,266,37.6,266.1,37.6,266.3z M37,274.9L37,274.9
	c0.2,0,0.3,0,0.4-0.1c0.1-0.1,0.2-0.2,0.3-0.3c0.1-0.1,0.1-0.3,0-0.4c0-0.1-0.1-0.3-0.2-0.4c-0.1-0.1-0.2-0.1-0.2-0.2
	c-0.1,0-0.2-0.1-0.3-0.1h0c-0.2,0-0.4,0.1-0.5,0.2c-0.1,0.1-0.2,0.3-0.2,0.5c0,0.2,0.1,0.4,0.2,0.5c0.1,0.1,0.2,0.1,0.2,0.2
	C36.8,274.9,36.9,274.9,37,274.9z"/>
<path class="st10" d="M34.2,265.7c-0.1,0-0.3,0.1-0.4,0.2c-0.1,0.1-0.2,0.2-0.2,0.4v3c0,0.2-0.1,0.5-0.3,0.7
	c-0.2,0.2-0.4,0.3-0.7,0.3h-1.6c-0.1-0.4-0.4-0.8-0.8-1c-0.4-0.2-0.8-0.3-1.2-0.3s-0.8,0.3-1.1,0.6c-0.3,0.3-0.4,0.8-0.4,1.2
	c0,0.4,0.2,0.9,0.4,1.2c0.3,0.3,0.7,0.5,1.1,0.6s0.9,0,1.2-0.3c0.4-0.2,0.6-0.6,0.8-1h1.6c0.5,0,1-0.2,1.4-0.6
	c0.4-0.4,0.6-0.9,0.6-1.4v-3c0-0.1,0-0.1,0-0.2s-0.1-0.1-0.1-0.2c0,0-0.1-0.1-0.2-0.1C34.3,265.8,34.3,265.7,34.2,265.7z
	 M29.5,271.4c-0.2,0-0.3,0-0.4-0.1c-0.1-0.1-0.2-0.2-0.3-0.3c-0.1-0.1-0.1-0.3,0-0.4c0-0.1,0.1-0.3,0.2-0.4c0.1-0.1,0.2-0.2,0.4-0.2
	c0.1,0,0.3,0,0.4,0c0.1,0.1,0.3,0.2,0.3,0.3c0.1,0.1,0.1,0.3,0.1,0.4c0,0.2-0.1,0.4-0.2,0.5S29.7,271.4,29.5,271.4z"/>
<path class="st10" d="M43.6,269.2c0.3-0.2,0.7-0.4,1.1-0.4l0,0c0.3,0,0.7,0.1,1,0.3c0.3,0.2,0.5,0.4,0.7,0.7c0.2,0.3,0.2,0.6,0.2,1
	c0,0.3-0.2,0.7-0.4,0.9c-0.2,0.3-0.5,0.5-0.8,0.6c-0.3,0.1-0.7,0.2-1,0.1c-0.3-0.1-0.6-0.2-0.9-0.4s-0.4-0.5-0.5-0.8h-1.6
	c-0.5,0-1-0.2-1.4-0.6c-0.4-0.4-0.6-0.9-0.6-1.4v-3c0-0.1,0.1-0.3,0.2-0.4c0.1-0.1,0.2-0.2,0.4-0.2c0.1,0,0.3,0.1,0.4,0.2
	c0.1,0.1,0.2,0.2,0.2,0.4v3c0,0.2,0.1,0.5,0.3,0.7c0.2,0.2,0.4,0.3,0.7,0.3h1.6C43,269.8,43.3,269.5,43.6,269.2z M44.2,271.3
	c0.1,0.1,0.3,0.1,0.4,0.1c0.1,0,0.2,0,0.3-0.1c0.1,0,0.2-0.1,0.2-0.2c0.1-0.1,0.1-0.2,0.2-0.3c0-0.1,0.1-0.2,0.1-0.3
	c0-0.2,0-0.3-0.1-0.4c-0.1-0.1-0.2-0.2-0.3-0.3c-0.1-0.1-0.3-0.1-0.4,0c-0.1,0-0.3,0.1-0.4,0.2c-0.1,0.1-0.2,0.2-0.2,0.4
	c0,0.1,0,0.3,0,0.4C44,271.1,44.1,271.2,44.2,271.3z"/>
<radialGradient id="SVGID_5_" cx="-248.0896" cy="589.0267" r="1" gradientTransform="matrix(6.413047e-16 10.4733 16.7845 -1.027754e-15 -9850.7344 2908.7908)" gradientUnits="userSpaceOnUse">
	<stop  offset="0" style="stop-color:#677983"/>
	<stop  offset="1" style="stop-color:#677983;stop-opacity:0"/>
</radialGradient>
<path class="st12" d="M51.3,311.5c-0.7-0.9-1.7-1.6-2.8-1.9c-0.1-2.2-0.9-4.2-2.3-5.9c-1.4-1.7-3.2-2.9-5.3-3.4
	c-2.1-0.5-4.3-0.4-6.3,0.4c-2,0.8-3.7,2.3-4.8,4.1c-0.6-0.2-1.3-0.3-1.9-0.2s-1.3,0.3-1.8,0.6c-0.6,0.3-1,0.8-1.4,1.3
	c-0.4,0.5-0.6,1.1-0.8,1.7c-1.4,0.4-2.7,1.2-3.6,2.4c-0.9,1.2-1.3,2.7-1.2,4.2c0.2,3.4,3.1,6.1,6.5,6.1h7.3l-0.4,0l14.4,0
	c1.1,0,2.2-0.3,3.1-0.9s1.7-1.4,2.1-2.4c0.5-1,0.7-2.1,0.5-3.2C52.4,313.4,52,312.4,51.3,311.5L51.3,311.5z"/>
<path class="st13" d="M38.4,302.9c-0.1,0-0.3,0.1-0.4,0.2c-0.1,0.1-0.2,0.2-0.2,0.4c0,0.1,0.1,0.3,0.2,0.4c0.1,0.1,0.2,0.2,0.4,0.2
	c0.9,0,1.8,0.2,2.6,0.6c0.8,0.4,1.6,1,2.1,1.7c0,0.1,0.1,0.1,0.2,0.1c0.1,0,0.1,0.1,0.2,0.1c0.1,0,0.1,0,0.2,0
	c0.1,0,0.1-0.1,0.2-0.1c0.1,0,0.1-0.1,0.1-0.2c0-0.1,0.1-0.1,0.1-0.2c0-0.1,0-0.1,0-0.2c0-0.1-0.1-0.1-0.1-0.2
	c-0.7-0.8-1.5-1.5-2.5-2C40.5,303.1,39.4,302.9,38.4,302.9z"/>
<path class="st14" d="M51.3,311.5c-0.7-0.9-1.7-1.6-2.8-1.9c-0.1-2.2-0.9-4.2-2.3-5.9c-1.4-1.7-3.2-2.9-5.3-3.4
	c-2.1-0.5-4.3-0.4-6.3,0.4c-2,0.8-3.7,2.3-4.8,4.1c-0.6-0.2-1.3-0.3-1.9-0.2s-1.3,0.3-1.8,0.6c-0.6,0.3-1,0.8-1.4,1.3
	c-0.4,0.5-0.6,1.1-0.8,1.7c-1.4,0.4-2.7,1.2-3.6,2.4c-0.9,1.2-1.3,2.7-1.2,4.2c0.2,3.4,3.1,6.1,6.5,6.1h7.3l-0.4,0l14.4,0
	c1.1,0,2.2-0.3,3.1-0.9s1.7-1.4,2.1-2.4c0.5-1,0.7-2.1,0.5-3.2C52.4,313.4,52,312.4,51.3,311.5L51.3,311.5z M46.7,319.9l-14.3,0
	l0.4,0h-7.3c-2.9,0-5.3-2.2-5.4-5.1c-0.1-1.3,0.3-2.6,1.1-3.6c0.8-1,1.9-1.7,3.2-2c0.1,0,0.2-0.1,0.3-0.2c0.1-0.1,0.1-0.2,0.1-0.3
	c0.1-0.5,0.3-1.1,0.6-1.5c0.3-0.5,0.7-0.8,1.2-1.1c0.5-0.3,1-0.4,1.6-0.5c0.5,0,1.1,0.1,1.6,0.3c0.1,0.1,0.3,0.1,0.4,0
	c0.1,0,0.2-0.1,0.3-0.2c0.8-1.4,1.9-2.6,3.3-3.4c1.4-0.8,3-1.3,4.6-1.3c5,0,9,4,9.1,9c0,0.1,0,0.2,0.1,0.3c0.1,0.1,0.2,0.2,0.3,0.2
	c1,0.2,1.9,0.8,2.6,1.6c0.7,0.8,1,1.8,1,2.9C51.5,317.7,49.3,319.9,46.7,319.9z"/>
<path class="st14" d="M37.6,322.3v6.2c0.4,0.1,0.8,0.4,1,0.8c0.2,0.4,0.3,0.8,0.3,1.2c-0.1,0.4-0.3,0.8-0.6,1.1
	c-0.3,0.3-0.8,0.4-1.2,0.4h0c-0.4,0-0.8-0.2-1.2-0.5c-0.3-0.3-0.5-0.7-0.6-1.1c-0.1-0.4,0-0.9,0.3-1.2c0.2-0.4,0.6-0.6,1-0.8v-6.2
	c0-0.1,0.1-0.3,0.2-0.4c0.1-0.1,0.2-0.2,0.4-0.2s0.3,0.1,0.4,0.2C37.5,322,37.6,322.1,37.6,322.3z M37,330.9L37,330.9
	c0.2,0,0.3,0,0.4-0.1c0.1-0.1,0.2-0.2,0.3-0.3c0.1-0.1,0.1-0.3,0-0.4c0-0.1-0.1-0.3-0.2-0.4c-0.1-0.1-0.2-0.1-0.2-0.2
	c-0.1,0-0.2-0.1-0.3-0.1h0c-0.2,0-0.4,0.1-0.5,0.2c-0.1,0.1-0.2,0.3-0.2,0.5c0,0.2,0.1,0.4,0.2,0.5c0.1,0.1,0.2,0.1,0.2,0.2
	C36.8,330.9,36.9,330.9,37,330.9z"/>
<path class="st14" d="M34.2,321.7c-0.1,0-0.3,0.1-0.4,0.2c-0.1,0.1-0.2,0.2-0.2,0.4v3c0,0.2-0.1,0.5-0.3,0.7
	c-0.2,0.2-0.4,0.3-0.7,0.3h-1.6c-0.1-0.4-0.4-0.8-0.8-1c-0.4-0.2-0.8-0.3-1.2-0.3s-0.8,0.3-1.1,0.6c-0.3,0.3-0.4,0.8-0.4,1.2
	c0,0.4,0.2,0.9,0.4,1.2c0.3,0.3,0.7,0.5,1.1,0.6s0.9,0,1.2-0.3c0.4-0.2,0.6-0.6,0.8-1h1.6c0.5,0,1-0.2,1.4-0.6
	c0.4-0.4,0.6-0.9,0.6-1.4v-3c0-0.1,0-0.1,0-0.2s-0.1-0.1-0.1-0.2c0,0-0.1-0.1-0.2-0.1C34.3,321.8,34.3,321.7,34.2,321.7z
	 M29.5,327.4c-0.2,0-0.3,0-0.4-0.1c-0.1-0.1-0.2-0.2-0.3-0.3c-0.1-0.1-0.1-0.3,0-0.4c0-0.1,0.1-0.3,0.2-0.4c0.1-0.1,0.2-0.2,0.4-0.2
	c0.1,0,0.3,0,0.4,0c0.1,0.1,0.3,0.2,0.3,0.3c0.1,0.1,0.1,0.3,0.1,0.4c0,0.2-0.1,0.4-0.2,0.5S29.7,327.4,29.5,327.4z"/>
<path class="st14" d="M43.6,325.2c0.3-0.2,0.7-0.4,1.1-0.4l0,0c0.3,0,0.7,0.1,1,0.3c0.3,0.2,0.5,0.4,0.7,0.7c0.2,0.3,0.2,0.6,0.2,1
	c0,0.3-0.2,0.7-0.4,0.9c-0.2,0.3-0.5,0.5-0.8,0.6c-0.3,0.1-0.7,0.2-1,0.1c-0.3-0.1-0.6-0.2-0.9-0.4s-0.4-0.5-0.5-0.8h-1.6
	c-0.5,0-1-0.2-1.4-0.6c-0.4-0.4-0.6-0.9-0.6-1.4v-3c0-0.1,0.1-0.3,0.2-0.4c0.1-0.1,0.2-0.2,0.4-0.2c0.1,0,0.3,0.1,0.4,0.2
	c0.1,0.1,0.2,0.2,0.2,0.4v3c0,0.2,0.1,0.5,0.3,0.7c0.2,0.2,0.4,0.3,0.7,0.3h1.6C43,325.8,43.3,325.5,43.6,325.2z M44.2,327.3
	c0.1,0.1,0.3,0.1,0.4,0.1c0.1,0,0.2,0,0.3-0.1c0.1,0,0.2-0.1,0.2-0.2c0.1-0.1,0.1-0.2,0.2-0.3c0-0.1,0.1-0.2,0.1-0.3
	c0-0.2,0-0.3-0.1-0.4c-0.1-0.1-0.2-0.2-0.3-0.3c-0.1-0.1-0.3-0.1-0.4,0c-0.1,0-0.3,0.1-0.4,0.2c-0.1,0.1-0.2,0.2-0.2,0.4
	c0,0.1,0,0.3,0,0.4C44,327.1,44.1,327.2,44.2,327.3z"/>
</svg>
