<?xml version="1.0" encoding="utf-8"?>
<!-- Generator: Adobe Illustrator 25.2.1, SVG Export Plug-In . SVG Version: 6.00 Build 0)  -->
<svg version="1.1" id="Layer_1" xmlns="http://www.w3.org/2000/svg" xmlns:xlink="http://www.w3.org/1999/xlink" x="0px" y="0px"
	 viewBox="0 0 72 352" style="enable-background:new 0 0 72 352;" xml:space="preserve">
<style type="text/css">
	.st0{fill:url(#SVGID_1_);fill-opacity:0.25;}
	.st1{fill:#0073EC;}
	.st2{fill:url(#SVGID_2_);fill-opacity:0.25;}
	.st3{fill:#A644E5;}
	.st4{fill:url(#SVGID_3_);fill-opacity:0.25;}
	.st5{fill:#00CAAA;}
	.st6{fill:#434F58;}
	.st7{fill:url(#SVGID_4_);fill-opacity:0.25;}
	.st8{fill:url(#SVGID_5_);fill-opacity:0.25;}
	.st9{fill:#677983;}
</style>
<radialGradient id="SVGID_1_" cx="-251.8688" cy="592.158" r="1" gradientTransform="matrix(7.827759e-16 12.7837 14.0411 -8.597694e-16 -8278.0898 3256.4373)" gradientUnits="userSpaceOnUse">
	<stop  offset="0" style="stop-color:#0073EC"/>
	<stop  offset="1" style="stop-color:#0073EC;stop-opacity:0"/>
</radialGradient>
<path class="st0" d="M22.4,49.4V23.8h28.1v25.6H22.4z"/>
<path class="st1" d="M25.1,41.6c0,0.3,0.2,0.5,0.5,0.5h0c0.3,0,0.5-0.2,0.5-0.5v-0.5c0-0.3-0.2-0.5-0.5-0.5c-0.3,0-0.5,0.2-0.5,0.5
	V41.6z"/>
<path class="st1" d="M28.6,31.8c0.3,0,0.5-0.2,0.5-0.5v0c0-0.3-0.2-0.5-0.5-0.5H28c-0.3,0-0.5,0.2-0.5,0.5v0c0,0.3,0.2,0.5,0.5,0.5
	L28.6,31.8L28.6,31.8z"/>
<path class="st1" d="M25.1,38.6c0,0.3,0.2,0.5,0.5,0.5h0c0.3,0,0.5-0.2,0.5-0.5v-0.5c0-0.3-0.2-0.5-0.5-0.5h0
	c-0.3,0-0.5,0.2-0.5,0.5V38.6z"/>
<path class="st1" d="M25.1,35.6c0,0.3,0.2,0.5,0.5,0.5h0c0.3,0,0.5-0.2,0.5-0.5v-0.5c0-0.3-0.2-0.5-0.5-0.5h0
	c-0.3,0-0.5,0.2-0.5,0.5V35.6z"/>
<path class="st1" d="M30,43.6h-0.5c-0.3,0-0.5,0.2-0.5,0.5v0c0,0.3,0.2,0.5,0.5,0.5H30c0.3,0,0.5-0.2,0.5-0.5v0
	C30.4,43.8,30.2,43.6,30,43.6z"/>
<path class="st1" d="M26.3,31.8c-0.2-0.2-0.6-0.2-0.7,0.1c-0.1,0.2-0.2,0.4-0.3,0.6c-0.1,0.3,0.1,0.6,0.4,0.6h0
	c0.2,0,0.4-0.1,0.5-0.3c0-0.1,0.1-0.2,0.2-0.3C26.4,32.2,26.4,32,26.3,31.8L26.3,31.8z"/>
<path class="st1" d="M45.6,32.1c0.2,0.1,0.4,0.1,0.6-0.1l0,0c0.2-0.2,0.2-0.6-0.1-0.8C46,31.1,45.8,31,45.6,31
	c-0.3-0.1-0.6,0.1-0.6,0.4v0c0,0.2,0.1,0.4,0.3,0.5C45.4,32,45.5,32,45.6,32.1z"/>
<path class="st1" d="M43,31.9c0.3,0,0.5-0.2,0.5-0.5c0-0.3-0.2-0.5-0.5-0.5h-0.5c-0.3,0-0.5,0.2-0.5,0.5c0,0.3,0.2,0.5,0.5,0.5H43z"
	/>
<path class="st1" d="M40,31.9c0.3,0,0.5-0.2,0.5-0.5c0-0.3-0.2-0.5-0.5-0.5h-0.5c-0.3,0-0.5,0.2-0.5,0.5c0,0.3,0.2,0.5,0.5,0.5H40z"
	/>
<path class="st1" d="M32.3,44.6h0.5c0.3,0,0.5-0.2,0.5-0.5s-0.2-0.5-0.5-0.5h-0.5c-0.3,0-0.5,0.2-0.5,0.5S32,44.6,32.3,44.6z"/>
<path class="st1" d="M37.1,31.9c0.3,0,0.5-0.2,0.5-0.5c0-0.3-0.2-0.5-0.5-0.5h-0.5c-0.3,0-0.5,0.2-0.5,0.5c0,0.3,0.2,0.5,0.5,0.5
	H37.1z"/>
<path class="st1" d="M31.4,30.8h-0.5c-0.3,0-0.5,0.2-0.5,0.5c0,0.3,0.2,0.5,0.5,0.5h0.5c0.3,0,0.5-0.2,0.5-0.5
	C31.8,31.1,31.6,30.8,31.4,30.8z"/>
<path class="st1" d="M34.2,30.8h-0.5c-0.3,0-0.5,0.2-0.5,0.5s0.2,0.5,0.5,0.5h0.5c0.3,0,0.5-0.2,0.5-0.5
	C34.7,31,34.4,30.8,34.2,30.8z"/>
<path class="st1" d="M35.1,44.5h0.5c0.3,0,0.5-0.2,0.5-0.5c0-0.3-0.2-0.5-0.5-0.5h-0.5c-0.3,0-0.5,0.2-0.5,0.5
	C34.6,44.3,34.8,44.5,35.1,44.5z"/>
<path class="st1" d="M26.2,43.8c0.1,0.2,0.3,0.3,0.5,0.4c0.3,0.2,0.6,0,0.7-0.3l0,0c0.1-0.2,0-0.4-0.2-0.6c-0.1-0.1-0.2-0.1-0.3-0.2
	c-0.1-0.2-0.4-0.2-0.6-0.1l0,0C26.1,43.2,26,43.6,26.2,43.8z"/>
<path class="st1" d="M27.5,25.8c0.3,0,0.5-0.2,0.5-0.5s-0.2-0.5-0.5-0.5S27,25.1,27,25.3C27,25.6,27.2,25.8,27.5,25.8z"/>
<path class="st1" d="M30,25.8c0.3,0,0.5-0.2,0.5-0.5c0-0.3-0.2-0.5-0.5-0.5c-0.3,0-0.5,0.2-0.5,0.5C29.5,25.6,29.7,25.9,30,25.8z"/>
<path class="st1" d="M24.9,25.8c0.3,0,0.5-0.2,0.5-0.5s-0.2-0.5-0.5-0.5s-0.5,0.2-0.5,0.5C24.4,25.6,24.7,25.8,24.9,25.8z"/>
<path class="st1" d="M50.5,23H22.5c-0.3,0-0.5,0.2-0.5,0.5v18.7c0,0.2,0.2,0.5,0.4,0.5c0.3,0,0.5-0.2,0.5-0.5V27.7h27.1l0,1.7
	c0,0.2,0.2,0.5,0.4,0.5c0,0,0,0,0,0c0.3,0,0.5-0.2,0.5-0.5v-5.9C51,23.2,50.8,23,50.5,23z M32,26.8h-9.1v-2.8H32V26.8z M50.1,26.8
	H32.9v-2.8h17.1V26.8z"/>
<path class="st1" d="M29.1,48.6h-6.2v-4.5c0-0.2-0.2-0.5-0.4-0.5c-0.3,0-0.5,0.2-0.5,0.5v5c0,0.3,0.2,0.5,0.5,0.5h6.6
	c0.1,0,0.2-0.1,0.3-0.1C29.7,49.1,29.5,48.6,29.1,48.6z"/>
<path class="st1" d="M50.1,46l-14.9,0c-0.3,0-0.5,0.1-0.7,0.4l-2.3,0.9c-0.2,0.1-0.4,0.4-0.4,0.6c0,0.3,0.2,0.5,0.4,0.6l2.3,0.9
	c0.2,0.2,0.4,0.4,0.7,0.4l14.9,0c0.5,0,0.9-0.4,0.9-0.9v-2C51,46.4,50.6,46,50.1,46z M32.6,47.9l1.8-0.7v1.4L32.6,47.9z M35.3,49.1
	c-0.1,0-0.2-0.1-0.2-0.2l0-0.7l13.2,0l0,0.8c0,0,0,0.1,0,0.1L35.3,49.1z M48.3,46.8l0,0.8l-13.2,0v-0.7c0-0.1,0.1-0.2,0.2-0.2
	L48.3,46.8C48.3,46.8,48.3,46.8,48.3,46.8z M50.2,49l-1.1,0c0,0,0-0.1,0-0.1v-2.1c0,0,0-0.1,0-0.1l1.1,0c0.1,0,0.2,0.1,0.2,0.2v1.9
	C50.4,48.9,50.3,49,50.2,49z"/>
<path class="st1" d="M50.7,31.1c-0.2-0.1-0.3,0-0.4,0.1L37.7,43.9c-0.1,0.1-0.2,0.3-0.1,0.5c0.1,0.2,0.2,0.3,0.4,0.3h12.6
	c0.2,0,0.4-0.2,0.4-0.4V31.5C51,31.3,50.9,31.2,50.7,31.1z M49.1,43.8h-0.5h-1h-0.5H39l11.1-11.2c0,0,0.1,0,0.1,0.1v11.2H49.1z"/>
<path class="st1" d="M48.5,36.6c-0.2-0.1-0.3,0-0.4,0.1L44,40.8c-0.1,0.1-0.1,0.3-0.1,0.5c0.1,0.2,0.2,0.3,0.4,0.3h4.1
	c0.2,0,0.4-0.2,0.4-0.4V37C48.8,36.8,48.7,36.6,48.5,36.6z M48.2,40.8C48.2,40.8,48.1,40.9,48.2,40.8L45,40.9
	c-0.1,0-0.1-0.1-0.1-0.2l3-3.1c0.1-0.1,0.2,0,0.2,0.1V40.8z"/>
<path class="st1" d="M41.7,42.9c-0.1,0-0.2,0.1-0.2,0.2v0.7h0.5v-0.7C41.9,43,41.8,42.9,41.7,42.9z"/>
<path class="st1" d="M43.1,42.9c-0.1,0-0.2,0.1-0.2,0.2v0.7h0.5v-0.7C43.4,43,43.3,42.9,43.1,42.9z"/>
<path class="st1" d="M44.6,42.9c-0.1,0-0.2,0.1-0.2,0.2v0.7h0.5v-0.7C44.8,43,44.7,42.9,44.6,42.9z"/>
<path class="st1" d="M46,42.9c-0.1,0-0.2,0.1-0.2,0.2v0.7h0.5v-0.7C46.2,43,46.1,42.9,46,42.9z"/>
<path class="st1" d="M47.4,42.9c-0.1,0-0.2,0.1-0.2,0.2l0,0.7h0.5l0-0.7C47.7,43,47.6,42.9,47.4,42.9z"/>
<path class="st1" d="M48.9,42.9c-0.1,0-0.2,0.1-0.2,0.2l0,0.7h0.5l0-0.7C49.1,43,49,42.9,48.9,42.9z"/>
<g>
	
		<radialGradient id="SVGID_2_" cx="-251.8688" cy="592.158" r="1" gradientTransform="matrix(7.827759e-16 12.7837 14.0411 -8.597694e-16 -8278.0898 3312.4373)" gradientUnits="userSpaceOnUse">
		<stop  offset="0" style="stop-color:#A644E5"/>
		<stop  offset="1" style="stop-color:#A644E5;stop-opacity:0"/>
	</radialGradient>
	<path class="st2" d="M22.4,105.4V79.8h28.1v25.6H22.4z"/>
</g>
<path class="st3" d="M25.1,97.6c0,0.3,0.2,0.5,0.5,0.5h0c0.3,0,0.5-0.2,0.5-0.5v-0.5c0-0.3-0.2-0.5-0.5-0.5c-0.3,0-0.5,0.2-0.5,0.5
	V97.6z"/>
<path class="st3" d="M28.6,87.8c0.3,0,0.5-0.2,0.5-0.5v0c0-0.3-0.2-0.5-0.5-0.5H28c-0.3,0-0.5,0.2-0.5,0.5v0c0,0.3,0.2,0.5,0.5,0.5
	L28.6,87.8L28.6,87.8z"/>
<path class="st3" d="M25.1,94.6c0,0.3,0.2,0.5,0.5,0.5h0c0.3,0,0.5-0.2,0.5-0.5v-0.5c0-0.3-0.2-0.5-0.5-0.5h0
	c-0.3,0-0.5,0.2-0.5,0.5V94.6z"/>
<path class="st3" d="M25.1,91.6c0,0.3,0.2,0.5,0.5,0.5h0c0.3,0,0.5-0.2,0.5-0.5v-0.5c0-0.3-0.2-0.5-0.5-0.5h0
	c-0.3,0-0.5,0.2-0.5,0.5V91.6z"/>
<path class="st3" d="M30,99.6h-0.5c-0.3,0-0.5,0.2-0.5,0.5v0c0,0.3,0.2,0.5,0.5,0.5H30c0.3,0,0.5-0.2,0.5-0.5v0
	C30.4,99.8,30.2,99.6,30,99.6z"/>
<path class="st3" d="M26.3,87.8c-0.2-0.2-0.6-0.2-0.7,0.1c-0.1,0.2-0.2,0.4-0.3,0.6c-0.1,0.3,0.1,0.6,0.4,0.6h0
	c0.2,0,0.4-0.1,0.5-0.3c0-0.1,0.1-0.2,0.2-0.3C26.4,88.2,26.4,88,26.3,87.8L26.3,87.8z"/>
<path class="st3" d="M45.6,88.1c0.2,0.1,0.4,0.1,0.6-0.1l0,0c0.2-0.2,0.2-0.6-0.1-0.8C46,87.1,45.8,87,45.6,87
	c-0.3-0.1-0.6,0.1-0.6,0.4v0c0,0.2,0.1,0.4,0.3,0.5C45.4,88,45.5,88,45.6,88.1z"/>
<path class="st3" d="M43,87.9c0.3,0,0.5-0.2,0.5-0.5c0-0.3-0.2-0.5-0.5-0.5h-0.5c-0.3,0-0.5,0.2-0.5,0.5c0,0.3,0.2,0.5,0.5,0.5H43z"
	/>
<path class="st3" d="M40,87.9c0.3,0,0.5-0.2,0.5-0.5c0-0.3-0.2-0.5-0.5-0.5h-0.5c-0.3,0-0.5,0.2-0.5,0.5c0,0.3,0.2,0.5,0.5,0.5H40z"
	/>
<path class="st3" d="M32.3,100.6h0.5c0.3,0,0.5-0.2,0.5-0.5c0-0.3-0.2-0.5-0.5-0.5h-0.5c-0.3,0-0.5,0.2-0.5,0.5
	C31.8,100.4,32,100.6,32.3,100.6z"/>
<path class="st3" d="M37.1,87.9c0.3,0,0.5-0.2,0.5-0.5c0-0.3-0.2-0.5-0.5-0.5h-0.5c-0.3,0-0.5,0.2-0.5,0.5c0,0.3,0.2,0.5,0.5,0.5
	H37.1z"/>
<path class="st3" d="M31.4,86.8h-0.5c-0.3,0-0.5,0.2-0.5,0.5c0,0.3,0.2,0.5,0.5,0.5h0.5c0.3,0,0.5-0.2,0.5-0.5
	C31.8,87.1,31.6,86.8,31.4,86.8z"/>
<path class="st3" d="M34.2,86.8h-0.5c-0.3,0-0.5,0.2-0.5,0.5s0.2,0.5,0.5,0.5h0.5c0.3,0,0.5-0.2,0.5-0.5
	C34.7,87,34.4,86.8,34.2,86.8z"/>
<path class="st3" d="M35.1,100.5h0.5c0.3,0,0.5-0.2,0.5-0.5c0-0.3-0.2-0.5-0.5-0.5h-0.5c-0.3,0-0.5,0.2-0.5,0.5
	C34.6,100.3,34.8,100.5,35.1,100.5z"/>
<path class="st3" d="M26.2,99.8c0.1,0.2,0.3,0.3,0.5,0.4c0.3,0.2,0.6,0,0.7-0.3l0,0c0.1-0.2,0-0.4-0.2-0.6c-0.1-0.1-0.2-0.1-0.3-0.2
	c-0.1-0.2-0.4-0.2-0.6-0.1l0,0C26.1,99.2,26,99.6,26.2,99.8z"/>
<path class="st3" d="M27.5,81.8c0.3,0,0.5-0.2,0.5-0.5s-0.2-0.5-0.5-0.5S27,81.1,27,81.3C27,81.6,27.2,81.8,27.5,81.8z"/>
<path class="st3" d="M30,81.8c0.3,0,0.5-0.2,0.5-0.5c0-0.3-0.2-0.5-0.5-0.5c-0.3,0-0.5,0.2-0.5,0.5C29.5,81.6,29.7,81.9,30,81.8z"/>
<path class="st3" d="M24.9,81.8c0.3,0,0.5-0.2,0.5-0.5s-0.2-0.5-0.5-0.5s-0.5,0.2-0.5,0.5C24.4,81.6,24.7,81.8,24.9,81.8z"/>
<path class="st3" d="M50.5,79H22.5c-0.3,0-0.5,0.2-0.5,0.5v18.7c0,0.2,0.2,0.5,0.4,0.5c0.3,0,0.5-0.2,0.5-0.5V83.7h27.1l0,1.7
	c0,0.2,0.2,0.5,0.4,0.5c0,0,0,0,0,0c0.3,0,0.5-0.2,0.5-0.5v-5.9C51,79.2,50.8,79,50.5,79z M32,82.8h-9.1v-2.8H32V82.8z M50.1,82.8
	H32.9v-2.8h17.1V82.8z"/>
<path class="st3" d="M29.1,104.6h-6.2v-4.5c0-0.2-0.2-0.5-0.4-0.5c-0.3,0-0.5,0.2-0.5,0.5v5c0,0.3,0.2,0.5,0.5,0.5h6.6
	c0.1,0,0.2-0.1,0.3-0.1C29.7,105.1,29.5,104.6,29.1,104.6z"/>
<path class="st3" d="M50.1,102l-14.9,0c-0.3,0-0.5,0.1-0.7,0.4l-2.3,0.9c-0.2,0.1-0.4,0.4-0.4,0.6c0,0.3,0.2,0.5,0.4,0.6l2.3,0.9
	c0.2,0.2,0.4,0.4,0.7,0.4l14.9,0c0.5,0,0.9-0.4,0.9-0.9v-2C51,102.4,50.6,102,50.1,102z M32.6,103.9l1.8-0.7v1.4L32.6,103.9z
	 M35.3,105.1c-0.1,0-0.2-0.1-0.2-0.2l0-0.7l13.2,0l0,0.8c0,0,0,0.1,0,0.1L35.3,105.1z M48.3,102.8l0,0.8l-13.2,0v-0.7
	c0-0.1,0.1-0.2,0.2-0.2L48.3,102.8C48.3,102.8,48.3,102.8,48.3,102.8z M50.2,104.9l-1.1,0c0,0,0-0.1,0-0.1v-2.1c0,0,0-0.1,0-0.1
	l1.1,0c0.1,0,0.2,0.1,0.2,0.2v1.9C50.4,104.9,50.3,104.9,50.2,104.9z"/>
<path class="st3" d="M50.7,87.1c-0.2-0.1-0.3,0-0.4,0.1L37.7,99.9c-0.1,0.1-0.2,0.3-0.1,0.5c0.1,0.2,0.2,0.3,0.4,0.3h12.6
	c0.2,0,0.4-0.2,0.4-0.4V87.5C51,87.3,50.9,87.2,50.7,87.1z M49.1,99.8h-0.5h-1h-0.5H39l11.1-11.2c0,0,0.1,0,0.1,0.1v11.2H49.1z"/>
<path class="st3" d="M48.5,92.6c-0.2-0.1-0.3,0-0.4,0.1L44,96.8c-0.1,0.1-0.1,0.3-0.1,0.5c0.1,0.2,0.2,0.3,0.4,0.3h4.1
	c0.2,0,0.4-0.2,0.4-0.4V93C48.8,92.8,48.7,92.6,48.5,92.6z M48.2,96.8C48.2,96.8,48.1,96.9,48.2,96.8L45,96.9
	c-0.1,0-0.1-0.1-0.1-0.2l3-3.1c0.1-0.1,0.2,0,0.2,0.1V96.8z"/>
<path class="st3" d="M41.7,98.9c-0.1,0-0.2,0.1-0.2,0.2v0.7h0.5v-0.7C41.9,99,41.8,98.9,41.7,98.9z"/>
<path class="st3" d="M43.1,98.9c-0.1,0-0.2,0.1-0.2,0.2v0.7h0.5v-0.7C43.4,99,43.3,98.9,43.1,98.9z"/>
<path class="st3" d="M44.6,98.9c-0.1,0-0.2,0.1-0.2,0.2v0.7h0.5v-0.7C44.8,99,44.7,98.9,44.6,98.9z"/>
<path class="st3" d="M46,98.9c-0.1,0-0.2,0.1-0.2,0.2v0.7h0.5v-0.7C46.2,99,46.1,98.9,46,98.9z"/>
<path class="st3" d="M47.4,98.9c-0.1,0-0.2,0.1-0.2,0.2l0,0.7h0.5l0-0.7C47.7,99,47.6,98.9,47.4,98.9z"/>
<path class="st3" d="M48.9,98.9c-0.1,0-0.2,0.1-0.2,0.2l0,0.7h0.5l0-0.7C49.1,99,49,98.9,48.9,98.9z"/>
<g>
	
		<radialGradient id="SVGID_3_" cx="-251.8688" cy="592.158" r="1" gradientTransform="matrix(7.827759e-16 12.7837 14.0411 -8.597694e-16 -8278.0898 3368.4373)" gradientUnits="userSpaceOnUse">
		<stop  offset="0" style="stop-color:#00CAAA"/>
		<stop  offset="1" style="stop-color:#00CAAA;stop-opacity:0"/>
	</radialGradient>
	<path class="st4" d="M22.4,161.4v-25.6h28.1v25.6H22.4z"/>
</g>
<path class="st5" d="M25.1,153.6c0,0.3,0.2,0.5,0.5,0.5h0c0.3,0,0.5-0.2,0.5-0.5v-0.5c0-0.3-0.2-0.5-0.5-0.5c-0.3,0-0.5,0.2-0.5,0.5
	V153.6z"/>
<path class="st5" d="M28.6,143.8c0.3,0,0.5-0.2,0.5-0.5v0c0-0.3-0.2-0.5-0.5-0.5H28c-0.3,0-0.5,0.2-0.5,0.5v0c0,0.3,0.2,0.5,0.5,0.5
	L28.6,143.8L28.6,143.8z"/>
<path class="st5" d="M25.1,150.6c0,0.3,0.2,0.5,0.5,0.5h0c0.3,0,0.5-0.2,0.5-0.5v-0.5c0-0.3-0.2-0.5-0.5-0.5h0
	c-0.3,0-0.5,0.2-0.5,0.5V150.6z"/>
<path class="st5" d="M25.1,147.6c0,0.3,0.2,0.5,0.5,0.5h0c0.3,0,0.5-0.2,0.5-0.5v-0.5c0-0.3-0.2-0.5-0.5-0.5h0
	c-0.3,0-0.5,0.2-0.5,0.5V147.6z"/>
<path class="st5" d="M30,155.6h-0.5c-0.3,0-0.5,0.2-0.5,0.5v0c0,0.3,0.2,0.5,0.5,0.5H30c0.3,0,0.5-0.2,0.5-0.5v0
	C30.4,155.8,30.2,155.6,30,155.6z"/>
<path class="st5" d="M26.3,143.8c-0.2-0.2-0.6-0.2-0.7,0.1c-0.1,0.2-0.2,0.4-0.3,0.6c-0.1,0.3,0.1,0.6,0.4,0.6h0
	c0.2,0,0.4-0.1,0.5-0.3c0-0.1,0.1-0.2,0.2-0.3C26.4,144.2,26.4,144,26.3,143.8L26.3,143.8z"/>
<path class="st5" d="M45.6,144.1c0.2,0.1,0.4,0.1,0.6-0.1l0,0c0.2-0.2,0.2-0.6-0.1-0.8c-0.2-0.1-0.4-0.2-0.6-0.3
	c-0.3-0.1-0.6,0.1-0.6,0.4v0c0,0.2,0.1,0.4,0.3,0.5C45.4,144,45.5,144,45.6,144.1z"/>
<path class="st5" d="M43,143.9c0.3,0,0.5-0.2,0.5-0.5c0-0.3-0.2-0.5-0.5-0.5h-0.5c-0.3,0-0.5,0.2-0.5,0.5c0,0.3,0.2,0.5,0.5,0.5H43z
	"/>
<path class="st5" d="M40,143.9c0.3,0,0.5-0.2,0.5-0.5c0-0.3-0.2-0.5-0.5-0.5h-0.5c-0.3,0-0.5,0.2-0.5,0.5c0,0.3,0.2,0.5,0.5,0.5H40z
	"/>
<path class="st5" d="M32.3,156.6h0.5c0.3,0,0.5-0.2,0.5-0.5s-0.2-0.5-0.5-0.5h-0.5c-0.3,0-0.5,0.2-0.5,0.5S32,156.6,32.3,156.6z"/>
<path class="st5" d="M37.1,143.9c0.3,0,0.5-0.2,0.5-0.5s-0.2-0.5-0.5-0.5h-0.5c-0.3,0-0.5,0.2-0.5,0.5s0.2,0.5,0.5,0.5H37.1z"/>
<path class="st5" d="M31.4,142.8h-0.5c-0.3,0-0.5,0.2-0.5,0.5c0,0.3,0.2,0.5,0.5,0.5h0.5c0.3,0,0.5-0.2,0.5-0.5
	C31.8,143.1,31.6,142.8,31.4,142.8z"/>
<path class="st5" d="M34.2,142.8h-0.5c-0.3,0-0.5,0.2-0.5,0.5s0.2,0.5,0.5,0.5h0.5c0.3,0,0.5-0.2,0.5-0.5
	C34.7,143,34.4,142.8,34.2,142.8z"/>
<path class="st5" d="M35.1,156.5h0.5c0.3,0,0.5-0.2,0.5-0.5s-0.2-0.5-0.5-0.5h-0.5c-0.3,0-0.5,0.2-0.5,0.5S34.8,156.5,35.1,156.5z"
	/>
<path class="st5" d="M26.2,155.8c0.1,0.2,0.3,0.3,0.5,0.4c0.3,0.2,0.6,0,0.7-0.3l0,0c0.1-0.2,0-0.4-0.2-0.6
	c-0.1-0.1-0.2-0.1-0.3-0.2c-0.1-0.2-0.4-0.2-0.6-0.1l0,0C26.1,155.2,26,155.6,26.2,155.8z"/>
<path class="st5" d="M27.5,137.8c0.3,0,0.5-0.2,0.5-0.5c0-0.3-0.2-0.5-0.5-0.5s-0.5,0.2-0.5,0.5C27,137.6,27.2,137.8,27.5,137.8z"/>
<path class="st5" d="M30,137.8c0.3,0,0.5-0.2,0.5-0.5c0-0.3-0.2-0.5-0.5-0.5c-0.3,0-0.5,0.2-0.5,0.5C29.5,137.6,29.7,137.9,30,137.8
	z"/>
<path class="st5" d="M24.9,137.8c0.3,0,0.5-0.2,0.5-0.5c0-0.3-0.2-0.5-0.5-0.5s-0.5,0.2-0.5,0.5C24.4,137.6,24.7,137.8,24.9,137.8z"
	/>
<path class="st5" d="M50.5,135H22.5c-0.3,0-0.5,0.2-0.5,0.5v18.7c0,0.2,0.2,0.5,0.4,0.5c0.3,0,0.5-0.2,0.5-0.5v-14.5h27.1l0,1.7
	c0,0.2,0.2,0.5,0.4,0.5c0,0,0,0,0,0c0.3,0,0.5-0.2,0.5-0.5v-5.9C51,135.2,50.8,135,50.5,135z M32,138.8h-9.1v-2.8H32V138.8z
	 M50.1,138.8H32.9v-2.8h17.1V138.8z"/>
<path class="st5" d="M29.1,160.6h-6.2v-4.5c0-0.2-0.2-0.5-0.4-0.5c-0.3,0-0.5,0.2-0.5,0.5v5c0,0.3,0.2,0.5,0.5,0.5h6.6
	c0.1,0,0.2-0.1,0.3-0.1C29.7,161.1,29.5,160.6,29.1,160.6z"/>
<path class="st5" d="M50.1,158l-14.9,0c-0.3,0-0.5,0.1-0.7,0.4l-2.3,0.9c-0.2,0.1-0.4,0.4-0.4,0.6c0,0.3,0.2,0.5,0.4,0.6l2.3,0.9
	c0.2,0.2,0.4,0.4,0.7,0.4l14.9,0c0.5,0,0.9-0.4,0.9-0.9v-2C51,158.4,50.6,158,50.1,158z M32.6,159.9l1.8-0.7v1.4L32.6,159.9z
	 M35.3,161.1c-0.1,0-0.2-0.1-0.2-0.2l0-0.7l13.2,0l0,0.8c0,0,0,0.1,0,0.1L35.3,161.1z M48.3,158.8l0,0.8l-13.2,0v-0.7
	c0-0.1,0.1-0.2,0.2-0.2L48.3,158.8C48.3,158.8,48.3,158.8,48.3,158.8z M50.2,160.9l-1.1,0c0,0,0-0.1,0-0.1v-2.1c0,0,0-0.1,0-0.1
	l1.1,0c0.1,0,0.2,0.1,0.2,0.2v1.9C50.4,160.9,50.3,160.9,50.2,160.9z"/>
<path class="st5" d="M50.7,143.1c-0.2-0.1-0.3,0-0.4,0.1l-12.6,12.8c-0.1,0.1-0.2,0.3-0.1,0.5c0.1,0.2,0.2,0.3,0.4,0.3h12.6
	c0.2,0,0.4-0.2,0.4-0.4v-12.8C51,143.3,50.9,143.2,50.7,143.1z M49.1,155.8h-0.5h-1h-0.5H39l11.1-11.2c0,0,0.1,0,0.1,0.1v11.2H49.1z
	"/>
<path class="st5" d="M48.5,148.6c-0.2-0.1-0.3,0-0.4,0.1l-4.1,4.1c-0.1,0.1-0.1,0.3-0.1,0.5c0.1,0.2,0.2,0.3,0.4,0.3h4.1
	c0.2,0,0.4-0.2,0.4-0.4V149C48.8,148.8,48.7,148.6,48.5,148.6z M48.2,152.8C48.2,152.8,48.1,152.9,48.2,152.8l-3.1,0.1
	c-0.1,0-0.1-0.1-0.1-0.2l3-3.1c0.1-0.1,0.2,0,0.2,0.1V152.8z"/>
<path class="st5" d="M41.7,154.9c-0.1,0-0.2,0.1-0.2,0.2v0.7h0.5v-0.7C41.9,155,41.8,154.9,41.7,154.9z"/>
<path class="st5" d="M43.1,154.9c-0.1,0-0.2,0.1-0.2,0.2v0.7h0.5v-0.7C43.4,155,43.3,154.9,43.1,154.9z"/>
<path class="st5" d="M44.6,154.9c-0.1,0-0.2,0.1-0.2,0.2v0.7h0.5v-0.7C44.8,155,44.7,154.9,44.6,154.9z"/>
<path class="st5" d="M46,154.9c-0.1,0-0.2,0.1-0.2,0.2v0.7h0.5v-0.7C46.2,155,46.1,154.9,46,154.9z"/>
<path class="st5" d="M47.4,154.9c-0.1,0-0.2,0.1-0.2,0.2l0,0.7h0.5l0-0.7C47.7,155,47.6,154.9,47.4,154.9z"/>
<path class="st5" d="M48.9,154.9c-0.1,0-0.2,0.1-0.2,0.2l0,0.7h0.5l0-0.7C49.1,155,49,154.9,48.9,154.9z"/>
<path class="st6" d="M25.1,209.6c0,0.3,0.2,0.5,0.5,0.5h0c0.3,0,0.5-0.2,0.5-0.5v-0.5c0-0.3-0.2-0.5-0.5-0.5c-0.3,0-0.5,0.2-0.5,0.5
	V209.6z"/>
<path class="st6" d="M28.6,199.8c0.3,0,0.5-0.2,0.5-0.5v0c0-0.3-0.2-0.5-0.5-0.5H28c-0.3,0-0.5,0.2-0.5,0.5v0c0,0.3,0.2,0.5,0.5,0.5
	L28.6,199.8L28.6,199.8z"/>
<path class="st6" d="M25.1,206.6c0,0.3,0.2,0.5,0.5,0.5h0c0.3,0,0.5-0.2,0.5-0.5v-0.5c0-0.3-0.2-0.5-0.5-0.5h0
	c-0.3,0-0.5,0.2-0.5,0.5V206.6z"/>
<path class="st6" d="M25.1,203.6c0,0.3,0.2,0.5,0.5,0.5h0c0.3,0,0.5-0.2,0.5-0.5v-0.5c0-0.3-0.2-0.5-0.5-0.5h0
	c-0.3,0-0.5,0.2-0.5,0.5V203.6z"/>
<path class="st6" d="M30,211.6h-0.5c-0.3,0-0.5,0.2-0.5,0.5v0c0,0.3,0.2,0.5,0.5,0.5H30c0.3,0,0.5-0.2,0.5-0.5v0
	C30.4,211.8,30.2,211.6,30,211.6z"/>
<path class="st6" d="M26.3,199.8c-0.2-0.2-0.6-0.2-0.7,0.1c-0.1,0.2-0.2,0.4-0.3,0.6c-0.1,0.3,0.1,0.6,0.4,0.6h0
	c0.2,0,0.4-0.1,0.5-0.3c0-0.1,0.1-0.2,0.2-0.3C26.4,200.2,26.4,200,26.3,199.8L26.3,199.8z"/>
<path class="st6" d="M45.6,200.1c0.2,0.1,0.4,0.1,0.6-0.1l0,0c0.2-0.2,0.2-0.6-0.1-0.8c-0.2-0.1-0.4-0.2-0.6-0.3
	c-0.3-0.1-0.6,0.1-0.6,0.4v0c0,0.2,0.1,0.4,0.3,0.5C45.4,200,45.5,200,45.6,200.1z"/>
<path class="st6" d="M43,199.9c0.3,0,0.5-0.2,0.5-0.5c0-0.3-0.2-0.5-0.5-0.5h-0.5c-0.3,0-0.5,0.2-0.5,0.5c0,0.3,0.2,0.5,0.5,0.5H43z
	"/>
<path class="st6" d="M40,199.9c0.3,0,0.5-0.2,0.5-0.5c0-0.3-0.2-0.5-0.5-0.5h-0.5c-0.3,0-0.5,0.2-0.5,0.5c0,0.3,0.2,0.5,0.5,0.5H40z
	"/>
<path class="st6" d="M32.3,212.6h0.5c0.3,0,0.5-0.2,0.5-0.5s-0.2-0.5-0.5-0.5h-0.5c-0.3,0-0.5,0.2-0.5,0.5S32,212.6,32.3,212.6z"/>
<path class="st6" d="M37.1,199.9c0.3,0,0.5-0.2,0.5-0.5s-0.2-0.5-0.5-0.5h-0.5c-0.3,0-0.5,0.2-0.5,0.5s0.2,0.5,0.5,0.5H37.1z"/>
<path class="st6" d="M31.4,198.8h-0.5c-0.3,0-0.5,0.2-0.5,0.5c0,0.3,0.2,0.5,0.5,0.5h0.5c0.3,0,0.5-0.2,0.5-0.5
	C31.8,199.1,31.6,198.8,31.4,198.8z"/>
<path class="st6" d="M34.2,198.8h-0.5c-0.3,0-0.5,0.2-0.5,0.5s0.2,0.5,0.5,0.5h0.5c0.3,0,0.5-0.2,0.5-0.5
	C34.7,199,34.4,198.8,34.2,198.8z"/>
<path class="st6" d="M35.1,212.5h0.5c0.3,0,0.5-0.2,0.5-0.5s-0.2-0.5-0.5-0.5h-0.5c-0.3,0-0.5,0.2-0.5,0.5S34.8,212.5,35.1,212.5z"
	/>
<path class="st6" d="M26.2,211.8c0.1,0.2,0.3,0.3,0.5,0.4c0.3,0.2,0.6,0,0.7-0.3l0,0c0.1-0.2,0-0.4-0.2-0.6
	c-0.1-0.1-0.2-0.1-0.3-0.2c-0.1-0.2-0.4-0.2-0.6-0.1l0,0C26.1,211.2,26,211.6,26.2,211.8z"/>
<path class="st6" d="M27.5,193.8c0.3,0,0.5-0.2,0.5-0.5c0-0.3-0.2-0.5-0.5-0.5s-0.5,0.2-0.5,0.5C27,193.6,27.2,193.8,27.5,193.8z"/>
<path class="st6" d="M30,193.8c0.3,0,0.5-0.2,0.5-0.5c0-0.3-0.2-0.5-0.5-0.5c-0.3,0-0.5,0.2-0.5,0.5C29.5,193.6,29.7,193.9,30,193.8
	z"/>
<path class="st6" d="M24.9,193.8c0.3,0,0.5-0.2,0.5-0.5c0-0.3-0.2-0.5-0.5-0.5s-0.5,0.2-0.5,0.5C24.4,193.6,24.7,193.8,24.9,193.8z"
	/>
<path class="st6" d="M50.5,191H22.5c-0.3,0-0.5,0.2-0.5,0.5v18.7c0,0.2,0.2,0.5,0.4,0.5c0.3,0,0.5-0.2,0.5-0.5v-14.5h27.1l0,1.7
	c0,0.2,0.2,0.5,0.4,0.5c0,0,0,0,0,0c0.3,0,0.5-0.2,0.5-0.5v-5.9C51,191.2,50.8,191,50.5,191z M32,194.8h-9.1v-2.8H32V194.8z
	 M50.1,194.8H32.9v-2.8h17.1V194.8z"/>
<path class="st6" d="M29.1,216.6h-6.2v-4.5c0-0.2-0.2-0.5-0.4-0.5c-0.3,0-0.5,0.2-0.5,0.5v5c0,0.3,0.2,0.5,0.5,0.5h6.6
	c0.1,0,0.2-0.1,0.3-0.1C29.7,217.1,29.5,216.6,29.1,216.6z"/>
<path class="st6" d="M50.1,214l-14.9,0c-0.3,0-0.5,0.1-0.7,0.4l-2.3,0.9c-0.2,0.1-0.4,0.4-0.4,0.6c0,0.3,0.2,0.5,0.4,0.6l2.3,0.9
	c0.2,0.2,0.4,0.4,0.7,0.4l14.9,0c0.5,0,0.9-0.4,0.9-0.9v-2C51,214.4,50.6,214,50.1,214z M32.6,215.9l1.8-0.7v1.4L32.6,215.9z
	 M35.3,217.1c-0.1,0-0.2-0.1-0.2-0.2l0-0.7l13.2,0l0,0.8c0,0,0,0.1,0,0.1L35.3,217.1z M48.3,214.8l0,0.8l-13.2,0v-0.7
	c0-0.1,0.1-0.2,0.2-0.2L48.3,214.8C48.3,214.8,48.3,214.8,48.3,214.8z M50.2,216.9l-1.1,0c0,0,0-0.1,0-0.1v-2.1c0,0,0-0.1,0-0.1
	l1.1,0c0.1,0,0.2,0.1,0.2,0.2v1.9C50.4,216.9,50.3,216.9,50.2,216.9z"/>
<path class="st6" d="M50.7,199.1c-0.2-0.1-0.3,0-0.4,0.1l-12.6,12.8c-0.1,0.1-0.2,0.3-0.1,0.5c0.1,0.2,0.2,0.3,0.4,0.3h12.6
	c0.2,0,0.4-0.2,0.4-0.4v-12.8C51,199.3,50.9,199.2,50.7,199.1z M49.1,211.8h-0.5h-1h-0.5H39l11.1-11.2c0,0,0.1,0,0.1,0.1v11.2H49.1z
	"/>
<path class="st6" d="M48.5,204.6c-0.2-0.1-0.3,0-0.4,0.1l-4.1,4.1c-0.1,0.1-0.1,0.3-0.1,0.5c0.1,0.2,0.2,0.3,0.4,0.3h4.1
	c0.2,0,0.4-0.2,0.4-0.4V205C48.8,204.8,48.7,204.6,48.5,204.6z M48.2,208.8C48.2,208.8,48.1,208.9,48.2,208.8l-3.1,0.1
	c-0.1,0-0.1-0.1-0.1-0.2l3-3.1c0.1-0.1,0.2,0,0.2,0.1V208.8z"/>
<path class="st6" d="M41.7,210.9c-0.1,0-0.2,0.1-0.2,0.2v0.7h0.5v-0.7C41.9,211,41.8,210.9,41.7,210.9z"/>
<path class="st6" d="M43.1,210.9c-0.1,0-0.2,0.1-0.2,0.2v0.7h0.5v-0.7C43.4,211,43.3,210.9,43.1,210.9z"/>
<path class="st6" d="M44.6,210.9c-0.1,0-0.2,0.1-0.2,0.2v0.7h0.5v-0.7C44.8,211,44.7,210.9,44.6,210.9z"/>
<path class="st6" d="M46,210.9c-0.1,0-0.2,0.1-0.2,0.2v0.7h0.5v-0.7C46.2,211,46.1,210.9,46,210.9z"/>
<path class="st6" d="M47.4,210.9c-0.1,0-0.2,0.1-0.2,0.2l0,0.7h0.5l0-0.7C47.7,211,47.6,210.9,47.4,210.9z"/>
<path class="st6" d="M48.9,210.9c-0.1,0-0.2,0.1-0.2,0.2l0,0.7h0.5l0-0.7C49.1,211,49,210.9,48.9,210.9z"/>
<g>
	
		<radialGradient id="SVGID_4_" cx="-251.8688" cy="592.158" r="1" gradientTransform="matrix(7.827759e-16 12.7837 14.0411 -8.597694e-16 -8278.0898 3480.4373)" gradientUnits="userSpaceOnUse">
		<stop  offset="0" style="stop-color:#434F58"/>
		<stop  offset="1" style="stop-color:#434F58;stop-opacity:0"/>
	</radialGradient>
	<path class="st7" d="M22.4,273.4v-25.6h28.1v25.6H22.4z"/>
</g>
<path class="st6" d="M25.1,265.6c0,0.3,0.2,0.5,0.5,0.5h0c0.3,0,0.5-0.2,0.5-0.5v-0.5c0-0.3-0.2-0.5-0.5-0.5c-0.3,0-0.5,0.2-0.5,0.5
	V265.6z"/>
<path class="st6" d="M28.6,255.8c0.3,0,0.5-0.2,0.5-0.5v0c0-0.3-0.2-0.5-0.5-0.5H28c-0.3,0-0.5,0.2-0.5,0.5v0c0,0.3,0.2,0.5,0.5,0.5
	L28.6,255.8L28.6,255.8z"/>
<path class="st6" d="M25.1,262.6c0,0.3,0.2,0.5,0.5,0.5h0c0.3,0,0.5-0.2,0.5-0.5v-0.5c0-0.3-0.2-0.5-0.5-0.5h0
	c-0.3,0-0.5,0.2-0.5,0.5V262.6z"/>
<path class="st6" d="M25.1,259.6c0,0.3,0.2,0.5,0.5,0.5h0c0.3,0,0.5-0.2,0.5-0.5v-0.5c0-0.3-0.2-0.5-0.5-0.5h0
	c-0.3,0-0.5,0.2-0.5,0.5V259.6z"/>
<path class="st6" d="M30,267.6h-0.5c-0.3,0-0.5,0.2-0.5,0.5v0c0,0.3,0.2,0.5,0.5,0.5H30c0.3,0,0.5-0.2,0.5-0.5v0
	C30.4,267.8,30.2,267.6,30,267.6z"/>
<path class="st6" d="M26.3,255.8c-0.2-0.2-0.6-0.2-0.7,0.1c-0.1,0.2-0.2,0.4-0.3,0.6c-0.1,0.3,0.1,0.6,0.4,0.6h0
	c0.2,0,0.4-0.1,0.5-0.3c0-0.1,0.1-0.2,0.2-0.3C26.4,256.2,26.4,256,26.3,255.8L26.3,255.8z"/>
<path class="st6" d="M45.6,256.1c0.2,0.1,0.4,0.1,0.6-0.1l0,0c0.2-0.2,0.2-0.6-0.1-0.8c-0.2-0.1-0.4-0.2-0.6-0.3
	c-0.3-0.1-0.6,0.1-0.6,0.4v0c0,0.2,0.1,0.4,0.3,0.5C45.4,256,45.5,256,45.6,256.1z"/>
<path class="st6" d="M43,255.9c0.3,0,0.5-0.2,0.5-0.5c0-0.3-0.2-0.5-0.5-0.5h-0.5c-0.3,0-0.5,0.2-0.5,0.5c0,0.3,0.2,0.5,0.5,0.5H43z
	"/>
<path class="st6" d="M40,255.9c0.3,0,0.5-0.2,0.5-0.5c0-0.3-0.2-0.5-0.5-0.5h-0.5c-0.3,0-0.5,0.2-0.5,0.5c0,0.3,0.2,0.5,0.5,0.5H40z
	"/>
<path class="st6" d="M32.3,268.6h0.5c0.3,0,0.5-0.2,0.5-0.5s-0.2-0.5-0.5-0.5h-0.5c-0.3,0-0.5,0.2-0.5,0.5S32,268.6,32.3,268.6z"/>
<path class="st6" d="M37.1,255.9c0.3,0,0.5-0.2,0.5-0.5s-0.2-0.5-0.5-0.5h-0.5c-0.3,0-0.5,0.2-0.5,0.5s0.2,0.5,0.5,0.5H37.1z"/>
<path class="st6" d="M31.4,254.8h-0.5c-0.3,0-0.5,0.2-0.5,0.5c0,0.3,0.2,0.5,0.5,0.5h0.5c0.3,0,0.5-0.2,0.5-0.5
	C31.8,255.1,31.6,254.8,31.4,254.8z"/>
<path class="st6" d="M34.2,254.8h-0.5c-0.3,0-0.5,0.2-0.5,0.5s0.2,0.5,0.5,0.5h0.5c0.3,0,0.5-0.2,0.5-0.5
	C34.7,255,34.4,254.8,34.2,254.8z"/>
<path class="st6" d="M35.1,268.5h0.5c0.3,0,0.5-0.2,0.5-0.5s-0.2-0.5-0.5-0.5h-0.5c-0.3,0-0.5,0.2-0.5,0.5S34.8,268.5,35.1,268.5z"
	/>
<path class="st6" d="M26.2,267.8c0.1,0.2,0.3,0.3,0.5,0.4c0.3,0.2,0.6,0,0.7-0.3l0,0c0.1-0.2,0-0.4-0.2-0.6
	c-0.1-0.1-0.2-0.1-0.3-0.2c-0.1-0.2-0.4-0.2-0.6-0.1l0,0C26.1,267.2,26,267.6,26.2,267.8z"/>
<path class="st6" d="M27.5,249.8c0.3,0,0.5-0.2,0.5-0.5c0-0.3-0.2-0.5-0.5-0.5s-0.5,0.2-0.5,0.5C27,249.6,27.2,249.8,27.5,249.8z"/>
<path class="st6" d="M30,249.8c0.3,0,0.5-0.2,0.5-0.5c0-0.3-0.2-0.5-0.5-0.5c-0.3,0-0.5,0.2-0.5,0.5C29.5,249.6,29.7,249.9,30,249.8
	z"/>
<path class="st6" d="M24.9,249.8c0.3,0,0.5-0.2,0.5-0.5c0-0.3-0.2-0.5-0.5-0.5s-0.5,0.2-0.5,0.5C24.4,249.6,24.7,249.8,24.9,249.8z"
	/>
<path class="st6" d="M50.5,247H22.5c-0.3,0-0.5,0.2-0.5,0.5v18.7c0,0.2,0.2,0.5,0.4,0.5c0.3,0,0.5-0.2,0.5-0.5v-14.5h27.1l0,1.7
	c0,0.2,0.2,0.5,0.4,0.5c0,0,0,0,0,0c0.3,0,0.5-0.2,0.5-0.5v-5.9C51,247.2,50.8,247,50.5,247z M32,250.8h-9.1v-2.8H32V250.8z
	 M50.1,250.8H32.9v-2.8h17.1V250.8z"/>
<path class="st6" d="M29.1,272.6h-6.2v-4.5c0-0.2-0.2-0.5-0.4-0.5c-0.3,0-0.5,0.2-0.5,0.5v5c0,0.3,0.2,0.5,0.5,0.5h6.6
	c0.1,0,0.2-0.1,0.3-0.1C29.7,273.1,29.5,272.6,29.1,272.6z"/>
<path class="st6" d="M50.1,270l-14.9,0c-0.3,0-0.5,0.1-0.7,0.4l-2.3,0.9c-0.2,0.1-0.4,0.4-0.4,0.6c0,0.3,0.2,0.5,0.4,0.6l2.3,0.9
	c0.2,0.2,0.4,0.4,0.7,0.4l14.9,0c0.5,0,0.9-0.4,0.9-0.9v-2C51,270.4,50.6,270,50.1,270z M32.6,271.9l1.8-0.7v1.4L32.6,271.9z
	 M35.3,273.1c-0.1,0-0.2-0.1-0.2-0.2l0-0.7l13.2,0l0,0.8c0,0,0,0.1,0,0.1L35.3,273.1z M48.3,270.8l0,0.8l-13.2,0v-0.7
	c0-0.1,0.1-0.2,0.2-0.2L48.3,270.8C48.3,270.8,48.3,270.8,48.3,270.8z M50.2,273l-1.1,0c0,0,0-0.1,0-0.1v-2.1c0,0,0-0.1,0-0.1l1.1,0
	c0.1,0,0.2,0.1,0.2,0.2v1.9C50.4,272.9,50.3,273,50.2,273z"/>
<path class="st6" d="M50.7,255.1c-0.2-0.1-0.3,0-0.4,0.1l-12.6,12.8c-0.1,0.1-0.2,0.3-0.1,0.5c0.1,0.2,0.2,0.3,0.4,0.3h12.6
	c0.2,0,0.4-0.2,0.4-0.4v-12.8C51,255.3,50.9,255.2,50.7,255.1z M49.1,267.8h-0.5h-1h-0.5H39l11.1-11.2c0,0,0.1,0,0.1,0.1v11.2H49.1z
	"/>
<path class="st6" d="M48.5,260.6c-0.2-0.1-0.3,0-0.4,0.1l-4.1,4.1c-0.1,0.1-0.1,0.3-0.1,0.5c0.1,0.2,0.2,0.3,0.4,0.3h4.1
	c0.2,0,0.4-0.2,0.4-0.4V261C48.8,260.8,48.7,260.6,48.5,260.6z M48.2,264.8C48.2,264.8,48.1,264.9,48.2,264.8l-3.1,0.1
	c-0.1,0-0.1-0.1-0.1-0.2l3-3.1c0.1-0.1,0.2,0,0.2,0.1V264.8z"/>
<path class="st6" d="M41.7,266.9c-0.1,0-0.2,0.1-0.2,0.2v0.7h0.5v-0.7C41.9,267,41.8,266.9,41.7,266.9z"/>
<path class="st6" d="M43.1,266.9c-0.1,0-0.2,0.1-0.2,0.2v0.7h0.5v-0.7C43.4,267,43.3,266.9,43.1,266.9z"/>
<path class="st6" d="M44.6,266.9c-0.1,0-0.2,0.1-0.2,0.2v0.7h0.5v-0.7C44.8,267,44.7,266.9,44.6,266.9z"/>
<path class="st6" d="M46,266.9c-0.1,0-0.2,0.1-0.2,0.2v0.7h0.5v-0.7C46.2,267,46.1,266.9,46,266.9z"/>
<path class="st6" d="M47.4,266.9c-0.1,0-0.2,0.1-0.2,0.2l0,0.7h0.5l0-0.7C47.7,267,47.6,266.9,47.4,266.9z"/>
<path class="st6" d="M48.9,266.9c-0.1,0-0.2,0.1-0.2,0.2l0,0.7h0.5l0-0.7C49.1,267,49,266.9,48.9,266.9z"/>
<radialGradient id="SVGID_5_" cx="-251.8688" cy="592.158" r="1" gradientTransform="matrix(7.827759e-16 12.7837 14.0411 -8.597694e-16 -8278.0898 3536.4373)" gradientUnits="userSpaceOnUse">
	<stop  offset="0" style="stop-color:#677983"/>
	<stop  offset="1" style="stop-color:#677983;stop-opacity:0"/>
</radialGradient>
<path class="st8" d="M22.4,329.4v-25.6h28.1v25.6H22.4z"/>
<path class="st9" d="M25.1,321.6c0,0.3,0.2,0.5,0.5,0.5h0c0.3,0,0.5-0.2,0.5-0.5v-0.5c0-0.3-0.2-0.5-0.5-0.5c-0.3,0-0.5,0.2-0.5,0.5
	V321.6z"/>
<path class="st9" d="M28.6,311.8c0.3,0,0.5-0.2,0.5-0.5v0c0-0.3-0.2-0.5-0.5-0.5H28c-0.3,0-0.5,0.2-0.5,0.5v0c0,0.3,0.2,0.5,0.5,0.5
	L28.6,311.8L28.6,311.8z"/>
<path class="st9" d="M25.1,318.6c0,0.3,0.2,0.5,0.5,0.5h0c0.3,0,0.5-0.2,0.5-0.5v-0.5c0-0.3-0.2-0.5-0.5-0.5h0
	c-0.3,0-0.5,0.2-0.5,0.5V318.6z"/>
<path class="st9" d="M25.1,315.6c0,0.3,0.2,0.5,0.5,0.5h0c0.3,0,0.5-0.2,0.5-0.5v-0.5c0-0.3-0.2-0.5-0.5-0.5h0
	c-0.3,0-0.5,0.2-0.5,0.5V315.6z"/>
<path class="st9" d="M30,323.6h-0.5c-0.3,0-0.5,0.2-0.5,0.5v0c0,0.3,0.2,0.5,0.5,0.5H30c0.3,0,0.5-0.2,0.5-0.5v0
	C30.4,323.8,30.2,323.6,30,323.6z"/>
<path class="st9" d="M26.3,311.8c-0.2-0.2-0.6-0.2-0.7,0.1c-0.1,0.2-0.2,0.4-0.3,0.6c-0.1,0.3,0.1,0.6,0.4,0.6h0
	c0.2,0,0.4-0.1,0.5-0.3c0-0.1,0.1-0.2,0.2-0.3C26.4,312.2,26.4,312,26.3,311.8L26.3,311.8z"/>
<path class="st9" d="M45.6,312.1c0.2,0.1,0.4,0.1,0.6-0.1l0,0c0.2-0.2,0.2-0.6-0.1-0.8c-0.2-0.1-0.4-0.2-0.6-0.3
	c-0.3-0.1-0.6,0.1-0.6,0.4v0c0,0.2,0.1,0.4,0.3,0.5C45.4,312,45.5,312,45.6,312.1z"/>
<path class="st9" d="M43,311.9c0.3,0,0.5-0.2,0.5-0.5c0-0.3-0.2-0.5-0.5-0.5h-0.5c-0.3,0-0.5,0.2-0.5,0.5c0,0.3,0.2,0.5,0.5,0.5H43z
	"/>
<path class="st9" d="M40,311.9c0.3,0,0.5-0.2,0.5-0.5c0-0.3-0.2-0.5-0.5-0.5h-0.5c-0.3,0-0.5,0.2-0.5,0.5c0,0.3,0.2,0.5,0.5,0.5H40z
	"/>
<path class="st9" d="M32.3,324.6h0.5c0.3,0,0.5-0.2,0.5-0.5s-0.2-0.5-0.5-0.5h-0.5c-0.3,0-0.5,0.2-0.5,0.5S32,324.6,32.3,324.6z"/>
<path class="st9" d="M37.1,311.9c0.3,0,0.5-0.2,0.5-0.5s-0.2-0.5-0.5-0.5h-0.5c-0.3,0-0.5,0.2-0.5,0.5s0.2,0.5,0.5,0.5H37.1z"/>
<path class="st9" d="M31.4,310.8h-0.5c-0.3,0-0.5,0.2-0.5,0.5c0,0.3,0.2,0.5,0.5,0.5h0.5c0.3,0,0.5-0.2,0.5-0.5
	C31.8,311.1,31.6,310.8,31.4,310.8z"/>
<path class="st9" d="M34.2,310.8h-0.5c-0.3,0-0.5,0.2-0.5,0.5s0.2,0.5,0.5,0.5h0.5c0.3,0,0.5-0.2,0.5-0.5
	C34.7,311,34.4,310.8,34.2,310.8z"/>
<path class="st9" d="M35.1,324.5h0.5c0.3,0,0.5-0.2,0.5-0.5s-0.2-0.5-0.5-0.5h-0.5c-0.3,0-0.5,0.2-0.5,0.5S34.8,324.5,35.1,324.5z"
	/>
<path class="st9" d="M26.2,323.8c0.1,0.2,0.3,0.3,0.5,0.4c0.3,0.2,0.6,0,0.7-0.3l0,0c0.1-0.2,0-0.4-0.2-0.6
	c-0.1-0.1-0.2-0.1-0.3-0.2c-0.1-0.2-0.4-0.2-0.6-0.1l0,0C26.1,323.2,26,323.6,26.2,323.8z"/>
<path class="st9" d="M27.5,305.8c0.3,0,0.5-0.2,0.5-0.5c0-0.3-0.2-0.5-0.5-0.5s-0.5,0.2-0.5,0.5C27,305.6,27.2,305.8,27.5,305.8z"/>
<path class="st9" d="M30,305.8c0.3,0,0.5-0.2,0.5-0.5c0-0.3-0.2-0.5-0.5-0.5c-0.3,0-0.5,0.2-0.5,0.5C29.5,305.6,29.7,305.9,30,305.8
	z"/>
<path class="st9" d="M24.9,305.8c0.3,0,0.5-0.2,0.5-0.5c0-0.3-0.2-0.5-0.5-0.5s-0.5,0.2-0.5,0.5C24.4,305.6,24.7,305.8,24.9,305.8z"
	/>
<path class="st9" d="M50.5,303H22.5c-0.3,0-0.5,0.2-0.5,0.5v18.7c0,0.2,0.2,0.5,0.4,0.5c0.3,0,0.5-0.2,0.5-0.5v-14.5h27.1l0,1.7
	c0,0.2,0.2,0.5,0.4,0.5c0,0,0,0,0,0c0.3,0,0.5-0.2,0.5-0.5v-5.9C51,303.2,50.8,303,50.5,303z M32,306.8h-9.1v-2.8H32V306.8z
	 M50.1,306.8H32.9v-2.8h17.1V306.8z"/>
<path class="st9" d="M29.1,328.6h-6.2v-4.5c0-0.2-0.2-0.5-0.4-0.5c-0.3,0-0.5,0.2-0.5,0.5v5c0,0.3,0.2,0.5,0.5,0.5h6.6
	c0.1,0,0.2-0.1,0.3-0.1C29.7,329.1,29.5,328.6,29.1,328.6z"/>
<path class="st9" d="M50.1,326l-14.9,0c-0.3,0-0.5,0.1-0.7,0.4l-2.3,0.9c-0.2,0.1-0.4,0.4-0.4,0.6c0,0.3,0.2,0.5,0.4,0.6l2.3,0.9
	c0.2,0.2,0.4,0.4,0.7,0.4l14.9,0c0.5,0,0.9-0.4,0.9-0.9v-2C51,326.4,50.6,326,50.1,326z M32.6,327.9l1.8-0.7v1.4L32.6,327.9z
	 M35.3,329.1c-0.1,0-0.2-0.1-0.2-0.2l0-0.7l13.2,0l0,0.8c0,0,0,0.1,0,0.1L35.3,329.1z M48.3,326.8l0,0.8l-13.2,0v-0.7
	c0-0.1,0.1-0.2,0.2-0.2L48.3,326.8C48.3,326.8,48.3,326.8,48.3,326.8z M50.2,329l-1.1,0c0,0,0-0.1,0-0.1v-2.1c0,0,0-0.1,0-0.1l1.1,0
	c0.1,0,0.2,0.1,0.2,0.2v1.9C50.4,328.9,50.3,329,50.2,329z"/>
<path class="st9" d="M50.7,311.1c-0.2-0.1-0.3,0-0.4,0.1l-12.6,12.8c-0.1,0.1-0.2,0.3-0.1,0.5c0.1,0.2,0.2,0.3,0.4,0.3h12.6
	c0.2,0,0.4-0.2,0.4-0.4v-12.8C51,311.3,50.9,311.2,50.7,311.1z M49.1,323.8h-0.5h-1h-0.5H39l11.1-11.2c0,0,0.1,0,0.1,0.1v11.2H49.1z
	"/>
<path class="st9" d="M48.5,316.6c-0.2-0.1-0.3,0-0.4,0.1l-4.1,4.1c-0.1,0.1-0.1,0.3-0.1,0.5c0.1,0.2,0.2,0.3,0.4,0.3h4.1
	c0.2,0,0.4-0.2,0.4-0.4V317C48.8,316.8,48.7,316.6,48.5,316.6z M48.2,320.8C48.2,320.8,48.1,320.9,48.2,320.8l-3.1,0.1
	c-0.1,0-0.1-0.1-0.1-0.2l3-3.1c0.1-0.1,0.2,0,0.2,0.1V320.8z"/>
<path class="st9" d="M41.7,322.9c-0.1,0-0.2,0.1-0.2,0.2v0.7h0.5v-0.7C41.9,323,41.8,322.9,41.7,322.9z"/>
<path class="st9" d="M43.1,322.9c-0.1,0-0.2,0.1-0.2,0.2v0.7h0.5v-0.7C43.4,323,43.3,322.9,43.1,322.9z"/>
<path class="st9" d="M44.6,322.9c-0.1,0-0.2,0.1-0.2,0.2v0.7h0.5v-0.7C44.8,323,44.7,322.9,44.6,322.9z"/>
<path class="st9" d="M46,322.9c-0.1,0-0.2,0.1-0.2,0.2v0.7h0.5v-0.7C46.2,323,46.1,322.9,46,322.9z"/>
<path class="st9" d="M47.4,322.9c-0.1,0-0.2,0.1-0.2,0.2l0,0.7h0.5l0-0.7C47.7,323,47.6,322.9,47.4,322.9z"/>
<path class="st9" d="M48.9,322.9c-0.1,0-0.2,0.1-0.2,0.2l0,0.7h0.5l0-0.7C49.1,323,49,322.9,48.9,322.9z"/>
</svg>
