<?xml version="1.0" encoding="utf-8"?>
<!-- Generator: Adobe Illustrator 25.2.1, SVG Export Plug-In . SVG Version: 6.00 Build 0)  -->
<svg version="1.1" id="Layer_1" xmlns="http://www.w3.org/2000/svg" xmlns:xlink="http://www.w3.org/1999/xlink" x="0px" y="0px"
	 viewBox="0 0 72 352" style="enable-background:new 0 0 72 352;" xml:space="preserve">
<style type="text/css">
	.st0{fill:url(#SVGID_1_);fill-opacity:0.25;}
	.st1{fill:#0073EC;}
	.st2{fill-rule:evenodd;clip-rule:evenodd;fill:#0073EC;}
	.st3{fill:url(#SVGID_2_);fill-opacity:0.25;}
	.st4{fill:#A644E5;}
	.st5{fill-rule:evenodd;clip-rule:evenodd;fill:#A644E5;}
	.st6{fill:url(#SVGID_3_);fill-opacity:0.25;}
	.st7{fill:#00CAAA;}
	.st8{fill-rule:evenodd;clip-rule:evenodd;fill:#00CAAA;}
	.st9{fill:#434F58;}
	.st10{fill-rule:evenodd;clip-rule:evenodd;fill:#434F58;}
	.st11{fill:url(#SVGID_4_);fill-opacity:0.25;}
	.st12{fill:url(#SVGID_5_);fill-opacity:0.25;}
	.st13{fill:#677983;}
	.st14{fill-rule:evenodd;clip-rule:evenodd;fill:#677983;}
</style>
<radialGradient id="SVGID_1_" cx="-253.2939" cy="592.9259" r="1" gradientTransform="matrix(8.537993e-16 13.9436 13.5 -8.266366e-16 -7968 3567.772)" gradientUnits="userSpaceOnUse">
	<stop  offset="0" style="stop-color:#0073EC"/>
	<stop  offset="1" style="stop-color:#0073EC;stop-opacity:0"/>
</radialGradient>
<path class="st0" d="M38.3,22.1c5.5,0.8,9.8,5.5,10.1,11.2h0.4c0.3,0,0.6,0.1,0.8,0.3c0.2,0.2,0.3,0.5,0.3,0.8v5.5
	c0,0.1,0,0.2,0,0.2v2.6c0,0.1,0,0.2,0,0.2v5.5c0,0.3-0.1,0.6-0.4,0.8c-0.2,0.2-0.5,0.3-0.8,0.4H24.2c-0.3,0-0.6-0.1-0.8-0.4
	C23.1,49.3,23,49,23,48.7V34.6c0-0.3,0.1-0.6,0.4-0.8c0.2-0.2,0.5-0.3,0.8-0.4h0.4c0.3-5.7,4.5-10.4,10.1-11.2
	C35.3,22,37,21.9,38.3,22.1z"/>
<path class="st1" d="M42.5,37c0.2-0.4,0.7-0.6,1.1-0.4c0.4,0.2,0.6,0.7,0.4,1.1c-0.2,0.4-0.7,0.6-1.1,0.4
	C42.5,37.9,42.3,37.4,42.5,37z"/>
<path class="st1" d="M46.2,38.1c0.5,0,0.8-0.4,0.8-0.8c0-0.5-0.4-0.8-0.8-0.8c-0.5,0-0.8,0.4-0.8,0.8C45.4,37.7,45.8,38.1,46.2,38.1
	z"/>
<path class="st1" d="M39.8,36.5c0.1,0,0.2,0,0.3-0.1c0.2,0,0.4,0.1,0.5,0.2c0.1,0.1,0.2,0.3,0.3,0.5c0,0.2,0,0.4-0.2,0.6
	c-0.1,0.2-0.3,0.3-0.5,0.3s-0.4,0-0.6-0.1c-0.2-0.1-0.3-0.3-0.4-0.5c-0.1-0.2,0-0.4,0-0.6C39.5,36.7,39.6,36.6,39.8,36.5z"/>
<path class="st2" d="M48.8,33.3h-0.4c-0.3-6-5-10.9-11-11.3c0,0-0.1,0-0.1,0c0,0-0.1,0-0.1,0.1c0,0-0.1,0.1-0.1,0.1c0,0,0,0.1,0,0.1
	c0,0,0,0.1,0,0.1c0,0,0,0.1,0.1,0.1c0,0,0.1,0.1,0.1,0.1c0,0,0.1,0,0.1,0c2.7,0.2,5.3,1.4,7.2,3.3c1.9,2,3,4.6,3.2,7.3h-0.6
	c-0.2-2.7-1.3-5.2-3.3-7.1c-2-1.9-4.6-2.9-7.3-2.9c-2.7,0-5.3,1-7.3,2.9c-2,1.9-3.1,4.4-3.3,7.1h-0.6c0.1-2.7,1.3-5.3,3.2-7.3
	c1.9-2,4.5-3.1,7.2-3.3c0,0,0.1,0,0.1,0c0,0,0.1,0,0.1-0.1c0,0,0.1-0.1,0.1-0.1c0,0,0-0.1,0-0.1c0,0,0-0.1,0-0.1c0,0,0-0.1-0.1-0.1
	S35.8,22,35.8,22c0,0-0.1,0-0.1,0c-6,0.4-10.8,5.3-11.1,11.3h-0.4c-0.3,0-0.6,0.1-0.8,0.4c-0.2,0.2-0.3,0.5-0.4,0.8V40
	c0,0.3,0.1,0.6,0.4,0.8c0.2,0.2,0.5,0.3,0.8,0.4h24.6c0.3,0,0.6-0.1,0.8-0.4c0.2-0.2,0.3-0.5,0.4-0.8v-5.5c0-0.3-0.1-0.6-0.3-0.8
	C49.4,33.5,49.1,33.3,48.8,33.3z M27.8,29.2l0.6,0.3c0.1,0,0.2,0.1,0.3,0c0.1,0,0.2-0.1,0.2-0.2c0-0.1,0.1-0.2,0-0.3
	c0-0.1-0.1-0.2-0.2-0.2l-0.6-0.3c0.8-1.3,1.9-2.3,3.1-3.1l0.3,0.6c0,0,0.1,0.1,0.1,0.1c0,0,0.1,0.1,0.1,0.1c0,0,0.1,0,0.1,0
	c0,0,0.1,0,0.1,0c0,0,0.1-0.1,0.1-0.1c0,0,0-0.1,0.1-0.1c0,0,0-0.1,0-0.1c0,0,0-0.1,0-0.1l-0.3-0.6c1.3-0.7,2.8-1.1,4.3-1.1v0.7
	c0,0.1,0,0.2,0.1,0.2c0.1,0.1,0.2,0.1,0.2,0.1c0.1,0,0.2,0,0.2-0.1c0.1-0.1,0.1-0.2,0.1-0.2V24c1.5,0,3,0.4,4.3,1.1l-0.3,0.6
	c0,0,0,0.1,0,0.1c0,0,0,0.1,0,0.1c0,0,0,0.1,0.1,0.1s0.1,0.1,0.1,0.1c0,0,0.1,0,0.1,0c0,0,0.1,0,0.1,0s0.1,0,0.1-0.1
	c0,0,0.1-0.1,0.1-0.1l0.3-0.6c1.3,0.8,2.3,1.9,3.1,3.1L44.3,29c-0.1,0-0.1,0.1-0.2,0.2c0,0.1,0,0.2,0,0.3s0.1,0.1,0.2,0.2
	c0.1,0,0.2,0,0.3,0l0.6-0.3c0.7,1.3,1.1,2.8,1.2,4.3h-4.5c0-0.7-0.2-1.4-0.6-2.1c-0.3-0.6-0.8-1.2-1.3-1.7l0.6-1
	c0.1-0.1,0.1-0.2,0.1-0.4c0-0.1,0-0.3,0-0.4c0-0.1-0.1-0.2-0.2-0.3c-0.1-0.1-0.2-0.2-0.3-0.2c-0.2-0.1-0.5-0.1-0.7-0.1
	c-0.2,0.1-0.4,0.2-0.6,0.4l-0.6,1c-0.6-0.2-1.2-0.3-1.8-0.3c-1.4,0-2.7,0.5-3.6,1.4c-1,0.9-1.6,2.2-1.7,3.5h-4.5l0,0
	C26.7,32,27.1,30.6,27.8,29.2z M39.1,34.1c-0.1,0.6-0.4,1.2-0.9,1.7c-0.5,0.4-1.1,0.7-1.8,0.7s-1.3-0.2-1.8-0.7
	c-0.5-0.4-0.8-1-0.9-1.7c0-0.2-0.1-0.3-0.2-0.4c-0.1-0.1-0.3-0.2-0.5-0.2h-1.3c0.1-0.7,0.3-1.4,0.6-2s0.8-1.1,1.4-1.5
	c0.6-0.4,1.3-0.6,1.9-0.7c0.7-0.1,1.4,0,2.1,0.2L36.5,32c-0.5,0-1,0.2-1.3,0.5c-0.3,0.3-0.5,0.8-0.5,1.3c0,0.5,0.2,1,0.5,1.3
	c0.3,0.3,0.8,0.5,1.3,0.5c0.3,0,0.6-0.1,0.9-0.2c0.3-0.1,0.5-0.4,0.7-0.6c0,0,0-0.1,0.1-0.1c0,0,0-0.1,0-0.1c0,0,0-0.1-0.1-0.1
	c0,0-0.1-0.1-0.1-0.1s-0.1,0-0.1-0.1c0,0-0.1,0-0.1,0c0,0-0.1,0-0.1,0.1c0,0-0.1,0.1-0.1,0.1c-0.1,0.2-0.3,0.4-0.6,0.4
	c-0.2,0.1-0.5,0.1-0.7,0c-0.2-0.1-0.4-0.2-0.6-0.4s-0.2-0.4-0.2-0.7c0-0.2,0.1-0.5,0.2-0.7c0.1-0.2,0.4-0.3,0.6-0.4
	c0.2-0.1,0.5-0.1,0.7,0c0.2,0.1,0.4,0.2,0.6,0.4c0,0.1,0.1,0.1,0.2,0.1c0.1,0,0.2,0,0.2,0c0.1,0,0.1-0.1,0.2-0.2s0.1-0.2,0-0.2
	l1.5-2.6c0.9,0.8,1.5,1.9,1.5,3.1h-1.4c-0.2,0-0.3,0.1-0.5,0.2C39.2,33.8,39.1,34,39.1,34.1z M39.5,28.2c0-0.1,0.1-0.1,0.1-0.1
	c0.1,0,0.1,0,0.2,0c0,0,0.1,0,0.1,0.1c0,0,0,0.1,0,0.1c0,0,0,0.1,0,0.1c0,0,0,0.1,0,0.1l-0.7,1.3c0,0.1-0.2,0.3-0.3,0.5l0,0
	c-0.4,0.7-1.1,1.9-1.3,2.2c-0.1-0.1-0.3-0.2-0.4-0.2L39.5,28.2z M49.1,40.1c0,0.1,0,0.2-0.1,0.2c-0.1,0.1-0.1,0.1-0.2,0.1H24.2
	c-0.1,0-0.2,0-0.2-0.1c-0.1-0.1-0.1-0.1-0.1-0.2v-5.5c0,0,0-0.1,0-0.1c0,0,0-0.1,0.1-0.1c0,0,0.1,0,0.1-0.1c0,0,0.1,0,0.1,0h3.3l0,0
	h5.7c0,0.1,0,0.2,0,0.3c0.2,0.8,0.6,1.5,1.2,2c0.6,0.5,1.4,0.7,2.2,0.7c0.8,0,1.6-0.4,2.1-0.9c0.6-0.5,0.9-1.3,1-2.1h5.7l0,0h3.3
	c0.1,0,0.2,0,0.2,0.1c0.1,0.1,0.1,0.1,0.1,0.2L49.1,40.1z"/>
<path class="st1" d="M47,45.7c0.1,0.4-0.2,0.9-0.6,1c-0.4,0.1-0.9-0.2-1-0.6c-0.1-0.4,0.2-0.9,0.6-1C46.5,45,46.9,45.3,47,45.7z"/>
<path class="st1" d="M40.9,45.9c0,0.5-0.4,0.8-0.8,0.8c-0.5,0-0.8-0.4-0.8-0.8c0-0.5,0.4-0.8,0.8-0.8C40.6,45.1,40.9,45.4,40.9,45.9
	z"/>
<path class="st1" d="M43.8,45.3c0.3,0.3,0.3,0.8,0,1.2c-0.3,0.3-0.8,0.3-1.2,0c-0.3-0.3-0.3-0.8,0-1.2C43,45,43.5,45,43.8,45.3z"/>
<path class="st2" d="M48.8,41.9H24.2c-0.3,0-0.6,0.1-0.8,0.4c-0.2,0.2-0.3,0.5-0.4,0.8v5.5c0,0.3,0.1,0.6,0.4,0.8
	c0.2,0.2,0.5,0.3,0.8,0.4h24.6c0.3,0,0.6-0.1,0.8-0.4c0.2-0.2,0.3-0.5,0.4-0.8v-5.5c0-0.3-0.1-0.6-0.4-0.8
	C49.4,42.1,49.1,41.9,48.8,41.9z M49.1,48.7c0,0.1,0,0.2-0.1,0.2C49,48.9,48.9,49,48.8,49H24.2c-0.1,0-0.2,0-0.2-0.1
	c-0.1-0.1-0.1-0.1-0.1-0.2v-5.5c0,0,0-0.1,0-0.1c0,0,0-0.1,0.1-0.1c0,0,0.1,0,0.1-0.1c0,0,0.1,0,0.1,0h24.6c0.1,0,0.2,0,0.2,0.1
	c0.1,0.1,0.1,0.1,0.1,0.2L49.1,48.7z"/>
<g>
	
		<radialGradient id="SVGID_2_" cx="-253.2939" cy="592.9259" r="1" gradientTransform="matrix(8.537993e-16 13.9436 13.5 -8.266366e-16 -7968 3623.772)" gradientUnits="userSpaceOnUse">
		<stop  offset="0" style="stop-color:#A644E5"/>
		<stop  offset="1" style="stop-color:#A644E5;stop-opacity:0"/>
	</radialGradient>
	<path class="st3" d="M38.3,78.1c5.5,0.8,9.8,5.5,10.1,11.2h0.4c0.3,0,0.6,0.1,0.8,0.3c0.2,0.2,0.3,0.5,0.3,0.8v5.5
		c0,0.1,0,0.2,0,0.2v2.6c0,0.1,0,0.2,0,0.2v5.5c0,0.3-0.1,0.6-0.4,0.8c-0.2,0.2-0.5,0.3-0.8,0.3H24.2c-0.3,0-0.6-0.1-0.8-0.4
		c-0.2-0.2-0.3-0.5-0.4-0.8V90.6c0-0.3,0.1-0.6,0.4-0.8c0.2-0.2,0.5-0.3,0.8-0.4h0.4c0.3-5.7,4.5-10.4,10.1-11.2
		C35.3,78,37,77.9,38.3,78.1z"/>
</g>
<path class="st4" d="M42.5,93c0.2-0.4,0.7-0.6,1.1-0.4c0.4,0.2,0.6,0.7,0.4,1.1c-0.2,0.4-0.7,0.6-1.1,0.4
	C42.5,93.9,42.3,93.4,42.5,93z"/>
<path class="st4" d="M46.2,94.1c0.5,0,0.8-0.4,0.8-0.8c0-0.5-0.4-0.8-0.8-0.8c-0.5,0-0.8,0.4-0.8,0.8C45.4,93.7,45.8,94.1,46.2,94.1
	z"/>
<path class="st4" d="M39.8,92.5c0.1,0,0.2,0,0.3-0.1c0.2,0,0.4,0.1,0.5,0.2c0.1,0.1,0.2,0.3,0.3,0.5c0,0.2,0,0.4-0.2,0.6
	c-0.1,0.2-0.3,0.3-0.5,0.3c-0.2,0-0.4,0-0.6-0.1c-0.2-0.1-0.3-0.3-0.4-0.5c-0.1-0.2,0-0.4,0-0.6C39.5,92.7,39.6,92.6,39.8,92.5z"/>
<path class="st5" d="M48.8,89.3h-0.4c-0.3-6-5-10.9-11-11.3c0,0-0.1,0-0.1,0c0,0-0.1,0-0.1,0.1c0,0-0.1,0.1-0.1,0.1c0,0,0,0.1,0,0.1
	c0,0,0,0.1,0,0.1c0,0,0,0.1,0.1,0.1c0,0,0.1,0.1,0.1,0.1c0,0,0.1,0,0.1,0c2.7,0.2,5.3,1.4,7.2,3.3c1.9,2,3,4.6,3.2,7.3h-0.6
	c-0.2-2.7-1.3-5.2-3.3-7.1c-2-1.9-4.6-2.9-7.3-2.9c-2.7,0-5.3,1-7.3,2.9c-2,1.9-3.1,4.4-3.3,7.1h-0.6c0.1-2.7,1.3-5.3,3.2-7.3
	c1.9-2,4.5-3.1,7.2-3.3c0,0,0.1,0,0.1,0c0,0,0.1,0,0.1-0.1c0,0,0.1-0.1,0.1-0.1c0,0,0-0.1,0-0.1c0,0,0-0.1,0-0.1c0,0,0-0.1-0.1-0.1
	c0,0-0.1-0.1-0.1-0.1c0,0-0.1,0-0.1,0c-6,0.4-10.8,5.3-11.1,11.3h-0.4c-0.3,0-0.6,0.1-0.8,0.4c-0.2,0.2-0.3,0.5-0.4,0.8V96
	c0,0.3,0.1,0.6,0.4,0.8c0.2,0.2,0.5,0.3,0.8,0.4h24.6c0.3,0,0.6-0.1,0.8-0.4c0.2-0.2,0.3-0.5,0.4-0.8v-5.5c0-0.3-0.1-0.6-0.3-0.8
	C49.4,89.5,49.1,89.3,48.8,89.3z M27.8,85.2l0.6,0.3c0.1,0,0.2,0.1,0.3,0c0.1,0,0.2-0.1,0.2-0.2c0-0.1,0.1-0.2,0-0.3
	c0-0.1-0.1-0.2-0.2-0.2l-0.6-0.3c0.8-1.3,1.9-2.3,3.1-3.1l0.3,0.6c0,0,0.1,0.1,0.1,0.1c0,0,0.1,0.1,0.1,0.1c0,0,0.1,0,0.1,0
	c0,0,0.1,0,0.1,0c0,0,0.1-0.1,0.1-0.1c0,0,0-0.1,0.1-0.1c0,0,0-0.1,0-0.1c0,0,0-0.1,0-0.1l-0.3-0.6c1.3-0.7,2.8-1.1,4.3-1.1v0.7
	c0,0.1,0,0.2,0.1,0.2c0.1,0.1,0.2,0.1,0.2,0.1c0.1,0,0.2,0,0.2-0.1c0.1-0.1,0.1-0.2,0.1-0.2V80c1.5,0,3,0.4,4.3,1.1l-0.3,0.6
	c0,0,0,0.1,0,0.1c0,0,0,0.1,0,0.1c0,0,0,0.1,0.1,0.1s0.1,0.1,0.1,0.1c0,0,0.1,0,0.1,0c0,0,0.1,0,0.1,0c0,0,0.1,0,0.1-0.1
	s0.1-0.1,0.1-0.1l0.3-0.6c1.3,0.8,2.3,1.9,3.1,3.1L44.3,85c-0.1,0-0.1,0.1-0.2,0.2c0,0.1,0,0.2,0,0.3s0.1,0.1,0.2,0.2
	c0.1,0,0.2,0,0.3,0l0.6-0.3c0.7,1.3,1.1,2.8,1.2,4.3h-4.5c0-0.7-0.2-1.4-0.6-2.1s-0.8-1.2-1.3-1.7l0.6-1c0.1-0.1,0.1-0.2,0.1-0.4
	c0-0.1,0-0.3,0-0.4c0-0.1-0.1-0.2-0.2-0.3c-0.1-0.1-0.2-0.2-0.3-0.2c-0.2-0.1-0.5-0.1-0.7-0.1c-0.2,0.1-0.4,0.2-0.6,0.4l-0.6,1
	c-0.6-0.2-1.2-0.3-1.8-0.3c-1.4,0-2.7,0.5-3.6,1.4c-1,0.9-1.6,2.2-1.7,3.5h-4.5l0,0C26.7,88,27.1,86.6,27.8,85.2z M39.1,90.1
	c-0.1,0.6-0.4,1.2-0.9,1.7c-0.5,0.4-1.1,0.7-1.8,0.7s-1.3-0.2-1.8-0.7c-0.5-0.4-0.8-1-0.9-1.7c0-0.2-0.1-0.3-0.2-0.4
	c-0.1-0.1-0.3-0.2-0.5-0.2h-1.3c0.1-0.7,0.3-1.4,0.6-2c0.4-0.6,0.8-1.1,1.4-1.5c0.6-0.4,1.3-0.6,1.9-0.7c0.7-0.1,1.4,0,2.1,0.2
	L36.5,88c-0.5,0-1,0.2-1.3,0.5c-0.3,0.3-0.5,0.8-0.5,1.3c0,0.5,0.2,1,0.5,1.3c0.3,0.3,0.8,0.5,1.3,0.5c0.3,0,0.6-0.1,0.9-0.2
	c0.3-0.1,0.5-0.4,0.7-0.6c0,0,0-0.1,0.1-0.1c0,0,0-0.1,0-0.1c0,0,0-0.1-0.1-0.1c0,0-0.1-0.1-0.1-0.1c0,0-0.1,0-0.1-0.1
	c0,0-0.1,0-0.1,0c0,0-0.1,0-0.1,0.1c0,0-0.1,0.1-0.1,0.1c-0.1,0.2-0.3,0.4-0.6,0.4c-0.2,0.1-0.5,0.1-0.7,0c-0.2-0.1-0.4-0.2-0.6-0.4
	c-0.1-0.2-0.2-0.4-0.2-0.7s0.1-0.5,0.2-0.7c0.1-0.2,0.4-0.3,0.6-0.4c0.2-0.1,0.5-0.1,0.7,0c0.2,0.1,0.4,0.2,0.6,0.4
	c0,0.1,0.1,0.1,0.2,0.1c0.1,0,0.2,0,0.2,0c0.1,0,0.1-0.1,0.2-0.2c0-0.1,0.1-0.2,0-0.2l1.5-2.6c0.9,0.8,1.5,1.9,1.5,3.1h-1.4
	c-0.2,0-0.3,0.1-0.5,0.2C39.2,89.8,39.1,90,39.1,90.1z M39.5,84.2c0-0.1,0.1-0.1,0.1-0.1c0.1,0,0.1,0,0.2,0c0,0,0.1,0,0.1,0.1
	c0,0,0,0.1,0,0.1c0,0,0,0.1,0,0.1c0,0,0,0.1,0,0.1l-0.7,1.3c0,0.1-0.2,0.3-0.3,0.5l0,0c-0.4,0.7-1.1,1.9-1.3,2.2
	c-0.1-0.1-0.3-0.2-0.4-0.2L39.5,84.2z M49.1,96.1c0,0.1,0,0.2-0.1,0.2c-0.1,0.1-0.1,0.1-0.2,0.1H24.2c-0.1,0-0.2,0-0.2-0.1
	c-0.1-0.1-0.1-0.1-0.1-0.2v-5.5c0,0,0-0.1,0-0.1c0,0,0-0.1,0.1-0.1c0,0,0.1,0,0.1-0.1c0,0,0.1,0,0.1,0h3.3l0,0h5.7
	c0,0.1,0,0.2,0,0.3c0.2,0.8,0.6,1.5,1.2,2c0.6,0.5,1.4,0.7,2.2,0.7c0.8,0,1.6-0.4,2.1-0.9c0.6-0.5,0.9-1.3,1-2.1h5.7l0,0h3.3
	c0.1,0,0.2,0,0.2,0.1c0.1,0.1,0.1,0.1,0.1,0.2L49.1,96.1z"/>
<path class="st4" d="M47,101.7c0.1,0.4-0.2,0.9-0.6,1c-0.4,0.1-0.9-0.2-1-0.6c-0.1-0.4,0.2-0.9,0.6-1C46.5,101,46.9,101.3,47,101.7z
	"/>
<path class="st4" d="M40.9,101.9c0,0.5-0.4,0.8-0.8,0.8c-0.5,0-0.8-0.4-0.8-0.8c0-0.5,0.4-0.8,0.8-0.8
	C40.6,101.1,40.9,101.4,40.9,101.9z"/>
<path class="st4" d="M43.8,101.3c0.3,0.3,0.3,0.8,0,1.2c-0.3,0.3-0.8,0.3-1.2,0c-0.3-0.3-0.3-0.8,0-1.2C43,101,43.5,101,43.8,101.3z
	"/>
<path class="st5" d="M48.8,97.9H24.2c-0.3,0-0.6,0.1-0.8,0.4c-0.2,0.2-0.3,0.5-0.4,0.8v5.5c0,0.3,0.1,0.6,0.4,0.8
	c0.2,0.2,0.5,0.3,0.8,0.4h24.6c0.3,0,0.6-0.1,0.8-0.4c0.2-0.2,0.3-0.5,0.4-0.8v-5.5c0-0.3-0.1-0.6-0.4-0.8
	C49.4,98.1,49.1,97.9,48.8,97.9z M49.1,104.7c0,0.1,0,0.2-0.1,0.2c-0.1,0.1-0.1,0.1-0.2,0.1H24.2c-0.1,0-0.2,0-0.2-0.1
	c-0.1-0.1-0.1-0.1-0.1-0.2v-5.5c0,0,0-0.1,0-0.1c0,0,0-0.1,0.1-0.1c0,0,0.1,0,0.1-0.1c0,0,0.1,0,0.1,0h24.6c0.1,0,0.2,0,0.2,0.1
	c0.1,0.1,0.1,0.1,0.1,0.2L49.1,104.7z"/>
<g>
	
		<radialGradient id="SVGID_3_" cx="-253.2939" cy="592.9259" r="1" gradientTransform="matrix(8.537993e-16 13.9436 13.5 -8.266366e-16 -7968 3679.7722)" gradientUnits="userSpaceOnUse">
		<stop  offset="0" style="stop-color:#00CAAA"/>
		<stop  offset="1" style="stop-color:#00CAAA;stop-opacity:0"/>
	</radialGradient>
	<path class="st6" d="M38.3,134.1c5.5,0.8,9.8,5.5,10.1,11.2h0.4c0.3,0,0.6,0.1,0.8,0.3c0.2,0.2,0.3,0.5,0.3,0.8v5.5
		c0,0.1,0,0.2,0,0.2v2.6c0,0.1,0,0.2,0,0.2v5.5c0,0.3-0.1,0.6-0.4,0.8c-0.2,0.2-0.5,0.3-0.8,0.3H24.2c-0.3,0-0.6-0.1-0.8-0.4
		c-0.2-0.2-0.3-0.5-0.4-0.8v-14.1c0-0.3,0.1-0.6,0.4-0.8c0.2-0.2,0.5-0.4,0.8-0.4h0.4c0.3-5.7,4.5-10.4,10.1-11.2
		C35.3,134,37,133.9,38.3,134.1z"/>
</g>
<path class="st7" d="M42.5,149c0.2-0.4,0.7-0.6,1.1-0.4c0.4,0.2,0.6,0.7,0.4,1.1c-0.2,0.4-0.7,0.6-1.1,0.4
	C42.5,149.9,42.3,149.4,42.5,149z"/>
<path class="st7" d="M46.2,150.1c0.5,0,0.8-0.4,0.8-0.8c0-0.5-0.4-0.8-0.8-0.8c-0.5,0-0.8,0.4-0.8,0.8
	C45.4,149.7,45.8,150.1,46.2,150.1z"/>
<path class="st7" d="M39.8,148.5c0.1,0,0.2,0,0.3-0.1c0.2,0,0.4,0.1,0.5,0.2c0.1,0.1,0.2,0.3,0.3,0.5c0,0.2,0,0.4-0.2,0.6
	c-0.1,0.2-0.3,0.3-0.5,0.3c-0.2,0-0.4,0-0.6-0.1c-0.2-0.1-0.3-0.3-0.4-0.5c-0.1-0.2,0-0.4,0-0.6C39.5,148.8,39.6,148.6,39.8,148.5z"
	/>
<path class="st8" d="M48.8,145.3h-0.4c-0.3-6-5-10.9-11-11.3c0,0-0.1,0-0.1,0c0,0-0.1,0-0.1,0.1c0,0-0.1,0.1-0.1,0.1
	c0,0,0,0.1,0,0.1c0,0,0,0.1,0,0.1c0,0,0,0.1,0.1,0.1c0,0,0.1,0.1,0.1,0.1c0,0,0.1,0,0.1,0c2.7,0.2,5.3,1.4,7.2,3.3
	c1.9,2,3,4.6,3.2,7.3h-0.6c-0.2-2.7-1.3-5.2-3.3-7.1s-4.6-2.9-7.3-2.9c-2.7,0-5.3,1-7.3,2.9c-2,1.9-3.1,4.4-3.3,7.1h-0.6
	c0.1-2.7,1.3-5.3,3.2-7.3c1.9-2,4.5-3.1,7.2-3.3c0,0,0.1,0,0.1,0c0,0,0.1,0,0.1-0.1c0,0,0.1-0.1,0.1-0.1c0,0,0-0.1,0-0.1
	c0,0,0-0.1,0-0.1c0,0,0-0.1-0.1-0.1c0,0-0.1-0.1-0.1-0.1c0,0-0.1,0-0.1,0c-6,0.4-10.8,5.3-11.1,11.3h-0.4c-0.3,0-0.6,0.1-0.8,0.4
	c-0.2,0.2-0.3,0.5-0.4,0.8v5.5c0,0.3,0.1,0.6,0.4,0.8c0.2,0.2,0.5,0.4,0.8,0.4h24.6c0.3,0,0.6-0.1,0.8-0.3c0.2-0.2,0.3-0.5,0.4-0.8
	v-5.5c0-0.3-0.1-0.6-0.3-0.8C49.4,145.5,49.1,145.3,48.8,145.3z M27.8,141.2l0.6,0.3c0.1,0,0.2,0.1,0.3,0c0.1,0,0.2-0.1,0.2-0.2
	c0-0.1,0.1-0.2,0-0.3c0-0.1-0.1-0.2-0.2-0.2l-0.6-0.3c0.8-1.3,1.9-2.3,3.1-3.1l0.3,0.6c0,0,0.1,0.1,0.1,0.1c0,0,0.1,0.1,0.1,0.1
	c0,0,0.1,0,0.1,0c0,0,0.1,0,0.1,0c0,0,0.1-0.1,0.1-0.1c0,0,0-0.1,0.1-0.1c0,0,0-0.1,0-0.1c0,0,0-0.1,0-0.1l-0.3-0.6
	c1.3-0.7,2.8-1.1,4.3-1.1v0.7c0,0.1,0,0.2,0.1,0.2c0.1,0.1,0.2,0.1,0.2,0.1c0.1,0,0.2,0,0.2-0.1c0.1-0.1,0.1-0.2,0.1-0.2V136
	c1.5,0,3,0.4,4.3,1.1l-0.3,0.6c0,0,0,0.1,0,0.1c0,0,0,0.1,0,0.1c0,0,0,0.1,0.1,0.1c0,0,0.1,0.1,0.1,0.1c0,0,0.1,0,0.1,0
	c0,0,0.1,0,0.1,0c0,0,0.1,0,0.1-0.1s0.1-0.1,0.1-0.1l0.3-0.6c1.3,0.8,2.3,1.9,3.1,3.1l-0.6,0.3c-0.1,0-0.1,0.1-0.2,0.2
	c0,0.1,0,0.2,0,0.3c0,0.1,0.1,0.1,0.2,0.2c0.1,0,0.2,0,0.3,0l0.6-0.3c0.7,1.3,1.1,2.8,1.2,4.3h-4.5c0-0.7-0.2-1.4-0.6-2.1
	c-0.3-0.6-0.8-1.2-1.3-1.7l0.6-1c0.1-0.1,0.1-0.2,0.1-0.4c0-0.1,0-0.3,0-0.4c0-0.1-0.1-0.2-0.2-0.3c-0.1-0.1-0.2-0.2-0.3-0.2
	c-0.2-0.1-0.5-0.1-0.7-0.1c-0.2,0.1-0.4,0.2-0.6,0.4l-0.6,1c-0.6-0.2-1.2-0.3-1.8-0.3c-1.4,0-2.7,0.5-3.6,1.4
	c-1,0.9-1.6,2.2-1.7,3.5h-4.5l0,0C26.7,144,27.1,142.6,27.8,141.2z M39.1,146.1c-0.1,0.6-0.4,1.2-0.9,1.7c-0.5,0.4-1.1,0.7-1.8,0.7
	s-1.3-0.2-1.8-0.7c-0.5-0.4-0.8-1-0.9-1.7c0-0.2-0.1-0.3-0.2-0.4c-0.1-0.1-0.3-0.2-0.5-0.2h-1.3c0.1-0.7,0.3-1.4,0.6-2
	c0.4-0.6,0.8-1.1,1.4-1.5c0.6-0.4,1.3-0.6,1.9-0.7c0.7-0.1,1.4,0,2.1,0.2l-1.5,2.6c-0.5,0-1,0.2-1.3,0.5c-0.3,0.3-0.5,0.8-0.5,1.3
	c0,0.5,0.2,1,0.5,1.3c0.3,0.3,0.8,0.5,1.3,0.5c0.3,0,0.6-0.1,0.9-0.2c0.3-0.1,0.5-0.4,0.7-0.6c0,0,0-0.1,0.1-0.1c0,0,0-0.1,0-0.1
	c0,0,0-0.1-0.1-0.1c0,0-0.1-0.1-0.1-0.1c0,0-0.1,0-0.1-0.1c0,0-0.1,0-0.1,0c0,0-0.1,0-0.1,0.1c0,0-0.1,0.1-0.1,0.1
	c-0.1,0.2-0.3,0.4-0.6,0.4c-0.2,0.1-0.5,0.1-0.7,0c-0.2-0.1-0.4-0.2-0.6-0.4c-0.1-0.2-0.2-0.4-0.2-0.7c0-0.2,0.1-0.5,0.2-0.7
	c0.1-0.2,0.4-0.3,0.6-0.4c0.2-0.1,0.5-0.1,0.7,0c0.2,0.1,0.4,0.2,0.6,0.4c0,0.1,0.1,0.1,0.2,0.1c0.1,0,0.2,0,0.2,0
	c0.1,0,0.1-0.1,0.2-0.2c0-0.1,0.1-0.2,0-0.2l1.5-2.6c0.9,0.8,1.5,1.9,1.5,3.1h-1.4c-0.2,0-0.3,0.1-0.5,0.2
	C39.2,145.8,39.1,146,39.1,146.1z M39.5,140.2c0-0.1,0.1-0.1,0.1-0.1c0.1,0,0.1,0,0.2,0c0,0,0.1,0,0.1,0.1c0,0,0,0.1,0,0.1
	c0,0,0,0.1,0,0.1c0,0,0,0.1,0,0.1l-0.7,1.3c0,0.1-0.2,0.3-0.3,0.5l0,0c-0.4,0.7-1.1,1.9-1.3,2.2c-0.1-0.1-0.3-0.2-0.4-0.2
	L39.5,140.2z M49.1,152.1c0,0.1,0,0.2-0.1,0.2c-0.1,0.1-0.1,0.1-0.2,0.1H24.2c-0.1,0-0.2,0-0.2-0.1c-0.1-0.1-0.1-0.1-0.1-0.2v-5.5
	c0,0,0-0.1,0-0.1c0,0,0-0.1,0.1-0.1c0,0,0.1,0,0.1-0.1c0,0,0.1,0,0.1,0h3.3l0,0h5.7c0,0.1,0,0.2,0,0.3c0.2,0.8,0.6,1.5,1.2,2
	c0.6,0.5,1.4,0.7,2.2,0.7c0.8,0,1.6-0.4,2.1-0.9c0.6-0.5,0.9-1.3,1-2.1h5.7l0,0h3.3c0.1,0,0.2,0,0.2,0.1c0.1,0.1,0.1,0.1,0.1,0.2
	L49.1,152.1z"/>
<path class="st7" d="M47,157.7c0.1,0.4-0.2,0.9-0.6,1s-0.9-0.2-1-0.6c-0.1-0.4,0.2-0.9,0.6-1C46.5,157,46.9,157.3,47,157.7z"/>
<path class="st7" d="M40.9,157.9c0,0.5-0.4,0.8-0.8,0.8c-0.5,0-0.8-0.4-0.8-0.8c0-0.5,0.4-0.8,0.8-0.8
	C40.6,157.1,40.9,157.4,40.9,157.9z"/>
<path class="st7" d="M43.8,157.3c0.3,0.3,0.3,0.8,0,1.2c-0.3,0.3-0.8,0.3-1.2,0c-0.3-0.3-0.3-0.8,0-1.2C43,157,43.5,157,43.8,157.3z
	"/>
<path class="st8" d="M48.8,153.9H24.2c-0.3,0-0.6,0.1-0.8,0.3c-0.2,0.2-0.3,0.5-0.4,0.8v5.5c0,0.3,0.1,0.6,0.4,0.8
	c0.2,0.2,0.5,0.4,0.8,0.4h24.6c0.3,0,0.6-0.1,0.8-0.4c0.2-0.2,0.3-0.5,0.4-0.8v-5.5c0-0.3-0.1-0.6-0.4-0.8
	C49.4,154.1,49.1,153.9,48.8,153.9z M49.1,160.7c0,0.1,0,0.2-0.1,0.2c-0.1,0.1-0.1,0.1-0.2,0.1H24.2c-0.1,0-0.2,0-0.2-0.1
	c-0.1-0.1-0.1-0.1-0.1-0.2v-5.5c0,0,0-0.1,0-0.1c0,0,0-0.1,0.1-0.1c0,0,0.1-0.1,0.1-0.1c0,0,0.1,0,0.1,0h24.6c0.1,0,0.2,0,0.2,0.1
	c0.1,0.1,0.1,0.1,0.1,0.2L49.1,160.7z"/>
<path class="st9" d="M42.5,205c0.2-0.4,0.7-0.6,1.1-0.4c0.4,0.2,0.6,0.7,0.4,1.1c-0.2,0.4-0.7,0.6-1.1,0.4
	C42.5,205.9,42.3,205.4,42.5,205z"/>
<path class="st9" d="M46.2,206.1c0.5,0,0.8-0.4,0.8-0.8c0-0.5-0.4-0.8-0.8-0.8c-0.5,0-0.8,0.4-0.8,0.8
	C45.4,205.7,45.8,206.1,46.2,206.1z"/>
<path class="st9" d="M39.8,204.5c0.1,0,0.2,0,0.3-0.1c0.2,0,0.4,0.1,0.5,0.2c0.1,0.1,0.2,0.3,0.3,0.5c0,0.2,0,0.4-0.2,0.6
	c-0.1,0.2-0.3,0.3-0.5,0.3c-0.2,0-0.4,0-0.6-0.1c-0.2-0.1-0.3-0.3-0.4-0.5c-0.1-0.2,0-0.4,0-0.6C39.5,204.8,39.6,204.6,39.8,204.5z"
	/>
<path class="st10" d="M48.8,201.3h-0.4c-0.3-6-5-10.9-11-11.3c0,0-0.1,0-0.1,0c0,0-0.1,0-0.1,0.1c0,0-0.1,0.1-0.1,0.1
	c0,0,0,0.1,0,0.1c0,0,0,0.1,0,0.1c0,0,0,0.1,0.1,0.1c0,0,0.1,0.1,0.1,0.1c0,0,0.1,0,0.1,0c2.7,0.2,5.3,1.4,7.2,3.3
	c1.9,2,3,4.6,3.2,7.3h-0.6c-0.2-2.7-1.3-5.2-3.3-7.1s-4.6-2.9-7.3-2.9c-2.7,0-5.3,1-7.3,2.9c-2,1.9-3.1,4.4-3.3,7.1h-0.6
	c0.1-2.7,1.3-5.3,3.2-7.3c1.9-2,4.5-3.1,7.2-3.3c0,0,0.1,0,0.1,0c0,0,0.1,0,0.1-0.1c0,0,0.1-0.1,0.1-0.1c0,0,0-0.1,0-0.1
	c0,0,0-0.1,0-0.1c0,0,0-0.1-0.1-0.1c0,0-0.1-0.1-0.1-0.1c0,0-0.1,0-0.1,0c-6,0.4-10.8,5.3-11.1,11.3h-0.4c-0.3,0-0.6,0.1-0.8,0.4
	c-0.2,0.2-0.3,0.5-0.4,0.8v5.5c0,0.3,0.1,0.6,0.4,0.8c0.2,0.2,0.5,0.4,0.8,0.4h24.6c0.3,0,0.6-0.1,0.8-0.3c0.2-0.2,0.3-0.5,0.4-0.8
	v-5.5c0-0.3-0.1-0.6-0.3-0.8C49.4,201.5,49.1,201.3,48.8,201.3z M27.8,197.2l0.6,0.3c0.1,0,0.2,0.1,0.3,0c0.1,0,0.2-0.1,0.2-0.2
	c0-0.1,0.1-0.2,0-0.3c0-0.1-0.1-0.2-0.2-0.2l-0.6-0.3c0.8-1.3,1.9-2.3,3.1-3.1l0.3,0.6c0,0,0.1,0.1,0.1,0.1c0,0,0.1,0.1,0.1,0.1
	c0,0,0.1,0,0.1,0c0,0,0.1,0,0.1,0c0,0,0.1-0.1,0.1-0.1c0,0,0-0.1,0.1-0.1c0,0,0-0.1,0-0.1c0,0,0-0.1,0-0.1l-0.3-0.6
	c1.3-0.7,2.8-1.1,4.3-1.1v0.7c0,0.1,0,0.2,0.1,0.2c0.1,0.1,0.2,0.1,0.2,0.1c0.1,0,0.2,0,0.2-0.1c0.1-0.1,0.1-0.2,0.1-0.2V192
	c1.5,0,3,0.4,4.3,1.1l-0.3,0.6c0,0,0,0.1,0,0.1c0,0,0,0.1,0,0.1c0,0,0,0.1,0.1,0.1c0,0,0.1,0.1,0.1,0.1c0,0,0.1,0,0.1,0
	c0,0,0.1,0,0.1,0c0,0,0.1,0,0.1-0.1s0.1-0.1,0.1-0.1l0.3-0.6c1.3,0.8,2.3,1.9,3.1,3.1l-0.6,0.3c-0.1,0-0.1,0.1-0.2,0.2
	c0,0.1,0,0.2,0,0.3c0,0.1,0.1,0.1,0.2,0.2c0.1,0,0.2,0,0.3,0l0.6-0.3c0.7,1.3,1.1,2.8,1.2,4.3h-4.5c0-0.7-0.2-1.4-0.6-2.1
	c-0.3-0.6-0.8-1.2-1.3-1.7l0.6-1c0.1-0.1,0.1-0.2,0.1-0.4c0-0.1,0-0.3,0-0.4c0-0.1-0.1-0.2-0.2-0.3c-0.1-0.1-0.2-0.2-0.3-0.2
	c-0.2-0.1-0.5-0.1-0.7-0.1c-0.2,0.1-0.4,0.2-0.6,0.4l-0.6,1c-0.6-0.2-1.2-0.3-1.8-0.3c-1.4,0-2.7,0.5-3.6,1.4
	c-1,0.9-1.6,2.2-1.7,3.5h-4.5l0,0C26.7,200,27.1,198.6,27.8,197.2z M39.1,202.1c-0.1,0.6-0.4,1.2-0.9,1.7c-0.5,0.4-1.1,0.7-1.8,0.7
	s-1.3-0.2-1.8-0.7c-0.5-0.4-0.8-1-0.9-1.7c0-0.2-0.1-0.3-0.2-0.4c-0.1-0.1-0.3-0.2-0.5-0.2h-1.3c0.1-0.7,0.3-1.4,0.6-2
	c0.4-0.6,0.8-1.1,1.4-1.5c0.6-0.4,1.3-0.6,1.9-0.7c0.7-0.1,1.4,0,2.1,0.2l-1.5,2.6c-0.5,0-1,0.2-1.3,0.5c-0.3,0.3-0.5,0.8-0.5,1.3
	c0,0.5,0.2,1,0.5,1.3c0.3,0.3,0.8,0.5,1.3,0.5c0.3,0,0.6-0.1,0.9-0.2c0.3-0.1,0.5-0.4,0.7-0.6c0,0,0-0.1,0.1-0.1c0,0,0-0.1,0-0.1
	c0,0,0-0.1-0.1-0.1c0,0-0.1-0.1-0.1-0.1c0,0-0.1,0-0.1-0.1c0,0-0.1,0-0.1,0c0,0-0.1,0-0.1,0.1c0,0-0.1,0.1-0.1,0.1
	c-0.1,0.2-0.3,0.4-0.6,0.4c-0.2,0.1-0.5,0.1-0.7,0c-0.2-0.1-0.4-0.2-0.6-0.4c-0.1-0.2-0.2-0.4-0.2-0.7c0-0.2,0.1-0.5,0.2-0.7
	c0.1-0.2,0.4-0.3,0.6-0.4c0.2-0.1,0.5-0.1,0.7,0c0.2,0.1,0.4,0.2,0.6,0.4c0,0.1,0.1,0.1,0.2,0.1c0.1,0,0.2,0,0.2,0
	c0.1,0,0.1-0.1,0.2-0.2c0-0.1,0.1-0.2,0-0.2l1.5-2.6c0.9,0.8,1.5,1.9,1.5,3.1h-1.4c-0.2,0-0.3,0.1-0.5,0.2
	C39.2,201.8,39.1,202,39.1,202.1z M39.5,196.2c0-0.1,0.1-0.1,0.1-0.1c0.1,0,0.1,0,0.2,0c0,0,0.1,0,0.1,0.1c0,0,0,0.1,0,0.1
	c0,0,0,0.1,0,0.1c0,0,0,0.1,0,0.1l-0.7,1.3c0,0.1-0.2,0.3-0.3,0.5l0,0c-0.4,0.7-1.1,1.9-1.3,2.2c-0.1-0.1-0.3-0.2-0.4-0.2
	L39.5,196.2z M49.1,208.1c0,0.1,0,0.2-0.1,0.2c-0.1,0.1-0.1,0.1-0.2,0.1H24.2c-0.1,0-0.2,0-0.2-0.1c-0.1-0.1-0.1-0.1-0.1-0.2v-5.5
	c0,0,0-0.1,0-0.1c0,0,0-0.1,0.1-0.1c0,0,0.1,0,0.1-0.1c0,0,0.1,0,0.1,0h3.3l0,0h5.7c0,0.1,0,0.2,0,0.3c0.2,0.8,0.6,1.5,1.2,2
	c0.6,0.5,1.4,0.7,2.2,0.7c0.8,0,1.6-0.4,2.1-0.9c0.6-0.5,0.9-1.3,1-2.1h5.7l0,0h3.3c0.1,0,0.2,0,0.2,0.1c0.1,0.1,0.1,0.1,0.1,0.2
	L49.1,208.1z"/>
<path class="st9" d="M47,213.7c0.1,0.4-0.2,0.9-0.6,1s-0.9-0.2-1-0.6c-0.1-0.4,0.2-0.9,0.6-1C46.5,213,46.9,213.3,47,213.7z"/>
<path class="st9" d="M40.9,213.9c0,0.5-0.4,0.8-0.8,0.8c-0.5,0-0.8-0.4-0.8-0.8c0-0.5,0.4-0.8,0.8-0.8
	C40.6,213.1,40.9,213.4,40.9,213.9z"/>
<path class="st9" d="M43.8,213.3c0.3,0.3,0.3,0.8,0,1.2c-0.3,0.3-0.8,0.3-1.2,0c-0.3-0.3-0.3-0.8,0-1.2C43,213,43.5,213,43.8,213.3z
	"/>
<path class="st10" d="M48.8,209.9H24.2c-0.3,0-0.6,0.1-0.8,0.3c-0.2,0.2-0.3,0.5-0.4,0.8v5.5c0,0.3,0.1,0.6,0.4,0.8
	c0.2,0.2,0.5,0.4,0.8,0.4h24.6c0.3,0,0.6-0.1,0.8-0.4c0.2-0.2,0.3-0.5,0.4-0.8v-5.5c0-0.3-0.1-0.6-0.4-0.8
	C49.4,210.1,49.1,209.9,48.8,209.9z M49.1,216.7c0,0.1,0,0.2-0.1,0.2c-0.1,0.1-0.1,0.1-0.2,0.1H24.2c-0.1,0-0.2,0-0.2-0.1
	c-0.1-0.1-0.1-0.1-0.1-0.2v-5.5c0,0,0-0.1,0-0.1c0,0,0-0.1,0.1-0.1c0,0,0.1-0.1,0.1-0.1c0,0,0.1,0,0.1,0h24.6c0.1,0,0.2,0,0.2,0.1
	c0.1,0.1,0.1,0.1,0.1,0.2L49.1,216.7z"/>
<g>
	
		<radialGradient id="SVGID_4_" cx="-253.2939" cy="592.9259" r="1" gradientTransform="matrix(8.537993e-16 13.9436 13.5 -8.266366e-16 -7968 3791.7722)" gradientUnits="userSpaceOnUse">
		<stop  offset="0" style="stop-color:#434F58"/>
		<stop  offset="1" style="stop-color:#434F58;stop-opacity:0"/>
	</radialGradient>
	<path class="st11" d="M38.3,246.1c5.5,0.8,9.8,5.5,10.1,11.2h0.4c0.3,0,0.6,0.1,0.8,0.3c0.2,0.2,0.3,0.5,0.3,0.8v5.5
		c0,0.1,0,0.2,0,0.2v2.6c0,0.1,0,0.2,0,0.2v5.5c0,0.3-0.1,0.6-0.4,0.8c-0.2,0.2-0.5,0.3-0.8,0.4H24.2c-0.3,0-0.6-0.1-0.8-0.4
		c-0.2-0.2-0.3-0.5-0.4-0.8v-14.1c0-0.3,0.1-0.6,0.4-0.8c0.2-0.2,0.5-0.4,0.8-0.4h0.4c0.3-5.7,4.5-10.4,10.1-11.2
		C35.3,246,37,245.9,38.3,246.1z"/>
</g>
<path class="st9" d="M42.5,261c0.2-0.4,0.7-0.6,1.1-0.4c0.4,0.2,0.6,0.7,0.4,1.1c-0.2,0.4-0.7,0.6-1.1,0.4
	C42.5,261.9,42.3,261.4,42.5,261z"/>
<path class="st9" d="M46.2,262.1c0.5,0,0.8-0.4,0.8-0.8c0-0.5-0.4-0.8-0.8-0.8c-0.5,0-0.8,0.4-0.8,0.8
	C45.4,261.7,45.8,262.1,46.2,262.1z"/>
<path class="st9" d="M39.8,260.5c0.1,0,0.2,0,0.3-0.1c0.2,0,0.4,0.1,0.5,0.2c0.1,0.1,0.2,0.3,0.3,0.5s0,0.4-0.2,0.6
	c-0.1,0.2-0.3,0.3-0.5,0.3c-0.2,0-0.4,0-0.6-0.1c-0.2-0.1-0.3-0.3-0.4-0.5c-0.1-0.2,0-0.4,0-0.6C39.5,260.8,39.6,260.6,39.8,260.5z"
	/>
<path class="st10" d="M48.8,257.3h-0.4c-0.3-6-5-10.9-11-11.3c0,0-0.1,0-0.1,0c0,0-0.1,0-0.1,0.1c0,0-0.1,0.1-0.1,0.1
	c0,0,0,0.1,0,0.1c0,0,0,0.1,0,0.1c0,0,0,0.1,0.1,0.1c0,0,0.1,0.1,0.1,0.1c0,0,0.1,0,0.1,0c2.7,0.2,5.3,1.4,7.2,3.3
	c1.9,2,3,4.6,3.2,7.3h-0.6c-0.2-2.7-1.3-5.2-3.3-7.1s-4.6-2.9-7.3-2.9c-2.7,0-5.3,1-7.3,2.9c-2,1.9-3.1,4.4-3.3,7.1h-0.6
	c0.1-2.7,1.3-5.3,3.2-7.3c1.9-2,4.5-3.1,7.2-3.3c0,0,0.1,0,0.1,0c0,0,0.1,0,0.1-0.1c0,0,0.1-0.1,0.1-0.1c0,0,0-0.1,0-0.1
	c0,0,0-0.1,0-0.1c0,0,0-0.1-0.1-0.1c0,0-0.1-0.1-0.1-0.1c0,0-0.1,0-0.1,0c-6,0.4-10.8,5.3-11.1,11.3h-0.4c-0.3,0-0.6,0.1-0.8,0.4
	c-0.2,0.2-0.3,0.5-0.4,0.8v5.5c0,0.3,0.1,0.6,0.4,0.8c0.2,0.2,0.5,0.3,0.8,0.4h24.6c0.3,0,0.6-0.1,0.8-0.4c0.2-0.2,0.3-0.5,0.4-0.8
	v-5.5c0-0.3-0.1-0.6-0.3-0.8C49.4,257.5,49.1,257.3,48.8,257.3z M27.8,253.2l0.6,0.3c0.1,0,0.2,0.1,0.3,0c0.1,0,0.2-0.1,0.2-0.2
	c0-0.1,0.1-0.2,0-0.3c0-0.1-0.1-0.2-0.2-0.2l-0.6-0.3c0.8-1.3,1.9-2.3,3.1-3.1l0.3,0.6c0,0,0.1,0.1,0.1,0.1c0,0,0.1,0.1,0.1,0.1
	c0,0,0.1,0,0.1,0c0,0,0.1,0,0.1,0c0,0,0.1-0.1,0.1-0.1c0,0,0-0.1,0.1-0.1c0,0,0-0.1,0-0.1c0,0,0-0.1,0-0.1l-0.3-0.6
	c1.3-0.7,2.8-1.1,4.3-1.1v0.7c0,0.1,0,0.2,0.1,0.2c0.1,0.1,0.2,0.1,0.2,0.1c0.1,0,0.2,0,0.2-0.1c0.1-0.1,0.1-0.2,0.1-0.2V248
	c1.5,0,3,0.4,4.3,1.1l-0.3,0.6c0,0,0,0.1,0,0.1c0,0,0,0.1,0,0.1c0,0,0,0.1,0.1,0.1c0,0,0.1,0.1,0.1,0.1c0,0,0.1,0,0.1,0
	c0,0,0.1,0,0.1,0c0,0,0.1,0,0.1-0.1s0.1-0.1,0.1-0.1l0.3-0.6c1.3,0.8,2.3,1.9,3.1,3.1l-0.6,0.3c-0.1,0-0.1,0.1-0.2,0.2
	c0,0.1,0,0.2,0,0.3c0,0.1,0.1,0.1,0.2,0.2c0.1,0,0.2,0,0.3,0l0.6-0.3c0.7,1.3,1.1,2.8,1.2,4.3h-4.5c0-0.7-0.2-1.4-0.6-2.1
	c-0.3-0.6-0.8-1.2-1.3-1.7l0.6-1c0.1-0.1,0.1-0.2,0.1-0.4c0-0.1,0-0.3,0-0.4c0-0.1-0.1-0.2-0.2-0.3c-0.1-0.1-0.2-0.2-0.3-0.2
	c-0.2-0.1-0.5-0.1-0.7-0.1c-0.2,0.1-0.4,0.2-0.6,0.4l-0.6,1c-0.6-0.2-1.2-0.3-1.8-0.3c-1.4,0-2.7,0.5-3.6,1.4
	c-1,0.9-1.6,2.2-1.7,3.5h-4.5l0,0C26.7,256,27.1,254.6,27.8,253.2z M39.1,258.1c-0.1,0.6-0.4,1.2-0.9,1.7c-0.5,0.4-1.1,0.7-1.8,0.7
	s-1.3-0.2-1.8-0.7c-0.5-0.4-0.8-1-0.9-1.7c0-0.2-0.1-0.3-0.2-0.4c-0.1-0.1-0.3-0.2-0.5-0.2h-1.3c0.1-0.7,0.3-1.4,0.6-2
	c0.4-0.6,0.8-1.1,1.4-1.5c0.6-0.4,1.3-0.6,1.9-0.7c0.7-0.1,1.4,0,2.1,0.2l-1.5,2.6c-0.5,0-1,0.2-1.3,0.5c-0.3,0.3-0.5,0.8-0.5,1.3
	c0,0.5,0.2,1,0.5,1.3c0.3,0.3,0.8,0.5,1.3,0.5c0.3,0,0.6-0.1,0.9-0.2c0.3-0.1,0.5-0.4,0.7-0.6c0,0,0-0.1,0.1-0.1c0,0,0-0.1,0-0.1
	c0,0,0-0.1-0.1-0.1c0,0-0.1-0.1-0.1-0.1c0,0-0.1,0-0.1-0.1c0,0-0.1,0-0.1,0c0,0-0.1,0-0.1,0.1c0,0-0.1,0.1-0.1,0.1
	c-0.1,0.2-0.3,0.4-0.6,0.4c-0.2,0.1-0.5,0.1-0.7,0c-0.2-0.1-0.4-0.2-0.6-0.4c-0.1-0.2-0.2-0.4-0.2-0.7s0.1-0.5,0.2-0.7
	c0.1-0.2,0.4-0.3,0.6-0.4c0.2-0.1,0.5-0.1,0.7,0c0.2,0.1,0.4,0.2,0.6,0.4c0,0.1,0.1,0.1,0.2,0.1c0.1,0,0.2,0,0.2,0
	c0.1,0,0.1-0.1,0.2-0.2c0-0.1,0.1-0.2,0-0.2l1.5-2.6c0.9,0.8,1.5,1.9,1.5,3.1h-1.4c-0.2,0-0.3,0.1-0.5,0.2
	C39.2,257.8,39.1,258,39.1,258.1z M39.5,252.2c0-0.1,0.1-0.1,0.1-0.1c0.1,0,0.1,0,0.2,0c0,0,0.1,0,0.1,0.1c0,0,0,0.1,0,0.1
	c0,0,0,0.1,0,0.1c0,0,0,0.1,0,0.1l-0.7,1.3c0,0.1-0.2,0.3-0.3,0.5l0,0c-0.4,0.7-1.1,1.9-1.3,2.2c-0.1-0.1-0.3-0.2-0.4-0.2
	L39.5,252.2z M49.1,264c0,0.1,0,0.2-0.1,0.2c-0.1,0.1-0.1,0.1-0.2,0.1H24.2c-0.1,0-0.2,0-0.2-0.1c-0.1-0.1-0.1-0.1-0.1-0.2v-5.5
	c0,0,0-0.1,0-0.1c0,0,0-0.1,0.1-0.1c0,0,0.1,0,0.1-0.1c0,0,0.1,0,0.1,0h3.3l0,0h5.7c0,0.1,0,0.2,0,0.3c0.2,0.8,0.6,1.5,1.2,2
	c0.6,0.5,1.4,0.7,2.2,0.7c0.8,0,1.6-0.4,2.1-0.9c0.6-0.5,0.9-1.3,1-2.1h5.7l0,0h3.3c0.1,0,0.2,0,0.2,0.1c0.1,0.1,0.1,0.1,0.1,0.2
	L49.1,264z"/>
<path class="st9" d="M47,269.7c0.1,0.4-0.2,0.9-0.6,1s-0.9-0.2-1-0.6c-0.1-0.4,0.2-0.9,0.6-1C46.5,269,46.9,269.3,47,269.7z"/>
<path class="st9" d="M40.9,269.9c0,0.5-0.4,0.8-0.8,0.8c-0.5,0-0.8-0.4-0.8-0.8c0-0.5,0.4-0.8,0.8-0.8
	C40.6,269.1,40.9,269.4,40.9,269.9z"/>
<path class="st9" d="M43.8,269.3c0.3,0.3,0.3,0.8,0,1.2c-0.3,0.3-0.8,0.3-1.2,0c-0.3-0.3-0.3-0.8,0-1.2C43,269,43.5,269,43.8,269.3z
	"/>
<path class="st10" d="M48.8,265.9H24.2c-0.3,0-0.6,0.1-0.8,0.4c-0.2,0.2-0.3,0.5-0.4,0.8v5.5c0,0.3,0.1,0.6,0.4,0.8
	c0.2,0.2,0.5,0.4,0.8,0.4h24.6c0.3,0,0.6-0.1,0.8-0.4c0.2-0.2,0.3-0.5,0.4-0.8v-5.5c0-0.3-0.1-0.6-0.4-0.8
	C49.4,266.1,49.1,265.9,48.8,265.9z M49.1,272.7c0,0.1,0,0.2-0.1,0.2c-0.1,0.1-0.1,0.1-0.2,0.1H24.2c-0.1,0-0.2,0-0.2-0.1
	c-0.1-0.1-0.1-0.1-0.1-0.2v-5.5c0,0,0-0.1,0-0.1c0,0,0-0.1,0.1-0.1c0,0,0.1-0.1,0.1-0.1c0,0,0.1,0,0.1,0h24.6c0.1,0,0.2,0,0.2,0.1
	c0.1,0.1,0.1,0.1,0.1,0.2L49.1,272.7z"/>
<radialGradient id="SVGID_5_" cx="-253.2939" cy="592.9259" r="1" gradientTransform="matrix(8.537993e-16 13.9436 13.5 -8.266366e-16 -7968 3847.7722)" gradientUnits="userSpaceOnUse">
	<stop  offset="0" style="stop-color:#677983"/>
	<stop  offset="1" style="stop-color:#677983;stop-opacity:0"/>
</radialGradient>
<path class="st12" d="M38.3,302.1c5.5,0.8,9.8,5.5,10.1,11.2h0.4c0.3,0,0.6,0.1,0.8,0.3c0.2,0.2,0.3,0.5,0.3,0.8v5.5
	c0,0.1,0,0.2,0,0.2v2.6c0,0.1,0,0.2,0,0.2v5.5c0,0.3-0.1,0.6-0.4,0.8c-0.2,0.2-0.5,0.3-0.8,0.4H24.2c-0.3,0-0.6-0.1-0.8-0.4
	c-0.2-0.2-0.3-0.5-0.4-0.8v-14.1c0-0.3,0.1-0.6,0.4-0.8c0.2-0.2,0.5-0.4,0.8-0.4h0.4c0.3-5.7,4.5-10.4,10.1-11.2
	C35.3,302,37,301.9,38.3,302.1z"/>
<path class="st13" d="M42.5,317c0.2-0.4,0.7-0.6,1.1-0.4c0.4,0.2,0.6,0.7,0.4,1.1c-0.2,0.4-0.7,0.6-1.1,0.4
	C42.5,317.9,42.3,317.4,42.5,317z"/>
<path class="st13" d="M46.2,318.1c0.5,0,0.8-0.4,0.8-0.8c0-0.5-0.4-0.8-0.8-0.8c-0.5,0-0.8,0.4-0.8,0.8
	C45.4,317.7,45.8,318.1,46.2,318.1z"/>
<path class="st13" d="M39.8,316.5c0.1,0,0.2,0,0.3-0.1c0.2,0,0.4,0.1,0.5,0.2c0.1,0.1,0.2,0.3,0.3,0.5s0,0.4-0.2,0.6
	c-0.1,0.2-0.3,0.3-0.5,0.3c-0.2,0-0.4,0-0.6-0.1c-0.2-0.1-0.3-0.3-0.4-0.5c-0.1-0.2,0-0.4,0-0.6C39.5,316.8,39.6,316.6,39.8,316.5z"
	/>
<path class="st14" d="M48.8,313.3h-0.4c-0.3-6-5-10.9-11-11.3c0,0-0.1,0-0.1,0s-0.1,0-0.1,0.1c0,0-0.1,0.1-0.1,0.1c0,0,0,0.1,0,0.1
	c0,0,0,0.1,0,0.1c0,0,0,0.1,0.1,0.1c0,0,0.1,0.1,0.1,0.1c0,0,0.1,0,0.1,0c2.7,0.2,5.3,1.4,7.2,3.3c1.9,2,3,4.6,3.2,7.3h-0.6
	c-0.2-2.7-1.3-5.2-3.3-7.1s-4.6-2.9-7.3-2.9c-2.7,0-5.3,1-7.3,2.9c-2,1.9-3.1,4.4-3.3,7.1h-0.6c0.1-2.7,1.3-5.3,3.2-7.3
	c1.9-2,4.5-3.1,7.2-3.3c0,0,0.1,0,0.1,0c0,0,0.1,0,0.1-0.1c0,0,0.1-0.1,0.1-0.1c0,0,0-0.1,0-0.1c0,0,0-0.1,0-0.1c0,0,0-0.1-0.1-0.1
	c0,0-0.1-0.1-0.1-0.1c0,0-0.1,0-0.1,0c-6,0.4-10.8,5.3-11.1,11.3h-0.4c-0.3,0-0.6,0.1-0.8,0.4c-0.2,0.2-0.3,0.5-0.4,0.8v5.5
	c0,0.3,0.1,0.6,0.4,0.8c0.2,0.2,0.5,0.3,0.8,0.4h24.6c0.3,0,0.6-0.1,0.8-0.4c0.2-0.2,0.3-0.5,0.4-0.8v-5.5c0-0.3-0.1-0.6-0.3-0.8
	C49.4,313.5,49.1,313.3,48.8,313.3z M27.8,309.2l0.6,0.3c0.1,0,0.2,0.1,0.3,0c0.1,0,0.2-0.1,0.2-0.2c0-0.1,0.1-0.2,0-0.3
	c0-0.1-0.1-0.2-0.2-0.2l-0.6-0.3c0.8-1.3,1.9-2.3,3.1-3.1l0.3,0.6c0,0,0.1,0.1,0.1,0.1c0,0,0.1,0.1,0.1,0.1c0,0,0.1,0,0.1,0
	c0,0,0.1,0,0.1,0c0,0,0.1-0.1,0.1-0.1c0,0,0-0.1,0.1-0.1c0,0,0-0.1,0-0.1c0,0,0-0.1,0-0.1l-0.3-0.6c1.3-0.7,2.8-1.1,4.3-1.1v0.7
	c0,0.1,0,0.2,0.1,0.2c0.1,0.1,0.2,0.1,0.2,0.1c0.1,0,0.2,0,0.2-0.1c0.1-0.1,0.1-0.2,0.1-0.2V304c1.5,0,3,0.4,4.3,1.1l-0.3,0.6
	c0,0,0,0.1,0,0.1c0,0,0,0.1,0,0.1c0,0,0,0.1,0.1,0.1c0,0,0.1,0.1,0.1,0.1c0,0,0.1,0,0.1,0c0,0,0.1,0,0.1,0c0,0,0.1,0,0.1-0.1
	c0,0,0.1-0.1,0.1-0.1l0.3-0.6c1.3,0.8,2.3,1.9,3.1,3.1l-0.6,0.3c-0.1,0-0.1,0.1-0.2,0.2c0,0.1,0,0.2,0,0.3c0,0.1,0.1,0.1,0.2,0.2
	c0.1,0,0.2,0,0.3,0l0.6-0.3c0.7,1.3,1.1,2.8,1.2,4.3h-4.5c0-0.7-0.2-1.4-0.6-2.1c-0.3-0.6-0.8-1.2-1.3-1.7l0.6-1
	c0.1-0.1,0.1-0.2,0.1-0.4c0-0.1,0-0.3,0-0.4c0-0.1-0.1-0.2-0.2-0.3c-0.1-0.1-0.2-0.2-0.3-0.2c-0.2-0.1-0.5-0.1-0.7-0.1
	c-0.2,0.1-0.4,0.2-0.6,0.4l-0.6,1c-0.6-0.2-1.2-0.3-1.8-0.3c-1.4,0-2.7,0.5-3.6,1.4c-1,0.9-1.6,2.2-1.7,3.5h-4.5l0,0
	C26.7,312,27.1,310.6,27.8,309.2z M39.1,314.1c-0.1,0.6-0.4,1.2-0.9,1.7c-0.5,0.4-1.1,0.7-1.8,0.7s-1.3-0.2-1.8-0.7
	c-0.5-0.4-0.8-1-0.9-1.7c0-0.2-0.1-0.3-0.2-0.4c-0.1-0.1-0.3-0.2-0.5-0.2h-1.3c0.1-0.7,0.3-1.4,0.6-2c0.4-0.6,0.8-1.1,1.4-1.5
	c0.6-0.4,1.3-0.6,1.9-0.7c0.7-0.1,1.4,0,2.1,0.2l-1.5,2.6c-0.5,0-1,0.2-1.3,0.5c-0.3,0.3-0.5,0.8-0.5,1.3c0,0.5,0.2,1,0.5,1.3
	c0.3,0.3,0.8,0.5,1.3,0.5c0.3,0,0.6-0.1,0.9-0.2c0.3-0.1,0.5-0.4,0.7-0.6c0,0,0-0.1,0.1-0.1c0,0,0-0.1,0-0.1c0,0,0-0.1-0.1-0.1
	c0,0-0.1-0.1-0.1-0.1c0,0-0.1,0-0.1-0.1c0,0-0.1,0-0.1,0c0,0-0.1,0-0.1,0.1c0,0-0.1,0.1-0.1,0.1c-0.1,0.2-0.3,0.4-0.6,0.4
	c-0.2,0.1-0.5,0.1-0.7,0c-0.2-0.1-0.4-0.2-0.6-0.4c-0.1-0.2-0.2-0.4-0.2-0.7s0.1-0.5,0.2-0.7c0.1-0.2,0.4-0.3,0.6-0.4
	c0.2-0.1,0.5-0.1,0.7,0c0.2,0.1,0.4,0.2,0.6,0.4c0,0.1,0.1,0.1,0.2,0.1c0.1,0,0.2,0,0.2,0c0.1,0,0.1-0.1,0.2-0.2
	c0-0.1,0.1-0.2,0-0.2l1.5-2.6c0.9,0.8,1.5,1.9,1.5,3.1h-1.4c-0.2,0-0.3,0.1-0.5,0.2C39.2,313.8,39.1,314,39.1,314.1z M39.5,308.2
	c0-0.1,0.1-0.1,0.1-0.1c0.1,0,0.1,0,0.2,0c0,0,0.1,0,0.1,0.1c0,0,0,0.1,0,0.1c0,0,0,0.1,0,0.1c0,0,0,0.1,0,0.1l-0.7,1.3
	c0,0.1-0.2,0.3-0.3,0.5l0,0c-0.4,0.7-1.1,1.9-1.3,2.2c-0.1-0.1-0.3-0.2-0.4-0.2L39.5,308.2z M49.1,320c0,0.1,0,0.2-0.1,0.2
	c-0.1,0.1-0.1,0.1-0.2,0.1H24.2c-0.1,0-0.2,0-0.2-0.1c-0.1-0.1-0.1-0.1-0.1-0.2v-5.5c0,0,0-0.1,0-0.1c0,0,0-0.1,0.1-0.1
	c0,0,0.1,0,0.1-0.1c0,0,0.1,0,0.1,0h3.3l0,0h5.7c0,0.1,0,0.2,0,0.3c0.2,0.8,0.6,1.5,1.2,2c0.6,0.5,1.4,0.7,2.2,0.7
	c0.8,0,1.6-0.4,2.1-0.9c0.6-0.5,0.9-1.3,1-2.1h5.7l0,0h3.3c0.1,0,0.2,0,0.2,0.1c0.1,0.1,0.1,0.1,0.1,0.2L49.1,320z"/>
<path class="st13" d="M47,325.7c0.1,0.4-0.2,0.9-0.6,1s-0.9-0.2-1-0.6c-0.1-0.4,0.2-0.9,0.6-1C46.5,325,46.9,325.3,47,325.7z"/>
<path class="st13" d="M40.9,325.9c0,0.5-0.4,0.8-0.8,0.8c-0.5,0-0.8-0.4-0.8-0.8c0-0.5,0.4-0.8,0.8-0.8
	C40.6,325.1,40.9,325.4,40.9,325.9z"/>
<path class="st13" d="M43.8,325.3c0.3,0.3,0.3,0.8,0,1.2c-0.3,0.3-0.8,0.3-1.2,0c-0.3-0.3-0.3-0.8,0-1.2C43,325,43.5,325,43.8,325.3
	z"/>
<path class="st14" d="M48.8,321.9H24.2c-0.3,0-0.6,0.1-0.8,0.4c-0.2,0.2-0.3,0.5-0.4,0.8v5.5c0,0.3,0.1,0.6,0.4,0.8
	c0.2,0.2,0.5,0.4,0.8,0.4h24.6c0.3,0,0.6-0.1,0.8-0.4c0.2-0.2,0.3-0.5,0.4-0.8v-5.5c0-0.3-0.1-0.6-0.4-0.8
	C49.4,322.1,49.1,321.9,48.8,321.9z M49.1,328.7c0,0.1,0,0.2-0.1,0.2c-0.1,0.1-0.1,0.1-0.2,0.1H24.2c-0.1,0-0.2,0-0.2-0.1
	c-0.1-0.1-0.1-0.1-0.1-0.2v-5.5c0,0,0-0.1,0-0.1c0,0,0-0.1,0.1-0.1c0,0,0.1-0.1,0.1-0.1c0,0,0.1,0,0.1,0h24.6c0.1,0,0.2,0,0.2,0.1
	c0.1,0.1,0.1,0.1,0.1,0.2L49.1,328.7z"/>
</svg>
