<?xml version="1.0" encoding="utf-8"?>
<!-- Generator: Adobe Illustrator 25.2.1, SVG Export Plug-In . SVG Version: 6.00 Build 0)  -->
<svg version="1.1" id="Layer_1" xmlns="http://www.w3.org/2000/svg" xmlns:xlink="http://www.w3.org/1999/xlink" x="0px" y="0px"
	 viewBox="0 0 72 352" style="enable-background:new 0 0 72 352;" xml:space="preserve">
<style type="text/css">
	.st0{fill:url(#SVGID_1_);fill-opacity:0.25;}
	.st1{fill:#0073EC;}
	.st2{fill-rule:evenodd;clip-rule:evenodd;fill:#0073EC;}
	.st3{fill:url(#SVGID_2_);fill-opacity:0.25;}
	.st4{fill:#A644E5;}
	.st5{fill-rule:evenodd;clip-rule:evenodd;fill:#A644E5;}
	.st6{fill:url(#SVGID_3_);fill-opacity:0.25;}
	.st7{fill:#00CAAA;}
	.st8{fill-rule:evenodd;clip-rule:evenodd;fill:#00CAAA;}
	.st9{fill:#434F58;}
	.st10{fill-rule:evenodd;clip-rule:evenodd;fill:#434F58;}
	.st11{fill:url(#SVGID_4_);fill-opacity:0.25;}
	.st12{fill:url(#SVGID_5_);fill-opacity:0.25;}
	.st13{fill:#677983;}
	.st14{fill-rule:evenodd;clip-rule:evenodd;fill:#677983;}
</style>
<radialGradient id="SVGID_1_" cx="-249.9565" cy="592.2143" r="1" gradientTransform="matrix(7.041719e-16 11.5 14 -8.572528e-16 -8255 2910)" gradientUnits="userSpaceOnUse">
	<stop  offset="0" style="stop-color:#0073EC"/>
	<stop  offset="1" style="stop-color:#0073EC;stop-opacity:0"/>
</radialGradient>
<rect x="22" y="24" class="st0" width="28" height="23"/>
<path class="st1" d="M26.3,26.1c0-0.2,0.2-0.4,0.4-0.4c0.2,0,0.4,0.2,0.4,0.4c0,0.2-0.2,0.4-0.4,0.4C26.5,26.5,26.3,26.3,26.3,26.1z
	"/>
<path class="st1" d="M29,25.6c-0.2,0-0.4,0.2-0.4,0.4c0,0.2,0.2,0.4,0.4,0.4s0.4-0.2,0.4-0.4C29.5,25.8,29.3,25.6,29,25.6z"/>
<path class="st1" d="M24,26.1c0-0.2,0.2-0.4,0.4-0.4c0.2,0,0.4,0.2,0.4,0.4c0,0.2-0.2,0.4-0.4,0.4C24.2,26.5,24,26.3,24,26.1z"/>
<path class="st1" d="M29.5,30.2H24c-0.2,0-0.4-0.2-0.4-0.4s0.2-0.4,0.4-0.4h5.4c0.2,0,0.4,0.2,0.4,0.4S29.7,30.2,29.5,30.2z"/>
<path class="st1" d="M29.5,31.3H24c-0.2,0-0.4,0.2-0.4,0.4s0.2,0.4,0.4,0.4h5.4c0.2,0,0.4-0.2,0.4-0.4S29.7,31.3,29.5,31.3z"/>
<path class="st1" d="M24,34.8h5.4c0.2,0,0.4,0.2,0.4,0.4c0,0.2-0.2,0.4-0.4,0.4H24c-0.2,0-0.4-0.2-0.4-0.4
	C23.7,35,23.8,34.8,24,34.8z"/>
<path class="st1" d="M29.5,33.1H24c-0.2,0-0.4,0.2-0.4,0.4c0,0.2,0.2,0.4,0.4,0.4h5.4c0.2,0,0.4-0.2,0.4-0.4
	C29.9,33.2,29.7,33.1,29.5,33.1z"/>
<path class="st1" d="M39.4,30.2H34c-0.2,0-0.4-0.2-0.4-0.4s0.2-0.4,0.4-0.4h5.4c0.2,0,0.4,0.2,0.4,0.4S39.7,30.2,39.4,30.2z"/>
<path class="st1" d="M34,35.9h5.4c0.2,0,0.4-0.2,0.4-0.4c0-0.2-0.2-0.4-0.4-0.4H34c-0.2,0-0.4,0.2-0.4,0.4
	C33.6,35.7,33.8,35.9,34,35.9z"/>
<path class="st1" d="M38.6,32.1h-2.9c-0.2,0-0.4-0.2-0.4-0.4s0.2-0.4,0.4-0.4h2.9c0.2,0,0.4,0.2,0.4,0.4S38.8,32.1,38.6,32.1z"/>
<path class="st1" d="M35.7,33.9h5.4c0.2,0,0.4-0.2,0.4-0.4c0-0.2-0.2-0.4-0.4-0.4h-5.4c-0.2,0-0.4,0.2-0.4,0.4
	C35.3,33.7,35.5,33.9,35.7,33.9z"/>
<path class="st1" d="M46.3,32.1h-6c-0.2,0-0.4-0.2-0.4-0.4s0.2-0.4,0.4-0.4h6c0.2,0,0.4,0.2,0.4,0.4S46.5,32.1,46.3,32.1z"/>
<path class="st1" d="M46.3,33.1h-3.4c-0.2,0-0.4,0.2-0.4,0.4c0,0.2,0.2,0.4,0.4,0.4h3.4c0.2,0,0.4-0.2,0.4-0.4
	C46.7,33.2,46.5,33.1,46.3,33.1z"/>
<path class="st1" d="M39.4,38.3H34c-0.2,0-0.4-0.2-0.4-0.4c0-0.2,0.2-0.4,0.4-0.4h5.4c0.2,0,0.4,0.2,0.4,0.4
	C39.8,38.1,39.7,38.3,39.4,38.3z"/>
<path class="st1" d="M39.4,43.2H34c-0.2,0-0.4,0.2-0.4,0.4c0,0.2,0.2,0.4,0.4,0.4h5.4c0.2,0,0.4-0.2,0.4-0.4
	C39.8,43.4,39.7,43.2,39.4,43.2z"/>
<path class="st1" d="M38.6,40.2h-2.9c-0.2,0-0.4-0.2-0.4-0.4c0-0.2,0.2-0.4,0.4-0.4h2.9c0.2,0,0.4,0.2,0.4,0.4
	C39,40,38.8,40.2,38.6,40.2z"/>
<path class="st1" d="M41.1,41.1h-5.4c-0.2,0-0.4,0.2-0.4,0.4c0,0.2,0.2,0.4,0.4,0.4h5.4c0.2,0,0.4-0.2,0.4-0.4
	C41.5,41.3,41.3,41.1,41.1,41.1z"/>
<path class="st1" d="M40.3,39.4h6c0.2,0,0.4,0.2,0.4,0.4c0,0.2-0.2,0.4-0.4,0.4h-6c-0.2,0-0.4-0.2-0.4-0.4
	C39.9,39.5,40.1,39.4,40.3,39.4z"/>
<path class="st1" d="M46.3,41.1h-3.4c-0.2,0-0.4,0.2-0.4,0.4c0,0.2,0.2,0.4,0.4,0.4h3.4c0.2,0,0.4-0.2,0.4-0.4
	C46.7,41.3,46.5,41.1,46.3,41.1z"/>
<path class="st2" d="M49.9,24.2v3.1h0v20.1c0,0.1-0.1,0.2-0.2,0.2H22.2c-0.1,0-0.2-0.1-0.2-0.2V28.1h0v-3.9c0-0.1,0.1-0.2,0.2-0.2
	h27.5C49.9,24,49.9,24.1,49.9,24.2z M49.2,24.8H22.8v2.5h26.4V24.8z M31,28.1h-8.2v18.7H31V28.1z M31.8,46.8h17.4V28.1H31.8V46.8z"
	/>
<g>
	
		<radialGradient id="SVGID_2_" cx="-249.9565" cy="592.2143" r="1" gradientTransform="matrix(7.041719e-16 11.5 14 -8.572528e-16 -8255 2966)" gradientUnits="userSpaceOnUse">
		<stop  offset="0" style="stop-color:#A644E5"/>
		<stop  offset="1" style="stop-color:#A644E5;stop-opacity:0"/>
	</radialGradient>
	<rect x="22" y="80" class="st3" width="28" height="23"/>
</g>
<path class="st4" d="M26.3,82.1c0-0.2,0.2-0.4,0.4-0.4c0.2,0,0.4,0.2,0.4,0.4c0,0.2-0.2,0.4-0.4,0.4C26.5,82.5,26.3,82.3,26.3,82.1z
	"/>
<path class="st4" d="M29,81.6c-0.2,0-0.4,0.2-0.4,0.4c0,0.2,0.2,0.4,0.4,0.4s0.4-0.2,0.4-0.4C29.5,81.8,29.3,81.6,29,81.6z"/>
<path class="st4" d="M24,82.1c0-0.2,0.2-0.4,0.4-0.4c0.2,0,0.4,0.2,0.4,0.4c0,0.2-0.2,0.4-0.4,0.4C24.2,82.5,24,82.3,24,82.1z"/>
<path class="st4" d="M29.5,86.2H24c-0.2,0-0.4-0.2-0.4-0.4c0-0.2,0.2-0.4,0.4-0.4h5.4c0.2,0,0.4,0.2,0.4,0.4
	C29.9,86.1,29.7,86.2,29.5,86.2z"/>
<path class="st4" d="M29.5,87.3H24c-0.2,0-0.4,0.2-0.4,0.4s0.2,0.4,0.4,0.4h5.4c0.2,0,0.4-0.2,0.4-0.4S29.7,87.3,29.5,87.3z"/>
<path class="st4" d="M24,90.8h5.4c0.2,0,0.4,0.2,0.4,0.4c0,0.2-0.2,0.4-0.4,0.4H24c-0.2,0-0.4-0.2-0.4-0.4
	C23.7,91,23.8,90.8,24,90.8z"/>
<path class="st4" d="M29.5,89.1H24c-0.2,0-0.4,0.2-0.4,0.4c0,0.2,0.2,0.4,0.4,0.4h5.4c0.2,0,0.4-0.2,0.4-0.4
	C29.9,89.2,29.7,89.1,29.5,89.1z"/>
<path class="st4" d="M39.4,86.2H34c-0.2,0-0.4-0.2-0.4-0.4c0-0.2,0.2-0.4,0.4-0.4h5.4c0.2,0,0.4,0.2,0.4,0.4
	C39.8,86.1,39.7,86.2,39.4,86.2z"/>
<path class="st4" d="M34,91.9h5.4c0.2,0,0.4-0.2,0.4-0.4c0-0.2-0.2-0.4-0.4-0.4H34c-0.2,0-0.4,0.2-0.4,0.4
	C33.6,91.7,33.8,91.9,34,91.9z"/>
<path class="st4" d="M38.6,88.1h-2.9c-0.2,0-0.4-0.2-0.4-0.4s0.2-0.4,0.4-0.4h2.9c0.2,0,0.4,0.2,0.4,0.4S38.8,88.1,38.6,88.1z"/>
<path class="st4" d="M35.7,89.9h5.4c0.2,0,0.4-0.2,0.4-0.4c0-0.2-0.2-0.4-0.4-0.4h-5.4c-0.2,0-0.4,0.2-0.4,0.4
	C35.3,89.7,35.5,89.9,35.7,89.9z"/>
<path class="st4" d="M46.3,88.1h-6c-0.2,0-0.4-0.2-0.4-0.4s0.2-0.4,0.4-0.4h6c0.2,0,0.4,0.2,0.4,0.4S46.5,88.1,46.3,88.1z"/>
<path class="st4" d="M46.3,89.1h-3.4c-0.2,0-0.4,0.2-0.4,0.4c0,0.2,0.2,0.4,0.4,0.4h3.4c0.2,0,0.4-0.2,0.4-0.4
	C46.7,89.2,46.5,89.1,46.3,89.1z"/>
<path class="st4" d="M39.4,94.3H34c-0.2,0-0.4-0.2-0.4-0.4c0-0.2,0.2-0.4,0.4-0.4h5.4c0.2,0,0.4,0.2,0.4,0.4
	C39.8,94.1,39.7,94.3,39.4,94.3z"/>
<path class="st4" d="M39.4,99.2H34c-0.2,0-0.4,0.2-0.4,0.4c0,0.2,0.2,0.4,0.4,0.4h5.4c0.2,0,0.4-0.2,0.4-0.4
	C39.8,99.4,39.7,99.2,39.4,99.2z"/>
<path class="st4" d="M38.6,96.2h-2.9c-0.2,0-0.4-0.2-0.4-0.4c0-0.2,0.2-0.4,0.4-0.4h2.9c0.2,0,0.4,0.2,0.4,0.4
	C39,96,38.8,96.2,38.6,96.2z"/>
<path class="st4" d="M41.1,97.1h-5.4c-0.2,0-0.4,0.2-0.4,0.4c0,0.2,0.2,0.4,0.4,0.4h5.4c0.2,0,0.4-0.2,0.4-0.4
	C41.5,97.3,41.3,97.1,41.1,97.1z"/>
<path class="st4" d="M40.3,95.4h6c0.2,0,0.4,0.2,0.4,0.4c0,0.2-0.2,0.4-0.4,0.4h-6c-0.2,0-0.4-0.2-0.4-0.4
	C39.9,95.5,40.1,95.4,40.3,95.4z"/>
<path class="st4" d="M46.3,97.1h-3.4c-0.2,0-0.4,0.2-0.4,0.4c0,0.2,0.2,0.4,0.4,0.4h3.4c0.2,0,0.4-0.2,0.4-0.4
	C46.7,97.3,46.5,97.1,46.3,97.1z"/>
<path class="st5" d="M49.9,80.2v3.1h0v20.1c0,0.1-0.1,0.2-0.2,0.2H22.2c-0.1,0-0.2-0.1-0.2-0.2V84.1h0v-3.9c0-0.1,0.1-0.2,0.2-0.2
	h27.5C49.9,80,49.9,80.1,49.9,80.2z M49.2,80.8H22.8v2.5h26.4V80.8z M31,84.1h-8.2v18.7H31V84.1z M31.8,102.8h17.4V84.1H31.8V102.8z
	"/>
<g>
	
		<radialGradient id="SVGID_3_" cx="-249.9565" cy="592.2143" r="1" gradientTransform="matrix(7.041719e-16 11.5 14 -8.572528e-16 -8255 3022)" gradientUnits="userSpaceOnUse">
		<stop  offset="0" style="stop-color:#00CAAA"/>
		<stop  offset="1" style="stop-color:#00CAAA;stop-opacity:0"/>
	</radialGradient>
	<rect x="22" y="136" class="st6" width="28" height="23"/>
</g>
<path class="st7" d="M26.3,138.1c0-0.2,0.2-0.4,0.4-0.4c0.2,0,0.4,0.2,0.4,0.4c0,0.2-0.2,0.4-0.4,0.4
	C26.5,138.5,26.3,138.3,26.3,138.1z"/>
<path class="st7" d="M29,137.6c-0.2,0-0.4,0.2-0.4,0.4c0,0.2,0.2,0.4,0.4,0.4s0.4-0.2,0.4-0.4C29.5,137.8,29.3,137.6,29,137.6z"/>
<path class="st7" d="M24,138.1c0-0.2,0.2-0.4,0.4-0.4c0.2,0,0.4,0.2,0.4,0.4c0,0.2-0.2,0.4-0.4,0.4C24.2,138.5,24,138.3,24,138.1z"
	/>
<path class="st7" d="M29.5,142.2H24c-0.2,0-0.4-0.2-0.4-0.4s0.2-0.4,0.4-0.4h5.4c0.2,0,0.4,0.2,0.4,0.4S29.7,142.2,29.5,142.2z"/>
<path class="st7" d="M29.5,143.3H24c-0.2,0-0.4,0.2-0.4,0.4s0.2,0.4,0.4,0.4h5.4c0.2,0,0.4-0.2,0.4-0.4S29.7,143.3,29.5,143.3z"/>
<path class="st7" d="M24,146.8h5.4c0.2,0,0.4,0.2,0.4,0.4c0,0.2-0.2,0.4-0.4,0.4H24c-0.2,0-0.4-0.2-0.4-0.4
	C23.7,147,23.8,146.8,24,146.8z"/>
<path class="st7" d="M29.5,145.1H24c-0.2,0-0.4,0.2-0.4,0.4c0,0.2,0.2,0.4,0.4,0.4h5.4c0.2,0,0.4-0.2,0.4-0.4
	C29.9,145.2,29.7,145.1,29.5,145.1z"/>
<path class="st7" d="M39.4,142.2H34c-0.2,0-0.4-0.2-0.4-0.4s0.2-0.4,0.4-0.4h5.4c0.2,0,0.4,0.2,0.4,0.4S39.7,142.2,39.4,142.2z"/>
<path class="st7" d="M34,147.9h5.4c0.2,0,0.4-0.2,0.4-0.4c0-0.2-0.2-0.4-0.4-0.4H34c-0.2,0-0.4,0.2-0.4,0.4
	C33.6,147.8,33.8,147.9,34,147.9z"/>
<path class="st7" d="M38.6,144.1h-2.9c-0.2,0-0.4-0.2-0.4-0.4s0.2-0.4,0.4-0.4h2.9c0.2,0,0.4,0.2,0.4,0.4S38.8,144.1,38.6,144.1z"/>
<path class="st7" d="M35.7,145.9h5.4c0.2,0,0.4-0.2,0.4-0.4c0-0.2-0.2-0.4-0.4-0.4h-5.4c-0.2,0-0.4,0.2-0.4,0.4
	C35.3,145.7,35.5,145.9,35.7,145.9z"/>
<path class="st7" d="M46.3,144.1h-6c-0.2,0-0.4-0.2-0.4-0.4s0.2-0.4,0.4-0.4h6c0.2,0,0.4,0.2,0.4,0.4S46.5,144.1,46.3,144.1z"/>
<path class="st7" d="M46.3,145.1h-3.4c-0.2,0-0.4,0.2-0.4,0.4c0,0.2,0.2,0.4,0.4,0.4h3.4c0.2,0,0.4-0.2,0.4-0.4
	C46.7,145.2,46.5,145.1,46.3,145.1z"/>
<path class="st7" d="M39.4,150.3H34c-0.2,0-0.4-0.2-0.4-0.4s0.2-0.4,0.4-0.4h5.4c0.2,0,0.4,0.2,0.4,0.4S39.7,150.3,39.4,150.3z"/>
<path class="st7" d="M39.4,155.2H34c-0.2,0-0.4,0.2-0.4,0.4s0.2,0.4,0.4,0.4h5.4c0.2,0,0.4-0.2,0.4-0.4S39.7,155.2,39.4,155.2z"/>
<path class="st7" d="M38.6,152.2h-2.9c-0.2,0-0.4-0.2-0.4-0.4c0-0.2,0.2-0.4,0.4-0.4h2.9c0.2,0,0.4,0.2,0.4,0.4
	C39,152,38.8,152.2,38.6,152.2z"/>
<path class="st7" d="M41.1,153.1h-5.4c-0.2,0-0.4,0.2-0.4,0.4c0,0.2,0.2,0.4,0.4,0.4h5.4c0.2,0,0.4-0.2,0.4-0.4
	C41.5,153.3,41.3,153.1,41.1,153.1z"/>
<path class="st7" d="M40.3,151.4h6c0.2,0,0.4,0.2,0.4,0.4c0,0.2-0.2,0.4-0.4,0.4h-6c-0.2,0-0.4-0.2-0.4-0.4
	C39.9,151.5,40.1,151.4,40.3,151.4z"/>
<path class="st7" d="M46.3,153.1h-3.4c-0.2,0-0.4,0.2-0.4,0.4c0,0.2,0.2,0.4,0.4,0.4h3.4c0.2,0,0.4-0.2,0.4-0.4
	C46.7,153.3,46.5,153.1,46.3,153.1z"/>
<path class="st8" d="M49.9,136.2v3.1h0v20.1c0,0.1-0.1,0.2-0.2,0.2H22.2c-0.1,0-0.2-0.1-0.2-0.2v-19.3h0v-3.9c0-0.1,0.1-0.2,0.2-0.2
	h27.5C49.9,136,49.9,136.1,49.9,136.2z M49.2,136.8H22.8v2.5h26.4V136.8z M31,140.1h-8.2v18.7H31V140.1z M31.8,158.8h17.4v-18.7
	H31.8V158.8z"/>
<path class="st9" d="M26.3,194.1c0-0.2,0.2-0.4,0.4-0.4c0.2,0,0.4,0.2,0.4,0.4c0,0.2-0.2,0.4-0.4,0.4
	C26.5,194.5,26.3,194.3,26.3,194.1z"/>
<path class="st9" d="M29,193.6c-0.2,0-0.4,0.2-0.4,0.4c0,0.2,0.2,0.4,0.4,0.4s0.4-0.2,0.4-0.4C29.5,193.8,29.3,193.6,29,193.6z"/>
<path class="st9" d="M24,194.1c0-0.2,0.2-0.4,0.4-0.4c0.2,0,0.4,0.2,0.4,0.4c0,0.2-0.2,0.4-0.4,0.4C24.2,194.5,24,194.3,24,194.1z"
	/>
<path class="st9" d="M29.5,198.2H24c-0.2,0-0.4-0.2-0.4-0.4s0.2-0.4,0.4-0.4h5.4c0.2,0,0.4,0.2,0.4,0.4S29.7,198.2,29.5,198.2z"/>
<path class="st9" d="M29.5,199.3H24c-0.2,0-0.4,0.2-0.4,0.4s0.2,0.4,0.4,0.4h5.4c0.2,0,0.4-0.2,0.4-0.4S29.7,199.3,29.5,199.3z"/>
<path class="st9" d="M24,202.8h5.4c0.2,0,0.4,0.2,0.4,0.4c0,0.2-0.2,0.4-0.4,0.4H24c-0.2,0-0.4-0.2-0.4-0.4
	C23.7,203,23.8,202.8,24,202.8z"/>
<path class="st9" d="M29.5,201.1H24c-0.2,0-0.4,0.2-0.4,0.4c0,0.2,0.2,0.4,0.4,0.4h5.4c0.2,0,0.4-0.2,0.4-0.4
	C29.9,201.2,29.7,201.1,29.5,201.1z"/>
<path class="st9" d="M39.4,198.2H34c-0.2,0-0.4-0.2-0.4-0.4s0.2-0.4,0.4-0.4h5.4c0.2,0,0.4,0.2,0.4,0.4S39.7,198.2,39.4,198.2z"/>
<path class="st9" d="M34,203.9h5.4c0.2,0,0.4-0.2,0.4-0.4c0-0.2-0.2-0.4-0.4-0.4H34c-0.2,0-0.4,0.2-0.4,0.4
	C33.6,203.8,33.8,203.9,34,203.9z"/>
<path class="st9" d="M38.6,200.1h-2.9c-0.2,0-0.4-0.2-0.4-0.4s0.2-0.4,0.4-0.4h2.9c0.2,0,0.4,0.2,0.4,0.4S38.8,200.1,38.6,200.1z"/>
<path class="st9" d="M35.7,201.9h5.4c0.2,0,0.4-0.2,0.4-0.4c0-0.2-0.2-0.4-0.4-0.4h-5.4c-0.2,0-0.4,0.2-0.4,0.4
	C35.3,201.7,35.5,201.9,35.7,201.9z"/>
<path class="st9" d="M46.3,200.1h-6c-0.2,0-0.4-0.2-0.4-0.4s0.2-0.4,0.4-0.4h6c0.2,0,0.4,0.2,0.4,0.4S46.5,200.1,46.3,200.1z"/>
<path class="st9" d="M46.3,201.1h-3.4c-0.2,0-0.4,0.2-0.4,0.4c0,0.2,0.2,0.4,0.4,0.4h3.4c0.2,0,0.4-0.2,0.4-0.4
	C46.7,201.2,46.5,201.1,46.3,201.1z"/>
<path class="st9" d="M39.4,206.3H34c-0.2,0-0.4-0.2-0.4-0.4s0.2-0.4,0.4-0.4h5.4c0.2,0,0.4,0.2,0.4,0.4S39.7,206.3,39.4,206.3z"/>
<path class="st9" d="M39.4,211.2H34c-0.2,0-0.4,0.2-0.4,0.4s0.2,0.4,0.4,0.4h5.4c0.2,0,0.4-0.2,0.4-0.4S39.7,211.2,39.4,211.2z"/>
<path class="st9" d="M38.6,208.2h-2.9c-0.2,0-0.4-0.2-0.4-0.4c0-0.2,0.2-0.4,0.4-0.4h2.9c0.2,0,0.4,0.2,0.4,0.4
	C39,208,38.8,208.2,38.6,208.2z"/>
<path class="st9" d="M41.1,209.1h-5.4c-0.2,0-0.4,0.2-0.4,0.4c0,0.2,0.2,0.4,0.4,0.4h5.4c0.2,0,0.4-0.2,0.4-0.4
	C41.5,209.3,41.3,209.1,41.1,209.1z"/>
<path class="st9" d="M40.3,207.4h6c0.2,0,0.4,0.2,0.4,0.4c0,0.2-0.2,0.4-0.4,0.4h-6c-0.2,0-0.4-0.2-0.4-0.4
	C39.9,207.5,40.1,207.4,40.3,207.4z"/>
<path class="st9" d="M46.3,209.1h-3.4c-0.2,0-0.4,0.2-0.4,0.4c0,0.2,0.2,0.4,0.4,0.4h3.4c0.2,0,0.4-0.2,0.4-0.4
	C46.7,209.3,46.5,209.1,46.3,209.1z"/>
<path class="st10" d="M49.9,192.2v3.1h0v20.1c0,0.1-0.1,0.2-0.2,0.2H22.2c-0.1,0-0.2-0.1-0.2-0.2v-19.3h0v-3.9
	c0-0.1,0.1-0.2,0.2-0.2h27.5C49.9,192,49.9,192.1,49.9,192.2z M49.2,192.8H22.8v2.5h26.4V192.8z M31,196.1h-8.2v18.7H31V196.1z
	 M31.8,214.8h17.4v-18.7H31.8V214.8z"/>
<g>
	
		<radialGradient id="SVGID_4_" cx="-249.9565" cy="592.2143" r="1" gradientTransform="matrix(7.041719e-16 11.5 14 -8.572528e-16 -8255 3134)" gradientUnits="userSpaceOnUse">
		<stop  offset="0" style="stop-color:#434F58"/>
		<stop  offset="1" style="stop-color:#434F58;stop-opacity:0"/>
	</radialGradient>
	<rect x="22" y="248" class="st11" width="28" height="23"/>
</g>
<path class="st9" d="M26.3,250.1c0-0.2,0.2-0.4,0.4-0.4c0.2,0,0.4,0.2,0.4,0.4c0,0.2-0.2,0.4-0.4,0.4
	C26.5,250.5,26.3,250.3,26.3,250.1z"/>
<path class="st9" d="M29,249.6c-0.2,0-0.4,0.2-0.4,0.4c0,0.2,0.2,0.4,0.4,0.4s0.4-0.2,0.4-0.4C29.5,249.8,29.3,249.6,29,249.6z"/>
<path class="st9" d="M24,250.1c0-0.2,0.2-0.4,0.4-0.4c0.2,0,0.4,0.2,0.4,0.4c0,0.2-0.2,0.4-0.4,0.4C24.2,250.5,24,250.3,24,250.1z"
	/>
<path class="st9" d="M29.5,254.2H24c-0.2,0-0.4-0.2-0.4-0.4s0.2-0.4,0.4-0.4h5.4c0.2,0,0.4,0.2,0.4,0.4S29.7,254.2,29.5,254.2z"/>
<path class="st9" d="M29.5,255.3H24c-0.2,0-0.4,0.2-0.4,0.4s0.2,0.4,0.4,0.4h5.4c0.2,0,0.4-0.2,0.4-0.4S29.7,255.3,29.5,255.3z"/>
<path class="st9" d="M24,258.8h5.4c0.2,0,0.4,0.2,0.4,0.4c0,0.2-0.2,0.4-0.4,0.4H24c-0.2,0-0.4-0.2-0.4-0.4
	C23.7,259,23.8,258.8,24,258.8z"/>
<path class="st9" d="M29.5,257.1H24c-0.2,0-0.4,0.2-0.4,0.4c0,0.2,0.2,0.4,0.4,0.4h5.4c0.2,0,0.4-0.2,0.4-0.4
	C29.9,257.2,29.7,257.1,29.5,257.1z"/>
<path class="st9" d="M39.4,254.2H34c-0.2,0-0.4-0.2-0.4-0.4s0.2-0.4,0.4-0.4h5.4c0.2,0,0.4,0.2,0.4,0.4S39.7,254.2,39.4,254.2z"/>
<path class="st9" d="M34,259.9h5.4c0.2,0,0.4-0.2,0.4-0.4c0-0.2-0.2-0.4-0.4-0.4H34c-0.2,0-0.4,0.2-0.4,0.4
	C33.6,259.8,33.8,259.9,34,259.9z"/>
<path class="st9" d="M38.6,256.1h-2.9c-0.2,0-0.4-0.2-0.4-0.4s0.2-0.4,0.4-0.4h2.9c0.2,0,0.4,0.2,0.4,0.4S38.8,256.1,38.6,256.1z"/>
<path class="st9" d="M35.7,257.9h5.4c0.2,0,0.4-0.2,0.4-0.4c0-0.2-0.2-0.4-0.4-0.4h-5.4c-0.2,0-0.4,0.2-0.4,0.4
	C35.3,257.7,35.5,257.9,35.7,257.9z"/>
<path class="st9" d="M46.3,256.1h-6c-0.2,0-0.4-0.2-0.4-0.4s0.2-0.4,0.4-0.4h6c0.2,0,0.4,0.2,0.4,0.4S46.5,256.1,46.3,256.1z"/>
<path class="st9" d="M46.3,257.1h-3.4c-0.2,0-0.4,0.2-0.4,0.4c0,0.2,0.2,0.4,0.4,0.4h3.4c0.2,0,0.4-0.2,0.4-0.4
	C46.7,257.2,46.5,257.1,46.3,257.1z"/>
<path class="st9" d="M39.4,262.3H34c-0.2,0-0.4-0.2-0.4-0.4c0-0.2,0.2-0.4,0.4-0.4h5.4c0.2,0,0.4,0.2,0.4,0.4
	C39.8,262.1,39.7,262.3,39.4,262.3z"/>
<path class="st9" d="M39.4,267.2H34c-0.2,0-0.4,0.2-0.4,0.4c0,0.2,0.2,0.4,0.4,0.4h5.4c0.2,0,0.4-0.2,0.4-0.4
	C39.8,267.4,39.7,267.2,39.4,267.2z"/>
<path class="st9" d="M38.6,264.2h-2.9c-0.2,0-0.4-0.2-0.4-0.4c0-0.2,0.2-0.4,0.4-0.4h2.9c0.2,0,0.4,0.2,0.4,0.4
	C39,264,38.8,264.2,38.6,264.2z"/>
<path class="st9" d="M41.1,265.1h-5.4c-0.2,0-0.4,0.2-0.4,0.4c0,0.2,0.2,0.4,0.4,0.4h5.4c0.2,0,0.4-0.2,0.4-0.4
	C41.5,265.3,41.3,265.1,41.1,265.1z"/>
<path class="st9" d="M40.3,263.4h6c0.2,0,0.4,0.2,0.4,0.4c0,0.2-0.2,0.4-0.4,0.4h-6c-0.2,0-0.4-0.2-0.4-0.4
	C39.9,263.5,40.1,263.4,40.3,263.4z"/>
<path class="st9" d="M46.3,265.1h-3.4c-0.2,0-0.4,0.2-0.4,0.4c0,0.2,0.2,0.4,0.4,0.4h3.4c0.2,0,0.4-0.2,0.4-0.4
	C46.7,265.3,46.5,265.1,46.3,265.1z"/>
<path class="st10" d="M49.9,248.2v3.1h0v20.1c0,0.1-0.1,0.2-0.2,0.2H22.2c-0.1,0-0.2-0.1-0.2-0.2v-19.3h0v-3.9
	c0-0.1,0.1-0.2,0.2-0.2h27.5C49.9,248,49.9,248.1,49.9,248.2z M49.2,248.8H22.8v2.5h26.4V248.8z M31,252.1h-8.2v18.7H31V252.1z
	 M31.8,270.8h17.4v-18.7H31.8V270.8z"/>
<radialGradient id="SVGID_5_" cx="-249.9565" cy="592.2143" r="1" gradientTransform="matrix(7.041719e-16 11.5 14 -8.572528e-16 -8255 3190)" gradientUnits="userSpaceOnUse">
	<stop  offset="0" style="stop-color:#677983"/>
	<stop  offset="1" style="stop-color:#677983;stop-opacity:0"/>
</radialGradient>
<rect x="22" y="304" class="st12" width="28" height="23"/>
<path class="st13" d="M26.3,306.1c0-0.2,0.2-0.4,0.4-0.4c0.2,0,0.4,0.2,0.4,0.4c0,0.2-0.2,0.4-0.4,0.4
	C26.5,306.5,26.3,306.3,26.3,306.1z"/>
<path class="st13" d="M29,305.6c-0.2,0-0.4,0.2-0.4,0.4c0,0.2,0.2,0.4,0.4,0.4s0.4-0.2,0.4-0.4C29.5,305.8,29.3,305.6,29,305.6z"/>
<path class="st13" d="M24,306.1c0-0.2,0.2-0.4,0.4-0.4c0.2,0,0.4,0.2,0.4,0.4c0,0.2-0.2,0.4-0.4,0.4C24.2,306.5,24,306.3,24,306.1z"
	/>
<path class="st13" d="M29.5,310.2H24c-0.2,0-0.4-0.2-0.4-0.4c0-0.2,0.2-0.4,0.4-0.4h5.4c0.2,0,0.4,0.2,0.4,0.4
	C29.9,310.1,29.7,310.2,29.5,310.2z"/>
<path class="st13" d="M29.5,311.3H24c-0.2,0-0.4,0.2-0.4,0.4c0,0.2,0.2,0.4,0.4,0.4h5.4c0.2,0,0.4-0.2,0.4-0.4
	C29.9,311.5,29.7,311.3,29.5,311.3z"/>
<path class="st13" d="M24,314.8h5.4c0.2,0,0.4,0.2,0.4,0.4c0,0.2-0.2,0.4-0.4,0.4H24c-0.2,0-0.4-0.2-0.4-0.4
	C23.7,315,23.8,314.8,24,314.8z"/>
<path class="st13" d="M29.5,313.1H24c-0.2,0-0.4,0.2-0.4,0.4c0,0.2,0.2,0.4,0.4,0.4h5.4c0.2,0,0.4-0.2,0.4-0.4
	C29.9,313.2,29.7,313.1,29.5,313.1z"/>
<path class="st13" d="M39.4,310.2H34c-0.2,0-0.4-0.2-0.4-0.4c0-0.2,0.2-0.4,0.4-0.4h5.4c0.2,0,0.4,0.2,0.4,0.4
	C39.8,310.1,39.7,310.2,39.4,310.2z"/>
<path class="st13" d="M34,315.9h5.4c0.2,0,0.4-0.2,0.4-0.4c0-0.2-0.2-0.4-0.4-0.4H34c-0.2,0-0.4,0.2-0.4,0.4
	C33.6,315.8,33.8,315.9,34,315.9z"/>
<path class="st13" d="M38.6,312.1h-2.9c-0.2,0-0.4-0.2-0.4-0.4c0-0.2,0.2-0.4,0.4-0.4h2.9c0.2,0,0.4,0.2,0.4,0.4
	C39,311.9,38.8,312.1,38.6,312.1z"/>
<path class="st13" d="M35.7,313.9h5.4c0.2,0,0.4-0.2,0.4-0.4c0-0.2-0.2-0.4-0.4-0.4h-5.4c-0.2,0-0.4,0.2-0.4,0.4
	C35.3,313.7,35.5,313.9,35.7,313.9z"/>
<path class="st13" d="M46.3,312.1h-6c-0.2,0-0.4-0.2-0.4-0.4c0-0.2,0.2-0.4,0.4-0.4h6c0.2,0,0.4,0.2,0.4,0.4
	C46.7,311.9,46.5,312.1,46.3,312.1z"/>
<path class="st13" d="M46.3,313.1h-3.4c-0.2,0-0.4,0.2-0.4,0.4c0,0.2,0.2,0.4,0.4,0.4h3.4c0.2,0,0.4-0.2,0.4-0.4
	C46.7,313.2,46.5,313.1,46.3,313.1z"/>
<path class="st13" d="M39.4,318.3H34c-0.2,0-0.4-0.2-0.4-0.4c0-0.2,0.2-0.4,0.4-0.4h5.4c0.2,0,0.4,0.2,0.4,0.4
	C39.8,318.1,39.7,318.3,39.4,318.3z"/>
<path class="st13" d="M39.4,323.2H34c-0.2,0-0.4,0.2-0.4,0.4c0,0.2,0.2,0.4,0.4,0.4h5.4c0.2,0,0.4-0.2,0.4-0.4
	C39.8,323.4,39.7,323.2,39.4,323.2z"/>
<path class="st13" d="M38.6,320.2h-2.9c-0.2,0-0.4-0.2-0.4-0.4c0-0.2,0.2-0.4,0.4-0.4h2.9c0.2,0,0.4,0.2,0.4,0.4
	C39,320,38.8,320.2,38.6,320.2z"/>
<path class="st13" d="M41.1,321.1h-5.4c-0.2,0-0.4,0.2-0.4,0.4c0,0.2,0.2,0.4,0.4,0.4h5.4c0.2,0,0.4-0.2,0.4-0.4
	C41.5,321.3,41.3,321.1,41.1,321.1z"/>
<path class="st13" d="M40.3,319.4h6c0.2,0,0.4,0.2,0.4,0.4c0,0.2-0.2,0.4-0.4,0.4h-6c-0.2,0-0.4-0.2-0.4-0.4
	C39.9,319.5,40.1,319.4,40.3,319.4z"/>
<path class="st13" d="M46.3,321.1h-3.4c-0.2,0-0.4,0.2-0.4,0.4c0,0.2,0.2,0.4,0.4,0.4h3.4c0.2,0,0.4-0.2,0.4-0.4
	C46.7,321.3,46.5,321.1,46.3,321.1z"/>
<path class="st14" d="M49.9,304.2v3.1h0v20.1c0,0.1-0.1,0.2-0.2,0.2H22.2c-0.1,0-0.2-0.1-0.2-0.2v-19.3h0v-3.9
	c0-0.1,0.1-0.2,0.2-0.2h27.5C49.9,304,49.9,304.1,49.9,304.2z M49.2,304.8H22.8v2.5h26.4V304.8z M31,308.1h-8.2v18.7H31V308.1z
	 M31.8,326.8h17.4v-18.7H31.8V326.8z"/>
</svg>
