<?xml version="1.0" encoding="utf-8"?>
<!-- Generator: Adobe Illustrator 25.2.1, SVG Export Plug-In . SVG Version: 6.00 Build 0)  -->
<svg version="1.1" id="Layer_1" xmlns="http://www.w3.org/2000/svg" xmlns:xlink="http://www.w3.org/1999/xlink" x="0px" y="0px"
	 viewBox="0 0 72 352" style="enable-background:new 0 0 72 352;" xml:space="preserve">
<style type="text/css">
	.st0{fill:url(#SVGID_1_);fill-opacity:0.25;}
	.st1{fill-rule:evenodd;clip-rule:evenodd;fill:#0073EC;}
	.st2{fill:#0073EC;}
	.st3{fill:url(#SVGID_2_);fill-opacity:0.25;}
	.st4{fill-rule:evenodd;clip-rule:evenodd;fill:#A644E5;}
	.st5{fill:#A644E5;}
	.st6{fill:url(#SVGID_3_);fill-opacity:0.25;}
	.st7{fill-rule:evenodd;clip-rule:evenodd;fill:#00CAAA;}
	.st8{fill:#00CAAA;}
	.st9{fill-rule:evenodd;clip-rule:evenodd;fill:#434F58;}
	.st10{fill:#434F58;}
	.st11{fill:url(#SVGID_4_);fill-opacity:0.25;}
	.st12{fill:url(#SVGID_5_);fill-opacity:0.25;}
	.st13{fill-rule:evenodd;clip-rule:evenodd;fill:#677983;}
	.st14{fill:#677983;}
</style>
<radialGradient id="SVGID_1_" cx="-269.8376" cy="559.323" r="1" gradientTransform="matrix(13.8833 -19.2 -20.5182 -14.8365 15257.4033 3155.7085)" gradientUnits="userSpaceOnUse">
	<stop  offset="0" style="stop-color:#0073EC"/>
	<stop  offset="1" style="stop-color:#0073EC;stop-opacity:0"/>
	<stop  offset="1" style="stop-color:#0073EC;stop-opacity:0"/>
</radialGradient>
<path class="st0" d="M23.2,19.6c0.2-0.2,0.5-0.4,0.7-0.5c0.1,0,5.5-0.1,12.1,0l12,0l0.3,0.2c0.1,0.1,0.3,0.3,0.4,0.4
	c0.1,0.1,1.1,2.1,2.2,4.3c2.3,4.6,2.1,4.2,1.9,5.4c-0.2,1.2-0.8,2.4-1.6,3.1l-0.4,0.3l0,8.6l0,8.6h0.4c0.3,0,0.4,0,0.5,0.2
	c0.2,0.2,0.2,0.5,0,0.8L51.6,51H36H20.4l-0.2-0.2c-0.2-0.2-0.2-0.5,0-0.8c0.1-0.2,0.2-0.2,0.5-0.2h0.4v-8.6v-8.6l-0.3-0.2
	c-0.8-0.6-1.5-2-1.8-3.2c-0.2-1.1-0.3-0.8,1.9-5.4C22.1,21.6,23.1,19.7,23.2,19.6z"/>
<path class="st1" d="M24,19c-0.3,0.1-0.6,0.3-0.7,0.5c-0.1,0.1-1.1,2.1-2.2,4.3c-2.3,4.6-2.1,4.2-1.9,5.4c0.2,1.2,1,2.6,1.8,3.2
	l0.3,0.2v17.1h-0.4c-0.3,0-0.4,0-0.5,0.2c-0.2,0.2-0.2,0.5,0,0.8l0.2,0.2h31.2l0.2-0.2c0.2-0.2,0.2-0.5,0-0.8
	c-0.1-0.2-0.2-0.2-0.5-0.2h-0.4l0-17.1l0.4-0.3c0.8-0.7,1.4-1.9,1.6-3.1c0.2-1.1,0.3-0.8-1.9-5.4c-1.1-2.3-2.1-4.2-2.2-4.3
	c-0.1-0.1-0.3-0.3-0.4-0.4L48.1,19l-12,0C29.5,19,24.1,19,24,19z M48,20.3c0.1,0.1,3.6,7.1,3.6,7.3c0,0-0.3,0-0.7,0
	c-0.7,0-0.7,0-0.9,0.2c-0.2,0.2-0.2,0.5,0,0.8c0.1,0.2,0.2,0.2,1,0.2c1,0,1,0,0.7,0.8c-0.4,1.3-1.3,2.3-2.5,2.7
	c-0.6,0.2-1.5,0.2-2-0.1c-0.9-0.4-1.7-1.1-2.1-2c-0.2-0.5-0.4-1.3-0.4-1.4c0,0,0.9,0,1.8,0h1.8l0.1-0.2c0.1-0.1,0.1-0.2,0.1-0.3
	c0-0.2-0.2-0.5-0.3-0.6c-0.2-0.1-24.7-0.1-24.9,0c-0.2,0.1-0.3,0.4-0.3,0.6c0,0.1,0.1,0.2,0.1,0.3l0.1,0.2h1.8c1,0,1.8,0,1.8,0
	c0.1,0.1-0.1,0.8-0.3,1.3c-0.4,0.9-1.2,1.7-2.1,2.1c-0.5,0.2-1.4,0.2-2,0.1c-1.1-0.3-2.2-1.4-2.5-2.7c-0.2-0.8-0.3-0.8,0.7-0.8
	c0.8,0,0.9,0,1-0.2c0.2-0.2,0.2-0.5,0-0.8c-0.1-0.2-0.2-0.2-0.9-0.2c-0.4,0-0.7,0-0.7,0c0-0.1,3.5-7.1,3.6-7.3l0.2-0.2h23.6L48,20.3
	z M35.5,28.8c0,0.2-0.2,0.9-0.4,1.3c-0.2,0.6-0.8,1.3-1.3,1.6c-0.2,0.1-0.6,0.3-0.9,0.5c-0.5,0.2-0.6,0.2-1.3,0.2
	c-0.6,0-0.8-0.1-1.1-0.2c-0.8-0.4-1.6-1.1-1.9-2c-0.1-0.3-0.3-1.1-0.3-1.2c0-0.1,0.7-0.1,3.6-0.1C33.9,28.8,35.5,28.8,35.5,28.8z
	 M43.7,28.9c0,0.2-0.2,1-0.4,1.4c-0.4,0.8-1.2,1.6-2,1.9c-0.3,0.1-0.6,0.2-1.1,0.2c-0.6,0-0.8,0-1.2-0.2c-0.6-0.2-1-0.5-1.4-1
	c-0.5-0.6-0.9-1.3-1-2.2l0-0.3h3.6C43,28.8,43.7,28.8,43.7,28.9z M28.2,31.4c1.5,2.4,4.6,2.8,6.6,0.9c0.4-0.4,0.9-1,1-1.4
	c0.1-0.1,0.1-0.3,0.2-0.3c0,0,0.1,0.1,0.2,0.3c0.4,0.8,1.1,1.6,1.9,2.1c0.7,0.4,1.2,0.5,2,0.5c1.6,0,3.1-0.9,3.9-2.5l0.2-0.3
	l0.3,0.5c0.6,1,1.4,1.7,2.4,2.1c0.6,0.3,1.9,0.3,2.5,0.1c0.2-0.1,0.4-0.1,0.4-0.1s0,3.7,0,8.3v8.3h-1.7v-7.2c0-7.2,0-7.2-0.1-7.4
	l-0.1-0.2h-3.4c-3.3,0-3.4,0-3.5,0.2c-0.1,0.2-0.1,0.3-0.1,7.4v7.2H22.1v-8.3c0-4.6,0-8.3,0-8.3c0,0,0.2,0.1,0.4,0.1
	c0.5,0.1,1.6,0.1,2.1,0c1-0.3,2.2-1.3,2.8-2.3c0.2-0.4,0.3-0.5,0.3-0.3C27.9,30.9,28,31.2,28.2,31.4z M23.9,35.3
	c-0.1,0.2-0.1,0.2-0.1,6.2c0,5.8,0,6,0.1,6.2l0.1,0.2l14.7,0l0.4-0.4v-6.1c0-5.9,0-6.1-0.1-6.2l-0.1-0.2H24.1L23.9,35.3z M38.2,46.7
	l-13.4,0V36.2h13.4L38.2,46.7z M47.2,46.8h-5.4V36.2h5.4V46.8z M47.2,49.8h-5.4v-1.9h5.4V49.8z"/>
<path class="st2" d="M34.9,43.8c-0.6,0.3-1.2,0.5-1.9,0.5c-2,0-3.7-1.7-3.6-3.8c0-0.7,0.2-1.3,0.6-1.9c-1.1,0.6-1.9,1.8-1.9,3.1
	c0,2.1,1.6,3.7,3.6,3.8C33.1,45.6,34.3,44.9,34.9,43.8z"/>
<path class="st2" d="M31.9,38.5c-0.6,0-1.1,0.1-1.5,0.4c-0.3,0.5-0.5,1-0.5,1.6c0,1.8,1.4,3.2,3.2,3.3c0.5,0,1.1-0.1,1.6-0.4
	c0.3-0.5,0.4-1,0.4-1.6C35.1,39.9,33.7,38.5,31.9,38.5z"/>
<radialGradient id="SVGID_2_" cx="-269.8376" cy="559.323" r="1" gradientTransform="matrix(13.8833 -19.2 -20.5182 -14.8365 15257.4033 3211.7085)" gradientUnits="userSpaceOnUse">
	<stop  offset="0" style="stop-color:#A644E5"/>
	<stop  offset="1" style="stop-color:#A644E5;stop-opacity:0"/>
</radialGradient>
<path class="st3" d="M23.2,75.6c0.2-0.2,0.5-0.4,0.7-0.5c0.1,0,5.5-0.1,12.1,0l12,0l0.3,0.2c0.1,0.1,0.3,0.3,0.4,0.4
	c0.1,0.1,1.1,2.1,2.2,4.3c2.3,4.6,2.1,4.2,1.9,5.4c-0.2,1.2-0.8,2.4-1.6,3.1l-0.4,0.3l0,8.6l0,8.6h0.4c0.3,0,0.4,0,0.5,0.2
	c0.2,0.2,0.2,0.5,0,0.8l-0.2,0.2H36H20.4l-0.2-0.2c-0.2-0.2-0.2-0.5,0-0.8c0.1-0.2,0.2-0.2,0.5-0.2h0.4v-8.6v-8.6l-0.3-0.2
	c-0.8-0.6-1.5-2-1.8-3.2c-0.2-1.1-0.3-0.8,1.9-5.4C22.1,77.6,23.1,75.7,23.2,75.6z"/>
<path class="st4" d="M24,75c-0.3,0.1-0.6,0.3-0.7,0.5c-0.1,0.1-1.1,2.1-2.2,4.3c-2.3,4.6-2.1,4.2-1.9,5.4c0.2,1.2,1,2.6,1.8,3.2
	l0.3,0.2v17.1h-0.4c-0.3,0-0.4,0-0.5,0.2c-0.2,0.2-0.2,0.5,0,0.8l0.2,0.2h31.2l0.2-0.2c0.2-0.2,0.2-0.5,0-0.8
	c-0.1-0.2-0.2-0.2-0.5-0.2h-0.4l0-17.1l0.4-0.3c0.8-0.7,1.4-1.9,1.6-3.1c0.2-1.1,0.3-0.8-1.9-5.4c-1.1-2.3-2.1-4.2-2.2-4.3
	c-0.1-0.1-0.3-0.3-0.4-0.4L48.1,75l-12,0C29.5,75,24.1,75,24,75z M48,76.3c0.1,0.1,3.6,7.1,3.6,7.3c0,0-0.3,0-0.7,0
	c-0.7,0-0.7,0-0.9,0.2c-0.2,0.2-0.2,0.5,0,0.8c0.1,0.2,0.2,0.2,1,0.2c1,0,1,0,0.7,0.8c-0.4,1.3-1.3,2.3-2.5,2.7
	c-0.6,0.2-1.5,0.2-2-0.1c-0.9-0.4-1.7-1.1-2.1-2c-0.2-0.5-0.4-1.3-0.4-1.4c0,0,0.9,0,1.8,0h1.8l0.1-0.2c0.1-0.1,0.1-0.2,0.1-0.3
	c0-0.2-0.2-0.5-0.3-0.6c-0.2-0.1-24.7-0.1-24.9,0c-0.2,0.1-0.3,0.4-0.3,0.6c0,0.1,0.1,0.2,0.1,0.3l0.1,0.2h1.8c1,0,1.8,0,1.8,0
	c0.1,0.1-0.1,0.8-0.3,1.3c-0.4,0.9-1.2,1.7-2.1,2.1c-0.5,0.2-1.4,0.2-2,0.1c-1.1-0.3-2.2-1.4-2.5-2.7c-0.2-0.8-0.3-0.8,0.7-0.8
	c0.8,0,0.9,0,1-0.2c0.2-0.2,0.2-0.5,0-0.8c-0.1-0.2-0.2-0.2-0.9-0.2c-0.4,0-0.7,0-0.7,0c0-0.1,3.5-7.1,3.6-7.3l0.2-0.2h23.6L48,76.3
	z M35.5,84.8c0,0.2-0.2,0.9-0.4,1.3c-0.2,0.6-0.8,1.3-1.3,1.6c-0.2,0.1-0.6,0.3-0.9,0.5c-0.5,0.2-0.6,0.2-1.3,0.2
	c-0.6,0-0.8-0.1-1.1-0.2c-0.8-0.4-1.6-1.2-1.9-2c-0.1-0.3-0.3-1.1-0.3-1.2c0-0.1,0.7-0.1,3.6-0.1C33.9,84.8,35.5,84.8,35.5,84.8z
	 M43.7,84.9c0,0.2-0.2,1-0.4,1.4c-0.4,0.8-1.2,1.6-2,1.9c-0.3,0.1-0.6,0.2-1.1,0.2c-0.6,0-0.8,0-1.2-0.2c-0.6-0.2-1-0.5-1.4-1
	c-0.5-0.6-0.9-1.3-1-2.2l0-0.3h3.6C43,84.8,43.7,84.8,43.7,84.9z M28.2,87.4c1.5,2.4,4.6,2.8,6.6,0.9c0.4-0.4,0.9-1,1-1.4
	c0.1-0.1,0.1-0.3,0.2-0.3c0,0,0.1,0.1,0.2,0.3c0.4,0.8,1.1,1.6,1.9,2.1c0.7,0.4,1.2,0.5,2,0.5c1.6,0,3.1-0.9,3.9-2.5l0.2-0.3
	l0.3,0.5c0.6,1,1.4,1.7,2.4,2.1c0.6,0.3,1.9,0.3,2.5,0.1c0.2-0.1,0.4-0.1,0.4-0.1s0,3.7,0,8.3v8.3h-1.7v-7.2c0-7.2,0-7.2-0.1-7.4
	l-0.1-0.2h-3.4c-3.3,0-3.4,0-3.5,0.2c-0.1,0.2-0.1,0.3-0.1,7.4v7.2H22.1v-8.3c0-4.6,0-8.3,0-8.3c0,0,0.2,0.1,0.4,0.1
	c0.5,0.1,1.6,0.1,2.1,0c1-0.3,2.2-1.3,2.8-2.3c0.2-0.4,0.3-0.5,0.3-0.3C27.9,86.9,28,87.2,28.2,87.4z M23.9,91.3
	c-0.1,0.2-0.1,0.2-0.1,6.2c0,5.8,0,6,0.1,6.2l0.1,0.2l14.7,0l0.4-0.4v-6.1c0-5.9,0-6.1-0.1-6.2l-0.1-0.2H24.1L23.9,91.3z
	 M38.2,102.7l-13.4,0V92.2h13.4L38.2,102.7z M47.2,102.8h-5.4V92.2h5.4V102.8z M47.2,105.8h-5.4v-1.9h5.4V105.8z"/>
<path class="st5" d="M34.9,99.8c-0.6,0.3-1.2,0.5-1.9,0.5c-2,0-3.7-1.7-3.6-3.8c0-0.7,0.2-1.3,0.6-1.9c-1.1,0.6-1.9,1.8-1.9,3.1
	c0,2.1,1.6,3.7,3.6,3.8C33.1,101.6,34.3,100.9,34.9,99.8z"/>
<path class="st5" d="M31.9,94.5c-0.6,0-1.1,0.1-1.5,0.4c-0.3,0.5-0.5,1-0.5,1.6c0,1.8,1.4,3.2,3.2,3.3c0.5,0,1.1-0.1,1.6-0.4
	c0.3-0.5,0.4-1,0.4-1.6C35.1,95.9,33.7,94.5,31.9,94.5z"/>
<radialGradient id="SVGID_3_" cx="-269.8376" cy="559.323" r="1" gradientTransform="matrix(13.8833 -19.2 -20.5182 -14.8365 15257.4033 3267.7085)" gradientUnits="userSpaceOnUse">
	<stop  offset="0" style="stop-color:#00CAAA"/>
	<stop  offset="1" style="stop-color:#00CAAA;stop-opacity:0"/>
</radialGradient>
<path class="st6" d="M23.2,131.6c0.2-0.2,0.5-0.4,0.7-0.5c0.1,0,5.5-0.1,12.1,0l12,0l0.3,0.2c0.1,0.1,0.3,0.3,0.4,0.4
	c0.1,0.1,1.1,2.1,2.2,4.3c2.3,4.6,2.1,4.2,1.9,5.4c-0.2,1.2-0.8,2.4-1.6,3.1l-0.4,0.3l0,8.6l0,8.6h0.4c0.3,0,0.4,0,0.5,0.2
	c0.2,0.2,0.2,0.5,0,0.8l-0.2,0.2H36H20.4l-0.2-0.2c-0.2-0.2-0.2-0.5,0-0.8c0.1-0.2,0.2-0.2,0.5-0.2h0.4v-8.6v-8.6l-0.3-0.2
	c-0.8-0.6-1.5-2-1.8-3.2c-0.2-1.1-0.3-0.8,1.9-5.4C22.1,133.6,23.1,131.7,23.2,131.6z"/>
<path class="st7" d="M24,131c-0.3,0.1-0.6,0.3-0.7,0.5c-0.1,0.1-1.1,2.1-2.2,4.3c-2.3,4.6-2.1,4.2-1.9,5.4c0.2,1.2,1,2.6,1.8,3.2
	l0.3,0.2v17.1h-0.4c-0.3,0-0.4,0-0.5,0.2c-0.2,0.2-0.2,0.5,0,0.8l0.2,0.2h31.2l0.2-0.2c0.2-0.2,0.2-0.5,0-0.8
	c-0.1-0.2-0.2-0.2-0.5-0.2h-0.4l0-17.1l0.4-0.3c0.8-0.7,1.4-1.9,1.6-3.1c0.2-1.1,0.3-0.8-1.9-5.4c-1.1-2.3-2.1-4.2-2.2-4.3
	c-0.1-0.1-0.3-0.3-0.4-0.4l-0.3-0.2l-12,0C29.5,131,24.1,131,24,131z M48,132.3c0.1,0.1,3.6,7.1,3.6,7.3c0,0-0.3,0-0.7,0
	c-0.7,0-0.7,0-0.9,0.2c-0.2,0.2-0.2,0.5,0,0.8c0.1,0.2,0.2,0.2,1,0.2c1,0,1,0,0.7,0.8c-0.4,1.3-1.3,2.3-2.5,2.7
	c-0.6,0.2-1.5,0.2-2-0.1c-0.9-0.4-1.7-1.1-2.1-2c-0.2-0.5-0.4-1.3-0.4-1.4c0,0,0.9,0,1.8,0h1.8l0.1-0.2c0.1-0.1,0.1-0.2,0.1-0.3
	c0-0.2-0.2-0.5-0.3-0.6c-0.2-0.1-24.7-0.1-24.9,0c-0.2,0.1-0.3,0.4-0.3,0.6c0,0.1,0.1,0.2,0.1,0.3l0.1,0.2h1.8c1,0,1.8,0,1.8,0
	c0.1,0.1-0.1,0.8-0.3,1.3c-0.4,0.9-1.2,1.7-2.1,2.1c-0.5,0.2-1.4,0.2-2,0.1c-1.1-0.3-2.2-1.4-2.5-2.7c-0.2-0.8-0.3-0.8,0.7-0.8
	c0.8,0,0.9,0,1-0.2c0.2-0.2,0.2-0.5,0-0.8c-0.1-0.2-0.2-0.2-0.9-0.2c-0.4,0-0.7,0-0.7,0c0-0.1,3.5-7.1,3.6-7.3l0.2-0.2h23.6
	L48,132.3z M35.5,140.8c0,0.2-0.2,0.9-0.4,1.3c-0.2,0.6-0.8,1.3-1.3,1.6c-0.2,0.1-0.6,0.3-0.9,0.5c-0.5,0.2-0.6,0.2-1.3,0.2
	c-0.6,0-0.8-0.1-1.1-0.2c-0.8-0.4-1.6-1.2-1.9-2c-0.1-0.3-0.3-1.1-0.3-1.2c0-0.1,0.7-0.1,3.6-0.1C33.9,140.8,35.5,140.8,35.5,140.8z
	 M43.7,140.9c0,0.2-0.2,1-0.4,1.4c-0.4,0.8-1.2,1.6-2,1.9c-0.3,0.1-0.6,0.2-1.1,0.2c-0.6,0-0.8,0-1.2-0.2c-0.6-0.2-1-0.5-1.4-1
	c-0.5-0.6-0.9-1.3-1-2.2l0-0.3h3.6C43,140.8,43.7,140.8,43.7,140.9z M28.2,143.4c1.5,2.4,4.6,2.8,6.6,0.9c0.4-0.4,0.9-1,1-1.4
	c0.1-0.1,0.1-0.3,0.2-0.3c0,0,0.1,0.1,0.2,0.3c0.4,0.8,1.1,1.6,1.9,2.1c0.7,0.4,1.2,0.5,2,0.5c1.6,0,3.1-0.9,3.9-2.5l0.2-0.3
	l0.3,0.5c0.6,1,1.4,1.7,2.4,2.1c0.6,0.3,1.9,0.3,2.5,0.1c0.2-0.1,0.4-0.1,0.4-0.1s0,3.7,0,8.3v8.3h-1.7v-7.2c0-7.2,0-7.2-0.1-7.4
	l-0.1-0.2h-3.4c-3.3,0-3.4,0-3.5,0.2c-0.1,0.2-0.1,0.3-0.1,7.4v7.2H22.1v-8.3c0-4.6,0-8.3,0-8.3c0,0,0.2,0.1,0.4,0.1
	c0.5,0.1,1.6,0.1,2.1,0c1-0.3,2.2-1.3,2.8-2.3c0.2-0.4,0.3-0.5,0.3-0.3C27.9,142.9,28,143.2,28.2,143.4z M23.9,147.3
	c-0.1,0.2-0.1,0.2-0.1,6.2c0,5.8,0,6,0.1,6.2l0.1,0.2l14.7,0l0.4-0.4v-6.1c0-5.9,0-6.1-0.1-6.2l-0.1-0.2H24.1L23.9,147.3z
	 M38.2,158.7l-13.4,0v-10.5h13.4L38.2,158.7z M47.2,158.8h-5.4v-10.5h5.4V158.8z M47.2,161.8h-5.4v-1.9h5.4V161.8z"/>
<path class="st8" d="M34.9,155.8c-0.6,0.3-1.2,0.5-1.9,0.5c-2,0-3.7-1.7-3.6-3.8c0-0.7,0.2-1.3,0.6-1.9c-1.1,0.6-1.9,1.8-1.9,3.1
	c0,2.1,1.6,3.7,3.6,3.8C33.1,157.6,34.3,156.9,34.9,155.8z"/>
<path class="st8" d="M31.9,150.5c-0.6,0-1.1,0.1-1.5,0.4c-0.3,0.5-0.5,1-0.5,1.6c0,1.8,1.4,3.2,3.2,3.3c0.5,0,1.1-0.1,1.6-0.4
	c0.3-0.5,0.4-1,0.4-1.6C35.1,151.9,33.7,150.5,31.9,150.5z"/>
<path class="st9" d="M24,187c-0.3,0.1-0.6,0.3-0.7,0.5c-0.1,0.1-1.1,2.1-2.2,4.3c-2.3,4.6-2.1,4.2-1.9,5.4c0.2,1.2,1,2.6,1.8,3.2
	l0.3,0.2v17.1h-0.4c-0.3,0-0.4,0-0.5,0.2c-0.2,0.2-0.2,0.5,0,0.8l0.2,0.2h31.2l0.2-0.2c0.2-0.2,0.2-0.5,0-0.8
	c-0.1-0.2-0.2-0.2-0.5-0.2h-0.4l0-17.1l0.4-0.3c0.8-0.7,1.4-1.9,1.6-3.1c0.2-1.1,0.3-0.8-1.9-5.4c-1.1-2.3-2.1-4.2-2.2-4.3
	c-0.1-0.1-0.3-0.3-0.4-0.4l-0.3-0.2l-12,0C29.5,187,24.1,187,24,187z M48,188.3c0.1,0.1,3.6,7.1,3.6,7.3c0,0-0.3,0-0.7,0
	c-0.7,0-0.7,0-0.9,0.2c-0.2,0.2-0.2,0.5,0,0.8c0.1,0.2,0.2,0.2,1,0.2c1,0,1,0,0.7,0.8c-0.4,1.3-1.3,2.3-2.5,2.7
	c-0.6,0.2-1.5,0.2-2-0.1c-0.9-0.4-1.7-1.1-2.1-2c-0.2-0.5-0.4-1.3-0.4-1.4c0,0,0.9,0,1.8,0h1.8l0.1-0.2c0.1-0.1,0.1-0.2,0.1-0.3
	c0-0.2-0.2-0.5-0.3-0.6c-0.2-0.1-24.7-0.1-24.9,0c-0.2,0.1-0.3,0.4-0.3,0.6c0,0.1,0.1,0.2,0.1,0.3l0.1,0.2h1.8c1,0,1.8,0,1.8,0
	c0.1,0.1-0.1,0.8-0.3,1.3c-0.4,0.9-1.2,1.7-2.1,2.1c-0.5,0.2-1.4,0.2-2,0.1c-1.1-0.3-2.2-1.4-2.5-2.7c-0.2-0.8-0.3-0.8,0.7-0.8
	c0.8,0,0.9,0,1-0.2c0.2-0.2,0.2-0.5,0-0.8c-0.1-0.2-0.2-0.2-0.9-0.2c-0.4,0-0.7,0-0.7,0c0-0.1,3.5-7.1,3.6-7.3l0.2-0.2h23.6
	L48,188.3z M35.5,196.8c0,0.2-0.2,0.9-0.4,1.3c-0.2,0.6-0.8,1.3-1.3,1.6c-0.2,0.1-0.6,0.3-0.9,0.5c-0.5,0.2-0.6,0.2-1.3,0.2
	c-0.6,0-0.8-0.1-1.1-0.2c-0.8-0.4-1.6-1.2-1.9-2c-0.1-0.3-0.3-1.1-0.3-1.2c0-0.1,0.7-0.1,3.6-0.1C33.9,196.8,35.5,196.8,35.5,196.8z
	 M43.7,196.9c0,0.2-0.2,1-0.4,1.4c-0.4,0.8-1.2,1.6-2,1.9c-0.3,0.1-0.6,0.2-1.1,0.2c-0.6,0-0.8,0-1.2-0.2c-0.6-0.2-1-0.5-1.4-1
	c-0.5-0.6-0.9-1.3-1-2.2l0-0.3h3.6C43,196.8,43.7,196.8,43.7,196.9z M28.2,199.4c1.5,2.4,4.6,2.8,6.6,0.9c0.4-0.4,0.9-1,1-1.4
	c0.1-0.1,0.1-0.3,0.2-0.3c0,0,0.1,0.1,0.2,0.3c0.4,0.8,1.1,1.6,1.9,2.1c0.7,0.4,1.2,0.5,2,0.5c1.6,0,3.1-0.9,3.9-2.5l0.2-0.3
	l0.3,0.5c0.6,1,1.4,1.7,2.4,2.1c0.6,0.3,1.9,0.3,2.5,0.1c0.2-0.1,0.4-0.1,0.4-0.1s0,3.7,0,8.3v8.3h-1.7v-7.2c0-7.2,0-7.2-0.1-7.4
	l-0.1-0.2h-3.4c-3.3,0-3.4,0-3.5,0.2c-0.1,0.2-0.1,0.3-0.1,7.4v7.2H22.1v-8.3c0-4.6,0-8.3,0-8.3c0,0,0.2,0.1,0.4,0.1
	c0.5,0.1,1.6,0.1,2.1,0c1-0.3,2.2-1.3,2.8-2.3c0.2-0.4,0.3-0.5,0.3-0.3C27.9,198.9,28,199.2,28.2,199.4z M23.9,203.3
	c-0.1,0.2-0.1,0.2-0.1,6.2c0,5.8,0,6,0.1,6.2l0.1,0.2l14.7,0l0.4-0.4v-6.1c0-5.9,0-6.1-0.1-6.2l-0.1-0.2H24.1L23.9,203.3z
	 M38.2,214.7l-13.4,0v-10.5h13.4L38.2,214.7z M47.2,214.8h-5.4v-10.5h5.4V214.8z M47.2,217.8h-5.4v-1.9h5.4V217.8z"/>
<path class="st10" d="M34.9,211.8c-0.6,0.3-1.2,0.5-1.9,0.5c-2,0-3.7-1.7-3.6-3.8c0-0.7,0.2-1.3,0.6-1.9c-1.1,0.6-1.9,1.8-1.9,3.1
	c0,2.1,1.6,3.7,3.6,3.8C33.1,213.6,34.3,212.9,34.9,211.8z"/>
<path class="st10" d="M31.9,206.5c-0.6,0-1.1,0.1-1.5,0.4c-0.3,0.5-0.5,1-0.5,1.6c0,1.8,1.4,3.2,3.2,3.3c0.5,0,1.1-0.1,1.6-0.4
	c0.3-0.5,0.4-1,0.4-1.6C35.1,207.9,33.7,206.5,31.9,206.5z"/>
<radialGradient id="SVGID_4_" cx="-269.8376" cy="559.323" r="1" gradientTransform="matrix(13.8833 -19.2 -20.5182 -14.8365 15257.4033 3379.7085)" gradientUnits="userSpaceOnUse">
	<stop  offset="0" style="stop-color:#434F58"/>
	<stop  offset="1" style="stop-color:#434F58;stop-opacity:4.157080e-02"/>
</radialGradient>
<path class="st11" d="M23.2,243.6c0.2-0.2,0.5-0.4,0.7-0.5c0.1,0,5.5-0.1,12.1,0l12,0l0.3,0.2c0.1,0.1,0.3,0.3,0.4,0.4
	c0.1,0.1,1.1,2.1,2.2,4.3c2.3,4.6,2.1,4.2,1.9,5.4c-0.2,1.2-0.8,2.4-1.6,3.1l-0.4,0.3l0,8.6l0,8.6h0.4c0.3,0,0.4,0,0.5,0.2
	c0.2,0.2,0.2,0.5,0,0.8l-0.2,0.2H36H20.4l-0.2-0.2c-0.2-0.2-0.2-0.5,0-0.8c0.1-0.2,0.2-0.2,0.5-0.2h0.4v-8.6v-8.6l-0.3-0.2
	c-0.8-0.6-1.5-2-1.8-3.2c-0.2-1.1-0.3-0.8,1.9-5.4C22.1,245.6,23.1,243.7,23.2,243.6z"/>
<path class="st9" d="M24,243c-0.3,0.1-0.6,0.3-0.7,0.5c-0.1,0.1-1.1,2.1-2.2,4.3c-2.3,4.6-2.1,4.2-1.9,5.4c0.2,1.2,1,2.6,1.8,3.2
	l0.3,0.2v17.1h-0.4c-0.3,0-0.4,0-0.5,0.2c-0.2,0.2-0.2,0.5,0,0.8l0.2,0.2h31.2l0.2-0.2c0.2-0.2,0.2-0.5,0-0.8
	c-0.1-0.2-0.2-0.2-0.5-0.2h-0.4l0-17.1l0.4-0.3c0.8-0.7,1.4-1.9,1.6-3.1c0.2-1.1,0.3-0.8-1.9-5.4c-1.1-2.3-2.1-4.2-2.2-4.3
	c-0.1-0.1-0.3-0.3-0.4-0.4l-0.3-0.2l-12,0C29.5,243,24.1,243,24,243z M48,244.3c0.1,0.1,3.6,7.1,3.6,7.3c0,0-0.3,0-0.7,0
	c-0.7,0-0.7,0-0.9,0.2c-0.2,0.2-0.2,0.5,0,0.8c0.1,0.2,0.2,0.2,1,0.2c1,0,1,0,0.7,0.8c-0.4,1.3-1.3,2.3-2.5,2.7
	c-0.6,0.2-1.5,0.2-2-0.1c-0.9-0.4-1.7-1.1-2.1-2c-0.2-0.5-0.4-1.3-0.4-1.4c0,0,0.9,0,1.8,0h1.8l0.1-0.2c0.1-0.1,0.1-0.2,0.1-0.3
	c0-0.2-0.2-0.5-0.3-0.6c-0.2-0.1-24.7-0.1-24.9,0c-0.2,0.1-0.3,0.4-0.3,0.6c0,0.1,0.1,0.2,0.1,0.3l0.1,0.2h1.8c1,0,1.8,0,1.8,0
	c0.1,0.1-0.1,0.8-0.3,1.3c-0.4,0.9-1.2,1.7-2.1,2.1c-0.5,0.2-1.4,0.2-2,0.1c-1.1-0.3-2.2-1.4-2.5-2.7c-0.2-0.8-0.3-0.8,0.7-0.8
	c0.8,0,0.9,0,1-0.2c0.2-0.2,0.2-0.5,0-0.8c-0.1-0.2-0.2-0.2-0.9-0.2c-0.4,0-0.7,0-0.7,0c0-0.1,3.5-7.1,3.6-7.3l0.2-0.2h23.6
	L48,244.3z M35.5,252.8c0,0.2-0.2,0.9-0.4,1.3c-0.2,0.6-0.8,1.3-1.3,1.6c-0.2,0.1-0.6,0.3-0.9,0.5c-0.5,0.2-0.6,0.2-1.3,0.2
	c-0.6,0-0.8-0.1-1.1-0.2c-0.8-0.4-1.6-1.2-1.9-2c-0.1-0.3-0.3-1.1-0.3-1.2c0-0.1,0.7-0.1,3.6-0.1C33.9,252.8,35.5,252.8,35.5,252.8z
	 M43.7,252.9c0,0.2-0.2,1-0.4,1.4c-0.4,0.8-1.2,1.6-2,1.9c-0.3,0.1-0.6,0.2-1.1,0.2c-0.6,0-0.8,0-1.2-0.2c-0.6-0.2-1-0.5-1.4-1
	c-0.5-0.6-0.9-1.3-1-2.2l0-0.3h3.6C43,252.8,43.7,252.8,43.7,252.9z M28.2,255.4c1.5,2.4,4.6,2.8,6.6,0.9c0.4-0.4,0.9-1,1-1.4
	c0.1-0.1,0.1-0.3,0.2-0.3c0,0,0.1,0.1,0.2,0.3c0.4,0.8,1.1,1.6,1.9,2.1c0.7,0.4,1.2,0.5,2,0.5c1.6,0,3.1-0.9,3.9-2.5l0.2-0.3
	l0.3,0.5c0.6,1,1.4,1.7,2.4,2.1c0.6,0.3,1.9,0.3,2.5,0.1c0.2-0.1,0.4-0.1,0.4-0.1s0,3.7,0,8.3v8.3h-1.7v-7.2c0-7.2,0-7.2-0.1-7.4
	l-0.1-0.2h-3.4c-3.3,0-3.4,0-3.5,0.2c-0.1,0.2-0.1,0.3-0.1,7.4v7.2H22.1v-8.3c0-4.6,0-8.3,0-8.3c0,0,0.2,0.1,0.4,0.1
	c0.5,0.1,1.6,0.1,2.1,0c1-0.3,2.2-1.3,2.8-2.3c0.2-0.4,0.3-0.5,0.3-0.3C27.9,254.9,28,255.2,28.2,255.4z M23.9,259.3
	c-0.1,0.2-0.1,0.2-0.1,6.2c0,5.8,0,6,0.1,6.2l0.1,0.2l14.7,0l0.4-0.4v-6.1c0-5.9,0-6.1-0.1-6.2l-0.1-0.2H24.1L23.9,259.3z
	 M38.2,270.7l-13.4,0v-10.5h13.4L38.2,270.7z M47.2,270.8h-5.4v-10.5h5.4V270.8z M47.2,273.8h-5.4v-1.9h5.4V273.8z"/>
<path class="st10" d="M34.9,267.8c-0.6,0.3-1.2,0.5-1.9,0.5c-2,0-3.7-1.7-3.6-3.8c0-0.7,0.2-1.3,0.6-1.9c-1.1,0.6-1.9,1.8-1.9,3.1
	c0,2.1,1.6,3.7,3.6,3.8C33.1,269.6,34.3,268.9,34.9,267.8z"/>
<path class="st10" d="M31.9,262.5c-0.6,0-1.1,0.1-1.5,0.4c-0.3,0.5-0.5,1-0.5,1.6c0,1.8,1.4,3.2,3.2,3.3c0.5,0,1.1-0.1,1.6-0.4
	c0.3-0.5,0.4-1,0.4-1.6C35.1,263.9,33.7,262.5,31.9,262.5z"/>
<radialGradient id="SVGID_5_" cx="-269.8376" cy="559.323" r="1" gradientTransform="matrix(13.8833 -19.2 -20.5182 -14.8365 15257.4033 3435.7085)" gradientUnits="userSpaceOnUse">
	<stop  offset="0" style="stop-color:#677983"/>
	<stop  offset="1" style="stop-color:#677983;stop-opacity:0"/>
</radialGradient>
<path class="st12" d="M23.2,299.6c0.2-0.2,0.5-0.4,0.7-0.5c0.1,0,5.5-0.1,12.1,0l12,0l0.3,0.2c0.1,0.1,0.3,0.3,0.4,0.4
	c0.1,0.1,1.1,2.1,2.2,4.3c2.3,4.6,2.1,4.2,1.9,5.4c-0.2,1.2-0.8,2.4-1.6,3.1l-0.4,0.3l0,8.6l0,8.6h0.4c0.3,0,0.4,0,0.5,0.2
	c0.2,0.2,0.2,0.5,0,0.8l-0.2,0.2H36H20.4l-0.2-0.2c-0.2-0.2-0.2-0.5,0-0.8c0.1-0.2,0.2-0.2,0.5-0.2h0.4v-8.6v-8.6l-0.3-0.2
	c-0.8-0.6-1.5-2-1.8-3.2c-0.2-1.1-0.3-0.8,1.9-5.4C22.1,301.6,23.1,299.7,23.2,299.6z"/>
<path class="st13" d="M24,299c-0.3,0.1-0.6,0.3-0.7,0.5c-0.1,0.1-1.1,2.1-2.2,4.3c-2.3,4.6-2.1,4.2-1.9,5.4c0.2,1.2,1,2.6,1.8,3.2
	l0.3,0.2v17.1h-0.4c-0.3,0-0.4,0-0.5,0.2c-0.2,0.2-0.2,0.5,0,0.8l0.2,0.2h31.2l0.2-0.2c0.2-0.2,0.2-0.5,0-0.8
	c-0.1-0.2-0.2-0.2-0.5-0.2h-0.4l0-17.1l0.4-0.3c0.8-0.7,1.4-1.9,1.6-3.1c0.2-1.1,0.3-0.8-1.9-5.4c-1.1-2.3-2.1-4.2-2.2-4.3
	c-0.1-0.1-0.3-0.3-0.4-0.4l-0.3-0.2l-12,0C29.5,299,24.1,299,24,299z M48,300.3c0.1,0.1,3.6,7.1,3.6,7.3c0,0-0.3,0-0.7,0
	c-0.7,0-0.7,0-0.9,0.2c-0.2,0.2-0.2,0.5,0,0.8c0.1,0.2,0.2,0.2,1,0.2c1,0,1,0,0.7,0.8c-0.4,1.3-1.3,2.3-2.5,2.7
	c-0.6,0.2-1.5,0.2-2-0.1c-0.9-0.4-1.7-1.1-2.1-2c-0.2-0.5-0.4-1.3-0.4-1.4c0,0,0.9,0,1.8,0h1.8l0.1-0.2c0.1-0.1,0.1-0.2,0.1-0.3
	c0-0.2-0.2-0.5-0.3-0.6c-0.2-0.1-24.7-0.1-24.9,0c-0.2,0.1-0.3,0.4-0.3,0.6c0,0.1,0.1,0.2,0.1,0.3l0.1,0.2h1.8c1,0,1.8,0,1.8,0
	c0.1,0.1-0.1,0.8-0.3,1.3c-0.4,0.9-1.2,1.7-2.1,2.1c-0.5,0.2-1.4,0.2-2,0.1c-1.1-0.3-2.2-1.4-2.5-2.7c-0.2-0.8-0.3-0.8,0.7-0.8
	c0.8,0,0.9,0,1-0.2c0.2-0.2,0.2-0.5,0-0.8c-0.1-0.2-0.2-0.2-0.9-0.2c-0.4,0-0.7,0-0.7,0c0-0.1,3.5-7.1,3.6-7.3l0.2-0.2h23.6
	L48,300.3z M35.5,308.8c0,0.2-0.2,0.9-0.4,1.3c-0.2,0.6-0.8,1.3-1.3,1.6c-0.2,0.1-0.6,0.3-0.9,0.5c-0.5,0.2-0.6,0.2-1.3,0.2
	c-0.6,0-0.8-0.1-1.1-0.2c-0.8-0.4-1.6-1.2-1.9-2c-0.1-0.3-0.3-1.1-0.3-1.2c0-0.1,0.7-0.1,3.6-0.1C33.9,308.8,35.5,308.8,35.5,308.8z
	 M43.7,308.9c0,0.2-0.2,1-0.4,1.4c-0.4,0.8-1.2,1.6-2,1.9c-0.3,0.1-0.6,0.2-1.1,0.2c-0.6,0-0.8,0-1.2-0.2c-0.6-0.2-1-0.5-1.4-1
	c-0.5-0.6-0.9-1.3-1-2.2l0-0.3h3.6C43,308.8,43.7,308.8,43.7,308.9z M28.2,311.4c1.5,2.4,4.6,2.8,6.6,0.9c0.4-0.4,0.9-1,1-1.4
	c0.1-0.1,0.1-0.3,0.2-0.3c0,0,0.1,0.1,0.2,0.3c0.4,0.8,1.1,1.6,1.9,2.1c0.7,0.4,1.2,0.5,2,0.5c1.6,0,3.1-0.9,3.9-2.5l0.2-0.3
	l0.3,0.5c0.6,1,1.4,1.7,2.4,2.1c0.6,0.3,1.9,0.3,2.5,0.1c0.2-0.1,0.4-0.1,0.4-0.1s0,3.7,0,8.3v8.3h-1.7v-7.2c0-7.2,0-7.2-0.1-7.4
	l-0.1-0.2h-3.4c-3.3,0-3.4,0-3.5,0.2c-0.1,0.2-0.1,0.3-0.1,7.4v7.2H22.1v-8.3c0-4.6,0-8.3,0-8.3c0,0,0.2,0.1,0.4,0.1
	c0.5,0.1,1.6,0.1,2.1,0c1-0.3,2.2-1.3,2.8-2.3c0.2-0.4,0.3-0.5,0.3-0.3C27.9,310.9,28,311.2,28.2,311.4z M23.9,315.3
	c-0.1,0.2-0.1,0.2-0.1,6.2c0,5.8,0,6,0.1,6.2l0.1,0.2l14.7,0l0.4-0.4v-6.1c0-5.9,0-6.1-0.1-6.2l-0.1-0.2H24.1L23.9,315.3z
	 M38.2,326.7l-13.4,0v-10.5h13.4L38.2,326.7z M47.2,326.8h-5.4v-10.5h5.4V326.8z M47.2,329.8h-5.4v-1.9h5.4V329.8z"/>
<path class="st14" d="M34.9,323.8c-0.6,0.3-1.2,0.5-1.9,0.5c-2,0-3.7-1.7-3.6-3.8c0-0.7,0.2-1.3,0.6-1.9c-1.1,0.6-1.9,1.8-1.9,3.1
	c0,2.1,1.6,3.7,3.6,3.8C33.1,325.6,34.3,324.9,34.9,323.8z"/>
<path class="st14" d="M31.9,318.5c-0.6,0-1.1,0.1-1.5,0.4c-0.3,0.5-0.5,1-0.5,1.6c0,1.8,1.4,3.2,3.2,3.3c0.5,0,1.1-0.1,1.6-0.4
	c0.3-0.5,0.4-1,0.4-1.6C35.1,319.9,33.7,318.5,31.9,318.5z"/>
</svg>
