<?xml version="1.0" encoding="utf-8"?>
<!-- Generator: Adobe Illustrator 25.2.1, SVG Export Plug-In . SVG Version: 6.00 Build 0)  -->
<svg version="1.1" id="Layer_1" xmlns="http://www.w3.org/2000/svg" xmlns:xlink="http://www.w3.org/1999/xlink" x="0px" y="0px"
	 viewBox="0 0 72 352" style="enable-background:new 0 0 72 352;" xml:space="preserve">
<style type="text/css">
	.st0{fill:url(#SVGID_1_);fill-opacity:0.25;}
	.st1{fill:#0073EC;}
	.st2{fill:url(#SVGID_2_);fill-opacity:0.25;}
	.st3{fill:#A644E5;}
	.st4{fill:url(#SVGID_3_);fill-opacity:0.25;}
	.st5{fill:#00CAAA;}
	.st6{fill:#434F58;}
	.st7{fill:url(#SVGID_4_);fill-opacity:0.25;}
	.st8{fill:url(#SVGID_5_);fill-opacity:0.25;}
	.st9{fill:#677983;}
</style>
<radialGradient id="SVGID_1_" cx="-249.4504" cy="596.8918" r="1" gradientTransform="matrix(6.859431e-16 11.2023 11.2591 -6.894211e-16 -6682.936 2828.6211)" gradientUnits="userSpaceOnUse">
	<stop  offset="0" style="stop-color:#0073EC"/>
	<stop  offset="1" style="stop-color:#0073EC;stop-opacity:0"/>
</radialGradient>
<path class="st0" d="M32.3,35.9l-5.1-0.2c-0.7,0-1.2-0.8-0.8-1.5l2.5-4.6c0.2-0.3,0.5-0.5,0.9-0.5h4.8c0.4,0,0.7-0.2,0.9-0.5
	c3.8-6.1,9.5-6,12.3-5.2c0.3,0.1,0.5,0.3,0.6,0.6c2,6.8-2.5,10.9-5.2,12.7c-0.3,0.2-0.5,0.5-0.5,0.9V42c0,0.4-0.2,0.7-0.5,0.9
	l-4.5,2.4c-0.7,0.4-1.5-0.1-1.5-0.9v-4.5C36.1,37.8,34.5,36,32.3,35.9z"/>
<path class="st1" d="M27.2,37.8l-3.5,3.5c-0.2,0.2-0.2,0.5,0,0.7c0.2,0.2,0.5,0.2,0.7,0l3.5-3.5c0.2-0.2,0.2-0.5,0-0.7
	C27.7,37.6,27.4,37.6,27.2,37.8z"/>
<path class="st1" d="M43.4,27c-0.5-0.2-1-0.3-1.5-0.1c-0.5,0.1-1,0.4-1.3,0.7c-0.4,0.4-0.6,0.8-0.7,1.3c-0.1,0.5,0,1,0.1,1.5
	c0.2,0.5,0.5,0.9,1,1.2c0.4,0.3,0.9,0.4,1.5,0.4c0.7,0,1.4-0.3,1.9-0.8s0.8-1.2,0.8-1.9c0-0.5-0.2-1-0.4-1.5S43.9,27.2,43.4,27z
	 M42.4,31c-0.3,0-0.6-0.1-0.9-0.3c-0.3-0.2-0.5-0.4-0.6-0.7c-0.1-0.3-0.2-0.6-0.1-0.9c0.1-0.3,0.2-0.6,0.4-0.8
	c0.2-0.2,0.5-0.4,0.8-0.4c0.3-0.1,0.6,0,0.9,0.1c0.3,0.1,0.6,0.3,0.7,0.6c0.3,0.2,0.4,0.5,0.4,0.8c0,0.4-0.2,0.8-0.5,1.2
	C43.3,30.9,42.8,31,42.4,31z"/>
<path class="st1" d="M32.2,42.6c0.4-0.4,0.7-1,0.7-1.6s-0.2-1.1-0.6-1.6c-0.4-0.4-1-0.6-1.6-0.6c-0.6,0-1.1,0.3-1.6,0.7
	c-0.3,0.3-0.5,0.9-0.7,1.4c-0.1,0.6-0.2,1.2-0.1,1.9v0.5h0.5c0.7,0,1.3,0,1.9-0.1C31.4,43.1,31.9,42.9,32.2,42.6z M29.4,42.4
	c0-0.4,0-0.8,0.1-1.2c0.1-0.5,0.3-0.8,0.4-0.9c0.3-0.3,0.6-0.4,0.9-0.4c0.3,0,0.6,0.1,0.8,0.3c0.2,0.2,0.3,0.5,0.3,0.8
	s-0.1,0.6-0.4,0.9c-0.1,0.1-0.4,0.3-0.9,0.4C30.3,42.3,29.9,42.4,29.4,42.4z"/>
<path class="st1" d="M49.3,27.6c0-1.1,0-2.3-0.3-3.8c-0.1-0.2-0.2-0.4-0.3-0.6c-0.2-0.2-0.4-0.3-0.7-0.4c-1.5-0.3-2.7-0.3-3.8-0.3
	c-2.1,0-3.9,0.5-5.5,1.5c-1.6,0.9-2.9,2.4-4.2,4.2h-4.3c-0.5,0-1,0.2-1.4,0.4c-0.4,0.2-0.8,0.6-1,1l0.4,0.2l-0.3-0.2L25.7,34
	c-0.1,0.2-0.1,0.4-0.2,0.7c0,0.4,0.2,0.8,0.5,1.1s0.7,0.5,1.1,0.5h4.6c0.5,0,1,0.1,1.4,0.3c0.5,0.2,0.9,0.5,1.2,0.8
	c0.3,0.3,0.6,0.8,0.8,1.2c0.2,0.5,0.3,0.9,0.3,1.4v0.5v4.2c0,0.4,0.2,0.8,0.5,1.1c0.3,0.3,0.7,0.5,1.1,0.5c0.2,0,0.5-0.1,0.7-0.2
	l4.4-2.2c0.4-0.2,0.8-0.6,1-1c0.2-0.4,0.4-0.9,0.4-1.4v-4.2c1.9-1.2,3.3-2.6,4.2-4.2C48.8,31.4,49.3,29.6,49.3,27.6z M26.7,35.1
	c-0.1-0.1-0.2-0.2-0.2-0.4c0-0.1,0-0.2,0.1-0.3l2.2-4.4c0.1-0.2,0.3-0.5,0.6-0.6c0.3-0.2,0.6-0.3,0.8-0.3H34c-0.8,1.6-2.1,4.2-3,6.1
	h-3.9C27,35.3,26.8,35.2,26.7,35.1z M42.3,42.4c-0.2,0.3-0.4,0.5-0.6,0.6l0.2,0.4l-0.1-0.1L41.7,43l-4.4,2.2c-0.1,0-0.2,0.1-0.3,0.1
	s-0.3-0.1-0.4-0.2c-0.1-0.1-0.2-0.2-0.2-0.4v-3.8c1.8-0.9,4.5-2.2,6.1-3v3.7C42.6,41.8,42.5,42.1,42.3,42.4z M47,32.6
	c-0.9,1.5-2.2,2.8-4.1,4c0,0,0,0-0.1,0c-1.4,0.7-4.2,2.1-6.3,3.1c0-0.5-0.1-1-0.3-1.5c-0.2-0.6-0.6-1.1-1-1.5c-0.4-0.4-1-0.8-1.5-1
	s-1-0.3-1.5-0.3c1-2.1,2.4-4.9,3.1-6.3c0,0,0-0.1,0.1-0.1c1.2-1.9,2.5-3.2,4-4.1s3.1-1.3,5-1.3c1.1,0,2.2,0,3.6,0.3
	c0,0,0.1,0,0.1,0.1C48,23.9,48,23.9,48,24c0.3,1.4,0.3,2.5,0.3,3.6C48.3,29.5,47.9,31.1,47,32.6z"/>
<path class="st1" d="M33.5,44.1L30,47.7c-0.2,0.2-0.2,0.5,0,0.7c0.2,0.2,0.5,0.2,0.7,0l3.5-3.5c0.2-0.2,0.2-0.5,0-0.7
	C34.1,43.9,33.7,43.9,33.5,44.1z"/>
<radialGradient id="SVGID_2_" cx="-249.4504" cy="596.8918" r="1" gradientTransform="matrix(6.859431e-16 11.2023 11.2591 -6.894211e-16 -6682.936 2884.6211)" gradientUnits="userSpaceOnUse">
	<stop  offset="0" style="stop-color:#A644E5"/>
	<stop  offset="1" style="stop-color:#A644E5;stop-opacity:0"/>
</radialGradient>
<path class="st2" d="M32.3,91.9l-5.1-0.2c-0.7,0-1.2-0.8-0.8-1.5l2.5-4.6c0.2-0.3,0.5-0.5,0.9-0.5h4.8c0.4,0,0.7-0.2,0.9-0.5
	c3.8-6.1,9.5-6,12.3-5.2c0.3,0.1,0.5,0.3,0.6,0.6c2,6.8-2.5,10.9-5.2,12.7c-0.3,0.2-0.5,0.5-0.5,0.9V98c0,0.4-0.2,0.7-0.5,0.9
	l-4.5,2.4c-0.7,0.4-1.5-0.1-1.5-0.9v-4.5C36.1,93.8,34.5,92,32.3,91.9z"/>
<path class="st3" d="M27.2,93.8l-3.5,3.5c-0.2,0.2-0.2,0.5,0,0.7c0.2,0.2,0.5,0.2,0.7,0l3.5-3.5c0.2-0.2,0.2-0.5,0-0.7
	C27.7,93.6,27.4,93.6,27.2,93.8z"/>
<path class="st3" d="M43.4,83c-0.5-0.2-1-0.3-1.5-0.1c-0.5,0.1-1,0.4-1.3,0.7c-0.4,0.4-0.6,0.8-0.7,1.3c-0.1,0.5,0,1,0.1,1.5
	c0.2,0.5,0.5,0.9,1,1.2c0.4,0.3,0.9,0.4,1.5,0.4c0.7,0,1.4-0.3,1.9-0.8s0.8-1.2,0.8-1.9c0-0.5-0.2-1-0.4-1.5S43.9,83.2,43.4,83z
	 M42.4,87c-0.3,0-0.6-0.1-0.9-0.3c-0.3-0.2-0.5-0.4-0.6-0.7c-0.1-0.3-0.2-0.6-0.1-0.9c0.1-0.3,0.2-0.6,0.4-0.8
	c0.2-0.2,0.5-0.4,0.8-0.4c0.3-0.1,0.6,0,0.9,0.1c0.3,0.1,0.6,0.3,0.7,0.6c0.3,0.2,0.4,0.5,0.4,0.8c0,0.4-0.2,0.8-0.5,1.2
	C43.3,86.9,42.8,87,42.4,87z"/>
<path class="st3" d="M32.2,98.6c0.4-0.4,0.7-1,0.7-1.6s-0.2-1.1-0.6-1.6c-0.4-0.4-1-0.6-1.6-0.6c-0.6,0-1.1,0.3-1.6,0.7
	c-0.3,0.3-0.5,0.9-0.7,1.4c-0.1,0.6-0.2,1.2-0.1,1.9v0.5h0.5c0.7,0,1.3,0,1.9-0.1C31.4,99.1,31.9,98.9,32.2,98.6z M29.4,98.4
	c0-0.4,0-0.8,0.1-1.2c0.1-0.5,0.3-0.8,0.4-0.9c0.3-0.3,0.6-0.4,0.9-0.4c0.3,0,0.6,0.1,0.8,0.3c0.2,0.2,0.3,0.5,0.3,0.8
	s-0.1,0.6-0.4,0.9c-0.1,0.1-0.4,0.3-0.9,0.4C30.3,98.3,29.9,98.4,29.4,98.4z"/>
<path class="st3" d="M49.3,83.6c0-1.1,0-2.3-0.3-3.8c-0.1-0.2-0.2-0.4-0.3-0.6c-0.2-0.2-0.4-0.3-0.7-0.4c-1.5-0.3-2.7-0.3-3.8-0.3
	c-2.1,0-3.9,0.5-5.5,1.5c-1.6,0.9-2.9,2.4-4.2,4.2h-4.3c-0.5,0-1,0.2-1.4,0.4c-0.4,0.2-0.8,0.6-1,1l0.4,0.2l-0.3-0.2L25.7,90
	c-0.1,0.2-0.1,0.4-0.2,0.7c0,0.4,0.2,0.8,0.5,1.1c0.3,0.3,0.7,0.5,1.1,0.5h4.6c0.5,0,1,0.1,1.4,0.3c0.5,0.2,0.9,0.5,1.2,0.8
	c0.3,0.3,0.6,0.8,0.8,1.2c0.2,0.5,0.3,0.9,0.3,1.4v0.5v4.2c0,0.4,0.2,0.8,0.5,1.1c0.3,0.3,0.7,0.5,1.1,0.5c0.2,0,0.5-0.1,0.7-0.2
	l4.4-2.2c0.4-0.2,0.8-0.6,1-1c0.2-0.4,0.4-0.9,0.4-1.4v-4.2c1.9-1.2,3.3-2.6,4.2-4.2C48.8,87.4,49.3,85.6,49.3,83.6z M26.7,91.1
	c-0.1-0.1-0.2-0.2-0.2-0.4c0-0.1,0-0.2,0.1-0.3l2.2-4.4c0.1-0.2,0.3-0.5,0.6-0.6c0.3-0.2,0.6-0.3,0.8-0.3H34c-0.8,1.6-2.1,4.2-3,6.1
	h-3.9C27,91.3,26.8,91.2,26.7,91.1z M42.3,98.4c-0.2,0.3-0.4,0.5-0.6,0.6l0.2,0.4l-0.1-0.1L41.7,99l-4.4,2.2c-0.1,0-0.2,0.1-0.3,0.1
	s-0.3-0.1-0.4-0.2c-0.1-0.1-0.2-0.2-0.2-0.4v-3.8c1.8-0.9,4.5-2.2,6.1-3v3.7C42.6,97.8,42.5,98.1,42.3,98.4z M47,88.6
	c-0.9,1.5-2.2,2.8-4.1,4c0,0,0,0-0.1,0c-1.4,0.7-4.2,2.1-6.3,3.1c0-0.5-0.1-1-0.3-1.5c-0.2-0.6-0.6-1.1-1-1.5c-0.4-0.4-1-0.8-1.5-1
	c-0.5-0.2-1-0.3-1.5-0.3c1-2.1,2.4-4.9,3.1-6.3c0,0,0-0.1,0.1-0.1c1.2-1.9,2.5-3.2,4-4.1s3.1-1.3,5-1.3c1.1,0,2.2,0,3.6,0.3
	c0,0,0.1,0,0.1,0.1C48,79.9,48,79.9,48,80c0.3,1.4,0.3,2.5,0.3,3.6C48.3,85.5,47.9,87.1,47,88.6z"/>
<path class="st3" d="M33.5,100.1l-3.5,3.6c-0.2,0.2-0.2,0.5,0,0.7c0.2,0.2,0.5,0.2,0.7,0l3.5-3.5c0.2-0.2,0.2-0.5,0-0.7
	C34.1,99.9,33.7,99.9,33.5,100.1z"/>
<radialGradient id="SVGID_3_" cx="-249.4504" cy="596.8918" r="1" gradientTransform="matrix(6.859431e-16 11.2023 11.2591 -6.894211e-16 -6682.936 2940.6206)" gradientUnits="userSpaceOnUse">
	<stop  offset="0" style="stop-color:#00CAAA"/>
	<stop  offset="1" style="stop-color:#00CAAA;stop-opacity:0"/>
</radialGradient>
<path class="st4" d="M32.3,147.9l-5.1-0.2c-0.7,0-1.2-0.8-0.8-1.5l2.5-4.6c0.2-0.3,0.5-0.5,0.9-0.5h4.8c0.4,0,0.7-0.2,0.9-0.5
	c3.8-6.1,9.5-6,12.3-5.2c0.3,0.1,0.5,0.3,0.6,0.6c2,6.8-2.5,10.9-5.2,12.7c-0.3,0.2-0.5,0.5-0.5,0.9v4.3c0,0.4-0.2,0.7-0.5,0.9
	l-4.5,2.4c-0.7,0.4-1.5-0.1-1.5-0.9v-4.5C36.1,149.8,34.5,148,32.3,147.9z"/>
<path class="st5" d="M27.2,149.8l-3.5,3.5c-0.2,0.2-0.2,0.5,0,0.7c0.2,0.2,0.5,0.2,0.7,0l3.5-3.5c0.2-0.2,0.2-0.5,0-0.7
	C27.7,149.6,27.4,149.6,27.2,149.8z"/>
<path class="st5" d="M43.4,139c-0.5-0.2-1-0.3-1.5-0.1c-0.5,0.1-1,0.4-1.3,0.7c-0.4,0.4-0.6,0.8-0.7,1.3c-0.1,0.5,0,1,0.1,1.5
	c0.2,0.5,0.5,0.9,1,1.2c0.4,0.3,0.9,0.4,1.5,0.4c0.7,0,1.4-0.3,1.9-0.8s0.8-1.2,0.8-1.9c0-0.5-0.2-1-0.4-1.5S43.9,139.2,43.4,139z
	 M42.4,143c-0.3,0-0.6-0.1-0.9-0.3s-0.5-0.4-0.6-0.7c-0.1-0.3-0.2-0.6-0.1-0.9c0.1-0.3,0.2-0.6,0.4-0.8s0.5-0.4,0.8-0.4
	c0.3-0.1,0.6,0,0.9,0.1c0.3,0.1,0.6,0.3,0.7,0.6c0.3,0.2,0.4,0.5,0.4,0.8c0,0.4-0.2,0.8-0.5,1.2C43.3,142.9,42.8,143,42.4,143z"/>
<path class="st5" d="M32.2,154.6c0.4-0.4,0.7-1,0.7-1.6s-0.2-1.1-0.6-1.6c-0.4-0.4-1-0.6-1.6-0.6c-0.6,0-1.1,0.3-1.6,0.7
	c-0.3,0.3-0.5,0.9-0.7,1.4c-0.1,0.6-0.2,1.2-0.1,1.9v0.5h0.5c0.7,0,1.3,0,1.9-0.1C31.4,155.1,31.9,154.9,32.2,154.6z M29.4,154.4
	c0-0.4,0-0.8,0.1-1.2c0.1-0.5,0.3-0.8,0.4-0.9c0.3-0.3,0.6-0.4,0.9-0.4c0.3,0,0.6,0.1,0.8,0.3c0.2,0.2,0.3,0.5,0.3,0.8
	s-0.1,0.6-0.4,0.9c-0.1,0.1-0.4,0.3-0.9,0.4C30.3,154.3,29.9,154.4,29.4,154.4z"/>
<path class="st5" d="M49.3,139.6c0-1.1,0-2.3-0.3-3.8c-0.1-0.2-0.2-0.4-0.3-0.6c-0.2-0.2-0.4-0.3-0.7-0.4c-1.5-0.3-2.7-0.3-3.8-0.3
	c-2.1,0-3.9,0.5-5.5,1.5c-1.6,0.9-2.9,2.4-4.2,4.2h-4.3c-0.5,0-1,0.2-1.4,0.4c-0.4,0.2-0.8,0.6-1,1l0.4,0.2l-0.3-0.2l-2.2,4.4
	c-0.1,0.2-0.1,0.4-0.2,0.7c0,0.4,0.2,0.8,0.5,1.1s0.7,0.5,1.1,0.5h4.6c0.5,0,1,0.1,1.4,0.3c0.5,0.2,0.9,0.5,1.2,0.8
	c0.3,0.3,0.6,0.8,0.8,1.2c0.2,0.5,0.3,0.9,0.3,1.4v0.5v4.2c0,0.4,0.2,0.8,0.5,1.1c0.3,0.3,0.7,0.5,1.1,0.5c0.2,0,0.5-0.1,0.7-0.2
	l4.4-2.2c0.4-0.2,0.8-0.6,1-1c0.2-0.4,0.4-0.9,0.4-1.4v-4.2c1.9-1.2,3.3-2.6,4.2-4.2C48.8,143.4,49.3,141.6,49.3,139.6z M26.7,147.1
	c-0.1-0.1-0.2-0.2-0.2-0.4c0-0.1,0-0.2,0.1-0.3l2.2-4.4c0.1-0.2,0.3-0.5,0.6-0.6c0.3-0.2,0.6-0.3,0.8-0.3H34c-0.8,1.6-2.1,4.2-3,6.1
	h-3.9C27,147.3,26.8,147.2,26.7,147.1z M42.3,154.4c-0.2,0.3-0.4,0.5-0.6,0.6l0.2,0.4l-0.1-0.1l-0.1-0.3l-4.4,2.2
	c-0.1,0-0.2,0.1-0.3,0.1s-0.3-0.1-0.4-0.2c-0.1-0.1-0.2-0.2-0.2-0.4v-3.8c1.8-0.9,4.5-2.2,6.1-3v3.7
	C42.6,153.8,42.5,154.1,42.3,154.4z M47,144.6c-0.9,1.5-2.2,2.8-4.1,4c0,0,0,0-0.1,0c-1.4,0.7-4.2,2.1-6.3,3.1c0-0.5-0.1-1-0.3-1.5
	c-0.2-0.6-0.6-1.1-1-1.5c-0.4-0.4-1-0.8-1.5-1s-1-0.3-1.5-0.3c1-2.1,2.4-4.9,3.1-6.3c0,0,0-0.1,0.1-0.1c1.2-1.9,2.5-3.2,4-4.1
	c1.5-0.9,3.1-1.3,5-1.3c1.1,0,2.2,0,3.6,0.3c0,0,0.1,0,0.1,0.1c-0.1-0.1-0.1-0.1-0.1,0c0.3,1.4,0.3,2.5,0.3,3.6
	C48.3,141.5,47.9,143.1,47,144.6z"/>
<path class="st5" d="M33.5,156.1l-3.5,3.6c-0.2,0.2-0.2,0.5,0,0.7c0.2,0.2,0.5,0.2,0.7,0l3.5-3.5c0.2-0.2,0.2-0.5,0-0.7
	C34.1,155.9,33.7,155.9,33.5,156.1z"/>
<path class="st6" d="M27.2,205.8l-3.5,3.5c-0.2,0.2-0.2,0.5,0,0.7c0.2,0.2,0.5,0.2,0.7,0l3.5-3.5c0.2-0.2,0.2-0.5,0-0.7
	C27.7,205.6,27.4,205.6,27.2,205.8z"/>
<path class="st6" d="M43.4,195c-0.5-0.2-1-0.3-1.5-0.1c-0.5,0.1-1,0.4-1.3,0.7c-0.4,0.4-0.6,0.8-0.7,1.3c-0.1,0.5,0,1,0.1,1.5
	c0.2,0.5,0.5,0.9,1,1.2c0.4,0.3,0.9,0.4,1.5,0.4c0.7,0,1.4-0.3,1.9-0.8s0.8-1.2,0.8-1.9c0-0.5-0.2-1-0.4-1.5S43.9,195.2,43.4,195z
	 M42.4,199c-0.3,0-0.6-0.1-0.9-0.3s-0.5-0.4-0.6-0.7c-0.1-0.3-0.2-0.6-0.1-0.9c0.1-0.3,0.2-0.6,0.4-0.8s0.5-0.4,0.8-0.4
	c0.3-0.1,0.6,0,0.9,0.1c0.3,0.1,0.6,0.3,0.7,0.6c0.3,0.2,0.4,0.5,0.4,0.8c0,0.4-0.2,0.8-0.5,1.2C43.3,198.9,42.8,199,42.4,199z"/>
<path class="st6" d="M32.2,210.6c0.4-0.4,0.7-1,0.7-1.6s-0.2-1.1-0.6-1.6c-0.4-0.4-1-0.6-1.6-0.6c-0.6,0-1.1,0.3-1.6,0.7
	c-0.3,0.3-0.5,0.9-0.7,1.4c-0.1,0.6-0.2,1.2-0.1,1.9v0.5h0.5c0.7,0,1.3,0,1.9-0.1C31.4,211.1,31.9,210.9,32.2,210.6z M29.4,210.4
	c0-0.4,0-0.8,0.1-1.2c0.1-0.5,0.3-0.8,0.4-0.9c0.3-0.3,0.6-0.4,0.9-0.4c0.3,0,0.6,0.1,0.8,0.3c0.2,0.2,0.3,0.5,0.3,0.8
	s-0.1,0.6-0.4,0.9c-0.1,0.1-0.4,0.3-0.9,0.4C30.3,210.3,29.9,210.4,29.4,210.4z"/>
<path class="st6" d="M49.3,195.6c0-1.1,0-2.3-0.3-3.8c-0.1-0.2-0.2-0.4-0.3-0.6c-0.2-0.2-0.4-0.3-0.7-0.4c-1.5-0.3-2.7-0.3-3.8-0.3
	c-2.1,0-3.9,0.5-5.5,1.5c-1.6,0.9-2.9,2.4-4.2,4.2h-4.3c-0.5,0-1,0.2-1.4,0.4c-0.4,0.2-0.8,0.6-1,1l0.4,0.2l-0.3-0.2l-2.2,4.4
	c-0.1,0.2-0.1,0.4-0.2,0.7c0,0.4,0.2,0.8,0.5,1.1s0.7,0.5,1.1,0.5h4.6c0.5,0,1,0.1,1.4,0.3c0.5,0.2,0.9,0.5,1.2,0.8
	c0.3,0.3,0.6,0.8,0.8,1.2c0.2,0.5,0.3,0.9,0.3,1.4v0.5v4.2c0,0.4,0.2,0.8,0.5,1.1c0.3,0.3,0.7,0.5,1.1,0.5c0.2,0,0.5-0.1,0.7-0.2
	l4.4-2.2c0.4-0.2,0.8-0.6,1-1c0.2-0.4,0.4-0.9,0.4-1.4v-4.2c1.9-1.2,3.3-2.6,4.2-4.2C48.8,199.4,49.3,197.6,49.3,195.6z M26.7,203.1
	c-0.1-0.1-0.2-0.2-0.2-0.4c0-0.1,0-0.2,0.1-0.3l2.2-4.4c0.1-0.2,0.3-0.5,0.6-0.6c0.3-0.2,0.6-0.3,0.8-0.3H34c-0.8,1.6-2.1,4.2-3,6.1
	h-3.9C27,203.3,26.8,203.2,26.7,203.1z M42.3,210.4c-0.2,0.3-0.4,0.5-0.6,0.6l0.2,0.4l-0.1-0.1l-0.1-0.3l-4.4,2.2
	c-0.1,0-0.2,0.1-0.3,0.1s-0.3-0.1-0.4-0.2c-0.1-0.1-0.2-0.2-0.2-0.4v-3.8c1.8-0.9,4.5-2.2,6.1-3v3.7
	C42.6,209.8,42.5,210.1,42.3,210.4z M47,200.6c-0.9,1.5-2.2,2.8-4.1,4c0,0,0,0-0.1,0c-1.4,0.7-4.2,2.1-6.3,3.1c0-0.5-0.1-1-0.3-1.5
	c-0.2-0.6-0.6-1.1-1-1.5c-0.4-0.4-1-0.8-1.5-1s-1-0.3-1.5-0.3c1-2.1,2.4-4.9,3.1-6.3c0,0,0-0.1,0.1-0.1c1.2-1.9,2.5-3.2,4-4.1
	c1.5-0.9,3.1-1.3,5-1.3c1.1,0,2.2,0,3.6,0.3c0,0,0.1,0,0.1,0.1c-0.1-0.1-0.1-0.1-0.1,0c0.3,1.4,0.3,2.5,0.3,3.6
	C48.3,197.5,47.9,199.1,47,200.6z"/>
<path class="st6" d="M33.5,212.1l-3.5,3.6c-0.2,0.2-0.2,0.5,0,0.7c0.2,0.2,0.5,0.2,0.7,0l3.5-3.5c0.2-0.2,0.2-0.5,0-0.7
	C34.1,211.9,33.7,211.9,33.5,212.1z"/>
<radialGradient id="SVGID_4_" cx="-249.4504" cy="596.8918" r="1" gradientTransform="matrix(6.859431e-16 11.2023 11.2591 -6.894211e-16 -6682.936 3052.6206)" gradientUnits="userSpaceOnUse">
	<stop  offset="0" style="stop-color:#434F58"/>
	<stop  offset="1" style="stop-color:#434F58;stop-opacity:0"/>
</radialGradient>
<path class="st7" d="M32.3,259.9l-5.1-0.2c-0.7,0-1.2-0.8-0.8-1.5l2.5-4.6c0.2-0.3,0.5-0.5,0.9-0.5h4.8c0.4,0,0.7-0.2,0.9-0.5
	c3.8-6.1,9.5-6,12.3-5.2c0.3,0.1,0.5,0.3,0.6,0.6c2,6.8-2.5,10.9-5.2,12.7c-0.3,0.2-0.5,0.5-0.5,0.9v4.3c0,0.4-0.2,0.7-0.5,0.9
	l-4.5,2.4c-0.7,0.4-1.5-0.1-1.5-0.9v-4.5C36.1,261.8,34.5,260,32.3,259.9z"/>
<path class="st6" d="M27.2,261.8l-3.5,3.5c-0.2,0.2-0.2,0.5,0,0.7c0.2,0.2,0.5,0.2,0.7,0l3.5-3.5c0.2-0.2,0.2-0.5,0-0.7
	C27.7,261.6,27.4,261.6,27.2,261.8z"/>
<path class="st6" d="M43.4,251c-0.5-0.2-1-0.3-1.5-0.1c-0.5,0.1-1,0.4-1.3,0.7c-0.4,0.4-0.6,0.8-0.7,1.3c-0.1,0.5,0,1,0.1,1.5
	c0.2,0.5,0.5,0.9,1,1.2c0.4,0.3,0.9,0.4,1.5,0.4c0.7,0,1.4-0.3,1.9-0.8s0.8-1.2,0.8-1.9c0-0.5-0.2-1-0.4-1.5S43.9,251.2,43.4,251z
	 M42.4,255c-0.3,0-0.6-0.1-0.9-0.3s-0.5-0.4-0.6-0.7c-0.1-0.3-0.2-0.6-0.1-0.9c0.1-0.3,0.2-0.6,0.4-0.8s0.5-0.4,0.8-0.4
	c0.3-0.1,0.6,0,0.9,0.1c0.3,0.1,0.6,0.3,0.7,0.6c0.3,0.2,0.4,0.5,0.4,0.8c0,0.4-0.2,0.8-0.5,1.2C43.3,254.9,42.8,255,42.4,255z"/>
<path class="st6" d="M32.2,266.6c0.4-0.4,0.7-1,0.7-1.6s-0.2-1.1-0.6-1.6c-0.4-0.4-1-0.6-1.6-0.6c-0.6,0-1.1,0.3-1.6,0.7
	c-0.3,0.3-0.5,0.9-0.7,1.4c-0.1,0.6-0.2,1.2-0.1,1.9v0.5h0.5c0.7,0,1.3,0,1.9-0.1C31.4,267.1,31.9,266.9,32.2,266.6z M29.4,266.4
	c0-0.4,0-0.8,0.1-1.2c0.1-0.5,0.3-0.8,0.4-0.9c0.3-0.3,0.6-0.4,0.9-0.4c0.3,0,0.6,0.1,0.8,0.3c0.2,0.2,0.3,0.5,0.3,0.8
	s-0.1,0.6-0.4,0.9c-0.1,0.1-0.4,0.3-0.9,0.4C30.3,266.3,29.9,266.4,29.4,266.4z"/>
<path class="st6" d="M49.3,251.6c0-1.1,0-2.3-0.3-3.8c-0.1-0.2-0.2-0.4-0.3-0.6c-0.2-0.2-0.4-0.3-0.7-0.4c-1.5-0.3-2.7-0.3-3.8-0.3
	c-2.1,0-3.9,0.5-5.5,1.5c-1.6,0.9-2.9,2.4-4.2,4.2h-4.3c-0.5,0-1,0.2-1.4,0.4c-0.4,0.2-0.8,0.6-1,1l0.4,0.2l-0.3-0.2l-2.2,4.4
	c-0.1,0.2-0.1,0.4-0.2,0.7c0,0.4,0.2,0.8,0.5,1.1c0.3,0.3,0.7,0.5,1.1,0.5h4.6c0.5,0,1,0.1,1.4,0.3c0.5,0.2,0.9,0.5,1.2,0.8
	c0.3,0.3,0.6,0.8,0.8,1.2c0.2,0.5,0.3,0.9,0.3,1.4v0.5v4.2c0,0.4,0.2,0.8,0.5,1.1c0.3,0.3,0.7,0.5,1.1,0.5c0.2,0,0.5-0.1,0.7-0.2
	l4.4-2.2c0.4-0.2,0.8-0.6,1-1c0.2-0.4,0.4-0.9,0.4-1.4v-4.2c1.9-1.2,3.3-2.6,4.2-4.2C48.8,255.4,49.3,253.6,49.3,251.6z M26.7,259.1
	c-0.1-0.1-0.2-0.2-0.2-0.4c0-0.1,0-0.2,0.1-0.3l2.2-4.4c0.1-0.2,0.3-0.5,0.6-0.6c0.3-0.2,0.6-0.3,0.8-0.3H34c-0.8,1.6-2.1,4.2-3,6.1
	h-3.9C27,259.3,26.8,259.2,26.7,259.1z M42.3,266.4c-0.2,0.3-0.4,0.5-0.6,0.6l0.2,0.4l-0.1-0.1l-0.1-0.3l-4.4,2.2
	c-0.1,0-0.2,0.1-0.3,0.1s-0.3-0.1-0.4-0.2c-0.1-0.1-0.2-0.2-0.2-0.4v-3.8c1.8-0.9,4.5-2.2,6.1-3v3.7
	C42.6,265.8,42.5,266.1,42.3,266.4z M47,256.6c-0.9,1.5-2.2,2.8-4.1,4c0,0,0,0-0.1,0c-1.4,0.7-4.2,2.1-6.3,3.1c0-0.5-0.1-1-0.3-1.5
	c-0.2-0.6-0.6-1.1-1-1.5c-0.4-0.4-1-0.8-1.5-1c-0.5-0.2-1-0.3-1.5-0.3c1-2.1,2.4-4.9,3.1-6.3c0,0,0-0.1,0.1-0.1
	c1.2-1.9,2.5-3.2,4-4.1c1.5-0.9,3.1-1.3,5-1.3c1.1,0,2.2,0,3.6,0.3c0,0,0.1,0,0.1,0.1c-0.1-0.1-0.1-0.1-0.1,0
	c0.3,1.4,0.3,2.5,0.3,3.6C48.3,253.5,47.9,255.1,47,256.6z"/>
<path class="st6" d="M33.5,268.1l-3.5,3.6c-0.2,0.2-0.2,0.5,0,0.7c0.2,0.2,0.5,0.2,0.7,0l3.5-3.5c0.2-0.2,0.2-0.5,0-0.7
	C34.1,267.9,33.7,267.9,33.5,268.1z"/>
<radialGradient id="SVGID_5_" cx="-249.4504" cy="596.8918" r="1" gradientTransform="matrix(6.859431e-16 11.2023 11.2591 -6.894211e-16 -6682.936 3108.6206)" gradientUnits="userSpaceOnUse">
	<stop  offset="0" style="stop-color:#677983"/>
	<stop  offset="1" style="stop-color:#677983;stop-opacity:0"/>
</radialGradient>
<path class="st8" d="M32.3,315.9l-5.1-0.2c-0.7,0-1.2-0.8-0.8-1.5l2.5-4.6c0.2-0.3,0.5-0.5,0.9-0.5h4.8c0.4,0,0.7-0.2,0.9-0.5
	c3.8-6.1,9.5-6,12.3-5.2c0.3,0.1,0.5,0.3,0.6,0.6c2,6.8-2.5,10.9-5.2,12.7c-0.3,0.2-0.5,0.5-0.5,0.9v4.3c0,0.4-0.2,0.7-0.5,0.9
	l-4.5,2.4c-0.7,0.4-1.5-0.1-1.5-0.9v-4.5C36.1,317.8,34.5,316,32.3,315.9z"/>
<path class="st9" d="M27.2,317.8l-3.5,3.5c-0.2,0.2-0.2,0.5,0,0.7c0.2,0.2,0.5,0.2,0.7,0l3.5-3.5c0.2-0.2,0.2-0.5,0-0.7
	C27.7,317.6,27.4,317.6,27.2,317.8z"/>
<path class="st9" d="M43.4,307c-0.5-0.2-1-0.3-1.5-0.1c-0.5,0.1-1,0.4-1.3,0.7c-0.4,0.4-0.6,0.8-0.7,1.3c-0.1,0.5,0,1,0.1,1.5
	c0.2,0.5,0.5,0.9,1,1.2c0.4,0.3,0.9,0.4,1.5,0.4c0.7,0,1.4-0.3,1.9-0.8s0.8-1.2,0.8-1.9c0-0.5-0.2-1-0.4-1.5S43.9,307.2,43.4,307z
	 M42.4,311c-0.3,0-0.6-0.1-0.9-0.3c-0.3-0.2-0.5-0.4-0.6-0.7c-0.1-0.3-0.2-0.6-0.1-0.9c0.1-0.3,0.2-0.6,0.4-0.8
	c0.2-0.2,0.5-0.4,0.8-0.4c0.3-0.1,0.6,0,0.9,0.1c0.3,0.1,0.6,0.3,0.7,0.6c0.3,0.2,0.4,0.5,0.4,0.8c0,0.4-0.2,0.8-0.5,1.2
	C43.3,310.9,42.8,311,42.4,311z"/>
<path class="st9" d="M32.2,322.6c0.4-0.4,0.7-1,0.7-1.6s-0.2-1.1-0.6-1.6c-0.4-0.4-1-0.6-1.6-0.6c-0.6,0-1.1,0.3-1.6,0.7
	c-0.3,0.3-0.5,0.9-0.7,1.4c-0.1,0.6-0.2,1.2-0.1,1.9v0.5h0.5c0.7,0,1.3,0,1.9-0.1C31.4,323.1,31.9,322.9,32.2,322.6z M29.4,322.4
	c0-0.4,0-0.8,0.1-1.2c0.1-0.5,0.3-0.8,0.4-0.9c0.3-0.3,0.6-0.4,0.9-0.4c0.3,0,0.6,0.1,0.8,0.3c0.2,0.2,0.3,0.5,0.3,0.8
	s-0.1,0.6-0.4,0.9c-0.1,0.1-0.4,0.3-0.9,0.4C30.3,322.3,29.9,322.4,29.4,322.4z"/>
<path class="st9" d="M49.3,307.6c0-1.1,0-2.3-0.3-3.8c-0.1-0.2-0.2-0.4-0.3-0.6c-0.2-0.2-0.4-0.3-0.7-0.4c-1.5-0.3-2.7-0.3-3.8-0.3
	c-2.1,0-3.9,0.5-5.5,1.5c-1.6,0.9-2.9,2.4-4.2,4.2h-4.3c-0.5,0-1,0.2-1.4,0.4c-0.4,0.2-0.8,0.6-1,1l0.4,0.2l-0.3-0.2l-2.2,4.4
	c-0.1,0.2-0.1,0.4-0.2,0.7c0,0.4,0.2,0.8,0.5,1.1c0.3,0.3,0.7,0.5,1.1,0.5h4.6c0.5,0,1,0.1,1.4,0.3c0.5,0.2,0.9,0.5,1.2,0.8
	c0.3,0.3,0.6,0.8,0.8,1.2c0.2,0.5,0.3,0.9,0.3,1.4v0.5v4.2c0,0.4,0.2,0.8,0.5,1.1c0.3,0.3,0.7,0.5,1.1,0.5c0.2,0,0.5-0.1,0.7-0.2
	l4.4-2.2c0.4-0.2,0.8-0.6,1-1c0.2-0.4,0.4-0.9,0.4-1.4v-4.2c1.9-1.2,3.3-2.6,4.2-4.2C48.8,311.4,49.3,309.6,49.3,307.6z M26.7,315.1
	c-0.1-0.1-0.2-0.2-0.2-0.4c0-0.1,0-0.2,0.1-0.3l2.2-4.4c0.1-0.2,0.3-0.5,0.6-0.6c0.3-0.2,0.6-0.3,0.8-0.3H34c-0.8,1.6-2.1,4.2-3,6.1
	h-3.9C27,315.3,26.8,315.2,26.7,315.1z M42.3,322.4c-0.2,0.3-0.4,0.5-0.6,0.6l0.2,0.4l-0.1-0.1l-0.1-0.3l-4.4,2.2
	c-0.1,0-0.2,0.1-0.3,0.1s-0.3-0.1-0.4-0.2c-0.1-0.1-0.2-0.2-0.2-0.4v-3.8c1.8-0.9,4.5-2.2,6.1-3v3.7
	C42.6,321.8,42.5,322.1,42.3,322.4z M47,312.6c-0.9,1.5-2.2,2.8-4.1,4c0,0,0,0-0.1,0c-1.4,0.7-4.2,2.1-6.3,3.1c0-0.5-0.1-1-0.3-1.5
	c-0.2-0.6-0.6-1.1-1-1.5c-0.4-0.4-1-0.8-1.5-1c-0.5-0.2-1-0.3-1.5-0.3c1-2.1,2.4-4.9,3.1-6.3c0,0,0-0.1,0.1-0.1
	c1.2-1.9,2.5-3.2,4-4.1s3.1-1.3,5-1.3c1.1,0,2.2,0,3.6,0.3c0,0,0.1,0,0.1,0.1c-0.1-0.1-0.1-0.1-0.1,0c0.3,1.4,0.3,2.5,0.3,3.6
	C48.3,309.5,47.9,311.1,47,312.6z"/>
<path class="st9" d="M33.5,324.1l-3.5,3.6c-0.2,0.2-0.2,0.5,0,0.7c0.2,0.2,0.5,0.2,0.7,0l3.5-3.5c0.2-0.2,0.2-0.5,0-0.7
	C34.1,323.9,33.7,323.9,33.5,324.1z"/>
</svg>
