<?xml version="1.0" encoding="utf-8"?>
<!-- Generator: Adobe Illustrator 25.2.1, SVG Export Plug-In . SVG Version: 6.00 Build 0)  -->
<svg version="1.1" id="Layer_1" xmlns="http://www.w3.org/2000/svg" xmlns:xlink="http://www.w3.org/1999/xlink" x="0px" y="0px"
	 viewBox="0 0 72 352" style="enable-background:new 0 0 72 352;" xml:space="preserve">
<style type="text/css">
	.st0{fill:url(#SVGID_1_);fill-opacity:0.25;}
	.st1{fill:none;stroke:#0073EC;}
	.st2{fill:url(#SVGID_2_);fill-opacity:0.25;}
	.st3{fill:none;stroke:#A644E5;}
	.st4{fill:url(#SVGID_3_);fill-opacity:0.25;}
	.st5{fill:none;stroke:#00CAAA;}
	.st6{fill:none;stroke:#434F58;}
	.st7{fill:url(#SVGID_4_);fill-opacity:0.25;}
	.st8{fill:url(#SVGID_5_);fill-opacity:0.25;}
	.st9{fill:none;stroke:#677983;}
</style>
<radialGradient id="SVGID_1_" cx="-249.7473" cy="593.6923" r="1" gradientTransform="matrix(6.965179e-16 11.375 13 -7.960204e-16 -7682 2877.25)" gradientUnits="userSpaceOnUse">
	<stop  offset="0" style="stop-color:#0073EC"/>
	<stop  offset="1" style="stop-color:#0073EC;stop-opacity:0"/>
</radialGradient>
<path class="st0" d="M26.3,28.3H23c0,6.3,5.1,11.4,11.4,11.4v7.3c0,0.4,0.4,0.8,0.8,0.8h1.6c0.4,0,0.8-0.4,0.8-0.8v-7.3
	C37.6,33.3,32.5,28.3,26.3,28.3z M45.8,25c-4.3,0-8,2.4-9.9,5.9c1.4,1.5,2.4,3.4,3,5.5C44.5,35.7,49,30.9,49,25H45.8z"/>
<path class="st1" d="M26.3,28.3H23c0,6.3,5.1,11.4,11.4,11.4v7.3c0,0.4,0.4,0.8,0.8,0.8h1.6c0.4,0,0.8-0.4,0.8-0.8v-7.3
	C37.6,33.3,32.5,28.3,26.3,28.3z M45.8,25c-4.3,0-8,2.4-9.9,5.9c1.4,1.5,2.4,3.4,3,5.5C44.5,35.7,49,30.9,49,25H45.8z"/>
<radialGradient id="SVGID_2_" cx="-249.7473" cy="593.6923" r="1" gradientTransform="matrix(6.965179e-16 11.375 13 -7.960204e-16 -7682 2933.25)" gradientUnits="userSpaceOnUse">
	<stop  offset="0" style="stop-color:#A644E5"/>
	<stop  offset="1" style="stop-color:#A644E5;stop-opacity:0"/>
</radialGradient>
<path class="st2" d="M26.3,84.3H23c0,6.3,5.1,11.4,11.4,11.4v7.3c0,0.4,0.4,0.8,0.8,0.8h1.6c0.4,0,0.8-0.4,0.8-0.8v-7.3
	C37.6,89.3,32.5,84.3,26.3,84.3z M45.8,81c-4.3,0-8,2.4-9.9,5.8c1.4,1.5,2.4,3.4,3,5.5C44.5,91.7,49,86.9,49,81H45.8z"/>
<path class="st3" d="M26.3,84.3H23c0,6.3,5.1,11.4,11.4,11.4v7.3c0,0.4,0.4,0.8,0.8,0.8h1.6c0.4,0,0.8-0.4,0.8-0.8v-7.3
	C37.6,89.3,32.5,84.3,26.3,84.3z M45.8,81c-4.3,0-8,2.4-9.9,5.8c1.4,1.5,2.4,3.4,3,5.5C44.5,91.7,49,86.9,49,81H45.8z"/>
<radialGradient id="SVGID_3_" cx="-249.7473" cy="593.6923" r="1" gradientTransform="matrix(6.965179e-16 11.375 13 -7.960204e-16 -7682 2989.25)" gradientUnits="userSpaceOnUse">
	<stop  offset="0" style="stop-color:#00CAAA"/>
	<stop  offset="1" style="stop-color:#00CAAA;stop-opacity:0"/>
</radialGradient>
<path class="st4" d="M26.3,140.3H23c0,6.3,5.1,11.4,11.4,11.4v7.3c0,0.4,0.4,0.8,0.8,0.8h1.6c0.4,0,0.8-0.4,0.8-0.8v-7.3
	C37.6,145.3,32.5,140.3,26.3,140.3z M45.8,137c-4.3,0-8,2.4-9.9,5.9c1.4,1.5,2.4,3.4,3,5.5c5.7-0.6,10.2-5.4,10.2-11.3H45.8z"/>
<path class="st5" d="M26.3,140.3H23c0,6.3,5.1,11.4,11.4,11.4v7.3c0,0.4,0.4,0.8,0.8,0.8h1.6c0.4,0,0.8-0.4,0.8-0.8v-7.3
	C37.6,145.3,32.5,140.3,26.3,140.3z M45.8,137c-4.3,0-8,2.4-9.9,5.9c1.4,1.5,2.4,3.4,3,5.5c5.7-0.6,10.2-5.4,10.2-11.3H45.8z"/>
<path class="st6" d="M26.3,196.3H23c0,6.3,5.1,11.4,11.4,11.4v7.3c0,0.4,0.4,0.8,0.8,0.8h1.6c0.4,0,0.8-0.4,0.8-0.8v-7.3
	C37.6,201.3,32.5,196.3,26.3,196.3z M45.8,193c-4.3,0-8,2.4-9.9,5.9c1.4,1.5,2.4,3.4,3,5.5c5.7-0.6,10.2-5.4,10.2-11.3H45.8z"/>
<radialGradient id="SVGID_4_" cx="-249.7473" cy="593.6923" r="1" gradientTransform="matrix(6.965179e-16 11.375 13 -7.960204e-16 -7682 3101.25)" gradientUnits="userSpaceOnUse">
	<stop  offset="0" style="stop-color:#434F58"/>
	<stop  offset="1" style="stop-color:#434F58;stop-opacity:0"/>
</radialGradient>
<path class="st7" d="M26.3,252.3H23c0,6.3,5.1,11.4,11.4,11.4v7.3c0,0.4,0.4,0.8,0.8,0.8h1.6c0.4,0,0.8-0.4,0.8-0.8v-7.3
	C37.6,257.3,32.5,252.3,26.3,252.3z M45.8,249c-4.3,0-8,2.4-9.9,5.9c1.4,1.5,2.4,3.4,3,5.5c5.7-0.6,10.2-5.4,10.2-11.3H45.8z"/>
<path class="st6" d="M26.3,252.3H23c0,6.3,5.1,11.4,11.4,11.4v7.3c0,0.4,0.4,0.8,0.8,0.8h1.6c0.4,0,0.8-0.4,0.8-0.8v-7.3
	C37.6,257.3,32.5,252.3,26.3,252.3z M45.8,249c-4.3,0-8,2.4-9.9,5.9c1.4,1.5,2.4,3.4,3,5.5c5.7-0.6,10.2-5.4,10.2-11.3H45.8z"/>
<radialGradient id="SVGID_5_" cx="-249.7473" cy="593.6923" r="1" gradientTransform="matrix(6.965179e-16 11.375 13 -7.960204e-16 -7682 3157.25)" gradientUnits="userSpaceOnUse">
	<stop  offset="0" style="stop-color:#677983"/>
	<stop  offset="1" style="stop-color:#677983;stop-opacity:0"/>
</radialGradient>
<path class="st8" d="M26.3,308.3H23c0,6.3,5.1,11.4,11.4,11.4v7.3c0,0.4,0.4,0.8,0.8,0.8h1.6c0.4,0,0.8-0.4,0.8-0.8v-7.3
	C37.6,313.3,32.5,308.3,26.3,308.3z M45.8,305c-4.3,0-8,2.4-9.9,5.9c1.4,1.5,2.4,3.4,3,5.5c5.7-0.6,10.2-5.4,10.2-11.3H45.8z"/>
<path class="st9" d="M26.3,308.3H23c0,6.3,5.1,11.4,11.4,11.4v7.3c0,0.4,0.4,0.8,0.8,0.8h1.6c0.4,0,0.8-0.4,0.8-0.8v-7.3
	C37.6,313.3,32.5,308.3,26.3,308.3z M45.8,305c-4.3,0-8,2.4-9.9,5.9c1.4,1.5,2.4,3.4,3,5.5c5.7-0.6,10.2-5.4,10.2-11.3H45.8z"/>
</svg>
