<?xml version="1.0" encoding="utf-8"?>
<!-- Generator: Adobe Illustrator 25.2.1, SVG Export Plug-In . SVG Version: 6.00 Build 0)  -->
<svg version="1.1" id="Layer_1" xmlns="http://www.w3.org/2000/svg" xmlns:xlink="http://www.w3.org/1999/xlink" x="0px" y="0px"
	 viewBox="0 0 72 352" style="enable-background:new 0 0 72 352;" xml:space="preserve">
<style type="text/css">
	.st0{fill-rule:evenodd;clip-rule:evenodd;fill:url(#SVGID_1_);fill-opacity:0.25;}
	.st1{fill:#0073EC;}
	.st2{fill-rule:evenodd;clip-rule:evenodd;fill:#0073EC;}
	.st3{fill-rule:evenodd;clip-rule:evenodd;fill:url(#SVGID_2_);fill-opacity:0.25;}
	.st4{fill:#A644E5;}
	.st5{fill-rule:evenodd;clip-rule:evenodd;fill:#A644E5;}
	.st6{fill-rule:evenodd;clip-rule:evenodd;fill:url(#SVGID_3_);fill-opacity:0.25;}
	.st7{fill:#00CAAA;}
	.st8{fill-rule:evenodd;clip-rule:evenodd;fill:#00CAAA;}
	.st9{fill-rule:evenodd;clip-rule:evenodd;fill:#434F58;}
	.st10{fill-rule:evenodd;clip-rule:evenodd;fill:url(#SVGID_4_);fill-opacity:0.25;}
	.st11{fill:#434F58;}
	.st12{fill-rule:evenodd;clip-rule:evenodd;fill:url(#SVGID_5_);fill-opacity:0.25;}
	.st13{fill:#677983;}
	.st14{fill-rule:evenodd;clip-rule:evenodd;fill:#677983;}
</style>
<radialGradient id="SVGID_1_" cx="-253.3571" cy="592.2143" r="1" gradientTransform="matrix(8.572528e-16 14 14 -8.572528e-16 -8255 3583)" gradientUnits="userSpaceOnUse">
	<stop  offset="0" style="stop-color:#0073EC"/>
	<stop  offset="1" style="stop-color:#0073EC;stop-opacity:0"/>
</radialGradient>
<path class="st0" d="M46.2,30.8v-8.4c0-0.1,0-0.2-0.1-0.3C45.9,22,45.8,22,45.7,22H22.5c-0.1,0-0.2,0-0.3,0.1
	C22,22.2,22,22.4,22,22.5v20c0,0.1,0,0.2,0.1,0.3c0.1,0.1,0.2,0.1,0.3,0.1h11.8v0.6c-0.4,0.2-0.8,0.5-1.2,0.8l0,0
	c-1.4,1.4-2.2,3.1-2.2,5.1V50H50v-0.7c0-1.9-0.8-3.7-2.2-5.1l0,0c-0.5-0.5-1.2-0.9-1.9-1v-0.7c0.2-0.2,0.5-0.4,0.6-0.6
	c0.7-1.1,1.1-2.5,1.1-3.8v-0.9l0,0c-0.1-0.9-0.4-1.7-0.7-2.5c0,0,0,0,0-0.1c0,0,0-0.1-0.1-0.1l0,0v0l0-0.1l0,0
	c-0.3-0.4-0.3-0.8-0.6-1.3C46.2,32.3,46.2,31.5,46.2,30.8z"/>
<path class="st1" d="M25,25.9c0.5,0,1-0.4,1-1s-0.4-1-1-1c-0.5,0-1,0.4-1,1S24.4,25.9,25,25.9z"/>
<path class="st1" d="M28.9,25c0,0.5-0.4,1-1,1c-0.5,0-1-0.4-1-1s0.4-1,1-1C28.5,24,28.9,24.4,28.9,25z"/>
<path class="st1" d="M31,25.9c0.5,0,1-0.4,1-1s-0.4-1-1-1c-0.5,0-1,0.4-1,1S30.4,25.9,31,25.9z"/>
<path class="st2" d="M22.3,22c-0.1,0-0.2,0-0.2,0.1C22,22.2,22,22.2,22,22.3v20.2c0,0.1,0,0.2,0.1,0.2c0.1,0.1,0.2,0.1,0.2,0.1H36
	l-0.3-0.2c-0.3-0.2-0.5-0.5-0.6-0.7l0-0.1H23V28.3h22.1v3l0,0c0.3,0.2,0.5,0.4,0.8,0.6l0.2,0.2v-9.9c0-0.1,0-0.2-0.1-0.2
	C46,22,45.9,22,45.8,22H22.3z M23,27.3V23h22.1v4.3H23z"/>
<path class="st1" d="M30.1,33.4l-3.6-3l0.6,4.7l0.8-1.1l0.8,1.5l0.9-0.5l-0.8-1.4L30.1,33.4z"/>
<path class="st1" d="M33,38c0-4,3.3-7.3,7.3-7.3c2,0,3.8,0.8,5.1,2.1l0,0c0.6,0.6,0.9,1.1,1.3,1.7l0,0v0c0,0,0,0,0,0.1l0,0l0,0
	c0,0,0.1,0,0.1,0.1c0,0,0,0,0,0.1c0.3,0.8,0.6,1.6,0.7,2.5l0,0l0,0.9c0,1.3-0.4,2.7-1.1,3.8c-0.4,0.6-1,1-1.8,1h-6v-0.5
	c0-0.9,0.8-1.6,1.6-1.6c0.7,0,1.3,0.4,1.5,1h3c0.3,0,0.7-0.2,0.9-0.5l0,0c0.7-1.1,1-2.5,1-3.7l0,0l0-0.5c-0.1-0.1-0.1-0.2-0.1-0.2
	v-0.2c-0.6-2.8-3.1-4.9-6.1-4.9c-3.5,0-6.3,2.9-6.3,6.3c0,0.1-0.1,0.3-0.2,0.4c-0.1,0.1-0.2,0.2-0.4,0.2c-0.1,0-0.3-0.1-0.4-0.2
	C33.1,38.3,33,38.2,33,38z"/>
<path class="st1" d="M40.4,33.2c-2.7,0-4.8,2.1-4.8,4.8c0,1.8,1,3.3,2.4,4.2l0.2,0.1v-0.2c0-0.2,0.1-0.4,0.1-0.6l0,0
	c0-0.1,0-0.1,0.1-0.2l0-0.1l-0.1-0.1c-1.1-0.7-1.7-1.9-1.7-3.2c0-2.2,1.7-3.8,3.8-3.8c2.1,0,3.8,1.7,3.8,3.8c0,1.1-0.5,2.2-1.3,2.9
	l-0.2,0.2h0.4c0.4,0,0.9-0.1,1.2-0.3l0,0l0,0c0.6-0.8,0.9-1.8,0.9-2.8C45.2,35.4,43.1,33.2,40.4,33.2z"/>
<path class="st2" d="M43.5,43.6c1.5-0.6,3.1-0.2,4.3,0.9c1.4,1.3,2.2,3.1,2.2,5V50H31v-0.5c0-1.9,0.8-3.7,2.2-5
	c1.1-1.1,2.9-1.4,4.3-0.9c1,0.3,2,0.5,3.1,0.5C41.5,44.2,42.6,44,43.5,43.6L43.5,43.6z M33.9,45.2c-1.1,1-1.7,2.3-1.8,3.7H49
	c-0.2-1.4-0.8-2.8-1.8-3.7c-0.9-0.8-2.1-1-3.2-0.6c-1.1,0.4-2.2,0.6-3.4,0.6s-2.3-0.2-3.4-0.6l0,0C36,44.1,34.7,44.4,33.9,45.2z"/>
<g>
	
		<radialGradient id="SVGID_2_" cx="-253.3571" cy="592.2143" r="1" gradientTransform="matrix(8.572528e-16 14 14 -8.572528e-16 -8255 3639)" gradientUnits="userSpaceOnUse">
		<stop  offset="0" style="stop-color:#A644E5"/>
		<stop  offset="1" style="stop-color:#A644E5;stop-opacity:0"/>
	</radialGradient>
	<path class="st3" d="M46.2,86.8v-8.4c0-0.1,0-0.2-0.1-0.3C45.9,78,45.8,78,45.7,78H22.5c-0.1,0-0.2,0-0.3,0.1
		C22,78.2,22,78.4,22,78.5v20c0,0.1,0,0.2,0.1,0.3c0.1,0.1,0.2,0.1,0.3,0.1h11.8v0.6c-0.4,0.2-0.8,0.5-1.2,0.8l0,0
		c-1.4,1.4-2.2,3.1-2.2,5.1v0.6H50v-0.7c0-1.9-0.8-3.7-2.2-5.1l0,0c-0.5-0.5-1.2-0.9-1.9-1v-0.7c0.2-0.2,0.5-0.4,0.6-0.6
		c0.7-1.1,1.1-2.5,1.1-3.8v-0.9l0,0c-0.1-0.9-0.4-1.7-0.7-2.5c0,0,0,0,0-0.1c0,0,0-0.1-0.1-0.1l0,0v0l0-0.1l0,0
		c-0.3-0.4-0.3-0.8-0.6-1.3C46.2,88.3,46.2,87.5,46.2,86.8z"/>
</g>
<path class="st4" d="M25,81.9c0.5,0,1-0.4,1-1s-0.4-1-1-1c-0.5,0-1,0.4-1,1S24.4,81.9,25,81.9z"/>
<path class="st4" d="M28.9,81c0,0.5-0.4,1-1,1c-0.5,0-1-0.4-1-1s0.4-1,1-1C28.5,80,28.9,80.4,28.9,81z"/>
<path class="st4" d="M31,81.9c0.5,0,1-0.4,1-1s-0.4-1-1-1c-0.5,0-1,0.4-1,1S30.4,81.9,31,81.9z"/>
<path class="st5" d="M22.3,78c-0.1,0-0.2,0-0.2,0.1C22,78.2,22,78.2,22,78.3v20.2c0,0.1,0,0.2,0.1,0.2c0.1,0.1,0.2,0.1,0.2,0.1H36
	l-0.3-0.2c-0.3-0.2-0.5-0.5-0.6-0.7l0-0.1H23V84.3h22.1v3l0,0c0.3,0.2,0.5,0.4,0.8,0.6l0.2,0.2v-9.9c0-0.1,0-0.2-0.1-0.2
	C46,78,45.9,78,45.8,78H22.3z M23,83.3V79h22.1v4.3H23z"/>
<path class="st4" d="M30.1,89.4l-3.6-3l0.6,4.7l0.8-1.1l0.8,1.5l0.9-0.5l-0.8-1.4L30.1,89.4z"/>
<path class="st4" d="M33,94c0-4,3.3-7.3,7.3-7.3c2,0,3.8,0.8,5.1,2.1l0,0c0.6,0.6,0.9,1.1,1.3,1.7l0,0v0c0,0,0,0,0,0.1l0,0l0,0
	c0,0,0.1,0,0.1,0.1c0,0,0,0,0,0.1c0.3,0.8,0.6,1.6,0.7,2.5l0,0l0,0.9c0,1.3-0.4,2.7-1.1,3.8c-0.4,0.6-1,1-1.8,1h-6v-0.5
	c0-0.9,0.8-1.6,1.6-1.6c0.7,0,1.3,0.4,1.5,1h3c0.3,0,0.7-0.2,0.9-0.5l0,0c0.7-1.1,1-2.5,1-3.7l0,0l0-0.5c-0.1-0.1-0.1-0.2-0.1-0.2
	v-0.2c-0.6-2.8-3.1-4.9-6.1-4.9c-3.5,0-6.3,2.9-6.3,6.3c0,0.1-0.1,0.3-0.2,0.4c-0.1,0.1-0.2,0.2-0.4,0.2c-0.1,0-0.3-0.1-0.4-0.2
	C33.1,94.3,33,94.2,33,94z"/>
<path class="st4" d="M40.4,89.2c-2.7,0-4.8,2.1-4.8,4.8c0,1.8,1,3.3,2.4,4.2l0.2,0.1v-0.2c0-0.2,0.1-0.4,0.1-0.6l0,0
	c0-0.1,0-0.1,0.1-0.2l0-0.1l-0.1-0.1c-1.1-0.7-1.7-1.9-1.7-3.2c0-2.2,1.7-3.8,3.8-3.8c2.1,0,3.8,1.7,3.8,3.8c0,1.1-0.5,2.2-1.3,2.9
	l-0.2,0.2h0.4c0.4,0,0.9-0.1,1.2-0.3l0,0l0,0c0.6-0.8,0.9-1.8,0.9-2.8C45.2,91.4,43.1,89.2,40.4,89.2z"/>
<path class="st5" d="M43.5,99.6c1.5-0.6,3.1-0.2,4.3,0.9c1.4,1.3,2.2,3.1,2.2,5v0.5H31v-0.5c0-1.9,0.8-3.7,2.2-5
	c1.1-1.1,2.9-1.4,4.3-0.9c1,0.3,2,0.5,3.1,0.5C41.5,100.2,42.6,100,43.5,99.6L43.5,99.6z M33.9,101.2c-1.1,1-1.7,2.3-1.8,3.7H49
	c-0.2-1.4-0.8-2.8-1.8-3.7c-0.9-0.8-2.1-1-3.2-0.6c-1.1,0.4-2.2,0.6-3.4,0.6s-2.3-0.2-3.4-0.6l0,0C36,100.1,34.7,100.4,33.9,101.2z"
	/>
<g>
	
		<radialGradient id="SVGID_3_" cx="-253.3571" cy="592.2143" r="1" gradientTransform="matrix(8.572528e-16 14 14 -8.572528e-16 -8255 3695)" gradientUnits="userSpaceOnUse">
		<stop  offset="0" style="stop-color:#00CAAA"/>
		<stop  offset="1" style="stop-color:#00CAAA;stop-opacity:0"/>
	</radialGradient>
	<path class="st6" d="M46.2,142.8v-8.4c0-0.1,0-0.2-0.1-0.3c-0.1-0.1-0.2-0.1-0.3-0.1H22.5c-0.1,0-0.2,0-0.3,0.1
		c-0.1,0.1-0.1,0.2-0.1,0.3v20c0,0.1,0,0.2,0.1,0.3c0.1,0.1,0.2,0.1,0.3,0.1h11.8v0.6c-0.4,0.2-0.8,0.5-1.2,0.8l0,0
		c-1.4,1.4-2.2,3.1-2.2,5.1v0.6H50v-0.7c0-1.9-0.8-3.7-2.2-5.1l0,0c-0.5-0.5-1.2-0.9-1.9-1v-0.7c0.2-0.2,0.5-0.4,0.6-0.6
		c0.7-1.1,1.1-2.5,1.1-3.8v-0.9l0,0c-0.1-0.9-0.4-1.7-0.7-2.5c0,0,0,0,0-0.1c0,0,0-0.1-0.1-0.1l0,0v0l0-0.1l0,0
		c-0.3-0.4-0.3-0.8-0.6-1.3C46.2,144.3,46.2,143.5,46.2,142.8z"/>
</g>
<path class="st7" d="M25,137.9c0.5,0,1-0.4,1-1c0-0.5-0.4-1-1-1c-0.5,0-1,0.4-1,1C24,137.5,24.4,137.9,25,137.9z"/>
<path class="st7" d="M28.9,137c0,0.5-0.4,1-1,1c-0.5,0-1-0.4-1-1c0-0.5,0.4-1,1-1C28.5,136,28.9,136.4,28.9,137z"/>
<path class="st7" d="M31,137.9c0.5,0,1-0.4,1-1c0-0.5-0.4-1-1-1c-0.5,0-1,0.4-1,1C30,137.5,30.4,137.9,31,137.9z"/>
<path class="st8" d="M22.3,134c-0.1,0-0.2,0-0.2,0.1c-0.1,0.1-0.1,0.2-0.1,0.2v20.2c0,0.1,0,0.2,0.1,0.2c0.1,0.1,0.2,0.1,0.2,0.1H36
	l-0.3-0.2c-0.3-0.2-0.5-0.5-0.6-0.7l0-0.1H23v-13.5h22.1v3l0,0c0.3,0.2,0.5,0.4,0.8,0.6l0.2,0.2v-9.9c0-0.1,0-0.2-0.1-0.2
	c-0.1-0.1-0.2-0.1-0.2-0.1H22.3z M23,139.3V135h22.1v4.3H23z"/>
<path class="st7" d="M30.1,145.4l-3.6-3l0.6,4.7l0.8-1.1l0.8,1.5l0.9-0.5l-0.8-1.4L30.1,145.4z"/>
<path class="st7" d="M33,150c0-4,3.3-7.3,7.3-7.3c2,0,3.8,0.8,5.1,2.1l0,0c0.6,0.6,0.9,1.1,1.3,1.7l0,0v0c0,0,0,0,0,0.1l0,0l0,0
	c0,0,0.1,0,0.1,0.1c0,0,0,0,0,0.1c0.3,0.8,0.6,1.6,0.7,2.5l0,0l0,0.9c0,1.3-0.4,2.7-1.1,3.8c-0.4,0.6-1,1-1.8,1h-6v-0.5
	c0-0.9,0.8-1.6,1.6-1.6c0.7,0,1.3,0.4,1.5,1h3c0.3,0,0.7-0.2,0.9-0.5l0,0c0.7-1.1,1-2.4,1-3.7l0,0l0-0.5c-0.1-0.1-0.1-0.2-0.1-0.2
	v-0.2c-0.6-2.8-3.1-4.9-6.1-4.9c-3.5,0-6.3,2.9-6.3,6.3c0,0.1-0.1,0.3-0.2,0.4c-0.1,0.1-0.2,0.2-0.4,0.2c-0.1,0-0.3-0.1-0.4-0.2
	C33.1,150.3,33,150.2,33,150z"/>
<path class="st7" d="M40.4,145.2c-2.7,0-4.8,2.1-4.8,4.8c0,1.8,1,3.3,2.4,4.2l0.2,0.1v-0.2c0-0.2,0.1-0.4,0.1-0.6l0,0
	c0-0.1,0-0.1,0.1-0.2l0-0.1l-0.1-0.1c-1.1-0.7-1.7-1.9-1.7-3.2c0-2.2,1.7-3.8,3.8-3.8c2.1,0,3.8,1.7,3.8,3.8c0,1.1-0.5,2.2-1.3,2.9
	l-0.2,0.2h0.4c0.4,0,0.9-0.1,1.2-0.3l0,0l0,0c0.6-0.8,0.9-1.8,0.9-2.8C45.2,147.4,43.1,145.2,40.4,145.2z"/>
<path class="st8" d="M43.5,155.6c1.5-0.6,3.1-0.2,4.3,0.9c1.4,1.3,2.2,3.1,2.2,5v0.5H31v-0.5c0-1.9,0.8-3.7,2.2-5
	c1.1-1.1,2.9-1.4,4.3-0.9c1,0.3,2,0.5,3.1,0.5C41.5,156.2,42.6,156,43.5,155.6L43.5,155.6z M33.9,157.2c-1.1,1-1.7,2.3-1.8,3.7H49
	c-0.2-1.4-0.8-2.8-1.8-3.7c-0.9-0.8-2.1-1-3.2-0.6c-1.1,0.4-2.2,0.6-3.4,0.6s-2.3-0.2-3.4-0.6l0,0C36,156.1,34.7,156.4,33.9,157.2z"
	/>
<path class="st9" d="M22.3,190c-0.1,0-0.2,0-0.2,0.1c-0.1,0.1-0.1,0.2-0.1,0.2v20.2c0,0.1,0,0.2,0.1,0.2c0.1,0.1,0.2,0.1,0.2,0.1H36
	l-0.3-0.2c-0.3-0.2-0.5-0.5-0.6-0.7l0-0.1H23v-13.5h22.1v3l0,0c0.3,0.2,0.5,0.4,0.8,0.6l0.2,0.2v-9.9c0-0.1,0-0.2-0.1-0.2
	c-0.1-0.1-0.2-0.1-0.2-0.1H22.3z M23,195.3V191h22.1v4.3H23z M30.1,201.4l-3.6-3l0.6,4.7l0.8-1.1l0.8,1.5l0.9-0.5l-0.8-1.4
	L30.1,201.4z M33,206c0-4,3.3-7.3,7.3-7.3c2,0,3.8,0.8,5.1,2.1l0,0c0.6,0.6,0.9,1.1,1.3,1.7l0,0v0c0,0,0,0,0,0.1l0,0l0,0
	c0,0,0.1,0,0.1,0.1c0,0,0,0,0,0.1c0.3,0.8,0.6,1.6,0.7,2.5l0,0l0,0.9c0,1.3-0.4,2.7-1.1,3.8c-0.4,0.6-1,1-1.8,1h-6v-0.5
	c0-0.9,0.8-1.6,1.6-1.6c0.7,0,1.3,0.4,1.5,1h3c0.3,0,0.7-0.2,0.9-0.5l0,0c0.7-1.1,1-2.4,1-3.7l0,0l0-0.5c-0.1-0.1-0.1-0.2-0.1-0.2
	v-0.2c-0.6-2.8-3.1-4.9-6.1-4.9c-3.5,0-6.3,2.9-6.3,6.3c0,0.1-0.1,0.3-0.2,0.4c-0.1,0.1-0.2,0.2-0.4,0.2c-0.1,0-0.3-0.1-0.4-0.2
	C33.1,206.3,33,206.2,33,206z M40.4,201.2c-2.7,0-4.8,2.1-4.8,4.8c0,1.8,1,3.3,2.4,4.2l0.2,0.1v-0.2c0-0.2,0.1-0.4,0.1-0.6l0,0h0
	c0-0.1,0-0.1,0.1-0.2l0-0.1l-0.1-0.1c-1.1-0.7-1.7-1.9-1.7-3.2c0-2.2,1.7-3.8,3.8-3.8c2.1,0,3.8,1.7,3.8,3.8c0,1.1-0.5,2.2-1.3,2.9
	l-0.2,0.2h0.4c0.4,0,0.9-0.1,1.2-0.3l0,0l0,0c0.6-0.8,0.9-1.8,0.9-2.8C45.2,203.4,43.1,201.2,40.4,201.2z M43.5,211.6
	c1.5-0.6,3.1-0.2,4.3,0.9c1.4,1.3,2.2,3.1,2.2,5v0.5H31v-0.5c0-1.9,0.8-3.7,2.2-5c1.1-1.1,2.9-1.4,4.3-0.9c1,0.3,2,0.5,3.1,0.5
	C41.5,212.2,42.6,212,43.5,211.6L43.5,211.6z M33.9,213.2c-1.1,1-1.7,2.3-1.8,3.7H49c-0.2-1.4-0.8-2.8-1.8-3.7
	c-0.9-0.8-2.1-1-3.2-0.6c-1.1,0.4-2.2,0.6-3.4,0.6s-2.3-0.2-3.4-0.6l0,0C36,212.1,34.7,212.4,33.9,213.2z M25,193.9c0.5,0,1-0.4,1-1
	c0-0.5-0.4-1-1-1c-0.5,0-1,0.4-1,1C24,193.5,24.4,193.9,25,193.9z M28.9,193c0,0.5-0.4,1-1,1c-0.5,0-1-0.4-1-1c0-0.5,0.4-1,1-1
	C28.5,192,28.9,192.4,28.9,193z M31,193.9c0.5,0,1-0.4,1-1c0-0.5-0.4-1-1-1c-0.5,0-1,0.4-1,1C30,193.5,30.4,193.9,31,193.9z"/>
<g>
	
		<radialGradient id="SVGID_4_" cx="-253.3571" cy="592.2143" r="1" gradientTransform="matrix(8.572528e-16 14 14 -8.572528e-16 -8255 3807)" gradientUnits="userSpaceOnUse">
		<stop  offset="0" style="stop-color:#434F58"/>
		<stop  offset="1" style="stop-color:#434F58;stop-opacity:0"/>
	</radialGradient>
	<path class="st10" d="M46.2,254.8v-8.4c0-0.1,0-0.2-0.1-0.3c-0.1-0.1-0.2-0.1-0.3-0.1H22.5c-0.1,0-0.2,0-0.3,0.1
		c-0.1,0.1-0.1,0.2-0.1,0.3v20c0,0.1,0,0.2,0.1,0.3c0.1,0.1,0.2,0.1,0.3,0.1h11.8v0.6c-0.4,0.2-0.8,0.5-1.2,0.8l0,0
		c-1.4,1.4-2.2,3.1-2.2,5.1v0.6H50v-0.7c0-1.9-0.8-3.7-2.2-5.1l0,0c-0.5-0.5-1.2-0.9-1.9-1v-0.7c0.2-0.2,0.5-0.4,0.6-0.6
		c0.7-1.1,1.1-2.5,1.1-3.8v-0.9l0,0c-0.1-0.9-0.4-1.7-0.7-2.5c0,0,0,0,0-0.1c0,0,0-0.1-0.1-0.1l0,0v0l0-0.1l0,0
		c-0.3-0.4-0.3-0.8-0.6-1.3C46.2,256.3,46.2,255.5,46.2,254.8z"/>
</g>
<path class="st11" d="M25,249.9c0.5,0,1-0.4,1-1c0-0.5-0.4-1-1-1c-0.5,0-1,0.4-1,1C24,249.5,24.4,249.9,25,249.9z"/>
<path class="st11" d="M28.9,249c0,0.5-0.4,1-1,1c-0.5,0-1-0.4-1-1c0-0.5,0.4-1,1-1C28.5,248,28.9,248.4,28.9,249z"/>
<path class="st11" d="M31,249.9c0.5,0,1-0.4,1-1c0-0.5-0.4-1-1-1c-0.5,0-1,0.4-1,1C30,249.5,30.4,249.9,31,249.9z"/>
<path class="st9" d="M22.3,246c-0.1,0-0.2,0-0.2,0.1c-0.1,0.1-0.1,0.2-0.1,0.2v20.2c0,0.1,0,0.2,0.1,0.2c0.1,0.1,0.2,0.1,0.2,0.1H36
	l-0.3-0.2c-0.3-0.2-0.5-0.5-0.6-0.7l0-0.1H23v-13.5h22.1v3l0,0c0.3,0.2,0.5,0.4,0.8,0.6l0.2,0.2v-9.9c0-0.1,0-0.2-0.1-0.2
	c-0.1-0.1-0.2-0.1-0.2-0.1H22.3z M23,251.3V247h22.1v4.3H23z"/>
<path class="st11" d="M30.1,257.4l-3.6-3l0.6,4.7l0.8-1.1l0.8,1.5l0.9-0.5l-0.8-1.4L30.1,257.4z"/>
<path class="st11" d="M33,262c0-4,3.3-7.3,7.3-7.3c2,0,3.8,0.8,5.1,2.1l0,0c0.6,0.6,0.9,1.1,1.3,1.7l0,0v0c0,0,0,0,0,0.1l0,0l0,0
	c0,0,0.1,0,0.1,0.1c0,0,0,0,0,0.1c0.3,0.8,0.6,1.6,0.7,2.5l0,0l0,0.9c0,1.3-0.4,2.7-1.1,3.8c-0.4,0.6-1,1-1.8,1h-6v-0.5
	c0-0.9,0.8-1.6,1.6-1.6c0.7,0,1.3,0.4,1.5,1h3c0.3,0,0.7-0.2,0.9-0.5l0,0c0.7-1.1,1-2.5,1-3.7l0,0l0-0.5c-0.1-0.1-0.1-0.2-0.1-0.2
	v-0.2c-0.6-2.8-3.1-4.9-6.1-4.9c-3.5,0-6.3,2.9-6.3,6.3c0,0.1-0.1,0.3-0.2,0.4c-0.1,0.1-0.2,0.2-0.4,0.2c-0.1,0-0.3-0.1-0.4-0.2
	C33.1,262.3,33,262.2,33,262z"/>
<path class="st11" d="M40.4,257.2c-2.7,0-4.8,2.1-4.8,4.8c0,1.8,1,3.3,2.4,4.2l0.2,0.1v-0.2c0-0.2,0.1-0.4,0.1-0.6l0,0
	c0-0.1,0-0.1,0.1-0.2l0-0.1l-0.1-0.1c-1.1-0.7-1.7-1.9-1.7-3.2c0-2.2,1.7-3.8,3.8-3.8c2.1,0,3.8,1.7,3.8,3.8c0,1.1-0.5,2.2-1.3,2.9
	l-0.2,0.2h0.4c0.4,0,0.9-0.1,1.2-0.3l0,0l0,0c0.6-0.8,0.9-1.8,0.9-2.8C45.2,259.4,43.1,257.2,40.4,257.2z"/>
<path class="st9" d="M43.5,267.6c1.5-0.6,3.1-0.2,4.3,0.9c1.4,1.3,2.2,3.1,2.2,5v0.5H31v-0.5c0-1.9,0.8-3.7,2.2-5
	c1.1-1.1,2.9-1.4,4.3-0.9c1,0.3,2,0.5,3.1,0.5C41.5,268.2,42.6,268,43.5,267.6L43.5,267.6z M33.9,269.2c-1.1,1-1.7,2.3-1.8,3.7H49
	c-0.2-1.4-0.8-2.8-1.8-3.7c-0.9-0.8-2.1-1-3.2-0.6c-1.1,0.4-2.2,0.6-3.4,0.6s-2.3-0.2-3.4-0.6l0,0C36,268.1,34.7,268.4,33.9,269.2z"
	/>
<radialGradient id="SVGID_5_" cx="-253.3571" cy="592.2143" r="1" gradientTransform="matrix(8.572528e-16 14 14 -8.572528e-16 -8255 3863)" gradientUnits="userSpaceOnUse">
	<stop  offset="0" style="stop-color:#677983"/>
	<stop  offset="1" style="stop-color:#677983;stop-opacity:0"/>
</radialGradient>
<path class="st12" d="M46.2,310.8v-8.4c0-0.1,0-0.2-0.1-0.3c-0.1-0.1-0.2-0.1-0.3-0.1H22.5c-0.1,0-0.2,0-0.3,0.1
	c-0.1,0.1-0.1,0.2-0.1,0.3v20c0,0.1,0,0.2,0.1,0.3c0.1,0.1,0.2,0.1,0.3,0.1h11.8v0.6c-0.4,0.2-0.8,0.5-1.2,0.8l0,0
	c-1.4,1.4-2.2,3.1-2.2,5.1v0.6H50v-0.7c0-1.9-0.8-3.7-2.2-5.1l0,0c-0.5-0.5-1.2-0.9-1.9-1v-0.7c0.2-0.2,0.5-0.4,0.6-0.6
	c0.7-1.1,1.1-2.5,1.1-3.8v-0.9l0,0c-0.1-0.9-0.4-1.7-0.7-2.5c0,0,0,0,0-0.1c0,0,0-0.1-0.1-0.1l0,0v0l0-0.1l0,0
	c-0.3-0.4-0.3-0.8-0.6-1.3C46.2,312.3,46.2,311.5,46.2,310.8z"/>
<path class="st13" d="M25,305.9c0.5,0,1-0.4,1-1c0-0.5-0.4-1-1-1c-0.5,0-1,0.4-1,1C24,305.5,24.4,305.9,25,305.9z"/>
<path class="st13" d="M28.9,305c0,0.5-0.4,1-1,1c-0.5,0-1-0.4-1-1c0-0.5,0.4-1,1-1C28.5,304,28.9,304.4,28.9,305z"/>
<path class="st13" d="M31,305.9c0.5,0,1-0.4,1-1c0-0.5-0.4-1-1-1c-0.5,0-1,0.4-1,1C30,305.5,30.4,305.9,31,305.9z"/>
<path class="st14" d="M22.3,302c-0.1,0-0.2,0-0.2,0.1c-0.1,0.1-0.1,0.2-0.1,0.2v20.2c0,0.1,0,0.2,0.1,0.2c0.1,0.1,0.2,0.1,0.2,0.1
	H36l-0.3-0.2c-0.3-0.2-0.5-0.5-0.6-0.7l0-0.1H23v-13.5h22.1v3l0,0c0.3,0.2,0.5,0.4,0.8,0.6l0.2,0.2v-9.9c0-0.1,0-0.2-0.1-0.2
	c-0.1-0.1-0.2-0.1-0.2-0.1H22.3z M23,307.3V303h22.1v4.3H23z"/>
<path class="st13" d="M30.1,313.4l-3.6-3l0.6,4.7l0.8-1.1l0.8,1.5l0.9-0.5l-0.8-1.4L30.1,313.4z"/>
<path class="st13" d="M33,318c0-4,3.3-7.3,7.3-7.3c2,0,3.8,0.8,5.1,2.1l0,0c0.6,0.6,0.9,1.1,1.3,1.7l0,0v0c0,0,0,0,0,0.1l0,0l0,0
	c0,0,0.1,0,0.1,0.1c0,0,0,0,0,0.1c0.3,0.8,0.6,1.6,0.7,2.5l0,0l0,0.9c0,1.3-0.4,2.7-1.1,3.8c-0.4,0.6-1,1-1.8,1h-6v-0.5
	c0-0.9,0.8-1.6,1.6-1.6c0.7,0,1.3,0.4,1.5,1h3c0.3,0,0.7-0.2,0.9-0.5l0,0c0.7-1.1,1-2.5,1-3.7l0,0l0-0.5c-0.1-0.1-0.1-0.2-0.1-0.2
	v-0.2c-0.6-2.8-3.1-4.9-6.1-4.9c-3.5,0-6.3,2.9-6.3,6.3c0,0.1-0.1,0.3-0.2,0.4c-0.1,0.1-0.2,0.2-0.4,0.2c-0.1,0-0.3-0.1-0.4-0.2
	C33.1,318.3,33,318.2,33,318z"/>
<path class="st13" d="M40.4,313.2c-2.7,0-4.8,2.1-4.8,4.8c0,1.8,1,3.3,2.4,4.2l0.2,0.1v-0.2c0-0.2,0.1-0.4,0.1-0.6l0,0
	c0-0.1,0-0.1,0.1-0.2l0-0.1l-0.1-0.1c-1.1-0.7-1.7-1.9-1.7-3.2c0-2.2,1.7-3.8,3.8-3.8c2.1,0,3.8,1.7,3.8,3.8c0,1.1-0.5,2.2-1.3,2.9
	l-0.2,0.2h0.4c0.4,0,0.9-0.1,1.2-0.3l0,0l0,0c0.6-0.8,0.9-1.8,0.9-2.8C45.2,315.4,43.1,313.2,40.4,313.2z"/>
<path class="st14" d="M43.5,323.6c1.5-0.6,3.1-0.2,4.3,0.9c1.4,1.3,2.2,3.1,2.2,5v0.5H31v-0.5c0-1.9,0.8-3.7,2.2-5
	c1.1-1.1,2.9-1.4,4.3-0.9c1,0.3,2,0.5,3.1,0.5C41.5,324.2,42.6,324,43.5,323.6L43.5,323.6z M33.9,325.2c-1.1,1-1.7,2.3-1.8,3.7H49
	c-0.2-1.4-0.8-2.8-1.8-3.7c-0.9-0.8-2.1-1-3.2-0.6c-1.1,0.4-2.2,0.6-3.4,0.6s-2.3-0.2-3.4-0.6l0,0C36,324.1,34.7,324.4,33.9,325.2z"
	/>
</svg>
