<?xml version="1.0" encoding="utf-8"?>
<!-- Generator: Adobe Illustrator 25.2.1, SVG Export Plug-In . SVG Version: 6.00 Build 0)  -->
<svg version="1.1" id="Layer_1" xmlns="http://www.w3.org/2000/svg" xmlns:xlink="http://www.w3.org/1999/xlink" x="0px" y="0px"
	 viewBox="0 0 72 352" style="enable-background:new 0 0 72 352;" xml:space="preserve">
<style type="text/css">
	.st0{fill-rule:evenodd;clip-rule:evenodd;fill:url(#SVGID_1_);fill-opacity:0.25;}
	.st1{fill:#0073EC;}
	.st2{fill-rule:evenodd;clip-rule:evenodd;fill:#0073EC;}
	.st3{fill-rule:evenodd;clip-rule:evenodd;fill:url(#SVGID_2_);fill-opacity:0.25;}
	.st4{fill:#A644E5;}
	.st5{fill-rule:evenodd;clip-rule:evenodd;fill:#A644E5;}
	.st6{fill-rule:evenodd;clip-rule:evenodd;fill:url(#SVGID_3_);fill-opacity:0.25;}
	.st7{fill:#00CAAA;}
	.st8{fill-rule:evenodd;clip-rule:evenodd;fill:#00CAAA;}
	.st9{fill:#434F58;}
	.st10{fill-rule:evenodd;clip-rule:evenodd;fill:#434F58;}
	.st11{fill-rule:evenodd;clip-rule:evenodd;fill:url(#SVGID_4_);fill-opacity:0.25;}
	.st12{fill-rule:evenodd;clip-rule:evenodd;fill:url(#SVGID_5_);fill-opacity:0.25;}
	.st13{fill:#677983;}
	.st14{fill-rule:evenodd;clip-rule:evenodd;fill:#677983;}
</style>
<radialGradient id="SVGID_1_" cx="-252.1398" cy="565.2186" r="1" gradientTransform="matrix(18.1204 4.7807 4.6924 -17.7856 1951.2489 11297.7539)" gradientUnits="userSpaceOnUse">
	<stop  offset="0" style="stop-color:#0073EC"/>
	<stop  offset="1" style="stop-color:#0073EC;stop-opacity:0"/>
	<stop  offset="1" style="stop-color:#0073EC;stop-opacity:0"/>
</radialGradient>
<path class="st0" d="M51.1,32.4c0,0.1,0,0.1-0.1,0.2v0.6c0.1,0,0.2,0,0.3,0.1c0.1,0.1,0.3,0.2,0.4,0.3c0.1,0.1,0.2,0.2,0.3,0.4
	C52,34,52,34.2,52,34.4V40c0,0.2-0.1,0.4-0.2,0.6v2c0.1,0.2,0.1,0.4,0.2,0.6v5.6c0,0.3-0.1,0.6-0.4,0.9c-0.2,0.2-0.5,0.4-0.8,0.4H37
	V50h-4.3c-0.2,0.1-0.5,0.3-0.8,0.4c-1,0.4-2,0.6-3.1,0.6c-1.1,0-2.1-0.2-3.1-0.6c-0.9-0.4-1.8-1-2.5-1.7c-0.7-0.7-1.3-1.6-1.7-2.6
	c-0.4-1-0.6-2-0.6-3.1c0-1.1,0.2-2.1,0.6-3.1c0.7-1.6,1.9-3,3.4-3.8v-0.8l0,0c-0.1,0-0.1-0.1-0.1-0.2c0-0.1-0.1-0.1-0.1-0.2v-0.5
	c0-0.3,0.1-0.6,0.4-0.9c0.2-0.2,0.5-0.4,0.9-0.4h0.1v-0.7c0,0,0,0,0,0c0-0.1,0-0.1,0-0.2c-0.1-1.1,0.3-2.2,0.9-3.1
	c0.6-0.9,1.6-1.6,2.7-1.8c0.1-0.5,0.3-0.9,0.6-1.3c0.3-0.4,0.6-0.7,1.1-1c0.4-0.2,0.9-0.4,1.3-0.4c0.5-0.1,1,0,1.4,0.1
	c0.8-1.4,2.1-2.5,3.6-3.1c1.5-0.6,3.1-0.7,4.7-0.3c1.6,0.4,3,1.3,4,2.6c1,1.3,1.6,2.8,1.7,4.4c0.9,0.3,1.6,0.8,2.2,1.6
	C50.8,30.6,51.1,31.5,51.1,32.4L51.1,32.4z"/>
<path class="st1" d="M47.7,46.6c0.1,0.1,0.3,0.1,0.5,0.1c0.1,0,0.2,0,0.3-0.1c0.1,0,0.2-0.1,0.3-0.2c0.1-0.1,0.1-0.2,0.2-0.3
	c0-0.1,0.1-0.2,0.1-0.3c0-0.2,0-0.3-0.1-0.5c-0.1-0.1-0.2-0.2-0.4-0.3c-0.2-0.1-0.3-0.1-0.5,0c-0.2,0-0.3,0.1-0.4,0.2
	c-0.1,0.1-0.2,0.3-0.2,0.4c0,0.2,0,0.3,0,0.5C47.5,46.4,47.6,46.5,47.7,46.6z"/>
<path class="st1" d="M45.9,45.4c0.1,0.1,0.1,0.3,0.1,0.5h0c0,0.2-0.1,0.4-0.2,0.6c-0.2,0.2-0.4,0.2-0.6,0.2c-0.2,0-0.3,0-0.5-0.1
	c-0.1-0.1-0.2-0.2-0.3-0.4c-0.1-0.2-0.1-0.3,0-0.5c0-0.2,0.1-0.3,0.2-0.4c0.1-0.1,0.3-0.2,0.4-0.2c0.2,0,0.3,0,0.5,0
	C45.7,45.2,45.8,45.3,45.9,45.4z"/>
<path class="st1" d="M38,41.8l12.8,0.1c0.3,0,0.6,0.1,0.8,0.4c0.2,0.2,0.4,0.5,0.4,0.9v5.6c0,0.3-0.1,0.6-0.4,0.9
	c-0.2,0.2-0.5,0.4-0.8,0.4H35.1c-0.1,0-0.2,0-0.2-0.1s-0.1-0.1-0.2-0.2c0-0.1-0.1-0.2-0.1-0.2c0-0.1,0-0.2,0.1-0.2l0,0
	c0-0.1,0.1-0.1,0.2-0.2C35,49,35,49,35.1,49h15.7c0.1,0,0.2,0,0.2-0.1c0.1-0.1,0.1-0.1,0.1-0.2v-5.6c0-0.1,0-0.2-0.1-0.2
	c-0.1-0.1-0.1-0.1-0.2-0.1L38,42.7c-0.1,0-0.2,0-0.3-0.1s-0.1-0.2-0.2-0.3l0,0c0-0.1,0-0.1,0-0.2c0-0.1,0-0.1,0.1-0.2
	c0-0.1,0.1-0.1,0.2-0.1C37.9,41.8,38,41.8,38,41.8z"/>
<path class="st1" d="M42.7,45.4c0.1,0.1,0.1,0.3,0.1,0.5c0,0.2-0.1,0.4-0.2,0.6c-0.2,0.2-0.4,0.2-0.6,0.2c-0.2,0-0.3,0-0.5-0.1
	c-0.1-0.1-0.2-0.2-0.3-0.4c-0.1-0.2-0.1-0.3,0-0.5c0-0.2,0.1-0.3,0.2-0.4s0.3-0.2,0.4-0.2c0.2,0,0.3,0,0.5,0
	C42.5,45.2,42.6,45.3,42.7,45.4z"/>
<path class="st1" d="M26,33.1h24.8c0.2,0,0.3,0,0.5,0.1c0.1,0.1,0.3,0.2,0.4,0.3c0.1,0.1,0.2,0.2,0.3,0.4C52,34,52,34.2,52,34.4V40
	c0,0.3-0.1,0.6-0.4,0.9c-0.2,0.2-0.5,0.4-0.8,0.4H38c-0.1,0-0.2,0-0.3-0.1c-0.1-0.1-0.1-0.1-0.2-0.2l0,0c0-0.1,0-0.1,0-0.2
	c0-0.1,0-0.1,0.1-0.2c0-0.1,0.1-0.1,0.2-0.1c0.1,0,0.1-0.1,0.2-0.1h12.8c0,0,0.1,0,0.1,0c0,0,0.1,0,0.1-0.1c0,0,0-0.1,0.1-0.1
	c0,0,0-0.1,0-0.1v-5.6c0,0,0-0.1,0-0.1c0,0,0-0.1-0.1-0.1c0,0-0.1-0.1-0.1-0.1c0,0-0.1,0-0.1,0H26c-0.1,0-0.2,0-0.2,0.1
	c-0.1,0.1-0.1,0.1-0.1,0.2v0.5c0,0.1,0,0.2-0.1,0.3c-0.1,0.1-0.1,0.1-0.2,0.2l0,0c-0.1,0-0.1,0-0.2,0c-0.1,0-0.1,0-0.2-0.1
	c-0.1,0-0.1-0.1-0.1-0.2c0-0.1-0.1-0.1-0.1-0.2v-0.5c0-0.3,0.1-0.6,0.4-0.9C25.4,33.3,25.7,33.1,26,33.1z"/>
<path class="st1" d="M42.7,36.7c0.1,0.1,0.1,0.3,0.1,0.5c0,0.2-0.1,0.4-0.2,0.6C42.5,37.9,42.3,38,42,38c-0.2,0-0.3,0-0.5-0.1
	c-0.1-0.1-0.2-0.2-0.3-0.4c-0.1-0.2-0.1-0.3,0-0.5c0-0.2,0.1-0.3,0.2-0.4c0.1-0.1,0.3-0.2,0.4-0.2c0.2,0,0.3,0,0.5,0
	C42.5,36.5,42.6,36.6,42.7,36.7z"/>
<path class="st1" d="M48.9,36.7C49,36.8,49,37,49,37.2l0,0c0,0.1,0,0.2-0.1,0.3c0,0.1-0.1,0.2-0.2,0.3c-0.1,0.1-0.2,0.1-0.3,0.2
	c-0.1,0-0.2,0.1-0.3,0.1c-0.2,0-0.3,0-0.5-0.1c-0.1-0.1-0.2-0.2-0.3-0.4c-0.1-0.2-0.1-0.3,0-0.5c0-0.2,0.1-0.3,0.2-0.4
	c0.1-0.1,0.3-0.2,0.4-0.2s0.3,0,0.5,0C48.7,36.5,48.8,36.6,48.9,36.7z"/>
<path class="st1" d="M45.9,36.7C46,36.8,46,37,46,37.2l0,0c0,0.1,0,0.2-0.1,0.3c0,0.1-0.1,0.2-0.2,0.3c-0.1,0.1-0.2,0.1-0.3,0.2
	c-0.1,0-0.2,0.1-0.3,0.1c-0.2,0-0.3,0-0.5-0.1c-0.1-0.1-0.2-0.2-0.3-0.4c-0.1-0.2-0.1-0.3,0-0.5c0-0.2,0.1-0.3,0.2-0.4
	c0.1-0.1,0.3-0.2,0.4-0.2c0.2,0,0.3,0,0.5,0C45.7,36.5,45.8,36.6,45.9,36.7z"/>
<path class="st1" d="M26.7,32.7c-0.1,0-0.1,0-0.2,0c-0.1,0-0.2,0-0.3-0.1c-0.1-0.1-0.1-0.2-0.1-0.3c0-0.1,0-0.1,0-0.2
	c-0.1-1.1,0.3-2.2,0.9-3.1c0.6-0.9,1.6-1.6,2.7-1.8c0.1-0.5,0.3-0.9,0.6-1.3c0.3-0.4,0.6-0.7,1.1-1c0.4-0.2,0.9-0.4,1.3-0.4
	c0.5-0.1,1,0,1.4,0.1c0.8-1.4,2.1-2.5,3.6-3.1c1.5-0.6,3.1-0.7,4.7-0.3c1.6,0.4,3,1.3,4,2.6c1,1.3,1.6,2.8,1.7,4.4
	c0.9,0.3,1.6,0.8,2.2,1.6c0.5,0.7,0.8,1.6,0.8,2.6v0c0,0.1,0,0.2-0.1,0.2c-0.1,0.1-0.2,0.1-0.2,0.1h-0.1c0,0-0.1,0-0.1,0
	c0,0-0.1,0-0.1-0.1s-0.1-0.1-0.1-0.1c0,0,0-0.1,0-0.1v0c0-0.8-0.3-1.6-0.8-2.2c-0.5-0.6-1.2-1-1.9-1.2c-0.1,0-0.2-0.1-0.2-0.1
	c-0.1-0.1-0.1-0.2-0.1-0.2c0-3.7-3.1-6.7-6.7-6.7c-1.2,0-2.4,0.3-3.4,0.9c-1,0.6-1.9,1.5-2.5,2.6c0,0.1-0.1,0.2-0.2,0.2
	c-0.1,0-0.2,0-0.3,0c-0.3-0.1-0.7-0.2-1-0.2c-0.6,0-1.3,0.2-1.7,0.7s-0.8,1-0.9,1.7c0,0.1,0,0.2-0.1,0.2c-0.1,0.1-0.1,0.1-0.2,0.1
	c-0.9,0.2-1.8,0.7-2.4,1.5c-0.6,0.8-0.9,1.7-0.8,2.7c0,0.1,0,0.1,0,0.2c0,0.1,0,0.1,0,0.2c0,0.1,0,0.1-0.1,0.1
	C26.8,32.6,26.8,32.7,26.7,32.7z"/>
<path class="st1" d="M44.6,25.7c-0.1,0-0.1,0.1-0.2,0.1c-0.1,0-0.1,0-0.2,0c-0.1,0-0.1-0.1-0.1-0.1c-0.4-0.5-1-1-1.6-1.3
	c-0.6-0.3-1.3-0.4-2-0.4c-0.1,0-0.1,0-0.2,0c-0.1,0-0.1,0-0.1-0.1c0,0-0.1-0.1-0.1-0.1c0,0,0-0.1,0-0.2c0-0.1,0-0.1,0-0.2
	c0,0,0.1-0.1,0.1-0.1c0,0,0.1-0.1,0.1-0.1c0.1,0,0.1,0,0.2,0c0.8,0,1.6,0.2,2.3,0.5c0.7,0.3,1.4,0.8,1.9,1.5c0,0.1,0.1,0.1,0.1,0.2
	c0,0.1,0,0.2,0,0.2C44.7,25.6,44.7,25.7,44.6,25.7z"/>
<path class="st1" d="M33.1,44.4c-0.1,0.3-0.2,0.6-0.3,1.1c-0.1,0.4-0.3,1-0.5,1.6l-2.4-7.3c0.1,0,0.2,0,0.4,0c0.1,0,0.3,0,0.4,0
	c0.2,0,0.3-0.1,0.3-0.3c0-0.1-0.1-0.1-0.1-0.2c-0.1,0-0.1-0.1-0.2-0.1c-0.7,0-1.2,0.1-1.5,0.1c-0.4,0-0.7,0-1.1,0l-0.7-0.1l-0.3,0
	c0,0-0.1,0-0.1,0s-0.1,0-0.1,0c-0.1,0-0.1,0.1-0.1,0.2c0,0,0,0.1,0,0.1c0,0,0,0.1,0,0.1c0,0.1,0.1,0.1,0.2,0.1c0,0,0.1,0,0.2,0
	c0.1,0,0.3,0,0.5,0.1l1.1,2.9l-1.5,4.4l-2.5-7.3c0.1,0,0.3,0,0.4,0c0.1,0,0.3,0,0.4,0c0.2,0,0.3-0.1,0.3-0.3c0-0.1-0.1-0.1-0.1-0.2
	c-0.1,0-0.1-0.1-0.2-0.1c-0.4,0.1-0.8,0.1-1.2,0.1c-0.4,0-0.7,0-1,0c0.6-0.9,1.4-1.7,2.4-2.2c1-0.6,2.1-0.8,3.2-0.8
	c0.9,0,1.7,0.2,2.5,0.5c0.8,0.3,1.5,0.8,2.1,1.3c-0.2,0-0.4,0-0.6,0.1c-0.2,0.1-0.4,0.3-0.5,0.5c-0.1,0.2-0.1,0.5-0.1,0.7
	c0,0.3,0.1,0.5,0.2,0.7c0.1,0.2,0.2,0.5,0.4,0.7c0.1,0.2,0.2,0.4,0.3,0.5c0.2,0.3,0.3,0.7,0.3,1c0,0.4,0,0.9-0.2,1.3
	C33.2,43.8,33.2,44,33.1,44.4z"/>
<path class="st1" d="M34.9,40.6c0-0.1,0-0.3,0-0.4c0-0.1,0-0.3,0-0.4c0.8,1.5,1,3.3,0.5,5c-0.2,0.6-0.4,1.1-0.7,1.6
	c-0.3,0.5-0.7,1-1.1,1.4c-0.4,0.4-0.9,0.8-1.4,1.1c0.1-0.2,0.2-0.5,0.3-1c0.2-0.5,0.3-1,0.5-1.5c0.2-0.5,0.3-1,0.5-1.5
	c0.2-0.5,0.3-0.8,0.3-1c0.2-0.5,0.3-1,0.5-1.5C34.7,41.8,34.8,41.2,34.9,40.6z"/>
<path class="st1" d="M22.2,43c0,0.7,0.1,1.3,0.3,1.9c0.2,0.6,0.4,1.2,0.8,1.7c0.3,0.5,0.7,1,1.2,1.4c0.5,0.4,1,0.8,1.5,1l-3.2-8.9
	C22.4,41.1,22.2,42.1,22.2,43z"/>
<path class="st1" d="M27.9,49.7c-0.3,0-0.6-0.1-0.9-0.2l2-5.9l2.1,5.8C30.1,49.8,29,49.9,27.9,49.7z"/>
<path class="st2" d="M34.5,37.3c0.7,0.7,1.3,1.6,1.7,2.5v0c0.4,1,0.6,2,0.6,3.1s-0.2,2.1-0.6,3.1c-0.8,1.9-2.3,3.5-4.2,4.3
	c-1,0.4-2,0.6-3.1,0.6c-1.1,0-2.1-0.2-3.1-0.6c-0.9-0.4-1.8-1-2.5-1.7c-0.7-0.7-1.3-1.6-1.7-2.6c-0.4-1-0.6-2-0.6-3.1
	c0-1.1,0.2-2.1,0.6-3.1c0.8-1.9,2.3-3.4,4.2-4.3c1-0.4,2-0.6,3.1-0.6c1.1,0,2.1,0.2,3.1,0.6C32.9,36,33.8,36.6,34.5,37.3z
	 M31.8,49.9c1.8-0.8,3.2-2.2,3.9-4c0.4-0.9,0.6-1.9,0.6-2.9s-0.2-2-0.6-2.9c-0.4-0.9-0.9-1.7-1.6-2.4c-0.7-0.7-1.5-1.2-2.3-1.6
	c-0.9-0.4-1.9-0.6-2.9-0.6c-1,0-2,0.2-2.9,0.6c-0.9,0.4-1.7,0.9-2.3,1.6c-0.7,0.7-1.2,1.5-1.6,2.4C21.7,41,21.5,42,21.5,43
	s0.2,2,0.6,2.9c0.8,1.8,2.2,3.2,3.9,4c0.9,0.4,1.9,0.6,2.9,0.6C29.9,50.4,30.9,50.2,31.8,49.9z"/>
<radialGradient id="SVGID_2_" cx="-252.1398" cy="565.2186" r="1" gradientTransform="matrix(18.1204 4.7807 4.6924 -17.7856 1951.2489 11353.7539)" gradientUnits="userSpaceOnUse">
	<stop  offset="0" style="stop-color:#A644E5"/>
	<stop  offset="1" style="stop-color:#A644E5;stop-opacity:0"/>
</radialGradient>
<path class="st3" d="M51.1,88.4c0,0.1,0,0.1-0.1,0.2v0.6c0.1,0,0.2,0,0.3,0.1c0.1,0.1,0.3,0.2,0.4,0.3c0.1,0.1,0.2,0.2,0.3,0.4
	C52,90,52,90.2,52,90.4V96c0,0.2-0.1,0.4-0.2,0.6v2c0.1,0.2,0.1,0.4,0.2,0.6v5.6c0,0.3-0.1,0.6-0.4,0.9c-0.2,0.2-0.5,0.4-0.8,0.4H37
	v0.1h-4.3c-0.2,0.1-0.5,0.3-0.8,0.4c-1,0.4-2,0.6-3.1,0.6c-1.1,0-2.1-0.2-3.1-0.6c-0.9-0.4-1.8-1-2.5-1.7c-0.7-0.7-1.3-1.6-1.7-2.6
	c-0.4-1-0.6-2-0.6-3.1c0-1.1,0.2-2.1,0.6-3.1c0.7-1.6,1.9-3,3.4-3.8v-0.8l0,0c-0.1,0-0.1-0.1-0.1-0.2c0-0.1-0.1-0.1-0.1-0.2v-0.5
	c0-0.3,0.1-0.6,0.4-0.9c0.2-0.2,0.5-0.4,0.9-0.4h0.1v-0.7c0,0,0,0,0,0c0-0.1,0-0.1,0-0.2c-0.1-1.1,0.3-2.2,0.9-3.1
	c0.6-0.9,1.6-1.6,2.7-1.8c0.1-0.5,0.3-0.9,0.6-1.3c0.3-0.4,0.6-0.7,1.1-1c0.4-0.2,0.9-0.4,1.3-0.4c0.5-0.1,1,0,1.4,0.1
	c0.8-1.4,2.1-2.5,3.6-3.1c1.5-0.6,3.1-0.7,4.7-0.3c1.6,0.4,3,1.3,4,2.6c1,1.3,1.6,2.8,1.7,4.4c0.9,0.3,1.6,0.8,2.2,1.6
	C50.8,86.6,51.1,87.5,51.1,88.4L51.1,88.4z"/>
<path class="st4" d="M47.7,102.6c0.1,0.1,0.3,0.1,0.5,0.1c0.1,0,0.2,0,0.3-0.1c0.1,0,0.2-0.1,0.3-0.2c0.1-0.1,0.1-0.2,0.2-0.3
	c0-0.1,0.1-0.2,0.1-0.3c0-0.2,0-0.3-0.1-0.5c-0.1-0.1-0.2-0.2-0.4-0.3c-0.2-0.1-0.3-0.1-0.5,0c-0.2,0-0.3,0.1-0.4,0.2
	c-0.1,0.1-0.2,0.3-0.2,0.4c0,0.2,0,0.3,0,0.5C47.5,102.4,47.6,102.5,47.7,102.6z"/>
<path class="st4" d="M45.9,101.4c0.1,0.1,0.1,0.3,0.1,0.5h0c0,0.2-0.1,0.4-0.2,0.6c-0.2,0.2-0.4,0.2-0.6,0.2c-0.2,0-0.3,0-0.5-0.1
	c-0.1-0.1-0.2-0.2-0.3-0.4c-0.1-0.2-0.1-0.3,0-0.5c0-0.2,0.1-0.3,0.2-0.4c0.1-0.1,0.3-0.2,0.4-0.2c0.2,0,0.3,0,0.5,0
	C45.7,101.2,45.8,101.3,45.9,101.4z"/>
<path class="st4" d="M38,97.8l12.8,0.1c0.3,0,0.6,0.1,0.8,0.4c0.2,0.2,0.4,0.5,0.4,0.9v5.6c0,0.3-0.1,0.6-0.4,0.9
	c-0.2,0.2-0.5,0.4-0.8,0.4H35.1c-0.1,0-0.2,0-0.2-0.1c-0.1,0-0.1-0.1-0.2-0.2c0-0.1-0.1-0.2-0.1-0.2c0-0.1,0-0.2,0.1-0.2l0,0
	c0-0.1,0.1-0.1,0.2-0.2c0.1,0,0.1-0.1,0.2-0.1h15.7c0.1,0,0.2,0,0.2-0.1c0.1-0.1,0.1-0.1,0.1-0.2v-5.6c0-0.1,0-0.2-0.1-0.2
	c-0.1-0.1-0.1-0.1-0.2-0.1L38,98.7c-0.1,0-0.2,0-0.3-0.1s-0.1-0.2-0.2-0.3l0,0c0-0.1,0-0.1,0-0.2c0-0.1,0-0.1,0.1-0.2
	c0-0.1,0.1-0.1,0.2-0.1C37.9,97.8,38,97.8,38,97.8z"/>
<path class="st4" d="M42.7,101.4c0.1,0.1,0.1,0.3,0.1,0.5c0,0.2-0.1,0.4-0.2,0.6c-0.2,0.2-0.4,0.2-0.6,0.2c-0.2,0-0.3,0-0.5-0.1
	c-0.1-0.1-0.2-0.2-0.3-0.4c-0.1-0.2-0.1-0.3,0-0.5c0-0.2,0.1-0.3,0.2-0.4c0.1-0.1,0.3-0.2,0.4-0.2c0.2,0,0.3,0,0.5,0
	C42.5,101.2,42.6,101.3,42.7,101.4z"/>
<path class="st4" d="M26,89.1h24.8c0.2,0,0.3,0,0.5,0.1s0.3,0.2,0.4,0.3c0.1,0.1,0.2,0.2,0.3,0.4C52,90,52,90.2,52,90.4V96
	c0,0.3-0.1,0.6-0.4,0.9c-0.2,0.2-0.5,0.4-0.8,0.4H38c-0.1,0-0.2,0-0.3-0.1c-0.1-0.1-0.1-0.1-0.2-0.2l0,0c0-0.1,0-0.1,0-0.2
	c0-0.1,0-0.1,0.1-0.2c0-0.1,0.1-0.1,0.2-0.1s0.1-0.1,0.2-0.1h12.8c0,0,0.1,0,0.1,0c0,0,0.1,0,0.1-0.1c0,0,0-0.1,0.1-0.1
	c0,0,0-0.1,0-0.1v-5.6c0,0,0-0.1,0-0.1c0,0,0-0.1-0.1-0.1c0,0-0.1-0.1-0.1-0.1c0,0-0.1,0-0.1,0H26c-0.1,0-0.2,0-0.2,0.1
	c-0.1,0.1-0.1,0.1-0.1,0.2v0.5c0,0.1,0,0.2-0.1,0.3c-0.1,0.1-0.1,0.1-0.2,0.2l0,0c-0.1,0-0.1,0-0.2,0c-0.1,0-0.1,0-0.2-0.1
	c-0.1,0-0.1-0.1-0.1-0.2c0-0.1-0.1-0.1-0.1-0.2v-0.5c0-0.3,0.1-0.6,0.4-0.9C25.4,89.3,25.7,89.1,26,89.1z"/>
<path class="st4" d="M42.7,92.7c0.1,0.1,0.1,0.3,0.1,0.5c0,0.2-0.1,0.4-0.2,0.6C42.5,93.9,42.3,94,42,94c-0.2,0-0.3,0-0.5-0.1
	c-0.1-0.1-0.2-0.2-0.3-0.4c-0.1-0.2-0.1-0.3,0-0.5c0-0.2,0.1-0.3,0.2-0.4s0.3-0.2,0.4-0.2c0.2,0,0.3,0,0.5,0
	C42.5,92.5,42.6,92.6,42.7,92.7z"/>
<path class="st4" d="M48.9,92.7C49,92.8,49,93,49,93.2l0,0c0,0.1,0,0.2-0.1,0.3c0,0.1-0.1,0.2-0.2,0.3c-0.1,0.1-0.2,0.1-0.3,0.2
	c-0.1,0-0.2,0.1-0.3,0.1c-0.2,0-0.3,0-0.5-0.1c-0.1-0.1-0.2-0.2-0.3-0.4c-0.1-0.2-0.1-0.3,0-0.5c0-0.2,0.1-0.3,0.2-0.4
	c0.1-0.1,0.3-0.2,0.4-0.2c0.2,0,0.3,0,0.5,0C48.7,92.5,48.8,92.6,48.9,92.7z"/>
<path class="st4" d="M45.9,92.7C46,92.8,46,93,46,93.2l0,0c0,0.1,0,0.2-0.1,0.3c0,0.1-0.1,0.2-0.2,0.3c-0.1,0.1-0.2,0.1-0.3,0.2
	c-0.1,0-0.2,0.1-0.3,0.1c-0.2,0-0.3,0-0.5-0.1c-0.1-0.1-0.2-0.2-0.3-0.4c-0.1-0.2-0.1-0.3,0-0.5c0-0.2,0.1-0.3,0.2-0.4
	s0.3-0.2,0.4-0.2c0.2,0,0.3,0,0.5,0C45.7,92.5,45.8,92.6,45.9,92.7z"/>
<path class="st4" d="M26.7,88.7c-0.1,0-0.1,0-0.2,0c-0.1,0-0.2,0-0.3-0.1c-0.1-0.1-0.1-0.2-0.1-0.3c0-0.1,0-0.1,0-0.2
	c-0.1-1.1,0.3-2.2,0.9-3.1c0.6-0.9,1.6-1.6,2.7-1.8c0.1-0.5,0.3-0.9,0.6-1.3c0.3-0.4,0.6-0.7,1.1-1c0.4-0.2,0.9-0.4,1.3-0.4
	c0.5-0.1,1,0,1.4,0.1c0.8-1.4,2.1-2.5,3.6-3.1c1.5-0.6,3.1-0.7,4.7-0.3c1.6,0.4,3,1.3,4,2.6c1,1.3,1.6,2.8,1.7,4.4
	c0.9,0.3,1.6,0.8,2.2,1.6c0.5,0.7,0.8,1.6,0.8,2.6v0c0,0.1,0,0.2-0.1,0.2c-0.1,0.1-0.2,0.1-0.2,0.1h-0.1c0,0-0.1,0-0.1,0
	c0,0-0.1,0-0.1-0.1s-0.1-0.1-0.1-0.1c0,0,0-0.1,0-0.1v0c0-0.8-0.3-1.6-0.8-2.2c-0.5-0.6-1.2-1-1.9-1.2c-0.1,0-0.2-0.1-0.2-0.1
	c-0.1-0.1-0.1-0.2-0.1-0.2c0-3.7-3.1-6.7-6.7-6.7c-1.2,0-2.4,0.3-3.4,0.9c-1,0.6-1.9,1.5-2.5,2.6c0,0.1-0.1,0.2-0.2,0.2
	c-0.1,0-0.2,0-0.3,0c-0.3-0.1-0.7-0.2-1-0.2c-0.6,0-1.3,0.2-1.7,0.7s-0.8,1-0.9,1.7c0,0.1,0,0.2-0.1,0.2s-0.1,0.1-0.2,0.1
	c-0.9,0.2-1.8,0.7-2.4,1.5s-0.9,1.7-0.8,2.7c0,0.1,0,0.1,0,0.2c0,0.1,0,0.1,0,0.2c0,0.1,0,0.1-0.1,0.1
	C26.8,88.6,26.8,88.7,26.7,88.7z"/>
<path class="st4" d="M44.6,81.7c-0.1,0-0.1,0.1-0.2,0.1c-0.1,0-0.1,0-0.2,0c-0.1,0-0.1-0.1-0.1-0.1c-0.4-0.5-1-1-1.6-1.3
	c-0.6-0.3-1.3-0.4-2-0.4c-0.1,0-0.1,0-0.2,0c-0.1,0-0.1,0-0.1-0.1c0,0-0.1-0.1-0.1-0.1c0,0,0-0.1,0-0.2c0-0.1,0-0.1,0-0.2
	c0,0,0.1-0.1,0.1-0.1c0,0,0.1-0.1,0.1-0.1c0.1,0,0.1,0,0.2,0c0.8,0,1.6,0.2,2.3,0.5c0.7,0.3,1.4,0.8,1.9,1.5c0,0.1,0.1,0.1,0.1,0.2
	c0,0.1,0,0.2,0,0.2C44.7,81.6,44.7,81.7,44.6,81.7z"/>
<path class="st4" d="M33.1,100.4c-0.1,0.3-0.2,0.6-0.3,1.1c-0.1,0.4-0.3,1-0.5,1.6l-2.4-7.3c0.1,0,0.2,0,0.4,0c0.1,0,0.3,0,0.4,0
	c0.2,0,0.3-0.1,0.3-0.3c0-0.1-0.1-0.1-0.1-0.2c-0.1,0-0.1-0.1-0.2-0.1c-0.7,0-1.2,0.1-1.5,0.1c-0.4,0-0.7,0-1.1,0l-0.7-0.1l-0.3,0
	c0,0-0.1,0-0.1,0s-0.1,0-0.1,0c-0.1,0-0.1,0.1-0.1,0.2c0,0,0,0.1,0,0.1c0,0,0,0.1,0,0.1c0,0.1,0.1,0.1,0.2,0.1c0,0,0.1,0,0.2,0
	c0.1,0,0.3,0,0.5,0.1l1.1,2.9l-1.5,4.4l-2.5-7.3c0.1,0,0.3,0,0.4,0c0.1,0,0.3,0,0.4,0c0.2,0,0.3-0.1,0.3-0.3c0-0.1-0.1-0.1-0.1-0.2
	c-0.1,0-0.1-0.1-0.2-0.1c-0.4,0.1-0.8,0.1-1.2,0.1c-0.4,0-0.7,0-1,0c0.6-0.9,1.4-1.7,2.4-2.2c1-0.6,2.1-0.8,3.2-0.8
	c0.9,0,1.7,0.2,2.5,0.5c0.8,0.3,1.5,0.8,2.1,1.3c-0.2,0-0.4,0-0.6,0.1c-0.2,0.1-0.4,0.3-0.5,0.5c-0.1,0.2-0.1,0.5-0.1,0.7
	c0,0.3,0.1,0.5,0.2,0.7c0.1,0.2,0.2,0.5,0.4,0.7c0.1,0.2,0.2,0.4,0.3,0.5c0.2,0.3,0.3,0.7,0.3,1c0,0.4,0,0.9-0.2,1.3
	C33.2,99.8,33.2,100,33.1,100.4z"/>
<path class="st4" d="M34.9,96.6c0-0.1,0-0.3,0-0.4c0-0.1,0-0.3,0-0.4c0.8,1.5,1,3.3,0.5,5c-0.2,0.6-0.4,1.1-0.7,1.6
	c-0.3,0.5-0.7,1-1.1,1.4c-0.4,0.4-0.9,0.8-1.4,1.1c0.1-0.2,0.2-0.5,0.3-1c0.2-0.5,0.3-1,0.5-1.5c0.2-0.5,0.3-1,0.5-1.5
	c0.2-0.5,0.3-0.8,0.3-1c0.2-0.5,0.3-1,0.5-1.5C34.7,97.8,34.8,97.2,34.9,96.6z"/>
<path class="st4" d="M22.2,99c0,0.7,0.1,1.3,0.3,1.9c0.2,0.6,0.4,1.2,0.8,1.7c0.3,0.5,0.7,1,1.2,1.4c0.5,0.4,1,0.8,1.5,1l-3.2-8.9
	C22.4,97.1,22.2,98.1,22.2,99z"/>
<path class="st4" d="M27.9,105.7c-0.3,0-0.6-0.1-0.9-0.2l2-5.9l2.1,5.8C30.1,105.8,29,105.9,27.9,105.7z"/>
<path class="st5" d="M34.5,93.3c0.7,0.7,1.3,1.6,1.7,2.5v0c0.4,1,0.6,2,0.6,3.1c0,1.1-0.2,2.1-0.6,3.1c-0.8,1.9-2.3,3.5-4.2,4.3
	c-1,0.4-2,0.6-3.1,0.6c-1.1,0-2.1-0.2-3.1-0.6c-0.9-0.4-1.8-1-2.5-1.7c-0.7-0.7-1.3-1.6-1.7-2.6c-0.4-1-0.6-2-0.6-3.1
	c0-1.1,0.2-2.1,0.6-3.1c0.8-1.9,2.3-3.4,4.2-4.3c1-0.4,2-0.6,3.1-0.6c1.1,0,2.1,0.2,3.1,0.6C32.9,92,33.8,92.6,34.5,93.3z
	 M31.8,105.9c1.8-0.8,3.2-2.2,3.9-4c0.4-0.9,0.6-1.9,0.6-2.9s-0.2-2-0.6-2.9c-0.4-0.9-0.9-1.7-1.6-2.4c-0.7-0.7-1.5-1.2-2.3-1.6
	c-0.9-0.4-1.9-0.6-2.9-0.6c-1,0-2,0.2-2.9,0.6c-0.9,0.4-1.7,0.9-2.3,1.6c-0.7,0.7-1.2,1.5-1.6,2.4C21.7,97,21.5,98,21.5,99
	s0.2,2,0.6,2.9c0.8,1.8,2.2,3.2,3.9,4c0.9,0.4,1.9,0.6,2.9,0.6C29.9,106.4,30.9,106.2,31.8,105.9z"/>
<radialGradient id="SVGID_3_" cx="-252.1398" cy="565.2186" r="1" gradientTransform="matrix(18.1204 4.7807 4.6924 -17.7856 1951.2489 11409.7539)" gradientUnits="userSpaceOnUse">
	<stop  offset="0" style="stop-color:#00CAAA"/>
	<stop  offset="1" style="stop-color:#00CAAA;stop-opacity:0"/>
</radialGradient>
<path class="st6" d="M51.1,144.4c0,0.1,0,0.1-0.1,0.2v0.6c0.1,0,0.2,0,0.3,0.1c0.1,0.1,0.3,0.2,0.4,0.3c0.1,0.1,0.2,0.2,0.3,0.4
	c0.1,0.1,0.1,0.3,0.1,0.5v5.6c0,0.2-0.1,0.4-0.2,0.6v2c0.1,0.2,0.1,0.4,0.2,0.6v5.6c0,0.3-0.1,0.6-0.4,0.9c-0.2,0.2-0.5,0.4-0.8,0.4
	H37v0.1h-4.3c-0.2,0.1-0.5,0.3-0.8,0.4c-1,0.4-2,0.6-3.1,0.6c-1.1,0-2.1-0.2-3.1-0.6c-0.9-0.4-1.8-1-2.5-1.7
	c-0.7-0.7-1.3-1.6-1.7-2.5c-0.4-1-0.6-2-0.6-3.1c0-1.1,0.2-2.1,0.6-3.1c0.7-1.6,1.9-3,3.4-3.8v-0.8l0,0c-0.1,0-0.1-0.1-0.1-0.2
	c0-0.1-0.1-0.1-0.1-0.2v-0.5c0-0.3,0.1-0.6,0.4-0.9c0.2-0.2,0.5-0.4,0.9-0.4h0.1v-0.7c0,0,0,0,0,0c0-0.1,0-0.1,0-0.2
	c-0.1-1.1,0.3-2.2,0.9-3.1c0.6-0.9,1.6-1.6,2.7-1.8c0.1-0.5,0.3-0.9,0.6-1.3c0.3-0.4,0.6-0.7,1.1-1c0.4-0.2,0.9-0.4,1.3-0.4
	c0.5-0.1,1,0,1.4,0.1c0.8-1.4,2.1-2.5,3.6-3.1c1.5-0.6,3.1-0.7,4.7-0.3c1.6,0.4,3,1.3,4,2.6c1,1.3,1.6,2.8,1.7,4.4
	c0.9,0.3,1.6,0.8,2.2,1.6C50.8,142.6,51.1,143.5,51.1,144.4L51.1,144.4z"/>
<path class="st7" d="M47.7,158.6c0.1,0.1,0.3,0.1,0.5,0.1c0.1,0,0.2,0,0.3-0.1c0.1,0,0.2-0.1,0.3-0.2c0.1-0.1,0.1-0.2,0.2-0.3
	c0-0.1,0.1-0.2,0.1-0.3c0-0.2,0-0.3-0.1-0.5c-0.1-0.1-0.2-0.2-0.4-0.3c-0.2-0.1-0.3-0.1-0.5,0c-0.2,0-0.3,0.1-0.4,0.2
	c-0.1,0.1-0.2,0.3-0.2,0.4c0,0.2,0,0.3,0,0.5C47.5,158.4,47.6,158.5,47.7,158.6z"/>
<path class="st7" d="M45.9,157.4c0.1,0.1,0.1,0.3,0.1,0.5h0c0,0.2-0.1,0.4-0.2,0.6c-0.2,0.2-0.4,0.2-0.6,0.2c-0.2,0-0.3,0-0.5-0.1
	c-0.1-0.1-0.2-0.2-0.3-0.4c-0.1-0.2-0.1-0.3,0-0.5c0-0.2,0.1-0.3,0.2-0.4c0.1-0.1,0.3-0.2,0.4-0.2c0.2,0,0.3,0,0.5,0
	C45.7,157.2,45.8,157.3,45.9,157.4z"/>
<path class="st7" d="M38,153.8l12.8,0.1c0.3,0,0.6,0.1,0.8,0.4c0.2,0.2,0.4,0.5,0.4,0.9v5.6c0,0.3-0.1,0.6-0.4,0.9
	c-0.2,0.2-0.5,0.4-0.8,0.4H35.1c-0.1,0-0.2,0-0.2-0.1c-0.1,0-0.1-0.1-0.2-0.2c0-0.1-0.1-0.2-0.1-0.2c0-0.1,0-0.2,0.1-0.2l0,0
	c0-0.1,0.1-0.1,0.2-0.2c0.1,0,0.1-0.1,0.2-0.1h15.7c0.1,0,0.2,0,0.2-0.1c0.1-0.1,0.1-0.1,0.1-0.2v-5.6c0-0.1,0-0.2-0.1-0.2
	c-0.1-0.1-0.1-0.1-0.2-0.1L38,154.7c-0.1,0-0.2,0-0.3-0.1c-0.1-0.1-0.1-0.2-0.2-0.3l0,0c0-0.1,0-0.1,0-0.2c0-0.1,0-0.1,0.1-0.2
	c0,0,0.1-0.1,0.2-0.1C37.9,153.8,38,153.8,38,153.8z"/>
<path class="st7" d="M42.7,157.4c0.1,0.1,0.1,0.3,0.1,0.5c0,0.2-0.1,0.4-0.2,0.6c-0.2,0.2-0.4,0.2-0.6,0.2c-0.2,0-0.3,0-0.5-0.1
	c-0.1-0.1-0.2-0.2-0.3-0.4c-0.1-0.2-0.1-0.3,0-0.5c0-0.2,0.1-0.3,0.2-0.4c0.1-0.1,0.3-0.2,0.4-0.2c0.2,0,0.3,0,0.5,0
	C42.5,157.2,42.6,157.3,42.7,157.4z"/>
<path class="st7" d="M26,145.1h24.8c0.2,0,0.3,0,0.5,0.1c0.1,0.1,0.3,0.2,0.4,0.3c0.1,0.1,0.2,0.2,0.3,0.4c0.1,0.1,0.1,0.3,0.1,0.5
	v5.6c0,0.3-0.1,0.6-0.4,0.9c-0.2,0.2-0.5,0.4-0.8,0.4H38c-0.1,0-0.2,0-0.3-0.1c-0.1-0.1-0.1-0.1-0.2-0.2l0,0c0-0.1,0-0.1,0-0.2
	c0-0.1,0-0.1,0.1-0.2c0-0.1,0.1-0.1,0.2-0.1c0.1,0,0.1-0.1,0.2-0.1h12.8c0,0,0.1,0,0.1,0c0,0,0.1,0,0.1-0.1c0,0,0-0.1,0.1-0.1
	c0,0,0-0.1,0-0.1v-5.6c0,0,0-0.1,0-0.1c0,0,0-0.1-0.1-0.1c0,0-0.1-0.1-0.1-0.1s-0.1,0-0.1,0H26c-0.1,0-0.2,0-0.2,0.1
	c-0.1,0.1-0.1,0.1-0.1,0.2v0.5c0,0.1,0,0.2-0.1,0.3c-0.1,0.1-0.1,0.1-0.2,0.2l0,0c-0.1,0-0.1,0-0.2,0c-0.1,0-0.1,0-0.2-0.1
	c-0.1,0-0.1-0.1-0.1-0.2c0-0.1-0.1-0.1-0.1-0.2v-0.5c0-0.3,0.1-0.6,0.4-0.9C25.4,145.3,25.7,145.1,26,145.1z"/>
<path class="st7" d="M42.7,148.7c0.1,0.1,0.1,0.3,0.1,0.5c0,0.2-0.1,0.4-0.2,0.6c-0.2,0.2-0.4,0.2-0.6,0.2c-0.2,0-0.3,0-0.5-0.1
	c-0.1-0.1-0.2-0.2-0.3-0.4c-0.1-0.2-0.1-0.3,0-0.5c0-0.2,0.1-0.3,0.2-0.4c0.1-0.1,0.3-0.2,0.4-0.2c0.2,0,0.3,0,0.5,0
	C42.5,148.5,42.6,148.6,42.7,148.7z"/>
<path class="st7" d="M48.9,148.7c0.1,0.1,0.1,0.3,0.1,0.5l0,0c0,0.1,0,0.2-0.1,0.3c0,0.1-0.1,0.2-0.2,0.3c-0.1,0.1-0.2,0.1-0.3,0.2
	c-0.1,0-0.2,0.1-0.3,0.1c-0.2,0-0.3,0-0.5-0.1c-0.1-0.1-0.2-0.2-0.3-0.4c-0.1-0.2-0.1-0.3,0-0.5c0-0.2,0.1-0.3,0.2-0.4
	c0.1-0.1,0.3-0.2,0.4-0.2s0.3,0,0.5,0C48.7,148.5,48.8,148.6,48.9,148.7z"/>
<path class="st7" d="M45.9,148.7c0.1,0.1,0.1,0.3,0.1,0.5l0,0c0,0.1,0,0.2-0.1,0.3c0,0.1-0.1,0.2-0.2,0.3c-0.1,0.1-0.2,0.1-0.3,0.2
	c-0.1,0-0.2,0.1-0.3,0.1c-0.2,0-0.3,0-0.5-0.1c-0.1-0.1-0.2-0.2-0.3-0.4c-0.1-0.2-0.1-0.3,0-0.5c0-0.2,0.1-0.3,0.2-0.4
	c0.1-0.1,0.3-0.2,0.4-0.2c0.2,0,0.3,0,0.5,0C45.7,148.5,45.8,148.6,45.9,148.7z"/>
<path class="st7" d="M26.7,144.7c-0.1,0-0.1,0-0.2,0c-0.1,0-0.2,0-0.3-0.1c-0.1-0.1-0.1-0.2-0.1-0.3c0-0.1,0-0.1,0-0.2
	c-0.1-1.1,0.3-2.2,0.9-3.1c0.6-0.9,1.6-1.6,2.7-1.8c0.1-0.5,0.3-0.9,0.6-1.3c0.3-0.4,0.6-0.7,1.1-1c0.4-0.2,0.9-0.4,1.3-0.4
	c0.5-0.1,1,0,1.4,0.1c0.8-1.4,2.1-2.5,3.6-3.1c1.5-0.6,3.1-0.7,4.7-0.3c1.6,0.4,3,1.3,4,2.6c1,1.3,1.6,2.8,1.7,4.4
	c0.9,0.3,1.6,0.8,2.2,1.6c0.5,0.7,0.8,1.6,0.8,2.6v0c0,0.1,0,0.2-0.1,0.2c-0.1,0.1-0.2,0.1-0.2,0.1h-0.1c0,0-0.1,0-0.1,0
	c0,0-0.1,0-0.1-0.1c0,0-0.1-0.1-0.1-0.1s0-0.1,0-0.1v0c0-0.8-0.3-1.6-0.8-2.2c-0.5-0.6-1.2-1-1.9-1.2c-0.1,0-0.2-0.1-0.2-0.1
	c-0.1-0.1-0.1-0.2-0.1-0.2c0-3.7-3.1-6.7-6.7-6.7c-1.2,0-2.4,0.3-3.4,0.9c-1,0.6-1.9,1.5-2.5,2.6c0,0.1-0.1,0.2-0.2,0.2
	c-0.1,0-0.2,0-0.3,0c-0.3-0.1-0.7-0.2-1-0.2c-0.6,0-1.3,0.2-1.7,0.7s-0.8,1-0.9,1.7c0,0.1,0,0.2-0.1,0.2c-0.1,0.1-0.1,0.1-0.2,0.1
	c-0.9,0.2-1.8,0.7-2.4,1.5c-0.6,0.8-0.9,1.7-0.8,2.7c0,0.1,0,0.1,0,0.2c0,0.1,0,0.1,0,0.2c0,0.1,0,0.1-0.1,0.1
	C26.8,144.6,26.8,144.7,26.7,144.7z"/>
<path class="st7" d="M44.6,137.7c-0.1,0-0.1,0.1-0.2,0.1c-0.1,0-0.1,0-0.2,0c-0.1,0-0.1-0.1-0.1-0.1c-0.4-0.5-1-1-1.6-1.3
	c-0.6-0.3-1.3-0.4-2-0.4c-0.1,0-0.1,0-0.2,0c-0.1,0-0.1,0-0.1-0.1c0,0-0.1-0.1-0.1-0.1c0,0,0-0.1,0-0.2s0-0.1,0-0.2
	c0-0.1,0.1-0.1,0.1-0.1c0,0,0.1-0.1,0.1-0.1c0.1,0,0.1,0,0.2,0c0.8,0,1.6,0.2,2.3,0.5c0.7,0.3,1.4,0.8,1.9,1.5
	c0,0.1,0.1,0.1,0.1,0.2c0,0.1,0,0.2,0,0.2S44.7,137.7,44.6,137.7z"/>
<path class="st7" d="M33.1,156.4c-0.1,0.3-0.2,0.6-0.3,1.1c-0.1,0.4-0.3,1-0.5,1.6l-2.4-7.3c0.1,0,0.2,0,0.4,0c0.1,0,0.3,0,0.4,0
	c0.2,0,0.3-0.1,0.3-0.3c0-0.1-0.1-0.1-0.1-0.2c-0.1,0-0.1-0.1-0.2-0.1c-0.7,0-1.2,0.1-1.5,0.1c-0.4,0-0.7,0-1.1,0l-0.7-0.1l-0.3,0
	c0,0-0.1,0-0.1,0c0,0-0.1,0-0.1,0c-0.1,0-0.1,0.1-0.1,0.2c0,0,0,0.1,0,0.1c0,0,0,0.1,0,0.1c0,0.1,0.1,0.1,0.2,0.1c0,0,0.1,0,0.2,0
	c0.1,0,0.3,0,0.5,0.1l1.1,2.9l-1.5,4.4l-2.5-7.3c0.1,0,0.3,0,0.4,0c0.1,0,0.3,0,0.4,0c0.2,0,0.3-0.1,0.3-0.3c0-0.1-0.1-0.1-0.1-0.2
	c-0.1,0-0.1-0.1-0.2-0.1c-0.4,0.1-0.8,0.1-1.2,0.1c-0.4,0-0.7,0-1,0c0.6-0.9,1.4-1.7,2.4-2.2c1-0.6,2.1-0.8,3.2-0.8
	c0.9,0,1.7,0.2,2.5,0.5c0.8,0.3,1.5,0.8,2.1,1.3c-0.2,0-0.4,0-0.6,0.1c-0.2,0.1-0.4,0.3-0.5,0.5c-0.1,0.2-0.1,0.5-0.1,0.7
	c0,0.3,0.1,0.5,0.2,0.8c0.1,0.2,0.2,0.5,0.4,0.7c0.1,0.2,0.2,0.4,0.3,0.5c0.2,0.3,0.3,0.7,0.3,1c0,0.4,0,0.9-0.2,1.3
	C33.2,155.8,33.2,156,33.1,156.4z"/>
<path class="st7" d="M34.9,152.6c0-0.1,0-0.3,0-0.4c0-0.1,0-0.3,0-0.4c0.8,1.5,1,3.3,0.5,5c-0.2,0.6-0.4,1.1-0.7,1.6
	c-0.3,0.5-0.7,1-1.1,1.4c-0.4,0.4-0.9,0.8-1.4,1.1c0.1-0.2,0.2-0.5,0.3-1c0.2-0.5,0.3-1,0.5-1.5c0.2-0.5,0.3-1,0.5-1.5
	c0.2-0.5,0.3-0.8,0.3-1c0.2-0.5,0.3-1,0.5-1.5C34.7,153.8,34.8,153.2,34.9,152.6z"/>
<path class="st7" d="M22.2,155c0,0.7,0.1,1.3,0.3,1.9c0.2,0.6,0.4,1.2,0.8,1.7c0.3,0.5,0.7,1,1.2,1.4c0.5,0.4,1,0.8,1.5,1l-3.2-8.8
	C22.4,153.1,22.2,154.1,22.2,155z"/>
<path class="st7" d="M27.9,161.7c-0.3,0-0.6-0.1-0.9-0.2l2-5.9l2.1,5.8C30.1,161.8,29,161.9,27.9,161.7z"/>
<path class="st8" d="M34.5,149.3c0.7,0.7,1.3,1.6,1.7,2.5v0c0.4,1,0.6,2,0.6,3.1c0,1.1-0.2,2.1-0.6,3.1c-0.8,1.9-2.3,3.5-4.2,4.3
	c-1,0.4-2,0.6-3.1,0.6c-1.1,0-2.1-0.2-3.1-0.6c-0.9-0.4-1.8-1-2.5-1.7c-0.7-0.7-1.3-1.6-1.7-2.5c-0.4-1-0.6-2-0.6-3.1
	c0-1.1,0.2-2.1,0.6-3.1c0.8-1.9,2.3-3.4,4.2-4.3c1-0.4,2-0.6,3.1-0.6c1.1,0,2.1,0.2,3.1,0.6C32.9,148,33.8,148.6,34.5,149.3z
	 M31.8,161.9c1.8-0.8,3.2-2.2,3.9-4c0.4-0.9,0.6-1.9,0.6-2.9c0-1-0.2-2-0.6-2.9c-0.4-0.9-0.9-1.7-1.6-2.4c-0.7-0.7-1.5-1.2-2.3-1.6
	c-0.9-0.4-1.9-0.6-2.9-0.6c-1,0-2,0.2-2.9,0.6c-0.9,0.4-1.7,0.9-2.3,1.6c-0.7,0.7-1.2,1.5-1.6,2.4c-0.4,0.9-0.6,1.9-0.6,2.9
	c0,1,0.2,2,0.6,2.9c0.8,1.8,2.2,3.2,3.9,4c0.9,0.4,1.9,0.6,2.9,0.6C29.9,162.4,30.9,162.2,31.8,161.9z"/>
<path class="st9" d="M47.7,214.6c0.1,0.1,0.3,0.1,0.5,0.1c0.1,0,0.2,0,0.3-0.1c0.1,0,0.2-0.1,0.3-0.2c0.1-0.1,0.1-0.2,0.2-0.3
	c0-0.1,0.1-0.2,0.1-0.3c0-0.2,0-0.3-0.1-0.5c-0.1-0.1-0.2-0.2-0.4-0.3c-0.2-0.1-0.3-0.1-0.5,0c-0.2,0-0.3,0.1-0.4,0.2
	c-0.1,0.1-0.2,0.3-0.2,0.4c0,0.2,0,0.3,0,0.5C47.5,214.4,47.6,214.5,47.7,214.6z"/>
<path class="st9" d="M45.9,213.4c0.1,0.1,0.1,0.3,0.1,0.5h0c0,0.2-0.1,0.4-0.2,0.6c-0.2,0.2-0.4,0.2-0.6,0.2c-0.2,0-0.3,0-0.5-0.1
	c-0.1-0.1-0.2-0.2-0.3-0.4c-0.1-0.2-0.1-0.3,0-0.5c0-0.2,0.1-0.3,0.2-0.4c0.1-0.1,0.3-0.2,0.4-0.2c0.2,0,0.3,0,0.5,0
	C45.7,213.2,45.8,213.3,45.9,213.4z"/>
<path class="st9" d="M38,209.8l12.8,0.1c0.3,0,0.6,0.1,0.8,0.4c0.2,0.2,0.4,0.5,0.4,0.9v5.6c0,0.3-0.1,0.6-0.4,0.9
	c-0.2,0.2-0.5,0.4-0.8,0.4H35.1c-0.1,0-0.2,0-0.2-0.1c-0.1,0-0.1-0.1-0.2-0.2c0-0.1-0.1-0.2-0.1-0.2c0-0.1,0-0.2,0.1-0.2l0,0
	c0-0.1,0.1-0.1,0.2-0.2c0.1,0,0.1-0.1,0.2-0.1h15.7c0.1,0,0.2,0,0.2-0.1c0.1-0.1,0.1-0.1,0.1-0.2v-5.6c0-0.1,0-0.2-0.1-0.2
	c-0.1-0.1-0.1-0.1-0.2-0.1L38,210.7c-0.1,0-0.2,0-0.3-0.1c-0.1-0.1-0.1-0.2-0.2-0.3l0,0c0-0.1,0-0.1,0-0.2c0-0.1,0-0.1,0.1-0.2
	c0,0,0.1-0.1,0.2-0.1C37.9,209.8,38,209.8,38,209.8z"/>
<path class="st9" d="M42.7,213.4c0.1,0.1,0.1,0.3,0.1,0.5c0,0.2-0.1,0.4-0.2,0.6c-0.2,0.2-0.4,0.2-0.6,0.2c-0.2,0-0.3,0-0.5-0.1
	c-0.1-0.1-0.2-0.2-0.3-0.4c-0.1-0.2-0.1-0.3,0-0.5c0-0.2,0.1-0.3,0.2-0.4c0.1-0.1,0.3-0.2,0.4-0.2c0.2,0,0.3,0,0.5,0
	C42.5,213.2,42.6,213.3,42.7,213.4z"/>
<path class="st9" d="M26,201.1h24.8c0.2,0,0.3,0,0.5,0.1c0.1,0.1,0.3,0.2,0.4,0.3c0.1,0.1,0.2,0.2,0.3,0.4c0.1,0.1,0.1,0.3,0.1,0.5
	v5.6c0,0.3-0.1,0.6-0.4,0.9c-0.2,0.2-0.5,0.4-0.8,0.4H38c-0.1,0-0.2,0-0.3-0.1c-0.1-0.1-0.1-0.1-0.2-0.2l0,0c0-0.1,0-0.1,0-0.2
	c0-0.1,0-0.1,0.1-0.2c0-0.1,0.1-0.1,0.2-0.1c0.1,0,0.1-0.1,0.2-0.1h12.8c0,0,0.1,0,0.1,0c0,0,0.1,0,0.1-0.1c0,0,0-0.1,0.1-0.1
	c0,0,0-0.1,0-0.1v-5.6c0,0,0-0.1,0-0.1c0,0,0-0.1-0.1-0.1c0,0-0.1-0.1-0.1-0.1s-0.1,0-0.1,0H26c-0.1,0-0.2,0-0.2,0.1
	c-0.1,0.1-0.1,0.1-0.1,0.2v0.5c0,0.1,0,0.2-0.1,0.3c-0.1,0.1-0.1,0.1-0.2,0.2l0,0c-0.1,0-0.1,0-0.2,0c-0.1,0-0.1,0-0.2-0.1
	c-0.1,0-0.1-0.1-0.1-0.2c0-0.1-0.1-0.1-0.1-0.2v-0.5c0-0.3,0.1-0.6,0.4-0.9C25.4,201.3,25.7,201.1,26,201.1z"/>
<path class="st9" d="M42.7,204.7c0.1,0.1,0.1,0.3,0.1,0.5c0,0.2-0.1,0.4-0.2,0.6c-0.2,0.2-0.4,0.2-0.6,0.2c-0.2,0-0.3,0-0.5-0.1
	c-0.1-0.1-0.2-0.2-0.3-0.4c-0.1-0.2-0.1-0.3,0-0.5c0-0.2,0.1-0.3,0.2-0.4c0.1-0.1,0.3-0.2,0.4-0.2c0.2,0,0.3,0,0.5,0
	C42.5,204.5,42.6,204.6,42.7,204.7z"/>
<path class="st9" d="M48.9,204.7c0.1,0.1,0.1,0.3,0.1,0.5l0,0c0,0.1,0,0.2-0.1,0.3c0,0.1-0.1,0.2-0.2,0.3c-0.1,0.1-0.2,0.1-0.3,0.2
	c-0.1,0-0.2,0.1-0.3,0.1c-0.2,0-0.3,0-0.5-0.1c-0.1-0.1-0.2-0.2-0.3-0.4c-0.1-0.2-0.1-0.3,0-0.5c0-0.2,0.1-0.3,0.2-0.4
	c0.1-0.1,0.3-0.2,0.4-0.2s0.3,0,0.5,0C48.7,204.5,48.8,204.6,48.9,204.7z"/>
<path class="st9" d="M45.9,204.7c0.1,0.1,0.1,0.3,0.1,0.5l0,0c0,0.1,0,0.2-0.1,0.3c0,0.1-0.1,0.2-0.2,0.3c-0.1,0.1-0.2,0.1-0.3,0.2
	c-0.1,0-0.2,0.1-0.3,0.1c-0.2,0-0.3,0-0.5-0.1c-0.1-0.1-0.2-0.2-0.3-0.4c-0.1-0.2-0.1-0.3,0-0.5c0-0.2,0.1-0.3,0.2-0.4
	c0.1-0.1,0.3-0.2,0.4-0.2c0.2,0,0.3,0,0.5,0C45.7,204.5,45.8,204.6,45.9,204.7z"/>
<path class="st9" d="M26.7,200.7c-0.1,0-0.1,0-0.2,0c-0.1,0-0.2,0-0.3-0.1c-0.1-0.1-0.1-0.2-0.1-0.3c0-0.1,0-0.1,0-0.2
	c-0.1-1.1,0.3-2.2,0.9-3.1c0.6-0.9,1.6-1.6,2.7-1.8c0.1-0.5,0.3-0.9,0.6-1.3c0.3-0.4,0.6-0.7,1.1-1c0.4-0.2,0.9-0.4,1.3-0.4
	c0.5-0.1,1,0,1.4,0.1c0.8-1.4,2.1-2.5,3.6-3.1c1.5-0.6,3.1-0.7,4.7-0.3c1.6,0.4,3,1.3,4,2.6c1,1.3,1.6,2.8,1.7,4.4
	c0.9,0.3,1.6,0.8,2.2,1.6c0.5,0.7,0.8,1.6,0.8,2.6v0c0,0.1,0,0.2-0.1,0.2c-0.1,0.1-0.2,0.1-0.2,0.1h-0.1c0,0-0.1,0-0.1,0
	c0,0-0.1,0-0.1-0.1c0,0-0.1-0.1-0.1-0.1s0-0.1,0-0.1v0c0-0.8-0.3-1.6-0.8-2.2c-0.5-0.6-1.2-1-1.9-1.2c-0.1,0-0.2-0.1-0.2-0.1
	c-0.1-0.1-0.1-0.2-0.1-0.2c0-3.7-3.1-6.7-6.7-6.7c-1.2,0-2.4,0.3-3.4,0.9c-1,0.6-1.9,1.5-2.5,2.6c0,0.1-0.1,0.2-0.2,0.2
	c-0.1,0-0.2,0-0.3,0c-0.3-0.1-0.7-0.2-1-0.2c-0.6,0-1.3,0.2-1.7,0.7s-0.8,1-0.9,1.7c0,0.1,0,0.2-0.1,0.2c-0.1,0.1-0.1,0.1-0.2,0.1
	c-0.9,0.2-1.8,0.7-2.4,1.5c-0.6,0.8-0.9,1.7-0.8,2.7c0,0.1,0,0.1,0,0.2c0,0.1,0,0.1,0,0.2c0,0.1,0,0.1-0.1,0.1
	C26.8,200.6,26.8,200.7,26.7,200.7z"/>
<path class="st9" d="M44.6,193.7c-0.1,0-0.1,0.1-0.2,0.1c-0.1,0-0.1,0-0.2,0c-0.1,0-0.1-0.1-0.1-0.1c-0.4-0.5-1-1-1.6-1.3
	c-0.6-0.3-1.3-0.4-2-0.4c-0.1,0-0.1,0-0.2,0c-0.1,0-0.1,0-0.1-0.1c0,0-0.1-0.1-0.1-0.1c0,0,0-0.1,0-0.2s0-0.1,0-0.2
	c0-0.1,0.1-0.1,0.1-0.1c0,0,0.1-0.1,0.1-0.1c0.1,0,0.1,0,0.2,0c0.8,0,1.6,0.2,2.3,0.5c0.7,0.3,1.4,0.8,1.9,1.5
	c0,0.1,0.1,0.1,0.1,0.2c0,0.1,0,0.2,0,0.2S44.7,193.7,44.6,193.7z"/>
<path class="st9" d="M33.1,212.4c-0.1,0.3-0.2,0.6-0.3,1.1c-0.1,0.4-0.3,1-0.5,1.6l-2.4-7.3c0.1,0,0.2,0,0.4,0c0.1,0,0.3,0,0.4,0
	c0.2,0,0.3-0.1,0.3-0.3c0-0.1-0.1-0.1-0.1-0.2c-0.1,0-0.1-0.1-0.2-0.1c-0.7,0-1.2,0.1-1.5,0.1c-0.4,0-0.7,0-1.1,0l-0.7-0.1l-0.3,0
	c0,0-0.1,0-0.1,0c0,0-0.1,0-0.1,0c-0.1,0-0.1,0.1-0.1,0.2c0,0,0,0.1,0,0.1c0,0,0,0.1,0,0.1c0,0.1,0.1,0.1,0.2,0.1c0,0,0.1,0,0.2,0
	c0.1,0,0.3,0,0.5,0.1l1.1,2.9l-1.5,4.4l-2.5-7.3c0.1,0,0.3,0,0.4,0c0.1,0,0.3,0,0.4,0c0.2,0,0.3-0.1,0.3-0.3c0-0.1-0.1-0.1-0.1-0.2
	c-0.1,0-0.1-0.1-0.2-0.1c-0.4,0.1-0.8,0.1-1.2,0.1c-0.4,0-0.7,0-1,0c0.6-0.9,1.4-1.7,2.4-2.2c1-0.6,2.1-0.8,3.2-0.8
	c0.9,0,1.7,0.2,2.5,0.5c0.8,0.3,1.5,0.8,2.1,1.3c-0.2,0-0.4,0-0.6,0.1c-0.2,0.1-0.4,0.3-0.5,0.5c-0.1,0.2-0.1,0.5-0.1,0.7
	c0,0.3,0.1,0.5,0.2,0.8c0.1,0.2,0.2,0.5,0.4,0.7c0.1,0.2,0.2,0.4,0.3,0.5c0.2,0.3,0.3,0.7,0.3,1c0,0.4,0,0.9-0.2,1.3
	C33.2,211.8,33.2,212,33.1,212.4z"/>
<path class="st9" d="M34.9,208.6c0-0.1,0-0.3,0-0.4c0-0.1,0-0.3,0-0.4c0.8,1.5,1,3.3,0.5,5c-0.2,0.6-0.4,1.1-0.7,1.6
	c-0.3,0.5-0.7,1-1.1,1.4c-0.4,0.4-0.9,0.8-1.4,1.1c0.1-0.2,0.2-0.5,0.3-1c0.2-0.5,0.3-1,0.5-1.5c0.2-0.5,0.3-1,0.5-1.5
	c0.2-0.5,0.3-0.8,0.3-1c0.2-0.5,0.3-1,0.5-1.5C34.7,209.8,34.8,209.2,34.9,208.6z"/>
<path class="st9" d="M22.2,211c0,0.7,0.1,1.3,0.3,1.9c0.2,0.6,0.4,1.2,0.8,1.7c0.3,0.5,0.7,1,1.2,1.4c0.5,0.4,1,0.8,1.5,1l-3.2-8.8
	C22.4,209.1,22.2,210.1,22.2,211z"/>
<path class="st9" d="M27.9,217.7c-0.3,0-0.6-0.1-0.9-0.2l2-5.9l2.1,5.8C30.1,217.8,29,217.9,27.9,217.7z"/>
<path class="st10" d="M34.5,205.3c0.7,0.7,1.3,1.6,1.7,2.5v0c0.4,1,0.6,2,0.6,3.1c0,1.1-0.2,2.1-0.6,3.1c-0.8,1.9-2.3,3.5-4.2,4.3
	c-1,0.4-2,0.6-3.1,0.6c-1.1,0-2.1-0.2-3.1-0.6c-0.9-0.4-1.8-1-2.5-1.7c-0.7-0.7-1.3-1.6-1.7-2.5c-0.4-1-0.6-2-0.6-3.1
	c0-1.1,0.2-2.1,0.6-3.1c0.8-1.9,2.3-3.4,4.2-4.3c1-0.4,2-0.6,3.1-0.6c1.1,0,2.1,0.2,3.1,0.6C32.9,204,33.8,204.6,34.5,205.3z
	 M31.8,217.9c1.8-0.8,3.2-2.2,3.9-4c0.4-0.9,0.6-1.9,0.6-2.9c0-1-0.2-2-0.6-2.9c-0.4-0.9-0.9-1.7-1.6-2.4c-0.7-0.7-1.5-1.2-2.3-1.6
	c-0.9-0.4-1.9-0.6-2.9-0.6c-1,0-2,0.2-2.9,0.6c-0.9,0.4-1.7,0.9-2.3,1.6c-0.7,0.7-1.2,1.5-1.6,2.4c-0.4,0.9-0.6,1.9-0.6,2.9
	c0,1,0.2,2,0.6,2.9c0.8,1.8,2.2,3.2,3.9,4c0.9,0.4,1.9,0.6,2.9,0.6C29.9,218.4,30.9,218.2,31.8,217.9z"/>
<radialGradient id="SVGID_4_" cx="-252.1398" cy="565.2186" r="1" gradientTransform="matrix(18.1204 4.7807 4.6924 -17.7856 1951.2489 11521.7539)" gradientUnits="userSpaceOnUse">
	<stop  offset="0" style="stop-color:#434F58"/>
	<stop  offset="1" style="stop-color:#434F58;stop-opacity:0"/>
</radialGradient>
<path class="st11" d="M51.1,256.4c0,0.1,0,0.1-0.1,0.2v0.6c0.1,0,0.2,0,0.3,0.1c0.1,0.1,0.3,0.2,0.4,0.3c0.1,0.1,0.2,0.2,0.3,0.4
	c0.1,0.1,0.1,0.3,0.1,0.5v5.6c0,0.2-0.1,0.4-0.2,0.6v2c0.1,0.2,0.1,0.4,0.2,0.6v5.6c0,0.3-0.1,0.6-0.4,0.9c-0.2,0.2-0.5,0.4-0.8,0.4
	H37v0.1h-4.3c-0.2,0.1-0.5,0.3-0.8,0.4c-1,0.4-2,0.6-3.1,0.6c-1.1,0-2.1-0.2-3.1-0.6c-0.9-0.4-1.8-1-2.5-1.7
	c-0.7-0.7-1.3-1.6-1.7-2.5c-0.4-1-0.6-2-0.6-3.1s0.2-2.1,0.6-3.1c0.7-1.6,1.9-3,3.4-3.8v-0.8l0,0c-0.1,0-0.1-0.1-0.1-0.2
	c0-0.1-0.1-0.1-0.1-0.2v-0.5c0-0.3,0.1-0.6,0.4-0.9c0.2-0.2,0.5-0.4,0.9-0.4h0.1v-0.7c0,0,0,0,0,0c0-0.1,0-0.1,0-0.2
	c-0.1-1.1,0.3-2.2,0.9-3.1c0.6-0.9,1.6-1.6,2.7-1.8c0.1-0.5,0.3-0.9,0.6-1.3c0.3-0.4,0.6-0.7,1.1-1c0.4-0.2,0.9-0.4,1.3-0.4
	c0.5-0.1,1,0,1.4,0.1c0.8-1.4,2.1-2.5,3.6-3.1c1.5-0.6,3.1-0.7,4.7-0.3c1.6,0.4,3,1.3,4,2.6c1,1.3,1.6,2.8,1.7,4.4
	c0.9,0.3,1.6,0.8,2.2,1.6C50.8,254.6,51.1,255.5,51.1,256.4L51.1,256.4z"/>
<path class="st9" d="M47.7,270.6c0.1,0.1,0.3,0.1,0.5,0.1c0.1,0,0.2,0,0.3-0.1c0.1,0,0.2-0.1,0.3-0.2c0.1-0.1,0.1-0.2,0.2-0.3
	c0-0.1,0.1-0.2,0.1-0.3c0-0.2,0-0.3-0.1-0.5c-0.1-0.1-0.2-0.2-0.4-0.3c-0.2-0.1-0.3-0.1-0.5,0c-0.2,0-0.3,0.1-0.4,0.2
	c-0.1,0.1-0.2,0.3-0.2,0.4c0,0.2,0,0.3,0,0.5C47.5,270.4,47.6,270.5,47.7,270.6z"/>
<path class="st9" d="M45.9,269.4c0.1,0.1,0.1,0.3,0.1,0.5h0c0,0.2-0.1,0.4-0.2,0.6c-0.2,0.2-0.4,0.2-0.6,0.2c-0.2,0-0.3,0-0.5-0.1
	c-0.1-0.1-0.2-0.2-0.3-0.4c-0.1-0.2-0.1-0.3,0-0.5c0-0.2,0.1-0.3,0.2-0.4c0.1-0.1,0.3-0.2,0.4-0.2c0.2,0,0.3,0,0.5,0
	C45.7,269.2,45.8,269.3,45.9,269.4z"/>
<path class="st9" d="M38,265.8l12.8,0.1c0.3,0,0.6,0.1,0.8,0.4c0.2,0.2,0.4,0.5,0.4,0.9v5.6c0,0.3-0.1,0.6-0.4,0.9
	c-0.2,0.2-0.5,0.4-0.8,0.4H35.1c-0.1,0-0.2,0-0.2-0.1c-0.1,0-0.1-0.1-0.2-0.2c0-0.1-0.1-0.2-0.1-0.2c0-0.1,0-0.2,0.1-0.2l0,0
	c0-0.1,0.1-0.1,0.2-0.2c0.1,0,0.1-0.1,0.2-0.1h15.7c0.1,0,0.2,0,0.2-0.1c0.1-0.1,0.1-0.1,0.1-0.2v-5.6c0-0.1,0-0.2-0.1-0.2
	c-0.1-0.1-0.1-0.1-0.2-0.1L38,266.7c-0.1,0-0.2,0-0.3-0.1c-0.1-0.1-0.1-0.2-0.2-0.3l0,0c0-0.1,0-0.1,0-0.2c0-0.1,0-0.1,0.1-0.2
	c0,0,0.1-0.1,0.2-0.1C37.9,265.8,38,265.8,38,265.8z"/>
<path class="st9" d="M42.7,269.4c0.1,0.1,0.1,0.3,0.1,0.5c0,0.2-0.1,0.4-0.2,0.6c-0.2,0.2-0.4,0.2-0.6,0.2c-0.2,0-0.3,0-0.5-0.1
	c-0.1-0.1-0.2-0.2-0.3-0.4c-0.1-0.2-0.1-0.3,0-0.5c0-0.2,0.1-0.3,0.2-0.4s0.3-0.2,0.4-0.2c0.2,0,0.3,0,0.5,0
	C42.5,269.2,42.6,269.3,42.7,269.4z"/>
<path class="st9" d="M26,257.1h24.8c0.2,0,0.3,0,0.5,0.1s0.3,0.2,0.4,0.3c0.1,0.1,0.2,0.2,0.3,0.4c0.1,0.1,0.1,0.3,0.1,0.5v5.6
	c0,0.3-0.1,0.6-0.4,0.9c-0.2,0.2-0.5,0.4-0.8,0.4H38c-0.1,0-0.2,0-0.3-0.1c-0.1-0.1-0.1-0.1-0.2-0.2l0,0c0-0.1,0-0.1,0-0.2
	c0-0.1,0-0.1,0.1-0.2c0-0.1,0.1-0.1,0.2-0.1c0.1,0,0.1-0.1,0.2-0.1h12.8c0,0,0.1,0,0.1,0c0,0,0.1,0,0.1-0.1c0,0,0-0.1,0.1-0.1
	c0,0,0-0.1,0-0.1v-5.6c0,0,0-0.1,0-0.1c0,0,0-0.1-0.1-0.1c0,0-0.1,0-0.1-0.1c0,0-0.1,0-0.1,0H26c-0.1,0-0.2,0-0.2,0.1
	c-0.1,0.1-0.1,0.1-0.1,0.2v0.5c0,0.1,0,0.2-0.1,0.3c-0.1,0.1-0.1,0.1-0.2,0.2l0,0c-0.1,0-0.1,0-0.2,0c-0.1,0-0.1,0-0.2-0.1
	c-0.1,0-0.1-0.1-0.1-0.2c0-0.1-0.1-0.1-0.1-0.2v-0.5c0-0.3,0.1-0.6,0.4-0.9C25.4,257.3,25.7,257.1,26,257.1z"/>
<path class="st9" d="M42.7,260.7c0.1,0.1,0.1,0.3,0.1,0.5c0,0.2-0.1,0.4-0.2,0.6c-0.2,0.2-0.4,0.2-0.6,0.2c-0.2,0-0.3,0-0.5-0.1
	s-0.2-0.2-0.3-0.4c-0.1-0.2-0.1-0.3,0-0.5c0-0.2,0.1-0.3,0.2-0.4c0.1-0.1,0.3-0.2,0.4-0.2c0.2,0,0.3,0,0.5,0
	C42.5,260.5,42.6,260.6,42.7,260.7z"/>
<path class="st9" d="M48.9,260.7c0.1,0.1,0.1,0.3,0.1,0.5l0,0c0,0.1,0,0.2-0.1,0.3c0,0.1-0.1,0.2-0.2,0.3c-0.1,0.1-0.2,0.1-0.3,0.2
	c-0.1,0-0.2,0.1-0.3,0.1c-0.2,0-0.3,0-0.5-0.1c-0.1-0.1-0.2-0.2-0.3-0.4c-0.1-0.2-0.1-0.3,0-0.5c0-0.2,0.1-0.3,0.2-0.4
	c0.1-0.1,0.3-0.2,0.4-0.2c0.2,0,0.3,0,0.5,0C48.7,260.5,48.8,260.6,48.9,260.7z"/>
<path class="st9" d="M45.9,260.7c0.1,0.1,0.1,0.3,0.1,0.5l0,0c0,0.1,0,0.2-0.1,0.3c0,0.1-0.1,0.2-0.2,0.3c-0.1,0.1-0.2,0.1-0.3,0.2
	c-0.1,0-0.2,0.1-0.3,0.1c-0.2,0-0.3,0-0.5-0.1s-0.2-0.2-0.3-0.4c-0.1-0.2-0.1-0.3,0-0.5c0-0.2,0.1-0.3,0.2-0.4
	c0.1-0.1,0.3-0.2,0.4-0.2c0.2,0,0.3,0,0.5,0C45.7,260.5,45.8,260.6,45.9,260.7z"/>
<path class="st9" d="M26.7,256.7c-0.1,0-0.1,0-0.2,0c-0.1,0-0.2,0-0.3-0.1c-0.1-0.1-0.1-0.2-0.1-0.3c0-0.1,0-0.1,0-0.2
	c-0.1-1.1,0.3-2.2,0.9-3.1c0.6-0.9,1.6-1.6,2.7-1.8c0.1-0.5,0.3-0.9,0.6-1.3c0.3-0.4,0.6-0.7,1.1-1c0.4-0.2,0.9-0.4,1.3-0.4
	c0.5-0.1,1,0,1.4,0.1c0.8-1.4,2.1-2.5,3.6-3.1c1.5-0.6,3.1-0.7,4.7-0.3c1.6,0.4,3,1.3,4,2.6c1,1.3,1.6,2.8,1.7,4.4
	c0.9,0.3,1.6,0.8,2.2,1.6c0.5,0.7,0.8,1.6,0.8,2.6v0c0,0.1,0,0.2-0.1,0.2s-0.2,0.1-0.2,0.1h-0.1c0,0-0.1,0-0.1,0c0,0-0.1,0-0.1-0.1
	c0,0-0.1-0.1-0.1-0.1s0-0.1,0-0.1v0c0-0.8-0.3-1.6-0.8-2.2c-0.5-0.6-1.2-1-1.9-1.2c-0.1,0-0.2-0.1-0.2-0.1c-0.1-0.1-0.1-0.2-0.1-0.2
	c0-3.7-3.1-6.7-6.7-6.7c-1.2,0-2.4,0.3-3.4,0.9c-1,0.6-1.9,1.5-2.5,2.6c0,0.1-0.1,0.2-0.2,0.2c-0.1,0-0.2,0-0.3,0
	c-0.3-0.1-0.7-0.2-1-0.2c-0.6,0-1.3,0.2-1.7,0.7s-0.8,1-0.9,1.7c0,0.1,0,0.2-0.1,0.2c-0.1,0.1-0.1,0.1-0.2,0.1
	c-0.9,0.2-1.8,0.7-2.4,1.5c-0.6,0.8-0.9,1.7-0.8,2.7c0,0.1,0,0.1,0,0.2c0,0.1,0,0.1,0,0.2c0,0.1,0,0.1-0.1,0.1
	C26.8,256.6,26.8,256.7,26.7,256.7z"/>
<path class="st9" d="M44.6,249.7c-0.1,0-0.1,0.1-0.2,0.1c-0.1,0-0.1,0-0.2,0c-0.1,0-0.1-0.1-0.1-0.1c-0.4-0.5-1-1-1.6-1.3
	c-0.6-0.3-1.3-0.4-2-0.4c-0.1,0-0.1,0-0.2,0c-0.1,0-0.1,0-0.1-0.1c0,0-0.1-0.1-0.1-0.1c0,0,0-0.1,0-0.2s0-0.1,0-0.2
	c0-0.1,0.1-0.1,0.1-0.1c0,0,0.1-0.1,0.1-0.1c0.1,0,0.1,0,0.2,0c0.8,0,1.6,0.2,2.3,0.5c0.7,0.3,1.4,0.8,1.9,1.5
	c0,0.1,0.1,0.1,0.1,0.2c0,0.1,0,0.2,0,0.2S44.7,249.7,44.6,249.7z"/>
<path class="st9" d="M33.1,268.4c-0.1,0.3-0.2,0.6-0.3,1.1c-0.1,0.4-0.3,1-0.5,1.6l-2.4-7.3c0.1,0,0.2,0,0.4,0c0.1,0,0.3,0,0.4,0
	c0.2,0,0.3-0.1,0.3-0.3c0-0.1-0.1-0.1-0.1-0.2c-0.1,0-0.1-0.1-0.2-0.1c-0.7,0-1.2,0.1-1.5,0.1c-0.4,0-0.7,0-1.1,0l-0.7-0.1l-0.3,0
	c0,0-0.1,0-0.1,0c0,0-0.1,0-0.1,0c-0.1,0-0.1,0.1-0.1,0.2c0,0,0,0.1,0,0.1c0,0,0,0.1,0,0.1c0,0.1,0.1,0.1,0.2,0.1c0,0,0.1,0,0.2,0
	c0.1,0,0.3,0,0.5,0.1l1.1,2.9l-1.5,4.4l-2.5-7.3c0.1,0,0.3,0,0.4,0c0.1,0,0.3,0,0.4,0c0.2,0,0.3-0.1,0.3-0.3c0-0.1-0.1-0.1-0.1-0.2
	c-0.1,0-0.1-0.1-0.2-0.1c-0.4,0.1-0.8,0.1-1.2,0.1c-0.4,0-0.7,0-1,0c0.6-0.9,1.4-1.7,2.4-2.2c1-0.6,2.1-0.8,3.2-0.8
	c0.9,0,1.7,0.2,2.5,0.5c0.8,0.3,1.5,0.8,2.1,1.3c-0.2,0-0.4,0-0.6,0.1c-0.2,0.1-0.4,0.3-0.5,0.5c-0.1,0.2-0.1,0.5-0.1,0.7
	c0,0.3,0.1,0.5,0.2,0.8c0.1,0.2,0.2,0.5,0.4,0.7c0.1,0.2,0.2,0.4,0.3,0.5c0.2,0.3,0.3,0.7,0.3,1c0,0.4,0,0.9-0.2,1.3
	C33.2,267.8,33.2,268,33.1,268.4z"/>
<path class="st9" d="M34.9,264.6c0-0.1,0-0.3,0-0.4c0-0.1,0-0.3,0-0.4c0.8,1.5,1,3.3,0.5,5c-0.2,0.6-0.4,1.1-0.7,1.6
	c-0.3,0.5-0.7,1-1.1,1.4c-0.4,0.4-0.9,0.8-1.4,1.1c0.1-0.2,0.2-0.5,0.3-1c0.2-0.5,0.3-1,0.5-1.5c0.2-0.5,0.3-1,0.5-1.5
	c0.2-0.5,0.3-0.8,0.3-1c0.2-0.5,0.3-1,0.5-1.5C34.7,265.8,34.8,265.2,34.9,264.6z"/>
<path class="st9" d="M22.2,267c0,0.7,0.1,1.3,0.3,1.9c0.2,0.6,0.4,1.2,0.8,1.7c0.3,0.5,0.7,1,1.2,1.4c0.5,0.4,1,0.8,1.5,1l-3.2-8.9
	C22.4,265.1,22.2,266.1,22.2,267z"/>
<path class="st9" d="M27.9,273.7c-0.3,0-0.6-0.1-0.9-0.2l2-5.9l2.1,5.8C30.1,273.8,29,273.9,27.9,273.7z"/>
<path class="st10" d="M34.5,261.3c0.7,0.7,1.3,1.6,1.7,2.5v0c0.4,1,0.6,2,0.6,3.1s-0.2,2.1-0.6,3.1c-0.8,1.9-2.3,3.5-4.2,4.3
	c-1,0.4-2,0.6-3.1,0.6c-1.1,0-2.1-0.2-3.1-0.6c-0.9-0.4-1.8-1-2.5-1.7c-0.7-0.7-1.3-1.6-1.7-2.5c-0.4-1-0.6-2-0.6-3.1
	s0.2-2.1,0.6-3.1c0.8-1.9,2.3-3.4,4.2-4.3c1-0.4,2-0.6,3.1-0.6c1.1,0,2.1,0.2,3.1,0.6C32.9,260,33.8,260.6,34.5,261.3z M31.8,273.9
	c1.8-0.8,3.2-2.2,3.9-4c0.4-0.9,0.6-1.9,0.6-2.9c0-1-0.2-2-0.6-2.9c-0.4-0.9-0.9-1.7-1.6-2.4c-0.7-0.7-1.5-1.2-2.3-1.6
	c-0.9-0.4-1.9-0.6-2.9-0.6c-1,0-2,0.2-2.9,0.6c-0.9,0.4-1.7,0.9-2.3,1.6c-0.7,0.7-1.2,1.5-1.6,2.4c-0.4,0.9-0.6,1.9-0.6,2.9
	c0,1,0.2,2,0.6,2.9c0.8,1.8,2.2,3.2,3.9,4c0.9,0.4,1.9,0.6,2.9,0.6C29.9,274.4,30.9,274.2,31.8,273.9z"/>
<radialGradient id="SVGID_5_" cx="-252.1398" cy="565.2186" r="1" gradientTransform="matrix(18.1204 4.7807 4.6924 -17.7856 1951.2489 11577.7539)" gradientUnits="userSpaceOnUse">
	<stop  offset="0" style="stop-color:#677983"/>
	<stop  offset="1" style="stop-color:#677983;stop-opacity:0"/>
</radialGradient>
<path class="st12" d="M51.1,312.4c0,0.1,0,0.1-0.1,0.2v0.6c0.1,0,0.2,0,0.3,0.1c0.1,0.1,0.3,0.2,0.4,0.3c0.1,0.1,0.2,0.2,0.3,0.4
	c0.1,0.1,0.1,0.3,0.1,0.5v5.6c0,0.2-0.1,0.4-0.2,0.6v2c0.1,0.2,0.1,0.4,0.2,0.6v5.6c0,0.3-0.1,0.6-0.4,0.9c-0.2,0.2-0.5,0.4-0.8,0.4
	H37v0.1h-4.3c-0.2,0.1-0.5,0.3-0.8,0.4c-1,0.4-2,0.6-3.1,0.6c-1.1,0-2.1-0.2-3.1-0.6c-0.9-0.4-1.8-1-2.5-1.7
	c-0.7-0.7-1.3-1.6-1.7-2.5c-0.4-1-0.6-2-0.6-3.1s0.2-2.1,0.6-3.1c0.7-1.6,1.9-3,3.4-3.8v-0.8l0,0c-0.1,0-0.1-0.1-0.1-0.2
	c0-0.1-0.1-0.1-0.1-0.2v-0.5c0-0.3,0.1-0.6,0.4-0.9c0.2-0.2,0.5-0.4,0.9-0.4h0.1v-0.7c0,0,0,0,0,0c0-0.1,0-0.1,0-0.2
	c-0.1-1.1,0.3-2.2,0.9-3.1c0.6-0.9,1.6-1.6,2.7-1.8c0.1-0.5,0.3-0.9,0.6-1.3c0.3-0.4,0.6-0.7,1.1-1c0.4-0.2,0.9-0.4,1.3-0.4
	c0.5-0.1,1,0,1.4,0.1c0.8-1.4,2.1-2.5,3.6-3.1c1.5-0.6,3.1-0.7,4.7-0.3c1.6,0.4,3,1.3,4,2.6c1,1.3,1.6,2.8,1.7,4.4
	c0.9,0.3,1.6,0.8,2.2,1.6S51.1,311.5,51.1,312.4L51.1,312.4z"/>
<path class="st13" d="M47.7,326.6c0.1,0.1,0.3,0.1,0.5,0.1c0.1,0,0.2,0,0.3-0.1c0.1,0,0.2-0.1,0.3-0.2c0.1-0.1,0.1-0.2,0.2-0.3
	c0-0.1,0.1-0.2,0.1-0.3c0-0.2,0-0.3-0.1-0.5c-0.1-0.1-0.2-0.2-0.4-0.3c-0.2-0.1-0.3-0.1-0.5,0c-0.2,0-0.3,0.1-0.4,0.2
	c-0.1,0.1-0.2,0.3-0.2,0.4c0,0.2,0,0.3,0,0.5C47.5,326.4,47.6,326.5,47.7,326.6z"/>
<path class="st13" d="M45.9,325.4c0.1,0.1,0.1,0.3,0.1,0.5h0c0,0.2-0.1,0.4-0.2,0.6c-0.2,0.2-0.4,0.2-0.6,0.2c-0.2,0-0.3,0-0.5-0.1
	c-0.1-0.1-0.2-0.2-0.3-0.4c-0.1-0.2-0.1-0.3,0-0.5c0-0.2,0.1-0.3,0.2-0.4c0.1-0.1,0.3-0.2,0.4-0.2c0.2,0,0.3,0,0.5,0
	C45.7,325.2,45.8,325.3,45.9,325.4z"/>
<path class="st13" d="M38,321.8l12.8,0.1c0.3,0,0.6,0.1,0.8,0.4c0.2,0.2,0.4,0.5,0.4,0.9v5.6c0,0.3-0.1,0.6-0.4,0.9
	c-0.2,0.2-0.5,0.4-0.8,0.4H35.1c-0.1,0-0.2,0-0.2-0.1c-0.1,0-0.1-0.1-0.2-0.2c0-0.1-0.1-0.2-0.1-0.2c0-0.1,0-0.2,0.1-0.2l0,0
	c0-0.1,0.1-0.1,0.2-0.2c0.1,0,0.1-0.1,0.2-0.1h15.7c0.1,0,0.2,0,0.2-0.1c0.1-0.1,0.1-0.1,0.1-0.2v-5.6c0-0.1,0-0.2-0.1-0.2
	c-0.1-0.1-0.1-0.1-0.2-0.1L38,322.7c-0.1,0-0.2,0-0.3-0.1c-0.1-0.1-0.1-0.2-0.2-0.3l0,0c0-0.1,0-0.1,0-0.2c0-0.1,0-0.1,0.1-0.2
	c0,0,0.1-0.1,0.2-0.1C37.9,321.8,38,321.8,38,321.8z"/>
<path class="st13" d="M42.7,325.4c0.1,0.1,0.1,0.3,0.1,0.5c0,0.2-0.1,0.4-0.2,0.6c-0.2,0.2-0.4,0.2-0.6,0.2c-0.2,0-0.3,0-0.5-0.1
	c-0.1-0.1-0.2-0.2-0.3-0.4c-0.1-0.2-0.1-0.3,0-0.5c0-0.2,0.1-0.3,0.2-0.4s0.3-0.2,0.4-0.2c0.2,0,0.3,0,0.5,0
	C42.5,325.2,42.6,325.3,42.7,325.4z"/>
<path class="st13" d="M26,313.1h24.8c0.2,0,0.3,0,0.5,0.1s0.3,0.2,0.4,0.3c0.1,0.1,0.2,0.2,0.3,0.4c0.1,0.1,0.1,0.3,0.1,0.5v5.6
	c0,0.3-0.1,0.6-0.4,0.9c-0.2,0.2-0.5,0.4-0.8,0.4H38c-0.1,0-0.2,0-0.3-0.1c-0.1-0.1-0.1-0.1-0.2-0.2l0,0c0-0.1,0-0.1,0-0.2
	c0-0.1,0-0.1,0.1-0.2c0-0.1,0.1-0.1,0.2-0.1c0.1,0,0.1-0.1,0.2-0.1h12.8c0,0,0.1,0,0.1,0c0,0,0.1,0,0.1-0.1c0,0,0-0.1,0.1-0.1
	c0,0,0-0.1,0-0.1v-5.6c0,0,0-0.1,0-0.1c0,0,0-0.1-0.1-0.1c0,0-0.1,0-0.1-0.1c0,0-0.1,0-0.1,0H26c-0.1,0-0.2,0-0.2,0.1
	c-0.1,0.1-0.1,0.1-0.1,0.2v0.5c0,0.1,0,0.2-0.1,0.3c-0.1,0.1-0.1,0.1-0.2,0.2l0,0c-0.1,0-0.1,0-0.2,0c-0.1,0-0.1,0-0.2-0.1
	c-0.1,0-0.1-0.1-0.1-0.2c0-0.1-0.1-0.1-0.1-0.2v-0.5c0-0.3,0.1-0.6,0.4-0.9C25.4,313.3,25.7,313.1,26,313.1z"/>
<path class="st13" d="M42.7,316.7c0.1,0.1,0.1,0.3,0.1,0.5c0,0.2-0.1,0.4-0.2,0.6c-0.2,0.2-0.4,0.2-0.6,0.2c-0.2,0-0.3,0-0.5-0.1
	s-0.2-0.2-0.3-0.4c-0.1-0.2-0.1-0.3,0-0.5c0-0.2,0.1-0.3,0.2-0.4c0.1-0.1,0.3-0.2,0.4-0.2c0.2,0,0.3,0,0.5,0
	C42.5,316.5,42.6,316.6,42.7,316.7z"/>
<path class="st13" d="M48.9,316.7c0.1,0.1,0.1,0.3,0.1,0.5l0,0c0,0.1,0,0.2-0.1,0.3c0,0.1-0.1,0.2-0.2,0.3c-0.1,0.1-0.2,0.1-0.3,0.2
	c-0.1,0-0.2,0.1-0.3,0.1c-0.2,0-0.3,0-0.5-0.1c-0.1-0.1-0.2-0.2-0.3-0.4c-0.1-0.2-0.1-0.3,0-0.5c0-0.2,0.1-0.3,0.2-0.4
	c0.1-0.1,0.3-0.2,0.4-0.2c0.2,0,0.3,0,0.5,0C48.7,316.5,48.8,316.6,48.9,316.7z"/>
<path class="st13" d="M45.9,316.7c0.1,0.1,0.1,0.3,0.1,0.5l0,0c0,0.1,0,0.2-0.1,0.3c0,0.1-0.1,0.2-0.2,0.3c-0.1,0.1-0.2,0.1-0.3,0.2
	c-0.1,0-0.2,0.1-0.3,0.1c-0.2,0-0.3,0-0.5-0.1s-0.2-0.2-0.3-0.4c-0.1-0.2-0.1-0.3,0-0.5c0-0.2,0.1-0.3,0.2-0.4
	c0.1-0.1,0.3-0.2,0.4-0.2c0.2,0,0.3,0,0.5,0C45.7,316.5,45.8,316.6,45.9,316.7z"/>
<path class="st13" d="M26.7,312.7c-0.1,0-0.1,0-0.2,0c-0.1,0-0.2,0-0.3-0.1c-0.1-0.1-0.1-0.2-0.1-0.3c0-0.1,0-0.1,0-0.2
	c-0.1-1.1,0.3-2.2,0.9-3.1c0.6-0.9,1.6-1.6,2.7-1.8c0.1-0.5,0.3-0.9,0.6-1.3c0.3-0.4,0.6-0.7,1.1-1c0.4-0.2,0.9-0.4,1.3-0.4
	c0.5-0.1,1,0,1.4,0.1c0.8-1.4,2.1-2.5,3.6-3.1c1.5-0.6,3.1-0.7,4.7-0.3c1.6,0.4,3,1.3,4,2.6c1,1.3,1.6,2.8,1.7,4.4
	c0.9,0.3,1.6,0.8,2.2,1.6s0.8,1.6,0.8,2.6v0c0,0.1,0,0.2-0.1,0.2s-0.2,0.1-0.2,0.1h-0.1c0,0-0.1,0-0.1,0c0,0-0.1,0-0.1-0.1
	c0,0-0.1-0.1-0.1-0.1s0-0.1,0-0.1v0c0-0.8-0.3-1.6-0.8-2.2c-0.5-0.6-1.2-1-1.9-1.2c-0.1,0-0.2-0.1-0.2-0.1c-0.1-0.1-0.1-0.2-0.1-0.2
	c0-3.7-3.1-6.7-6.7-6.7c-1.2,0-2.4,0.3-3.4,0.9c-1,0.6-1.9,1.5-2.5,2.6c0,0.1-0.1,0.2-0.2,0.2c-0.1,0-0.2,0-0.3,0
	c-0.3-0.1-0.7-0.2-1-0.2c-0.6,0-1.3,0.2-1.7,0.7s-0.8,1-0.9,1.7c0,0.1,0,0.2-0.1,0.2c-0.1,0.1-0.1,0.1-0.2,0.1
	c-0.9,0.2-1.8,0.7-2.4,1.5c-0.6,0.8-0.9,1.7-0.8,2.7c0,0.1,0,0.1,0,0.2c0,0.1,0,0.1,0,0.2c0,0.1,0,0.1-0.1,0.1
	C26.8,312.6,26.8,312.7,26.7,312.7z"/>
<path class="st13" d="M44.6,305.7c-0.1,0-0.1,0.1-0.2,0.1c-0.1,0-0.1,0-0.2,0c-0.1,0-0.1-0.1-0.1-0.1c-0.4-0.5-1-1-1.6-1.3
	c-0.6-0.3-1.3-0.4-2-0.4c-0.1,0-0.1,0-0.2,0c-0.1,0-0.1,0-0.1-0.1c0,0-0.1-0.1-0.1-0.1c0,0,0-0.1,0-0.2c0-0.1,0-0.1,0-0.2
	c0,0,0.1-0.1,0.1-0.1c0,0,0.1-0.1,0.1-0.1c0.1,0,0.1,0,0.2,0c0.8,0,1.6,0.2,2.3,0.5c0.7,0.3,1.4,0.8,1.9,1.5c0,0.1,0.1,0.1,0.1,0.2
	c0,0.1,0,0.2,0,0.2S44.7,305.7,44.6,305.7z"/>
<path class="st13" d="M33.1,324.4c-0.1,0.3-0.2,0.6-0.3,1.1c-0.1,0.4-0.3,1-0.5,1.6l-2.4-7.3c0.1,0,0.2,0,0.4,0c0.1,0,0.3,0,0.4,0
	c0.2,0,0.3-0.1,0.3-0.3c0-0.1-0.1-0.1-0.1-0.2c-0.1,0-0.1-0.1-0.2-0.1c-0.7,0-1.2,0.1-1.5,0.1c-0.4,0-0.7,0-1.1,0l-0.7-0.1l-0.3,0
	c0,0-0.1,0-0.1,0c0,0-0.1,0-0.1,0c-0.1,0-0.1,0.1-0.1,0.2c0,0,0,0.1,0,0.1c0,0,0,0.1,0,0.1c0,0.1,0.1,0.1,0.2,0.1c0,0,0.1,0,0.2,0
	c0.1,0,0.3,0,0.5,0.1l1.1,2.9l-1.5,4.4l-2.5-7.3c0.1,0,0.3,0,0.4,0c0.1,0,0.3,0,0.4,0c0.2,0,0.3-0.1,0.3-0.3c0-0.1-0.1-0.1-0.1-0.2
	c-0.1,0-0.1-0.1-0.2-0.1c-0.4,0.1-0.8,0.1-1.2,0.1c-0.4,0-0.7,0-1,0c0.6-0.9,1.4-1.7,2.4-2.2c1-0.6,2.1-0.8,3.2-0.8
	c0.9,0,1.7,0.2,2.5,0.5c0.8,0.3,1.5,0.8,2.1,1.3c-0.2,0-0.4,0-0.6,0.1c-0.2,0.1-0.4,0.3-0.5,0.5c-0.1,0.2-0.1,0.5-0.1,0.7
	c0,0.3,0.1,0.5,0.2,0.8c0.1,0.2,0.2,0.5,0.4,0.7c0.1,0.2,0.2,0.4,0.3,0.5c0.2,0.3,0.3,0.7,0.3,1c0,0.4,0,0.9-0.2,1.3
	C33.2,323.8,33.2,324,33.1,324.4z"/>
<path class="st13" d="M34.9,320.6c0-0.1,0-0.3,0-0.4c0-0.1,0-0.3,0-0.4c0.8,1.5,1,3.3,0.5,5c-0.2,0.6-0.4,1.1-0.7,1.6
	c-0.3,0.5-0.7,1-1.1,1.4c-0.4,0.4-0.9,0.8-1.4,1.1c0.1-0.2,0.2-0.5,0.3-1c0.2-0.5,0.3-1,0.5-1.5c0.2-0.5,0.3-1,0.5-1.5
	c0.2-0.5,0.3-0.8,0.3-1c0.2-0.5,0.3-1,0.5-1.5C34.7,321.8,34.8,321.2,34.9,320.6z"/>
<path class="st13" d="M22.2,323c0,0.7,0.1,1.3,0.3,1.9c0.2,0.6,0.4,1.2,0.8,1.7c0.3,0.5,0.7,1,1.2,1.4c0.5,0.4,1,0.8,1.5,1l-3.2-8.9
	C22.4,321.1,22.2,322.1,22.2,323z"/>
<path class="st13" d="M27.9,329.7c-0.3,0-0.6-0.1-0.9-0.2l2-5.9l2.1,5.8C30.1,329.8,29,329.9,27.9,329.7z"/>
<path class="st14" d="M34.5,317.3c0.7,0.7,1.3,1.6,1.7,2.5v0c0.4,1,0.6,2,0.6,3.1s-0.2,2.1-0.6,3.1c-0.8,1.9-2.3,3.5-4.2,4.3
	c-1,0.4-2,0.6-3.1,0.6c-1.1,0-2.1-0.2-3.1-0.6c-0.9-0.4-1.8-1-2.5-1.7c-0.7-0.7-1.3-1.6-1.7-2.5c-0.4-1-0.6-2-0.6-3.1
	s0.2-2.1,0.6-3.1c0.8-1.9,2.3-3.4,4.2-4.3c1-0.4,2-0.6,3.1-0.6c1.1,0,2.1,0.2,3.1,0.6C32.9,316,33.8,316.6,34.5,317.3z M31.8,329.9
	c1.8-0.8,3.2-2.2,3.9-4c0.4-0.9,0.6-1.9,0.6-2.9c0-1-0.2-2-0.6-2.9c-0.4-0.9-0.9-1.7-1.6-2.4c-0.7-0.7-1.5-1.2-2.3-1.6
	c-0.9-0.4-1.9-0.6-2.9-0.6c-1,0-2,0.2-2.9,0.6c-0.9,0.4-1.7,0.9-2.3,1.6c-0.7,0.7-1.2,1.5-1.6,2.4c-0.4,0.9-0.6,1.9-0.6,2.9
	c0,1,0.2,2,0.6,2.9c0.8,1.8,2.2,3.2,3.9,4c0.9,0.4,1.9,0.6,2.9,0.6C29.9,330.4,30.9,330.2,31.8,329.9z"/>
</svg>
