<?xml version="1.0" encoding="utf-8"?>
<!-- Generator: Adobe Illustrator 25.2.1, SVG Export Plug-In . SVG Version: 6.00 Build 0)  -->
<svg version="1.1" id="Layer_1" xmlns="http://www.w3.org/2000/svg" xmlns:xlink="http://www.w3.org/1999/xlink" x="0px" y="0px"
	 viewBox="0 0 72 352" style="enable-background:new 0 0 72 352;" xml:space="preserve">
<style type="text/css">
	.st0{fill:url(#SVGID_1_);fill-opacity:0.25;}
	.st1{fill-rule:evenodd;clip-rule:evenodd;fill:#0073EC;}
	.st2{fill:url(#SVGID_2_);fill-opacity:0.25;}
	.st3{fill-rule:evenodd;clip-rule:evenodd;fill:#A644E5;}
	.st4{fill:url(#SVGID_3_);fill-opacity:0.25;}
	.st5{fill-rule:evenodd;clip-rule:evenodd;fill:#00CAAA;}
	.st6{fill-rule:evenodd;clip-rule:evenodd;fill:#434F58;}
	.st7{fill:url(#SVGID_4_);fill-opacity:0.25;}
	.st8{fill:url(#SVGID_5_);fill-opacity:0.25;}
	.st9{fill-rule:evenodd;clip-rule:evenodd;fill:#677983;}
</style>
<radialGradient id="SVGID_1_" cx="-249.4053" cy="595.865" r="1" gradientTransform="matrix(6.843633e-16 11.1765 11.7647 -7.203801e-16 -6974.4082 2823.8315)" gradientUnits="userSpaceOnUse">
	<stop  offset="0" style="stop-color:#0073EC"/>
	<stop  offset="1" style="stop-color:#0073EC;stop-opacity:0"/>
</radialGradient>
<path class="st0" d="M24,25.2h23.5v22.4H24V25.2z"/>
<path class="st1" d="M47.4,46.9h-1.2v-0.7h-1.1v0.7h-3v-0.7H41v0.7h-3v-0.7h-1.1v0.7h-3v-0.7h-1.1v0.7h-3v-0.7h-1.1v0.7h-3v-0.7
	h-0.7v-3h0.7v-1.1h-0.7v-3h0.7V38h-0.7v-3h0.7v-1.1h-0.7v-3h0.7v-1.1h-0.7v-3h0.7v-1.1h-0.7v-1.2c0-0.3-0.3-0.6-0.6-0.6
	c-0.3,0-0.6,0.3-0.6,0.6V48h23.4c0.3,0,0.6-0.3,0.6-0.6S47.7,46.9,47.4,46.9z"/>
<path class="st1" d="M41.4,36.4l2.7-4.4l0.7,1.4l0.9-5l-4,3l1.6,0.1l-2.1,3.4l-3.5-3.2L34,37.2l-3.5-1.3l-2.9,4.2l0,0
	c-0.1,0.2-0.1,0.6,0.1,0.7c0.1,0.1,0.2,0.1,0.3,0.1c0.2,0,0.3-0.1,0.4-0.2l2.4-3.6l3.5,1.3l3.5-5.2L41.4,36.4z"/>
<g>
	
		<radialGradient id="SVGID_2_" cx="-249.4053" cy="595.865" r="1" gradientTransform="matrix(6.843633e-16 11.1765 11.7647 -7.203801e-16 -6974.4082 2879.8315)" gradientUnits="userSpaceOnUse">
		<stop  offset="0" style="stop-color:#A644E5"/>
		<stop  offset="1" style="stop-color:#A644E5;stop-opacity:0"/>
	</radialGradient>
	<path class="st2" d="M24,81.2h23.5v22.4H24V81.2z"/>
</g>
<path class="st3" d="M47.4,102.9h-1.2v-0.7h-1.1v0.7h-3v-0.7H41v0.7h-3v-0.7h-1.1v0.7h-3v-0.7h-1.1v0.7h-3v-0.7h-1.1v0.7h-3v-0.7
	h-0.7v-3h0.7v-1.1h-0.7v-3h0.7V94h-0.7v-3h0.7v-1.1h-0.7v-3h0.7v-1.1h-0.7v-3h0.7v-1.1h-0.7v-1.2c0-0.3-0.3-0.6-0.6-0.6
	c-0.3,0-0.6,0.3-0.6,0.6V104h23.4c0.3,0,0.6-0.3,0.6-0.6C48,103.1,47.7,102.9,47.4,102.9z"/>
<path class="st3" d="M41.4,92.4l2.7-4.4l0.7,1.4l0.9-5l-4,3l1.6,0.1l-2.1,3.4l-3.5-3.2L34,93.2l-3.5-1.3l-2.9,4.2l0,0
	c-0.1,0.2-0.1,0.6,0.1,0.7c0.1,0.1,0.2,0.1,0.3,0.1c0.2,0,0.3-0.1,0.4-0.2l2.4-3.6l3.5,1.3l3.5-5.2L41.4,92.4z"/>
<g>
	
		<radialGradient id="SVGID_3_" cx="-249.4054" cy="595.865" r="1" gradientTransform="matrix(6.843633e-16 11.1765 11.7647 -7.203801e-16 -6974.4082 2935.8315)" gradientUnits="userSpaceOnUse">
		<stop  offset="0" style="stop-color:#00CAAA"/>
		<stop  offset="1" style="stop-color:#00CAAA;stop-opacity:0"/>
	</radialGradient>
	<path class="st4" d="M24,137.2h23.5v22.4H24V137.2z"/>
</g>
<path class="st5" d="M47.4,158.9h-1.2v-0.7h-1.1v0.7h-3v-0.7H41v0.7h-3v-0.7h-1.1v0.7h-3v-0.7h-1.1v0.7h-3v-0.7h-1.1v0.7h-3v-0.7
	h-0.7v-3h0.7v-1.1h-0.7v-3h0.7V150h-0.7v-3h0.7v-1.1h-0.7v-3h0.7v-1.1h-0.7v-3h0.7v-1.1h-0.7v-1.2c0-0.3-0.3-0.6-0.6-0.6
	c-0.3,0-0.6,0.3-0.6,0.6V160h23.4c0.3,0,0.6-0.3,0.6-0.6C48,159.1,47.7,158.9,47.4,158.9z"/>
<path class="st5" d="M41.4,148.4l2.7-4.4l0.7,1.4l0.9-5l-4,3l1.6,0.1l-2.1,3.4l-3.5-3.2l-3.7,5.6l-3.5-1.3l-2.9,4.2l0,0
	c-0.1,0.2-0.1,0.6,0.1,0.7c0.1,0.1,0.2,0.1,0.3,0.1c0.2,0,0.3-0.1,0.4-0.2l2.4-3.6l3.5,1.3l3.5-5.2L41.4,148.4z"/>
<path class="st6" d="M47.4,214.9h-1.2v-0.7h-1.1v0.7h-3v-0.7H41v0.7h-3v-0.7h-1.1v0.7h-3v-0.7h-1.1v0.7h-3v-0.7h-1.1v0.7h-3v-0.7
	h-0.7v-3h0.7v-1.1h-0.7v-3h0.7V206h-0.7v-3h0.7v-1.1h-0.7v-3h0.7v-1.1h-0.7v-3h0.7v-1.1h-0.7v-1.2c0-0.3-0.3-0.6-0.6-0.6
	c-0.3,0-0.6,0.3-0.6,0.6V216h23.4c0.3,0,0.6-0.3,0.6-0.6C48,215.1,47.7,214.9,47.4,214.9z"/>
<path class="st6" d="M41.4,204.4l2.7-4.4l0.7,1.4l0.9-5l-4,3l1.6,0.1l-2.1,3.4l-3.5-3.2l-3.7,5.6l-3.5-1.3l-2.9,4.2l0,0
	c-0.1,0.2-0.1,0.6,0.1,0.7c0.1,0.1,0.2,0.1,0.3,0.1c0.2,0,0.3-0.1,0.4-0.2l2.4-3.6l3.5,1.3l3.5-5.2L41.4,204.4z"/>
<g>
	
		<radialGradient id="SVGID_4_" cx="-249.4054" cy="595.865" r="1" gradientTransform="matrix(6.843633e-16 11.1765 11.7647 -7.203801e-16 -6974.4082 3047.8315)" gradientUnits="userSpaceOnUse">
		<stop  offset="0" style="stop-color:#434F58"/>
		<stop  offset="1" style="stop-color:#434F58;stop-opacity:0"/>
	</radialGradient>
	<path class="st7" d="M24,249.2h23.5v22.4H24V249.2z"/>
</g>
<path class="st6" d="M47.4,270.9h-1.2v-0.7h-1.1v0.7h-3v-0.7H41v0.7h-3v-0.7h-1.1v0.7h-3v-0.7h-1.1v0.7h-3v-0.7h-1.1v0.7h-3v-0.7
	h-0.7v-3h0.7v-1.1h-0.7v-3h0.7V262h-0.7v-3h0.7v-1.1h-0.7v-3h0.7v-1.1h-0.7v-3h0.7v-1.1h-0.7v-1.2c0-0.3-0.3-0.6-0.6-0.6
	c-0.3,0-0.6,0.3-0.6,0.6V272h23.4c0.3,0,0.6-0.3,0.6-0.6C48,271.1,47.7,270.9,47.4,270.9z"/>
<path class="st6" d="M41.4,260.4l2.7-4.4l0.7,1.4l0.9-5l-4,3l1.6,0.1l-2.1,3.4l-3.5-3.2l-3.7,5.6l-3.5-1.3l-2.9,4.2l0,0
	c-0.1,0.2-0.1,0.6,0.1,0.7c0.1,0.1,0.2,0.1,0.3,0.1c0.2,0,0.3-0.1,0.4-0.2l2.4-3.6l3.5,1.3l3.5-5.2L41.4,260.4z"/>
<radialGradient id="SVGID_5_" cx="-249.4054" cy="595.865" r="1" gradientTransform="matrix(6.843633e-16 11.1765 11.7647 -7.203801e-16 -6974.4082 3103.8315)" gradientUnits="userSpaceOnUse">
	<stop  offset="0" style="stop-color:#677983"/>
	<stop  offset="1" style="stop-color:#677983;stop-opacity:0"/>
</radialGradient>
<path class="st8" d="M24,305.2h23.5v22.4H24V305.2z"/>
<path class="st9" d="M47.4,326.9h-1.2v-0.7h-1.1v0.7h-3v-0.7H41v0.7h-3v-0.7h-1.1v0.7h-3v-0.7h-1.1v0.7h-3v-0.7h-1.1v0.7h-3v-0.7
	h-0.7v-3h0.7v-1.1h-0.7v-3h0.7V318h-0.7v-3h0.7v-1.1h-0.7v-3h0.7v-1.1h-0.7v-3h0.7v-1.1h-0.7v-1.2c0-0.3-0.3-0.6-0.6-0.6
	c-0.3,0-0.6,0.3-0.6,0.6V328h23.4c0.3,0,0.6-0.3,0.6-0.6C48,327.1,47.7,326.9,47.4,326.9z"/>
<path class="st9" d="M41.4,316.4l2.7-4.4l0.7,1.4l0.9-5l-4,3l1.6,0.1l-2.1,3.4l-3.5-3.2l-3.7,5.6l-3.5-1.3l-2.9,4.2l0,0
	c-0.1,0.2-0.1,0.6,0.1,0.7c0.1,0.1,0.2,0.1,0.3,0.1c0.2,0,0.3-0.1,0.4-0.2l2.4-3.6l3.5,1.3l3.5-5.2L41.4,316.4z"/>
</svg>
