<?xml version="1.0" encoding="utf-8"?>
<!-- Generator: Adobe Illustrator 25.2.1, SVG Export Plug-In . SVG Version: 6.00 Build 0)  -->
<svg version="1.1" id="Layer_1" xmlns="http://www.w3.org/2000/svg" xmlns:xlink="http://www.w3.org/1999/xlink" x="0px" y="0px"
	 viewBox="0 0 72 352" style="enable-background:new 0 0 72 352;" xml:space="preserve">
<style type="text/css">
	.st0{fill:url(#SVGID_1_);fill-opacity:0.25;}
	.st1{fill:url(#SVGID_2_);fill-opacity:0.25;}
	.st2{fill:#0073EC;}
	.st3{fill:url(#SVGID_3_);fill-opacity:0.25;}
	.st4{fill:url(#SVGID_4_);fill-opacity:0.25;}
	.st5{fill:#A644E5;}
	.st6{fill:url(#SVGID_5_);fill-opacity:0.25;}
	.st7{fill:url(#SVGID_6_);fill-opacity:0.25;}
	.st8{fill:#00CAAA;}
	.st9{fill:#434F58;}
	.st10{fill:url(#SVGID_7_);fill-opacity:0.25;}
	.st11{fill:url(#SVGID_8_);fill-opacity:0.25;}
	.st12{fill:url(#SVGID_9_);fill-opacity:0.25;}
	.st13{fill:url(#SVGID_10_);fill-opacity:0.25;}
	.st14{fill:#677983;}
</style>
<radialGradient id="SVGID_1_" cx="-247.3391" cy="594.4536" r="1" gradientTransform="matrix(6.190835e-16 10.1104 12.5387 -7.677740e-16 -7417.1362 2536.8081)" gradientUnits="userSpaceOnUse">
	<stop  offset="0" style="stop-color:#0073EC"/>
	<stop  offset="1" style="stop-color:#0073EC;stop-opacity:0"/>
</radialGradient>
<path class="st0" d="M32.6,35c2.5,0,4.5-2,4.5-4.5s-2-4.5-4.5-4.5s-4.5,2-4.5,4.5S30.1,35,32.6,35z"/>
<radialGradient id="SVGID_2_" cx="-247.3391" cy="594.4536" r="1" gradientTransform="matrix(6.190835e-16 10.1104 12.5387 -7.677740e-16 -7417.1362 2536.8081)" gradientUnits="userSpaceOnUse">
	<stop  offset="0" style="stop-color:#0073EC"/>
	<stop  offset="1" style="stop-color:#0073EC;stop-opacity:0"/>
</radialGradient>
<path class="st1" d="M37.1,38.5c-1.2,0.2-4,0.4-6,0c-2.5-0.5-6-0.5-6.5,1.5s-1,5.5,0,6c0.8,0.4,13,0.2,19,0c1.8,0.2,5.5-0.5,5.5-4.5
	c0-5-3-6.5-5.5-6.5c-2,0-3.8,2.3-4.5,3.5H37.1z"/>
<path class="st2" d="M32.5,36c3,0,5.4-2.5,5.4-5.5S35.4,25,32.5,25S27,27.5,27,30.5S29.5,36,32.5,36z M32.5,26.4c2.2,0,4,1.9,4,4.1
	s-1.8,4.1-4,4.1s-4.1-1.9-4.1-4.1S30.2,26.4,32.5,26.4z M43.9,34.6c-3.4,0-6.1,2.8-6.1,6.2s2.7,6.2,6.1,6.2s6.1-2.8,6.1-6.2
	S47.3,34.6,43.9,34.6z M43.9,45.6c-2.6,0-4.7-2.2-4.7-4.8s2.1-4.8,4.7-4.8s4.7,2.2,4.7,4.8S46.5,45.6,43.9,45.6z M38.2,45.6H25
	c-0.4,0-0.7-0.3-0.7-0.7v-1.8c0-2.4,1.9-4.4,4.3-4.4c0.8,0,1.6,0.7,3.8,0.7c2.1,0,3-0.7,3.8-0.7c0.2,0,0.4,0,0.5,0.1
	c0.1-0.5,0.3-0.9,0.5-1.3c-0.3-0.1-0.7-0.1-1-0.1c-1.2,0-1.8,0.7-3.8,0.7c-2,0-2.6-0.7-3.8-0.7c-3.1,0-5.7,2.6-5.7,5.8v1.8
	c0,1.1,0.9,2.1,2,2.1h14.6C39.1,46.6,38.6,46.1,38.2,45.6z M46.2,40.1h-1.6v-2.3c0-0.2-0.2-0.4-0.4-0.4h-0.5c-0.2,0-0.4,0.2-0.4,0.4
	v3.3c0,0.2,0.2,0.4,0.4,0.4h2.6c0.2,0,0.4-0.2,0.4-0.4v-0.5C46.6,40.3,46.4,40.1,46.2,40.1z"/>
<radialGradient id="SVGID_3_" cx="-247.3391" cy="594.4536" r="1" gradientTransform="matrix(6.190835e-16 10.1104 12.5387 -7.677740e-16 -7417.1362 2592.8081)" gradientUnits="userSpaceOnUse">
	<stop  offset="0" style="stop-color:#A644E5"/>
	<stop  offset="1" style="stop-color:#A644E5;stop-opacity:0"/>
</radialGradient>
<path class="st3" d="M32.6,91c2.5,0,4.5-2,4.5-4.5s-2-4.5-4.5-4.5s-4.5,2-4.5,4.5S30.1,91,32.6,91z"/>
<radialGradient id="SVGID_4_" cx="-247.3391" cy="594.4536" r="1" gradientTransform="matrix(6.190835e-16 10.1104 12.5387 -7.677740e-16 -7417.1362 2592.8081)" gradientUnits="userSpaceOnUse">
	<stop  offset="0" style="stop-color:#A644E5"/>
	<stop  offset="1" style="stop-color:#A644E5;stop-opacity:0"/>
</radialGradient>
<path class="st4" d="M37.1,94.5c-1.2,0.2-4,0.4-6,0c-2.5-0.5-6-0.5-6.5,1.5s-1,5.5,0,6c0.8,0.4,13,0.2,19,0c1.8,0.2,5.5-0.5,5.5-4.5
	c0-5-3-6.5-5.5-6.5c-2,0-3.8,2.3-4.5,3.5H37.1z"/>
<path class="st5" d="M32.5,92c3,0,5.4-2.5,5.4-5.5S35.4,81,32.5,81S27,83.5,27,86.5S29.5,92,32.5,92z M32.5,82.4c2.2,0,4,1.9,4,4.1
	s-1.8,4.1-4,4.1s-4.1-1.9-4.1-4.1S30.2,82.4,32.5,82.4z M43.9,90.6c-3.4,0-6.1,2.8-6.1,6.2c0,3.4,2.7,6.2,6.1,6.2s6.1-2.8,6.1-6.2
	C50,93.4,47.3,90.6,43.9,90.6z M43.9,101.6c-2.6,0-4.7-2.2-4.7-4.8s2.1-4.8,4.7-4.8s4.7,2.2,4.7,4.8S46.5,101.6,43.9,101.6z
	 M38.2,101.6H25c-0.4,0-0.7-0.3-0.7-0.7v-1.8c0-2.4,1.9-4.4,4.3-4.4c0.8,0,1.6,0.7,3.8,0.7c2.1,0,3-0.7,3.8-0.7c0.2,0,0.4,0,0.5,0.1
	c0.1-0.5,0.3-0.9,0.5-1.3c-0.3-0.1-0.7-0.1-1-0.1c-1.2,0-1.8,0.7-3.8,0.7c-2,0-2.6-0.7-3.8-0.7c-3.1,0-5.7,2.6-5.7,5.8v1.8
	c0,1.1,0.9,2.1,2,2.1h14.6C39.1,102.6,38.6,102.1,38.2,101.6z M46.2,96.1h-1.6v-2.3c0-0.2-0.2-0.4-0.4-0.4h-0.5
	c-0.2,0-0.4,0.2-0.4,0.4v3.3c0,0.2,0.2,0.4,0.4,0.4h2.6c0.2,0,0.4-0.2,0.4-0.4v-0.5C46.6,96.3,46.4,96.1,46.2,96.1z"/>
<radialGradient id="SVGID_5_" cx="-247.3391" cy="594.4536" r="1" gradientTransform="matrix(6.190835e-16 10.1104 12.5387 -7.677740e-16 -7417.1362 2648.8076)" gradientUnits="userSpaceOnUse">
	<stop  offset="0" style="stop-color:#00CAAA"/>
	<stop  offset="1" style="stop-color:#00CAAA;stop-opacity:0"/>
</radialGradient>
<path class="st6" d="M32.6,147c2.5,0,4.5-2,4.5-4.5s-2-4.5-4.5-4.5s-4.5,2-4.5,4.5S30.1,147,32.6,147z"/>
<radialGradient id="SVGID_6_" cx="-247.3391" cy="594.4536" r="1" gradientTransform="matrix(6.190835e-16 10.1104 12.5387 -7.677740e-16 -7417.1362 2648.8076)" gradientUnits="userSpaceOnUse">
	<stop  offset="0" style="stop-color:#00CAAA"/>
	<stop  offset="1" style="stop-color:#00CAAA;stop-opacity:0"/>
</radialGradient>
<path class="st7" d="M37.1,150.5c-1.2,0.2-4,0.4-6,0c-2.5-0.5-6-0.5-6.5,1.5s-1,5.5,0,6c0.8,0.4,13,0.2,19,0
	c1.8,0.2,5.5-0.5,5.5-4.5c0-5-3-6.5-5.5-6.5c-2,0-3.8,2.3-4.5,3.5H37.1z"/>
<path class="st8" d="M32.5,148c3,0,5.4-2.5,5.4-5.5s-2.4-5.5-5.4-5.5s-5.4,2.5-5.4,5.5S29.5,148,32.5,148z M32.5,138.4
	c2.2,0,4,1.9,4,4.1s-1.8,4.1-4,4.1s-4.1-1.9-4.1-4.1S30.2,138.4,32.5,138.4z M43.9,146.6c-3.4,0-6.1,2.8-6.1,6.2
	c0,3.4,2.7,6.2,6.1,6.2s6.1-2.8,6.1-6.2C50,149.4,47.3,146.6,43.9,146.6z M43.9,157.6c-2.6,0-4.7-2.2-4.7-4.8c0-2.7,2.1-4.8,4.7-4.8
	s4.7,2.2,4.7,4.8C48.7,155.5,46.5,157.6,43.9,157.6z M38.2,157.6H25c-0.4,0-0.7-0.3-0.7-0.7v-1.8c0-2.4,1.9-4.4,4.3-4.4
	c0.8,0,1.6,0.7,3.8,0.7c2.1,0,3-0.7,3.8-0.7c0.2,0,0.4,0,0.5,0.1c0.1-0.5,0.3-0.9,0.5-1.3c-0.3-0.1-0.7-0.1-1-0.1
	c-1.2,0-1.8,0.7-3.8,0.7c-2,0-2.6-0.7-3.8-0.7c-3.1,0-5.7,2.6-5.7,5.8v1.8c0,1.1,0.9,2.1,2,2.1h14.6
	C39.1,158.6,38.6,158.1,38.2,157.6z M46.2,152.1h-1.6v-2.3c0-0.2-0.2-0.4-0.4-0.4h-0.5c-0.2,0-0.4,0.2-0.4,0.4v3.3
	c0,0.2,0.2,0.4,0.4,0.4h2.6c0.2,0,0.4-0.2,0.4-0.4v-0.5C46.6,152.3,46.4,152.1,46.2,152.1z"/>
<path class="st9" d="M32.5,204c3,0,5.4-2.5,5.4-5.5s-2.4-5.5-5.4-5.5s-5.4,2.5-5.4,5.5S29.5,204,32.5,204z M32.5,194.4
	c2.2,0,4,1.9,4,4.1s-1.8,4.1-4,4.1s-4.1-1.9-4.1-4.1S30.2,194.4,32.5,194.4z M43.9,202.6c-3.4,0-6.1,2.8-6.1,6.2
	c0,3.4,2.7,6.2,6.1,6.2s6.1-2.8,6.1-6.2C50,205.4,47.3,202.6,43.9,202.6z M43.9,213.6c-2.6,0-4.7-2.2-4.7-4.8c0-2.7,2.1-4.8,4.7-4.8
	s4.7,2.2,4.7,4.8C48.7,211.5,46.5,213.6,43.9,213.6z M38.2,213.6H25c-0.4,0-0.7-0.3-0.7-0.7v-1.8c0-2.4,1.9-4.4,4.3-4.4
	c0.8,0,1.6,0.7,3.8,0.7c2.1,0,3-0.7,3.8-0.7c0.2,0,0.4,0,0.5,0.1c0.1-0.5,0.3-0.9,0.5-1.3c-0.3-0.1-0.7-0.1-1-0.1
	c-1.2,0-1.8,0.7-3.8,0.7c-2,0-2.6-0.7-3.8-0.7c-3.1,0-5.7,2.6-5.7,5.8v1.8c0,1.1,0.9,2.1,2,2.1h14.6
	C39.1,214.6,38.6,214.1,38.2,213.6z M46.2,208.1h-1.6v-2.3c0-0.2-0.2-0.4-0.4-0.4h-0.5c-0.2,0-0.4,0.2-0.4,0.4v3.3
	c0,0.2,0.2,0.4,0.4,0.4h2.6c0.2,0,0.4-0.2,0.4-0.4v-0.5C46.6,208.3,46.4,208.1,46.2,208.1z"/>
<radialGradient id="SVGID_7_" cx="-247.3391" cy="594.4536" r="1" gradientTransform="matrix(6.190835e-16 10.1104 12.5387 -7.677740e-16 -7417.1362 2760.8076)" gradientUnits="userSpaceOnUse">
	<stop  offset="0" style="stop-color:#434F58"/>
	<stop  offset="1" style="stop-color:#434F58;stop-opacity:0"/>
</radialGradient>
<path class="st10" d="M32.6,259c2.5,0,4.5-2,4.5-4.5c0-2.5-2-4.5-4.5-4.5s-4.5,2-4.5,4.5C28.1,257,30.1,259,32.6,259z"/>
<radialGradient id="SVGID_8_" cx="-247.3391" cy="594.4536" r="1" gradientTransform="matrix(6.190835e-16 10.1104 12.5387 -7.677740e-16 -7417.1362 2760.8076)" gradientUnits="userSpaceOnUse">
	<stop  offset="0" style="stop-color:#434F58"/>
	<stop  offset="1" style="stop-color:#434F58;stop-opacity:0"/>
</radialGradient>
<path class="st11" d="M37.1,262.5c-1.2,0.2-4,0.4-6,0c-2.5-0.5-6-0.5-6.5,1.5s-1,5.5,0,6c0.8,0.4,13,0.2,19,0
	c1.8,0.2,5.5-0.5,5.5-4.5c0-5-3-6.5-5.5-6.5c-2,0-3.8,2.3-4.5,3.5H37.1z"/>
<path class="st9" d="M32.5,260c3,0,5.4-2.5,5.4-5.5s-2.4-5.5-5.4-5.5s-5.4,2.5-5.4,5.5S29.5,260,32.5,260z M32.5,250.4
	c2.2,0,4,1.9,4,4.1c0,2.3-1.8,4.1-4,4.1s-4.1-1.9-4.1-4.1C28.4,252.2,30.2,250.4,32.5,250.4z M43.9,258.6c-3.4,0-6.1,2.8-6.1,6.2
	c0,3.4,2.7,6.2,6.1,6.2s6.1-2.8,6.1-6.2C50,261.4,47.3,258.6,43.9,258.6z M43.9,269.6c-2.6,0-4.7-2.2-4.7-4.8c0-2.7,2.1-4.8,4.7-4.8
	s4.7,2.2,4.7,4.8C48.7,267.5,46.5,269.6,43.9,269.6z M38.2,269.6H25c-0.4,0-0.7-0.3-0.7-0.7v-1.8c0-2.4,1.9-4.4,4.3-4.4
	c0.8,0,1.6,0.7,3.8,0.7c2.1,0,3-0.7,3.8-0.7c0.2,0,0.4,0,0.5,0.1c0.1-0.5,0.3-0.9,0.5-1.3c-0.3-0.1-0.7-0.1-1-0.1
	c-1.2,0-1.8,0.7-3.8,0.7c-2,0-2.6-0.7-3.8-0.7c-3.1,0-5.7,2.6-5.7,5.8v1.8c0,1.1,0.9,2.1,2,2.1h14.6
	C39.1,270.6,38.6,270.1,38.2,269.6z M46.2,264.1h-1.6v-2.3c0-0.2-0.2-0.4-0.4-0.4h-0.5c-0.2,0-0.4,0.2-0.4,0.4v3.3
	c0,0.2,0.2,0.4,0.4,0.4h2.6c0.2,0,0.4-0.2,0.4-0.4v-0.5C46.6,264.3,46.4,264.1,46.2,264.1z"/>
<radialGradient id="SVGID_9_" cx="-247.3391" cy="594.4536" r="1" gradientTransform="matrix(6.190835e-16 10.1104 12.5387 -7.677740e-16 -7417.1362 2816.8076)" gradientUnits="userSpaceOnUse">
	<stop  offset="0" style="stop-color:#677983"/>
	<stop  offset="1" style="stop-color:#677983;stop-opacity:0"/>
</radialGradient>
<path class="st12" d="M32.6,315c2.5,0,4.5-2,4.5-4.5s-2-4.5-4.5-4.5s-4.5,2-4.5,4.5S30.1,315,32.6,315z"/>
<radialGradient id="SVGID_10_" cx="-247.3391" cy="594.4536" r="1" gradientTransform="matrix(6.190835e-16 10.1104 12.5387 -7.677740e-16 -7417.1362 2816.8076)" gradientUnits="userSpaceOnUse">
	<stop  offset="0" style="stop-color:#677983"/>
	<stop  offset="1" style="stop-color:#677983;stop-opacity:0"/>
</radialGradient>
<path class="st13" d="M37.1,318.5c-1.2,0.2-4,0.4-6,0c-2.5-0.5-6-0.5-6.5,1.5s-1,5.5,0,6c0.8,0.4,13,0.2,19,0
	c1.8,0.2,5.5-0.5,5.5-4.5c0-5-3-6.5-5.5-6.5c-2,0-3.8,2.3-4.5,3.5H37.1z"/>
<path class="st14" d="M32.5,316c3,0,5.4-2.5,5.4-5.5s-2.4-5.5-5.4-5.5s-5.4,2.5-5.4,5.5S29.5,316,32.5,316z M32.5,306.4
	c2.2,0,4,1.9,4,4.1s-1.8,4.1-4,4.1s-4.1-1.9-4.1-4.1S30.2,306.4,32.5,306.4z M43.9,314.6c-3.4,0-6.1,2.8-6.1,6.2
	c0,3.4,2.7,6.2,6.1,6.2s6.1-2.8,6.1-6.2C50,317.4,47.3,314.6,43.9,314.6z M43.9,325.6c-2.6,0-4.7-2.2-4.7-4.8c0-2.7,2.1-4.8,4.7-4.8
	s4.7,2.2,4.7,4.8C48.7,323.5,46.5,325.6,43.9,325.6z M38.2,325.6H25c-0.4,0-0.7-0.3-0.7-0.7v-1.8c0-2.4,1.9-4.4,4.3-4.4
	c0.8,0,1.6,0.7,3.8,0.7c2.1,0,3-0.7,3.8-0.7c0.2,0,0.4,0,0.5,0.1c0.1-0.5,0.3-0.9,0.5-1.3c-0.3-0.1-0.7-0.1-1-0.1
	c-1.2,0-1.8,0.7-3.8,0.7c-2,0-2.6-0.7-3.8-0.7c-3.1,0-5.7,2.6-5.7,5.8v1.8c0,1.1,0.9,2.1,2,2.1h14.6
	C39.1,326.6,38.6,326.1,38.2,325.6z M46.2,320.1h-1.6v-2.3c0-0.2-0.2-0.4-0.4-0.4h-0.5c-0.2,0-0.4,0.2-0.4,0.4v3.3
	c0,0.2,0.2,0.4,0.4,0.4h2.6c0.2,0,0.4-0.2,0.4-0.4v-0.5C46.6,320.3,46.4,320.1,46.2,320.1z"/>
</svg>
