<?xml version="1.0" encoding="utf-8"?>
<!-- Generator: Adobe Illustrator 25.2.1, SVG Export Plug-In . SVG Version: 6.00 Build 0)  -->
<svg version="1.1" id="Layer_1" xmlns="http://www.w3.org/2000/svg" xmlns:xlink="http://www.w3.org/1999/xlink" x="0px" y="0px"
	 viewBox="0 0 72 352" style="enable-background:new 0 0 72 352;" xml:space="preserve">
<style type="text/css">
	.st0{fill:url(#SVGID_1_);fill-opacity:0.25;}
	.st1{fill-rule:evenodd;clip-rule:evenodd;fill:#0073EC;}
	.st2{fill:url(#SVGID_2_);fill-opacity:0.25;}
	.st3{fill-rule:evenodd;clip-rule:evenodd;fill:#A644E5;}
	.st4{fill:url(#SVGID_3_);fill-opacity:0.25;}
	.st5{fill-rule:evenodd;clip-rule:evenodd;fill:#00CAAA;}
	.st6{fill-rule:evenodd;clip-rule:evenodd;fill:#434F58;}
	.st7{fill:url(#SVGID_4_);fill-opacity:0.25;}
	.st8{fill:url(#SVGID_5_);fill-opacity:0.25;}
	.st9{fill-rule:evenodd;clip-rule:evenodd;fill:#677983;}
</style>
<radialGradient id="SVGID_1_" cx="-248.8123" cy="595.1186" r="1" gradientTransform="matrix(6.642607e-16 10.8482 12.1617 -7.446894e-16 -7201.4927 2737.3176)" gradientUnits="userSpaceOnUse">
	<stop  offset="0" style="stop-color:#0073EC"/>
	<stop  offset="1" style="stop-color:#0073EC;stop-opacity:0"/>
</radialGradient>
<path class="st0" d="M24,27.3h24.3V49H24V27.3z"/>
<path class="st1" d="M23.5,32.5h25v16.6h-25V32.5z M24.5,33.5v14.6h23V33.5H24.5z"/>
<path class="st1" d="M27.6,22.5H31v5.4h-3.4V22.5z M28.6,23.5v3.4H30v-3.4H28.6z"/>
<path class="st1" d="M41.2,22.5h3.4v5.4h-3.4V22.5z M42.2,23.5v3.4h1.4v-3.4H42.2z"/>
<path class="st1" d="M24,33.5c0.3,0,0.5-0.2,0.5-0.5v-5.1h23v4.9c0,0.3,0.2,0.5,0.5,0.5s0.5-0.2,0.5-0.5v-5.9h-25V33
	C23.5,33.3,23.7,33.5,24,33.5z"/>
<path class="st1" d="M26.4,34.1h5.8v5.8h-5.8V34.1z M27.4,35.1v3.8h3.8v-3.8H27.4z M33.2,34.1H39v5.8h-5.8V34.1z M34.2,35.1v3.8H38
	v-3.8H34.2z M40,34.1h5.8v5.8H40V34.1z M41,35.1v3.8h3.8v-3.8H41z M26.4,40.5h5.8v5.8h-5.8V40.5z M27.4,41.5v3.8h3.8v-3.8H27.4z
	 M33.2,40.5H39v5.8h-5.8V40.5z M34.2,41.5v3.8H38v-3.8H34.2z M40,40.5h5.8v5.8H40V40.5z M41,41.5v3.8h3.8v-3.8H41z"/>
<radialGradient id="SVGID_2_" cx="-248.8123" cy="595.1186" r="1" gradientTransform="matrix(6.642607e-16 10.8482 12.1617 -7.446894e-16 -7201.4927 2793.3176)" gradientUnits="userSpaceOnUse">
	<stop  offset="0" style="stop-color:#A644E5"/>
	<stop  offset="1" style="stop-color:#A644E5;stop-opacity:0"/>
</radialGradient>
<path class="st2" d="M24,83.3h24.3V105H24V83.3z"/>
<path class="st3" d="M23.5,88.5h25v16.6h-25V88.5z M24.5,89.5v14.6h23V89.5H24.5z"/>
<path class="st3" d="M27.6,78.5H31v5.4h-3.4V78.5z M28.6,79.5v3.4H30v-3.4H28.6z"/>
<path class="st3" d="M41.2,78.5h3.4v5.4h-3.4V78.5z M42.2,79.5v3.4h1.4v-3.4H42.2z"/>
<path class="st3" d="M24,89.5c0.3,0,0.5-0.2,0.5-0.5v-5.1h23v4.9c0,0.3,0.2,0.5,0.5,0.5s0.5-0.2,0.5-0.5v-5.9h-25V89
	C23.5,89.3,23.7,89.5,24,89.5z"/>
<path class="st3" d="M26.4,90.1h5.8v5.8h-5.8V90.1z M27.4,91.1v3.8h3.8v-3.8H27.4z M33.2,90.1H39v5.8h-5.8V90.1z M34.2,91.1v3.8H38
	v-3.8H34.2z M40,90.1h5.8v5.8H40V90.1z M41,91.1v3.8h3.8v-3.8H41z M26.4,96.5h5.8v5.8h-5.8V96.5z M27.4,97.5v3.8h3.8v-3.8H27.4z
	 M33.2,96.5H39v5.8h-5.8V96.5z M34.2,97.5v3.8H38v-3.8H34.2z M40,96.5h5.8v5.8H40V96.5z M41,97.5v3.8h3.8v-3.8H41z"/>
<radialGradient id="SVGID_3_" cx="-248.8123" cy="595.1186" r="1" gradientTransform="matrix(6.642607e-16 10.8482 12.1617 -7.446894e-16 -7201.4927 2849.3179)" gradientUnits="userSpaceOnUse">
	<stop  offset="0" style="stop-color:#00CAAA"/>
	<stop  offset="1" style="stop-color:#00CAAA;stop-opacity:0"/>
</radialGradient>
<path class="st4" d="M24,139.3h24.3V161H24V139.3z"/>
<path class="st5" d="M23.5,144.5h25v16.6h-25V144.5z M24.5,145.5v14.6h23v-14.6H24.5z"/>
<path class="st5" d="M27.6,134.5H31v5.4h-3.4V134.5z M28.6,135.5v3.4H30v-3.4H28.6z"/>
<path class="st5" d="M41.2,134.5h3.4v5.4h-3.4V134.5z M42.2,135.5v3.4h1.4v-3.4H42.2z"/>
<path class="st5" d="M24,145.5c0.3,0,0.5-0.2,0.5-0.5v-5.1h23v4.9c0,0.3,0.2,0.5,0.5,0.5s0.5-0.2,0.5-0.5v-5.9h-25v6.1
	C23.5,145.3,23.7,145.5,24,145.5z"/>
<path class="st5" d="M26.4,146.1h5.8v5.8h-5.8V146.1z M27.4,147.1v3.8h3.8v-3.8H27.4z M33.2,146.1H39v5.8h-5.8V146.1z M34.2,147.1
	v3.8H38v-3.8H34.2z M40,146.1h5.8v5.8H40V146.1z M41,147.1v3.8h3.8v-3.8H41z M26.4,152.5h5.8v5.8h-5.8V152.5z M27.4,153.5v3.8h3.8
	v-3.8H27.4z M33.2,152.5H39v5.8h-5.8V152.5z M34.2,153.5v3.8H38v-3.8H34.2z M40,152.5h5.8v5.8H40V152.5z M41,153.5v3.8h3.8v-3.8H41z
	"/>
<path class="st6" d="M23.5,200.5h25v16.6h-25V200.5z M24.5,201.5v14.6h23v-14.6H24.5z"/>
<path class="st6" d="M27.6,190.5H31v5.4h-3.4V190.5z M28.6,191.5v3.4H30v-3.4H28.6z"/>
<path class="st6" d="M41.2,190.5h3.4v5.4h-3.4V190.5z M42.2,191.5v3.4h1.4v-3.4H42.2z"/>
<path class="st6" d="M24,201.5c0.3,0,0.5-0.2,0.5-0.5v-5.1h23v4.9c0,0.3,0.2,0.5,0.5,0.5s0.5-0.2,0.5-0.5v-5.9h-25v6.1
	C23.5,201.3,23.7,201.5,24,201.5z"/>
<path class="st6" d="M26.4,202.1h5.8v5.8h-5.8V202.1z M27.4,203.1v3.8h3.8v-3.8H27.4z M33.2,202.1H39v5.8h-5.8V202.1z M34.2,203.1
	v3.8H38v-3.8H34.2z M40,202.1h5.8v5.8H40V202.1z M41,203.1v3.8h3.8v-3.8H41z M26.4,208.5h5.8v5.8h-5.8V208.5z M27.4,209.5v3.8h3.8
	v-3.8H27.4z M33.2,208.5H39v5.8h-5.8V208.5z M34.2,209.5v3.8H38v-3.8H34.2z M40,208.5h5.8v5.8H40V208.5z M41,209.5v3.8h3.8v-3.8H41z
	"/>
<radialGradient id="SVGID_4_" cx="-248.8123" cy="595.1186" r="1" gradientTransform="matrix(6.642607e-16 10.8482 12.1617 -7.446894e-16 -7201.4927 2961.3179)" gradientUnits="userSpaceOnUse">
	<stop  offset="0" style="stop-color:#434F58"/>
	<stop  offset="1" style="stop-color:#434F58;stop-opacity:0"/>
</radialGradient>
<path class="st7" d="M24,251.3h24.3V273H24V251.3z"/>
<path class="st6" d="M23.5,256.5h25v16.6h-25V256.5z M24.5,257.5v14.6h23v-14.6H24.5z"/>
<path class="st6" d="M27.6,246.5H31v5.4h-3.4V246.5z M28.6,247.5v3.4H30v-3.4H28.6z"/>
<path class="st6" d="M41.2,246.5h3.4v5.4h-3.4V246.5z M42.2,247.5v3.4h1.4v-3.4H42.2z"/>
<path class="st6" d="M24,257.5c0.3,0,0.5-0.2,0.5-0.5v-5.1h23v4.9c0,0.3,0.2,0.5,0.5,0.5s0.5-0.2,0.5-0.5v-5.9h-25v6.1
	C23.5,257.3,23.7,257.5,24,257.5z"/>
<path class="st6" d="M26.4,258.1h5.8v5.8h-5.8V258.1z M27.4,259.1v3.8h3.8v-3.8H27.4z M33.2,258.1H39v5.8h-5.8V258.1z M34.2,259.1
	v3.8H38v-3.8H34.2z M40,258.1h5.8v5.8H40V258.1z M41,259.1v3.8h3.8v-3.8H41z M26.4,264.5h5.8v5.8h-5.8V264.5z M27.4,265.5v3.8h3.8
	v-3.8H27.4z M33.2,264.5H39v5.8h-5.8V264.5z M34.2,265.5v3.8H38v-3.8H34.2z M40,264.5h5.8v5.8H40V264.5z M41,265.5v3.8h3.8v-3.8H41z
	"/>
<radialGradient id="SVGID_5_" cx="-248.8123" cy="595.1186" r="1" gradientTransform="matrix(6.642607e-16 10.8482 12.1617 -7.446894e-16 -7201.4927 3017.3179)" gradientUnits="userSpaceOnUse">
	<stop  offset="0" style="stop-color:#677983"/>
	<stop  offset="1" style="stop-color:#677983;stop-opacity:0"/>
</radialGradient>
<path class="st8" d="M24,307.3h24.3V329H24V307.3z"/>
<path class="st9" d="M23.5,312.5h25v16.6h-25V312.5z M24.5,313.5v14.6h23v-14.6H24.5z"/>
<path class="st9" d="M27.6,302.5H31v5.4h-3.4V302.5z M28.6,303.5v3.4H30v-3.4H28.6z"/>
<path class="st9" d="M41.2,302.5h3.4v5.4h-3.4V302.5z M42.2,303.5v3.4h1.4v-3.4H42.2z"/>
<path class="st9" d="M24,313.5c0.3,0,0.5-0.2,0.5-0.5v-5.1h23v4.9c0,0.3,0.2,0.5,0.5,0.5s0.5-0.2,0.5-0.5v-5.9h-25v6.1
	C23.5,313.3,23.7,313.5,24,313.5z"/>
<path class="st9" d="M26.4,314.1h5.8v5.8h-5.8V314.1z M27.4,315.1v3.8h3.8v-3.8H27.4z M33.2,314.1H39v5.8h-5.8V314.1z M34.2,315.1
	v3.8H38v-3.8H34.2z M40,314.1h5.8v5.8H40V314.1z M41,315.1v3.8h3.8v-3.8H41z M26.4,320.5h5.8v5.8h-5.8V320.5z M27.4,321.5v3.8h3.8
	v-3.8H27.4z M33.2,320.5H39v5.8h-5.8V320.5z M34.2,321.5v3.8H38v-3.8H34.2z M40,320.5h5.8v5.8H40V320.5z M41,321.5v3.8h3.8v-3.8H41z
	"/>
</svg>
