<?xml version="1.0" encoding="utf-8"?>
<!-- Generator: Adobe Illustrator 25.2.1, SVG Export Plug-In . SVG Version: 6.00 Build 0)  -->
<svg version="1.1" id="Layer_1" xmlns="http://www.w3.org/2000/svg" xmlns:xlink="http://www.w3.org/1999/xlink" x="0px" y="0px"
	 viewBox="0 0 72 352" style="enable-background:new 0 0 72 352;" xml:space="preserve">
<style type="text/css">
	.st0{fill:url(#SVGID_1_);fill-opacity:0.25;}
	.st1{fill:#0073EC;}
	.st2{fill-rule:evenodd;clip-rule:evenodd;fill:#0073EC;}
	.st3{fill:url(#SVGID_2_);fill-opacity:0.25;}
	.st4{fill:#A644E5;}
	.st5{fill-rule:evenodd;clip-rule:evenodd;fill:#A644E5;}
	.st6{fill:url(#SVGID_3_);fill-opacity:0.25;}
	.st7{fill:#00CAAA;}
	.st8{fill-rule:evenodd;clip-rule:evenodd;fill:#00CAAA;}
	.st9{fill:#434F58;}
	.st10{fill-rule:evenodd;clip-rule:evenodd;fill:#434F58;}
	.st11{fill:url(#SVGID_4_);fill-opacity:0.25;}
	.st12{fill:url(#SVGID_5_);fill-opacity:0.25;}
	.st13{fill:#677983;}
	.st14{fill-rule:evenodd;clip-rule:evenodd;fill:#677983;}
</style>
<radialGradient id="SVGID_1_" cx="-251.1225" cy="592.2143" r="1" gradientTransform="matrix(7.500962e-16 12.25 14 -8.572528e-16 -8255 3112.25)" gradientUnits="userSpaceOnUse">
	<stop  offset="0" style="stop-color:#0073EC"/>
	<stop  offset="1" style="stop-color:#0073EC;stop-opacity:0"/>
</radialGradient>
<rect x="22" y="23.8" class="st0" width="28" height="24.5"/>
<path class="st1" d="M29.3,32.7h3.4c0.2,0,0.4-0.2,0.4-0.4c0-0.2-0.2-0.4-0.4-0.4h-3.4c-0.2,0-0.4,0.2-0.4,0.4
	C28.9,32.6,29.1,32.7,29.3,32.7z"/>
<path class="st1" d="M31.3,34.2h-1.9c-0.2,0-0.4-0.2-0.4-0.4c0-0.2,0.2-0.4,0.4-0.4h1.9c0.2,0,0.4,0.2,0.4,0.4
	C31.7,34,31.5,34.2,31.3,34.2z"/>
<path class="st1" d="M32.8,34.2h0.5c0.2,0,0.4-0.2,0.4-0.4c0-0.2-0.2-0.4-0.4-0.4h-0.5c-0.2,0-0.4,0.2-0.4,0.4
	C32.4,34,32.6,34.2,32.8,34.2z"/>
<path class="st1" d="M42.7,34.2h-1.3c-0.2,0-0.4-0.2-0.4-0.4c0-0.2,0.2-0.4,0.4-0.4h1.3c0.2,0,0.4,0.2,0.4,0.4
	C43.1,34,42.9,34.2,42.7,34.2z"/>
<path class="st1" d="M34.8,34.2h1.1c0.2,0,0.4-0.2,0.4-0.4c0-0.2-0.2-0.4-0.4-0.4h-1.1c-0.2,0-0.4,0.2-0.4,0.4
	C34.4,34,34.6,34.2,34.8,34.2z"/>
<path class="st1" d="M39.9,34.2h-2.4c-0.2,0-0.4-0.2-0.4-0.4c0-0.2,0.2-0.4,0.4-0.4h2.4c0.2,0,0.4,0.2,0.4,0.4
	C40.3,34,40.1,34.2,39.9,34.2z"/>
<path class="st1" d="M29.3,36.5h3.4c0.2,0,0.4-0.2,0.4-0.4c0-0.2-0.2-0.4-0.4-0.4h-3.4c-0.2,0-0.4,0.2-0.4,0.4
	C28.9,36.3,29.1,36.5,29.3,36.5z"/>
<path class="st1" d="M40.1,37.1h1.9c0.2,0,0.4,0.2,0.4,0.4c0,0.2-0.2,0.4-0.4,0.4h-1.9c-0.2,0-0.4-0.2-0.4-0.4
	C39.7,37.3,39.9,37.1,40.1,37.1z"/>
<path class="st1" d="M38.8,37.1h-0.5c-0.2,0-0.4,0.2-0.4,0.4c0,0.2,0.2,0.4,0.4,0.4h0.5c0.2,0,0.4-0.2,0.4-0.4
	C39.2,37.3,39,37.1,38.8,37.1z"/>
<path class="st1" d="M29.3,37.1h1.3c0.2,0,0.4,0.2,0.4,0.4c0,0.2-0.2,0.4-0.4,0.4h-1.3c-0.2,0-0.4-0.2-0.4-0.4
	C28.9,37.3,29.1,37.1,29.3,37.1z"/>
<path class="st1" d="M36.9,37.1h-1.1c-0.2,0-0.4,0.2-0.4,0.4c0,0.2,0.2,0.4,0.4,0.4h1.1c0.2,0,0.4-0.2,0.4-0.4
	C37.3,37.3,37.1,37.1,36.9,37.1z"/>
<path class="st1" d="M32,37.1h2.4c0.2,0,0.4,0.2,0.4,0.4c0,0.2-0.2,0.4-0.4,0.4H32c-0.2,0-0.4-0.2-0.4-0.4
	C31.6,37.3,31.8,37.1,32,37.1z"/>
<path class="st1" d="M29.3,40.2h3.4c0.2,0,0.4-0.2,0.4-0.4c0-0.2-0.2-0.4-0.4-0.4h-3.4c-0.2,0-0.4,0.2-0.4,0.4
	C28.9,40,29.1,40.2,29.3,40.2z"/>
<path class="st1" d="M31.3,41.6h-1.9c-0.2,0-0.4-0.2-0.4-0.4c0-0.2,0.2-0.4,0.4-0.4h1.9c0.2,0,0.4,0.2,0.4,0.4
	C31.7,41.5,31.5,41.6,31.3,41.6z"/>
<path class="st1" d="M32.5,41.6H33c0.2,0,0.4-0.2,0.4-0.4c0-0.2-0.2-0.4-0.4-0.4h-0.5c-0.2,0-0.4,0.2-0.4,0.4
	C32.1,41.5,32.3,41.6,32.5,41.6z"/>
<path class="st1" d="M42.5,41.6h-1.3c-0.2,0-0.4-0.2-0.4-0.4c0-0.2,0.2-0.4,0.4-0.4h1.3c0.2,0,0.4,0.2,0.4,0.4
	C42.9,41.5,42.7,41.6,42.5,41.6z"/>
<path class="st1" d="M34.2,41.6h1.1c0.2,0,0.4-0.2,0.4-0.4c0-0.2-0.2-0.4-0.4-0.4h-1.1c-0.2,0-0.4,0.2-0.4,0.4
	C33.8,41.5,34,41.6,34.2,41.6z"/>
<path class="st1" d="M39.7,41.6h-3.2c-0.2,0-0.4-0.2-0.4-0.4c0-0.2,0.2-0.4,0.4-0.4h3.2c0.2,0,0.4,0.2,0.4,0.4
	C40.1,41.5,40,41.6,39.7,41.6z"/>
<path class="st1" d="M29.3,44h3.4c0.2,0,0.4-0.2,0.4-0.4c0-0.2-0.2-0.4-0.4-0.4h-3.4c-0.2,0-0.4,0.2-0.4,0.4
	C28.9,43.8,29.1,44,29.3,44z"/>
<path class="st1" d="M40.4,44.6h1.9c0.2,0,0.4,0.2,0.4,0.4s-0.2,0.4-0.4,0.4h-1.9c-0.2,0-0.4-0.2-0.4-0.4S40.2,44.6,40.4,44.6z"/>
<path class="st1" d="M38.9,44.6h-0.9c-0.2,0-0.4,0.2-0.4,0.4s0.2,0.4,0.4,0.4h0.9c0.2,0,0.4-0.2,0.4-0.4S39.2,44.6,38.9,44.6z"/>
<path class="st1" d="M29.3,44.6h1.3c0.2,0,0.4,0.2,0.4,0.4s-0.2,0.4-0.4,0.4h-1.3c-0.2,0-0.4-0.2-0.4-0.4S29.1,44.6,29.3,44.6z"/>
<path class="st1" d="M36.9,44.6h-1.1c-0.2,0-0.4,0.2-0.4,0.4s0.2,0.4,0.4,0.4h1.1c0.2,0,0.4-0.2,0.4-0.4S37.1,44.6,36.9,44.6z"/>
<path class="st1" d="M31.9,44.6h2.7c0.2,0,0.4,0.2,0.4,0.4s-0.2,0.4-0.4,0.4h-2.7c-0.2,0-0.4-0.2-0.4-0.4S31.6,44.6,31.9,44.6z"/>
<path class="st1" d="M26.9,26.7h-2.7c-0.2,0-0.4-0.2-0.4-0.4c0-0.2,0.2-0.4,0.4-0.4h2.7c0.2,0,0.4,0.2,0.4,0.4
	C27.3,26.5,27.1,26.7,26.9,26.7z"/>
<path class="st1" d="M47.5,26.6C47.5,26.6,47.5,26.6,47.5,26.6C47.5,26.6,47.5,26.6,47.5,26.6c0.1,0,0.1,0,0.2,0l0,0c0,0,0,0,0.1,0
	c0,0,0,0,0.1,0l0,0c0,0,0,0,0.1-0.1c0,0,0,0,0,0c0,0,0,0,0,0l0-0.1c0,0,0,0,0-0.1l0,0c0,0,0,0,0,0c0,0,0,0,0,0c0,0,0,0,0,0
	c0,0,0-0.1,0-0.1c0,0,0-0.1,0-0.1c0,0,0,0,0,0c0,0,0,0,0,0c0,0,0,0-0.1-0.1c0,0,0,0-0.1-0.1l-0.1,0c0,0,0,0,0,0c0,0,0,0,0,0
	c-0.1,0-0.1,0-0.2,0l0,0c0,0,0,0-0.1,0c0,0,0,0-0.1,0c0,0,0,0,0,0c0,0,0,0,0,0c0,0,0,0,0,0c0,0,0,0,0,0l0,0.1c0,0,0,0,0,0.1
	s0,0.1,0,0.1c0,0.1,0,0.2,0.1,0.3c0,0,0,0,0,0c0,0,0,0,0,0L47.5,26.6C47.4,26.6,47.4,26.6,47.5,26.6L47.5,26.6z"/>
<path class="st1" d="M30.6,28.4h-1.3c-0.2,0-0.4-0.2-0.4-0.4c0-0.2,0.2-0.4,0.4-0.4h1.3c0.2,0,0.4,0.2,0.4,0.4
	C31,28.3,30.8,28.4,30.6,28.4z"/>
<path class="st1" d="M32.1,28.4h1.3c0.2,0,0.4-0.2,0.4-0.4c0-0.2-0.2-0.4-0.4-0.4h-1.3c-0.2,0-0.4,0.2-0.4,0.4
	C31.7,28.3,31.9,28.4,32.1,28.4z"/>
<path class="st1" d="M36.1,28.4h-1.3c-0.2,0-0.4-0.2-0.4-0.4c0-0.2,0.2-0.4,0.4-0.4h1.3c0.2,0,0.4,0.2,0.4,0.4
	C36.5,28.3,36.3,28.4,36.1,28.4z"/>
<path class="st1" d="M37.6,28.4h1.3c0.2,0,0.4-0.2,0.4-0.4c0-0.2-0.2-0.4-0.4-0.4h-1.3c-0.2,0-0.4,0.2-0.4,0.4
	C37.2,28.3,37.4,28.4,37.6,28.4z"/>
<path class="st1" d="M42.7,26.7H29.3c-0.2,0-0.4-0.2-0.4-0.4c0-0.2,0.2-0.4,0.4-0.4h13.4c0.2,0,0.4,0.2,0.4,0.4
	C43.1,26.5,42.9,26.7,42.7,26.7z"/>
<path class="st2" d="M49.8,23.8H22.2c-0.1,0-0.2,0.1-0.2,0.2V48c0,0.1,0.1,0.2,0.2,0.2h27.6c0.1,0,0.2-0.1,0.2-0.2V24
	C50,23.8,49.9,23.8,49.8,23.8z M49.2,30.4v17H22.8v-17H49.2z M49.2,29.6v-5H22.8v5H49.2z"/>
<g>
	
		<radialGradient id="SVGID_2_" cx="-251.1225" cy="592.2143" r="1" gradientTransform="matrix(7.500962e-16 12.25 14 -8.572528e-16 -8255 3168.5)" gradientUnits="userSpaceOnUse">
		<stop  offset="0" style="stop-color:#A644E5"/>
		<stop  offset="1" style="stop-color:#A644E5;stop-opacity:0"/>
	</radialGradient>
	<rect x="22" y="80" class="st3" width="28" height="24.5"/>
</g>
<path class="st4" d="M29.3,89h3.4c0.2,0,0.4-0.2,0.4-0.4c0-0.2-0.2-0.4-0.4-0.4h-3.4c-0.2,0-0.4,0.2-0.4,0.4
	C28.9,88.8,29.1,89,29.3,89z"/>
<path class="st4" d="M31.3,90.4h-1.9c-0.2,0-0.4-0.2-0.4-0.4c0-0.2,0.2-0.4,0.4-0.4h1.9c0.2,0,0.4,0.2,0.4,0.4
	C31.7,90.2,31.5,90.4,31.3,90.4z"/>
<path class="st4" d="M32.8,90.4h0.5c0.2,0,0.4-0.2,0.4-0.4c0-0.2-0.2-0.4-0.4-0.4h-0.5c-0.2,0-0.4,0.2-0.4,0.4
	C32.4,90.2,32.6,90.4,32.8,90.4z"/>
<path class="st4" d="M42.7,90.4h-1.3c-0.2,0-0.4-0.2-0.4-0.4c0-0.2,0.2-0.4,0.4-0.4h1.3c0.2,0,0.4,0.2,0.4,0.4
	C43.1,90.2,42.9,90.4,42.7,90.4z"/>
<path class="st4" d="M34.8,90.4h1.1c0.2,0,0.4-0.2,0.4-0.4c0-0.2-0.2-0.4-0.4-0.4h-1.1c-0.2,0-0.4,0.2-0.4,0.4
	C34.4,90.2,34.6,90.4,34.8,90.4z"/>
<path class="st4" d="M39.9,90.4h-2.4c-0.2,0-0.4-0.2-0.4-0.4c0-0.2,0.2-0.4,0.4-0.4h2.4c0.2,0,0.4,0.2,0.4,0.4
	C40.3,90.2,40.1,90.4,39.9,90.4z"/>
<path class="st4" d="M29.3,92.7h3.4c0.2,0,0.4-0.2,0.4-0.4c0-0.2-0.2-0.4-0.4-0.4h-3.4c-0.2,0-0.4,0.2-0.4,0.4
	C28.9,92.6,29.1,92.7,29.3,92.7z"/>
<path class="st4" d="M40.1,93.3h1.9c0.2,0,0.4,0.2,0.4,0.4c0,0.2-0.2,0.4-0.4,0.4h-1.9c-0.2,0-0.4-0.2-0.4-0.4
	C39.7,93.5,39.9,93.3,40.1,93.3z"/>
<path class="st4" d="M38.8,93.3h-0.5c-0.2,0-0.4,0.2-0.4,0.4c0,0.2,0.2,0.4,0.4,0.4h0.5c0.2,0,0.4-0.2,0.4-0.4
	C39.2,93.5,39,93.3,38.8,93.3z"/>
<path class="st4" d="M29.3,93.3h1.3c0.2,0,0.4,0.2,0.4,0.4c0,0.2-0.2,0.4-0.4,0.4h-1.3c-0.2,0-0.4-0.2-0.4-0.4
	C28.9,93.5,29.1,93.3,29.3,93.3z"/>
<path class="st4" d="M36.9,93.3h-1.1c-0.2,0-0.4,0.2-0.4,0.4c0,0.2,0.2,0.4,0.4,0.4h1.1c0.2,0,0.4-0.2,0.4-0.4
	C37.3,93.5,37.1,93.3,36.9,93.3z"/>
<path class="st4" d="M32,93.3h2.4c0.2,0,0.4,0.2,0.4,0.4c0,0.2-0.2,0.4-0.4,0.4H32c-0.2,0-0.4-0.2-0.4-0.4
	C31.6,93.5,31.8,93.3,32,93.3z"/>
<path class="st4" d="M29.3,96.5h3.4c0.2,0,0.4-0.2,0.4-0.4c0-0.2-0.2-0.4-0.4-0.4h-3.4c-0.2,0-0.4,0.2-0.4,0.4
	C28.9,96.3,29.1,96.5,29.3,96.5z"/>
<path class="st4" d="M31.3,97.9h-1.9c-0.2,0-0.4-0.2-0.4-0.4c0-0.2,0.2-0.4,0.4-0.4h1.9c0.2,0,0.4,0.2,0.4,0.4
	C31.7,97.7,31.5,97.9,31.3,97.9z"/>
<path class="st4" d="M32.5,97.9H33c0.2,0,0.4-0.2,0.4-0.4c0-0.2-0.2-0.4-0.4-0.4h-0.5c-0.2,0-0.4,0.2-0.4,0.4
	C32.1,97.7,32.3,97.9,32.5,97.9z"/>
<path class="st4" d="M42.5,97.9h-1.3c-0.2,0-0.4-0.2-0.4-0.4c0-0.2,0.2-0.4,0.4-0.4h1.3c0.2,0,0.4,0.2,0.4,0.4
	C42.9,97.7,42.7,97.9,42.5,97.9z"/>
<path class="st4" d="M34.2,97.9h1.1c0.2,0,0.4-0.2,0.4-0.4c0-0.2-0.2-0.4-0.4-0.4h-1.1c-0.2,0-0.4,0.2-0.4,0.4
	C33.8,97.7,34,97.9,34.2,97.9z"/>
<path class="st4" d="M39.7,97.9h-3.2c-0.2,0-0.4-0.2-0.4-0.4c0-0.2,0.2-0.4,0.4-0.4h3.2c0.2,0,0.4,0.2,0.4,0.4
	C40.1,97.7,40,97.9,39.7,97.9z"/>
<path class="st4" d="M29.3,100.2h3.4c0.2,0,0.4-0.2,0.4-0.4c0-0.2-0.2-0.4-0.4-0.4h-3.4c-0.2,0-0.4,0.2-0.4,0.4
	C28.9,100,29.1,100.2,29.3,100.2z"/>
<path class="st4" d="M40.4,100.8h1.9c0.2,0,0.4,0.2,0.4,0.4c0,0.2-0.2,0.4-0.4,0.4h-1.9c-0.2,0-0.4-0.2-0.4-0.4
	C40,101,40.2,100.8,40.4,100.8z"/>
<path class="st4" d="M38.9,100.8h-0.9c-0.2,0-0.4,0.2-0.4,0.4c0,0.2,0.2,0.4,0.4,0.4h0.9c0.2,0,0.4-0.2,0.4-0.4
	C39.3,101,39.2,100.8,38.9,100.8z"/>
<path class="st4" d="M29.3,100.8h1.3c0.2,0,0.4,0.2,0.4,0.4c0,0.2-0.2,0.4-0.4,0.4h-1.3c-0.2,0-0.4-0.2-0.4-0.4
	C28.9,101,29.1,100.8,29.3,100.8z"/>
<path class="st4" d="M36.9,100.8h-1.1c-0.2,0-0.4,0.2-0.4,0.4c0,0.2,0.2,0.4,0.4,0.4h1.1c0.2,0,0.4-0.2,0.4-0.4
	C37.3,101,37.1,100.8,36.9,100.8z"/>
<path class="st4" d="M31.9,100.8h2.7c0.2,0,0.4,0.2,0.4,0.4c0,0.2-0.2,0.4-0.4,0.4h-2.7c-0.2,0-0.4-0.2-0.4-0.4
	C31.5,101,31.6,100.8,31.9,100.8z"/>
<path class="st4" d="M26.9,82.9h-2.7c-0.2,0-0.4-0.2-0.4-0.4s0.2-0.4,0.4-0.4h2.7c0.2,0,0.4,0.2,0.4,0.4S27.1,82.9,26.9,82.9z"/>
<path class="st4" d="M47.5,82.9C47.5,82.9,47.5,82.9,47.5,82.9C47.5,82.9,47.5,82.9,47.5,82.9c0.1,0,0.1,0,0.2,0l0,0c0,0,0,0,0.1,0
	c0,0,0,0,0.1,0l0,0c0,0,0,0,0.1-0.1c0,0,0,0,0,0c0,0,0,0,0,0l0-0.1c0,0,0,0,0-0.1l0,0c0,0,0,0,0,0c0,0,0,0,0,0c0,0,0,0,0,0
	c0,0,0-0.1,0-0.1s0-0.1,0-0.1c0,0,0,0,0,0c0,0,0,0,0,0c0,0,0,0-0.1-0.1c0,0,0,0-0.1-0.1l-0.1,0c0,0,0,0,0,0c0,0,0,0,0,0
	c-0.1,0-0.1,0-0.2,0l0,0c0,0,0,0-0.1,0c0,0,0,0-0.1,0c0,0,0,0,0,0c0,0,0,0,0,0c0,0,0,0,0,0c0,0,0,0,0,0l0,0.1c0,0,0,0,0,0.1
	s0,0.1,0,0.1c0,0.1,0,0.2,0.1,0.3c0,0,0,0,0,0c0,0,0,0,0,0L47.5,82.9C47.4,82.9,47.4,82.9,47.5,82.9L47.5,82.9z"/>
<path class="st4" d="M30.6,84.7h-1.3c-0.2,0-0.4-0.2-0.4-0.4s0.2-0.4,0.4-0.4h1.3c0.2,0,0.4,0.2,0.4,0.4S30.8,84.7,30.6,84.7z"/>
<path class="st4" d="M32.1,84.7h1.3c0.2,0,0.4-0.2,0.4-0.4s-0.2-0.4-0.4-0.4h-1.3c-0.2,0-0.4,0.2-0.4,0.4S31.9,84.7,32.1,84.7z"/>
<path class="st4" d="M36.1,84.7h-1.3c-0.2,0-0.4-0.2-0.4-0.4s0.2-0.4,0.4-0.4h1.3c0.2,0,0.4,0.2,0.4,0.4S36.3,84.7,36.1,84.7z"/>
<path class="st4" d="M37.6,84.7h1.3c0.2,0,0.4-0.2,0.4-0.4s-0.2-0.4-0.4-0.4h-1.3c-0.2,0-0.4,0.2-0.4,0.4S37.4,84.7,37.6,84.7z"/>
<path class="st4" d="M42.7,82.9H29.3c-0.2,0-0.4-0.2-0.4-0.4s0.2-0.4,0.4-0.4h13.4c0.2,0,0.4,0.2,0.4,0.4S42.9,82.9,42.7,82.9z"/>
<path class="st5" d="M49.8,80H22.2c-0.1,0-0.2,0.1-0.2,0.2v24.1c0,0.1,0.1,0.2,0.2,0.2h27.6c0.1,0,0.2-0.1,0.2-0.2V80.2
	C50,80.1,49.9,80,49.8,80z M49.2,86.7v17H22.8v-17H49.2z M49.2,85.9v-5H22.8v5H49.2z"/>
<g>
	
		<radialGradient id="SVGID_3_" cx="-251.1225" cy="592.2143" r="1" gradientTransform="matrix(7.500962e-16 12.25 14 -8.572528e-16 -8255 3224.25)" gradientUnits="userSpaceOnUse">
		<stop  offset="0" style="stop-color:#00CAAA"/>
		<stop  offset="1" style="stop-color:#00CAAA;stop-opacity:0"/>
	</radialGradient>
	<rect x="22" y="135.8" class="st6" width="28" height="24.5"/>
</g>
<path class="st7" d="M29.3,144.8h3.4c0.2,0,0.4-0.2,0.4-0.4c0-0.2-0.2-0.4-0.4-0.4h-3.4c-0.2,0-0.4,0.2-0.4,0.4
	C28.9,144.6,29.1,144.8,29.3,144.8z"/>
<path class="st7" d="M31.3,146.2h-1.9c-0.2,0-0.4-0.2-0.4-0.4c0-0.2,0.2-0.4,0.4-0.4h1.9c0.2,0,0.4,0.2,0.4,0.4
	C31.7,146,31.5,146.2,31.3,146.2z"/>
<path class="st7" d="M32.8,146.2h0.5c0.2,0,0.4-0.2,0.4-0.4c0-0.2-0.2-0.4-0.4-0.4h-0.5c-0.2,0-0.4,0.2-0.4,0.4
	C32.4,146,32.6,146.2,32.8,146.2z"/>
<path class="st7" d="M42.7,146.2h-1.3c-0.2,0-0.4-0.2-0.4-0.4c0-0.2,0.2-0.4,0.4-0.4h1.3c0.2,0,0.4,0.2,0.4,0.4
	C43.1,146,42.9,146.2,42.7,146.2z"/>
<path class="st7" d="M34.8,146.2h1.1c0.2,0,0.4-0.2,0.4-0.4c0-0.2-0.2-0.4-0.4-0.4h-1.1c-0.2,0-0.4,0.2-0.4,0.4
	C34.4,146,34.6,146.2,34.8,146.2z"/>
<path class="st7" d="M39.9,146.2h-2.4c-0.2,0-0.4-0.2-0.4-0.4c0-0.2,0.2-0.4,0.4-0.4h2.4c0.2,0,0.4,0.2,0.4,0.4
	C40.3,146,40.1,146.2,39.9,146.2z"/>
<path class="st7" d="M29.3,148.5h3.4c0.2,0,0.4-0.2,0.4-0.4c0-0.2-0.2-0.4-0.4-0.4h-3.4c-0.2,0-0.4,0.2-0.4,0.4
	C28.9,148.3,29.1,148.5,29.3,148.5z"/>
<path class="st7" d="M40.1,149.1h1.9c0.2,0,0.4,0.2,0.4,0.4c0,0.2-0.2,0.4-0.4,0.4h-1.9c-0.2,0-0.4-0.2-0.4-0.4
	C39.7,149.3,39.9,149.1,40.1,149.1z"/>
<path class="st7" d="M38.8,149.1h-0.5c-0.2,0-0.4,0.2-0.4,0.4c0,0.2,0.2,0.4,0.4,0.4h0.5c0.2,0,0.4-0.2,0.4-0.4
	C39.2,149.3,39,149.1,38.8,149.1z"/>
<path class="st7" d="M29.3,149.1h1.3c0.2,0,0.4,0.2,0.4,0.4c0,0.2-0.2,0.4-0.4,0.4h-1.3c-0.2,0-0.4-0.2-0.4-0.4
	C28.9,149.3,29.1,149.1,29.3,149.1z"/>
<path class="st7" d="M36.9,149.1h-1.1c-0.2,0-0.4,0.2-0.4,0.4c0,0.2,0.2,0.4,0.4,0.4h1.1c0.2,0,0.4-0.2,0.4-0.4
	C37.3,149.3,37.1,149.1,36.9,149.1z"/>
<path class="st7" d="M32,149.1h2.4c0.2,0,0.4,0.2,0.4,0.4c0,0.2-0.2,0.4-0.4,0.4H32c-0.2,0-0.4-0.2-0.4-0.4
	C31.6,149.3,31.8,149.1,32,149.1z"/>
<path class="st7" d="M29.3,152.2h3.4c0.2,0,0.4-0.2,0.4-0.4c0-0.2-0.2-0.4-0.4-0.4h-3.4c-0.2,0-0.4,0.2-0.4,0.4
	C28.9,152,29.1,152.2,29.3,152.2z"/>
<path class="st7" d="M31.3,153.6h-1.9c-0.2,0-0.4-0.2-0.4-0.4c0-0.2,0.2-0.4,0.4-0.4h1.9c0.2,0,0.4,0.2,0.4,0.4
	C31.7,153.5,31.5,153.6,31.3,153.6z"/>
<path class="st7" d="M32.5,153.6H33c0.2,0,0.4-0.2,0.4-0.4c0-0.2-0.2-0.4-0.4-0.4h-0.5c-0.2,0-0.4,0.2-0.4,0.4
	C32.1,153.5,32.3,153.6,32.5,153.6z"/>
<path class="st7" d="M42.5,153.6h-1.3c-0.2,0-0.4-0.2-0.4-0.4c0-0.2,0.2-0.4,0.4-0.4h1.3c0.2,0,0.4,0.2,0.4,0.4
	C42.9,153.5,42.7,153.6,42.5,153.6z"/>
<path class="st7" d="M34.2,153.6h1.1c0.2,0,0.4-0.2,0.4-0.4c0-0.2-0.2-0.4-0.4-0.4h-1.1c-0.2,0-0.4,0.2-0.4,0.4
	C33.8,153.5,34,153.6,34.2,153.6z"/>
<path class="st7" d="M39.7,153.6h-3.2c-0.2,0-0.4-0.2-0.4-0.4c0-0.2,0.2-0.4,0.4-0.4h3.2c0.2,0,0.4,0.2,0.4,0.4
	C40.1,153.5,40,153.6,39.7,153.6z"/>
<path class="st7" d="M29.3,156h3.4c0.2,0,0.4-0.2,0.4-0.4c0-0.2-0.2-0.4-0.4-0.4h-3.4c-0.2,0-0.4,0.2-0.4,0.4
	C28.9,155.8,29.1,156,29.3,156z"/>
<path class="st7" d="M40.4,156.6h1.9c0.2,0,0.4,0.2,0.4,0.4c0,0.2-0.2,0.4-0.4,0.4h-1.9c-0.2,0-0.4-0.2-0.4-0.4
	C40,156.7,40.2,156.6,40.4,156.6z"/>
<path class="st7" d="M38.9,156.6h-0.9c-0.2,0-0.4,0.2-0.4,0.4c0,0.2,0.2,0.4,0.4,0.4h0.9c0.2,0,0.4-0.2,0.4-0.4
	C39.3,156.7,39.2,156.6,38.9,156.6z"/>
<path class="st7" d="M29.3,156.6h1.3c0.2,0,0.4,0.2,0.4,0.4c0,0.2-0.2,0.4-0.4,0.4h-1.3c-0.2,0-0.4-0.2-0.4-0.4
	C28.9,156.7,29.1,156.6,29.3,156.6z"/>
<path class="st7" d="M36.9,156.6h-1.1c-0.2,0-0.4,0.2-0.4,0.4c0,0.2,0.2,0.4,0.4,0.4h1.1c0.2,0,0.4-0.2,0.4-0.4
	C37.3,156.7,37.1,156.6,36.9,156.6z"/>
<path class="st7" d="M31.9,156.6h2.7c0.2,0,0.4,0.2,0.4,0.4c0,0.2-0.2,0.4-0.4,0.4h-2.7c-0.2,0-0.4-0.2-0.4-0.4
	C31.5,156.7,31.6,156.6,31.9,156.6z"/>
<path class="st7" d="M26.9,138.6h-2.7c-0.2,0-0.4-0.2-0.4-0.4c0-0.2,0.2-0.4,0.4-0.4h2.7c0.2,0,0.4,0.2,0.4,0.4
	C27.3,138.5,27.1,138.6,26.9,138.6z"/>
<path class="st7" d="M47.5,138.6C47.5,138.6,47.5,138.6,47.5,138.6C47.5,138.6,47.5,138.6,47.5,138.6c0.1,0,0.1,0,0.2,0l0,0
	c0,0,0,0,0.1,0c0,0,0,0,0.1,0l0,0c0,0,0,0,0.1-0.1c0,0,0,0,0,0c0,0,0,0,0,0l0-0.1c0,0,0,0,0-0.1l0,0c0,0,0,0,0,0c0,0,0,0,0,0
	c0,0,0,0,0,0c0,0,0-0.1,0-0.1c0,0,0-0.1,0-0.1c0,0,0,0,0,0c0,0,0,0,0,0c0,0,0,0-0.1-0.1c0,0,0,0-0.1-0.1l-0.1,0c0,0,0,0,0,0
	c0,0,0,0,0,0c-0.1,0-0.1,0-0.2,0l0,0c0,0,0,0-0.1,0c0,0,0,0-0.1,0c0,0,0,0,0,0c0,0,0,0,0,0c0,0,0,0,0,0c0,0,0,0,0,0l0,0.1
	c0,0,0,0,0,0.1c0,0,0,0.1,0,0.1c0,0.1,0,0.2,0.1,0.3c0,0,0,0,0,0c0,0,0,0,0,0L47.5,138.6C47.4,138.6,47.4,138.6,47.5,138.6
	L47.5,138.6z"/>
<path class="st7" d="M30.6,140.4h-1.3c-0.2,0-0.4-0.2-0.4-0.4s0.2-0.4,0.4-0.4h1.3c0.2,0,0.4,0.2,0.4,0.4S30.8,140.4,30.6,140.4z"/>
<path class="st7" d="M32.1,140.4h1.3c0.2,0,0.4-0.2,0.4-0.4s-0.2-0.4-0.4-0.4h-1.3c-0.2,0-0.4,0.2-0.4,0.4S31.9,140.4,32.1,140.4z"
	/>
<path class="st7" d="M36.1,140.4h-1.3c-0.2,0-0.4-0.2-0.4-0.4s0.2-0.4,0.4-0.4h1.3c0.2,0,0.4,0.2,0.4,0.4S36.3,140.4,36.1,140.4z"/>
<path class="st7" d="M37.6,140.4h1.3c0.2,0,0.4-0.2,0.4-0.4s-0.2-0.4-0.4-0.4h-1.3c-0.2,0-0.4,0.2-0.4,0.4S37.4,140.4,37.6,140.4z"
	/>
<path class="st7" d="M42.7,138.6H29.3c-0.2,0-0.4-0.2-0.4-0.4c0-0.2,0.2-0.4,0.4-0.4h13.4c0.2,0,0.4,0.2,0.4,0.4
	C43.1,138.5,42.9,138.6,42.7,138.6z"/>
<path class="st8" d="M49.8,135.8H22.2c-0.1,0-0.2,0.1-0.2,0.2V160c0,0.1,0.1,0.2,0.2,0.2h27.6c0.1,0,0.2-0.1,0.2-0.2V136
	C50,135.8,49.9,135.8,49.8,135.8z M49.2,142.4v17H22.8v-17H49.2z M49.2,141.6v-5H22.8v5H49.2z"/>
<path class="st9" d="M29.3,200.8h3.4c0.2,0,0.4-0.2,0.4-0.4c0-0.2-0.2-0.4-0.4-0.4h-3.4c-0.2,0-0.4,0.2-0.4,0.4
	C28.9,200.6,29.1,200.8,29.3,200.8z"/>
<path class="st9" d="M31.3,202.2h-1.9c-0.2,0-0.4-0.2-0.4-0.4c0-0.2,0.2-0.4,0.4-0.4h1.9c0.2,0,0.4,0.2,0.4,0.4
	C31.7,202,31.5,202.2,31.3,202.2z"/>
<path class="st9" d="M32.8,202.2h0.5c0.2,0,0.4-0.2,0.4-0.4c0-0.2-0.2-0.4-0.4-0.4h-0.5c-0.2,0-0.4,0.2-0.4,0.4
	C32.4,202,32.6,202.2,32.8,202.2z"/>
<path class="st9" d="M42.7,202.2h-1.3c-0.2,0-0.4-0.2-0.4-0.4c0-0.2,0.2-0.4,0.4-0.4h1.3c0.2,0,0.4,0.2,0.4,0.4
	C43.1,202,42.9,202.2,42.7,202.2z"/>
<path class="st9" d="M34.8,202.2h1.1c0.2,0,0.4-0.2,0.4-0.4c0-0.2-0.2-0.4-0.4-0.4h-1.1c-0.2,0-0.4,0.2-0.4,0.4
	C34.4,202,34.6,202.2,34.8,202.2z"/>
<path class="st9" d="M39.9,202.2h-2.4c-0.2,0-0.4-0.2-0.4-0.4c0-0.2,0.2-0.4,0.4-0.4h2.4c0.2,0,0.4,0.2,0.4,0.4
	C40.3,202,40.1,202.2,39.9,202.2z"/>
<path class="st9" d="M29.3,204.5h3.4c0.2,0,0.4-0.2,0.4-0.4c0-0.2-0.2-0.4-0.4-0.4h-3.4c-0.2,0-0.4,0.2-0.4,0.4
	C28.9,204.3,29.1,204.5,29.3,204.5z"/>
<path class="st9" d="M40.1,205.1h1.9c0.2,0,0.4,0.2,0.4,0.4c0,0.2-0.2,0.4-0.4,0.4h-1.9c-0.2,0-0.4-0.2-0.4-0.4
	C39.7,205.3,39.9,205.1,40.1,205.1z"/>
<path class="st9" d="M38.8,205.1h-0.5c-0.2,0-0.4,0.2-0.4,0.4c0,0.2,0.2,0.4,0.4,0.4h0.5c0.2,0,0.4-0.2,0.4-0.4
	C39.2,205.3,39,205.1,38.8,205.1z"/>
<path class="st9" d="M29.3,205.1h1.3c0.2,0,0.4,0.2,0.4,0.4c0,0.2-0.2,0.4-0.4,0.4h-1.3c-0.2,0-0.4-0.2-0.4-0.4
	C28.9,205.3,29.1,205.1,29.3,205.1z"/>
<path class="st9" d="M36.9,205.1h-1.1c-0.2,0-0.4,0.2-0.4,0.4c0,0.2,0.2,0.4,0.4,0.4h1.1c0.2,0,0.4-0.2,0.4-0.4
	C37.3,205.3,37.1,205.1,36.9,205.1z"/>
<path class="st9" d="M32,205.1h2.4c0.2,0,0.4,0.2,0.4,0.4c0,0.2-0.2,0.4-0.4,0.4H32c-0.2,0-0.4-0.2-0.4-0.4
	C31.6,205.3,31.8,205.1,32,205.1z"/>
<path class="st9" d="M29.3,208.2h3.4c0.2,0,0.4-0.2,0.4-0.4c0-0.2-0.2-0.4-0.4-0.4h-3.4c-0.2,0-0.4,0.2-0.4,0.4
	C28.9,208,29.1,208.2,29.3,208.2z"/>
<path class="st9" d="M31.3,209.6h-1.9c-0.2,0-0.4-0.2-0.4-0.4c0-0.2,0.2-0.4,0.4-0.4h1.9c0.2,0,0.4,0.2,0.4,0.4
	C31.7,209.5,31.5,209.6,31.3,209.6z"/>
<path class="st9" d="M32.5,209.6H33c0.2,0,0.4-0.2,0.4-0.4c0-0.2-0.2-0.4-0.4-0.4h-0.5c-0.2,0-0.4,0.2-0.4,0.4
	C32.1,209.5,32.3,209.6,32.5,209.6z"/>
<path class="st9" d="M42.5,209.6h-1.3c-0.2,0-0.4-0.2-0.4-0.4c0-0.2,0.2-0.4,0.4-0.4h1.3c0.2,0,0.4,0.2,0.4,0.4
	C42.9,209.5,42.7,209.6,42.5,209.6z"/>
<path class="st9" d="M34.2,209.6h1.1c0.2,0,0.4-0.2,0.4-0.4c0-0.2-0.2-0.4-0.4-0.4h-1.1c-0.2,0-0.4,0.2-0.4,0.4
	C33.8,209.5,34,209.6,34.2,209.6z"/>
<path class="st9" d="M39.7,209.6h-3.2c-0.2,0-0.4-0.2-0.4-0.4c0-0.2,0.2-0.4,0.4-0.4h3.2c0.2,0,0.4,0.2,0.4,0.4
	C40.1,209.5,40,209.6,39.7,209.6z"/>
<path class="st9" d="M29.3,212h3.4c0.2,0,0.4-0.2,0.4-0.4c0-0.2-0.2-0.4-0.4-0.4h-3.4c-0.2,0-0.4,0.2-0.4,0.4
	C28.9,211.8,29.1,212,29.3,212z"/>
<path class="st9" d="M40.4,212.6h1.9c0.2,0,0.4,0.2,0.4,0.4c0,0.2-0.2,0.4-0.4,0.4h-1.9c-0.2,0-0.4-0.2-0.4-0.4
	C40,212.7,40.2,212.6,40.4,212.6z"/>
<path class="st9" d="M38.9,212.6h-0.9c-0.2,0-0.4,0.2-0.4,0.4c0,0.2,0.2,0.4,0.4,0.4h0.9c0.2,0,0.4-0.2,0.4-0.4
	C39.3,212.7,39.2,212.6,38.9,212.6z"/>
<path class="st9" d="M29.3,212.6h1.3c0.2,0,0.4,0.2,0.4,0.4c0,0.2-0.2,0.4-0.4,0.4h-1.3c-0.2,0-0.4-0.2-0.4-0.4
	C28.9,212.7,29.1,212.6,29.3,212.6z"/>
<path class="st9" d="M36.9,212.6h-1.1c-0.2,0-0.4,0.2-0.4,0.4c0,0.2,0.2,0.4,0.4,0.4h1.1c0.2,0,0.4-0.2,0.4-0.4
	C37.3,212.7,37.1,212.6,36.9,212.6z"/>
<path class="st9" d="M31.9,212.6h2.7c0.2,0,0.4,0.2,0.4,0.4c0,0.2-0.2,0.4-0.4,0.4h-2.7c-0.2,0-0.4-0.2-0.4-0.4
	C31.5,212.7,31.6,212.6,31.9,212.6z"/>
<path class="st9" d="M26.9,194.6h-2.7c-0.2,0-0.4-0.2-0.4-0.4c0-0.2,0.2-0.4,0.4-0.4h2.7c0.2,0,0.4,0.2,0.4,0.4
	C27.3,194.5,27.1,194.6,26.9,194.6z"/>
<path class="st9" d="M47.5,194.6C47.5,194.6,47.5,194.6,47.5,194.6C47.5,194.6,47.5,194.6,47.5,194.6c0.1,0,0.1,0,0.2,0l0,0
	c0,0,0,0,0.1,0c0,0,0,0,0.1,0l0,0c0,0,0,0,0.1-0.1c0,0,0,0,0,0c0,0,0,0,0,0l0-0.1c0,0,0,0,0-0.1l0,0c0,0,0,0,0,0c0,0,0,0,0,0
	c0,0,0,0,0,0c0,0,0-0.1,0-0.1c0,0,0-0.1,0-0.1c0,0,0,0,0,0c0,0,0,0,0,0c0,0,0,0-0.1-0.1c0,0,0,0-0.1-0.1l-0.1,0c0,0,0,0,0,0
	c0,0,0,0,0,0c-0.1,0-0.1,0-0.2,0l0,0c0,0,0,0-0.1,0c0,0,0,0-0.1,0c0,0,0,0,0,0c0,0,0,0,0,0c0,0,0,0,0,0c0,0,0,0,0,0l0,0.1
	c0,0,0,0,0,0.1c0,0,0,0.1,0,0.1c0,0.1,0,0.2,0.1,0.3c0,0,0,0,0,0c0,0,0,0,0,0L47.5,194.6C47.4,194.6,47.4,194.6,47.5,194.6
	L47.5,194.6z"/>
<path class="st9" d="M30.6,196.4h-1.3c-0.2,0-0.4-0.2-0.4-0.4s0.2-0.4,0.4-0.4h1.3c0.2,0,0.4,0.2,0.4,0.4S30.8,196.4,30.6,196.4z"/>
<path class="st9" d="M32.1,196.4h1.3c0.2,0,0.4-0.2,0.4-0.4s-0.2-0.4-0.4-0.4h-1.3c-0.2,0-0.4,0.2-0.4,0.4S31.9,196.4,32.1,196.4z"
	/>
<path class="st9" d="M36.1,196.4h-1.3c-0.2,0-0.4-0.2-0.4-0.4s0.2-0.4,0.4-0.4h1.3c0.2,0,0.4,0.2,0.4,0.4S36.3,196.4,36.1,196.4z"/>
<path class="st9" d="M37.6,196.4h1.3c0.2,0,0.4-0.2,0.4-0.4s-0.2-0.4-0.4-0.4h-1.3c-0.2,0-0.4,0.2-0.4,0.4S37.4,196.4,37.6,196.4z"
	/>
<path class="st9" d="M42.7,194.6H29.3c-0.2,0-0.4-0.2-0.4-0.4c0-0.2,0.2-0.4,0.4-0.4h13.4c0.2,0,0.4,0.2,0.4,0.4
	C43.1,194.5,42.9,194.6,42.7,194.6z"/>
<path class="st10" d="M49.8,191.8H22.2c-0.1,0-0.2,0.1-0.2,0.2V216c0,0.1,0.1,0.2,0.2,0.2h27.6c0.1,0,0.2-0.1,0.2-0.2V192
	C50,191.8,49.9,191.8,49.8,191.8z M49.2,198.4v17H22.8v-17H49.2z M49.2,197.6v-5H22.8v5H49.2z"/>
<g>
	
		<radialGradient id="SVGID_4_" cx="-251.1225" cy="592.2143" r="1" gradientTransform="matrix(7.500962e-16 12.25 14 -8.572528e-16 -8255 3336.25)" gradientUnits="userSpaceOnUse">
		<stop  offset="0" style="stop-color:#434F58"/>
		<stop  offset="1" style="stop-color:#434F58;stop-opacity:0"/>
	</radialGradient>
	<rect x="22" y="247.8" class="st11" width="28" height="24.5"/>
</g>
<path class="st9" d="M29.3,256.8h3.4c0.2,0,0.4-0.2,0.4-0.4c0-0.2-0.2-0.4-0.4-0.4h-3.4c-0.2,0-0.4,0.2-0.4,0.4
	C28.9,256.6,29.1,256.8,29.3,256.8z"/>
<path class="st9" d="M31.3,258.2h-1.9c-0.2,0-0.4-0.2-0.4-0.4s0.2-0.4,0.4-0.4h1.9c0.2,0,0.4,0.2,0.4,0.4S31.5,258.2,31.3,258.2z"/>
<path class="st9" d="M32.8,258.2h0.5c0.2,0,0.4-0.2,0.4-0.4s-0.2-0.4-0.4-0.4h-0.5c-0.2,0-0.4,0.2-0.4,0.4S32.6,258.2,32.8,258.2z"
	/>
<path class="st9" d="M42.7,258.2h-1.3c-0.2,0-0.4-0.2-0.4-0.4s0.2-0.4,0.4-0.4h1.3c0.2,0,0.4,0.2,0.4,0.4S42.9,258.2,42.7,258.2z"/>
<path class="st9" d="M34.8,258.2h1.1c0.2,0,0.4-0.2,0.4-0.4s-0.2-0.4-0.4-0.4h-1.1c-0.2,0-0.4,0.2-0.4,0.4S34.6,258.2,34.8,258.2z"
	/>
<path class="st9" d="M39.9,258.2h-2.4c-0.2,0-0.4-0.2-0.4-0.4s0.2-0.4,0.4-0.4h2.4c0.2,0,0.4,0.2,0.4,0.4S40.1,258.2,39.9,258.2z"/>
<path class="st9" d="M29.3,260.5h3.4c0.2,0,0.4-0.2,0.4-0.4c0-0.2-0.2-0.4-0.4-0.4h-3.4c-0.2,0-0.4,0.2-0.4,0.4
	C28.9,260.3,29.1,260.5,29.3,260.5z"/>
<path class="st9" d="M40.1,261.1h1.9c0.2,0,0.4,0.2,0.4,0.4c0,0.2-0.2,0.4-0.4,0.4h-1.9c-0.2,0-0.4-0.2-0.4-0.4
	C39.7,261.3,39.9,261.1,40.1,261.1z"/>
<path class="st9" d="M38.8,261.1h-0.5c-0.2,0-0.4,0.2-0.4,0.4c0,0.2,0.2,0.4,0.4,0.4h0.5c0.2,0,0.4-0.2,0.4-0.4
	C39.2,261.3,39,261.1,38.8,261.1z"/>
<path class="st9" d="M29.3,261.1h1.3c0.2,0,0.4,0.2,0.4,0.4c0,0.2-0.2,0.4-0.4,0.4h-1.3c-0.2,0-0.4-0.2-0.4-0.4
	C28.9,261.3,29.1,261.1,29.3,261.1z"/>
<path class="st9" d="M36.9,261.1h-1.1c-0.2,0-0.4,0.2-0.4,0.4c0,0.2,0.2,0.4,0.4,0.4h1.1c0.2,0,0.4-0.2,0.4-0.4
	C37.3,261.3,37.1,261.1,36.9,261.1z"/>
<path class="st9" d="M32,261.1h2.4c0.2,0,0.4,0.2,0.4,0.4c0,0.2-0.2,0.4-0.4,0.4H32c-0.2,0-0.4-0.2-0.4-0.4
	C31.6,261.3,31.8,261.1,32,261.1z"/>
<path class="st9" d="M29.3,264.2h3.4c0.2,0,0.4-0.2,0.4-0.4c0-0.2-0.2-0.4-0.4-0.4h-3.4c-0.2,0-0.4,0.2-0.4,0.4
	C28.9,264,29.1,264.2,29.3,264.2z"/>
<path class="st9" d="M31.3,265.6h-1.9c-0.2,0-0.4-0.2-0.4-0.4c0-0.2,0.2-0.4,0.4-0.4h1.9c0.2,0,0.4,0.2,0.4,0.4
	C31.7,265.5,31.5,265.6,31.3,265.6z"/>
<path class="st9" d="M32.5,265.6H33c0.2,0,0.4-0.2,0.4-0.4c0-0.2-0.2-0.4-0.4-0.4h-0.5c-0.2,0-0.4,0.2-0.4,0.4
	C32.1,265.5,32.3,265.6,32.5,265.6z"/>
<path class="st9" d="M42.5,265.6h-1.3c-0.2,0-0.4-0.2-0.4-0.4c0-0.2,0.2-0.4,0.4-0.4h1.3c0.2,0,0.4,0.2,0.4,0.4
	C42.9,265.5,42.7,265.6,42.5,265.6z"/>
<path class="st9" d="M34.2,265.6h1.1c0.2,0,0.4-0.2,0.4-0.4c0-0.2-0.2-0.4-0.4-0.4h-1.1c-0.2,0-0.4,0.2-0.4,0.4
	C33.8,265.5,34,265.6,34.2,265.6z"/>
<path class="st9" d="M39.7,265.6h-3.2c-0.2,0-0.4-0.2-0.4-0.4c0-0.2,0.2-0.4,0.4-0.4h3.2c0.2,0,0.4,0.2,0.4,0.4
	C40.1,265.5,40,265.6,39.7,265.6z"/>
<path class="st9" d="M29.3,268h3.4c0.2,0,0.4-0.2,0.4-0.4c0-0.2-0.2-0.4-0.4-0.4h-3.4c-0.2,0-0.4,0.2-0.4,0.4
	C28.9,267.8,29.1,268,29.3,268z"/>
<path class="st9" d="M40.4,268.6h1.9c0.2,0,0.4,0.2,0.4,0.4c0,0.2-0.2,0.4-0.4,0.4h-1.9c-0.2,0-0.4-0.2-0.4-0.4
	C40,268.7,40.2,268.6,40.4,268.6z"/>
<path class="st9" d="M38.9,268.6h-0.9c-0.2,0-0.4,0.2-0.4,0.4c0,0.2,0.2,0.4,0.4,0.4h0.9c0.2,0,0.4-0.2,0.4-0.4
	C39.3,268.7,39.2,268.6,38.9,268.6z"/>
<path class="st9" d="M29.3,268.6h1.3c0.2,0,0.4,0.2,0.4,0.4c0,0.2-0.2,0.4-0.4,0.4h-1.3c-0.2,0-0.4-0.2-0.4-0.4
	C28.9,268.7,29.1,268.6,29.3,268.6z"/>
<path class="st9" d="M36.9,268.6h-1.1c-0.2,0-0.4,0.2-0.4,0.4c0,0.2,0.2,0.4,0.4,0.4h1.1c0.2,0,0.4-0.2,0.4-0.4
	C37.3,268.7,37.1,268.6,36.9,268.6z"/>
<path class="st9" d="M31.9,268.6h2.7c0.2,0,0.4,0.2,0.4,0.4c0,0.2-0.2,0.4-0.4,0.4h-2.7c-0.2,0-0.4-0.2-0.4-0.4
	C31.5,268.7,31.6,268.6,31.9,268.6z"/>
<path class="st9" d="M26.9,250.6h-2.7c-0.2,0-0.4-0.2-0.4-0.4c0-0.2,0.2-0.4,0.4-0.4h2.7c0.2,0,0.4,0.2,0.4,0.4
	C27.3,250.5,27.1,250.6,26.9,250.6z"/>
<path class="st9" d="M47.5,250.6C47.5,250.6,47.5,250.6,47.5,250.6C47.5,250.6,47.5,250.6,47.5,250.6c0.1,0,0.1,0,0.2,0l0,0
	c0,0,0,0,0.1,0c0,0,0,0,0.1,0l0,0c0,0,0,0,0.1-0.1c0,0,0,0,0,0c0,0,0,0,0,0l0-0.1c0,0,0,0,0-0.1l0,0c0,0,0,0,0,0c0,0,0,0,0,0
	c0,0,0,0,0,0c0,0,0-0.1,0-0.1c0,0,0-0.1,0-0.1c0,0,0,0,0,0c0,0,0,0,0,0c0,0,0,0-0.1-0.1c0,0,0,0-0.1-0.1l-0.1,0c0,0,0,0,0,0
	c0,0,0,0,0,0c-0.1,0-0.1,0-0.2,0l0,0c0,0,0,0-0.1,0c0,0,0,0-0.1,0c0,0,0,0,0,0c0,0,0,0,0,0c0,0,0,0,0,0c0,0,0,0,0,0l0,0.1
	c0,0,0,0,0,0.1c0,0,0,0.1,0,0.1c0,0.1,0,0.2,0.1,0.3c0,0,0,0,0,0c0,0,0,0,0,0L47.5,250.6C47.4,250.6,47.4,250.6,47.5,250.6
	L47.5,250.6z"/>
<path class="st9" d="M30.6,252.4h-1.3c-0.2,0-0.4-0.2-0.4-0.4s0.2-0.4,0.4-0.4h1.3c0.2,0,0.4,0.2,0.4,0.4S30.8,252.4,30.6,252.4z"/>
<path class="st9" d="M32.1,252.4h1.3c0.2,0,0.4-0.2,0.4-0.4s-0.2-0.4-0.4-0.4h-1.3c-0.2,0-0.4,0.2-0.4,0.4S31.9,252.4,32.1,252.4z"
	/>
<path class="st9" d="M36.1,252.4h-1.3c-0.2,0-0.4-0.2-0.4-0.4s0.2-0.4,0.4-0.4h1.3c0.2,0,0.4,0.2,0.4,0.4S36.3,252.4,36.1,252.4z"/>
<path class="st9" d="M37.6,252.4h1.3c0.2,0,0.4-0.2,0.4-0.4s-0.2-0.4-0.4-0.4h-1.3c-0.2,0-0.4,0.2-0.4,0.4S37.4,252.4,37.6,252.4z"
	/>
<path class="st9" d="M42.7,250.6H29.3c-0.2,0-0.4-0.2-0.4-0.4c0-0.2,0.2-0.4,0.4-0.4h13.4c0.2,0,0.4,0.2,0.4,0.4
	C43.1,250.5,42.9,250.6,42.7,250.6z"/>
<path class="st10" d="M49.8,247.8H22.2c-0.1,0-0.2,0.1-0.2,0.2V272c0,0.1,0.1,0.2,0.2,0.2h27.6c0.1,0,0.2-0.1,0.2-0.2V248
	C50,247.8,49.9,247.8,49.8,247.8z M49.2,254.4v17H22.8v-17H49.2z M49.2,253.6v-5H22.8v5H49.2z"/>
<radialGradient id="SVGID_5_" cx="-251.1225" cy="592.2143" r="1" gradientTransform="matrix(7.500962e-16 12.25 14 -8.572528e-16 -8255 3392.25)" gradientUnits="userSpaceOnUse">
	<stop  offset="0" style="stop-color:#677983"/>
	<stop  offset="1" style="stop-color:#677983;stop-opacity:0"/>
</radialGradient>
<rect x="22" y="303.8" class="st12" width="28" height="24.5"/>
<path class="st13" d="M29.3,312.8h3.4c0.2,0,0.4-0.2,0.4-0.4c0-0.2-0.2-0.4-0.4-0.4h-3.4c-0.2,0-0.4,0.2-0.4,0.4
	C28.9,312.6,29.1,312.8,29.3,312.8z"/>
<path class="st13" d="M31.3,314.2h-1.9c-0.2,0-0.4-0.2-0.4-0.4s0.2-0.4,0.4-0.4h1.9c0.2,0,0.4,0.2,0.4,0.4S31.5,314.2,31.3,314.2z"
	/>
<path class="st13" d="M32.8,314.2h0.5c0.2,0,0.4-0.2,0.4-0.4s-0.2-0.4-0.4-0.4h-0.5c-0.2,0-0.4,0.2-0.4,0.4S32.6,314.2,32.8,314.2z"
	/>
<path class="st13" d="M42.7,314.2h-1.3c-0.2,0-0.4-0.2-0.4-0.4s0.2-0.4,0.4-0.4h1.3c0.2,0,0.4,0.2,0.4,0.4S42.9,314.2,42.7,314.2z"
	/>
<path class="st13" d="M34.8,314.2h1.1c0.2,0,0.4-0.2,0.4-0.4s-0.2-0.4-0.4-0.4h-1.1c-0.2,0-0.4,0.2-0.4,0.4S34.6,314.2,34.8,314.2z"
	/>
<path class="st13" d="M39.9,314.2h-2.4c-0.2,0-0.4-0.2-0.4-0.4s0.2-0.4,0.4-0.4h2.4c0.2,0,0.4,0.2,0.4,0.4S40.1,314.2,39.9,314.2z"
	/>
<path class="st13" d="M29.3,316.5h3.4c0.2,0,0.4-0.2,0.4-0.4c0-0.2-0.2-0.4-0.4-0.4h-3.4c-0.2,0-0.4,0.2-0.4,0.4
	C28.9,316.3,29.1,316.5,29.3,316.5z"/>
<path class="st13" d="M40.1,317.1h1.9c0.2,0,0.4,0.2,0.4,0.4c0,0.2-0.2,0.4-0.4,0.4h-1.9c-0.2,0-0.4-0.2-0.4-0.4
	C39.7,317.3,39.9,317.1,40.1,317.1z"/>
<path class="st13" d="M38.8,317.1h-0.5c-0.2,0-0.4,0.2-0.4,0.4c0,0.2,0.2,0.4,0.4,0.4h0.5c0.2,0,0.4-0.2,0.4-0.4
	C39.2,317.3,39,317.1,38.8,317.1z"/>
<path class="st13" d="M29.3,317.1h1.3c0.2,0,0.4,0.2,0.4,0.4c0,0.2-0.2,0.4-0.4,0.4h-1.3c-0.2,0-0.4-0.2-0.4-0.4
	C28.9,317.3,29.1,317.1,29.3,317.1z"/>
<path class="st13" d="M36.9,317.1h-1.1c-0.2,0-0.4,0.2-0.4,0.4c0,0.2,0.2,0.4,0.4,0.4h1.1c0.2,0,0.4-0.2,0.4-0.4
	C37.3,317.3,37.1,317.1,36.9,317.1z"/>
<path class="st13" d="M32,317.1h2.4c0.2,0,0.4,0.2,0.4,0.4c0,0.2-0.2,0.4-0.4,0.4H32c-0.2,0-0.4-0.2-0.4-0.4
	C31.6,317.3,31.8,317.1,32,317.1z"/>
<path class="st13" d="M29.3,320.2h3.4c0.2,0,0.4-0.2,0.4-0.4c0-0.2-0.2-0.4-0.4-0.4h-3.4c-0.2,0-0.4,0.2-0.4,0.4
	C28.9,320,29.1,320.2,29.3,320.2z"/>
<path class="st13" d="M31.3,321.6h-1.9c-0.2,0-0.4-0.2-0.4-0.4c0-0.2,0.2-0.4,0.4-0.4h1.9c0.2,0,0.4,0.2,0.4,0.4
	C31.7,321.5,31.5,321.6,31.3,321.6z"/>
<path class="st13" d="M32.5,321.6H33c0.2,0,0.4-0.2,0.4-0.4c0-0.2-0.2-0.4-0.4-0.4h-0.5c-0.2,0-0.4,0.2-0.4,0.4
	C32.1,321.5,32.3,321.6,32.5,321.6z"/>
<path class="st13" d="M42.5,321.6h-1.3c-0.2,0-0.4-0.2-0.4-0.4c0-0.2,0.2-0.4,0.4-0.4h1.3c0.2,0,0.4,0.2,0.4,0.4
	C42.9,321.5,42.7,321.6,42.5,321.6z"/>
<path class="st13" d="M34.2,321.6h1.1c0.2,0,0.4-0.2,0.4-0.4c0-0.2-0.2-0.4-0.4-0.4h-1.1c-0.2,0-0.4,0.2-0.4,0.4
	C33.8,321.5,34,321.6,34.2,321.6z"/>
<path class="st13" d="M39.7,321.6h-3.2c-0.2,0-0.4-0.2-0.4-0.4c0-0.2,0.2-0.4,0.4-0.4h3.2c0.2,0,0.4,0.2,0.4,0.4
	C40.1,321.5,40,321.6,39.7,321.6z"/>
<path class="st13" d="M29.3,324h3.4c0.2,0,0.4-0.2,0.4-0.4c0-0.2-0.2-0.4-0.4-0.4h-3.4c-0.2,0-0.4,0.2-0.4,0.4
	C28.9,323.8,29.1,324,29.3,324z"/>
<path class="st13" d="M40.4,324.6h1.9c0.2,0,0.4,0.2,0.4,0.4c0,0.2-0.2,0.4-0.4,0.4h-1.9c-0.2,0-0.4-0.2-0.4-0.4
	C40,324.7,40.2,324.6,40.4,324.6z"/>
<path class="st13" d="M38.9,324.6h-0.9c-0.2,0-0.4,0.2-0.4,0.4c0,0.2,0.2,0.4,0.4,0.4h0.9c0.2,0,0.4-0.2,0.4-0.4
	C39.3,324.7,39.2,324.6,38.9,324.6z"/>
<path class="st13" d="M29.3,324.6h1.3c0.2,0,0.4,0.2,0.4,0.4c0,0.2-0.2,0.4-0.4,0.4h-1.3c-0.2,0-0.4-0.2-0.4-0.4
	C28.9,324.7,29.1,324.6,29.3,324.6z"/>
<path class="st13" d="M36.9,324.6h-1.1c-0.2,0-0.4,0.2-0.4,0.4c0,0.2,0.2,0.4,0.4,0.4h1.1c0.2,0,0.4-0.2,0.4-0.4
	C37.3,324.7,37.1,324.6,36.9,324.6z"/>
<path class="st13" d="M31.9,324.6h2.7c0.2,0,0.4,0.2,0.4,0.4c0,0.2-0.2,0.4-0.4,0.4h-2.7c-0.2,0-0.4-0.2-0.4-0.4
	C31.5,324.7,31.6,324.6,31.9,324.6z"/>
<path class="st13" d="M26.9,306.6h-2.7c-0.2,0-0.4-0.2-0.4-0.4c0-0.2,0.2-0.4,0.4-0.4h2.7c0.2,0,0.4,0.2,0.4,0.4
	C27.3,306.5,27.1,306.6,26.9,306.6z"/>
<path class="st13" d="M47.5,306.6C47.5,306.6,47.5,306.6,47.5,306.6C47.5,306.6,47.5,306.6,47.5,306.6c0.1,0,0.1,0,0.2,0l0,0
	c0,0,0,0,0.1,0c0,0,0,0,0.1,0l0,0c0,0,0,0,0.1-0.1c0,0,0,0,0,0c0,0,0,0,0,0l0-0.1c0,0,0,0,0-0.1l0,0c0,0,0,0,0,0c0,0,0,0,0,0
	c0,0,0,0,0,0c0,0,0-0.1,0-0.1c0,0,0-0.1,0-0.1c0,0,0,0,0,0c0,0,0,0,0,0c0,0,0,0-0.1-0.1c0,0,0,0-0.1-0.1l-0.1,0c0,0,0,0,0,0
	c0,0,0,0,0,0c-0.1,0-0.1,0-0.2,0l0,0c0,0,0,0-0.1,0c0,0,0,0-0.1,0c0,0,0,0,0,0c0,0,0,0,0,0c0,0,0,0,0,0c0,0,0,0,0,0l0,0.1
	c0,0,0,0,0,0.1c0,0,0,0.1,0,0.1c0,0.1,0,0.2,0.1,0.3c0,0,0,0,0,0c0,0,0,0,0,0L47.5,306.6C47.4,306.6,47.4,306.6,47.5,306.6
	L47.5,306.6z"/>
<path class="st13" d="M30.6,308.4h-1.3c-0.2,0-0.4-0.2-0.4-0.4s0.2-0.4,0.4-0.4h1.3c0.2,0,0.4,0.2,0.4,0.4S30.8,308.4,30.6,308.4z"
	/>
<path class="st13" d="M32.1,308.4h1.3c0.2,0,0.4-0.2,0.4-0.4s-0.2-0.4-0.4-0.4h-1.3c-0.2,0-0.4,0.2-0.4,0.4S31.9,308.4,32.1,308.4z"
	/>
<path class="st13" d="M36.1,308.4h-1.3c-0.2,0-0.4-0.2-0.4-0.4s0.2-0.4,0.4-0.4h1.3c0.2,0,0.4,0.2,0.4,0.4S36.3,308.4,36.1,308.4z"
	/>
<path class="st13" d="M37.6,308.4h1.3c0.2,0,0.4-0.2,0.4-0.4s-0.2-0.4-0.4-0.4h-1.3c-0.2,0-0.4,0.2-0.4,0.4S37.4,308.4,37.6,308.4z"
	/>
<path class="st13" d="M42.7,306.6H29.3c-0.2,0-0.4-0.2-0.4-0.4c0-0.2,0.2-0.4,0.4-0.4h13.4c0.2,0,0.4,0.2,0.4,0.4
	C43.1,306.5,42.9,306.6,42.7,306.6z"/>
<path class="st14" d="M49.8,303.8H22.2c-0.1,0-0.2,0.1-0.2,0.2V328c0,0.1,0.1,0.2,0.2,0.2h27.6c0.1,0,0.2-0.1,0.2-0.2V304
	C50,303.8,49.9,303.8,49.8,303.8z M49.2,310.4v17H22.8v-17H49.2z M49.2,309.6v-5H22.8v5H49.2z"/>
</svg>
