<?xml version="1.0" encoding="utf-8"?>
<!-- Generator: Adobe Illustrator 25.2.1, SVG Export Plug-In . SVG Version: 6.00 Build 0)  -->
<svg version="1.1" id="Layer_1" xmlns="http://www.w3.org/2000/svg" xmlns:xlink="http://www.w3.org/1999/xlink" x="0px" y="0px"
	 viewBox="0 0 72 352" style="enable-background:new 0 0 72 352;" xml:space="preserve">
<style type="text/css">
	.st0{fill-rule:evenodd;clip-rule:evenodd;fill:url(#SVGID_1_);fill-opacity:0.25;}
	.st1{fill:#0073EC;}
	.st2{fill-rule:evenodd;clip-rule:evenodd;fill:#0073EC;}
	.st3{fill-rule:evenodd;clip-rule:evenodd;fill:url(#SVGID_2_);fill-opacity:0.25;}
	.st4{fill:#A644E5;}
	.st5{fill-rule:evenodd;clip-rule:evenodd;fill:#A644E5;}
	.st6{fill-rule:evenodd;clip-rule:evenodd;fill:url(#SVGID_3_);fill-opacity:0.25;}
	.st7{fill:#00CAAA;}
	.st8{fill-rule:evenodd;clip-rule:evenodd;fill:#00CAAA;}
	.st9{fill:#434F58;}
	.st10{fill-rule:evenodd;clip-rule:evenodd;fill:#434F58;}
	.st11{fill-rule:evenodd;clip-rule:evenodd;fill:url(#SVGID_4_);fill-opacity:0.25;}
	.st12{fill-rule:evenodd;clip-rule:evenodd;fill:url(#SVGID_5_);fill-opacity:0.25;}
	.st13{fill:#677983;}
	.st14{fill-rule:evenodd;clip-rule:evenodd;fill:#677983;}
</style>
<radialGradient id="SVGID_1_" cx="-254.5146" cy="565.0833" r="1" gradientTransform="matrix(20.9684 4.94 4.3877 -18.624 2891.0796 11821.6455)" gradientUnits="userSpaceOnUse">
	<stop  offset="0" style="stop-color:#0073EC"/>
	<stop  offset="1" style="stop-color:#0073EC;stop-opacity:0"/>
	<stop  offset="1" style="stop-color:#0073EC;stop-opacity:0"/>
</radialGradient>
<path class="st0" d="M53.4,38.4V37c0-0.7-0.5-1.4-1.2-1.6L50.6,35c0,0-0.1,0-0.1-0.1c0,0,0-0.1,0-0.1v-0.5c0.1-0.1,0.3-0.2,0.4-0.3
	c0.3-0.3,0.5-0.6,0.7-1c0.2-0.4,0.2-0.7,0.2-1.1v-0.7l0.2-0.3c0.2-0.3,0.3-0.7,0.3-1.1v-2c0-0.1,0-0.1,0-0.1c0,0,0-0.1-0.1-0.1
	c0,0-0.1-0.1-0.1-0.1c0,0-0.1,0-0.1,0c0,0,0,0,0,0c0,0,0,0,0,0H48c-0.7,0-1.3,0.3-1.8,0.7c-0.5,0.5-0.7,1.1-0.7,1.8v0
	c0,0.3,0.1,0.6,0.2,0.9l0.2,0.4v0.6c0,0.5,0.1,1,0.3,1.4c0.2,0.4,0.5,0.8,0.9,1.1v0.6c0,0.1,0,0.1-0.3,0.2l-0.8,0.2l-2.3-0.8
	c0-0.1,0-0.1,0-0.2c0-0.1,0-0.1-0.1-0.1l-0.7-0.8v-1.3c0.1-0.1,0.2-0.1,0.2-0.2c0.5-0.4,0.8-0.9,1.1-1.5c0.2-0.6,0.4-1.2,0.4-1.8v-1
	c0.3-0.6,0.4-1.2,0.4-1.9v-4.2c0-0.1,0-0.1,0-0.1c0,0,0,0,0-0.1c0,0,0,0,0-0.1c0,0-0.1-0.1-0.1-0.1c0,0-0.1,0-0.1,0h-5.9
	c-1,0-1.9,0.4-2.6,1.1c-0.7,0.7-1.1,1.7-1.1,2.6v0.8c0,0.7,0.1,1.3,0.4,1.9v0.9c0,0.7,0.1,1.4,0.4,2c0.3,0.6,0.7,1.2,1.2,1.6v1.3
	l-0.7,0.8c0,0-0.1,0.1-0.1,0.1c0,0.1,0,0.1,0,0.2l-2.4,0.9c-0.2,0.1-0.3,0.1-0.5,0.3L33,35.3c1.1-0.5,1.5-1.2,1.5-1.2
	c0-0.1,0-0.1,0-0.2c0,0,0-0.1,0-0.1c0,0,0-0.1,0-0.1c-0.3-0.6-0.3-1.6-0.3-2.4c0-0.3,0-0.5,0-0.8c-0.1-1.9-1.6-3.3-3.3-3.3
	s-3.2,1.4-3.3,3.3c0,0.2,0,0.5,0,0.8c0,0.8-0.1,1.9-0.3,2.4c0,0,0,0,0,0.1c0,0,0,0,0,0.1c0,0,0,0,0,0.1c0,0.1,0,0.1,0,0.2l0,0
	c0,0.1,0.4,0.7,1.5,1.2l-0.9,0.6c-0.1,0.1-0.2,0.2-0.3,0.2c-0.5-0.1-1-0.2-1.6-0.2c-1.1,0-2.1,0.2-3.1,0.6c-1.9,0.8-3.4,2.3-4.2,4.3
	c-0.4,1-0.6,2-0.6,3.1c0,1.1,0.2,2.1,0.6,3.1c0.4,1,1,1.8,1.7,2.6c0.7,0.7,1.6,1.3,2.5,1.7c1,0.4,2,0.6,3.1,0.6
	c1.1,0,2.1-0.2,3.1-0.6c1.2-0.5,2.3-1.3,3.1-2.4h1.1c0,0,0,0,0,0c0,0.1,0.1,0.1,0.2,0.1c0.1,0,0.1,0.1,0.2,0.1h19.1
	c0.3,0,0.6-0.1,0.9-0.4c0.2-0.2,0.4-0.5,0.4-0.9v-5.7c0-0.3-0.1-0.6-0.4-0.9c0,0-0.1-0.1-0.1-0.1L53.4,38.4L53.4,38.4z"/>
<path class="st1" d="M49.9,30.5c0.1,0,0.1,0,0.2,0c0.1,0,0.1,0,0.2-0.1c0.1,0,0.1-0.1,0.1-0.2c0,0,0-0.1,0-0.1c0-0.1,0-0.1,0-0.1
	c0,0,0-0.1-0.1-0.1c0,0-0.1-0.1-0.1-0.1c-0.9-0.5-2.6-0.5-2.7-0.5c-0.1,0-0.2,0-0.3,0.1c-0.1,0.1-0.1,0.2-0.1,0.3
	c0,0.1,0,0.2,0.1,0.3c0.1,0.1,0.2,0.1,0.3,0.1C48,30.2,49.3,30.2,49.9,30.5z"/>
<path class="st1" d="M37.5,25.5C37.5,25.5,37.5,25.5,37.5,25.5c0.9-0.2,1.7-0.2,2.6-0.1c1.2,0.1,2.1,0.4,2.6,0.9
	c0.1,0.1,0.2,0.1,0.3,0.1c0.1,0,0.2,0,0.3-0.1c0,0,0.1-0.1,0.1-0.1c0,0,0,0,0,0c0,0,0,0,0,0c0,0,0,0,0,0c0,0,0,0,0-0.1
	c0-0.1,0-0.1,0-0.2c0,0,0-0.1-0.1-0.1c-1.5-1.5-4.6-1.2-5.8-1c-0.2,0-0.4,0.1-0.5,0.3c-0.1,0.1-0.2,0.3-0.2,0.5v0.9
	c0,0.1,0,0.2,0.1,0.3c0.1,0.1,0.2,0.1,0.3,0.1c0.1,0,0.2,0,0.3-0.1c0.1-0.1,0.1-0.2,0.1-0.3V25.5z"/>
<path class="st2" d="M29.2,35.9l-0.9,0.2l-0.8-0.3l1.1-0.5c-1.1-0.5-1.5-1.1-1.5-1.2l0,0c0-0.1,0-0.1,0-0.2c0,0,0,0,0-0.1
	c0,0,0,0,0-0.1c0,0,0,0,0-0.1c0.3-0.6,0.3-1.6,0.3-2.4c0-0.3,0-0.5,0-0.8c0.1-1.9,1.6-3.3,3.3-3.3s3.2,1.4,3.3,3.3
	c0,0.2,0,0.5,0,0.8c0,0.8,0.1,1.9,0.3,2.4c0,0,0,0.1,0,0.1c0,0,0,0.1,0,0.1c0,0.1,0,0.1,0,0.2c0,0-0.4,0.7-1.5,1.2l0.4,0.2
	c0.1-0.1,0.3-0.2,0.5-0.3l2.4-0.9c0-0.1,0-0.1,0-0.2c0-0.1,0-0.1,0.1-0.1l0.7-0.8V32c-0.5-0.5-1-1-1.2-1.6c-0.3-0.6-0.4-1.3-0.4-2
	v-0.9c-0.3-0.6-0.4-1.2-0.4-1.9v-0.8c0-1,0.4-1.9,1.1-2.6c0.7-0.7,1.7-1.1,2.6-1.1h5.9c0.1,0,0.1,0,0.1,0c0,0,0.1,0,0.1,0.1
	c0,0,0,0,0,0.1c0,0,0,0,0,0.1c0,0,0,0.1,0,0.1v4.2c0,0.7-0.1,1.3-0.4,1.9v1c0,0.6-0.1,1.2-0.4,1.8c-0.2,0.6-0.6,1.1-1.1,1.5
	c-0.1,0.1-0.2,0.1-0.2,0.2v1.3l0.7,0.8c0,0,0.1,0.1,0.1,0.1c0,0.1,0,0.1,0,0.2l2.3,0.8l0.8-0.2c0.3-0.1,0.3-0.1,0.3-0.2v-0.6
	c-0.4-0.3-0.7-0.7-0.9-1.1c-0.2-0.4-0.3-0.9-0.3-1.4v-0.6l-0.2-0.4c-0.1-0.3-0.2-0.6-0.2-0.9v0c0-0.7,0.3-1.3,0.7-1.8
	c0.5-0.5,1.1-0.7,1.8-0.7h3.8c0,0,0,0,0,0c0,0,0,0,0,0c0,0,0.1,0,0.1,0c0,0,0.1,0,0.1,0.1c0,0,0.1,0.1,0.1,0.1c0,0,0,0.1,0,0.1v2
	c0,0.4-0.1,0.8-0.3,1.1l-0.2,0.3v0.7c0,0.4-0.1,0.8-0.2,1.1c-0.2,0.4-0.4,0.7-0.7,1c-0.1,0.1-0.2,0.2-0.4,0.3v0.5c0,0,0,0.1,0,0.1
	c0,0,0.1,0,0.1,0.1l1.6,0.5c0.7,0.2,1.2,0.9,1.2,1.6v3.2c0,0,0,0.1,0,0.1c0,0,0,0.1,0,0.1c0,0,0,0,0,0c0,0,0,0,0,0.1
	c-0.1,0.1-0.2,0.1-0.3,0.1c-0.1,0-0.2,0-0.3-0.1c-0.1-0.1-0.1-0.2-0.1-0.3V37c0-0.2-0.1-0.4-0.2-0.5c-0.1-0.1-0.3-0.3-0.5-0.3
	l-1.6-0.5c-0.1,0-0.1,0-0.2-0.1l-1,1v3.6c0,0.1,0,0.2-0.1,0.3c-0.1,0.1-0.2,0.1-0.3,0.1s-0.2,0-0.3-0.1c-0.1-0.1-0.1-0.2-0.1-0.3
	v-3.6l-1-1c-0.1,0.1-0.2,0.1-0.4,0.1l-0.1,0c0.4,0.4,0.6,0.9,0.6,1.4v3c0,0.1,0,0.2-0.1,0.3c-0.1,0.1-0.2,0.1-0.3,0.1
	c-0.1,0-0.2,0-0.3-0.1c-0.1-0.1-0.1-0.2-0.1-0.3v-3c0-0.3-0.1-0.5-0.2-0.7c-0.2-0.2-0.4-0.4-0.6-0.5l-2.5-0.9l-1.1,1.6
	c-0.1,0.1-0.2,0.2-0.3,0.2C42,37,41.8,37,41.7,37c0,0-0.1,0-0.1,0c-0.1,0-0.2,0-0.3-0.1c-0.1,0-0.2-0.1-0.3-0.2l-0.6-0.6v4.1
	c0,0.1,0,0.2-0.1,0.3c-0.1,0.1-0.2,0.1-0.3,0.1c-0.1,0-0.2,0-0.3-0.1c-0.1-0.1-0.1-0.2-0.1-0.3v-4.1L39,36.8
	c-0.1,0.1-0.2,0.1-0.3,0.2c-0.1,0-0.2,0.1-0.3,0.1c0,0,0,0,0,0l0,0l0,0c0,0,0,0,0,0c-0.1,0-0.2,0-0.3-0.1c-0.1-0.1-0.2-0.1-0.3-0.2
	l-1.1-1.6L34.1,36c-0.2,0.1-0.5,0.3-0.6,0.5c-0.2,0.2-0.2,0.5-0.2,0.7v3L32.5,39v-1.8c0-0.4,0.1-0.8,0.3-1.1l-0.4-0.2L32,36.3
	c-0.3,0.3-0.7,0.5-1.1,0.5c-0.4,0-0.8-0.2-1.1-0.5L29.2,35.9z M47.9,35l0.9,0.9l0.9-0.9c0,0,0-0.1,0-0.1c0,0,0-0.1,0-0.1v-0.2
	c-0.3,0.1-0.6,0.1-0.9,0.1h-0.1c-0.3,0-0.5-0.1-0.8-0.1v0.2C48,34.9,47.9,34.9,47.9,35z M46.7,31v0.7l0,0c0,1.2,0.9,2.2,2.1,2.2
	c0.3,0,0.6,0,0.8-0.1c0.3-0.1,0.5-0.3,0.7-0.5c0.2-0.2,0.4-0.4,0.5-0.7c0.1-0.3,0.2-0.5,0.2-0.8V31c0,0,0-0.1,0-0.1c0,0,0-0.1,0-0.1
	l0.2-0.4c0.1-0.2,0.2-0.5,0.2-0.8v-1.6H48c-0.5,0-0.9,0.2-1.2,0.5c-0.3,0.3-0.5,0.8-0.5,1.2v0c0,0.2,0,0.4,0.1,0.6l0.2,0.5
	C46.7,30.9,46.7,31,46.7,31z M38.4,36.3C38.4,36.3,38.4,36.3,38.4,36.3l1-1L37.6,34l-0.4,0.4L38.4,36.3
	C38.4,36.2,38.4,36.2,38.4,36.3C38.4,36.3,38.4,36.3,38.4,36.3C38.4,36.3,38.4,36.3,38.4,36.3z M37.9,33.3l2.1,1.4l2.1-1.4v-0.7
	c-0.7,0.3-1.4,0.5-2.1,0.5c-0.1,0-0.2,0-0.3,0c-0.6,0-1.3-0.2-1.8-0.5V33.3z M41.7,36.3C41.7,36.3,41.7,36.2,41.7,36.3l1.2-1.8
	L42.5,34l-1.8,1.3L41.7,36.3L41.7,36.3L41.7,36.3C41.6,36.3,41.6,36.3,41.7,36.3C41.6,36.3,41.6,36.3,41.7,36.3z M36.2,27.4v1
	c0,2.1,1.6,3.8,3.5,3.9c0.9,0.1,1.8-0.2,2.5-0.8l0,0c0.1-0.1,0.2-0.2,0.3-0.3c0.4-0.4,0.7-0.8,0.9-1.3c0.2-0.5,0.3-1,0.3-1.5v-1.1
	c0-0.1,0-0.1,0-0.2c0.3-0.5,0.4-1.1,0.4-1.6v-3.8h-5.5c-0.8,0-1.5,0.3-2.1,0.9c-0.6,0.6-0.9,1.3-0.9,2.1v0.8c0,0.6,0.1,1.1,0.4,1.6
	C36.2,27.3,36.2,27.3,36.2,27.4z M30.8,36c0.2,0,0.4-0.1,0.6-0.2l0.4-0.3c-0.1-0.1-0.1-0.3-0.1-0.4v-0.4c-0.3,0.1-0.6,0.1-0.9,0.1
	c-0.3,0-0.6,0-0.9-0.1v0.4c0,0.1,0,0.3-0.1,0.4l0.4,0.3C30.4,35.9,30.6,36,30.8,36z M32.5,34.7c0.7-0.3,1.1-0.6,1.3-0.8v0
	c-0.1-0.3-0.2-0.6-0.2-0.9c-0.2,0.5-0.6,1-1,1.3V34.7z M28.3,30.6c0,0.2,0,0.5,0,0.7c0,0,0,0,0,0c0,0,0,0,0,0.1c0,0,0,0,0.1,0
	c0,0,0.1,0,0.1,0c0,0,0,0,0,0c0,0,0,0,0,0c0,0,0.1,0,0.1,0.1c0,0,0.1,0.1,0.1,0.1c0,0,0,0.1,0,0.1c0,0,0,0,0,0c0,0,0,0,0,0
	c0,0.5,0.2,1,0.6,1.4c0.4,0.4,0.9,0.6,1.4,0.7c0.5,0,1.1-0.1,1.5-0.5c0.4-0.3,0.7-0.8,0.8-1.3c-0.6-1.4-2.3-1.6-2.8-1.6l-0.6,0.6
	c0,0-0.1,0.1-0.1,0.1c0,0-0.1,0-0.1,0c-0.1,0-0.1,0-0.2,0c0,0-0.1,0-0.1-0.1s-0.1-0.1-0.1-0.1c0,0,0-0.1,0-0.1l0,0c0,0,0,0,0,0
	c0,0,0,0,0,0c0,0,0,0,0,0c0,0,0,0,0,0c0,0,0,0,0,0c0,0,0-0.1,0.1-0.1l0.7-0.7c0,0,0.1-0.1,0.1-0.1c0,0,0.1,0,0.1,0
	c0.5,0,1,0.1,1.5,0.2c0.8,0.3,1.5,0.8,1.9,1.4v-0.1c0-0.3,0-0.5,0-0.7c0-0.7-0.3-1.3-0.8-1.8c-0.2-0.2-0.5-0.4-0.8-0.5
	c-0.3-0.1-0.6-0.2-0.9-0.2s-0.6,0.1-0.9,0.2c-0.3,0.1-0.6,0.3-0.8,0.5C28.6,29.3,28.3,30,28.3,30.6z M28.1,33c0,0.3-0.1,0.6-0.2,0.9
	c0.2,0.2,0.5,0.5,1.3,0.8v-0.5C28.7,33.9,28.4,33.5,28.1,33z"/>
<path class="st1" d="M46.9,46c0.5,0,0.8-0.4,0.8-0.8s-0.4-0.8-0.8-0.8c-0.5,0-0.8,0.4-0.8,0.8S46.4,46,46.9,46z"/>
<path class="st1" d="M50.8,45.2c0,0.5-0.4,0.8-0.8,0.8c-0.5,0-0.8-0.4-0.8-0.8s0.4-0.8,0.8-0.8C50.4,44.3,50.8,44.7,50.8,45.2z"/>
<path class="st1" d="M43.7,46c0.5,0,0.8-0.4,0.8-0.8c0-0.5-0.4-0.8-0.8-0.8c-0.5,0-0.8,0.4-0.8,0.8C42.8,45.6,43.2,46,43.7,46z"/>
<path class="st1" d="M34.7,41.1h17.9c0.3,0,0.6,0.1,0.9,0.4c0.2,0.2,0.4,0.5,0.4,0.9V48c0,0.3-0.1,0.6-0.4,0.9
	c-0.2,0.2-0.5,0.4-0.9,0.4H33.6c-0.1,0-0.1,0-0.2-0.1c-0.1,0-0.1-0.1-0.2-0.1c0-0.1-0.1-0.1-0.1-0.2c0-0.1,0-0.1,0-0.2l0,0
	c0-0.1,0.1-0.2,0.2-0.2c0.1-0.1,0.2-0.1,0.3-0.1h19.1c0.1,0,0.2,0,0.2-0.1c0.1-0.1,0.1-0.1,0.1-0.2v-5.7c0-0.1,0-0.2-0.1-0.2
	C52.8,42,52.7,42,52.6,42H34.7c0,0,0,0-0.1,0c-0.1,0-0.1,0-0.2,0c-0.1,0-0.1-0.1-0.2-0.1l0,0c0-0.1-0.1-0.1-0.1-0.2
	c0-0.1,0-0.2,0.1-0.2c0-0.1,0.1-0.1,0.2-0.2C34.6,41.1,34.7,41.1,34.7,41.1z"/>
<path class="st1" d="M30,45.6l0,0.2c-0.1,0.2-0.1,0.4-0.2,0.6c-0.1,0.4-0.3,1-0.5,1.6l-2.4-7.3c0.1,0,0.2,0,0.4,0c0,0,0,0,0.1,0
	c0,0,0.1,0,0.1,0c0.1,0,0.2,0,0.2,0c0.2,0,0.3-0.1,0.3-0.3c0,0,0-0.1,0-0.1c0,0,0,0,0,0c0,0,0,0,0,0c-0.1,0-0.1-0.1-0.2-0.1
	c-0.7,0-1.2,0.1-1.5,0.1c-0.4,0-0.7,0-1.1,0l-0.7-0.1l-0.3,0c0,0,0,0-0.1,0c0,0,0,0,0,0c0,0,0,0,0,0c0,0-0.1,0-0.1,0
	c-0.1,0-0.1,0.1-0.1,0.2c0,0,0,0,0,0c0,0,0,0,0,0.1c0,0,0,0,0,0.1c0,0,0,0,0,0c0,0,0,0.1,0.1,0.1c0,0,0,0,0,0c0,0,0,0,0,0
	c0,0,0,0,0,0c0,0,0,0,0,0l0,0c0,0,0.1,0,0.2,0c0.1,0,0.3,0,0.5,0.1l1.1,2.9l-1.5,4.4l-2.5-7.3c0.1,0,0.3,0,0.4,0c0.1,0,0.3,0,0.4,0
	c0.2,0,0.3-0.1,0.3-0.3c0-0.1-0.1-0.1-0.1-0.2c0,0,0,0-0.1,0c0,0-0.1,0-0.1,0c-0.4,0.1-0.8,0.1-1.2,0.1c-0.4,0-0.7,0-1,0
	c0.6-0.9,1.4-1.7,2.4-2.2c1-0.6,2.1-0.8,3.2-0.8c0.9,0,1.7,0.2,2.5,0.5c0.8,0.3,1.5,0.8,2.1,1.3c-0.2,0-0.4,0-0.6,0.1
	c-0.2,0.1-0.4,0.3-0.5,0.5c-0.1,0.2-0.1,0.5-0.1,0.7c0,0.3,0.1,0.5,0.2,0.7c0.1,0.2,0.2,0.5,0.4,0.7c0.1,0.2,0.2,0.4,0.3,0.5
	c0.2,0.3,0.3,0.7,0.3,1c0,0.4,0,0.9-0.2,1.3c0,0.2-0.1,0.5-0.2,0.8l0,0.1L30,45.6z"/>
<path class="st1" d="M31.9,41.3L31.9,41.3C31.9,41.2,31.9,41.2,31.9,41.3c0-0.2,0-0.3,0-0.5c0.8,1.5,1,3.3,0.5,5
	c-0.2,0.6-0.4,1.1-0.7,1.6c-0.3,0.5-0.7,1-1.1,1.4c-0.4,0.4-0.9,0.8-1.4,1.1c0.1-0.2,0.2-0.5,0.3-1c0.2-0.5,0.3-1,0.5-1.5
	c0.2-0.5,0.3-1,0.5-1.5c0-0.1,0.1-0.2,0.1-0.3c0.1-0.3,0.2-0.6,0.2-0.7c0.1-0.3,0.2-0.6,0.3-1c0.1-0.2,0.1-0.4,0.2-0.6
	c0.2-0.6,0.3-1.2,0.4-1.8C31.9,41.5,31.9,41.4,31.9,41.3L31.9,41.3z"/>
<path class="st1" d="M19.2,44c0,0.7,0.1,1.3,0.3,1.9c0.2,0.6,0.4,1.2,0.8,1.7c0.3,0.5,0.7,1,1.2,1.4c0.5,0.4,1,0.8,1.5,1l-3.2-8.9
	C19.4,42.1,19.2,43.1,19.2,44z"/>
<path class="st1" d="M24.9,50.7c-0.3,0-0.6-0.1-0.9-0.2l2-5.9l2.1,5.8C27.1,50.8,26,50.9,24.9,50.7z"/>
<path class="st2" d="M31.5,38.3c0.7,0.7,1.3,1.6,1.7,2.5v0c0.4,1,0.6,2,0.6,3.1s-0.2,2.1-0.6,3.1c-0.8,1.9-2.3,3.5-4.2,4.3
	c-1,0.4-2,0.6-3.1,0.6c-1.1,0-2.1-0.2-3.1-0.6c-0.9-0.4-1.8-1-2.5-1.7c-0.7-0.7-1.3-1.6-1.7-2.6c-0.4-1-0.6-2-0.6-3.1
	c0-1.1,0.2-2.1,0.6-3.1c0.8-1.9,2.3-3.4,4.2-4.3c1-0.4,2-0.6,3.1-0.6c1.1,0,2.1,0.2,3.1,0.6C29.9,37,30.8,37.6,31.5,38.3z
	 M28.8,50.9c1.8-0.8,3.2-2.2,3.9-4c0.4-0.9,0.6-1.9,0.6-2.9s-0.2-2-0.6-2.9c-0.4-0.9-0.9-1.7-1.6-2.4c-0.7-0.7-1.5-1.2-2.3-1.6
	c-0.9-0.4-1.9-0.6-2.9-0.6c-1,0-2,0.2-2.9,0.6c-0.9,0.4-1.7,0.9-2.3,1.6c-0.7,0.7-1.2,1.5-1.6,2.4C18.7,42,18.5,43,18.5,44
	s0.2,2,0.6,2.9c0.8,1.8,2.2,3.2,3.9,4c0.9,0.4,1.9,0.6,2.9,0.6C26.9,51.4,27.9,51.2,28.8,50.9z"/>
<radialGradient id="SVGID_2_" cx="-254.5146" cy="565.0833" r="1" gradientTransform="matrix(20.9684 4.94 4.3877 -18.624 2891.0796 11877.6455)" gradientUnits="userSpaceOnUse">
	<stop  offset="0" style="stop-color:#A644E5"/>
	<stop  offset="1" style="stop-color:#A644E5;stop-opacity:0"/>
</radialGradient>
<path class="st3" d="M53.4,94.4V93c0-0.7-0.5-1.4-1.2-1.6L50.6,91c0,0-0.1,0-0.1-0.1s0-0.1,0-0.1v-0.5c0.1-0.1,0.3-0.2,0.4-0.3
	c0.3-0.3,0.5-0.6,0.7-1c0.2-0.4,0.2-0.7,0.2-1.1v-0.7l0.2-0.3c0.2-0.3,0.3-0.7,0.3-1.1v-2c0-0.1,0-0.1,0-0.1c0,0,0-0.1-0.1-0.1
	c0,0-0.1-0.1-0.1-0.1c0,0-0.1,0-0.1,0c0,0,0,0,0,0c0,0,0,0,0,0H48c-0.7,0-1.3,0.3-1.8,0.7c-0.5,0.5-0.7,1.1-0.7,1.8v0
	c0,0.3,0.1,0.6,0.2,0.9l0.2,0.4v0.6c0,0.5,0.1,1,0.3,1.4c0.2,0.4,0.5,0.8,0.9,1.1v0.6c0,0.1,0,0.1-0.3,0.2l-0.8,0.2l-2.3-0.8
	c0-0.1,0-0.1,0-0.2c0-0.1,0-0.1-0.1-0.1l-0.7-0.8v-1.3c0.1-0.1,0.2-0.1,0.2-0.2c0.5-0.4,0.8-0.9,1.1-1.5c0.2-0.6,0.4-1.2,0.4-1.8v-1
	c0.3-0.6,0.4-1.2,0.4-1.9v-4.2c0-0.1,0-0.1,0-0.1c0,0,0,0,0-0.1c0,0,0,0,0-0.1c0,0-0.1-0.1-0.1-0.1c0,0-0.1,0-0.1,0h-5.9
	c-1,0-1.9,0.4-2.6,1.1c-0.7,0.7-1.1,1.7-1.1,2.6v0.8c0,0.7,0.1,1.3,0.4,1.9v0.9c0,0.7,0.1,1.4,0.4,2c0.3,0.6,0.7,1.2,1.2,1.6v1.3
	l-0.7,0.8c0,0-0.1,0.1-0.1,0.1c0,0.1,0,0.1,0,0.2l-2.4,0.9c-0.2,0.1-0.3,0.1-0.5,0.3L33,91.3c1.1-0.5,1.5-1.2,1.5-1.2
	c0-0.1,0-0.1,0-0.2c0,0,0-0.1,0-0.1c0,0,0-0.1,0-0.1c-0.3-0.6-0.3-1.6-0.3-2.4c0-0.3,0-0.5,0-0.8c-0.1-1.9-1.6-3.3-3.3-3.3
	s-3.2,1.4-3.3,3.3c0,0.2,0,0.5,0,0.8c0,0.8-0.1,1.9-0.3,2.4c0,0,0,0,0,0.1c0,0,0,0,0,0.1c0,0,0,0,0,0.1c0,0.1,0,0.1,0,0.2l0,0
	c0,0.1,0.4,0.7,1.5,1.2l-0.9,0.6c-0.1,0.1-0.2,0.2-0.3,0.2c-0.5-0.1-1-0.2-1.6-0.2c-1.1,0-2.1,0.2-3.1,0.6c-1.9,0.8-3.4,2.3-4.2,4.3
	c-0.4,1-0.6,2-0.6,3.1s0.2,2.1,0.6,3.1c0.4,1,1,1.8,1.7,2.6c0.7,0.7,1.6,1.3,2.5,1.7c1,0.4,2,0.6,3.1,0.6c1.1,0,2.1-0.2,3.1-0.6
	c1.2-0.5,2.3-1.3,3.1-2.4h1.1c0,0,0,0,0,0c0,0.1,0.1,0.1,0.2,0.1c0.1,0,0.1,0.1,0.2,0.1h19.1c0.3,0,0.6-0.1,0.9-0.4
	c0.2-0.2,0.4-0.5,0.4-0.9v-5.7c0-0.3-0.1-0.6-0.4-0.9c0,0-0.1-0.1-0.1-0.1L53.4,94.4L53.4,94.4z"/>
<path class="st4" d="M49.9,86.5c0.1,0,0.1,0,0.2,0c0.1,0,0.1,0,0.2-0.1c0.1,0,0.1-0.1,0.1-0.2c0,0,0-0.1,0-0.1c0-0.1,0-0.1,0-0.1
	c0,0,0-0.1-0.1-0.1c0,0-0.1-0.1-0.1-0.1c-0.9-0.5-2.6-0.5-2.7-0.5c-0.1,0-0.2,0-0.3,0.1c-0.1,0.1-0.1,0.2-0.1,0.3
	c0,0.1,0,0.2,0.1,0.3c0.1,0.1,0.2,0.1,0.3,0.1C48,86.2,49.3,86.2,49.9,86.5z"/>
<path class="st4" d="M37.5,81.5C37.5,81.5,37.5,81.5,37.5,81.5c0.9-0.2,1.7-0.2,2.6-0.1c1.2,0.1,2.1,0.4,2.6,0.9
	c0.1,0.1,0.2,0.1,0.3,0.1c0.1,0,0.2,0,0.3-0.1c0,0,0.1-0.1,0.1-0.1c0,0,0,0,0,0c0,0,0,0,0,0c0,0,0,0,0,0c0,0,0,0,0-0.1
	c0-0.1,0-0.1,0-0.2c0,0,0-0.1-0.1-0.1c-1.5-1.5-4.6-1.2-5.8-1c-0.2,0-0.4,0.1-0.5,0.3c-0.1,0.1-0.2,0.3-0.2,0.5v0.9
	c0,0.1,0,0.2,0.1,0.3c0.1,0.1,0.2,0.1,0.3,0.1c0.1,0,0.2,0,0.3-0.1c0.1-0.1,0.1-0.2,0.1-0.3V81.5z"/>
<path class="st5" d="M29.2,91.9l-0.9,0.2l-0.8-0.3l1.1-0.5c-1.1-0.5-1.5-1.1-1.5-1.2l0,0c0-0.1,0-0.1,0-0.2c0,0,0,0,0-0.1
	c0,0,0,0,0-0.1c0,0,0,0,0-0.1c0.3-0.6,0.3-1.6,0.3-2.4c0-0.3,0-0.5,0-0.8c0.1-1.9,1.6-3.3,3.3-3.3s3.2,1.4,3.3,3.3
	c0,0.2,0,0.5,0,0.8c0,0.8,0.1,1.9,0.3,2.4c0,0,0,0.1,0,0.1c0,0,0,0.1,0,0.1c0,0.1,0,0.1,0,0.2c0,0-0.4,0.7-1.5,1.2l0.4,0.2
	c0.1-0.1,0.3-0.2,0.5-0.3l2.4-0.9c0-0.1,0-0.1,0-0.2c0-0.1,0-0.1,0.1-0.1l0.7-0.8V88c-0.5-0.5-1-1-1.2-1.6c-0.3-0.6-0.4-1.3-0.4-2
	v-0.9c-0.3-0.6-0.4-1.2-0.4-1.9v-0.8c0-1,0.4-1.9,1.1-2.6c0.7-0.7,1.7-1.1,2.6-1.1h5.9c0.1,0,0.1,0,0.1,0c0,0,0.1,0,0.1,0.1
	c0,0,0,0,0,0.1c0,0,0,0,0,0.1c0,0,0,0.1,0,0.1v4.2c0,0.7-0.1,1.3-0.4,1.9v1c0,0.6-0.1,1.2-0.4,1.8c-0.2,0.6-0.6,1.1-1.1,1.5
	c-0.1,0.1-0.2,0.1-0.2,0.2v1.3l0.7,0.8c0,0,0.1,0.1,0.1,0.1c0,0.1,0,0.1,0,0.2l2.3,0.8l0.8-0.2c0.3-0.1,0.3-0.1,0.3-0.2v-0.6
	c-0.4-0.3-0.7-0.7-0.9-1.1c-0.2-0.4-0.3-0.9-0.3-1.4v-0.6l-0.2-0.4c-0.1-0.3-0.2-0.6-0.2-0.9v0c0-0.7,0.3-1.3,0.7-1.8
	c0.5-0.5,1.1-0.7,1.8-0.7h3.8c0,0,0,0,0,0c0,0,0,0,0,0c0,0,0.1,0,0.1,0c0,0,0.1,0,0.1,0.1c0,0,0.1,0.1,0.1,0.1c0,0,0,0.1,0,0.1v2
	c0,0.4-0.1,0.8-0.3,1.1l-0.2,0.3v0.7c0,0.4-0.1,0.8-0.2,1.1c-0.2,0.4-0.4,0.7-0.7,1c-0.1,0.1-0.2,0.2-0.4,0.3v0.5c0,0,0,0.1,0,0.1
	s0.1,0,0.1,0.1l1.6,0.5c0.7,0.2,1.2,0.9,1.2,1.6v3.2c0,0,0,0.1,0,0.1c0,0,0,0.1,0,0.1c0,0,0,0,0,0c0,0,0,0,0,0.1
	c-0.1,0.1-0.2,0.1-0.3,0.1c-0.1,0-0.2,0-0.3-0.1c-0.1-0.1-0.1-0.2-0.1-0.3V93c0-0.2-0.1-0.4-0.2-0.5c-0.1-0.2-0.3-0.3-0.5-0.3
	l-1.6-0.5c-0.1,0-0.1,0-0.2-0.1l-1,1v3.6c0,0.1,0,0.2-0.1,0.3c-0.1,0.1-0.2,0.1-0.3,0.1s-0.2,0-0.3-0.1c-0.1-0.1-0.1-0.2-0.1-0.3
	v-3.6l-1-1c-0.1,0.1-0.2,0.1-0.4,0.1l-0.1,0c0.4,0.4,0.6,0.9,0.6,1.4v3c0,0.1,0,0.2-0.1,0.3c-0.1,0.1-0.2,0.1-0.3,0.1
	c-0.1,0-0.2,0-0.3-0.1c-0.1-0.1-0.1-0.2-0.1-0.3v-3c0-0.3-0.1-0.5-0.2-0.7c-0.2-0.2-0.4-0.4-0.6-0.5l-2.5-0.9l-1.1,1.6
	c-0.1,0.1-0.2,0.2-0.3,0.2C42,93,41.8,93,41.7,93c0,0-0.1,0-0.1,0c-0.1,0-0.2,0-0.3-0.1c-0.1,0-0.2-0.1-0.3-0.2l-0.6-0.6v4.1
	c0,0.1,0,0.2-0.1,0.3c-0.1,0.1-0.2,0.1-0.3,0.1c-0.1,0-0.2,0-0.3-0.1c-0.1-0.1-0.1-0.2-0.1-0.3v-4.1L39,92.8
	c-0.1,0.1-0.2,0.1-0.3,0.2c-0.1,0-0.2,0.1-0.3,0.1c0,0,0,0,0,0l0,0l0,0c0,0,0,0,0,0c-0.1,0-0.2,0-0.3-0.1c-0.1-0.1-0.2-0.1-0.3-0.2
	l-1.1-1.6L34.1,92c-0.2,0.1-0.5,0.3-0.6,0.5c-0.2,0.2-0.2,0.5-0.2,0.7v3L32.5,95v-1.8c0-0.4,0.1-0.8,0.3-1.1l-0.4-0.2L32,92.3
	c-0.3,0.3-0.7,0.5-1.1,0.5c-0.4,0-0.8-0.2-1.1-0.5L29.2,91.9z M47.9,91l0.9,0.9l0.9-0.9c0,0,0-0.1,0-0.1c0,0,0-0.1,0-0.1v-0.2
	c-0.3,0.1-0.6,0.1-0.9,0.1h-0.1c-0.3,0-0.5-0.1-0.8-0.1v0.2C48,90.9,47.9,90.9,47.9,91z M46.7,87v0.7l0,0c0,1.2,0.9,2.2,2.1,2.2
	c0.3,0,0.6,0,0.8-0.1c0.3-0.1,0.5-0.3,0.7-0.5c0.2-0.2,0.4-0.4,0.5-0.7c0.1-0.3,0.2-0.5,0.2-0.8V87c0,0,0-0.1,0-0.1c0,0,0-0.1,0-0.1
	l0.2-0.4c0.1-0.2,0.2-0.5,0.2-0.8v-1.6H48c-0.5,0-0.9,0.2-1.2,0.5c-0.3,0.3-0.5,0.8-0.5,1.2v0c0,0.2,0,0.4,0.1,0.6l0.2,0.5
	C46.7,86.9,46.7,87,46.7,87z M38.4,92.3C38.4,92.3,38.4,92.3,38.4,92.3l1-1L37.6,90l-0.4,0.4L38.4,92.3
	C38.4,92.2,38.4,92.2,38.4,92.3C38.4,92.3,38.4,92.3,38.4,92.3C38.4,92.3,38.4,92.3,38.4,92.3z M37.9,89.3l2.1,1.4l2.1-1.4v-0.7
	c-0.7,0.3-1.4,0.5-2.1,0.5c-0.1,0-0.2,0-0.3,0c-0.6,0-1.3-0.2-1.8-0.5V89.3z M41.7,92.3C41.7,92.3,41.7,92.2,41.7,92.3l1.2-1.8
	L42.5,90l-1.8,1.3L41.7,92.3L41.7,92.3L41.7,92.3C41.6,92.3,41.6,92.3,41.7,92.3C41.6,92.3,41.6,92.3,41.7,92.3z M36.2,83.4v1
	c0,2.1,1.6,3.8,3.5,3.9c0.9,0.1,1.8-0.2,2.5-0.8l0,0c0.1-0.1,0.2-0.2,0.3-0.3c0.4-0.4,0.7-0.8,0.9-1.3c0.2-0.5,0.3-1,0.3-1.5v-1.1
	c0-0.1,0-0.1,0-0.2c0.3-0.5,0.4-1.1,0.4-1.6v-3.8h-5.5c-0.8,0-1.5,0.3-2.1,0.9c-0.6,0.6-0.9,1.3-0.9,2.1v0.8c0,0.6,0.1,1.1,0.4,1.6
	C36.2,83.3,36.2,83.3,36.2,83.4z M30.8,92c0.2,0,0.4-0.1,0.6-0.2l0.4-0.3c-0.1-0.1-0.1-0.3-0.1-0.4v-0.4c-0.3,0.1-0.6,0.1-0.9,0.1
	c-0.3,0-0.6,0-0.9-0.1v0.4c0,0.1,0,0.3-0.1,0.4l0.4,0.3C30.4,91.9,30.6,92,30.8,92z M32.5,90.7c0.7-0.3,1.1-0.6,1.3-0.8v0
	c-0.1-0.3-0.2-0.6-0.2-0.9c-0.2,0.5-0.6,1-1,1.3V90.7z M28.3,86.6c0,0.2,0,0.5,0,0.7c0,0,0,0,0,0c0,0,0,0,0,0.1c0,0,0,0,0.1,0
	c0,0,0.1,0,0.1,0c0,0,0,0,0,0c0,0,0,0,0,0c0,0,0.1,0,0.1,0.1c0,0,0.1,0.1,0.1,0.1c0,0,0,0.1,0,0.1c0,0,0,0,0,0c0,0,0,0,0,0
	c0,0.5,0.2,1,0.6,1.4c0.4,0.4,0.9,0.6,1.4,0.7c0.5,0,1.1-0.1,1.5-0.5c0.4-0.3,0.7-0.8,0.8-1.3c-0.6-1.4-2.3-1.6-2.8-1.6l-0.6,0.6
	c0,0-0.1,0.1-0.1,0.1c0,0-0.1,0-0.1,0c-0.1,0-0.1,0-0.2,0c0,0-0.1,0-0.1-0.1s-0.1-0.1-0.1-0.1c0,0,0-0.1,0-0.1l0,0c0,0,0,0,0,0
	c0,0,0,0,0,0c0,0,0,0,0,0c0,0,0,0,0,0c0,0,0,0,0,0c0,0,0-0.1,0.1-0.1l0.7-0.7c0,0,0.1-0.1,0.1-0.1c0,0,0.1,0,0.1,0
	c0.5,0,1,0.1,1.5,0.2c0.8,0.3,1.5,0.8,1.9,1.4v-0.1c0-0.3,0-0.5,0-0.7c0-0.7-0.3-1.3-0.8-1.8c-0.2-0.2-0.5-0.4-0.8-0.5
	c-0.3-0.1-0.6-0.2-0.9-0.2s-0.6,0.1-0.9,0.2c-0.3,0.1-0.6,0.3-0.8,0.5C28.6,85.3,28.3,86,28.3,86.6z M28.1,89c0,0.3-0.1,0.6-0.2,0.9
	c0.2,0.2,0.5,0.5,1.3,0.8v-0.5C28.7,89.9,28.4,89.5,28.1,89z"/>
<path class="st4" d="M46.9,102c0.5,0,0.8-0.4,0.8-0.8c0-0.5-0.4-0.8-0.8-0.8c-0.5,0-0.8,0.4-0.8,0.8C46.1,101.6,46.4,102,46.9,102z"
	/>
<path class="st4" d="M50.8,101.2c0,0.5-0.4,0.8-0.8,0.8c-0.5,0-0.8-0.4-0.8-0.8c0-0.5,0.4-0.8,0.8-0.8
	C50.4,100.3,50.8,100.7,50.8,101.2z"/>
<path class="st4" d="M43.7,102c0.5,0,0.8-0.4,0.8-0.8c0-0.5-0.4-0.8-0.8-0.8c-0.5,0-0.8,0.4-0.8,0.8C42.8,101.6,43.2,102,43.7,102z"
	/>
<path class="st4" d="M34.7,97.1h17.9c0.3,0,0.6,0.1,0.9,0.4c0.2,0.2,0.4,0.5,0.4,0.9v5.7c0,0.3-0.1,0.6-0.4,0.9
	c-0.2,0.2-0.5,0.4-0.9,0.4H33.6c-0.1,0-0.1,0-0.2-0.1c-0.1,0-0.1-0.1-0.2-0.1c0-0.1-0.1-0.1-0.1-0.2c0-0.1,0-0.1,0-0.2l0,0
	c0-0.1,0.1-0.2,0.2-0.2c0.1-0.1,0.2-0.1,0.3-0.1h19.1c0.1,0,0.2,0,0.2-0.1c0.1-0.1,0.1-0.1,0.1-0.2v-5.7c0-0.1,0-0.2-0.1-0.2
	C52.8,98,52.7,98,52.6,98H34.7c0,0,0,0-0.1,0c-0.1,0-0.1,0-0.2,0c-0.1,0-0.1-0.1-0.2-0.1l0,0c0-0.1-0.1-0.1-0.1-0.2
	c0-0.1,0-0.2,0.1-0.2c0-0.1,0.1-0.1,0.2-0.2C34.6,97.1,34.7,97.1,34.7,97.1z"/>
<path class="st4" d="M30,101.6l0,0.2c-0.1,0.2-0.1,0.4-0.2,0.6c-0.1,0.4-0.3,1-0.5,1.6l-2.4-7.3c0.1,0,0.2,0,0.4,0c0,0,0,0,0.1,0
	c0,0,0.1,0,0.1,0c0.1,0,0.2,0,0.2,0c0.2,0,0.3-0.1,0.3-0.3c0,0,0-0.1,0-0.1c0,0,0,0,0,0c0,0,0,0,0,0c-0.1,0-0.1-0.1-0.2-0.1
	c-0.7,0-1.2,0.1-1.5,0.1c-0.4,0-0.7,0-1.1,0l-0.7-0.1l-0.3,0c0,0,0,0-0.1,0c0,0,0,0,0,0c0,0,0,0,0,0c0,0-0.1,0-0.1,0
	c-0.1,0-0.1,0.1-0.1,0.2c0,0,0,0,0,0c0,0,0,0,0,0.1c0,0,0,0,0,0.1c0,0,0,0,0,0c0,0,0,0.1,0.1,0.1c0,0,0,0,0,0c0,0,0,0,0,0
	c0,0,0,0,0,0c0,0,0,0,0,0l0,0c0,0,0.1,0,0.2,0c0.1,0,0.3,0,0.5,0.1l1.1,2.9l-1.5,4.4l-2.5-7.3c0.1,0,0.3,0,0.4,0c0.1,0,0.3,0,0.4,0
	c0.2,0,0.3-0.1,0.3-0.3c0-0.1-0.1-0.1-0.1-0.2c0,0,0,0-0.1,0c0,0-0.1,0-0.1,0c-0.4,0.1-0.8,0.1-1.2,0.1c-0.4,0-0.7,0-1,0
	c0.6-0.9,1.4-1.7,2.4-2.2c1-0.6,2.1-0.8,3.2-0.8c0.9,0,1.7,0.2,2.5,0.5c0.8,0.3,1.5,0.8,2.1,1.3c-0.2,0-0.4,0-0.6,0.1
	c-0.2,0.1-0.4,0.3-0.5,0.5c-0.1,0.2-0.1,0.5-0.1,0.7c0,0.3,0.1,0.5,0.2,0.7c0.1,0.2,0.2,0.5,0.4,0.7c0.1,0.2,0.2,0.4,0.3,0.5
	c0.2,0.3,0.3,0.7,0.3,1c0,0.4,0,0.9-0.2,1.3c0,0.2-0.1,0.5-0.2,0.8l0,0.1L30,101.6z"/>
<path class="st4" d="M31.9,97.3L31.9,97.3C31.9,97.2,31.9,97.2,31.9,97.3c0-0.2,0-0.3,0-0.5c0.8,1.5,1,3.3,0.5,5
	c-0.2,0.6-0.4,1.1-0.7,1.6c-0.3,0.5-0.7,1-1.1,1.4c-0.4,0.4-0.9,0.8-1.4,1.1c0.1-0.2,0.2-0.5,0.3-1c0.2-0.5,0.3-1,0.5-1.5
	c0.2-0.5,0.3-1,0.5-1.5c0-0.1,0.1-0.2,0.1-0.3c0.1-0.3,0.2-0.6,0.2-0.7c0.1-0.3,0.2-0.6,0.3-1c0.1-0.2,0.1-0.4,0.2-0.6
	c0.2-0.6,0.3-1.2,0.4-1.8C31.9,97.5,31.9,97.4,31.9,97.3L31.9,97.3z"/>
<path class="st4" d="M19.2,100c0,0.7,0.1,1.3,0.3,1.9c0.2,0.6,0.4,1.2,0.8,1.7c0.3,0.5,0.7,1,1.2,1.4c0.5,0.4,1,0.8,1.5,1l-3.2-8.9
	C19.4,98.1,19.2,99.1,19.2,100z"/>
<path class="st4" d="M24.9,106.7c-0.3,0-0.6-0.1-0.9-0.2l2-5.9l2.1,5.8C27.1,106.8,26,106.9,24.9,106.7z"/>
<path class="st5" d="M31.5,94.3c0.7,0.7,1.3,1.6,1.7,2.5v0c0.4,1,0.6,2,0.6,3.1c0,1.1-0.2,2.1-0.6,3.1c-0.8,1.9-2.3,3.5-4.2,4.3
	c-1,0.4-2,0.6-3.1,0.6c-1.1,0-2.1-0.2-3.1-0.6c-0.9-0.4-1.8-1-2.5-1.7c-0.7-0.7-1.3-1.6-1.7-2.6c-0.4-1-0.6-2-0.6-3.1
	s0.2-2.1,0.6-3.1c0.8-1.9,2.3-3.4,4.2-4.3c1-0.4,2-0.6,3.1-0.6c1.1,0,2.1,0.2,3.1,0.6C29.9,93,30.8,93.6,31.5,94.3z M28.8,106.9
	c1.8-0.8,3.2-2.2,3.9-4c0.4-0.9,0.6-1.9,0.6-2.9s-0.2-2-0.6-2.9c-0.4-0.9-0.9-1.7-1.6-2.4c-0.7-0.7-1.5-1.2-2.3-1.6
	c-0.9-0.4-1.9-0.6-2.9-0.6c-1,0-2,0.2-2.9,0.6c-0.9,0.4-1.7,0.9-2.3,1.6c-0.7,0.7-1.2,1.5-1.6,2.4c-0.4,0.9-0.6,1.9-0.6,2.9
	c0,1,0.2,2,0.6,2.9c0.8,1.8,2.2,3.2,3.9,4c0.9,0.4,1.9,0.6,2.9,0.6C26.9,107.4,27.9,107.2,28.8,106.9z"/>
<radialGradient id="SVGID_3_" cx="-254.5146" cy="565.0833" r="1" gradientTransform="matrix(20.9684 4.94 4.3877 -18.624 2891.0796 11933.6455)" gradientUnits="userSpaceOnUse">
	<stop  offset="0" style="stop-color:#00CAAA"/>
	<stop  offset="1" style="stop-color:#00CAAA;stop-opacity:0"/>
</radialGradient>
<path class="st6" d="M53.4,150.4V149c0-0.7-0.5-1.4-1.2-1.6l-1.6-0.5c0,0-0.1,0-0.1-0.1c0,0,0-0.1,0-0.1v-0.5
	c0.1-0.1,0.3-0.2,0.4-0.3c0.3-0.3,0.5-0.6,0.7-1c0.2-0.4,0.2-0.7,0.2-1.1v-0.7l0.2-0.3c0.2-0.3,0.3-0.7,0.3-1.1v-2
	c0-0.1,0-0.1,0-0.2c0,0,0-0.1-0.1-0.1c0,0-0.1-0.1-0.1-0.1c0,0-0.1,0-0.1,0c0,0,0,0,0,0c0,0,0,0,0,0H48c-0.7,0-1.3,0.3-1.8,0.7
	c-0.5,0.5-0.7,1.1-0.7,1.8v0c0,0.3,0.1,0.6,0.2,0.9l0.2,0.4v0.6c0,0.5,0.1,1,0.3,1.4c0.2,0.4,0.5,0.8,0.9,1.1v0.6
	c0,0.1,0,0.1-0.3,0.2l-0.8,0.2l-2.3-0.8c0-0.1,0-0.1,0-0.2c0-0.1,0-0.1-0.1-0.1l-0.7-0.8v-1.3c0.1-0.1,0.2-0.1,0.2-0.2
	c0.5-0.4,0.8-0.9,1.1-1.5c0.2-0.6,0.4-1.2,0.4-1.8v-1c0.3-0.6,0.4-1.2,0.4-1.9v-4.2c0-0.1,0-0.1,0-0.1c0,0,0,0,0-0.1c0,0,0,0,0-0.1
	c0,0-0.1-0.1-0.1-0.1c0,0-0.1,0-0.1,0h-5.9c-1,0-1.9,0.4-2.6,1.1c-0.7,0.7-1.1,1.7-1.1,2.6v0.8c0,0.7,0.1,1.3,0.4,1.9v0.9
	c0,0.7,0.1,1.4,0.4,2c0.3,0.6,0.7,1.2,1.2,1.6v1.3l-0.7,0.8c0,0-0.1,0.1-0.1,0.1c0,0.1,0,0.1,0,0.2l-2.4,0.9
	c-0.2,0.1-0.3,0.1-0.5,0.3l-0.4-0.2c1.1-0.5,1.5-1.2,1.5-1.2c0-0.1,0-0.1,0-0.2c0,0,0-0.1,0-0.1c0,0,0-0.1,0-0.1
	c-0.3-0.6-0.3-1.6-0.3-2.4c0-0.3,0-0.5,0-0.8c-0.1-1.9-1.6-3.3-3.3-3.3s-3.2,1.4-3.3,3.3c0,0.2,0,0.5,0,0.8c0,0.8-0.1,1.9-0.3,2.4
	c0,0,0,0,0,0.1c0,0,0,0,0,0.1c0,0,0,0,0,0.1c0,0.1,0,0.1,0,0.2l0,0c0,0.1,0.4,0.7,1.5,1.2l-0.9,0.6c-0.1,0.1-0.2,0.2-0.3,0.2
	c-0.5-0.1-1-0.2-1.6-0.2c-1.1,0-2.1,0.2-3.1,0.6c-1.9,0.8-3.4,2.3-4.2,4.3c-0.4,1-0.6,2-0.6,3.1c0,1.1,0.2,2.1,0.6,3.1
	c0.4,0.9,1,1.8,1.7,2.5c0.7,0.7,1.6,1.3,2.5,1.7c1,0.4,2,0.6,3.1,0.6c1.1,0,2.1-0.2,3.1-0.6c1.2-0.5,2.3-1.3,3.1-2.4h1.1
	c0,0,0,0,0,0c0,0.1,0.1,0.1,0.2,0.1c0.1,0,0.1,0.1,0.2,0.1h19.1c0.3,0,0.6-0.1,0.9-0.4c0.2-0.2,0.4-0.5,0.4-0.9v-5.7
	c0-0.3-0.1-0.6-0.4-0.9c0,0-0.1-0.1-0.1-0.1L53.4,150.4L53.4,150.4z"/>
<path class="st7" d="M49.9,142.5c0.1,0,0.1,0,0.2,0c0.1,0,0.1,0,0.2-0.1c0.1,0,0.1-0.1,0.1-0.2c0,0,0-0.1,0-0.1c0-0.1,0-0.1,0-0.1
	c0,0,0-0.1-0.1-0.1c0,0-0.1-0.1-0.1-0.1c-0.9-0.5-2.6-0.5-2.7-0.5c-0.1,0-0.2,0-0.3,0.1c-0.1,0.1-0.1,0.2-0.1,0.3
	c0,0.1,0,0.2,0.1,0.3c0.1,0.1,0.2,0.1,0.3,0.1C48,142.2,49.3,142.2,49.9,142.5z"/>
<path class="st7" d="M37.5,137.5C37.5,137.5,37.5,137.5,37.5,137.5c0.9-0.2,1.7-0.2,2.6-0.1c1.2,0.1,2.1,0.4,2.6,0.9
	c0.1,0.1,0.2,0.1,0.3,0.1c0.1,0,0.2,0,0.3-0.1c0,0,0.1-0.1,0.1-0.1c0,0,0,0,0,0c0,0,0,0,0,0c0,0,0,0,0,0c0,0,0,0,0-0.1
	c0-0.1,0-0.1,0-0.2c0,0,0-0.1-0.1-0.1c-1.5-1.5-4.6-1.2-5.8-1c-0.2,0-0.4,0.1-0.5,0.3c-0.1,0.1-0.2,0.3-0.2,0.5v0.9
	c0,0.1,0,0.2,0.1,0.3c0.1,0.1,0.2,0.1,0.3,0.1c0.1,0,0.2,0,0.3-0.1c0.1-0.1,0.1-0.2,0.1-0.3V137.5z"/>
<path class="st8" d="M29.2,147.9l-0.9,0.2l-0.8-0.3l1.1-0.5c-1.1-0.5-1.5-1.1-1.5-1.2l0,0c0-0.1,0-0.1,0-0.2c0,0,0,0,0-0.1
	c0,0,0,0,0-0.1c0,0,0,0,0-0.1c0.3-0.6,0.3-1.6,0.3-2.4c0-0.3,0-0.5,0-0.8c0.1-1.9,1.6-3.3,3.3-3.3s3.2,1.4,3.3,3.3
	c0,0.2,0,0.5,0,0.8c0,0.8,0.1,1.9,0.3,2.4c0,0,0,0.1,0,0.1c0,0,0,0.1,0,0.1c0,0.1,0,0.1,0,0.2c0,0-0.4,0.7-1.5,1.2l0.4,0.2
	c0.1-0.1,0.3-0.2,0.5-0.3l2.4-0.9c0-0.1,0-0.1,0-0.2c0-0.1,0-0.1,0.1-0.1l0.7-0.8V144c-0.5-0.5-1-1-1.2-1.6c-0.3-0.6-0.4-1.3-0.4-2
	v-0.9c-0.3-0.6-0.4-1.2-0.4-1.9v-0.8c0-1,0.4-1.9,1.1-2.6c0.7-0.7,1.7-1.1,2.6-1.1h5.9c0.1,0,0.1,0,0.1,0c0,0,0.1,0,0.1,0.1
	c0,0,0,0,0,0.1c0,0,0,0,0,0.1c0,0,0,0.1,0,0.1v4.2c0,0.7-0.1,1.3-0.4,1.9v1c0,0.6-0.1,1.2-0.4,1.8c-0.2,0.6-0.6,1.1-1.1,1.5
	c-0.1,0.1-0.2,0.1-0.2,0.2v1.3l0.7,0.8c0,0,0.1,0.1,0.1,0.1c0,0.1,0,0.1,0,0.2l2.3,0.8l0.8-0.2c0.3-0.1,0.3-0.1,0.3-0.2v-0.6
	c-0.4-0.3-0.7-0.7-0.9-1.1c-0.2-0.4-0.3-0.9-0.3-1.4v-0.6l-0.2-0.4c-0.1-0.3-0.2-0.6-0.2-0.9v0c0-0.7,0.3-1.3,0.7-1.8
	c0.5-0.5,1.1-0.7,1.8-0.7h3.8c0,0,0,0,0,0c0,0,0,0,0,0c0,0,0.1,0,0.1,0c0,0,0.1,0,0.1,0.1c0,0,0.1,0.1,0.1,0.1c0,0,0,0.1,0,0.2v2
	c0,0.4-0.1,0.8-0.3,1.1l-0.2,0.3v0.7c0,0.4-0.1,0.8-0.2,1.1c-0.2,0.4-0.4,0.7-0.7,1c-0.1,0.1-0.2,0.2-0.4,0.3v0.5c0,0,0,0.1,0,0.1
	c0,0,0.1,0,0.1,0.1l1.6,0.5c0.7,0.2,1.2,0.9,1.2,1.6v3.2c0,0,0,0.1,0,0.1c0,0,0,0.1,0,0.1c0,0,0,0,0,0c0,0,0,0,0,0.1
	c-0.1,0.1-0.2,0.1-0.3,0.1c-0.1,0-0.2,0-0.3-0.1c-0.1-0.1-0.1-0.2-0.1-0.3V149c0-0.2-0.1-0.4-0.2-0.5c-0.1-0.1-0.3-0.3-0.5-0.3
	l-1.6-0.5c-0.1,0-0.1,0-0.2-0.1l-1,1v3.6c0,0.1,0,0.2-0.1,0.3c-0.1,0.1-0.2,0.1-0.3,0.1s-0.2,0-0.3-0.1c-0.1-0.1-0.1-0.2-0.1-0.3
	v-3.6l-1-1c-0.1,0.1-0.2,0.1-0.4,0.1l-0.1,0c0.4,0.4,0.6,0.9,0.6,1.4v3c0,0.1,0,0.2-0.1,0.3c-0.1,0.1-0.2,0.1-0.3,0.1
	c-0.1,0-0.2,0-0.3-0.1c-0.1-0.1-0.1-0.2-0.1-0.3v-3c0-0.3-0.1-0.5-0.2-0.7c-0.2-0.2-0.4-0.4-0.6-0.5l-2.5-0.9l-1.1,1.6
	c-0.1,0.1-0.2,0.2-0.3,0.2c-0.1,0.1-0.2,0.1-0.3,0.1c0,0-0.1,0-0.1,0c-0.1,0-0.2,0-0.3-0.1c-0.1,0-0.2-0.1-0.3-0.2l-0.6-0.6v4.1
	c0,0.1,0,0.2-0.1,0.3c-0.1,0.1-0.2,0.1-0.3,0.1c-0.1,0-0.2,0-0.3-0.1c-0.1-0.1-0.1-0.2-0.1-0.3v-4.1l-0.6,0.6
	c-0.1,0.1-0.2,0.1-0.3,0.2c-0.1,0-0.2,0.1-0.3,0.1c0,0,0,0,0,0l0,0l0,0c0,0,0,0,0,0c-0.1,0-0.2-0.1-0.3-0.1
	c-0.1-0.1-0.2-0.1-0.3-0.2l-1.1-1.6l-2.5,0.9c-0.2,0.1-0.5,0.3-0.6,0.5c-0.2,0.2-0.2,0.5-0.2,0.7v3l-0.8-1.2v-1.8
	c0-0.4,0.1-0.8,0.3-1.1l-0.4-0.2l-0.5,0.4c-0.3,0.3-0.7,0.5-1.1,0.5c-0.4,0-0.8-0.2-1.1-0.5L29.2,147.9z M47.9,147l0.9,0.9l0.9-0.9
	c0,0,0-0.1,0-0.1c0,0,0-0.1,0-0.1v-0.2c-0.3,0.1-0.6,0.1-0.9,0.1h-0.1c-0.3,0-0.5-0.1-0.8-0.1v0.2C48,146.9,47.9,146.9,47.9,147z
	 M46.7,143v0.7l0,0c0,1.2,0.9,2.2,2.1,2.2c0.3,0,0.6,0,0.8-0.1c0.3-0.1,0.5-0.3,0.7-0.5c0.2-0.2,0.4-0.4,0.5-0.7
	c0.1-0.3,0.2-0.5,0.2-0.8V143c0,0,0-0.1,0-0.1c0,0,0-0.1,0-0.1l0.2-0.4c0.1-0.2,0.2-0.5,0.2-0.8v-1.6H48c-0.5,0-0.9,0.2-1.2,0.5
	c-0.3,0.3-0.5,0.8-0.5,1.2v0c0,0.2,0,0.4,0.1,0.6l0.2,0.5C46.7,142.9,46.7,143,46.7,143z M38.4,148.3
	C38.4,148.3,38.4,148.3,38.4,148.3l1-1l-1.9-1.3l-0.4,0.4L38.4,148.3C38.4,148.2,38.4,148.2,38.4,148.3
	C38.4,148.3,38.4,148.3,38.4,148.3C38.4,148.3,38.4,148.3,38.4,148.3z M37.9,145.3l2.1,1.4l2.1-1.4v-0.7c-0.7,0.3-1.4,0.5-2.1,0.5
	c-0.1,0-0.2,0-0.3,0c-0.6,0-1.3-0.2-1.8-0.5V145.3z M41.7,148.3C41.7,148.3,41.7,148.2,41.7,148.3l1.2-1.8l-0.4-0.4l-1.8,1.3
	L41.7,148.3L41.7,148.3L41.7,148.3C41.6,148.3,41.6,148.3,41.7,148.3C41.6,148.3,41.6,148.3,41.7,148.3z M36.2,139.4v1
	c0,2.1,1.6,3.8,3.5,3.9c0.9,0.1,1.8-0.2,2.5-0.8l0,0c0.1-0.1,0.2-0.2,0.3-0.3c0.4-0.4,0.7-0.8,0.9-1.3c0.2-0.5,0.3-1,0.3-1.5v-1.1
	c0-0.1,0-0.1,0-0.2c0.3-0.5,0.4-1.1,0.4-1.6v-3.8h-5.5c-0.8,0-1.5,0.3-2.1,0.9c-0.6,0.6-0.9,1.3-0.9,2.1v0.8c0,0.6,0.1,1.1,0.4,1.6
	C36.2,139.3,36.2,139.3,36.2,139.4z M30.8,148c0.2,0,0.4-0.1,0.6-0.2l0.4-0.3c-0.1-0.1-0.1-0.3-0.1-0.4v-0.4
	c-0.3,0.1-0.6,0.1-0.9,0.1c-0.3,0-0.6,0-0.9-0.1v0.4c0,0.1,0,0.3-0.1,0.4l0.4,0.3C30.4,147.9,30.6,148,30.8,148z M32.5,146.7
	c0.7-0.3,1.1-0.6,1.3-0.8v0c-0.1-0.3-0.2-0.6-0.2-0.9c-0.2,0.5-0.6,1-1,1.3V146.7z M28.3,142.6c0,0.2,0,0.5,0,0.7c0,0,0,0,0,0.1
	c0,0,0,0,0,0.1c0,0,0,0,0.1,0c0,0,0.1,0,0.1,0c0,0,0,0,0,0c0,0,0,0,0,0c0,0,0.1,0,0.1,0.1c0,0,0.1,0.1,0.1,0.1c0,0,0,0.1,0,0.1
	c0,0,0,0,0,0c0,0,0,0,0,0c0,0.5,0.2,1,0.6,1.4c0.4,0.4,0.9,0.6,1.4,0.7c0.5,0,1.1-0.1,1.5-0.5c0.4-0.3,0.7-0.8,0.8-1.3
	c-0.6-1.4-2.3-1.6-2.8-1.6l-0.6,0.6c0,0-0.1,0.1-0.1,0.1c0,0-0.1,0-0.1,0c-0.1,0-0.1,0-0.2,0c0,0-0.1,0-0.1-0.1c0,0-0.1-0.1-0.1-0.1
	s0-0.1,0-0.1l0,0c0,0,0,0,0,0c0,0,0,0,0,0c0,0,0,0,0,0c0,0,0,0,0,0c0,0,0,0,0,0c0,0,0-0.1,0.1-0.1l0.7-0.7c0,0,0.1-0.1,0.1-0.1
	c0,0,0.1,0,0.1,0c0.5,0,1,0.1,1.5,0.2c0.8,0.3,1.5,0.8,1.9,1.4v-0.1c0-0.3,0-0.5,0-0.7c0-0.7-0.3-1.3-0.8-1.8
	c-0.2-0.2-0.5-0.4-0.8-0.5c-0.3-0.1-0.6-0.2-0.9-0.2s-0.6,0.1-0.9,0.2s-0.6,0.3-0.8,0.5C28.6,141.3,28.3,142,28.3,142.6z M28.1,145
	c0,0.3-0.1,0.6-0.2,0.9c0.2,0.2,0.5,0.5,1.3,0.8v-0.5C28.7,145.9,28.4,145.5,28.1,145z"/>
<path class="st7" d="M46.9,158c0.5,0,0.8-0.4,0.8-0.8s-0.4-0.8-0.8-0.8c-0.5,0-0.8,0.4-0.8,0.8S46.4,158,46.9,158z"/>
<path class="st7" d="M50.8,157.2c0,0.5-0.4,0.8-0.8,0.8c-0.5,0-0.8-0.4-0.8-0.8s0.4-0.8,0.8-0.8C50.4,156.3,50.8,156.7,50.8,157.2z"
	/>
<path class="st7" d="M43.7,158c0.5,0,0.8-0.4,0.8-0.8s-0.4-0.8-0.8-0.8c-0.5,0-0.8,0.4-0.8,0.8S43.2,158,43.7,158z"/>
<path class="st7" d="M34.7,153.1h17.9c0.3,0,0.6,0.1,0.9,0.4s0.4,0.5,0.4,0.9v5.7c0,0.3-0.1,0.6-0.4,0.9c-0.2,0.2-0.5,0.4-0.9,0.4
	H33.6c-0.1,0-0.1,0-0.2-0.1c-0.1,0-0.1-0.1-0.2-0.1c0-0.1-0.1-0.1-0.1-0.2c0-0.1,0-0.1,0-0.2l0,0c0-0.1,0.1-0.2,0.2-0.2
	c0.1-0.1,0.2-0.1,0.3-0.1h19.1c0.1,0,0.2,0,0.2-0.1c0.1-0.1,0.1-0.1,0.1-0.2v-5.7c0-0.1,0-0.2-0.1-0.2c-0.1-0.1-0.1-0.1-0.2-0.1
	H34.7c0,0,0,0-0.1,0c-0.1,0-0.1,0-0.2,0c-0.1,0-0.1-0.1-0.2-0.2l0,0c0-0.1-0.1-0.1-0.1-0.2c0-0.1,0-0.2,0.1-0.2
	c0-0.1,0.1-0.1,0.2-0.2C34.6,153.1,34.7,153.1,34.7,153.1z"/>
<path class="st7" d="M30,157.6l0,0.2c-0.1,0.2-0.1,0.4-0.2,0.6c-0.1,0.4-0.3,1-0.5,1.6l-2.4-7.3c0.1,0,0.2,0,0.4,0c0,0,0,0,0.1,0
	c0,0,0.1,0,0.1,0c0.1,0,0.2,0,0.2,0c0.2,0,0.3-0.1,0.3-0.3c0,0,0-0.1,0-0.1c0,0,0,0,0,0c0,0,0,0,0,0c-0.1,0-0.1-0.1-0.2-0.1
	c-0.7,0-1.2,0.1-1.5,0.1c-0.4,0-0.7,0-1.1,0l-0.7-0.1l-0.3,0c0,0,0,0-0.1,0c0,0,0,0,0,0c0,0,0,0,0,0c0,0-0.1,0-0.1,0
	c-0.1,0-0.1,0.1-0.1,0.2c0,0,0,0,0,0c0,0,0,0,0,0.1c0,0,0,0,0,0.1c0,0,0,0,0,0c0,0,0,0,0.1,0.1c0,0,0,0,0,0c0,0,0,0,0,0c0,0,0,0,0,0
	c0,0,0,0,0,0l0,0c0,0,0.1,0,0.2,0c0.1,0,0.3,0,0.5,0.1l1.1,2.9l-1.5,4.4l-2.5-7.3c0.1,0,0.3,0,0.4,0c0.1,0,0.3,0,0.4,0
	c0.2,0,0.3-0.1,0.3-0.3c0-0.1-0.1-0.1-0.1-0.2c0,0,0,0-0.1,0c0,0-0.1,0-0.1,0c-0.4,0.1-0.8,0.1-1.2,0.1c-0.4,0-0.7,0-1,0
	c0.6-0.9,1.4-1.7,2.4-2.2c1-0.6,2.1-0.8,3.2-0.8c0.9,0,1.7,0.2,2.5,0.5c0.8,0.3,1.5,0.8,2.1,1.3c-0.2,0-0.4,0-0.6,0.1
	c-0.2,0.1-0.4,0.3-0.5,0.5c-0.1,0.2-0.1,0.5-0.1,0.7c0,0.3,0.1,0.5,0.2,0.8c0.1,0.2,0.2,0.5,0.4,0.7c0.1,0.2,0.2,0.4,0.3,0.5
	c0.2,0.3,0.3,0.7,0.3,1c0,0.4,0,0.9-0.2,1.3c0,0.2-0.1,0.5-0.2,0.8l0,0.1L30,157.6z"/>
<path class="st7" d="M31.9,153.3L31.9,153.3C31.9,153.2,31.9,153.2,31.9,153.3c0-0.2,0-0.3,0-0.5c0.8,1.5,1,3.3,0.5,5
	c-0.2,0.6-0.4,1.1-0.7,1.6c-0.3,0.5-0.7,1-1.1,1.4c-0.4,0.4-0.9,0.8-1.4,1.1c0.1-0.2,0.2-0.5,0.3-1c0.2-0.5,0.3-1,0.5-1.5
	c0.2-0.5,0.3-1,0.5-1.5c0-0.1,0.1-0.2,0.1-0.3c0.1-0.3,0.2-0.6,0.2-0.7c0.1-0.3,0.2-0.6,0.3-1c0.1-0.2,0.1-0.4,0.2-0.6
	c0.2-0.6,0.3-1.2,0.4-1.8C31.9,153.5,31.9,153.4,31.9,153.3L31.9,153.3z"/>
<path class="st7" d="M19.2,156c0,0.7,0.1,1.3,0.3,1.9c0.2,0.6,0.4,1.2,0.8,1.7c0.3,0.5,0.7,1,1.2,1.4c0.5,0.4,1,0.8,1.5,1l-3.2-8.8
	C19.4,154.1,19.2,155.1,19.2,156z"/>
<path class="st7" d="M24.9,162.7c-0.3,0-0.6-0.1-0.9-0.2l2-5.9l2.1,5.8C27.1,162.8,26,162.9,24.9,162.7z"/>
<path class="st8" d="M31.5,150.3c0.7,0.7,1.3,1.6,1.7,2.5v0c0.4,1,0.6,2,0.6,3.1c0,1.1-0.2,2.1-0.6,3.1c-0.8,1.9-2.3,3.5-4.2,4.3
	c-1,0.4-2,0.6-3.1,0.6c-1.1,0-2.1-0.2-3.1-0.6c-0.9-0.4-1.8-1-2.5-1.7c-0.7-0.7-1.3-1.6-1.7-2.5c-0.4-1-0.6-2-0.6-3.1
	c0-1.1,0.2-2.1,0.6-3.1c0.8-1.9,2.3-3.4,4.2-4.3c1-0.4,2-0.6,3.1-0.6c1.1,0,2.1,0.2,3.1,0.6C29.9,149,30.8,149.6,31.5,150.3z
	 M28.8,162.9c1.8-0.8,3.2-2.2,3.9-4c0.4-0.9,0.6-1.9,0.6-2.9c0-1-0.2-2-0.6-2.9c-0.4-0.9-0.9-1.7-1.6-2.4c-0.7-0.7-1.5-1.2-2.3-1.6
	c-0.9-0.4-1.9-0.6-2.9-0.6c-1,0-2,0.2-2.9,0.6c-0.9,0.4-1.7,0.9-2.3,1.6c-0.7,0.7-1.2,1.5-1.6,2.4c-0.4,0.9-0.6,1.9-0.6,2.9
	c0,1,0.2,2,0.6,2.9c0.8,1.8,2.2,3.2,3.9,4c0.9,0.4,1.9,0.6,2.9,0.6C26.9,163.4,27.9,163.2,28.8,162.9z"/>
<path class="st9" d="M49.9,198.5c0.1,0,0.1,0,0.2,0c0.1,0,0.1,0,0.2-0.1c0.1,0,0.1-0.1,0.1-0.2c0,0,0-0.1,0-0.1c0-0.1,0-0.1,0-0.1
	c0,0,0-0.1-0.1-0.1c0,0-0.1-0.1-0.1-0.1c-0.9-0.5-2.6-0.5-2.7-0.5c-0.1,0-0.2,0-0.3,0.1c-0.1,0.1-0.1,0.2-0.1,0.3
	c0,0.1,0,0.2,0.1,0.3c0.1,0.1,0.2,0.1,0.3,0.1C48,198.2,49.3,198.2,49.9,198.5z"/>
<path class="st9" d="M37.5,193.5C37.5,193.5,37.5,193.5,37.5,193.5c0.9-0.2,1.7-0.2,2.6-0.1c1.2,0.1,2.1,0.4,2.6,0.9
	c0.1,0.1,0.2,0.1,0.3,0.1c0.1,0,0.2,0,0.3-0.1c0,0,0.1-0.1,0.1-0.1c0,0,0,0,0,0c0,0,0,0,0,0c0,0,0,0,0,0c0,0,0,0,0-0.1
	c0-0.1,0-0.1,0-0.2c0,0,0-0.1-0.1-0.1c-1.5-1.5-4.6-1.2-5.8-1c-0.2,0-0.4,0.1-0.5,0.3c-0.1,0.1-0.2,0.3-0.2,0.5v0.9
	c0,0.1,0,0.2,0.1,0.3c0.1,0.1,0.2,0.1,0.3,0.1c0.1,0,0.2,0,0.3-0.1c0.1-0.1,0.1-0.2,0.1-0.3V193.5z"/>
<path class="st10" d="M29.2,203.9l-0.9,0.2l-0.8-0.3l1.1-0.5c-1.1-0.5-1.5-1.1-1.5-1.2l0,0c0-0.1,0-0.1,0-0.2c0,0,0,0,0-0.1
	c0,0,0,0,0-0.1c0,0,0,0,0-0.1c0.3-0.6,0.3-1.6,0.3-2.4c0-0.3,0-0.5,0-0.8c0.1-1.9,1.6-3.3,3.3-3.3s3.2,1.4,3.3,3.3
	c0,0.2,0,0.5,0,0.8c0,0.8,0.1,1.9,0.3,2.4c0,0,0,0.1,0,0.1c0,0,0,0.1,0,0.1c0,0.1,0,0.1,0,0.2c0,0-0.4,0.7-1.5,1.2l0.4,0.2
	c0.1-0.1,0.3-0.2,0.5-0.3l2.4-0.9c0-0.1,0-0.1,0-0.2c0-0.1,0-0.1,0.1-0.1l0.7-0.8V200c-0.5-0.5-1-1-1.2-1.6c-0.3-0.6-0.4-1.3-0.4-2
	v-0.9c-0.3-0.6-0.4-1.2-0.4-1.9v-0.8c0-1,0.4-1.9,1.1-2.6c0.7-0.7,1.7-1.1,2.6-1.1h5.9c0.1,0,0.1,0,0.1,0c0,0,0.1,0,0.1,0.1
	c0,0,0,0,0,0.1c0,0,0,0,0,0.1c0,0,0,0.1,0,0.1v4.2c0,0.7-0.1,1.3-0.4,1.9v1c0,0.6-0.1,1.2-0.4,1.8c-0.2,0.6-0.6,1.1-1.1,1.5
	c-0.1,0.1-0.2,0.1-0.2,0.2v1.3l0.7,0.8c0,0,0.1,0.1,0.1,0.1c0,0.1,0,0.1,0,0.2l2.3,0.8l0.8-0.2c0.3-0.1,0.3-0.1,0.3-0.2v-0.6
	c-0.4-0.3-0.7-0.7-0.9-1.1c-0.2-0.4-0.3-0.9-0.3-1.4v-0.6l-0.2-0.4c-0.1-0.3-0.2-0.6-0.2-0.9v0c0-0.7,0.3-1.3,0.7-1.8
	c0.5-0.5,1.1-0.7,1.8-0.7h3.8c0,0,0,0,0,0c0,0,0,0,0,0c0,0,0.1,0,0.1,0c0,0,0.1,0,0.1,0.1c0,0,0.1,0.1,0.1,0.1c0,0,0,0.1,0,0.2v2
	c0,0.4-0.1,0.8-0.3,1.1l-0.2,0.3v0.7c0,0.4-0.1,0.8-0.2,1.1c-0.2,0.4-0.4,0.7-0.7,1c-0.1,0.1-0.2,0.2-0.4,0.3v0.5c0,0,0,0.1,0,0.1
	c0,0,0.1,0,0.1,0.1l1.6,0.5c0.7,0.2,1.2,0.9,1.2,1.6v3.2c0,0,0,0.1,0,0.1c0,0,0,0.1,0,0.1c0,0,0,0,0,0c0,0,0,0,0,0.1
	c-0.1,0.1-0.2,0.1-0.3,0.1c-0.1,0-0.2,0-0.3-0.1c-0.1-0.1-0.1-0.2-0.1-0.3V205c0-0.2-0.1-0.4-0.2-0.5c-0.1-0.1-0.3-0.3-0.5-0.3
	l-1.6-0.5c-0.1,0-0.1,0-0.2-0.1l-1,1v3.6c0,0.1,0,0.2-0.1,0.3c-0.1,0.1-0.2,0.1-0.3,0.1s-0.2,0-0.3-0.1c-0.1-0.1-0.1-0.2-0.1-0.3
	v-3.6l-1-1c-0.1,0.1-0.2,0.1-0.4,0.1l-0.1,0c0.4,0.4,0.6,0.9,0.6,1.4v3c0,0.1,0,0.2-0.1,0.3c-0.1,0.1-0.2,0.1-0.3,0.1
	c-0.1,0-0.2,0-0.3-0.1c-0.1-0.1-0.1-0.2-0.1-0.3v-3c0-0.3-0.1-0.5-0.2-0.7c-0.2-0.2-0.4-0.4-0.6-0.5l-2.5-0.9l-1.1,1.6
	c-0.1,0.1-0.2,0.2-0.3,0.2c-0.1,0.1-0.2,0.1-0.3,0.1c0,0-0.1,0-0.1,0c-0.1,0-0.2,0-0.3-0.1c-0.1,0-0.2-0.1-0.3-0.2l-0.6-0.6v4.1
	c0,0.1,0,0.2-0.1,0.3c-0.1,0.1-0.2,0.1-0.3,0.1c-0.1,0-0.2,0-0.3-0.1c-0.1-0.1-0.1-0.2-0.1-0.3v-4.1l-0.6,0.6
	c-0.1,0.1-0.2,0.1-0.3,0.2c-0.1,0-0.2,0.1-0.3,0.1c0,0,0,0,0,0l0,0l0,0c0,0,0,0,0,0c-0.1,0-0.2-0.1-0.3-0.1
	c-0.1-0.1-0.2-0.1-0.3-0.2l-1.1-1.6l-2.5,0.9c-0.2,0.1-0.5,0.3-0.6,0.5c-0.2,0.2-0.2,0.5-0.2,0.7v3l-0.8-1.2v-1.8
	c0-0.4,0.1-0.8,0.3-1.1l-0.4-0.2l-0.5,0.4c-0.3,0.3-0.7,0.5-1.1,0.5c-0.4,0-0.8-0.2-1.1-0.5L29.2,203.9z M47.9,203l0.9,0.9l0.9-0.9
	c0,0,0-0.1,0-0.1c0,0,0-0.1,0-0.1v-0.2c-0.3,0.1-0.6,0.1-0.9,0.1h-0.1c-0.3,0-0.5-0.1-0.8-0.1v0.2C48,202.9,47.9,202.9,47.9,203z
	 M46.7,199v0.7l0,0c0,1.2,0.9,2.2,2.1,2.2c0.3,0,0.6,0,0.8-0.1c0.3-0.1,0.5-0.3,0.7-0.5c0.2-0.2,0.4-0.4,0.5-0.7
	c0.1-0.3,0.2-0.5,0.2-0.8V199c0,0,0-0.1,0-0.1c0,0,0-0.1,0-0.1l0.2-0.4c0.1-0.2,0.2-0.5,0.2-0.8v-1.6H48c-0.5,0-0.9,0.2-1.2,0.5
	c-0.3,0.3-0.5,0.8-0.5,1.2v0c0,0.2,0,0.4,0.1,0.6l0.2,0.5C46.7,198.9,46.7,199,46.7,199z M38.4,204.3
	C38.4,204.3,38.4,204.3,38.4,204.3l1-1l-1.9-1.3l-0.4,0.4L38.4,204.3C38.4,204.2,38.4,204.2,38.4,204.3
	C38.4,204.3,38.4,204.3,38.4,204.3C38.4,204.3,38.4,204.3,38.4,204.3z M37.9,201.3l2.1,1.4l2.1-1.4v-0.7c-0.7,0.3-1.4,0.5-2.1,0.5
	c-0.1,0-0.2,0-0.3,0c-0.6,0-1.3-0.2-1.8-0.5V201.3z M41.7,204.3C41.7,204.3,41.7,204.2,41.7,204.3l1.2-1.8l-0.4-0.4l-1.8,1.3
	L41.7,204.3L41.7,204.3L41.7,204.3C41.6,204.3,41.6,204.3,41.7,204.3C41.6,204.3,41.6,204.3,41.7,204.3z M36.2,195.4v1
	c0,2.1,1.6,3.8,3.5,3.9c0.9,0.1,1.8-0.2,2.5-0.8l0,0c0.1-0.1,0.2-0.2,0.3-0.3c0.4-0.4,0.7-0.8,0.9-1.3c0.2-0.5,0.3-1,0.3-1.5v-1.1
	c0-0.1,0-0.1,0-0.2c0.3-0.5,0.4-1.1,0.4-1.6v-3.8h-5.5c-0.8,0-1.5,0.3-2.1,0.9c-0.6,0.6-0.9,1.3-0.9,2.1v0.8c0,0.6,0.1,1.1,0.4,1.6
	C36.2,195.3,36.2,195.3,36.2,195.4z M30.8,204c0.2,0,0.4-0.1,0.6-0.2l0.4-0.3c-0.1-0.1-0.1-0.3-0.1-0.4v-0.4
	c-0.3,0.1-0.6,0.1-0.9,0.1c-0.3,0-0.6,0-0.9-0.1v0.4c0,0.1,0,0.3-0.1,0.4l0.4,0.3C30.4,203.9,30.6,204,30.8,204z M32.5,202.7
	c0.7-0.3,1.1-0.6,1.3-0.8v0c-0.1-0.3-0.2-0.6-0.2-0.9c-0.2,0.5-0.6,1-1,1.3V202.7z M28.3,198.6c0,0.2,0,0.5,0,0.7c0,0,0,0,0,0.1
	c0,0,0,0,0,0.1c0,0,0,0,0.1,0c0,0,0.1,0,0.1,0c0,0,0,0,0,0c0,0,0,0,0,0c0,0,0.1,0,0.1,0.1c0,0,0.1,0.1,0.1,0.1c0,0,0,0.1,0,0.1
	c0,0,0,0,0,0c0,0,0,0,0,0c0,0.5,0.2,1,0.6,1.4c0.4,0.4,0.9,0.6,1.4,0.7c0.5,0,1.1-0.1,1.5-0.5c0.4-0.3,0.7-0.8,0.8-1.3
	c-0.6-1.4-2.3-1.6-2.8-1.6l-0.6,0.6c0,0-0.1,0.1-0.1,0.1c0,0-0.1,0-0.1,0c-0.1,0-0.1,0-0.2,0c0,0-0.1,0-0.1-0.1c0,0-0.1-0.1-0.1-0.1
	s0-0.1,0-0.1l0,0c0,0,0,0,0,0c0,0,0,0,0,0c0,0,0,0,0,0c0,0,0,0,0,0c0,0,0,0,0,0c0,0,0-0.1,0.1-0.1l0.7-0.7c0,0,0.1-0.1,0.1-0.1
	c0,0,0.1,0,0.1,0c0.5,0,1,0.1,1.5,0.2c0.8,0.3,1.5,0.8,1.9,1.4v-0.1c0-0.3,0-0.5,0-0.7c0-0.7-0.3-1.3-0.8-1.8
	c-0.2-0.2-0.5-0.4-0.8-0.5c-0.3-0.1-0.6-0.2-0.9-0.2s-0.6,0.1-0.9,0.2s-0.6,0.3-0.8,0.5C28.6,197.3,28.3,198,28.3,198.6z M28.1,201
	c0,0.3-0.1,0.6-0.2,0.9c0.2,0.2,0.5,0.5,1.3,0.8v-0.5C28.7,201.9,28.4,201.5,28.1,201z"/>
<path class="st9" d="M46.9,214c0.5,0,0.8-0.4,0.8-0.8s-0.4-0.8-0.8-0.8c-0.5,0-0.8,0.4-0.8,0.8S46.4,214,46.9,214z"/>
<path class="st9" d="M50.8,213.2c0,0.5-0.4,0.8-0.8,0.8c-0.5,0-0.8-0.4-0.8-0.8s0.4-0.8,0.8-0.8C50.4,212.3,50.8,212.7,50.8,213.2z"
	/>
<path class="st9" d="M43.7,214c0.5,0,0.8-0.4,0.8-0.8s-0.4-0.8-0.8-0.8c-0.5,0-0.8,0.4-0.8,0.8S43.2,214,43.7,214z"/>
<path class="st9" d="M34.7,209.1h17.9c0.3,0,0.6,0.1,0.9,0.4s0.4,0.5,0.4,0.9v5.7c0,0.3-0.1,0.6-0.4,0.9c-0.2,0.2-0.5,0.4-0.9,0.4
	H33.6c-0.1,0-0.1,0-0.2-0.1c-0.1,0-0.1-0.1-0.2-0.1c0-0.1-0.1-0.1-0.1-0.2c0-0.1,0-0.1,0-0.2l0,0c0-0.1,0.1-0.2,0.2-0.2
	c0.1-0.1,0.2-0.1,0.3-0.1h19.1c0.1,0,0.2,0,0.2-0.1c0.1-0.1,0.1-0.1,0.1-0.2v-5.7c0-0.1,0-0.2-0.1-0.2c-0.1-0.1-0.1-0.1-0.2-0.1
	H34.7c0,0,0,0-0.1,0c-0.1,0-0.1,0-0.2,0c-0.1,0-0.1-0.1-0.2-0.2l0,0c0-0.1-0.1-0.1-0.1-0.2c0-0.1,0-0.2,0.1-0.2
	c0-0.1,0.1-0.1,0.2-0.2C34.6,209.1,34.7,209.1,34.7,209.1z"/>
<path class="st9" d="M30,213.6l0,0.2c-0.1,0.2-0.1,0.4-0.2,0.6c-0.1,0.4-0.3,1-0.5,1.6l-2.4-7.3c0.1,0,0.2,0,0.4,0c0,0,0,0,0.1,0
	c0,0,0.1,0,0.1,0c0.1,0,0.2,0,0.2,0c0.2,0,0.3-0.1,0.3-0.3c0,0,0-0.1,0-0.1c0,0,0,0,0,0c0,0,0,0,0,0c-0.1,0-0.1-0.1-0.2-0.1
	c-0.7,0-1.2,0.1-1.5,0.1c-0.4,0-0.7,0-1.1,0l-0.7-0.1l-0.3,0c0,0,0,0-0.1,0c0,0,0,0,0,0c0,0,0,0,0,0c0,0-0.1,0-0.1,0
	c-0.1,0-0.1,0.1-0.1,0.2c0,0,0,0,0,0c0,0,0,0,0,0.1c0,0,0,0,0,0.1c0,0,0,0,0,0c0,0,0,0,0.1,0.1c0,0,0,0,0,0c0,0,0,0,0,0c0,0,0,0,0,0
	c0,0,0,0,0,0l0,0c0,0,0.1,0,0.2,0c0.1,0,0.3,0,0.5,0.1l1.1,2.9l-1.5,4.4l-2.5-7.3c0.1,0,0.3,0,0.4,0c0.1,0,0.3,0,0.4,0
	c0.2,0,0.3-0.1,0.3-0.3c0-0.1-0.1-0.1-0.1-0.2c0,0,0,0-0.1,0c0,0-0.1,0-0.1,0c-0.4,0.1-0.8,0.1-1.2,0.1c-0.4,0-0.7,0-1,0
	c0.6-0.9,1.4-1.7,2.4-2.2c1-0.6,2.1-0.8,3.2-0.8c0.9,0,1.7,0.2,2.5,0.5c0.8,0.3,1.5,0.8,2.1,1.3c-0.2,0-0.4,0-0.6,0.1
	c-0.2,0.1-0.4,0.3-0.5,0.5c-0.1,0.2-0.1,0.5-0.1,0.7c0,0.3,0.1,0.5,0.2,0.8c0.1,0.2,0.2,0.5,0.4,0.7c0.1,0.2,0.2,0.4,0.3,0.5
	c0.2,0.3,0.3,0.7,0.3,1c0,0.4,0,0.9-0.2,1.3c0,0.2-0.1,0.5-0.2,0.8l0,0.1L30,213.6z"/>
<path class="st9" d="M31.9,209.3L31.9,209.3C31.9,209.2,31.9,209.2,31.9,209.3c0-0.2,0-0.3,0-0.5c0.8,1.5,1,3.3,0.5,5
	c-0.2,0.6-0.4,1.1-0.7,1.6c-0.3,0.5-0.7,1-1.1,1.4c-0.4,0.4-0.9,0.8-1.4,1.1c0.1-0.2,0.2-0.5,0.3-1c0.2-0.5,0.3-1,0.5-1.5
	c0.2-0.5,0.3-1,0.5-1.5c0-0.1,0.1-0.2,0.1-0.3c0.1-0.3,0.2-0.6,0.2-0.7c0.1-0.3,0.2-0.6,0.3-1c0.1-0.2,0.1-0.4,0.2-0.6
	c0.2-0.6,0.3-1.2,0.4-1.8C31.9,209.5,31.9,209.4,31.9,209.3L31.9,209.3z"/>
<path class="st9" d="M19.2,212c0,0.7,0.1,1.3,0.3,1.9c0.2,0.6,0.4,1.2,0.8,1.7c0.3,0.5,0.7,1,1.2,1.4c0.5,0.4,1,0.8,1.5,1l-3.2-8.8
	C19.4,210.1,19.2,211.1,19.2,212z"/>
<path class="st9" d="M24.9,218.7c-0.3,0-0.6-0.1-0.9-0.2l2-5.9l2.1,5.8C27.1,218.8,26,218.9,24.9,218.7z"/>
<path class="st10" d="M31.5,206.3c0.7,0.7,1.3,1.6,1.7,2.5v0c0.4,1,0.6,2,0.6,3.1c0,1.1-0.2,2.1-0.6,3.1c-0.8,1.9-2.3,3.5-4.2,4.3
	c-1,0.4-2,0.6-3.1,0.6c-1.1,0-2.1-0.2-3.1-0.6c-0.9-0.4-1.8-1-2.5-1.7c-0.7-0.7-1.3-1.6-1.7-2.5c-0.4-1-0.6-2-0.6-3.1
	c0-1.1,0.2-2.1,0.6-3.1c0.8-1.9,2.3-3.4,4.2-4.3c1-0.4,2-0.6,3.1-0.6c1.1,0,2.1,0.2,3.1,0.6C29.9,205,30.8,205.6,31.5,206.3z
	 M28.8,218.9c1.8-0.8,3.2-2.2,3.9-4c0.4-0.9,0.6-1.9,0.6-2.9c0-1-0.2-2-0.6-2.9c-0.4-0.9-0.9-1.7-1.6-2.4c-0.7-0.7-1.5-1.2-2.3-1.6
	c-0.9-0.4-1.9-0.6-2.9-0.6c-1,0-2,0.2-2.9,0.6c-0.9,0.4-1.7,0.9-2.3,1.6c-0.7,0.7-1.2,1.5-1.6,2.4c-0.4,0.9-0.6,1.9-0.6,2.9
	c0,1,0.2,2,0.6,2.9c0.8,1.8,2.2,3.2,3.9,4c0.9,0.4,1.9,0.6,2.9,0.6C26.9,219.4,27.9,219.2,28.8,218.9z"/>
<radialGradient id="SVGID_4_" cx="-254.5146" cy="565.0833" r="1" gradientTransform="matrix(20.9684 4.94 4.3877 -18.624 2891.0796 12045.6455)" gradientUnits="userSpaceOnUse">
	<stop  offset="0" style="stop-color:#434F58"/>
	<stop  offset="1" style="stop-color:#434F58;stop-opacity:0"/>
</radialGradient>
<path class="st11" d="M53.4,262.4V261c0-0.7-0.5-1.4-1.2-1.6l-1.6-0.5c0,0-0.1,0-0.1-0.1s0-0.1,0-0.1v-0.5c0.1-0.1,0.3-0.2,0.4-0.3
	c0.3-0.3,0.5-0.6,0.7-1c0.2-0.4,0.2-0.7,0.2-1.1v-0.7l0.2-0.3c0.2-0.3,0.3-0.7,0.3-1.1v-2c0-0.1,0-0.1,0-0.2c0,0,0-0.1-0.1-0.1
	c0,0-0.1-0.1-0.1-0.1c0,0-0.1,0-0.1,0c0,0,0,0,0,0c0,0,0,0,0,0H48c-0.7,0-1.3,0.3-1.8,0.7c-0.5,0.5-0.7,1.1-0.7,1.8v0
	c0,0.3,0.1,0.6,0.2,0.9l0.2,0.4v0.6c0,0.5,0.1,1,0.3,1.4c0.2,0.4,0.5,0.8,0.9,1.1v0.6c0,0.1,0,0.1-0.3,0.2l-0.8,0.2l-2.3-0.8
	c0-0.1,0-0.1,0-0.2c0-0.1,0-0.1-0.1-0.1l-0.7-0.8v-1.3c0.1-0.1,0.2-0.1,0.2-0.2c0.5-0.4,0.8-0.9,1.1-1.5c0.2-0.6,0.4-1.2,0.4-1.8v-1
	c0.3-0.6,0.4-1.2,0.4-1.9v-4.2c0-0.1,0-0.1,0-0.1c0,0,0,0,0-0.1c0,0,0,0,0-0.1c0,0-0.1-0.1-0.1-0.1c0,0-0.1,0-0.1,0h-5.9
	c-1,0-1.9,0.4-2.6,1.1c-0.7,0.7-1.1,1.7-1.1,2.6v0.8c0,0.7,0.1,1.3,0.4,1.9v0.9c0,0.7,0.1,1.4,0.4,2c0.3,0.6,0.7,1.2,1.2,1.6v1.3
	l-0.7,0.8c0,0-0.1,0.1-0.1,0.1c0,0.1,0,0.1,0,0.2l-2.4,0.9c-0.2,0.1-0.3,0.1-0.5,0.3l-0.4-0.2c1.1-0.5,1.5-1.2,1.5-1.2
	c0-0.1,0-0.1,0-0.2c0,0,0-0.1,0-0.1c0,0,0-0.1,0-0.1c-0.3-0.6-0.3-1.6-0.3-2.4c0-0.3,0-0.5,0-0.8c-0.1-1.9-1.6-3.3-3.3-3.3
	s-3.2,1.4-3.3,3.3c0,0.2,0,0.5,0,0.8c0,0.8-0.1,1.9-0.3,2.4c0,0,0,0,0,0.1c0,0,0,0,0,0.1c0,0,0,0,0,0.1c0,0.1,0,0.1,0,0.2l0,0
	c0,0.1,0.4,0.7,1.5,1.2l-0.9,0.6c-0.1,0.1-0.2,0.2-0.3,0.2c-0.5-0.1-1-0.2-1.6-0.2c-1.1,0-2.1,0.2-3.1,0.6c-1.9,0.8-3.4,2.3-4.2,4.3
	c-0.4,1-0.6,2-0.6,3.1s0.2,2.1,0.6,3.1c0.4,0.9,1,1.8,1.7,2.5c0.7,0.7,1.6,1.3,2.5,1.7c1,0.4,2,0.6,3.1,0.6c1.1,0,2.1-0.2,3.1-0.6
	c1.2-0.5,2.3-1.3,3.1-2.4h1.1c0,0,0,0,0,0c0,0.1,0.1,0.1,0.2,0.1c0.1,0,0.1,0.1,0.2,0.1h19.1c0.3,0,0.6-0.1,0.9-0.4
	c0.2-0.2,0.4-0.5,0.4-0.9v-5.7c0-0.3-0.1-0.6-0.4-0.9c0,0-0.1-0.1-0.1-0.1L53.4,262.4L53.4,262.4z"/>
<path class="st9" d="M49.9,254.5c0.1,0,0.1,0,0.2,0c0.1,0,0.1,0,0.2-0.1c0.1,0,0.1-0.1,0.1-0.2c0,0,0-0.1,0-0.1c0-0.1,0-0.1,0-0.1
	c0,0,0-0.1-0.1-0.1c0,0-0.1-0.1-0.1-0.1c-0.9-0.5-2.6-0.5-2.7-0.5c-0.1,0-0.2,0-0.3,0.1c-0.1,0.1-0.1,0.2-0.1,0.3
	c0,0.1,0,0.2,0.1,0.3c0.1,0.1,0.2,0.1,0.3,0.1C48,254.2,49.3,254.2,49.9,254.5z"/>
<path class="st9" d="M37.5,249.5C37.5,249.5,37.5,249.5,37.5,249.5c0.9-0.2,1.7-0.2,2.6-0.1c1.2,0.1,2.1,0.4,2.6,0.9
	c0.1,0.1,0.2,0.1,0.3,0.1c0.1,0,0.2,0,0.3-0.1c0,0,0.1-0.1,0.1-0.1c0,0,0,0,0,0c0,0,0,0,0,0c0,0,0,0,0,0c0,0,0,0,0-0.1
	c0-0.1,0-0.1,0-0.2c0,0,0-0.1-0.1-0.1c-1.5-1.5-4.6-1.2-5.8-1c-0.2,0-0.4,0.1-0.5,0.3c-0.1,0.1-0.2,0.3-0.2,0.5v0.9
	c0,0.1,0,0.2,0.1,0.3c0.1,0.1,0.2,0.1,0.3,0.1c0.1,0,0.2,0,0.3-0.1c0.1-0.1,0.1-0.2,0.1-0.3V249.5z"/>
<path class="st10" d="M29.2,259.9l-0.9,0.2l-0.8-0.3l1.1-0.5c-1.1-0.5-1.5-1.1-1.5-1.2l0,0c0-0.1,0-0.1,0-0.2c0,0,0,0,0-0.1
	c0,0,0,0,0-0.1c0,0,0,0,0-0.1c0.3-0.6,0.3-1.6,0.3-2.4c0-0.3,0-0.5,0-0.8c0.1-1.9,1.6-3.3,3.3-3.3s3.2,1.4,3.3,3.3
	c0,0.2,0,0.5,0,0.8c0,0.8,0.1,1.9,0.3,2.4c0,0,0,0.1,0,0.1c0,0,0,0.1,0,0.1c0,0.1,0,0.1,0,0.2c0,0-0.4,0.7-1.5,1.2l0.4,0.2
	c0.1-0.1,0.3-0.2,0.5-0.3l2.4-0.9c0-0.1,0-0.1,0-0.2c0-0.1,0-0.1,0.1-0.1l0.7-0.8V256c-0.5-0.5-1-1-1.2-1.6c-0.3-0.6-0.4-1.3-0.4-2
	v-0.9c-0.3-0.6-0.4-1.2-0.4-1.9v-0.8c0-1,0.4-1.9,1.1-2.6c0.7-0.7,1.7-1.1,2.6-1.1h5.9c0.1,0,0.1,0,0.1,0c0,0,0.1,0,0.1,0.1
	c0,0,0,0,0,0.1c0,0,0,0,0,0.1c0,0,0,0.1,0,0.1v4.2c0,0.7-0.1,1.3-0.4,1.9v1c0,0.6-0.1,1.2-0.4,1.8c-0.2,0.6-0.6,1.1-1.1,1.5
	c-0.1,0.1-0.2,0.1-0.2,0.2v1.3l0.7,0.8c0,0,0.1,0.1,0.1,0.1c0,0.1,0,0.1,0,0.2l2.3,0.8l0.8-0.2c0.3-0.1,0.3-0.1,0.3-0.2v-0.6
	c-0.4-0.3-0.7-0.7-0.9-1.1c-0.2-0.4-0.3-0.9-0.3-1.4v-0.6l-0.2-0.4c-0.1-0.3-0.2-0.6-0.2-0.9v0c0-0.7,0.3-1.3,0.7-1.8
	c0.5-0.5,1.1-0.7,1.8-0.7h3.8c0,0,0,0,0,0c0,0,0,0,0,0c0,0,0.1,0,0.1,0c0,0,0.1,0,0.1,0.1c0,0,0.1,0.1,0.1,0.1c0,0,0,0.1,0,0.2v2
	c0,0.4-0.1,0.8-0.3,1.1l-0.2,0.3v0.7c0,0.4-0.1,0.8-0.2,1.1c-0.2,0.4-0.4,0.7-0.7,1c-0.1,0.1-0.2,0.2-0.4,0.3v0.5c0,0,0,0.1,0,0.1
	s0.1,0,0.1,0.1l1.6,0.5c0.7,0.2,1.2,0.9,1.2,1.6v3.2c0,0,0,0.1,0,0.1c0,0,0,0.1,0,0.1c0,0,0,0,0,0c0,0,0,0,0,0.1
	c-0.1,0.1-0.2,0.1-0.3,0.1c-0.1,0-0.2,0-0.3-0.1c-0.1-0.1-0.1-0.2-0.1-0.3V261c0-0.2-0.1-0.4-0.2-0.5c-0.1-0.2-0.3-0.3-0.5-0.3
	l-1.6-0.5c-0.1,0-0.1,0-0.2-0.1l-1,1v3.6c0,0.1,0,0.2-0.1,0.3c-0.1,0.1-0.2,0.1-0.3,0.1s-0.2,0-0.3-0.1c-0.1-0.1-0.1-0.2-0.1-0.3
	v-3.6l-1-1c-0.1,0.1-0.2,0.1-0.4,0.1l-0.1,0c0.4,0.4,0.6,0.9,0.6,1.4v3c0,0.1,0,0.2-0.1,0.3c-0.1,0.1-0.2,0.1-0.3,0.1
	c-0.1,0-0.2,0-0.3-0.1c-0.1-0.1-0.1-0.2-0.1-0.3v-3c0-0.3-0.1-0.5-0.2-0.7c-0.2-0.2-0.4-0.4-0.6-0.5l-2.5-0.9l-1.1,1.6
	c-0.1,0.1-0.2,0.2-0.3,0.2c-0.1,0.1-0.2,0.1-0.3,0.1c0,0-0.1,0-0.1,0c-0.1,0-0.2,0-0.3-0.1c-0.1,0-0.2-0.1-0.3-0.2l-0.6-0.6v4.1
	c0,0.1,0,0.2-0.1,0.3c-0.1,0.1-0.2,0.1-0.3,0.1c-0.1,0-0.2,0-0.3-0.1c-0.1-0.1-0.1-0.2-0.1-0.3v-4.1l-0.6,0.6
	c-0.1,0.1-0.2,0.1-0.3,0.2c-0.1,0-0.2,0.1-0.3,0.1c0,0,0,0,0,0l0,0l0,0c0,0,0,0,0,0c-0.1,0-0.2-0.1-0.3-0.1
	c-0.1-0.1-0.2-0.1-0.3-0.2l-1.1-1.6l-2.5,0.9c-0.2,0.1-0.5,0.3-0.6,0.5c-0.2,0.2-0.2,0.5-0.2,0.7v3l-0.8-1.2v-1.8
	c0-0.4,0.1-0.8,0.3-1.1l-0.4-0.2l-0.5,0.4c-0.3,0.3-0.7,0.5-1.1,0.5c-0.4,0-0.8-0.2-1.1-0.5L29.2,259.9z M47.9,259l0.9,0.9l0.9-0.9
	c0,0,0-0.1,0-0.1c0,0,0-0.1,0-0.1v-0.2c-0.3,0.1-0.6,0.1-0.9,0.1h-0.1c-0.3,0-0.5-0.1-0.8-0.1v0.2C48,258.9,47.9,258.9,47.9,259z
	 M46.7,255v0.7l0,0c0,1.2,0.9,2.2,2.1,2.2c0.3,0,0.6,0,0.8-0.1c0.3-0.1,0.5-0.3,0.7-0.5c0.2-0.2,0.4-0.4,0.5-0.7
	c0.1-0.3,0.2-0.5,0.2-0.8V255c0,0,0-0.1,0-0.1c0,0,0-0.1,0-0.1l0.2-0.4c0.1-0.2,0.2-0.5,0.2-0.8v-1.6H48c-0.5,0-0.9,0.2-1.2,0.5
	c-0.3,0.3-0.5,0.8-0.5,1.2v0c0,0.2,0,0.4,0.1,0.6l0.2,0.5C46.7,254.9,46.7,255,46.7,255z M38.4,260.3
	C38.4,260.3,38.4,260.3,38.4,260.3l1-1l-1.9-1.3l-0.4,0.4L38.4,260.3C38.4,260.2,38.4,260.2,38.4,260.3
	C38.4,260.3,38.4,260.3,38.4,260.3C38.4,260.3,38.4,260.3,38.4,260.3z M37.9,257.3l2.1,1.4l2.1-1.4v-0.7c-0.7,0.3-1.4,0.5-2.1,0.5
	c-0.1,0-0.2,0-0.3,0c-0.6,0-1.3-0.2-1.8-0.5V257.3z M41.7,260.3C41.7,260.3,41.7,260.2,41.7,260.3l1.2-1.8l-0.4-0.4l-1.8,1.3
	L41.7,260.3L41.7,260.3L41.7,260.3C41.6,260.3,41.6,260.3,41.7,260.3C41.6,260.3,41.6,260.3,41.7,260.3z M36.2,251.4v1
	c0,2.1,1.6,3.8,3.5,3.9c0.9,0.1,1.8-0.2,2.5-0.8l0,0c0.1-0.1,0.2-0.2,0.3-0.3c0.4-0.4,0.7-0.8,0.9-1.3c0.2-0.5,0.3-1,0.3-1.5v-1.1
	c0-0.1,0-0.1,0-0.2c0.3-0.5,0.4-1.1,0.4-1.6v-3.8h-5.5c-0.8,0-1.5,0.3-2.1,0.9c-0.6,0.6-0.9,1.3-0.9,2.1v0.8c0,0.6,0.1,1.1,0.4,1.6
	C36.2,251.3,36.2,251.3,36.2,251.4z M30.8,260c0.2,0,0.4-0.1,0.6-0.2l0.4-0.3c-0.1-0.1-0.1-0.3-0.1-0.4v-0.4
	c-0.3,0.1-0.6,0.1-0.9,0.1c-0.3,0-0.6,0-0.9-0.1v0.4c0,0.1,0,0.3-0.1,0.4l0.4,0.3C30.4,259.9,30.6,260,30.8,260z M32.5,258.7
	c0.7-0.3,1.1-0.6,1.3-0.8v0c-0.1-0.3-0.2-0.6-0.2-0.9c-0.2,0.5-0.6,1-1,1.3V258.7z M28.3,254.6c0,0.2,0,0.5,0,0.7c0,0,0,0,0,0.1
	c0,0,0,0,0,0.1c0,0,0,0,0.1,0c0,0,0.1,0,0.1,0c0,0,0,0,0,0c0,0,0,0,0,0c0,0,0.1,0,0.1,0.1c0,0,0.1,0.1,0.1,0.1c0,0,0,0.1,0,0.1
	c0,0,0,0,0,0c0,0,0,0,0,0c0,0.5,0.2,1,0.6,1.4c0.4,0.4,0.9,0.6,1.4,0.7c0.5,0,1.1-0.1,1.5-0.5c0.4-0.3,0.7-0.8,0.8-1.3
	c-0.6-1.4-2.3-1.6-2.8-1.6l-0.6,0.6c0,0-0.1,0.1-0.1,0.1c0,0-0.1,0-0.1,0c-0.1,0-0.1,0-0.2,0c0,0-0.1,0-0.1-0.1c0,0-0.1-0.1-0.1-0.1
	s0-0.1,0-0.1l0,0c0,0,0,0,0,0c0,0,0,0,0,0c0,0,0,0,0,0c0,0,0,0,0,0c0,0,0,0,0,0c0,0,0-0.1,0.1-0.1l0.7-0.7c0,0,0.1-0.1,0.1-0.1
	c0,0,0.1,0,0.1,0c0.5,0,1,0.1,1.5,0.2c0.8,0.3,1.5,0.8,1.9,1.4v-0.1c0-0.3,0-0.5,0-0.7c0-0.7-0.3-1.3-0.8-1.8
	c-0.2-0.2-0.5-0.4-0.8-0.5c-0.3-0.1-0.6-0.2-0.9-0.2s-0.6,0.1-0.9,0.2s-0.6,0.3-0.8,0.5C28.6,253.3,28.3,254,28.3,254.6z M28.1,257
	c0,0.3-0.1,0.6-0.2,0.9c0.2,0.2,0.5,0.5,1.3,0.8v-0.5C28.7,257.9,28.4,257.5,28.1,257z"/>
<path class="st9" d="M46.9,270c0.5,0,0.8-0.4,0.8-0.8c0-0.5-0.4-0.8-0.8-0.8c-0.5,0-0.8,0.4-0.8,0.8C46.1,269.6,46.4,270,46.9,270z"
	/>
<path class="st9" d="M50.8,269.2c0,0.5-0.4,0.8-0.8,0.8c-0.5,0-0.8-0.4-0.8-0.8c0-0.5,0.4-0.8,0.8-0.8
	C50.4,268.3,50.8,268.7,50.8,269.2z"/>
<path class="st9" d="M43.7,270c0.5,0,0.8-0.4,0.8-0.8c0-0.5-0.4-0.8-0.8-0.8c-0.5,0-0.8,0.4-0.8,0.8C42.8,269.6,43.2,270,43.7,270z"
	/>
<path class="st9" d="M34.7,265.1h17.9c0.3,0,0.6,0.1,0.9,0.4c0.2,0.2,0.4,0.5,0.4,0.9v5.7c0,0.3-0.1,0.6-0.4,0.9
	c-0.2,0.2-0.5,0.4-0.9,0.4H33.6c-0.1,0-0.1,0-0.2-0.1c-0.1,0-0.1-0.1-0.2-0.1c0-0.1-0.1-0.1-0.1-0.2c0-0.1,0-0.1,0-0.2l0,0
	c0-0.1,0.1-0.2,0.2-0.2c0.1-0.1,0.2-0.1,0.3-0.1h19.1c0.1,0,0.2,0,0.2-0.1c0.1-0.1,0.1-0.1,0.1-0.2v-5.7c0-0.1,0-0.2-0.1-0.2
	c-0.1-0.1-0.1-0.1-0.2-0.1H34.7c0,0,0,0-0.1,0c-0.1,0-0.1,0-0.2,0c-0.1,0-0.1-0.1-0.2-0.1l0,0c0-0.1-0.1-0.1-0.1-0.2
	c0-0.1,0-0.2,0.1-0.2c0-0.1,0.1-0.1,0.2-0.2C34.6,265.1,34.7,265.1,34.7,265.1z"/>
<path class="st9" d="M30,269.6l0,0.2c-0.1,0.2-0.1,0.4-0.2,0.6c-0.1,0.4-0.3,1-0.5,1.6l-2.4-7.3c0.1,0,0.2,0,0.4,0c0,0,0,0,0.1,0
	c0,0,0.1,0,0.1,0c0.1,0,0.2,0,0.2,0c0.2,0,0.3-0.1,0.3-0.3c0,0,0-0.1,0-0.1c0,0,0,0,0,0c0,0,0,0,0,0c-0.1,0-0.1-0.1-0.2-0.1
	c-0.7,0-1.2,0.1-1.5,0.1c-0.4,0-0.7,0-1.1,0l-0.7-0.1l-0.3,0c0,0,0,0-0.1,0c0,0,0,0,0,0c0,0,0,0,0,0c0,0-0.1,0-0.1,0
	c-0.1,0-0.1,0.1-0.1,0.2c0,0,0,0,0,0c0,0,0,0,0,0.1c0,0,0,0,0,0.1c0,0,0,0,0,0c0,0,0,0.1,0.1,0.1c0,0,0,0,0,0c0,0,0,0,0,0
	c0,0,0,0,0,0c0,0,0,0,0,0l0,0c0,0,0.1,0,0.2,0c0.1,0,0.3,0,0.5,0.1l1.1,2.9l-1.5,4.4l-2.5-7.3c0.1,0,0.3,0,0.4,0c0.1,0,0.3,0,0.4,0
	c0.2,0,0.3-0.1,0.3-0.3c0-0.1-0.1-0.1-0.1-0.2c0,0,0,0-0.1,0c0,0-0.1,0-0.1,0c-0.4,0.1-0.8,0.1-1.2,0.1c-0.4,0-0.7,0-1,0
	c0.6-0.9,1.4-1.7,2.4-2.2c1-0.6,2.1-0.8,3.2-0.8c0.9,0,1.7,0.2,2.5,0.5c0.8,0.3,1.5,0.8,2.1,1.3c-0.2,0-0.4,0-0.6,0.1
	c-0.2,0.1-0.4,0.3-0.5,0.5c-0.1,0.2-0.1,0.5-0.1,0.7c0,0.3,0.1,0.5,0.2,0.8c0.1,0.2,0.2,0.5,0.4,0.7c0.1,0.2,0.2,0.4,0.3,0.5
	c0.2,0.3,0.3,0.7,0.3,1c0,0.4,0,0.9-0.2,1.3c0,0.2-0.1,0.5-0.2,0.8l0,0.1L30,269.6z"/>
<path class="st9" d="M31.9,265.3L31.9,265.3C31.9,265.2,31.9,265.2,31.9,265.3c0-0.2,0-0.3,0-0.5c0.8,1.5,1,3.3,0.5,5
	c-0.2,0.6-0.4,1.1-0.7,1.6c-0.3,0.5-0.7,1-1.1,1.4c-0.4,0.4-0.9,0.8-1.4,1.1c0.1-0.2,0.2-0.5,0.3-1c0.2-0.5,0.3-1,0.5-1.5
	c0.2-0.5,0.3-1,0.5-1.5c0-0.1,0.1-0.2,0.1-0.3c0.1-0.3,0.2-0.6,0.2-0.7c0.1-0.3,0.2-0.6,0.3-1c0.1-0.2,0.1-0.4,0.2-0.6
	c0.2-0.6,0.3-1.2,0.4-1.8C31.9,265.5,31.9,265.4,31.9,265.3L31.9,265.3z"/>
<path class="st9" d="M19.2,268c0,0.7,0.1,1.3,0.3,1.9c0.2,0.6,0.4,1.2,0.8,1.7c0.3,0.5,0.7,1,1.2,1.4c0.5,0.4,1,0.8,1.5,1l-3.2-8.9
	C19.4,266.1,19.2,267.1,19.2,268z"/>
<path class="st9" d="M24.9,274.7c-0.3,0-0.6-0.1-0.9-0.2l2-5.9l2.1,5.8C27.1,274.8,26,274.9,24.9,274.7z"/>
<path class="st10" d="M31.5,262.3c0.7,0.7,1.3,1.6,1.7,2.5v0c0.4,1,0.6,2,0.6,3.1c0,1.1-0.2,2.1-0.6,3.1c-0.8,1.9-2.3,3.5-4.2,4.3
	c-1,0.4-2,0.6-3.1,0.6c-1.1,0-2.1-0.2-3.1-0.6c-0.9-0.4-1.8-1-2.5-1.7c-0.7-0.7-1.3-1.6-1.7-2.5c-0.4-1-0.6-2-0.6-3.1
	s0.2-2.1,0.6-3.1c0.8-1.9,2.3-3.4,4.2-4.3c1-0.4,2-0.6,3.1-0.6c1.1,0,2.1,0.2,3.1,0.6C29.9,261,30.8,261.6,31.5,262.3z M28.8,274.9
	c1.8-0.8,3.2-2.2,3.9-4c0.4-0.9,0.6-1.9,0.6-2.9c0-1-0.2-2-0.6-2.9c-0.4-0.9-0.9-1.7-1.6-2.4c-0.7-0.7-1.5-1.2-2.3-1.6
	c-0.9-0.4-1.9-0.6-2.9-0.6c-1,0-2,0.2-2.9,0.6c-0.9,0.4-1.7,0.9-2.3,1.6c-0.7,0.7-1.2,1.5-1.6,2.4c-0.4,0.9-0.6,1.9-0.6,2.9
	c0,1,0.2,2,0.6,2.9c0.8,1.8,2.2,3.2,3.9,4c0.9,0.4,1.9,0.6,2.9,0.6C26.9,275.4,27.9,275.2,28.8,274.9z"/>
<radialGradient id="SVGID_5_" cx="-254.5146" cy="565.0833" r="1" gradientTransform="matrix(20.9684 4.94 4.3877 -18.624 2891.0796 12101.6455)" gradientUnits="userSpaceOnUse">
	<stop  offset="0" style="stop-color:#677983"/>
	<stop  offset="1" style="stop-color:#677983;stop-opacity:0"/>
</radialGradient>
<path class="st12" d="M53.4,318.4V317c0-0.7-0.5-1.4-1.2-1.6l-1.6-0.5c0,0-0.1,0-0.1-0.1s0-0.1,0-0.1v-0.5c0.1-0.1,0.3-0.2,0.4-0.3
	c0.3-0.3,0.5-0.6,0.7-1c0.2-0.4,0.2-0.7,0.2-1.1v-0.7l0.2-0.3c0.2-0.3,0.3-0.7,0.3-1.1v-2c0-0.1,0-0.1,0-0.1c0,0,0-0.1-0.1-0.1
	c0,0-0.1-0.1-0.1-0.1c0,0-0.1,0-0.1,0c0,0,0,0,0,0c0,0,0,0,0,0H48c-0.7,0-1.3,0.3-1.8,0.7c-0.5,0.5-0.7,1.1-0.7,1.8v0
	c0,0.3,0.1,0.6,0.2,0.9l0.2,0.4v0.6c0,0.5,0.1,1,0.3,1.4c0.2,0.4,0.5,0.8,0.9,1.1v0.6c0,0.1,0,0.1-0.3,0.2l-0.8,0.2l-2.3-0.8
	c0-0.1,0-0.1,0-0.2c0-0.1,0-0.1-0.1-0.1l-0.7-0.8v-1.3c0.1-0.1,0.2-0.1,0.2-0.2c0.5-0.4,0.8-0.9,1.1-1.5c0.2-0.6,0.4-1.2,0.4-1.8v-1
	c0.3-0.6,0.4-1.2,0.4-1.9v-4.2c0-0.1,0-0.1,0-0.1c0,0,0,0,0-0.1c0,0,0,0,0-0.1c0,0-0.1-0.1-0.1-0.1c0,0-0.1,0-0.1,0h-5.9
	c-1,0-1.9,0.4-2.6,1.1c-0.7,0.7-1.1,1.7-1.1,2.6v0.8c0,0.7,0.1,1.3,0.4,1.9v0.9c0,0.7,0.1,1.4,0.4,2c0.3,0.6,0.7,1.2,1.2,1.6v1.3
	l-0.7,0.8c0,0-0.1,0.1-0.1,0.1c0,0.1,0,0.1,0,0.2l-2.4,0.9c-0.2,0.1-0.3,0.1-0.5,0.3l-0.4-0.2c1.1-0.5,1.5-1.2,1.5-1.2
	c0-0.1,0-0.1,0-0.2c0,0,0-0.1,0-0.1c0,0,0-0.1,0-0.1c-0.3-0.6-0.3-1.6-0.3-2.4c0-0.3,0-0.5,0-0.8c-0.1-1.9-1.6-3.3-3.3-3.3
	s-3.2,1.4-3.3,3.3c0,0.2,0,0.5,0,0.8c0,0.8-0.1,1.9-0.3,2.4c0,0,0,0,0,0.1c0,0,0,0,0,0.1c0,0,0,0,0,0.1c0,0.1,0,0.1,0,0.2l0,0
	c0,0.1,0.4,0.7,1.5,1.2l-0.9,0.6c-0.1,0.1-0.2,0.2-0.3,0.2c-0.5-0.1-1-0.2-1.6-0.2c-1.1,0-2.1,0.2-3.1,0.6c-1.9,0.8-3.4,2.3-4.2,4.3
	c-0.4,1-0.6,2-0.6,3.1s0.2,2.1,0.6,3.1c0.4,0.9,1,1.8,1.7,2.5c0.7,0.7,1.6,1.3,2.5,1.7c1,0.4,2,0.6,3.1,0.6c1.1,0,2.1-0.2,3.1-0.6
	c1.2-0.5,2.3-1.3,3.1-2.4h1.1c0,0,0,0,0,0c0,0.1,0.1,0.1,0.2,0.1c0.1,0,0.1,0.1,0.2,0.1h19.1c0.3,0,0.6-0.1,0.9-0.4
	c0.2-0.2,0.4-0.5,0.4-0.9v-5.7c0-0.3-0.1-0.6-0.4-0.9c0,0-0.1-0.1-0.1-0.1L53.4,318.4L53.4,318.4z"/>
<path class="st13" d="M49.9,310.5c0.1,0,0.1,0,0.2,0c0.1,0,0.1,0,0.2-0.1c0.1,0,0.1-0.1,0.1-0.2c0,0,0-0.1,0-0.1c0,0,0-0.1,0-0.1
	c0,0,0-0.1-0.1-0.1c0,0-0.1-0.1-0.1-0.1c-0.9-0.5-2.6-0.5-2.7-0.5c-0.1,0-0.2,0-0.3,0.1c-0.1,0.1-0.1,0.2-0.1,0.3
	c0,0.1,0,0.2,0.1,0.3c0.1,0.1,0.2,0.1,0.3,0.1C48,310.2,49.3,310.2,49.9,310.5z"/>
<path class="st13" d="M37.5,305.5C37.5,305.5,37.5,305.5,37.5,305.5c0.9-0.2,1.7-0.2,2.6-0.1c1.2,0.1,2.1,0.4,2.6,0.9
	c0.1,0.1,0.2,0.1,0.3,0.1c0.1,0,0.2,0,0.3-0.1c0,0,0.1-0.1,0.1-0.1c0,0,0,0,0,0c0,0,0,0,0,0c0,0,0,0,0,0c0,0,0,0,0-0.1
	c0-0.1,0-0.1,0-0.2c0,0,0-0.1-0.1-0.1c-1.5-1.5-4.6-1.2-5.8-1c-0.2,0-0.4,0.1-0.5,0.3c-0.1,0.1-0.2,0.3-0.2,0.5v0.9
	c0,0.1,0,0.2,0.1,0.3c0.1,0.1,0.2,0.1,0.3,0.1c0.1,0,0.2,0,0.3-0.1c0.1-0.1,0.1-0.2,0.1-0.3V305.5z"/>
<path class="st14" d="M29.2,315.9l-0.9,0.2l-0.8-0.3l1.1-0.5c-1.1-0.5-1.5-1.1-1.5-1.2l0,0c0-0.1,0-0.1,0-0.2c0,0,0,0,0-0.1
	c0,0,0,0,0-0.1c0,0,0,0,0-0.1c0.3-0.6,0.3-1.6,0.3-2.4c0-0.3,0-0.5,0-0.8c0.1-1.9,1.6-3.3,3.3-3.3s3.2,1.4,3.3,3.3
	c0,0.2,0,0.5,0,0.8c0,0.8,0.1,1.9,0.3,2.4c0,0,0,0.1,0,0.1c0,0,0,0.1,0,0.1c0,0.1,0,0.1,0,0.2c0,0-0.4,0.7-1.5,1.2l0.4,0.2
	c0.1-0.1,0.3-0.2,0.5-0.3l2.4-0.9c0-0.1,0-0.1,0-0.2c0-0.1,0-0.1,0.1-0.1l0.7-0.8V312c-0.5-0.5-1-1-1.2-1.6c-0.3-0.6-0.4-1.3-0.4-2
	v-0.9c-0.3-0.6-0.4-1.2-0.4-1.9v-0.8c0-1,0.4-1.9,1.1-2.6c0.7-0.7,1.7-1.1,2.6-1.1h5.9c0.1,0,0.1,0,0.1,0c0,0,0.1,0,0.1,0.1
	c0,0,0,0,0,0.1c0,0,0,0,0,0.1c0,0,0,0.1,0,0.1v4.2c0,0.7-0.1,1.3-0.4,1.9v1c0,0.6-0.1,1.2-0.4,1.8c-0.2,0.6-0.6,1.1-1.1,1.5
	c-0.1,0.1-0.2,0.1-0.2,0.2v1.3l0.7,0.8c0,0,0.1,0.1,0.1,0.1c0,0.1,0,0.1,0,0.2l2.3,0.8l0.8-0.2c0.3-0.1,0.3-0.1,0.3-0.2v-0.6
	c-0.4-0.3-0.7-0.7-0.9-1.1c-0.2-0.4-0.3-0.9-0.3-1.4v-0.6l-0.2-0.4c-0.1-0.3-0.2-0.6-0.2-0.9v0c0-0.7,0.3-1.3,0.7-1.8
	c0.5-0.5,1.1-0.7,1.8-0.7h3.8c0,0,0,0,0,0c0,0,0,0,0,0c0,0,0.1,0,0.1,0c0,0,0.1,0,0.1,0.1c0,0,0.1,0.1,0.1,0.1c0,0,0,0.1,0,0.1v2
	c0,0.4-0.1,0.8-0.3,1.1l-0.2,0.3v0.7c0,0.4-0.1,0.8-0.2,1.1c-0.2,0.4-0.4,0.7-0.7,1c-0.1,0.1-0.2,0.2-0.4,0.3v0.5c0,0,0,0.1,0,0.1
	s0.1,0,0.1,0.1l1.6,0.5c0.7,0.2,1.2,0.9,1.2,1.6v3.2c0,0,0,0.1,0,0.1c0,0,0,0.1,0,0.1c0,0,0,0,0,0c0,0,0,0,0,0.1
	c-0.1,0.1-0.2,0.1-0.3,0.1c-0.1,0-0.2,0-0.3-0.1c-0.1-0.1-0.1-0.2-0.1-0.3V317c0-0.2-0.1-0.4-0.2-0.5c-0.1-0.2-0.3-0.3-0.5-0.3
	l-1.6-0.5c-0.1,0-0.1,0-0.2-0.1l-1,1v3.6c0,0.1,0,0.2-0.1,0.3c-0.1,0.1-0.2,0.1-0.3,0.1s-0.2,0-0.3-0.1c-0.1-0.1-0.1-0.2-0.1-0.3
	v-3.6l-1-1c-0.1,0.1-0.2,0.1-0.4,0.1l-0.1,0c0.4,0.4,0.6,0.9,0.6,1.4v3c0,0.1,0,0.2-0.1,0.3c-0.1,0.1-0.2,0.1-0.3,0.1
	c-0.1,0-0.2,0-0.3-0.1c-0.1-0.1-0.1-0.2-0.1-0.3v-3c0-0.3-0.1-0.5-0.2-0.7c-0.2-0.2-0.4-0.4-0.6-0.5l-2.5-0.9l-1.1,1.6
	c-0.1,0.1-0.2,0.2-0.3,0.2c-0.1,0.1-0.2,0.1-0.3,0.1c0,0-0.1,0-0.1,0c-0.1,0-0.2,0-0.3-0.1c-0.1,0-0.2-0.1-0.3-0.2l-0.6-0.6v4.1
	c0,0.1,0,0.2-0.1,0.3c-0.1,0.1-0.2,0.1-0.3,0.1c-0.1,0-0.2,0-0.3-0.1c-0.1-0.1-0.1-0.2-0.1-0.3v-4.1l-0.6,0.6
	c-0.1,0.1-0.2,0.1-0.3,0.2c-0.1,0-0.2,0.1-0.3,0.1c0,0,0,0,0,0l0,0l0,0c0,0,0,0,0,0c-0.1,0-0.2-0.1-0.3-0.1
	c-0.1-0.1-0.2-0.1-0.3-0.2l-1.1-1.6l-2.5,0.9c-0.2,0.1-0.5,0.3-0.6,0.5c-0.2,0.2-0.2,0.5-0.2,0.7v3l-0.8-1.2v-1.8
	c0-0.4,0.1-0.8,0.3-1.1l-0.4-0.2l-0.5,0.4c-0.3,0.3-0.7,0.5-1.1,0.5c-0.4,0-0.8-0.2-1.1-0.5L29.2,315.9z M47.9,315l0.9,0.9l0.9-0.9
	c0,0,0-0.1,0-0.1c0,0,0-0.1,0-0.1v-0.2c-0.3,0.1-0.6,0.1-0.9,0.1h-0.1c-0.3,0-0.5-0.1-0.8-0.1v0.2C48,314.9,47.9,314.9,47.9,315z
	 M46.7,311v0.7l0,0c0,1.2,0.9,2.2,2.1,2.2c0.3,0,0.6,0,0.8-0.1c0.3-0.1,0.5-0.3,0.7-0.5c0.2-0.2,0.4-0.4,0.5-0.7
	c0.1-0.3,0.2-0.5,0.2-0.8V311c0,0,0-0.1,0-0.1c0,0,0-0.1,0-0.1l0.2-0.4c0.1-0.2,0.2-0.5,0.2-0.8v-1.6H48c-0.5,0-0.9,0.2-1.2,0.5
	c-0.3,0.3-0.5,0.8-0.5,1.2v0c0,0.2,0,0.4,0.1,0.6l0.2,0.5C46.7,310.9,46.7,311,46.7,311z M38.4,316.3
	C38.4,316.3,38.4,316.3,38.4,316.3l1-1l-1.9-1.3l-0.4,0.4L38.4,316.3C38.4,316.2,38.4,316.2,38.4,316.3
	C38.4,316.3,38.4,316.3,38.4,316.3C38.4,316.3,38.4,316.3,38.4,316.3z M37.9,313.3l2.1,1.4l2.1-1.4v-0.7c-0.7,0.3-1.4,0.5-2.1,0.5
	c-0.1,0-0.2,0-0.3,0c-0.6,0-1.3-0.2-1.8-0.5V313.3z M41.7,316.3C41.7,316.3,41.7,316.2,41.7,316.3l1.2-1.8l-0.4-0.4l-1.8,1.3
	L41.7,316.3L41.7,316.3L41.7,316.3C41.6,316.3,41.6,316.3,41.7,316.3C41.6,316.3,41.6,316.3,41.7,316.3z M36.2,307.4v1
	c0,2.1,1.6,3.8,3.5,3.9c0.9,0.1,1.8-0.2,2.5-0.8l0,0c0.1-0.1,0.2-0.2,0.3-0.3c0.4-0.4,0.7-0.8,0.9-1.3c0.2-0.5,0.3-1,0.3-1.5v-1.1
	c0-0.1,0-0.1,0-0.2c0.3-0.5,0.4-1.1,0.4-1.6v-3.8h-5.5c-0.8,0-1.5,0.3-2.1,0.9c-0.6,0.6-0.9,1.3-0.9,2.1v0.8c0,0.6,0.1,1.1,0.4,1.6
	C36.2,307.3,36.2,307.3,36.2,307.4z M30.8,316c0.2,0,0.4-0.1,0.6-0.2l0.4-0.3c-0.1-0.1-0.1-0.3-0.1-0.4v-0.4
	c-0.3,0.1-0.6,0.1-0.9,0.1c-0.3,0-0.6,0-0.9-0.1v0.4c0,0.1,0,0.3-0.1,0.4l0.4,0.3C30.4,315.9,30.6,316,30.8,316z M32.5,314.7
	c0.7-0.3,1.1-0.6,1.3-0.8v0c-0.1-0.3-0.2-0.6-0.2-0.9c-0.2,0.5-0.6,1-1,1.3V314.7z M28.3,310.6c0,0.2,0,0.5,0,0.7c0,0,0,0,0,0
	c0,0,0,0,0,0.1c0,0,0,0,0.1,0c0,0,0.1,0,0.1,0c0,0,0,0,0,0c0,0,0,0,0,0c0,0,0.1,0,0.1,0.1c0,0,0.1,0.1,0.1,0.1c0,0,0,0.1,0,0.1
	c0,0,0,0,0,0c0,0,0,0,0,0c0,0.5,0.2,1,0.6,1.4c0.4,0.4,0.9,0.6,1.4,0.7c0.5,0,1.1-0.1,1.5-0.5c0.4-0.3,0.7-0.8,0.8-1.3
	c-0.6-1.4-2.3-1.6-2.8-1.6l-0.6,0.6c0,0-0.1,0.1-0.1,0.1c0,0-0.1,0-0.1,0c-0.1,0-0.1,0-0.2,0c0,0-0.1,0-0.1-0.1c0,0-0.1-0.1-0.1-0.1
	s0-0.1,0-0.1l0,0c0,0,0,0,0,0c0,0,0,0,0,0c0,0,0,0,0,0c0,0,0,0,0,0c0,0,0,0,0,0c0,0,0-0.1,0.1-0.1l0.7-0.7c0,0,0.1-0.1,0.1-0.1
	c0,0,0.1,0,0.1,0c0.5,0,1,0.1,1.5,0.2c0.8,0.3,1.5,0.8,1.9,1.4v-0.1c0-0.3,0-0.5,0-0.7c0-0.7-0.3-1.3-0.8-1.8
	c-0.2-0.2-0.5-0.4-0.8-0.5c-0.3-0.1-0.6-0.2-0.9-0.2s-0.6,0.1-0.9,0.2c-0.3,0.1-0.6,0.3-0.8,0.5C28.6,309.3,28.3,310,28.3,310.6z
	 M28.1,313c0,0.3-0.1,0.6-0.2,0.9c0.2,0.2,0.5,0.5,1.3,0.8v-0.5C28.7,313.9,28.4,313.5,28.1,313z"/>
<path class="st13" d="M46.9,326c0.5,0,0.8-0.4,0.8-0.8c0-0.5-0.4-0.8-0.8-0.8c-0.5,0-0.8,0.4-0.8,0.8C46.1,325.6,46.4,326,46.9,326z
	"/>
<path class="st13" d="M50.8,325.2c0,0.5-0.4,0.8-0.8,0.8c-0.5,0-0.8-0.4-0.8-0.8c0-0.5,0.4-0.8,0.8-0.8
	C50.4,324.3,50.8,324.7,50.8,325.2z"/>
<path class="st13" d="M43.7,326c0.5,0,0.8-0.4,0.8-0.8c0-0.5-0.4-0.8-0.8-0.8c-0.5,0-0.8,0.4-0.8,0.8C42.8,325.6,43.2,326,43.7,326z
	"/>
<path class="st13" d="M34.7,321.1h17.9c0.3,0,0.6,0.1,0.9,0.4c0.2,0.2,0.4,0.5,0.4,0.9v5.7c0,0.3-0.1,0.6-0.4,0.9
	c-0.2,0.2-0.5,0.4-0.9,0.4H33.6c-0.1,0-0.1,0-0.2-0.1c-0.1,0-0.1-0.1-0.2-0.1c0-0.1-0.1-0.1-0.1-0.2c0-0.1,0-0.1,0-0.2l0,0
	c0-0.1,0.1-0.2,0.2-0.2c0.1-0.1,0.2-0.1,0.3-0.1h19.1c0.1,0,0.2,0,0.2-0.1c0.1-0.1,0.1-0.1,0.1-0.2v-5.7c0-0.1,0-0.2-0.1-0.2
	c-0.1-0.1-0.1-0.1-0.2-0.1H34.7c0,0,0,0-0.1,0c-0.1,0-0.1,0-0.2,0c-0.1,0-0.1-0.1-0.2-0.1l0,0c0-0.1-0.1-0.1-0.1-0.2
	c0-0.1,0-0.2,0.1-0.2c0-0.1,0.1-0.1,0.2-0.2C34.6,321.1,34.7,321.1,34.7,321.1z"/>
<path class="st13" d="M30,325.6l0,0.2c-0.1,0.2-0.1,0.4-0.2,0.6c-0.1,0.4-0.3,1-0.5,1.6l-2.4-7.3c0.1,0,0.2,0,0.4,0c0,0,0,0,0.1,0
	c0,0,0.1,0,0.1,0c0.1,0,0.2,0,0.2,0c0.2,0,0.3-0.1,0.3-0.3c0,0,0-0.1,0-0.1c0,0,0,0,0,0c0,0,0,0,0,0c-0.1,0-0.1-0.1-0.2-0.1
	c-0.7,0-1.2,0.1-1.5,0.1c-0.4,0-0.7,0-1.1,0l-0.7-0.1l-0.3,0c0,0,0,0-0.1,0c0,0,0,0,0,0c0,0,0,0,0,0c0,0-0.1,0-0.1,0
	c-0.1,0-0.1,0.1-0.1,0.2c0,0,0,0,0,0c0,0,0,0,0,0.1c0,0,0,0,0,0.1c0,0,0,0,0,0c0,0,0,0.1,0.1,0.1c0,0,0,0,0,0c0,0,0,0,0,0
	c0,0,0,0,0,0c0,0,0,0,0,0l0,0c0,0,0.1,0,0.2,0c0.1,0,0.3,0,0.5,0.1l1.1,2.9l-1.5,4.4l-2.5-7.3c0.1,0,0.3,0,0.4,0c0.1,0,0.3,0,0.4,0
	c0.2,0,0.3-0.1,0.3-0.3c0-0.1-0.1-0.1-0.1-0.2c0,0,0,0-0.1,0c0,0-0.1,0-0.1,0c-0.4,0.1-0.8,0.1-1.2,0.1c-0.4,0-0.7,0-1,0
	c0.6-0.9,1.4-1.7,2.4-2.2c1-0.6,2.1-0.8,3.2-0.8c0.9,0,1.7,0.2,2.5,0.5c0.8,0.3,1.5,0.8,2.1,1.3c-0.2,0-0.4,0-0.6,0.1
	c-0.2,0.1-0.4,0.3-0.5,0.5c-0.1,0.2-0.1,0.5-0.1,0.7c0,0.3,0.1,0.5,0.2,0.8c0.1,0.2,0.2,0.5,0.4,0.7c0.1,0.2,0.2,0.4,0.3,0.5
	c0.2,0.3,0.3,0.7,0.3,1c0,0.4,0,0.9-0.2,1.3c0,0.2-0.1,0.5-0.2,0.8l0,0.1L30,325.6z"/>
<path class="st13" d="M31.9,321.3L31.9,321.3C31.9,321.2,31.9,321.2,31.9,321.3c0-0.2,0-0.3,0-0.5c0.8,1.5,1,3.3,0.5,5
	c-0.2,0.6-0.4,1.1-0.7,1.6c-0.3,0.5-0.7,1-1.1,1.4c-0.4,0.4-0.9,0.8-1.4,1.1c0.1-0.2,0.2-0.5,0.3-1c0.2-0.5,0.3-1,0.5-1.5
	c0.2-0.5,0.3-1,0.5-1.5c0-0.1,0.1-0.2,0.1-0.3c0.1-0.3,0.2-0.6,0.2-0.7c0.1-0.3,0.2-0.6,0.3-1c0.1-0.2,0.1-0.4,0.2-0.6
	c0.2-0.6,0.3-1.2,0.4-1.8C31.9,321.5,31.9,321.4,31.9,321.3L31.9,321.3z"/>
<path class="st13" d="M19.2,324c0,0.7,0.1,1.3,0.3,1.9c0.2,0.6,0.4,1.2,0.8,1.7c0.3,0.5,0.7,1,1.2,1.4c0.5,0.4,1,0.8,1.5,1l-3.2-8.9
	C19.4,322.1,19.2,323.1,19.2,324z"/>
<path class="st13" d="M24.9,330.7c-0.3,0-0.6-0.1-0.9-0.2l2-5.9l2.1,5.8C27.1,330.8,26,330.9,24.9,330.7z"/>
<path class="st14" d="M31.5,318.3c0.7,0.7,1.3,1.6,1.7,2.5v0c0.4,1,0.6,2,0.6,3.1c0,1.1-0.2,2.1-0.6,3.1c-0.8,1.9-2.3,3.5-4.2,4.3
	c-1,0.4-2,0.6-3.1,0.6c-1.1,0-2.1-0.2-3.1-0.6c-0.9-0.4-1.8-1-2.5-1.7c-0.7-0.7-1.3-1.6-1.7-2.5c-0.4-1-0.6-2-0.6-3.1
	s0.2-2.1,0.6-3.1c0.8-1.9,2.3-3.4,4.2-4.3c1-0.4,2-0.6,3.1-0.6c1.1,0,2.1,0.2,3.1,0.6C29.9,317,30.8,317.6,31.5,318.3z M28.8,330.9
	c1.8-0.8,3.2-2.2,3.9-4c0.4-0.9,0.6-1.9,0.6-2.9c0-1-0.2-2-0.6-2.9c-0.4-0.9-0.9-1.7-1.6-2.4c-0.7-0.7-1.5-1.2-2.3-1.6
	c-0.9-0.4-1.9-0.6-2.9-0.6c-1,0-2,0.2-2.9,0.6c-0.9,0.4-1.7,0.9-2.3,1.6c-0.7,0.7-1.2,1.5-1.6,2.4c-0.4,0.9-0.6,1.9-0.6,2.9
	c0,1,0.2,2,0.6,2.9c0.8,1.8,2.2,3.2,3.9,4c0.9,0.4,1.9,0.6,2.9,0.6C26.9,331.4,27.9,331.2,28.8,330.9z"/>
</svg>
