<?xml version="1.0" encoding="utf-8"?>
<!-- Generator: Adobe Illustrator 25.2.1, SVG Export Plug-In . SVG Version: 6.00 Build 0)  -->
<svg version="1.1" id="Layer_1" xmlns="http://www.w3.org/2000/svg" xmlns:xlink="http://www.w3.org/1999/xlink" x="0px" y="0px"
	 viewBox="0 0 72 352" style="enable-background:new 0 0 72 352;" xml:space="preserve">
<style type="text/css">
	.st0{fill-rule:evenodd;clip-rule:evenodd;fill:url(#SVGID_1_);fill-opacity:0.25;}
	.st1{fill:#0073EC;}
	.st2{fill-rule:evenodd;clip-rule:evenodd;fill:#0073EC;}
	.st3{fill-rule:evenodd;clip-rule:evenodd;fill:url(#SVGID_2_);fill-opacity:0.25;}
	.st4{fill:#A644E5;}
	.st5{fill-rule:evenodd;clip-rule:evenodd;fill:#A644E5;}
	.st6{fill-rule:evenodd;clip-rule:evenodd;fill:url(#SVGID_3_);fill-opacity:0.25;}
	.st7{fill:#00CAAA;}
	.st8{fill-rule:evenodd;clip-rule:evenodd;fill:#00CAAA;}
	.st9{fill:#434F58;}
	.st10{fill-rule:evenodd;clip-rule:evenodd;fill:#434F58;}
	.st11{fill-rule:evenodd;clip-rule:evenodd;fill:url(#SVGID_4_);fill-opacity:0.25;}
	.st12{fill-rule:evenodd;clip-rule:evenodd;fill:url(#SVGID_5_);fill-opacity:0.25;}
	.st13{fill:#677983;}
	.st14{fill-rule:evenodd;clip-rule:evenodd;fill:#677983;}
</style>
<radialGradient id="SVGID_1_" cx="-249.8525" cy="564.9949" r="1" gradientTransform="matrix(16 4.5 4.6671 -16.5941 1394.7751 10539.4092)" gradientUnits="userSpaceOnUse">
	<stop  offset="0" style="stop-color:#0073EC"/>
	<stop  offset="1" style="stop-color:#0073EC;stop-opacity:0"/>
	<stop  offset="1" style="stop-color:#0073EC;stop-opacity:0"/>
</radialGradient>
<path class="st0" d="M22,49c0,0.3,0.1,0.6,0.4,0.9c0.2,0.2,0.5,0.4,0.9,0.4h8.9h0h16.1c0.3,0,0.6-0.1,0.9-0.4
	c0.2-0.2,0.4-0.5,0.4-0.9v-5.7c0-0.3-0.1-0.6-0.4-0.9l0,0l-0.1-0.9v-1V38c0-0.7-0.5-1.4-1.2-1.6L46.1,36c0,0-0.1,0-0.1-0.1
	c0,0,0-0.1,0-0.1v-0.5c0.1-0.1,0.3-0.2,0.4-0.3c0.3-0.3,0.5-0.6,0.7-1c0.2-0.4,0.2-0.7,0.2-1.1v-0.7l0.2-0.3
	c0.2-0.3,0.3-0.7,0.3-1.1v-2c0-0.1,0-0.1,0-0.1c0,0,0-0.1-0.1-0.1c0,0-0.1-0.1-0.1-0.1c0,0-0.1,0-0.1,0h-3.8c-0.7,0-1.3,0.3-1.8,0.7
	c-0.5,0.5-0.7,1.1-0.7,1.8v0c0,0.3,0.1,0.6,0.2,0.9l0.2,0.4v0.6c0,0.5,0.1,1,0.3,1.4c0.2,0.4,0.5,0.8,0.9,1.1v0.6
	c0,0.1,0,0.1-0.3,0.2l-0.8,0.2l-2.3-0.8c0-0.1,0-0.1,0-0.2c0-0.1,0-0.1-0.1-0.1l-0.7-0.8v-1.3c0.1-0.1,0.2-0.1,0.2-0.2
	c0.5-0.4,0.8-0.9,1.1-1.5c0.2-0.6,0.4-1.2,0.4-1.8v-1c0.3-0.6,0.4-1.2,0.4-1.9v-4.2c0-0.1,0-0.1,0-0.1c0,0,0-0.1-0.1-0.1
	c0,0-0.1-0.1-0.1-0.1c0,0-0.1,0-0.1,0h-5.9c-1,0-1.9,0.4-2.6,1.1c-0.7,0.7-1.1,1.7-1.1,2.6v0.8c0,0.7,0.1,1.3,0.4,1.9v0.9
	c0,0.7,0.1,1.4,0.4,2c0.3,0.6,0.7,1.2,1.2,1.6v1.3l-0.7,0.8c0,0-0.1,0.1-0.1,0.1c0,0.1,0,0.1,0,0.2l-2.4,0.9
	c-0.2,0.1-0.3,0.1-0.5,0.3l-0.4-0.2c1.1-0.5,1.5-1.2,1.5-1.2c0-0.1,0-0.1,0-0.2c0-0.1,0-0.1,0-0.2c-0.3-0.6-0.3-1.6-0.3-2.4
	c0-0.3,0-0.5,0-0.8c-0.1-1.9-1.6-3.3-3.3-3.3c-1.8,0-3.2,1.4-3.3,3.3c0,0.2,0,0.5,0,0.8c0,0.8-0.1,1.9-0.3,2.4c0,0.1,0,0.1,0,0.2
	c0,0.1,0,0.1,0,0.2l0,0c0,0.1,0.4,0.7,1.5,1.2l-1.1,0.5c-0.3,0.1-0.5,0.3-0.7,0.6c-0.2,0.3-0.2,0.6-0.2,0.9v2.2v1L22,49z"/>
<path class="st1" d="M45.4,31.5c0.1,0,0.1,0,0.2,0c0.1,0,0.1,0,0.2-0.1c0.1,0,0.1-0.1,0.1-0.2c0,0,0-0.1,0-0.1c0-0.1,0-0.1,0-0.1
	c0,0,0-0.1-0.1-0.1c0,0-0.1-0.1-0.1-0.1c-0.9-0.5-2.6-0.5-2.7-0.5c-0.1,0-0.2,0-0.3,0.1c-0.1,0.1-0.1,0.2-0.1,0.3
	c0,0.1,0,0.2,0.1,0.3c0.1,0.1,0.2,0.1,0.3,0.1C43.5,31.2,44.8,31.2,45.4,31.5z"/>
<path class="st1" d="M33,26.5C33,26.5,33,26.5,33,26.5c0.9-0.2,1.7-0.2,2.6-0.1c1.2,0.1,2.1,0.4,2.6,0.9c0.1,0.1,0.2,0.1,0.3,0.1
	s0.2,0,0.3-0.1c0,0,0.1-0.1,0.1-0.1c0,0,0-0.1,0-0.2c0-0.1,0-0.1,0-0.2c0,0,0-0.1-0.1-0.1c-1.5-1.5-4.6-1.2-5.8-1
	c-0.2,0-0.4,0.1-0.5,0.3c-0.1,0.1-0.2,0.3-0.2,0.5v0.9c0,0.1,0,0.2,0.1,0.3c0.1,0.1,0.2,0.1,0.3,0.1c0.1,0,0.2,0,0.3-0.1
	c0.1-0.1,0.1-0.2,0.1-0.3V26.5z"/>
<path class="st2" d="M23.1,37.9c-0.1,0.1-0.1,0.3-0.1,0.5v3c0,0.2-0.2,0.4-0.4,0.4c-0.2,0-0.4-0.2-0.4-0.4v-3c0-0.3,0.1-0.6,0.2-0.9
	c0.2-0.3,0.4-0.5,0.7-0.6l1.1-0.5c-1.1-0.5-1.5-1.1-1.5-1.2l0,0c0-0.1,0-0.1,0-0.2c0-0.1,0-0.1,0-0.2c0.3-0.6,0.3-1.6,0.3-2.4
	c0-0.3,0-0.5,0-0.8c0.1-1.9,1.6-3.3,3.3-3.3c1.8,0,3.2,1.4,3.3,3.3c0,0.2,0,0.5,0,0.8c0,0.8,0.1,1.9,0.3,2.4c0,0.1,0,0.1,0,0.2
	c0,0.1,0,0.1,0,0.2c0,0-0.4,0.7-1.5,1.2l0.4,0.2c0.1-0.1,0.3-0.2,0.5-0.3l2.4-0.9c0-0.1,0-0.1,0-0.2c0-0.1,0-0.1,0.1-0.1l0.7-0.8V33
	c-0.5-0.5-1-1-1.2-1.6c-0.3-0.6-0.4-1.3-0.4-2v-0.9c-0.3-0.6-0.4-1.2-0.4-1.9v-0.8c0-1,0.4-1.9,1.1-2.6c0.7-0.7,1.7-1.1,2.6-1.1h5.9
	c0.1,0,0.1,0,0.1,0c0,0,0.1,0,0.1,0.1c0,0,0.1,0.1,0.1,0.1c0,0,0,0.1,0,0.1v4.2c0,0.7-0.1,1.3-0.4,1.9v1c0,0.6-0.1,1.2-0.4,1.8
	c-0.2,0.6-0.6,1.1-1.1,1.5c-0.1,0.1-0.2,0.1-0.2,0.2v1.3l0.7,0.8c0,0,0.1,0.1,0.1,0.1c0,0.1,0,0.1,0,0.2l2.3,0.8l0.8-0.2
	c0.3-0.1,0.3-0.1,0.3-0.2v-0.6c-0.4-0.3-0.7-0.7-0.9-1.1c-0.2-0.4-0.3-0.9-0.3-1.4v-0.6l-0.2-0.4c-0.1-0.3-0.2-0.6-0.2-0.9v0
	c0-0.7,0.3-1.3,0.7-1.8c0.5-0.5,1.1-0.7,1.8-0.7h3.8c0.1,0,0.1,0,0.1,0c0,0,0.1,0,0.1,0.1c0,0,0.1,0.1,0.1,0.1c0,0,0,0.1,0,0.1v2
	c0,0.4-0.1,0.8-0.3,1.1l-0.2,0.3v0.7c0,0.4-0.1,0.8-0.2,1.1c-0.2,0.4-0.4,0.7-0.7,1c-0.1,0.1-0.2,0.2-0.4,0.3v0.5c0,0,0,0.1,0,0.1
	c0,0,0.1,0,0.1,0.1l1.6,0.5c0.7,0.2,1.2,0.9,1.2,1.6v3.2c0,0.1,0,0.2-0.1,0.3c-0.1,0.1-0.2,0.1-0.3,0.1c-0.1,0-0.2,0-0.3-0.1
	c-0.1-0.1-0.1-0.2-0.1-0.3V38c0-0.2-0.1-0.4-0.2-0.5c-0.1-0.1-0.3-0.3-0.5-0.3l-1.6-0.5c-0.1,0-0.1,0-0.2-0.1l-1,1v3.6
	c0,0.1,0,0.2-0.1,0.3c-0.1,0.1-0.2,0.1-0.3,0.1s-0.2,0-0.3-0.1c-0.1-0.1-0.1-0.2-0.1-0.3v-3.6l-1-1c-0.1,0.1-0.2,0.1-0.4,0.1l-0.1,0
	c0.4,0.4,0.6,0.9,0.6,1.4v3c0,0.1,0,0.2-0.1,0.3c-0.1,0.1-0.2,0.1-0.3,0.1c-0.1,0-0.2,0-0.3-0.1c-0.1-0.1-0.1-0.2-0.1-0.3v-3
	c0-0.3-0.1-0.5-0.2-0.7c-0.2-0.2-0.4-0.4-0.6-0.5l-2.5-0.9l-1.1,1.6c-0.1,0.1-0.2,0.2-0.3,0.2C37.5,38,37.3,38,37.2,38
	c0,0-0.1,0-0.1,0c-0.1,0-0.2,0-0.3-0.1c-0.1,0-0.2-0.1-0.3-0.2l-0.6-0.6v4.1c0,0.1,0,0.2-0.1,0.3c-0.1,0.1-0.2,0.1-0.3,0.1
	c-0.1,0-0.2,0-0.3-0.1c-0.1-0.1-0.1-0.2-0.1-0.3v-4.1l-0.6,0.6c-0.1,0.1-0.2,0.1-0.3,0.2C34.1,38,34,38,33.9,38c0,0,0,0,0,0
	c0,0,0,0,0,0c-0.1,0-0.2,0-0.3-0.1c-0.1-0.1-0.2-0.1-0.3-0.2l-1.1-1.6L29.6,37c-0.2,0.1-0.5,0.3-0.6,0.5s-0.2,0.5-0.2,0.7v3.1
	c0,0.2-0.2,0.4-0.4,0.4c-0.2,0-0.4-0.2-0.4-0.4v-3.1c0-0.4,0.1-0.8,0.3-1.1l-0.4-0.2l-0.5,0.4c-0.3,0.3-0.7,0.5-1.1,0.5
	c-0.4,0-0.8-0.2-1.1-0.5l-0.5-0.4l-1.3,0.7C23.3,37.6,23.2,37.7,23.1,37.9z M43.4,36l0.9,0.9l0.9-0.9c0-0.1,0-0.2,0-0.2v-0.2
	c-0.3,0.1-0.6,0.1-0.9,0.1h-0.1c-0.3,0-0.5-0.1-0.8-0.1v0.2C43.5,35.9,43.4,35.9,43.4,36z M42.2,32v0.7l0,0c0,1.2,0.9,2.2,2.1,2.2
	c0.3,0,0.6,0,0.8-0.1c0.3-0.1,0.5-0.3,0.7-0.5c0.2-0.2,0.4-0.4,0.5-0.7c0.1-0.3,0.2-0.5,0.2-0.8V32c0-0.1,0-0.1,0-0.2l0.2-0.4
	c0.1-0.2,0.2-0.5,0.2-0.8v-1.6h-3.4c-0.5,0-0.9,0.2-1.2,0.5c-0.3,0.3-0.5,0.8-0.5,1.2v0c0,0.2,0,0.4,0.1,0.6l0.2,0.5
	C42.2,31.9,42.2,32,42.2,32z M33.9,37.3C33.9,37.3,33.9,37.3,33.9,37.3l1-1L33.1,35l-0.4,0.4L33.9,37.3
	C33.9,37.2,33.9,37.3,33.9,37.3z M33.4,34.3l2.1,1.4l2.1-1.4v-0.7c-0.7,0.3-1.4,0.5-2.1,0.5c-0.1,0-0.2,0-0.3,0l0,0
	c-0.6,0-1.3-0.2-1.8-0.5V34.3z M37.2,37.3C37.2,37.3,37.2,37.2,37.2,37.3l1.2-1.8L38,35l-1.8,1.3L37.2,37.3
	C37.1,37.2,37.1,37.3,37.2,37.3C37.1,37.3,37.1,37.3,37.2,37.3z M31.7,28.4v1c0,2.1,1.6,3.8,3.5,3.9c0.9,0.1,1.8-0.2,2.5-0.8l0,0
	c0.1-0.1,0.2-0.2,0.3-0.3c0.4-0.4,0.7-0.8,0.9-1.3c0.2-0.5,0.3-1,0.3-1.5v-1.1c0-0.1,0-0.1,0-0.2c0.3-0.5,0.4-1.1,0.4-1.6v-3.8h-5.5
	c-0.8,0-1.5,0.3-2.1,0.9c-0.6,0.6-0.9,1.3-0.9,2.1v0.8c0,0.6,0.1,1.1,0.4,1.6C31.7,28.3,31.7,28.3,31.7,28.4z M26.3,37
	c0.2,0,0.4-0.1,0.6-0.2l0.4-0.3c-0.1-0.1-0.1-0.3-0.1-0.4v-0.4c-0.3,0.1-0.6,0.1-0.9,0.1c-0.3,0-0.6,0-0.9-0.1v0.4
	c0,0.1,0,0.3-0.1,0.4l0.4,0.3C25.9,36.9,26.1,37,26.3,37z M28,35.7c0.7-0.3,1.1-0.6,1.3-0.8v0C29.1,34.6,29,34.3,29,34
	c-0.2,0.5-0.6,1-1,1.3V35.7z M23.8,31.6c0,0.2,0,0.5,0,0.7c0,0,0,0.1,0,0.1c0,0,0,0,0.1,0c0.1,0,0.1,0,0.1,0c0,0,0.1,0,0.1,0.1
	c0,0,0.1,0.1,0.1,0.1c0,0,0,0.1,0,0.1c0,0.5,0.2,1,0.6,1.4c0.4,0.4,0.9,0.6,1.4,0.7c0.5,0,1.1-0.1,1.5-0.5c0.4-0.3,0.7-0.8,0.8-1.3
	c-0.6-1.4-2.3-1.6-2.8-1.6l-0.6,0.6c0,0-0.1,0.1-0.1,0.1c0,0-0.1,0-0.1,0c-0.1,0-0.1,0-0.2,0c0,0-0.1,0-0.1-0.1c0,0-0.1-0.1-0.1-0.1
	c0,0,0-0.1,0-0.1c0-0.1,0-0.1,0-0.2c0,0,0-0.1,0.1-0.1l0.7-0.7c0,0,0.1-0.1,0.1-0.1c0,0,0.1,0,0.1,0c0.5,0,1,0.1,1.5,0.2
	c0.8,0.3,1.5,0.8,1.9,1.4v-0.1c0-0.3,0-0.5,0-0.7c0-0.7-0.3-1.3-0.8-1.8c-0.2-0.2-0.5-0.4-0.8-0.5c-0.3-0.1-0.6-0.2-0.9-0.2
	s-0.6,0.1-0.9,0.2c-0.3,0.1-0.6,0.3-0.8,0.5C24.1,30.3,23.8,31,23.8,31.6z M23.6,34c0,0.3-0.1,0.6-0.2,0.9c0.2,0.2,0.5,0.5,1.3,0.8
	v-0.5C24.2,34.9,23.9,34.5,23.6,34z"/>
<path class="st1" d="M42.4,47c0.5,0,0.8-0.4,0.8-0.8s-0.4-0.8-0.8-0.8s-0.8,0.4-0.8,0.8S41.9,47,42.4,47z"/>
<path class="st1" d="M46.3,46.2c0,0.5-0.4,0.8-0.8,0.8c-0.5,0-0.8-0.4-0.8-0.8s0.4-0.8,0.8-0.8C45.9,45.3,46.3,45.7,46.3,46.2z"/>
<path class="st1" d="M39.2,47c0.5,0,0.8-0.4,0.8-0.8c0-0.5-0.4-0.8-0.8-0.8c-0.5,0-0.8,0.4-0.8,0.8C38.3,46.6,38.7,47,39.2,47z"/>
<path class="st2" d="M40.1,42.1h8c0.3,0,0.6,0.1,0.9,0.4c0.2,0.2,0.4,0.5,0.4,0.9V49c0,0.3-0.1,0.6-0.4,0.9
	c-0.2,0.2-0.5,0.4-0.9,0.4H32.1c0,0,0,0,0,0h-8.9c-0.3,0-0.6-0.1-0.9-0.4C22.1,49.6,22,49.3,22,49v-5.7c0-0.3,0.1-0.6,0.4-0.9
	c0.2-0.2,0.5-0.4,0.9-0.4L40.1,42.1C40.1,42.1,40.1,42.1,40.1,42.1z M31.2,43C31.2,43,31.2,43,31.2,43l16.9,0c0.1,0,0.2,0,0.2,0.1
	c0.1,0.1,0.1,0.1,0.1,0.2V49c0,0.1,0,0.2-0.1,0.2c-0.1,0.1-0.1,0.1-0.2,0.1h-8.9c0,0,0,0,0,0H23.2c-0.1,0-0.2,0-0.2-0.1
	c-0.1-0.1-0.1-0.1-0.1-0.2v-5.7c0-0.1,0-0.2,0.1-0.2c0.1-0.1,0.1-0.1,0.2-0.1H31.2z"/>
<radialGradient id="SVGID_2_" cx="-249.8525" cy="564.9949" r="1" gradientTransform="matrix(16 4.5 4.6671 -16.5941 1394.7751 10595.4092)" gradientUnits="userSpaceOnUse">
	<stop  offset="0" style="stop-color:#A644E5"/>
	<stop  offset="1" style="stop-color:#A644E5;stop-opacity:0"/>
</radialGradient>
<path class="st3" d="M22,105c0,0.3,0.1,0.6,0.4,0.9c0.2,0.2,0.5,0.4,0.9,0.4h8.9h0h16.1c0.3,0,0.6-0.1,0.9-0.4
	c0.2-0.2,0.4-0.5,0.4-0.9v-5.7c0-0.3-0.1-0.6-0.4-0.9l0,0l-0.1-0.9v-1V94c0-0.7-0.5-1.4-1.2-1.6L46.1,92c0,0-0.1,0-0.1-0.1
	s0-0.1,0-0.1v-0.5c0.1-0.1,0.3-0.2,0.4-0.3c0.3-0.3,0.5-0.6,0.7-1c0.2-0.4,0.2-0.7,0.2-1.1v-0.7l0.2-0.3c0.2-0.3,0.3-0.7,0.3-1.1v-2
	c0-0.1,0-0.1,0-0.1c0,0,0-0.1-0.1-0.1c0,0-0.1-0.1-0.1-0.1c0,0-0.1,0-0.1,0h-3.8c-0.7,0-1.3,0.3-1.8,0.7c-0.5,0.5-0.7,1.1-0.7,1.8v0
	c0,0.3,0.1,0.6,0.2,0.9l0.2,0.4v0.6c0,0.5,0.1,1,0.3,1.4c0.2,0.4,0.5,0.8,0.9,1.1v0.6c0,0.1,0,0.1-0.3,0.2l-0.8,0.2l-2.3-0.8
	c0-0.1,0-0.1,0-0.2c0-0.1,0-0.1-0.1-0.1l-0.7-0.8v-1.3c0.1-0.1,0.2-0.1,0.2-0.2c0.5-0.4,0.8-0.9,1.1-1.5c0.2-0.6,0.4-1.2,0.4-1.8v-1
	c0.3-0.6,0.4-1.2,0.4-1.9v-4.2c0-0.1,0-0.1,0-0.1c0,0,0-0.1-0.1-0.1c0,0-0.1-0.1-0.1-0.1c0,0-0.1,0-0.1,0h-5.9c-1,0-1.9,0.4-2.6,1.1
	c-0.7,0.7-1.1,1.7-1.1,2.6v0.8c0,0.7,0.1,1.3,0.4,1.9v0.9c0,0.7,0.1,1.4,0.4,2c0.3,0.6,0.7,1.2,1.2,1.6v1.3l-0.7,0.8
	c0,0-0.1,0.1-0.1,0.1c0,0.1,0,0.1,0,0.2l-2.4,0.9c-0.2,0.1-0.3,0.1-0.5,0.3l-0.4-0.2c1.1-0.5,1.5-1.2,1.5-1.2c0-0.1,0-0.1,0-0.2
	c0-0.1,0-0.1,0-0.2c-0.3-0.6-0.3-1.6-0.3-2.4c0-0.3,0-0.5,0-0.8c-0.1-1.9-1.6-3.3-3.3-3.3c-1.8,0-3.2,1.4-3.3,3.3c0,0.2,0,0.5,0,0.8
	c0,0.8-0.1,1.9-0.3,2.4c0,0.1,0,0.1,0,0.2c0,0.1,0,0.1,0,0.2l0,0c0,0.1,0.4,0.7,1.5,1.2l-1.1,0.5c-0.3,0.1-0.5,0.3-0.7,0.6
	c-0.2,0.3-0.2,0.6-0.2,0.9v2.2v1L22,105z"/>
<path class="st4" d="M45.4,87.5c0.1,0,0.1,0,0.2,0c0.1,0,0.1,0,0.2-0.1c0.1,0,0.1-0.1,0.1-0.2c0,0,0-0.1,0-0.1c0-0.1,0-0.1,0-0.1
	c0,0,0-0.1-0.1-0.1c0,0-0.1-0.1-0.1-0.1c-0.9-0.5-2.6-0.5-2.7-0.5c-0.1,0-0.2,0-0.3,0.1c-0.1,0.1-0.1,0.2-0.1,0.3
	c0,0.1,0,0.2,0.1,0.3c0.1,0.1,0.2,0.1,0.3,0.1C43.5,87.2,44.8,87.2,45.4,87.5z"/>
<path class="st4" d="M33,82.5C33,82.5,33,82.5,33,82.5c0.9-0.2,1.7-0.2,2.6-0.1c1.2,0.1,2.1,0.4,2.6,0.9c0.1,0.1,0.2,0.1,0.3,0.1
	s0.2,0,0.3-0.1c0,0,0.1-0.1,0.1-0.1c0,0,0-0.1,0-0.2c0-0.1,0-0.1,0-0.2c0,0,0-0.1-0.1-0.1c-1.5-1.5-4.6-1.2-5.8-1
	c-0.2,0-0.4,0.1-0.5,0.3c-0.1,0.1-0.2,0.3-0.2,0.5v0.9c0,0.1,0,0.2,0.1,0.3c0.1,0.1,0.2,0.1,0.3,0.1c0.1,0,0.2,0,0.3-0.1
	c0.1-0.1,0.1-0.2,0.1-0.3V82.5z"/>
<path class="st5" d="M23.1,93.9c-0.1,0.1-0.1,0.3-0.1,0.5v3c0,0.2-0.2,0.4-0.4,0.4c-0.2,0-0.4-0.2-0.4-0.4v-3c0-0.3,0.1-0.6,0.2-0.9
	c0.2-0.3,0.4-0.5,0.7-0.6l1.1-0.5c-1.1-0.5-1.5-1.1-1.5-1.2l0,0c0-0.1,0-0.1,0-0.2c0-0.1,0-0.1,0-0.2c0.3-0.6,0.3-1.6,0.3-2.4
	c0-0.3,0-0.5,0-0.8c0.1-1.9,1.6-3.3,3.3-3.3c1.8,0,3.2,1.4,3.3,3.3c0,0.2,0,0.5,0,0.8c0,0.8,0.1,1.9,0.3,2.4c0,0.1,0,0.1,0,0.2
	c0,0.1,0,0.1,0,0.2c0,0-0.4,0.7-1.5,1.2l0.4,0.2c0.1-0.1,0.3-0.2,0.5-0.3l2.4-0.9c0-0.1,0-0.1,0-0.2c0-0.1,0-0.1,0.1-0.1l0.7-0.8V89
	c-0.5-0.5-1-1-1.2-1.6c-0.3-0.6-0.4-1.3-0.4-2v-0.9c-0.3-0.6-0.4-1.2-0.4-1.9v-0.8c0-1,0.4-1.9,1.1-2.6c0.7-0.7,1.7-1.1,2.6-1.1h5.9
	c0.1,0,0.1,0,0.1,0c0,0,0.1,0,0.1,0.1c0,0,0.1,0.1,0.1,0.1c0,0,0,0.1,0,0.1v4.2c0,0.7-0.1,1.3-0.4,1.9v1c0,0.6-0.1,1.2-0.4,1.8
	c-0.2,0.6-0.6,1.1-1.1,1.5c-0.1,0.1-0.2,0.1-0.2,0.2v1.3l0.7,0.8c0,0,0.1,0.1,0.1,0.1c0,0.1,0,0.1,0,0.2l2.3,0.8l0.8-0.2
	c0.3-0.1,0.3-0.1,0.3-0.2v-0.6c-0.4-0.3-0.7-0.7-0.9-1.1c-0.2-0.4-0.3-0.9-0.3-1.4v-0.6l-0.2-0.4c-0.1-0.3-0.2-0.6-0.2-0.9v0
	c0-0.7,0.3-1.3,0.7-1.8c0.5-0.5,1.1-0.7,1.8-0.7h3.8c0.1,0,0.1,0,0.1,0c0,0,0.1,0,0.1,0.1c0,0,0.1,0.1,0.1,0.1c0,0,0,0.1,0,0.1v2
	c0,0.4-0.1,0.8-0.3,1.1l-0.2,0.3v0.7c0,0.4-0.1,0.8-0.2,1.1c-0.2,0.4-0.4,0.7-0.7,1c-0.1,0.1-0.2,0.2-0.4,0.3v0.5c0,0,0,0.1,0,0.1
	s0.1,0,0.1,0.1l1.6,0.5c0.7,0.2,1.2,0.9,1.2,1.6v3.2c0,0.1,0,0.2-0.1,0.3c-0.1,0.1-0.2,0.1-0.3,0.1c-0.1,0-0.2,0-0.3-0.1
	c-0.1-0.1-0.1-0.2-0.1-0.3V94c0-0.2-0.1-0.4-0.2-0.5c-0.1-0.2-0.3-0.3-0.5-0.3l-1.6-0.5c-0.1,0-0.1,0-0.2-0.1l-1,1v3.6
	c0,0.1,0,0.2-0.1,0.3c-0.1,0.1-0.2,0.1-0.3,0.1s-0.2,0-0.3-0.1c-0.1-0.1-0.1-0.2-0.1-0.3v-3.6l-1-1c-0.1,0.1-0.2,0.1-0.4,0.1l-0.1,0
	c0.4,0.4,0.6,0.9,0.6,1.4v3c0,0.1,0,0.2-0.1,0.3c-0.1,0.1-0.2,0.1-0.3,0.1c-0.1,0-0.2,0-0.3-0.1c-0.1-0.1-0.1-0.2-0.1-0.3v-3
	c0-0.3-0.1-0.5-0.2-0.7c-0.2-0.2-0.4-0.4-0.6-0.5l-2.5-0.9l-1.1,1.6c-0.1,0.1-0.2,0.2-0.3,0.2C37.5,94,37.3,94,37.2,94
	c0,0-0.1,0-0.1,0c-0.1,0-0.2,0-0.3-0.1c-0.1,0-0.2-0.1-0.3-0.2l-0.6-0.6v4.1c0,0.1,0,0.2-0.1,0.3c-0.1,0.1-0.2,0.1-0.3,0.1
	c-0.1,0-0.2,0-0.3-0.1c-0.1-0.1-0.1-0.2-0.1-0.3v-4.1l-0.6,0.6c-0.1,0.1-0.2,0.1-0.3,0.2C34.1,94,34,94,33.9,94c0,0,0,0,0,0
	c0,0,0,0,0,0c-0.1,0-0.2,0-0.3-0.1c-0.1-0.1-0.2-0.1-0.3-0.2l-1.1-1.6L29.6,93c-0.2,0.1-0.5,0.3-0.6,0.5s-0.2,0.5-0.2,0.7v3.1
	c0,0.2-0.2,0.4-0.4,0.4c-0.2,0-0.4-0.2-0.4-0.4v-3.1c0-0.4,0.1-0.8,0.3-1.1l-0.4-0.2l-0.5,0.4c-0.3,0.3-0.7,0.5-1.1,0.5
	c-0.4,0-0.8-0.2-1.1-0.5l-0.5-0.4l-1.3,0.7C23.3,93.6,23.2,93.7,23.1,93.9z M43.4,92l0.9,0.9l0.9-0.9c0-0.1,0-0.2,0-0.2v-0.2
	c-0.3,0.1-0.6,0.1-0.9,0.1h-0.1c-0.3,0-0.5-0.1-0.8-0.1v0.2C43.5,91.9,43.4,91.9,43.4,92z M42.2,88v0.7l0,0c0,1.2,0.9,2.2,2.1,2.2
	c0.3,0,0.6,0,0.8-0.1c0.3-0.1,0.5-0.3,0.7-0.5c0.2-0.2,0.4-0.4,0.5-0.7c0.1-0.3,0.2-0.5,0.2-0.8V88c0-0.1,0-0.1,0-0.2l0.2-0.4
	c0.1-0.2,0.2-0.5,0.2-0.8v-1.6h-3.4c-0.5,0-0.9,0.2-1.2,0.5s-0.5,0.8-0.5,1.2v0c0,0.2,0,0.4,0.1,0.6l0.2,0.5
	C42.2,87.9,42.2,88,42.2,88z M33.9,93.3C33.9,93.3,33.9,93.3,33.9,93.3l1-1L33.1,91l-0.4,0.4L33.9,93.3
	C33.9,93.2,33.9,93.3,33.9,93.3z M33.4,90.3l2.1,1.4l2.1-1.4v-0.7c-0.7,0.3-1.4,0.5-2.1,0.5c-0.1,0-0.2,0-0.3,0l0,0
	c-0.6,0-1.3-0.2-1.8-0.5V90.3z M37.2,93.3C37.2,93.3,37.2,93.2,37.2,93.3l1.2-1.8L38,91l-1.8,1.3L37.2,93.3
	C37.1,93.2,37.1,93.3,37.2,93.3C37.1,93.3,37.1,93.3,37.2,93.3z M31.7,84.4v1c0,2.1,1.6,3.8,3.5,3.9c0.9,0.1,1.8-0.2,2.5-0.8l0,0
	c0.1-0.1,0.2-0.2,0.3-0.3c0.4-0.4,0.7-0.8,0.9-1.3c0.2-0.5,0.3-1,0.3-1.5v-1.1c0-0.1,0-0.1,0-0.2c0.3-0.5,0.4-1.1,0.4-1.6v-3.8h-5.5
	c-0.8,0-1.5,0.3-2.1,0.9c-0.6,0.6-0.9,1.3-0.9,2.1v0.8c0,0.6,0.1,1.1,0.4,1.6C31.7,84.3,31.7,84.3,31.7,84.4z M26.3,93
	c0.2,0,0.4-0.1,0.6-0.2l0.4-0.3c-0.1-0.1-0.1-0.3-0.1-0.4v-0.4c-0.3,0.1-0.6,0.1-0.9,0.1c-0.3,0-0.6,0-0.9-0.1v0.4
	c0,0.1,0,0.3-0.1,0.4l0.4,0.3C25.9,92.9,26.1,93,26.3,93z M28,91.7c0.7-0.3,1.1-0.6,1.3-0.8v0C29.1,90.6,29,90.3,29,90
	c-0.2,0.5-0.6,1-1,1.3V91.7z M23.8,87.6c0,0.2,0,0.5,0,0.7c0,0,0,0.1,0,0.1c0,0,0,0,0.1,0c0.1,0,0.1,0,0.1,0c0,0,0.1,0,0.1,0.1
	c0,0,0.1,0.1,0.1,0.1c0,0,0,0.1,0,0.1c0,0.5,0.2,1,0.6,1.4c0.4,0.4,0.9,0.6,1.4,0.7c0.5,0,1.1-0.1,1.5-0.5c0.4-0.3,0.7-0.8,0.8-1.3
	c-0.6-1.4-2.3-1.6-2.8-1.6l-0.6,0.6c0,0-0.1,0.1-0.1,0.1c0,0-0.1,0-0.1,0c-0.1,0-0.1,0-0.2,0c0,0-0.1,0-0.1-0.1s-0.1-0.1-0.1-0.1
	c0,0,0-0.1,0-0.1s0-0.1,0-0.2c0,0,0-0.1,0.1-0.1l0.7-0.7c0,0,0.1-0.1,0.1-0.1c0,0,0.1,0,0.1,0c0.5,0,1,0.1,1.5,0.2
	c0.8,0.3,1.5,0.8,1.9,1.4v-0.1c0-0.3,0-0.5,0-0.7c0-0.7-0.3-1.3-0.8-1.8c-0.2-0.2-0.5-0.4-0.8-0.5c-0.3-0.1-0.6-0.2-0.9-0.2
	s-0.6,0.1-0.9,0.2c-0.3,0.1-0.6,0.3-0.8,0.5C24.1,86.3,23.8,87,23.8,87.6z M23.6,90c0,0.3-0.1,0.6-0.2,0.9c0.2,0.2,0.5,0.5,1.3,0.8
	v-0.5C24.2,90.9,23.9,90.5,23.6,90z"/>
<path class="st4" d="M42.4,103c0.5,0,0.8-0.4,0.8-0.8c0-0.5-0.4-0.8-0.8-0.8s-0.8,0.4-0.8,0.8C41.6,102.6,41.9,103,42.4,103z"/>
<path class="st4" d="M46.3,102.2c0,0.5-0.4,0.8-0.8,0.8c-0.5,0-0.8-0.4-0.8-0.8c0-0.5,0.4-0.8,0.8-0.8
	C45.9,101.3,46.3,101.7,46.3,102.2z"/>
<path class="st4" d="M39.2,103c0.5,0,0.8-0.4,0.8-0.8c0-0.5-0.4-0.8-0.8-0.8c-0.5,0-0.8,0.4-0.8,0.8C38.3,102.6,38.7,103,39.2,103z"
	/>
<path class="st5" d="M40.1,98.1h8c0.3,0,0.6,0.1,0.9,0.4c0.2,0.2,0.4,0.5,0.4,0.9v5.7c0,0.3-0.1,0.6-0.4,0.9
	c-0.2,0.2-0.5,0.4-0.9,0.4H32.1c0,0,0,0,0,0h-8.9c-0.3,0-0.6-0.1-0.9-0.4c-0.2-0.2-0.4-0.5-0.4-0.9v-5.7c0-0.3,0.1-0.6,0.4-0.9
	c0.2-0.2,0.5-0.4,0.9-0.4L40.1,98.1C40.1,98.1,40.1,98.1,40.1,98.1z M31.2,99C31.2,99,31.2,99,31.2,99l16.9,0c0.1,0,0.2,0,0.2,0.1
	c0.1,0.1,0.1,0.1,0.1,0.2v5.7c0,0.1,0,0.2-0.1,0.2c-0.1,0.1-0.1,0.1-0.2,0.1h-8.9c0,0,0,0,0,0H23.2c-0.1,0-0.2,0-0.2-0.1
	c-0.1-0.1-0.1-0.1-0.1-0.2v-5.7c0-0.1,0-0.2,0.1-0.2c0.1-0.1,0.1-0.1,0.2-0.1H31.2z"/>
<radialGradient id="SVGID_3_" cx="-249.8525" cy="564.9949" r="1" gradientTransform="matrix(16 4.5 4.6671 -16.5941 1394.7751 10651.4092)" gradientUnits="userSpaceOnUse">
	<stop  offset="0" style="stop-color:#00CAAA"/>
	<stop  offset="1" style="stop-color:#00CAAA;stop-opacity:0"/>
</radialGradient>
<path class="st6" d="M22,161c0,0.3,0.1,0.6,0.4,0.9c0.2,0.2,0.5,0.4,0.9,0.4h8.9h0h16.1c0.3,0,0.6-0.1,0.9-0.4
	c0.2-0.2,0.4-0.5,0.4-0.9v-5.7c0-0.3-0.1-0.6-0.4-0.9l0,0l-0.1-0.9v-1V150c0-0.7-0.5-1.4-1.2-1.6l-1.6-0.5c0,0-0.1,0-0.1-0.1
	c0,0,0-0.1,0-0.1v-0.5c0.1-0.1,0.3-0.2,0.4-0.3c0.3-0.3,0.5-0.6,0.7-1c0.2-0.4,0.2-0.7,0.2-1.1v-0.7l0.2-0.3
	c0.2-0.3,0.3-0.7,0.3-1.1v-2c0-0.1,0-0.1,0-0.2c0,0,0-0.1-0.1-0.1c0,0-0.1-0.1-0.1-0.1c0,0-0.1,0-0.1,0h-3.8c-0.7,0-1.3,0.3-1.8,0.7
	c-0.5,0.5-0.7,1.1-0.7,1.8v0c0,0.3,0.1,0.6,0.2,0.9l0.2,0.4v0.6c0,0.5,0.1,1,0.3,1.4c0.2,0.4,0.5,0.8,0.9,1.1v0.6
	c0,0.1,0,0.1-0.3,0.2l-0.8,0.2l-2.3-0.8c0-0.1,0-0.1,0-0.2c0-0.1,0-0.1-0.1-0.1l-0.7-0.8v-1.3c0.1-0.1,0.2-0.1,0.2-0.2
	c0.5-0.4,0.8-0.9,1.1-1.5c0.2-0.6,0.4-1.2,0.4-1.8v-1c0.3-0.6,0.4-1.2,0.4-1.9v-4.2c0-0.1,0-0.1,0-0.1c0,0,0-0.1-0.1-0.1
	c0,0-0.1-0.1-0.1-0.1c0,0-0.1,0-0.1,0h-5.9c-1,0-1.9,0.4-2.6,1.1c-0.7,0.7-1.1,1.7-1.1,2.6v0.8c0,0.7,0.1,1.3,0.4,1.9v0.9
	c0,0.7,0.1,1.4,0.4,2c0.3,0.6,0.7,1.2,1.2,1.6v1.3l-0.7,0.8c0,0-0.1,0.1-0.1,0.1c0,0.1,0,0.1,0,0.2l-2.4,0.9
	c-0.2,0.1-0.3,0.1-0.5,0.3l-0.4-0.2c1.1-0.5,1.5-1.2,1.5-1.2c0-0.1,0-0.1,0-0.2c0-0.1,0-0.1,0-0.2c-0.3-0.6-0.3-1.6-0.3-2.4
	c0-0.3,0-0.5,0-0.8c-0.1-1.9-1.6-3.3-3.3-3.3c-1.8,0-3.2,1.4-3.3,3.3c0,0.2,0,0.5,0,0.8c0,0.8-0.1,1.9-0.3,2.4c0,0.1,0,0.1,0,0.2
	s0,0.1,0,0.2l0,0c0,0.1,0.4,0.7,1.5,1.2l-1.1,0.5c-0.3,0.1-0.5,0.3-0.7,0.6c-0.2,0.3-0.2,0.6-0.2,0.9v2.2v1L22,161z"/>
<path class="st7" d="M45.4,143.5c0.1,0,0.1,0,0.2,0c0.1,0,0.1,0,0.2-0.1c0.1,0,0.1-0.1,0.1-0.2c0,0,0-0.1,0-0.1c0-0.1,0-0.1,0-0.1
	c0,0,0-0.1-0.1-0.1c0,0-0.1-0.1-0.1-0.1c-0.9-0.5-2.6-0.5-2.7-0.5c-0.1,0-0.2,0-0.3,0.1c-0.1,0.1-0.1,0.2-0.1,0.3
	c0,0.1,0,0.2,0.1,0.3c0.1,0.1,0.2,0.1,0.3,0.1C43.5,143.2,44.8,143.2,45.4,143.5z"/>
<path class="st7" d="M33,138.5C33,138.5,33,138.5,33,138.5c0.9-0.2,1.7-0.2,2.6-0.1c1.2,0.1,2.1,0.4,2.6,0.9
	c0.1,0.1,0.2,0.1,0.3,0.1s0.2,0,0.3-0.1c0,0,0.1-0.1,0.1-0.1c0,0,0-0.1,0-0.2c0-0.1,0-0.1,0-0.2c0,0,0-0.1-0.1-0.1
	c-1.5-1.5-4.6-1.2-5.8-1c-0.2,0-0.4,0.1-0.5,0.3c-0.1,0.1-0.2,0.3-0.2,0.5v0.9c0,0.1,0,0.2,0.1,0.3c0.1,0.1,0.2,0.1,0.3,0.1
	c0.1,0,0.2,0,0.3-0.1c0.1-0.1,0.1-0.2,0.1-0.3V138.5z"/>
<path class="st8" d="M23.1,149.9c-0.1,0.1-0.1,0.3-0.1,0.5v3c0,0.2-0.2,0.4-0.4,0.4c-0.2,0-0.4-0.2-0.4-0.4v-3
	c0-0.3,0.1-0.6,0.2-0.9c0.2-0.3,0.4-0.5,0.7-0.6l1.1-0.5c-1.1-0.5-1.5-1.1-1.5-1.2l0,0c0-0.1,0-0.1,0-0.2s0-0.1,0-0.2
	c0.3-0.6,0.3-1.6,0.3-2.4c0-0.3,0-0.5,0-0.8c0.1-1.9,1.6-3.3,3.3-3.3c1.8,0,3.2,1.4,3.3,3.3c0,0.2,0,0.5,0,0.8
	c0,0.8,0.1,1.9,0.3,2.4c0,0.1,0,0.1,0,0.2c0,0.1,0,0.1,0,0.2c0,0-0.4,0.7-1.5,1.2l0.4,0.2c0.1-0.1,0.3-0.2,0.5-0.3l2.4-0.9
	c0-0.1,0-0.1,0-0.2c0-0.1,0-0.1,0.1-0.1l0.7-0.8V145c-0.5-0.5-1-1-1.2-1.6c-0.3-0.6-0.4-1.3-0.4-2v-0.9c-0.3-0.6-0.4-1.2-0.4-1.9
	v-0.8c0-1,0.4-1.9,1.1-2.6c0.7-0.7,1.7-1.1,2.6-1.1h5.9c0.1,0,0.1,0,0.1,0c0,0,0.1,0,0.1,0.1c0,0,0.1,0.1,0.1,0.1c0,0,0,0.1,0,0.1
	v4.2c0,0.7-0.1,1.3-0.4,1.9v1c0,0.6-0.1,1.2-0.4,1.8c-0.2,0.6-0.6,1.1-1.1,1.5c-0.1,0.1-0.2,0.1-0.2,0.2v1.3l0.7,0.8
	c0,0,0.1,0.1,0.1,0.1c0,0.1,0,0.1,0,0.2l2.3,0.8l0.8-0.2c0.3-0.1,0.3-0.1,0.3-0.2v-0.6c-0.4-0.3-0.7-0.7-0.9-1.1
	c-0.2-0.4-0.3-0.9-0.3-1.4v-0.6l-0.2-0.4c-0.1-0.3-0.2-0.6-0.2-0.9v0c0-0.7,0.3-1.3,0.7-1.8c0.5-0.5,1.1-0.7,1.8-0.7h3.8
	c0.1,0,0.1,0,0.1,0c0,0,0.1,0,0.1,0.1c0,0,0.1,0.1,0.1,0.1c0,0,0,0.1,0,0.2v2c0,0.4-0.1,0.8-0.3,1.1l-0.2,0.3v0.7
	c0,0.4-0.1,0.8-0.2,1.1c-0.2,0.4-0.4,0.7-0.7,1c-0.1,0.1-0.2,0.2-0.4,0.3v0.5c0,0,0,0.1,0,0.1c0,0,0.1,0,0.1,0.1l1.6,0.5
	c0.7,0.2,1.2,0.9,1.2,1.6v3.2c0,0.1,0,0.2-0.1,0.3c-0.1,0.1-0.2,0.1-0.3,0.1c-0.1,0-0.2,0-0.3-0.1c-0.1-0.1-0.1-0.2-0.1-0.3V150
	c0-0.2-0.1-0.4-0.2-0.5c-0.1-0.1-0.3-0.3-0.5-0.3l-1.6-0.5c-0.1,0-0.1,0-0.2-0.1l-1,1v3.6c0,0.1,0,0.2-0.1,0.3
	c-0.1,0.1-0.2,0.1-0.3,0.1s-0.2,0-0.3-0.1c-0.1-0.1-0.1-0.2-0.1-0.3v-3.6l-1-1c-0.1,0.1-0.2,0.1-0.4,0.1l-0.1,0
	c0.4,0.4,0.6,0.9,0.6,1.4v3c0,0.1,0,0.2-0.1,0.3c-0.1,0.1-0.2,0.1-0.3,0.1c-0.1,0-0.2,0-0.3-0.1c-0.1-0.1-0.1-0.2-0.1-0.3v-3
	c0-0.3-0.1-0.5-0.2-0.7c-0.2-0.2-0.4-0.4-0.6-0.5l-2.5-0.9l-1.1,1.6c-0.1,0.1-0.2,0.2-0.3,0.2c-0.1,0.1-0.2,0.1-0.3,0.1
	c0,0-0.1,0-0.1,0c-0.1,0-0.2,0-0.3-0.1c-0.1,0-0.2-0.1-0.3-0.2l-0.6-0.6v4.1c0,0.1,0,0.2-0.1,0.3c-0.1,0.1-0.2,0.1-0.3,0.1
	c-0.1,0-0.2,0-0.3-0.1c-0.1-0.1-0.1-0.2-0.1-0.3v-4.1l-0.6,0.6c-0.1,0.1-0.2,0.1-0.3,0.2c-0.1,0-0.2,0.1-0.3,0.1c0,0,0,0,0,0
	c0,0,0,0,0,0c-0.1,0-0.2-0.1-0.3-0.1c-0.1-0.1-0.2-0.1-0.3-0.2l-1.1-1.6l-2.5,0.9c-0.2,0.1-0.5,0.3-0.6,0.5
	c-0.2,0.2-0.2,0.5-0.2,0.7v3.1c0,0.2-0.2,0.4-0.4,0.4c-0.2,0-0.4-0.2-0.4-0.4v-3.1c0-0.4,0.1-0.8,0.3-1.1l-0.4-0.2l-0.5,0.4
	c-0.3,0.3-0.7,0.5-1.1,0.5c-0.4,0-0.8-0.2-1.1-0.5l-0.5-0.4l-1.3,0.7C23.3,149.6,23.2,149.7,23.1,149.9z M43.4,148l0.9,0.9l0.9-0.9
	c0-0.1,0-0.2,0-0.2v-0.2c-0.3,0.1-0.6,0.1-0.9,0.1h-0.1c-0.3,0-0.5-0.1-0.8-0.1v0.2C43.5,147.9,43.4,147.9,43.4,148z M42.2,144v0.7
	l0,0c0,1.2,0.9,2.2,2.1,2.2c0.3,0,0.6,0,0.8-0.1c0.3-0.1,0.5-0.3,0.7-0.5c0.2-0.2,0.4-0.4,0.5-0.7c0.1-0.3,0.2-0.5,0.2-0.8V144
	c0-0.1,0-0.1,0-0.2l0.2-0.4c0.1-0.2,0.2-0.5,0.2-0.8v-1.6h-3.4c-0.5,0-0.9,0.2-1.2,0.5c-0.3,0.3-0.5,0.8-0.5,1.2v0
	c0,0.2,0,0.4,0.1,0.6l0.2,0.5C42.2,143.9,42.2,144,42.2,144z M33.9,149.3C33.9,149.3,33.9,149.3,33.9,149.3l1-1l-1.9-1.3l-0.4,0.4
	L33.9,149.3C33.9,149.2,33.9,149.3,33.9,149.3z M33.4,146.3l2.1,1.4l2.1-1.4v-0.7c-0.7,0.3-1.4,0.5-2.1,0.5c-0.1,0-0.2,0-0.3,0h0
	c-0.6,0-1.3-0.2-1.8-0.5V146.3z M37.2,149.3C37.2,149.3,37.2,149.2,37.2,149.3l1.2-1.8L38,147l-1.8,1.3L37.2,149.3
	C37.1,149.2,37.1,149.3,37.2,149.3C37.1,149.3,37.1,149.3,37.2,149.3z M31.7,140.4v1c0,2.1,1.6,3.8,3.5,3.9c0.9,0.1,1.8-0.2,2.5-0.8
	l0,0c0.1-0.1,0.2-0.2,0.3-0.3c0.4-0.4,0.7-0.8,0.9-1.3c0.2-0.5,0.3-1,0.3-1.5v-1.1c0-0.1,0-0.1,0-0.2c0.3-0.5,0.4-1.1,0.4-1.6v-3.8
	h-5.5c-0.8,0-1.5,0.3-2.1,0.9c-0.6,0.6-0.9,1.3-0.9,2.1v0.8c0,0.6,0.1,1.1,0.4,1.6C31.7,140.3,31.7,140.3,31.7,140.4z M26.3,149
	c0.2,0,0.4-0.1,0.6-0.2l0.4-0.3c-0.1-0.1-0.1-0.3-0.1-0.4v-0.4c-0.3,0.1-0.6,0.1-0.9,0.1c-0.3,0-0.6,0-0.9-0.1v0.4
	c0,0.1,0,0.3-0.1,0.4l0.4,0.3C25.9,148.9,26.1,149,26.3,149z M28,147.7c0.7-0.3,1.1-0.6,1.3-0.8v0c-0.1-0.3-0.2-0.6-0.2-0.9
	c-0.2,0.5-0.6,1-1,1.3V147.7z M23.8,143.6c0,0.2,0,0.5,0,0.7c0,0,0,0.1,0,0.1c0,0,0,0,0.1,0c0.1,0,0.1,0,0.1,0c0,0,0.1,0,0.1,0.1
	c0,0,0.1,0.1,0.1,0.1c0,0,0,0.1,0,0.2c0,0.5,0.2,1,0.6,1.4c0.4,0.4,0.9,0.6,1.4,0.7c0.5,0,1.1-0.1,1.5-0.5c0.4-0.3,0.7-0.8,0.8-1.3
	c-0.6-1.4-2.3-1.6-2.8-1.6l-0.6,0.6c0,0-0.1,0.1-0.1,0.1c0,0-0.1,0-0.1,0c-0.1,0-0.1,0-0.2,0c0,0-0.1,0-0.1-0.1c0,0-0.1-0.1-0.1-0.1
	s0-0.1,0-0.1c0-0.1,0-0.1,0-0.2c0,0,0-0.1,0.1-0.1l0.7-0.7c0,0,0.1-0.1,0.1-0.1s0.1,0,0.1,0c0.5,0,1,0.1,1.5,0.2
	c0.8,0.3,1.5,0.8,1.9,1.4v-0.1c0-0.3,0-0.5,0-0.7c0-0.7-0.3-1.3-0.8-1.8c-0.2-0.2-0.5-0.4-0.8-0.5c-0.3-0.1-0.6-0.2-0.9-0.2
	s-0.6,0.1-0.9,0.2s-0.6,0.3-0.8,0.5C24.1,142.3,23.8,143,23.8,143.6z M23.6,146c0,0.3-0.1,0.6-0.2,0.9c0.2,0.2,0.5,0.5,1.3,0.8v-0.5
	C24.2,146.9,23.9,146.5,23.6,146z"/>
<path class="st7" d="M42.4,159c0.5,0,0.8-0.4,0.8-0.8s-0.4-0.8-0.8-0.8s-0.8,0.4-0.8,0.8S41.9,159,42.4,159z"/>
<path class="st7" d="M46.3,158.2c0,0.5-0.4,0.8-0.8,0.8c-0.5,0-0.8-0.4-0.8-0.8s0.4-0.8,0.8-0.8C45.9,157.3,46.3,157.7,46.3,158.2z"
	/>
<path class="st7" d="M39.2,159c0.5,0,0.8-0.4,0.8-0.8s-0.4-0.8-0.8-0.8c-0.5,0-0.8,0.4-0.8,0.8S38.7,159,39.2,159z"/>
<path class="st8" d="M40.1,154.1h8c0.3,0,0.6,0.1,0.9,0.4s0.4,0.5,0.4,0.9v5.7c0,0.3-0.1,0.6-0.4,0.9c-0.2,0.2-0.5,0.4-0.9,0.4H32.1
	c0,0,0,0,0,0h-8.9c-0.3,0-0.6-0.1-0.9-0.4c-0.2-0.2-0.4-0.5-0.4-0.9v-5.7c0-0.3,0.1-0.6,0.4-0.9c0.2-0.2,0.5-0.4,0.9-0.4H40.1
	C40.1,154.1,40.1,154.1,40.1,154.1z M31.2,155C31.2,155,31.2,155,31.2,155h16.9c0.1,0,0.2,0,0.2,0.1c0.1,0.1,0.1,0.1,0.1,0.2v5.7
	c0,0.1,0,0.2-0.1,0.2c-0.1,0.1-0.1,0.1-0.2,0.1h-8.9c0,0,0,0,0,0H23.2c-0.1,0-0.2,0-0.2-0.1c-0.1-0.1-0.1-0.1-0.1-0.2v-5.7
	c0-0.1,0-0.2,0.1-0.2c0.1-0.1,0.1-0.1,0.2-0.1H31.2z"/>
<path class="st9" d="M45.4,199.5c0.1,0,0.1,0,0.2,0c0.1,0,0.1,0,0.2-0.1c0.1,0,0.1-0.1,0.1-0.2c0,0,0-0.1,0-0.1c0-0.1,0-0.1,0-0.1
	c0,0,0-0.1-0.1-0.1c0,0-0.1-0.1-0.1-0.1c-0.9-0.5-2.6-0.5-2.7-0.5c-0.1,0-0.2,0-0.3,0.1c-0.1,0.1-0.1,0.2-0.1,0.3
	c0,0.1,0,0.2,0.1,0.3c0.1,0.1,0.2,0.1,0.3,0.1C43.5,199.2,44.8,199.2,45.4,199.5z"/>
<path class="st9" d="M33,194.5C33,194.5,33,194.5,33,194.5c0.9-0.2,1.7-0.2,2.6-0.1c1.2,0.1,2.1,0.4,2.6,0.9
	c0.1,0.1,0.2,0.1,0.3,0.1s0.2,0,0.3-0.1c0,0,0.1-0.1,0.1-0.1c0,0,0-0.1,0-0.2c0-0.1,0-0.1,0-0.2c0,0,0-0.1-0.1-0.1
	c-1.5-1.5-4.6-1.2-5.8-1c-0.2,0-0.4,0.1-0.5,0.3c-0.1,0.1-0.2,0.3-0.2,0.5v0.9c0,0.1,0,0.2,0.1,0.3c0.1,0.1,0.2,0.1,0.3,0.1
	c0.1,0,0.2,0,0.3-0.1c0.1-0.1,0.1-0.2,0.1-0.3V194.5z"/>
<path class="st10" d="M23.1,205.9c-0.1,0.1-0.1,0.3-0.1,0.5v3c0,0.2-0.2,0.4-0.4,0.4c-0.2,0-0.4-0.2-0.4-0.4v-3
	c0-0.3,0.1-0.6,0.2-0.9c0.2-0.3,0.4-0.5,0.7-0.6l1.1-0.5c-1.1-0.5-1.5-1.1-1.5-1.2l0,0c0-0.1,0-0.1,0-0.2s0-0.1,0-0.2
	c0.3-0.6,0.3-1.6,0.3-2.4c0-0.3,0-0.5,0-0.8c0.1-1.9,1.6-3.3,3.3-3.3c1.8,0,3.2,1.4,3.3,3.3c0,0.2,0,0.5,0,0.8
	c0,0.8,0.1,1.9,0.3,2.4c0,0.1,0,0.1,0,0.2c0,0.1,0,0.1,0,0.2c0,0-0.4,0.7-1.5,1.2l0.4,0.2c0.1-0.1,0.3-0.2,0.5-0.3l2.4-0.9
	c0-0.1,0-0.1,0-0.2c0-0.1,0-0.1,0.1-0.1l0.7-0.8V201c-0.5-0.5-1-1-1.2-1.6c-0.3-0.6-0.4-1.3-0.4-2v-0.9c-0.3-0.6-0.4-1.2-0.4-1.9
	v-0.8c0-1,0.4-1.9,1.1-2.6c0.7-0.7,1.7-1.1,2.6-1.1h5.9c0.1,0,0.1,0,0.1,0c0,0,0.1,0,0.1,0.1c0,0,0.1,0.1,0.1,0.1c0,0,0,0.1,0,0.1
	v4.2c0,0.7-0.1,1.3-0.4,1.9v1c0,0.6-0.1,1.2-0.4,1.8c-0.2,0.6-0.6,1.1-1.1,1.5c-0.1,0.1-0.2,0.1-0.2,0.2v1.3l0.7,0.8
	c0,0,0.1,0.1,0.1,0.1c0,0.1,0,0.1,0,0.2l2.3,0.8l0.8-0.2c0.3-0.1,0.3-0.1,0.3-0.2v-0.6c-0.4-0.3-0.7-0.7-0.9-1.1
	c-0.2-0.4-0.3-0.9-0.3-1.4v-0.6l-0.2-0.4c-0.1-0.3-0.2-0.6-0.2-0.9v0c0-0.7,0.3-1.3,0.7-1.8c0.5-0.5,1.1-0.7,1.8-0.7h3.8
	c0.1,0,0.1,0,0.1,0c0,0,0.1,0,0.1,0.1c0,0,0.1,0.1,0.1,0.1c0,0,0,0.1,0,0.2v2c0,0.4-0.1,0.8-0.3,1.1l-0.2,0.3v0.7
	c0,0.4-0.1,0.8-0.2,1.1c-0.2,0.4-0.4,0.7-0.7,1c-0.1,0.1-0.2,0.2-0.4,0.3v0.5c0,0,0,0.1,0,0.1c0,0,0.1,0,0.1,0.1l1.6,0.5
	c0.7,0.2,1.2,0.9,1.2,1.6v3.2c0,0.1,0,0.2-0.1,0.3c-0.1,0.1-0.2,0.1-0.3,0.1c-0.1,0-0.2,0-0.3-0.1c-0.1-0.1-0.1-0.2-0.1-0.3V206
	c0-0.2-0.1-0.4-0.2-0.5c-0.1-0.1-0.3-0.3-0.5-0.3l-1.6-0.5c-0.1,0-0.1,0-0.2-0.1l-1,1v3.6c0,0.1,0,0.2-0.1,0.3
	c-0.1,0.1-0.2,0.1-0.3,0.1s-0.2,0-0.3-0.1c-0.1-0.1-0.1-0.2-0.1-0.3v-3.6l-1-1c-0.1,0.1-0.2,0.1-0.4,0.1l-0.1,0
	c0.4,0.4,0.6,0.9,0.6,1.4v3c0,0.1,0,0.2-0.1,0.3c-0.1,0.1-0.2,0.1-0.3,0.1c-0.1,0-0.2,0-0.3-0.1c-0.1-0.1-0.1-0.2-0.1-0.3v-3
	c0-0.3-0.1-0.5-0.2-0.7c-0.2-0.2-0.4-0.4-0.6-0.5l-2.5-0.9l-1.1,1.6c-0.1,0.1-0.2,0.2-0.3,0.2c-0.1,0.1-0.2,0.1-0.3,0.1
	c0,0-0.1,0-0.1,0c-0.1,0-0.2,0-0.3-0.1c-0.1,0-0.2-0.1-0.3-0.2l-0.6-0.6v4.1c0,0.1,0,0.2-0.1,0.3c-0.1,0.1-0.2,0.1-0.3,0.1
	c-0.1,0-0.2,0-0.3-0.1c-0.1-0.1-0.1-0.2-0.1-0.3v-4.1l-0.6,0.6c-0.1,0.1-0.2,0.1-0.3,0.2c-0.1,0-0.2,0.1-0.3,0.1c0,0,0,0,0,0
	c0,0,0,0,0,0c-0.1,0-0.2-0.1-0.3-0.1c-0.1-0.1-0.2-0.1-0.3-0.2l-1.1-1.6l-2.5,0.9c-0.2,0.1-0.5,0.3-0.6,0.5
	c-0.2,0.2-0.2,0.5-0.2,0.7v3.1c0,0.2-0.2,0.4-0.4,0.4c-0.2,0-0.4-0.2-0.4-0.4v-3.1c0-0.4,0.1-0.8,0.3-1.1l-0.4-0.2l-0.5,0.4
	c-0.3,0.3-0.7,0.5-1.1,0.5c-0.4,0-0.8-0.2-1.1-0.5l-0.5-0.4l-1.3,0.7C23.3,205.6,23.2,205.7,23.1,205.9z M43.4,204l0.9,0.9l0.9-0.9
	c0-0.1,0-0.2,0-0.2v-0.2c-0.3,0.1-0.6,0.1-0.9,0.1h-0.1c-0.3,0-0.5-0.1-0.8-0.1v0.2C43.5,203.9,43.4,203.9,43.4,204z M42.2,200v0.7
	l0,0c0,1.2,0.9,2.2,2.1,2.2c0.3,0,0.6,0,0.8-0.1c0.3-0.1,0.5-0.3,0.7-0.5c0.2-0.2,0.4-0.4,0.5-0.7c0.1-0.3,0.2-0.5,0.2-0.8V200
	c0-0.1,0-0.1,0-0.2l0.2-0.4c0.1-0.2,0.2-0.5,0.2-0.8v-1.6h-3.4c-0.5,0-0.9,0.2-1.2,0.5c-0.3,0.3-0.5,0.8-0.5,1.2v0
	c0,0.2,0,0.4,0.1,0.6l0.2,0.5C42.2,199.9,42.2,200,42.2,200z M33.9,205.3C33.9,205.3,33.9,205.3,33.9,205.3l1-1l-1.9-1.3l-0.4,0.4
	L33.9,205.3C33.9,205.2,33.9,205.3,33.9,205.3z M33.4,202.3l2.1,1.4l2.1-1.4v-0.7c-0.7,0.3-1.4,0.5-2.1,0.5c-0.1,0-0.2,0-0.3,0h0
	c-0.6,0-1.3-0.2-1.8-0.5V202.3z M37.2,205.3C37.2,205.3,37.2,205.2,37.2,205.3l1.2-1.8L38,203l-1.8,1.3L37.2,205.3
	C37.1,205.2,37.1,205.3,37.2,205.3C37.1,205.3,37.1,205.3,37.2,205.3z M31.7,196.4v1c0,2.1,1.6,3.8,3.5,3.9c0.9,0.1,1.8-0.2,2.5-0.8
	l0,0c0.1-0.1,0.2-0.2,0.3-0.3c0.4-0.4,0.7-0.8,0.9-1.3c0.2-0.5,0.3-1,0.3-1.5v-1.1c0-0.1,0-0.1,0-0.2c0.3-0.5,0.4-1.1,0.4-1.6v-3.8
	h-5.5c-0.8,0-1.5,0.3-2.1,0.9c-0.6,0.6-0.9,1.3-0.9,2.1v0.8c0,0.6,0.1,1.1,0.4,1.6C31.7,196.3,31.7,196.3,31.7,196.4z M26.3,205
	c0.2,0,0.4-0.1,0.6-0.2l0.4-0.3c-0.1-0.1-0.1-0.3-0.1-0.4v-0.4c-0.3,0.1-0.6,0.1-0.9,0.1c-0.3,0-0.6,0-0.9-0.1v0.4
	c0,0.1,0,0.3-0.1,0.4l0.4,0.3C25.9,204.9,26.1,205,26.3,205z M28,203.7c0.7-0.3,1.1-0.6,1.3-0.8v0c-0.1-0.3-0.2-0.6-0.2-0.9
	c-0.2,0.5-0.6,1-1,1.3V203.7z M23.8,199.6c0,0.2,0,0.5,0,0.7c0,0,0,0.1,0,0.1c0,0,0,0,0.1,0c0.1,0,0.1,0,0.1,0c0,0,0.1,0,0.1,0.1
	c0,0,0.1,0.1,0.1,0.1c0,0,0,0.1,0,0.2c0,0.5,0.2,1,0.6,1.4c0.4,0.4,0.9,0.6,1.4,0.7c0.5,0,1.1-0.1,1.5-0.5c0.4-0.3,0.7-0.8,0.8-1.3
	c-0.6-1.4-2.3-1.6-2.8-1.6l-0.6,0.6c0,0-0.1,0.1-0.1,0.1c0,0-0.1,0-0.1,0c-0.1,0-0.1,0-0.2,0c0,0-0.1,0-0.1-0.1c0,0-0.1-0.1-0.1-0.1
	s0-0.1,0-0.1c0-0.1,0-0.1,0-0.2c0,0,0-0.1,0.1-0.1l0.7-0.7c0,0,0.1-0.1,0.1-0.1s0.1,0,0.1,0c0.5,0,1,0.1,1.5,0.2
	c0.8,0.3,1.5,0.8,1.9,1.4v-0.1c0-0.3,0-0.5,0-0.7c0-0.7-0.3-1.3-0.8-1.8c-0.2-0.2-0.5-0.4-0.8-0.5c-0.3-0.1-0.6-0.2-0.9-0.2
	s-0.6,0.1-0.9,0.2s-0.6,0.3-0.8,0.5C24.1,198.3,23.8,199,23.8,199.6z M23.6,202c0,0.3-0.1,0.6-0.2,0.9c0.2,0.2,0.5,0.5,1.3,0.8v-0.5
	C24.2,202.9,23.9,202.5,23.6,202z"/>
<path class="st9" d="M42.4,215c0.5,0,0.8-0.4,0.8-0.8s-0.4-0.8-0.8-0.8s-0.8,0.4-0.8,0.8S41.9,215,42.4,215z"/>
<path class="st9" d="M46.3,214.2c0,0.5-0.4,0.8-0.8,0.8c-0.5,0-0.8-0.4-0.8-0.8s0.4-0.8,0.8-0.8C45.9,213.3,46.3,213.7,46.3,214.2z"
	/>
<path class="st9" d="M39.2,215c0.5,0,0.8-0.4,0.8-0.8s-0.4-0.8-0.8-0.8c-0.5,0-0.8,0.4-0.8,0.8S38.7,215,39.2,215z"/>
<path class="st10" d="M40.1,210.1h8c0.3,0,0.6,0.1,0.9,0.4s0.4,0.5,0.4,0.9v5.7c0,0.3-0.1,0.6-0.4,0.9c-0.2,0.2-0.5,0.4-0.9,0.4
	H32.1c0,0,0,0,0,0h-8.9c-0.3,0-0.6-0.1-0.9-0.4c-0.2-0.2-0.4-0.5-0.4-0.9v-5.7c0-0.3,0.1-0.6,0.4-0.9c0.2-0.2,0.5-0.4,0.9-0.4H40.1
	C40.1,210.1,40.1,210.1,40.1,210.1z M31.2,211C31.2,211,31.2,211,31.2,211h16.9c0.1,0,0.2,0,0.2,0.1c0.1,0.1,0.1,0.1,0.1,0.2v5.7
	c0,0.1,0,0.2-0.1,0.2c-0.1,0.1-0.1,0.1-0.2,0.1h-8.9c0,0,0,0,0,0H23.2c-0.1,0-0.2,0-0.2-0.1c-0.1-0.1-0.1-0.1-0.1-0.2v-5.7
	c0-0.1,0-0.2,0.1-0.2c0.1-0.1,0.1-0.1,0.2-0.1H31.2z"/>
<radialGradient id="SVGID_4_" cx="-249.8525" cy="564.9949" r="1" gradientTransform="matrix(16 4.5 4.6671 -16.5941 1394.7751 10763.4092)" gradientUnits="userSpaceOnUse">
	<stop  offset="0" style="stop-color:#434F58"/>
	<stop  offset="1" style="stop-color:#434F58;stop-opacity:0"/>
</radialGradient>
<path class="st11" d="M22,273c0,0.3,0.1,0.6,0.4,0.9c0.2,0.2,0.5,0.4,0.9,0.4h8.9h0h16.1c0.3,0,0.6-0.1,0.9-0.4
	c0.2-0.2,0.4-0.5,0.4-0.9v-5.7c0-0.3-0.1-0.6-0.4-0.9l0,0l-0.1-0.9v-1V262c0-0.7-0.5-1.4-1.2-1.6l-1.6-0.5c0,0-0.1,0-0.1-0.1
	s0-0.1,0-0.1v-0.5c0.1-0.1,0.3-0.2,0.4-0.3c0.3-0.3,0.5-0.6,0.7-1c0.2-0.4,0.2-0.7,0.2-1.1v-0.7l0.2-0.3c0.2-0.3,0.3-0.7,0.3-1.1v-2
	c0-0.1,0-0.1,0-0.2c0,0,0-0.1-0.1-0.1c0,0-0.1-0.1-0.1-0.1c0,0-0.1,0-0.1,0h-3.8c-0.7,0-1.3,0.3-1.8,0.7c-0.5,0.5-0.7,1.1-0.7,1.8v0
	c0,0.3,0.1,0.6,0.2,0.9l0.2,0.4v0.6c0,0.5,0.1,1,0.3,1.4c0.2,0.4,0.5,0.8,0.9,1.1v0.6c0,0.1,0,0.1-0.3,0.2l-0.8,0.2l-2.3-0.8
	c0-0.1,0-0.1,0-0.2c0-0.1,0-0.1-0.1-0.1l-0.7-0.8v-1.3c0.1-0.1,0.2-0.1,0.2-0.2c0.5-0.4,0.8-0.9,1.1-1.5c0.2-0.6,0.4-1.2,0.4-1.8v-1
	c0.3-0.6,0.4-1.2,0.4-1.9v-4.2c0-0.1,0-0.1,0-0.1c0,0,0-0.1-0.1-0.1c0,0-0.1-0.1-0.1-0.1c0,0-0.1,0-0.1,0h-5.9c-1,0-1.9,0.4-2.6,1.1
	c-0.7,0.7-1.1,1.7-1.1,2.6v0.8c0,0.7,0.1,1.3,0.4,1.9v0.9c0,0.7,0.1,1.4,0.4,2c0.3,0.6,0.7,1.2,1.2,1.6v1.3l-0.7,0.8
	c0,0-0.1,0.1-0.1,0.1c0,0.1,0,0.1,0,0.2l-2.4,0.9c-0.2,0.1-0.3,0.1-0.5,0.3l-0.4-0.2c1.1-0.5,1.5-1.2,1.5-1.2c0-0.1,0-0.1,0-0.2
	c0-0.1,0-0.1,0-0.2c-0.3-0.6-0.3-1.6-0.3-2.4c0-0.3,0-0.5,0-0.8c-0.1-1.9-1.6-3.3-3.3-3.3c-1.8,0-3.2,1.4-3.3,3.3c0,0.2,0,0.5,0,0.8
	c0,0.8-0.1,1.9-0.3,2.4c0,0.1,0,0.1,0,0.2c0,0.1,0,0.1,0,0.2l0,0c0,0.1,0.4,0.7,1.5,1.2l-1.1,0.5c-0.3,0.1-0.5,0.3-0.7,0.6
	c-0.2,0.3-0.2,0.6-0.2,0.9v2.2v1L22,273z"/>
<path class="st9" d="M45.4,255.5c0.1,0,0.1,0,0.2,0c0.1,0,0.1,0,0.2-0.1c0.1,0,0.1-0.1,0.1-0.2c0,0,0-0.1,0-0.1c0-0.1,0-0.1,0-0.1
	c0,0,0-0.1-0.1-0.1c0,0-0.1-0.1-0.1-0.1c-0.9-0.5-2.6-0.5-2.7-0.5c-0.1,0-0.2,0-0.3,0.1c-0.1,0.1-0.1,0.2-0.1,0.3
	c0,0.1,0,0.2,0.1,0.3c0.1,0.1,0.2,0.1,0.3,0.1C43.5,255.2,44.8,255.2,45.4,255.5z"/>
<path class="st9" d="M33,250.5C33,250.5,33,250.5,33,250.5c0.9-0.2,1.7-0.2,2.6-0.1c1.2,0.1,2.1,0.4,2.6,0.9
	c0.1,0.1,0.2,0.1,0.3,0.1s0.2,0,0.3-0.1c0,0,0.1-0.1,0.1-0.1c0,0,0-0.1,0-0.2c0-0.1,0-0.1,0-0.2c0,0,0-0.1-0.1-0.1
	c-1.5-1.5-4.6-1.2-5.8-1c-0.2,0-0.4,0.1-0.5,0.3c-0.1,0.1-0.2,0.3-0.2,0.5v0.9c0,0.1,0,0.2,0.1,0.3c0.1,0.1,0.2,0.1,0.3,0.1
	c0.1,0,0.2,0,0.3-0.1c0.1-0.1,0.1-0.2,0.1-0.3V250.5z"/>
<path class="st10" d="M23.1,261.9c-0.1,0.1-0.1,0.3-0.1,0.5v3c0,0.2-0.2,0.4-0.4,0.4c-0.2,0-0.4-0.2-0.4-0.4v-3
	c0-0.3,0.1-0.6,0.2-0.9c0.2-0.3,0.4-0.5,0.7-0.6l1.1-0.5c-1.1-0.5-1.5-1.1-1.5-1.2l0,0c0-0.1,0-0.1,0-0.2c0-0.1,0-0.1,0-0.2
	c0.3-0.6,0.3-1.6,0.3-2.4c0-0.3,0-0.5,0-0.8c0.1-1.9,1.6-3.3,3.3-3.3c1.8,0,3.2,1.4,3.3,3.3c0,0.2,0,0.5,0,0.8
	c0,0.8,0.1,1.9,0.3,2.4c0,0.1,0,0.1,0,0.2c0,0.1,0,0.1,0,0.2c0,0-0.4,0.7-1.5,1.2l0.4,0.2c0.1-0.1,0.3-0.2,0.5-0.3l2.4-0.9
	c0-0.1,0-0.1,0-0.2c0-0.1,0-0.1,0.1-0.1l0.7-0.8V257c-0.5-0.5-1-1-1.2-1.6c-0.3-0.6-0.4-1.3-0.4-2v-0.9c-0.3-0.6-0.4-1.2-0.4-1.9
	v-0.8c0-1,0.4-1.9,1.1-2.6c0.7-0.7,1.7-1.1,2.6-1.1h5.9c0.1,0,0.1,0,0.1,0c0,0,0.1,0,0.1,0.1c0,0,0.1,0.1,0.1,0.1c0,0,0,0.1,0,0.1
	v4.2c0,0.7-0.1,1.3-0.4,1.9v1c0,0.6-0.1,1.2-0.4,1.8c-0.2,0.6-0.6,1.1-1.1,1.5c-0.1,0.1-0.2,0.1-0.2,0.2v1.3l0.7,0.8
	c0,0,0.1,0.1,0.1,0.1c0,0.1,0,0.1,0,0.2l2.3,0.8l0.8-0.2c0.3-0.1,0.3-0.1,0.3-0.2v-0.6c-0.4-0.3-0.7-0.7-0.9-1.1
	c-0.2-0.4-0.3-0.9-0.3-1.4v-0.6l-0.2-0.4c-0.1-0.3-0.2-0.6-0.2-0.9v0c0-0.7,0.3-1.3,0.7-1.8c0.5-0.5,1.1-0.7,1.8-0.7h3.8
	c0.1,0,0.1,0,0.1,0c0,0,0.1,0,0.1,0.1c0,0,0.1,0.1,0.1,0.1c0,0,0,0.1,0,0.2v2c0,0.4-0.1,0.8-0.3,1.1l-0.2,0.3v0.7
	c0,0.4-0.1,0.8-0.2,1.1c-0.2,0.4-0.4,0.7-0.7,1c-0.1,0.1-0.2,0.2-0.4,0.3v0.5c0,0,0,0.1,0,0.1s0.1,0,0.1,0.1l1.6,0.5
	c0.7,0.2,1.2,0.9,1.2,1.6v3.2c0,0.1,0,0.2-0.1,0.3c-0.1,0.1-0.2,0.1-0.3,0.1c-0.1,0-0.2,0-0.3-0.1c-0.1-0.1-0.1-0.2-0.1-0.3V262
	c0-0.2-0.1-0.4-0.2-0.5c-0.1-0.2-0.3-0.3-0.5-0.3l-1.6-0.5c-0.1,0-0.1,0-0.2-0.1l-1,1v3.6c0,0.1,0,0.2-0.1,0.3
	c-0.1,0.1-0.2,0.1-0.3,0.1s-0.2,0-0.3-0.1c-0.1-0.1-0.1-0.2-0.1-0.3v-3.6l-1-1c-0.1,0.1-0.2,0.1-0.4,0.1l-0.1,0
	c0.4,0.4,0.6,0.9,0.6,1.4v3c0,0.1,0,0.2-0.1,0.3c-0.1,0.1-0.2,0.1-0.3,0.1c-0.1,0-0.2,0-0.3-0.1c-0.1-0.1-0.1-0.2-0.1-0.3v-3
	c0-0.3-0.1-0.5-0.2-0.7c-0.2-0.2-0.4-0.4-0.6-0.5l-2.5-0.9l-1.1,1.6c-0.1,0.1-0.2,0.2-0.3,0.2c-0.1,0.1-0.2,0.1-0.3,0.1
	c0,0-0.1,0-0.1,0c-0.1,0-0.2,0-0.3-0.1c-0.1,0-0.2-0.1-0.3-0.2l-0.6-0.6v4.1c0,0.1,0,0.2-0.1,0.3c-0.1,0.1-0.2,0.1-0.3,0.1
	c-0.1,0-0.2,0-0.3-0.1c-0.1-0.1-0.1-0.2-0.1-0.3v-4.1l-0.6,0.6c-0.1,0.1-0.2,0.1-0.3,0.2c-0.1,0-0.2,0.1-0.3,0.1c0,0,0,0,0,0
	c0,0,0,0,0,0c-0.1,0-0.2-0.1-0.3-0.1c-0.1-0.1-0.2-0.1-0.3-0.2l-1.1-1.6l-2.5,0.9c-0.2,0.1-0.5,0.3-0.6,0.5
	c-0.2,0.2-0.2,0.5-0.2,0.7v3.1c0,0.2-0.2,0.4-0.4,0.4c-0.2,0-0.4-0.2-0.4-0.4v-3.1c0-0.4,0.1-0.8,0.3-1.1l-0.4-0.2l-0.5,0.4
	c-0.3,0.3-0.7,0.5-1.1,0.5c-0.4,0-0.8-0.2-1.1-0.5l-0.5-0.4l-1.3,0.7C23.3,261.6,23.2,261.7,23.1,261.9z M43.4,260l0.9,0.9l0.9-0.9
	c0-0.1,0-0.2,0-0.2v-0.2c-0.3,0.1-0.6,0.1-0.9,0.1h-0.1c-0.3,0-0.5-0.1-0.8-0.1v0.2C43.5,259.9,43.4,259.9,43.4,260z M42.2,256v0.7
	l0,0c0,1.2,0.9,2.2,2.1,2.2c0.3,0,0.6,0,0.8-0.1c0.3-0.1,0.5-0.3,0.7-0.5c0.2-0.2,0.4-0.4,0.5-0.7c0.1-0.3,0.2-0.5,0.2-0.8V256
	c0-0.1,0-0.1,0-0.2l0.2-0.4c0.1-0.2,0.2-0.5,0.2-0.8v-1.6h-3.4c-0.5,0-0.9,0.2-1.2,0.5c-0.3,0.3-0.5,0.8-0.5,1.2v0
	c0,0.2,0,0.4,0.1,0.6l0.2,0.5C42.2,255.9,42.2,256,42.2,256z M33.9,261.3C33.9,261.3,33.9,261.3,33.9,261.3l1-1l-1.9-1.3l-0.4,0.4
	L33.9,261.3C33.9,261.2,33.9,261.3,33.9,261.3z M33.4,258.3l2.1,1.4l2.1-1.4v-0.7c-0.7,0.3-1.4,0.5-2.1,0.5c-0.1,0-0.2,0-0.3,0h0
	c-0.6,0-1.3-0.2-1.8-0.5V258.3z M37.2,261.3C37.2,261.3,37.2,261.2,37.2,261.3l1.2-1.8L38,259l-1.8,1.3L37.2,261.3
	C37.1,261.2,37.1,261.3,37.2,261.3C37.1,261.3,37.1,261.3,37.2,261.3z M31.7,252.4v1c0,2.1,1.6,3.8,3.5,3.9c0.9,0.1,1.8-0.2,2.5-0.8
	l0,0c0.1-0.1,0.2-0.2,0.3-0.3c0.4-0.4,0.7-0.8,0.9-1.3c0.2-0.5,0.3-1,0.3-1.5v-1.1c0-0.1,0-0.1,0-0.2c0.3-0.5,0.4-1.1,0.4-1.6v-3.8
	h-5.5c-0.8,0-1.5,0.3-2.1,0.9c-0.6,0.6-0.9,1.3-0.9,2.1v0.8c0,0.6,0.1,1.1,0.4,1.6C31.7,252.3,31.7,252.3,31.7,252.4z M26.3,261
	c0.2,0,0.4-0.1,0.6-0.2l0.4-0.3c-0.1-0.1-0.1-0.3-0.1-0.4v-0.4c-0.3,0.1-0.6,0.1-0.9,0.1c-0.3,0-0.6,0-0.9-0.1v0.4
	c0,0.1,0,0.3-0.1,0.4l0.4,0.3C25.9,260.9,26.1,261,26.3,261z M28,259.7c0.7-0.3,1.1-0.6,1.3-0.8v0c-0.1-0.3-0.2-0.6-0.2-0.9
	c-0.2,0.5-0.6,1-1,1.3V259.7z M23.8,255.6c0,0.2,0,0.5,0,0.7c0,0,0,0.1,0,0.1c0,0,0,0,0.1,0c0.1,0,0.1,0,0.1,0c0,0,0.1,0,0.1,0.1
	c0,0,0.1,0.1,0.1,0.1c0,0,0,0.1,0,0.1c0,0.5,0.2,1,0.6,1.4c0.4,0.4,0.9,0.6,1.4,0.7c0.5,0,1.1-0.1,1.5-0.5c0.4-0.3,0.7-0.8,0.8-1.3
	c-0.6-1.4-2.3-1.6-2.8-1.6l-0.6,0.6c0,0-0.1,0.1-0.1,0.1c0,0-0.1,0-0.1,0c-0.1,0-0.1,0-0.2,0c0,0-0.1,0-0.1-0.1c0,0-0.1-0.1-0.1-0.1
	s0-0.1,0-0.1c0-0.1,0-0.1,0-0.2c0,0,0-0.1,0.1-0.1l0.7-0.7c0,0,0.1-0.1,0.1-0.1s0.1,0,0.1,0c0.5,0,1,0.1,1.5,0.2
	c0.8,0.3,1.5,0.8,1.9,1.4v-0.1c0-0.3,0-0.5,0-0.7c0-0.7-0.3-1.3-0.8-1.8c-0.2-0.2-0.5-0.4-0.8-0.5c-0.3-0.1-0.6-0.2-0.9-0.2
	s-0.6,0.1-0.9,0.2s-0.6,0.3-0.8,0.5C24.1,254.3,23.8,255,23.8,255.6z M23.6,258c0,0.3-0.1,0.6-0.2,0.9c0.2,0.2,0.5,0.5,1.3,0.8v-0.5
	C24.2,258.9,23.9,258.5,23.6,258z"/>
<path class="st9" d="M42.4,271c0.5,0,0.8-0.4,0.8-0.8c0-0.5-0.4-0.8-0.8-0.8s-0.8,0.4-0.8,0.8C41.6,270.6,41.9,271,42.4,271z"/>
<path class="st9" d="M46.3,270.2c0,0.5-0.4,0.8-0.8,0.8c-0.5,0-0.8-0.4-0.8-0.8c0-0.5,0.4-0.8,0.8-0.8
	C45.9,269.3,46.3,269.7,46.3,270.2z"/>
<path class="st9" d="M39.2,271c0.5,0,0.8-0.4,0.8-0.8c0-0.5-0.4-0.8-0.8-0.8c-0.5,0-0.8,0.4-0.8,0.8C38.3,270.6,38.7,271,39.2,271z"
	/>
<path class="st10" d="M40.1,266.1h8c0.3,0,0.6,0.1,0.9,0.4c0.2,0.2,0.4,0.5,0.4,0.9v5.7c0,0.3-0.1,0.6-0.4,0.9
	c-0.2,0.2-0.5,0.4-0.9,0.4H32.1c0,0,0,0,0,0h-8.9c-0.3,0-0.6-0.1-0.9-0.4c-0.2-0.2-0.4-0.5-0.4-0.9v-5.7c0-0.3,0.1-0.6,0.4-0.9
	c0.2-0.2,0.5-0.4,0.9-0.4H40.1C40.1,266.1,40.1,266.1,40.1,266.1z M31.2,267C31.2,267,31.2,267,31.2,267h16.9c0.1,0,0.2,0,0.2,0.1
	c0.1,0.1,0.1,0.1,0.1,0.2v5.7c0,0.1,0,0.2-0.1,0.2c-0.1,0.1-0.1,0.1-0.2,0.1h-8.9c0,0,0,0,0,0H23.2c-0.1,0-0.2,0-0.2-0.1
	c-0.1-0.1-0.1-0.1-0.1-0.2v-5.7c0-0.1,0-0.2,0.1-0.2c0.1-0.1,0.1-0.1,0.2-0.1H31.2z"/>
<radialGradient id="SVGID_5_" cx="-249.8525" cy="564.9949" r="1" gradientTransform="matrix(16 4.5 4.6671 -16.5941 1394.7751 10819.4092)" gradientUnits="userSpaceOnUse">
	<stop  offset="0" style="stop-color:#677983"/>
	<stop  offset="1" style="stop-color:#677983;stop-opacity:0"/>
</radialGradient>
<path class="st12" d="M22,329c0,0.3,0.1,0.6,0.4,0.9c0.2,0.2,0.5,0.4,0.9,0.4h8.9h0h16.1c0.3,0,0.6-0.1,0.9-0.4
	c0.2-0.2,0.4-0.5,0.4-0.9v-5.7c0-0.3-0.1-0.6-0.4-0.9l0,0l-0.1-0.9v-1V318c0-0.7-0.5-1.4-1.2-1.6l-1.6-0.5c0,0-0.1,0-0.1-0.1
	s0-0.1,0-0.1v-0.5c0.1-0.1,0.3-0.2,0.4-0.3c0.3-0.3,0.5-0.6,0.7-1c0.2-0.4,0.2-0.7,0.2-1.1v-0.7l0.2-0.3c0.2-0.3,0.3-0.7,0.3-1.1v-2
	c0-0.1,0-0.1,0-0.1c0,0,0-0.1-0.1-0.1c0,0-0.1-0.1-0.1-0.1c0,0-0.1,0-0.1,0h-3.8c-0.7,0-1.3,0.3-1.8,0.7c-0.5,0.5-0.7,1.1-0.7,1.8v0
	c0,0.3,0.1,0.6,0.2,0.9l0.2,0.4v0.6c0,0.5,0.1,1,0.3,1.4c0.2,0.4,0.5,0.8,0.9,1.1v0.6c0,0.1,0,0.1-0.3,0.2l-0.8,0.2l-2.3-0.8
	c0-0.1,0-0.1,0-0.2c0-0.1,0-0.1-0.1-0.1l-0.7-0.8v-1.3c0.1-0.1,0.2-0.1,0.2-0.2c0.5-0.4,0.8-0.9,1.1-1.5c0.2-0.6,0.4-1.2,0.4-1.8v-1
	c0.3-0.6,0.4-1.2,0.4-1.9v-4.2c0-0.1,0-0.1,0-0.1c0,0,0-0.1-0.1-0.1c0,0-0.1-0.1-0.1-0.1c0,0-0.1,0-0.1,0h-5.9c-1,0-1.9,0.4-2.6,1.1
	c-0.7,0.7-1.1,1.7-1.1,2.6v0.8c0,0.7,0.1,1.3,0.4,1.9v0.9c0,0.7,0.1,1.4,0.4,2c0.3,0.6,0.7,1.2,1.2,1.6v1.3l-0.7,0.8
	c0,0-0.1,0.1-0.1,0.1c0,0.1,0,0.1,0,0.2l-2.4,0.9c-0.2,0.1-0.3,0.1-0.5,0.3l-0.4-0.2c1.1-0.5,1.5-1.2,1.5-1.2c0-0.1,0-0.1,0-0.2
	c0-0.1,0-0.1,0-0.2c-0.3-0.6-0.3-1.6-0.3-2.4c0-0.3,0-0.5,0-0.8c-0.1-1.9-1.6-3.3-3.3-3.3c-1.8,0-3.2,1.4-3.3,3.3c0,0.2,0,0.5,0,0.8
	c0,0.8-0.1,1.9-0.3,2.4c0,0.1,0,0.1,0,0.2c0,0.1,0,0.1,0,0.2l0,0c0,0.1,0.4,0.7,1.5,1.2l-1.1,0.5c-0.3,0.1-0.5,0.3-0.7,0.6
	c-0.2,0.3-0.2,0.6-0.2,0.9v2.2v1L22,329z"/>
<path class="st13" d="M45.4,311.5c0.1,0,0.1,0,0.2,0c0.1,0,0.1,0,0.2-0.1c0.1,0,0.1-0.1,0.1-0.2c0,0,0-0.1,0-0.1c0,0,0-0.1,0-0.1
	c0,0,0-0.1-0.1-0.1c0,0-0.1-0.1-0.1-0.1c-0.9-0.5-2.6-0.5-2.7-0.5c-0.1,0-0.2,0-0.3,0.1c-0.1,0.1-0.1,0.2-0.1,0.3
	c0,0.1,0,0.2,0.1,0.3c0.1,0.1,0.2,0.1,0.3,0.1C43.5,311.2,44.8,311.2,45.4,311.5z"/>
<path class="st13" d="M33,306.5C33,306.5,33,306.5,33,306.5c0.9-0.2,1.7-0.2,2.6-0.1c1.2,0.1,2.1,0.4,2.6,0.9
	c0.1,0.1,0.2,0.1,0.3,0.1s0.2,0,0.3-0.1c0,0,0.1-0.1,0.1-0.1c0,0,0-0.1,0-0.2c0-0.1,0-0.1,0-0.2c0,0,0-0.1-0.1-0.1
	c-1.5-1.5-4.6-1.2-5.8-1c-0.2,0-0.4,0.1-0.5,0.3c-0.1,0.1-0.2,0.3-0.2,0.5v0.9c0,0.1,0,0.2,0.1,0.3c0.1,0.1,0.2,0.1,0.3,0.1
	c0.1,0,0.2,0,0.3-0.1c0.1-0.1,0.1-0.2,0.1-0.3V306.5z"/>
<path class="st14" d="M23.1,317.9c-0.1,0.1-0.1,0.3-0.1,0.5v3c0,0.2-0.2,0.4-0.4,0.4c-0.2,0-0.4-0.2-0.4-0.4v-3
	c0-0.3,0.1-0.6,0.2-0.9c0.2-0.3,0.4-0.5,0.7-0.6l1.1-0.5c-1.1-0.5-1.5-1.1-1.5-1.2l0,0c0-0.1,0-0.1,0-0.2c0-0.1,0-0.1,0-0.2
	c0.3-0.6,0.3-1.6,0.3-2.4c0-0.3,0-0.5,0-0.8c0.1-1.9,1.6-3.3,3.3-3.3c1.8,0,3.2,1.4,3.3,3.3c0,0.2,0,0.5,0,0.8
	c0,0.8,0.1,1.9,0.3,2.4c0,0.1,0,0.1,0,0.2c0,0.1,0,0.1,0,0.2c0,0-0.4,0.7-1.5,1.2l0.4,0.2c0.1-0.1,0.3-0.2,0.5-0.3l2.4-0.9
	c0-0.1,0-0.1,0-0.2c0-0.1,0-0.1,0.1-0.1l0.7-0.8V313c-0.5-0.5-1-1-1.2-1.6c-0.3-0.6-0.4-1.3-0.4-2v-0.9c-0.3-0.6-0.4-1.2-0.4-1.9
	v-0.8c0-1,0.4-1.9,1.1-2.6c0.7-0.7,1.7-1.1,2.6-1.1h5.9c0.1,0,0.1,0,0.1,0c0,0,0.1,0,0.1,0.1c0,0,0.1,0.1,0.1,0.1c0,0,0,0.1,0,0.1
	v4.2c0,0.7-0.1,1.3-0.4,1.9v1c0,0.6-0.1,1.2-0.4,1.8c-0.2,0.6-0.6,1.1-1.1,1.5c-0.1,0.1-0.2,0.1-0.2,0.2v1.3l0.7,0.8
	c0,0,0.1,0.1,0.1,0.1c0,0.1,0,0.1,0,0.2l2.3,0.8l0.8-0.2c0.3-0.1,0.3-0.1,0.3-0.2v-0.6c-0.4-0.3-0.7-0.7-0.9-1.1
	c-0.2-0.4-0.3-0.9-0.3-1.4v-0.6l-0.2-0.4c-0.1-0.3-0.2-0.6-0.2-0.9v0c0-0.7,0.3-1.3,0.7-1.8c0.5-0.5,1.1-0.7,1.8-0.7h3.8
	c0.1,0,0.1,0,0.1,0c0,0,0.1,0,0.1,0.1c0,0,0.1,0.1,0.1,0.1c0,0,0,0.1,0,0.1v2c0,0.4-0.1,0.8-0.3,1.1l-0.2,0.3v0.7
	c0,0.4-0.1,0.8-0.2,1.1c-0.2,0.4-0.4,0.7-0.7,1c-0.1,0.1-0.2,0.2-0.4,0.3v0.5c0,0,0,0.1,0,0.1s0.1,0,0.1,0.1l1.6,0.5
	c0.7,0.2,1.2,0.9,1.2,1.6v3.2c0,0.1,0,0.2-0.1,0.3c-0.1,0.1-0.2,0.1-0.3,0.1c-0.1,0-0.2,0-0.3-0.1c-0.1-0.1-0.1-0.2-0.1-0.3V318
	c0-0.2-0.1-0.4-0.2-0.5c-0.1-0.2-0.3-0.3-0.5-0.3l-1.6-0.5c-0.1,0-0.1,0-0.2-0.1l-1,1v3.6c0,0.1,0,0.2-0.1,0.3
	c-0.1,0.1-0.2,0.1-0.3,0.1s-0.2,0-0.3-0.1c-0.1-0.1-0.1-0.2-0.1-0.3v-3.6l-1-1c-0.1,0.1-0.2,0.1-0.4,0.1l-0.1,0
	c0.4,0.4,0.6,0.9,0.6,1.4v3c0,0.1,0,0.2-0.1,0.3c-0.1,0.1-0.2,0.1-0.3,0.1c-0.1,0-0.2,0-0.3-0.1c-0.1-0.1-0.1-0.2-0.1-0.3v-3
	c0-0.3-0.1-0.5-0.2-0.7c-0.2-0.2-0.4-0.4-0.6-0.5l-2.5-0.9l-1.1,1.6c-0.1,0.1-0.2,0.2-0.3,0.2c-0.1,0.1-0.2,0.1-0.3,0.1
	c0,0-0.1,0-0.1,0c-0.1,0-0.2,0-0.3-0.1c-0.1,0-0.2-0.1-0.3-0.2l-0.6-0.6v4.1c0,0.1,0,0.2-0.1,0.3c-0.1,0.1-0.2,0.1-0.3,0.1
	c-0.1,0-0.2,0-0.3-0.1c-0.1-0.1-0.1-0.2-0.1-0.3v-4.1l-0.6,0.6c-0.1,0.1-0.2,0.1-0.3,0.2c-0.1,0-0.2,0.1-0.3,0.1c0,0,0,0,0,0
	c0,0,0,0,0,0c-0.1,0-0.2-0.1-0.3-0.1c-0.1-0.1-0.2-0.1-0.3-0.2l-1.1-1.6l-2.5,0.9c-0.2,0.1-0.5,0.3-0.6,0.5
	c-0.2,0.2-0.2,0.5-0.2,0.7v3.1c0,0.2-0.2,0.4-0.4,0.4c-0.2,0-0.4-0.2-0.4-0.4v-3.1c0-0.4,0.1-0.8,0.3-1.1l-0.4-0.2l-0.5,0.4
	c-0.3,0.3-0.7,0.5-1.1,0.5c-0.4,0-0.8-0.2-1.1-0.5l-0.5-0.4l-1.3,0.7C23.3,317.6,23.2,317.7,23.1,317.9z M43.4,316l0.9,0.9l0.9-0.9
	c0-0.1,0-0.2,0-0.2v-0.2c-0.3,0.1-0.6,0.1-0.9,0.1h-0.1c-0.3,0-0.5-0.1-0.8-0.1v0.2C43.5,315.9,43.4,315.9,43.4,316z M42.2,312v0.7
	l0,0c0,1.2,0.9,2.2,2.1,2.2c0.3,0,0.6,0,0.8-0.1c0.3-0.1,0.5-0.3,0.7-0.5c0.2-0.2,0.4-0.4,0.5-0.7c0.1-0.3,0.2-0.5,0.2-0.8V312
	c0-0.1,0-0.1,0-0.2l0.2-0.4c0.1-0.2,0.2-0.5,0.2-0.8v-1.6h-3.4c-0.5,0-0.9,0.2-1.2,0.5c-0.3,0.3-0.5,0.8-0.5,1.2v0
	c0,0.2,0,0.4,0.1,0.6l0.2,0.5C42.2,311.9,42.2,312,42.2,312z M33.9,317.3C33.9,317.3,33.9,317.3,33.9,317.3l1-1l-1.9-1.3l-0.4,0.4
	L33.9,317.3C33.9,317.2,33.9,317.3,33.9,317.3z M33.4,314.3l2.1,1.4l2.1-1.4v-0.7c-0.7,0.3-1.4,0.5-2.1,0.5c-0.1,0-0.2,0-0.3,0h0
	c-0.6,0-1.3-0.2-1.8-0.5V314.3z M37.2,317.3C37.2,317.3,37.2,317.2,37.2,317.3l1.2-1.8L38,315l-1.8,1.3L37.2,317.3
	C37.1,317.2,37.1,317.3,37.2,317.3C37.1,317.3,37.1,317.3,37.2,317.3z M31.7,308.4v1c0,2.1,1.6,3.8,3.5,3.9c0.9,0.1,1.8-0.2,2.5-0.8
	l0,0c0.1-0.1,0.2-0.2,0.3-0.3c0.4-0.4,0.7-0.8,0.9-1.3c0.2-0.5,0.3-1,0.3-1.5v-1.1c0-0.1,0-0.1,0-0.2c0.3-0.5,0.4-1.1,0.4-1.6v-3.8
	h-5.5c-0.8,0-1.5,0.3-2.1,0.9c-0.6,0.6-0.9,1.3-0.9,2.1v0.8c0,0.6,0.1,1.1,0.4,1.6C31.7,308.3,31.7,308.3,31.7,308.4z M26.3,317
	c0.2,0,0.4-0.1,0.6-0.2l0.4-0.3c-0.1-0.1-0.1-0.3-0.1-0.4v-0.4c-0.3,0.1-0.6,0.1-0.9,0.1c-0.3,0-0.6,0-0.9-0.1v0.4
	c0,0.1,0,0.3-0.1,0.4l0.4,0.3C25.9,316.9,26.1,317,26.3,317z M28,315.7c0.7-0.3,1.1-0.6,1.3-0.8v0c-0.1-0.3-0.2-0.6-0.2-0.9
	c-0.2,0.5-0.6,1-1,1.3V315.7z M23.8,311.6c0,0.2,0,0.5,0,0.7c0,0,0,0.1,0,0.1c0,0,0,0,0.1,0c0.1,0,0.1,0,0.1,0c0,0,0.1,0,0.1,0.1
	c0,0,0.1,0.1,0.1,0.1c0,0,0,0.1,0,0.1c0,0.5,0.2,1,0.6,1.4c0.4,0.4,0.9,0.6,1.4,0.7c0.5,0,1.1-0.1,1.5-0.5c0.4-0.3,0.7-0.8,0.8-1.3
	c-0.6-1.4-2.3-1.6-2.8-1.6l-0.6,0.6c0,0-0.1,0.1-0.1,0.1c0,0-0.1,0-0.1,0c-0.1,0-0.1,0-0.2,0c0,0-0.1,0-0.1-0.1c0,0-0.1-0.1-0.1-0.1
	s0-0.1,0-0.1c0-0.1,0-0.1,0-0.2c0,0,0-0.1,0.1-0.1l0.7-0.7c0,0,0.1-0.1,0.1-0.1s0.1,0,0.1,0c0.5,0,1,0.1,1.5,0.2
	c0.8,0.3,1.5,0.8,1.9,1.4v-0.1c0-0.3,0-0.5,0-0.7c0-0.7-0.3-1.3-0.8-1.8c-0.2-0.2-0.5-0.4-0.8-0.5c-0.3-0.1-0.6-0.2-0.9-0.2
	s-0.6,0.1-0.9,0.2c-0.3,0.1-0.6,0.3-0.8,0.5C24.1,310.3,23.8,311,23.8,311.6z M23.6,314c0,0.3-0.1,0.6-0.2,0.9
	c0.2,0.2,0.5,0.5,1.3,0.8v-0.5C24.2,314.9,23.9,314.5,23.6,314z"/>
<path class="st13" d="M42.4,327c0.5,0,0.8-0.4,0.8-0.8c0-0.5-0.4-0.8-0.8-0.8s-0.8,0.4-0.8,0.8C41.6,326.6,41.9,327,42.4,327z"/>
<path class="st13" d="M46.3,326.2c0,0.5-0.4,0.8-0.8,0.8c-0.5,0-0.8-0.4-0.8-0.8c0-0.5,0.4-0.8,0.8-0.8
	C45.9,325.3,46.3,325.7,46.3,326.2z"/>
<path class="st13" d="M39.2,327c0.5,0,0.8-0.4,0.8-0.8c0-0.5-0.4-0.8-0.8-0.8c-0.5,0-0.8,0.4-0.8,0.8C38.3,326.6,38.7,327,39.2,327z
	"/>
<path class="st14" d="M40.1,322.1h8c0.3,0,0.6,0.1,0.9,0.4c0.2,0.2,0.4,0.5,0.4,0.9v5.7c0,0.3-0.1,0.6-0.4,0.9
	c-0.2,0.2-0.5,0.4-0.9,0.4H32.1c0,0,0,0,0,0h-8.9c-0.3,0-0.6-0.1-0.9-0.4c-0.2-0.2-0.4-0.5-0.4-0.9v-5.7c0-0.3,0.1-0.6,0.4-0.9
	c0.2-0.2,0.5-0.4,0.9-0.4H40.1L40.1,322.1z M31.2,323C31.2,323,31.2,323,31.2,323h16.9c0.1,0,0.2,0,0.2,0.1c0.1,0.1,0.1,0.1,0.1,0.2
	v5.7c0,0.1,0,0.2-0.1,0.2c-0.1,0.1-0.1,0.1-0.2,0.1h-8.9h0H23.2c-0.1,0-0.2,0-0.2-0.1c-0.1-0.1-0.1-0.1-0.1-0.2v-5.7
	c0-0.1,0-0.2,0.1-0.2c0.1-0.1,0.1-0.1,0.2-0.1H31.2z"/>
</svg>
