<?xml version="1.0" encoding="utf-8"?>
<!-- Generator: Adobe Illustrator 25.2.1, SVG Export Plug-In . SVG Version: 6.00 Build 0)  -->
<svg version="1.1" id="Layer_1" xmlns="http://www.w3.org/2000/svg" xmlns:xlink="http://www.w3.org/1999/xlink" x="0px" y="0px"
	 viewBox="0 0 72 352" style="enable-background:new 0 0 72 352;" xml:space="preserve">
<style type="text/css">
	.st0{fill:url(#SVGID_1_);fill-opacity:0.25;}
	.st1{fill:url(#SVGID_2_);fill-opacity:0.25;}
	.st2{fill:url(#SVGID_3_);fill-opacity:0.25;}
	.st3{fill:#0073EC;}
	.st4{fill-rule:evenodd;clip-rule:evenodd;fill:#0073EC;}
	.st5{fill:url(#SVGID_4_);fill-opacity:0.25;}
	.st6{fill:url(#SVGID_5_);fill-opacity:0.25;}
	.st7{fill:url(#SVGID_6_);fill-opacity:0.25;}
	.st8{fill:#A644E5;}
	.st9{fill-rule:evenodd;clip-rule:evenodd;fill:#A644E5;}
	.st10{fill:url(#SVGID_7_);fill-opacity:0.25;}
	.st11{fill:url(#SVGID_8_);fill-opacity:0.25;}
	.st12{fill:url(#SVGID_9_);fill-opacity:0.25;}
	.st13{fill:#00CAAA;}
	.st14{fill-rule:evenodd;clip-rule:evenodd;fill:#00CAAA;}
	.st15{fill:#434F58;}
	.st16{fill-rule:evenodd;clip-rule:evenodd;fill:#434F58;}
	.st17{fill:url(#SVGID_10_);fill-opacity:0.25;}
	.st18{fill:url(#SVGID_11_);fill-opacity:0.25;}
	.st19{fill:url(#SVGID_12_);fill-opacity:0.25;}
	.st20{fill:url(#SVGID_13_);fill-opacity:0.25;}
	.st21{fill:url(#SVGID_14_);fill-opacity:0.25;}
	.st22{fill:url(#SVGID_15_);fill-opacity:0.25;}
	.st23{fill:#677983;}
	.st24{fill-rule:evenodd;clip-rule:evenodd;fill:#677983;}
</style>
<radialGradient id="SVGID_1_" cx="-253.3571" cy="590.3067" r="1" gradientTransform="matrix(8.572528e-16 14 15.5431 -9.517404e-16 -9139.4326 3583)" gradientUnits="userSpaceOnUse">
	<stop  offset="0" style="stop-color:#0073EC"/>
	<stop  offset="1" style="stop-color:#0073EC;stop-opacity:0"/>
</radialGradient>
<path class="st0" d="M22.3,22h11.1c1.1,0,2,0.9,2,2V48c0,1.1-0.9,2-2,2H22.3c-1.1,0-2-0.9-2-2V24C20.2,22.9,21.1,22,22.3,22z"/>
<radialGradient id="SVGID_2_" cx="-253.3571" cy="590.3067" r="1" gradientTransform="matrix(8.572528e-16 14 15.5431 -9.517404e-16 -9139.4326 3583)" gradientUnits="userSpaceOnUse">
	<stop  offset="0" style="stop-color:#0073EC"/>
	<stop  offset="1" style="stop-color:#0073EC;stop-opacity:0"/>
</radialGradient>
<path class="st1" d="M49.9,22.2H38.1c-0.8,0-1.4,0.6-1.4,1.4v6.6c0,0.8,0.6,1.4,1.4,1.4h6.5l3.9,3.7c0.1,0.1,0.2,0.2,0.3,0.2
	c0.1,0,0.2,0,0.2-0.1c0.2-0.1,0.3-0.3,0.2-0.5l-0.5-3.3H50c0.8,0,1.4-0.6,1.4-1.4v-6.6C51.2,22.8,50.6,22.2,49.9,22.2z"/>
<radialGradient id="SVGID_3_" cx="-253.3571" cy="590.3067" r="1" gradientTransform="matrix(8.572528e-16 14 15.5431 -9.517404e-16 -9139.4326 3583)" gradientUnits="userSpaceOnUse">
	<stop  offset="0" style="stop-color:#0073EC"/>
	<stop  offset="1" style="stop-color:#0073EC;stop-opacity:0"/>
</radialGradient>
<path class="st2" d="M49.9,36.2H38.1c-0.8,0-1.4,0.6-1.4,1.4v6.6c0,0.8,0.6,1.4,1.4,1.4h1.1l-0.5,3.3c0,0.2,0.1,0.4,0.2,0.5
	c0,0,0.1,0,0.1,0c0,0,0.1,0,0.1,0c0.2,0,0.2-0.1,0.3-0.2l3.9-3.7H50c0.8,0,1.4-0.6,1.4-1.4v-6.6C51.2,36.8,50.6,36.2,49.9,36.2z"/>
<path class="st3" d="M29.2,33c-0.2,0-0.5,0.1-0.8,0.2c0.3,0.4,0.5,0.8,0.5,1.4v0.6h2.5c0.4,0,0.7-0.3,0.7-0.7c0-0.9-0.7-1.6-1.6-1.6
	h-0.1c-0.1,0-0.2,0-0.2,0c-0.1,0-0.2,0-0.4,0C29.7,33.1,29.5,33.1,29.2,33L29.2,33z"/>
<path class="st3" d="M29.9,29.9c-0.8,0-1.4,0.6-1.4,1.4c0,0.8,0.6,1.4,1.4,1.4c0.8,0,1.4-0.6,1.4-1.4C31.3,30.5,30.7,29.9,29.9,29.9
	z"/>
<path class="st3" d="M24.6,33.5h-0.2c-0.9,0-1.6,0.7-1.6,1.7v0.4c0,0.4,0.3,0.7,0.7,0.7h4.1c0.4,0,0.7-0.3,0.7-0.7v-0.4
	c0-0.9-0.8-1.7-1.7-1.7h-0.2c-0.3,0.2-0.6,0.2-1,0.2C25.2,33.7,24.9,33.6,24.6,33.5z"/>
<path class="st3" d="M25.6,29.9c-0.9,0-1.6,0.7-1.6,1.6c0,0.8,0.7,1.6,1.6,1.6c0.9,0,1.6-0.7,1.6-1.6C27.1,30.6,26.5,29.9,25.6,29.9
	z"/>
<path class="st3" d="M26.4,42.8h-4c-0.3,0-0.5-0.2-0.5-0.5c0-0.2,0.2-0.5,0.5-0.5h4c0.2,0,0.5,0.2,0.5,0.5
	C26.8,42.5,26.6,42.8,26.4,42.8z"/>
<path class="st3" d="M32.3,45H33c0.2,0,0.5-0.2,0.5-0.5c0-0.2-0.2-0.5-0.5-0.5h-0.6c-0.2,0-0.5,0.2-0.5,0.5C32,44.7,32.1,45,32.3,45
	z"/>
<path class="st3" d="M24,45h-1.6c-0.2,0-0.5-0.2-0.5-0.5c0-0.2,0.2-0.5,0.5-0.5H24c0.3,0,0.5,0.2,0.5,0.5C24.4,44.7,24.2,45,24,45z"
	/>
<path class="st3" d="M29.7,45H31c0.2,0,0.5-0.2,0.5-0.5c0-0.2-0.2-0.5-0.5-0.5h-1.3c-0.2,0-0.5,0.2-0.5,0.5
	C29.3,44.7,29.4,45,29.7,45z"/>
<path class="st3" d="M25.3,45c-0.2,0-0.5-0.2-0.5-0.5c0-0.2,0.2-0.5,0.5-0.5h2.8c0.2,0,0.5,0.2,0.5,0.5c0,0.2-0.2,0.5-0.5,0.5H25.3z
	"/>
<path class="st3" d="M23.1,45.6h-0.7c-0.2,0-0.5,0.2-0.5,0.5s0.2,0.5,0.5,0.5H23c0.2,0,0.5-0.2,0.5-0.5
	C23.5,45.8,23.3,45.6,23.1,45.6z"/>
<path class="st3" d="M31.4,45.6H33c0.2,0,0.5,0.2,0.5,0.5s-0.2,0.5-0.5,0.5h-1.6c-0.2,0-0.5-0.2-0.5-0.5S31.2,45.6,31.4,45.6z"/>
<path class="st3" d="M25.7,45.6h-1.3c-0.2,0-0.5,0.2-0.5,0.5s0.2,0.5,0.5,0.5h1.3c0.2,0,0.5-0.2,0.5-0.5
	C26.2,45.8,26,45.6,25.7,45.6z"/>
<path class="st3" d="M27.1,45.6H30c0.3,0,0.5,0.2,0.5,0.5c0,0.2-0.2,0.5-0.5,0.5h-2.9c-0.2,0-0.5-0.2-0.5-0.5S26.9,45.6,27.1,45.6z"
	/>
<path class="st3" d="M32.8,43.1c0.1,0.1,0.2,0.1,0.2,0l0.8-0.8c0.2-0.2,0.2-0.6,0-0.8c-0.2-0.2-0.5-0.2-0.7,0.1l-0.1,0.1l-0.2-0.1
	c-0.2-0.2-0.5-0.2-0.7-0.1c-0.2,0.2-0.2,0.6-0.1,0.8L32.8,43.1z"/>
<path class="st4" d="M33.4,22H22.3c-1.1,0-2,0.9-2,2V48c0,1.1,0.9,2,2,2h11.1c1.1,0,2-0.9,2-2V24C35.4,22.9,34.5,22,33.4,22z
	 M22.2,22.9c-0.6,0-1.1,0.5-1.1,1.1v23.9c0,0.6,0.5,1.1,1.1,1.1h11.1c0.6,0,1.1-0.5,1.1-1.1l0.1-22.2V24c0-0.6-0.5-1.1-1.1-1.1h-1.5
	c-0.1,0.9-0.8,1.6-1.7,1.6h-4.8c-0.9,0-1.6-0.8-1.7-1.6H22.2z"/>
<path class="st3" d="M41.4,25.5h-1.6c-0.2,0-0.5-0.2-0.5-0.5c0-0.2,0.2-0.5,0.5-0.5h1.6c0.2,0,0.5,0.2,0.5,0.5
	C41.9,25.2,41.7,25.5,41.4,25.5z"/>
<path class="st3" d="M48.4,24.6h-1.3c-0.2,0-0.5,0.2-0.5,0.5c0,0.2,0.2,0.5,0.5,0.5h1.3c0.2,0,0.5-0.2,0.5-0.5
	C48.9,24.8,48.7,24.6,48.4,24.6z"/>
<path class="st3" d="M45.7,25.5h-2.9c-0.3,0-0.5-0.2-0.5-0.5c0-0.2,0.2-0.5,0.5-0.5h2.9c0.2,0,0.5,0.2,0.5,0.5
	C46.2,25.2,46,25.5,45.7,25.5z"/>
<path class="st3" d="M40.5,26.1h-0.6c-0.2,0-0.5,0.2-0.5,0.5c0,0.2,0.2,0.5,0.5,0.5h0.6c0.2,0,0.5-0.2,0.5-0.5
	C41,26.3,40.8,26.1,40.5,26.1z"/>
<path class="st3" d="M41.9,26.1h1.3c0.3,0,0.5,0.2,0.5,0.5c0,0.2-0.2,0.5-0.5,0.5h-1.3c-0.2,0-0.5-0.2-0.5-0.5
	C41.4,26.3,41.7,26.1,41.9,26.1z"/>
<path class="st3" d="M47.5,26.1h-2.9c-0.2,0-0.5,0.2-0.5,0.5c0,0.2,0.2,0.5,0.5,0.5h2.9c0.2,0,0.5-0.2,0.5-0.5
	C47.9,26.3,47.8,26.1,47.5,26.1z"/>
<path class="st4" d="M38.1,22.2h11.7c0.8,0,1.4,0.6,1.4,1.4v6.6c0,0.8-0.6,1.4-1.4,1.4h-1.1l0.5,3.3c0.1,0.2-0.1,0.4-0.2,0.5
	c-0.1,0.1-0.2,0.1-0.2,0.1c-0.1,0-0.2-0.1-0.3-0.2l-3.9-3.7h-6.5c-0.8,0-1.4-0.6-1.4-1.4v-6.6C36.8,22.8,37.4,22.2,38.1,22.2z
	 M49.9,30.6c0.2,0,0.5-0.2,0.5-0.5v-6.6c0-0.2-0.2-0.5-0.4-0.5H38.2c-0.2,0-0.5,0.2-0.5,0.5v6.6c0,0.2,0.2,0.5,0.5,0.5h6.7
	c0.1,0,0.2,0.1,0.3,0.2l3,2.9l-0.4-2.5c-0.1-0.2,0-0.3,0.1-0.4c0.1-0.1,0.2-0.2,0.4-0.2H49.9z"/>
<path class="st3" d="M39.9,40.5h1.6c0.2,0,0.5,0.2,0.5,0.5s-0.2,0.5-0.5,0.5h-1.6c-0.2,0-0.5-0.2-0.5-0.5S39.6,40.5,39.9,40.5z"/>
<path class="st3" d="M48.4,40.5h-1.3c-0.2,0-0.5,0.2-0.5,0.5s0.2,0.5,0.5,0.5h1.3c0.2,0,0.5-0.2,0.5-0.5S48.7,40.5,48.4,40.5z"/>
<path class="st3" d="M42.9,40.5h2.9c0.2,0,0.5,0.2,0.5,0.5s-0.2,0.5-0.5,0.5h-2.9c-0.2,0-0.5-0.2-0.5-0.5S42.7,40.5,42.9,40.5z"/>
<path class="st3" d="M39.9,39.9h0.7c0.2,0,0.5-0.2,0.5-0.5S40.8,39,40.5,39h-0.6c-0.2,0-0.5,0.2-0.5,0.5S39.6,39.9,39.9,39.9z"/>
<path class="st3" d="M43.2,39.9h-1.3c-0.2,0-0.5-0.2-0.5-0.5s0.2-0.5,0.5-0.5h1.3c0.2,0,0.5,0.2,0.5,0.5S43.4,39.9,43.2,39.9z"/>
<path class="st3" d="M44.6,39.9h2.9c0.2,0,0.5-0.2,0.5-0.5S47.7,39,47.5,39h-2.9c-0.2,0-0.5,0.2-0.5,0.5S44.3,39.9,44.6,39.9z"/>
<path class="st4" d="M49.9,36.2H38.1c-0.8,0-1.4,0.6-1.4,1.4v6.6c0,0.8,0.6,1.4,1.4,1.4h1.1l-0.5,3.3c0,0.2,0.1,0.4,0.2,0.5
	c0,0,0.1,0,0.1,0c0,0,0.1,0,0.1,0c0.2,0,0.2-0.1,0.3-0.2l3.9-3.7H50c0.8,0,1.4-0.6,1.4-1.4v-6.6C51.2,36.8,50.6,36.2,49.9,36.2z
	 M50.3,44.1c0,0.2-0.2,0.5-0.5,0.5h-6.7c-0.2,0-0.2,0.1-0.3,0.2l-3,2.9l0.4-2.5c0-0.2,0-0.3-0.1-0.4c-0.1-0.1-0.2-0.2-0.4-0.2h-1.6
	c-0.2,0-0.5-0.2-0.5-0.5v-6.6c0-0.2,0.2-0.5,0.5-0.5H50c0.2,0,0.5,0.2,0.5,0.5L50.3,44.1L50.3,44.1z"/>
<radialGradient id="SVGID_4_" cx="-253.3571" cy="590.3067" r="1" gradientTransform="matrix(8.572528e-16 14 15.5431 -9.517404e-16 -9139.4326 3639)" gradientUnits="userSpaceOnUse">
	<stop  offset="0" style="stop-color:#A644E5"/>
	<stop  offset="1" style="stop-color:#A644E5;stop-opacity:0"/>
</radialGradient>
<path class="st5" d="M22.3,78h11.1c1.1,0,2,0.9,2,2V104c0,1.1-0.9,2-2,2H22.3c-1.1,0-2-0.9-2-2V80C20.2,78.9,21.1,78,22.3,78z"/>
<radialGradient id="SVGID_5_" cx="-253.3571" cy="590.3067" r="1" gradientTransform="matrix(8.572528e-16 14 15.5431 -9.517404e-16 -9139.4326 3639)" gradientUnits="userSpaceOnUse">
	<stop  offset="0" style="stop-color:#A644E5"/>
	<stop  offset="1" style="stop-color:#A644E5;stop-opacity:0"/>
</radialGradient>
<path class="st6" d="M49.9,78.2H38.1c-0.8,0-1.4,0.6-1.4,1.4v6.6c0,0.8,0.6,1.4,1.4,1.4h6.5l3.9,3.7c0.1,0.1,0.2,0.2,0.3,0.2
	c0.1,0,0.2,0,0.2-0.1c0.2-0.1,0.3-0.3,0.2-0.5l-0.5-3.3H50c0.8,0,1.4-0.6,1.4-1.4v-6.6C51.2,78.8,50.6,78.2,49.9,78.2z"/>
<radialGradient id="SVGID_6_" cx="-253.3571" cy="590.3067" r="1" gradientTransform="matrix(8.572528e-16 14 15.5431 -9.517404e-16 -9139.4326 3639)" gradientUnits="userSpaceOnUse">
	<stop  offset="0" style="stop-color:#A644E5"/>
	<stop  offset="1" style="stop-color:#A644E5;stop-opacity:0"/>
</radialGradient>
<path class="st7" d="M49.9,92.2H38.1c-0.8,0-1.4,0.6-1.4,1.4v6.6c0,0.8,0.6,1.4,1.4,1.4h1.1l-0.5,3.3c0,0.2,0.1,0.4,0.2,0.5
	c0,0,0.1,0,0.1,0c0,0,0.1,0,0.1,0c0.2,0,0.2-0.1,0.3-0.2l3.9-3.7H50c0.8,0,1.4-0.6,1.4-1.4v-6.6C51.2,92.8,50.6,92.2,49.9,92.2z"/>
<path class="st8" d="M29.2,89c-0.2,0-0.5,0.1-0.8,0.2c0.3,0.4,0.5,0.8,0.5,1.4v0.6h2.5c0.4,0,0.7-0.3,0.7-0.7c0-0.9-0.7-1.6-1.6-1.6
	h-0.1c-0.1,0-0.2,0-0.2,0c-0.1,0-0.2,0-0.4,0C29.7,89.1,29.5,89.1,29.2,89L29.2,89z"/>
<path class="st8" d="M29.9,85.9c-0.8,0-1.4,0.6-1.4,1.4c0,0.8,0.6,1.4,1.4,1.4c0.8,0,1.4-0.6,1.4-1.4C31.3,86.5,30.7,85.9,29.9,85.9
	z"/>
<path class="st8" d="M24.6,89.5h-0.2c-0.9,0-1.6,0.7-1.6,1.7v0.4c0,0.4,0.3,0.7,0.7,0.7h4.1c0.4,0,0.7-0.3,0.7-0.7v-0.4
	c0-0.9-0.8-1.7-1.7-1.7h-0.2c-0.3,0.2-0.6,0.2-1,0.2C25.2,89.7,24.9,89.6,24.6,89.5z"/>
<path class="st8" d="M25.6,85.9c-0.9,0-1.6,0.7-1.6,1.6c0,0.8,0.7,1.6,1.6,1.6c0.9,0,1.6-0.7,1.6-1.6C27.1,86.6,26.5,85.9,25.6,85.9
	z"/>
<path class="st8" d="M26.4,98.8h-4c-0.3,0-0.5-0.2-0.5-0.5c0-0.2,0.2-0.5,0.5-0.5h4c0.2,0,0.5,0.2,0.5,0.5
	C26.8,98.5,26.6,98.8,26.4,98.8z"/>
<path class="st8" d="M32.3,101H33c0.2,0,0.5-0.2,0.5-0.5c0-0.2-0.2-0.5-0.5-0.5h-0.6c-0.2,0-0.5,0.2-0.5,0.5
	C32,100.7,32.1,101,32.3,101z"/>
<path class="st8" d="M24,101h-1.6c-0.2,0-0.5-0.2-0.5-0.5c0-0.2,0.2-0.5,0.5-0.5H24c0.3,0,0.5,0.2,0.5,0.5
	C24.4,100.7,24.2,101,24,101z"/>
<path class="st8" d="M29.7,101H31c0.2,0,0.5-0.2,0.5-0.5c0-0.2-0.2-0.5-0.5-0.5h-1.3c-0.2,0-0.5,0.2-0.5,0.5
	C29.3,100.7,29.4,101,29.7,101z"/>
<path class="st8" d="M25.3,101c-0.2,0-0.5-0.2-0.5-0.5c0-0.2,0.2-0.5,0.5-0.5h2.8c0.2,0,0.5,0.2,0.5,0.5c0,0.2-0.2,0.5-0.5,0.5H25.3
	z"/>
<path class="st8" d="M23.1,101.6h-0.7c-0.2,0-0.5,0.2-0.5,0.5c0,0.2,0.2,0.5,0.5,0.5H23c0.2,0,0.5-0.2,0.5-0.5
	C23.5,101.8,23.3,101.6,23.1,101.6z"/>
<path class="st8" d="M31.4,101.6H33c0.2,0,0.5,0.2,0.5,0.5c0,0.2-0.2,0.5-0.5,0.5h-1.6c-0.2,0-0.5-0.2-0.5-0.5
	C31,101.8,31.2,101.6,31.4,101.6z"/>
<path class="st8" d="M25.7,101.6h-1.3c-0.2,0-0.5,0.2-0.5,0.5c0,0.2,0.2,0.5,0.5,0.5h1.3c0.2,0,0.5-0.2,0.5-0.5
	C26.2,101.8,26,101.6,25.7,101.6z"/>
<path class="st8" d="M27.1,101.6H30c0.3,0,0.5,0.2,0.5,0.5c0,0.2-0.2,0.5-0.5,0.5h-2.9c-0.2,0-0.5-0.2-0.5-0.5
	C26.7,101.8,26.9,101.6,27.1,101.6z"/>
<path class="st8" d="M32.8,99.1c0.1,0.1,0.2,0.1,0.2,0l0.8-0.8c0.2-0.2,0.2-0.6,0-0.8c-0.2-0.2-0.5-0.2-0.7,0.1l-0.1,0.1l-0.2-0.1
	c-0.2-0.2-0.5-0.2-0.7-0.1c-0.2,0.2-0.2,0.6-0.1,0.8L32.8,99.1z"/>
<path class="st9" d="M33.4,78H22.3c-1.1,0-2,0.9-2,2V104c0,1.1,0.9,2,2,2h11.1c1.1,0,2-0.9,2-2V80C35.4,78.9,34.5,78,33.4,78z
	 M22.2,78.9c-0.6,0-1.1,0.5-1.1,1.1v23.9c0,0.6,0.5,1.1,1.1,1.1h11.1c0.6,0,1.1-0.5,1.1-1.1l0.1-22.2V80c0-0.6-0.5-1.1-1.1-1.1h-1.5
	c-0.1,0.9-0.8,1.6-1.7,1.6h-4.8c-0.9,0-1.6-0.8-1.7-1.6H22.2z"/>
<path class="st8" d="M41.4,81.5h-1.6c-0.2,0-0.5-0.2-0.5-0.5s0.2-0.5,0.5-0.5h1.6c0.2,0,0.5,0.2,0.5,0.5S41.7,81.5,41.4,81.5z"/>
<path class="st8" d="M48.4,80.6h-1.3c-0.2,0-0.5,0.2-0.5,0.5s0.2,0.5,0.5,0.5h1.3c0.2,0,0.5-0.2,0.5-0.5S48.7,80.6,48.4,80.6z"/>
<path class="st8" d="M45.7,81.5h-2.9c-0.3,0-0.5-0.2-0.5-0.5s0.2-0.5,0.5-0.5h2.9c0.2,0,0.5,0.2,0.5,0.5S46,81.5,45.7,81.5z"/>
<path class="st8" d="M40.5,82.1h-0.6c-0.2,0-0.5,0.2-0.5,0.5s0.2,0.5,0.5,0.5h0.6c0.2,0,0.5-0.2,0.5-0.5S40.8,82.1,40.5,82.1z"/>
<path class="st8" d="M41.9,82.1h1.3c0.3,0,0.5,0.2,0.5,0.5S43.4,83,43.2,83h-1.3c-0.2,0-0.5-0.2-0.5-0.5S41.7,82.1,41.9,82.1z"/>
<path class="st8" d="M47.5,82.1h-2.9c-0.2,0-0.5,0.2-0.5,0.5s0.2,0.5,0.5,0.5h2.9c0.2,0,0.5-0.2,0.5-0.5S47.8,82.1,47.5,82.1z"/>
<path class="st9" d="M38.1,78.2h11.7c0.8,0,1.4,0.6,1.4,1.4v6.6c0,0.8-0.6,1.4-1.4,1.4h-1.1l0.5,3.3c0.1,0.2-0.1,0.4-0.2,0.5
	c-0.1,0.1-0.2,0.1-0.2,0.1c-0.1,0-0.2-0.1-0.3-0.2l-3.9-3.7h-6.5c-0.8,0-1.4-0.6-1.4-1.4v-6.6C36.8,78.8,37.4,78.2,38.1,78.2z
	 M49.9,86.6c0.2,0,0.5-0.2,0.5-0.5v-6.6c0-0.2-0.2-0.5-0.4-0.5H38.2c-0.2,0-0.5,0.2-0.5,0.5v6.6c0,0.2,0.2,0.5,0.5,0.5h6.7
	c0.1,0,0.2,0.1,0.3,0.2l3,2.9l-0.4-2.5c-0.1-0.2,0-0.3,0.1-0.4c0.1-0.1,0.2-0.2,0.4-0.2H49.9z"/>
<path class="st8" d="M39.9,96.5h1.6c0.2,0,0.5,0.2,0.5,0.5s-0.2,0.5-0.5,0.5h-1.6c-0.2,0-0.5-0.2-0.5-0.5S39.6,96.5,39.9,96.5z"/>
<path class="st8" d="M48.4,96.5h-1.3c-0.2,0-0.5,0.2-0.5,0.5s0.2,0.5,0.5,0.5h1.3c0.2,0,0.5-0.2,0.5-0.5S48.7,96.5,48.4,96.5z"/>
<path class="st8" d="M42.9,96.5h2.9c0.2,0,0.5,0.2,0.5,0.5s-0.2,0.5-0.5,0.5h-2.9c-0.2,0-0.5-0.2-0.5-0.5S42.7,96.5,42.9,96.5z"/>
<path class="st8" d="M39.9,95.9h0.7c0.2,0,0.5-0.2,0.5-0.5S40.8,95,40.5,95h-0.6c-0.2,0-0.5,0.2-0.5,0.5S39.6,95.9,39.9,95.9z"/>
<path class="st8" d="M43.2,95.9h-1.3c-0.2,0-0.5-0.2-0.5-0.5s0.2-0.5,0.5-0.5h1.3c0.2,0,0.5,0.2,0.5,0.5S43.4,95.9,43.2,95.9z"/>
<path class="st8" d="M44.6,95.9h2.9c0.2,0,0.5-0.2,0.5-0.5S47.7,95,47.5,95h-2.9c-0.2,0-0.5,0.2-0.5,0.5S44.3,95.9,44.6,95.9z"/>
<path class="st9" d="M49.9,92.2H38.1c-0.8,0-1.4,0.6-1.4,1.4v6.6c0,0.8,0.6,1.4,1.4,1.4h1.1l-0.5,3.3c0,0.2,0.1,0.4,0.2,0.5
	c0,0,0.1,0,0.1,0c0,0,0.1,0,0.1,0c0.2,0,0.2-0.1,0.3-0.2l3.9-3.7H50c0.8,0,1.4-0.6,1.4-1.4v-6.6C51.2,92.8,50.6,92.2,49.9,92.2z
	 M50.3,100.1c0,0.2-0.2,0.5-0.5,0.5h-6.7c-0.2,0-0.2,0.1-0.3,0.2l-3,2.9l0.4-2.5c0-0.2,0-0.3-0.1-0.4c-0.1-0.1-0.2-0.2-0.4-0.2h-1.6
	c-0.2,0-0.5-0.2-0.5-0.5v-6.6c0-0.2,0.2-0.5,0.5-0.5H50c0.2,0,0.5,0.2,0.5,0.5L50.3,100.1L50.3,100.1z"/>
<radialGradient id="SVGID_7_" cx="-253.3571" cy="590.3067" r="1" gradientTransform="matrix(8.572528e-16 14 15.5431 -9.517404e-16 -9139.4326 3695)" gradientUnits="userSpaceOnUse">
	<stop  offset="0" style="stop-color:#00CAAA"/>
	<stop  offset="1" style="stop-color:#00CAAA;stop-opacity:0"/>
</radialGradient>
<path class="st10" d="M22.3,134h11.1c1.1,0,2,0.9,2,2V160c0,1.1-0.9,2-2,2H22.3c-1.1,0-2-0.9-2-2V136C20.2,134.9,21.1,134,22.3,134z
	"/>
<radialGradient id="SVGID_8_" cx="-253.3571" cy="590.3067" r="1" gradientTransform="matrix(8.572528e-16 14 15.5431 -9.517404e-16 -9139.4326 3695)" gradientUnits="userSpaceOnUse">
	<stop  offset="0" style="stop-color:#00CAAA"/>
	<stop  offset="1" style="stop-color:#00CAAA;stop-opacity:0"/>
</radialGradient>
<path class="st11" d="M49.9,134.2H38.1c-0.8,0-1.4,0.6-1.4,1.4v6.6c0,0.8,0.6,1.4,1.4,1.4h6.5l3.9,3.7c0.1,0.1,0.2,0.1,0.3,0.1
	c0.1,0,0.2,0,0.2-0.1c0.2-0.1,0.3-0.3,0.2-0.5l-0.5-3.3H50c0.8,0,1.4-0.6,1.4-1.4v-6.6C51.2,134.8,50.6,134.2,49.9,134.2z"/>
<radialGradient id="SVGID_9_" cx="-253.3571" cy="590.3067" r="1" gradientTransform="matrix(8.572528e-16 14 15.5431 -9.517404e-16 -9139.4326 3695)" gradientUnits="userSpaceOnUse">
	<stop  offset="0" style="stop-color:#00CAAA"/>
	<stop  offset="1" style="stop-color:#00CAAA;stop-opacity:0"/>
</radialGradient>
<path class="st12" d="M49.9,148.2H38.1c-0.8,0-1.4,0.6-1.4,1.4v6.6c0,0.8,0.6,1.4,1.4,1.4h1.1l-0.5,3.3c0,0.2,0.1,0.4,0.2,0.5
	c0,0,0.1,0,0.1,0c0,0,0.1,0,0.1,0c0.2,0,0.2-0.1,0.3-0.2l3.9-3.7H50c0.8,0,1.4-0.6,1.4-1.4v-6.6C51.2,148.8,50.6,148.2,49.9,148.2z"
	/>
<path class="st13" d="M29.2,145c-0.2,0-0.5,0.1-0.8,0.2c0.3,0.4,0.5,0.8,0.5,1.4v0.6h2.5c0.4,0,0.7-0.3,0.7-0.7
	c0-0.9-0.7-1.6-1.6-1.6h-0.1c-0.1,0-0.2,0-0.2,0c-0.1,0-0.2,0-0.4,0C29.7,145.1,29.5,145.1,29.2,145L29.2,145z"/>
<path class="st13" d="M29.9,141.9c-0.8,0-1.4,0.6-1.4,1.4c0,0.8,0.6,1.4,1.4,1.4c0.8,0,1.4-0.6,1.4-1.4
	C31.3,142.5,30.7,141.9,29.9,141.9z"/>
<path class="st13" d="M24.6,145.5h-0.2c-0.9,0-1.6,0.7-1.6,1.7v0.4c0,0.4,0.3,0.7,0.7,0.7h4.1c0.4,0,0.7-0.3,0.7-0.7v-0.4
	c0-0.9-0.8-1.7-1.7-1.7h-0.2c-0.3,0.1-0.6,0.2-1,0.2C25.2,145.7,24.9,145.6,24.6,145.5z"/>
<path class="st13" d="M25.6,141.9c-0.9,0-1.6,0.7-1.6,1.6c0,0.8,0.7,1.6,1.6,1.6c0.9,0,1.6-0.7,1.6-1.6
	C27.1,142.6,26.5,141.9,25.6,141.9z"/>
<path class="st13" d="M26.4,154.8h-4c-0.3,0-0.5-0.2-0.5-0.5s0.2-0.5,0.5-0.5h4c0.2,0,0.5,0.2,0.5,0.5S26.6,154.8,26.4,154.8z"/>
<path class="st13" d="M32.3,157H33c0.2,0,0.5-0.2,0.5-0.5c0-0.2-0.2-0.5-0.5-0.5h-0.6c-0.2,0-0.5,0.2-0.5,0.5
	C32,156.7,32.1,157,32.3,157z"/>
<path class="st13" d="M24,157h-1.6c-0.2,0-0.5-0.2-0.5-0.5c0-0.2,0.2-0.5,0.5-0.5H24c0.3,0,0.5,0.2,0.5,0.5
	C24.4,156.7,24.2,157,24,157z"/>
<path class="st13" d="M29.7,157H31c0.2,0,0.5-0.2,0.5-0.5c0-0.2-0.2-0.5-0.5-0.5h-1.3c-0.2,0-0.5,0.2-0.5,0.5
	C29.3,156.7,29.4,157,29.7,157z"/>
<path class="st13" d="M25.3,157c-0.2,0-0.5-0.2-0.5-0.5c0-0.2,0.2-0.5,0.5-0.5h2.8c0.2,0,0.5,0.2,0.5,0.5c0,0.2-0.2,0.5-0.5,0.5
	H25.3z"/>
<path class="st13" d="M23.1,157.6h-0.7c-0.2,0-0.5,0.2-0.5,0.5c0,0.2,0.2,0.5,0.5,0.5H23c0.2,0,0.5-0.2,0.5-0.5
	C23.5,157.8,23.3,157.6,23.1,157.6z"/>
<path class="st13" d="M31.4,157.6H33c0.2,0,0.5,0.2,0.5,0.5c0,0.2-0.2,0.5-0.5,0.5h-1.6c-0.2,0-0.5-0.2-0.5-0.5
	C31,157.8,31.2,157.6,31.4,157.6z"/>
<path class="st13" d="M25.7,157.6h-1.3c-0.2,0-0.5,0.2-0.5,0.5c0,0.2,0.2,0.5,0.5,0.5h1.3c0.2,0,0.5-0.2,0.5-0.5
	C26.2,157.8,26,157.6,25.7,157.6z"/>
<path class="st13" d="M27.1,157.6H30c0.3,0,0.5,0.2,0.5,0.5c0,0.2-0.2,0.5-0.5,0.5h-2.9c-0.2,0-0.5-0.2-0.5-0.5
	C26.7,157.8,26.9,157.6,27.1,157.6z"/>
<path class="st13" d="M32.8,155.1c0.1,0.1,0.2,0.1,0.2,0l0.8-0.8c0.2-0.2,0.2-0.6,0-0.8c-0.2-0.2-0.5-0.2-0.7,0.1l-0.1,0.1l-0.2-0.1
	c-0.2-0.2-0.5-0.2-0.7-0.1c-0.2,0.2-0.2,0.6-0.1,0.8L32.8,155.1z"/>
<path class="st14" d="M33.4,134H22.3c-1.1,0-2,0.9-2,2V160c0,1.1,0.9,2,2,2h11.1c1.1,0,2-0.9,2-2V136C35.4,134.9,34.5,134,33.4,134z
	 M22.2,134.9c-0.6,0-1.1,0.5-1.1,1.1v23.9c0,0.6,0.5,1.1,1.1,1.1h11.1c0.6,0,1.1-0.5,1.1-1.1l0.1-22.2V136c0-0.6-0.5-1.1-1.1-1.1
	h-1.5c-0.1,0.9-0.8,1.6-1.7,1.6h-4.8c-0.9,0-1.6-0.8-1.7-1.6H22.2z"/>
<path class="st13" d="M41.4,137.5h-1.6c-0.2,0-0.5-0.2-0.5-0.5c0-0.2,0.2-0.5,0.5-0.5h1.6c0.2,0,0.5,0.2,0.5,0.5
	C41.9,137.2,41.7,137.5,41.4,137.5z"/>
<path class="st13" d="M48.4,136.6h-1.3c-0.2,0-0.5,0.2-0.5,0.5c0,0.2,0.2,0.5,0.5,0.5h1.3c0.2,0,0.5-0.2,0.5-0.5
	C48.9,136.8,48.7,136.6,48.4,136.6z"/>
<path class="st13" d="M45.7,137.5h-2.9c-0.3,0-0.5-0.2-0.5-0.5c0-0.2,0.2-0.5,0.5-0.5h2.9c0.2,0,0.5,0.2,0.5,0.5
	C46.2,137.2,46,137.5,45.7,137.5z"/>
<path class="st13" d="M40.5,138.1h-0.6c-0.2,0-0.5,0.2-0.5,0.5c0,0.2,0.2,0.5,0.5,0.5h0.6c0.2,0,0.5-0.2,0.5-0.5
	C41,138.3,40.8,138.1,40.5,138.1z"/>
<path class="st13" d="M41.9,138.1h1.3c0.3,0,0.5,0.2,0.5,0.5c0,0.2-0.2,0.5-0.5,0.5h-1.3c-0.2,0-0.5-0.2-0.5-0.5
	C41.4,138.3,41.7,138.1,41.9,138.1z"/>
<path class="st13" d="M47.5,138.1h-2.9c-0.2,0-0.5,0.2-0.5,0.5c0,0.2,0.2,0.5,0.5,0.5h2.9c0.2,0,0.5-0.2,0.5-0.5
	C47.9,138.3,47.8,138.1,47.5,138.1z"/>
<path class="st14" d="M38.1,134.2h11.7c0.8,0,1.4,0.6,1.4,1.4v6.6c0,0.8-0.6,1.4-1.4,1.4h-1.1l0.5,3.3c0.1,0.2-0.1,0.4-0.2,0.5
	c-0.1,0.1-0.2,0.1-0.2,0.1c-0.1,0-0.2-0.1-0.3-0.1l-3.9-3.7h-6.5c-0.8,0-1.4-0.6-1.4-1.4v-6.6C36.8,134.8,37.4,134.2,38.1,134.2z
	 M49.9,142.6c0.2,0,0.5-0.2,0.5-0.5v-6.6c0-0.2-0.2-0.5-0.4-0.5H38.2c-0.2,0-0.5,0.2-0.5,0.5v6.6c0,0.2,0.2,0.5,0.5,0.5h6.7
	c0.1,0,0.2,0.1,0.3,0.1l3,2.9l-0.4-2.5c-0.1-0.2,0-0.3,0.1-0.4c0.1-0.1,0.2-0.1,0.4-0.1H49.9z"/>
<path class="st13" d="M39.9,152.5h1.6c0.2,0,0.5,0.2,0.5,0.5s-0.2,0.5-0.5,0.5h-1.6c-0.2,0-0.5-0.2-0.5-0.5S39.6,152.5,39.9,152.5z"
	/>
<path class="st13" d="M48.4,152.5h-1.3c-0.2,0-0.5,0.2-0.5,0.5s0.2,0.5,0.5,0.5h1.3c0.2,0,0.5-0.2,0.5-0.5S48.7,152.5,48.4,152.5z"
	/>
<path class="st13" d="M42.9,152.5h2.9c0.2,0,0.5,0.2,0.5,0.5s-0.2,0.5-0.5,0.5h-2.9c-0.2,0-0.5-0.2-0.5-0.5S42.7,152.5,42.9,152.5z"
	/>
<path class="st13" d="M39.9,151.9h0.7c0.2,0,0.5-0.2,0.5-0.5c0-0.2-0.2-0.5-0.5-0.5h-0.6c-0.2,0-0.5,0.2-0.5,0.5
	C39.5,151.7,39.6,151.9,39.9,151.9z"/>
<path class="st13" d="M43.2,151.9h-1.3c-0.2,0-0.5-0.2-0.5-0.5c0-0.2,0.2-0.5,0.5-0.5h1.3c0.2,0,0.5,0.2,0.5,0.5
	C43.6,151.7,43.4,151.9,43.2,151.9z"/>
<path class="st13" d="M44.6,151.9h2.9c0.2,0,0.5-0.2,0.5-0.5c0-0.2-0.2-0.5-0.5-0.5h-2.9c-0.2,0-0.5,0.2-0.5,0.5
	C44.2,151.7,44.3,151.9,44.6,151.9z"/>
<path class="st14" d="M49.9,148.2H38.1c-0.8,0-1.4,0.6-1.4,1.4v6.6c0,0.8,0.6,1.4,1.4,1.4h1.1l-0.5,3.3c0,0.2,0.1,0.4,0.2,0.5
	c0,0,0.1,0,0.1,0c0,0,0.1,0,0.1,0c0.2,0,0.2-0.1,0.3-0.2l3.9-3.7H50c0.8,0,1.4-0.6,1.4-1.4v-6.6C51.2,148.8,50.6,148.2,49.9,148.2z
	 M50.3,156.1c0,0.2-0.2,0.5-0.5,0.5h-6.7c-0.2,0-0.2,0.1-0.3,0.1l-3,2.9l0.4-2.5c0-0.2,0-0.3-0.1-0.4c-0.1-0.1-0.2-0.1-0.4-0.1h-1.6
	c-0.2,0-0.5-0.2-0.5-0.5v-6.6c0-0.2,0.2-0.5,0.5-0.5H50c0.2,0,0.5,0.2,0.5,0.5L50.3,156.1L50.3,156.1z"/>
<path class="st15" d="M29.2,201c-0.2,0-0.5,0.1-0.8,0.2c0.3,0.4,0.5,0.8,0.5,1.4v0.6h2.5c0.4,0,0.7-0.3,0.7-0.7
	c0-0.9-0.7-1.6-1.6-1.6h-0.1c-0.1,0-0.2,0-0.2,0c-0.1,0-0.2,0-0.4,0C29.7,201.1,29.5,201.1,29.2,201L29.2,201z"/>
<path class="st15" d="M29.9,197.9c-0.8,0-1.4,0.6-1.4,1.4c0,0.8,0.6,1.4,1.4,1.4c0.8,0,1.4-0.6,1.4-1.4
	C31.3,198.5,30.7,197.9,29.9,197.9z"/>
<path class="st15" d="M24.6,201.5h-0.2c-0.9,0-1.6,0.7-1.6,1.7v0.4c0,0.4,0.3,0.7,0.7,0.7h4.1c0.4,0,0.7-0.3,0.7-0.7v-0.4
	c0-0.9-0.8-1.7-1.7-1.7h-0.2c-0.3,0.1-0.6,0.2-1,0.2C25.2,201.7,24.9,201.6,24.6,201.5z"/>
<path class="st15" d="M25.6,197.9c-0.9,0-1.6,0.7-1.6,1.6c0,0.8,0.7,1.6,1.6,1.6c0.9,0,1.6-0.7,1.6-1.6
	C27.1,198.6,26.5,197.9,25.6,197.9z"/>
<path class="st15" d="M26.4,210.8h-4c-0.3,0-0.5-0.2-0.5-0.5s0.2-0.5,0.5-0.5h4c0.2,0,0.5,0.2,0.5,0.5S26.6,210.8,26.4,210.8z"/>
<path class="st15" d="M32.3,213H33c0.2,0,0.5-0.2,0.5-0.5c0-0.2-0.2-0.5-0.5-0.5h-0.6c-0.2,0-0.5,0.2-0.5,0.5
	C32,212.7,32.1,213,32.3,213z"/>
<path class="st15" d="M24,213h-1.6c-0.2,0-0.5-0.2-0.5-0.5c0-0.2,0.2-0.5,0.5-0.5H24c0.3,0,0.5,0.2,0.5,0.5
	C24.4,212.7,24.2,213,24,213z"/>
<path class="st15" d="M29.7,213H31c0.2,0,0.5-0.2,0.5-0.5c0-0.2-0.2-0.5-0.5-0.5h-1.3c-0.2,0-0.5,0.2-0.5,0.5
	C29.3,212.7,29.4,213,29.7,213z"/>
<path class="st15" d="M25.3,213c-0.2,0-0.5-0.2-0.5-0.5c0-0.2,0.2-0.5,0.5-0.5h2.8c0.2,0,0.5,0.2,0.5,0.5c0,0.2-0.2,0.5-0.5,0.5
	H25.3z"/>
<path class="st15" d="M23.1,213.6h-0.7c-0.2,0-0.5,0.2-0.5,0.5c0,0.2,0.2,0.5,0.5,0.5H23c0.2,0,0.5-0.2,0.5-0.5
	C23.5,213.8,23.3,213.6,23.1,213.6z"/>
<path class="st15" d="M31.4,213.6H33c0.2,0,0.5,0.2,0.5,0.5c0,0.2-0.2,0.5-0.5,0.5h-1.6c-0.2,0-0.5-0.2-0.5-0.5
	C31,213.8,31.2,213.6,31.4,213.6z"/>
<path class="st15" d="M25.7,213.6h-1.3c-0.2,0-0.5,0.2-0.5,0.5c0,0.2,0.2,0.5,0.5,0.5h1.3c0.2,0,0.5-0.2,0.5-0.5
	C26.2,213.8,26,213.6,25.7,213.6z"/>
<path class="st15" d="M27.1,213.6H30c0.3,0,0.5,0.2,0.5,0.5c0,0.2-0.2,0.5-0.5,0.5h-2.9c-0.2,0-0.5-0.2-0.5-0.5
	C26.7,213.8,26.9,213.6,27.1,213.6z"/>
<path class="st15" d="M32.8,211.1c0.1,0.1,0.2,0.1,0.2,0l0.8-0.8c0.2-0.2,0.2-0.6,0-0.8c-0.2-0.2-0.5-0.2-0.7,0.1l-0.1,0.1l-0.2-0.1
	c-0.2-0.2-0.5-0.2-0.7-0.1c-0.2,0.2-0.2,0.6-0.1,0.8L32.8,211.1z"/>
<path class="st16" d="M33.4,190H22.3c-1.1,0-2,0.9-2,2V216c0,1.1,0.9,2,2,2h11.1c1.1,0,2-0.9,2-2V192C35.4,190.9,34.5,190,33.4,190z
	 M22.2,190.9c-0.6,0-1.1,0.5-1.1,1.1v23.9c0,0.6,0.5,1.1,1.1,1.1h11.1c0.6,0,1.1-0.5,1.1-1.1l0.1-22.2V192c0-0.6-0.5-1.1-1.1-1.1
	h-1.5c-0.1,0.9-0.8,1.6-1.7,1.6h-4.8c-0.9,0-1.6-0.8-1.7-1.6H22.2z"/>
<path class="st15" d="M41.4,193.5h-1.6c-0.2,0-0.5-0.2-0.5-0.5c0-0.2,0.2-0.5,0.5-0.5h1.6c0.2,0,0.5,0.2,0.5,0.5
	C41.9,193.2,41.7,193.5,41.4,193.5z"/>
<path class="st15" d="M48.4,192.6h-1.3c-0.2,0-0.5,0.2-0.5,0.5c0,0.2,0.2,0.5,0.5,0.5h1.3c0.2,0,0.5-0.2,0.5-0.5
	C48.9,192.8,48.7,192.6,48.4,192.6z"/>
<path class="st15" d="M45.7,193.5h-2.9c-0.3,0-0.5-0.2-0.5-0.5c0-0.2,0.2-0.5,0.5-0.5h2.9c0.2,0,0.5,0.2,0.5,0.5
	C46.2,193.2,46,193.5,45.7,193.5z"/>
<path class="st15" d="M40.5,194.1h-0.6c-0.2,0-0.5,0.2-0.5,0.5c0,0.2,0.2,0.5,0.5,0.5h0.6c0.2,0,0.5-0.2,0.5-0.5
	C41,194.3,40.8,194.1,40.5,194.1z"/>
<path class="st15" d="M41.9,194.1h1.3c0.3,0,0.5,0.2,0.5,0.5c0,0.2-0.2,0.5-0.5,0.5h-1.3c-0.2,0-0.5-0.2-0.5-0.5
	C41.4,194.3,41.7,194.1,41.9,194.1z"/>
<path class="st15" d="M47.5,194.1h-2.9c-0.2,0-0.5,0.2-0.5,0.5c0,0.2,0.2,0.5,0.5,0.5h2.9c0.2,0,0.5-0.2,0.5-0.5
	C47.9,194.3,47.8,194.1,47.5,194.1z"/>
<path class="st16" d="M38.1,190.2h11.7c0.8,0,1.4,0.6,1.4,1.4v6.6c0,0.8-0.6,1.4-1.4,1.4h-1.1l0.5,3.3c0.1,0.2-0.1,0.4-0.2,0.5
	c-0.1,0.1-0.2,0.1-0.2,0.1c-0.1,0-0.2-0.1-0.3-0.1l-3.9-3.7h-6.5c-0.8,0-1.4-0.6-1.4-1.4v-6.6C36.8,190.8,37.4,190.2,38.1,190.2z
	 M49.9,198.6c0.2,0,0.5-0.2,0.5-0.5v-6.6c0-0.2-0.2-0.5-0.4-0.5H38.2c-0.2,0-0.5,0.2-0.5,0.5v6.6c0,0.2,0.2,0.5,0.5,0.5h6.7
	c0.1,0,0.2,0.1,0.3,0.1l3,2.9l-0.4-2.5c-0.1-0.2,0-0.3,0.1-0.4c0.1-0.1,0.2-0.1,0.4-0.1H49.9z"/>
<path class="st15" d="M39.9,208.5h1.6c0.2,0,0.5,0.2,0.5,0.5s-0.2,0.5-0.5,0.5h-1.6c-0.2,0-0.5-0.2-0.5-0.5S39.6,208.5,39.9,208.5z"
	/>
<path class="st15" d="M48.4,208.5h-1.3c-0.2,0-0.5,0.2-0.5,0.5s0.2,0.5,0.5,0.5h1.3c0.2,0,0.5-0.2,0.5-0.5S48.7,208.5,48.4,208.5z"
	/>
<path class="st15" d="M42.9,208.5h2.9c0.2,0,0.5,0.2,0.5,0.5s-0.2,0.5-0.5,0.5h-2.9c-0.2,0-0.5-0.2-0.5-0.5S42.7,208.5,42.9,208.5z"
	/>
<path class="st15" d="M39.9,207.9h0.7c0.2,0,0.5-0.2,0.5-0.5c0-0.2-0.2-0.5-0.5-0.5h-0.6c-0.2,0-0.5,0.2-0.5,0.5
	C39.5,207.7,39.6,207.9,39.9,207.9z"/>
<path class="st15" d="M43.2,207.9h-1.3c-0.2,0-0.5-0.2-0.5-0.5c0-0.2,0.2-0.5,0.5-0.5h1.3c0.2,0,0.5,0.2,0.5,0.5
	C43.6,207.7,43.4,207.9,43.2,207.9z"/>
<path class="st15" d="M44.6,207.9h2.9c0.2,0,0.5-0.2,0.5-0.5c0-0.2-0.2-0.5-0.5-0.5h-2.9c-0.2,0-0.5,0.2-0.5,0.5
	C44.2,207.7,44.3,207.9,44.6,207.9z"/>
<path class="st16" d="M49.9,204.2H38.1c-0.8,0-1.4,0.6-1.4,1.4v6.6c0,0.8,0.6,1.4,1.4,1.4h1.1l-0.5,3.3c0,0.2,0.1,0.4,0.2,0.5
	c0,0,0.1,0,0.1,0c0,0,0.1,0,0.1,0c0.2,0,0.2-0.1,0.3-0.2l3.9-3.7H50c0.8,0,1.4-0.6,1.4-1.4v-6.6C51.2,204.8,50.6,204.2,49.9,204.2z
	 M50.3,212.1c0,0.2-0.2,0.5-0.5,0.5h-6.7c-0.2,0-0.2,0.1-0.3,0.1l-3,2.9l0.4-2.5c0-0.2,0-0.3-0.1-0.4c-0.1-0.1-0.2-0.1-0.4-0.1h-1.6
	c-0.2,0-0.5-0.2-0.5-0.5v-6.6c0-0.2,0.2-0.5,0.5-0.5H50c0.2,0,0.5,0.2,0.5,0.5L50.3,212.1L50.3,212.1z"/>
<radialGradient id="SVGID_10_" cx="-253.3571" cy="590.3067" r="1" gradientTransform="matrix(8.572528e-16 14 15.5431 -9.517404e-16 -9139.4326 3807)" gradientUnits="userSpaceOnUse">
	<stop  offset="0" style="stop-color:#434F58"/>
	<stop  offset="1" style="stop-color:#434F58;stop-opacity:0"/>
</radialGradient>
<path class="st17" d="M22.3,246h11.1c1.1,0,2,0.9,2,2V272c0,1.1-0.9,2-2,2H22.3c-1.1,0-2-0.9-2-2V248C20.2,246.9,21.1,246,22.3,246z
	"/>
<radialGradient id="SVGID_11_" cx="-253.3571" cy="590.3067" r="1" gradientTransform="matrix(8.572528e-16 14 15.5431 -9.517404e-16 -9139.4326 3807)" gradientUnits="userSpaceOnUse">
	<stop  offset="0" style="stop-color:#434F58"/>
	<stop  offset="1" style="stop-color:#434F58;stop-opacity:0"/>
</radialGradient>
<path class="st18" d="M49.9,246.2H38.1c-0.8,0-1.4,0.6-1.4,1.4v6.6c0,0.8,0.6,1.4,1.4,1.4h6.5l3.9,3.7c0.1,0.1,0.2,0.1,0.3,0.1
	c0.1,0,0.2,0,0.2-0.1c0.2-0.1,0.3-0.3,0.2-0.5l-0.5-3.3H50c0.8,0,1.4-0.6,1.4-1.4v-6.6C51.2,246.8,50.6,246.2,49.9,246.2z"/>
<radialGradient id="SVGID_12_" cx="-253.3571" cy="590.3067" r="1" gradientTransform="matrix(8.572528e-16 14 15.5431 -9.517404e-16 -9139.4326 3807)" gradientUnits="userSpaceOnUse">
	<stop  offset="0" style="stop-color:#434F58"/>
	<stop  offset="1" style="stop-color:#434F58;stop-opacity:0"/>
</radialGradient>
<path class="st19" d="M49.9,260.2H38.1c-0.8,0-1.4,0.6-1.4,1.4v6.6c0,0.8,0.6,1.4,1.4,1.4h1.1l-0.5,3.3c0,0.2,0.1,0.4,0.2,0.5
	c0,0,0.1,0,0.1,0c0,0,0.1,0,0.1,0c0.2,0,0.2-0.1,0.3-0.2l3.9-3.7H50c0.8,0,1.4-0.6,1.4-1.4v-6.6C51.2,260.8,50.6,260.2,49.9,260.2z"
	/>
<path class="st15" d="M29.2,257c-0.2,0-0.5,0.1-0.8,0.2c0.3,0.4,0.5,0.8,0.5,1.4v0.6h2.5c0.4,0,0.7-0.3,0.7-0.7
	c0-0.9-0.7-1.6-1.6-1.6h-0.1c-0.1,0-0.2,0-0.2,0c-0.1,0-0.2,0-0.4,0C29.7,257.1,29.5,257.1,29.2,257L29.2,257z"/>
<path class="st15" d="M29.9,253.9c-0.8,0-1.4,0.6-1.4,1.4c0,0.8,0.6,1.4,1.4,1.4c0.8,0,1.4-0.6,1.4-1.4
	C31.3,254.5,30.7,253.9,29.9,253.9z"/>
<path class="st15" d="M24.6,257.5h-0.2c-0.9,0-1.6,0.7-1.6,1.7v0.4c0,0.4,0.3,0.7,0.7,0.7h4.1c0.4,0,0.7-0.3,0.7-0.7v-0.4
	c0-0.9-0.8-1.7-1.7-1.7h-0.2c-0.3,0.1-0.6,0.2-1,0.2C25.2,257.7,24.9,257.6,24.6,257.5z"/>
<path class="st15" d="M25.6,253.9c-0.9,0-1.6,0.7-1.6,1.6c0,0.8,0.7,1.6,1.6,1.6c0.9,0,1.6-0.7,1.6-1.6
	C27.1,254.6,26.5,253.9,25.6,253.9z"/>
<path class="st15" d="M26.4,266.8h-4c-0.3,0-0.5-0.2-0.5-0.5c0-0.2,0.2-0.5,0.5-0.5h4c0.2,0,0.5,0.2,0.5,0.5
	C26.8,266.5,26.6,266.8,26.4,266.8z"/>
<path class="st15" d="M32.3,269H33c0.2,0,0.5-0.2,0.5-0.5c0-0.2-0.2-0.5-0.5-0.5h-0.6c-0.2,0-0.5,0.2-0.5,0.5
	C32,268.7,32.1,269,32.3,269z"/>
<path class="st15" d="M24,269h-1.6c-0.2,0-0.5-0.2-0.5-0.5c0-0.2,0.2-0.5,0.5-0.5H24c0.3,0,0.5,0.2,0.5,0.5
	C24.4,268.7,24.2,269,24,269z"/>
<path class="st15" d="M29.7,269H31c0.2,0,0.5-0.2,0.5-0.5c0-0.2-0.2-0.5-0.5-0.5h-1.3c-0.2,0-0.5,0.2-0.5,0.5
	C29.3,268.7,29.4,269,29.7,269z"/>
<path class="st15" d="M25.3,269c-0.2,0-0.5-0.2-0.5-0.5c0-0.2,0.2-0.5,0.5-0.5h2.8c0.2,0,0.5,0.2,0.5,0.5c0,0.2-0.2,0.5-0.5,0.5
	H25.3z"/>
<path class="st15" d="M23.1,269.6h-0.7c-0.2,0-0.5,0.2-0.5,0.5c0,0.2,0.2,0.5,0.5,0.5H23c0.2,0,0.5-0.2,0.5-0.5
	C23.5,269.8,23.3,269.6,23.1,269.6z"/>
<path class="st15" d="M31.4,269.6H33c0.2,0,0.5,0.2,0.5,0.5c0,0.2-0.2,0.5-0.5,0.5h-1.6c-0.2,0-0.5-0.2-0.5-0.5
	C31,269.8,31.2,269.6,31.4,269.6z"/>
<path class="st15" d="M25.7,269.6h-1.3c-0.2,0-0.5,0.2-0.5,0.5c0,0.2,0.2,0.5,0.5,0.5h1.3c0.2,0,0.5-0.2,0.5-0.5
	C26.2,269.8,26,269.6,25.7,269.6z"/>
<path class="st15" d="M27.1,269.6H30c0.3,0,0.5,0.2,0.5,0.5c0,0.2-0.2,0.5-0.5,0.5h-2.9c-0.2,0-0.5-0.2-0.5-0.5
	C26.7,269.8,26.9,269.6,27.1,269.6z"/>
<path class="st15" d="M32.8,267.1c0.1,0.1,0.2,0.1,0.2,0l0.8-0.8c0.2-0.2,0.2-0.6,0-0.8c-0.2-0.2-0.5-0.2-0.7,0.1l-0.1,0.1l-0.2-0.1
	c-0.2-0.2-0.5-0.2-0.7-0.1c-0.2,0.2-0.2,0.6-0.1,0.8L32.8,267.1z"/>
<path class="st16" d="M33.4,246H22.3c-1.1,0-2,0.9-2,2V272c0,1.1,0.9,2,2,2h11.1c1.1,0,2-0.9,2-2V248C35.4,246.9,34.5,246,33.4,246z
	 M22.2,246.9c-0.6,0-1.1,0.5-1.1,1.1v23.9c0,0.6,0.5,1.1,1.1,1.1h11.1c0.6,0,1.1-0.5,1.1-1.1l0.1-22.2V248c0-0.6-0.5-1.1-1.1-1.1
	h-1.5c-0.1,0.9-0.8,1.6-1.7,1.6h-4.8c-0.9,0-1.6-0.8-1.7-1.6H22.2z"/>
<path class="st15" d="M41.4,249.5h-1.6c-0.2,0-0.5-0.2-0.5-0.5c0-0.2,0.2-0.5,0.5-0.5h1.6c0.2,0,0.5,0.2,0.5,0.5
	C41.9,249.2,41.7,249.5,41.4,249.5z"/>
<path class="st15" d="M48.4,248.6h-1.3c-0.2,0-0.5,0.2-0.5,0.5c0,0.2,0.2,0.5,0.5,0.5h1.3c0.2,0,0.5-0.2,0.5-0.5
	C48.9,248.8,48.7,248.6,48.4,248.6z"/>
<path class="st15" d="M45.7,249.5h-2.9c-0.3,0-0.5-0.2-0.5-0.5c0-0.2,0.2-0.5,0.5-0.5h2.9c0.2,0,0.5,0.2,0.5,0.5
	C46.2,249.2,46,249.5,45.7,249.5z"/>
<path class="st15" d="M40.5,250.1h-0.6c-0.2,0-0.5,0.2-0.5,0.5c0,0.2,0.2,0.5,0.5,0.5h0.6c0.2,0,0.5-0.2,0.5-0.5
	C41,250.3,40.8,250.1,40.5,250.1z"/>
<path class="st15" d="M41.9,250.1h1.3c0.3,0,0.5,0.2,0.5,0.5c0,0.2-0.2,0.5-0.5,0.5h-1.3c-0.2,0-0.5-0.2-0.5-0.5
	C41.4,250.3,41.7,250.1,41.9,250.1z"/>
<path class="st15" d="M47.5,250.1h-2.9c-0.2,0-0.5,0.2-0.5,0.5c0,0.2,0.2,0.5,0.5,0.5h2.9c0.2,0,0.5-0.2,0.5-0.5
	C47.9,250.3,47.8,250.1,47.5,250.1z"/>
<path class="st16" d="M38.1,246.2h11.7c0.8,0,1.4,0.6,1.4,1.4v6.6c0,0.8-0.6,1.4-1.4,1.4h-1.1l0.5,3.3c0.1,0.1-0.1,0.4-0.2,0.5
	c-0.1,0.1-0.2,0.1-0.2,0.1c-0.1,0-0.2-0.1-0.3-0.1l-3.9-3.7h-6.5c-0.8,0-1.4-0.6-1.4-1.4v-6.6C36.8,246.8,37.4,246.2,38.1,246.2z
	 M49.9,254.6c0.2,0,0.5-0.2,0.5-0.5v-6.6c0-0.2-0.2-0.5-0.4-0.5H38.2c-0.2,0-0.5,0.2-0.5,0.5v6.6c0,0.2,0.2,0.5,0.5,0.5h6.7
	c0.1,0,0.2,0.1,0.3,0.1l3,2.9l-0.4-2.5c-0.1-0.2,0-0.3,0.1-0.4c0.1-0.1,0.2-0.1,0.4-0.1H49.9z"/>
<path class="st15" d="M39.9,264.5h1.6c0.2,0,0.5,0.2,0.5,0.5c0,0.2-0.2,0.5-0.5,0.5h-1.6c-0.2,0-0.5-0.2-0.5-0.5
	C39.4,264.7,39.6,264.5,39.9,264.5z"/>
<path class="st15" d="M48.4,264.5h-1.3c-0.2,0-0.5,0.2-0.5,0.5c0,0.2,0.2,0.5,0.5,0.5h1.3c0.2,0,0.5-0.2,0.5-0.5
	C48.9,264.7,48.7,264.5,48.4,264.5z"/>
<path class="st15" d="M42.9,264.5h2.9c0.2,0,0.5,0.2,0.5,0.5c0,0.2-0.2,0.5-0.5,0.5h-2.9c-0.2,0-0.5-0.2-0.5-0.5
	C42.4,264.7,42.7,264.5,42.9,264.5z"/>
<path class="st15" d="M39.9,263.9h0.7c0.2,0,0.5-0.2,0.5-0.5c0-0.2-0.2-0.5-0.5-0.5h-0.6c-0.2,0-0.5,0.2-0.5,0.5
	C39.5,263.7,39.6,263.9,39.9,263.9z"/>
<path class="st15" d="M43.2,263.9h-1.3c-0.2,0-0.5-0.2-0.5-0.5c0-0.2,0.2-0.5,0.5-0.5h1.3c0.2,0,0.5,0.2,0.5,0.5
	C43.6,263.7,43.4,263.9,43.2,263.9z"/>
<path class="st15" d="M44.6,263.9h2.9c0.2,0,0.5-0.2,0.5-0.5c0-0.2-0.2-0.5-0.5-0.5h-2.9c-0.2,0-0.5,0.2-0.5,0.5
	C44.2,263.7,44.3,263.9,44.6,263.9z"/>
<path class="st16" d="M49.9,260.2H38.1c-0.8,0-1.4,0.6-1.4,1.4v6.6c0,0.8,0.6,1.4,1.4,1.4h1.1l-0.5,3.3c0,0.2,0.1,0.4,0.2,0.5
	c0,0,0.1,0,0.1,0c0,0,0.1,0,0.1,0c0.2,0,0.2-0.1,0.3-0.2l3.9-3.7H50c0.8,0,1.4-0.6,1.4-1.4v-6.6C51.2,260.8,50.6,260.2,49.9,260.2z
	 M50.3,268.1c0,0.2-0.2,0.5-0.5,0.5h-6.7c-0.2,0-0.2,0.1-0.3,0.1l-3,2.9l0.4-2.5c0-0.2,0-0.3-0.1-0.4c-0.1-0.1-0.2-0.1-0.4-0.1h-1.6
	c-0.2,0-0.5-0.2-0.5-0.5v-6.6c0-0.2,0.2-0.5,0.5-0.5H50c0.2,0,0.5,0.2,0.5,0.5L50.3,268.1L50.3,268.1z"/>
<radialGradient id="SVGID_13_" cx="-253.3571" cy="590.3067" r="1" gradientTransform="matrix(8.572528e-16 14 15.5431 -9.517404e-16 -9139.4326 3863)" gradientUnits="userSpaceOnUse">
	<stop  offset="0" style="stop-color:#677983"/>
	<stop  offset="1" style="stop-color:#677983;stop-opacity:0"/>
</radialGradient>
<path class="st20" d="M22.3,302h11.1c1.1,0,2,0.9,2,2V328c0,1.1-0.9,2-2,2H22.3c-1.1,0-2-0.9-2-2V304C20.2,302.9,21.1,302,22.3,302z
	"/>
<radialGradient id="SVGID_14_" cx="-253.3571" cy="590.3067" r="1" gradientTransform="matrix(8.572528e-16 14 15.5431 -9.517404e-16 -9139.4326 3863)" gradientUnits="userSpaceOnUse">
	<stop  offset="0" style="stop-color:#677983"/>
	<stop  offset="1" style="stop-color:#677983;stop-opacity:0"/>
</radialGradient>
<path class="st21" d="M49.9,302.2H38.1c-0.8,0-1.4,0.6-1.4,1.4v6.6c0,0.8,0.6,1.4,1.4,1.4h6.5l3.9,3.7c0.1,0.1,0.2,0.1,0.3,0.1
	c0.1,0,0.2,0,0.2-0.1c0.2-0.1,0.3-0.3,0.2-0.5l-0.5-3.3H50c0.8,0,1.4-0.6,1.4-1.4v-6.6C51.2,302.8,50.6,302.2,49.9,302.2z"/>
<radialGradient id="SVGID_15_" cx="-253.3571" cy="590.3067" r="1" gradientTransform="matrix(8.572528e-16 14 15.5431 -9.517404e-16 -9139.4326 3863)" gradientUnits="userSpaceOnUse">
	<stop  offset="0" style="stop-color:#677983"/>
	<stop  offset="1" style="stop-color:#677983;stop-opacity:0"/>
</radialGradient>
<path class="st22" d="M49.9,316.2H38.1c-0.8,0-1.4,0.6-1.4,1.4v6.6c0,0.8,0.6,1.4,1.4,1.4h1.1l-0.5,3.3c0,0.2,0.1,0.4,0.2,0.5
	c0,0,0.1,0,0.1,0c0,0,0.1,0,0.1,0c0.2,0,0.2-0.1,0.3-0.2l3.9-3.7H50c0.8,0,1.4-0.6,1.4-1.4v-6.6C51.2,316.8,50.6,316.2,49.9,316.2z"
	/>
<path class="st23" d="M29.2,313c-0.2,0-0.5,0.1-0.8,0.2c0.3,0.4,0.5,0.8,0.5,1.4v0.6h2.5c0.4,0,0.7-0.3,0.7-0.7
	c0-0.9-0.7-1.6-1.6-1.6h-0.1c-0.1,0-0.2,0-0.2,0c-0.1,0-0.2,0-0.4,0C29.7,313.1,29.5,313.1,29.2,313L29.2,313z"/>
<path class="st23" d="M29.9,309.9c-0.8,0-1.4,0.6-1.4,1.4c0,0.8,0.6,1.4,1.4,1.4c0.8,0,1.4-0.6,1.4-1.4
	C31.3,310.5,30.7,309.9,29.9,309.9z"/>
<path class="st23" d="M24.6,313.5h-0.2c-0.9,0-1.6,0.7-1.6,1.7v0.4c0,0.4,0.3,0.7,0.7,0.7h4.1c0.4,0,0.7-0.3,0.7-0.7v-0.4
	c0-0.9-0.8-1.7-1.7-1.7h-0.2c-0.3,0.1-0.6,0.2-1,0.2C25.2,313.7,24.9,313.6,24.6,313.5z"/>
<path class="st23" d="M25.6,309.9c-0.9,0-1.6,0.7-1.6,1.6c0,0.8,0.7,1.6,1.6,1.6c0.9,0,1.6-0.7,1.6-1.6
	C27.1,310.6,26.5,309.9,25.6,309.9z"/>
<path class="st23" d="M26.4,322.8h-4c-0.3,0-0.5-0.2-0.5-0.5c0-0.2,0.2-0.5,0.5-0.5h4c0.2,0,0.5,0.2,0.5,0.5
	C26.8,322.5,26.6,322.8,26.4,322.8z"/>
<path class="st23" d="M32.3,325H33c0.2,0,0.5-0.2,0.5-0.5c0-0.2-0.2-0.5-0.5-0.5h-0.6c-0.2,0-0.5,0.2-0.5,0.5
	C32,324.7,32.1,325,32.3,325z"/>
<path class="st23" d="M24,325h-1.6c-0.2,0-0.5-0.2-0.5-0.5c0-0.2,0.2-0.5,0.5-0.5H24c0.3,0,0.5,0.2,0.5,0.5
	C24.4,324.7,24.2,325,24,325z"/>
<path class="st23" d="M29.7,325H31c0.2,0,0.5-0.2,0.5-0.5c0-0.2-0.2-0.5-0.5-0.5h-1.3c-0.2,0-0.5,0.2-0.5,0.5
	C29.3,324.7,29.4,325,29.7,325z"/>
<path class="st23" d="M25.3,325c-0.2,0-0.5-0.2-0.5-0.5c0-0.2,0.2-0.5,0.5-0.5h2.8c0.2,0,0.5,0.2,0.5,0.5c0,0.2-0.2,0.5-0.5,0.5
	H25.3z"/>
<path class="st23" d="M23.1,325.6h-0.7c-0.2,0-0.5,0.2-0.5,0.5c0,0.2,0.2,0.5,0.5,0.5H23c0.2,0,0.5-0.2,0.5-0.5
	C23.5,325.8,23.3,325.6,23.1,325.6z"/>
<path class="st23" d="M31.4,325.6H33c0.2,0,0.5,0.2,0.5,0.5c0,0.2-0.2,0.5-0.5,0.5h-1.6c-0.2,0-0.5-0.2-0.5-0.5
	C31,325.8,31.2,325.6,31.4,325.6z"/>
<path class="st23" d="M25.7,325.6h-1.3c-0.2,0-0.5,0.2-0.5,0.5c0,0.2,0.2,0.5,0.5,0.5h1.3c0.2,0,0.5-0.2,0.5-0.5
	C26.2,325.8,26,325.6,25.7,325.6z"/>
<path class="st23" d="M27.1,325.6H30c0.3,0,0.5,0.2,0.5,0.5c0,0.2-0.2,0.5-0.5,0.5h-2.9c-0.2,0-0.5-0.2-0.5-0.5
	C26.7,325.8,26.9,325.6,27.1,325.6z"/>
<path class="st23" d="M32.8,323.1c0.1,0.1,0.2,0.1,0.2,0l0.8-0.8c0.2-0.2,0.2-0.6,0-0.8c-0.2-0.2-0.5-0.2-0.7,0.1l-0.1,0.1l-0.2-0.1
	c-0.2-0.2-0.5-0.2-0.7-0.1c-0.2,0.2-0.2,0.6-0.1,0.8L32.8,323.1z"/>
<path class="st24" d="M33.4,302H22.3c-1.1,0-2,0.9-2,2V328c0,1.1,0.9,2,2,2h11.1c1.1,0,2-0.9,2-2V304C35.4,302.9,34.5,302,33.4,302z
	 M22.2,302.9c-0.6,0-1.1,0.5-1.1,1.1v23.9c0,0.6,0.5,1.1,1.1,1.1h11.1c0.6,0,1.1-0.5,1.1-1.1l0.1-22.2V304c0-0.6-0.5-1.1-1.1-1.1
	h-1.5c-0.1,0.9-0.8,1.6-1.7,1.6h-4.8c-0.9,0-1.6-0.8-1.7-1.6H22.2z"/>
<path class="st23" d="M41.4,305.5h-1.6c-0.2,0-0.5-0.2-0.5-0.5c0-0.2,0.2-0.5,0.5-0.5h1.6c0.2,0,0.5,0.2,0.5,0.5
	C41.9,305.2,41.7,305.5,41.4,305.5z"/>
<path class="st23" d="M48.4,304.6h-1.3c-0.2,0-0.5,0.2-0.5,0.5c0,0.2,0.2,0.5,0.5,0.5h1.3c0.2,0,0.5-0.2,0.5-0.5
	C48.9,304.8,48.7,304.6,48.4,304.6z"/>
<path class="st23" d="M45.7,305.5h-2.9c-0.3,0-0.5-0.2-0.5-0.5c0-0.2,0.2-0.5,0.5-0.5h2.9c0.2,0,0.5,0.2,0.5,0.5
	C46.2,305.2,46,305.5,45.7,305.5z"/>
<path class="st23" d="M40.5,306.1h-0.6c-0.2,0-0.5,0.2-0.5,0.5c0,0.2,0.2,0.5,0.5,0.5h0.6c0.2,0,0.5-0.2,0.5-0.5
	C41,306.3,40.8,306.1,40.5,306.1z"/>
<path class="st23" d="M41.9,306.1h1.3c0.3,0,0.5,0.2,0.5,0.5c0,0.2-0.2,0.5-0.5,0.5h-1.3c-0.2,0-0.5-0.2-0.5-0.5
	C41.4,306.3,41.7,306.1,41.9,306.1z"/>
<path class="st23" d="M47.5,306.1h-2.9c-0.2,0-0.5,0.2-0.5,0.5c0,0.2,0.2,0.5,0.5,0.5h2.9c0.2,0,0.5-0.2,0.5-0.5
	C47.9,306.3,47.8,306.1,47.5,306.1z"/>
<path class="st24" d="M38.1,302.2h11.7c0.8,0,1.4,0.6,1.4,1.4v6.6c0,0.8-0.6,1.4-1.4,1.4h-1.1l0.5,3.3c0.1,0.1-0.1,0.4-0.2,0.5
	c-0.1,0.1-0.2,0.1-0.2,0.1c-0.1,0-0.2-0.1-0.3-0.1l-3.9-3.7h-6.5c-0.8,0-1.4-0.6-1.4-1.4v-6.6C36.8,302.8,37.4,302.2,38.1,302.2z
	 M49.9,310.6c0.2,0,0.5-0.2,0.5-0.5v-6.6c0-0.2-0.2-0.5-0.4-0.5H38.2c-0.2,0-0.5,0.2-0.5,0.5v6.6c0,0.2,0.2,0.5,0.5,0.5h6.7
	c0.1,0,0.2,0.1,0.3,0.1l3,2.9l-0.4-2.5c-0.1-0.1,0-0.3,0.1-0.4c0.1-0.1,0.2-0.1,0.4-0.1H49.9z"/>
<path class="st23" d="M39.9,320.5h1.6c0.2,0,0.5,0.2,0.5,0.5c0,0.2-0.2,0.5-0.5,0.5h-1.6c-0.2,0-0.5-0.2-0.5-0.5
	C39.4,320.7,39.6,320.5,39.9,320.5z"/>
<path class="st23" d="M48.4,320.5h-1.3c-0.2,0-0.5,0.2-0.5,0.5c0,0.2,0.2,0.5,0.5,0.5h1.3c0.2,0,0.5-0.2,0.5-0.5
	C48.9,320.7,48.7,320.5,48.4,320.5z"/>
<path class="st23" d="M42.9,320.5h2.9c0.2,0,0.5,0.2,0.5,0.5c0,0.2-0.2,0.5-0.5,0.5h-2.9c-0.2,0-0.5-0.2-0.5-0.5
	C42.4,320.7,42.7,320.5,42.9,320.5z"/>
<path class="st23" d="M39.9,319.9h0.7c0.2,0,0.5-0.2,0.5-0.5c0-0.2-0.2-0.5-0.5-0.5h-0.6c-0.2,0-0.5,0.2-0.5,0.5
	C39.5,319.7,39.6,319.9,39.9,319.9z"/>
<path class="st23" d="M43.2,319.9h-1.3c-0.2,0-0.5-0.2-0.5-0.5c0-0.2,0.2-0.5,0.5-0.5h1.3c0.2,0,0.5,0.2,0.5,0.5
	C43.6,319.7,43.4,319.9,43.2,319.9z"/>
<path class="st23" d="M44.6,319.9h2.9c0.2,0,0.5-0.2,0.5-0.5c0-0.2-0.2-0.5-0.5-0.5h-2.9c-0.2,0-0.5,0.2-0.5,0.5
	C44.2,319.7,44.3,319.9,44.6,319.9z"/>
<path class="st24" d="M49.9,316.2H38.1c-0.8,0-1.4,0.6-1.4,1.4v6.6c0,0.8,0.6,1.4,1.4,1.4h1.1l-0.5,3.3c0,0.2,0.1,0.4,0.2,0.5
	c0,0,0.1,0,0.1,0c0,0,0.1,0,0.1,0c0.2,0,0.2-0.1,0.3-0.2l3.9-3.7H50c0.8,0,1.4-0.6,1.4-1.4v-6.6C51.2,316.8,50.6,316.2,49.9,316.2z
	 M50.3,324.1c0,0.2-0.2,0.5-0.5,0.5h-6.7c-0.2,0-0.2,0.1-0.3,0.1l-3,2.9l0.4-2.5c0-0.2,0-0.3-0.1-0.4c-0.1-0.1-0.2-0.1-0.4-0.1h-1.6
	c-0.2,0-0.5-0.2-0.5-0.5v-6.6c0-0.2,0.2-0.5,0.5-0.5H50c0.2,0,0.5,0.2,0.5,0.5L50.3,324.1L50.3,324.1z"/>
</svg>
