<?xml version="1.0" encoding="utf-8"?>
<!-- Generator: Adobe Illustrator 25.2.1, SVG Export Plug-In . SVG Version: 6.00 Build 0)  -->
<svg version="1.1" id="Layer_1" xmlns="http://www.w3.org/2000/svg" xmlns:xlink="http://www.w3.org/1999/xlink" x="0px" y="0px"
	 viewBox="0 0 72 352" style="enable-background:new 0 0 72 352;" xml:space="preserve">
<style type="text/css">
	.st0{fill-rule:evenodd;clip-rule:evenodd;fill:url(#SVGID_1_);fill-opacity:0.25;}
	.st1{fill-rule:evenodd;clip-rule:evenodd;fill:url(#SVGID_2_);fill-opacity:0.25;}
	.st2{fill-rule:evenodd;clip-rule:evenodd;fill:#0073EC;}
	.st3{fill:#0073EC;}
	.st4{fill-rule:evenodd;clip-rule:evenodd;fill:url(#SVGID_3_);fill-opacity:0.25;}
	.st5{fill-rule:evenodd;clip-rule:evenodd;fill:url(#SVGID_4_);fill-opacity:0.25;}
	.st6{fill-rule:evenodd;clip-rule:evenodd;fill:#A644E5;}
	.st7{fill:#A644E5;}
	.st8{fill-rule:evenodd;clip-rule:evenodd;fill:url(#SVGID_5_);fill-opacity:0.25;}
	.st9{fill-rule:evenodd;clip-rule:evenodd;fill:url(#SVGID_6_);fill-opacity:0.25;}
	.st10{fill-rule:evenodd;clip-rule:evenodd;fill:#00CAAA;}
	.st11{fill:#00CAAA;}
	.st12{fill-rule:evenodd;clip-rule:evenodd;fill:#434F58;}
	.st13{fill:#434F58;}
	.st14{fill-rule:evenodd;clip-rule:evenodd;fill:url(#SVGID_7_);fill-opacity:0.25;}
	.st15{fill-rule:evenodd;clip-rule:evenodd;fill:url(#SVGID_8_);fill-opacity:0.25;}
	.st16{fill-rule:evenodd;clip-rule:evenodd;fill:url(#SVGID_9_);fill-opacity:0.25;}
	.st17{fill-rule:evenodd;clip-rule:evenodd;fill:url(#SVGID_10_);fill-opacity:0.25;}
	.st18{fill-rule:evenodd;clip-rule:evenodd;fill:#677983;}
	.st19{fill:#677983;}
</style>
<radialGradient id="SVGID_1_" cx="-251.6312" cy="590.9955" r="1" gradientTransform="matrix(7.720663e-16 12.6088 14.9482 -9.153133e-16 -8798.3701 3208.376)" gradientUnits="userSpaceOnUse">
	<stop  offset="0" style="stop-color:#0073EC"/>
	<stop  offset="1" style="stop-color:#0073EC;stop-opacity:0"/>
</radialGradient>
<path class="st0" d="M27,23.4c0.2-0.2,0.5-0.4,0.9-0.4h18.5c0.3,0,0.6,0.1,0.9,0.4c0.2,0.2,0.4,0.5,0.4,0.9v1.4
	c0,0.3-0.1,0.6-0.4,0.9c-0.2,0.2-0.5,0.4-0.9,0.4H39v1.9C44.6,29,49,33.5,49,39.1c0,0.5-0.2,1-0.6,1.4c-0.4,0.4-0.8,0.6-1.4,0.6H35
	c-0.3,0-0.6-0.1-0.9-0.2c-0.3-0.1-0.5-0.3-0.7-0.6l-1-1.3c0,0-0.1-0.1-0.1-0.1l-1.6-2.2c-0.1,0-0.2-0.1-0.2-0.2l-0.9-1.2l-7.2-2.9
	l-1.5-5l0,0c0-0.2,0-0.4,0-0.5c0-0.2,0.1-0.3,0.2-0.5c0.1-0.1,0.3-0.3,0.4-0.3c0.2-0.1,0.3-0.1,0.5-0.1H24c0.2,0,0.4,0,0.5,0.1
	c0.2,0.1,0.3,0.2,0.4,0.4l1.8,2.4h8.5v-1.8h-7.3c-0.3,0-0.6-0.1-0.9-0.4s-0.4-0.5-0.4-0.9v-1.4C26.7,23.9,26.8,23.6,27,23.4z"/>
<radialGradient id="SVGID_2_" cx="-251.6312" cy="590.9955" r="1" gradientTransform="matrix(7.720663e-16 12.6088 14.9482 -9.153133e-16 -8798.3701 3208.376)" gradientUnits="userSpaceOnUse">
	<stop  offset="0" style="stop-color:#0073EC"/>
	<stop  offset="1" style="stop-color:#0073EC;stop-opacity:0"/>
</radialGradient>
<path class="st1" d="M50.4,44.2c0.2,0.2,0.3,0.4,0.4,0.6c0.1,0.2,0.1,0.5,0.1,0.7s-0.1,0.5-0.2,0.7c-0.1,0.2-0.2,0.4-0.4,0.6
	c-0.8,0.7-1.5,1.1-2.2,1.3c-0.7,0.2-1.2,0.2-1.5,0.2H32.1c-0.5,0-0.9-0.2-1.2-0.5c-0.3-0.3-0.5-0.8-0.5-1.2v-1.4
	c0-0.5,0.2-0.9,0.5-1.2c0.3-0.3,0.8-0.5,1.2-0.5h14.5c0.1,0,0.1,0,0.2,0c0,0,0.1-0.1,0.2-0.2c0.3-0.3,0.7-0.5,1.2-0.5
	c0.5,0,0.9,0.2,1.2,0.5l0,0L50.4,44.2z"/>
<path class="st2" d="M27,23.4c0.2-0.2,0.5-0.4,0.9-0.4h18.5c0.3,0,0.6,0.1,0.9,0.4c0.2,0.2,0.4,0.5,0.4,0.9v1.4
	c0,0.3-0.1,0.6-0.4,0.9c-0.2,0.2-0.5,0.4-0.9,0.4H39v1.9C44.6,29,49,33.5,49,39.1c0,0.5-0.2,1-0.6,1.4c-0.4,0.4-0.8,0.6-1.4,0.6H35
	c-0.3,0-0.6-0.1-0.9-0.2c-0.3-0.1-0.5-0.3-0.7-0.6l-1-1.3c-0.2-0.2-0.1-0.5,0.1-0.7c0.2-0.2,0.5-0.1,0.7,0.1l1,1.3
	c0.1,0.1,0.2,0.2,0.3,0.3C34.7,40,34.8,40,35,40h12.1c0.2,0,0.5-0.1,0.7-0.3c0.2-0.2,0.3-0.4,0.3-0.7c0-5.2-4.2-9.4-9.4-9.4H26.2
	l-2.1-2.8c0,0,0,0-0.1-0.1c0,0-0.1,0-0.1,0h-1.8c0,0-0.1,0-0.1,0c0,0-0.1,0-0.1,0.1c0,0,0,0.1,0,0.1c0,0,0,0.1,0,0.1l1.3,4.6l7,2.8
	l1,1.4c0.2,0.2,0.1,0.5-0.1,0.7c-0.2,0.2-0.5,0.1-0.7-0.1l-0.9-1.2l-7.2-2.9l-1.5-5l0,0c0-0.2,0-0.4,0-0.5c0-0.2,0.1-0.3,0.2-0.5
	c0.1-0.1,0.3-0.3,0.4-0.3c0.2-0.1,0.3-0.1,0.5-0.1H24c0.2,0,0.4,0,0.5,0.1c0.2,0.1,0.3,0.2,0.4,0.4l1.8,2.4h8.5v-1.8h-7.3
	c-0.3,0-0.6-0.1-0.9-0.4s-0.4-0.5-0.4-0.9v-1.4C26.7,23.9,26.8,23.6,27,23.4z M36.2,28.7H38v-2.8h8.3c0.1,0,0.1,0,0.1-0.1
	c0,0,0.1-0.1,0.1-0.1v-1.4c0-0.1,0-0.1-0.1-0.1c0,0-0.1-0.1-0.1-0.1H27.9c-0.1,0-0.1,0-0.1,0.1c0,0-0.1,0.1-0.1,0.1v1.4
	c0,0.1,0,0.1,0.1,0.1c0,0,0.1,0.1,0.1,0.1h8.3V28.7z"/>
<path class="st2" d="M50.4,44.2c0.2,0.2,0.3,0.4,0.4,0.6c0.1,0.2,0.1,0.5,0.1,0.7s-0.1,0.5-0.2,0.7c-0.1,0.2-0.2,0.4-0.4,0.6
	c-0.8,0.7-1.5,1.1-2.2,1.3c-0.7,0.2-1.2,0.2-1.5,0.2H32.1c-0.5,0-0.9-0.2-1.2-0.5c-0.3-0.3-0.5-0.8-0.5-1.2v-1.4
	c0-0.5,0.2-0.9,0.5-1.2c0.3-0.3,0.8-0.5,1.2-0.5h14.5c0.1,0,0.1,0,0.2,0c0,0,0.1-0.1,0.2-0.2c0.3-0.3,0.7-0.5,1.2-0.5
	c0.5,0,0.9,0.2,1.2,0.5l0,0L50.4,44.2z M49.6,45.9c0.1-0.1,0.1-0.1,0.2-0.2c0-0.1,0.1-0.2,0.1-0.3c0-0.1,0-0.2,0-0.3
	c0-0.1-0.1-0.2-0.2-0.2l-1-1c-0.1-0.1-0.3-0.2-0.5-0.2c-0.2,0-0.4,0.1-0.5,0.2c-0.3,0.3-0.6,0.5-1.1,0.5H32.1
	c-0.2,0-0.4,0.1-0.5,0.2c-0.1,0.1-0.2,0.3-0.2,0.5v1.4c0,0.2,0.1,0.4,0.2,0.5c0.1,0.1,0.3,0.2,0.5,0.2h14.5
	C47.3,47.2,48.2,47.2,49.6,45.9z"/>
<path class="st3" d="M26.5,37c-0.3,0-0.5,0.2-0.5,0.5s0.2,0.5,0.5,0.5h6c0.3,0,0.5-0.2,0.5-0.5S32.8,37,32.5,37H26.5z"/>
<path class="st3" d="M24,40.5c0-0.3,0.2-0.5,0.5-0.5h6c0.3,0,0.5,0.2,0.5,0.5S30.8,41,30.5,41h-6C24.2,41,24,40.8,24,40.5z"/>
<path class="st2" d="M39,30.9v7.7h7.8l-0.2-1.2c-0.6-3.2-3.2-5.7-6.3-6.3L39,30.9z M40,32.2v5.5h5.5c-0.1-0.3-0.2-0.7-0.3-1
	c-0.7-2-2.3-3.5-4.3-4.2C40.6,32.3,40.3,32.2,40,32.2z"/>
<g>
	
		<radialGradient id="SVGID_3_" cx="-251.6312" cy="590.9955" r="1" gradientTransform="matrix(7.720663e-16 12.6088 14.9482 -9.153133e-16 -8798.3701 3264.376)" gradientUnits="userSpaceOnUse">
		<stop  offset="0" style="stop-color:#A644E5"/>
		<stop  offset="1" style="stop-color:#A644E5;stop-opacity:0"/>
	</radialGradient>
	<path class="st4" d="M27,79.4c0.2-0.2,0.5-0.4,0.9-0.4h18.5c0.3,0,0.6,0.1,0.9,0.4c0.2,0.2,0.4,0.5,0.4,0.9v1.4
		c0,0.3-0.1,0.6-0.4,0.9c-0.2,0.2-0.5,0.4-0.9,0.4H39v1.9C44.6,85,49,89.5,49,95.1c0,0.5-0.2,1-0.6,1.4c-0.4,0.4-0.8,0.6-1.4,0.6H35
		c-0.3,0-0.6-0.1-0.9-0.2c-0.3-0.1-0.5-0.3-0.7-0.6l-1-1.3c0,0-0.1-0.1-0.1-0.1l-1.6-2.2c-0.1,0-0.2-0.1-0.2-0.2l-0.9-1.2l-7.2-2.9
		l-1.5-5l0,0c0-0.2,0-0.4,0-0.5c0-0.2,0.1-0.3,0.2-0.5c0.1-0.1,0.3-0.3,0.4-0.3c0.2-0.1,0.3-0.1,0.5-0.1H24c0.2,0,0.4,0,0.5,0.1
		c0.2,0.1,0.3,0.2,0.4,0.4l1.8,2.4h8.5v-1.8h-7.3c-0.3,0-0.6-0.1-0.9-0.4s-0.4-0.5-0.4-0.9v-1.4C26.7,79.9,26.8,79.6,27,79.4z"/>
	
		<radialGradient id="SVGID_4_" cx="-251.6312" cy="590.9955" r="1" gradientTransform="matrix(7.720663e-16 12.6088 14.9482 -9.153133e-16 -8798.3701 3264.376)" gradientUnits="userSpaceOnUse">
		<stop  offset="0" style="stop-color:#A644E5"/>
		<stop  offset="1" style="stop-color:#A644E5;stop-opacity:0"/>
	</radialGradient>
	<path class="st5" d="M50.4,100.2c0.2,0.2,0.3,0.4,0.4,0.6c0.1,0.2,0.1,0.5,0.1,0.7c0,0.2-0.1,0.5-0.2,0.7c-0.1,0.2-0.2,0.4-0.4,0.6
		c-0.8,0.7-1.5,1.1-2.2,1.3c-0.7,0.2-1.2,0.2-1.5,0.2H32.1c-0.5,0-0.9-0.2-1.2-0.5c-0.3-0.3-0.5-0.8-0.5-1.2v-1.4
		c0-0.5,0.2-0.9,0.5-1.2c0.3-0.3,0.8-0.5,1.2-0.5h14.5c0.1,0,0.1,0,0.2,0c0,0,0.1-0.1,0.2-0.2c0.3-0.3,0.7-0.5,1.2-0.5
		c0.5,0,0.9,0.2,1.2,0.5l0,0L50.4,100.2z"/>
</g>
<path class="st6" d="M27,79.4c0.2-0.2,0.5-0.4,0.9-0.4h18.5c0.3,0,0.6,0.1,0.9,0.4c0.2,0.2,0.4,0.5,0.4,0.9v1.4
	c0,0.3-0.1,0.6-0.4,0.9c-0.2,0.2-0.5,0.4-0.9,0.4H39v1.9C44.6,85,49,89.5,49,95.1c0,0.5-0.2,1-0.6,1.4c-0.4,0.4-0.8,0.6-1.4,0.6H35
	c-0.3,0-0.6-0.1-0.9-0.2c-0.3-0.1-0.5-0.3-0.7-0.6l-1-1.3c-0.2-0.2-0.1-0.5,0.1-0.7c0.2-0.2,0.5-0.1,0.7,0.1l1,1.3
	c0.1,0.1,0.2,0.2,0.3,0.3C34.7,96,34.8,96,35,96h12.1c0.2,0,0.5-0.1,0.7-0.3c0.2-0.2,0.3-0.4,0.3-0.7c0-5.2-4.2-9.4-9.4-9.4H26.2
	l-2.1-2.8c0,0,0,0-0.1-0.1c0,0-0.1,0-0.1,0h-1.8c0,0-0.1,0-0.1,0c0,0-0.1,0-0.1,0.1c0,0,0,0.1,0,0.1c0,0,0,0.1,0,0.1l1.3,4.6l7,2.8
	l1,1.4c0.2,0.2,0.1,0.5-0.1,0.7c-0.2,0.2-0.5,0.1-0.7-0.1l-0.9-1.2l-7.2-2.9l-1.5-5l0,0c0-0.2,0-0.4,0-0.5c0-0.2,0.1-0.3,0.2-0.5
	c0.1-0.1,0.3-0.3,0.4-0.3c0.2-0.1,0.3-0.1,0.5-0.1H24c0.2,0,0.4,0,0.5,0.1c0.2,0.1,0.3,0.2,0.4,0.4l1.8,2.4h8.5v-1.8h-7.3
	c-0.3,0-0.6-0.1-0.9-0.4s-0.4-0.5-0.4-0.9v-1.4C26.7,79.9,26.8,79.6,27,79.4z M36.2,84.7H38v-2.8h8.3c0.1,0,0.1,0,0.1-0.1
	c0,0,0.1-0.1,0.1-0.1v-1.4c0-0.1,0-0.1-0.1-0.1c0,0-0.1-0.1-0.1-0.1H27.9c-0.1,0-0.1,0-0.1,0.1c0,0-0.1,0.1-0.1,0.1v1.4
	c0,0.1,0,0.1,0.1,0.1c0,0,0.1,0.1,0.1,0.1h8.3V84.7z"/>
<path class="st6" d="M50.4,100.2c0.2,0.2,0.3,0.4,0.4,0.6c0.1,0.2,0.1,0.5,0.1,0.7c0,0.2-0.1,0.5-0.2,0.7c-0.1,0.2-0.2,0.4-0.4,0.6
	c-0.8,0.7-1.5,1.1-2.2,1.3c-0.7,0.2-1.2,0.2-1.5,0.2H32.1c-0.5,0-0.9-0.2-1.2-0.5c-0.3-0.3-0.5-0.8-0.5-1.2v-1.4
	c0-0.5,0.2-0.9,0.5-1.2c0.3-0.3,0.8-0.5,1.2-0.5h14.5c0.1,0,0.1,0,0.2,0c0,0,0.1-0.1,0.2-0.2c0.3-0.3,0.7-0.5,1.2-0.5
	c0.5,0,0.9,0.2,1.2,0.5l0,0L50.4,100.2z M49.6,101.9c0.1-0.1,0.1-0.1,0.2-0.2c0-0.1,0.1-0.2,0.1-0.3c0-0.1,0-0.2,0-0.3
	c0-0.1-0.1-0.2-0.2-0.2l-1-1c-0.1-0.1-0.3-0.2-0.5-0.2c-0.2,0-0.4,0.1-0.5,0.2c-0.3,0.3-0.6,0.5-1.1,0.5H32.1
	c-0.2,0-0.4,0.1-0.5,0.2c-0.1,0.1-0.2,0.3-0.2,0.5v1.4c0,0.2,0.1,0.4,0.2,0.5c0.1,0.1,0.3,0.2,0.5,0.2h14.5
	C47.3,103.2,48.2,103.2,49.6,101.9z"/>
<path class="st7" d="M26.5,93c-0.3,0-0.5,0.2-0.5,0.5s0.2,0.5,0.5,0.5h6c0.3,0,0.5-0.2,0.5-0.5S32.8,93,32.5,93H26.5z"/>
<path class="st7" d="M24,96.5c0-0.3,0.2-0.5,0.5-0.5h6c0.3,0,0.5,0.2,0.5,0.5S30.8,97,30.5,97h-6C24.2,97,24,96.8,24,96.5z"/>
<path class="st6" d="M39,86.9v7.7h7.8l-0.2-1.2c-0.6-3.2-3.2-5.7-6.3-6.3L39,86.9z M40,88.2v5.5h5.5c-0.1-0.3-0.2-0.7-0.3-1
	c-0.7-2-2.3-3.5-4.3-4.2C40.6,88.3,40.3,88.2,40,88.2z"/>
<g>
	
		<radialGradient id="SVGID_5_" cx="-251.6312" cy="590.9955" r="1" gradientTransform="matrix(7.720663e-16 12.6088 14.9482 -9.153133e-16 -8798.3701 3320.3762)" gradientUnits="userSpaceOnUse">
		<stop  offset="0" style="stop-color:#00CAAA"/>
		<stop  offset="1" style="stop-color:#00CAAA;stop-opacity:0"/>
	</radialGradient>
	<path class="st8" d="M27,135.4c0.2-0.2,0.5-0.4,0.9-0.4h18.5c0.3,0,0.6,0.1,0.9,0.4c0.2,0.2,0.4,0.5,0.4,0.9v1.4
		c0,0.3-0.1,0.6-0.4,0.9c-0.2,0.2-0.5,0.4-0.9,0.4H39v1.9c5.5,0.3,9.9,4.8,9.9,10.4c0,0.5-0.2,1-0.6,1.4c-0.4,0.4-0.8,0.6-1.4,0.6
		H35c-0.3,0-0.6-0.1-0.9-0.2c-0.3-0.1-0.5-0.3-0.7-0.6l-1-1.3c0,0-0.1-0.1-0.1-0.1l-1.6-2.2c-0.1,0-0.2-0.1-0.2-0.2l-0.9-1.2
		l-7.2-2.9l-1.5-5l0,0c0-0.2,0-0.4,0-0.5c0-0.2,0.1-0.3,0.2-0.5c0.1-0.1,0.3-0.3,0.4-0.3c0.2-0.1,0.3-0.1,0.5-0.1H24
		c0.2,0,0.4,0,0.5,0.1c0.2,0.1,0.3,0.2,0.4,0.4l1.8,2.4h8.5v-1.8h-7.3c-0.3,0-0.6-0.1-0.9-0.4s-0.4-0.5-0.4-0.9v-1.4
		C26.7,135.9,26.8,135.6,27,135.4z"/>
	
		<radialGradient id="SVGID_6_" cx="-251.6312" cy="590.9955" r="1" gradientTransform="matrix(7.720663e-16 12.6088 14.9482 -9.153133e-16 -8798.3701 3320.3762)" gradientUnits="userSpaceOnUse">
		<stop  offset="0" style="stop-color:#00CAAA"/>
		<stop  offset="1" style="stop-color:#00CAAA;stop-opacity:0"/>
	</radialGradient>
	<path class="st9" d="M50.4,156.2c0.2,0.2,0.3,0.4,0.4,0.6c0.1,0.2,0.1,0.5,0.1,0.7c0,0.2-0.1,0.5-0.2,0.7c-0.1,0.2-0.2,0.4-0.4,0.6
		c-0.8,0.7-1.5,1.1-2.2,1.3c-0.7,0.2-1.2,0.2-1.5,0.2H32.1c-0.5,0-0.9-0.2-1.2-0.5c-0.3-0.3-0.5-0.8-0.5-1.2v-1.4
		c0-0.5,0.2-0.9,0.5-1.2c0.3-0.3,0.8-0.5,1.2-0.5h14.5c0.1,0,0.1,0,0.2,0c0,0,0.1-0.1,0.2-0.2c0.3-0.3,0.7-0.5,1.2-0.5
		c0.5,0,0.9,0.2,1.2,0.5l0,0L50.4,156.2z"/>
</g>
<path class="st10" d="M27,135.4c0.2-0.2,0.5-0.4,0.9-0.4h18.5c0.3,0,0.6,0.1,0.9,0.4c0.2,0.2,0.4,0.5,0.4,0.9v1.4
	c0,0.3-0.1,0.6-0.4,0.9c-0.2,0.2-0.5,0.4-0.9,0.4H39v1.9c5.5,0.3,9.9,4.8,9.9,10.4c0,0.5-0.2,1-0.6,1.4c-0.4,0.4-0.8,0.6-1.4,0.6H35
	c-0.3,0-0.6-0.1-0.9-0.2c-0.3-0.1-0.5-0.3-0.7-0.6l-1-1.3c-0.2-0.2-0.1-0.5,0.1-0.7c0.2-0.2,0.5-0.1,0.7,0.1l1,1.3
	c0.1,0.1,0.2,0.2,0.3,0.3c0.1,0.1,0.3,0.1,0.4,0.1h12.1c0.2,0,0.5-0.1,0.7-0.3c0.2-0.2,0.3-0.4,0.3-0.7c0-5.2-4.2-9.4-9.4-9.4H26.2
	l-2.1-2.8c0,0,0,0-0.1-0.1c0,0-0.1,0-0.1,0h-1.8c0,0-0.1,0-0.1,0c0,0-0.1,0-0.1,0.1c0,0,0,0.1,0,0.1c0,0,0,0.1,0,0.1l1.3,4.6l7,2.8
	l1,1.4c0.2,0.2,0.1,0.5-0.1,0.7c-0.2,0.2-0.5,0.1-0.7-0.1l-0.9-1.2l-7.2-2.9l-1.5-5l0,0c0-0.2,0-0.4,0-0.5c0-0.2,0.1-0.3,0.2-0.5
	c0.1-0.1,0.3-0.3,0.4-0.3c0.2-0.1,0.3-0.1,0.5-0.1H24c0.2,0,0.4,0,0.5,0.1c0.2,0.1,0.3,0.2,0.4,0.4l1.8,2.4h8.5v-1.8h-7.3
	c-0.3,0-0.6-0.1-0.9-0.4s-0.4-0.5-0.4-0.9v-1.4C26.7,135.9,26.8,135.6,27,135.4z M36.2,140.7H38v-2.8h8.3c0.1,0,0.1,0,0.1-0.1
	c0,0,0.1-0.1,0.1-0.1v-1.4c0-0.1,0-0.1-0.1-0.1c0,0-0.1-0.1-0.1-0.1H27.9c-0.1,0-0.1,0-0.1,0.1c0,0-0.1,0.1-0.1,0.1v1.4
	c0,0.1,0,0.1,0.1,0.1c0,0,0.1,0.1,0.1,0.1h8.3V140.7z"/>
<path class="st10" d="M50.4,156.2c0.2,0.2,0.3,0.4,0.4,0.6c0.1,0.2,0.1,0.5,0.1,0.7c0,0.2-0.1,0.5-0.2,0.7c-0.1,0.2-0.2,0.4-0.4,0.6
	c-0.8,0.7-1.5,1.1-2.2,1.3c-0.7,0.2-1.2,0.2-1.5,0.2H32.1c-0.5,0-0.9-0.2-1.2-0.5c-0.3-0.3-0.5-0.8-0.5-1.2v-1.4
	c0-0.5,0.2-0.9,0.5-1.2c0.3-0.3,0.8-0.5,1.2-0.5h14.5c0.1,0,0.1,0,0.2,0c0,0,0.1-0.1,0.2-0.2c0.3-0.3,0.7-0.5,1.2-0.5
	c0.5,0,0.9,0.2,1.2,0.5l0,0L50.4,156.2z M49.6,157.9c0.1-0.1,0.1-0.1,0.2-0.2c0-0.1,0.1-0.2,0.1-0.3c0-0.1,0-0.2,0-0.3
	c0-0.1-0.1-0.2-0.2-0.2l-1-1c-0.1-0.1-0.3-0.2-0.5-0.2c-0.2,0-0.4,0.1-0.5,0.2c-0.3,0.3-0.6,0.5-1.1,0.5H32.1
	c-0.2,0-0.4,0.1-0.5,0.2c-0.1,0.1-0.2,0.3-0.2,0.5v1.4c0,0.2,0.1,0.4,0.2,0.5c0.1,0.1,0.3,0.2,0.5,0.2h14.5
	C47.3,159.2,48.2,159.2,49.6,157.9z"/>
<path class="st11" d="M26.5,149c-0.3,0-0.5,0.2-0.5,0.5s0.2,0.5,0.5,0.5h6c0.3,0,0.5-0.2,0.5-0.5s-0.2-0.5-0.5-0.5H26.5z"/>
<path class="st11" d="M24,152.5c0-0.3,0.2-0.5,0.5-0.5h6c0.3,0,0.5,0.2,0.5,0.5s-0.2,0.5-0.5,0.5h-6C24.2,153,24,152.8,24,152.5z"/>
<path class="st10" d="M39,142.9v7.7h7.8l-0.2-1.2c-0.6-3.2-3.2-5.7-6.3-6.3L39,142.9z M40,144.2v5.5h5.5c-0.1-0.3-0.2-0.7-0.3-1
	c-0.7-2-2.3-3.5-4.3-4.2C40.6,144.3,40.3,144.2,40,144.2z"/>
<path class="st12" d="M27,191.4c0.2-0.2,0.5-0.4,0.9-0.4h18.5c0.3,0,0.6,0.1,0.9,0.4c0.2,0.2,0.4,0.5,0.4,0.9v1.4
	c0,0.3-0.1,0.6-0.4,0.9c-0.2,0.2-0.5,0.4-0.9,0.4H39v1.9c5.5,0.3,9.9,4.8,9.9,10.4c0,0.5-0.2,1-0.6,1.4c-0.4,0.4-0.8,0.6-1.4,0.6H35
	c-0.3,0-0.6-0.1-0.9-0.2c-0.3-0.1-0.5-0.3-0.7-0.6l-1-1.3c-0.2-0.2-0.1-0.5,0.1-0.7c0.2-0.2,0.5-0.1,0.7,0.1l1,1.3
	c0.1,0.1,0.2,0.2,0.3,0.3c0.1,0.1,0.3,0.1,0.4,0.1h12.1c0.2,0,0.5-0.1,0.7-0.3c0.2-0.2,0.3-0.4,0.3-0.7c0-5.2-4.2-9.4-9.4-9.4H26.2
	l-2.1-2.8c0,0,0,0-0.1-0.1c0,0-0.1,0-0.1,0h-1.8c0,0-0.1,0-0.1,0c0,0-0.1,0-0.1,0.1c0,0,0,0.1,0,0.1c0,0,0,0.1,0,0.1l1.3,4.6l7,2.8
	l1,1.4c0.2,0.2,0.1,0.5-0.1,0.7c-0.2,0.2-0.5,0.1-0.7-0.1l-0.9-1.2l-7.2-2.9l-1.5-5l0,0c0-0.2,0-0.4,0-0.5c0-0.2,0.1-0.3,0.2-0.5
	c0.1-0.1,0.3-0.3,0.4-0.3c0.2-0.1,0.3-0.1,0.5-0.1H24c0.2,0,0.4,0,0.5,0.1c0.2,0.1,0.3,0.2,0.4,0.4l1.8,2.4h8.5v-1.8h-7.3
	c-0.3,0-0.6-0.1-0.9-0.4s-0.4-0.5-0.4-0.9v-1.4C26.7,191.9,26.8,191.6,27,191.4z M36.2,196.7H38v-2.8h8.3c0.1,0,0.1,0,0.1-0.1
	c0,0,0.1-0.1,0.1-0.1v-1.4c0-0.1,0-0.1-0.1-0.1c0,0-0.1-0.1-0.1-0.1H27.9c-0.1,0-0.1,0-0.1,0.1c0,0-0.1,0.1-0.1,0.1v1.4
	c0,0.1,0,0.1,0.1,0.1c0,0,0.1,0.1,0.1,0.1h8.3V196.7z"/>
<path class="st12" d="M50.4,212.2c0.2,0.2,0.3,0.4,0.4,0.6c0.1,0.2,0.1,0.5,0.1,0.7c0,0.2-0.1,0.5-0.2,0.7c-0.1,0.2-0.2,0.4-0.4,0.6
	c-0.8,0.7-1.5,1.1-2.2,1.3c-0.7,0.2-1.2,0.2-1.5,0.2H32.1c-0.5,0-0.9-0.2-1.2-0.5c-0.3-0.3-0.5-0.8-0.5-1.2v-1.4
	c0-0.5,0.2-0.9,0.5-1.2c0.3-0.3,0.8-0.5,1.2-0.5h14.5c0.1,0,0.1,0,0.2,0c0,0,0.1-0.1,0.2-0.2c0.3-0.3,0.7-0.5,1.2-0.5
	c0.5,0,0.9,0.2,1.2,0.5l0,0L50.4,212.2z M49.6,213.9c0.1-0.1,0.1-0.1,0.2-0.2c0-0.1,0.1-0.2,0.1-0.3c0-0.1,0-0.2,0-0.3
	c0-0.1-0.1-0.2-0.2-0.2l-1-1c-0.1-0.1-0.3-0.2-0.5-0.2c-0.2,0-0.4,0.1-0.5,0.2c-0.3,0.3-0.6,0.5-1.1,0.5H32.1
	c-0.2,0-0.4,0.1-0.5,0.2c-0.1,0.1-0.2,0.3-0.2,0.5v1.4c0,0.2,0.1,0.4,0.2,0.5c0.1,0.1,0.3,0.2,0.5,0.2h14.5
	C47.3,215.2,48.2,215.2,49.6,213.9z"/>
<path class="st13" d="M26.5,205c-0.3,0-0.5,0.2-0.5,0.5s0.2,0.5,0.5,0.5h6c0.3,0,0.5-0.2,0.5-0.5s-0.2-0.5-0.5-0.5H26.5z"/>
<path class="st13" d="M24,208.5c0-0.3,0.2-0.5,0.5-0.5h6c0.3,0,0.5,0.2,0.5,0.5s-0.2,0.5-0.5,0.5h-6C24.2,209,24,208.8,24,208.5z"/>
<path class="st12" d="M39,198.9v7.7h7.8l-0.2-1.2c-0.6-3.2-3.2-5.7-6.3-6.3L39,198.9z M40,200.2v5.5h5.5c-0.1-0.3-0.2-0.7-0.3-1
	c-0.7-2-2.3-3.5-4.3-4.2C40.6,200.3,40.3,200.2,40,200.2z"/>
<g>
	
		<radialGradient id="SVGID_7_" cx="-251.6312" cy="590.9955" r="1" gradientTransform="matrix(7.720663e-16 12.6088 14.9482 -9.153133e-16 -8798.3701 3432.3762)" gradientUnits="userSpaceOnUse">
		<stop  offset="0" style="stop-color:#434F58"/>
		<stop  offset="1" style="stop-color:#434F58;stop-opacity:0"/>
	</radialGradient>
	<path class="st14" d="M27,247.4c0.2-0.2,0.5-0.4,0.9-0.4h18.5c0.3,0,0.6,0.1,0.9,0.4c0.2,0.2,0.4,0.5,0.4,0.9v1.4
		c0,0.3-0.1,0.6-0.4,0.9c-0.2,0.2-0.5,0.4-0.9,0.4H39v1.9c5.5,0.3,9.9,4.8,9.9,10.4c0,0.5-0.2,1-0.6,1.4c-0.4,0.4-0.8,0.6-1.4,0.6
		H35c-0.3,0-0.6-0.1-0.9-0.2c-0.3-0.1-0.5-0.3-0.7-0.6l-1-1.3c0,0-0.1-0.1-0.1-0.1l-1.6-2.2c-0.1,0-0.2-0.1-0.2-0.2l-0.9-1.2
		l-7.2-2.9l-1.5-5l0,0c0-0.2,0-0.4,0-0.5c0-0.2,0.1-0.3,0.2-0.5c0.1-0.1,0.3-0.3,0.4-0.3c0.2-0.1,0.3-0.1,0.5-0.1H24
		c0.2,0,0.4,0,0.5,0.1c0.2,0.1,0.3,0.2,0.4,0.4l1.8,2.4h8.5v-1.8h-7.3c-0.3,0-0.6-0.1-0.9-0.4s-0.4-0.5-0.4-0.9v-1.4
		C26.7,247.9,26.8,247.6,27,247.4z"/>
	
		<radialGradient id="SVGID_8_" cx="-251.6312" cy="590.9955" r="1" gradientTransform="matrix(7.720663e-16 12.6088 14.9482 -9.153133e-16 -8798.3701 3432.3762)" gradientUnits="userSpaceOnUse">
		<stop  offset="0" style="stop-color:#434F58"/>
		<stop  offset="1" style="stop-color:#434F58;stop-opacity:0"/>
	</radialGradient>
	<path class="st15" d="M50.4,268.2c0.2,0.2,0.3,0.4,0.4,0.6c0.1,0.2,0.1,0.5,0.1,0.7c0,0.2-0.1,0.5-0.2,0.7
		c-0.1,0.2-0.2,0.4-0.4,0.6c-0.8,0.7-1.5,1.1-2.2,1.3c-0.7,0.2-1.2,0.2-1.5,0.2H32.1c-0.5,0-0.9-0.2-1.2-0.5
		c-0.3-0.3-0.5-0.8-0.5-1.2v-1.4c0-0.5,0.2-0.9,0.5-1.2c0.3-0.3,0.8-0.5,1.2-0.5h14.5c0.1,0,0.1,0,0.2,0c0,0,0.1-0.1,0.2-0.2
		c0.3-0.3,0.7-0.5,1.2-0.5c0.5,0,0.9,0.2,1.2,0.5l0,0L50.4,268.2z"/>
</g>
<path class="st12" d="M27,247.4c0.2-0.2,0.5-0.4,0.9-0.4h18.5c0.3,0,0.6,0.1,0.9,0.4c0.2,0.2,0.4,0.5,0.4,0.9v1.4
	c0,0.3-0.1,0.6-0.4,0.9c-0.2,0.2-0.5,0.4-0.9,0.4H39v1.9c5.5,0.3,9.9,4.8,9.9,10.4c0,0.5-0.2,1-0.6,1.4c-0.4,0.4-0.8,0.6-1.4,0.6H35
	c-0.3,0-0.6-0.1-0.9-0.2c-0.3-0.1-0.5-0.3-0.7-0.6l-1-1.3c-0.2-0.2-0.1-0.5,0.1-0.7c0.2-0.2,0.5-0.1,0.7,0.1l1,1.3
	c0.1,0.1,0.2,0.2,0.3,0.3c0.1,0.1,0.3,0.1,0.4,0.1h12.1c0.2,0,0.5-0.1,0.7-0.3c0.2-0.2,0.3-0.4,0.3-0.7c0-5.2-4.2-9.4-9.4-9.4H26.2
	l-2.1-2.8c0,0,0,0-0.1-0.1c0,0-0.1,0-0.1,0h-1.8c0,0-0.1,0-0.1,0c0,0-0.1,0-0.1,0.1c0,0,0,0.1,0,0.1c0,0,0,0.1,0,0.1l1.3,4.6l7,2.8
	l1,1.4c0.2,0.2,0.1,0.5-0.1,0.7c-0.2,0.2-0.5,0.1-0.7-0.1l-0.9-1.2l-7.2-2.9l-1.5-5l0,0c0-0.2,0-0.4,0-0.5c0-0.2,0.1-0.3,0.2-0.5
	c0.1-0.1,0.3-0.3,0.4-0.3c0.2-0.1,0.3-0.1,0.5-0.1H24c0.2,0,0.4,0,0.5,0.1c0.2,0.1,0.3,0.2,0.4,0.4l1.8,2.4h8.5v-1.8h-7.3
	c-0.3,0-0.6-0.1-0.9-0.4s-0.4-0.5-0.4-0.9v-1.4C26.7,247.9,26.8,247.6,27,247.4z M36.2,252.7H38v-2.8h8.3c0.1,0,0.1,0,0.1-0.1
	c0,0,0.1-0.1,0.1-0.1v-1.4c0-0.1,0-0.1-0.1-0.1c0,0-0.1-0.1-0.1-0.1H27.9c-0.1,0-0.1,0-0.1,0.1c0,0-0.1,0.1-0.1,0.1v1.4
	c0,0.1,0,0.1,0.1,0.1c0,0,0.1,0.1,0.1,0.1h8.3V252.7z"/>
<path class="st12" d="M50.4,268.2c0.2,0.2,0.3,0.4,0.4,0.6c0.1,0.2,0.1,0.5,0.1,0.7c0,0.2-0.1,0.5-0.2,0.7c-0.1,0.2-0.2,0.4-0.4,0.6
	c-0.8,0.7-1.5,1.1-2.2,1.3c-0.7,0.2-1.2,0.2-1.5,0.2H32.1c-0.5,0-0.9-0.2-1.2-0.5c-0.3-0.3-0.5-0.8-0.5-1.2v-1.4
	c0-0.5,0.2-0.9,0.5-1.2c0.3-0.3,0.8-0.5,1.2-0.5h14.5c0.1,0,0.1,0,0.2,0c0,0,0.1-0.1,0.2-0.2c0.3-0.3,0.7-0.5,1.2-0.5
	c0.5,0,0.9,0.2,1.2,0.5l0,0L50.4,268.2z M49.6,269.9c0.1-0.1,0.1-0.1,0.2-0.2c0-0.1,0.1-0.2,0.1-0.3c0-0.1,0-0.2,0-0.3
	c0-0.1-0.1-0.2-0.2-0.2l-1-1c-0.1-0.1-0.3-0.2-0.5-0.2c-0.2,0-0.4,0.1-0.5,0.2c-0.3,0.3-0.6,0.5-1.1,0.5H32.1
	c-0.2,0-0.4,0.1-0.5,0.2c-0.1,0.1-0.2,0.3-0.2,0.5v1.4c0,0.2,0.1,0.4,0.2,0.5c0.1,0.1,0.3,0.2,0.5,0.2h14.5
	C47.3,271.2,48.2,271.2,49.6,269.9z"/>
<path class="st13" d="M26.5,261c-0.3,0-0.5,0.2-0.5,0.5s0.2,0.5,0.5,0.5h6c0.3,0,0.5-0.2,0.5-0.5s-0.2-0.5-0.5-0.5H26.5z"/>
<path class="st13" d="M24,264.5c0-0.3,0.2-0.5,0.5-0.5h6c0.3,0,0.5,0.2,0.5,0.5s-0.2,0.5-0.5,0.5h-6C24.2,265,24,264.8,24,264.5z"/>
<path class="st12" d="M39,254.9v7.7h7.8l-0.2-1.2c-0.6-3.2-3.2-5.7-6.3-6.3L39,254.9z M40,256.2v5.5h5.5c-0.1-0.3-0.2-0.7-0.3-1
	c-0.7-2-2.3-3.5-4.3-4.2C40.6,256.3,40.3,256.2,40,256.2z"/>
<radialGradient id="SVGID_9_" cx="-251.6312" cy="590.9955" r="1" gradientTransform="matrix(7.720663e-16 12.6088 14.9482 -9.153133e-16 -8798.3701 3488.3762)" gradientUnits="userSpaceOnUse">
	<stop  offset="0" style="stop-color:#677983"/>
	<stop  offset="1" style="stop-color:#677983;stop-opacity:0"/>
</radialGradient>
<path class="st16" d="M27,303.4c0.2-0.2,0.5-0.4,0.9-0.4h18.5c0.3,0,0.6,0.1,0.9,0.4c0.2,0.2,0.4,0.5,0.4,0.9v1.4
	c0,0.3-0.1,0.6-0.4,0.9c-0.2,0.2-0.5,0.4-0.9,0.4H39v1.9c5.5,0.3,9.9,4.8,9.9,10.4c0,0.5-0.2,1-0.6,1.4c-0.4,0.4-0.8,0.6-1.4,0.6H35
	c-0.3,0-0.6-0.1-0.9-0.2c-0.3-0.1-0.5-0.3-0.7-0.6l-1-1.3c0,0-0.1-0.1-0.1-0.1l-1.6-2.2c-0.1,0-0.2-0.1-0.2-0.2l-0.9-1.2l-7.2-2.9
	l-1.5-5l0,0c0-0.2,0-0.4,0-0.5c0-0.2,0.1-0.3,0.2-0.5c0.1-0.1,0.3-0.3,0.4-0.3c0.2-0.1,0.3-0.1,0.5-0.1H24c0.2,0,0.4,0,0.5,0.1
	c0.2,0.1,0.3,0.2,0.4,0.4l1.8,2.4h8.5v-1.8h-7.3c-0.3,0-0.6-0.1-0.9-0.4c-0.2-0.2-0.4-0.5-0.4-0.9v-1.4
	C26.7,303.9,26.8,303.6,27,303.4z"/>
<radialGradient id="SVGID_10_" cx="-251.6312" cy="590.9955" r="1" gradientTransform="matrix(7.720663e-16 12.6088 14.9482 -9.153133e-16 -8798.3701 3488.3762)" gradientUnits="userSpaceOnUse">
	<stop  offset="0" style="stop-color:#677983"/>
	<stop  offset="1" style="stop-color:#677983;stop-opacity:0"/>
</radialGradient>
<path class="st17" d="M50.4,324.2c0.2,0.2,0.3,0.4,0.4,0.6c0.1,0.2,0.1,0.5,0.1,0.7c0,0.2-0.1,0.5-0.2,0.7c-0.1,0.2-0.2,0.4-0.4,0.6
	c-0.8,0.7-1.5,1.1-2.2,1.3c-0.7,0.2-1.2,0.2-1.5,0.2H32.1c-0.5,0-0.9-0.2-1.2-0.5c-0.3-0.3-0.5-0.8-0.5-1.2v-1.4
	c0-0.5,0.2-0.9,0.5-1.2c0.3-0.3,0.8-0.5,1.2-0.5h14.5c0.1,0,0.1,0,0.2,0c0,0,0.1-0.1,0.2-0.2c0.3-0.3,0.7-0.5,1.2-0.5
	c0.5,0,0.9,0.2,1.2,0.5l0,0L50.4,324.2z"/>
<path class="st18" d="M27,303.4c0.2-0.2,0.5-0.4,0.9-0.4h18.5c0.3,0,0.6,0.1,0.9,0.4c0.2,0.2,0.4,0.5,0.4,0.9v1.4
	c0,0.3-0.1,0.6-0.4,0.9c-0.2,0.2-0.5,0.4-0.9,0.4H39v1.9c5.5,0.3,9.9,4.8,9.9,10.4c0,0.5-0.2,1-0.6,1.4c-0.4,0.4-0.8,0.6-1.4,0.6H35
	c-0.3,0-0.6-0.1-0.9-0.2c-0.3-0.1-0.5-0.3-0.7-0.6l-1-1.3c-0.2-0.2-0.1-0.5,0.1-0.7c0.2-0.2,0.5-0.1,0.7,0.1l1,1.3
	c0.1,0.1,0.2,0.2,0.3,0.3c0.1,0.1,0.3,0.1,0.4,0.1h12.1c0.2,0,0.5-0.1,0.7-0.3c0.2-0.2,0.3-0.4,0.3-0.7c0-5.2-4.2-9.4-9.4-9.4H26.2
	l-2.1-2.8c0,0,0,0-0.1-0.1c0,0-0.1,0-0.1,0h-1.8c0,0-0.1,0-0.1,0c0,0-0.1,0-0.1,0.1c0,0,0,0.1,0,0.1c0,0,0,0.1,0,0.1l1.3,4.6l7,2.8
	l1,1.4c0.2,0.2,0.1,0.5-0.1,0.7c-0.2,0.2-0.5,0.1-0.7-0.1l-0.9-1.2l-7.2-2.9l-1.5-5l0,0c0-0.2,0-0.4,0-0.5c0-0.2,0.1-0.3,0.2-0.5
	c0.1-0.1,0.3-0.3,0.4-0.3c0.2-0.1,0.3-0.1,0.5-0.1H24c0.2,0,0.4,0,0.5,0.1c0.2,0.1,0.3,0.2,0.4,0.4l1.8,2.4h8.5v-1.8h-7.3
	c-0.3,0-0.6-0.1-0.9-0.4c-0.2-0.2-0.4-0.5-0.4-0.9v-1.4C26.7,303.9,26.8,303.6,27,303.4z M36.2,308.7H38v-2.8h8.3
	c0.1,0,0.1,0,0.1-0.1c0,0,0.1-0.1,0.1-0.1v-1.4c0-0.1,0-0.1-0.1-0.1c0,0-0.1-0.1-0.1-0.1H27.9c-0.1,0-0.1,0-0.1,0.1
	c0,0-0.1,0.1-0.1,0.1v1.4c0,0.1,0,0.1,0.1,0.1c0,0,0.1,0.1,0.1,0.1h8.3V308.7z"/>
<path class="st18" d="M50.4,324.2c0.2,0.2,0.3,0.4,0.4,0.6c0.1,0.2,0.1,0.5,0.1,0.7c0,0.2-0.1,0.5-0.2,0.7c-0.1,0.2-0.2,0.4-0.4,0.6
	c-0.8,0.7-1.5,1.1-2.2,1.3c-0.7,0.2-1.2,0.2-1.5,0.2H32.1c-0.5,0-0.9-0.2-1.2-0.5c-0.3-0.3-0.5-0.8-0.5-1.2v-1.4
	c0-0.5,0.2-0.9,0.5-1.2c0.3-0.3,0.8-0.5,1.2-0.5h14.5c0.1,0,0.1,0,0.2,0c0,0,0.1-0.1,0.2-0.2c0.3-0.3,0.7-0.5,1.2-0.5
	c0.5,0,0.9,0.2,1.2,0.5l0,0L50.4,324.2z M49.6,325.9c0.1-0.1,0.1-0.1,0.2-0.2c0-0.1,0.1-0.2,0.1-0.3c0-0.1,0-0.2,0-0.3
	c0-0.1-0.1-0.2-0.2-0.2l-1-1c-0.1-0.1-0.3-0.2-0.5-0.2c-0.2,0-0.4,0.1-0.5,0.2c-0.3,0.3-0.6,0.5-1.1,0.5H32.1
	c-0.2,0-0.4,0.1-0.5,0.2c-0.1,0.1-0.2,0.3-0.2,0.5v1.4c0,0.2,0.1,0.4,0.2,0.5c0.1,0.1,0.3,0.2,0.5,0.2h14.5
	C47.3,327.2,48.2,327.2,49.6,325.9z"/>
<path class="st19" d="M26.5,317c-0.3,0-0.5,0.2-0.5,0.5s0.2,0.5,0.5,0.5h6c0.3,0,0.5-0.2,0.5-0.5s-0.2-0.5-0.5-0.5H26.5z"/>
<path class="st19" d="M24,320.5c0-0.3,0.2-0.5,0.5-0.5h6c0.3,0,0.5,0.2,0.5,0.5s-0.2,0.5-0.5,0.5h-6C24.2,321,24,320.8,24,320.5z"/>
<path class="st18" d="M39,311v7.7h7.8l-0.2-1.2c-0.6-3.2-3.2-5.7-6.3-6.3L39,311z M40,312.2v5.5h5.5c-0.1-0.3-0.2-0.7-0.3-1
	c-0.7-2-2.3-3.5-4.3-4.2C40.6,312.3,40.3,312.2,40,312.2z"/>
</svg>
