<?xml version="1.0" encoding="utf-8"?>
<!-- Generator: Adobe Illustrator 25.2.1, SVG Export Plug-In . SVG Version: 6.00 Build 0)  -->
<svg version="1.1" id="Layer_1" xmlns="http://www.w3.org/2000/svg" xmlns:xlink="http://www.w3.org/1999/xlink" x="0px" y="0px"
	 viewBox="0 0 72 352" style="enable-background:new 0 0 72 352;" xml:space="preserve">
<style type="text/css">
	.st0{fill-rule:evenodd;clip-rule:evenodd;fill:url(#SVGID_1_);fill-opacity:0.25;}
	.st1{fill:#0073EC;}
	.st2{fill-rule:evenodd;clip-rule:evenodd;fill:#0073EC;}
	.st3{fill-rule:evenodd;clip-rule:evenodd;fill:url(#SVGID_2_);fill-opacity:0.25;}
	.st4{fill:#A644E5;}
	.st5{fill-rule:evenodd;clip-rule:evenodd;fill:#A644E5;}
	.st6{fill:#00CAAA;}
	.st7{fill-rule:evenodd;clip-rule:evenodd;fill:#00CAAA;}
	.st8{fill:#434F58;}
	.st9{fill-rule:evenodd;clip-rule:evenodd;fill:#434F58;}
	.st10{fill-rule:evenodd;clip-rule:evenodd;fill:url(#SVGID_3_);fill-opacity:0.25;}
	.st11{fill-rule:evenodd;clip-rule:evenodd;fill:url(#SVGID_4_);fill-opacity:0.25;}
	.st12{fill:#677983;}
	.st13{fill-rule:evenodd;clip-rule:evenodd;fill:#677983;}
</style>
<radialGradient id="SVGID_1_" cx="-254.4" cy="588.5942" r="1" gradientTransform="matrix(9.184852e-16 15 17.25 -1.056258e-15 -10118 3852)" gradientUnits="userSpaceOnUse">
	<stop  offset="0" style="stop-color:#0073EC"/>
	<stop  offset="1" style="stop-color:#0073EC;stop-opacity:0"/>
</radialGradient>
<path class="st0" d="M38.3,21c-2.6,0-4.8,2.1-4.8,4.8v0.1c-0.6,0.2-1,0.7-1,1.4v3h-6.9c-0.4,0-0.9,0.2-1.2,0.5
	C24.2,31,24,31.4,24,31.9v4.4c-0.4,0.1-0.8,0.2-1.2,0.4c-1.9,0.8-3.4,2.3-4.2,4.3c-0.4,1-0.6,2-0.6,3.1c0,1.1,0.2,1.1,0.6,2.1
	c0.4,1,1,1.8,1.7,2.6c0.7,0.7,1.6,1.3,2.5,1.7c1,0.4,2,0.6,3.1,0.6c1.1,0,2.1-0.2,3.1-0.6c1.2-0.5,1.7-0.7,2.5-1.7L50.8,49
	c0.4,0,0.9-0.2,1.2-0.5c0.3-0.3,0.5-0.7,0.5-1.2v-5.6c0-0.5,0-1,0-1.5c0-0.9,0-1.8,0-2.9L52,31.9c0-0.4-0.2-0.9-0.5-1.2
	c-0.3-0.3-0.7-0.5-1.2-0.5H44v-3c0-0.6-0.4-1.2-1-1.4v-0.1C43,23.1,40.9,21,38.3,21z"/>
<path class="st1" d="M36,30c0.3,0,0.5,0.2,0.5,0.5v2c0,0.3-0.2,0.5-0.5,0.5s-0.5-0.2-0.5-0.5v-2C35.5,30.2,35.7,30,36,30z"/>
<path class="st2" d="M33.5,25c0-2.8,2.2-5,5-5s5,2.2,5,5v0.1c0.6,0.2,1,0.8,1,1.4v7c0,0.8-0.7,1.5-1.5,1.5h-9
	c-0.8,0-1.5-0.7-1.5-1.5v-7C32.5,25.8,32.9,25.3,33.5,25L33.5,25z M38.5,21c2.2,0,4,1.8,4,4h-8C34.5,22.8,36.3,21,38.5,21z M34,26h9
	c0.3,0,0.5,0.2,0.5,0.5v7c0,0.3-0.2,0.5-0.5,0.5h-3.5v-6h-6v-1.5C33.5,26.2,33.7,26,34,26z M33.5,29v4.5c0,0.3,0.2,0.5,0.5,0.5h4.5
	v-5H33.5z"/>
<path class="st1" d="M25.3,29.6c-0.5,0-0.9,0.2-1.2,0.5c-0.3,0.3-0.5,0.8-0.5,1.2v2.9c0,0.3,0.2,0.5,0.5,0.5s0.5-0.2,0.5-0.5v-2.9
	c0-0.2,0.1-0.4,0.2-0.5c0.1-0.1,0.3-0.2,0.5-0.2H31c0.3,0,0.5-0.2,0.5-0.5c0-0.3-0.2-0.5-0.5-0.5H25.3z"/>
<path class="st1" d="M46,29.6c-0.3,0-0.5,0.2-0.5,0.5c0,0.3,0.2,0.5,0.5,0.5h5.2c0.2,0,0.4,0.1,0.5,0.2c0.1,0.1,0.2,0.3,0.2,0.5v5.8
	c0,0.2-0.1,0.4-0.2,0.5c-0.1,0.1-0.3,0.2-0.5,0.2H34c-0.3,0-0.5,0.2-0.5,0.5c0,0.3,0.2,0.5,0.5,0.5h17.2h0c0.5,0,0.9-0.2,1.2-0.5
	c0.3-0.3,0.5-0.8,0.5-1.2v0v-5.8c0-0.5-0.2-0.9-0.5-1.2c-0.3-0.3-0.8-0.5-1.2-0.5H46z"/>
<path class="st1" d="M34.2,40c-0.3,0-0.5,0.2-0.5,0.5s0.2,0.5,0.5,0.5h17c0.2,0,0.4,0.1,0.5,0.2c0.1,0.1,0.2,0.3,0.2,0.5v5.8
	c0,0.2-0.1,0.4-0.2,0.5c-0.1,0.1-0.3,0.2-0.5,0.2h-18c-0.3,0-0.5,0.2-0.5,0.5s0.2,0.5,0.5,0.5h18c0.5,0,0.9-0.2,1.2-0.5
	c0.3-0.3,0.5-0.8,0.5-1.2v-5.8c0-0.5-0.2-0.9-0.5-1.2c-0.3-0.3-0.8-0.5-1.2-0.5H34.2z"/>
<path class="st1" d="M42,45.5c-0.2,0-0.3-0.1-0.5-0.1c-0.1-0.1-0.3-0.2-0.3-0.4c-0.1-0.2-0.1-0.3,0-0.5c0-0.2,0.1-0.3,0.2-0.4
	c0.1-0.1,0.3-0.2,0.4-0.2c0.2,0,0.3,0,0.5,0c0.2,0.1,0.3,0.2,0.4,0.3c0.1,0.1,0.1,0.3,0.1,0.5c0,0.1,0,0.2-0.1,0.3
	c0,0.1-0.1,0.2-0.2,0.3c-0.1,0.1-0.2,0.1-0.3,0.2C42.2,45.5,42.1,45.5,42,45.5z"/>
<path class="st1" d="M45.3,45.5c-0.2,0-0.3-0.1-0.5-0.1c-0.1-0.1-0.3-0.2-0.3-0.4c-0.1-0.2-0.1-0.3,0-0.5c0-0.2,0.1-0.3,0.2-0.4
	c0.1-0.1,0.3-0.2,0.4-0.2c0.2,0,0.3,0,0.5,0c0.2,0.1,0.3,0.2,0.4,0.3c0.1,0.1,0.1,0.3,0.1,0.5c0,0.1,0,0.2-0.1,0.3
	c0,0.1-0.1,0.2-0.2,0.3s-0.2,0.1-0.3,0.2C45.5,45.5,45.4,45.5,45.3,45.5z"/>
<path class="st1" d="M48.4,45.5c-0.2,0-0.3-0.1-0.5-0.1c-0.1-0.1-0.3-0.2-0.3-0.4c-0.1-0.2-0.1-0.3,0-0.5c0-0.2,0.1-0.3,0.2-0.4
	c0.1-0.1,0.3-0.2,0.4-0.2c0.2,0,0.3,0,0.5,0c0.2,0.1,0.3,0.2,0.4,0.3c0.1,0.1,0.1,0.3,0.1,0.5c0,0.1,0,0.2-0.1,0.3
	c0,0.1-0.1,0.2-0.2,0.3c-0.1,0.1-0.2,0.1-0.3,0.2C48.7,45.5,48.6,45.5,48.4,45.5z"/>
<path class="st1" d="M19.2,43.5c0,0.7,0.1,1.3,0.3,1.9c0.2,0.6,0.4,1.2,0.8,1.7c0.3,0.5,0.7,1,1.2,1.4c0.5,0.4,1,0.8,1.5,1l-3.2-8.9
	C19.4,41.6,19.2,42.6,19.2,43.5z"/>
<path class="st1" d="M24.9,50.2c-0.3,0-0.6-0.1-0.9-0.2l2-5.9l2.1,5.8C27.1,50.3,26,50.4,24.9,50.2z"/>
<path class="st1" d="M31.9,40.7c0,0.1,0,0.3,0,0.4c-0.1,0.6-0.2,1.2-0.4,1.8c-0.2,0.5-0.4,1-0.5,1.5c-0.1,0.2-0.2,0.5-0.3,1
	c-0.2,0.5-0.3,1-0.5,1.5c-0.2,0.5-0.3,1-0.5,1.5c-0.2,0.5-0.3,0.8-0.3,1c0.5-0.3,1-0.7,1.4-1.1c0.4-0.4,0.8-0.9,1.1-1.4
	c0.3-0.5,0.5-1.1,0.7-1.6c0.5-1.7,0.3-3.5-0.5-5C31.9,40.4,31.9,40.6,31.9,40.7z"/>
<path class="st1" d="M30.1,44.9c-0.1,0.3-0.2,0.6-0.3,1.1c-0.1,0.4-0.3,1-0.5,1.6l-2.4-7.3c0.1,0,0.2,0,0.4,0c0.1,0,0.3,0,0.4,0
	c0.2,0,0.3-0.1,0.3-0.3c0-0.1-0.1-0.1-0.1-0.2c-0.1,0-0.1-0.1-0.2-0.1c-0.7,0-1.2,0.1-1.5,0.1c-0.4,0-0.7,0-1.1,0l-0.7-0.1l-0.3,0
	c0,0-0.1,0-0.1,0s-0.1,0-0.1,0c-0.1,0-0.1,0.1-0.1,0.2c0,0,0,0.1,0,0.1c0,0,0,0.1,0,0.1c0,0.1,0.1,0.1,0.2,0.1c0,0,0.1,0,0.2,0
	c0.1,0,0.3,0,0.5,0.1l1.1,2.9l-1.5,4.4l-2.5-7.3c0.1,0,0.3,0,0.4,0c0.1,0,0.3,0,0.4,0c0.2,0,0.3-0.1,0.3-0.3c0-0.1-0.1-0.1-0.1-0.2
	c-0.1,0-0.1-0.1-0.2-0.1c-0.4,0.1-0.8,0.1-1.2,0.1c-0.4,0-0.7,0-1,0c0.6-0.9,1.4-1.7,2.4-2.2c1-0.6,2.1-0.8,3.2-0.8
	c0.9,0,1.7,0.2,2.5,0.5c0.8,0.3,1.5,0.8,2.1,1.3c-0.2,0-0.4,0-0.6,0.1c-0.2,0.1-0.4,0.3-0.5,0.5c-0.1,0.2-0.1,0.5-0.1,0.7
	c0,0.3,0.1,0.5,0.2,0.7c0.1,0.2,0.2,0.5,0.4,0.7c0.1,0.2,0.2,0.4,0.3,0.5c0.2,0.3,0.3,0.7,0.3,1c0,0.4,0,0.9-0.2,1.3
	C30.2,44.3,30.2,44.5,30.1,44.9z"/>
<path class="st2" d="M33.2,40.4c-0.4-1-1-1.8-1.7-2.5c-0.7-0.7-1.6-1.3-2.5-1.7c-1-0.4-2-0.6-3.1-0.6c-1.1,0-2.1,0.2-3.1,0.6
	c-1.9,0.8-3.4,2.3-4.2,4.3c-0.4,1-0.6,2-0.6,3.1c0,1.1,0.2,2.1,0.6,3.1c0.4,1,1,1.8,1.7,2.6c0.7,0.7,1.6,1.3,2.5,1.7
	c1,0.4,2,0.6,3.1,0.6c1.1,0,2.1-0.2,3.1-0.6c1.9-0.8,3.4-2.3,4.2-4.3c0.4-1,0.6-2,0.6-3.1S33.6,41.4,33.2,40.4L33.2,40.4z
	 M32.7,46.4c-0.8,1.8-2.2,3.2-3.9,4c-0.9,0.4-1.9,0.6-2.9,0.6c-1,0-2-0.2-2.9-0.6c-1.8-0.8-3.2-2.2-3.9-4c-0.4-0.9-0.6-1.9-0.6-2.9
	s0.2-2,0.6-2.9c0.4-0.9,0.9-1.7,1.6-2.4c0.7-0.7,1.5-1.2,2.3-1.6c0.9-0.4,1.9-0.6,2.9-0.6c1,0,2,0.2,2.9,0.6
	c0.9,0.4,1.7,0.9,2.3,1.6c0.7,0.7,1.2,1.5,1.6,2.4c0.4,0.9,0.6,1.9,0.6,2.9S33.1,45.5,32.7,46.4z"/>
<radialGradient id="SVGID_2_" cx="-254.871" cy="588.5942" r="1" gradientTransform="matrix(9.491013e-16 15.5 17.25 -1.056258e-15 -10118 4043)" gradientUnits="userSpaceOnUse">
	<stop  offset="0" style="stop-color:#A644E5"/>
	<stop  offset="1" style="stop-color:#A644E5;stop-opacity:0"/>
</radialGradient>
<path class="st3" d="M38.3,77c-2.6,0-4.8,2.1-4.8,4.8v0.1c-0.6,0.2-1,0.7-1,1.4v3h-6.9c-0.4,0-0.9,0.2-1.2,0.5
	C24.2,87,24,87.4,24,87.9v4.4c-0.4,0.1-0.8,0.2-1.2,0.4c-1.9,0.8-3.4,2.3-4.2,4.3c-0.4,1-0.6,2-0.6,3.1c0,1.1,0.2,2.1,0.6,3.1
	c0.4,1,1,1.8,1.7,2.6c0.7,0.7,1.6,1.3,2.5,1.7c1,0.4,2,0.6,3.1,0.6c1.1,0,2.1-0.2,3.1-0.6c1.2-0.5,2.3-1.3,3.1-2.4h18.8
	c0.4,0,0.9-0.2,1.2-0.5c0.3-0.3,0.5-0.7,0.5-1.2v-5.6c0-0.5,0-1,0-1.5c0-0.9,0-1.8,0-2.9L52,87.9c0-0.4-0.2-0.9-0.5-1.2
	c-0.3-0.3-0.7-0.5-1.2-0.5H44v-3c0-0.6-0.4-1.2-1-1.4v-0.1C43,79.1,40.9,77,38.3,77z"/>
<path class="st4" d="M36,86.5c0.3,0,0.5,0.2,0.5,0.5v2c0,0.3-0.2,0.5-0.5,0.5s-0.5-0.2-0.5-0.5v-2C35.5,86.7,35.7,86.5,36,86.5z"/>
<path class="st5" d="M33.5,81.5c0-2.8,2.2-5,5-5s5,2.2,5,5v0.1c0.6,0.2,1,0.8,1,1.4v7c0,0.8-0.7,1.5-1.5,1.5h-9
	c-0.8,0-1.5-0.7-1.5-1.5v-7C32.5,82.3,32.9,81.8,33.5,81.5L33.5,81.5z M38.5,77.5c2.2,0,4,1.8,4,4h-8C34.5,79.3,36.3,77.5,38.5,77.5
	z M34,82.5h9c0.3,0,0.5,0.2,0.5,0.5v7c0,0.3-0.2,0.5-0.5,0.5h-3.5v-6h-6V83C33.5,82.7,33.7,82.5,34,82.5z M33.5,85.5V90
	c0,0.3,0.2,0.5,0.5,0.5h4.5v-5H33.5z"/>
<path class="st4" d="M25.3,86.1c-0.5,0-0.9,0.2-1.2,0.5c-0.3,0.3-0.5,0.8-0.5,1.2v2.9c0,0.3,0.2,0.5,0.5,0.5s0.5-0.2,0.5-0.5v-2.9
	c0-0.2,0.1-0.4,0.2-0.5c0.1-0.1,0.3-0.2,0.5-0.2H31c0.3,0,0.5-0.2,0.5-0.5c0-0.3-0.2-0.5-0.5-0.5H25.3z"/>
<path class="st4" d="M46,86.1c-0.3,0-0.5,0.2-0.5,0.5c0,0.3,0.2,0.5,0.5,0.5h5.2c0.2,0,0.4,0.1,0.5,0.2c0.1,0.1,0.2,0.3,0.2,0.5v5.8
	c0,0.2-0.1,0.4-0.2,0.5c-0.1,0.1-0.3,0.2-0.5,0.2H34c-0.3,0-0.5,0.2-0.5,0.5c0,0.3,0.2,0.5,0.5,0.5h17.2h0c0.5,0,0.9-0.2,1.2-0.5
	c0.3-0.3,0.5-0.8,0.5-1.2v0v-5.8c0-0.5-0.2-0.9-0.5-1.2c-0.3-0.3-0.8-0.5-1.2-0.5H46z"/>
<path class="st4" d="M34.2,96.5c-0.3,0-0.5,0.2-0.5,0.5s0.2,0.5,0.5,0.5h17c0.2,0,0.4,0.1,0.5,0.2c0.1,0.1,0.2,0.3,0.2,0.5v5.8
	c0,0.2-0.1,0.4-0.2,0.5c-0.1,0.1-0.3,0.2-0.5,0.2h-18c-0.3,0-0.5,0.2-0.5,0.5c0,0.3,0.2,0.5,0.5,0.5h18c0.5,0,0.9-0.2,1.2-0.5
	c0.3-0.3,0.5-0.8,0.5-1.2v-5.8c0-0.5-0.2-0.9-0.5-1.2c-0.3-0.3-0.8-0.5-1.2-0.5H34.2z"/>
<path class="st4" d="M42,102c-0.2,0-0.3,0-0.5-0.1c-0.1-0.1-0.3-0.2-0.3-0.4c-0.1-0.2-0.1-0.3,0-0.5c0-0.2,0.1-0.3,0.2-0.4
	c0.1-0.1,0.3-0.2,0.4-0.2c0.2,0,0.3,0,0.5,0c0.2,0.1,0.3,0.2,0.4,0.3c0.1,0.1,0.1,0.3,0.1,0.5c0,0.1,0,0.2-0.1,0.3
	c0,0.1-0.1,0.2-0.2,0.3c-0.1,0.1-0.2,0.1-0.3,0.2C42.2,102,42.1,102,42,102z"/>
<path class="st4" d="M45.3,102c-0.2,0-0.3-0.1-0.5-0.1c-0.1-0.1-0.3-0.2-0.3-0.4c-0.1-0.2-0.1-0.3,0-0.5c0-0.2,0.1-0.3,0.2-0.4
	c0.1-0.1,0.3-0.2,0.4-0.2c0.2,0,0.3,0,0.5,0c0.2,0.1,0.3,0.2,0.4,0.3c0.1,0.1,0.1,0.3,0.1,0.5c0,0.1,0,0.2-0.1,0.3
	c0,0.1-0.1,0.2-0.2,0.3c-0.1,0.1-0.2,0.1-0.3,0.2C45.5,102,45.4,102,45.3,102z"/>
<path class="st4" d="M48.4,102c-0.2,0-0.3-0.1-0.5-0.1c-0.1-0.1-0.3-0.2-0.3-0.4c-0.1-0.2-0.1-0.3,0-0.5c0-0.2,0.1-0.3,0.2-0.4
	c0.1-0.1,0.3-0.2,0.4-0.2c0.2,0,0.3,0,0.5,0c0.2,0.1,0.3,0.2,0.4,0.3c0.1,0.1,0.1,0.3,0.1,0.5c0,0.1,0,0.2-0.1,0.3
	c0,0.1-0.1,0.2-0.2,0.3c-0.1,0.1-0.2,0.1-0.3,0.2C48.7,102,48.6,102,48.4,102z"/>
<path class="st4" d="M19.2,100c0,0.7,0.1,1.3,0.3,1.9c0.2,0.6,0.4,1.2,0.8,1.7c0.3,0.5,0.7,1,1.2,1.4c0.5,0.4,1,0.8,1.5,1l-3.2-8.9
	C19.4,98.1,19.2,99.1,19.2,100z"/>
<path class="st4" d="M24.9,106.7c-0.3,0-0.6-0.1-0.9-0.2l2-5.9l2.1,5.8C27.1,106.8,26,106.9,24.9,106.7z"/>
<path class="st4" d="M31.9,97.2c0,0.1,0,0.3,0,0.4c-0.1,0.6-0.2,1.2-0.4,1.8c-0.2,0.5-0.4,1-0.5,1.5c-0.1,0.2-0.2,0.5-0.3,1
	c-0.2,0.5-0.3,1-0.5,1.5c-0.2,0.5-0.3,1-0.5,1.5c-0.2,0.5-0.3,0.8-0.3,1c0.5-0.3,1-0.7,1.4-1.1c0.4-0.4,0.8-0.9,1.1-1.4
	c0.3-0.5,0.5-1.1,0.7-1.6c0.5-1.7,0.3-3.5-0.5-5C31.9,96.9,31.9,97.1,31.9,97.2z"/>
<path class="st4" d="M30.1,101.4c-0.1,0.3-0.2,0.6-0.3,1.1c-0.1,0.4-0.3,1-0.5,1.6l-2.4-7.3c0.1,0,0.2,0,0.4,0c0.1,0,0.3,0,0.4,0
	c0.2,0,0.3-0.1,0.3-0.3c0-0.1-0.1-0.1-0.1-0.2c-0.1,0-0.1-0.1-0.2-0.1c-0.7,0-1.2,0.1-1.5,0.1c-0.4,0-0.7,0-1.1,0l-0.7-0.1l-0.3,0
	c0,0-0.1,0-0.1,0s-0.1,0-0.1,0c-0.1,0-0.1,0.1-0.1,0.2c0,0,0,0.1,0,0.1c0,0,0,0.1,0,0.1c0,0.1,0.1,0.1,0.2,0.1c0,0,0.1,0,0.2,0
	c0.1,0,0.3,0,0.5,0.1l1.1,2.9l-1.5,4.4l-2.5-7.3c0.1,0,0.3,0,0.4,0c0.1,0,0.3,0,0.4,0c0.2,0,0.3-0.1,0.3-0.3c0-0.1-0.1-0.1-0.1-0.2
	c-0.1,0-0.1-0.1-0.2-0.1c-0.4,0.1-0.8,0.1-1.2,0.1c-0.4,0-0.7,0-1,0c0.6-0.9,1.4-1.7,2.4-2.2c1-0.6,2.1-0.8,3.2-0.8
	c0.9,0,1.7,0.2,2.5,0.5c0.8,0.3,1.5,0.8,2.1,1.3c-0.2,0-0.4,0-0.6,0.1c-0.2,0.1-0.4,0.3-0.5,0.5c-0.1,0.2-0.1,0.5-0.1,0.7
	c0,0.3,0.1,0.5,0.2,0.7c0.1,0.2,0.2,0.5,0.4,0.7c0.1,0.2,0.2,0.4,0.3,0.5c0.2,0.3,0.3,0.7,0.3,1c0,0.4,0,0.9-0.2,1.3
	C30.2,100.8,30.2,101,30.1,101.4z"/>
<path class="st5" d="M33.2,96.9c-0.4-1-1-1.8-1.7-2.5c-0.7-0.7-1.6-1.3-2.5-1.7c-1-0.4-2-0.6-3.1-0.6c-1.1,0-2.1,0.2-3.1,0.6
	c-1.9,0.8-3.4,2.3-4.2,4.3c-0.4,1-0.6,2-0.6,3.1c0,1.1,0.2,2.1,0.6,3.1c0.4,1,1,1.8,1.7,2.6c0.7,0.7,1.6,1.3,2.5,1.7
	c1,0.4,2,0.6,3.1,0.6c1.1,0,2.1-0.2,3.1-0.6c1.9-0.8,3.4-2.3,4.2-4.3c0.4-1,0.6-2,0.6-3.1C33.8,98.9,33.6,97.9,33.2,96.9L33.2,96.9z
	 M32.7,102.9c-0.8,1.8-2.2,3.2-3.9,4c-0.9,0.4-1.9,0.6-2.9,0.6c-1,0-2-0.2-2.9-0.6c-1.8-0.8-3.2-2.2-3.9-4c-0.4-0.9-0.6-1.9-0.6-2.9
	c0-1,0.2-2,0.6-2.9c0.4-0.9,0.9-1.7,1.6-2.4c0.7-0.7,1.5-1.2,2.3-1.6c0.9-0.4,1.9-0.6,2.9-0.6c1,0,2,0.2,2.9,0.6
	c0.9,0.4,1.7,0.9,2.3,1.6c0.7,0.7,1.2,1.5,1.6,2.4c0.4,0.9,0.6,1.9,0.6,2.9S33.1,102,32.7,102.9z"/>
<path class="st6" d="M36,142c0.3,0,0.5,0.2,0.5,0.5v2c0,0.3-0.2,0.5-0.5,0.5s-0.5-0.2-0.5-0.5v-2C35.5,142.2,35.7,142,36,142z"/>
<path class="st7" d="M33.5,137c0-2.8,2.2-5,5-5s5,2.2,5,5v0.1c0.6,0.2,1,0.8,1,1.4v7c0,0.8-0.7,1.5-1.5,1.5h-9
	c-0.8,0-1.5-0.7-1.5-1.5v-7C32.5,137.8,32.9,137.3,33.5,137L33.5,137z M38.5,133c2.2,0,4,1.8,4,4h-8C34.5,134.8,36.3,133,38.5,133z
	 M34,138h9c0.3,0,0.5,0.2,0.5,0.5v7c0,0.3-0.2,0.5-0.5,0.5h-3.5v-6h-6v-1.5C33.5,138.2,33.7,138,34,138z M33.5,141v4.5
	c0,0.3,0.2,0.5,0.5,0.5h4.5v-5H33.5z"/>
<path class="st6" d="M25.3,141.6c-0.5,0-0.9,0.2-1.2,0.5c-0.3,0.3-0.5,0.8-0.5,1.2v2.9c0,0.3,0.2,0.5,0.5,0.5s0.5-0.2,0.5-0.5v-2.9
	c0-0.2,0.1-0.4,0.2-0.5c0.1-0.1,0.3-0.2,0.5-0.2H31c0.3,0,0.5-0.2,0.5-0.5c0-0.3-0.2-0.5-0.5-0.5H25.3z"/>
<path class="st6" d="M46,141.6c-0.3,0-0.5,0.2-0.5,0.5c0,0.3,0.2,0.5,0.5,0.5h5.2c0.2,0,0.4,0.1,0.5,0.2c0.1,0.1,0.2,0.3,0.2,0.5
	v5.8c0,0.2-0.1,0.4-0.2,0.5c-0.1,0.1-0.3,0.2-0.5,0.2H34c-0.3,0-0.5,0.2-0.5,0.5s0.2,0.5,0.5,0.5h17.2h0c0.5,0,0.9-0.2,1.2-0.5
	c0.3-0.3,0.5-0.8,0.5-1.2v0v-5.8c0-0.5-0.2-0.9-0.5-1.2c-0.3-0.3-0.8-0.5-1.2-0.5H46z"/>
<path class="st6" d="M34.2,152c-0.3,0-0.5,0.2-0.5,0.5s0.2,0.5,0.5,0.5h17c0.2,0,0.4,0.1,0.5,0.2c0.1,0.1,0.2,0.3,0.2,0.5v5.8
	c0,0.2-0.1,0.4-0.2,0.5c-0.1,0.1-0.3,0.2-0.5,0.2h-18c-0.3,0-0.5,0.2-0.5,0.5c0,0.3,0.2,0.5,0.5,0.5h18c0.5,0,0.9-0.2,1.2-0.5
	c0.3-0.3,0.5-0.8,0.5-1.2v-5.8c0-0.5-0.2-0.9-0.5-1.2c-0.3-0.3-0.8-0.5-1.2-0.5H34.2z"/>
<path class="st6" d="M42,157.5c-0.2,0-0.3-0.1-0.5-0.1c-0.1-0.1-0.3-0.2-0.3-0.4c-0.1-0.2-0.1-0.3,0-0.5c0-0.2,0.1-0.3,0.2-0.4
	c0.1-0.1,0.3-0.2,0.4-0.2c0.2,0,0.3,0,0.5,0c0.2,0.1,0.3,0.2,0.4,0.3c0.1,0.1,0.1,0.3,0.1,0.5c0,0.1,0,0.2-0.1,0.3
	c0,0.1-0.1,0.2-0.2,0.3c-0.1,0.1-0.2,0.1-0.3,0.2C42.2,157.5,42.1,157.5,42,157.5z"/>
<path class="st6" d="M45.3,157.5c-0.2,0-0.3-0.1-0.5-0.1c-0.1-0.1-0.3-0.2-0.3-0.4c-0.1-0.2-0.1-0.3,0-0.5c0-0.2,0.1-0.3,0.2-0.4
	s0.3-0.2,0.4-0.2c0.2,0,0.3,0,0.5,0c0.2,0.1,0.3,0.2,0.4,0.3c0.1,0.1,0.1,0.3,0.1,0.5c0,0.1,0,0.2-0.1,0.3c0,0.1-0.1,0.2-0.2,0.3
	c-0.1,0.1-0.2,0.1-0.3,0.2C45.5,157.5,45.4,157.5,45.3,157.5z"/>
<path class="st6" d="M48.4,157.5c-0.2,0-0.3-0.1-0.5-0.1c-0.1-0.1-0.3-0.2-0.3-0.4s-0.1-0.3,0-0.5c0-0.2,0.1-0.3,0.2-0.4
	s0.3-0.2,0.4-0.2c0.2,0,0.3,0,0.5,0c0.2,0.1,0.3,0.2,0.4,0.3c0.1,0.1,0.1,0.3,0.1,0.5c0,0.1,0,0.2-0.1,0.3c0,0.1-0.1,0.2-0.2,0.3
	c-0.1,0.1-0.2,0.1-0.3,0.2C48.7,157.5,48.6,157.5,48.4,157.5z"/>
<path class="st6" d="M19.2,155.5c0,0.7,0.1,1.3,0.3,1.9c0.2,0.6,0.4,1.2,0.8,1.7c0.3,0.5,0.7,1,1.2,1.4c0.5,0.4,1,0.8,1.5,1
	l-3.2-8.8C19.4,153.6,19.2,154.6,19.2,155.5z"/>
<path class="st6" d="M24.9,162.2c-0.3,0-0.6-0.1-0.9-0.2l2-5.9l2.1,5.8C27.1,162.3,26,162.4,24.9,162.2z"/>
<path class="st6" d="M31.9,152.7c0,0.1,0,0.3,0,0.4c-0.1,0.6-0.2,1.2-0.4,1.8c-0.2,0.5-0.4,1-0.5,1.5c-0.1,0.2-0.2,0.5-0.3,1
	c-0.2,0.5-0.3,1-0.5,1.5c-0.2,0.5-0.3,1-0.5,1.5c-0.2,0.5-0.3,0.8-0.3,1c0.5-0.3,1-0.7,1.4-1.1c0.4-0.4,0.8-0.9,1.1-1.4
	c0.3-0.5,0.5-1.1,0.7-1.6c0.5-1.7,0.3-3.5-0.5-5C31.9,152.4,31.9,152.6,31.9,152.7z"/>
<path class="st6" d="M30.1,156.9c-0.1,0.3-0.2,0.6-0.3,1.1c-0.1,0.4-0.3,1-0.5,1.6l-2.4-7.3c0.1,0,0.2,0,0.4,0c0.1,0,0.3,0,0.4,0
	c0.2,0,0.3-0.1,0.3-0.3c0-0.1-0.1-0.1-0.1-0.2c-0.1,0-0.1-0.1-0.2-0.1c-0.7,0-1.2,0.1-1.5,0.1c-0.4,0-0.7,0-1.1,0l-0.7-0.1l-0.3,0
	c0,0-0.1,0-0.1,0c0,0-0.1,0-0.1,0c-0.1,0-0.1,0.1-0.1,0.2c0,0,0,0.1,0,0.1c0,0,0,0.1,0,0.1c0,0.1,0.1,0.1,0.2,0.1c0,0,0.1,0,0.2,0
	c0.1,0,0.3,0,0.5,0.1l1.1,2.9l-1.5,4.4l-2.5-7.3c0.1,0,0.3,0,0.4,0c0.1,0,0.3,0,0.4,0c0.2,0,0.3-0.1,0.3-0.3c0-0.1-0.1-0.1-0.1-0.2
	c-0.1,0-0.1-0.1-0.2-0.1c-0.4,0.1-0.8,0.1-1.2,0.1c-0.4,0-0.7,0-1,0c0.6-0.9,1.4-1.7,2.4-2.2c1-0.6,2.1-0.8,3.2-0.8
	c0.9,0,1.7,0.2,2.5,0.5c0.8,0.3,1.5,0.8,2.1,1.3c-0.2,0-0.4,0-0.6,0.1c-0.2,0.1-0.4,0.3-0.5,0.5c-0.1,0.2-0.1,0.5-0.1,0.7
	c0,0.3,0.1,0.5,0.2,0.8c0.1,0.2,0.2,0.5,0.4,0.7c0.1,0.2,0.2,0.4,0.3,0.5c0.2,0.3,0.3,0.7,0.3,1c0,0.4,0,0.9-0.2,1.3
	C30.2,156.3,30.2,156.5,30.1,156.9z"/>
<path class="st7" d="M33.2,152.4c-0.4-0.9-1-1.8-1.7-2.5c-0.7-0.7-1.6-1.3-2.5-1.7c-1-0.4-2-0.6-3.1-0.6c-1.1,0-2.1,0.2-3.1,0.6
	c-1.9,0.8-3.4,2.3-4.2,4.3c-0.4,1-0.6,2-0.6,3.1c0,1.1,0.2,2.1,0.6,3.1c0.4,0.9,1,1.8,1.7,2.5c0.7,0.7,1.6,1.3,2.5,1.7
	c1,0.4,2,0.6,3.1,0.6c1.1,0,2.1-0.2,3.1-0.6c1.9-0.8,3.4-2.3,4.2-4.3c0.4-1,0.6-2,0.6-3.1C33.8,154.4,33.6,153.4,33.2,152.4
	L33.2,152.4z M32.7,158.4c-0.8,1.8-2.2,3.2-3.9,4c-0.9,0.4-1.9,0.6-2.9,0.6c-1,0-2-0.2-2.9-0.6c-1.8-0.8-3.2-2.2-3.9-4
	c-0.4-0.9-0.6-1.9-0.6-2.9c0-1,0.2-2,0.6-2.9c0.4-0.9,0.9-1.7,1.6-2.4c0.7-0.7,1.5-1.2,2.3-1.6c0.9-0.4,1.9-0.6,2.9-0.6
	c1,0,2,0.2,2.9,0.6c0.9,0.4,1.7,0.9,2.3,1.6c0.7,0.7,1.2,1.5,1.6,2.4c0.4,0.9,0.6,1.9,0.6,2.9C33.3,156.5,33.1,157.5,32.7,158.4z"/>
<path class="st8" d="M36,198.5c0.3,0,0.5,0.2,0.5,0.5v2c0,0.3-0.2,0.5-0.5,0.5s-0.5-0.2-0.5-0.5v-2C35.5,198.7,35.7,198.5,36,198.5z
	"/>
<path class="st9" d="M33.5,193.5c0-2.8,2.2-5,5-5s5,2.2,5,5v0.1c0.6,0.2,1,0.8,1,1.4v7c0,0.8-0.7,1.5-1.5,1.5h-9
	c-0.8,0-1.5-0.7-1.5-1.5v-7C32.5,194.3,32.9,193.8,33.5,193.5L33.5,193.5z M38.5,189.5c2.2,0,4,1.8,4,4h-8
	C34.5,191.3,36.3,189.5,38.5,189.5z M34,194.5h9c0.3,0,0.5,0.2,0.5,0.5v7c0,0.3-0.2,0.5-0.5,0.5h-3.5v-6h-6V195
	C33.5,194.7,33.7,194.5,34,194.5z M33.5,197.5v4.5c0,0.3,0.2,0.5,0.5,0.5h4.5v-5H33.5z"/>
<path class="st8" d="M25.3,198.1c-0.5,0-0.9,0.2-1.2,0.5c-0.3,0.3-0.5,0.8-0.5,1.2v2.9c0,0.3,0.2,0.5,0.5,0.5s0.5-0.2,0.5-0.5v-2.9
	c0-0.2,0.1-0.4,0.2-0.5c0.1-0.1,0.3-0.2,0.5-0.2H31c0.3,0,0.5-0.2,0.5-0.5c0-0.3-0.2-0.5-0.5-0.5H25.3z"/>
<path class="st8" d="M46,198.1c-0.3,0-0.5,0.2-0.5,0.5c0,0.3,0.2,0.5,0.5,0.5h5.2c0.2,0,0.4,0.1,0.5,0.2c0.1,0.1,0.2,0.3,0.2,0.5
	v5.8c0,0.2-0.1,0.4-0.2,0.5c-0.1,0.1-0.3,0.2-0.5,0.2H34c-0.3,0-0.5,0.2-0.5,0.5s0.2,0.5,0.5,0.5h17.2h0c0.5,0,0.9-0.2,1.2-0.5
	c0.3-0.3,0.5-0.8,0.5-1.2v0v-5.8c0-0.5-0.2-0.9-0.5-1.2c-0.3-0.3-0.8-0.5-1.2-0.5H46z"/>
<path class="st8" d="M34.2,208.5c-0.3,0-0.5,0.2-0.5,0.5s0.2,0.5,0.5,0.5h17c0.2,0,0.4,0.1,0.5,0.2c0.1,0.1,0.2,0.3,0.2,0.5v5.8
	c0,0.2-0.1,0.4-0.2,0.5c-0.1,0.1-0.3,0.2-0.5,0.2h-18c-0.3,0-0.5,0.2-0.5,0.5c0,0.3,0.2,0.5,0.5,0.5h18c0.5,0,0.9-0.2,1.2-0.5
	c0.3-0.3,0.5-0.8,0.5-1.2v-5.8c0-0.5-0.2-0.9-0.5-1.2c-0.3-0.3-0.8-0.5-1.2-0.5H34.2z"/>
<path class="st8" d="M42,214c-0.2,0-0.3-0.1-0.5-0.1c-0.1-0.1-0.3-0.2-0.3-0.4c-0.1-0.2-0.1-0.3,0-0.5c0-0.2,0.1-0.3,0.2-0.4
	c0.1-0.1,0.3-0.2,0.4-0.2c0.2,0,0.3,0,0.5,0c0.2,0.1,0.3,0.2,0.4,0.3c0.1,0.1,0.1,0.3,0.1,0.5c0,0.1,0,0.2-0.1,0.3
	c0,0.1-0.1,0.2-0.2,0.3c-0.1,0.1-0.2,0.1-0.3,0.2C42.2,214,42.1,214,42,214z"/>
<path class="st8" d="M45.3,214c-0.2,0-0.3-0.1-0.5-0.1c-0.1-0.1-0.3-0.2-0.3-0.4c-0.1-0.2-0.1-0.3,0-0.5c0-0.2,0.1-0.3,0.2-0.4
	s0.3-0.2,0.4-0.2c0.2,0,0.3,0,0.5,0c0.2,0.1,0.3,0.2,0.4,0.3c0.1,0.1,0.1,0.3,0.1,0.5c0,0.1,0,0.2-0.1,0.3c0,0.1-0.1,0.2-0.2,0.3
	c-0.1,0.1-0.2,0.1-0.3,0.2C45.5,214,45.4,214,45.3,214z"/>
<path class="st8" d="M48.4,214c-0.2,0-0.3-0.1-0.5-0.1c-0.1-0.1-0.3-0.2-0.3-0.4s-0.1-0.3,0-0.5c0-0.2,0.1-0.3,0.2-0.4
	s0.3-0.2,0.4-0.2c0.2,0,0.3,0,0.5,0c0.2,0.1,0.3,0.2,0.4,0.3c0.1,0.1,0.1,0.3,0.1,0.5c0,0.1,0,0.2-0.1,0.3c0,0.1-0.1,0.2-0.2,0.3
	c-0.1,0.1-0.2,0.1-0.3,0.2C48.7,214,48.6,214,48.4,214z"/>
<path class="st8" d="M19.2,212c0,0.7,0.1,1.3,0.3,1.9c0.2,0.6,0.4,1.2,0.8,1.7c0.3,0.5,0.7,1,1.2,1.4c0.5,0.4,1,0.8,1.5,1l-3.2-8.8
	C19.4,210.1,19.2,211.1,19.2,212z"/>
<path class="st8" d="M24.9,218.7c-0.3,0-0.6-0.1-0.9-0.2l2-5.9l2.1,5.8C27.1,218.8,26,218.9,24.9,218.7z"/>
<path class="st8" d="M31.9,209.2c0,0.1,0,0.3,0,0.4c-0.1,0.6-0.2,1.2-0.4,1.8c-0.2,0.5-0.4,1-0.5,1.5c-0.1,0.2-0.2,0.5-0.3,1
	c-0.2,0.5-0.3,1-0.5,1.5c-0.2,0.5-0.3,1-0.5,1.5c-0.2,0.5-0.3,0.8-0.3,1c0.5-0.3,1-0.7,1.4-1.1c0.4-0.4,0.8-0.9,1.1-1.4
	c0.3-0.5,0.5-1.1,0.7-1.6c0.5-1.7,0.3-3.5-0.5-5C31.9,208.9,31.9,209.1,31.9,209.2z"/>
<path class="st8" d="M30.1,213.4c-0.1,0.3-0.2,0.6-0.3,1.1c-0.1,0.4-0.3,1-0.5,1.6l-2.4-7.3c0.1,0,0.2,0,0.4,0c0.1,0,0.3,0,0.4,0
	c0.2,0,0.3-0.1,0.3-0.3c0-0.1-0.1-0.1-0.1-0.2c-0.1,0-0.1-0.1-0.2-0.1c-0.7,0-1.2,0.1-1.5,0.1c-0.4,0-0.7,0-1.1,0l-0.7-0.1l-0.3,0
	c0,0-0.1,0-0.1,0c0,0-0.1,0-0.1,0c-0.1,0-0.1,0.1-0.1,0.2c0,0,0,0.1,0,0.1c0,0,0,0.1,0,0.1c0,0.1,0.1,0.1,0.2,0.1c0,0,0.1,0,0.2,0
	c0.1,0,0.3,0,0.5,0.1l1.1,2.9l-1.5,4.4l-2.5-7.3c0.1,0,0.3,0,0.4,0c0.1,0,0.3,0,0.4,0c0.2,0,0.3-0.1,0.3-0.3c0-0.1-0.1-0.1-0.1-0.2
	c-0.1,0-0.1-0.1-0.2-0.1c-0.4,0.1-0.8,0.1-1.2,0.1c-0.4,0-0.7,0-1,0c0.6-0.9,1.4-1.7,2.4-2.2c1-0.6,2.1-0.8,3.2-0.8
	c0.9,0,1.7,0.2,2.5,0.5c0.8,0.3,1.5,0.8,2.1,1.3c-0.2,0-0.4,0-0.6,0.1c-0.2,0.1-0.4,0.3-0.5,0.5c-0.1,0.2-0.1,0.5-0.1,0.7
	c0,0.3,0.1,0.5,0.2,0.8c0.1,0.2,0.2,0.5,0.4,0.7c0.1,0.2,0.2,0.4,0.3,0.5c0.2,0.3,0.3,0.7,0.3,1c0,0.4,0,0.9-0.2,1.3
	C30.2,212.8,30.2,213,30.1,213.4z"/>
<path class="st9" d="M33.2,208.9c-0.4-0.9-1-1.8-1.7-2.5c-0.7-0.7-1.6-1.3-2.5-1.7c-1-0.4-2-0.6-3.1-0.6c-1.1,0-2.1,0.2-3.1,0.6
	c-1.9,0.8-3.4,2.3-4.2,4.3c-0.4,1-0.6,2-0.6,3.1c0,1.1,0.2,2.1,0.6,3.1c0.4,0.9,1,1.8,1.7,2.5c0.7,0.7,1.6,1.3,2.5,1.7
	c1,0.4,2,0.6,3.1,0.6c1.1,0,2.1-0.2,3.1-0.6c1.9-0.8,3.4-2.3,4.2-4.3c0.4-1,0.6-2,0.6-3.1C33.8,210.9,33.6,209.9,33.2,208.9
	L33.2,208.9z M32.7,214.9c-0.8,1.8-2.2,3.2-3.9,4c-0.9,0.4-1.9,0.6-2.9,0.6c-1,0-2-0.2-2.9-0.6c-1.8-0.8-3.2-2.2-3.9-4
	c-0.4-0.9-0.6-1.9-0.6-2.9c0-1,0.2-2,0.6-2.9c0.4-0.9,0.9-1.7,1.6-2.4c0.7-0.7,1.5-1.2,2.3-1.6c0.9-0.4,1.9-0.6,2.9-0.6
	c1,0,2,0.2,2.9,0.6c0.9,0.4,1.7,0.9,2.3,1.6c0.7,0.7,1.2,1.5,1.6,2.4c0.4,0.9,0.6,1.9,0.6,2.9C33.3,213,33.1,214,32.7,214.9z"/>
<radialGradient id="SVGID_3_" cx="-254.871" cy="588.5942" r="1" gradientTransform="matrix(9.491013e-16 15.5 17.25 -1.056258e-15 -10118 4211)" gradientUnits="userSpaceOnUse">
	<stop  offset="0" style="stop-color:#434F58"/>
	<stop  offset="1" style="stop-color:#434F58;stop-opacity:0"/>
</radialGradient>
<path class="st10" d="M38.3,245c-2.6,0-4.8,2.1-4.8,4.8v0.1c-0.6,0.2-1,0.7-1,1.4v3h-6.9c-0.4,0-0.9,0.2-1.2,0.5
	c-0.3,0.3-0.5,0.7-0.5,1.2v4.4c-0.4,0.1-0.8,0.2-1.2,0.4c-1.9,0.8-3.4,2.3-4.2,4.3c-0.4,1-0.6,2-0.6,3.1s0.2,2.1,0.6,3.1
	c0.4,0.9,1,1.8,1.7,2.5c0.7,0.7,1.6,1.3,2.5,1.7c1,0.4,2,0.6,3.1,0.6c1.1,0,2.1-0.2,3.1-0.6c1.2-0.5,2.3-1.3,3.1-2.4h18.8
	c0.4,0,0.9-0.2,1.2-0.5c0.3-0.3,0.5-0.7,0.5-1.2v-5.6c0-0.5,0-1,0-1.5c0-0.9,0-1.8,0-2.9l-0.5-5.6c0-0.4-0.2-0.9-0.5-1.2
	c-0.3-0.3-0.7-0.5-1.2-0.5H44v-3c0-0.6-0.4-1.2-1-1.4v-0.1C43,247.1,40.9,245,38.3,245z"/>
<path class="st8" d="M36,254.5c0.3,0,0.5,0.2,0.5,0.5v2c0,0.3-0.2,0.5-0.5,0.5s-0.5-0.2-0.5-0.5v-2C35.5,254.7,35.7,254.5,36,254.5z
	"/>
<path class="st9" d="M33.5,249.5c0-2.8,2.2-5,5-5s5,2.2,5,5v0.1c0.6,0.2,1,0.8,1,1.4v7c0,0.8-0.7,1.5-1.5,1.5h-9
	c-0.8,0-1.5-0.7-1.5-1.5v-7C32.5,250.3,32.9,249.8,33.5,249.5L33.5,249.5z M38.5,245.5c2.2,0,4,1.8,4,4h-8
	C34.5,247.3,36.3,245.5,38.5,245.5z M34,250.5h9c0.3,0,0.5,0.2,0.5,0.5v7c0,0.3-0.2,0.5-0.5,0.5h-3.5v-6h-6V251
	C33.5,250.7,33.7,250.5,34,250.5z M33.5,253.5v4.5c0,0.3,0.2,0.5,0.5,0.5h4.5v-5H33.5z"/>
<path class="st8" d="M25.3,254.1c-0.5,0-0.9,0.2-1.2,0.5c-0.3,0.3-0.5,0.8-0.5,1.2v2.9c0,0.3,0.2,0.5,0.5,0.5s0.5-0.2,0.5-0.5v-2.9
	c0-0.2,0.1-0.4,0.2-0.5c0.1-0.1,0.3-0.2,0.5-0.2H31c0.3,0,0.5-0.2,0.5-0.5c0-0.3-0.2-0.5-0.5-0.5H25.3z"/>
<path class="st8" d="M46,254.1c-0.3,0-0.5,0.2-0.5,0.5c0,0.3,0.2,0.5,0.5,0.5h5.2c0.2,0,0.4,0.1,0.5,0.2c0.1,0.1,0.2,0.3,0.2,0.5
	v5.8c0,0.2-0.1,0.4-0.2,0.5c-0.1,0.1-0.3,0.2-0.5,0.2H34c-0.3,0-0.5,0.2-0.5,0.5s0.2,0.5,0.5,0.5h17.2h0c0.5,0,0.9-0.2,1.2-0.5
	s0.5-0.8,0.5-1.2v0v-5.8c0-0.5-0.2-0.9-0.5-1.2c-0.3-0.3-0.8-0.5-1.2-0.5H46z"/>
<path class="st8" d="M34.2,264.5c-0.3,0-0.5,0.2-0.5,0.5s0.2,0.5,0.5,0.5h17c0.2,0,0.4,0.1,0.5,0.2c0.1,0.1,0.2,0.3,0.2,0.5v5.8
	c0,0.2-0.1,0.4-0.2,0.5c-0.1,0.1-0.3,0.2-0.5,0.2h-18c-0.3,0-0.5,0.2-0.5,0.5c0,0.3,0.2,0.5,0.5,0.5h18c0.5,0,0.9-0.2,1.2-0.5
	c0.3-0.3,0.5-0.8,0.5-1.2v-5.8c0-0.5-0.2-0.9-0.5-1.2c-0.3-0.3-0.8-0.5-1.2-0.5H34.2z"/>
<path class="st8" d="M42,270c-0.2,0-0.3,0-0.5-0.1c-0.1-0.1-0.3-0.2-0.3-0.4c-0.1-0.2-0.1-0.3,0-0.5c0-0.2,0.1-0.3,0.2-0.4
	c0.1-0.1,0.3-0.2,0.4-0.2c0.2,0,0.3,0,0.5,0c0.2,0.1,0.3,0.2,0.4,0.3c0.1,0.1,0.1,0.3,0.1,0.5c0,0.1,0,0.2-0.1,0.3
	c0,0.1-0.1,0.2-0.2,0.3c-0.1,0.1-0.2,0.1-0.3,0.2C42.2,270,42.1,270,42,270z"/>
<path class="st8" d="M45.3,270c-0.2,0-0.3-0.1-0.5-0.1c-0.1-0.1-0.3-0.2-0.3-0.4c-0.1-0.2-0.1-0.3,0-0.5c0-0.2,0.1-0.3,0.2-0.4
	s0.3-0.2,0.4-0.2c0.2,0,0.3,0,0.5,0c0.2,0.1,0.3,0.2,0.4,0.3c0.1,0.1,0.1,0.3,0.1,0.5c0,0.1,0,0.2-0.1,0.3c0,0.1-0.1,0.2-0.2,0.3
	c-0.1,0.1-0.2,0.1-0.3,0.2C45.5,270,45.4,270,45.3,270z"/>
<path class="st8" d="M48.4,270c-0.2,0-0.3-0.1-0.5-0.1c-0.1-0.1-0.3-0.2-0.3-0.4s-0.1-0.3,0-0.5c0-0.2,0.1-0.3,0.2-0.4
	s0.3-0.2,0.4-0.2c0.2,0,0.3,0,0.5,0c0.2,0.1,0.3,0.2,0.4,0.3c0.1,0.1,0.1,0.3,0.1,0.5c0,0.1,0,0.2-0.1,0.3c0,0.1-0.1,0.2-0.2,0.3
	c-0.1,0.1-0.2,0.1-0.3,0.2C48.7,270,48.6,270,48.4,270z"/>
<path class="st8" d="M19.2,268c0,0.7,0.1,1.3,0.3,1.9c0.2,0.6,0.4,1.2,0.8,1.7c0.3,0.5,0.7,1,1.2,1.4c0.5,0.4,1,0.8,1.5,1l-3.2-8.9
	C19.4,266.1,19.2,267.1,19.2,268z"/>
<path class="st8" d="M24.9,274.7c-0.3,0-0.6-0.1-0.9-0.2l2-5.9l2.1,5.8C27.1,274.8,26,274.9,24.9,274.7z"/>
<path class="st8" d="M31.9,265.2c0,0.1,0,0.3,0,0.4c-0.1,0.6-0.2,1.2-0.4,1.8c-0.2,0.5-0.4,1-0.5,1.5c-0.1,0.2-0.2,0.5-0.3,1
	c-0.2,0.5-0.3,1-0.5,1.5c-0.2,0.5-0.3,1-0.5,1.5c-0.2,0.5-0.3,0.8-0.3,1c0.5-0.3,1-0.7,1.4-1.1c0.4-0.4,0.8-0.9,1.1-1.4
	c0.3-0.5,0.5-1.1,0.7-1.6c0.5-1.7,0.3-3.5-0.5-5C31.9,264.9,31.9,265.1,31.9,265.2z"/>
<path class="st8" d="M30.1,269.4c-0.1,0.3-0.2,0.6-0.3,1.1c-0.1,0.4-0.3,1-0.5,1.6l-2.4-7.3c0.1,0,0.2,0,0.4,0c0.1,0,0.3,0,0.4,0
	c0.2,0,0.3-0.1,0.3-0.3c0-0.1-0.1-0.1-0.1-0.2c-0.1,0-0.1-0.1-0.2-0.1c-0.7,0-1.2,0.1-1.5,0.1c-0.4,0-0.7,0-1.1,0l-0.7-0.1l-0.3,0
	c0,0-0.1,0-0.1,0c0,0-0.1,0-0.1,0c-0.1,0-0.1,0.1-0.1,0.2c0,0,0,0.1,0,0.1c0,0,0,0.1,0,0.1c0,0.1,0.1,0.1,0.2,0.1c0,0,0.1,0,0.2,0
	c0.1,0,0.3,0,0.5,0.1l1.1,2.9l-1.5,4.4l-2.5-7.3c0.1,0,0.3,0,0.4,0c0.1,0,0.3,0,0.4,0c0.2,0,0.3-0.1,0.3-0.3c0-0.1-0.1-0.1-0.1-0.2
	c-0.1,0-0.1-0.1-0.2-0.1c-0.4,0.1-0.8,0.1-1.2,0.1c-0.4,0-0.7,0-1,0c0.6-0.9,1.4-1.7,2.4-2.2c1-0.6,2.1-0.8,3.2-0.8
	c0.9,0,1.7,0.2,2.5,0.5c0.8,0.3,1.5,0.8,2.1,1.3c-0.2,0-0.4,0-0.6,0.1c-0.2,0.1-0.4,0.3-0.5,0.5c-0.1,0.2-0.1,0.5-0.1,0.7
	c0,0.3,0.1,0.5,0.2,0.8c0.1,0.2,0.2,0.5,0.4,0.7c0.1,0.2,0.2,0.4,0.3,0.5c0.2,0.3,0.3,0.7,0.3,1c0,0.4,0,0.9-0.2,1.3
	C30.2,268.8,30.2,269,30.1,269.4z"/>
<path class="st9" d="M33.2,264.9c-0.4-0.9-1-1.8-1.7-2.5c-0.7-0.7-1.6-1.3-2.5-1.7c-1-0.4-2-0.6-3.1-0.6c-1.1,0-2.1,0.2-3.1,0.6
	c-1.9,0.8-3.4,2.3-4.2,4.3c-0.4,1-0.6,2-0.6,3.1s0.2,2.1,0.6,3.1c0.4,0.9,1,1.8,1.7,2.5c0.7,0.7,1.6,1.3,2.5,1.7
	c1,0.4,2,0.6,3.1,0.6c1.1,0,2.1-0.2,3.1-0.6c1.9-0.8,3.4-2.3,4.2-4.3c0.4-1,0.6-2,0.6-3.1S33.6,265.9,33.2,264.9L33.2,264.9z
	 M32.7,270.9c-0.8,1.8-2.2,3.2-3.9,4c-0.9,0.4-1.9,0.6-2.9,0.6c-1,0-2-0.2-2.9-0.6c-1.8-0.8-3.2-2.2-3.9-4c-0.4-0.9-0.6-1.9-0.6-2.9
	c0-1,0.2-2,0.6-2.9c0.4-0.9,0.9-1.7,1.6-2.4c0.7-0.7,1.5-1.2,2.3-1.6c0.9-0.4,1.9-0.6,2.9-0.6c1,0,2,0.2,2.9,0.6
	c0.9,0.4,1.7,0.9,2.3,1.6c0.7,0.7,1.2,1.5,1.6,2.4c0.4,0.9,0.6,1.9,0.6,2.9C33.3,269,33.1,270,32.7,270.9z"/>
<radialGradient id="SVGID_4_" cx="-254.871" cy="588.5942" r="1" gradientTransform="matrix(9.491013e-16 15.5 17.25 -1.056258e-15 -10118 4267)" gradientUnits="userSpaceOnUse">
	<stop  offset="0" style="stop-color:#677983"/>
	<stop  offset="1" style="stop-color:#677983;stop-opacity:0"/>
</radialGradient>
<path class="st11" d="M38.3,301c-2.6,0-4.8,2.1-4.8,4.8v0.1c-0.6,0.2-1,0.7-1,1.4v3h-6.9c-0.4,0-0.9,0.2-1.2,0.5s-0.5,0.7-0.5,1.2
	v4.4c-0.4,0.1-0.8,0.2-1.2,0.4c-1.9,0.8-3.4,2.3-4.2,4.3c-0.4,1-0.6,2-0.6,3.1s0.2,2.1,0.6,3.1c0.4,0.9,1,1.8,1.7,2.5
	c0.7,0.7,1.6,1.3,2.5,1.7c1,0.4,2,0.6,3.1,0.6c1.1,0,2.1-0.2,3.1-0.6c1.2-0.5,2.3-1.3,3.1-2.4h18.8c0.4,0,0.9-0.2,1.2-0.5
	c0.3-0.3,0.5-0.7,0.5-1.2v-5.6c0-0.5,0-1,0-1.5c0-0.9,0-1.8,0-2.9l-0.5-5.6c0-0.4-0.2-0.9-0.5-1.2c-0.3-0.3-0.7-0.5-1.2-0.5H44v-3
	c0-0.6-0.4-1.2-1-1.4v-0.1C43,303.1,40.9,301,38.3,301z"/>
<path class="st12" d="M36,310c0.3,0,0.5,0.2,0.5,0.5v2c0,0.3-0.2,0.5-0.5,0.5s-0.5-0.2-0.5-0.5v-2C35.5,310.2,35.7,310,36,310z"/>
<path class="st13" d="M33.5,305c0-2.8,2.2-5,5-5s5,2.2,5,5v0.1c0.6,0.2,1,0.8,1,1.4v7c0,0.8-0.7,1.5-1.5,1.5h-9
	c-0.8,0-1.5-0.7-1.5-1.5v-7C32.5,305.8,32.9,305.3,33.5,305L33.5,305z M38.5,301c2.2,0,4,1.8,4,4h-8C34.5,302.8,36.3,301,38.5,301z
	 M34,306h9c0.3,0,0.5,0.2,0.5,0.5v7c0,0.3-0.2,0.5-0.5,0.5h-3.5v-6h-6v-1.5C33.5,306.2,33.7,306,34,306z M33.5,309v4.5
	c0,0.3,0.2,0.5,0.5,0.5h4.5v-5H33.5z"/>
<path class="st12" d="M25.3,309.6c-0.5,0-0.9,0.2-1.2,0.5c-0.3,0.3-0.5,0.8-0.5,1.2v2.9c0,0.3,0.2,0.5,0.5,0.5s0.5-0.2,0.5-0.5v-2.9
	c0-0.2,0.1-0.4,0.2-0.5c0.1-0.1,0.3-0.2,0.5-0.2H31c0.3,0,0.5-0.2,0.5-0.5c0-0.3-0.2-0.5-0.5-0.5H25.3z"/>
<path class="st12" d="M46,309.6c-0.3,0-0.5,0.2-0.5,0.5c0,0.3,0.2,0.5,0.5,0.5h5.2c0.2,0,0.4,0.1,0.5,0.2c0.1,0.1,0.2,0.3,0.2,0.5
	v5.8c0,0.2-0.1,0.4-0.2,0.5c-0.1,0.1-0.3,0.2-0.5,0.2H34c-0.3,0-0.5,0.2-0.5,0.5s0.2,0.5,0.5,0.5h17.2h0c0.5,0,0.9-0.2,1.2-0.5
	s0.5-0.8,0.5-1.2v0v-5.8c0-0.5-0.2-0.9-0.5-1.2c-0.3-0.3-0.8-0.5-1.2-0.5H46z"/>
<path class="st12" d="M34.2,320c-0.3,0-0.5,0.2-0.5,0.5s0.2,0.5,0.5,0.5h17c0.2,0,0.4,0.1,0.5,0.2c0.1,0.1,0.2,0.3,0.2,0.5v5.8
	c0,0.2-0.1,0.4-0.2,0.5c-0.1,0.1-0.3,0.2-0.5,0.2h-18c-0.3,0-0.5,0.2-0.5,0.5c0,0.3,0.2,0.5,0.5,0.5h18c0.5,0,0.9-0.2,1.2-0.5
	c0.3-0.3,0.5-0.8,0.5-1.2v-5.8c0-0.5-0.2-0.9-0.5-1.2c-0.3-0.3-0.8-0.5-1.2-0.5H34.2z"/>
<path class="st12" d="M42,325.5c-0.2,0-0.3,0-0.5-0.1c-0.1-0.1-0.3-0.2-0.3-0.4c-0.1-0.2-0.1-0.3,0-0.5c0-0.2,0.1-0.3,0.2-0.4
	c0.1-0.1,0.3-0.2,0.4-0.2c0.2,0,0.3,0,0.5,0c0.2,0.1,0.3,0.2,0.4,0.3c0.1,0.1,0.1,0.3,0.1,0.5c0,0.1,0,0.2-0.1,0.3
	c0,0.1-0.1,0.2-0.2,0.3c-0.1,0.1-0.2,0.1-0.3,0.2C42.2,325.5,42.1,325.5,42,325.5z"/>
<path class="st12" d="M45.3,325.5c-0.2,0-0.3-0.1-0.5-0.1c-0.1-0.1-0.3-0.2-0.3-0.4c-0.1-0.2-0.1-0.3,0-0.5c0-0.2,0.1-0.3,0.2-0.4
	s0.3-0.2,0.4-0.2c0.2,0,0.3,0,0.5,0c0.2,0.1,0.3,0.2,0.4,0.3c0.1,0.1,0.1,0.3,0.1,0.5c0,0.1,0,0.2-0.1,0.3c0,0.1-0.1,0.2-0.2,0.3
	c-0.1,0.1-0.2,0.1-0.3,0.2C45.5,325.5,45.4,325.5,45.3,325.5z"/>
<path class="st12" d="M48.4,325.5c-0.2,0-0.3-0.1-0.5-0.1c-0.1-0.1-0.3-0.2-0.3-0.4s-0.1-0.3,0-0.5c0-0.2,0.1-0.3,0.2-0.4
	s0.3-0.2,0.4-0.2c0.2,0,0.3,0,0.5,0c0.2,0.1,0.3,0.2,0.4,0.3c0.1,0.1,0.1,0.3,0.1,0.5c0,0.1,0,0.2-0.1,0.3c0,0.1-0.1,0.2-0.2,0.3
	c-0.1,0.1-0.2,0.1-0.3,0.2C48.7,325.5,48.6,325.5,48.4,325.5z"/>
<path class="st12" d="M19.2,323.5c0,0.7,0.1,1.3,0.3,1.9c0.2,0.6,0.4,1.2,0.8,1.7c0.3,0.5,0.7,1,1.2,1.4c0.5,0.4,1,0.8,1.5,1
	l-3.2-8.9C19.4,321.6,19.2,322.6,19.2,323.5z"/>
<path class="st12" d="M24.9,330.2c-0.3,0-0.6-0.1-0.9-0.2l2-5.9l2.1,5.8C27.1,330.3,26,330.4,24.9,330.2z"/>
<path class="st12" d="M31.9,320.7c0,0.1,0,0.3,0,0.4c-0.1,0.6-0.2,1.2-0.4,1.8c-0.2,0.5-0.4,1-0.5,1.5c-0.1,0.2-0.2,0.5-0.3,1
	c-0.2,0.5-0.3,1-0.5,1.5c-0.2,0.5-0.3,1-0.5,1.5c-0.2,0.5-0.3,0.8-0.3,1c0.5-0.3,1-0.7,1.4-1.1c0.4-0.4,0.8-0.9,1.1-1.4
	c0.3-0.5,0.5-1.1,0.7-1.6c0.5-1.7,0.3-3.5-0.5-5C31.9,320.4,31.9,320.6,31.9,320.7z"/>
<path class="st12" d="M30.1,324.9c-0.1,0.3-0.2,0.6-0.3,1.1c-0.1,0.4-0.3,1-0.5,1.6l-2.4-7.3c0.1,0,0.2,0,0.4,0c0.1,0,0.3,0,0.4,0
	c0.2,0,0.3-0.1,0.3-0.3c0-0.1-0.1-0.1-0.1-0.2c-0.1,0-0.1-0.1-0.2-0.1c-0.7,0-1.2,0.1-1.5,0.1c-0.4,0-0.7,0-1.1,0l-0.7-0.1l-0.3,0
	c0,0-0.1,0-0.1,0c0,0-0.1,0-0.1,0c-0.1,0-0.1,0.1-0.1,0.2c0,0,0,0.1,0,0.1c0,0,0,0.1,0,0.1c0,0.1,0.1,0.1,0.2,0.1c0,0,0.1,0,0.2,0
	c0.1,0,0.3,0,0.5,0.1l1.1,2.9l-1.5,4.4l-2.5-7.3c0.1,0,0.3,0,0.4,0c0.1,0,0.3,0,0.4,0c0.2,0,0.3-0.1,0.3-0.3c0-0.1-0.1-0.1-0.1-0.2
	c-0.1,0-0.1-0.1-0.2-0.1c-0.4,0.1-0.8,0.1-1.2,0.1c-0.4,0-0.7,0-1,0c0.6-0.9,1.4-1.7,2.4-2.2c1-0.6,2.1-0.8,3.2-0.8
	c0.9,0,1.7,0.2,2.5,0.5c0.8,0.3,1.5,0.8,2.1,1.3c-0.2,0-0.4,0-0.6,0.1c-0.2,0.1-0.4,0.3-0.5,0.5c-0.1,0.2-0.1,0.5-0.1,0.7
	c0,0.3,0.1,0.5,0.2,0.8c0.1,0.2,0.2,0.5,0.4,0.7c0.1,0.2,0.2,0.4,0.3,0.5c0.2,0.3,0.3,0.7,0.3,1c0,0.4,0,0.9-0.2,1.3
	C30.2,324.3,30.2,324.5,30.1,324.9z"/>
<path class="st13" d="M33.2,320.4c-0.4-0.9-1-1.8-1.7-2.5c-0.7-0.7-1.6-1.3-2.5-1.7c-1-0.4-2-0.6-3.1-0.6c-1.1,0-2.1,0.2-3.1,0.6
	c-1.9,0.8-3.4,2.3-4.2,4.3c-0.4,1-0.6,2-0.6,3.1s0.2,2.1,0.6,3.1c0.4,0.9,1,1.8,1.7,2.5c0.7,0.7,1.6,1.3,2.5,1.7
	c1,0.4,2,0.6,3.1,0.6c1.1,0,2.1-0.2,3.1-0.6c1.9-0.8,3.4-2.3,4.2-4.3c0.4-1,0.6-2,0.6-3.1S33.6,321.4,33.2,320.4L33.2,320.4z
	 M32.7,326.4c-0.8,1.8-2.2,3.2-3.9,4c-0.9,0.4-1.9,0.6-2.9,0.6c-1,0-2-0.2-2.9-0.6c-1.8-0.8-3.2-2.2-3.9-4c-0.4-0.9-0.6-1.9-0.6-2.9
	c0-1,0.2-2,0.6-2.9c0.4-0.9,0.9-1.7,1.6-2.4c0.7-0.7,1.5-1.2,2.3-1.6c0.9-0.4,1.9-0.6,2.9-0.6c1,0,2,0.2,2.9,0.6
	c0.9,0.4,1.7,0.9,2.3,1.6c0.7,0.7,1.2,1.5,1.6,2.4c0.4,0.9,0.6,1.9,0.6,2.9C33.3,324.5,33.1,325.5,32.7,326.4z"/>
</svg>
