<?xml version="1.0" encoding="utf-8"?>
<!-- Generator: Adobe Illustrator 25.2.1, SVG Export Plug-In . SVG Version: 6.00 Build 0)  -->
<svg version="1.1" id="Layer_1" xmlns="http://www.w3.org/2000/svg" xmlns:xlink="http://www.w3.org/1999/xlink" x="0px" y="0px"
	 viewBox="0 0 72 352" style="enable-background:new 0 0 72 352;" xml:space="preserve">
<style type="text/css">
	.st0{fill:url(#SVGID_1_);fill-opacity:0.25;}
	.st1{fill-rule:evenodd;clip-rule:evenodd;fill:#0073EC;}
	.st2{fill:#0073EC;}
	.st3{fill:url(#SVGID_2_);fill-opacity:0.25;}
	.st4{fill-rule:evenodd;clip-rule:evenodd;fill:#A644E5;}
	.st5{fill:#A644E5;}
	.st6{fill:url(#SVGID_3_);fill-opacity:0.25;}
	.st7{fill-rule:evenodd;clip-rule:evenodd;fill:#00CAAA;}
	.st8{fill:#00CAAA;}
	.st9{fill-rule:evenodd;clip-rule:evenodd;fill:#434F58;}
	.st10{fill:#434F58;}
	.st11{fill:url(#SVGID_4_);fill-opacity:0.25;}
	.st12{fill:url(#SVGID_5_);fill-opacity:0.25;}
	.st13{fill-rule:evenodd;clip-rule:evenodd;fill:#677983;}
	.st14{fill:#677983;}
</style>
<radialGradient id="SVGID_1_" cx="-247.53" cy="598.8222" r="1" gradientTransform="matrix(6.245883e-16 10.2003 10.4174 -6.378818e-16 -6199.6289 2564.1362)" gradientUnits="userSpaceOnUse">
	<stop  offset="0" style="stop-color:#0073EC"/>
	<stop  offset="1" style="stop-color:#0073EC;stop-opacity:0"/>
</radialGradient>
<path class="st0" d="M49,30.1v18.4c0,0.6-0.4,1-1,1H29.1c-0.6,0-1-0.4-1-1V30.1c0-0.6,0.4-1,1-1H48C48.5,29.1,49,29.5,49,30.1z"/>
<path class="st1" d="M35.4,37.3H31c-0.2,0-0.5-0.1-0.7-0.3c-0.2-0.2-0.3-0.4-0.3-0.7v-4.6c0-0.3,0.1-0.5,0.3-0.7
	c0.2-0.2,0.4-0.3,0.7-0.3h4.4c0.2,0,0.5,0.1,0.7,0.3s0.3,0.4,0.3,0.7v4.6c0,0.1,0,0.3-0.1,0.4c0,0.1-0.1,0.2-0.2,0.3
	c-0.1,0.1-0.2,0.2-0.3,0.2S35.5,37.3,35.4,37.3z M30.9,31.5c0,0-0.1,0.1-0.1,0.2v4.6c0,0.1,0,0.1,0.1,0.2c0,0,0.1,0.1,0.2,0.1h4.4
	c0,0,0.1,0,0.1,0c0,0,0.1,0,0.1-0.1l0,0c0,0,0-0.1,0-0.1v-4.6c0,0,0-0.1,0-0.1l0,0h0l-0.1,0c0,0-0.1,0-0.1,0H31
	C31,31.4,31,31.4,30.9,31.5C30.9,31.4,30.9,31.5,30.9,31.5z"/>
<path class="st1" d="M36.6,39.5c0.9,0,1.8-0.7,1.9-1.7c0-1.8,0-7.4,0-7.4c0-0.3,0-0.5-0.1-0.8c-0.1-0.2-0.2-0.5-0.4-0.6
	c-0.2-0.2-0.4-0.3-0.6-0.4c-0.2-0.1-0.5-0.2-0.7-0.2v-1l2.1-2.3h0c0.1,0.1,0.3,0.1,0.5,0.1c0.2,0,0.5-0.1,0.7-0.2
	c0.2-0.2,0.3-0.4,0.4-0.6c0.1-0.2,0.1-0.5,0-0.8c-0.1-0.2-0.2-0.4-0.5-0.6c-0.2-0.1-0.4-0.2-0.7-0.2c-0.2,0-0.5,0.1-0.7,0.3
	c-0.2,0.2-0.3,0.4-0.4,0.7c0,0.3,0,0.5,0.1,0.8h0L35.9,27c0,0-0.1,0.1-0.1,0.1s0,0.1,0,0.2v1.2h-0.7v-1.5c0-0.1,0-0.2-0.1-0.3
	c-0.1-0.1-0.2-0.1-0.3-0.1c-0.1,0-0.2,0-0.3,0.1c-0.1,0.1-0.1,0.2-0.1,0.3v1.5h-0.7v-2.8c0.2-0.1,0.4-0.2,0.5-0.4
	c0.1-0.2,0.2-0.4,0.2-0.6c0-0.2,0-0.5-0.2-0.7c-0.1-0.2-0.3-0.4-0.5-0.5c-0.2-0.1-0.4-0.1-0.6-0.1c-0.2,0-0.4,0.1-0.6,0.3
	c-0.2,0.2-0.3,0.4-0.3,0.6c-0.1,0.2,0,0.5,0,0.7c0.1,0.2,0.1,0.3,0.3,0.4s0.3,0.2,0.4,0.3v2.8h-0.7v-1.5c0-0.1,0-0.2-0.1-0.3
	c-0.1-0.1-0.2-0.1-0.3-0.1c-0.1,0-0.2,0-0.3,0.1c-0.1,0.1-0.1,0.2-0.1,0.3v1.5h-0.7v-2.8c0-0.1,0-0.2-0.1-0.3L29,23.8
	c0.1-0.2,0.1-0.3,0.1-0.5c0-0.2-0.1-0.5-0.2-0.7c-0.1-0.2-0.3-0.3-0.5-0.4c-0.2-0.1-0.4-0.1-0.6-0.1c-0.2,0-0.4,0.2-0.6,0.3
	c-0.2,0.2-0.3,0.4-0.3,0.6c0,0.2,0,0.5,0.1,0.7c0.1,0.2,0.2,0.4,0.4,0.5c0.2,0.1,0.4,0.2,0.6,0.2c0.2,0,0.3,0,0.5-0.1h0l1.4,1.5v2.6
	c-0.5,0-1,0.2-1.3,0.6c-0.3,0.4-0.5,0.9-0.5,1.4h-1.3l-1-1.1h0c0.1-0.2,0.1-0.3,0.1-0.5c0-0.2-0.1-0.5-0.2-0.7
	c-0.1-0.2-0.3-0.3-0.5-0.4c-0.2-0.1-0.4-0.1-0.6-0.1c-0.2,0-0.4,0.2-0.6,0.3c-0.2,0.2-0.3,0.4-0.3,0.6c0,0.2,0,0.5,0.1,0.7
	c0.1,0.2,0.2,0.4,0.4,0.5c0.2,0.1,0.4,0.2,0.6,0.2c0.2,0,0.3,0,0.5-0.1l1.1,1.2c0.1,0.1,0.2,0.1,0.3,0.1H28V32h-2.2
	c-0.1,0-0.2,0-0.2,0.1l-1.6,1.4c-0.2-0.2-0.5-0.3-0.7-0.3c-0.2,0-0.4,0.1-0.6,0.2c-0.2,0.1-0.3,0.3-0.4,0.5
	c-0.1,0.2-0.1,0.5-0.1,0.7c0,0.2,0.1,0.4,0.3,0.6c0.2,0.2,0.4,0.3,0.6,0.3c0.2,0,0.4,0,0.6-0.1c0.2-0.1,0.4-0.2,0.5-0.4
	c0.1-0.2,0.2-0.4,0.2-0.7c0-0.1,0-0.1,0-0.2l1.6-1.4H28v0.8h-1.1c-0.1,0-0.2,0-0.3,0.1c-0.1,0.1-0.1,0.2-0.1,0.3
	c0,0.1,0,0.2,0.1,0.3c0.1,0.1,0.2,0.1,0.3,0.1H28v0.8h-2.6c-0.1,0-0.2,0-0.3,0.1c-0.1,0.1-0.1,0.2-0.1,0.3s0,0.2,0.1,0.3
	c0.1,0.1,0.2,0.1,0.3,0.1H28v0.8h-1.9c-0.1,0-0.1,0-0.2,0c-0.1,0-0.1,0.1-0.1,0.1l-1.5,2.3c-0.1-0.1-0.3-0.1-0.5-0.1
	c-0.2,0-0.5,0.1-0.7,0.2c-0.2,0.2-0.3,0.4-0.4,0.6c-0.1,0.2-0.1,0.5,0,0.8c0.1,0.2,0.2,0.4,0.5,0.6c0.2,0.1,0.4,0.2,0.7,0.2
	c0.2,0,0.5-0.1,0.7-0.3c0.2-0.2,0.3-0.4,0.4-0.7c0-0.3,0-0.5-0.1-0.8l0-0.1l1.4-2.2H28c0,0.5,0.2,1,0.5,1.4c0.3,0.4,0.8,0.6,1.3,0.6
	H36.6z M39,23.8c0.1,0,0.1-0.1,0.2-0.1c0,0,0.1,0,0.1,0c0.1,0,0.1,0.1,0.2,0.1s0.1,0.1,0.1,0.2c0,0.1,0,0.1-0.1,0.2
	c0,0.1-0.1,0.1-0.1,0.1c-0.1,0-0.1,0.1-0.2,0.1c-0.1,0-0.1,0-0.2-0.1c0,0-0.1-0.1-0.1-0.1c0-0.1,0-0.1,0-0.2c0-0.1,0-0.1,0-0.2
	C38.9,23.8,38.9,23.8,39,23.8z M28.2,23.6c-0.1,0-0.1,0.1-0.2,0.1c-0.1,0-0.2,0-0.3-0.1c-0.1-0.1-0.1-0.2-0.1-0.3
	c0-0.1,0-0.2,0.1-0.3c0.1-0.1,0.2-0.1,0.3-0.1c0.1,0,0.1,0,0.2,0.1c0,0,0.1,0.1,0.1,0.1c0,0.1,0,0.1,0,0.2c0,0.1,0,0.1,0,0.2
	C28.3,23.5,28.3,23.6,28.2,23.6z M24.9,29.2c-0.1,0-0.1,0.1-0.2,0.1c-0.1,0-0.2,0-0.3-0.1c-0.1-0.1-0.1-0.2-0.1-0.3
	c0-0.1,0-0.1,0-0.2c0,0,0-0.1,0.1-0.1c0,0,0,0,0,0c0,0,0,0,0,0c0,0,0,0,0.1-0.1c0.1,0,0.1,0,0.2,0c0.1,0,0.1,0,0.2,0.1
	c0.1,0,0.1,0.1,0.1,0.1s0,0.1,0,0.2c0,0.1,0,0.1,0,0.2C25,29.1,24.9,29.1,24.9,29.2z M23.5,34.6c0,0.1-0.1,0.1-0.1,0.1
	c-0.1,0-0.1,0-0.2,0c-0.1,0-0.2,0-0.3-0.1c-0.1-0.1-0.1-0.2-0.1-0.3c0-0.1,0-0.1,0-0.2c0,0,0-0.1,0.1-0.1c0,0,0.1-0.1,0.1-0.1
	c0,0,0.1,0,0.1,0c0.1,0,0.2,0,0.3,0.1c0.1,0.1,0.1,0.2,0.1,0.3C23.5,34.4,23.5,34.5,23.5,34.6z M24.2,40.6c0,0-0.1,0.1-0.1,0.1
	c0,0-0.1,0-0.1,0c-0.1,0-0.2,0-0.3-0.1c-0.1-0.1-0.1-0.2-0.1-0.3c0-0.1,0-0.2,0.1-0.3c0.1-0.1,0.2-0.1,0.3-0.1c0,0,0.1,0,0.1,0
	c0,0,0.1,0,0.1,0.1c0,0,0.1,0.1,0.1,0.1c0,0,0,0.1,0,0.2s0,0.1,0,0.2C24.2,40.5,24.2,40.5,24.2,40.6z M33.2,24.2c0,0,0.1,0,0.1,0
	c0,0,0.1,0,0.1,0.1c0,0,0.1,0.1,0.1,0.1c0,0,0,0.1,0,0.2c0,0.1,0,0.1,0,0.2s-0.1,0.1-0.1,0.1c-0.1,0-0.1,0.1-0.2,0.1
	c-0.1,0-0.1,0-0.2-0.1l-0.1,0c-0.1-0.1-0.1-0.1-0.1-0.2c0-0.1,0-0.2,0-0.2c0-0.1,0.1-0.1,0.1-0.2C33.1,24.2,33.2,24.2,33.2,24.2z
	 M29.4,38.6c-0.2-0.1-0.4-0.2-0.5-0.4c-0.1-0.2-0.2-0.4-0.2-0.7v-7.1c0-0.3,0.1-0.6,0.3-0.8c0.2-0.2,0.5-0.3,0.8-0.3h6.7
	c0.2,0,0.4,0,0.5,0.1c0.2,0.1,0.3,0.3,0.4,0.4c0.1,0.2,0.2,0.4,0.2,0.6v7.1c0,0.3-0.1,0.6-0.3,0.8c-0.2,0.2-0.5,0.3-0.8,0.3h-6.7
	c-0.1,0-0.2,0-0.3-0.1L29.4,38.6z"/>
<path class="st2" d="M40.4,28.9l7.7,0c0.2,0,0.5,0.1,0.7,0.3c0.2,0.2,0.3,0.4,0.3,0.7v4.3c0,0.3-0.1,0.7-0.4,0.9
	c-0.2,0.2-0.5,0.4-0.9,0.4l-7.4,0c0,0-0.1,0-0.1,0c0,0,0,0-0.1,0c0,0,0,0,0,0c0,0,0,0,0,0c0,0,0-0.1-0.1-0.1c0,0,0-0.1,0-0.1v-0.1
	c0-0.1,0-0.2,0.1-0.2c0.1-0.1,0.1-0.1,0.2-0.1l7.8,0c0.1,0,0.1,0,0.2-0.1c0,0,0.1-0.1,0.1-0.2v-4.6c0-0.1,0-0.1-0.1-0.2
	c0,0-0.1-0.1-0.2-0.1l-7.7,0c-0.1,0-0.2,0-0.2-0.1c-0.1-0.1-0.1-0.1-0.1-0.2v-0.1c0-0.1,0-0.2,0.1-0.2C40.2,29,40.3,28.9,40.4,28.9z
	"/>
<path class="st2" d="M41.7,31.8c0.1,0.1,0.1,0.2,0.1,0.4c0,0.2-0.1,0.4-0.2,0.5c-0.1,0.1-0.3,0.2-0.5,0.2c-0.1,0-0.3,0-0.4-0.1
	c-0.1-0.1-0.2-0.2-0.2-0.3c0-0.1-0.1-0.3,0-0.4c0-0.1,0.1-0.3,0.2-0.4c0.1-0.1,0.2-0.2,0.3-0.2c0.1,0,0.3,0,0.4,0
	C41.6,31.6,41.7,31.7,41.7,31.8z"/>
<path class="st2" d="M41.7,39c0.1,0.1,0.1,0.2,0.1,0.4c0,0.2-0.1,0.4-0.2,0.5c-0.1,0.1-0.3,0.2-0.5,0.2c-0.1,0-0.3,0-0.4-0.1
	c-0.1-0.1-0.2-0.2-0.2-0.3c0-0.1-0.1-0.3,0-0.4c0-0.1,0.1-0.3,0.2-0.4c0.1-0.1,0.2-0.2,0.3-0.2c0.1,0,0.3,0,0.4,0
	C41.6,38.8,41.7,38.9,41.7,39z"/>
<path class="st2" d="M46.2,40.1c0.3-0.1,0.6-0.5,0.5-0.8c-0.1-0.4-0.4-0.6-0.8-0.5c-0.3,0.1-0.6,0.5-0.5,0.8
	C45.5,39.9,45.8,40.1,46.2,40.1z"/>
<path class="st2" d="M40.3,36.1l7.7,0c0.2,0,0.5,0.1,0.7,0.3c0.2,0.2,0.3,0.4,0.3,0.7v4.6c0,0.3-0.1,0.5-0.3,0.7
	c-0.2,0.2-0.4,0.3-0.7,0.3H28.7c-0.2,0-0.5-0.1-0.7-0.3c-0.2-0.2-0.3-0.4-0.3-0.7l0-1.1c0-0.1,0-0.1,0-0.2c0,0,0-0.1,0-0.1
	c0,0,0,0,0-0.1c0,0,0.1-0.1,0.1-0.1c0,0,0.1,0,0.1,0h0c0.1,0,0.2,0.1,0.2,0.1c0.1,0.1,0.1,0.2,0.1,0.2l0,1.1c0,0.1,0,0.1,0.1,0.2
	c0,0,0.1,0.1,0.2,0.1h19.4c0.1,0,0.1,0,0.2-0.1c0,0,0.1-0.1,0.1-0.2v-4.6c0-0.1,0-0.1-0.1-0.2c0,0-0.1-0.1-0.2-0.1l-7.7,0
	c0,0-0.1,0-0.1,0c0,0-0.1,0-0.1-0.1c0,0-0.1-0.1-0.1-0.1c0,0,0-0.1,0-0.1c0-0.1,0-0.2,0.1-0.3C40.1,36.2,40.2,36.1,40.3,36.1z"/>
<path class="st2" d="M43.8,40.1c0.3-0.1,0.6-0.5,0.5-0.8c-0.1-0.4-0.4-0.6-0.8-0.5c-0.3,0.1-0.6,0.5-0.5,0.8
	C43.1,39.9,43.5,40.1,43.8,40.1z"/>
<path class="st2" d="M43.7,32.9c0.4,0,0.6-0.3,0.6-0.7c0-0.4-0.3-0.7-0.6-0.7c-0.4,0-0.6,0.3-0.6,0.7C43,32.6,43.3,32.9,43.7,32.9z"
	/>
<path class="st2" d="M43.7,45.9c-0.1,0-0.3,0-0.4,0.1c-0.1,0.1-0.2,0.2-0.2,0.3c0,0.1-0.1,0.3,0,0.4c0,0.1,0.1,0.3,0.2,0.4
	c0.1,0.1,0.2,0.2,0.3,0.2c0.1,0,0.3,0,0.4,0c0.1-0.1,0.2-0.1,0.3-0.3c0.1-0.1,0.1-0.2,0.1-0.4c0-0.2-0.1-0.4-0.2-0.5
	C44,46,43.9,45.9,43.7,45.9z"/>
<path class="st2" d="M40.9,46c0.1-0.1,0.2-0.1,0.4-0.1c0.1,0,0.2,0,0.2,0.1c0.1,0,0.2,0.1,0.2,0.1c0.1,0.1,0.1,0.1,0.1,0.2
	c0,0.1,0,0.2,0,0.3c0,0.1,0,0.3-0.1,0.4s-0.2,0.2-0.3,0.3c-0.1,0.1-0.2,0.1-0.4,0c-0.1,0-0.2-0.1-0.3-0.2c-0.1-0.1-0.2-0.2-0.2-0.4
	c0-0.1,0-0.3,0-0.4C40.7,46.2,40.7,46.1,40.9,46z"/>
<path class="st2" d="M46,45.9c-0.1,0-0.3,0-0.4,0.1c-0.1,0.1-0.2,0.2-0.2,0.3c0,0.1-0.1,0.3,0,0.4c0,0.1,0.1,0.3,0.2,0.4
	c0.1,0.1,0.2,0.2,0.3,0.2c0.1,0,0.3,0,0.4,0c0.1-0.1,0.2-0.1,0.3-0.3c0.1-0.1,0.1-0.2,0.1-0.4c0-0.2-0.1-0.4-0.2-0.5
	C46.4,46,46.2,45.9,46,45.9z"/>
<path class="st1" d="M28.7,43.3h19.4c0.2,0,0.5,0.1,0.7,0.3c0.2,0.2,0.3,0.4,0.3,0.7v4.6c0,0.3-0.1,0.5-0.3,0.7
	c-0.2,0.2-0.4,0.3-0.7,0.3H28.7c-0.2,0-0.5-0.1-0.7-0.3c-0.2-0.2-0.3-0.4-0.3-0.7v-4.6c0-0.3,0.1-0.5,0.3-0.7
	C28.2,43.4,28.4,43.3,28.7,43.3z M48.3,49c0,0,0-0.1,0-0.1v-4.6c0,0,0-0.1,0-0.1l0,0h0l-0.1,0c0,0-0.1,0-0.1,0H28.7c0,0-0.1,0-0.1,0
	c0,0,0,0,0,0c0,0,0,0,0,0c0,0,0,0,0,0c0,0,0,0,0,0c0,0,0,0,0,0c0,0,0,0.1,0,0.1v4.6c0,0.1,0,0.1,0.1,0.2c0,0,0.1,0.1,0.2,0.1h19.4
	c0,0,0.1,0,0.1,0C48.2,49.1,48.2,49.1,48.3,49L48.3,49z"/>
<path class="st2" d="M46.7,32.2c0,0.4-0.3,0.7-0.6,0.7c-0.4,0-0.6-0.3-0.6-0.7c0-0.4,0.3-0.7,0.6-0.7C46.4,31.5,46.7,31.8,46.7,32.2
	z"/>
<g>
	
		<radialGradient id="SVGID_2_" cx="-247.53" cy="598.8222" r="1" gradientTransform="matrix(6.245883e-16 10.2003 10.4174 -6.378818e-16 -6199.6289 2620.1362)" gradientUnits="userSpaceOnUse">
		<stop  offset="0" style="stop-color:#A644E5"/>
		<stop  offset="1" style="stop-color:#A644E5;stop-opacity:0"/>
	</radialGradient>
	<path class="st3" d="M49,86.1v18.4c0,0.6-0.4,1-1,1H29.1c-0.6,0-1-0.4-1-1V86.1c0-0.6,0.4-1,1-1H48C48.5,85.1,49,85.5,49,86.1z"/>
</g>
<path class="st4" d="M35.4,93.3H31c-0.2,0-0.5-0.1-0.7-0.3c-0.2-0.2-0.3-0.4-0.3-0.7v-4.6c0-0.3,0.1-0.5,0.3-0.7
	c0.2-0.2,0.4-0.3,0.7-0.3h4.4c0.2,0,0.5,0.1,0.7,0.3s0.3,0.4,0.3,0.7v4.6c0,0.1,0,0.3-0.1,0.4c0,0.1-0.1,0.2-0.2,0.3
	c-0.1,0.1-0.2,0.2-0.3,0.2S35.5,93.3,35.4,93.3z M30.9,87.5c0,0-0.1,0.1-0.1,0.2v4.6c0,0.1,0,0.1,0.1,0.2s0.1,0.1,0.2,0.1h4.4
	c0,0,0.1,0,0.1,0c0,0,0.1,0,0.1-0.1l0,0c0,0,0-0.1,0-0.1v-4.6c0,0,0-0.1,0-0.1l0,0h0l-0.1,0c0,0-0.1,0-0.1,0H31
	C31,87.4,31,87.4,30.9,87.5C30.9,87.4,30.9,87.5,30.9,87.5z"/>
<path class="st4" d="M36.6,95.5c0.9,0,1.8-0.7,1.9-1.7c0-1.8,0-7.4,0-7.4c0-0.3,0-0.5-0.1-0.8c-0.1-0.2-0.2-0.5-0.4-0.6
	c-0.2-0.2-0.4-0.3-0.6-0.4c-0.2-0.1-0.5-0.2-0.7-0.2v-1l2.1-2.3h0c0.1,0.1,0.3,0.1,0.5,0.1c0.2,0,0.5-0.1,0.7-0.2
	c0.2-0.2,0.3-0.4,0.4-0.6c0.1-0.2,0.1-0.5,0-0.8c-0.1-0.2-0.2-0.4-0.5-0.6c-0.2-0.1-0.4-0.2-0.7-0.2c-0.2,0-0.5,0.1-0.7,0.3
	c-0.2,0.2-0.3,0.4-0.4,0.7c0,0.3,0,0.5,0.1,0.8h0L35.9,83c0,0-0.1,0.1-0.1,0.1c0,0,0,0.1,0,0.2v1.2h-0.7v-1.5c0-0.1,0-0.2-0.1-0.3
	c-0.1-0.1-0.2-0.1-0.3-0.1c-0.1,0-0.2,0-0.3,0.1c-0.1,0.1-0.1,0.2-0.1,0.3v1.5h-0.7v-2.8c0.2-0.1,0.4-0.2,0.5-0.4
	c0.1-0.2,0.2-0.4,0.2-0.6c0-0.2,0-0.5-0.2-0.7c-0.1-0.2-0.3-0.4-0.5-0.5c-0.2-0.1-0.4-0.1-0.6-0.1c-0.2,0-0.4,0.1-0.6,0.3
	c-0.2,0.2-0.3,0.4-0.3,0.6c-0.1,0.2,0,0.5,0,0.7c0.1,0.2,0.1,0.3,0.3,0.4s0.3,0.2,0.4,0.3v2.8h-0.7v-1.5c0-0.1,0-0.2-0.1-0.3
	c-0.1-0.1-0.2-0.1-0.3-0.1c-0.1,0-0.2,0-0.3,0.1c-0.1,0.1-0.1,0.2-0.1,0.3v1.5h-0.7v-2.8c0-0.1,0-0.2-0.1-0.3L29,79.8
	c0.1-0.2,0.1-0.3,0.1-0.5c0-0.2-0.1-0.5-0.2-0.7c-0.1-0.2-0.3-0.3-0.5-0.4c-0.2-0.1-0.4-0.1-0.6-0.1c-0.2,0-0.4,0.2-0.6,0.3
	c-0.2,0.2-0.3,0.4-0.3,0.6c0,0.2,0,0.5,0.1,0.7c0.1,0.2,0.2,0.4,0.4,0.5c0.2,0.1,0.4,0.2,0.6,0.2c0.2,0,0.3,0,0.5-0.1h0l1.4,1.5v2.6
	c-0.5,0-1,0.2-1.3,0.6c-0.3,0.4-0.5,0.9-0.5,1.4h-1.3l-1-1.1h0c0.1-0.2,0.1-0.3,0.1-0.5c0-0.2-0.1-0.5-0.2-0.7
	c-0.1-0.2-0.3-0.3-0.5-0.4c-0.2-0.1-0.4-0.1-0.6-0.1c-0.2,0-0.4,0.2-0.6,0.3c-0.2,0.2-0.3,0.4-0.3,0.6c0,0.2,0,0.5,0.1,0.7
	c0.1,0.2,0.2,0.4,0.4,0.5c0.2,0.1,0.4,0.2,0.6,0.2c0.2,0,0.3,0,0.5-0.1l1.1,1.2c0.1,0.1,0.2,0.1,0.3,0.1H28V88h-2.2
	c-0.1,0-0.2,0-0.2,0.1l-1.6,1.4c-0.2-0.2-0.5-0.3-0.7-0.3c-0.2,0-0.4,0.1-0.6,0.2c-0.2,0.1-0.3,0.3-0.4,0.5
	c-0.1,0.2-0.1,0.5-0.1,0.7c0,0.2,0.1,0.4,0.3,0.6c0.2,0.2,0.4,0.3,0.6,0.3c0.2,0,0.4,0,0.6-0.1c0.2-0.1,0.4-0.2,0.5-0.4
	s0.2-0.4,0.2-0.7c0-0.1,0-0.1,0-0.2l1.6-1.4H28v0.8h-1.1c-0.1,0-0.2,0-0.3,0.1c-0.1,0.1-0.1,0.2-0.1,0.3c0,0.1,0,0.2,0.1,0.3
	c0.1,0.1,0.2,0.1,0.3,0.1H28v0.8h-2.6c-0.1,0-0.2,0-0.3,0.1c-0.1,0.1-0.1,0.2-0.1,0.3s0,0.2,0.1,0.3c0.1,0.1,0.2,0.1,0.3,0.1H28v0.8
	h-1.9c-0.1,0-0.1,0-0.2,0c-0.1,0-0.1,0.1-0.1,0.1l-1.5,2.3c-0.1-0.1-0.3-0.1-0.5-0.1c-0.2,0-0.5,0.1-0.7,0.2s-0.3,0.4-0.4,0.6
	c-0.1,0.2-0.1,0.5,0,0.8c0.1,0.2,0.2,0.4,0.5,0.6c0.2,0.1,0.4,0.2,0.7,0.2c0.2,0,0.5-0.1,0.7-0.3c0.2-0.2,0.3-0.4,0.4-0.7
	c0-0.3,0-0.5-0.1-0.8l0-0.1l1.4-2.2H28c0,0.5,0.2,1,0.5,1.4c0.3,0.4,0.8,0.6,1.3,0.6H36.6z M39,79.8c0.1,0,0.1-0.1,0.2-0.1
	c0,0,0.1,0,0.1,0c0.1,0,0.1,0.1,0.2,0.1c0,0.1,0.1,0.1,0.1,0.2c0,0.1,0,0.1-0.1,0.2c0,0.1-0.1,0.1-0.1,0.1c-0.1,0-0.1,0.1-0.2,0.1
	c-0.1,0-0.1,0-0.2-0.1c0,0-0.1-0.1-0.1-0.1c0-0.1,0-0.1,0-0.2s0-0.1,0-0.2C38.9,79.8,38.9,79.8,39,79.8z M28.2,79.6
	c-0.1,0-0.1,0.1-0.2,0.1c-0.1,0-0.2,0-0.3-0.1c-0.1-0.1-0.1-0.2-0.1-0.3c0-0.1,0-0.2,0.1-0.3c0.1-0.1,0.2-0.1,0.3-0.1
	c0.1,0,0.1,0,0.2,0.1c0,0,0.1,0.1,0.1,0.1c0,0.1,0,0.1,0,0.2c0,0.1,0,0.1,0,0.2C28.3,79.5,28.3,79.6,28.2,79.6z M24.9,85.2
	c-0.1,0-0.1,0.1-0.2,0.1c-0.1,0-0.2,0-0.3-0.1c-0.1-0.1-0.1-0.2-0.1-0.3c0-0.1,0-0.1,0-0.2c0,0,0-0.1,0.1-0.1c0,0,0,0,0,0
	c0,0,0,0,0,0c0,0,0,0,0.1-0.1c0.1,0,0.1,0,0.2,0c0.1,0,0.1,0,0.2,0.1c0.1,0,0.1,0.1,0.1,0.1c0,0.1,0,0.1,0,0.2c0,0.1,0,0.1,0,0.2
	C25,85.1,24.9,85.1,24.9,85.2z M23.5,90.6c0,0.1-0.1,0.1-0.1,0.1c-0.1,0-0.1,0-0.2,0c-0.1,0-0.2,0-0.3-0.1c-0.1-0.1-0.1-0.2-0.1-0.3
	c0-0.1,0-0.1,0-0.2c0,0,0-0.1,0.1-0.1c0,0,0.1-0.1,0.1-0.1c0,0,0.1,0,0.1,0c0.1,0,0.2,0,0.3,0.1c0.1,0.1,0.1,0.2,0.1,0.3
	C23.5,90.4,23.5,90.5,23.5,90.6z M24.2,96.6c0,0-0.1,0.1-0.1,0.1c0,0-0.1,0-0.1,0c-0.1,0-0.2,0-0.3-0.1c-0.1-0.1-0.1-0.2-0.1-0.3
	c0-0.1,0-0.2,0.1-0.3c0.1-0.1,0.2-0.1,0.3-0.1c0,0,0.1,0,0.1,0c0,0,0.1,0,0.1,0.1c0,0,0.1,0.1,0.1,0.1c0,0,0,0.1,0,0.2
	c0,0.1,0,0.1,0,0.2C24.2,96.5,24.2,96.5,24.2,96.6z M33.2,80.2c0,0,0.1,0,0.1,0c0,0,0.1,0,0.1,0.1c0,0,0.1,0.1,0.1,0.1
	c0,0,0,0.1,0,0.2c0,0.1,0,0.1,0,0.2c0,0.1-0.1,0.1-0.1,0.1c-0.1,0-0.1,0.1-0.2,0.1c-0.1,0-0.1,0-0.2-0.1l-0.1,0
	c-0.1-0.1-0.1-0.1-0.1-0.2c0-0.1,0-0.2,0-0.2c0-0.1,0.1-0.1,0.1-0.2C33.1,80.2,33.2,80.2,33.2,80.2z M29.4,94.6
	c-0.2-0.1-0.4-0.2-0.5-0.4c-0.1-0.2-0.2-0.4-0.2-0.7v-7.1c0-0.3,0.1-0.6,0.3-0.8c0.2-0.2,0.5-0.3,0.8-0.3h6.7c0.2,0,0.4,0,0.5,0.1
	c0.2,0.1,0.3,0.3,0.4,0.4c0.1,0.2,0.2,0.4,0.2,0.6v7.1c0,0.3-0.1,0.6-0.3,0.8c-0.2,0.2-0.5,0.3-0.8,0.3h-6.7c-0.1,0-0.2,0-0.3-0.1
	L29.4,94.6z"/>
<path class="st5" d="M40.4,84.9l7.7,0c0.2,0,0.5,0.1,0.7,0.3c0.2,0.2,0.3,0.4,0.3,0.7v4.3c0,0.3-0.1,0.7-0.4,0.9
	c-0.2,0.2-0.5,0.4-0.9,0.4l-7.4,0c0,0-0.1,0-0.1,0c0,0,0,0-0.1,0c0,0,0,0,0,0c0,0,0,0,0,0c0,0,0-0.1-0.1-0.1c0,0,0-0.1,0-0.1v-0.1
	c0-0.1,0-0.2,0.1-0.2c0.1-0.1,0.1-0.1,0.2-0.1l7.8,0c0.1,0,0.1,0,0.2-0.1c0,0,0.1-0.1,0.1-0.2v-4.6c0-0.1,0-0.1-0.1-0.2
	c0,0-0.1-0.1-0.2-0.1l-7.7,0c-0.1,0-0.2,0-0.2-0.1c-0.1-0.1-0.1-0.1-0.1-0.2v-0.1c0-0.1,0-0.2,0.1-0.2C40.2,85,40.3,84.9,40.4,84.9z
	"/>
<path class="st5" d="M41.7,87.8c0.1,0.1,0.1,0.2,0.1,0.4c0,0.2-0.1,0.4-0.2,0.5c-0.1,0.1-0.3,0.2-0.5,0.2c-0.1,0-0.3,0-0.4-0.1
	c-0.1-0.1-0.2-0.2-0.2-0.3c0-0.1-0.1-0.3,0-0.4c0-0.1,0.1-0.3,0.2-0.4c0.1-0.1,0.2-0.2,0.3-0.2c0.1,0,0.3,0,0.4,0
	C41.6,87.6,41.7,87.7,41.7,87.8z"/>
<path class="st5" d="M41.7,95c0.1,0.1,0.1,0.2,0.1,0.4c0,0.2-0.1,0.4-0.2,0.5c-0.1,0.1-0.3,0.2-0.5,0.2c-0.1,0-0.3,0-0.4-0.1
	c-0.1-0.1-0.2-0.2-0.2-0.3c0-0.1-0.1-0.3,0-0.4c0-0.1,0.1-0.3,0.2-0.4c0.1-0.1,0.2-0.2,0.3-0.2c0.1,0,0.3,0,0.4,0
	C41.6,94.8,41.7,94.9,41.7,95z"/>
<path class="st5" d="M46.2,96.1c0.3-0.1,0.6-0.5,0.5-0.8c-0.1-0.4-0.4-0.6-0.8-0.5c-0.3,0.1-0.6,0.5-0.5,0.8
	C45.5,95.9,45.8,96.1,46.2,96.1z"/>
<path class="st5" d="M40.3,92.1l7.7,0c0.2,0,0.5,0.1,0.7,0.3c0.2,0.2,0.3,0.4,0.3,0.7v4.6c0,0.3-0.1,0.5-0.3,0.7
	c-0.2,0.2-0.4,0.3-0.7,0.3H28.7c-0.2,0-0.5-0.1-0.7-0.3s-0.3-0.4-0.3-0.7l0-1.1c0-0.1,0-0.1,0-0.2c0,0,0-0.1,0-0.1c0,0,0,0,0-0.1
	c0,0,0.1-0.1,0.1-0.1c0,0,0.1,0,0.1,0h0c0.1,0,0.2,0.1,0.2,0.1c0.1,0.1,0.1,0.2,0.1,0.2l0,1.1c0,0.1,0,0.1,0.1,0.2
	c0,0,0.1,0.1,0.2,0.1h19.4c0.1,0,0.1,0,0.2-0.1c0,0,0.1-0.1,0.1-0.2v-4.6c0-0.1,0-0.1-0.1-0.2c0,0-0.1-0.1-0.2-0.1l-7.7,0
	c0,0-0.1,0-0.1,0c0,0-0.1,0-0.1-0.1c0,0-0.1-0.1-0.1-0.1c0,0,0-0.1,0-0.1c0-0.1,0-0.2,0.1-0.3C40.1,92.2,40.2,92.1,40.3,92.1z"/>
<path class="st5" d="M43.8,96.1c0.3-0.1,0.6-0.5,0.5-0.8c-0.1-0.4-0.4-0.6-0.8-0.5c-0.3,0.1-0.6,0.5-0.5,0.8
	C43.1,95.9,43.5,96.1,43.8,96.1z"/>
<path class="st5" d="M43.7,88.9c0.4,0,0.6-0.3,0.6-0.7c0-0.4-0.3-0.7-0.6-0.7c-0.4,0-0.6,0.3-0.6,0.7C43,88.6,43.3,88.9,43.7,88.9z"
	/>
<path class="st5" d="M43.7,101.9c-0.1,0-0.3,0-0.4,0.1c-0.1,0.1-0.2,0.2-0.2,0.3c0,0.1-0.1,0.3,0,0.4c0,0.1,0.1,0.3,0.2,0.4
	s0.2,0.2,0.3,0.2c0.1,0,0.3,0,0.4,0c0.1-0.1,0.2-0.1,0.3-0.3c0.1-0.1,0.1-0.2,0.1-0.4c0-0.2-0.1-0.4-0.2-0.5
	C44,102,43.9,101.9,43.7,101.9z"/>
<path class="st5" d="M40.9,102c0.1-0.1,0.2-0.1,0.4-0.1c0.1,0,0.2,0,0.2,0.1c0.1,0,0.2,0.1,0.2,0.1c0.1,0.1,0.1,0.1,0.1,0.2
	c0,0.1,0,0.2,0,0.3c0,0.1,0,0.3-0.1,0.4s-0.2,0.2-0.3,0.3s-0.2,0.1-0.4,0c-0.1,0-0.2-0.1-0.3-0.2c-0.1-0.1-0.2-0.2-0.2-0.4
	c0-0.1,0-0.3,0-0.4C40.7,102.2,40.7,102.1,40.9,102z"/>
<path class="st5" d="M46,101.9c-0.1,0-0.3,0-0.4,0.1c-0.1,0.1-0.2,0.2-0.2,0.3c0,0.1-0.1,0.3,0,0.4c0,0.1,0.1,0.3,0.2,0.4
	c0.1,0.1,0.2,0.2,0.3,0.2c0.1,0,0.3,0,0.4,0c0.1-0.1,0.2-0.1,0.3-0.3c0.1-0.1,0.1-0.2,0.1-0.4c0-0.2-0.1-0.4-0.2-0.5
	C46.4,102,46.2,101.9,46,101.9z"/>
<path class="st4" d="M28.7,99.3h19.4c0.2,0,0.5,0.1,0.7,0.3c0.2,0.2,0.3,0.4,0.3,0.7v4.6c0,0.3-0.1,0.5-0.3,0.7
	c-0.2,0.2-0.4,0.3-0.7,0.3H28.7c-0.2,0-0.5-0.1-0.7-0.3c-0.2-0.2-0.3-0.4-0.3-0.7v-4.6c0-0.3,0.1-0.5,0.3-0.7
	C28.2,99.4,28.4,99.3,28.7,99.3z M48.3,105c0,0,0-0.1,0-0.1v-4.6c0-0.1,0-0.1,0-0.1l0,0h0l-0.1,0c0,0-0.1,0-0.1,0H28.7
	c0,0-0.1,0-0.1,0c0,0,0,0,0,0c0,0,0,0,0,0c0,0,0,0,0,0c0,0,0,0,0,0c0,0,0,0,0,0c0,0,0,0.1,0,0.1v4.6c0,0.1,0,0.1,0.1,0.2
	c0,0,0.1,0.1,0.2,0.1h19.4c0,0,0.1,0,0.1,0C48.2,105.1,48.2,105.1,48.3,105L48.3,105z"/>
<path class="st5" d="M46.7,88.2c0,0.4-0.3,0.7-0.6,0.7c-0.4,0-0.6-0.3-0.6-0.7c0-0.4,0.3-0.7,0.6-0.7C46.4,87.5,46.7,87.8,46.7,88.2
	z"/>
<g>
	
		<radialGradient id="SVGID_3_" cx="-247.53" cy="598.8222" r="1" gradientTransform="matrix(6.245883e-16 10.2003 10.4174 -6.378818e-16 -6199.6289 2676.1357)" gradientUnits="userSpaceOnUse">
		<stop  offset="0" style="stop-color:#00CAAA"/>
		<stop  offset="1" style="stop-color:#00CAAA;stop-opacity:0"/>
	</radialGradient>
	<path class="st6" d="M49,142.1v18.4c0,0.6-0.4,1-1,1H29.1c-0.6,0-1-0.4-1-1v-18.4c0-0.6,0.4-1,1-1H48C48.5,141.1,49,141.5,49,142.1
		z"/>
</g>
<path class="st7" d="M35.4,149.3H31c-0.2,0-0.5-0.1-0.7-0.3c-0.2-0.2-0.3-0.4-0.3-0.7v-4.6c0-0.3,0.1-0.5,0.3-0.7
	c0.2-0.2,0.4-0.3,0.7-0.3h4.4c0.2,0,0.5,0.1,0.7,0.3c0.2,0.2,0.3,0.4,0.3,0.7v4.6c0,0.1,0,0.3-0.1,0.4c0,0.1-0.1,0.2-0.2,0.3
	c-0.1,0.1-0.2,0.2-0.3,0.2S35.5,149.3,35.4,149.3z M30.9,143.5c0,0-0.1,0.1-0.1,0.2v4.6c0,0.1,0,0.1,0.1,0.2c0,0,0.1,0.1,0.2,0.1
	h4.4c0,0,0.1,0,0.1,0c0,0,0.1,0,0.1-0.1l0,0c0,0,0-0.1,0-0.1v-4.6c0,0,0-0.1,0-0.1l0,0h0l-0.1,0c0,0-0.1,0-0.1,0H31
	C31,143.4,31,143.4,30.9,143.5C30.9,143.4,30.9,143.5,30.9,143.5z"/>
<path class="st7" d="M36.6,151.5c0.9,0,1.8-0.7,1.9-1.7c0-1.8,0-7.4,0-7.4c0-0.3,0-0.5-0.1-0.8c-0.1-0.2-0.2-0.5-0.4-0.6
	c-0.2-0.2-0.4-0.3-0.6-0.4c-0.2-0.1-0.5-0.2-0.7-0.2v-1l2.1-2.3h0c0.1,0.1,0.3,0.1,0.5,0.1c0.2,0,0.5-0.1,0.7-0.2
	c0.2-0.2,0.3-0.4,0.4-0.6c0.1-0.2,0.1-0.5,0-0.8c-0.1-0.2-0.2-0.4-0.5-0.6c-0.2-0.1-0.4-0.2-0.7-0.2c-0.2,0-0.5,0.1-0.7,0.3
	c-0.2,0.2-0.3,0.4-0.4,0.7c0,0.3,0,0.5,0.1,0.8h0l-2.2,2.4c0,0-0.1,0.1-0.1,0.1c0,0,0,0.1,0,0.2v1.2h-0.7v-1.5c0-0.1,0-0.2-0.1-0.3
	c-0.1-0.1-0.2-0.1-0.3-0.1c-0.1,0-0.2,0-0.3,0.1c-0.1,0.1-0.1,0.2-0.1,0.3v1.5h-0.7v-2.8c0.2-0.1,0.4-0.2,0.5-0.4
	c0.1-0.2,0.2-0.4,0.2-0.6c0-0.2,0-0.5-0.2-0.7c-0.1-0.2-0.3-0.4-0.5-0.5c-0.2-0.1-0.4-0.1-0.6-0.1c-0.2,0-0.4,0.1-0.6,0.3
	c-0.2,0.2-0.3,0.4-0.3,0.6c-0.1,0.2,0,0.5,0,0.7c0.1,0.2,0.1,0.3,0.3,0.4s0.3,0.2,0.4,0.3v2.8h-0.7v-1.5c0-0.1,0-0.2-0.1-0.3
	c-0.1-0.1-0.2-0.1-0.3-0.1c-0.1,0-0.2,0-0.3,0.1c-0.1,0.1-0.1,0.2-0.1,0.3v1.5h-0.7v-2.8c0-0.1,0-0.2-0.1-0.3l-1.5-1.6
	c0.1-0.2,0.1-0.3,0.1-0.5c0-0.2-0.1-0.5-0.2-0.7s-0.3-0.3-0.5-0.4c-0.2-0.1-0.4-0.1-0.6-0.1s-0.4,0.2-0.6,0.3
	c-0.2,0.2-0.3,0.4-0.3,0.6c0,0.2,0,0.5,0.1,0.7c0.1,0.2,0.2,0.4,0.4,0.5c0.2,0.1,0.4,0.2,0.6,0.2c0.2,0,0.3,0,0.5-0.1h0l1.4,1.5v2.6
	c-0.5,0-1,0.2-1.3,0.6c-0.3,0.4-0.5,0.9-0.5,1.4h-1.3l-1-1.1h0c0.1-0.2,0.1-0.3,0.1-0.5c0-0.2-0.1-0.5-0.2-0.7
	c-0.1-0.2-0.3-0.3-0.5-0.4c-0.2-0.1-0.4-0.1-0.6-0.1c-0.2,0-0.4,0.2-0.6,0.3c-0.2,0.2-0.3,0.4-0.3,0.6c0,0.2,0,0.5,0.1,0.7
	c0.1,0.2,0.2,0.4,0.4,0.5c0.2,0.1,0.4,0.2,0.6,0.2c0.2,0,0.3,0,0.5-0.1l1.1,1.2c0.1,0.1,0.2,0.1,0.3,0.1H28v0.8h-2.2
	c-0.1,0-0.2,0-0.2,0.1l-1.6,1.4c-0.2-0.2-0.5-0.3-0.7-0.3c-0.2,0-0.4,0.1-0.6,0.2c-0.2,0.1-0.3,0.3-0.4,0.5
	c-0.1,0.2-0.1,0.5-0.1,0.7c0,0.2,0.1,0.4,0.3,0.6c0.2,0.2,0.4,0.3,0.6,0.3c0.2,0,0.4,0,0.6-0.1c0.2-0.1,0.4-0.2,0.5-0.4
	c0.1-0.2,0.2-0.4,0.2-0.7c0-0.1,0-0.1,0-0.2l1.6-1.4H28v0.8h-1.1c-0.1,0-0.2,0-0.3,0.1c-0.1,0.1-0.1,0.2-0.1,0.3
	c0,0.1,0,0.2,0.1,0.3c0.1,0.1,0.2,0.1,0.3,0.1H28v0.8h-2.6c-0.1,0-0.2,0-0.3,0.1c-0.1,0.1-0.1,0.2-0.1,0.3c0,0.1,0,0.2,0.1,0.3
	c0.1,0.1,0.2,0.1,0.3,0.1H28v0.8h-1.9c-0.1,0-0.1,0-0.2,0c-0.1,0-0.1,0.1-0.1,0.1l-1.5,2.3c-0.1-0.1-0.3-0.1-0.5-0.1
	c-0.2,0-0.5,0.1-0.7,0.2c-0.2,0.2-0.3,0.4-0.4,0.6c-0.1,0.2-0.1,0.5,0,0.8c0.1,0.2,0.2,0.4,0.5,0.6c0.2,0.1,0.4,0.2,0.7,0.2
	c0.2,0,0.5-0.1,0.7-0.3c0.2-0.2,0.3-0.4,0.4-0.7c0-0.3,0-0.5-0.1-0.8l0-0.1l1.4-2.2H28c0,0.5,0.2,1,0.5,1.4c0.3,0.4,0.8,0.6,1.3,0.6
	H36.6z M39,135.8c0.1,0,0.1-0.1,0.2-0.1c0,0,0.1,0,0.1,0c0.1,0,0.1,0.1,0.2,0.1c0,0.1,0.1,0.1,0.1,0.2c0,0.1,0,0.1-0.1,0.2
	c0,0.1-0.1,0.1-0.1,0.1c-0.1,0-0.1,0.1-0.2,0.1c-0.1,0-0.1,0-0.2-0.1c0,0-0.1-0.1-0.1-0.1c0-0.1,0-0.1,0-0.2c0-0.1,0-0.1,0-0.2
	C38.9,135.8,38.9,135.8,39,135.8z M28.2,135.6c-0.1,0-0.1,0.1-0.2,0.1c-0.1,0-0.2,0-0.3-0.1c-0.1-0.1-0.1-0.2-0.1-0.3s0-0.2,0.1-0.3
	c0.1-0.1,0.2-0.1,0.3-0.1c0.1,0,0.1,0,0.2,0.1c0,0,0.1,0.1,0.1,0.1c0,0.1,0,0.1,0,0.2c0,0.1,0,0.1,0,0.2
	C28.3,135.5,28.3,135.6,28.2,135.6z M24.9,141.2c-0.1,0-0.1,0.1-0.2,0.1c-0.1,0-0.2,0-0.3-0.1c-0.1-0.1-0.1-0.2-0.1-0.3
	c0-0.1,0-0.1,0-0.1c0,0,0-0.1,0.1-0.1c0,0,0,0,0,0c0,0,0,0,0,0c0,0,0,0,0.1-0.1c0.1,0,0.1,0,0.2,0c0.1,0,0.1,0,0.2,0.1
	c0.1,0,0.1,0.1,0.1,0.1s0,0.1,0,0.2c0,0.1,0,0.1,0,0.2C25,141.1,24.9,141.1,24.9,141.2z M23.5,146.6c0,0.1-0.1,0.1-0.1,0.1
	c-0.1,0-0.1,0-0.2,0c-0.1,0-0.2,0-0.3-0.1c-0.1-0.1-0.1-0.2-0.1-0.3c0-0.1,0-0.1,0-0.2c0,0,0-0.1,0.1-0.1c0,0,0.1-0.1,0.1-0.1
	c0,0,0.1,0,0.1,0c0.1,0,0.2,0,0.3,0.1c0.1,0.1,0.1,0.2,0.1,0.3C23.5,146.4,23.5,146.5,23.5,146.6z M24.2,152.6c0,0-0.1,0.1-0.1,0.1
	c0,0-0.1,0-0.1,0c-0.1,0-0.2,0-0.3-0.1c-0.1-0.1-0.1-0.2-0.1-0.3c0-0.1,0-0.2,0.1-0.3c0.1-0.1,0.2-0.1,0.3-0.1c0,0,0.1,0,0.1,0
	c0,0,0.1,0,0.1,0.1c0,0,0.1,0.1,0.1,0.1c0,0,0,0.1,0,0.2c0,0.1,0,0.1,0,0.2C24.2,152.5,24.2,152.5,24.2,152.6z M33.2,136.2
	c0,0,0.1,0,0.1,0c0,0,0.1,0,0.1,0.1c0,0,0.1,0.1,0.1,0.1c0,0,0,0.1,0,0.2c0,0.1,0,0.1,0,0.2c0,0.1-0.1,0.1-0.1,0.1
	c-0.1,0-0.1,0.1-0.2,0.1c-0.1,0-0.1,0-0.2-0.1l-0.1,0c-0.1-0.1-0.1-0.1-0.1-0.2c0-0.1,0-0.2,0-0.2c0-0.1,0.1-0.1,0.1-0.2
	S33.2,136.2,33.2,136.2z M29.4,150.6c-0.2-0.1-0.4-0.2-0.5-0.4c-0.1-0.2-0.2-0.4-0.2-0.6v-7.1c0-0.3,0.1-0.6,0.3-0.8
	c0.2-0.2,0.5-0.3,0.8-0.3h6.7c0.2,0,0.4,0,0.5,0.1c0.2,0.1,0.3,0.3,0.4,0.4c0.1,0.2,0.2,0.4,0.2,0.6v7.1c0,0.3-0.1,0.6-0.3,0.8
	c-0.2,0.2-0.5,0.3-0.8,0.3h-6.7c-0.1,0-0.2,0-0.3-0.1L29.4,150.6z"/>
<path class="st8" d="M40.4,140.9l7.7,0c0.2,0,0.5,0.1,0.7,0.3c0.2,0.2,0.3,0.4,0.3,0.7v4.3c0,0.3-0.1,0.7-0.4,0.9
	c-0.2,0.2-0.5,0.4-0.9,0.4l-7.4,0c0,0-0.1,0-0.1,0c0,0,0,0-0.1,0c0,0,0,0,0,0c0,0,0,0,0,0c0,0,0-0.1-0.1-0.1c0,0,0-0.1,0-0.1v-0.1
	c0-0.1,0-0.2,0.1-0.2c0.1-0.1,0.1-0.1,0.2-0.1l7.8,0c0.1,0,0.1,0,0.2-0.1c0,0,0.1-0.1,0.1-0.2v-4.6c0-0.1,0-0.1-0.1-0.2
	c0,0-0.1-0.1-0.2-0.1l-7.7,0c-0.1,0-0.2,0-0.2-0.1c-0.1-0.1-0.1-0.1-0.1-0.2v-0.1c0-0.1,0-0.2,0.1-0.2
	C40.2,141,40.3,140.9,40.4,140.9z"/>
<path class="st8" d="M41.7,143.8c0.1,0.1,0.1,0.2,0.1,0.4c0,0.2-0.1,0.4-0.2,0.5c-0.1,0.1-0.3,0.2-0.5,0.2c-0.1,0-0.3,0-0.4-0.1
	c-0.1-0.1-0.2-0.2-0.2-0.3c0-0.1-0.1-0.3,0-0.4c0-0.1,0.1-0.3,0.2-0.4c0.1-0.1,0.2-0.2,0.3-0.2c0.1,0,0.3,0,0.4,0
	C41.6,143.6,41.7,143.7,41.7,143.8z"/>
<path class="st8" d="M41.7,151c0.1,0.1,0.1,0.2,0.1,0.4c0,0.2-0.1,0.4-0.2,0.5c-0.1,0.1-0.3,0.2-0.5,0.2c-0.1,0-0.3,0-0.4-0.1
	c-0.1-0.1-0.2-0.2-0.2-0.3c0-0.1-0.1-0.3,0-0.4c0-0.1,0.1-0.3,0.2-0.4c0.1-0.1,0.2-0.2,0.3-0.2c0.1,0,0.3,0,0.4,0
	S41.7,150.9,41.7,151z"/>
<path class="st8" d="M46.2,152.1c0.3-0.1,0.6-0.5,0.5-0.8c-0.1-0.4-0.4-0.6-0.8-0.5c-0.3,0.1-0.6,0.5-0.5,0.8
	C45.5,151.9,45.8,152.1,46.2,152.1z"/>
<path class="st8" d="M40.3,148.1l7.7,0c0.2,0,0.5,0.1,0.7,0.3c0.2,0.2,0.3,0.4,0.3,0.7v4.6c0,0.3-0.1,0.5-0.3,0.7
	c-0.2,0.2-0.4,0.3-0.7,0.3H28.7c-0.2,0-0.5-0.1-0.7-0.3c-0.2-0.2-0.3-0.4-0.3-0.7l0-1.1c0-0.1,0-0.1,0-0.2c0,0,0-0.1,0-0.1
	c0,0,0,0,0-0.1c0,0,0.1-0.1,0.1-0.1c0,0,0.1,0,0.1,0h0c0.1,0,0.2,0.1,0.2,0.1c0.1,0.1,0.1,0.2,0.1,0.2l0,1.1c0,0.1,0,0.1,0.1,0.2
	c0,0,0.1,0.1,0.2,0.1h19.4c0.1,0,0.1,0,0.2-0.1c0,0,0.1-0.1,0.1-0.2v-4.6c0-0.1,0-0.1-0.1-0.2c0,0-0.1-0.1-0.2-0.1l-7.7,0
	c0,0-0.1,0-0.1,0c0,0-0.1,0-0.1-0.1c0,0-0.1-0.1-0.1-0.1c0,0,0-0.1,0-0.1c0-0.1,0-0.2,0.1-0.3C40.1,148.2,40.2,148.1,40.3,148.1z"/>
<path class="st8" d="M43.8,152.1c0.3-0.1,0.6-0.5,0.5-0.8s-0.4-0.6-0.8-0.5s-0.6,0.5-0.5,0.8S43.5,152.1,43.8,152.1z"/>
<path class="st8" d="M43.7,144.9c0.4,0,0.6-0.3,0.6-0.7c0-0.4-0.3-0.7-0.6-0.7c-0.4,0-0.6,0.3-0.6,0.7
	C43,144.6,43.3,144.9,43.7,144.9z"/>
<path class="st8" d="M43.7,157.9c-0.1,0-0.3,0-0.4,0.1c-0.1,0.1-0.2,0.2-0.2,0.3c0,0.1-0.1,0.3,0,0.4c0,0.1,0.1,0.3,0.2,0.4
	s0.2,0.2,0.3,0.2c0.1,0,0.3,0,0.4,0c0.1-0.1,0.2-0.1,0.3-0.3c0.1-0.1,0.1-0.2,0.1-0.4c0-0.2-0.1-0.4-0.2-0.5
	C44,158,43.9,157.9,43.7,157.9z"/>
<path class="st8" d="M40.9,158c0.1-0.1,0.2-0.1,0.4-0.1c0.1,0,0.2,0,0.2,0.1c0.1,0,0.2,0.1,0.2,0.1c0.1,0.1,0.1,0.1,0.1,0.2
	c0,0.1,0,0.2,0,0.3c0,0.1,0,0.3-0.1,0.4c-0.1,0.1-0.2,0.2-0.3,0.3c-0.1,0.1-0.2,0.1-0.4,0c-0.1,0-0.2-0.1-0.3-0.2
	c-0.1-0.1-0.2-0.2-0.2-0.4c0-0.1,0-0.3,0-0.4C40.7,158.2,40.7,158.1,40.9,158z"/>
<path class="st8" d="M46,157.9c-0.1,0-0.3,0-0.4,0.1c-0.1,0.1-0.2,0.2-0.2,0.3c0,0.1-0.1,0.3,0,0.4c0,0.1,0.1,0.3,0.2,0.4
	c0.1,0.1,0.2,0.2,0.3,0.2c0.1,0,0.3,0,0.4,0c0.1-0.1,0.2-0.1,0.3-0.3c0.1-0.1,0.1-0.2,0.1-0.4c0-0.2-0.1-0.4-0.2-0.5
	C46.4,158,46.2,157.9,46,157.9z"/>
<path class="st7" d="M28.7,155.3h19.4c0.2,0,0.5,0.1,0.7,0.3c0.2,0.2,0.3,0.4,0.3,0.7v4.6c0,0.3-0.1,0.5-0.3,0.7
	c-0.2,0.2-0.4,0.3-0.7,0.3H28.7c-0.2,0-0.5-0.1-0.7-0.3c-0.2-0.2-0.3-0.4-0.3-0.7v-4.6c0-0.3,0.1-0.5,0.3-0.7
	C28.2,155.4,28.4,155.3,28.7,155.3z M48.3,161c0,0,0-0.1,0-0.1v-4.6c0,0,0-0.1,0-0.1l0,0h0l-0.1,0c0,0-0.1,0-0.1,0H28.7
	c0,0-0.1,0-0.1,0c0,0,0,0,0,0c0,0,0,0,0,0c0,0,0,0,0,0c0,0,0,0,0,0c0,0,0,0,0,0c0,0,0,0.1,0,0.1v4.6c0,0.1,0,0.1,0.1,0.2
	c0,0,0.1,0.1,0.2,0.1h19.4c0,0,0.1,0,0.1,0C48.2,161.1,48.2,161.1,48.3,161L48.3,161z"/>
<path class="st8" d="M46.7,144.2c0,0.4-0.3,0.7-0.6,0.7c-0.4,0-0.6-0.3-0.6-0.7c0-0.4,0.3-0.7,0.6-0.7
	C46.4,143.5,46.7,143.8,46.7,144.2z"/>
<path class="st9" d="M35.4,205.3H31c-0.2,0-0.5-0.1-0.7-0.3c-0.2-0.2-0.3-0.4-0.3-0.7v-4.6c0-0.3,0.1-0.5,0.3-0.7
	c0.2-0.2,0.4-0.3,0.7-0.3h4.4c0.2,0,0.5,0.1,0.7,0.3c0.2,0.2,0.3,0.4,0.3,0.7v4.6c0,0.1,0,0.3-0.1,0.4c0,0.1-0.1,0.2-0.2,0.3
	c-0.1,0.1-0.2,0.2-0.3,0.2S35.5,205.3,35.4,205.3z M30.9,199.5c0,0-0.1,0.1-0.1,0.2v4.6c0,0.1,0,0.1,0.1,0.2c0,0,0.1,0.1,0.2,0.1
	h4.4c0,0,0.1,0,0.1,0c0,0,0.1,0,0.1-0.1l0,0c0,0,0-0.1,0-0.1v-4.6c0,0,0-0.1,0-0.1l0,0h0l-0.1,0c0,0-0.1,0-0.1,0H31
	C31,199.4,31,199.4,30.9,199.5C30.9,199.4,30.9,199.5,30.9,199.5z"/>
<path class="st9" d="M36.6,207.5c0.9,0,1.8-0.7,1.9-1.7c0-1.8,0-7.4,0-7.4c0-0.3,0-0.5-0.1-0.8c-0.1-0.2-0.2-0.5-0.4-0.6
	c-0.2-0.2-0.4-0.3-0.6-0.4c-0.2-0.1-0.5-0.2-0.7-0.2v-1l2.1-2.3h0c0.1,0.1,0.3,0.1,0.5,0.1c0.2,0,0.5-0.1,0.7-0.2
	c0.2-0.2,0.3-0.4,0.4-0.6c0.1-0.2,0.1-0.5,0-0.8c-0.1-0.2-0.2-0.4-0.5-0.6c-0.2-0.1-0.4-0.2-0.7-0.2c-0.2,0-0.5,0.1-0.7,0.3
	c-0.2,0.2-0.3,0.4-0.4,0.7c0,0.3,0,0.5,0.1,0.8h0l-2.2,2.4c0,0-0.1,0.1-0.1,0.1c0,0,0,0.1,0,0.2v1.2h-0.7v-1.5c0-0.1,0-0.2-0.1-0.3
	c-0.1-0.1-0.2-0.1-0.3-0.1c-0.1,0-0.2,0-0.3,0.1c-0.1,0.1-0.1,0.2-0.1,0.3v1.5h-0.7v-2.8c0.2-0.1,0.4-0.2,0.5-0.4
	c0.1-0.2,0.2-0.4,0.2-0.6c0-0.2,0-0.5-0.2-0.7c-0.1-0.2-0.3-0.4-0.5-0.5c-0.2-0.1-0.4-0.1-0.6-0.1c-0.2,0-0.4,0.1-0.6,0.3
	c-0.2,0.2-0.3,0.4-0.3,0.6c-0.1,0.2,0,0.5,0,0.7c0.1,0.2,0.1,0.3,0.3,0.4s0.3,0.2,0.4,0.3v2.8h-0.7v-1.5c0-0.1,0-0.2-0.1-0.3
	c-0.1-0.1-0.2-0.1-0.3-0.1c-0.1,0-0.2,0-0.3,0.1c-0.1,0.1-0.1,0.2-0.1,0.3v1.5h-0.7v-2.8c0-0.1,0-0.2-0.1-0.3l-1.5-1.6
	c0.1-0.2,0.1-0.3,0.1-0.5c0-0.2-0.1-0.5-0.2-0.7s-0.3-0.3-0.5-0.4c-0.2-0.1-0.4-0.1-0.6-0.1s-0.4,0.2-0.6,0.3
	c-0.2,0.2-0.3,0.4-0.3,0.6c0,0.2,0,0.5,0.1,0.7c0.1,0.2,0.2,0.4,0.4,0.5c0.2,0.1,0.4,0.2,0.6,0.2c0.2,0,0.3,0,0.5-0.1h0l1.4,1.5v2.6
	c-0.5,0-1,0.2-1.3,0.6c-0.3,0.4-0.5,0.9-0.5,1.4h-1.3l-1-1.1h0c0.1-0.2,0.1-0.3,0.1-0.5c0-0.2-0.1-0.5-0.2-0.7
	c-0.1-0.2-0.3-0.3-0.5-0.4c-0.2-0.1-0.4-0.1-0.6-0.1c-0.2,0-0.4,0.2-0.6,0.3c-0.2,0.2-0.3,0.4-0.3,0.6c0,0.2,0,0.5,0.1,0.7
	c0.1,0.2,0.2,0.4,0.4,0.5c0.2,0.1,0.4,0.2,0.6,0.2c0.2,0,0.3,0,0.5-0.1l1.1,1.2c0.1,0.1,0.2,0.1,0.3,0.1H28v0.8h-2.2
	c-0.1,0-0.2,0-0.2,0.1l-1.6,1.4c-0.2-0.2-0.5-0.3-0.7-0.3c-0.2,0-0.4,0.1-0.6,0.2c-0.2,0.1-0.3,0.3-0.4,0.5
	c-0.1,0.2-0.1,0.5-0.1,0.7c0,0.2,0.1,0.4,0.3,0.6c0.2,0.2,0.4,0.3,0.6,0.3c0.2,0,0.4,0,0.6-0.1c0.2-0.1,0.4-0.2,0.5-0.4
	c0.1-0.2,0.2-0.4,0.2-0.7c0-0.1,0-0.1,0-0.2l1.6-1.4H28v0.8h-1.1c-0.1,0-0.2,0-0.3,0.1c-0.1,0.1-0.1,0.2-0.1,0.3
	c0,0.1,0,0.2,0.1,0.3c0.1,0.1,0.2,0.1,0.3,0.1H28v0.8h-2.6c-0.1,0-0.2,0-0.3,0.1c-0.1,0.1-0.1,0.2-0.1,0.3c0,0.1,0,0.2,0.1,0.3
	c0.1,0.1,0.2,0.1,0.3,0.1H28v0.8h-1.9c-0.1,0-0.1,0-0.2,0c-0.1,0-0.1,0.1-0.1,0.1l-1.5,2.3c-0.1-0.1-0.3-0.1-0.5-0.1
	c-0.2,0-0.5,0.1-0.7,0.2c-0.2,0.2-0.3,0.4-0.4,0.6c-0.1,0.2-0.1,0.5,0,0.8c0.1,0.2,0.2,0.4,0.5,0.6c0.2,0.1,0.4,0.2,0.7,0.2
	c0.2,0,0.5-0.1,0.7-0.3c0.2-0.2,0.3-0.4,0.4-0.7c0-0.3,0-0.5-0.1-0.8l0-0.1l1.4-2.2H28c0,0.5,0.2,1,0.5,1.4c0.3,0.4,0.8,0.6,1.3,0.6
	H36.6z M39,191.8c0.1,0,0.1-0.1,0.2-0.1c0,0,0.1,0,0.1,0c0.1,0,0.1,0.1,0.2,0.1c0,0.1,0.1,0.1,0.1,0.2c0,0.1,0,0.1-0.1,0.2
	c0,0.1-0.1,0.1-0.1,0.1c-0.1,0-0.1,0.1-0.2,0.1c-0.1,0-0.1,0-0.2-0.1c0,0-0.1-0.1-0.1-0.1c0-0.1,0-0.1,0-0.2c0-0.1,0-0.1,0-0.2
	C38.9,191.8,38.9,191.8,39,191.8z M28.2,191.6c-0.1,0-0.1,0.1-0.2,0.1c-0.1,0-0.2,0-0.3-0.1c-0.1-0.1-0.1-0.2-0.1-0.3s0-0.2,0.1-0.3
	c0.1-0.1,0.2-0.1,0.3-0.1c0.1,0,0.1,0,0.2,0.1c0,0,0.1,0.1,0.1,0.1c0,0.1,0,0.1,0,0.2c0,0.1,0,0.1,0,0.2
	C28.3,191.5,28.3,191.6,28.2,191.6z M24.9,197.2c-0.1,0-0.1,0.1-0.2,0.1c-0.1,0-0.2,0-0.3-0.1c-0.1-0.1-0.1-0.2-0.1-0.3
	c0-0.1,0-0.1,0-0.1c0,0,0-0.1,0.1-0.1c0,0,0,0,0,0c0,0,0,0,0,0c0,0,0,0,0.1-0.1c0.1,0,0.1,0,0.2,0c0.1,0,0.1,0,0.2,0.1
	c0.1,0,0.1,0.1,0.1,0.1s0,0.1,0,0.2c0,0.1,0,0.1,0,0.2C25,197.1,24.9,197.1,24.9,197.2z M23.5,202.6c0,0.1-0.1,0.1-0.1,0.1
	c-0.1,0-0.1,0-0.2,0c-0.1,0-0.2,0-0.3-0.1c-0.1-0.1-0.1-0.2-0.1-0.3c0-0.1,0-0.1,0-0.2c0,0,0-0.1,0.1-0.1c0,0,0.1-0.1,0.1-0.1
	c0,0,0.1,0,0.1,0c0.1,0,0.2,0,0.3,0.1c0.1,0.1,0.1,0.2,0.1,0.3C23.5,202.4,23.5,202.5,23.5,202.6z M24.2,208.6c0,0-0.1,0.1-0.1,0.1
	c0,0-0.1,0-0.1,0c-0.1,0-0.2,0-0.3-0.1c-0.1-0.1-0.1-0.2-0.1-0.3c0-0.1,0-0.2,0.1-0.3c0.1-0.1,0.2-0.1,0.3-0.1c0,0,0.1,0,0.1,0
	c0,0,0.1,0,0.1,0.1c0,0,0.1,0.1,0.1,0.1c0,0,0,0.1,0,0.2c0,0.1,0,0.1,0,0.2C24.2,208.5,24.2,208.5,24.2,208.6z M33.2,192.2
	c0,0,0.1,0,0.1,0c0,0,0.1,0,0.1,0.1c0,0,0.1,0.1,0.1,0.1c0,0,0,0.1,0,0.2c0,0.1,0,0.1,0,0.2c0,0.1-0.1,0.1-0.1,0.1
	c-0.1,0-0.1,0.1-0.2,0.1c-0.1,0-0.1,0-0.2-0.1l-0.1,0c-0.1-0.1-0.1-0.1-0.1-0.2c0-0.1,0-0.2,0-0.2c0-0.1,0.1-0.1,0.1-0.2
	S33.2,192.2,33.2,192.2z M29.4,206.6c-0.2-0.1-0.4-0.2-0.5-0.4c-0.1-0.2-0.2-0.4-0.2-0.6v-7.1c0-0.3,0.1-0.6,0.3-0.8
	c0.2-0.2,0.5-0.3,0.8-0.3h6.7c0.2,0,0.4,0,0.5,0.1c0.2,0.1,0.3,0.3,0.4,0.4c0.1,0.2,0.2,0.4,0.2,0.6v7.1c0,0.3-0.1,0.6-0.3,0.8
	c-0.2,0.2-0.5,0.3-0.8,0.3h-6.7c-0.1,0-0.2,0-0.3-0.1L29.4,206.6z"/>
<path class="st10" d="M40.4,196.9l7.7,0c0.2,0,0.5,0.1,0.7,0.3c0.2,0.2,0.3,0.4,0.3,0.7v4.3c0,0.3-0.1,0.7-0.4,0.9
	c-0.2,0.2-0.5,0.4-0.9,0.4l-7.4,0c0,0-0.1,0-0.1,0c0,0,0,0-0.1,0c0,0,0,0,0,0c0,0,0,0,0,0c0,0,0-0.1-0.1-0.1c0,0,0-0.1,0-0.1v-0.1
	c0-0.1,0-0.2,0.1-0.2c0.1-0.1,0.1-0.1,0.2-0.1l7.8,0c0.1,0,0.1,0,0.2-0.1c0,0,0.1-0.1,0.1-0.2v-4.6c0-0.1,0-0.1-0.1-0.2
	c0,0-0.1-0.1-0.2-0.1l-7.7,0c-0.1,0-0.2,0-0.2-0.1c-0.1-0.1-0.1-0.1-0.1-0.2v-0.1c0-0.1,0-0.2,0.1-0.2
	C40.2,197,40.3,196.9,40.4,196.9z"/>
<path class="st10" d="M41.7,199.8c0.1,0.1,0.1,0.2,0.1,0.4c0,0.2-0.1,0.4-0.2,0.5c-0.1,0.1-0.3,0.2-0.5,0.2c-0.1,0-0.3,0-0.4-0.1
	c-0.1-0.1-0.2-0.2-0.2-0.3c0-0.1-0.1-0.3,0-0.4c0-0.1,0.1-0.3,0.2-0.4c0.1-0.1,0.2-0.2,0.3-0.2c0.1,0,0.3,0,0.4,0
	C41.6,199.6,41.7,199.7,41.7,199.8z"/>
<path class="st10" d="M41.7,207c0.1,0.1,0.1,0.2,0.1,0.4c0,0.2-0.1,0.4-0.2,0.5c-0.1,0.1-0.3,0.2-0.5,0.2c-0.1,0-0.3,0-0.4-0.1
	c-0.1-0.1-0.2-0.2-0.2-0.3c0-0.1-0.1-0.3,0-0.4c0-0.1,0.1-0.3,0.2-0.4c0.1-0.1,0.2-0.2,0.3-0.2c0.1,0,0.3,0,0.4,0
	S41.7,206.9,41.7,207z"/>
<path class="st10" d="M46.2,208.1c0.3-0.1,0.6-0.5,0.5-0.8c-0.1-0.4-0.4-0.6-0.8-0.5c-0.3,0.1-0.6,0.5-0.5,0.8
	C45.5,207.9,45.8,208.1,46.2,208.1z"/>
<path class="st10" d="M40.3,204.1l7.7,0c0.2,0,0.5,0.1,0.7,0.3c0.2,0.2,0.3,0.4,0.3,0.7v4.6c0,0.3-0.1,0.5-0.3,0.7
	c-0.2,0.2-0.4,0.3-0.7,0.3H28.7c-0.2,0-0.5-0.1-0.7-0.3c-0.2-0.2-0.3-0.4-0.3-0.7l0-1.1c0-0.1,0-0.1,0-0.2c0,0,0-0.1,0-0.1
	c0,0,0,0,0-0.1c0,0,0.1-0.1,0.1-0.1c0,0,0.1,0,0.1,0h0c0.1,0,0.2,0.1,0.2,0.1c0.1,0.1,0.1,0.2,0.1,0.2l0,1.1c0,0.1,0,0.1,0.1,0.2
	c0,0,0.1,0.1,0.2,0.1h19.4c0.1,0,0.1,0,0.2-0.1c0,0,0.1-0.1,0.1-0.2v-4.6c0-0.1,0-0.1-0.1-0.2c0,0-0.1-0.1-0.2-0.1l-7.7,0
	c0,0-0.1,0-0.1,0c0,0-0.1,0-0.1-0.1c0,0-0.1-0.1-0.1-0.1c0,0,0-0.1,0-0.1c0-0.1,0-0.2,0.1-0.3C40.1,204.2,40.2,204.1,40.3,204.1z"/>
<path class="st10" d="M43.8,208.1c0.3-0.1,0.6-0.5,0.5-0.8s-0.4-0.6-0.8-0.5s-0.6,0.5-0.5,0.8S43.5,208.1,43.8,208.1z"/>
<path class="st10" d="M43.7,200.9c0.4,0,0.6-0.3,0.6-0.7c0-0.4-0.3-0.7-0.6-0.7c-0.4,0-0.6,0.3-0.6,0.7
	C43,200.6,43.3,200.9,43.7,200.9z"/>
<path class="st10" d="M43.7,213.9c-0.1,0-0.3,0-0.4,0.1c-0.1,0.1-0.2,0.2-0.2,0.3c0,0.1-0.1,0.3,0,0.4c0,0.1,0.1,0.3,0.2,0.4
	s0.2,0.2,0.3,0.2c0.1,0,0.3,0,0.4,0c0.1-0.1,0.2-0.1,0.3-0.3c0.1-0.1,0.1-0.2,0.1-0.4c0-0.2-0.1-0.4-0.2-0.5
	C44,214,43.9,213.9,43.7,213.9z"/>
<path class="st10" d="M40.9,214c0.1-0.1,0.2-0.1,0.4-0.1c0.1,0,0.2,0,0.2,0.1c0.1,0,0.2,0.1,0.2,0.1c0.1,0.1,0.1,0.1,0.1,0.2
	c0,0.1,0,0.2,0,0.3c0,0.1,0,0.3-0.1,0.4c-0.1,0.1-0.2,0.2-0.3,0.3c-0.1,0.1-0.2,0.1-0.4,0c-0.1,0-0.2-0.1-0.3-0.2
	c-0.1-0.1-0.2-0.2-0.2-0.4c0-0.1,0-0.3,0-0.4C40.7,214.2,40.7,214.1,40.9,214z"/>
<path class="st10" d="M46,213.9c-0.1,0-0.3,0-0.4,0.1c-0.1,0.1-0.2,0.2-0.2,0.3c0,0.1-0.1,0.3,0,0.4c0,0.1,0.1,0.3,0.2,0.4
	c0.1,0.1,0.2,0.2,0.3,0.2c0.1,0,0.3,0,0.4,0c0.1-0.1,0.2-0.1,0.3-0.3c0.1-0.1,0.1-0.2,0.1-0.4c0-0.2-0.1-0.4-0.2-0.5
	C46.4,214,46.2,213.9,46,213.9z"/>
<path class="st9" d="M28.7,211.3h19.4c0.2,0,0.5,0.1,0.7,0.3c0.2,0.2,0.3,0.4,0.3,0.7v4.6c0,0.3-0.1,0.5-0.3,0.7
	c-0.2,0.2-0.4,0.3-0.7,0.3H28.7c-0.2,0-0.5-0.1-0.7-0.3c-0.2-0.2-0.3-0.4-0.3-0.7v-4.6c0-0.3,0.1-0.5,0.3-0.7
	C28.2,211.4,28.4,211.3,28.7,211.3z M48.3,217c0,0,0-0.1,0-0.1v-4.6c0,0,0-0.1,0-0.1l0,0h0l-0.1,0c0,0-0.1,0-0.1,0H28.7
	c0,0-0.1,0-0.1,0c0,0,0,0,0,0c0,0,0,0,0,0c0,0,0,0,0,0c0,0,0,0,0,0c0,0,0,0,0,0c0,0,0,0.1,0,0.1v4.6c0,0.1,0,0.1,0.1,0.2
	c0,0,0.1,0.1,0.2,0.1h19.4c0,0,0.1,0,0.1,0C48.2,217.1,48.2,217.1,48.3,217L48.3,217z"/>
<path class="st10" d="M46.7,200.2c0,0.4-0.3,0.7-0.6,0.7c-0.4,0-0.6-0.3-0.6-0.7c0-0.4,0.3-0.7,0.6-0.7
	C46.4,199.5,46.7,199.8,46.7,200.2z"/>
<g>
	
		<radialGradient id="SVGID_4_" cx="-247.53" cy="598.8222" r="1" gradientTransform="matrix(6.245883e-16 10.2003 10.4174 -6.378818e-16 -6199.6289 2788.1357)" gradientUnits="userSpaceOnUse">
		<stop  offset="0" style="stop-color:#434F58"/>
		<stop  offset="1" style="stop-color:#434F58;stop-opacity:0"/>
	</radialGradient>
	<path class="st11" d="M49,254.1v18.4c0,0.6-0.4,1-1,1H29.1c-0.6,0-1-0.4-1-1v-18.4c0-0.6,0.4-1,1-1H48
		C48.5,253.1,49,253.5,49,254.1z"/>
</g>
<path class="st9" d="M35.4,261.3H31c-0.2,0-0.5-0.1-0.7-0.3c-0.2-0.2-0.3-0.4-0.3-0.7v-4.6c0-0.3,0.1-0.5,0.3-0.7
	c0.2-0.2,0.4-0.3,0.7-0.3h4.4c0.2,0,0.5,0.1,0.7,0.3c0.2,0.2,0.3,0.4,0.3,0.7v4.6c0,0.1,0,0.3-0.1,0.4s-0.1,0.2-0.2,0.3
	c-0.1,0.1-0.2,0.2-0.3,0.2C35.6,261.2,35.5,261.3,35.4,261.3z M30.9,255.5c0,0-0.1,0.1-0.1,0.2v4.6c0,0.1,0,0.1,0.1,0.2
	c0,0,0.1,0.1,0.2,0.1h4.4c0,0,0.1,0,0.1,0s0.1,0,0.1-0.1l0,0c0,0,0-0.1,0-0.1v-4.6c0,0,0-0.1,0-0.1l0,0h0l-0.1,0c0,0-0.1,0-0.1,0H31
	C31,255.4,31,255.4,30.9,255.5C30.9,255.4,30.9,255.5,30.9,255.5z"/>
<path class="st9" d="M36.6,263.5c0.9,0,1.8-0.7,1.9-1.7c0-1.8,0-7.4,0-7.4c0-0.3,0-0.5-0.1-0.8c-0.1-0.2-0.2-0.5-0.4-0.6
	c-0.2-0.2-0.4-0.3-0.6-0.4c-0.2-0.1-0.5-0.2-0.7-0.2v-1l2.1-2.3h0c0.1,0.1,0.3,0.1,0.5,0.1c0.2,0,0.5-0.1,0.7-0.2
	c0.2-0.2,0.3-0.4,0.4-0.6c0.1-0.2,0.1-0.5,0-0.8c-0.1-0.2-0.2-0.4-0.5-0.6c-0.2-0.1-0.4-0.2-0.7-0.2c-0.2,0-0.5,0.1-0.7,0.3
	c-0.2,0.2-0.3,0.4-0.4,0.7c0,0.3,0,0.5,0.1,0.8h0l-2.2,2.4c0,0-0.1,0.1-0.1,0.1c0,0,0,0.1,0,0.2v1.2h-0.7v-1.5c0-0.1,0-0.2-0.1-0.3
	c-0.1-0.1-0.2-0.1-0.3-0.1c-0.1,0-0.2,0-0.3,0.1c-0.1,0.1-0.1,0.2-0.1,0.3v1.5h-0.7v-2.8c0.2-0.1,0.4-0.2,0.5-0.4
	c0.1-0.2,0.2-0.4,0.2-0.6c0-0.2,0-0.5-0.2-0.7c-0.1-0.2-0.3-0.4-0.5-0.5c-0.2-0.1-0.4-0.1-0.6-0.1c-0.2,0-0.4,0.1-0.6,0.3
	c-0.2,0.2-0.3,0.4-0.3,0.6c-0.1,0.2,0,0.5,0,0.7c0.1,0.2,0.1,0.3,0.3,0.4c0.1,0.1,0.3,0.2,0.4,0.3v2.8h-0.7v-1.5
	c0-0.1,0-0.2-0.1-0.3c-0.1-0.1-0.2-0.1-0.3-0.1c-0.1,0-0.2,0-0.3,0.1c-0.1,0.1-0.1,0.2-0.1,0.3v1.5h-0.7v-2.8c0-0.1,0-0.2-0.1-0.3
	l-1.5-1.6c0.1-0.2,0.1-0.3,0.1-0.5c0-0.2-0.1-0.5-0.2-0.7s-0.3-0.3-0.5-0.4c-0.2-0.1-0.4-0.1-0.6-0.1s-0.4,0.2-0.6,0.3
	c-0.2,0.2-0.3,0.4-0.3,0.6c0,0.2,0,0.5,0.1,0.7c0.1,0.2,0.2,0.4,0.4,0.5c0.2,0.1,0.4,0.2,0.6,0.2c0.2,0,0.3,0,0.5-0.1h0l1.4,1.5v2.6
	c-0.5,0-1,0.2-1.3,0.6c-0.3,0.4-0.5,0.9-0.5,1.4h-1.3l-1-1.1h0c0.1-0.2,0.1-0.3,0.1-0.5c0-0.2-0.1-0.5-0.2-0.7
	c-0.1-0.2-0.3-0.3-0.5-0.4c-0.2-0.1-0.4-0.1-0.6-0.1c-0.2,0-0.4,0.2-0.6,0.3c-0.2,0.2-0.3,0.4-0.3,0.6c0,0.2,0,0.5,0.1,0.7
	c0.1,0.2,0.2,0.4,0.4,0.5c0.2,0.1,0.4,0.2,0.6,0.2c0.2,0,0.3,0,0.5-0.1l1.1,1.2c0.1,0.1,0.2,0.1,0.3,0.1H28v0.8h-2.2
	c-0.1,0-0.2,0-0.2,0.1l-1.6,1.4c-0.2-0.2-0.5-0.3-0.7-0.3c-0.2,0-0.4,0.1-0.6,0.2c-0.2,0.1-0.3,0.3-0.4,0.5
	c-0.1,0.2-0.1,0.5-0.1,0.7c0,0.2,0.1,0.4,0.3,0.6c0.2,0.2,0.4,0.3,0.6,0.3c0.2,0,0.4,0,0.6-0.1c0.2-0.1,0.4-0.2,0.5-0.4
	s0.2-0.4,0.2-0.7c0-0.1,0-0.1,0-0.2l1.6-1.4H28v0.8h-1.1c-0.1,0-0.2,0-0.3,0.1c-0.1,0.1-0.1,0.2-0.1,0.3c0,0.1,0,0.2,0.1,0.3
	c0.1,0.1,0.2,0.1,0.3,0.1H28v0.8h-2.6c-0.1,0-0.2,0-0.3,0.1c-0.1,0.1-0.1,0.2-0.1,0.3c0,0.1,0,0.2,0.1,0.3c0.1,0.1,0.2,0.1,0.3,0.1
	H28v0.8h-1.9c-0.1,0-0.1,0-0.2,0c-0.1,0-0.1,0.1-0.1,0.1l-1.5,2.3c-0.1-0.1-0.3-0.1-0.5-0.1c-0.2,0-0.5,0.1-0.7,0.2
	s-0.3,0.4-0.4,0.6c-0.1,0.2-0.1,0.5,0,0.8c0.1,0.2,0.2,0.4,0.5,0.6c0.2,0.1,0.4,0.2,0.7,0.2c0.2,0,0.5-0.1,0.7-0.3
	c0.2-0.2,0.3-0.4,0.4-0.7c0-0.3,0-0.5-0.1-0.8l0-0.1l1.4-2.2H28c0,0.5,0.2,1,0.5,1.4c0.3,0.4,0.8,0.6,1.3,0.6H36.6z M39,247.8
	c0.1,0,0.1-0.1,0.2-0.1c0,0,0.1,0,0.1,0c0.1,0,0.1,0.1,0.2,0.1c0,0.1,0.1,0.1,0.1,0.2c0,0.1,0,0.1-0.1,0.2c0,0.1-0.1,0.1-0.1,0.1
	c-0.1,0-0.1,0.1-0.2,0.1c-0.1,0-0.1,0-0.2-0.1c0,0-0.1-0.1-0.1-0.1c0-0.1,0-0.1,0-0.2c0-0.1,0-0.1,0-0.2
	C38.9,247.8,38.9,247.8,39,247.8z M28.2,247.6c-0.1,0-0.1,0.1-0.2,0.1c-0.1,0-0.2,0-0.3-0.1c-0.1-0.1-0.1-0.2-0.1-0.3s0-0.2,0.1-0.3
	c0.1-0.1,0.2-0.1,0.3-0.1c0.1,0,0.1,0,0.2,0.1c0,0,0.1,0.1,0.1,0.1c0,0.1,0,0.1,0,0.2c0,0.1,0,0.1,0,0.2
	C28.3,247.5,28.3,247.6,28.2,247.6z M24.9,253.2c-0.1,0-0.1,0.1-0.2,0.1c-0.1,0-0.2,0-0.3-0.1c-0.1-0.1-0.1-0.2-0.1-0.3
	c0-0.1,0-0.1,0-0.1c0,0,0-0.1,0.1-0.1c0,0,0,0,0,0c0,0,0,0,0,0c0,0,0,0,0.1-0.1c0.1,0,0.1,0,0.2,0c0.1,0,0.1,0,0.2,0.1
	c0.1,0,0.1,0.1,0.1,0.1c0,0.1,0,0.1,0,0.2c0,0.1,0,0.1,0,0.2C25,253.1,24.9,253.1,24.9,253.2z M23.5,258.6c0,0.1-0.1,0.1-0.1,0.1
	c-0.1,0-0.1,0-0.2,0c-0.1,0-0.2,0-0.3-0.1c-0.1-0.1-0.1-0.2-0.1-0.3c0-0.1,0-0.1,0-0.2c0,0,0-0.1,0.1-0.1c0,0,0.1-0.1,0.1-0.1
	c0,0,0.1,0,0.1,0c0.1,0,0.2,0,0.3,0.1c0.1,0.1,0.1,0.2,0.1,0.3C23.5,258.4,23.5,258.5,23.5,258.6z M24.2,264.6c0,0-0.1,0.1-0.1,0.1
	c0,0-0.1,0-0.1,0c-0.1,0-0.2,0-0.3-0.1c-0.1-0.1-0.1-0.2-0.1-0.3c0-0.1,0-0.2,0.1-0.3c0.1-0.1,0.2-0.1,0.3-0.1c0,0,0.1,0,0.1,0
	c0,0,0.1,0,0.1,0.1c0,0,0.1,0.1,0.1,0.1c0,0,0,0.1,0,0.2c0,0.1,0,0.1,0,0.2C24.2,264.5,24.2,264.5,24.2,264.6z M33.2,248.2
	c0,0,0.1,0,0.1,0c0,0,0.1,0,0.1,0.1c0,0,0.1,0.1,0.1,0.1c0,0,0,0.1,0,0.2c0,0.1,0,0.1,0,0.2c0,0.1-0.1,0.1-0.1,0.1
	c-0.1,0-0.1,0.1-0.2,0.1c-0.1,0-0.1,0-0.2-0.1l-0.1,0c-0.1-0.1-0.1-0.1-0.1-0.2c0-0.1,0-0.2,0-0.2c0-0.1,0.1-0.1,0.1-0.2
	S33.2,248.2,33.2,248.2z M29.4,262.6c-0.2-0.1-0.4-0.2-0.5-0.4c-0.1-0.2-0.2-0.4-0.2-0.6v-7.1c0-0.3,0.1-0.6,0.3-0.8
	c0.2-0.2,0.5-0.3,0.8-0.3h6.7c0.2,0,0.4,0,0.5,0.1c0.2,0.1,0.3,0.3,0.4,0.4c0.1,0.2,0.2,0.4,0.2,0.6v7.1c0,0.3-0.1,0.6-0.3,0.8
	c-0.2,0.2-0.5,0.3-0.8,0.3h-6.7c-0.1,0-0.2,0-0.3-0.1L29.4,262.6z"/>
<path class="st10" d="M40.4,252.9l7.7,0c0.2,0,0.5,0.1,0.7,0.3c0.2,0.2,0.3,0.4,0.3,0.7v4.3c0,0.3-0.1,0.7-0.4,0.9
	c-0.2,0.2-0.5,0.4-0.9,0.4l-7.4,0c0,0-0.1,0-0.1,0c0,0,0,0-0.1,0c0,0,0,0,0,0c0,0,0,0,0,0c0,0,0-0.1-0.1-0.1c0,0,0-0.1,0-0.1v-0.1
	c0-0.1,0-0.2,0.1-0.2c0.1-0.1,0.1-0.1,0.2-0.1l7.8,0c0.1,0,0.1,0,0.2-0.1c0,0,0.1-0.1,0.1-0.2v-4.6c0-0.1,0-0.1-0.1-0.2
	c0,0-0.1-0.1-0.2-0.1l-7.7,0c-0.1,0-0.2,0-0.2-0.1c-0.1-0.1-0.1-0.1-0.1-0.2v-0.1c0-0.1,0-0.2,0.1-0.2
	C40.2,253,40.3,252.9,40.4,252.9z"/>
<path class="st10" d="M41.7,255.8c0.1,0.1,0.1,0.2,0.1,0.4c0,0.2-0.1,0.4-0.2,0.5c-0.1,0.1-0.3,0.2-0.5,0.2c-0.1,0-0.3,0-0.4-0.1
	c-0.1-0.1-0.2-0.2-0.2-0.3c0-0.1-0.1-0.3,0-0.4c0-0.1,0.1-0.3,0.2-0.3c0.1-0.1,0.2-0.2,0.3-0.2c0.1,0,0.3,0,0.4,0
	C41.6,255.6,41.7,255.7,41.7,255.8z"/>
<path class="st10" d="M41.7,263c0.1,0.1,0.1,0.2,0.1,0.4c0,0.2-0.1,0.4-0.2,0.5c-0.1,0.1-0.3,0.2-0.5,0.2c-0.1,0-0.3,0-0.4-0.1
	c-0.1-0.1-0.2-0.2-0.2-0.3c0-0.1-0.1-0.3,0-0.4c0-0.1,0.1-0.3,0.2-0.4c0.1-0.1,0.2-0.2,0.3-0.2c0.1,0,0.3,0,0.4,0
	S41.7,262.9,41.7,263z"/>
<path class="st10" d="M46.2,264.1c0.3-0.1,0.6-0.5,0.5-0.8c-0.1-0.4-0.4-0.6-0.8-0.5c-0.3,0.1-0.6,0.5-0.5,0.8
	C45.5,263.9,45.8,264.1,46.2,264.1z"/>
<path class="st10" d="M40.3,260.1l7.7,0c0.2,0,0.5,0.1,0.7,0.3c0.2,0.2,0.3,0.4,0.3,0.7v4.6c0,0.3-0.1,0.5-0.3,0.7
	c-0.2,0.2-0.4,0.3-0.7,0.3H28.7c-0.2,0-0.5-0.1-0.7-0.3c-0.2-0.2-0.3-0.4-0.3-0.7l0-1.1c0-0.1,0-0.1,0-0.2c0,0,0-0.1,0-0.1
	c0,0,0,0,0-0.1c0,0,0.1-0.1,0.1-0.1c0,0,0.1,0,0.1,0h0c0.1,0,0.2,0.1,0.2,0.1c0.1,0.1,0.1,0.2,0.1,0.2l0,1.1c0,0.1,0,0.1,0.1,0.2
	c0,0,0.1,0.1,0.2,0.1h19.4c0.1,0,0.1,0,0.2-0.1c0,0,0.1-0.1,0.1-0.2v-4.6c0-0.1,0-0.1-0.1-0.2c0,0-0.1-0.1-0.2-0.1l-7.7,0
	c0,0-0.1,0-0.1,0c0,0-0.1,0-0.1-0.1c0,0-0.1-0.1-0.1-0.1c0,0,0-0.1,0-0.1c0-0.1,0-0.2,0.1-0.3C40.1,260.2,40.2,260.1,40.3,260.1z"/>
<path class="st10" d="M43.8,264.1c0.3-0.1,0.6-0.5,0.5-0.8s-0.4-0.6-0.8-0.5s-0.6,0.5-0.5,0.8S43.5,264.1,43.8,264.1z"/>
<path class="st10" d="M43.7,256.9c0.4,0,0.6-0.3,0.6-0.7c0-0.4-0.3-0.7-0.6-0.7c-0.4,0-0.6,0.3-0.6,0.7
	C43,256.6,43.3,256.9,43.7,256.9z"/>
<path class="st10" d="M43.7,269.9c-0.1,0-0.3,0-0.4,0.1c-0.1,0.1-0.2,0.2-0.2,0.3c0,0.1-0.1,0.3,0,0.4c0,0.1,0.1,0.3,0.2,0.4
	s0.2,0.2,0.3,0.2c0.1,0,0.3,0,0.4,0c0.1-0.1,0.2-0.1,0.3-0.3c0.1-0.1,0.1-0.2,0.1-0.4c0-0.2-0.1-0.4-0.2-0.5
	C44,270,43.9,269.9,43.7,269.9z"/>
<path class="st10" d="M40.9,270c0.1-0.1,0.2-0.1,0.4-0.1c0.1,0,0.2,0,0.2,0.1c0.1,0,0.2,0.1,0.2,0.1c0.1,0.1,0.1,0.1,0.1,0.2
	c0,0.1,0,0.2,0,0.3c0,0.1,0,0.3-0.1,0.4c-0.1,0.1-0.2,0.2-0.3,0.3s-0.2,0.1-0.4,0c-0.1,0-0.2-0.1-0.3-0.2c-0.1-0.1-0.2-0.2-0.2-0.4
	c0-0.1,0-0.3,0-0.4C40.7,270.2,40.7,270.1,40.9,270z"/>
<path class="st10" d="M46,269.9c-0.1,0-0.3,0-0.4,0.1c-0.1,0.1-0.2,0.2-0.2,0.3c0,0.1-0.1,0.3,0,0.4c0,0.1,0.1,0.3,0.2,0.4
	c0.1,0.1,0.2,0.2,0.3,0.2c0.1,0,0.3,0,0.4,0c0.1-0.1,0.2-0.1,0.3-0.3c0.1-0.1,0.1-0.2,0.1-0.4c0-0.2-0.1-0.4-0.2-0.5
	C46.4,270,46.2,269.9,46,269.9z"/>
<path class="st9" d="M28.7,267.3h19.4c0.2,0,0.5,0.1,0.7,0.3c0.2,0.2,0.3,0.4,0.3,0.7v4.6c0,0.3-0.1,0.5-0.3,0.7
	c-0.2,0.2-0.4,0.3-0.7,0.3H28.7c-0.2,0-0.5-0.1-0.7-0.3c-0.2-0.2-0.3-0.4-0.3-0.7v-4.6c0-0.3,0.1-0.5,0.3-0.7
	C28.2,267.4,28.4,267.3,28.7,267.3z M48.3,273c0,0,0-0.1,0-0.1v-4.6c0-0.1,0-0.1,0-0.1l0,0h0l-0.1,0c0,0-0.1,0-0.1,0H28.7
	c0,0-0.1,0-0.1,0c0,0,0,0,0,0c0,0,0,0,0,0c0,0,0,0,0,0c0,0,0,0,0,0c0,0,0,0,0,0c0,0,0,0.1,0,0.1v4.6c0,0.1,0,0.1,0.1,0.2
	c0,0,0.1,0.1,0.2,0.1h19.4c0,0,0.1,0,0.1,0C48.2,273.1,48.2,273.1,48.3,273L48.3,273z"/>
<path class="st10" d="M46.7,256.2c0,0.4-0.3,0.7-0.6,0.7c-0.4,0-0.6-0.3-0.6-0.7c0-0.4,0.3-0.7,0.6-0.7
	C46.4,255.5,46.7,255.8,46.7,256.2z"/>
<radialGradient id="SVGID_5_" cx="-247.53" cy="598.8222" r="1" gradientTransform="matrix(6.245883e-16 10.2003 10.4174 -6.378818e-16 -6199.6289 2844.1357)" gradientUnits="userSpaceOnUse">
	<stop  offset="0" style="stop-color:#677983"/>
	<stop  offset="1" style="stop-color:#677983;stop-opacity:0"/>
</radialGradient>
<path class="st12" d="M49,310.1v18.4c0,0.6-0.4,1-1,1H29.1c-0.6,0-1-0.4-1-1v-18.4c0-0.6,0.4-1,1-1H48C48.5,309.1,49,309.5,49,310.1
	z"/>
<path class="st13" d="M35.4,317.3H31c-0.2,0-0.5-0.1-0.7-0.3c-0.2-0.2-0.3-0.4-0.3-0.7v-4.6c0-0.3,0.1-0.5,0.3-0.7
	c0.2-0.2,0.4-0.3,0.7-0.3h4.4c0.2,0,0.5,0.1,0.7,0.3s0.3,0.4,0.3,0.7v4.6c0,0.1,0,0.3-0.1,0.4s-0.1,0.2-0.2,0.3
	c-0.1,0.1-0.2,0.2-0.3,0.2C35.6,317.2,35.5,317.3,35.4,317.3z M30.9,311.5c0,0-0.1,0.1-0.1,0.2v4.6c0,0.1,0,0.1,0.1,0.2
	c0,0,0.1,0.1,0.2,0.1h4.4c0,0,0.1,0,0.1,0s0.1,0,0.1-0.1l0,0c0,0,0-0.1,0-0.1v-4.6c0,0,0-0.1,0-0.1l0,0h0l-0.1,0c0,0-0.1,0-0.1,0H31
	C31,311.4,31,311.4,30.9,311.5C30.9,311.4,30.9,311.5,30.9,311.5z"/>
<path class="st13" d="M36.6,319.5c0.9,0,1.8-0.7,1.9-1.7c0-1.8,0-7.4,0-7.4c0-0.3,0-0.5-0.1-0.8c-0.1-0.2-0.2-0.5-0.4-0.6
	c-0.2-0.2-0.4-0.3-0.6-0.4c-0.2-0.1-0.5-0.1-0.7-0.1v-1l2.1-2.3h0c0.1,0.1,0.3,0.1,0.5,0.1c0.2,0,0.5-0.1,0.7-0.2
	c0.2-0.2,0.3-0.4,0.4-0.6c0.1-0.2,0.1-0.5,0-0.8c-0.1-0.2-0.2-0.4-0.5-0.6c-0.2-0.1-0.4-0.2-0.7-0.2c-0.2,0-0.5,0.1-0.7,0.3
	c-0.2,0.2-0.3,0.4-0.4,0.7c0,0.3,0,0.5,0.1,0.8h0l-2.2,2.4c0,0-0.1,0.1-0.1,0.1c0,0,0,0.1,0,0.2v1.2h-0.7v-1.5c0-0.1,0-0.2-0.1-0.3
	c-0.1-0.1-0.2-0.1-0.3-0.1c-0.1,0-0.2,0-0.3,0.1c-0.1,0.1-0.1,0.2-0.1,0.3v1.5h-0.7v-2.8c0.2-0.1,0.4-0.2,0.5-0.4
	c0.1-0.2,0.2-0.4,0.2-0.6c0-0.2,0-0.5-0.2-0.7c-0.1-0.2-0.3-0.4-0.5-0.5c-0.2-0.1-0.4-0.1-0.6-0.1c-0.2,0-0.4,0.1-0.6,0.3
	c-0.2,0.2-0.3,0.4-0.3,0.6c-0.1,0.2,0,0.5,0,0.7c0.1,0.2,0.1,0.3,0.3,0.4c0.1,0.1,0.3,0.2,0.4,0.3v2.8h-0.7v-1.5
	c0-0.1,0-0.2-0.1-0.3c-0.1-0.1-0.2-0.1-0.3-0.1c-0.1,0-0.2,0-0.3,0.1c-0.1,0.1-0.1,0.2-0.1,0.3v1.5h-0.7v-2.8c0-0.1,0-0.2-0.1-0.3
	l-1.5-1.6c0.1-0.2,0.1-0.3,0.1-0.5c0-0.2-0.1-0.5-0.2-0.7c-0.1-0.2-0.3-0.3-0.5-0.4c-0.2-0.1-0.4-0.1-0.6-0.1
	c-0.2,0-0.4,0.2-0.6,0.3c-0.2,0.2-0.3,0.4-0.3,0.6c0,0.2,0,0.5,0.1,0.7c0.1,0.2,0.2,0.4,0.4,0.5c0.2,0.1,0.4,0.2,0.6,0.2
	c0.2,0,0.3,0,0.5-0.1h0l1.4,1.5v2.6c-0.5,0-1,0.2-1.3,0.6c-0.3,0.4-0.5,0.9-0.5,1.4h-1.3l-1-1.1h0c0.1-0.2,0.1-0.3,0.1-0.5
	c0-0.2-0.1-0.5-0.2-0.7c-0.1-0.2-0.3-0.3-0.5-0.4c-0.2-0.1-0.4-0.1-0.6-0.1c-0.2,0-0.4,0.2-0.6,0.3c-0.2,0.2-0.3,0.4-0.3,0.6
	c0,0.2,0,0.5,0.1,0.7c0.1,0.2,0.2,0.4,0.4,0.5c0.2,0.1,0.4,0.2,0.6,0.2c0.2,0,0.3,0,0.5-0.1l1.1,1.2c0.1,0.1,0.2,0.1,0.3,0.1H28v0.8
	h-2.2c-0.1,0-0.2,0-0.2,0.1l-1.6,1.4c-0.2-0.2-0.5-0.3-0.7-0.3c-0.2,0-0.4,0.1-0.6,0.2c-0.2,0.1-0.3,0.3-0.4,0.5
	c-0.1,0.2-0.1,0.5-0.1,0.7c0,0.2,0.1,0.4,0.3,0.6c0.2,0.2,0.4,0.3,0.6,0.3c0.2,0,0.4,0,0.6-0.1c0.2-0.1,0.4-0.2,0.5-0.4
	s0.2-0.4,0.2-0.7c0-0.1,0-0.1,0-0.2l1.6-1.4H28v0.8h-1.1c-0.1,0-0.2,0-0.3,0.1c-0.1,0.1-0.1,0.2-0.1,0.3c0,0.1,0,0.2,0.1,0.3
	c0.1,0.1,0.2,0.1,0.3,0.1H28v0.8h-2.6c-0.1,0-0.2,0-0.3,0.1c-0.1,0.1-0.1,0.2-0.1,0.3c0,0.1,0,0.2,0.1,0.3c0.1,0.1,0.2,0.1,0.3,0.1
	H28v0.8h-1.9c-0.1,0-0.1,0-0.2,0c-0.1,0-0.1,0.1-0.1,0.1l-1.5,2.3c-0.1-0.1-0.3-0.1-0.5-0.1c-0.2,0-0.5,0.1-0.7,0.2
	s-0.3,0.4-0.4,0.6c-0.1,0.2-0.1,0.5,0,0.8c0.1,0.2,0.2,0.4,0.5,0.6c0.2,0.1,0.4,0.2,0.7,0.2c0.2,0,0.5-0.1,0.7-0.3
	c0.2-0.2,0.3-0.4,0.4-0.7c0-0.3,0-0.5-0.1-0.8l0-0.1l1.4-2.2H28c0,0.5,0.2,1,0.5,1.4c0.3,0.4,0.8,0.6,1.3,0.6H36.6z M39,303.8
	c0.1,0,0.1-0.1,0.2-0.1c0,0,0.1,0,0.1,0c0.1,0,0.1,0.1,0.2,0.1c0,0.1,0.1,0.1,0.1,0.2c0,0.1,0,0.1-0.1,0.2c0,0.1-0.1,0.1-0.1,0.1
	c-0.1,0-0.1,0.1-0.2,0.1c-0.1,0-0.1,0-0.2-0.1c0,0-0.1-0.1-0.1-0.1c0-0.1,0-0.1,0-0.2s0-0.1,0-0.2C38.9,303.8,38.9,303.8,39,303.8z
	 M28.2,303.6c-0.1,0-0.1,0.1-0.2,0.1c-0.1,0-0.2,0-0.3-0.1c-0.1-0.1-0.1-0.2-0.1-0.3s0-0.2,0.1-0.3c0.1-0.1,0.2-0.1,0.3-0.1
	c0.1,0,0.1,0,0.2,0.1c0,0,0.1,0.1,0.1,0.1c0,0.1,0,0.1,0,0.2c0,0.1,0,0.1,0,0.2C28.3,303.5,28.3,303.6,28.2,303.6z M24.9,309.2
	c-0.1,0-0.1,0.1-0.2,0.1c-0.1,0-0.2,0-0.3-0.1c-0.1-0.1-0.1-0.2-0.1-0.3c0-0.1,0-0.1,0-0.1c0,0,0-0.1,0.1-0.1c0,0,0,0,0,0
	c0,0,0,0,0,0c0,0,0,0,0.1-0.1c0.1,0,0.1,0,0.2,0c0.1,0,0.1,0,0.2,0.1c0.1,0,0.1,0.1,0.1,0.1c0,0.1,0,0.1,0,0.2c0,0.1,0,0.1,0,0.2
	C25,309.1,24.9,309.1,24.9,309.2z M23.5,314.6c0,0.1-0.1,0.1-0.1,0.1c-0.1,0-0.1,0-0.2,0c-0.1,0-0.2,0-0.3-0.1
	c-0.1-0.1-0.1-0.2-0.1-0.3c0-0.1,0-0.1,0-0.2c0,0,0-0.1,0.1-0.1c0,0,0.1-0.1,0.1-0.1c0,0,0.1,0,0.1,0c0.1,0,0.2,0,0.3,0.1
	c0.1,0.1,0.1,0.2,0.1,0.3C23.5,314.4,23.5,314.5,23.5,314.6z M24.2,320.6c0,0-0.1,0.1-0.1,0.1c0,0-0.1,0-0.1,0c-0.1,0-0.2,0-0.3-0.1
	c-0.1-0.1-0.1-0.2-0.1-0.3c0-0.1,0-0.2,0.1-0.3c0.1-0.1,0.2-0.1,0.3-0.1c0,0,0.1,0,0.1,0c0,0,0.1,0,0.1,0.1c0,0,0.1,0.1,0.1,0.1
	c0,0,0,0.1,0,0.2c0,0.1,0,0.1,0,0.2C24.2,320.5,24.2,320.5,24.2,320.6z M33.2,304.2c0,0,0.1,0,0.1,0c0,0,0.1,0,0.1,0.1
	c0,0,0.1,0.1,0.1,0.1c0,0,0,0.1,0,0.2c0,0.1,0,0.1,0,0.2c0,0.1-0.1,0.1-0.1,0.1c-0.1,0-0.1,0.1-0.2,0.1c-0.1,0-0.1,0-0.2-0.1l-0.1,0
	c-0.1-0.1-0.1-0.1-0.1-0.2c0-0.1,0-0.2,0-0.2c0-0.1,0.1-0.1,0.1-0.2S33.2,304.2,33.2,304.2z M29.4,318.6c-0.2-0.1-0.4-0.2-0.5-0.4
	c-0.1-0.2-0.2-0.4-0.2-0.6v-7.1c0-0.3,0.1-0.6,0.3-0.8c0.2-0.2,0.5-0.3,0.8-0.3h6.7c0.2,0,0.4,0,0.5,0.1c0.2,0.1,0.3,0.3,0.4,0.4
	c0.1,0.2,0.2,0.4,0.2,0.6v7.1c0,0.3-0.1,0.6-0.3,0.8c-0.2,0.2-0.5,0.3-0.8,0.3h-6.7c-0.1,0-0.2,0-0.3-0.1L29.4,318.6z"/>
<path class="st14" d="M40.4,308.9l7.7,0c0.2,0,0.5,0.1,0.7,0.3c0.2,0.2,0.3,0.4,0.3,0.7v4.3c0,0.3-0.1,0.7-0.4,0.9
	c-0.2,0.2-0.5,0.4-0.9,0.4l-7.4,0c0,0-0.1,0-0.1,0c0,0,0,0-0.1,0c0,0,0,0,0,0c0,0,0,0,0,0c0,0,0-0.1-0.1-0.1c0,0,0-0.1,0-0.1v-0.1
	c0-0.1,0-0.2,0.1-0.2c0.1-0.1,0.1-0.1,0.2-0.1l7.8,0c0.1,0,0.1,0,0.2-0.1c0,0,0.1-0.1,0.1-0.2v-4.6c0-0.1,0-0.1-0.1-0.2
	c0,0-0.1-0.1-0.2-0.1l-7.7,0c-0.1,0-0.2,0-0.2-0.1c-0.1-0.1-0.1-0.1-0.1-0.2v-0.1c0-0.1,0-0.2,0.1-0.2
	C40.2,309,40.3,308.9,40.4,308.9z"/>
<path class="st14" d="M41.7,311.8c0.1,0.1,0.1,0.2,0.1,0.4c0,0.2-0.1,0.4-0.2,0.5c-0.1,0.1-0.3,0.2-0.5,0.2c-0.1,0-0.3,0-0.4-0.1
	c-0.1-0.1-0.2-0.2-0.2-0.3c0-0.1-0.1-0.3,0-0.4c0-0.1,0.1-0.3,0.2-0.3c0.1-0.1,0.2-0.2,0.3-0.2c0.1,0,0.3,0,0.4,0
	C41.6,311.6,41.7,311.7,41.7,311.8z"/>
<path class="st14" d="M41.7,319c0.1,0.1,0.1,0.2,0.1,0.4c0,0.2-0.1,0.4-0.2,0.5c-0.1,0.1-0.3,0.2-0.5,0.2c-0.1,0-0.3,0-0.4-0.1
	c-0.1-0.1-0.2-0.2-0.2-0.3c0-0.1-0.1-0.3,0-0.4c0-0.1,0.1-0.3,0.2-0.4c0.1-0.1,0.2-0.2,0.3-0.2c0.1,0,0.3,0,0.4,0
	S41.7,318.9,41.7,319z"/>
<path class="st14" d="M46.2,320.1c0.3-0.1,0.6-0.5,0.5-0.8c-0.1-0.4-0.4-0.6-0.8-0.5c-0.3,0.1-0.6,0.5-0.5,0.8
	C45.5,319.9,45.8,320.1,46.2,320.1z"/>
<path class="st14" d="M40.3,316.1l7.7,0c0.2,0,0.5,0.1,0.7,0.3c0.2,0.2,0.3,0.4,0.3,0.7v4.6c0,0.3-0.1,0.5-0.3,0.7
	c-0.2,0.2-0.4,0.3-0.7,0.3H28.7c-0.2,0-0.5-0.1-0.7-0.3c-0.2-0.2-0.3-0.4-0.3-0.7l0-1.1c0-0.1,0-0.1,0-0.2c0,0,0-0.1,0-0.1
	c0,0,0,0,0-0.1c0,0,0.1-0.1,0.1-0.1c0,0,0.1,0,0.1,0h0c0.1,0,0.2,0.1,0.2,0.1c0.1,0.1,0.1,0.2,0.1,0.2l0,1.1c0,0.1,0,0.1,0.1,0.2
	c0,0,0.1,0.1,0.2,0.1h19.4c0.1,0,0.1,0,0.2-0.1c0,0,0.1-0.1,0.1-0.2v-4.6c0-0.1,0-0.1-0.1-0.2c0,0-0.1-0.1-0.2-0.1l-7.7,0
	c0,0-0.1,0-0.1,0c0,0-0.1,0-0.1-0.1c0,0-0.1-0.1-0.1-0.1c0,0,0-0.1,0-0.1c0-0.1,0-0.2,0.1-0.3C40.1,316.2,40.2,316.1,40.3,316.1z"/>
<path class="st14" d="M43.8,320.1c0.3-0.1,0.6-0.5,0.5-0.8s-0.4-0.6-0.8-0.5s-0.6,0.5-0.5,0.8S43.5,320.1,43.8,320.1z"/>
<path class="st14" d="M43.7,312.9c0.4,0,0.6-0.3,0.6-0.7c0-0.4-0.3-0.7-0.6-0.7c-0.4,0-0.6,0.3-0.6,0.7
	C43,312.6,43.3,312.9,43.7,312.9z"/>
<path class="st14" d="M43.7,325.9c-0.1,0-0.3,0-0.4,0.1c-0.1,0.1-0.2,0.2-0.2,0.3c0,0.1-0.1,0.3,0,0.4c0,0.1,0.1,0.3,0.2,0.4
	s0.2,0.2,0.3,0.2c0.1,0,0.3,0,0.4,0c0.1-0.1,0.2-0.1,0.3-0.3c0.1-0.1,0.1-0.2,0.1-0.4c0-0.2-0.1-0.4-0.2-0.5
	C44,326,43.9,325.9,43.7,325.9z"/>
<path class="st14" d="M40.9,326c0.1-0.1,0.2-0.1,0.4-0.1c0.1,0,0.2,0,0.2,0.1c0.1,0,0.2,0.1,0.2,0.1c0.1,0.1,0.1,0.1,0.1,0.2
	c0,0.1,0,0.2,0,0.3c0,0.1,0,0.3-0.1,0.4c-0.1,0.1-0.2,0.2-0.3,0.3s-0.2,0.1-0.4,0c-0.1,0-0.2-0.1-0.3-0.2c-0.1-0.1-0.2-0.2-0.2-0.4
	c0-0.1,0-0.3,0-0.4C40.7,326.2,40.7,326.1,40.9,326z"/>
<path class="st14" d="M46,325.9c-0.1,0-0.3,0-0.4,0.1c-0.1,0.1-0.2,0.2-0.2,0.3c0,0.1-0.1,0.3,0,0.4c0,0.1,0.1,0.3,0.2,0.4
	c0.1,0.1,0.2,0.2,0.3,0.2c0.1,0,0.3,0,0.4,0c0.1-0.1,0.2-0.1,0.3-0.3c0.1-0.1,0.1-0.2,0.1-0.4c0-0.2-0.1-0.4-0.2-0.5
	C46.4,326,46.2,325.9,46,325.9z"/>
<path class="st13" d="M28.7,323.3h19.4c0.2,0,0.5,0.1,0.7,0.3c0.2,0.2,0.3,0.4,0.3,0.7v4.6c0,0.3-0.1,0.5-0.3,0.7
	c-0.2,0.2-0.4,0.3-0.7,0.3H28.7c-0.2,0-0.5-0.1-0.7-0.3c-0.2-0.2-0.3-0.4-0.3-0.7v-4.6c0-0.3,0.1-0.5,0.3-0.7
	C28.2,323.4,28.4,323.3,28.7,323.3z M48.3,329c0,0,0-0.1,0-0.1v-4.6c0-0.1,0-0.1,0-0.1l0,0h0l-0.1,0c0,0-0.1,0-0.1,0H28.7
	c0,0-0.1,0-0.1,0c0,0,0,0,0,0c0,0,0,0,0,0c0,0,0,0,0,0c0,0,0,0,0,0c0,0,0,0,0,0c0,0,0,0.1,0,0.1v4.6c0,0.1,0,0.1,0.1,0.2
	c0,0,0.1,0.1,0.2,0.1h19.4c0,0,0.1,0,0.1,0C48.2,329.1,48.2,329.1,48.3,329L48.3,329z"/>
<path class="st14" d="M46.7,312.2c0,0.4-0.3,0.7-0.6,0.7c-0.4,0-0.6-0.3-0.6-0.7c0-0.4,0.3-0.7,0.6-0.7
	C46.4,311.5,46.7,311.8,46.7,312.2z"/>
</svg>
