<?xml version="1.0" encoding="utf-8"?>
<!-- Generator: Adobe Illustrator 25.2.1, SVG Export Plug-In . SVG Version: 6.00 Build 0)  -->
<svg version="1.1" id="Layer_1" xmlns="http://www.w3.org/2000/svg" xmlns:xlink="http://www.w3.org/1999/xlink" x="0px" y="0px"
	 viewBox="0 0 72 352" style="enable-background:new 0 0 72 352;" xml:space="preserve">
<style type="text/css">
	.st0{fill-rule:evenodd;clip-rule:evenodd;fill:url(#SVGID_1_);fill-opacity:0.25;}
	.st1{fill:#0073EC;}
	.st2{fill-rule:evenodd;clip-rule:evenodd;fill:#0073EC;}
	.st3{fill-rule:evenodd;clip-rule:evenodd;fill:url(#SVGID_2_);fill-opacity:0.25;}
	.st4{fill:#A644E5;}
	.st5{fill-rule:evenodd;clip-rule:evenodd;fill:#A644E5;}
	.st6{fill-rule:evenodd;clip-rule:evenodd;fill:url(#SVGID_3_);fill-opacity:0.25;}
	.st7{fill:#00CAAA;}
	.st8{fill-rule:evenodd;clip-rule:evenodd;fill:#00CAAA;}
	.st9{fill:#434F58;}
	.st10{fill-rule:evenodd;clip-rule:evenodd;fill:#434F58;}
	.st11{fill-rule:evenodd;clip-rule:evenodd;fill:url(#SVGID_4_);fill-opacity:0.25;}
	.st12{fill-rule:evenodd;clip-rule:evenodd;fill:url(#SVGID_5_);fill-opacity:0.25;}
	.st13{fill:#677983;}
	.st14{fill-rule:evenodd;clip-rule:evenodd;fill:#677983;}
</style>
<radialGradient id="SVGID_1_" cx="-253.3571" cy="591.8772" r="1" gradientTransform="matrix(8.572528e-16 14 14.25 -8.725609e-16 -8398 3583)" gradientUnits="userSpaceOnUse">
	<stop  offset="0" style="stop-color:#0073EC"/>
	<stop  offset="1" style="stop-color:#0073EC;stop-opacity:0"/>
</radialGradient>
<path class="st0" d="M31.5,26.8c0-2.6,2.1-4.8,4.8-4.8c2.6,0,4.8,2.1,4.8,4.8v0.1c0.6,0.2,1,0.7,1,1.4c0,2.9,0,3,0,3h6.3
	c0.4,0,0.9,0.2,1.2,0.5c0.3,0.3,0.5,0.7,0.5,1.2v5.6c0,1.6,0,2.9,0,4.4l0.5,5.6c0,0.4-0.2,0.9-0.5,1.2c-0.3,0.3-0.7,0.5-1.2,0.5
	H23.7c-0.4,0-0.9-0.2-1.2-0.5c-0.3-0.3-0.5-0.7-0.5-1.2c0-5.2,0-10.3,0-15.5c0-0.4,0.2-0.9,0.5-1.2s0.7-0.5,1.2-0.5h6.9
	c0,0,0,0.3,0-3C30.6,27.6,31,27.1,31.5,26.8L31.5,26.8z"/>
<path class="st1" d="M34.5,32c0-0.3-0.2-0.5-0.5-0.5s-0.5,0.2-0.5,0.5v2c0,0.3,0.2,0.5,0.5,0.5s0.5-0.2,0.5-0.5V32z"/>
<path class="st2" d="M36.5,21.5c-2.8,0-5,2.2-5,5v0.1c-0.6,0.2-1,0.8-1,1.4v7c0,0.8,0.7,1.5,1.5,1.5h9c0.8,0,1.5-0.7,1.5-1.5v-7
	c0-0.7-0.4-1.2-1-1.4v-0.1C41.5,23.7,39.3,21.5,36.5,21.5z M40.5,26.5c0-2.2-1.8-4-4-4s-4,1.8-4,4H40.5z M32,27.5
	c-0.3,0-0.5,0.2-0.5,0.5v1.5h6v6H41c0.3,0,0.5-0.2,0.5-0.5v-7c0-0.3-0.2-0.5-0.5-0.5H32z M31.5,35v-4.5h5v5H32
	C31.7,35.5,31.5,35.3,31.5,35z"/>
<path class="st1" d="M22,31.6c0.3-0.3,0.8-0.5,1.2-0.5H29c0.3,0,0.5,0.2,0.5,0.5s-0.2,0.5-0.5,0.5h-5.7c-0.2,0-0.4,0.1-0.5,0.2
	c-0.1,0.1-0.2,0.3-0.2,0.5v5.8c0,0.2,0.1,0.4,0.2,0.5c0.1,0.1,0.3,0.2,0.5,0.2h25.9c0.2,0,0.4-0.1,0.5-0.2c0.1-0.1,0.2-0.3,0.2-0.5
	v-5.8c0-0.2-0.1-0.4-0.2-0.5c-0.1-0.1-0.3-0.2-0.5-0.2H44c-0.3,0-0.5-0.2-0.5-0.5s0.2-0.5,0.5-0.5h5.2c0.5,0,0.9,0.2,1.2,0.5
	c0.3,0.3,0.5,0.8,0.5,1.2v5.8v0c0,0.5-0.2,0.9-0.5,1.2c-0.3,0.3-0.8,0.5-1.2,0.5h0H23.3h0c-0.5,0-0.9-0.2-1.2-0.5
	c-0.3-0.3-0.5-0.8-0.5-1.2v0v-5.8C21.5,32.4,21.7,32,22,31.6z"/>
<path class="st1" d="M39.5,46.9C39.7,47,39.8,47,40,47c0.1,0,0.2,0,0.3-0.1c0.1,0,0.2-0.1,0.3-0.2c0.1-0.1,0.1-0.2,0.2-0.3
	c0-0.1,0.1-0.2,0.1-0.3c0-0.2-0.1-0.3-0.1-0.5c-0.1-0.1-0.2-0.3-0.4-0.3c-0.2-0.1-0.3-0.1-0.5,0c-0.2,0-0.3,0.1-0.4,0.2
	c-0.1,0.1-0.2,0.3-0.2,0.4c0,0.2,0,0.3,0,0.5C39.3,46.7,39.4,46.8,39.5,46.9z"/>
<path class="st1" d="M42.8,46.9C43,47,43.1,47,43.3,47c0.1,0,0.2,0,0.3-0.1c0.1,0,0.2-0.1,0.3-0.2s0.1-0.2,0.2-0.3
	c0-0.1,0.1-0.2,0.1-0.3c0-0.2-0.1-0.3-0.1-0.5c-0.1-0.1-0.2-0.3-0.4-0.3c-0.2-0.1-0.3-0.1-0.5,0c-0.2,0-0.3,0.1-0.4,0.2
	c-0.1,0.1-0.2,0.3-0.2,0.4c0,0.2,0,0.3,0,0.5C42.6,46.6,42.7,46.8,42.8,46.9z"/>
<path class="st1" d="M46,46.9c0.1,0.1,0.3,0.1,0.5,0.1c0.1,0,0.2,0,0.3-0.1c0.1,0,0.2-0.1,0.3-0.2c0.1-0.1,0.1-0.2,0.2-0.3
	c0-0.1,0.1-0.2,0.1-0.3c0-0.2-0.1-0.3-0.1-0.5c-0.1-0.1-0.2-0.3-0.4-0.3c-0.2-0.1-0.3-0.1-0.5,0c-0.2,0-0.3,0.1-0.4,0.2
	c-0.1,0.1-0.2,0.3-0.2,0.4c0,0.2,0,0.3,0,0.5C45.7,46.6,45.8,46.8,46,46.9z"/>
<path class="st2" d="M22,42c0.3-0.3,0.8-0.5,1.2-0.5h25.9c0.5,0,0.9,0.2,1.2,0.5c0.3,0.3,0.5,0.8,0.5,1.2v5.8c0,0.5-0.2,0.9-0.5,1.2
	c-0.3,0.3-0.8,0.5-1.2,0.5H23.3c-0.5,0-0.9-0.2-1.2-0.5c-0.3-0.3-0.5-0.8-0.5-1.2v-5.8C21.5,42.8,21.7,42.3,22,42z M23.3,42.5
	c-0.2,0-0.4,0.1-0.5,0.2c-0.1,0.1-0.2,0.3-0.2,0.5v5.8c0,0.2,0.1,0.4,0.2,0.5c0.1,0.1,0.3,0.2,0.5,0.2h25.9c0.2,0,0.4-0.1,0.5-0.2
	c0.1-0.1,0.2-0.3,0.2-0.5v-5.8c0-0.2-0.1-0.4-0.2-0.5c-0.1-0.1-0.3-0.2-0.5-0.2H23.3z"/>
<g>
	
		<radialGradient id="SVGID_2_" cx="-253.3571" cy="591.8772" r="1" gradientTransform="matrix(8.572528e-16 14 14.25 -8.725609e-16 -8398 3639)" gradientUnits="userSpaceOnUse">
		<stop  offset="0" style="stop-color:#A644E5"/>
		<stop  offset="1" style="stop-color:#A644E5;stop-opacity:0"/>
	</radialGradient>
	<path class="st3" d="M31.5,82.8c0-2.6,2.1-4.8,4.8-4.8c2.6,0,4.8,2.1,4.8,4.8v0.1c0.6,0.2,1,0.7,1,1.4c0,2.9,0,3,0,3h6.3
		c0.4,0,0.9,0.2,1.2,0.5c0.3,0.3,0.5,0.7,0.5,1.2v5.6c0,1.6,0,2.9,0,4.4l0.5,5.6c0,0.4-0.2,0.9-0.5,1.2c-0.3,0.3-0.7,0.5-1.2,0.5
		H23.7c-0.4,0-0.9-0.2-1.2-0.5c-0.3-0.3-0.5-0.7-0.5-1.2c0-5.2,0-10.3,0-15.5c0-0.4,0.2-0.9,0.5-1.2c0.3-0.3,0.7-0.5,1.2-0.5h6.9
		c0,0,0,0.3,0-3C30.6,83.6,31,83.1,31.5,82.8L31.5,82.8z"/>
</g>
<path class="st4" d="M34.5,88c0-0.3-0.2-0.5-0.5-0.5s-0.5,0.2-0.5,0.5v2c0,0.3,0.2,0.5,0.5,0.5s0.5-0.2,0.5-0.5V88z"/>
<path class="st5" d="M36.5,77.5c-2.8,0-5,2.2-5,5v0.1c-0.6,0.2-1,0.8-1,1.4v7c0,0.8,0.7,1.5,1.5,1.5h9c0.8,0,1.5-0.7,1.5-1.5v-7
	c0-0.7-0.4-1.2-1-1.4v-0.1C41.5,79.7,39.3,77.5,36.5,77.5z M40.5,82.5c0-2.2-1.8-4-4-4s-4,1.8-4,4H40.5z M32,83.5
	c-0.3,0-0.5,0.2-0.5,0.5v1.5h6v6H41c0.3,0,0.5-0.2,0.5-0.5v-7c0-0.3-0.2-0.5-0.5-0.5H32z M31.5,91v-4.5h5v5H32
	C31.7,91.5,31.5,91.3,31.5,91z"/>
<path class="st4" d="M22,87.6c0.3-0.3,0.8-0.5,1.2-0.5H29c0.3,0,0.5,0.2,0.5,0.5s-0.2,0.5-0.5,0.5h-5.7c-0.2,0-0.4,0.1-0.5,0.2
	c-0.1,0.1-0.2,0.3-0.2,0.5v5.8c0,0.2,0.1,0.4,0.2,0.5c0.1,0.1,0.3,0.2,0.5,0.2h25.9c0.2,0,0.4-0.1,0.5-0.2c0.1-0.1,0.2-0.3,0.2-0.5
	v-5.8c0-0.2-0.1-0.4-0.2-0.5c-0.1-0.1-0.3-0.2-0.5-0.2H44c-0.3,0-0.5-0.2-0.5-0.5s0.2-0.5,0.5-0.5h5.2c0.5,0,0.9,0.2,1.2,0.5
	c0.3,0.3,0.5,0.8,0.5,1.2v5.8v0c0,0.5-0.2,0.9-0.5,1.2c-0.3,0.3-0.8,0.5-1.2,0.5h0H23.3h0c-0.5,0-0.9-0.2-1.2-0.5
	c-0.3-0.3-0.5-0.8-0.5-1.2v0v-5.8C21.5,88.4,21.7,88,22,87.6z"/>
<path class="st4" d="M39.5,102.9c0.1,0.1,0.3,0.1,0.5,0.1c0.1,0,0.2,0,0.3-0.1c0.1,0,0.2-0.1,0.3-0.2c0.1-0.1,0.1-0.2,0.2-0.3
	c0-0.1,0.1-0.2,0.1-0.3c0-0.2-0.1-0.3-0.1-0.5c-0.1-0.1-0.2-0.3-0.4-0.3c-0.2-0.1-0.3-0.1-0.5,0c-0.2,0-0.3,0.1-0.4,0.2
	c-0.1,0.1-0.2,0.3-0.2,0.4c0,0.2,0,0.3,0,0.5C39.3,102.7,39.4,102.8,39.5,102.9z"/>
<path class="st4" d="M42.8,102.9c0.1,0.1,0.3,0.1,0.5,0.1c0.1,0,0.2,0,0.3-0.1c0.1,0,0.2-0.1,0.3-0.2c0.1-0.1,0.1-0.2,0.2-0.3
	c0-0.1,0.1-0.2,0.1-0.3c0-0.2-0.1-0.3-0.1-0.5c-0.1-0.1-0.2-0.3-0.4-0.3c-0.2-0.1-0.3-0.1-0.5,0c-0.2,0-0.3,0.1-0.4,0.2
	c-0.1,0.1-0.2,0.3-0.2,0.4c0,0.2,0,0.3,0,0.5C42.6,102.6,42.7,102.8,42.8,102.9z"/>
<path class="st4" d="M46,102.9c0.1,0.1,0.3,0.1,0.5,0.1c0.1,0,0.2,0,0.3-0.1c0.1,0,0.2-0.1,0.3-0.2c0.1-0.1,0.1-0.2,0.2-0.3
	c0-0.1,0.1-0.2,0.1-0.3c0-0.2-0.1-0.3-0.1-0.5c-0.1-0.1-0.2-0.3-0.4-0.3c-0.2-0.1-0.3-0.1-0.5,0c-0.2,0-0.3,0.1-0.4,0.2
	c-0.1,0.1-0.2,0.3-0.2,0.4c0,0.2,0,0.3,0,0.5C45.7,102.6,45.8,102.8,46,102.9z"/>
<path class="st5" d="M22,98c0.3-0.3,0.8-0.5,1.2-0.5h25.9c0.5,0,0.9,0.2,1.2,0.5c0.3,0.3,0.5,0.8,0.5,1.2v5.8c0,0.5-0.2,0.9-0.5,1.2
	c-0.3,0.3-0.8,0.5-1.2,0.5H23.3c-0.5,0-0.9-0.2-1.2-0.5c-0.3-0.3-0.5-0.8-0.5-1.2v-5.8C21.5,98.8,21.7,98.3,22,98z M23.3,98.5
	c-0.2,0-0.4,0.1-0.5,0.2c-0.1,0.1-0.2,0.3-0.2,0.5v5.8c0,0.2,0.1,0.4,0.2,0.5c0.1,0.1,0.3,0.2,0.5,0.2h25.9c0.2,0,0.4-0.1,0.5-0.2
	c0.1-0.1,0.2-0.3,0.2-0.5v-5.8c0-0.2-0.1-0.4-0.2-0.5c-0.1-0.1-0.3-0.2-0.5-0.2H23.3z"/>
<g>
	
		<radialGradient id="SVGID_3_" cx="-253.3571" cy="591.8772" r="1" gradientTransform="matrix(8.572528e-16 14 14.25 -8.725609e-16 -8398 3695)" gradientUnits="userSpaceOnUse">
		<stop  offset="0" style="stop-color:#00CAAA"/>
		<stop  offset="1" style="stop-color:#00CAAA;stop-opacity:0"/>
	</radialGradient>
	<path class="st6" d="M31.5,138.8c0-2.6,2.1-4.8,4.8-4.8c2.6,0,4.8,2.1,4.8,4.8v0.1c0.6,0.2,1,0.7,1,1.4c0,2.9,0,3,0,3h6.3
		c0.4,0,0.9,0.2,1.2,0.5c0.3,0.3,0.5,0.7,0.5,1.2v5.6c0,1.6,0,2.9,0,4.4l0.5,5.6c0,0.4-0.2,0.9-0.5,1.2c-0.3,0.3-0.7,0.5-1.2,0.5
		H23.7c-0.4,0-0.9-0.2-1.2-0.5c-0.3-0.3-0.5-0.7-0.5-1.2c0-5.2,0-10.3,0-15.5c0-0.4,0.2-0.9,0.5-1.2c0.3-0.3,0.7-0.5,1.2-0.5h6.9
		c0,0,0,0.3,0-3C30.6,139.6,31,139.1,31.5,138.8L31.5,138.8z"/>
</g>
<path class="st7" d="M34.5,144c0-0.3-0.2-0.5-0.5-0.5s-0.5,0.2-0.5,0.5v2c0,0.3,0.2,0.5,0.5,0.5s0.5-0.2,0.5-0.5V144z"/>
<path class="st8" d="M36.5,133.5c-2.8,0-5,2.2-5,5v0.1c-0.6,0.2-1,0.8-1,1.4v7c0,0.8,0.7,1.5,1.5,1.5h9c0.8,0,1.5-0.7,1.5-1.5v-7
	c0-0.7-0.4-1.2-1-1.4v-0.1C41.5,135.7,39.3,133.5,36.5,133.5z M40.5,138.5c0-2.2-1.8-4-4-4s-4,1.8-4,4H40.5z M32,139.5
	c-0.3,0-0.5,0.2-0.5,0.5v1.5h6v6H41c0.3,0,0.5-0.2,0.5-0.5v-7c0-0.3-0.2-0.5-0.5-0.5H32z M31.5,147v-4.5h5v5H32
	C31.7,147.5,31.5,147.3,31.5,147z"/>
<path class="st7" d="M22,143.6c0.3-0.3,0.8-0.5,1.2-0.5H29c0.3,0,0.5,0.2,0.5,0.5c0,0.3-0.2,0.5-0.5,0.5h-5.7
	c-0.2,0-0.4,0.1-0.5,0.2c-0.1,0.1-0.2,0.3-0.2,0.5v5.8c0,0.2,0.1,0.4,0.2,0.5c0.1,0.1,0.3,0.2,0.5,0.2h25.9c0.2,0,0.4-0.1,0.5-0.2
	c0.1-0.1,0.2-0.3,0.2-0.5v-5.8c0-0.2-0.1-0.4-0.2-0.5c-0.1-0.1-0.3-0.2-0.5-0.2H44c-0.3,0-0.5-0.2-0.5-0.5c0-0.3,0.2-0.5,0.5-0.5
	h5.2c0.5,0,0.9,0.2,1.2,0.5c0.3,0.3,0.5,0.8,0.5,1.2v5.8v0c0,0.5-0.2,0.9-0.5,1.2c-0.3,0.3-0.8,0.5-1.2,0.5h0H23.3h0
	c-0.5,0-0.9-0.2-1.2-0.5c-0.3-0.3-0.5-0.8-0.5-1.2v0v-5.8C21.5,144.4,21.7,144,22,143.6z"/>
<path class="st7" d="M39.5,158.9c0.1,0.1,0.3,0.1,0.5,0.1c0.1,0,0.2,0,0.3-0.1c0.1,0,0.2-0.1,0.3-0.2c0.1-0.1,0.1-0.2,0.2-0.3
	c0-0.1,0.1-0.2,0.1-0.3c0-0.2-0.1-0.3-0.1-0.5c-0.1-0.1-0.2-0.3-0.4-0.3c-0.2-0.1-0.3-0.1-0.5,0c-0.2,0-0.3,0.1-0.4,0.2
	c-0.1,0.1-0.2,0.3-0.2,0.4c0,0.2,0,0.3,0,0.5C39.3,158.7,39.4,158.8,39.5,158.9z"/>
<path class="st7" d="M42.8,158.9c0.1,0.1,0.3,0.1,0.5,0.1c0.1,0,0.2,0,0.3-0.1c0.1,0,0.2-0.1,0.3-0.2c0.1-0.1,0.1-0.2,0.2-0.3
	c0-0.1,0.1-0.2,0.1-0.3c0-0.2-0.1-0.3-0.1-0.5c-0.1-0.1-0.2-0.3-0.4-0.3c-0.2-0.1-0.3-0.1-0.5,0c-0.2,0-0.3,0.1-0.4,0.2
	s-0.2,0.3-0.2,0.4c0,0.2,0,0.3,0,0.5C42.6,158.6,42.7,158.8,42.8,158.9z"/>
<path class="st7" d="M46,158.9c0.1,0.1,0.3,0.1,0.5,0.1c0.1,0,0.2,0,0.3-0.1c0.1,0,0.2-0.1,0.3-0.2c0.1-0.1,0.1-0.2,0.2-0.3
	c0-0.1,0.1-0.2,0.1-0.3c0-0.2-0.1-0.3-0.1-0.5c-0.1-0.1-0.2-0.3-0.4-0.3c-0.2-0.1-0.3-0.1-0.5,0c-0.2,0-0.3,0.1-0.4,0.2
	s-0.2,0.3-0.2,0.4c0,0.2,0,0.3,0,0.5S45.8,158.8,46,158.9z"/>
<path class="st8" d="M22,154c0.3-0.3,0.8-0.5,1.2-0.5h25.9c0.5,0,0.9,0.2,1.2,0.5c0.3,0.3,0.5,0.8,0.5,1.2v5.8
	c0,0.5-0.2,0.9-0.5,1.2c-0.3,0.3-0.8,0.5-1.2,0.5H23.3c-0.5,0-0.9-0.2-1.2-0.5c-0.3-0.3-0.5-0.8-0.5-1.2v-5.8
	C21.5,154.8,21.7,154.3,22,154z M23.3,154.5c-0.2,0-0.4,0.1-0.5,0.2c-0.1,0.1-0.2,0.3-0.2,0.5v5.8c0,0.2,0.1,0.4,0.2,0.5
	c0.1,0.1,0.3,0.2,0.5,0.2h25.9c0.2,0,0.4-0.1,0.5-0.2c0.1-0.1,0.2-0.3,0.2-0.5v-5.8c0-0.2-0.1-0.4-0.2-0.5c-0.1-0.1-0.3-0.2-0.5-0.2
	H23.3z"/>
<path class="st9" d="M34.5,200c0-0.3-0.2-0.5-0.5-0.5s-0.5,0.2-0.5,0.5v2c0,0.3,0.2,0.5,0.5,0.5s0.5-0.2,0.5-0.5V200z"/>
<path class="st10" d="M36.5,189.5c-2.8,0-5,2.2-5,5v0.1c-0.6,0.2-1,0.8-1,1.4v7c0,0.8,0.7,1.5,1.5,1.5h9c0.8,0,1.5-0.7,1.5-1.5v-7
	c0-0.7-0.4-1.2-1-1.4v-0.1C41.5,191.7,39.3,189.5,36.5,189.5z M40.5,194.5c0-2.2-1.8-4-4-4s-4,1.8-4,4H40.5z M32,195.5
	c-0.3,0-0.5,0.2-0.5,0.5v1.5h6v6H41c0.3,0,0.5-0.2,0.5-0.5v-7c0-0.3-0.2-0.5-0.5-0.5H32z M31.5,203v-4.5h5v5H32
	C31.7,203.5,31.5,203.3,31.5,203z"/>
<path class="st9" d="M22,199.6c0.3-0.3,0.8-0.5,1.2-0.5H29c0.3,0,0.5,0.2,0.5,0.5c0,0.3-0.2,0.5-0.5,0.5h-5.7
	c-0.2,0-0.4,0.1-0.5,0.2c-0.1,0.1-0.2,0.3-0.2,0.5v5.8c0,0.2,0.1,0.4,0.2,0.5c0.1,0.1,0.3,0.2,0.5,0.2h25.9c0.2,0,0.4-0.1,0.5-0.2
	c0.1-0.1,0.2-0.3,0.2-0.5v-5.8c0-0.2-0.1-0.4-0.2-0.5c-0.1-0.1-0.3-0.2-0.5-0.2H44c-0.3,0-0.5-0.2-0.5-0.5c0-0.3,0.2-0.5,0.5-0.5
	h5.2c0.5,0,0.9,0.2,1.2,0.5c0.3,0.3,0.5,0.8,0.5,1.2v5.8v0c0,0.5-0.2,0.9-0.5,1.2c-0.3,0.3-0.8,0.5-1.2,0.5h0H23.3h0
	c-0.5,0-0.9-0.2-1.2-0.5c-0.3-0.3-0.5-0.8-0.5-1.2v0v-5.8C21.5,200.4,21.7,200,22,199.6z"/>
<path class="st9" d="M39.5,214.9c0.1,0.1,0.3,0.1,0.5,0.1c0.1,0,0.2,0,0.3-0.1c0.1,0,0.2-0.1,0.3-0.2c0.1-0.1,0.1-0.2,0.2-0.3
	c0-0.1,0.1-0.2,0.1-0.3c0-0.2-0.1-0.3-0.1-0.5c-0.1-0.1-0.2-0.3-0.4-0.3c-0.2-0.1-0.3-0.1-0.5,0c-0.2,0-0.3,0.1-0.4,0.2
	c-0.1,0.1-0.2,0.3-0.2,0.4c0,0.2,0,0.3,0,0.5C39.3,214.7,39.4,214.8,39.5,214.9z"/>
<path class="st9" d="M42.8,214.9c0.1,0.1,0.3,0.1,0.5,0.1c0.1,0,0.2,0,0.3-0.1c0.1,0,0.2-0.1,0.3-0.2c0.1-0.1,0.1-0.2,0.2-0.3
	c0-0.1,0.1-0.2,0.1-0.3c0-0.2-0.1-0.3-0.1-0.5c-0.1-0.1-0.2-0.3-0.4-0.3c-0.2-0.1-0.3-0.1-0.5,0c-0.2,0-0.3,0.1-0.4,0.2
	s-0.2,0.3-0.2,0.4c0,0.2,0,0.3,0,0.5C42.6,214.6,42.7,214.8,42.8,214.9z"/>
<path class="st9" d="M46,214.9c0.1,0.1,0.3,0.1,0.5,0.1c0.1,0,0.2,0,0.3-0.1c0.1,0,0.2-0.1,0.3-0.2c0.1-0.1,0.1-0.2,0.2-0.3
	c0-0.1,0.1-0.2,0.1-0.3c0-0.2-0.1-0.3-0.1-0.5c-0.1-0.1-0.2-0.3-0.4-0.3c-0.2-0.1-0.3-0.1-0.5,0c-0.2,0-0.3,0.1-0.4,0.2
	s-0.2,0.3-0.2,0.4c0,0.2,0,0.3,0,0.5S45.8,214.8,46,214.9z"/>
<path class="st10" d="M22,210c0.3-0.3,0.8-0.5,1.2-0.5h25.9c0.5,0,0.9,0.2,1.2,0.5c0.3,0.3,0.5,0.8,0.5,1.2v5.8
	c0,0.5-0.2,0.9-0.5,1.2c-0.3,0.3-0.8,0.5-1.2,0.5H23.3c-0.5,0-0.9-0.2-1.2-0.5c-0.3-0.3-0.5-0.8-0.5-1.2v-5.8
	C21.5,210.8,21.7,210.3,22,210z M23.3,210.5c-0.2,0-0.4,0.1-0.5,0.2c-0.1,0.1-0.2,0.3-0.2,0.5v5.8c0,0.2,0.1,0.4,0.2,0.5
	c0.1,0.1,0.3,0.2,0.5,0.2h25.9c0.2,0,0.4-0.1,0.5-0.2c0.1-0.1,0.2-0.3,0.2-0.5v-5.8c0-0.2-0.1-0.4-0.2-0.5c-0.1-0.1-0.3-0.2-0.5-0.2
	H23.3z"/>
<g>
	
		<radialGradient id="SVGID_4_" cx="-253.3571" cy="591.8772" r="1" gradientTransform="matrix(8.572528e-16 14 14.25 -8.725609e-16 -8398 3807)" gradientUnits="userSpaceOnUse">
		<stop  offset="0" style="stop-color:#434F58"/>
		<stop  offset="1" style="stop-color:#434F58;stop-opacity:0"/>
	</radialGradient>
	<path class="st11" d="M31.5,250.8c0-2.6,2.1-4.8,4.8-4.8c2.6,0,4.8,2.1,4.8,4.8v0.1c0.6,0.2,1,0.7,1,1.4c0,2.9,0,3,0,3h6.3
		c0.4,0,0.9,0.2,1.2,0.5c0.3,0.3,0.5,0.7,0.5,1.2v5.6c0,1.6,0,2.9,0,4.4l0.5,5.6c0,0.4-0.2,0.9-0.5,1.2c-0.3,0.3-0.7,0.5-1.2,0.5
		H23.7c-0.4,0-0.9-0.2-1.2-0.5c-0.3-0.3-0.5-0.7-0.5-1.2c0-5.2,0-10.3,0-15.5c0-0.4,0.2-0.9,0.5-1.2c0.3-0.3,0.7-0.5,1.2-0.5h6.9
		c0,0,0,0.3,0-3C30.6,251.6,31,251.1,31.5,250.8L31.5,250.8z"/>
</g>
<path class="st9" d="M34.5,256c0-0.3-0.2-0.5-0.5-0.5s-0.5,0.2-0.5,0.5v2c0,0.3,0.2,0.5,0.5,0.5s0.5-0.2,0.5-0.5V256z"/>
<path class="st10" d="M36.5,245.5c-2.8,0-5,2.2-5,5v0.1c-0.6,0.2-1,0.8-1,1.4v7c0,0.8,0.7,1.5,1.5,1.5h9c0.8,0,1.5-0.7,1.5-1.5v-7
	c0-0.7-0.4-1.2-1-1.4v-0.1C41.5,247.7,39.3,245.5,36.5,245.5z M40.5,250.5c0-2.2-1.8-4-4-4s-4,1.8-4,4H40.5z M32,251.5
	c-0.3,0-0.5,0.2-0.5,0.5v1.5h6v6H41c0.3,0,0.5-0.2,0.5-0.5v-7c0-0.3-0.2-0.5-0.5-0.5H32z M31.5,259v-4.5h5v5H32
	C31.7,259.5,31.5,259.3,31.5,259z"/>
<path class="st9" d="M22,255.6c0.3-0.3,0.8-0.5,1.2-0.5H29c0.3,0,0.5,0.2,0.5,0.5c0,0.3-0.2,0.5-0.5,0.5h-5.7
	c-0.2,0-0.4,0.1-0.5,0.2c-0.1,0.1-0.2,0.3-0.2,0.5v5.8c0,0.2,0.1,0.4,0.2,0.5c0.1,0.1,0.3,0.2,0.5,0.2h25.9c0.2,0,0.4-0.1,0.5-0.2
	c0.1-0.1,0.2-0.3,0.2-0.5v-5.8c0-0.2-0.1-0.4-0.2-0.5c-0.1-0.1-0.3-0.2-0.5-0.2H44c-0.3,0-0.5-0.2-0.5-0.5c0-0.3,0.2-0.5,0.5-0.5
	h5.2c0.5,0,0.9,0.2,1.2,0.5c0.3,0.3,0.5,0.8,0.5,1.2v5.8v0c0,0.5-0.2,0.9-0.5,1.2s-0.8,0.5-1.2,0.5h0H23.3h0c-0.5,0-0.9-0.2-1.2-0.5
	c-0.3-0.3-0.5-0.8-0.5-1.2v0v-5.8C21.5,256.4,21.7,256,22,255.6z"/>
<path class="st9" d="M39.5,270.9c0.1,0.1,0.3,0.1,0.5,0.1c0.1,0,0.2,0,0.3-0.1c0.1,0,0.2-0.1,0.3-0.2c0.1-0.1,0.1-0.2,0.2-0.3
	c0-0.1,0.1-0.2,0.1-0.3c0-0.2-0.1-0.3-0.1-0.5c-0.1-0.1-0.2-0.3-0.4-0.3c-0.2-0.1-0.3-0.1-0.5,0c-0.2,0-0.3,0.1-0.4,0.2
	c-0.1,0.1-0.2,0.3-0.2,0.4c0,0.2,0,0.3,0,0.5C39.3,270.7,39.4,270.8,39.5,270.9z"/>
<path class="st9" d="M42.8,270.9c0.1,0.1,0.3,0.1,0.5,0.1c0.1,0,0.2,0,0.3-0.1c0.1,0,0.2-0.1,0.3-0.2c0.1-0.1,0.1-0.2,0.2-0.3
	c0-0.1,0.1-0.2,0.1-0.3c0-0.2-0.1-0.3-0.1-0.5c-0.1-0.1-0.2-0.3-0.4-0.3c-0.2-0.1-0.3-0.1-0.5,0c-0.2,0-0.3,0.1-0.4,0.2
	s-0.2,0.3-0.2,0.4c0,0.2,0,0.3,0,0.5C42.6,270.6,42.7,270.8,42.8,270.9z"/>
<path class="st9" d="M46,270.9c0.1,0.1,0.3,0.1,0.5,0.1c0.1,0,0.2,0,0.3-0.1c0.1,0,0.2-0.1,0.3-0.2c0.1-0.1,0.1-0.2,0.2-0.3
	c0-0.1,0.1-0.2,0.1-0.3c0-0.2-0.1-0.3-0.1-0.5c-0.1-0.1-0.2-0.3-0.4-0.3c-0.2-0.1-0.3-0.1-0.5,0c-0.2,0-0.3,0.1-0.4,0.2
	s-0.2,0.3-0.2,0.4c0,0.2,0,0.3,0,0.5S45.8,270.8,46,270.9z"/>
<path class="st10" d="M22,266c0.3-0.3,0.8-0.5,1.2-0.5h25.9c0.5,0,0.9,0.2,1.2,0.5c0.3,0.3,0.5,0.8,0.5,1.2v5.8
	c0,0.5-0.2,0.9-0.5,1.2c-0.3,0.3-0.8,0.5-1.2,0.5H23.3c-0.5,0-0.9-0.2-1.2-0.5c-0.3-0.3-0.5-0.8-0.5-1.2v-5.8
	C21.5,266.8,21.7,266.3,22,266z M23.3,266.5c-0.2,0-0.4,0.1-0.5,0.2c-0.1,0.1-0.2,0.3-0.2,0.5v5.8c0,0.2,0.1,0.4,0.2,0.5
	c0.1,0.1,0.3,0.2,0.5,0.2h25.9c0.2,0,0.4-0.1,0.5-0.2c0.1-0.1,0.2-0.3,0.2-0.5v-5.8c0-0.2-0.1-0.4-0.2-0.5c-0.1-0.1-0.3-0.2-0.5-0.2
	H23.3z"/>
<radialGradient id="SVGID_5_" cx="-253.3571" cy="591.8772" r="1" gradientTransform="matrix(8.572528e-16 14 14.25 -8.725609e-16 -8398 3863)" gradientUnits="userSpaceOnUse">
	<stop  offset="0" style="stop-color:#677983"/>
	<stop  offset="1" style="stop-color:#677983;stop-opacity:0"/>
</radialGradient>
<path class="st12" d="M31.5,306.8c0-2.6,2.1-4.8,4.8-4.8c2.6,0,4.8,2.1,4.8,4.8v0.1c0.6,0.2,1,0.7,1,1.4c0,2.9,0,3,0,3h6.3
	c0.4,0,0.9,0.2,1.2,0.5c0.3,0.3,0.5,0.7,0.5,1.2v5.6c0,1.6,0,2.9,0,4.4l0.5,5.6c0,0.4-0.2,0.9-0.5,1.2c-0.3,0.3-0.7,0.5-1.2,0.5
	H23.7c-0.4,0-0.9-0.2-1.2-0.5c-0.3-0.3-0.5-0.7-0.5-1.2c0-5.2,0-10.3,0-15.5c0-0.4,0.2-0.9,0.5-1.2s0.7-0.5,1.2-0.5h6.9
	c0,0,0,0.3,0-3C30.6,307.6,31,307.1,31.5,306.8L31.5,306.8z"/>
<path class="st13" d="M34.5,312c0-0.3-0.2-0.5-0.5-0.5s-0.5,0.2-0.5,0.5v2c0,0.3,0.2,0.5,0.5,0.5s0.5-0.2,0.5-0.5V312z"/>
<path class="st14" d="M36.5,301.5c-2.8,0-5,2.2-5,5v0.1c-0.6,0.2-1,0.8-1,1.4v7c0,0.8,0.7,1.5,1.5,1.5h9c0.8,0,1.5-0.7,1.5-1.5v-7
	c0-0.7-0.4-1.2-1-1.4v-0.1C41.5,303.7,39.3,301.5,36.5,301.5z M40.5,306.5c0-2.2-1.8-4-4-4s-4,1.8-4,4H40.5z M32,307.5
	c-0.3,0-0.5,0.2-0.5,0.5v1.5h6v6H41c0.3,0,0.5-0.2,0.5-0.5v-7c0-0.3-0.2-0.5-0.5-0.5H32z M31.5,315v-4.5h5v5H32
	C31.7,315.5,31.5,315.3,31.5,315z"/>
<path class="st13" d="M22,311.6c0.3-0.3,0.8-0.5,1.2-0.5H29c0.3,0,0.5,0.2,0.5,0.5c0,0.3-0.2,0.5-0.5,0.5h-5.7
	c-0.2,0-0.4,0.1-0.5,0.2c-0.1,0.1-0.2,0.3-0.2,0.5v5.8c0,0.2,0.1,0.4,0.2,0.5c0.1,0.1,0.3,0.2,0.5,0.2h25.9c0.2,0,0.4-0.1,0.5-0.2
	c0.1-0.1,0.2-0.3,0.2-0.5v-5.8c0-0.2-0.1-0.4-0.2-0.5c-0.1-0.1-0.3-0.2-0.5-0.2H44c-0.3,0-0.5-0.2-0.5-0.5c0-0.3,0.2-0.5,0.5-0.5
	h5.2c0.5,0,0.9,0.2,1.2,0.5c0.3,0.3,0.5,0.8,0.5,1.2v5.8v0c0,0.5-0.2,0.9-0.5,1.2s-0.8,0.5-1.2,0.5h0H23.3h0c-0.5,0-0.9-0.2-1.2-0.5
	c-0.3-0.3-0.5-0.8-0.5-1.2v0v-5.8C21.5,312.4,21.7,312,22,311.6z"/>
<path class="st13" d="M39.5,326.9c0.1,0.1,0.3,0.1,0.5,0.1c0.1,0,0.2,0,0.3-0.1c0.1,0,0.2-0.1,0.3-0.2c0.1-0.1,0.1-0.2,0.2-0.3
	c0-0.1,0.1-0.2,0.1-0.3c0-0.2-0.1-0.3-0.1-0.5c-0.1-0.1-0.2-0.3-0.4-0.3c-0.2-0.1-0.3-0.1-0.5,0c-0.2,0-0.3,0.1-0.4,0.2
	c-0.1,0.1-0.2,0.3-0.2,0.4c0,0.2,0,0.3,0,0.5C39.3,326.7,39.4,326.8,39.5,326.9z"/>
<path class="st13" d="M42.8,326.9c0.1,0.1,0.3,0.1,0.5,0.1c0.1,0,0.2,0,0.3-0.1c0.1,0,0.2-0.1,0.3-0.2c0.1-0.1,0.1-0.2,0.2-0.3
	c0-0.1,0.1-0.2,0.1-0.3c0-0.2-0.1-0.3-0.1-0.5c-0.1-0.1-0.2-0.3-0.4-0.3c-0.2-0.1-0.3-0.1-0.5,0c-0.2,0-0.3,0.1-0.4,0.2
	s-0.2,0.3-0.2,0.4c0,0.2,0,0.3,0,0.5C42.6,326.6,42.7,326.8,42.8,326.9z"/>
<path class="st13" d="M46,326.9c0.1,0.1,0.3,0.1,0.5,0.1c0.1,0,0.2,0,0.3-0.1c0.1,0,0.2-0.1,0.3-0.2c0.1-0.1,0.1-0.2,0.2-0.3
	c0-0.1,0.1-0.2,0.1-0.3c0-0.2-0.1-0.3-0.1-0.5c-0.1-0.1-0.2-0.3-0.4-0.3c-0.2-0.1-0.3-0.1-0.5,0c-0.2,0-0.3,0.1-0.4,0.2
	s-0.2,0.3-0.2,0.4c0,0.2,0,0.3,0,0.5S45.8,326.8,46,326.9z"/>
<path class="st14" d="M22,322c0.3-0.3,0.8-0.5,1.2-0.5h25.9c0.5,0,0.9,0.2,1.2,0.5c0.3,0.3,0.5,0.8,0.5,1.2v5.8
	c0,0.5-0.2,0.9-0.5,1.2c-0.3,0.3-0.8,0.5-1.2,0.5H23.3c-0.5,0-0.9-0.2-1.2-0.5c-0.3-0.3-0.5-0.8-0.5-1.2v-5.8
	C21.5,322.8,21.7,322.3,22,322z M23.3,322.5c-0.2,0-0.4,0.1-0.5,0.2c-0.1,0.1-0.2,0.3-0.2,0.5v5.8c0,0.2,0.1,0.4,0.2,0.5
	c0.1,0.1,0.3,0.2,0.5,0.2h25.9c0.2,0,0.4-0.1,0.5-0.2c0.1-0.1,0.2-0.3,0.2-0.5v-5.8c0-0.2-0.1-0.4-0.2-0.5c-0.1-0.1-0.3-0.2-0.5-0.2
	H23.3z"/>
</svg>
