<?xml version="1.0" encoding="utf-8"?>
<!-- Generator: Adobe Illustrator 25.2.1, SVG Export Plug-In . SVG Version: 6.00 Build 0)  -->
<svg version="1.1" id="Layer_1" xmlns="http://www.w3.org/2000/svg" xmlns:xlink="http://www.w3.org/1999/xlink" x="0px" y="0px"
	 viewBox="0 0 72 352" style="enable-background:new 0 0 72 352;" xml:space="preserve">
<style type="text/css">
	.st0{fill:url(#SVGID_1_);fill-opacity:0.25;}
	.st1{fill:#0073EC;}
	.st2{fill:url(#SVGID_2_);fill-opacity:0.25;}
	.st3{fill:#A644E5;}
	.st4{fill:url(#SVGID_3_);fill-opacity:0.25;}
	.st5{fill:#00CAAA;}
	.st6{fill:#434F58;}
	.st7{fill:url(#SVGID_4_);fill-opacity:0.25;}
	.st8{fill:url(#SVGID_5_);fill-opacity:0.25;}
	.st9{fill:#677983;}
</style>
<radialGradient id="SVGID_1_" cx="-252.1538" cy="593.6923" r="1" gradientTransform="matrix(7.960204e-16 13 13 -7.960204e-16 -7682 3314)" gradientUnits="userSpaceOnUse">
	<stop  offset="0" style="stop-color:#0073EC"/>
	<stop  offset="1" style="stop-color:#0073EC;stop-opacity:0"/>
</radialGradient>
<path class="st0" d="M23,23h26v22h-2v4h-4v-4h-2v4h-3v-4H23V23z"/>
<path class="st1" d="M23.4,44V28.3h25.2V44c0,0.1-0.1,0.3-0.2,0.4c0,0-0.1,0.1-0.2,0.1c-0.1,0-0.1,0-0.2,0h-1v0.8h1.1
	c0.2,0,0.4,0,0.5-0.1c0.2-0.1,0.3-0.2,0.4-0.3c0.2-0.3,0.4-0.6,0.4-1V24c0-0.4-0.1-0.7-0.4-1c-0.1-0.1-0.3-0.2-0.4-0.3
	c-0.2-0.1-0.3-0.1-0.5-0.1H23.9c-0.2,0-0.4,0-0.5,0.1c-0.1,0.1-0.3,0.2-0.4,0.3c-0.3,0.3-0.4,0.6-0.4,1v20c0,0.4,0.1,0.7,0.4,1
	c0.1,0.1,0.3,0.2,0.4,0.3c0.2,0.1,0.3,0.1,0.5,0.1H36c0.2,0,0.4-0.2,0.4-0.4s-0.2-0.4-0.4-0.4H23.9c-0.1,0-0.1,0-0.2,0
	c-0.1,0-0.1-0.1-0.2-0.1C23.5,44.3,23.4,44.1,23.4,44z M23.4,27.5V24c0-0.1,0.1-0.3,0.2-0.4c0,0,0.1-0.1,0.2-0.1c0.1,0,0.1,0,0.2,0
	h24.2c0.1,0,0.1,0,0.2,0c0.1,0,0.1,0.1,0.2,0.1c0.1,0.1,0.2,0.2,0.2,0.4v3.5H23.4z"/>
<path class="st1" d="M35.6,32.3c0-0.4-0.3-0.8-0.7-0.8h-8.3c-0.4,0-0.7,0.3-0.7,0.8v6.6c0,0.4,0.3,0.8,0.7,0.8h8.3
	c0.4,0,0.7-0.3,0.7-0.8V32.3z M26.7,38.8v-6.5h8.2v6.5H26.7z"/>
<path class="st1" d="M42.9,49.3H47V31.5h-4.1V49.3z M43.7,45.3h1.2c0.2,0,0.4-0.2,0.4-0.4c0-0.2-0.2-0.4-0.4-0.4h-1.2v-1.6h1.2
	c0.2,0,0.4-0.2,0.4-0.4s-0.2-0.4-0.4-0.4h-1.2v-1.6h1.2c0.2,0,0.4-0.2,0.4-0.4c0-0.2-0.2-0.4-0.4-0.4h-1.2V38h1.2
	c0.2,0,0.4-0.2,0.4-0.4c0-0.2-0.2-0.4-0.4-0.4h-1.2v-1.6h1.2c0.2,0,0.4-0.2,0.4-0.4s-0.2-0.4-0.4-0.4h-1.2v-2.4h2.4v16.2h-2.4V45.3z
	"/>
<path class="st1" d="M28.3,25.3c-0.3-0.1-0.7,0-0.8,0.3c-0.1,0.3,0,0.7,0.3,0.8c0.3,0.1,0.7,0,0.8-0.3
	C28.7,25.8,28.6,25.4,28.3,25.3z"/>
<path class="st1" d="M25.8,26.4c0.3,0,0.6-0.3,0.6-0.6c0-0.3-0.3-0.6-0.6-0.6c-0.3,0-0.6,0.3-0.6,0.6C25.2,26.1,25.5,26.4,25.8,26.4
	z"/>
<path class="st1" d="M30.3,26.4c0.3,0,0.6-0.3,0.6-0.6c0-0.3-0.3-0.6-0.6-0.6c-0.3,0-0.6,0.3-0.6,0.6C29.7,26.1,30,26.4,30.3,26.4z"
	/>
<path class="st1" d="M40.9,33.7L40,31.5c-0.1-0.2-0.3-0.4-0.6-0.4c-0.3,0-0.5,0.2-0.6,0.4L38,33.7c-0.2,0.2-0.3,0.4-0.3,0.7v14.4
	c0,0.5,0.4,0.8,0.9,0.8h2c0.5,0,0.8-0.4,0.8-0.8V34.4C41.3,34.1,41.1,33.9,40.9,33.7z M40.6,34.4V47h-0.8V34.2h0.6
	C40.5,34.2,40.6,34.3,40.6,34.4z M39.5,31.8l0.7,1.7h-1.4L39.5,31.8z M38.3,47V34.4c0-0.1,0.1-0.2,0.2-0.2h0.6V47H38.3z M40.6,48.9
	c0,0.1-0.1,0.2-0.2,0.2h-1.8c-0.1,0-0.2-0.1-0.2-0.2v-1.1h2.2V48.9z"/>
<path class="st1" d="M35.2,41.6h-9c-0.2,0-0.4-0.2-0.4-0.4s0.2-0.4,0.4-0.4h9c0.2,0,0.4,0.2,0.4,0.4S35.4,41.6,35.2,41.6z"/>
<radialGradient id="SVGID_2_" cx="-252.1538" cy="593.6923" r="1" gradientTransform="matrix(7.960204e-16 13 13 -7.960204e-16 -7682 3370)" gradientUnits="userSpaceOnUse">
	<stop  offset="0" style="stop-color:#A644E5"/>
	<stop  offset="1" style="stop-color:#A644E5;stop-opacity:0"/>
</radialGradient>
<path class="st2" d="M23,79h26v22h-2v4h-4v-4h-2v4h-3v-4H23V79z"/>
<path class="st3" d="M23.4,100V84.3h25.2V100c0,0.1-0.1,0.3-0.2,0.4c0,0-0.1,0.1-0.2,0.1c-0.1,0-0.1,0-0.2,0h-1v0.8h1.1
	c0.2,0,0.4,0,0.5-0.1c0.2-0.1,0.3-0.2,0.4-0.3c0.2-0.3,0.4-0.6,0.4-1V80c0-0.4-0.1-0.7-0.4-1c-0.1-0.1-0.3-0.2-0.4-0.3
	c-0.2-0.1-0.3-0.1-0.5-0.1H23.9c-0.2,0-0.4,0-0.5,0.1c-0.1,0.1-0.3,0.2-0.4,0.3c-0.3,0.3-0.4,0.6-0.4,1v20c0,0.4,0.1,0.7,0.4,1
	c0.1,0.1,0.3,0.2,0.4,0.3c0.2,0.1,0.3,0.1,0.5,0.1H36c0.2,0,0.4-0.2,0.4-0.4s-0.2-0.4-0.4-0.4H23.9c-0.1,0-0.1,0-0.2,0
	c-0.1,0-0.1-0.1-0.2-0.1C23.5,100.3,23.4,100.1,23.4,100z M23.4,83.5V80c0-0.1,0.1-0.3,0.2-0.4c0,0,0.1-0.1,0.2-0.1
	c0.1,0,0.1,0,0.2,0h24.2c0.1,0,0.1,0,0.2,0c0.1,0,0.1,0.1,0.2,0.1c0.1,0.1,0.2,0.2,0.2,0.4v3.5H23.4z"/>
<path class="st3" d="M35.6,88.3c0-0.4-0.3-0.8-0.7-0.8h-8.3c-0.4,0-0.7,0.3-0.7,0.8v6.6c0,0.4,0.3,0.8,0.7,0.8h8.3
	c0.4,0,0.7-0.3,0.7-0.8V88.3z M26.7,94.8v-6.5h8.2v6.5H26.7z"/>
<path class="st3" d="M42.9,105.3H47V87.5h-4.1V105.3z M43.7,101.3h1.2c0.2,0,0.4-0.2,0.4-0.4c0-0.2-0.2-0.4-0.4-0.4h-1.2v-1.6h1.2
	c0.2,0,0.4-0.2,0.4-0.4s-0.2-0.4-0.4-0.4h-1.2v-1.6h1.2c0.2,0,0.4-0.2,0.4-0.4c0-0.2-0.2-0.4-0.4-0.4h-1.2V94h1.2
	c0.2,0,0.4-0.2,0.4-0.4c0-0.2-0.2-0.4-0.4-0.4h-1.2v-1.6h1.2c0.2,0,0.4-0.2,0.4-0.4c0-0.2-0.2-0.4-0.4-0.4h-1.2v-2.4h2.4v16.2h-2.4
	V101.3z"/>
<path class="st3" d="M28.3,81.3c-0.3-0.1-0.7,0-0.8,0.3c-0.1,0.3,0,0.7,0.3,0.8c0.3,0.1,0.7,0,0.8-0.3
	C28.7,81.8,28.6,81.4,28.3,81.3z"/>
<path class="st3" d="M25.8,82.4c0.3,0,0.6-0.3,0.6-0.6c0-0.3-0.3-0.6-0.6-0.6c-0.3,0-0.6,0.3-0.6,0.6C25.2,82.1,25.5,82.4,25.8,82.4
	z"/>
<path class="st3" d="M30.3,82.4c0.3,0,0.6-0.3,0.6-0.6c0-0.3-0.3-0.6-0.6-0.6c-0.3,0-0.6,0.3-0.6,0.6C29.7,82.1,30,82.4,30.3,82.4z"
	/>
<path class="st3" d="M40.9,89.7L40,87.5c-0.1-0.2-0.3-0.4-0.6-0.4c-0.3,0-0.5,0.2-0.6,0.4L38,89.7c-0.2,0.2-0.3,0.4-0.3,0.7v14.4
	c0,0.5,0.4,0.8,0.9,0.8h2c0.5,0,0.8-0.4,0.8-0.8V90.4C41.3,90.1,41.1,89.9,40.9,89.7z M40.6,90.4V103h-0.8V90.2h0.6
	C40.5,90.2,40.6,90.3,40.6,90.4z M39.5,87.8l0.7,1.7h-1.4L39.5,87.8z M38.3,103V90.4c0-0.1,0.1-0.2,0.2-0.2h0.6V103H38.3z
	 M40.6,104.9c0,0.1-0.1,0.2-0.2,0.2h-1.8c-0.1,0-0.2-0.1-0.2-0.2v-1.1h2.2V104.9z"/>
<path class="st3" d="M35.2,97.6h-9c-0.2,0-0.4-0.2-0.4-0.4c0-0.2,0.2-0.4,0.4-0.4h9c0.2,0,0.4,0.2,0.4,0.4
	C35.6,97.4,35.4,97.6,35.2,97.6z"/>
<radialGradient id="SVGID_3_" cx="-252.1538" cy="593.6923" r="1" gradientTransform="matrix(7.960204e-16 13 13 -7.960204e-16 -7682 3426)" gradientUnits="userSpaceOnUse">
	<stop  offset="0" style="stop-color:#00CAAA"/>
	<stop  offset="1" style="stop-color:#00CAAA;stop-opacity:0"/>
</radialGradient>
<path class="st4" d="M23,135h26v22h-2v4h-4v-4h-2v4h-3v-4H23V135z"/>
<path class="st5" d="M23.4,156v-15.7h25.2V156c0,0.1-0.1,0.3-0.2,0.4c0,0-0.1,0.1-0.2,0.1c-0.1,0-0.1,0-0.2,0h-1v0.8h1.1
	c0.2,0,0.4,0,0.5-0.1c0.2-0.1,0.3-0.2,0.4-0.3c0.2-0.3,0.4-0.6,0.4-1V136c0-0.4-0.1-0.7-0.4-1c-0.1-0.1-0.3-0.2-0.4-0.3
	c-0.2-0.1-0.3-0.1-0.5-0.1H23.9c-0.2,0-0.4,0-0.5,0.1c-0.1,0.1-0.3,0.2-0.4,0.3c-0.3,0.3-0.4,0.6-0.4,1v20c0,0.4,0.1,0.7,0.4,1
	c0.1,0.1,0.3,0.2,0.4,0.3c0.2,0.1,0.3,0.1,0.5,0.1H36c0.2,0,0.4-0.2,0.4-0.4s-0.2-0.4-0.4-0.4H23.9c-0.1,0-0.1,0-0.2,0
	c-0.1,0-0.1-0.1-0.2-0.1C23.5,156.3,23.4,156.1,23.4,156z M23.4,139.5V136c0-0.1,0.1-0.3,0.2-0.4c0,0,0.1-0.1,0.2-0.1
	c0.1,0,0.1,0,0.2,0h24.2c0.1,0,0.1,0,0.2,0c0.1,0,0.1,0.1,0.2,0.1c0.1,0.1,0.2,0.2,0.2,0.4v3.5H23.4z"/>
<path class="st5" d="M35.6,144.3c0-0.4-0.3-0.8-0.7-0.8h-8.3c-0.4,0-0.7,0.3-0.7,0.8v6.6c0,0.4,0.3,0.8,0.7,0.8h8.3
	c0.4,0,0.7-0.3,0.7-0.8V144.3z M26.7,150.8v-6.5h8.2v6.5H26.7z"/>
<path class="st5" d="M42.9,161.3H47v-17.8h-4.1V161.3z M43.7,157.3h1.2c0.2,0,0.4-0.2,0.4-0.4c0-0.2-0.2-0.4-0.4-0.4h-1.2v-1.6h1.2
	c0.2,0,0.4-0.2,0.4-0.4s-0.2-0.4-0.4-0.4h-1.2v-1.6h1.2c0.2,0,0.4-0.2,0.4-0.4c0-0.2-0.2-0.4-0.4-0.4h-1.2V150h1.2
	c0.2,0,0.4-0.2,0.4-0.4c0-0.2-0.2-0.4-0.4-0.4h-1.2v-1.6h1.2c0.2,0,0.4-0.2,0.4-0.4s-0.2-0.4-0.4-0.4h-1.2v-2.4h2.4v16.2h-2.4V157.3
	z"/>
<path class="st5" d="M28.3,137.3c-0.3-0.1-0.7,0-0.8,0.3c-0.1,0.3,0,0.7,0.3,0.8c0.3,0.1,0.7,0,0.8-0.3
	C28.7,137.8,28.6,137.4,28.3,137.3z"/>
<path class="st5" d="M25.8,138.4c0.3,0,0.6-0.3,0.6-0.6c0-0.3-0.3-0.6-0.6-0.6c-0.3,0-0.6,0.3-0.6,0.6
	C25.2,138.1,25.5,138.4,25.8,138.4z"/>
<path class="st5" d="M30.3,138.4c0.3,0,0.6-0.3,0.6-0.6c0-0.3-0.3-0.6-0.6-0.6c-0.3,0-0.6,0.3-0.6,0.6
	C29.7,138.1,30,138.4,30.3,138.4z"/>
<path class="st5" d="M40.9,145.7l-0.9-2.2c-0.1-0.2-0.3-0.4-0.6-0.4c-0.3,0-0.5,0.2-0.6,0.4l-0.8,2.2c-0.2,0.2-0.3,0.4-0.3,0.7v14.4
	c0,0.5,0.4,0.8,0.9,0.8h2c0.5,0,0.8-0.4,0.8-0.8v-14.4C41.3,146.1,41.1,145.9,40.9,145.7z M40.6,146.4V159h-0.8v-12.8h0.6
	C40.5,146.2,40.6,146.3,40.6,146.4z M39.5,143.8l0.7,1.7h-1.4L39.5,143.8z M38.3,159v-12.6c0-0.1,0.1-0.2,0.2-0.2h0.6V159H38.3z
	 M40.6,160.9c0,0.1-0.1,0.2-0.2,0.2h-1.8c-0.1,0-0.2-0.1-0.2-0.2v-1.1h2.2V160.9z"/>
<path class="st5" d="M35.2,153.6h-9c-0.2,0-0.4-0.2-0.4-0.4s0.2-0.4,0.4-0.4h9c0.2,0,0.4,0.2,0.4,0.4S35.4,153.6,35.2,153.6z"/>
<path class="st6" d="M23.4,212v-15.7h25.2V212c0,0.1-0.1,0.3-0.2,0.4c0,0-0.1,0.1-0.2,0.1c-0.1,0-0.1,0-0.2,0h-1v0.8h1.1
	c0.2,0,0.4,0,0.5-0.1c0.2-0.1,0.3-0.2,0.4-0.3c0.2-0.3,0.4-0.6,0.4-1V192c0-0.4-0.1-0.7-0.4-1c-0.1-0.1-0.3-0.2-0.4-0.3
	c-0.2-0.1-0.3-0.1-0.5-0.1H23.9c-0.2,0-0.4,0-0.5,0.1c-0.1,0.1-0.3,0.2-0.4,0.3c-0.3,0.3-0.4,0.6-0.4,1v20c0,0.4,0.1,0.7,0.4,1
	c0.1,0.1,0.3,0.2,0.4,0.3c0.2,0.1,0.3,0.1,0.5,0.1H36c0.2,0,0.4-0.2,0.4-0.4s-0.2-0.4-0.4-0.4H23.9c-0.1,0-0.1,0-0.2,0
	c-0.1,0-0.1-0.1-0.2-0.1C23.5,212.3,23.4,212.1,23.4,212z M23.4,195.5V192c0-0.1,0.1-0.3,0.2-0.4c0,0,0.1-0.1,0.2-0.1
	c0.1,0,0.1,0,0.2,0h24.2c0.1,0,0.1,0,0.2,0c0.1,0,0.1,0.1,0.2,0.1c0.1,0.1,0.2,0.2,0.2,0.4v3.5H23.4z"/>
<path class="st6" d="M35.6,200.3c0-0.4-0.3-0.8-0.7-0.8h-8.3c-0.4,0-0.7,0.3-0.7,0.8v6.6c0,0.4,0.3,0.8,0.7,0.8h8.3
	c0.4,0,0.7-0.3,0.7-0.8V200.3z M26.7,206.8v-6.5h8.2v6.5H26.7z"/>
<path class="st6" d="M42.9,217.3H47v-17.8h-4.1V217.3z M43.7,213.3h1.2c0.2,0,0.4-0.2,0.4-0.4c0-0.2-0.2-0.4-0.4-0.4h-1.2v-1.6h1.2
	c0.2,0,0.4-0.2,0.4-0.4s-0.2-0.4-0.4-0.4h-1.2v-1.6h1.2c0.2,0,0.4-0.2,0.4-0.4c0-0.2-0.2-0.4-0.4-0.4h-1.2V206h1.2
	c0.2,0,0.4-0.2,0.4-0.4c0-0.2-0.2-0.4-0.4-0.4h-1.2v-1.6h1.2c0.2,0,0.4-0.2,0.4-0.4s-0.2-0.4-0.4-0.4h-1.2v-2.4h2.4v16.2h-2.4V213.3
	z"/>
<path class="st6" d="M28.3,193.3c-0.3-0.1-0.7,0-0.8,0.3c-0.1,0.3,0,0.7,0.3,0.8c0.3,0.1,0.7,0,0.8-0.3
	C28.7,193.8,28.6,193.4,28.3,193.3z"/>
<path class="st6" d="M25.8,194.4c0.3,0,0.6-0.3,0.6-0.6c0-0.3-0.3-0.6-0.6-0.6c-0.3,0-0.6,0.3-0.6,0.6
	C25.2,194.1,25.5,194.4,25.8,194.4z"/>
<path class="st6" d="M30.3,194.4c0.3,0,0.6-0.3,0.6-0.6c0-0.3-0.3-0.6-0.6-0.6c-0.3,0-0.6,0.3-0.6,0.6
	C29.7,194.1,30,194.4,30.3,194.4z"/>
<path class="st6" d="M40.9,201.7l-0.9-2.2c-0.1-0.2-0.3-0.4-0.6-0.4c-0.3,0-0.5,0.2-0.6,0.4l-0.8,2.2c-0.2,0.2-0.3,0.4-0.3,0.7v14.4
	c0,0.5,0.4,0.8,0.9,0.8h2c0.5,0,0.8-0.4,0.8-0.8v-14.4C41.3,202.1,41.1,201.9,40.9,201.7z M40.6,202.4V215h-0.8v-12.8h0.6
	C40.5,202.2,40.6,202.3,40.6,202.4z M39.5,199.8l0.7,1.7h-1.4L39.5,199.8z M38.3,215v-12.6c0-0.1,0.1-0.2,0.2-0.2h0.6V215H38.3z
	 M40.6,216.9c0,0.1-0.1,0.2-0.2,0.2h-1.8c-0.1,0-0.2-0.1-0.2-0.2v-1.1h2.2V216.9z"/>
<path class="st6" d="M35.2,209.6h-9c-0.2,0-0.4-0.2-0.4-0.4s0.2-0.4,0.4-0.4h9c0.2,0,0.4,0.2,0.4,0.4S35.4,209.6,35.2,209.6z"/>
<radialGradient id="SVGID_4_" cx="-252.1538" cy="593.6923" r="1" gradientTransform="matrix(7.960204e-16 13 13 -7.960204e-16 -7682 3538)" gradientUnits="userSpaceOnUse">
	<stop  offset="0" style="stop-color:#434F58"/>
	<stop  offset="1" style="stop-color:#434F58;stop-opacity:0"/>
</radialGradient>
<path class="st7" d="M23,247h26v22h-2v4h-4v-4h-2v4h-3v-4H23V247z"/>
<path class="st6" d="M23.4,268v-15.7h25.2V268c0,0.1-0.1,0.3-0.2,0.4c0,0-0.1,0.1-0.2,0.1c-0.1,0-0.1,0-0.2,0h-1v0.8h1.1
	c0.2,0,0.4,0,0.5-0.1c0.2-0.1,0.3-0.2,0.4-0.3c0.2-0.3,0.4-0.6,0.4-1V248c0-0.4-0.1-0.7-0.4-1c-0.1-0.1-0.3-0.2-0.4-0.3
	c-0.2-0.1-0.3-0.1-0.5-0.1H23.9c-0.2,0-0.4,0-0.5,0.1c-0.1,0.1-0.3,0.2-0.4,0.3c-0.3,0.3-0.4,0.6-0.4,1v20c0,0.4,0.1,0.7,0.4,1
	c0.1,0.1,0.3,0.2,0.4,0.3c0.2,0.1,0.3,0.1,0.5,0.1H36c0.2,0,0.4-0.2,0.4-0.4s-0.2-0.4-0.4-0.4H23.9c-0.1,0-0.1,0-0.2,0
	c-0.1,0-0.1-0.1-0.2-0.1C23.5,268.3,23.4,268.1,23.4,268z M23.4,251.5V248c0-0.1,0.1-0.3,0.2-0.4c0,0,0.1-0.1,0.2-0.1
	c0.1,0,0.1,0,0.2,0h24.2c0.1,0,0.1,0,0.2,0c0.1,0,0.1,0.1,0.2,0.1c0.1,0.1,0.2,0.2,0.2,0.4v3.5H23.4z"/>
<path class="st6" d="M35.6,256.3c0-0.4-0.3-0.8-0.7-0.8h-8.3c-0.4,0-0.7,0.3-0.7,0.8v6.6c0,0.4,0.3,0.8,0.7,0.8h8.3
	c0.4,0,0.7-0.3,0.7-0.8V256.3z M26.7,262.8v-6.5h8.2v6.5H26.7z"/>
<path class="st6" d="M42.9,273.3H47v-17.8h-4.1V273.3z M43.7,269.3h1.2c0.2,0,0.4-0.2,0.4-0.4c0-0.2-0.2-0.4-0.4-0.4h-1.2v-1.6h1.2
	c0.2,0,0.4-0.2,0.4-0.4s-0.2-0.4-0.4-0.4h-1.2v-1.6h1.2c0.2,0,0.4-0.2,0.4-0.4c0-0.2-0.2-0.4-0.4-0.4h-1.2V262h1.2
	c0.2,0,0.4-0.2,0.4-0.4c0-0.2-0.2-0.4-0.4-0.4h-1.2v-1.6h1.2c0.2,0,0.4-0.2,0.4-0.4c0-0.2-0.2-0.4-0.4-0.4h-1.2v-2.4h2.4v16.2h-2.4
	V269.3z"/>
<path class="st6" d="M28.3,249.3c-0.3-0.1-0.7,0-0.8,0.3c-0.1,0.3,0,0.7,0.3,0.8c0.3,0.1,0.7,0,0.8-0.3
	C28.7,249.8,28.6,249.4,28.3,249.3z"/>
<path class="st6" d="M25.8,250.4c0.3,0,0.6-0.3,0.6-0.6c0-0.3-0.3-0.6-0.6-0.6c-0.3,0-0.6,0.3-0.6,0.6
	C25.2,250.1,25.5,250.4,25.8,250.4z"/>
<path class="st6" d="M30.3,250.4c0.3,0,0.6-0.3,0.6-0.6c0-0.3-0.3-0.6-0.6-0.6c-0.3,0-0.6,0.3-0.6,0.6
	C29.7,250.1,30,250.4,30.3,250.4z"/>
<path class="st6" d="M40.9,257.7l-0.9-2.2c-0.1-0.2-0.3-0.4-0.6-0.4c-0.3,0-0.5,0.2-0.6,0.4l-0.8,2.2c-0.2,0.2-0.3,0.4-0.3,0.7v14.4
	c0,0.5,0.4,0.8,0.9,0.8h2c0.5,0,0.8-0.4,0.8-0.8v-14.4C41.3,258.1,41.1,257.9,40.9,257.7z M40.6,258.4V271h-0.8v-12.8h0.6
	C40.5,258.2,40.6,258.3,40.6,258.4z M39.5,255.8l0.7,1.7h-1.4L39.5,255.8z M38.3,271v-12.6c0-0.1,0.1-0.2,0.2-0.2h0.6V271H38.3z
	 M40.6,272.9c0,0.1-0.1,0.2-0.2,0.2h-1.8c-0.1,0-0.2-0.1-0.2-0.2v-1.1h2.2V272.9z"/>
<path class="st6" d="M35.2,265.6h-9c-0.2,0-0.4-0.2-0.4-0.4c0-0.2,0.2-0.4,0.4-0.4h9c0.2,0,0.4,0.2,0.4,0.4
	C35.6,265.4,35.4,265.6,35.2,265.6z"/>
<radialGradient id="SVGID_5_" cx="-252.1538" cy="593.6923" r="1" gradientTransform="matrix(7.960204e-16 13 13 -7.960204e-16 -7682 3594)" gradientUnits="userSpaceOnUse">
	<stop  offset="0" style="stop-color:#677983"/>
	<stop  offset="1" style="stop-color:#677983;stop-opacity:0"/>
</radialGradient>
<path class="st8" d="M23,303h26v22h-2v4h-4v-4h-2v4h-3v-4H23V303z"/>
<path class="st9" d="M23.4,324v-15.7h25.2V324c0,0.1-0.1,0.3-0.2,0.4c0,0-0.1,0.1-0.2,0.1c-0.1,0-0.1,0-0.2,0h-1v0.8h1.1
	c0.2,0,0.4,0,0.5-0.1c0.2-0.1,0.3-0.2,0.4-0.3c0.2-0.3,0.4-0.6,0.4-1V304c0-0.4-0.1-0.7-0.4-1c-0.1-0.1-0.3-0.2-0.4-0.3
	c-0.2-0.1-0.3-0.1-0.5-0.1H23.9c-0.2,0-0.4,0-0.5,0.1c-0.1,0.1-0.3,0.2-0.4,0.3c-0.3,0.3-0.4,0.6-0.4,1v20c0,0.4,0.1,0.7,0.4,1
	c0.1,0.1,0.3,0.2,0.4,0.3c0.2,0.1,0.3,0.1,0.5,0.1H36c0.2,0,0.4-0.2,0.4-0.4s-0.2-0.4-0.4-0.4H23.9c-0.1,0-0.1,0-0.2,0
	c-0.1,0-0.1-0.1-0.2-0.1C23.5,324.3,23.4,324.1,23.4,324z M23.4,307.5V304c0-0.1,0.1-0.3,0.2-0.4c0,0,0.1-0.1,0.2-0.1
	c0.1,0,0.1,0,0.2,0h24.2c0.1,0,0.1,0,0.2,0c0.1,0,0.1,0.1,0.2,0.1c0.1,0.1,0.2,0.2,0.2,0.4v3.5H23.4z"/>
<path class="st9" d="M35.6,312.3c0-0.4-0.3-0.8-0.7-0.8h-8.3c-0.4,0-0.7,0.3-0.7,0.8v6.6c0,0.4,0.3,0.8,0.7,0.8h8.3
	c0.4,0,0.7-0.3,0.7-0.8V312.3z M26.7,318.8v-6.5h8.2v6.5H26.7z"/>
<path class="st9" d="M42.9,329.3H47v-17.8h-4.1V329.3z M43.7,325.3h1.2c0.2,0,0.4-0.2,0.4-0.4c0-0.2-0.2-0.4-0.4-0.4h-1.2v-1.6h1.2
	c0.2,0,0.4-0.2,0.4-0.4s-0.2-0.4-0.4-0.4h-1.2v-1.6h1.2c0.2,0,0.4-0.2,0.4-0.4c0-0.2-0.2-0.4-0.4-0.4h-1.2V318h1.2
	c0.2,0,0.4-0.2,0.4-0.4c0-0.2-0.2-0.4-0.4-0.4h-1.2v-1.6h1.2c0.2,0,0.4-0.2,0.4-0.4c0-0.2-0.2-0.4-0.4-0.4h-1.2v-2.4h2.4v16.2h-2.4
	V325.3z"/>
<path class="st9" d="M28.3,305.3c-0.3-0.1-0.7,0-0.8,0.3c-0.1,0.3,0,0.7,0.3,0.8c0.3,0.1,0.7,0,0.8-0.3
	C28.7,305.8,28.6,305.4,28.3,305.3z"/>
<path class="st9" d="M25.8,306.4c0.3,0,0.6-0.3,0.6-0.6c0-0.3-0.3-0.6-0.6-0.6c-0.3,0-0.6,0.3-0.6,0.6
	C25.2,306.1,25.5,306.4,25.8,306.4z"/>
<path class="st9" d="M30.3,306.4c0.3,0,0.6-0.3,0.6-0.6c0-0.3-0.3-0.6-0.6-0.6c-0.3,0-0.6,0.3-0.6,0.6
	C29.7,306.1,30,306.4,30.3,306.4z"/>
<path class="st9" d="M40.9,313.7l-0.9-2.2c-0.1-0.2-0.3-0.4-0.6-0.4c-0.3,0-0.5,0.2-0.6,0.4l-0.8,2.2c-0.2,0.2-0.3,0.4-0.3,0.7v14.4
	c0,0.5,0.4,0.8,0.9,0.8h2c0.5,0,0.8-0.4,0.8-0.8v-14.4C41.3,314.1,41.1,313.9,40.9,313.7z M40.6,314.4V327h-0.8v-12.8h0.6
	C40.5,314.2,40.6,314.3,40.6,314.4z M39.5,311.8l0.7,1.7h-1.4L39.5,311.8z M38.3,327v-12.6c0-0.1,0.1-0.2,0.2-0.2h0.6V327H38.3z
	 M40.6,328.9c0,0.1-0.1,0.2-0.2,0.2h-1.8c-0.1,0-0.2-0.1-0.2-0.2v-1.1h2.2V328.9z"/>
<path class="st9" d="M35.2,321.6h-9c-0.2,0-0.4-0.2-0.4-0.4c0-0.2,0.2-0.4,0.4-0.4h9c0.2,0,0.4,0.2,0.4,0.4
	C35.6,321.4,35.4,321.6,35.2,321.6z"/>
</svg>
