<?xml version="1.0" encoding="utf-8"?>
<!-- Generator: Adobe Illustrator 25.2.1, SVG Export Plug-In . SVG Version: 6.00 Build 0)  -->
<svg version="1.1" id="Layer_1" xmlns="http://www.w3.org/2000/svg" xmlns:xlink="http://www.w3.org/1999/xlink" x="0px" y="0px"
	 viewBox="0 0 72 352" style="enable-background:new 0 0 72 352;" xml:space="preserve">
<style type="text/css">
	.st0{fill-rule:evenodd;clip-rule:evenodd;fill:url(#SVGID_1_);fill-opacity:0.25;}
	.st1{fill:#0073EC;}
	.st2{fill-rule:evenodd;clip-rule:evenodd;fill:#0073EC;}
	.st3{fill-rule:evenodd;clip-rule:evenodd;fill:url(#SVGID_2_);fill-opacity:0.25;}
	.st4{fill:#A644E5;}
	.st5{fill-rule:evenodd;clip-rule:evenodd;fill:#A644E5;}
	.st6{fill-rule:evenodd;clip-rule:evenodd;fill:url(#SVGID_3_);fill-opacity:0.25;}
	.st7{fill:#00CAAA;}
	.st8{fill-rule:evenodd;clip-rule:evenodd;fill:#00CAAA;}
	.st9{fill:#434F58;}
	.st10{fill-rule:evenodd;clip-rule:evenodd;fill:#434F58;}
	.st11{fill-rule:evenodd;clip-rule:evenodd;fill:url(#SVGID_4_);fill-opacity:0.25;}
	.st12{fill-rule:evenodd;clip-rule:evenodd;fill:url(#SVGID_5_);fill-opacity:0.25;}
	.st13{fill:#677983;}
	.st14{fill-rule:evenodd;clip-rule:evenodd;fill:#677983;}
</style>
<radialGradient id="SVGID_1_" cx="-255.3125" cy="589.7877" r="1" gradientTransform="matrix(9.797175e-16 16 16.0237 -9.811688e-16 -9414.5566 4121)" gradientUnits="userSpaceOnUse">
	<stop  offset="0" style="stop-color:#0073EC"/>
	<stop  offset="1" style="stop-color:#0073EC;stop-opacity:0"/>
</radialGradient>
<path class="st0" d="M39.2,25.6h11.6c0.3,0,0.6,0.1,0.8,0.4c0.2,0.2,0.4,0.6,0.4,0.9c0,8,0,15.9,0,23.9c0,0.3-0.1,0.7-0.4,0.9
	c-0.2,0.2-0.5,0.4-0.8,0.4H26.1c-0.3,0-0.6-0.1-0.8-0.4c-0.2-0.2-0.4-0.6-0.4-0.9c0-6.9,0-13.8,0-20.7h-3.1c-0.5,0-0.9-0.2-1.3-0.6
	c-0.3-0.4-0.5-0.8-0.5-1.3v-6.3c0-0.2,0-0.5,0.1-0.7c0.1-0.2,0.2-0.4,0.4-0.6c0.2-0.2,0.4-0.3,0.6-0.4c0.2-0.1,0.4-0.1,0.7-0.1h15.7
	c0.5,0,0.9,0.2,1.3,0.6c0.3,0.4,0.5,0.8,0.5,1.3V25.6z"/>
<path class="st1" d="M35.2,26.2c0.1,0.3,0.3,0.5,0.5,0.5s0.4,0,0.6-0.3c0.3-0.3,0.5-0.7,0.6-1.2c0-0.2,0.1-0.4,0.1-0.6
	c0-0.3,0-0.5-0.1-0.7c-0.1-0.3-0.3-0.5-0.5-0.5c-0.3-0.1-0.6,0.1-0.8,0.5c-0.2,0.3-0.3,0.6-0.4,1c0,0.2-0.1,0.4-0.1,0.6
	C35.1,25.7,35.1,26,35.2,26.2z"/>
<path class="st1" d="M30.8,26.7c-0.2,0-0.3-0.2-0.5-0.5c-0.1-0.2-0.1-0.5-0.1-0.7c0-0.2,0-0.4,0.1-0.6c0.1-0.4,0.2-0.7,0.4-1
	c0.3-0.4,0.5-0.6,0.8-0.5c0.2,0,0.3,0.2,0.5,0.5c0.1,0.2,0.1,0.5,0.1,0.7c0,0.2,0,0.4-0.1,0.6c-0.1,0.5-0.3,0.9-0.6,1.2
	C31.2,26.7,31,26.8,30.8,26.7z"/>
<path class="st1" d="M48.3,30.6c0.5,0,0.8-0.4,0.8-0.9c0-0.5-0.4-0.9-0.8-0.9c-0.5,0-0.8,0.4-0.8,0.9C47.4,30.2,47.8,30.6,48.3,30.6
	z"/>
<path class="st1" d="M42.1,30.6c0.5,0,0.8-0.4,0.8-0.9c0-0.5-0.4-0.9-0.8-0.9c-0.5,0-0.8,0.4-0.8,0.9C41.3,30.2,41.7,30.6,42.1,30.6
	z"/>
<path class="st1" d="M45.6,29c0.4,0.2,0.6,0.7,0.4,1.1c-0.2,0.4-0.7,0.6-1.1,0.5c-0.4-0.2-0.6-0.7-0.4-1.1
	C44.7,29,45.2,28.8,45.6,29z"/>
<path class="st2" d="M39.2,25.6h11.6c0.3,0,0.6,0.1,0.8,0.4c0.2,0.2,0.4,0.6,0.4,0.9v5.8c0,0.3-0.1,0.7-0.4,0.9
	c-0.2,0.2-0.5,0.4-0.8,0.4H26.1c-0.3,0-0.6-0.1-0.8-0.4c-0.2-0.2-0.4-0.6-0.4-0.9V30h-3.1c-0.5,0-0.9-0.2-1.3-0.6
	c-0.3-0.4-0.5-0.8-0.5-1.3v-6.3c0-0.2,0-0.5,0.1-0.7c0.1-0.2,0.2-0.4,0.4-0.6c0.2-0.2,0.4-0.3,0.6-0.4c0.2-0.1,0.4-0.1,0.7-0.1h15.7
	c0.5,0,0.9,0.2,1.3,0.6c0.3,0.4,0.5,0.8,0.5,1.3V25.6z M36.2,22c-0.7,0-1.4,0.4-1.8,1.2c-0.4,0.7-0.6,1.5-0.6,2.3
	c0,0.6,0.1,1.2,0.4,1.6c0.1,0.2,0.3,0.5,0.5,0.6c0.2,0.2,0.5,0.3,0.7,0.3c0.1,0,0.3,0,0.4,0c0.8,0,1.4-0.4,1.8-1.2
	c0.4-0.7,0.6-1.5,0.6-2.3c0-0.6-0.1-1.2-0.4-1.6c-0.1-0.2-0.3-0.5-0.5-0.6c-0.2-0.2-0.5-0.3-0.7-0.3C36.5,22,36.4,22,36.2,22z
	 M31.8,22c-0.1,0-0.3,0-0.4,0c-0.7,0-1.4,0.4-1.8,1.2c-0.4,0.7-0.6,1.5-0.6,2.3c0,0.6,0.1,1.2,0.4,1.6c0.1,0.2,0.3,0.5,0.5,0.6
	c0.2,0.2,0.5,0.3,0.7,0.3c0.1,0,0.3,0,0.4,0c0.8,0,1.4-0.4,1.8-1.2c0.4-0.7,0.6-1.5,0.6-2.3c0-0.6-0.1-1.2-0.4-1.6
	c-0.1-0.2-0.3-0.5-0.5-0.6C32.3,22.2,32,22.1,31.8,22z M22.3,28.5c0.2,0.4,0.3,0.6,0.5,0.6c0.3,0,0.7-0.5,1.2-1.4
	c0.2-0.5,0.6-1.3,1.1-2.4c0.4,1.5,1,2.7,1.7,3.5c0.2,0.2,0.4,0.3,0.6,0.3c0.1,0,0.2,0,0.2-0.1c0.1-0.1,0.1-0.1,0.2-0.2
	c0.1-0.2,0.1-0.4,0.1-0.5c-0.1-0.7,0-1.8,0.2-3.1c0.2-1.4,0.5-2.4,0.8-3C29,22,29,21.9,29,21.7c0-0.1,0-0.2-0.1-0.3
	c0-0.1-0.1-0.1-0.2-0.2c-0.1-0.1-0.1-0.1-0.2-0.1c-0.1,0-0.2,0-0.3,0c-0.1,0-0.2,0-0.3,0.1c-0.1,0.1-0.2,0.2-0.2,0.3
	c-0.5,0.9-0.8,2.4-1,4.5c-0.3-0.8-0.5-1.7-0.7-2.8c-0.1-0.5-0.3-0.7-0.6-0.7c-0.2,0-0.4,0.2-0.6,0.5l-1.7,3.4
	c-0.3-1.2-0.6-2.6-0.8-4.3c-0.1-0.4-0.3-0.6-0.7-0.6c-0.2,0-0.4,0.1-0.5,0.3C21,21.8,21,21.9,21,22c0,0.1,0,0.2,0,0.3
	C21.4,25.3,21.9,27.4,22.3,28.5z M51.1,32.9c0.1-0.1,0.1-0.1,0.1-0.2v-5.8c0-0.1,0-0.2-0.1-0.2c-0.1-0.1-0.1-0.1-0.2-0.1H39.2v1.6
	c0,0.5-0.2,1-0.5,1.3c-0.3,0.4-0.8,0.6-1.3,0.6h-5.6l0.8,2l-3.4-2h-3.4v2.6c0,0.1,0,0.2,0.1,0.2c0.1,0.1,0.1,0.1,0.2,0.1h24.7
	C50.9,33,51,32.9,51.1,32.9z"/>
<path class="st1" d="M47.8,38.1c0.1-0.1,0.3-0.1,0.5-0.1c0.1,0,0.2,0,0.3,0.1c0.1,0,0.2,0.1,0.3,0.2s0.1,0.2,0.2,0.3
	c0,0.1,0.1,0.2,0.1,0.3c0,0.2,0,0.3-0.1,0.5c-0.1,0.1-0.2,0.3-0.4,0.3c-0.2,0.1-0.3,0.1-0.5,0c-0.2,0-0.3-0.1-0.4-0.2
	c-0.1-0.1-0.2-0.3-0.2-0.4s0-0.3,0-0.5C47.6,38.3,47.7,38.2,47.8,38.1z"/>
<path class="st1" d="M45.3,37.9c-0.2,0-0.3,0.1-0.5,0.1c-0.1,0.1-0.2,0.2-0.3,0.4c-0.1,0.2-0.1,0.3,0,0.5c0,0.2,0.1,0.3,0.2,0.4
	c0.1,0.1,0.3,0.2,0.4,0.2c0.2,0,0.3,0,0.5,0c0.2-0.1,0.3-0.2,0.4-0.3c0.1-0.1,0.1-0.3,0.1-0.5c0-0.1,0-0.2-0.1-0.3
	c0-0.1-0.1-0.2-0.2-0.3c-0.1-0.1-0.2-0.1-0.3-0.2C45.5,38,45.4,37.9,45.3,37.9z"/>
<path class="st1" d="M41.7,38.1c0.1-0.1,0.3-0.1,0.5-0.1c0.1,0,0.2,0,0.3,0.1c0.1,0,0.2,0.1,0.3,0.2c0.1,0.1,0.1,0.2,0.2,0.3
	c0,0.1,0.1,0.2,0.1,0.3c0,0.2,0,0.3-0.1,0.5c-0.1,0.1-0.2,0.3-0.4,0.3c-0.2,0.1-0.3,0.1-0.5,0c-0.2,0-0.3-0.1-0.4-0.2
	c-0.1-0.1-0.2-0.3-0.2-0.4s0-0.3,0-0.5S41.5,38.2,41.7,38.1z"/>
<path class="st2" d="M26.1,34.6h24.7c0.3,0,0.6,0.1,0.8,0.4c0.2,0.2,0.4,0.6,0.4,0.9v5.8c0,0.3-0.1,0.7-0.4,0.9
	c-0.2,0.2-0.5,0.4-0.8,0.4H26.1c-0.3,0-0.6-0.1-0.8-0.4c-0.2-0.2-0.4-0.6-0.4-0.9v-5.8c0-0.3,0.1-0.7,0.4-0.9
	C25.5,34.8,25.8,34.6,26.1,34.6z M51.1,41.9c0.1-0.1,0.1-0.1,0.1-0.2v-5.8c0-0.1,0-0.2-0.1-0.2c-0.1-0.1-0.1-0.1-0.2-0.1H26.1
	c-0.1,0-0.2,0-0.2,0.1c-0.1,0.1-0.1,0.1-0.1,0.2v5.8c0,0.1,0,0.2,0.1,0.2C26,42,26.1,42,26.1,42h24.7C50.9,42,51,42,51.1,41.9z"/>
<path class="st1" d="M45.6,47c-0.4-0.2-0.9,0-1.1,0.5c-0.2,0.4,0,0.9,0.4,1.1c0.4,0.2,0.9,0,1.1-0.5C46.2,47.7,46,47.2,45.6,47z"/>
<path class="st1" d="M42.9,47.8c0,0.5-0.4,0.9-0.8,0.9c-0.5,0-0.8-0.4-0.8-0.9c0-0.5,0.4-0.9,0.8-0.9C42.6,47,42.9,47.4,42.9,47.8z"
	/>
<path class="st1" d="M49.1,47.8c0,0.5-0.4,0.9-0.8,0.9c-0.5,0-0.8-0.4-0.8-0.9c0-0.5,0.4-0.9,0.8-0.9C48.7,47,49.1,47.4,49.1,47.8z"
	/>
<path class="st2" d="M50.9,43.7H26.1c-0.3,0-0.6,0.1-0.8,0.4c-0.2,0.2-0.4,0.6-0.4,0.9v5.8c0,0.3,0.1,0.7,0.4,0.9
	c0.2,0.2,0.5,0.4,0.8,0.4h24.7c0.3,0,0.6-0.1,0.8-0.4c0.2-0.2,0.4-0.6,0.4-0.9v-5.8c0-0.3-0.1-0.7-0.4-0.9
	C51.5,43.8,51.2,43.7,50.9,43.7z M51.2,50.7c0,0.1,0,0.2-0.1,0.2c-0.1,0.1-0.1,0.1-0.2,0.1H26.1c-0.1,0-0.2,0-0.2-0.1
	c-0.1-0.1-0.1-0.1-0.1-0.2v-5.8c0-0.1,0-0.2,0.1-0.2c0.1-0.1,0.1-0.1,0.2-0.1h24.7c0.1,0,0.2,0,0.2,0.1c0.1,0.1,0.1,0.1,0.1,0.2
	V50.7z"/>
<g>
	
		<radialGradient id="SVGID_2_" cx="-255.3125" cy="589.7877" r="1" gradientTransform="matrix(9.797175e-16 16 16.0237 -9.811688e-16 -9414.5566 4177)" gradientUnits="userSpaceOnUse">
		<stop  offset="0" style="stop-color:#A644E5"/>
		<stop  offset="1" style="stop-color:#A644E5;stop-opacity:0"/>
	</radialGradient>
	<path class="st3" d="M39.2,81.6h11.6c0.3,0,0.6,0.1,0.8,0.4c0.2,0.2,0.4,0.6,0.4,0.9c0,8,0,15.9,0,23.9c0,0.3-0.1,0.7-0.4,0.9
		c-0.2,0.2-0.5,0.4-0.8,0.4H26.1c-0.3,0-0.6-0.1-0.8-0.4c-0.2-0.2-0.4-0.6-0.4-0.9c0-6.9,0-13.8,0-20.7h-3.1c-0.5,0-0.9-0.2-1.3-0.6
		c-0.3-0.4-0.5-0.8-0.5-1.3v-6.3c0-0.2,0-0.5,0.1-0.7c0.1-0.2,0.2-0.4,0.4-0.6c0.2-0.2,0.4-0.3,0.6-0.4c0.2-0.1,0.4-0.1,0.7-0.1
		h15.7c0.5,0,0.9,0.2,1.3,0.6c0.3,0.4,0.5,0.8,0.5,1.3V81.6z"/>
</g>
<path class="st4" d="M35.2,82.2c0.1,0.3,0.3,0.5,0.5,0.5s0.4,0,0.6-0.3c0.3-0.3,0.5-0.7,0.6-1.2c0-0.2,0.1-0.4,0.1-0.6
	c0-0.3,0-0.5-0.1-0.7c-0.1-0.3-0.3-0.5-0.5-0.5c-0.3-0.1-0.6,0.1-0.8,0.5c-0.2,0.3-0.3,0.6-0.4,1c0,0.2-0.1,0.4-0.1,0.6
	C35.1,81.7,35.1,82,35.2,82.2z"/>
<path class="st4" d="M30.8,82.7c-0.2,0-0.3-0.2-0.5-0.5c-0.1-0.2-0.1-0.5-0.1-0.7c0-0.2,0-0.4,0.1-0.6c0.1-0.4,0.2-0.7,0.4-1
	c0.3-0.4,0.5-0.6,0.8-0.5c0.2,0,0.3,0.2,0.5,0.5c0.1,0.2,0.1,0.5,0.1,0.7c0,0.2,0,0.4-0.1,0.6c-0.1,0.5-0.3,0.9-0.6,1.2
	C31.2,82.7,31,82.8,30.8,82.7z"/>
<path class="st4" d="M48.3,86.6c0.5,0,0.8-0.4,0.8-0.9c0-0.5-0.4-0.9-0.8-0.9c-0.5,0-0.8,0.4-0.8,0.9C47.4,86.2,47.8,86.6,48.3,86.6
	z"/>
<path class="st4" d="M42.1,86.6c0.5,0,0.8-0.4,0.8-0.9c0-0.5-0.4-0.9-0.8-0.9c-0.5,0-0.8,0.4-0.8,0.9C41.3,86.2,41.7,86.6,42.1,86.6
	z"/>
<path class="st4" d="M45.6,85c0.4,0.2,0.6,0.7,0.4,1.1c-0.2,0.4-0.7,0.6-1.1,0.5c-0.4-0.2-0.6-0.7-0.4-1.1
	C44.7,85,45.2,84.8,45.6,85z"/>
<path class="st5" d="M39.2,81.6h11.6c0.3,0,0.6,0.1,0.8,0.4c0.2,0.2,0.4,0.6,0.4,0.9v5.8c0,0.3-0.1,0.7-0.4,0.9
	c-0.2,0.2-0.5,0.4-0.8,0.4H26.1c-0.3,0-0.6-0.1-0.8-0.4c-0.2-0.2-0.4-0.6-0.4-0.9V86h-3.1c-0.5,0-0.9-0.2-1.3-0.6
	c-0.3-0.4-0.5-0.8-0.5-1.3v-6.3c0-0.2,0-0.5,0.1-0.7s0.2-0.4,0.4-0.6c0.2-0.2,0.4-0.3,0.6-0.4c0.2-0.1,0.4-0.1,0.7-0.1h15.7
	c0.5,0,0.9,0.2,1.3,0.6c0.3,0.4,0.5,0.8,0.5,1.3V81.6z M36.2,78c-0.7,0-1.4,0.4-1.8,1.2c-0.4,0.7-0.6,1.5-0.6,2.3
	c0,0.6,0.1,1.2,0.4,1.6c0.1,0.2,0.3,0.5,0.5,0.6c0.2,0.2,0.5,0.3,0.7,0.3c0.1,0,0.3,0,0.4,0c0.8,0,1.4-0.4,1.8-1.2
	c0.4-0.7,0.6-1.5,0.6-2.3c0-0.6-0.1-1.2-0.4-1.6c-0.1-0.2-0.3-0.5-0.5-0.6c-0.2-0.2-0.5-0.3-0.7-0.3C36.5,78,36.4,78,36.2,78z
	 M31.8,78c-0.1,0-0.3,0-0.4,0c-0.7,0-1.4,0.4-1.8,1.2c-0.4,0.7-0.6,1.5-0.6,2.3c0,0.6,0.1,1.2,0.4,1.6c0.1,0.2,0.3,0.5,0.5,0.6
	c0.2,0.2,0.5,0.3,0.7,0.3c0.1,0,0.3,0,0.4,0c0.8,0,1.4-0.4,1.8-1.2c0.4-0.7,0.6-1.5,0.6-2.3c0-0.6-0.1-1.2-0.4-1.6
	c-0.1-0.2-0.3-0.5-0.5-0.6C32.3,78.2,32,78.1,31.8,78z M22.3,84.5c0.2,0.4,0.3,0.6,0.5,0.6c0.3,0,0.7-0.5,1.2-1.4
	c0.2-0.5,0.6-1.3,1.1-2.4c0.4,1.5,1,2.7,1.7,3.5c0.2,0.2,0.4,0.3,0.6,0.3c0.1,0,0.2,0,0.2-0.1c0.1-0.1,0.1-0.1,0.2-0.2
	c0.1-0.2,0.1-0.4,0.1-0.5c-0.1-0.7,0-1.8,0.2-3.1c0.2-1.4,0.5-2.4,0.8-3C29,78,29,77.9,29,77.7c0-0.1,0-0.2-0.1-0.3
	c0-0.1-0.1-0.1-0.2-0.2c-0.1-0.1-0.1-0.1-0.2-0.1c-0.1,0-0.2,0-0.3,0c-0.1,0-0.2,0-0.3,0.1c-0.1,0.1-0.2,0.2-0.2,0.3
	c-0.5,0.9-0.8,2.4-1,4.5c-0.3-0.8-0.5-1.7-0.7-2.8c-0.1-0.5-0.3-0.7-0.6-0.7c-0.2,0-0.4,0.2-0.6,0.5l-1.7,3.4
	c-0.3-1.2-0.6-2.6-0.8-4.3c-0.1-0.4-0.3-0.6-0.7-0.6c-0.2,0-0.4,0.1-0.5,0.3C21,77.8,21,77.9,21,78c0,0.1,0,0.2,0,0.3
	C21.4,81.3,21.9,83.4,22.3,84.5z M51.1,88.9c0.1-0.1,0.1-0.1,0.1-0.2v-5.8c0-0.1,0-0.2-0.1-0.2c-0.1-0.1-0.1-0.1-0.2-0.1H39.2v1.6
	c0,0.5-0.2,1-0.5,1.3c-0.3,0.4-0.8,0.6-1.3,0.6h-5.6l0.8,2l-3.4-2h-3.4v2.6c0,0.1,0,0.2,0.1,0.2c0.1,0.1,0.1,0.1,0.2,0.1h24.7
	C50.9,89,51,88.9,51.1,88.9z"/>
<path class="st4" d="M47.8,94.1c0.1-0.1,0.3-0.1,0.5-0.1c0.1,0,0.2,0,0.3,0.1c0.1,0,0.2,0.1,0.3,0.2c0.1,0.1,0.1,0.2,0.2,0.3
	c0,0.1,0.1,0.2,0.1,0.3c0,0.2,0,0.3-0.1,0.5c-0.1,0.1-0.2,0.3-0.4,0.3c-0.2,0.1-0.3,0.1-0.5,0c-0.2,0-0.3-0.1-0.4-0.2
	c-0.1-0.1-0.2-0.3-0.2-0.4c0-0.2,0-0.3,0-0.5C47.6,94.3,47.7,94.2,47.8,94.1z"/>
<path class="st4" d="M45.3,93.9c-0.2,0-0.3,0.1-0.5,0.1c-0.1,0.1-0.2,0.2-0.3,0.4s-0.1,0.3,0,0.5c0,0.2,0.1,0.3,0.2,0.4
	c0.1,0.1,0.3,0.2,0.4,0.2c0.2,0,0.3,0,0.5,0c0.2-0.1,0.3-0.2,0.4-0.3c0.1-0.1,0.1-0.3,0.1-0.5c0-0.1,0-0.2-0.1-0.3
	c0-0.1-0.1-0.2-0.2-0.3c-0.1-0.1-0.2-0.1-0.3-0.2C45.5,94,45.4,93.9,45.3,93.9z"/>
<path class="st4" d="M41.7,94.1c0.1-0.1,0.3-0.1,0.5-0.1c0.1,0,0.2,0,0.3,0.1c0.1,0,0.2,0.1,0.3,0.2c0.1,0.1,0.1,0.2,0.2,0.3
	c0,0.1,0.1,0.2,0.1,0.3c0,0.2,0,0.3-0.1,0.5c-0.1,0.1-0.2,0.3-0.4,0.3c-0.2,0.1-0.3,0.1-0.5,0c-0.2,0-0.3-0.1-0.4-0.2
	c-0.1-0.1-0.2-0.3-0.2-0.4s0-0.3,0-0.5S41.5,94.2,41.7,94.1z"/>
<path class="st5" d="M26.1,90.6h24.7c0.3,0,0.6,0.1,0.8,0.4c0.2,0.2,0.4,0.6,0.4,0.9v5.8c0,0.3-0.1,0.7-0.4,0.9
	c-0.2,0.2-0.5,0.4-0.8,0.4H26.1c-0.3,0-0.6-0.1-0.8-0.4c-0.2-0.2-0.4-0.6-0.4-0.9v-5.8c0-0.3,0.1-0.7,0.4-0.9
	C25.5,90.8,25.8,90.6,26.1,90.6z M51.1,97.9c0.1-0.1,0.1-0.1,0.1-0.2v-5.8c0-0.1,0-0.2-0.1-0.2c-0.1-0.1-0.1-0.1-0.2-0.1H26.1
	c-0.1,0-0.2,0-0.2,0.1c-0.1,0.1-0.1,0.1-0.1,0.2v5.8c0,0.1,0,0.2,0.1,0.2C26,98,26.1,98,26.1,98h24.7C50.9,98,51,98,51.1,97.9z"/>
<path class="st4" d="M45.6,103c-0.4-0.2-0.9,0-1.1,0.5c-0.2,0.4,0,0.9,0.4,1.1c0.4,0.2,0.9,0,1.1-0.5C46.2,103.7,46,103.2,45.6,103z
	"/>
<path class="st4" d="M42.9,103.8c0,0.5-0.4,0.9-0.8,0.9c-0.5,0-0.8-0.4-0.8-0.9c0-0.5,0.4-0.9,0.8-0.9
	C42.6,103,42.9,103.4,42.9,103.8z"/>
<path class="st4" d="M49.1,103.8c0,0.5-0.4,0.9-0.8,0.9c-0.5,0-0.8-0.4-0.8-0.9c0-0.5,0.4-0.9,0.8-0.9
	C48.7,103,49.1,103.4,49.1,103.8z"/>
<path class="st5" d="M50.9,99.7H26.1c-0.3,0-0.6,0.1-0.8,0.4c-0.2,0.2-0.4,0.6-0.4,0.9v5.8c0,0.3,0.1,0.7,0.4,0.9
	c0.2,0.2,0.5,0.4,0.8,0.4h24.7c0.3,0,0.6-0.1,0.8-0.4c0.2-0.2,0.4-0.6,0.4-0.9v-5.8c0-0.3-0.1-0.7-0.4-0.9
	C51.5,99.8,51.2,99.7,50.9,99.7z M51.2,106.7c0,0.1,0,0.2-0.1,0.2c-0.1,0.1-0.1,0.1-0.2,0.1H26.1c-0.1,0-0.2,0-0.2-0.1
	c-0.1-0.1-0.1-0.1-0.1-0.2v-5.8c0-0.1,0-0.2,0.1-0.2c0.1-0.1,0.1-0.1,0.2-0.1h24.7c0.1,0,0.2,0,0.2,0.1c0.1,0.1,0.1,0.1,0.1,0.2
	V106.7z"/>
<g>
	
		<radialGradient id="SVGID_3_" cx="-255.3125" cy="589.7877" r="1" gradientTransform="matrix(9.797175e-16 16 16.0237 -9.811688e-16 -9414.5566 4233)" gradientUnits="userSpaceOnUse">
		<stop  offset="0" style="stop-color:#00CAAA"/>
		<stop  offset="1" style="stop-color:#00CAAA;stop-opacity:0"/>
	</radialGradient>
	<path class="st6" d="M39.2,137.6h11.6c0.3,0,0.6,0.1,0.8,0.4c0.2,0.2,0.4,0.6,0.4,0.9c0,8,0,15.9,0,23.9c0,0.3-0.1,0.7-0.4,0.9
		c-0.2,0.2-0.5,0.4-0.8,0.4H26.1c-0.3,0-0.6-0.1-0.8-0.4c-0.2-0.2-0.4-0.6-0.4-0.9c0-6.9,0-13.8,0-20.7h-3.1c-0.5,0-0.9-0.2-1.3-0.6
		c-0.3-0.4-0.5-0.8-0.5-1.3v-6.3c0-0.2,0-0.5,0.1-0.7c0.1-0.2,0.2-0.4,0.4-0.6c0.2-0.2,0.4-0.3,0.6-0.4c0.2-0.1,0.4-0.1,0.7-0.1
		h15.7c0.5,0,0.9,0.2,1.3,0.6c0.3,0.4,0.5,0.8,0.5,1.3V137.6z"/>
</g>
<path class="st7" d="M35.2,138.2c0.1,0.3,0.3,0.5,0.5,0.5c0.2,0,0.4,0,0.6-0.3c0.3-0.3,0.5-0.7,0.6-1.2c0-0.2,0.1-0.4,0.1-0.6
	c0-0.3,0-0.5-0.1-0.7c-0.1-0.3-0.3-0.5-0.5-0.5c-0.3-0.1-0.6,0.1-0.8,0.5c-0.2,0.3-0.3,0.6-0.4,1c0,0.2-0.1,0.4-0.1,0.6
	C35.1,137.7,35.1,138,35.2,138.2z"/>
<path class="st7" d="M30.8,138.7c-0.2,0-0.3-0.2-0.5-0.5c-0.1-0.2-0.1-0.5-0.1-0.7c0-0.2,0-0.4,0.1-0.6c0.1-0.4,0.2-0.7,0.4-1
	c0.3-0.4,0.5-0.6,0.8-0.5c0.2,0,0.3,0.2,0.5,0.5c0.1,0.2,0.1,0.5,0.1,0.7c0,0.2,0,0.4-0.1,0.6c-0.1,0.5-0.3,0.9-0.6,1.2
	C31.2,138.7,31,138.8,30.8,138.7z"/>
<path class="st7" d="M48.3,142.6c0.5,0,0.8-0.4,0.8-0.9s-0.4-0.9-0.8-0.9c-0.5,0-0.8,0.4-0.8,0.9S47.8,142.6,48.3,142.6z"/>
<path class="st7" d="M42.1,142.6c0.5,0,0.8-0.4,0.8-0.9c0-0.5-0.4-0.9-0.8-0.9c-0.5,0-0.8,0.4-0.8,0.9
	C41.3,142.2,41.7,142.6,42.1,142.6z"/>
<path class="st7" d="M45.6,141c0.4,0.2,0.6,0.7,0.4,1.1c-0.2,0.4-0.7,0.6-1.1,0.5c-0.4-0.2-0.6-0.7-0.4-1.1
	C44.7,141,45.2,140.8,45.6,141z"/>
<path class="st8" d="M39.2,137.6h11.6c0.3,0,0.6,0.1,0.8,0.4c0.2,0.2,0.4,0.6,0.4,0.9v5.8c0,0.3-0.1,0.7-0.4,0.9
	c-0.2,0.2-0.5,0.4-0.8,0.4H26.1c-0.3,0-0.6-0.1-0.8-0.4c-0.2-0.2-0.4-0.6-0.4-0.9V142h-3.1c-0.5,0-0.9-0.2-1.3-0.6
	c-0.3-0.4-0.5-0.8-0.5-1.3v-6.3c0-0.2,0-0.5,0.1-0.7c0.1-0.2,0.2-0.4,0.4-0.6c0.2-0.2,0.4-0.3,0.6-0.4c0.2-0.1,0.4-0.1,0.7-0.1h15.7
	c0.5,0,0.9,0.2,1.3,0.6c0.3,0.4,0.5,0.8,0.5,1.3V137.6z M36.2,134c-0.7,0-1.4,0.4-1.8,1.2c-0.4,0.7-0.6,1.5-0.6,2.3
	c0,0.6,0.1,1.2,0.4,1.6c0.1,0.2,0.3,0.5,0.5,0.6c0.2,0.2,0.5,0.3,0.7,0.3c0.1,0,0.3,0,0.4,0c0.8,0,1.4-0.4,1.8-1.2
	c0.4-0.7,0.6-1.5,0.6-2.3c0-0.6-0.1-1.2-0.4-1.6c-0.1-0.2-0.3-0.5-0.5-0.6c-0.2-0.2-0.5-0.3-0.7-0.3C36.5,134,36.4,134,36.2,134z
	 M31.8,134c-0.1,0-0.3,0-0.4,0c-0.7,0-1.4,0.4-1.8,1.2c-0.4,0.7-0.6,1.5-0.6,2.3c0,0.6,0.1,1.2,0.4,1.6c0.1,0.2,0.3,0.5,0.5,0.6
	c0.2,0.2,0.5,0.3,0.7,0.3c0.1,0,0.3,0,0.4,0c0.8,0,1.4-0.4,1.8-1.2c0.4-0.7,0.6-1.5,0.6-2.3c0-0.6-0.1-1.2-0.4-1.6
	c-0.1-0.2-0.3-0.5-0.5-0.6C32.3,134.2,32,134.1,31.8,134z M22.3,140.5c0.2,0.4,0.3,0.6,0.5,0.6c0.3,0,0.7-0.5,1.2-1.4
	c0.2-0.5,0.6-1.3,1.1-2.4c0.4,1.5,1,2.7,1.7,3.5c0.2,0.2,0.4,0.3,0.6,0.3c0.1,0,0.2,0,0.2-0.1c0.1-0.1,0.1-0.1,0.2-0.2
	c0.1-0.2,0.1-0.4,0.1-0.5c-0.1-0.7,0-1.8,0.2-3.1c0.2-1.4,0.5-2.4,0.8-3c0.1-0.1,0.1-0.3,0.1-0.4c0-0.1,0-0.2-0.1-0.3
	c0-0.1-0.1-0.2-0.2-0.2c-0.1-0.1-0.1-0.1-0.2-0.1c-0.1,0-0.2,0-0.3,0c-0.1,0-0.2,0-0.3,0.1s-0.2,0.2-0.2,0.3c-0.5,0.9-0.8,2.4-1,4.5
	c-0.3-0.8-0.5-1.7-0.7-2.8c-0.1-0.5-0.3-0.7-0.6-0.7c-0.2,0-0.4,0.2-0.6,0.5l-1.7,3.4c-0.3-1.2-0.6-2.6-0.8-4.3
	c-0.1-0.4-0.3-0.6-0.7-0.6c-0.2,0-0.4,0.1-0.5,0.3c-0.1,0.1-0.1,0.2-0.1,0.3c0,0.1,0,0.2,0,0.3C21.4,137.3,21.9,139.4,22.3,140.5z
	 M51.1,144.9c0.1-0.1,0.1-0.1,0.1-0.2v-5.8c0-0.1,0-0.2-0.1-0.2c-0.1-0.1-0.1-0.1-0.2-0.1H39.2v1.6c0,0.5-0.2,1-0.5,1.3
	c-0.3,0.4-0.8,0.6-1.3,0.6h-5.6l0.8,2l-3.4-2h-3.4v2.6c0,0.1,0,0.2,0.1,0.2c0.1,0.1,0.1,0.1,0.2,0.1h24.7
	C50.9,145,51,144.9,51.1,144.9z"/>
<path class="st7" d="M47.8,150.1c0.1-0.1,0.3-0.1,0.5-0.1c0.1,0,0.2,0,0.3,0.1c0.1,0,0.2,0.1,0.3,0.2s0.1,0.2,0.2,0.3
	c0,0.1,0.1,0.2,0.1,0.3c0,0.2,0,0.3-0.1,0.5c-0.1,0.1-0.2,0.3-0.4,0.3c-0.2,0.1-0.3,0.1-0.5,0c-0.2,0-0.3-0.1-0.4-0.2
	c-0.1-0.1-0.2-0.3-0.2-0.4c0-0.2,0-0.3,0-0.5C47.6,150.3,47.7,150.2,47.8,150.1z"/>
<path class="st7" d="M45.3,149.9c-0.2,0-0.3,0-0.5,0.1c-0.1,0.1-0.2,0.2-0.3,0.4c-0.1,0.2-0.1,0.3,0,0.5c0,0.2,0.1,0.3,0.2,0.4
	c0.1,0.1,0.3,0.2,0.4,0.2c0.2,0,0.3,0,0.5,0c0.2-0.1,0.3-0.2,0.4-0.3c0.1-0.1,0.1-0.3,0.1-0.5c0-0.1,0-0.2-0.1-0.3
	c0-0.1-0.1-0.2-0.2-0.3c-0.1-0.1-0.2-0.1-0.3-0.2C45.5,150,45.4,149.9,45.3,149.9z"/>
<path class="st7" d="M41.7,150.1c0.1-0.1,0.3-0.1,0.5-0.1c0.1,0,0.2,0,0.3,0.1c0.1,0,0.2,0.1,0.3,0.2c0.1,0.1,0.1,0.2,0.2,0.3
	c0,0.1,0.1,0.2,0.1,0.3c0,0.2,0,0.3-0.1,0.5s-0.2,0.3-0.4,0.3c-0.2,0.1-0.3,0.1-0.5,0c-0.2,0-0.3-0.1-0.4-0.2
	c-0.1-0.1-0.2-0.3-0.2-0.4c0-0.2,0-0.3,0-0.5C41.4,150.3,41.5,150.2,41.7,150.1z"/>
<path class="st8" d="M26.1,146.6h24.7c0.3,0,0.6,0.1,0.8,0.4c0.2,0.2,0.4,0.6,0.4,0.9v5.8c0,0.3-0.1,0.7-0.4,0.9
	c-0.2,0.2-0.5,0.4-0.8,0.4H26.1c-0.3,0-0.6-0.1-0.8-0.4c-0.2-0.2-0.4-0.6-0.4-0.9v-5.8c0-0.3,0.1-0.7,0.4-0.9
	C25.5,146.8,25.8,146.6,26.1,146.6z M51.1,153.9c0.1-0.1,0.1-0.1,0.1-0.2v-5.8c0-0.1,0-0.2-0.1-0.2c-0.1-0.1-0.1-0.1-0.2-0.1H26.1
	c-0.1,0-0.2,0-0.2,0.1c-0.1,0.1-0.1,0.1-0.1,0.2v5.8c0,0.1,0,0.2,0.1,0.2c0.1,0.1,0.1,0.1,0.2,0.1h24.7C50.9,154,51,154,51.1,153.9z
	"/>
<path class="st7" d="M45.6,159c-0.4-0.2-0.9,0-1.1,0.5c-0.2,0.4,0,0.9,0.4,1.1c0.4,0.2,0.9,0,1.1-0.5C46.2,159.7,46,159.2,45.6,159z
	"/>
<path class="st7" d="M42.9,159.8c0,0.5-0.4,0.9-0.8,0.9c-0.5,0-0.8-0.4-0.8-0.9c0-0.5,0.4-0.9,0.8-0.9
	C42.6,159,42.9,159.4,42.9,159.8z"/>
<path class="st7" d="M49.1,159.8c0,0.5-0.4,0.9-0.8,0.9c-0.5,0-0.8-0.4-0.8-0.9s0.4-0.9,0.8-0.9C48.7,159,49.1,159.4,49.1,159.8z"/>
<path class="st8" d="M50.9,155.7H26.1c-0.3,0-0.6,0.1-0.8,0.4c-0.2,0.2-0.4,0.6-0.4,0.9v5.8c0,0.3,0.1,0.6,0.4,0.9
	c0.2,0.2,0.5,0.4,0.8,0.4h24.7c0.3,0,0.6-0.1,0.8-0.4c0.2-0.2,0.4-0.6,0.4-0.9v-5.8c0-0.3-0.1-0.7-0.4-0.9
	C51.5,155.8,51.2,155.7,50.9,155.7z M51.2,162.7c0,0.1,0,0.2-0.1,0.2c-0.1,0.1-0.1,0.1-0.2,0.1H26.1c-0.1,0-0.2,0-0.2-0.1
	c-0.1-0.1-0.1-0.1-0.1-0.2v-5.8c0-0.1,0-0.2,0.1-0.2c0.1-0.1,0.1-0.1,0.2-0.1h24.7c0.1,0,0.2,0,0.2,0.1c0.1,0.1,0.1,0.1,0.1,0.2
	V162.7z"/>
<path class="st9" d="M35.2,194.2c0.1,0.3,0.3,0.5,0.5,0.5c0.2,0,0.4,0,0.6-0.3c0.3-0.3,0.5-0.7,0.6-1.2c0-0.2,0.1-0.4,0.1-0.6
	c0-0.3,0-0.5-0.1-0.7c-0.1-0.3-0.3-0.5-0.5-0.5c-0.3-0.1-0.6,0.1-0.8,0.5c-0.2,0.3-0.3,0.6-0.4,1c0,0.2-0.1,0.4-0.1,0.6
	C35.1,193.7,35.1,194,35.2,194.2z"/>
<path class="st9" d="M30.8,194.7c-0.2,0-0.3-0.2-0.5-0.5c-0.1-0.2-0.1-0.5-0.1-0.7c0-0.2,0-0.4,0.1-0.6c0.1-0.4,0.2-0.7,0.4-1
	c0.3-0.4,0.5-0.6,0.8-0.5c0.2,0,0.3,0.2,0.5,0.5c0.1,0.2,0.1,0.5,0.1,0.7c0,0.2,0,0.4-0.1,0.6c-0.1,0.5-0.3,0.9-0.6,1.2
	C31.2,194.7,31,194.8,30.8,194.7z"/>
<path class="st9" d="M48.3,198.6c0.5,0,0.8-0.4,0.8-0.9s-0.4-0.9-0.8-0.9c-0.5,0-0.8,0.4-0.8,0.9S47.8,198.6,48.3,198.6z"/>
<path class="st9" d="M42.1,198.6c0.5,0,0.8-0.4,0.8-0.9c0-0.5-0.4-0.9-0.8-0.9c-0.5,0-0.8,0.4-0.8,0.9
	C41.3,198.2,41.7,198.6,42.1,198.6z"/>
<path class="st9" d="M45.6,197c0.4,0.2,0.6,0.7,0.4,1.1c-0.2,0.4-0.7,0.6-1.1,0.5c-0.4-0.2-0.6-0.7-0.4-1.1
	C44.7,197,45.2,196.8,45.6,197z"/>
<path class="st10" d="M39.2,193.6h11.6c0.3,0,0.6,0.1,0.8,0.4c0.2,0.2,0.4,0.6,0.4,0.9v5.8c0,0.3-0.1,0.7-0.4,0.9
	c-0.2,0.2-0.5,0.4-0.8,0.4H26.1c-0.3,0-0.6-0.1-0.8-0.4c-0.2-0.2-0.4-0.6-0.4-0.9V198h-3.1c-0.5,0-0.9-0.2-1.3-0.6
	c-0.3-0.4-0.5-0.8-0.5-1.3v-6.3c0-0.2,0-0.5,0.1-0.7c0.1-0.2,0.2-0.4,0.4-0.6c0.2-0.2,0.4-0.3,0.6-0.4c0.2-0.1,0.4-0.1,0.7-0.1h15.7
	c0.5,0,0.9,0.2,1.3,0.6c0.3,0.4,0.5,0.8,0.5,1.3V193.6z M36.2,190c-0.7,0-1.4,0.4-1.8,1.2c-0.4,0.7-0.6,1.5-0.6,2.3
	c0,0.6,0.1,1.2,0.4,1.6c0.1,0.2,0.3,0.5,0.5,0.6c0.2,0.2,0.5,0.3,0.7,0.3c0.1,0,0.3,0,0.4,0c0.8,0,1.4-0.4,1.8-1.2
	c0.4-0.7,0.6-1.5,0.6-2.3c0-0.6-0.1-1.2-0.4-1.6c-0.1-0.2-0.3-0.5-0.5-0.6c-0.2-0.2-0.5-0.3-0.7-0.3C36.5,190,36.4,190,36.2,190z
	 M31.8,190c-0.1,0-0.3,0-0.4,0c-0.7,0-1.4,0.4-1.8,1.2c-0.4,0.7-0.6,1.5-0.6,2.3c0,0.6,0.1,1.2,0.4,1.6c0.1,0.2,0.3,0.5,0.5,0.6
	c0.2,0.2,0.5,0.3,0.7,0.3c0.1,0,0.3,0,0.4,0c0.8,0,1.4-0.4,1.8-1.2c0.4-0.7,0.6-1.5,0.6-2.3c0-0.6-0.1-1.2-0.4-1.6
	c-0.1-0.2-0.3-0.5-0.5-0.6C32.3,190.2,32,190.1,31.8,190z M22.3,196.5c0.2,0.4,0.3,0.6,0.5,0.6c0.3,0,0.7-0.5,1.2-1.4
	c0.2-0.5,0.6-1.3,1.1-2.4c0.4,1.5,1,2.7,1.7,3.5c0.2,0.2,0.4,0.3,0.6,0.3c0.1,0,0.2,0,0.2-0.1c0.1-0.1,0.1-0.1,0.2-0.2
	c0.1-0.2,0.1-0.4,0.1-0.5c-0.1-0.7,0-1.8,0.2-3.1c0.2-1.4,0.5-2.4,0.8-3c0.1-0.1,0.1-0.3,0.1-0.4c0-0.1,0-0.2-0.1-0.3
	c0-0.1-0.1-0.2-0.2-0.2c-0.1-0.1-0.1-0.1-0.2-0.1c-0.1,0-0.2,0-0.3,0c-0.1,0-0.2,0-0.3,0.1s-0.2,0.2-0.2,0.3c-0.5,0.9-0.8,2.4-1,4.5
	c-0.3-0.8-0.5-1.7-0.7-2.8c-0.1-0.5-0.3-0.7-0.6-0.7c-0.2,0-0.4,0.2-0.6,0.5l-1.7,3.4c-0.3-1.2-0.6-2.6-0.8-4.3
	c-0.1-0.4-0.3-0.6-0.7-0.6c-0.2,0-0.4,0.1-0.5,0.3c-0.1,0.1-0.1,0.2-0.1,0.3c0,0.1,0,0.2,0,0.3C21.4,193.3,21.9,195.4,22.3,196.5z
	 M51.1,200.9c0.1-0.1,0.1-0.1,0.1-0.2v-5.8c0-0.1,0-0.2-0.1-0.2c-0.1-0.1-0.1-0.1-0.2-0.1H39.2v1.6c0,0.5-0.2,1-0.5,1.3
	c-0.3,0.4-0.8,0.6-1.3,0.6h-5.6l0.8,2l-3.4-2h-3.4v2.6c0,0.1,0,0.2,0.1,0.2c0.1,0.1,0.1,0.1,0.2,0.1h24.7
	C50.9,201,51,200.9,51.1,200.9z"/>
<path class="st9" d="M47.8,206.1c0.1-0.1,0.3-0.1,0.5-0.1c0.1,0,0.2,0,0.3,0.1c0.1,0,0.2,0.1,0.3,0.2s0.1,0.2,0.2,0.3
	c0,0.1,0.1,0.2,0.1,0.3c0,0.2,0,0.3-0.1,0.5c-0.1,0.1-0.2,0.3-0.4,0.3c-0.2,0.1-0.3,0.1-0.5,0c-0.2,0-0.3-0.1-0.4-0.2
	c-0.1-0.1-0.2-0.3-0.2-0.4c0-0.2,0-0.3,0-0.5C47.6,206.3,47.7,206.2,47.8,206.1z"/>
<path class="st9" d="M45.3,205.9c-0.2,0-0.3,0-0.5,0.1c-0.1,0.1-0.2,0.2-0.3,0.4c-0.1,0.2-0.1,0.3,0,0.5c0,0.2,0.1,0.3,0.2,0.4
	c0.1,0.1,0.3,0.2,0.4,0.2c0.2,0,0.3,0,0.5,0c0.2-0.1,0.3-0.2,0.4-0.3c0.1-0.1,0.1-0.3,0.1-0.5c0-0.1,0-0.2-0.1-0.3
	c0-0.1-0.1-0.2-0.2-0.3c-0.1-0.1-0.2-0.1-0.3-0.2C45.5,206,45.4,205.9,45.3,205.9z"/>
<path class="st9" d="M41.7,206.1c0.1-0.1,0.3-0.1,0.5-0.1c0.1,0,0.2,0,0.3,0.1c0.1,0,0.2,0.1,0.3,0.2c0.1,0.1,0.1,0.2,0.2,0.3
	c0,0.1,0.1,0.2,0.1,0.3c0,0.2,0,0.3-0.1,0.5s-0.2,0.3-0.4,0.3c-0.2,0.1-0.3,0.1-0.5,0c-0.2,0-0.3-0.1-0.4-0.2
	c-0.1-0.1-0.2-0.3-0.2-0.4c0-0.2,0-0.3,0-0.5C41.4,206.3,41.5,206.2,41.7,206.1z"/>
<path class="st10" d="M26.1,202.6h24.7c0.3,0,0.6,0.1,0.8,0.4c0.2,0.2,0.4,0.6,0.4,0.9v5.8c0,0.3-0.1,0.7-0.4,0.9
	c-0.2,0.2-0.5,0.4-0.8,0.4H26.1c-0.3,0-0.6-0.1-0.8-0.4c-0.2-0.2-0.4-0.6-0.4-0.9v-5.8c0-0.3,0.1-0.7,0.4-0.9
	C25.5,202.8,25.8,202.6,26.1,202.6z M51.1,209.9c0.1-0.1,0.1-0.1,0.1-0.2v-5.8c0-0.1,0-0.2-0.1-0.2c-0.1-0.1-0.1-0.1-0.2-0.1H26.1
	c-0.1,0-0.2,0-0.2,0.1c-0.1,0.1-0.1,0.1-0.1,0.2v5.8c0,0.1,0,0.2,0.1,0.2c0.1,0.1,0.1,0.1,0.2,0.1h24.7C50.9,210,51,210,51.1,209.9z
	"/>
<path class="st9" d="M45.6,215c-0.4-0.2-0.9,0-1.1,0.5c-0.2,0.4,0,0.9,0.4,1.1c0.4,0.2,0.9,0,1.1-0.5C46.2,215.7,46,215.2,45.6,215z
	"/>
<path class="st9" d="M42.9,215.8c0,0.5-0.4,0.9-0.8,0.9c-0.5,0-0.8-0.4-0.8-0.9c0-0.5,0.4-0.9,0.8-0.9
	C42.6,215,42.9,215.4,42.9,215.8z"/>
<path class="st9" d="M49.1,215.8c0,0.5-0.4,0.9-0.8,0.9c-0.5,0-0.8-0.4-0.8-0.9s0.4-0.9,0.8-0.9C48.7,215,49.1,215.4,49.1,215.8z"/>
<path class="st10" d="M50.9,211.7H26.1c-0.3,0-0.6,0.1-0.8,0.4c-0.2,0.2-0.4,0.6-0.4,0.9v5.8c0,0.3,0.1,0.6,0.4,0.9
	c0.2,0.2,0.5,0.4,0.8,0.4h24.7c0.3,0,0.6-0.1,0.8-0.4c0.2-0.2,0.4-0.6,0.4-0.9v-5.8c0-0.3-0.1-0.7-0.4-0.9
	C51.5,211.8,51.2,211.7,50.9,211.7z M51.2,218.7c0,0.1,0,0.2-0.1,0.2c-0.1,0.1-0.1,0.1-0.2,0.1H26.1c-0.1,0-0.2,0-0.2-0.1
	c-0.1-0.1-0.1-0.1-0.1-0.2v-5.8c0-0.1,0-0.2,0.1-0.2c0.1-0.1,0.1-0.1,0.2-0.1h24.7c0.1,0,0.2,0,0.2,0.1c0.1,0.1,0.1,0.1,0.1,0.2
	V218.7z"/>
<g>
	
		<radialGradient id="SVGID_4_" cx="-255.3125" cy="589.7877" r="1" gradientTransform="matrix(9.797175e-16 16 16.0237 -9.811688e-16 -9414.5566 4345)" gradientUnits="userSpaceOnUse">
		<stop  offset="0" style="stop-color:#434F58"/>
		<stop  offset="1" style="stop-color:#434F58;stop-opacity:0"/>
	</radialGradient>
	<path class="st11" d="M39.2,249.6h11.6c0.3,0,0.6,0.1,0.8,0.4c0.2,0.2,0.4,0.6,0.4,0.9c0,8,0,15.9,0,23.9c0,0.3-0.1,0.7-0.4,0.9
		c-0.2,0.2-0.5,0.4-0.8,0.4H26.1c-0.3,0-0.6-0.1-0.8-0.4c-0.2-0.2-0.4-0.6-0.4-0.9c0-6.9,0-13.8,0-20.7h-3.1c-0.5,0-0.9-0.2-1.3-0.6
		c-0.3-0.4-0.5-0.8-0.5-1.3v-6.3c0-0.2,0-0.5,0.1-0.7c0.1-0.2,0.2-0.4,0.4-0.6c0.2-0.2,0.4-0.3,0.6-0.4c0.2-0.1,0.4-0.1,0.7-0.1
		h15.7c0.5,0,0.9,0.2,1.3,0.6c0.3,0.4,0.5,0.8,0.5,1.3V249.6z"/>
</g>
<path class="st9" d="M35.2,250.2c0.1,0.3,0.3,0.5,0.5,0.5c0.2,0,0.4,0,0.6-0.3c0.3-0.3,0.5-0.7,0.6-1.2c0-0.2,0.1-0.4,0.1-0.6
	c0-0.3,0-0.5-0.1-0.7c-0.1-0.3-0.3-0.5-0.5-0.5c-0.3-0.1-0.6,0.1-0.8,0.5c-0.2,0.3-0.3,0.6-0.4,1c0,0.2-0.1,0.4-0.1,0.6
	C35.1,249.7,35.1,250,35.2,250.2z"/>
<path class="st9" d="M30.8,250.7c-0.2,0-0.3-0.2-0.5-0.5c-0.1-0.2-0.1-0.5-0.1-0.7c0-0.2,0-0.4,0.1-0.6c0.1-0.4,0.2-0.7,0.4-1
	c0.3-0.4,0.5-0.6,0.8-0.5c0.2,0,0.3,0.2,0.5,0.5c0.1,0.2,0.1,0.5,0.1,0.7c0,0.2,0,0.4-0.1,0.6c-0.1,0.5-0.3,0.9-0.6,1.2
	C31.2,250.7,31,250.8,30.8,250.7z"/>
<path class="st9" d="M48.3,254.6c0.5,0,0.8-0.4,0.8-0.9s-0.4-0.9-0.8-0.9c-0.5,0-0.8,0.4-0.8,0.9S47.8,254.6,48.3,254.6z"/>
<path class="st9" d="M42.1,254.6c0.5,0,0.8-0.4,0.8-0.9c0-0.5-0.4-0.9-0.8-0.9c-0.5,0-0.8,0.4-0.8,0.9
	C41.3,254.2,41.7,254.6,42.1,254.6z"/>
<path class="st9" d="M45.6,253c0.4,0.2,0.6,0.7,0.4,1.1c-0.2,0.4-0.7,0.6-1.1,0.5c-0.4-0.2-0.6-0.7-0.4-1.1
	C44.7,253,45.2,252.8,45.6,253z"/>
<path class="st10" d="M39.2,249.6h11.6c0.3,0,0.6,0.1,0.8,0.4c0.2,0.2,0.4,0.6,0.4,0.9v5.8c0,0.3-0.1,0.7-0.4,0.9
	c-0.2,0.2-0.5,0.4-0.8,0.4H26.1c-0.3,0-0.6-0.1-0.8-0.4c-0.2-0.2-0.4-0.6-0.4-0.9V254h-3.1c-0.5,0-0.9-0.2-1.3-0.6
	c-0.3-0.4-0.5-0.8-0.5-1.3v-6.3c0-0.2,0-0.5,0.1-0.7c0.1-0.2,0.2-0.4,0.4-0.6c0.2-0.2,0.4-0.3,0.6-0.4c0.2-0.1,0.4-0.1,0.7-0.1h15.7
	c0.5,0,0.9,0.2,1.3,0.6c0.3,0.4,0.5,0.8,0.5,1.3V249.6z M36.2,246c-0.7,0-1.4,0.4-1.8,1.2c-0.4,0.7-0.6,1.5-0.6,2.3
	c0,0.6,0.1,1.2,0.4,1.6c0.1,0.2,0.3,0.5,0.5,0.6c0.2,0.2,0.5,0.3,0.7,0.3c0.1,0,0.3,0,0.4,0c0.8,0,1.4-0.4,1.8-1.2
	c0.4-0.7,0.6-1.5,0.6-2.3c0-0.6-0.1-1.2-0.4-1.6c-0.1-0.2-0.3-0.5-0.5-0.6c-0.2-0.2-0.5-0.3-0.7-0.3C36.5,246,36.4,246,36.2,246z
	 M31.8,246c-0.1,0-0.3,0-0.4,0c-0.7,0-1.4,0.4-1.8,1.2c-0.4,0.7-0.6,1.5-0.6,2.3c0,0.6,0.1,1.2,0.4,1.6c0.1,0.2,0.3,0.5,0.5,0.6
	c0.2,0.2,0.5,0.3,0.7,0.3c0.1,0,0.3,0,0.4,0c0.8,0,1.4-0.4,1.8-1.2c0.4-0.7,0.6-1.5,0.6-2.3c0-0.6-0.1-1.2-0.4-1.6
	c-0.1-0.2-0.3-0.5-0.5-0.6C32.3,246.2,32,246.1,31.8,246z M22.3,252.5c0.2,0.4,0.3,0.6,0.5,0.6c0.3,0,0.7-0.5,1.2-1.4
	c0.2-0.5,0.6-1.3,1.1-2.4c0.4,1.5,1,2.7,1.7,3.5c0.2,0.2,0.4,0.3,0.6,0.3c0.1,0,0.2,0,0.2-0.1c0.1-0.1,0.1-0.1,0.2-0.2
	c0.1-0.2,0.1-0.4,0.1-0.5c-0.1-0.7,0-1.8,0.2-3.1c0.2-1.4,0.5-2.4,0.8-3c0.1-0.1,0.1-0.3,0.1-0.4c0-0.1,0-0.2-0.1-0.3
	c0-0.1-0.1-0.2-0.2-0.2c-0.1-0.1-0.1-0.1-0.2-0.1c-0.1,0-0.2,0-0.3,0c-0.1,0-0.2,0-0.3,0.1s-0.2,0.2-0.2,0.3c-0.5,0.9-0.8,2.4-1,4.5
	c-0.3-0.8-0.5-1.7-0.7-2.8c-0.1-0.5-0.3-0.7-0.6-0.7c-0.2,0-0.4,0.2-0.6,0.5l-1.7,3.4c-0.3-1.2-0.6-2.6-0.8-4.3
	c-0.1-0.4-0.3-0.6-0.7-0.6c-0.2,0-0.4,0.1-0.5,0.3c-0.1,0.1-0.1,0.2-0.1,0.3c0,0.1,0,0.2,0,0.3C21.4,249.3,21.9,251.4,22.3,252.5z
	 M51.1,256.9c0.1-0.1,0.1-0.1,0.1-0.2v-5.8c0-0.1,0-0.2-0.1-0.2c-0.1-0.1-0.1-0.1-0.2-0.1H39.2v1.6c0,0.5-0.2,1-0.5,1.3
	c-0.3,0.4-0.8,0.6-1.3,0.6h-5.6l0.8,2l-3.4-2h-3.4v2.6c0,0.1,0,0.2,0.1,0.2c0.1,0.1,0.1,0.1,0.2,0.1h24.7
	C50.9,257,51,256.9,51.1,256.9z"/>
<path class="st9" d="M47.8,262.1c0.1-0.1,0.3-0.1,0.5-0.1c0.1,0,0.2,0,0.3,0.1c0.1,0,0.2,0.1,0.3,0.2c0.1,0.1,0.1,0.2,0.2,0.3
	c0,0.1,0.1,0.2,0.1,0.3c0,0.2,0,0.3-0.1,0.5c-0.1,0.1-0.2,0.3-0.4,0.3c-0.2,0.1-0.3,0.1-0.5,0c-0.2,0-0.3-0.1-0.4-0.2
	c-0.1-0.1-0.2-0.3-0.2-0.4c0-0.2,0-0.3,0-0.5C47.6,262.3,47.7,262.2,47.8,262.1z"/>
<path class="st9" d="M45.3,261.9c-0.2,0-0.3,0.1-0.5,0.1c-0.1,0.1-0.2,0.2-0.3,0.4s-0.1,0.3,0,0.5c0,0.2,0.1,0.3,0.2,0.4
	c0.1,0.1,0.3,0.2,0.4,0.2c0.2,0,0.3,0,0.5,0c0.2-0.1,0.3-0.2,0.4-0.3c0.1-0.1,0.1-0.3,0.1-0.5c0-0.1,0-0.2-0.1-0.3
	c0-0.1-0.1-0.2-0.2-0.3c-0.1-0.1-0.2-0.1-0.3-0.2C45.5,262,45.4,261.9,45.3,261.9z"/>
<path class="st9" d="M41.7,262.1c0.1-0.1,0.3-0.1,0.5-0.1c0.1,0,0.2,0,0.3,0.1c0.1,0,0.2,0.1,0.3,0.2c0.1,0.1,0.1,0.2,0.2,0.3
	c0,0.1,0.1,0.2,0.1,0.3c0,0.2,0,0.3-0.1,0.5s-0.2,0.3-0.4,0.3c-0.2,0.1-0.3,0.1-0.5,0c-0.2,0-0.3-0.1-0.4-0.2
	c-0.1-0.1-0.2-0.3-0.2-0.4c0-0.2,0-0.3,0-0.5C41.4,262.3,41.5,262.2,41.7,262.1z"/>
<path class="st10" d="M26.1,258.6h24.7c0.3,0,0.6,0.1,0.8,0.4c0.2,0.2,0.4,0.6,0.4,0.9v5.8c0,0.3-0.1,0.7-0.4,0.9
	c-0.2,0.2-0.5,0.4-0.8,0.4H26.1c-0.3,0-0.6-0.1-0.8-0.4c-0.2-0.2-0.4-0.6-0.4-0.9v-5.8c0-0.3,0.1-0.6,0.4-0.9
	C25.5,258.8,25.8,258.6,26.1,258.6z M51.1,265.9c0.1-0.1,0.1-0.1,0.1-0.2v-5.8c0-0.1,0-0.2-0.1-0.2c-0.1-0.1-0.1-0.1-0.2-0.1H26.1
	c-0.1,0-0.2,0-0.2,0.1c-0.1,0.1-0.1,0.1-0.1,0.2v5.8c0,0.1,0,0.2,0.1,0.2c0.1,0.1,0.1,0.1,0.2,0.1h24.7C50.9,266,51,266,51.1,265.9z
	"/>
<path class="st9" d="M45.6,271c-0.4-0.2-0.9,0-1.1,0.5c-0.2,0.4,0,0.9,0.4,1.1c0.4,0.2,0.9,0,1.1-0.5C46.2,271.7,46,271.2,45.6,271z
	"/>
<path class="st9" d="M42.9,271.8c0,0.5-0.4,0.9-0.8,0.9c-0.5,0-0.8-0.4-0.8-0.9c0-0.5,0.4-0.9,0.8-0.9
	C42.6,271,42.9,271.4,42.9,271.8z"/>
<path class="st9" d="M49.1,271.8c0,0.5-0.4,0.9-0.8,0.9c-0.5,0-0.8-0.4-0.8-0.9c0-0.5,0.4-0.9,0.8-0.9
	C48.7,271,49.1,271.4,49.1,271.8z"/>
<path class="st10" d="M50.9,267.7H26.1c-0.3,0-0.6,0.1-0.8,0.4c-0.2,0.2-0.4,0.6-0.4,0.9v5.8c0,0.3,0.1,0.6,0.4,0.9
	c0.2,0.2,0.5,0.4,0.8,0.4h24.7c0.3,0,0.6-0.1,0.8-0.4c0.2-0.2,0.4-0.6,0.4-0.9v-5.8c0-0.3-0.1-0.7-0.4-0.9
	C51.5,267.8,51.2,267.7,50.9,267.7z M51.2,274.7c0,0.1,0,0.2-0.1,0.2c-0.1,0.1-0.1,0.1-0.2,0.1H26.1c-0.1,0-0.2,0-0.2-0.1
	c-0.1-0.1-0.1-0.1-0.1-0.2v-5.8c0-0.1,0-0.2,0.1-0.2c0.1-0.1,0.1-0.1,0.2-0.1h24.7c0.1,0,0.2,0,0.2,0.1c0.1,0.1,0.1,0.1,0.1,0.2
	V274.7z"/>
<radialGradient id="SVGID_5_" cx="-255.3125" cy="589.7877" r="1" gradientTransform="matrix(9.797175e-16 16 16.0237 -9.811688e-16 -9414.5566 4401)" gradientUnits="userSpaceOnUse">
	<stop  offset="0" style="stop-color:#677983"/>
	<stop  offset="1" style="stop-color:#677983;stop-opacity:0"/>
</radialGradient>
<path class="st12" d="M39.2,305.6h11.6c0.3,0,0.6,0.1,0.8,0.4c0.2,0.2,0.4,0.6,0.4,0.9c0,8,0,15.9,0,23.9c0,0.3-0.1,0.7-0.4,0.9
	c-0.2,0.2-0.5,0.4-0.8,0.4H26.1c-0.3,0-0.6-0.1-0.8-0.4c-0.2-0.2-0.4-0.6-0.4-0.9c0-6.9,0-13.8,0-20.7h-3.1c-0.5,0-0.9-0.2-1.3-0.6
	c-0.3-0.4-0.5-0.8-0.5-1.3v-6.3c0-0.2,0-0.5,0.1-0.7c0.1-0.2,0.2-0.4,0.4-0.6c0.2-0.2,0.4-0.3,0.6-0.4c0.2-0.1,0.4-0.1,0.7-0.1h15.7
	c0.5,0,0.9,0.2,1.3,0.5c0.3,0.4,0.5,0.8,0.5,1.3V305.6z"/>
<path class="st13" d="M35.2,306.2c0.1,0.3,0.3,0.5,0.5,0.5c0.2,0,0.4,0,0.6-0.3c0.3-0.3,0.5-0.7,0.6-1.2c0-0.2,0.1-0.4,0.1-0.6
	c0-0.3,0-0.5-0.1-0.7c-0.1-0.3-0.3-0.5-0.5-0.5c-0.3-0.1-0.6,0.1-0.8,0.5c-0.2,0.3-0.3,0.6-0.4,1c0,0.2-0.1,0.4-0.1,0.6
	C35.1,305.7,35.1,306,35.2,306.2z"/>
<path class="st13" d="M30.8,306.7c-0.2,0-0.3-0.2-0.5-0.5c-0.1-0.2-0.1-0.5-0.1-0.7c0-0.2,0-0.4,0.1-0.6c0.1-0.4,0.2-0.7,0.4-1
	c0.3-0.4,0.5-0.6,0.8-0.5c0.2,0,0.3,0.2,0.5,0.5c0.1,0.2,0.1,0.5,0.1,0.7c0,0.2,0,0.4-0.1,0.6c-0.1,0.5-0.3,0.9-0.6,1.2
	C31.2,306.7,31,306.8,30.8,306.7z"/>
<path class="st13" d="M48.3,310.6c0.5,0,0.8-0.4,0.8-0.9c0-0.5-0.4-0.9-0.8-0.9c-0.5,0-0.8,0.4-0.8,0.9
	C47.4,310.2,47.8,310.6,48.3,310.6z"/>
<path class="st13" d="M42.1,310.6c0.5,0,0.8-0.4,0.8-0.9c0-0.5-0.4-0.9-0.8-0.9c-0.5,0-0.8,0.4-0.8,0.9
	C41.3,310.2,41.7,310.6,42.1,310.6z"/>
<path class="st13" d="M45.6,309c0.4,0.2,0.6,0.7,0.4,1.1c-0.2,0.4-0.7,0.6-1.1,0.5c-0.4-0.2-0.6-0.7-0.4-1.1
	C44.7,309,45.2,308.8,45.6,309z"/>
<path class="st14" d="M39.2,305.6h11.6c0.3,0,0.6,0.1,0.8,0.4c0.2,0.2,0.4,0.6,0.4,0.9v5.8c0,0.3-0.1,0.7-0.4,0.9
	c-0.2,0.2-0.5,0.4-0.8,0.4H26.1c-0.3,0-0.6-0.1-0.8-0.4c-0.2-0.2-0.4-0.6-0.4-0.9V310h-3.1c-0.5,0-0.9-0.2-1.3-0.6
	c-0.3-0.4-0.5-0.8-0.5-1.3v-6.3c0-0.2,0-0.5,0.1-0.7c0.1-0.2,0.2-0.4,0.4-0.6c0.2-0.2,0.4-0.3,0.6-0.4c0.2-0.1,0.4-0.1,0.7-0.1h15.7
	c0.5,0,0.9,0.2,1.3,0.5c0.3,0.4,0.5,0.8,0.5,1.3V305.6z M36.2,302c-0.7,0-1.4,0.4-1.8,1.2c-0.4,0.7-0.6,1.5-0.6,2.3
	c0,0.6,0.1,1.2,0.4,1.6c0.1,0.2,0.3,0.5,0.5,0.6c0.2,0.2,0.5,0.3,0.7,0.3c0.1,0,0.3,0,0.4,0c0.8,0,1.4-0.4,1.8-1.2
	c0.4-0.7,0.6-1.5,0.6-2.3c0-0.6-0.1-1.2-0.4-1.6c-0.1-0.2-0.3-0.5-0.5-0.6c-0.2-0.2-0.5-0.3-0.7-0.3C36.5,302,36.4,302,36.2,302z
	 M31.8,302c-0.1,0-0.3,0-0.4,0c-0.7,0-1.4,0.4-1.8,1.2c-0.4,0.7-0.6,1.5-0.6,2.3c0,0.6,0.1,1.2,0.4,1.6c0.1,0.2,0.3,0.5,0.5,0.6
	c0.2,0.2,0.5,0.3,0.7,0.3c0.1,0,0.3,0,0.4,0c0.8,0,1.4-0.4,1.8-1.2c0.4-0.7,0.6-1.5,0.6-2.3c0-0.6-0.1-1.2-0.4-1.6
	c-0.1-0.2-0.3-0.5-0.5-0.6C32.3,302.2,32,302.1,31.8,302z M22.3,308.5c0.2,0.4,0.3,0.6,0.5,0.6c0.3,0,0.7-0.5,1.2-1.4
	c0.2-0.5,0.6-1.3,1.1-2.4c0.4,1.5,1,2.7,1.7,3.5c0.2,0.2,0.4,0.3,0.6,0.3c0.1,0,0.2,0,0.2-0.1c0.1-0.1,0.1-0.1,0.2-0.2
	c0.1-0.2,0.1-0.4,0.1-0.5c-0.1-0.7,0-1.8,0.2-3.1c0.2-1.4,0.5-2.4,0.8-3c0.1-0.1,0.1-0.3,0.1-0.4c0-0.1,0-0.2-0.1-0.3
	c0-0.1-0.1-0.1-0.2-0.2c-0.1-0.1-0.1-0.1-0.2-0.1c-0.1,0-0.2,0-0.3,0c-0.1,0-0.2,0-0.3,0.1s-0.2,0.2-0.2,0.3c-0.5,0.9-0.8,2.4-1,4.5
	c-0.3-0.8-0.5-1.7-0.7-2.8c-0.1-0.5-0.3-0.7-0.6-0.7c-0.2,0-0.4,0.2-0.6,0.5l-1.7,3.4c-0.3-1.2-0.6-2.6-0.8-4.3
	c-0.1-0.4-0.3-0.6-0.7-0.6c-0.2,0-0.4,0.1-0.5,0.3c-0.1,0.1-0.1,0.2-0.1,0.3c0,0.1,0,0.2,0,0.3C21.4,305.3,21.9,307.4,22.3,308.5z
	 M51.1,312.9c0.1-0.1,0.1-0.1,0.1-0.2v-5.8c0-0.1,0-0.2-0.1-0.2c-0.1-0.1-0.1-0.1-0.2-0.1H39.2v1.6c0,0.5-0.2,1-0.5,1.3
	c-0.3,0.4-0.8,0.6-1.3,0.6h-5.6l0.8,2l-3.4-2h-3.4v2.6c0,0.1,0,0.2,0.1,0.2c0.1,0.1,0.1,0.1,0.2,0.1h24.7
	C50.9,313,51,312.9,51.1,312.9z"/>
<path class="st13" d="M47.8,318.1c0.1-0.1,0.3-0.1,0.5-0.1c0.1,0,0.2,0,0.3,0.1c0.1,0,0.2,0.1,0.3,0.2c0.1,0.1,0.1,0.2,0.2,0.3
	c0,0.1,0.1,0.2,0.1,0.3c0,0.2,0,0.3-0.1,0.5c-0.1,0.1-0.2,0.3-0.4,0.3c-0.2,0.1-0.3,0.1-0.5,0c-0.2,0-0.3-0.1-0.4-0.2
	c-0.1-0.1-0.2-0.3-0.2-0.4c0-0.2,0-0.3,0-0.5C47.6,318.3,47.7,318.2,47.8,318.1z"/>
<path class="st13" d="M45.3,317.9c-0.2,0-0.3,0.1-0.5,0.1c-0.1,0.1-0.2,0.2-0.3,0.4s-0.1,0.3,0,0.5c0,0.2,0.1,0.3,0.2,0.4
	c0.1,0.1,0.3,0.2,0.4,0.2c0.2,0,0.3,0,0.5,0c0.2-0.1,0.3-0.2,0.4-0.3c0.1-0.1,0.1-0.3,0.1-0.5c0-0.1,0-0.2-0.1-0.3
	c0-0.1-0.1-0.2-0.2-0.3c-0.1-0.1-0.2-0.1-0.3-0.2C45.5,318,45.4,317.9,45.3,317.9z"/>
<path class="st13" d="M41.7,318.1c0.1-0.1,0.3-0.1,0.5-0.1c0.1,0,0.2,0,0.3,0.1c0.1,0,0.2,0.1,0.3,0.2c0.1,0.1,0.1,0.2,0.2,0.3
	c0,0.1,0.1,0.2,0.1,0.3c0,0.2,0,0.3-0.1,0.5s-0.2,0.3-0.4,0.3c-0.2,0.1-0.3,0.1-0.5,0c-0.2,0-0.3-0.1-0.4-0.2
	c-0.1-0.1-0.2-0.3-0.2-0.4c0-0.2,0-0.3,0-0.5C41.4,318.3,41.5,318.2,41.7,318.1z"/>
<path class="st14" d="M26.1,314.6h24.7c0.3,0,0.6,0.1,0.8,0.4c0.2,0.2,0.4,0.6,0.4,0.9v5.8c0,0.3-0.1,0.7-0.4,0.9
	c-0.2,0.2-0.5,0.4-0.8,0.4H26.1c-0.3,0-0.6-0.1-0.8-0.4c-0.2-0.2-0.4-0.6-0.4-0.9v-5.8c0-0.3,0.1-0.6,0.4-0.9
	C25.5,314.8,25.8,314.6,26.1,314.6z M51.1,321.9c0.1-0.1,0.1-0.1,0.1-0.2v-5.8c0-0.1,0-0.2-0.1-0.2c-0.1-0.1-0.1-0.1-0.2-0.1H26.1
	c-0.1,0-0.2,0-0.2,0.1c-0.1,0.1-0.1,0.1-0.1,0.2v5.8c0,0.1,0,0.2,0.1,0.2c0.1,0.1,0.1,0.1,0.2,0.1h24.7C50.9,322,51,322,51.1,321.9z
	"/>
<path class="st13" d="M45.6,327c-0.4-0.2-0.9,0-1.1,0.5c-0.2,0.4,0,0.9,0.4,1.1c0.4,0.2,0.9,0,1.1-0.5C46.2,327.7,46,327.2,45.6,327
	z"/>
<path class="st13" d="M42.9,327.8c0,0.5-0.4,0.9-0.8,0.9c-0.5,0-0.8-0.4-0.8-0.9c0-0.5,0.4-0.9,0.8-0.9
	C42.6,327,42.9,327.4,42.9,327.8z"/>
<path class="st13" d="M49.1,327.8c0,0.5-0.4,0.9-0.8,0.9c-0.5,0-0.8-0.4-0.8-0.9c0-0.5,0.4-0.9,0.8-0.9
	C48.7,327,49.1,327.4,49.1,327.8z"/>
<path class="st14" d="M50.9,323.7H26.1c-0.3,0-0.6,0.1-0.8,0.4c-0.2,0.2-0.4,0.6-0.4,0.9v5.8c0,0.3,0.1,0.6,0.4,0.9
	c0.2,0.2,0.5,0.4,0.8,0.4h24.7c0.3,0,0.6-0.1,0.8-0.4c0.2-0.2,0.4-0.6,0.4-0.9v-5.8c0-0.3-0.1-0.7-0.4-0.9
	C51.5,323.8,51.2,323.7,50.9,323.7z M51.2,330.7c0,0.1,0,0.2-0.1,0.2c-0.1,0.1-0.1,0.1-0.2,0.1H26.1c-0.1,0-0.2,0-0.2-0.1
	c-0.1-0.1-0.1-0.1-0.1-0.2v-5.8c0-0.1,0-0.2,0.1-0.2c0.1-0.1,0.1-0.1,0.2-0.1h24.7c0.1,0,0.2,0,0.2,0.1c0.1,0.1,0.1,0.1,0.1,0.2
	V330.7z"/>
</svg>
