<?xml version="1.0" encoding="utf-8"?>
<!-- Generator: Adobe Illustrator 25.2.1, SVG Export Plug-In . SVG Version: 6.00 Build 0)  -->
<svg version="1.1" id="Layer_1" xmlns="http://www.w3.org/2000/svg" xmlns:xlink="http://www.w3.org/1999/xlink" x="0px" y="0px"
	 viewBox="0 0 72 352" style="enable-background:new 0 0 72 352;" xml:space="preserve">
<style type="text/css">
	.st0{fill-rule:evenodd;clip-rule:evenodd;fill:url(#SVGID_1_);fill-opacity:0.25;}
	.st1{fill:#0073EC;}
	.st2{fill-rule:evenodd;clip-rule:evenodd;fill:url(#SVGID_2_);fill-opacity:0.25;}
	.st3{fill:#A644E5;}
	.st4{fill-rule:evenodd;clip-rule:evenodd;fill:url(#SVGID_3_);fill-opacity:0.25;}
	.st5{fill:#00CAAA;}
	.st6{fill:#434F58;}
	.st7{fill-rule:evenodd;clip-rule:evenodd;fill:url(#SVGID_4_);fill-opacity:0.25;}
	.st8{fill-rule:evenodd;clip-rule:evenodd;fill:url(#SVGID_5_);fill-opacity:0.25;}
	.st9{fill:#677983;}
</style>
<radialGradient id="SVGID_1_" cx="-250.4241" cy="592.2143" r="1" gradientTransform="matrix(7.218987e-16 11.7895 14 -8.572528e-16 -8255 2988.165)" gradientUnits="userSpaceOnUse">
	<stop  offset="0" style="stop-color:#0073EC"/>
	<stop  offset="1" style="stop-color:#0073EC;stop-opacity:0"/>
</radialGradient>
<path class="st0" d="M22,24.4c0-0.1,0-0.1,0-0.2c0-0.1,0.1-0.1,0.1-0.1c0,0,0.1-0.1,0.1-0.1c0.1,0,0.1,0,0.2,0h25.2
	c0.1,0,0.1,0,0.2,0c0.1,0,0.1,0.1,0.1,0.1c0,0,0.1,0.1,0.1,0.1c0,0.1,0,0.1,0,0.2l0.1,8.9c0,0,0,0.1,0,0.1h0.3c0.4,0,0.8,0.2,1,0.4
	s0.4,0.6,0.4,1v0.3c0,0,0,0.1,0,0.1c0,0.1,0.1,0.3,0.1,0.4v6.3c0,0.1,0,0.2,0,0.3v0.3c0,0.4-0.2,0.8-0.4,1c-0.3,0.3-0.6,0.4-1,0.4
	h-0.3l-0.1,3c0,0.1,0,0.1,0,0.2c0,0.1-0.1,0.1-0.1,0.1c0,0-0.1,0.1-0.1,0.1c-0.1,0-0.1,0-0.2,0H22.4c-0.1,0-0.2,0-0.3-0.1
	c-0.1-0.1-0.1-0.2-0.1-0.3v-3.6h0L22,24.4z"/>
<path class="st1" d="M26.9,25.6c-0.1,0-0.2,0-0.2,0.1s-0.1,0.1-0.2,0.2c0,0.1,0,0.2,0,0.3s0.1,0.2,0.1,0.2c0.1,0.1,0.1,0.1,0.2,0.1
	c0.1,0,0.2,0,0.3,0c0.1,0,0.1-0.1,0.2-0.2c0-0.1,0.1-0.2,0.1-0.2c0-0.1,0-0.2-0.1-0.3C27.1,25.7,27,25.6,26.9,25.6z"/>
<path class="st1" d="M29.2,25.6c-0.1,0-0.1,0-0.2,0c-0.1,0-0.1,0.1-0.1,0.1c0,0-0.1,0.1-0.1,0.1c0,0.1,0,0.1,0,0.2
	c0,0.1,0,0.2,0.1,0.2c0,0.1,0.1,0.1,0.2,0.2c0.1,0,0.2,0,0.3,0s0.2-0.1,0.2-0.1c0.1-0.1,0.1-0.1,0.1-0.2c0-0.1,0-0.2,0-0.3
	c0-0.1-0.1-0.1-0.2-0.2C29.4,25.7,29.3,25.6,29.2,25.6z"/>
<path class="st1" d="M24.6,25.6c-0.1,0-0.1,0-0.2,0c-0.1,0-0.1,0.1-0.1,0.1c0,0-0.1,0.1-0.1,0.1c0,0.1,0,0.1,0,0.2
	c0,0.1,0,0.2,0.1,0.2c0,0.1,0.1,0.1,0.2,0.2s0.2,0,0.3,0c0.1,0,0.2-0.1,0.2-0.1c0.1-0.1,0.1-0.1,0.1-0.2c0-0.1,0-0.2,0-0.3
	c0-0.1-0.1-0.1-0.2-0.2C24.8,25.7,24.7,25.6,24.6,25.6z"/>
<path class="st1" d="M22.4,41.5c0.1,0,0.1,0,0.2,0c0.1,0,0.1,0,0.2-0.1c0,0,0.1-0.1,0.1-0.1c0-0.1,0-0.1,0-0.2V28.2h24.4v4.3
	c0,0.1,0,0.2,0.1,0.3c0.1,0.1,0.2,0.1,0.3,0.1c0.1,0,0.1,0,0.2,0c0.1,0,0.1,0,0.1-0.1c0,0,0.1-0.1,0.1-0.1c0-0.1,0-0.1,0-0.2l0-8
	c0-0.1,0-0.1,0-0.2c0-0.1-0.1-0.1-0.1-0.1c0,0-0.1-0.1-0.1-0.1c-0.1,0-0.1,0-0.2,0H22.4c-0.1,0-0.1,0-0.2,0c-0.1,0-0.1,0.1-0.1,0.1
	c0,0-0.1,0.1-0.1,0.1c0,0.1,0,0.1,0,0.2V41c0,0.1,0,0.2,0.1,0.3C22.2,41.4,22.3,41.5,22.4,41.5z M31.8,24.8h15.4v2.5H31.8V24.8z
	 M22.8,24.8H31v2.5h-8.2L22.8,24.8z"/>
<path class="st1" d="M35,41.6H25c0,0-0.1,0-0.1,0c0,0-0.1,0-0.1,0.1c0,0-0.1,0.1-0.1,0.1c0,0,0,0.1,0,0.1s0,0.1,0,0.1
	c0,0,0,0.1,0.1,0.1c0,0,0.1,0.1,0.1,0.1c0,0,0.1,0,0.1,0H35c0,0,0.1,0,0.1,0c0,0,0.1,0,0.1-0.1c0,0,0.1-0.1,0.1-0.1c0,0,0-0.1,0-0.1
	s0-0.1,0-0.1c0,0,0-0.1-0.1-0.1c0,0-0.1-0.1-0.1-0.1C35.1,41.6,35.1,41.6,35,41.6z"/>
<path class="st1" d="M35,43.9H25c-0.1,0-0.2,0-0.3,0.1s-0.1,0.2-0.1,0.3s0,0.2,0.1,0.3c0.1,0.1,0.2,0.1,0.3,0.1H35
	c0.1,0,0.2,0,0.3-0.1c0.1-0.1,0.1-0.2,0.1-0.3s0-0.2-0.1-0.3S35.1,43.9,35,43.9z"/>
<path class="st1" d="M41.3,41.8c0,0.1,0,0.1,0,0.2c0,0,0,0.1,0.1,0.1c0,0,0.1,0.1,0.1,0.1c0,0,0.1,0,0.2,0H46c0.1,0,0.1,0,0.2,0
	c0,0,0.1,0,0.1-0.1c0,0,0.1-0.1,0.1-0.1c0,0,0-0.1,0-0.2v-2.1c0-0.1,0-0.1,0-0.2c0,0,0-0.1-0.1-0.1s-0.1-0.1-0.1-0.1
	c0,0-0.1,0-0.2,0h-4.3c-0.1,0-0.1,0-0.2,0c0,0-0.1,0-0.1,0.1s-0.1,0.1-0.1,0.1c0,0,0,0.1,0,0.2V41.8z"/>
<path class="st1" d="M44.3,38.3c0.1,0,0.2,0,0.2-0.1c0.1-0.1,0.1-0.2,0.1-0.2v-2.2c0-0.1,0-0.2-0.1-0.2c-0.1-0.1-0.2-0.1-0.2-0.1
	h-2.7c0,0-0.1,0-0.1,0c0,0-0.1,0-0.1,0.1c0,0-0.1,0.1-0.1,0.1c0,0,0,0.1,0,0.1v2.2c0,0.1,0,0.2,0.1,0.2c0.1,0.1,0.2,0.1,0.2,0.1
	H44.3z"/>
<path class="st1" d="M49.6,35.6c0.1,0,0.2,0,0.3-0.1c0.1-0.1,0.1-0.2,0.1-0.3v-0.3c0-0.4-0.2-0.8-0.4-1s-0.6-0.4-1-0.4h-7.8
	c-0.4,0-0.8,0.2-1,0.4c-0.3,0.3-0.4,0.6-0.4,1v7.8c0,0.4,0.2,0.8,0.4,1c0.3,0.3,0.6,0.4,1,0.4h7.8c0.4,0,0.8-0.2,1-0.4
	c0.3-0.3,0.4-0.6,0.4-1v-3.8c0-0.4-0.2-0.8-0.4-1c-0.3-0.3-0.6-0.4-1-0.4h-1.6c-0.1,0-0.1,0-0.2,0c0,0-0.1,0-0.1,0.1
	c0,0-0.1,0.1-0.1,0.1c0,0,0,0.1,0,0.2c0,0.1,0,0.1,0,0.2c0,0,0.1,0.1,0.1,0.1c0,0,0.1,0.1,0.1,0.1c0,0,0.1,0,0.2,0h1.6
	c0.1,0,0.2,0,0.3,0.1c0.1,0,0.2,0.1,0.2,0.1c0.1,0.1,0.1,0.1,0.1,0.2c0,0.1,0.1,0.2,0.1,0.3v3.8c0,0.2-0.1,0.4-0.2,0.5
	c-0.1,0.1-0.3,0.2-0.5,0.2h-7.8c-0.2,0-0.4-0.1-0.5-0.2C40,43,40,42.9,40,42.7v-7.8c0-0.2,0.1-0.4,0.2-0.5s0.3-0.2,0.5-0.2h7.8
	c0.2,0,0.4,0.1,0.5,0.2c0.1,0.1,0.2,0.3,0.2,0.5v0.3c0,0.1,0,0.2,0.1,0.3S49.5,35.6,49.6,35.6z"/>
<path class="st1" d="M47.6,45.2c-0.1,0-0.2,0.1-0.3,0.1c-0.1,0.1-0.1,0.2-0.1,0.3v1.1H22.8v-4c0-0.1,0-0.2-0.1-0.3
	c-0.1-0.1-0.2-0.1-0.3-0.1c-0.1,0-0.1,0-0.2,0c-0.1,0-0.1,0-0.2,0.1c0,0-0.1,0.1-0.1,0.1c0,0.1,0,0.1,0,0.2v4.4c0,0.1,0,0.2,0.1,0.3
	c0.1,0.1,0.2,0.1,0.3,0.1h25.2c0.1,0,0.1,0,0.2,0c0.1,0,0.1-0.1,0.1-0.1c0,0,0.1-0.1,0.1-0.1c0-0.1,0-0.1,0-0.2v-1.5
	c0-0.1,0-0.1,0-0.2c0-0.1-0.1-0.1-0.1-0.1c0,0-0.1-0.1-0.2-0.1C47.7,45.2,47.7,45.2,47.6,45.2z"/>
<path class="st1" d="M32.6,36.7c0.1-0.3,0.2-0.5,0.2-0.7c0.1-0.2,0.1-0.4,0.2-0.5c0.1-0.3,0.1-0.6,0.1-0.9c0-0.2-0.1-0.5-0.2-0.7
	c-0.1-0.1-0.1-0.3-0.2-0.4c-0.1-0.2-0.2-0.3-0.3-0.5c-0.1-0.2-0.1-0.3-0.2-0.5c0-0.2,0-0.3,0.1-0.5c0.1-0.2,0.2-0.3,0.4-0.4
	c0.1-0.1,0.3-0.1,0.4-0.1c-0.4-0.4-0.9-0.7-1.4-0.9c-0.6-0.3-1.3-0.4-2-0.3c-0.7,0-1.4,0.2-2,0.6c-0.7,0.4-1.2,0.9-1.7,1.5
	c0.2,0,0.4,0,0.7,0c0.3,0,0.6,0,0.8-0.1c0.1,0,0.1,0,0.1,0.1c0,0,0.1,0.1,0.1,0.1c0,0.1,0,0.2-0.2,0.2c-0.1,0-0.2,0-0.3,0
	c-0.1,0-0.2,0-0.3,0l1.7,5l1-3l-0.7-2c-0.2,0-0.3,0-0.4,0c-0.1,0-0.1,0-0.1,0c0,0-0.1,0-0.1-0.1c0,0,0,0,0-0.1c0,0,0,0,0-0.1
	c0,0,0-0.1,0.1-0.1c0,0,0,0,0.1,0c0,0,0,0,0.1,0l0.2,0l0.5,0c0.3,0,0.5,0,0.8,0c0.2,0,0.5-0.1,1-0.1c0.1,0,0.1,0,0.1,0.1
	c0,0,0.1,0.1,0.1,0.1c0,0.1,0,0.2-0.2,0.2c-0.1,0-0.2,0-0.3,0c-0.1,0-0.2,0-0.3,0l1.7,5C32.4,37.4,32.5,37,32.6,36.7z"/>
<path class="st1" d="M28.6,39.5c0.2,0.1,0.4,0.1,0.6,0.1c0.7,0.1,1.5,0,2.2-0.2l-1.5-4L28.6,39.5z"/>
<path class="st1" d="M35,32.9c-0.3-0.7-0.7-1.2-1.2-1.7c-0.5-0.5-1.1-0.9-1.8-1.2c-0.7-0.3-1.4-0.4-2.1-0.4c-0.7,0-1.5,0.1-2.1,0.4
	c-1.3,0.6-2.4,1.6-2.9,2.9c-0.3,0.7-0.4,1.4-0.4,2.1c0,0.7,0.1,1.5,0.4,2.1c0.3,0.7,0.7,1.2,1.2,1.8c0.5,0.5,1.1,0.9,1.7,1.2
	c0.7,0.3,1.4,0.4,2.1,0.4c0.7,0,1.5-0.1,2.1-0.4c1.3-0.6,2.4-1.6,2.9-2.9c0.3-0.7,0.4-1.4,0.4-2.1C35.4,34.3,35.3,33.6,35,32.9
	L35,32.9z M34.6,37c-0.5,1.2-1.5,2.2-2.7,2.7c-0.6,0.3-1.3,0.4-2,0.4c-0.7,0-1.4-0.1-2-0.4c-1.2-0.5-2.2-1.5-2.7-2.7
	c-0.3-0.6-0.4-1.3-0.4-2c0-0.7,0.1-1.4,0.4-2c0.3-0.6,0.6-1.2,1.1-1.6c0.5-0.5,1-0.8,1.6-1.1c0.6-0.3,1.3-0.4,2-0.4
	c0.7,0,1.4,0.1,2,0.4c0.6,0.3,1.2,0.6,1.6,1.1c0.5,0.5,0.8,1,1.1,1.6c0.3,0.6,0.4,1.3,0.4,2C35,35.7,34.9,36.4,34.6,37L34.6,37z"/>
<path class="st1" d="M34.1,33.1c0,0.1,0,0.2,0,0.3c0,0.4-0.1,0.8-0.3,1.2c-0.1,0.4-0.2,0.7-0.4,1.1c-0.1,0.1-0.1,0.4-0.2,0.7
	c-0.1,0.3-0.2,0.7-0.4,1c-0.1,0.4-0.2,0.7-0.4,1c-0.1,0.3-0.2,0.5-0.2,0.7c0.4-0.2,0.7-0.4,1-0.7c0.3-0.3,0.5-0.6,0.7-1
	c0.2-0.4,0.4-0.7,0.5-1.1c0.3-1.1,0.2-2.4-0.4-3.4C34.1,33,34.1,33,34.1,33.1z"/>
<path class="st1" d="M25.3,35c0,0.4,0.1,0.9,0.2,1.3c0.1,0.4,0.3,0.8,0.5,1.2c0.2,0.4,0.5,0.7,0.8,1c0.3,0.3,0.7,0.5,1.1,0.7
	l-2.2-6.1C25.4,33.8,25.3,34.4,25.3,35z"/>
<g>
	
		<radialGradient id="SVGID_2_" cx="-250.4241" cy="592.2143" r="1" gradientTransform="matrix(7.218987e-16 11.7895 14 -8.572528e-16 -8255 3044.165)" gradientUnits="userSpaceOnUse">
		<stop  offset="0" style="stop-color:#A644E5"/>
		<stop  offset="1" style="stop-color:#A644E5;stop-opacity:0"/>
	</radialGradient>
	<path class="st2" d="M22,80.4c0-0.1,0-0.1,0-0.2c0-0.1,0.1-0.1,0.1-0.1c0,0,0.1-0.1,0.1-0.1c0.1,0,0.1,0,0.2,0h25.2
		c0.1,0,0.1,0,0.2,0c0.1,0,0.1,0.1,0.1,0.1c0,0,0.1,0.1,0.1,0.1c0,0.1,0,0.1,0,0.2l0.1,8.9c0,0,0,0.1,0,0.1h0.3c0.4,0,0.8,0.2,1,0.4
		c0.3,0.3,0.4,0.6,0.4,1v0.3c0,0,0,0.1,0,0.1c0,0.1,0.1,0.3,0.1,0.4v6.3c0,0.1,0,0.2,0,0.3v0.3c0,0.4-0.2,0.8-0.4,1
		c-0.3,0.3-0.6,0.4-1,0.4h-0.3l-0.1,3c0,0.1,0,0.1,0,0.2c0,0.1-0.1,0.1-0.1,0.1c0,0-0.1,0.1-0.1,0.1c-0.1,0-0.1,0-0.2,0H22.4
		c-0.1,0-0.2,0-0.3-0.1c-0.1-0.1-0.1-0.2-0.1-0.3v-3.6h0L22,80.4z"/>
</g>
<path class="st3" d="M26.9,81.6c-0.1,0-0.2,0-0.2,0.1s-0.1,0.1-0.2,0.2c0,0.1,0,0.2,0,0.3s0.1,0.2,0.1,0.2c0.1,0.1,0.1,0.1,0.2,0.1
	c0.1,0,0.2,0,0.3,0c0.1,0,0.1-0.1,0.2-0.2c0-0.1,0.1-0.2,0.1-0.2c0-0.1,0-0.2-0.1-0.3C27.1,81.7,27,81.6,26.9,81.6z"/>
<path class="st3" d="M29.2,81.6c-0.1,0-0.1,0-0.2,0c-0.1,0-0.1,0.1-0.1,0.1c0,0-0.1,0.1-0.1,0.1c0,0.1,0,0.1,0,0.2
	c0,0.1,0,0.2,0.1,0.2c0,0.1,0.1,0.1,0.2,0.2c0.1,0,0.2,0,0.3,0c0.1,0,0.2-0.1,0.2-0.1c0.1-0.1,0.1-0.1,0.1-0.2c0-0.1,0-0.2,0-0.3
	c0-0.1-0.1-0.1-0.2-0.2C29.4,81.7,29.3,81.6,29.2,81.6z"/>
<path class="st3" d="M24.6,81.6c-0.1,0-0.1,0-0.2,0c-0.1,0-0.1,0.1-0.1,0.1c0,0-0.1,0.1-0.1,0.1c0,0.1,0,0.1,0,0.2
	c0,0.1,0,0.2,0.1,0.2c0,0.1,0.1,0.1,0.2,0.2c0.1,0,0.2,0,0.3,0c0.1,0,0.2-0.1,0.2-0.1c0.1-0.1,0.1-0.1,0.1-0.2c0-0.1,0-0.2,0-0.3
	c0-0.1-0.1-0.1-0.2-0.2C24.8,81.7,24.7,81.6,24.6,81.6z"/>
<path class="st3" d="M22.4,97.5c0.1,0,0.1,0,0.2,0c0.1,0,0.1,0,0.2-0.1c0,0,0.1-0.1,0.1-0.1c0-0.1,0-0.1,0-0.2V84.2h24.4v4.3
	c0,0.1,0,0.2,0.1,0.3c0.1,0.1,0.2,0.1,0.3,0.1c0.1,0,0.1,0,0.2,0c0.1,0,0.1,0,0.1-0.1c0,0,0.1-0.1,0.1-0.1c0-0.1,0-0.1,0-0.2l0-8
	c0-0.1,0-0.1,0-0.2c0-0.1-0.1-0.1-0.1-0.1c0,0-0.1-0.1-0.1-0.1c-0.1,0-0.1,0-0.2,0H22.4c-0.1,0-0.1,0-0.2,0c-0.1,0-0.1,0.1-0.1,0.1
	c0,0-0.1,0.1-0.1,0.1c0,0.1,0,0.1,0,0.2V97c0,0.1,0,0.2,0.1,0.3C22.2,97.4,22.3,97.5,22.4,97.5z M31.8,80.8h15.4v2.5H31.8V80.8z
	 M22.8,80.8H31v2.5h-8.2L22.8,80.8z"/>
<path class="st3" d="M35,97.6H25c0,0-0.1,0-0.1,0c0,0-0.1,0-0.1,0.1c0,0-0.1,0.1-0.1,0.1c0,0,0,0.1,0,0.1c0,0,0,0.1,0,0.1
	c0,0,0,0.1,0.1,0.1c0,0,0.1,0.1,0.1,0.1c0,0,0.1,0,0.1,0H35c0,0,0.1,0,0.1,0c0,0,0.1,0,0.1-0.1c0,0,0.1-0.1,0.1-0.1c0,0,0-0.1,0-0.1
	c0,0,0-0.1,0-0.1c0,0,0-0.1-0.1-0.1c0,0-0.1-0.1-0.1-0.1C35.1,97.6,35.1,97.6,35,97.6z"/>
<path class="st3" d="M35,99.9H25c-0.1,0-0.2,0-0.3,0.1c-0.1,0.1-0.1,0.2-0.1,0.3c0,0.1,0,0.2,0.1,0.3c0.1,0.1,0.2,0.1,0.3,0.1H35
	c0.1,0,0.2,0,0.3-0.1c0.1-0.1,0.1-0.2,0.1-0.3c0-0.1,0-0.2-0.1-0.3C35.2,99.9,35.1,99.9,35,99.9z"/>
<path class="st3" d="M41.3,97.8c0,0.1,0,0.1,0,0.2c0,0,0,0.1,0.1,0.1c0,0,0.1,0.1,0.1,0.1c0,0,0.1,0,0.2,0H46c0.1,0,0.1,0,0.2,0
	c0,0,0.1,0,0.1-0.1s0.1-0.1,0.1-0.1c0,0,0-0.1,0-0.2v-2.1c0-0.1,0-0.1,0-0.2c0,0,0-0.1-0.1-0.1s-0.1-0.1-0.1-0.1c0,0-0.1,0-0.2,0
	h-4.3c-0.1,0-0.1,0-0.2,0c0,0-0.1,0-0.1,0.1c0,0-0.1,0.1-0.1,0.1c0,0,0,0.1,0,0.2V97.8z"/>
<path class="st3" d="M44.3,94.3c0.1,0,0.2,0,0.2-0.1c0.1-0.1,0.1-0.2,0.1-0.2v-2.2c0-0.1,0-0.2-0.1-0.2c-0.1-0.1-0.2-0.1-0.2-0.1
	h-2.7c0,0-0.1,0-0.1,0c0,0-0.1,0-0.1,0.1c0,0-0.1,0.1-0.1,0.1c0,0,0,0.1,0,0.1v2.2c0,0.1,0,0.2,0.1,0.2c0.1,0.1,0.2,0.1,0.2,0.1
	H44.3z"/>
<path class="st3" d="M49.6,91.6c0.1,0,0.2,0,0.3-0.1c0.1-0.1,0.1-0.2,0.1-0.3v-0.3c0-0.4-0.2-0.8-0.4-1c-0.3-0.3-0.6-0.4-1-0.4h-7.8
	c-0.4,0-0.8,0.2-1,0.4c-0.3,0.3-0.4,0.6-0.4,1v7.8c0,0.4,0.2,0.8,0.4,1c0.3,0.3,0.6,0.4,1,0.4h7.8c0.4,0,0.8-0.2,1-0.4
	c0.3-0.3,0.4-0.6,0.4-1v-3.8c0-0.4-0.2-0.8-0.4-1c-0.3-0.3-0.6-0.4-1-0.4h-1.6c-0.1,0-0.1,0-0.2,0c0,0-0.1,0-0.1,0.1
	c0,0-0.1,0.1-0.1,0.1c0,0,0,0.1,0,0.2c0,0.1,0,0.1,0,0.2c0,0,0.1,0.1,0.1,0.1c0,0,0.1,0.1,0.1,0.1c0,0,0.1,0,0.2,0h1.6
	c0.1,0,0.2,0,0.3,0.1c0.1,0,0.2,0.1,0.2,0.1c0.1,0.1,0.1,0.1,0.1,0.2c0,0.1,0.1,0.2,0.1,0.3v3.8c0,0.2-0.1,0.4-0.2,0.5
	c-0.1,0.1-0.3,0.2-0.5,0.2h-7.8c-0.2,0-0.4-0.1-0.5-0.2S40,98.9,40,98.7v-7.8c0-0.2,0.1-0.4,0.2-0.5s0.3-0.2,0.5-0.2h7.8
	c0.2,0,0.4,0.1,0.5,0.2c0.1,0.1,0.2,0.3,0.2,0.5v0.3c0,0.1,0,0.2,0.1,0.3C49.4,91.5,49.5,91.6,49.6,91.6z"/>
<path class="st3" d="M47.6,101.2c-0.1,0-0.2,0.1-0.3,0.1c-0.1,0.1-0.1,0.2-0.1,0.3v1.1H22.8v-4c0-0.1,0-0.2-0.1-0.3
	c-0.1-0.1-0.2-0.1-0.3-0.1c-0.1,0-0.1,0-0.2,0c-0.1,0-0.1,0-0.2,0.1c0,0-0.1,0.1-0.1,0.1c0,0.1,0,0.1,0,0.2v4.4c0,0.1,0,0.2,0.1,0.3
	c0.1,0.1,0.2,0.1,0.3,0.1h25.2c0.1,0,0.1,0,0.2,0c0.1,0,0.1-0.1,0.1-0.1c0,0,0.1-0.1,0.1-0.1c0-0.1,0-0.1,0-0.2v-1.5
	c0-0.1,0-0.1,0-0.2c0-0.1-0.1-0.1-0.1-0.1c0,0-0.1-0.1-0.2-0.1C47.7,101.2,47.7,101.2,47.6,101.2z"/>
<path class="st3" d="M32.6,92.7c0.1-0.3,0.2-0.5,0.2-0.7c0.1-0.2,0.1-0.4,0.2-0.5c0.1-0.3,0.1-0.6,0.1-0.9c0-0.2-0.1-0.5-0.2-0.7
	c-0.1-0.1-0.1-0.3-0.2-0.4c-0.1-0.2-0.2-0.3-0.3-0.5c-0.1-0.2-0.1-0.3-0.2-0.5c0-0.2,0-0.3,0.1-0.5c0.1-0.2,0.2-0.3,0.4-0.4
	c0.1-0.1,0.3-0.1,0.4-0.1c-0.4-0.4-0.9-0.7-1.4-0.9c-0.6-0.3-1.3-0.4-2-0.3c-0.7,0-1.4,0.2-2,0.6c-0.7,0.4-1.2,0.9-1.7,1.5
	c0.2,0,0.4,0,0.7,0c0.3,0,0.6,0,0.8-0.1c0.1,0,0.1,0,0.1,0.1c0,0,0.1,0.1,0.1,0.1c0,0.1,0,0.2-0.2,0.2c-0.1,0-0.2,0-0.3,0
	c-0.1,0-0.2,0-0.3,0l1.7,5l1-3l-0.7-2c-0.2,0-0.3,0-0.4,0c-0.1,0-0.1,0-0.1,0c0,0-0.1,0-0.1-0.1c0,0,0,0,0-0.1c0,0,0,0,0-0.1
	c0,0,0-0.1,0.1-0.1c0,0,0,0,0.1,0c0,0,0,0,0.1,0l0.2,0l0.5,0c0.3,0,0.5,0,0.8,0c0.2,0,0.5-0.1,1-0.1c0.1,0,0.1,0,0.1,0.1
	c0,0,0.1,0.1,0.1,0.1c0,0.1,0,0.2-0.2,0.2c-0.1,0-0.2,0-0.3,0c-0.1,0-0.2,0-0.3,0l1.7,5C32.4,93.4,32.5,93,32.6,92.7z"/>
<path class="st3" d="M28.6,95.5c0.2,0.1,0.4,0.1,0.6,0.1c0.7,0.1,1.5,0,2.2-0.2l-1.5-4L28.6,95.5z"/>
<path class="st3" d="M35,88.9c-0.3-0.7-0.7-1.2-1.2-1.7c-0.5-0.5-1.1-0.9-1.8-1.2c-0.7-0.3-1.4-0.4-2.1-0.4c-0.7,0-1.5,0.1-2.1,0.4
	c-1.3,0.6-2.4,1.6-2.9,2.9c-0.3,0.7-0.4,1.4-0.4,2.1c0,0.7,0.1,1.5,0.4,2.1c0.3,0.7,0.7,1.2,1.2,1.8c0.5,0.5,1.1,0.9,1.7,1.2
	c0.7,0.3,1.4,0.4,2.1,0.4c0.7,0,1.5-0.1,2.1-0.4c1.3-0.6,2.4-1.6,2.9-2.9c0.3-0.7,0.4-1.4,0.4-2.1C35.4,90.3,35.3,89.6,35,88.9
	L35,88.9z M34.6,93c-0.5,1.2-1.5,2.2-2.7,2.7c-0.6,0.3-1.3,0.4-2,0.4c-0.7,0-1.4-0.1-2-0.4c-1.2-0.5-2.2-1.5-2.7-2.7
	c-0.3-0.6-0.4-1.3-0.4-2c0-0.7,0.1-1.4,0.4-2c0.3-0.6,0.6-1.2,1.1-1.6c0.5-0.5,1-0.8,1.6-1.1c0.6-0.3,1.3-0.4,2-0.4
	c0.7,0,1.4,0.1,2,0.4c0.6,0.3,1.2,0.6,1.6,1.1c0.5,0.5,0.8,1,1.1,1.6c0.3,0.6,0.4,1.3,0.4,2C35,91.7,34.9,92.4,34.6,93L34.6,93z"/>
<path class="st3" d="M34.1,89.1c0,0.1,0,0.2,0,0.3c0,0.4-0.1,0.8-0.3,1.2c-0.1,0.4-0.2,0.7-0.4,1.1c-0.1,0.1-0.1,0.4-0.2,0.7
	c-0.1,0.3-0.2,0.7-0.4,1c-0.1,0.4-0.2,0.7-0.4,1c-0.1,0.3-0.2,0.5-0.2,0.7c0.4-0.2,0.7-0.4,1-0.7c0.3-0.3,0.5-0.6,0.7-1
	c0.2-0.4,0.4-0.7,0.5-1.1c0.3-1.1,0.2-2.4-0.4-3.4C34.1,89,34.1,89,34.1,89.1z"/>
<path class="st3" d="M25.3,91c0,0.4,0.1,0.9,0.2,1.3c0.1,0.4,0.3,0.8,0.5,1.2c0.2,0.4,0.5,0.7,0.8,1c0.3,0.3,0.7,0.5,1.1,0.7
	l-2.2-6.1C25.4,89.8,25.3,90.4,25.3,91z"/>
<g>
	
		<radialGradient id="SVGID_3_" cx="-250.4241" cy="592.2143" r="1" gradientTransform="matrix(7.218987e-16 11.7895 14 -8.572528e-16 -8255 3100.1646)" gradientUnits="userSpaceOnUse">
		<stop  offset="0" style="stop-color:#00CAAA"/>
		<stop  offset="1" style="stop-color:#00CAAA;stop-opacity:0"/>
	</radialGradient>
	<path class="st4" d="M22,136.4c0-0.1,0-0.1,0-0.2c0-0.1,0.1-0.1,0.1-0.1c0,0,0.1-0.1,0.1-0.1c0.1,0,0.1,0,0.2,0h25.2
		c0.1,0,0.1,0,0.2,0c0.1,0,0.1,0.1,0.1,0.1c0,0,0.1,0.1,0.1,0.1c0,0.1,0,0.1,0,0.2l0.1,8.9c0,0,0,0.1,0,0.1h0.3c0.4,0,0.8,0.2,1,0.4
		s0.4,0.6,0.4,1v0.3c0,0,0,0.1,0,0.1c0,0.1,0.1,0.3,0.1,0.4v6.3c0,0.1,0,0.2,0,0.3v0.3c0,0.4-0.2,0.8-0.4,1c-0.3,0.3-0.6,0.4-1,0.4
		h-0.3l-0.1,3c0,0.1,0,0.1,0,0.2c0,0.1-0.1,0.1-0.1,0.1c0,0-0.1,0.1-0.1,0.1s-0.1,0-0.2,0H22.4c-0.1,0-0.2,0-0.3-0.1
		c-0.1-0.1-0.1-0.2-0.1-0.3v-3.6h0L22,136.4z"/>
</g>
<path class="st5" d="M26.9,137.6c-0.1,0-0.2,0-0.2,0.1c-0.1,0-0.1,0.1-0.2,0.2c0,0.1,0,0.2,0,0.3c0,0.1,0.1,0.2,0.1,0.2
	c0.1,0.1,0.1,0.1,0.2,0.1s0.2,0,0.3,0c0.1,0,0.1-0.1,0.2-0.2c0-0.1,0.1-0.2,0.1-0.2c0-0.1,0-0.2-0.1-0.3
	C27.1,137.7,27,137.6,26.9,137.6z"/>
<path class="st5" d="M29.2,137.6c-0.1,0-0.1,0-0.2,0c-0.1,0-0.1,0.1-0.1,0.1c0,0-0.1,0.1-0.1,0.1c0,0.1,0,0.1,0,0.2
	c0,0.1,0,0.2,0.1,0.2c0,0.1,0.1,0.1,0.2,0.2c0.1,0,0.2,0,0.3,0s0.2-0.1,0.2-0.1c0.1-0.1,0.1-0.1,0.1-0.2c0-0.1,0-0.2,0-0.3
	c0-0.1-0.1-0.1-0.2-0.2C29.4,137.7,29.3,137.6,29.2,137.6z"/>
<path class="st5" d="M24.6,137.6c-0.1,0-0.1,0-0.2,0c-0.1,0-0.1,0.1-0.1,0.1c0,0-0.1,0.1-0.1,0.1c0,0.1,0,0.1,0,0.2
	c0,0.1,0,0.2,0.1,0.2c0,0.1,0.1,0.1,0.2,0.2c0.1,0,0.2,0,0.3,0c0.1,0,0.2-0.1,0.2-0.1c0.1-0.1,0.1-0.1,0.1-0.2c0-0.1,0-0.2,0-0.3
	c0-0.1-0.1-0.1-0.2-0.2C24.8,137.7,24.7,137.6,24.6,137.6z"/>
<path class="st5" d="M22.4,153.5c0.1,0,0.1,0,0.2,0c0.1,0,0.1,0,0.2-0.1c0,0,0.1-0.1,0.1-0.1c0-0.1,0-0.1,0-0.2v-12.9h24.4v4.3
	c0,0.1,0,0.2,0.1,0.3c0.1,0.1,0.2,0.1,0.3,0.1c0.1,0,0.1,0,0.2,0c0.1,0,0.1,0,0.1-0.1c0,0,0.1-0.1,0.1-0.1c0-0.1,0-0.1,0-0.2l0-8
	c0-0.1,0-0.1,0-0.2c0-0.1-0.1-0.1-0.1-0.1c0,0-0.1-0.1-0.1-0.1c-0.1,0-0.1,0-0.2,0H22.4c-0.1,0-0.1,0-0.2,0c-0.1,0-0.1,0.1-0.1,0.1
	c0,0-0.1,0.1-0.1,0.1c0,0.1,0,0.1,0,0.2V153c0,0.1,0,0.2,0.1,0.3C22.2,153.4,22.3,153.5,22.4,153.5z M31.8,136.8h15.4v2.5H31.8
	V136.8z M22.8,136.8H31v2.5h-8.2L22.8,136.8z"/>
<path class="st5" d="M35,153.6H25c0,0-0.1,0-0.1,0c0,0-0.1,0-0.1,0.1c0,0-0.1,0.1-0.1,0.1c0,0,0,0.1,0,0.1s0,0.1,0,0.1
	c0,0,0,0.1,0.1,0.1c0,0,0.1,0.1,0.1,0.1c0,0,0.1,0,0.1,0H35c0,0,0.1,0,0.1,0c0,0,0.1,0,0.1-0.1c0,0,0.1-0.1,0.1-0.1c0,0,0-0.1,0-0.1
	s0-0.1,0-0.1c0,0,0-0.1-0.1-0.1c0,0-0.1-0.1-0.1-0.1C35.1,153.6,35.1,153.6,35,153.6z"/>
<path class="st5" d="M35,155.9H25c-0.1,0-0.2,0-0.3,0.1c-0.1,0.1-0.1,0.2-0.1,0.3c0,0.1,0,0.2,0.1,0.3c0.1,0.1,0.2,0.1,0.3,0.1H35
	c0.1,0,0.2,0,0.3-0.1c0.1-0.1,0.1-0.2,0.1-0.3c0-0.1,0-0.2-0.1-0.3C35.2,155.9,35.1,155.9,35,155.9z"/>
<path class="st5" d="M41.3,153.8c0,0.1,0,0.1,0,0.2c0,0,0,0.1,0.1,0.1c0,0,0.1,0.1,0.1,0.1c0,0,0.1,0,0.2,0H46c0.1,0,0.1,0,0.2,0
	c0,0,0.1-0.1,0.1-0.1s0.1-0.1,0.1-0.1c0,0,0-0.1,0-0.2v-2.1c0-0.1,0-0.1,0-0.2c0,0,0-0.1-0.1-0.1c0,0-0.1-0.1-0.1-0.1
	c0,0-0.1,0-0.2,0h-4.3c-0.1,0-0.1,0-0.2,0c0,0-0.1,0-0.1,0.1c0,0-0.1,0.1-0.1,0.1c0,0,0,0.1,0,0.2V153.8z"/>
<path class="st5" d="M44.3,150.3c0.1,0,0.2,0,0.2-0.1c0.1-0.1,0.1-0.2,0.1-0.2v-2.2c0-0.1,0-0.2-0.1-0.2c-0.1-0.1-0.2-0.1-0.2-0.1
	h-2.7c0,0-0.1,0-0.1,0c0,0-0.1,0-0.1,0.1c0,0-0.1,0.1-0.1,0.1c0,0,0,0.1,0,0.1v2.2c0,0.1,0,0.2,0.1,0.2c0.1,0.1,0.2,0.1,0.2,0.1
	H44.3z"/>
<path class="st5" d="M49.6,147.6c0.1,0,0.2,0,0.3-0.1c0.1-0.1,0.1-0.2,0.1-0.3v-0.3c0-0.4-0.2-0.8-0.4-1s-0.6-0.4-1-0.4h-7.8
	c-0.4,0-0.8,0.2-1,0.4c-0.3,0.3-0.4,0.6-0.4,1v7.8c0,0.4,0.2,0.8,0.4,1c0.3,0.3,0.6,0.4,1,0.4h7.8c0.4,0,0.8-0.2,1-0.4
	c0.3-0.3,0.4-0.6,0.4-1v-3.8c0-0.4-0.2-0.8-0.4-1c-0.3-0.3-0.6-0.4-1-0.4h-1.6c-0.1,0-0.1,0-0.2,0c0,0-0.1,0-0.1,0.1
	c0,0-0.1,0.1-0.1,0.1c0,0,0,0.1,0,0.2c0,0.1,0,0.1,0,0.2c0,0,0.1,0.1,0.1,0.1c0,0,0.1,0.1,0.1,0.1c0,0,0.1,0,0.2,0h1.6
	c0.1,0,0.2,0,0.3,0.1c0.1,0,0.2,0.1,0.2,0.1c0.1,0.1,0.1,0.1,0.1,0.2c0,0.1,0.1,0.2,0.1,0.3v3.8c0,0.2-0.1,0.4-0.2,0.5
	c-0.1,0.1-0.3,0.2-0.5,0.2h-7.8c-0.2,0-0.4-0.1-0.5-0.2c-0.1-0.1-0.2-0.3-0.2-0.5v-7.8c0-0.2,0.1-0.4,0.2-0.5
	c0.1-0.1,0.3-0.2,0.5-0.2h7.8c0.2,0,0.4,0.1,0.5,0.2c0.1,0.1,0.2,0.3,0.2,0.5v0.3c0,0.1,0,0.2,0.1,0.3S49.5,147.6,49.6,147.6z"/>
<path class="st5" d="M47.6,157.2c-0.1,0-0.2,0.1-0.3,0.1c-0.1,0.1-0.1,0.2-0.1,0.3v1.1H22.8v-4c0-0.1,0-0.2-0.1-0.3
	c-0.1-0.1-0.2-0.1-0.3-0.1c-0.1,0-0.1,0-0.2,0c-0.1,0-0.1,0-0.2,0.1c0,0-0.1,0.1-0.1,0.1c0,0.1,0,0.1,0,0.2v4.4c0,0.1,0,0.2,0.1,0.3
	c0.1,0.1,0.2,0.1,0.3,0.1h25.2c0.1,0,0.1,0,0.2,0s0.1-0.1,0.1-0.1c0,0,0.1-0.1,0.1-0.1c0-0.1,0-0.1,0-0.2v-1.5c0-0.1,0-0.1,0-0.2
	c0-0.1-0.1-0.1-0.1-0.1c0,0-0.1-0.1-0.2-0.1C47.7,157.2,47.7,157.2,47.6,157.2z"/>
<path class="st5" d="M32.6,148.7c0.1-0.3,0.2-0.5,0.2-0.7c0.1-0.2,0.1-0.4,0.2-0.5c0.1-0.3,0.1-0.6,0.1-0.9c0-0.2-0.1-0.5-0.2-0.7
	c-0.1-0.1-0.1-0.3-0.2-0.4c-0.1-0.2-0.2-0.3-0.3-0.5c-0.1-0.2-0.1-0.3-0.2-0.5c0-0.2,0-0.3,0.1-0.5c0.1-0.2,0.2-0.3,0.4-0.4
	c0.1-0.1,0.3-0.1,0.4-0.1c-0.4-0.4-0.9-0.7-1.4-0.9c-0.6-0.3-1.3-0.4-2-0.3c-0.7,0-1.4,0.2-2,0.6c-0.7,0.4-1.2,0.9-1.7,1.5
	c0.2,0,0.4,0,0.7,0c0.3,0,0.6,0,0.8-0.1c0.1,0,0.1,0,0.1,0.1c0,0,0.1,0.1,0.1,0.1c0,0.1,0,0.2-0.2,0.2c-0.1,0-0.2,0-0.3,0
	c-0.1,0-0.2,0-0.3,0l1.7,5l1-3l-0.7-2c-0.2,0-0.3,0-0.4,0c-0.1,0-0.1,0-0.1,0c0,0-0.1,0-0.1-0.1c0,0,0,0,0-0.1c0,0,0,0,0-0.1
	c0-0.1,0-0.1,0.1-0.1c0,0,0,0,0.1,0c0,0,0,0,0.1,0l0.2,0l0.5,0c0.3,0,0.5,0,0.8,0c0.2,0,0.5-0.1,1-0.1c0.1,0,0.1,0,0.1,0.1
	c0,0,0.1,0.1,0.1,0.1c0,0.1,0,0.2-0.2,0.2c-0.1,0-0.2,0-0.3,0c-0.1,0-0.2,0-0.3,0l1.7,5C32.4,149.4,32.5,149,32.6,148.7z"/>
<path class="st5" d="M28.6,151.5c0.2,0.1,0.4,0.1,0.6,0.1c0.7,0.1,1.5,0,2.2-0.2l-1.5-4L28.6,151.5z"/>
<path class="st5" d="M35,144.9c-0.3-0.7-0.7-1.2-1.2-1.7c-0.5-0.5-1.1-0.9-1.8-1.2c-0.7-0.3-1.4-0.4-2.1-0.4c-0.7,0-1.5,0.1-2.1,0.4
	c-1.3,0.6-2.4,1.6-2.9,2.9c-0.3,0.7-0.4,1.4-0.4,2.1c0,0.7,0.1,1.5,0.4,2.1c0.3,0.7,0.7,1.2,1.2,1.8c0.5,0.5,1.1,0.9,1.7,1.2
	c0.7,0.3,1.4,0.4,2.1,0.4c0.7,0,1.5-0.1,2.1-0.4c1.3-0.6,2.4-1.6,2.9-2.9c0.3-0.7,0.4-1.4,0.4-2.1C35.4,146.3,35.3,145.6,35,144.9
	L35,144.9z M34.6,149c-0.5,1.2-1.5,2.2-2.7,2.7c-0.6,0.3-1.3,0.4-2,0.4c-0.7,0-1.4-0.1-2-0.4c-1.2-0.5-2.2-1.5-2.7-2.7
	c-0.3-0.6-0.4-1.3-0.4-2s0.1-1.4,0.4-2c0.3-0.6,0.6-1.2,1.1-1.6c0.5-0.5,1-0.8,1.6-1.1c0.6-0.3,1.3-0.4,2-0.4c0.7,0,1.4,0.1,2,0.4
	c0.6,0.3,1.2,0.6,1.6,1.1c0.5,0.5,0.8,1,1.1,1.6c0.3,0.6,0.4,1.3,0.4,2S34.9,148.4,34.6,149L34.6,149z"/>
<path class="st5" d="M34.1,145.1c0,0.1,0,0.2,0,0.3c0,0.4-0.1,0.8-0.3,1.2c-0.1,0.4-0.2,0.7-0.4,1.1c-0.1,0.1-0.1,0.4-0.2,0.7
	c-0.1,0.3-0.2,0.7-0.4,1c-0.1,0.4-0.2,0.7-0.4,1c-0.1,0.3-0.2,0.5-0.2,0.7c0.4-0.2,0.7-0.4,1-0.7c0.3-0.3,0.5-0.6,0.7-0.9
	c0.2-0.4,0.4-0.7,0.5-1.1c0.3-1.1,0.2-2.4-0.4-3.4C34.1,144.9,34.1,145,34.1,145.1z"/>
<path class="st5" d="M25.3,147c0,0.4,0.1,0.9,0.2,1.3c0.1,0.4,0.3,0.8,0.5,1.2c0.2,0.4,0.5,0.7,0.8,1c0.3,0.3,0.7,0.5,1.1,0.7
	l-2.2-6.1C25.4,145.8,25.3,146.4,25.3,147z"/>
<path class="st6" d="M26.9,193.6c-0.1,0-0.2,0-0.2,0.1c-0.1,0-0.1,0.1-0.2,0.2c0,0.1,0,0.2,0,0.3c0,0.1,0.1,0.2,0.1,0.2
	c0.1,0.1,0.1,0.1,0.2,0.1s0.2,0,0.3,0c0.1,0,0.1-0.1,0.2-0.2c0-0.1,0.1-0.2,0.1-0.2c0-0.1,0-0.2-0.1-0.3
	C27.1,193.7,27,193.6,26.9,193.6z"/>
<path class="st6" d="M29.2,193.6c-0.1,0-0.1,0-0.2,0c-0.1,0-0.1,0.1-0.1,0.1c0,0-0.1,0.1-0.1,0.1c0,0.1,0,0.1,0,0.2
	c0,0.1,0,0.2,0.1,0.2c0,0.1,0.1,0.1,0.2,0.2c0.1,0,0.2,0,0.3,0s0.2-0.1,0.2-0.1c0.1-0.1,0.1-0.1,0.1-0.2c0-0.1,0-0.2,0-0.3
	c0-0.1-0.1-0.1-0.2-0.2C29.4,193.7,29.3,193.6,29.2,193.6z"/>
<path class="st6" d="M24.6,193.6c-0.1,0-0.1,0-0.2,0c-0.1,0-0.1,0.1-0.1,0.1c0,0-0.1,0.1-0.1,0.1c0,0.1,0,0.1,0,0.2
	c0,0.1,0,0.2,0.1,0.2c0,0.1,0.1,0.1,0.2,0.2c0.1,0,0.2,0,0.3,0c0.1,0,0.2-0.1,0.2-0.1c0.1-0.1,0.1-0.1,0.1-0.2c0-0.1,0-0.2,0-0.3
	c0-0.1-0.1-0.1-0.2-0.2C24.8,193.7,24.7,193.6,24.6,193.6z"/>
<path class="st6" d="M22.4,209.5c0.1,0,0.1,0,0.2,0c0.1,0,0.1,0,0.2-0.1c0,0,0.1-0.1,0.1-0.1c0-0.1,0-0.1,0-0.2v-12.9h24.4v4.3
	c0,0.1,0,0.2,0.1,0.3c0.1,0.1,0.2,0.1,0.3,0.1c0.1,0,0.1,0,0.2,0c0.1,0,0.1,0,0.1-0.1c0,0,0.1-0.1,0.1-0.1c0-0.1,0-0.1,0-0.2l0-8
	c0-0.1,0-0.1,0-0.2c0-0.1-0.1-0.1-0.1-0.1c0,0-0.1-0.1-0.1-0.1c-0.1,0-0.1,0-0.2,0H22.4c-0.1,0-0.1,0-0.2,0c-0.1,0-0.1,0.1-0.1,0.1
	c0,0-0.1,0.1-0.1,0.1c0,0.1,0,0.1,0,0.2V209c0,0.1,0,0.2,0.1,0.3C22.2,209.4,22.3,209.5,22.4,209.5z M31.8,192.8h15.4v2.5H31.8
	V192.8z M22.8,192.8H31v2.5h-8.2L22.8,192.8z"/>
<path class="st6" d="M35,209.6H25c0,0-0.1,0-0.1,0c0,0-0.1,0-0.1,0.1c0,0-0.1,0.1-0.1,0.1c0,0,0,0.1,0,0.1s0,0.1,0,0.1
	c0,0,0,0.1,0.1,0.1c0,0,0.1,0.1,0.1,0.1c0,0,0.1,0,0.1,0H35c0,0,0.1,0,0.1,0c0,0,0.1,0,0.1-0.1c0,0,0.1-0.1,0.1-0.1c0,0,0-0.1,0-0.1
	s0-0.1,0-0.1c0,0,0-0.1-0.1-0.1c0,0-0.1-0.1-0.1-0.1C35.1,209.6,35.1,209.6,35,209.6z"/>
<path class="st6" d="M35,211.9H25c-0.1,0-0.2,0-0.3,0.1c-0.1,0.1-0.1,0.2-0.1,0.3c0,0.1,0,0.2,0.1,0.3c0.1,0.1,0.2,0.1,0.3,0.1H35
	c0.1,0,0.2,0,0.3-0.1c0.1-0.1,0.1-0.2,0.1-0.3c0-0.1,0-0.2-0.1-0.3C35.2,211.9,35.1,211.9,35,211.9z"/>
<path class="st6" d="M41.3,209.8c0,0.1,0,0.1,0,0.2c0,0,0,0.1,0.1,0.1c0,0,0.1,0.1,0.1,0.1c0,0,0.1,0,0.2,0H46c0.1,0,0.1,0,0.2,0
	c0,0,0.1-0.1,0.1-0.1s0.1-0.1,0.1-0.1c0,0,0-0.1,0-0.2v-2.1c0-0.1,0-0.1,0-0.2c0,0,0-0.1-0.1-0.1c0,0-0.1-0.1-0.1-0.1
	c0,0-0.1,0-0.2,0h-4.3c-0.1,0-0.1,0-0.2,0c0,0-0.1,0-0.1,0.1c0,0-0.1,0.1-0.1,0.1c0,0,0,0.1,0,0.2V209.8z"/>
<path class="st6" d="M44.3,206.3c0.1,0,0.2,0,0.2-0.1c0.1-0.1,0.1-0.2,0.1-0.2v-2.2c0-0.1,0-0.2-0.1-0.2c-0.1-0.1-0.2-0.1-0.2-0.1
	h-2.7c0,0-0.1,0-0.1,0c0,0-0.1,0-0.1,0.1c0,0-0.1,0.1-0.1,0.1c0,0,0,0.1,0,0.1v2.2c0,0.1,0,0.2,0.1,0.2c0.1,0.1,0.2,0.1,0.2,0.1
	H44.3z"/>
<path class="st6" d="M49.6,203.6c0.1,0,0.2,0,0.3-0.1c0.1-0.1,0.1-0.2,0.1-0.3v-0.3c0-0.4-0.2-0.8-0.4-1s-0.6-0.4-1-0.4h-7.8
	c-0.4,0-0.8,0.2-1,0.4c-0.3,0.3-0.4,0.6-0.4,1v7.8c0,0.4,0.2,0.8,0.4,1c0.3,0.3,0.6,0.4,1,0.4h7.8c0.4,0,0.8-0.2,1-0.4
	c0.3-0.3,0.4-0.6,0.4-1v-3.8c0-0.4-0.2-0.8-0.4-1c-0.3-0.3-0.6-0.4-1-0.4h-1.6c-0.1,0-0.1,0-0.2,0c0,0-0.1,0-0.1,0.1
	c0,0-0.1,0.1-0.1,0.1c0,0,0,0.1,0,0.2c0,0.1,0,0.1,0,0.2c0,0,0.1,0.1,0.1,0.1c0,0,0.1,0.1,0.1,0.1c0,0,0.1,0,0.2,0h1.6
	c0.1,0,0.2,0,0.3,0.1c0.1,0,0.2,0.1,0.2,0.1c0.1,0.1,0.1,0.1,0.1,0.2c0,0.1,0.1,0.2,0.1,0.3v3.8c0,0.2-0.1,0.4-0.2,0.5
	c-0.1,0.1-0.3,0.2-0.5,0.2h-7.8c-0.2,0-0.4-0.1-0.5-0.2c-0.1-0.1-0.2-0.3-0.2-0.5v-7.8c0-0.2,0.1-0.4,0.2-0.5
	c0.1-0.1,0.3-0.2,0.5-0.2h7.8c0.2,0,0.4,0.1,0.5,0.2c0.1,0.1,0.2,0.3,0.2,0.5v0.3c0,0.1,0,0.2,0.1,0.3S49.5,203.6,49.6,203.6z"/>
<path class="st6" d="M47.6,213.2c-0.1,0-0.2,0.1-0.3,0.1c-0.1,0.1-0.1,0.2-0.1,0.3v1.1H22.8v-4c0-0.1,0-0.2-0.1-0.3
	c-0.1-0.1-0.2-0.1-0.3-0.1c-0.1,0-0.1,0-0.2,0c-0.1,0-0.1,0-0.2,0.1c0,0-0.1,0.1-0.1,0.1c0,0.1,0,0.1,0,0.2v4.4c0,0.1,0,0.2,0.1,0.3
	c0.1,0.1,0.2,0.1,0.3,0.1h25.2c0.1,0,0.1,0,0.2,0s0.1-0.1,0.1-0.1c0,0,0.1-0.1,0.1-0.1c0-0.1,0-0.1,0-0.2v-1.5c0-0.1,0-0.1,0-0.2
	c0-0.1-0.1-0.1-0.1-0.1c0,0-0.1-0.1-0.2-0.1C47.7,213.2,47.7,213.2,47.6,213.2z"/>
<path class="st6" d="M32.6,204.7c0.1-0.3,0.2-0.5,0.2-0.7c0.1-0.2,0.1-0.4,0.2-0.5c0.1-0.3,0.1-0.6,0.1-0.9c0-0.2-0.1-0.5-0.2-0.7
	c-0.1-0.1-0.1-0.3-0.2-0.4c-0.1-0.2-0.2-0.3-0.3-0.5c-0.1-0.2-0.1-0.3-0.2-0.5c0-0.2,0-0.3,0.1-0.5c0.1-0.2,0.2-0.3,0.4-0.4
	c0.1-0.1,0.3-0.1,0.4-0.1c-0.4-0.4-0.9-0.7-1.4-0.9c-0.6-0.3-1.3-0.4-2-0.3c-0.7,0-1.4,0.2-2,0.6c-0.7,0.4-1.2,0.9-1.7,1.5
	c0.2,0,0.4,0,0.7,0c0.3,0,0.6,0,0.8-0.1c0.1,0,0.1,0,0.1,0.1c0,0,0.1,0.1,0.1,0.1c0,0.1,0,0.2-0.2,0.2c-0.1,0-0.2,0-0.3,0
	c-0.1,0-0.2,0-0.3,0l1.7,5l1-3l-0.7-2c-0.2,0-0.3,0-0.4,0c-0.1,0-0.1,0-0.1,0c0,0-0.1,0-0.1-0.1c0,0,0,0,0-0.1c0,0,0,0,0-0.1
	c0-0.1,0-0.1,0.1-0.1c0,0,0,0,0.1,0c0,0,0,0,0.1,0l0.2,0l0.5,0c0.3,0,0.5,0,0.8,0c0.2,0,0.5-0.1,1-0.1c0.1,0,0.1,0,0.1,0.1
	c0,0,0.1,0.1,0.1,0.1c0,0.1,0,0.2-0.2,0.2c-0.1,0-0.2,0-0.3,0c-0.1,0-0.2,0-0.3,0l1.7,5C32.4,205.4,32.5,205,32.6,204.7z"/>
<path class="st6" d="M28.6,207.5c0.2,0.1,0.4,0.1,0.6,0.1c0.7,0.1,1.5,0,2.2-0.2l-1.5-4L28.6,207.5z"/>
<path class="st6" d="M35,200.9c-0.3-0.7-0.7-1.2-1.2-1.7c-0.5-0.5-1.1-0.9-1.8-1.2c-0.7-0.3-1.4-0.4-2.1-0.4c-0.7,0-1.5,0.1-2.1,0.4
	c-1.3,0.6-2.4,1.6-2.9,2.9c-0.3,0.7-0.4,1.4-0.4,2.1c0,0.7,0.1,1.5,0.4,2.1c0.3,0.7,0.7,1.2,1.2,1.8c0.5,0.5,1.1,0.9,1.7,1.2
	c0.7,0.3,1.4,0.4,2.1,0.4c0.7,0,1.5-0.1,2.1-0.4c1.3-0.6,2.4-1.6,2.9-2.9c0.3-0.7,0.4-1.4,0.4-2.1C35.4,202.3,35.3,201.6,35,200.9
	L35,200.9z M34.6,205c-0.5,1.2-1.5,2.2-2.7,2.7c-0.6,0.3-1.3,0.4-2,0.4c-0.7,0-1.4-0.1-2-0.4c-1.2-0.5-2.2-1.5-2.7-2.7
	c-0.3-0.6-0.4-1.3-0.4-2s0.1-1.4,0.4-2c0.3-0.6,0.6-1.2,1.1-1.6c0.5-0.5,1-0.8,1.6-1.1c0.6-0.3,1.3-0.4,2-0.4c0.7,0,1.4,0.1,2,0.4
	c0.6,0.3,1.2,0.6,1.6,1.1c0.5,0.5,0.8,1,1.1,1.6c0.3,0.6,0.4,1.3,0.4,2S34.9,204.4,34.6,205L34.6,205z"/>
<path class="st6" d="M34.1,201.1c0,0.1,0,0.2,0,0.3c0,0.4-0.1,0.8-0.3,1.2c-0.1,0.4-0.2,0.7-0.4,1.1c-0.1,0.1-0.1,0.4-0.2,0.7
	c-0.1,0.3-0.2,0.7-0.4,1c-0.1,0.4-0.2,0.7-0.4,1c-0.1,0.3-0.2,0.5-0.2,0.7c0.4-0.2,0.7-0.4,1-0.7c0.3-0.3,0.5-0.6,0.7-0.9
	c0.2-0.4,0.4-0.7,0.5-1.1c0.3-1.1,0.2-2.4-0.4-3.4C34.1,200.9,34.1,201,34.1,201.1z"/>
<path class="st6" d="M25.3,203c0,0.4,0.1,0.9,0.2,1.3c0.1,0.4,0.3,0.8,0.5,1.2c0.2,0.4,0.5,0.7,0.8,1c0.3,0.3,0.7,0.5,1.1,0.7
	l-2.2-6.1C25.4,201.8,25.3,202.4,25.3,203z"/>
<g>
	
		<radialGradient id="SVGID_4_" cx="-250.4241" cy="592.2143" r="1" gradientTransform="matrix(7.218987e-16 11.7895 14 -8.572528e-16 -8255 3212.1646)" gradientUnits="userSpaceOnUse">
		<stop  offset="0" style="stop-color:#434F58"/>
		<stop  offset="1" style="stop-color:#434F58;stop-opacity:0"/>
	</radialGradient>
	<path class="st7" d="M22,248.4c0-0.1,0-0.1,0-0.2c0-0.1,0.1-0.1,0.1-0.1c0,0,0.1-0.1,0.1-0.1c0.1,0,0.1,0,0.2,0h25.2
		c0.1,0,0.1,0,0.2,0c0.1,0,0.1,0.1,0.1,0.1c0,0,0.1,0.1,0.1,0.1c0,0.1,0,0.1,0,0.2l0.1,8.9c0,0,0,0.1,0,0.1h0.3c0.4,0,0.8,0.2,1,0.4
		c0.3,0.3,0.4,0.6,0.4,1v0.3c0,0,0,0.1,0,0.1c0,0.1,0.1,0.3,0.1,0.4v6.3c0,0.1,0,0.2,0,0.3v0.3c0,0.4-0.2,0.8-0.4,1
		c-0.3,0.3-0.6,0.4-1,0.4h-0.3l-0.1,3c0,0.1,0,0.1,0,0.2c0,0.1-0.1,0.1-0.1,0.1c0,0-0.1,0.1-0.1,0.1s-0.1,0-0.2,0H22.4
		c-0.1,0-0.2,0-0.3-0.1c-0.1-0.1-0.1-0.2-0.1-0.3v-3.6h0L22,248.4z"/>
</g>
<path class="st6" d="M26.9,249.6c-0.1,0-0.2,0-0.2,0.1c-0.1,0-0.1,0.1-0.2,0.2c0,0.1,0,0.2,0,0.3c0,0.1,0.1,0.2,0.1,0.2
	c0.1,0.1,0.1,0.1,0.2,0.1s0.2,0,0.3,0c0.1,0,0.1-0.1,0.2-0.2c0-0.1,0.1-0.2,0.1-0.2c0-0.1,0-0.2-0.1-0.3
	C27.1,249.7,27,249.6,26.9,249.6z"/>
<path class="st6" d="M29.2,249.6c-0.1,0-0.1,0-0.2,0c-0.1,0-0.1,0.1-0.1,0.1c0,0-0.1,0.1-0.1,0.1c0,0.1,0,0.1,0,0.2
	c0,0.1,0,0.2,0.1,0.2c0,0.1,0.1,0.1,0.2,0.2c0.1,0,0.2,0,0.3,0s0.2-0.1,0.2-0.1c0.1-0.1,0.1-0.1,0.1-0.2c0-0.1,0-0.2,0-0.3
	c0-0.1-0.1-0.1-0.2-0.2C29.4,249.7,29.3,249.6,29.2,249.6z"/>
<path class="st6" d="M24.6,249.6c-0.1,0-0.1,0-0.2,0c-0.1,0-0.1,0.1-0.1,0.1c0,0-0.1,0.1-0.1,0.1c0,0.1,0,0.1,0,0.2
	c0,0.1,0,0.2,0.1,0.2c0,0.1,0.1,0.1,0.2,0.2c0.1,0,0.2,0,0.3,0c0.1,0,0.2-0.1,0.2-0.1c0.1-0.1,0.1-0.1,0.1-0.2c0-0.1,0-0.2,0-0.3
	c0-0.1-0.1-0.1-0.2-0.2C24.8,249.7,24.7,249.6,24.6,249.6z"/>
<path class="st6" d="M22.4,265.5c0.1,0,0.1,0,0.2,0c0.1,0,0.1,0,0.2-0.1c0,0,0.1-0.1,0.1-0.1c0-0.1,0-0.1,0-0.2v-12.9h24.4v4.3
	c0,0.1,0,0.2,0.1,0.3c0.1,0.1,0.2,0.1,0.3,0.1c0.1,0,0.1,0,0.2,0c0.1,0,0.1,0,0.1-0.1c0,0,0.1-0.1,0.1-0.1c0-0.1,0-0.1,0-0.2l0-8
	c0-0.1,0-0.1,0-0.2c0-0.1-0.1-0.1-0.1-0.1c0,0-0.1-0.1-0.1-0.1c-0.1,0-0.1,0-0.2,0H22.4c-0.1,0-0.1,0-0.2,0c-0.1,0-0.1,0.1-0.1,0.1
	c0,0-0.1,0.1-0.1,0.1c0,0.1,0,0.1,0,0.2V265c0,0.1,0,0.2,0.1,0.3C22.2,265.4,22.3,265.5,22.4,265.5z M31.8,248.8h15.4v2.5H31.8
	V248.8z M22.8,248.8H31v2.5h-8.2L22.8,248.8z"/>
<path class="st6" d="M35,265.6H25c0,0-0.1,0-0.1,0c0,0-0.1,0-0.1,0.1c0,0-0.1,0.1-0.1,0.1c0,0,0,0.1,0,0.1c0,0.1,0,0.1,0,0.1
	c0,0,0,0.1,0.1,0.1c0,0,0.1,0.1,0.1,0.1c0,0,0.1,0,0.1,0H35c0,0,0.1,0,0.1,0c0,0,0.1,0,0.1-0.1c0,0,0.1-0.1,0.1-0.1c0,0,0-0.1,0-0.1
	c0,0,0-0.1,0-0.1c0,0,0-0.1-0.1-0.1c0,0-0.1-0.1-0.1-0.1C35.1,265.6,35.1,265.6,35,265.6z"/>
<path class="st6" d="M35,267.9H25c-0.1,0-0.2,0-0.3,0.1c-0.1,0.1-0.1,0.2-0.1,0.3c0,0.1,0,0.2,0.1,0.3c0.1,0.1,0.2,0.1,0.3,0.1H35
	c0.1,0,0.2,0,0.3-0.1c0.1-0.1,0.1-0.2,0.1-0.3c0-0.1,0-0.2-0.1-0.3C35.2,267.9,35.1,267.9,35,267.9z"/>
<path class="st6" d="M41.3,265.8c0,0.1,0,0.1,0,0.2c0,0,0,0.1,0.1,0.1c0,0,0.1,0.1,0.1,0.1c0,0,0.1,0,0.2,0H46c0.1,0,0.1,0,0.2,0
	c0,0,0.1-0.1,0.1-0.1s0.1-0.1,0.1-0.1c0,0,0-0.1,0-0.2v-2.1c0-0.1,0-0.1,0-0.2c0,0,0-0.1-0.1-0.1c0,0-0.1-0.1-0.1-0.1
	c0,0-0.1,0-0.2,0h-4.3c-0.1,0-0.1,0-0.2,0c0,0-0.1,0-0.1,0.1c0,0-0.1,0.1-0.1,0.1c0,0,0,0.1,0,0.2V265.8z"/>
<path class="st6" d="M44.3,262.3c0.1,0,0.2,0,0.2-0.1c0.1-0.1,0.1-0.2,0.1-0.2v-2.2c0-0.1,0-0.2-0.1-0.2c-0.1-0.1-0.2-0.1-0.2-0.1
	h-2.7c0,0-0.1,0-0.1,0c0,0-0.1,0-0.1,0.1c0,0-0.1,0.1-0.1,0.1c0,0,0,0.1,0,0.1v2.2c0,0.1,0,0.2,0.1,0.2c0.1,0.1,0.2,0.1,0.2,0.1
	H44.3z"/>
<path class="st6" d="M49.6,259.6c0.1,0,0.2,0,0.3-0.1c0.1-0.1,0.1-0.2,0.1-0.3v-0.3c0-0.4-0.2-0.8-0.4-1c-0.3-0.3-0.6-0.4-1-0.4
	h-7.8c-0.4,0-0.8,0.2-1,0.4c-0.3,0.3-0.4,0.6-0.4,1v7.8c0,0.4,0.2,0.8,0.4,1c0.3,0.3,0.6,0.4,1,0.4h7.8c0.4,0,0.8-0.2,1-0.4
	c0.3-0.3,0.4-0.6,0.4-1v-3.8c0-0.4-0.2-0.8-0.4-1c-0.3-0.3-0.6-0.4-1-0.4h-1.6c-0.1,0-0.1,0-0.2,0c0,0-0.1,0-0.1,0.1
	c0,0-0.1,0.1-0.1,0.1c0,0,0,0.1,0,0.2c0,0.1,0,0.1,0,0.2c0,0,0.1,0.1,0.1,0.1c0,0,0.1,0.1,0.1,0.1c0,0,0.1,0,0.2,0h1.6
	c0.1,0,0.2,0,0.3,0.1c0.1,0,0.2,0.1,0.2,0.1c0.1,0.1,0.1,0.1,0.1,0.2c0,0.1,0.1,0.2,0.1,0.3v3.8c0,0.2-0.1,0.4-0.2,0.5
	c-0.1,0.1-0.3,0.2-0.5,0.2h-7.8c-0.2,0-0.4-0.1-0.5-0.2c-0.1-0.1-0.2-0.3-0.2-0.5v-7.8c0-0.2,0.1-0.4,0.2-0.5
	c0.1-0.1,0.3-0.2,0.5-0.2h7.8c0.2,0,0.4,0.1,0.5,0.2c0.1,0.1,0.2,0.3,0.2,0.5v0.3c0,0.1,0,0.2,0.1,0.3S49.5,259.6,49.6,259.6z"/>
<path class="st6" d="M47.6,269.2c-0.1,0-0.2,0.1-0.3,0.1c-0.1,0.1-0.1,0.2-0.1,0.3v1.1H22.8v-4c0-0.1,0-0.2-0.1-0.3
	c-0.1-0.1-0.2-0.1-0.3-0.1c-0.1,0-0.1,0-0.2,0c-0.1,0-0.1,0-0.2,0.1c0,0-0.1,0.1-0.1,0.1c0,0.1,0,0.1,0,0.2v4.4c0,0.1,0,0.2,0.1,0.3
	c0.1,0.1,0.2,0.1,0.3,0.1h25.2c0.1,0,0.1,0,0.2,0s0.1-0.1,0.1-0.1c0,0,0.1-0.1,0.1-0.1c0-0.1,0-0.1,0-0.2v-1.5c0-0.1,0-0.1,0-0.2
	c0-0.1-0.1-0.1-0.1-0.1c0,0-0.1-0.1-0.2-0.1C47.7,269.2,47.7,269.2,47.6,269.2z"/>
<path class="st6" d="M32.6,260.7c0.1-0.3,0.2-0.5,0.2-0.7c0.1-0.2,0.1-0.4,0.2-0.5c0.1-0.3,0.1-0.6,0.1-0.9c0-0.2-0.1-0.5-0.2-0.7
	c-0.1-0.1-0.1-0.3-0.2-0.4c-0.1-0.2-0.2-0.3-0.3-0.5c-0.1-0.2-0.1-0.3-0.2-0.5c0-0.2,0-0.3,0.1-0.5c0.1-0.2,0.2-0.3,0.4-0.4
	c0.1-0.1,0.3-0.1,0.4-0.1c-0.4-0.4-0.9-0.7-1.4-0.9c-0.6-0.3-1.3-0.4-2-0.3c-0.7,0-1.4,0.2-2,0.6c-0.7,0.4-1.2,0.9-1.7,1.5
	c0.2,0,0.4,0,0.7,0c0.3,0,0.6,0,0.8-0.1c0.1,0,0.1,0,0.1,0c0,0,0.1,0.1,0.1,0.1c0,0.1,0,0.2-0.2,0.2c-0.1,0-0.2,0-0.3,0
	c-0.1,0-0.2,0-0.3,0l1.7,5l1-3l-0.7-2c-0.2,0-0.3,0-0.4,0c-0.1,0-0.1,0-0.1,0c0,0-0.1,0-0.1-0.1c0,0,0,0,0-0.1c0,0,0,0,0-0.1
	c0-0.1,0-0.1,0.1-0.1c0,0,0,0,0.1,0c0,0,0,0,0.1,0l0.2,0l0.5,0c0.3,0,0.5,0,0.8,0c0.2,0,0.5,0,1-0.1c0.1,0,0.1,0,0.1,0
	c0,0,0.1,0.1,0.1,0.1c0,0.1,0,0.2-0.2,0.2c-0.1,0-0.2,0-0.3,0c-0.1,0-0.2,0-0.3,0l1.7,5C32.4,261.4,32.5,261,32.6,260.7z"/>
<path class="st6" d="M28.6,263.5c0.2,0.1,0.4,0.1,0.6,0.1c0.7,0.1,1.5,0,2.2-0.2l-1.5-4L28.6,263.5z"/>
<path class="st6" d="M35,256.9c-0.3-0.7-0.7-1.2-1.2-1.7c-0.5-0.5-1.1-0.9-1.8-1.2c-0.7-0.3-1.4-0.4-2.1-0.4c-0.7,0-1.5,0.1-2.1,0.4
	c-1.3,0.6-2.4,1.6-2.9,2.9c-0.3,0.7-0.4,1.4-0.4,2.1c0,0.7,0.1,1.5,0.4,2.1c0.3,0.7,0.7,1.2,1.2,1.8c0.5,0.5,1.1,0.9,1.7,1.2
	c0.7,0.3,1.4,0.4,2.1,0.4c0.7,0,1.5-0.1,2.1-0.4c1.3-0.6,2.4-1.6,2.9-2.9c0.3-0.7,0.4-1.4,0.4-2.1C35.4,258.3,35.3,257.6,35,256.9
	L35,256.9z M34.6,261c-0.5,1.2-1.5,2.2-2.7,2.7c-0.6,0.3-1.3,0.4-2,0.4c-0.7,0-1.4-0.1-2-0.4c-1.2-0.5-2.2-1.5-2.7-2.7
	c-0.3-0.6-0.4-1.3-0.4-2s0.1-1.4,0.4-2c0.3-0.6,0.6-1.2,1.1-1.6c0.5-0.5,1-0.8,1.6-1.1c0.6-0.3,1.3-0.4,2-0.4c0.7,0,1.4,0.1,2,0.4
	c0.6,0.3,1.2,0.6,1.6,1.1c0.5,0.5,0.8,1,1.1,1.6c0.3,0.6,0.4,1.3,0.4,2S34.9,260.4,34.6,261L34.6,261z"/>
<path class="st6" d="M34.1,257.1c0,0.1,0,0.2,0,0.3c0,0.4-0.1,0.8-0.3,1.2c-0.1,0.4-0.2,0.7-0.4,1.1c-0.1,0.1-0.1,0.4-0.2,0.7
	c-0.1,0.3-0.2,0.7-0.4,1c-0.1,0.4-0.2,0.7-0.4,1c-0.1,0.3-0.2,0.5-0.2,0.7c0.4-0.2,0.7-0.4,1-0.7c0.3-0.3,0.5-0.6,0.7-0.9
	c0.2-0.4,0.4-0.7,0.5-1.1c0.3-1.1,0.2-2.4-0.4-3.4C34.1,257,34.1,257,34.1,257.1z"/>
<path class="st6" d="M25.3,259c0,0.4,0.1,0.9,0.2,1.3c0.1,0.4,0.3,0.8,0.5,1.2c0.2,0.4,0.5,0.7,0.8,1c0.3,0.3,0.7,0.5,1.1,0.7
	l-2.2-6.1C25.4,257.8,25.3,258.4,25.3,259z"/>
<radialGradient id="SVGID_5_" cx="-250.4241" cy="592.2143" r="1" gradientTransform="matrix(7.218987e-16 11.7895 14 -8.572528e-16 -8255 3268.1646)" gradientUnits="userSpaceOnUse">
	<stop  offset="0" style="stop-color:#677983"/>
	<stop  offset="1" style="stop-color:#677983;stop-opacity:0"/>
</radialGradient>
<path class="st8" d="M22,304.4c0-0.1,0-0.1,0-0.2c0-0.1,0.1-0.1,0.1-0.1c0,0,0.1-0.1,0.1-0.1c0.1,0,0.1,0,0.2,0h25.2
	c0.1,0,0.1,0,0.2,0c0.1,0,0.1,0.1,0.1,0.1c0,0,0.1,0.1,0.1,0.1s0,0.1,0,0.2l0.1,8.9c0,0,0,0.1,0,0.1h0.3c0.4,0,0.8,0.2,1,0.4
	c0.3,0.3,0.4,0.6,0.4,1v0.3c0,0,0,0.1,0,0.1c0,0.1,0.1,0.3,0.1,0.4v6.3c0,0.1,0,0.2,0,0.3v0.3c0,0.4-0.2,0.8-0.4,1
	c-0.3,0.3-0.6,0.4-1,0.4h-0.3l-0.1,3c0,0.1,0,0.1,0,0.2c0,0.1-0.1,0.1-0.1,0.1c0,0-0.1,0.1-0.1,0.1s-0.1,0-0.2,0H22.4
	c-0.1,0-0.2,0-0.3-0.1c-0.1-0.1-0.1-0.2-0.1-0.3v-3.6h0L22,304.4z"/>
<path class="st9" d="M26.9,305.6c-0.1,0-0.2,0-0.2,0.1c-0.1,0-0.1,0.1-0.2,0.2c0,0.1,0,0.2,0,0.3s0.1,0.2,0.1,0.2
	c0.1,0.1,0.1,0.1,0.2,0.1s0.2,0,0.3,0c0.1,0,0.1-0.1,0.2-0.2c0-0.1,0.1-0.2,0.1-0.2c0-0.1,0-0.2-0.1-0.3
	C27.1,305.7,27,305.6,26.9,305.6z"/>
<path class="st9" d="M29.2,305.6c-0.1,0-0.1,0-0.2,0c-0.1,0-0.1,0.1-0.1,0.1c0,0-0.1,0.1-0.1,0.1c0,0.1,0,0.1,0,0.2
	c0,0.1,0,0.2,0.1,0.2c0,0.1,0.1,0.1,0.2,0.2c0.1,0,0.2,0,0.3,0s0.2-0.1,0.2-0.1c0.1-0.1,0.1-0.1,0.1-0.2c0-0.1,0-0.2,0-0.3
	c0-0.1-0.1-0.1-0.2-0.2C29.4,305.7,29.3,305.6,29.2,305.6z"/>
<path class="st9" d="M24.6,305.6c-0.1,0-0.1,0-0.2,0c-0.1,0-0.1,0.1-0.1,0.1c0,0-0.1,0.1-0.1,0.1c0,0.1,0,0.1,0,0.2
	c0,0.1,0,0.2,0.1,0.2c0,0.1,0.1,0.1,0.2,0.2c0.1,0,0.2,0,0.3,0c0.1,0,0.2-0.1,0.2-0.1c0.1-0.1,0.1-0.1,0.1-0.2c0-0.1,0-0.2,0-0.3
	c0-0.1-0.1-0.1-0.2-0.2C24.8,305.7,24.7,305.6,24.6,305.6z"/>
<path class="st9" d="M22.4,321.5c0.1,0,0.1,0,0.2,0c0.1,0,0.1,0,0.2-0.1c0,0,0.1-0.1,0.1-0.1c0-0.1,0-0.1,0-0.2v-12.9h24.4v4.3
	c0,0.1,0,0.2,0.1,0.3c0.1,0.1,0.2,0.1,0.3,0.1c0.1,0,0.1,0,0.2,0c0.1,0,0.1,0,0.1-0.1c0,0,0.1-0.1,0.1-0.1c0-0.1,0-0.1,0-0.2l0-8
	c0-0.1,0-0.1,0-0.2c0-0.1-0.1-0.1-0.1-0.1c0,0-0.1-0.1-0.1-0.1c-0.1,0-0.1,0-0.2,0H22.4c-0.1,0-0.1,0-0.2,0c-0.1,0-0.1,0.1-0.1,0.1
	c0,0-0.1,0.1-0.1,0.1c0,0.1,0,0.1,0,0.2V321c0,0.1,0,0.2,0.1,0.3C22.2,321.4,22.3,321.5,22.4,321.5z M31.8,304.8h15.4v2.5H31.8
	V304.8z M22.8,304.8H31v2.5h-8.2L22.8,304.8z"/>
<path class="st9" d="M35,321.6H25c0,0-0.1,0-0.1,0c0,0-0.1,0-0.1,0.1c0,0-0.1,0.1-0.1,0.1c0,0,0,0.1,0,0.1c0,0.1,0,0.1,0,0.1
	c0,0,0,0.1,0.1,0.1c0,0,0.1,0.1,0.1,0.1c0,0,0.1,0,0.1,0H35c0,0,0.1,0,0.1,0c0,0,0.1,0,0.1-0.1c0,0,0.1-0.1,0.1-0.1c0,0,0-0.1,0-0.1
	c0,0,0-0.1,0-0.1c0,0,0-0.1-0.1-0.1c0,0-0.1-0.1-0.1-0.1C35.1,321.6,35.1,321.6,35,321.6z"/>
<path class="st9" d="M35,323.9H25c-0.1,0-0.2,0-0.3,0.1c-0.1,0.1-0.1,0.2-0.1,0.3c0,0.1,0,0.2,0.1,0.3c0.1,0.1,0.2,0.1,0.3,0.1H35
	c0.1,0,0.2,0,0.3-0.1c0.1-0.1,0.1-0.2,0.1-0.3c0-0.1,0-0.2-0.1-0.3C35.2,323.9,35.1,323.9,35,323.9z"/>
<path class="st9" d="M41.3,321.8c0,0.1,0,0.1,0,0.2c0,0,0,0.1,0.1,0.1c0,0,0.1,0.1,0.1,0.1c0,0,0.1,0,0.2,0H46c0.1,0,0.1,0,0.2,0
	c0,0,0.1-0.1,0.1-0.1s0.1-0.1,0.1-0.1c0,0,0-0.1,0-0.2v-2.1c0-0.1,0-0.1,0-0.2c0,0,0-0.1-0.1-0.1c0,0-0.1-0.1-0.1-0.1
	c0,0-0.1,0-0.2,0h-4.3c-0.1,0-0.1,0-0.2,0c0,0-0.1,0-0.1,0.1c0,0-0.1,0.1-0.1,0.1c0,0,0,0.1,0,0.2V321.8z"/>
<path class="st9" d="M44.3,318.3c0.1,0,0.2,0,0.2-0.1c0.1-0.1,0.1-0.2,0.1-0.2v-2.2c0-0.1,0-0.2-0.1-0.2c-0.1-0.1-0.2-0.1-0.2-0.1
	h-2.7c0,0-0.1,0-0.1,0c0,0-0.1,0-0.1,0.1c0,0-0.1,0.1-0.1,0.1c0,0,0,0.1,0,0.1v2.2c0,0.1,0,0.2,0.1,0.2c0.1,0.1,0.2,0.1,0.2,0.1
	H44.3z"/>
<path class="st9" d="M49.6,315.6c0.1,0,0.2,0,0.3-0.1c0.1-0.1,0.1-0.2,0.1-0.3v-0.3c0-0.4-0.2-0.8-0.4-1c-0.3-0.3-0.6-0.4-1-0.4
	h-7.8c-0.4,0-0.8,0.2-1,0.4c-0.3,0.3-0.4,0.6-0.4,1v7.8c0,0.4,0.2,0.8,0.4,1c0.3,0.3,0.6,0.4,1,0.4h7.8c0.4,0,0.8-0.2,1-0.4
	c0.3-0.3,0.4-0.6,0.4-1v-3.8c0-0.4-0.2-0.8-0.4-1c-0.3-0.3-0.6-0.4-1-0.4h-1.6c-0.1,0-0.1,0-0.2,0c0,0-0.1,0-0.1,0.1
	c0,0-0.1,0.1-0.1,0.1c0,0,0,0.1,0,0.2c0,0.1,0,0.1,0,0.2c0,0,0.1,0.1,0.1,0.1c0,0,0.1,0.1,0.1,0.1c0,0,0.1,0,0.2,0h1.6
	c0.1,0,0.2,0,0.3,0.1c0.1,0,0.2,0.1,0.2,0.1c0.1,0.1,0.1,0.1,0.1,0.2c0,0.1,0.1,0.2,0.1,0.3v3.8c0,0.2-0.1,0.4-0.2,0.5
	c-0.1,0.1-0.3,0.2-0.5,0.2h-7.8c-0.2,0-0.4-0.1-0.5-0.2c-0.1-0.1-0.2-0.3-0.2-0.5v-7.8c0-0.2,0.1-0.4,0.2-0.5
	c0.1-0.1,0.3-0.2,0.5-0.2h7.8c0.2,0,0.4,0.1,0.5,0.2c0.1,0.1,0.2,0.3,0.2,0.5v0.3c0,0.1,0,0.2,0.1,0.3S49.5,315.6,49.6,315.6z"/>
<path class="st9" d="M47.6,325.2c-0.1,0-0.2,0.1-0.3,0.1c-0.1,0.1-0.1,0.2-0.1,0.3v1.1H22.8v-4c0-0.1,0-0.2-0.1-0.3
	c-0.1-0.1-0.2-0.1-0.3-0.1c-0.1,0-0.1,0-0.2,0c-0.1,0-0.1,0-0.2,0.1c0,0-0.1,0.1-0.1,0.1c0,0.1,0,0.1,0,0.2v4.4c0,0.1,0,0.2,0.1,0.3
	c0.1,0.1,0.2,0.1,0.3,0.1h25.2c0.1,0,0.1,0,0.2,0s0.1-0.1,0.1-0.1c0,0,0.1-0.1,0.1-0.1c0-0.1,0-0.1,0-0.2v-1.5c0-0.1,0-0.1,0-0.2
	c0-0.1-0.1-0.1-0.1-0.1c0,0-0.1-0.1-0.2-0.1C47.7,325.2,47.7,325.2,47.6,325.2z"/>
<path class="st9" d="M32.6,316.7c0.1-0.3,0.2-0.5,0.2-0.7c0.1-0.2,0.1-0.4,0.2-0.5c0.1-0.3,0.1-0.6,0.1-0.9c0-0.2-0.1-0.5-0.2-0.7
	c-0.1-0.1-0.1-0.3-0.2-0.4c-0.1-0.2-0.2-0.3-0.3-0.5c-0.1-0.2-0.1-0.3-0.2-0.5c0-0.2,0-0.3,0.1-0.5c0.1-0.2,0.2-0.3,0.4-0.4
	c0.1-0.1,0.3-0.1,0.4-0.1c-0.4-0.4-0.9-0.7-1.4-0.9c-0.6-0.3-1.3-0.4-2-0.3c-0.7,0-1.4,0.2-2,0.6c-0.7,0.4-1.2,0.9-1.7,1.5
	c0.2,0,0.4,0,0.7,0c0.3,0,0.6,0,0.8-0.1c0.1,0,0.1,0,0.1,0c0,0,0.1,0.1,0.1,0.1c0,0.1,0,0.2-0.2,0.2c-0.1,0-0.2,0-0.3,0
	c-0.1,0-0.2,0-0.3,0l1.7,5l1-3l-0.7-2c-0.2,0-0.3,0-0.4,0c-0.1,0-0.1,0-0.1,0c0,0-0.1,0-0.1-0.1c0,0,0,0,0-0.1c0,0,0,0,0-0.1
	c0-0.1,0-0.1,0.1-0.1c0,0,0,0,0.1,0c0,0,0,0,0.1,0l0.2,0l0.5,0c0.3,0,0.5,0,0.8,0c0.2,0,0.5,0,1-0.1c0.1,0,0.1,0,0.1,0
	c0,0,0.1,0.1,0.1,0.1c0,0.1,0,0.2-0.2,0.2c-0.1,0-0.2,0-0.3,0c-0.1,0-0.2,0-0.3,0l1.7,5C32.4,317.4,32.5,317,32.6,316.7z"/>
<path class="st9" d="M28.6,319.5c0.2,0.1,0.4,0.1,0.6,0.1c0.7,0.1,1.5,0,2.2-0.2l-1.5-4L28.6,319.5z"/>
<path class="st9" d="M35,312.9c-0.3-0.7-0.7-1.2-1.2-1.7c-0.5-0.5-1.1-0.9-1.8-1.2c-0.7-0.3-1.4-0.4-2.1-0.4c-0.7,0-1.5,0.1-2.1,0.4
	c-1.3,0.6-2.4,1.6-2.9,2.9c-0.3,0.7-0.4,1.4-0.4,2.1c0,0.7,0.1,1.5,0.4,2.1c0.3,0.7,0.7,1.2,1.2,1.8c0.5,0.5,1.1,0.9,1.7,1.2
	c0.7,0.3,1.4,0.4,2.1,0.4c0.7,0,1.5-0.1,2.1-0.4c1.3-0.6,2.4-1.6,2.9-2.9c0.3-0.7,0.4-1.4,0.4-2.1C35.4,314.3,35.3,313.6,35,312.9
	L35,312.9z M34.6,317c-0.5,1.2-1.5,2.2-2.7,2.7c-0.6,0.3-1.3,0.4-2,0.4c-0.7,0-1.4-0.1-2-0.4c-1.2-0.5-2.2-1.5-2.7-2.7
	c-0.3-0.6-0.4-1.3-0.4-2s0.1-1.4,0.4-2c0.3-0.6,0.6-1.2,1.1-1.6c0.5-0.5,1-0.8,1.6-1.1c0.6-0.3,1.3-0.4,2-0.4c0.7,0,1.4,0.1,2,0.4
	c0.6,0.3,1.2,0.6,1.6,1.1c0.5,0.5,0.8,1,1.1,1.6c0.3,0.6,0.4,1.3,0.4,2S34.9,316.4,34.6,317L34.6,317z"/>
<path class="st9" d="M34.1,313.1c0,0.1,0,0.2,0,0.3c0,0.4-0.1,0.8-0.3,1.2c-0.1,0.4-0.2,0.7-0.4,1.1c-0.1,0.1-0.1,0.4-0.2,0.7
	c-0.1,0.3-0.2,0.7-0.4,1c-0.1,0.4-0.2,0.7-0.4,1c-0.1,0.3-0.2,0.5-0.2,0.7c0.4-0.2,0.7-0.4,1-0.7c0.3-0.3,0.5-0.6,0.7-0.9
	c0.2-0.4,0.4-0.7,0.5-1.1c0.3-1.1,0.2-2.4-0.4-3.4C34.1,313,34.1,313,34.1,313.1z"/>
<path class="st9" d="M25.3,315c0,0.4,0.1,0.9,0.2,1.3c0.1,0.4,0.3,0.8,0.5,1.2c0.2,0.4,0.5,0.7,0.8,1c0.3,0.3,0.7,0.5,1.1,0.7
	l-2.2-6.1C25.4,313.8,25.3,314.4,25.3,315z"/>
</svg>
