<?xml version="1.0" encoding="utf-8"?>
<!-- Generator: Adobe Illustrator 22.1.0, SVG Export Plug-In . SVG Version: 6.00 Build 0)  -->
<svg version="1.1" id="Layer_1" xmlns="http://www.w3.org/2000/svg" xmlns:xlink="http://www.w3.org/1999/xlink" x="0px" y="0px"
	 viewBox="0 0 1230 1152" style="enable-background:new 0 0 1230 1152;" xml:space="preserve">
<style type="text/css">
	.st0{fill:#FFFFFF;}
	.st1{opacity:0.4;fill:#0073EC;enable-background:new    ;}
	.st2{fill:#0073EC;}
	.st3{opacity:0.4;fill:#A644E5;enable-background:new    ;}
</style>
<title>qArtboard 1</title>
<g>
	<path class="st0" d="M507.4,1060.7c0.9-0.7,1.4-1.7,1.4-2.8v-21.5c2.4,0.4,4.8,1.1,7,2.2l0.3,0.1c7.7,3.9,12.6,11.7,12.8,20.3
		c0,1,0.5,2,1.3,2.6c0.6,0.5,1.4,0.8,2.2,0.8h25.9c2.5,0,4.8-1,6.6-2.7c1.7-1.7,2.6-4,2.5-6.3c0-1.2,0.9-2.2,2.1-2.2c0,0,0,0,0.1,0
		h14.9v39.5H467.9L507.4,1060.7z"/>
	<path class="st0" d="M584.3,1101.2H466.7c-1.4,0.1-2.7-0.6-3.5-1.7c-0.4-0.5-0.6-1.1-0.7-1.7h121.8V1101.2z"/>
	<path class="st0" d="M645.1,1101.2v-3.5h121.7c-0.1,0.6-0.4,1.2-0.7,1.7c-0.8,1.1-2.1,1.8-3.5,1.7H645.1z"/>
	<path class="st0" d="M722,1060.7l39.5,30H645.1v-39.5h14.9c1.2,0,2.1,0.9,2.1,2.1c0,0,0,0,0,0.1c0,2.4,0.9,4.6,2.5,6.3
		c1.7,1.8,4.1,2.7,6.6,2.7h25.9c0.8,0,1.6-0.3,2.3-0.9c0.8-0.6,1.2-1.6,1.3-2.6c0.2-8.6,5.1-16.4,12.8-20.3l0.3-0.1
		c2.2-1.1,4.6-1.8,7-2.2v21.5C720.6,1059,721.1,1060.1,722,1060.7z"/>
	<path class="st0" d="M693.9,1055.5h-22.7c-0.6,0-1.2-0.2-1.6-0.7c-0.4-0.3-0.6-0.8-0.5-1.3c0.1-5-3.9-9.2-9-9.3c-0.1,0-0.1,0-0.2,0
		h-14.8l-27-282.1c0-1.9-1.6-3.5-3.5-3.5s-3.5,1.6-3.5,3.5l-26.9,282.1h-14.8c-5,0-9.1,4.1-9.1,9.1c0,0.1,0,0.1,0,0.2
		c0,0.5-0.2,1-0.5,1.3c-0.4,0.4-1,0.7-1.6,0.7h-22.7c-1.2-9.2-6.7-17.4-14.7-22.1V685h187.8v348.4
		C700.6,1038.1,695.1,1046.2,693.9,1055.5z"/>
	<path class="st0" d="M587.6,411.9c1.4,8.8,7.2,16.3,15.3,20.1c-9,1.7-16.5,7.9-21.3,13.1l-2.5-33.1H587.6z"/>
	<path class="st0" d="M556.4,229.3c-0.3-3-2.1-6-4.2-8.6c3.9,0.9,7.7,2.4,11.3,4.4c1.6,1,3.8,0.5,4.8-1.2c0.4-0.6,0.6-1.4,0.5-2.2
		l-1.5-14.5l7.1,7.9c0.9,1,2.3,1.4,3.6,1c31.7-10,53.1-4.6,53.4-4.5c24.6,6.4,40.7,18.3,47.9,35.3c1.3,3.2,2.3,6.5,3,9.9
		c-6.7-10.6-12.8-15.9-13.1-16.2c-1.5-1.3-3.7-1.1-4.9,0.3c-0.6,0.6-0.9,1.4-0.9,2.3v24.6c-33.1-1.4-45.2-22-45.7-22.9
		c-0.6-1.1-1.8-1.8-3.1-1.8c-0.3,0-0.6,0-0.9,0.1c-1.5,0.4-2.6,1.8-2.6,3.3l-0.1,13.3c-15-6.5-22.1-20.6-22.2-20.7
		c-0.8-1.7-2.9-2.4-4.7-1.6c-1,0.5-1.7,1.4-1.9,2.5l-2.1,11.1c-10.3-2.1-14.1-9.1-14.3-9.4c-0.9-1.7-3-2.4-4.7-1.5
		c-0.1,0.1-0.2,0.1-0.3,0.2c-7.3,4.9-13.2,12.3-17.2,18.5c0.8-20.2,10.5-25.9,10.9-26.2C555.8,232.2,556.6,230.8,556.4,229.3z"/>
	<path class="st0" d="M539.4,293.3c1.9,0,3.5-1.5,3.6-3.4c0,0,0,0,0-0.1c0-6.3,0.9-12.6,2.5-18.6c0.1-0.6,0.1-1.2,0-1.7
		c2.7-5.1,8.5-14.8,16.4-21.2c3.1,3.7,9.5,9.3,20.7,10.3c1.8,0.2,3.4-1,3.7-2.8l1.1-5.9c4.8,6.2,13.3,14.6,26,18.3
		c1.8,0.5,3.8-0.5,4.3-2.4c0.1-0.3,0.1-0.6,0.1-0.9l0.1-8.5c7.7,7.9,23,18.4,48.8,18.4c1.9,0,3.5-1.6,3.5-3.5v-19.3
		c5.1,6.4,9.3,13.3,12.6,20.7c1.4,5.6,2.1,11.3,2.2,17c0,1.9,1.6,3.5,3.5,3.5c0,0,0,0,0.1,0c6.2,0,11.1,5,11.1,11.2
		c0,6.2-5,11.1-11.2,11.1l0,0c-1.9,0-3.5,1.6-3.5,3.6c0,39.1-31.7,70.7-70.8,70.8h-0.7c-39.1-0.1-70.7-31.7-70.8-70.8
		c0-1.9-1.6-3.5-3.5-3.5c-6.2,0-11.2-5-11.2-11.1C528.3,298.3,533.3,293.3,539.4,293.3L539.4,293.3L539.4,293.3z"/>
	<path class="st0" d="M594.3,407.7v-13.2c6.4,1.6,12.9,2.5,19.5,2.5h0.7c6.5,0,13-0.8,19.4-2.5v13.2c0.2,10.9-8.4,20-19.4,20.2
		c-10.9,0.2-20-8.4-20.2-19.4C594.3,408.2,594.3,407.9,594.3,407.7L594.3,407.7z"/>
	<path class="st0" d="M640.5,411.9h9.9c0.3,0.5,0.7,0.9,1.3,1.2l-2.4,31.9c-5.2-5.5-13.5-12.4-23.4-13.4
		C633.6,427.8,639.1,420.5,640.5,411.9z"/>
	<path class="st0" d="M393.2,157.5c-0.6-3.2,0-6.5,1.7-9.2c4,9.7,13.5,16,23.9,16h18.7c1.1,2.8-0.2,6-3,7.1l-6.8,2.8
		c-1.7,0.7-2.5,2.5-2,4.2l16.4,54.3l11,45.6c0,0.2,0.1,0.4,0.2,0.6l26.4,60l-24,42.4l-36.5-88.4L393.2,157.5z"/>
	<path class="st0" d="M717.8,460.8c-7.6,6-12,15.1-11.9,24.8l2.2,192.4H520.8l2.2-192.4c0.1-9.7-4.3-18.8-11.9-24.8l-64-50.3
		l11.5-20.2c0.2-0.3,0.3-0.6,0.3-0.9c0.3-0.3,0.6-0.6,0.9-1l25-44.3c5.9,3.4,24.3,14,42.7,26.2c39.4,26.2,44.2,36.7,44.5,40.1
		l3.3,44c0.1,1.5,1.2,2.7,2.6,3.1c0.3,0.1,0.6,0.1,0.9,0.1c1.2,0,2.3-0.6,2.9-1.6c0.1-0.2,10.6-15.8,23.8-17.3
		c1.9-0.2,3.3-1.9,3.1-3.8c0-0.4-0.1-0.7-0.3-1.1c1.9,0.4,3.8,0.6,5.8,0.6h0.7c-0.2,0.4-0.3,0.9-0.3,1.4v34.7c0,1.9,1.6,3.5,3.5,3.5
		s3.5-1.6,3.5-3.5v-31.9c14.9-1.6,27.6,17.1,27.7,17.3c1.1,1.6,3.2,2,4.8,1c0.9-0.6,1.5-1.6,1.5-2.6l3.3-44c0.1-1.1-0.4-2.1-1.2-2.8
		c2.6-5.2,11.9-16.1,43.5-37.2c19.5-12.9,39-24.1,43.6-26.7l25.1,44.4c-0.2,0.8,0,1.7,0.4,2.4l11.5,20.2L717.8,460.8z"/>
	<path class="st0" d="M836.8,157.5l-26.1,135.4l-36.5,88.4l-23.9-42.4l26.4-60.1c0.1-0.2,0.1-0.4,0.2-0.6l11-45.6l16.4-54.3
		c0.5-1.7-0.4-3.6-2-4.2l-6.8-2.8c-2.8-1.1-4.1-4.3-3-7.1h17.2c11,0,20.8-7,24.4-17.3C836.6,149.8,837.5,153.7,836.8,157.5z"/>
	<path class="st0" d="M418.9,50.7h390.8c10.5,0,19,8.5,19,19v68.6c0,10.5-8.5,19-19,19H418.9c-10.5,0-19-8.5-19-19V69.6
		C399.9,59.2,408.4,50.7,418.9,50.7z"/>
	<path class="st1" d="M436.2,174.5c4.6-1.9,6.8-7.1,4.9-11.8l-5.1-2.1h-16.8c-9.8,0-18.5-6.4-21.4-15.7l-3.3-1.4
		c-3.7,3.8-5.4,9.2-4.4,14.5l6.5,33.6h37.2l-4.4-14.4L436.2,174.5z"/>
	<path class="st1" d="M833.2,141.3l-1.2,0.6c-1.8,10.9-11.1,18.9-22.2,18.9h-16.2l-4.2,2.1c-1.9,4.6,0.3,9.8,4.9,11.7c0,0,0,0,0,0
		l6.8,2.8l-4.4,14.4H834l6.5-33.6C841.8,151.6,838.9,144.9,833.2,141.3z"/>
	<path class="st1" d="M635.3,391.9c-7.2,2.3-14.7,3.4-22.3,3.4h-0.7c-6.7,0-13.5-0.9-20-2.7l-1.5,1.2v10.5c7,2.1,14.2,3.2,21.5,3.2
		h0.7c8.3,0,16.5-1.4,24.3-4.1v-9.6L635.3,391.9z"/>
	<circle class="st2" cx="605.8" cy="451.7" r="3.3"/>
	<path class="st2" d="M605.8,461.7c-1.8,0-3.3,1.5-3.3,3.3s1.5,3.3,3.3,3.3s3.3-1.5,3.3-3.3l0,0
		C609.1,463.2,607.7,461.7,605.8,461.7z"/>
	<path class="st2" d="M633.9,340h-37.4c-2.4,0-4.7,1.1-6.3,3c-1.5,1.9-2.1,4.3-1.5,6.6c3.4,14.6,18,23.7,32.6,20.3
		c10.1-2.3,18-10.2,20.3-20.3c0.5-2.3,0-4.8-1.5-6.6C638.7,341.1,636.4,340,633.9,340z M633.9,347h0.1h0.1c0.2,0.1,0.4,0.2,0.5,0.3
		c0.2,0.2,0.3,0.6,0.2,0.9c-0.3,1.2-0.7,2.5-1.3,3.6h-36.7c-0.5-1.2-1-2.4-1.3-3.6c-0.1-0.3,0-0.6,0.2-0.9c0.1-0.2,0.3-0.3,0.5-0.3
		h0.1h0.1H633.9z M602.1,358.8h26.3C620.8,365.3,609.7,365.3,602.1,358.8z"/>
	<path class="st2" d="M612.3,329.4h10.9c1.9,0,3.5-1.6,3.5-3.5c0-1.9-1.6-3.5-3.5-3.5h-10.9c-0.8,0-1.5-0.7-1.5-1.5
		c0-0.3,0.1-0.6,0.3-0.8c5.5-7.9,7-15.5,5.2-25.5c-0.3-1.9-2.2-3.2-4.1-2.8s-3.2,2.2-2.8,4.1c1.5,8.3,0.4,14-4,20.3
		c-2.7,3.8-1.8,9.1,2.1,11.8C608.9,328.9,610.6,329.4,612.3,329.4L612.3,329.4z"/>
	<path class="st2" d="M591.5,297c0,1.9,1.6,3.5,3.5,3.5c1.9,0,3.5-1.6,3.5-3.5c0-5.3-4.3-9.7-9.7-9.7c-5.3,0-9.7,4.3-9.7,9.7
		c0,1.9,1.6,3.5,3.5,3.5s3.5-1.6,3.5-3.5c0-1.5,1.2-2.7,2.7-2.7S591.5,295.5,591.5,297z"/>
	<path class="st2" d="M638.2,287.3c-5.3,0-9.7,4.3-9.7,9.7c0,1.9,1.6,3.5,3.5,3.5c1.9,0,3.5-1.6,3.5-3.5c-0.1-1.5,1.1-2.8,2.6-2.9
		c1.5-0.1,2.8,1.1,2.9,2.6c0,0.1,0,0.2,0,0.3c0,1.9,1.6,3.5,3.5,3.5c1.9,0,3.5-1.6,3.5-3.5C647.9,291.6,643.6,287.3,638.2,287.3z"/>
	<path class="st2" d="M573.9,286.5c1.7,1,3.8,0.4,4.8-1.3c2.9-5,9.3-6.7,14.3-3.9c1.6,0.9,2.9,2.3,3.9,3.9c1,1.7,3.1,2.2,4.8,1.3
		c1.7-1,2.2-3.1,1.3-4.8l0,0c-4.8-8.3-15.5-11.2-23.8-6.4c-2.7,1.5-4.9,3.7-6.4,6.4C571.7,283.4,572.2,285.6,573.9,286.5z"/>
	<path class="st2" d="M624.4,286.5c1.7,1,3.8,0.4,4.8-1.3c0,0,0,0,0,0c2.9-5,9.3-6.7,14.3-3.9c1.6,0.9,2.9,2.3,3.9,3.9
		c0.9,1.7,3,2.4,4.7,1.5c1.7-0.9,2.4-3,1.5-4.7c0-0.1-0.1-0.2-0.1-0.3c-4.8-8.3-15.5-11.2-23.8-6.4c-2.7,1.5-4.9,3.7-6.4,6.4
		C622.2,283.4,622.7,285.6,624.4,286.5z"/>
	<path class="st2" d="M451.6,143.3c1.8,0.7,3.8-0.2,4.5-2c0,0,0,0,0,0l26.6-70.1c0.7-1.8-0.2-3.8-2-4.5c-1.8-0.7-3.8,0.2-4.5,2
		l-26.6,70.1C448.9,140.6,449.8,142.6,451.6,143.3z"/>
	<path class="st2" d="M480,143.3c0.4,0.2,0.8,0.2,1.2,0.2c1.4,0,2.7-0.9,3.3-2.3l26.6-70.1c0.7-1.8-0.2-3.8-2-4.5s-3.8,0.2-4.5,2
		l0,0L478,138.8C477.3,140.6,478.2,142.7,480,143.3C480,143.3,480,143.3,480,143.3z"/>
	<path class="st2" d="M431.8,100.3c6.1,0,11.1-5,11.1-11.1s-5-11.1-11.1-11.1c-6.1,0-11.1,4.9-11.1,11.1
		C420.8,95.3,425.7,100.3,431.8,100.3z M431.8,85.1c2.3,0,4.1,1.8,4.1,4.1c0,2.3-1.8,4.1-4.1,4.1c-2.3,0-4.1-1.8-4.1-4.1
		c0,0,0,0,0,0C427.8,87,429.6,85.1,431.8,85.1z"/>
	<path class="st2" d="M431.8,128.7c6.1,0,11.1-4.9,11.1-11.1s-4.9-11.1-11.1-11.1c-6.1,0-11.1,4.9-11.1,11.1c0,0,0,0,0,0
		C420.8,123.7,425.7,128.7,431.8,128.7z M431.8,113.5c2.3,0,4.1,1.8,4.1,4.1c0,2.3-1.8,4.1-4.1,4.1s-4.1-1.8-4.1-4.1c0,0,0,0,0,0
		C427.7,115.4,429.6,113.5,431.8,113.5z"/>
	<path class="st2" d="M835.6,138.8c0-0.2,0-0.4,0-0.6V69.6c0-14.3-11.6-25.9-25.9-25.9H418.8c-14.3,0-25.9,11.6-25.9,25.9v68.6
		c0,0.7,0,1.4,0.1,2.1c-0.5,0.2-1,0.5-1.4,0.9c-4.5,4.6-6.5,11.2-5.3,17.6l26.2,135.7c0,0.2,0.1,0.5,0.2,0.7l38.7,93.7l-11.8,20.8
		c-0.9,1.5-0.5,3.4,0.9,4.5l66.3,52.2c5.9,4.7,9.3,11.8,9.2,19.3l-2.2,195.9v348.9c-2.8-0.8-5.6-1.2-8.5-1.2c-1.9,0-3.5,1.6-3.5,3.5
		v23.6l-42.4,32.3c-4.8,3.7-5.8,10.6-2.1,15.4c2.1,2.7,5.3,4.3,8.8,4.3h121.8c1.9,0,3.5-1.6,3.5-3.5v-57.1c0-0.4-0.1-0.8-0.2-1.2
		l23.6-247.4l23.6,247.4c-0.1,0.4-0.2,0.8-0.2,1.2v57c0,1.9,1.6,3.5,3.5,3.5h121.7c6.1,0,11-4.9,11-11c0-3.4-1.6-6.7-4.3-8.8
		l-42.4-32.3v-23.6c0-1.9-1.6-3.5-3.5-3.5c-2.9,0-5.7,0.4-8.5,1.2V681.5c0-0.6-0.2-1.1-0.4-1.6l-2.2-194.3
		c-0.1-7.5,3.3-14.6,9.2-19.3l66.3-52.2c1.4-1.1,1.7-3,0.9-4.5L778,389.8c0.2-0.2,0.3-0.5,0.5-0.8l38.8-93.9
		c0.1-0.2,0.2-0.4,0.2-0.7l26.2-135.7C845.2,151.1,842,143.3,835.6,138.8z M399.9,69.6c0-10.5,8.5-18.9,19-19h390.8
		c10.5,0,18.9,8.5,19,19v68.6c0,10.5-8.5,19-19,19H418.9c-10.5,0-18.9-8.5-19-19L399.9,69.6z M786,171c1.3,3.1,3.7,5.5,6.8,6.7
		l3.9,1.6l-15.5,51.3l-0.1,0.2l-11,45.4l-26.5,60.2c-0.4,0.1-0.8,0.2-1.2,0.4c-0.2,0.1-22.7,12.7-45.1,27.6
		c-33.7,22.4-43.4,34.3-46.3,40.5h-10.3v-12.6c29.7-10.8,50-38.4,51.3-70c9.8-1.9,16.3-11.4,14.4-21.2c-1.4-7.3-7.1-13-14.4-14.4
		c-0.2-5.3-1-10.5-2.3-15.6c0.9-9-0.4-18.1-3.9-26.5c-9.9-24.1-34.2-34.9-52.7-39.7c-0.9-0.2-22.5-5.8-55.1,3.9l-12.8-14
		c-1.3-1.4-3.5-1.5-4.9-0.2c-0.8,0.7-1.2,1.8-1.1,2.9l1.9,18.8c-4.7-1.9-11.5-3.9-18.4-3.1c-1.9,0.2-3.3,2-3,3.9
		c0.1,0.9,0.6,1.7,1.3,2.3c2.7,2.1,6.5,5.9,7.9,8.9c-4.8,4-14.8,15.9-11.7,43.5c0.1,0.6,0.3,1.1,0.6,1.6c-1,4.4-1.5,8.8-1.7,13.3
		c-9.8,1.9-16.3,11.4-14.4,21.2c1.4,7.3,7.1,13,14.4,14.4c1.3,31.6,21.5,59.2,51.2,70v12.7h-9.6c-2.9-6.2-12.6-18.1-46.3-40.5
		c-20.8-13.8-41.7-25.7-44.7-27.3l-26.8-60.8l-11-45.4l-0.1-0.2l-15.5-51.3l3.9-1.6c5.4-2.2,8.5-7.8,7.5-13.6h340.4
		C784.9,166.5,785.1,168.9,786,171z M587.6,411.9c1.4,8.8,7.2,16.3,15.3,20.1c-9,1.7-16.5,7.9-21.3,13.1l-2.5-33.1H587.6z
		 M556.4,229.3c-0.3-3-2.1-6-4.2-8.6c3.9,0.9,7.7,2.4,11.3,4.4c1.6,1,3.8,0.5,4.8-1.2c0.4-0.6,0.6-1.4,0.5-2.2l-1.5-14.5l7.1,7.9
		c0.9,1,2.3,1.4,3.6,1c31.7-10,53.1-4.6,53.4-4.5c24.6,6.4,40.7,18.3,47.9,35.3c1.3,3.2,2.3,6.5,3,9.9
		c-6.7-10.6-12.8-15.9-13.1-16.2c-1.5-1.3-3.7-1.1-4.9,0.3c-0.6,0.6-0.9,1.4-0.9,2.3v24.6c-33.1-1.4-45.2-22-45.7-22.9
		c-0.6-1.1-1.8-1.8-3.1-1.8c-0.3,0-0.6,0-0.9,0.1c-1.5,0.4-2.6,1.8-2.6,3.3l-0.1,13.3c-15-6.5-22.1-20.6-22.2-20.7
		c-0.8-1.7-2.9-2.4-4.7-1.6c-1,0.5-1.7,1.4-1.9,2.5l-2.1,11.1c-10.3-2.1-14.1-9.1-14.3-9.4c-0.9-1.7-3-2.4-4.7-1.5
		c-0.1,0.1-0.2,0.1-0.3,0.2c-7.3,4.9-13.2,12.3-17.2,18.5c0.8-20.2,10.5-25.9,10.9-26.2C555.8,232.2,556.6,230.8,556.4,229.3z
		 M539.4,293.3c1.9,0,3.5-1.5,3.6-3.4c0,0,0,0,0-0.1c0-6.3,0.9-12.6,2.5-18.6c0.1-0.6,0.1-1.2,0-1.7c2.7-5.1,8.5-14.8,16.4-21.2
		c3.1,3.7,9.5,9.3,20.7,10.3c1.8,0.2,3.4-1,3.7-2.8l1.1-5.9c4.8,6.2,13.3,14.6,26,18.3c1.8,0.5,3.8-0.5,4.3-2.4
		c0.1-0.3,0.1-0.6,0.1-0.9l0.1-8.5c7.7,7.9,23,18.4,48.8,18.4c1.9,0,3.5-1.6,3.5-3.5v-19.3c5.1,6.4,9.3,13.3,12.6,20.7
		c1.4,5.6,2.1,11.3,2.2,17c0,1.9,1.6,3.5,3.5,3.5c0,0,0,0,0.1,0c6.2,0,11.1,5,11.1,11.2c0,6.2-5,11.1-11.2,11.1l0,0
		c-1.9,0-3.5,1.6-3.5,3.6c0,39.1-31.7,70.7-70.8,70.8h-0.7c-39.1-0.1-70.7-31.7-70.8-70.8c0-1.9-1.6-3.5-3.5-3.5
		c-6.2,0-11.2-5-11.2-11.1C528.3,298.3,533.3,293.3,539.4,293.3L539.4,293.3L539.4,293.3z M594.3,407.7v-13.2
		c6.4,1.6,12.9,2.5,19.5,2.5h0.7c6.5,0,13-0.8,19.4-2.5v13.2c0.2,10.9-8.4,20-19.4,20.2c-10.9,0.2-20-8.4-20.2-19.4
		C594.3,408.2,594.3,407.9,594.3,407.7L594.3,407.7z M640.5,411.9h9.9c0.3,0.5,0.7,0.9,1.3,1.2l-2.4,31.9
		c-5.2-5.5-13.5-12.4-23.4-13.4C633.6,427.8,639.1,420.5,640.5,411.9L640.5,411.9z M393.2,157.5c-0.6-3.2,0-6.5,1.7-9.2
		c4,9.7,13.5,16,23.9,16h18.7c1.1,2.8-0.2,6-3,7.1l-6.8,2.8c-1.7,0.7-2.5,2.5-2,4.2l16.4,54.3l11,45.6c0,0.2,0.1,0.4,0.2,0.6
		l26.4,60l-24,42.4l-36.5-88.4L393.2,157.5z M507.4,1060.7c0.9-0.7,1.4-1.7,1.4-2.8v-21.5c2.4,0.4,4.8,1.1,7,2.2l0.3,0.1
		c7.7,3.9,12.6,11.7,12.8,20.3c0,1,0.5,2,1.3,2.6c0.6,0.5,1.4,0.8,2.2,0.8h25.9c2.5,0,4.8-1,6.6-2.7c1.7-1.7,2.6-4,2.5-6.3
		c0-1.2,0.9-2.2,2.1-2.2c0,0,0,0,0.1,0h14.9v39.5H467.9L507.4,1060.7z M584.3,1101.2H466.7c-1.4,0.1-2.7-0.6-3.5-1.7
		c-0.4-0.5-0.6-1.1-0.7-1.7h121.8V1101.2z M645.1,1101.2v-3.5h121.7c-0.1,0.6-0.4,1.2-0.7,1.7c-0.8,1.1-2.1,1.8-3.5,1.7H645.1z
		 M722,1060.7l39.5,30H645.1v-39.5h14.9c1.2,0,2.1,0.9,2.1,2.1c0,0,0,0,0,0.1c0,2.4,0.9,4.6,2.5,6.3c1.7,1.8,4.1,2.7,6.6,2.7h25.9
		c0.8,0,1.6-0.3,2.3-0.9c0.8-0.6,1.2-1.6,1.3-2.6c0.2-8.6,5.1-16.4,12.8-20.3l0.3-0.1c2.2-1.1,4.6-1.8,7-2.2v21.5
		C720.6,1059,721.1,1060.1,722,1060.7z M693.9,1055.5h-22.7c-0.6,0-1.2-0.2-1.6-0.7c-0.4-0.3-0.6-0.8-0.5-1.3c0.1-5-3.9-9.2-9-9.3
		c-0.1,0-0.1,0-0.2,0h-14.8l-27-282.2c0-1.9-1.6-3.5-3.5-3.5s-3.5,1.6-3.5,3.5l-26.9,282.1h-14.8c-5,0-9.1,4.1-9.1,9.1
		c0,0.1,0,0.1,0,0.2c0,0.5-0.2,1-0.5,1.3c-0.4,0.4-1,0.7-1.6,0.7h-22.7c-1.2-9.2-6.7-17.4-14.7-22.1V685h187.8v348.4
		C700.6,1038.1,695.1,1046.2,693.9,1055.5L693.9,1055.5z M717.8,460.8c-7.6,6-12,15.1-11.9,24.8l2.2,192.4H520.8l2.2-192.4
		c0.1-9.7-4.3-18.8-11.9-24.8l-64-50.3l11.5-20.2c0.2-0.3,0.3-0.6,0.3-0.9c0.3-0.3,0.6-0.6,0.9-1l25-44.3c5.9,3.4,24.3,14,42.7,26.2
		c39.4,26.2,44.2,36.7,44.5,40.1l3.3,44c0.1,1.5,1.2,2.7,2.6,3.1c0.3,0.1,0.6,0.1,0.9,0.1c1.2,0,2.3-0.6,2.9-1.6
		c0.1-0.2,10.6-15.8,23.8-17.3c1.9-0.2,3.3-1.9,3.1-3.8c0-0.4-0.1-0.7-0.3-1.1c1.9,0.4,3.8,0.6,5.8,0.6h0.7
		c-0.2,0.4-0.3,0.9-0.3,1.4v34.7c0,1.9,1.6,3.5,3.5,3.5s3.5-1.6,3.5-3.5v-31.9c14.9-1.6,27.6,17.1,27.7,17.3c1.1,1.6,3.2,2,4.8,1
		c0.9-0.6,1.5-1.6,1.5-2.6l3.3-44c0.1-1.1-0.4-2.1-1.2-2.8c2.6-5.2,11.9-16.1,43.5-37.2c19.5-12.9,39-24.1,43.6-26.7l25.1,44.4
		c-0.2,0.8,0,1.7,0.4,2.4l11.5,20.2L717.8,460.8z M836.8,157.4l-26.1,135.4l-36.5,88.4l-23.9-42.4l26.4-60.1
		c0.1-0.2,0.1-0.4,0.2-0.6l11-45.6l16.4-54.3c0.5-1.7-0.4-3.6-2-4.2l-6.8-2.8c-2.8-1.1-4.1-4.3-3-7.1h17.2c11,0,20.8-7,24.4-17.3
		C836.6,149.8,837.5,153.7,836.8,157.4L836.8,157.4z"/>
	<path class="st1" d="M693.9,1055.5h-22.7c-0.6,0-1.2-0.2-1.6-0.7c-0.4-0.3-0.6-0.8-0.5-1.3c0.1-5-3.9-9.2-9-9.3c-0.1,0-0.1,0-0.2,0
		h-14.8l-27-282.1c0-1.9-1.6-3.5-3.5-3.5s-3.5,1.6-3.5,3.5l-26.9,282.1h-14.8c-5,0-9.1,4.1-9.1,9.1c0,0.1,0,0.1,0,0.2
		c0,0.5-0.2,1-0.5,1.3c-0.4,0.4-1,0.7-1.6,0.7h-22.7c-1.2-9.2-6.7-17.4-14.7-22.1V685h187.8v348.4
		C700.6,1038.1,695.1,1046.2,693.9,1055.5z"/>
	<path class="st3" d="M556.4,229.3c-0.3-3-2.1-6-4.2-8.6c3.9,0.9,7.7,2.4,11.3,4.4c1.6,1,3.8,0.5,4.8-1.2c0.4-0.6,0.6-1.4,0.5-2.2
		l-1.5-14.5l7.1,7.9c0.9,1,2.3,1.4,3.6,1c31.7-10,53.1-4.6,53.4-4.5c24.6,6.4,40.7,18.3,47.9,35.3c1.3,3.2,2.3,6.5,3,9.9
		c-6.7-10.6-12.8-15.9-13.1-16.2c-1.5-1.3-3.7-1.1-4.9,0.3c-0.6,0.6-0.9,1.4-0.9,2.3v24.6c-33.1-1.4-45.2-22-45.7-22.9
		c-0.6-1.1-1.8-1.8-3.1-1.8c-0.3,0-0.6,0-0.9,0.1c-1.5,0.4-2.6,1.8-2.6,3.3l-0.1,13.3c-15-6.5-22.1-20.6-22.2-20.7
		c-0.8-1.7-2.9-2.4-4.7-1.6c-1,0.5-1.7,1.4-1.9,2.5l-2.1,11.1c-10.3-2.1-14.1-9.1-14.3-9.4c-0.9-1.7-3-2.4-4.7-1.5
		c-0.1,0.1-0.2,0.1-0.3,0.2c-7.3,4.9-13.2,12.3-17.2,18.5c0.8-20.2,10.5-25.9,10.9-26.2C555.8,232.2,556.6,230.8,556.4,229.3z"/>
	<path class="st3" d="M507.4,1060.7c0.9-0.7,1.4-1.7,1.4-2.8v-21.5c2.4,0.4,4.8,1.1,7,2.2l0.3,0.1c7.7,3.9,12.6,11.7,12.8,20.3
		c0,1,0.5,2,1.3,2.6c0.6,0.5,1.4,0.8,2.2,0.8h25.9c2.5,0,4.8-1,6.6-2.7c1.7-1.7,2.6-4,2.5-6.3c0-1.2,0.9-2.2,2.1-2.2c0,0,0,0,0.1,0
		h14.9v39.5H467.9L507.4,1060.7z"/>
	<path class="st3" d="M722,1060.7l39.5,30H645.1v-39.5h14.9c1.2,0,2.1,0.9,2.1,2.1c0,0,0,0,0,0.1c0,2.4,0.9,4.6,2.5,6.3
		c1.7,1.8,4.1,2.7,6.6,2.7h25.9c0.8,0,1.6-0.3,2.3-0.9c0.8-0.6,1.2-1.6,1.3-2.6c0.2-8.6,5.1-16.4,12.8-20.3l0.3-0.1
		c2.2-1.1,4.6-1.8,7-2.2v21.5C720.6,1059,721.1,1060.1,722,1060.7z"/>
</g>
</svg>
