<?xml version="1.0" encoding="utf-8"?>
<!-- Generator: Adobe Illustrator 22.1.0, SVG Export Plug-In . SVG Version: 6.00 Build 0)  -->
<svg version="1.1" id="Layer_1" xmlns="http://www.w3.org/2000/svg" xmlns:xlink="http://www.w3.org/1999/xlink" x="0px" y="0px"
	 viewBox="0 0 1230 1152" style="enable-background:new 0 0 1230 1152;" xml:space="preserve">
<style type="text/css">
	.st0{fill:#FFFFFF;}
	.st1{opacity:0.4;fill:#0073EC;enable-background:new    ;}
	.st2{opacity:0.4;fill:#A644E5;enable-background:new    ;}
	.st3{fill:#0073EC;}
</style>
<title>qArtboard 1</title>
<path class="st0" d="M822.5,687.8c-2.1,0-3.8,1.6-4,3.6l-30.9,323.4h-17c-5.8,0-10.5,4.7-10.5,10.4c0,0.1,0,0.1,0,0.2
	c0,0.6-0.2,1.1-0.6,1.5c-0.5,0.5-1.1,0.8-1.8,0.8h-26c-1.4-10.5-7.6-19.8-16.8-25.3l10.1-281.8c0.2,0,0.4,0,0.5,0
	c12.5-1,21.8-11.9,20.8-24.3c-0.1-0.8-0.2-1.7-0.3-2.5l-1.3-6.6l1.6-0.1c7.9-0.6,13.8-7.5,13.2-15.4c-0.6-7.9-7.5-13.8-15.4-13.2
	l0,0l-4.8,0.4l-9.9-55.9h184.2l-9.8,55.8l-4.8-0.4c-7.9-0.6-14.8,5.3-15.4,13.2c-0.6,7.9,5.3,14.8,13.2,15.4l1.6,0.1l-1.3,6.6
	c-2.4,12.3,5.7,24.2,18,26.5c0.7,0.1,1.5,0.2,2.2,0.3l15.3,280.4c-10.6,5.1-17.9,15.1-19.5,26.7h-26c-0.7,0-1.3-0.3-1.8-0.8
	c-0.4-0.4-0.6-0.9-0.6-1.5c0.1-5.8-4.5-10.5-10.2-10.6c-0.1,0-0.1,0-0.2,0h-17l-30.9-323.4C826.3,689.3,824.6,687.8,822.5,687.8z"/>
<path class="st1" d="M822.5,687.8c-2.1,0-3.8,1.6-4,3.6l-30.9,323.4h-17c-5.8,0-10.5,4.7-10.5,10.4c0,0.1,0,0.1,0,0.2
	c0,0.6-0.2,1.1-0.6,1.5c-0.5,0.5-1.1,0.8-1.8,0.8h-26c-1.4-10.5-7.6-19.8-16.8-25.3l10.1-281.8c0.2,0,0.4,0,0.5,0
	c12.5-1,21.8-11.9,20.8-24.3c-0.1-0.8-0.2-1.7-0.3-2.5l-1.3-6.6l1.6-0.1c7.9-0.6,13.8-7.5,13.2-15.4c-0.6-7.9-7.5-13.8-15.4-13.2
	l0,0l-4.8,0.4l-9.9-55.9h184.2l-9.8,55.8l-4.8-0.4c-7.9-0.6-14.8,5.3-15.4,13.2c-0.6,7.9,5.3,14.8,13.2,15.4l1.6,0.1l-1.3,6.6
	c-2.4,12.3,5.7,24.2,18,26.5c0.7,0.1,1.5,0.2,2.2,0.3l15.3,280.4c-10.6,5.1-17.9,15.1-19.5,26.7h-26c-0.7,0-1.3-0.3-1.8-0.8
	c-0.4-0.4-0.6-0.9-0.6-1.5c0.1-5.8-4.5-10.5-10.2-10.6c-0.1,0-0.1,0-0.2,0h-17l-30.9-323.4C826.3,689.3,824.6,687.8,822.5,687.8z"/>
<path class="st0" d="M945.5,1033.8l45.2,34.4H857.3v-45.3h17.1c1.3,0,2.4,1.1,2.5,2.4c0,0,0,0,0,0.1c-0.1,2.7,1,5.3,2.9,7.2
	c2,2,4.7,3.2,7.5,3.2H917c1,0,1.9-0.4,2.6-1c0.9-0.7,1.4-1.8,1.4-2.9c0.3-13.1,10-24,22.9-25.9v24.7
	C944,1031.8,944.5,1033,945.5,1033.8z"/>
<path class="st0" d="M981.2,549.7l-47.5,152.4c-2.3,7.8-10.4,12.3-18.2,10c-7.2-2.1-11.7-9.4-10.3-16.8l2.1-11
	c0.4-2.2-1-4.3-3.2-4.7c-0.1,0-0.3,0-0.4-0.1l-6.1-0.5c-3.5-0.2-6.1-3.3-5.9-6.8c0.2-3.5,3.3-6.1,6.8-5.9c0,0,0.1,0,0.1,0l8.4,0.7
	c2.1,0.2,3.9-1.3,4.2-3.3l11.3-64l3.3-14.1c0.4-0.6,0.6-1.4,0.6-2.2v-0.3l8.4-35.8c0-0.2,0.1-0.5,0.1-0.7l4-74.8l52-34.7
	C997,485.9,981.8,547,981.2,549.7z"/>
<path class="st0" d="M853.5,290h9.8l-2.8,38c-5.5-5.9-14.1-13-24.4-15C845.3,308.7,851.9,300.1,853.5,290z"/>
<path class="st0" d="M741.7,183.6c0-2.2-1.8-4-4-4c-7.1-0.2-12.6-6-12.5-13.1c0.2-6.8,5.6-12.2,12.4-12.5h0.1c2.2,0,4-1.8,4-4
	c0.7-45,37.8-80.9,82.8-80.2c44,0.7,79.5,36.2,80.2,80.2c0,2.2,1.8,4,4,4c0,0,0.1,0,0.1,0c7.1,0.2,12.6,6.1,12.4,13.2
	c-0.2,6.8-5.7,12.2-12.5,12.4c-2.2,0-4,1.8-4,4.1c-0.1,44.8-36.3,81.1-81.1,81.1h-0.8C777.9,264.7,741.7,228.4,741.7,183.6z"/>
<path class="st0" d="M822.8,272.8h0.8c7.5,0,15-1,22.3-2.9v15.2c0.3,12.5-9.7,22.9-22.2,23.1c-12.5,0.3-22.9-9.7-23.1-22.2
	c0-0.3,0-0.6,0-1V270C807.8,271.9,815.3,272.8,822.8,272.8z"/>
<path class="st0" d="M809.7,312.6c-11.4,1.1-20.9,9-26.8,15.3l-2.8-38H793C794.6,299.7,800.8,308.2,809.7,312.6z"/>
<path class="st0" d="M729.3,310c0.2-0.1,0.4-0.3,0.5-0.5c11.1-11.6,26.2-18.6,42.3-19.5l3.6,48.5c0.2,2.2,2.1,3.9,4.3,3.7
	c1.2-0.1,2.3-0.7,3-1.8c0.2-0.2,14.7-21.8,31.8-19.9v36.5c0,2.2,1.8,4,4,4s4-1.8,4-4v-39.8c0-0.5-0.1-1.1-0.3-1.5h0.8
	c2.2,0,4.5-0.2,6.7-0.7c-0.9,2,0,4.3,1.9,5.2c0.4,0.2,0.8,0.3,1.3,0.3c15.1,1.7,27.2,19.7,27.3,19.9c0.7,1.1,2,1.8,3.3,1.8
	c0.3,0,0.7,0,1-0.1c1.7-0.4,2.9-1.9,3-3.6l3.6-48.5c16.1,0.9,31.2,7.9,42.3,19.5c0.2,0.2,0.3,0.3,0.5,0.5
	c8.2,5.9,32.4,28.8,82.3,114l-4.6,3.1l0,0L936.6,464l-13.9-20c-1.3-1.8-3.8-2.3-5.6-1c-1.1,0.8-1.7,2-1.7,3.4l3,136.1l-3,12.6H728.9
	c-0.3,0-0.6,0-0.9,0.1l-3-12.7l3-136.1c0-2.2-1.7-4-3.9-4.1c-1.3,0-2.6,0.6-3.4,1.7l-13.9,20L647,424.1
	C696.9,338.8,721.1,315.9,729.3,310z"/>
<path class="st0" d="M709.7,702l-47.4-152.3c-0.7-2.8-15.8-63.8-9.8-112.3l52,34.7l4,74.8c0,0.2,0,0.5,0.1,0.7l8.4,35.8v0.3
	c0,0.8,0.2,1.5,0.6,2.2l3.3,14.1l11.3,64c0.4,2,2.2,3.5,4.2,3.3l8.4-0.7c3.5-0.2,6.5,2.4,6.8,5.9c0.2,3.4-2.3,6.4-5.8,6.7l-6.1,0.5
	c-2.2,0.2-3.8,2.1-3.7,4.3c0,0.1,0,0.3,0.1,0.4l2.1,11c1.4,8-4,15.6-12,16.9C718.9,713.5,711.8,709.1,709.7,702z"/>
<path class="st0" d="M699.5,1033.8c1-0.8,1.6-1.9,1.6-3.2v-24.7c2.7,0.4,5.4,1.2,7.9,2.5c0.1,0.1,0.2,0.1,0.3,0.2
	c8.8,4.5,14.5,13.4,14.7,23.3c0,1.2,0.6,2.3,1.5,3c0.7,0.6,1.6,0.9,2.5,0.9h29.7c2.8,0,5.5-1.1,7.5-3.2c1.9-1.9,3-4.5,2.9-7.2
	c0-1.3,1-2.5,2.4-2.5c0,0,0,0,0.1,0h17.1v45.3H654.3L699.5,1033.8z"/>
<path class="st0" d="M787.7,1080.2H652.9c-1.6,0.1-3.1-0.7-4-2c-0.4-0.6-0.7-1.3-0.8-2h139.6V1080.2z"/>
<path class="st0" d="M857.3,1080.2v-4h139.6c-0.1,0.7-0.4,1.4-0.8,2c-0.9,1.3-2.4,2.1-4,2H857.3z"/>
<path class="st0" d="M344.8,1024.1v7.4c-5.5,0.1-9.9,4.5-9.9,10c0,1.1-0.9,2-2,2h-14.1c-1.1,0-2-0.9-2-2v-6c0-0.4-0.1-0.7-0.2-1.1
	c0.1-0.4,0.2-0.7,0.2-1.1v-9.2L344.8,1024.1z"/>
<path class="st0" d="M286,1045.7c7.1-3.4,14.8-5.5,22.7-6v1.9c0,5.5,4.5,10,10,10h14.1c5.5,0,10-4.5,10-10c0-1,0.8-1.9,1.8-2v30.7
	H235.4L286,1045.7z"/>
<path class="st0" d="M344.8,1083.1H239.4c-0.3,0-0.6,0-0.9-0.1h-0.3c-0.2,0-0.4-0.1-0.6-0.1h-0.2c-0.2-0.1-0.4-0.1-0.7-0.2l-0.3-0.1
	l-0.4-0.2l-0.3-0.1l-0.3-0.2l-0.2-0.2c-0.1-0.1-0.2-0.2-0.3-0.2l-0.2-0.2c-0.1-0.1-0.3-0.2-0.4-0.3l-0.1-0.1
	c-0.1-0.1-0.2-0.2-0.3-0.3H234c-0.1-0.2-0.3-0.4-0.4-0.5l0,0c-0.4-0.6-0.8-1.3-1-2h112.2V1083.1z"/>
<path class="st0" d="M456.5,1083.1v-4.9h112.2c-0.2,0.7-0.6,1.4-1,2l0,0c-0.1,0.2-0.3,0.4-0.4,0.5l0,0c-0.1,0.1-0.2,0.2-0.3,0.3
	l-0.1,0.1l-0.4,0.3l-0.2,0.2c-0.1,0.1-0.2,0.2-0.3,0.2l-0.2,0.2l-0.3,0.2l-0.3,0.1l-0.4,0.2l-0.3,0.1c-0.2,0.1-0.4,0.1-0.7,0.2h-0.2
	c-0.2,0-0.4,0.1-0.6,0.1h-0.2c-0.3,0-0.6,0-0.9,0.1L456.5,1083.1z"/>
<path class="st0" d="M565.9,1070.2H456.5v-30.7c1,0.1,1.9,1,1.9,2c0,5.5,4.5,10,10,10h14.1c5.5,0,10-4.5,10-10v-1.9
	c7.9,0.5,15.6,2.6,22.7,6L565.9,1070.2z"/>
<path class="st0" d="M484.7,1034.4c-0.1,0.4-0.2,0.7-0.2,1.1v6c0,1.1-0.9,2-2,2h-14.1c-1.1,0-2-0.9-2-2c0-5.5-4.4-9.9-9.9-10v-7.4
	h28v9.2C484.6,1033.7,484.6,1034.1,484.7,1034.4z"/>
<path class="st0" d="M507.1,734.5l-11.9,281.6h-40.8l-51-321.8c-0.1-0.5-0.3-1-0.5-1.4l-0.3-0.5c-0.7-1.2-2-1.9-3.4-1.9l0,0
	c-1.4,0-2.7,0.7-3.4,1.9l-0.3,0.5c-0.3,0.4-0.4,0.9-0.5,1.4l-51,321.8h-39.4l-13.4-281.6c0-1.3-0.3-29.8,7.8-67.5l11.9,42
	c2.8,9.7,11.7,16.4,21.8,16.5c0.6,0,1.2,0,1.8-0.1c12.5-1,21.8-11.9,20.8-24.4c-0.1-0.8-0.2-1.6-0.3-2.5l-1.3-6.6l1.6-0.1
	c7.9-0.6,13.8-7.5,13.2-15.4c-0.6-7.9-7.5-13.8-15.4-13.2l-4.8,0.4l-14.6-82.5h133.4C508.4,653.5,507.2,733.8,507.1,734.5z"/>
<path class="st2" d="M507.1,734.5l-11.9,281.6h-40.8l-51-321.8c-0.1-0.5-0.3-1-0.5-1.4l-0.3-0.5c-0.7-1.2-2-1.9-3.4-1.9l0,0
	c-1.4,0-2.7,0.7-3.4,1.9l-0.3,0.5c-0.3,0.4-0.4,0.9-0.5,1.4l-51,321.8h-39.4l-13.4-281.6c0-1.3-0.3-29.8,7.8-67.5l11.9,42
	c2.8,9.7,11.7,16.4,21.8,16.5c0.6,0,1.2,0,1.8-0.1c12.5-1,21.8-11.9,20.8-24.4c-0.1-0.8-0.2-1.6-0.3-2.5l-1.3-6.6l1.6-0.1
	c7.9-0.6,13.8-7.5,13.2-15.4c-0.6-7.9-7.5-13.8-15.4-13.2l-4.8,0.4l-14.6-82.5h133.4C508.4,653.5,507.2,733.8,507.1,734.5z"/>
<path class="st0" d="M267.6,454.1l48.1,18l8.2,3.2l-3.4,75.8c0,0.3,0,0.6,0.1,0.9l4.3,24.2c-0.1,0.3-0.1,0.6-0.1,0.9
	c0,0.8,0.2,1.5,0.6,2.1l15.8,89.3c0.4,2,2.2,3.5,4.3,3.3l8.4-0.7c3.5-0.3,6.5,2.3,6.8,5.7c0.3,3.5-2.3,6.5-5.7,6.8c0,0-0.1,0-0.1,0
	l-6.1,0.5c-2.2,0.2-3.8,2.1-3.7,4.3c0,0.1,0,0.3,0.1,0.4l2.1,11c1.5,8-3.8,15.6-11.7,17.1c-7.4,1.4-14.7-3.1-16.8-10.3l-43.4-152
	L267.6,454.1z"/>
<path class="st0" d="M511.3,439.2l-22.3-3.5c-2.2-0.3-4.2,1.1-4.6,3.3c0,0.2,0,0.4,0,0.6c0,19.5-18.4,35.3-41,35.3c-2.2,0-4,1.8-4,4
	s1.8,4,4,4c8,0,16-1.8,23.3-5.2l0.9,94.7H332.4l-3.8-21.5l3.3-74.1c8,4.4,16.9,6.6,26,6.6c2.2,0,4-1.8,4-4s-1.8-4-4-4
	c-22.6,0-41-15.9-41-35.4c0-2.2-1.8-4-4-4c-2.2,0-4,1.8-4,4c0,8.6,2.9,16.9,8.1,23.8l-52.4-20.5c-0.9-0.3-1.8-0.4-2.7-0.1l-5.1-1.9
	l40.2-56.4c12.4-17.3,29.5-30.6,49.3-38.4c8.2,29.7,38.9,47.2,68.7,39c20.2-5.6,35.7-22,39.9-42.6c0.1-0.4,0.1-0.8,0-1.1
	c9.8,1.6,19.4,3.9,28.9,6.8c0.4,0.4,0.9,0.7,1.5,0.9c0.6,0.2,1.3,0.3,1.9,0.2c1.1,0.4,2.2,0.8,3.3,1.1c15.9,5.7,32.3,9.9,49,12.7
	c-0.2,0.3-0.3,0.5-0.4,0.8L511.3,439.2z"/>
<path class="st0" d="M645,411.3c-0.7,0.2-70.7,14.9-118.4,9.7l19.9-53.7c0.3-0.8,0.3-1.7,0.1-2.5c12.4,1.7,24.9,2.6,37.4,2.6
	c8.7,0,17.4-0.4,26.2-1.3c0.2,0,0.5-0.1,0.7-0.1l77.5-21.4c-11.5,15.9-25.6,37.4-43,66.6C645.2,411.3,645.1,411.3,645,411.3z"/>
<path class="st0" d="M373.1,350.3c2.2,0,4-1.8,4-4v-25.6c7.8,2.2,15.8,3.3,23.9,3.3h0.8c6.9,0,13.9-0.8,20.6-2.4v12.7
	c0,0.1,0,0.3,0,0.4c0,0.3,0,0.5,0,0.8v10.9c0,2.2,1.8,4,4,4s4-1.8,4-4V339c3.7,0.2,9.6,0.8,16.8,1.8c-0.1,0.2-0.2,0.5-0.2,0.7
	c-5.4,25.9-30.7,42.5-56.6,37.2c-17.8-3.7-31.9-17.1-36.6-34.7c4.9-1.5,9.9-2.7,14.9-3.5c0.1,0,0.2-0.1,0.4-0.1v5.9
	C369.1,348.5,370.9,350.3,373.1,350.3C373.1,350.3,373.1,350.3,373.1,350.3z"/>
<path class="st0" d="M401.8,316H401c-44.8-0.1-81.1-36.4-81.1-81.2c0-2.2-1.8-4-4-4c-7.1,0-12.8-5.7-12.8-12.7
	c0-7.1,5.7-12.8,12.7-12.8l0,0c2,0,3.8-1.4,4-3.4l1-7.4c1.3-4.6,5.6-7.7,10.4-7.4c10.1,0.5,18.6-7.2,19.1-17.3c0-0.6,0-1.2,0-1.9
	c-0.3-5.6,4-10.4,9.7-10.7c2.2-0.1,4.3,0.5,6.1,1.6c8.4,5.5,19.7,3.1,25.2-5.4c0.3-0.5,0.7-1.1,0.9-1.6c2.6-5,8.7-7,13.8-4.4
	c1.9,1,3.5,2.5,4.4,4.4c4.6,9,15.6,12.5,24.5,7.9c0.6-0.3,1.1-0.6,1.6-0.9c4.7-3.1,11.1-1.7,14.1,3c1.2,1.8,1.7,3.9,1.6,6.1
	c-0.5,10,7.2,18.6,17.2,19.1c0.6,0,1.3,0,1.9,0c4.9-0.3,9.3,3,10.4,7.7l0.9,7.1c0.3,2,2,3.5,4,3.5c7.1,0,12.8,5.8,12.7,12.8
	c0,7.1-5.8,12.8-12.8,12.7l0,0c-2.2,0-4,1.8-4,4.1C482.9,279.6,446.6,315.9,401.8,316z"/>
<path class="st0" d="M318.6,337.5c0.8-14.5-10.4-26.9-25-27.7c-0.9,0-1.8,0-2.7,0c-10.1,0.5-18.8-7.3-19.3-17.4
	c-0.2-3.9,0.8-7.7,2.9-11c7.9-12.2,4.4-28.5-7.8-36.5c-0.8-0.5-1.6-1-2.4-1.4c-9-4.6-12.6-15.7-8-24.7c1.8-3.5,4.6-6.3,8-8
	c13-6.6,18.1-22.5,11.5-35.5c-0.4-0.8-0.9-1.6-1.4-2.4c-5.5-8.5-3.1-19.9,5.4-25.4c3.3-2.1,7.1-3.1,11-2.9
	c14.5,0.8,26.9-10.4,27.7-25c0-0.9,0-1.8,0-2.7c-0.5-10.1,7.3-18.8,17.4-19.3c3.8-0.2,7.6,0.8,10.9,2.9c12.2,7.9,28.5,4.4,36.5-7.8
	c0.5-0.8,1-1.6,1.4-2.4c4.6-9,15.7-12.6,24.7-8c3.5,1.8,6.3,4.6,8,8c6.6,13,22.5,18.1,35.5,11.5c0.8-0.4,1.6-0.9,2.4-1.4
	c8.5-5.5,19.9-3.1,25.4,5.4c2.1,3.3,3.1,7.1,2.9,11c-0.7,14.6,10.4,27,25,27.7c0.9,0,1.8,0,2.7,0c10.1-0.5,18.8,7.3,19.3,17.4
	c0.2,3.9-0.8,7.7-2.9,10.9c-7.9,12.2-4.4,28.5,7.8,36.5c0.8,0.5,1.5,0.9,2.4,1.4c9,4.6,12.6,15.7,8,24.7c-1.8,3.5-4.6,6.3-8,8
	c-13,6.6-18.1,22.5-11.5,35.5c0.4,0.8,0.9,1.6,1.4,2.3c5.5,8.5,3.1,19.9-5.4,25.4c-3.2,2.1-7.1,3.1-10.9,2.9
	c-14.6-0.7-27,10.4-27.7,25c0,0.9,0,1.8,0,2.7c0,0.9,0,1.9-0.1,2.8c-17.4-5-35.2-8.2-53.2-9.4v-11.8c34.9-11.9,58.9-44,60.4-80.8
	c11.3-2.2,18.7-13,16.5-24.3c-1.6-8.5-8.4-15.1-16.9-16.6l-0.5-4.1c0-0.1,0-0.3-0.1-0.4c-2.1-8.6-9.9-14.4-18.7-14
	c-5.6,0.3-10.4-4-10.7-9.7c0-0.4,0-0.7,0-1.1c0.6-10-7.1-18.6-17.2-19.2c-3.9-0.2-7.7,0.8-10.9,2.9c-4.7,3.1-11.1,1.7-14.1-3
	c-0.2-0.3-0.4-0.6-0.5-0.9c-3.1-6.1-9.4-10-16.2-9.9l0,0c-6.9,0-13.1,3.8-16.2,9.9c-2.6,5-8.7,7-13.7,4.5c-0.3-0.2-0.6-0.3-0.9-0.5
	c-8.4-5.5-19.7-3.1-25.2,5.4c-2.1,3.2-3.1,7-2.9,10.9c0.3,5.6-4,10.5-9.7,10.8c-0.4,0-0.7,0-1.1,0c-8.6-0.5-16.4,5.2-18.6,13.5
	c0,0.2-0.1,0.3-0.1,0.5l-0.6,4.5c-11.3,2-18.9,12.7-16.9,24c1.5,8.5,8.1,15.2,16.5,16.9c1.5,35.5,23.9,66.8,57.1,79.6
	c0,0.1,0,0.1,0,0.2v14.5c-0.5-0.1-1.1-0.2-1.6-0.1c-16,2.6-31.3,8.5-44.9,17.2C319.8,346.4,318.4,342,318.6,337.5z"/>
<path class="st1" d="M318.6,337.5c0.8-14.5-10.4-26.9-25-27.7c-0.9,0-1.8,0-2.7,0c-10.1,0.5-18.8-7.3-19.3-17.4
	c-0.2-3.9,0.8-7.7,2.9-11c7.9-12.2,4.4-28.5-7.8-36.5c-0.8-0.5-1.6-1-2.4-1.4c-9-4.6-12.6-15.7-8-24.7c1.8-3.5,4.6-6.3,8-8
	c13-6.6,18.1-22.5,11.5-35.5c-0.4-0.8-0.9-1.6-1.4-2.4c-5.5-8.5-3.1-19.9,5.4-25.4c3.3-2.1,7.1-3.1,11-2.9
	c14.5,0.8,26.9-10.4,27.7-25c0-0.9,0-1.8,0-2.7c-0.5-10.1,7.3-18.8,17.4-19.3c3.8-0.2,7.6,0.8,10.9,2.9c12.2,7.9,28.5,4.4,36.5-7.8
	c0.5-0.8,1-1.6,1.4-2.4c4.6-9,15.7-12.6,24.7-8c3.5,1.8,6.3,4.6,8,8c6.6,13,22.5,18.1,35.5,11.5c0.8-0.4,1.6-0.9,2.4-1.4
	c8.5-5.5,19.9-3.1,25.4,5.4c2.1,3.3,3.1,7.1,2.9,11c-0.7,14.6,10.4,27,25,27.7c0.9,0,1.8,0,2.7,0c10.1-0.5,18.8,7.3,19.3,17.4
	c0.2,3.9-0.8,7.7-2.9,10.9c-7.9,12.2-4.4,28.5,7.8,36.5c0.8,0.5,1.5,0.9,2.4,1.4c9,4.6,12.6,15.7,8,24.7c-1.8,3.5-4.6,6.3-8,8
	c-13,6.6-18.1,22.5-11.5,35.5c0.4,0.8,0.9,1.6,1.4,2.3c5.5,8.5,3.1,19.9-5.4,25.4c-3.2,2.1-7.1,3.1-10.9,2.9
	c-14.6-0.7-27,10.4-27.7,25c0,0.9,0,1.8,0,2.7c0,0.9,0,1.9-0.1,2.8c-17.4-5-35.2-8.2-53.2-9.4v-11.8c34.9-11.9,58.9-44,60.4-80.8
	c11.3-2.2,18.7-13,16.5-24.3c-1.6-8.5-8.4-15.1-16.9-16.6l-0.5-4.1c0-0.1,0-0.3-0.1-0.4c-2.1-8.6-9.9-14.4-18.7-14
	c-5.6,0.3-10.4-4-10.7-9.7c0-0.4,0-0.7,0-1.1c0.6-10-7.1-18.6-17.2-19.2c-3.9-0.2-7.7,0.8-10.9,2.9c-4.7,3.1-11.1,1.7-14.1-3
	c-0.2-0.3-0.4-0.6-0.5-0.9c-3.1-6.1-9.4-10-16.2-9.9l0,0c-6.9,0-13.1,3.8-16.2,9.9c-2.6,5-8.7,7-13.7,4.5c-0.3-0.2-0.6-0.3-0.9-0.5
	c-8.4-5.5-19.7-3.1-25.2,5.4c-2.1,3.2-3.1,7-2.9,10.9c0.3,5.6-4,10.5-9.7,10.8c-0.4,0-0.7,0-1.1,0c-8.6-0.5-16.4,5.2-18.6,13.5
	c0,0.2-0.1,0.3-0.1,0.5l-0.6,4.5c-11.3,2-18.9,12.7-16.9,24c1.5,8.5,8.1,15.2,16.5,16.9c1.5,35.5,23.9,66.8,57.1,79.6
	c0,0.1,0,0.1,0,0.2v14.5c-0.5-0.1-1.1-0.2-1.6-0.1c-16,2.6-31.3,8.5-44.9,17.2C319.8,346.4,318.4,342,318.6,337.5z"/>
<path class="st1" d="M797.5,267.5c8.3,2.6,16.9,3.9,25.6,3.9h0.8c7.7,0,15.4-1.1,22.8-3.1l1.8,1.4v12.1c-8,2.4-16.3,3.6-24.6,3.6
	h-0.8c-9.5,0-18.9-1.6-27.9-4.7v-11L797.5,267.5z"/>
<path class="st1" d="M823.1,103.5c-5.3,0-10.4-2.3-13.9-6.4l-20.4-23.8c22-10.5,47.5-11.1,70-1.7L837,97.1
	C833.5,101.2,828.4,103.5,823.1,103.5z"/>
<path class="st1" d="M740.1,137.5v48.9c0,43.4,35.2,78.6,78.6,78.6h7.8c43.4,0,78.6-35.2,78.6-78.6v-48.9c0-15.8-7-30.7-19.2-40.7
	V165c0,19-15.4,34.5-34.5,34.5h-58.2c-19,0-34.5-15.4-34.5-34.5V97.3C746.9,107.3,740.1,122,740.1,137.5z M800.4,211.5h42.8
	c2.8,0,5.1,2.3,5.1,5.1c0,0.4,0,0.7-0.1,1.1c-3.4,14.6-18,23.7-32.6,20.3c-10.1-2.3-18-10.2-20.3-20.3c-0.6-2.8,1.2-5.4,4-6
	C799.7,211.6,800.1,211.5,800.4,211.5L800.4,211.5z"/>
<path class="st1" d="M375.2,320c8.3,2.6,16.9,3.9,25.6,3.9h0.8c7.7,0,15.4-1.1,22.9-3.1l1.8,1.4v12.1c-8,2.4-16.3,3.6-24.6,3.6h-0.8
	c-9.5,0-18.9-1.6-27.9-4.7v-11L375.2,320z"/>
<path class="st3" d="M1000.6,1065.6l-48.6-37v-27c0-2.2-1.8-4-4-4c-2.4,0-4.9,0.3-7.3,0.8L925.5,720c7.6-2.1,13.7-7.9,15.9-15.5
	L988.8,552c0-0.1,0-0.1,0-0.2c0.7-2.8,17.2-67.8,9.4-119.3l5.7-3.8c1.8-1.2,2.3-3.5,1.2-5.3C955.6,338,930,311.9,919.1,303.8
	c-13.5-14-32.1-21.8-51.6-21.8h-13.6v-14.5c34-12.4,57.2-44.1,58.7-80.2c11.3-2.2,18.6-13.1,16.5-24.3c-1.6-8.3-8.1-14.9-16.5-16.5
	c-2.2-49.4-43.9-87.7-93.3-85.5c-46.4,2-83.5,39.2-85.5,85.5c-11.3,2.2-18.6,13.1-16.5,24.3c1.6,8.3,8.1,14.9,16.5,16.5
	c1.5,36.2,24.8,67.9,58.8,80.3V282h-16.7c-19.5-0.1-38.1,7.8-51.6,21.8c-5.5,4-14.7,12.7-28.8,31.1c-0.7-0.2-1.3-0.2-2,0L609,358.2
	c-39.2,3.7-78.8-1.4-115.9-14.7l-1.8-0.6c0.3-1.9,0.4-3.8,0.3-5.7c-0.5-10.1,7.3-18.8,17.4-19.3c0.6,0,1.3,0,1.9,0
	c14.5,0.8,26.9-10.4,27.7-25c0.3-5.6-1.2-11.1-4.2-15.7c-5.5-8.5-3.1-19.9,5.4-25.4c0.5-0.3,1.1-0.7,1.7-1
	c13-6.6,18.1-22.5,11.5-35.5c-2.5-5-6.6-9-11.5-11.5c-9-4.6-12.6-15.7-8-24.7c0.3-0.6,0.6-1.1,1-1.7c7.9-12.2,4.4-28.6-7.8-36.5
	c-4.7-3-10.1-4.5-15.7-4.2c-10.1,0.5-18.8-7.2-19.3-17.3c0-0.6,0-1.3,0-1.9c0.7-14.6-10.4-26.9-25-27.7c-5.5-0.3-11,1.2-15.7,4.2
	c-8.5,5.5-19.9,3.1-25.4-5.4c-0.3-0.5-0.7-1.1-1-1.7c-6.6-13-22.5-18.1-35.5-11.5c-5,2.5-9,6.6-11.5,11.5c-4.6,9-15.7,12.6-24.7,8
	c-0.5-0.3-1.1-0.6-1.6-0.9c-12.2-7.9-28.6-4.4-36.5,7.8c-3,4.7-4.5,10.2-4.2,15.7c0.5,10.1-7.2,18.8-17.4,19.3c-0.6,0-1.3,0-1.9,0
	c-14.6-0.7-27,10.4-27.7,25c-0.3,5.5,1.2,11,4.2,15.7c5.5,8.5,3.1,19.9-5.4,25.4c-0.5,0.3-1.1,0.7-1.6,0.9
	c-13,6.6-18.1,22.5-11.5,35.5c2.5,5,6.6,9,11.5,11.5c9,4.6,12.6,15.7,8,24.7c-0.3,0.6-0.6,1.1-0.9,1.6c-7.9,12.2-4.4,28.5,7.8,36.5
	c4.7,3,10.2,4.5,15.7,4.2c10.1-0.5,18.8,7.3,19.3,17.4c0,0.6,0,1.3,0,1.9c-0.4,6.2,1.5,12.3,5.3,17.3c-9.8,7.3-18.4,16.1-25.5,26
	l-43.2,60.6c-0.7,1-0.9,2.1-0.6,3.3c0.3,1.2,1,2.1,2.1,2.7c0.1,0,0.2,0.1,10.7,4l8,104.8c0,0.3,0.1,0.5,0.1,0.8l27,94.8
	c-12,46.1-11.4,81.9-11.4,83.4v0.1l13.6,285.5c0.1,2.1,1.9,3.8,4,3.8h8v7.5c-9.1,0.5-18,2.9-26.2,6.8l-51.6,25
	c-0.2,0.1-0.4,0.2-0.7,0.4c-5.3,3.9-7.4,10.7-5.2,16.9c0.8,2.4,2.2,4.6,4,6.3l0.1,0.1c0.3,0.3,0.7,0.6,1.1,0.9l0.2,0.1
	c0.4,0.3,0.8,0.5,1.1,0.8c0.1,0.1,0.3,0.2,0.5,0.3s0.5,0.3,0.7,0.4l0.6,0.3c0.2,0.1,0.5,0.2,0.7,0.3c0.2,0.1,0.5,0.2,0.8,0.3
	c0.3,0.1,0.7,0.2,1,0.3l0.6,0.1c0.3,0.1,0.6,0.1,0.9,0.2l0.5,0.1c0.5,0,1,0.1,1.5,0.1h109.4c2.2,0,4-1.8,4-4v-51.6
	c0-0.4-0.1-0.7-0.2-1.1c0.1-0.4,0.2-0.7,0.2-1.1v-13.2c0-1-0.4-1.9-1-2.6l47.4-299l47.9,302.2c0.2,1,0.7,1.9,1.5,2.5v10.1
	c0,0.4,0.1,0.7,0.2,1.1c-0.1,0.4-0.2,0.7-0.2,1.1v51.6c0,2.2,1.8,4,4,4h109.4c0.5,0,1,0,1.5-0.1l0.5-0.1c0.3,0,0.6-0.1,0.9-0.2
	l0.6-0.1c0.4-0.1,0.7-0.2,1-0.3s0.5-0.2,0.8-0.3l0.7-0.3l0.6-0.3c0.2-0.1,0.5-0.2,0.7-0.4c0.2-0.1,0.3-0.2,0.5-0.3
	c0.4-0.2,0.8-0.5,1.2-0.8l0.2-0.1c0.4-0.3,0.7-0.6,1.1-0.9l0.1-0.1c1.9-1.7,3.2-3.9,4.1-6.3c2.1-6.1,0.1-13-5.2-16.9
	c-0.2-0.2-0.4-0.3-0.7-0.4l-51.6-25c-8.2-4-17.1-6.3-26.2-6.8v-7.5h6.6c2.1,0,3.9-1.7,4-3.8l12-285.5c0-0.8,1.3-82.2-40.2-156.3
	c0.3-0.6,0.5-1.3,0.5-2L474.5,473c9.6-7,16.1-17.2,17.5-28.8l21.2,3.3c1.9,0.3,3.7-0.8,4.4-2.6l6.1-16.3c8.6,1,17.3,1.5,25.9,1.4
	c35.8,0,74.7-6.7,90.1-9.6c-0.5,0.9-1.1,1.9-1.6,2.8c-1.1,1.8-0.5,4.2,1.2,5.3l5.7,3.8c-7.8,51.6,8.7,116.6,9.4,119.4l0.1,0.2
	L702,704.3c2.1,7.3,7.8,13.1,15.1,15.4l-10,279.4c-3.2-0.9-6.6-1.4-10-1.4c-2.2,0-4,1.8-4,4v27l-48.6,37c-5.5,4.2-6.6,12.1-2.4,17.7
	c2.4,3.1,6.1,5,10,5h139.7c2.2,0,4-1.8,4-4v-65.4c0-0.5-0.1-0.9-0.3-1.4L822.5,734l27.1,283.6c-0.2,0.4-0.3,0.9-0.3,1.4v65.4
	c0,2.2,1.8,4,4,4H993c7,0,12.6-5.6,12.6-12.6C1005.6,1071.8,1003.8,1068,1000.6,1065.6L1000.6,1065.6z M945.6,1033.8l45.2,34.4
	H857.3v-45.3h17.1c1.3,0,2.4,1.1,2.5,2.4c0,0,0,0,0,0.1c-0.1,2.7,1,5.3,2.9,7.2c2,2,4.7,3.2,7.5,3.2H917c1,0,1.9-0.4,2.6-1
	c0.9-0.7,1.4-1.8,1.4-2.9c0.3-13.1,10-24,22.9-25.9v24.7C944,1031.9,944.5,1033.1,945.6,1033.8L945.6,1033.8z M981.2,549.7
	l-47.5,152.4c-2.3,7.8-10.4,12.3-18.2,10c-7.2-2.1-11.7-9.4-10.3-16.8l2.1-11c0.4-2.2-1-4.3-3.2-4.7c-0.1,0-0.3,0-0.4-0.1l-6.1-0.5
	c-3.5-0.2-6.1-3.3-5.9-6.8c0.2-3.5,3.3-6.1,6.8-5.9c0,0,0.1,0,0.1,0l8.4,0.7c2.1,0.2,3.9-1.3,4.2-3.3l11.3-64l3.3-14.1
	c0.4-0.6,0.6-1.4,0.6-2.2v-0.3l8.4-35.8c0-0.2,0.1-0.5,0.1-0.7l4-74.8l52-34.7C997,486,981.8,547,981.2,549.7L981.2,549.7z
	 M923.7,459.5L931,470l-4,76l-1.3,5.3L923.7,459.5z M853.5,290h9.8l-2.8,38c-5.5-5.9-14.1-13-24.4-15
	C845.3,308.8,851.9,300.1,853.5,290z M741.7,183.6c0-2.2-1.8-4-4-4c-7.1-0.2-12.6-6-12.5-13.1c0.2-6.8,5.6-12.2,12.4-12.5h0.1
	c2.2,0,4-1.8,4-4c0.7-45,37.8-80.9,82.8-80.2c44,0.7,79.5,36.2,80.2,80.2c0,2.2,1.8,4,4,4c0,0,0.1,0,0.1,0
	c7.1,0.2,12.6,6.1,12.4,13.2c-0.2,6.8-5.7,12.2-12.5,12.4c-2.2,0-4,1.8-4,4.1c-0.1,44.8-36.3,81.1-81.1,81.1h-0.8
	C777.9,264.7,741.7,228.4,741.7,183.6z M822.8,272.8h0.8c7.5,0,15-1,22.3-2.9v15.2c0.3,12.5-9.7,22.9-22.2,23.1
	c-12.5,0.3-22.9-9.7-23.1-22.2c0-0.3,0-0.6,0-1V270C807.8,271.9,815.3,272.8,822.8,272.8z M809.7,312.7c-11.4,1.1-20.9,9-26.8,15.3
	l-2.8-38H793C794.6,299.8,800.8,308.2,809.7,312.7z M729.3,310.1c0.2-0.1,0.4-0.3,0.5-0.5c11.1-11.6,26.2-18.6,42.3-19.5l3.6,48.5
	c0.2,2.2,2.1,3.9,4.3,3.7c1.2-0.1,2.3-0.7,3-1.8c0.2-0.2,14.7-21.8,31.8-19.9v36.5c0,2.2,1.8,4,4,4s4-1.8,4-4v-39.8
	c0-0.5-0.1-1.1-0.3-1.5h0.8c2.2,0,4.5-0.2,6.7-0.7c-0.9,2,0,4.3,1.9,5.2c0.4,0.2,0.8,0.3,1.3,0.3c15.1,1.7,27.2,19.7,27.3,19.9
	c0.7,1.1,2,1.8,3.3,1.8c0.3,0,0.7,0,1-0.1c1.7-0.4,2.9-1.9,3-3.6l3.6-48.5c16.1,0.9,31.2,7.9,42.3,19.5c0.2,0.2,0.3,0.3,0.5,0.5
	c8.2,5.9,32.4,28.8,82.3,114l-4.6,3.1l0,0L936.6,464l-13.9-20c-1.3-1.8-3.8-2.3-5.6-1c-1.1,0.8-1.7,2-1.7,3.4l3,136.1l-3,12.6H728.9
	c-0.3,0-0.6,0-0.9,0.1l-3-12.7l3-136.1c0-2.2-1.7-4-3.9-4.1c-1.3,0-2.6,0.6-3.4,1.7l-13.9,20L647,424.1
	C696.9,338.8,721.1,316,729.3,310.1z M717.7,551.4l-1.3-5.4l-4.1-76l7.3-10.5L717.7,551.4z M318.6,337.6c0.8-14.5-10.4-26.9-25-27.7
	c-0.9,0-1.8,0-2.7,0c-10.1,0.5-18.8-7.3-19.3-17.4c-0.2-3.9,0.8-7.7,2.9-11c7.9-12.2,4.4-28.5-7.8-36.5c-0.8-0.5-1.6-1-2.4-1.4
	c-9-4.6-12.6-15.7-8-24.7c1.8-3.5,4.6-6.3,8-8c13-6.6,18.1-22.5,11.5-35.5c-0.4-0.8-0.9-1.6-1.4-2.4c-5.5-8.5-3.1-19.9,5.4-25.4
	c3.3-2.1,7.1-3.1,11-2.9c14.5,0.8,26.9-10.4,27.7-25c0-0.9,0-1.8,0-2.7c-0.5-10.1,7.3-18.8,17.4-19.3c3.8-0.2,7.6,0.8,10.9,2.9
	c12.2,7.9,28.5,4.4,36.5-7.8c0.5-0.8,1-1.6,1.4-2.4c4.6-9,15.7-12.6,24.7-8c3.5,1.8,6.3,4.6,8,8c6.6,13,22.5,18.1,35.5,11.5
	c0.8-0.4,1.6-0.9,2.4-1.4c8.5-5.5,19.9-3.1,25.4,5.4c2.1,3.3,3.1,7.1,2.9,11c-0.7,14.6,10.4,27,25,27.7c0.9,0,1.8,0,2.7,0
	c10.1-0.5,18.8,7.3,19.3,17.4c0.2,3.9-0.8,7.7-2.9,10.9c-7.9,12.2-4.4,28.5,7.8,36.5c0.8,0.5,1.5,0.9,2.4,1.4
	c9,4.6,12.6,15.7,8,24.7c-1.8,3.5-4.6,6.3-8,8c-13,6.6-18.1,22.5-11.5,35.5c0.4,0.8,0.9,1.6,1.4,2.3c5.5,8.5,3.1,19.9-5.4,25.4
	c-3.2,2.1-7.1,3.1-10.9,2.9c-14.6-0.7-27,10.4-27.7,25c0,0.9,0,1.8,0,2.7c0,0.9,0,1.9-0.1,2.8c-17.4-5-35.2-8.2-53.2-9.4v-11.8
	c34.9-11.9,58.9-44,60.4-80.8c11.3-2.2,18.7-13,16.5-24.3c-1.6-8.5-8.4-15.1-16.9-16.6l-0.5-4.1c0-0.1,0-0.3-0.1-0.4
	c-2.1-8.6-9.9-14.4-18.7-14c-5.6,0.3-10.4-4-10.7-9.7c0-0.4,0-0.7,0-1.1c0.6-10-7.1-18.6-17.2-19.2c-3.9-0.2-7.7,0.8-10.9,2.9
	c-4.7,3.1-11.1,1.7-14.1-3c-0.2-0.3-0.4-0.6-0.5-0.9c-3.1-6.1-9.4-10-16.2-9.9l0,0c-6.9,0-13.1,3.8-16.2,9.9c-2.6,5-8.7,7-13.7,4.5
	c-0.3-0.2-0.6-0.3-0.9-0.5c-8.4-5.5-19.7-3.1-25.2,5.4c-2.1,3.2-3.1,7-2.9,10.9c0.3,5.6-4,10.5-9.7,10.8c-0.4,0-0.7,0-1.1,0
	c-8.6-0.5-16.4,5.2-18.6,13.5c0,0.2-0.1,0.3-0.1,0.5l-0.6,4.5c-11.3,2-18.9,12.7-16.9,24c1.5,8.5,8.1,15.2,16.5,16.9
	c1.5,35.5,23.9,66.8,57.1,79.6c0,0.1,0,0.1,0,0.2v14.5c-0.5-0.1-1.1-0.2-1.6-0.1c-16,2.6-31.3,8.5-44.9,17.2
	C319.8,346.4,318.4,342,318.6,337.6z M401.8,316H401c-44.8-0.1-81.1-36.4-81.1-81.2c0-2.2-1.8-4-4-4c-7.1,0-12.8-5.7-12.8-12.7
	c0-7.1,5.7-12.8,12.7-12.8l0,0c2,0,3.8-1.4,4-3.4l1-7.4c1.3-4.6,5.6-7.7,10.4-7.4c10.1,0.5,18.6-7.2,19.1-17.3c0-0.6,0-1.2,0-1.9
	c-0.3-5.6,4-10.4,9.7-10.7c2.2-0.1,4.3,0.5,6.1,1.6c8.4,5.5,19.7,3.1,25.2-5.4c0.3-0.5,0.7-1.1,0.9-1.6c2.6-5,8.7-7,13.8-4.4
	c1.9,1,3.5,2.5,4.4,4.4c4.6,9,15.6,12.5,24.5,7.9c0.6-0.3,1.1-0.6,1.6-0.9c4.7-3.1,11.1-1.7,14.1,3c1.2,1.8,1.7,3.9,1.6,6.1
	c-0.5,10,7.2,18.6,17.2,19.1c0.6,0,1.3,0,1.9,0c4.9-0.3,9.3,3,10.4,7.7l0.9,7.1c0.3,2,2,3.5,4,3.5c7.1,0,12.8,5.8,12.7,12.8
	c0,7.1-5.8,12.8-12.8,12.7l0,0c-2.2,0-4,1.8-4,4.1C482.9,279.7,446.6,316,401.8,316z M373.1,350.4c2.2,0,4-1.8,4-4v-25.7
	c7.8,2.2,15.8,3.3,23.9,3.3h0.8c6.9,0,13.9-0.8,20.6-2.4v12.7c0,0.1,0,0.3,0,0.4c0,0.3,0,0.5,0,0.8v10.9c0,2.2,1.8,4,4,4s4-1.8,4-4
	V339c3.7,0.2,9.6,0.8,16.8,1.8c-0.1,0.2-0.2,0.5-0.2,0.7c-5.4,25.9-30.7,42.5-56.6,37.2c-17.8-3.7-31.9-17.1-36.6-34.7
	c4.9-1.5,9.9-2.7,14.9-3.5c0.1,0,0.2-0.1,0.4-0.1v5.9C369.1,348.5,370.9,350.3,373.1,350.4C373.1,350.3,373.1,350.3,373.1,350.4
	L373.1,350.4z M267.6,454.1l48.1,18l8.2,3.2l-3.4,75.8c0,0.3,0,0.6,0.1,0.9l4.3,24.2c-0.1,0.3-0.1,0.6-0.1,0.9
	c0,0.8,0.2,1.5,0.6,2.1l15.8,89.3c0.4,2,2.2,3.5,4.3,3.3l8.4-0.7c3.5-0.3,6.5,2.3,6.8,5.7c0.3,3.5-2.3,6.5-5.7,6.8c0,0-0.1,0-0.1,0
	l-6.1,0.5c-2.2,0.2-3.8,2.1-3.7,4.3c0,0.1,0,0.3,0.1,0.4l2.1,11c1.5,8-3.8,15.6-11.7,17.1c-7.4,1.4-14.7-3.1-16.8-10.3l-43.4-152
	L267.6,454.1z M344.8,1024.2v7.4c-5.5,0.1-9.9,4.5-9.9,10c0,1.1-0.9,2-2,2h-14.1c-1.1,0-2-0.9-2-2v-6c0-0.4-0.1-0.7-0.2-1.1
	c0.1-0.4,0.2-0.7,0.2-1.1v-9.2L344.8,1024.2z M286,1045.7c7.1-3.4,14.8-5.5,22.7-6v1.9c0,5.5,4.5,10,10,10h14.1c5.5,0,10-4.5,10-10
	c0-1,0.8-1.9,1.8-2v30.7H235.4L286,1045.7z M344.7,1083.2H239.4c-0.3,0-0.6,0-0.9-0.1h-0.3c-0.2,0-0.4-0.1-0.6-0.1h-0.2
	c-0.2-0.1-0.4-0.1-0.7-0.2l-0.3-0.1l-0.4-0.2l-0.3-0.1l-0.3-0.2l-0.2-0.2c-0.1-0.1-0.2-0.2-0.3-0.2l-0.2-0.2
	c-0.1-0.1-0.3-0.2-0.4-0.3l-0.1-0.1c-0.1-0.1-0.2-0.2-0.3-0.3H234c-0.1-0.2-0.3-0.4-0.4-0.5l0,0c-0.4-0.6-0.8-1.3-1-2h112.2
	L344.7,1083.2z M456.5,1083.2v-4.9h112.2c-0.2,0.7-0.6,1.4-1,2l0,0c-0.1,0.2-0.3,0.4-0.4,0.5l0,0c-0.1,0.1-0.2,0.2-0.3,0.3l-0.1,0.1
	l-0.4,0.3l-0.2,0.2c-0.1,0.1-0.2,0.2-0.3,0.2l-0.2,0.2l-0.3,0.2l-0.3,0.1l-0.4,0.2l-0.3,0.1c-0.2,0.1-0.4,0.1-0.7,0.2h-0.2
	c-0.2,0-0.4,0.1-0.6,0.1h-0.2c-0.3,0-0.6,0-0.9,0.1L456.5,1083.2z M565.9,1070.3H456.5v-30.7c1,0.1,1.9,1,1.9,2c0,5.5,4.5,10,10,10
	h14.1c5.5,0,10-4.5,10-10v-1.9c7.9,0.5,15.6,2.6,22.7,6L565.9,1070.3z M484.7,1034.5c-0.1,0.4-0.2,0.7-0.2,1.1v6c0,1.1-0.9,2-2,2
	h-14.1c-1.1,0-2-0.9-2-2c0-5.5-4.4-9.9-9.9-10v-7.4h28v9.2C484.6,1033.7,484.6,1034.1,484.7,1034.5L484.7,1034.5z M507.1,734.5
	l-11.8,281.6h-40.8l-51-321.8c-0.1-0.5-0.3-1-0.5-1.4l-0.3-0.5c-0.7-1.2-2-1.9-3.4-1.9l0,0c-1.4,0-2.7,0.7-3.4,1.9l-0.3,0.5
	c-0.3,0.4-0.4,0.9-0.5,1.4l-51,321.8h-39.4l-13.4-281.6c0-1.3-0.3-29.8,7.8-67.5l11.9,42c2.8,9.7,11.7,16.4,21.8,16.5
	c0.6,0,1.2,0,1.8-0.1c12.5-1,21.8-11.9,20.8-24.4c-0.1-0.8-0.2-1.6-0.3-2.5l-1.3-6.6l1.6-0.1c7.9-0.6,13.8-7.5,13.2-15.4
	c-0.6-7.9-7.5-13.8-15.4-13.2l-4.8,0.4l-14.6-82.5h133.4C508.4,653.5,507.2,733.8,507.1,734.5L507.1,734.5z M511.3,439.2l-22.3-3.5
	c-2.2-0.3-4.2,1.1-4.6,3.3c0,0.2,0,0.4,0,0.6c0,19.5-18.4,35.3-41,35.3c-2.2,0-4,1.8-4,4s1.8,4,4,4c8,0,16-1.8,23.3-5.2l0.9,94.7
	H332.4l-3.8-21.5l3.3-74.1c8,4.4,16.9,6.6,26,6.6c2.2,0,4-1.8,4-4s-1.8-4-4-4c-22.6,0-41-15.9-41-35.4c0-2.2-1.8-4-4-4
	c-2.2,0-4,1.8-4,4c0,8.6,2.9,16.9,8.1,23.8l-52.4-20.5c-0.9-0.3-1.8-0.4-2.7-0.1l-5.1-1.9l40.2-56.4c12.4-17.3,29.5-30.6,49.3-38.4
	c8.2,29.7,38.9,47.2,68.7,39c20.2-5.6,35.7-22,39.9-42.6c0.1-0.4,0.1-0.8,0-1.1c9.8,1.6,19.4,3.9,28.9,6.8c0.4,0.4,0.9,0.7,1.5,0.9
	c0.6,0.2,1.3,0.3,1.9,0.2c1.1,0.4,2.2,0.8,3.3,1.1c15.9,5.7,32.3,9.9,49,12.7c-0.2,0.3-0.3,0.5-0.4,0.8L511.3,439.2z M645,411.3
	c-0.7,0.2-70.7,14.9-118.4,9.7l19.9-53.7c0.3-0.8,0.3-1.7,0.1-2.5c12.4,1.7,24.9,2.6,37.4,2.6c8.7,0,17.4-0.4,26.2-1.3
	c0.2,0,0.5-0.1,0.7-0.1l77.5-21.4c-11.5,15.9-25.6,37.4-43,66.6C645.2,411.3,645.1,411.3,645,411.3z M709.7,702l-47.4-152.3
	c-0.7-2.8-15.8-63.8-9.8-112.3l52,34.7l4,74.8c0,0.2,0,0.5,0.1,0.7l8.4,35.8v0.3c0,0.8,0.2,1.5,0.6,2.2l3.3,14.1l11.3,64
	c0.4,2,2.2,3.5,4.2,3.3l8.4-0.7c3.5-0.2,6.5,2.4,6.8,5.9c0.2,3.4-2.3,6.4-5.8,6.7l-6.1,0.5c-2.2,0.2-3.8,2.1-3.7,4.3
	c0,0.1,0,0.3,0.1,0.4l2.1,11c1.4,8-4,15.6-12,16.9C718.9,713.6,711.8,709.1,709.7,702z M699.5,1033.8c1-0.8,1.6-1.9,1.6-3.2v-24.7
	c2.7,0.4,5.4,1.2,7.9,2.5c0.1,0.1,0.2,0.1,0.3,0.2c8.8,4.5,14.5,13.4,14.7,23.3c0,1.2,0.6,2.3,1.5,3c0.7,0.6,1.6,0.9,2.5,0.9h29.7
	c2.8,0,5.5-1.1,7.5-3.2c1.9-1.9,3-4.5,2.9-7.2c0-1.3,1-2.5,2.4-2.5c0,0,0,0,0.1,0h17.1v45.3H654.3L699.5,1033.8z M787.7,1080.2
	H652.9c-1.6,0.1-3.1-0.7-4-2c-0.4-0.6-0.7-1.3-0.8-2h139.6V1080.2z M822.5,687.8c-2.1,0-3.8,1.6-4,3.6l-30.9,323.4h-17
	c-5.8,0-10.5,4.7-10.5,10.4c0,0.1,0,0.1,0,0.2c0,0.6-0.2,1.1-0.6,1.5c-0.5,0.5-1.1,0.8-1.8,0.8h-26c-1.4-10.5-7.6-19.8-16.8-25.3
	l10.1-281.8c0.2,0,0.4,0,0.5,0c12.5-1,21.8-11.9,20.8-24.3c-0.1-0.8-0.2-1.7-0.3-2.5l-1.3-6.6l1.6-0.1c7.9-0.6,13.8-7.5,13.2-15.4
	c-0.6-7.9-7.5-13.8-15.4-13.2l0,0l-4.8,0.4l-9.9-55.9h184.2L904,659l-4.8-0.4c-7.9-0.6-14.8,5.3-15.4,13.2
	c-0.6,7.9,5.3,14.8,13.2,15.4l1.6,0.1l-1.3,6.6c-2.4,12.3,5.7,24.2,18,26.5c0.7,0.1,1.5,0.2,2.2,0.3l15.3,280.4
	c-10.6,5.1-17.9,15.1-19.5,26.7h-26c-0.7,0-1.3-0.3-1.8-0.8c-0.4-0.4-0.6-0.9-0.6-1.5c0.1-5.8-4.5-10.5-10.2-10.6
	c-0.1,0-0.1,0-0.2,0h-17l-30.9-323.4C826.3,689.4,824.6,687.8,822.5,687.8z M857.3,1080.2v-4h139.6c-0.1,0.7-0.4,1.4-0.8,2
	c-0.9,1.3-2.4,2.1-4,2H857.3z"/>
<path class="st3" d="M832.7,339.4c2.1,0,3.8-1.7,3.8-3.8c0-2.1-1.7-3.8-3.8-3.8c-2.1,0-3.8,1.7-3.8,3.8
	C828.9,337.7,830.6,339.4,832.7,339.4C832.6,339.4,832.6,339.4,832.7,339.4z"/>
<path class="st3" d="M832.7,354.5c2.1,0,3.8-1.7,3.8-3.8s-1.7-3.8-3.8-3.8c-2.1,0-3.8,1.7-3.8,3.8l0,0
	C828.9,352.8,830.6,354.5,832.7,354.5z"/>
<path class="st3" d="M852.2,218.6c0.6-2.7,0-5.5-1.7-7.6c-1.7-2.2-4.4-3.5-7.2-3.5h-42.8c-2.8,0-5.4,1.3-7.2,3.5
	c-1.7,2.1-2.3,4.9-1.7,7.6c3.9,16.7,20.6,27.2,37.4,23.3C840.5,239.2,849.5,230.1,852.2,218.6L852.2,218.6z M843.2,215.6h0.2
	c0.1,0,0.1,0,0.2,0c0.2,0.1,0.4,0.2,0.6,0.4c0.2,0.3,0.3,0.7,0.2,1l0,0c-0.3,1.4-0.8,2.8-1.4,4.2h-42.1c-0.6-1.3-1.1-2.7-1.4-4.2
	c-0.1-0.3,0-0.7,0.2-1c0.1-0.2,0.3-0.3,0.6-0.4c0.1,0,0.1,0,0.2,0h0.2H843.2z M806.8,229.1h30.1
	C828.2,236.6,815.5,236.6,806.8,229.1z"/>
<path class="st3" d="M816.9,186.5c0.3,0.6,0.9,0.9,1.5,0.9h12.5c2.2,0,4,1.8,4,4s-1.8,4-4,4h-12.5c-5.3,0-9.7-4.3-9.7-9.7
	c0-2,0.6-3.9,1.7-5.5c5.1-7.2,6.4-13.8,4.6-23.2c-0.4-2.2,1-4.3,3.2-4.7c2.2-0.4,4.3,1,4.7,3.2c2.1,11.5,0.3,20.3-5.9,29.2
	C816.7,185.2,816.6,185.9,816.9,186.5z"/>
<path class="st3" d="M847.2,151.1c-3.9,0-7.1,3.2-7.1,7.1c0,3.9,3.2,7.1,7.1,7.1c3.9,0,7.1-3.2,7.1-7.1c0,0,0,0,0,0
	C854.2,154.3,851.1,151.1,847.2,151.1z"/>
<circle class="st3" cx="795.5" cy="158.2" r="7.1"/>
<path class="st3" d="M832.5,146.2c1.9,1.1,4.4,0.5,5.5-1.5c0,0,0,0,0,0c3.3-5.7,10.6-7.7,16.4-4.4c1.8,1.1,3.4,2.6,4.4,4.4
	c1,2,3.4,2.7,5.4,1.7c2-1,2.7-3.4,1.7-5.4c-0.1-0.1-0.1-0.2-0.2-0.3c-5.5-9.6-17.7-12.9-27.3-7.3c-3,1.8-5.6,4.3-7.3,7.3
	C830,142.7,830.6,145.1,832.5,146.2z"/>
<path class="st3" d="M805.9,144.8c1.1,1.9,3.6,2.6,5.5,1.5c1.9-1.1,2.6-3.6,1.5-5.5l0,0c-5.5-9.6-17.7-12.9-27.3-7.3
	c-3.1,1.8-5.6,4.3-7.3,7.3c-1.2,1.9-0.6,4.3,1.2,5.5c1.9,1.2,4.3,0.6,5.5-1.2c0.1-0.1,0.1-0.2,0.2-0.3c3.3-5.7,10.6-7.7,16.4-4.4
	C803.3,141.4,804.8,142.9,805.9,144.8z"/>
<path class="st3" d="M421.5,258.7h-42.8c-2.8,0-5.4,1.3-7.2,3.5c-1.7,2.1-2.4,4.9-1.7,7.6c3.9,16.7,20.6,27.2,37.4,23.3
	c11.6-2.7,20.6-11.7,23.3-23.3c0.6-2.7,0-5.5-1.7-7.6C427,260,424.3,258.7,421.5,258.7z M421.5,266.7h0.1h0.2
	c0.2,0.1,0.4,0.2,0.6,0.4c0.2,0.3,0.3,0.7,0.2,1c-0.3,1.4-0.8,2.8-1.4,4.2h-42.1c-0.6-1.3-1.1-2.7-1.5-4.2c-0.2-0.6,0.2-1.2,0.8-1.4
	h0.1h0.2L421.5,266.7z M385,280.3h30.1C406.5,287.7,393.7,287.7,385,280.3z"/>
<path class="st3" d="M413.2,242.6c0,2.2-1.8,4-4,4h-12.5c-5.3,0-9.7-4.3-9.7-9.7c0-2,0.6-3.9,1.8-5.6c5.1-7.2,6.4-13.8,4.6-23.2
	c-0.4-2.2,1-4.3,3.2-4.7c2.2-0.4,4.3,1,4.7,3.2l0,0c2.1,11.5,0.3,20.3-5.9,29.2c-0.5,0.8-0.3,1.8,0.4,2.3c0.3,0.2,0.6,0.3,1,0.3
	h12.5C411.4,238.6,413.2,240.4,413.2,242.6L413.2,242.6z"/>
<path class="st3" d="M425.4,202.3c-3.9,0-7.1,3.2-7.1,7.1c0,3.9,3.2,7.1,7.1,7.1s7.1-3.2,7.1-7.1c0,0,0,0,0,0
	C432.5,205.5,429.3,202.3,425.4,202.3z"/>
<circle class="st3" cx="373.7" cy="209.4" r="7.1"/>
<path class="st3" d="M426.6,181.9c-7.1,0-13.7,3.8-17.3,10c-1.2,1.9-0.6,4.3,1.2,5.5c1.9,1.2,4.3,0.6,5.5-1.2
	c0.1-0.1,0.1-0.2,0.2-0.3c3.3-5.7,10.7-7.7,16.4-4.3c1.8,1.1,3.3,2.6,4.4,4.4c1,2,3.4,2.7,5.4,1.7c2-1,2.7-3.4,1.7-5.4
	c-0.1-0.1-0.1-0.2-0.2-0.3C440.4,185.8,433.8,182,426.6,181.9z"/>
<path class="st3" d="M384.1,196c1,2,3.4,2.7,5.4,1.7c2-1,2.7-3.4,1.7-5.4c-0.1-0.1-0.1-0.2-0.2-0.3c-5.5-9.6-17.7-12.9-27.3-7.3
	c-3,1.8-5.6,4.3-7.3,7.3c-1.2,1.9-0.6,4.3,1.2,5.5c1.9,1.2,4.3,0.6,5.5-1.2c0.1-0.1,0.1-0.2,0.2-0.3c3.3-5.7,10.6-7.7,16.4-4.4
	C381.6,192.6,383.1,194.2,384.1,196L384.1,196z"/>
<path class="st1" d="M286,1045.7c7.1-3.4,14.8-5.5,22.7-6v1.9c0,5.5,4.5,10,10,10h14.1c5.5,0,10-4.5,10-10c0-1,0.8-1.9,1.8-2v30.7
	H235.4L286,1045.7z"/>
<path class="st1" d="M565.9,1070.2H456.5v-30.7c1,0.1,1.9,1,1.9,2c0,5.5,4.5,10,10,10h14.1c5.5,0,10-4.5,10-10v-1.9
	c7.9,0.5,15.6,2.6,22.7,6L565.9,1070.2z"/>
</svg>
