<?xml version="1.0" encoding="utf-8"?>
<!-- Generator: Adobe Illustrator 22.1.0, SVG Export Plug-In . SVG Version: 6.00 Build 0)  -->
<svg version="1.1" id="Layer_1" xmlns="http://www.w3.org/2000/svg" xmlns:xlink="http://www.w3.org/1999/xlink" x="0px" y="0px"
	 viewBox="0 0 1230 1152" style="enable-background:new 0 0 1230 1152;" xml:space="preserve">
<style type="text/css">
	.st0{fill:#FFFFFF;}
	.st1{opacity:0.4;fill:#A644E5;enable-background:new    ;}
	.st2{opacity:0.4;fill:#0073EC;enable-background:new    ;}
	.st3{fill:#0073EC;}
</style>
<title>qArtboard 1</title>
<g>
	<path class="st0" d="M498.8,1020c7.1-3.4,14.8-5.5,22.7-6v1.9c0,5.5,4.5,10,10,10h14.1c5.5,0,10-4.5,10-10c0-1,0.8-1.9,1.8-2v30.7
		H448.1L498.8,1020z"/>
	<path class="st0" d="M778.6,1044.6H669.3v-30.7c1,0.1,1.9,1,1.8,2c0,5.5,4.5,10,10,10h14.1c5.5,0,10-4.5,10-10v-1.9
		c7.9,0.5,15.6,2.6,22.7,6L778.6,1044.6z"/>
	<path class="st1" d="M498.8,1020c7.1-3.4,14.8-5.5,22.7-6v1.9c0,5.5,4.5,10,10,10h14.1c5.5,0,10-4.5,10-10c0-1,0.8-1.9,1.8-2v30.7
		H448.1L498.8,1020z"/>
	<path class="st0" d="M557.5,1057.5H452.1c-0.3,0-0.6,0-0.9,0H451l-0.6-0.1h-0.2c-0.2-0.1-0.5-0.1-0.7-0.2l-0.3-0.1l-0.4-0.2
		l-0.3-0.1l-0.3-0.2l-0.2-0.2l-0.4-0.3l-0.1-0.1l-0.4-0.4l-0.1-0.1l-0.3-0.3l0,0c-0.6-0.7-1.1-1.6-1.4-2.5h112.1V1057.5z"/>
	<path class="st0" d="M669.3,1057.5v-4.9h112.2c-0.2,0.7-0.6,1.4-1,1.9l0,0c-0.1,0.2-0.3,0.4-0.4,0.5l0,0l-0.3,0.3l-0.1,0.1
		l-0.4,0.3l-0.2,0.2c-0.1,0.1-0.2,0.2-0.3,0.2l-0.2,0.2l-0.3,0.2l-0.3,0.2l-0.3,0.2l-0.3,0.1c-0.2,0.1-0.4,0.1-0.6,0.2h-0.2
		l-0.6,0.1h-0.3c-0.3,0-0.6,0-0.9,0H669.3V1057.5z"/>
	<path class="st1" d="M778.6,1044.6H669.3v-30.7c1,0.1,1.9,1,1.8,2c0,5.5,4.5,10,10,10h14.1c5.5,0,10-4.5,10-10v-1.9
		c7.9,0.5,15.6,2.6,22.7,6L778.6,1044.6z"/>
	<path class="st0" d="M722,709l-2.5,51.9h-86.7l-14.6-92.1c-0.1-0.5-0.3-1-0.5-1.4l-0.3-0.5c-0.7-1.2-2-1.9-3.4-1.9l0,0
		c-1.4,0-2.7,0.7-3.4,1.9l-0.3,0.5c-0.3,0.4-0.4,0.9-0.5,1.4l-14.6,92.1h-86.9L506,709c0-0.6-1-58.3,23.8-119.9l14.5,11.8l0.3,0.2
		c10.4,6.9,24.5,4.1,31.4-6.4c6.5-9.8,4.4-23-4.9-30.3l-5.2-4.2l1.2-1.2c1-1,1.9-2.3,2.6-3.6h90.6c0.7,1.3,1.5,2.5,2.6,3.6l1.2,1.2
		l-5.2,4.2c-9.8,7.8-11.3,22.1-3.5,31.9c7.3,9.1,20.3,11.2,30,4.8l0.3-0.2l13-10.5C722.5,650.6,722,707,722,709z"/>
	<path class="st2" d="M722,709l-2.5,51.9h-86.7l-14.6-92.1c-0.1-0.5-0.3-1-0.5-1.4l-0.3-0.5c-0.7-1.2-2-1.9-3.4-1.9l0,0
		c-1.4,0-2.7,0.7-3.4,1.9l-0.3,0.5c-0.3,0.4-0.4,0.9-0.5,1.4l-14.6,92.1h-86.9L506,709c0-0.6-1-58.3,23.8-119.9l14.5,11.8l0.3,0.2
		c10.4,6.9,24.5,4.1,31.4-6.4c6.5-9.8,4.4-23-4.9-30.3l-5.2-4.2l1.2-1.2c1-1,1.9-2.3,2.6-3.6h90.6c0.7,1.3,1.5,2.5,2.6,3.6l1.2,1.2
		l-5.2,4.2c-9.8,7.8-11.3,22.1-3.5,31.9c7.3,9.1,20.3,11.2,30,4.8l0.3-0.2l13-10.5C722.5,650.6,722,707,722,709z"/>
	<path class="st0" d="M580.2,147c0.3-1.1,0.8-4.8,0.3-15.3c8.9,16.4,20.9,26.1,34.7,28c2.2,0.3,4.2-1.2,4.5-3.4
		c0.1-0.9,0-1.7-0.5-2.5c-2.2-4.1-3.7-8.6-4.2-13.2c9.6,12.2,20.4,23.4,32.2,33.5c1.7,1.4,4.2,1.2,5.6-0.5c0.6-0.7,1-1.7,1-2.7
		l-0.1-4.7c3.4,5.4,7.3,10.5,11.2,15.6c8.7,11.3,17,22,18.6,35c1.7,13.7-4.5,26.6-11,40.2c-2.1,4.4-4.2,8.9-6.1,13.5
		c-0.2,0.1-0.5,0.3-0.7,0.5c-14.7,12.5-33.3,19.4-52.6,19.4h-0.8c-19.4,0-38.2-7-52.9-19.7c-1.9-4.6-4.1-9.2-6.2-13.7
		c-6.5-13.6-12.7-26.5-11-40.2c1.6-13,9.8-23.7,18.6-35C568.7,171.2,577.1,160.3,580.2,147z"/>
	<path class="st0" d="M583.6,314.9v5.8c0,2.2,1.8,4,4,4c2.2,0,4-1.8,4-4v-24.8c6.7,1.6,13.7,2.4,20.6,2.4h0.8
		c8.1,0,16.1-1.1,23.9-3.3v25.6c0,2.2,1.8,4,4,4c2.2,0,4-1.8,4-4v-5.9c0.1,0,0.2,0.1,0.4,0.1c5.4,0.9,10.8,2.2,16.1,3.9
		c-5.6,25.8-31.2,42.2-57,36.5c-18.3-4-32.6-18.3-36.5-36.6C573,317,578.3,315.8,583.6,314.9z"/>
	<path class="st0" d="M483.2,399c0.5,0.3,1.1,0.4,1.7,0.4h72c2.2,0,4-1.8,4-4c0-1.4-0.7-2.6-1.8-3.4c-12.9-8.3-13.5-28-8.4-44
		c1.5-4.9,3.5-9.8,5.4-14.6c1.5-3.7,3-7.5,4.3-11.3c7.5,29.9,37.8,48.1,67.7,40.7c18.1-4.5,32.7-17.7,39-35.2c0.8,2,1.5,3.9,2.3,5.9
		c1.9,4.8,3.9,9.7,5.4,14.6c5.1,15.9,4.4,35.7-8.4,44c-1.9,1.2-2.4,3.7-1.2,5.5c0.7,1.2,2,1.9,3.4,1.8h76.6l12.1,16.5l-60.1,22.5
		c5.2-6.8,8.1-15.2,8.1-23.8c0-2.2-1.8-4-4-4c-2.2,0-4,1.8-4,4c0,19.5-18.4,35.3-41,35.3c-2.2,0-4,1.8-4,4s1.8,4,4,4
		c8.8,0,17.5-2.1,25.3-6.2l0.8,86.4c-2.6-2.2-5.9-3.5-9.3-3.5H673c-7.3,0-13.5,5.5-14.2,12.8h-87.6c-0.7-7.3-6.9-12.9-14.2-12.9
		h-0.1c-3.8,0-7.4,1.5-10.1,4.2l-0.1,0.1l0.8-88c8.1,4.6,17.3,7,26.6,7c2.2,0,4-1.8,4-4s-1.8-4-4-4c-22.6,0-41-15.9-41-35.3
		c0-2.2-1.8-4-4-4c-2.2,0-4,1.8-4,4c0,8.9,3.1,17.5,8.6,24.5l-62-23.2L483.2,399z"/>
	<path class="st0" d="M429.8,474.1c7.2-10.7,19.6-28.2,37.6-51.3l50.8,19l-40.7,36c-0.8,0.7-1.3,1.7-1.4,2.8c0,1.1,0.4,2.1,1.1,2.9
		l63.5,66.8c0.7,0.8,1.8,1.2,2.9,1.2l0,0c1.1,0,2.1-0.4,2.8-1.2l5.9-6c1.2-1.2,2.8-1.9,4.5-1.9c1.7,0,3.3,0.7,4.5,1.8
		c1.6,1.6,2.3,3.9,1.6,6.1c0,0,0,0,0,0.1c-0.3,1-0.8,2-1.6,2.7l-4.3,4.3c-0.8,0.8-1.2,1.9-1.2,3.1c0.1,1.1,0.6,2.2,1.5,2.9l8.8,7
		c6.3,5,7.4,14.3,2.4,20.6c-4.7,5.9-13,7.3-19.4,3.2l-115.4-93.3C425.6,494.6,423.8,482.8,429.8,474.1z"/>
	<path class="st0" d="M567.6,877.1c-0.1,0.6-0.1,1.2,0,1.7c8.4,40.6-5.6,111.5-8.9,127.1h-1c-5.5,0-10,4.5-10,10c0,1.1-0.9,2-2,2
		h-14.1c-1.1,0-2-0.9-2-2v-6c0-0.1,0-0.1,0-0.2c0-0.1,0-0.1,0-0.2L509,768.8h83.8L567.6,877.1z"/>
	<path class="st0" d="M659.6,877.1l-25.2-108.3H719L698.6,1007c-0.8,0.8-1.3,1.8-1.3,2.9v6c0,1.1-0.9,2-2,2h-14.1c-1.1,0-2-0.9-2-2
		c0-5.5-4.5-10-10-10l0,0h-0.6c-3.3-15.7-17.3-86.5-8.9-127.1C659.8,878.2,659.7,877.6,659.6,877.1z"/>
	<path class="st0" d="M796.1,501.2l-96.6,78.1c-0.3,0-0.7,0.1-1,0.3c-1,0.4-1.8,1.3-2.2,2.3l-15.6,12.6c-6.8,4.4-15.9,2.3-20.2-4.5
		c-4-6.3-2.6-14.7,3.2-19.4l8.8-7c1.7-1.4,2.1-3.9,0.7-5.6c-0.1-0.1-0.2-0.3-0.3-0.4l-4.3-4.3c-0.6-0.6-1.1-1.3-1.4-2.1
		c0-0.5-0.2-1.1-0.4-1.5c-0.4-3.5,2-6.6,5.4-7.1c0.3,0,0.5-0.1,0.8-0.1l0,0c1.7,0,3.3,0.7,4.5,1.9l5.9,6c1.6,1.6,4.1,1.6,5.7,0
		c0,0,0.1-0.1,0.1-0.1l63.5-66.8c0.7-0.8,1.1-1.8,1.1-2.9c0-1.1-0.5-2.1-1.3-2.8l-41-36.2l50.9-19.1c18.1,23.3,30.6,40.8,37.8,51.6
		C806.1,482.8,804.3,494.6,796.1,501.2z"/>
	<path class="st0" d="M565.4,295.6c-0.1-3.9-0.7-7.8-1.6-11.6c6.2,4,12.9,7.3,19.9,9.6V307c-0.4-0.1-0.8-0.1-1.2,0
		c-6.4,1-12.7,2.6-18.9,4.7C564.9,306.4,565.5,301,565.4,295.6z"/>
	<path class="st0" d="M661.7,310.5c-5-1.5-10-2.7-15.2-3.5c-0.5-0.1-1.1-0.1-1.6,0.1v-14.4c0-0.1,0-0.1,0-0.2c6-2.3,11.7-5.2,17-8.7
		c-1,3.9-1.5,7.8-1.7,11.8C660.1,300.6,660.6,305.6,661.7,310.5z"/>
	<path class="st1" d="M565.4,295.6c-0.1-3.9-0.7-7.8-1.6-11.6c6.2,4,12.9,7.3,19.9,9.6V307c-0.4-0.1-0.8-0.1-1.2,0
		c-6.4,1-12.7,2.6-18.9,4.7C564.9,306.4,565.5,301,565.4,295.6z"/>
	<path class="st1" d="M661.7,310.5c-5-1.5-10-2.7-15.2-3.5c-0.5-0.1-1.1-0.1-1.6,0.1v-14.4c0-0.1,0-0.1,0-0.2c6-2.3,11.7-5.2,17-8.7
		c-1,3.9-1.5,7.8-1.7,11.8C660.1,300.6,660.6,305.6,661.7,310.5z"/>
	<path class="st2" d="M638.8,294.3c-8.3,2.6-16.9,3.9-25.6,3.9h-0.8c-7.7,0-15.4-1.1-22.8-3.1l-1.8,1.4v12.1
		c8,2.4,16.3,3.6,24.6,3.6h0.8c9.5,0,18.9-1.6,27.9-4.7v-11L638.8,294.3z"/>
	<path class="st3" d="M585.3,236.6c-1.7,2.1-2.3,4.9-1.7,7.6c3.9,16.7,20.6,27.2,37.4,23.3c11.6-2.7,20.6-11.7,23.3-23.3
		c0.6-2.7,0-5.4-1.7-7.6c-1.7-2.2-4.4-3.5-7.2-3.5h-42.8C589.7,233.1,587.1,234.4,585.3,236.6z M598.9,254.7H629
		C620.3,262.1,607.6,262.1,598.9,254.7z M635.3,241.1h0.2h0.2c0.2,0.1,0.4,0.2,0.6,0.4c0.2,0.3,0.3,0.7,0.2,1
		c-0.3,1.4-0.8,2.8-1.5,4.2h-42c-0.6-1.3-1.1-2.7-1.4-4.2c-0.1-0.3,0-0.7,0.2-1c0.1-0.2,0.3-0.3,0.6-0.4h0.2h0.2H635.3z"/>
	<path class="st3" d="M610.6,221h12.5c2.2,0,4-1.8,4-4s-1.8-4-4-4h-12.5c-0.6,0-1.2-0.3-1.5-0.9c-0.3-0.6-0.3-1.2,0.1-1.8
		c6.3-9,8-17.7,5.9-29.2c-0.4-2.2-2.5-3.6-4.7-3.2c-2.2,0.4-3.6,2.5-3.2,4.7c1.7,9.5,0.4,16-4.6,23.2c-3.1,4.4-2,10.4,2.4,13.5
		C606.6,220.4,608.6,221,610.6,221z"/>
	<path class="st3" d="M583.6,190.9c3.9,0,7.1-3.2,7.1-7.1s-3.2-7.1-7.1-7.1c-3.9,0-7.1,3.2-7.1,7.1c0,0,0,0,0,0
		C576.5,187.7,579.7,190.9,583.6,190.9L583.6,190.9z"/>
	<path class="st3" d="M640.3,190.9c3.9,0,7.1-3.2,7.1-7.1c0-3.9-3.2-7.1-7.1-7.1s-7.1,3.2-7.1,7.1c0,0,0,0,0,0
		C633.2,187.7,636.4,190.9,640.3,190.9L640.3,190.9z"/>
	<path class="st0" d="M652.2,104.7L652.2,104.7c46.7,24.9,55.7,95.4,57,135.2c0.3,14-1.1,27.9-4.2,41.5c-4.2,19.6-1.4,42.8,8.4,69.1
		c1.2,3.2,2.5,6.5,3.9,9.7c0.1,0.3,0.3,0.6,0.5,0.8c0.1,0.6,0.3,1.2,0.7,1.6l20.8,28.6h-60.8c3.6-5,5.8-10.8,6.6-16.9
		c1.2-9.7,0.3-19.6-2.8-28.9c-1.6-5.1-3.6-10.2-5.6-15.1c-4.7-11.8-9-22.9-8.7-34.6c0.4-12.1,5.8-23.4,11.5-35.4
		c6.7-14.1,13.7-28.6,11.8-44.6c-1.8-15.1-11.2-27.2-20.2-38.9c-8-10.3-15.5-20.1-18.2-31.7c-0.5-2.1-2.7-3.5-4.8-3
		c-1.8,0.4-3.1,2.1-3.1,4l0.4,15.7c-11.5-10.6-21.8-22.4-30.9-35.1c-1.3-1.8-3.8-2.2-5.6-0.9c-0.8,0.6-1.4,1.5-1.6,2.5
		c-1.3,7.1-0.9,14.4,1.3,21.3c-21.1-9.1-29.5-41.1-31-47.4C601.6,91,629.3,91.9,652.2,104.7L652.2,104.7z"/>
	<path class="st0" d="M520.6,281.4c-3.1-13.6-4.5-27.6-4.2-41.5c1-32.6,7.5-91.9,40.4-123.2c0.1-0.1,0.2-0.3,0.4-0.4
		c4-3.7,8.4-7,13-9.9c3.5,29.9,2.5,37.6,2.3,38.6c0,0.1,0,0,0,0.2c-2.7,11.6-10.2,21.4-18.2,31.7c-9,11.7-18.3,23.8-20.2,38.9
		c-1.9,16,5,30.6,11.7,44.6c2.3,4.9,4.6,9.6,6.5,14.4l0,0c2.8,6.9,4.8,13.8,5,21c0.4,11.7-4,22.9-8.7,34.6c-1.9,4.9-4,10-5.6,15.1
		c-3.1,9.3-4,19.1-2.8,28.9c0.8,6.1,3,11.9,6.6,16.9h-58.5l16.3-23.6l0,0c0.1-0.2,0.2-0.4,0.3-0.6
		C515.8,344.4,527,311.1,520.6,281.4z"/>
	<path class="st1" d="M652.2,104.7L652.2,104.7c46.7,24.9,55.7,95.4,57,135.2c0.3,14-1.1,27.9-4.2,41.5c-4.2,19.6-1.4,42.8,8.4,69.1
		c1.2,3.2,2.5,6.5,3.9,9.7c0.1,0.3,0.3,0.6,0.5,0.8c0.1,0.6,0.3,1.2,0.7,1.6l20.8,28.6h-60.8c3.6-5,5.8-10.8,6.6-16.9
		c1.2-9.7,0.3-19.6-2.8-28.9c-1.6-5.1-3.6-10.2-5.6-15.1c-4.7-11.8-9-22.9-8.7-34.6c0.4-12.1,5.8-23.4,11.5-35.4
		c6.7-14.1,13.7-28.6,11.8-44.6c-1.8-15.1-11.2-27.2-20.2-38.9c-8-10.3-15.5-20.1-18.2-31.7c-0.5-2.1-2.7-3.5-4.8-3
		c-1.8,0.4-3.1,2.1-3.1,4l0.4,15.7c-11.5-10.6-21.8-22.4-30.9-35.1c-1.3-1.8-3.8-2.2-5.6-0.9c-0.8,0.6-1.4,1.5-1.6,2.5
		c-1.3,7.1-0.9,14.4,1.3,21.3c-21.1-9.1-29.5-41.1-31-47.4C601.6,91,629.3,91.9,652.2,104.7L652.2,104.7z"/>
	<path class="st1" d="M520.6,281.4c-3.1-13.6-4.5-27.6-4.2-41.5c1-32.6,7.5-91.9,40.4-123.2c0.1-0.1,0.2-0.3,0.4-0.4
		c4-3.7,8.4-7,13-9.9c3.5,29.9,2.5,37.6,2.3,38.6c0,0.1,0,0,0,0.2c-2.7,11.6-10.2,21.4-18.2,31.7c-9,11.7-18.3,23.8-20.2,38.9
		c-1.9,16,5,30.6,11.7,44.6c2.3,4.9,4.6,9.6,6.5,14.4l0,0c2.8,6.9,4.8,13.8,5,21c0.4,11.7-4,22.9-8.7,34.6c-1.9,4.9-4,10-5.6,15.1
		c-3.1,9.3-4,19.1-2.8,28.9c0.8,6.1,3,11.9,6.6,16.9h-58.5l16.3-23.6l0,0c0.1-0.2,0.2-0.4,0.3-0.6
		C515.8,344.4,527,311.1,520.6,281.4z"/>
	<path class="st3" d="M806.7,469.6c-7.6-11.2-20.7-29.7-39.9-54.3L725,358v0c-0.1-0.3-0.1-0.6-0.3-0.9c-1.3-3.2-2.6-6.3-3.8-9.4
		c-9.3-24.8-12-46.6-8.1-64.6c3.2-14.3,4.7-28.9,4.4-43.5c-1.3-41.6-10.9-115.1-61-142l0,0l-0.5-0.3l0,0
		c-25.9-14.1-57.1-14.6-83.4-1.2c-0.4,0.1-0.8,0.3-1.1,0.6c-12.2,6.4-22.7,15.4-30.8,26.5c-0.2,0.3-0.3,0.5-0.5,0.8
		c-25,34.6-30.5,85.8-31.4,115.5c-0.3,14.6,1.1,29.2,4.4,43.5c6,27.4-4.7,58.7-14.7,80.3l-36,52.1c-0.4,0.6-0.6,1.3-0.7,2
		c-18.3,23.5-30.9,41.2-38.2,52.1c-8.3,12.1-5.9,28.6,5.6,37.8l94.5,76.4C497,647.8,498,708.5,498,709.2l2.4,55.8
		c0,0.5,0.1,1,0.4,1.5l20.5,239.6c-9,0.6-17.8,2.9-25.9,6.8l-51.6,25c-0.2,0.1-0.4,0.2-0.6,0.4c-5.3,3.9-7.4,10.7-5.3,16.9
		c0.8,2.4,2.2,4.6,4.1,6.3h0.1c0.3,0.3,0.7,0.6,1.1,0.9l0.2,0.1c0.4,0.3,0.8,0.5,1.2,0.8l0.5,0.2c0.2,0.1,0.5,0.3,0.7,0.4
		s0.4,0.2,0.6,0.3c0.2,0.1,0.5,0.2,0.7,0.3l0.8,0.3c0.3,0.1,0.7,0.2,1,0.3l0.6,0.1c0.3,0.1,0.6,0.1,0.9,0.2l0.5,0.1
		c0.5,0,1,0.1,1.5,0.1h109.4c2.2,0,4-1.8,4-4v-49.9c0.1-0.3,0.2-0.5,0.3-0.8c0-0.2,4.9-21.7,8.5-48.7c4.8-35.9,5.2-64.2,1.3-84.1
		l25.6-110.3c0.7-0.6,1.1-1.4,1.2-2.3L614,693l11.5,72.5c0,0,0,0.1,0,0.2s0,0.1,0,0.1l26.1,112.3c-9.1,46.2,8.1,125,9.7,132.3v51.2
		c0,2.2,1.8,4,4,4h109.4c0.5,0,1,0,1.5-0.1l0.5-0.1c0.3,0,0.6-0.1,0.9-0.2l0.6-0.1c0.3-0.1,0.7-0.2,1-0.3l0.8-0.3l0.7-0.3l0.6-0.3
		l0.7-0.4l0.5-0.3c0.4-0.2,0.8-0.5,1.2-0.8l0.2-0.2c0.4-0.3,0.7-0.6,1.1-0.9l0.1-0.1c1.9-1.7,3.3-3.9,4-6.3c2.1-6.2,0-13-5.3-16.9
		c-0.2-0.2-0.4-0.3-0.7-0.4l-51.6-25c-7.8-3.8-16.2-6-24.8-6.7L727.2,765c0,0,0-0.1,0-0.2l2.8-55.5v-0.1c0-0.6,1-60.6-24.8-124.1
		l96-77.6C812.7,498.2,815.1,481.7,806.7,469.6z M612.6,94.4c13.9,0,27.5,3.5,39.6,10.2l0,0c46.7,24.9,55.7,95.4,57,135.2
		c0.3,14-1.1,27.9-4.2,41.5c-4.2,19.6-1.4,42.8,8.4,69.1c1.2,3.2,2.5,6.5,3.9,9.7c0.1,0.3,0.3,0.6,0.5,0.8c0.1,0.6,0.3,1.2,0.7,1.6
		l20.8,28.6h-60.8c3.6-5,5.8-10.8,6.6-16.9c1.2-9.7,0.3-19.6-2.8-28.9c-1.6-5.1-3.6-10.2-5.6-15.1c-4.7-11.8-9-22.9-8.7-34.6
		c0.4-12.1,5.8-23.4,11.5-35.4c6.7-14.1,13.7-28.6,11.8-44.6c-1.8-15.1-11.2-27.2-20.2-38.9c-8-10.3-15.5-20.1-18.2-31.7
		c-0.5-2.1-2.7-3.5-4.8-3c-1.8,0.4-3.1,2.1-3.1,4l0.4,15.7c-11.5-10.6-21.8-22.4-30.9-35.1c-1.3-1.8-3.8-2.2-5.6-0.9
		c-0.8,0.6-1.4,1.5-1.6,2.5c-1.3,7.1-0.9,14.4,1.3,21.3c-21.1-9.1-29.5-41.1-31-47.4C588.8,97.1,600.6,94.4,612.6,94.4z
		 M661.7,310.4c-5-1.5-10-2.6-15.2-3.5c-0.5-0.1-1.1-0.1-1.6,0.1v-14.4c0-0.1,0-0.1,0-0.2c6-2.3,11.7-5.2,17-8.7
		c-1,3.9-1.5,7.8-1.7,11.8C660.1,300.6,660.6,305.6,661.7,310.4L661.7,310.4z M565.4,295.5c-0.1-3.9-0.7-7.8-1.6-11.6
		c6.2,4,12.9,7.3,19.9,9.6V307c-0.4-0.1-0.8-0.1-1.2,0c-6.4,1-12.7,2.6-18.9,4.7C564.9,306.4,565.5,301,565.4,295.5L565.4,295.5z
		 M583.6,314.9v5.8c0,2.2,1.8,4,4,4c2.2,0,4-1.8,4-4v-24.7c6.7,1.6,13.7,2.4,20.6,2.4h0.8c8.1,0,16.1-1.1,23.9-3.3v25.6
		c0,2.2,1.8,4,4,4c2.2,0,4-1.8,4-4v-5.9c0.1,0,0.2,0.1,0.4,0.1c5.4,0.9,10.8,2.2,16.1,3.9c-5.6,25.8-31.2,42.2-57,36.5
		c-18.3-4-32.6-18.3-36.5-36.6C573,317,578.3,315.8,583.6,314.9L583.6,314.9z M613,290.3h-0.8c-19.4,0-38.2-7-52.9-19.7
		c-1.9-4.6-4.1-9.2-6.2-13.7c-6.5-13.6-12.7-26.5-11-40.2c1.6-13,9.8-23.7,18.6-35c8.1-10.6,16.5-21.5,19.6-34.8
		c0.3-1.1,0.8-4.8,0.3-15.3c8.9,16.4,20.9,26.1,34.7,28c2.2,0.3,4.2-1.2,4.5-3.4c0.1-0.9,0-1.7-0.5-2.5c-2.2-4.1-3.7-8.6-4.2-13.2
		c9.6,12.2,20.4,23.4,32.2,33.5c1.7,1.4,4.2,1.2,5.6-0.5c0.6-0.7,1-1.7,1-2.7l-0.1-4.7c3.4,5.4,7.3,10.5,11.2,15.6
		c8.7,11.3,17,22,18.6,35c1.7,13.7-4.5,26.6-11,40.2c-2.1,4.4-4.2,8.9-6.1,13.5c-0.2,0.1-0.5,0.3-0.7,0.5
		C651,283.4,632.3,290.3,613,290.3L613,290.3z M504.8,367.7L504.8,367.7c0.1-0.2,0.2-0.4,0.3-0.6c10.6-22.7,21.9-56,15.4-85.7
		c-3.1-13.6-4.5-27.6-4.2-41.5c1-32.6,7.5-91.9,40.4-123.2c0.1-0.1,0.2-0.3,0.4-0.4c4-3.7,8.4-7,13-9.9c3.5,29.9,2.5,37.6,2.3,38.6
		c0,0.1,0,0,0,0.2c-2.7,11.6-10.2,21.4-18.2,31.7c-9,11.7-18.3,23.8-20.2,38.9c-1.9,16,5,30.6,11.7,44.6c2.3,4.9,4.6,9.6,6.5,14.4
		l0,0c2.8,6.9,4.8,13.8,5,21c0.4,11.7-4,22.9-8.7,34.6c-1.9,4.9-4,10-5.6,15.1c-3.1,9.3-4,19.1-2.8,28.9c0.8,6.1,3,11.9,6.6,16.9
		h-58.5L504.8,367.7z M483.2,399c0.5,0.3,1.1,0.4,1.7,0.4h72c2.2,0,4-1.8,4-4c0-1.4-0.7-2.6-1.8-3.4c-12.9-8.3-13.5-28-8.4-44
		c1.5-4.9,3.5-9.8,5.4-14.6c1.5-3.7,3-7.5,4.3-11.3c7.5,29.9,37.8,48.1,67.7,40.7c18.1-4.5,32.7-17.7,39-35.2c0.8,2,1.5,3.9,2.3,5.9
		c1.9,4.8,3.9,9.7,5.4,14.6c5.1,15.9,4.4,35.7-8.4,44c-1.9,1.2-2.4,3.7-1.2,5.5c0.7,1.2,2,1.9,3.4,1.8h76.6l12.1,16.5l-60.1,22.5
		c5.2-6.8,8.1-15.2,8.1-23.8c0-2.2-1.8-4-4-4c-2.2,0-4,1.8-4,4c0,19.5-18.4,35.3-41,35.3c-2.2,0-4,1.8-4,4s1.8,4,4,4
		c8.8,0,17.5-2.1,25.3-6.2l0.8,86.4c-2.6-2.2-5.9-3.5-9.3-3.5H673c-7.3,0-13.5,5.5-14.2,12.8h-87.6c-0.7-7.3-6.9-12.9-14.2-12.9
		h-0.1c-3.8,0-7.4,1.5-10.1,4.2l-0.1,0.1l0.8-88c8.1,4.6,17.3,7,26.6,7c2.2,0,4-1.8,4-4s-1.8-4-4-4c-22.6,0-41-15.9-41-35.3
		c0-2.2-1.8-4-4-4c-2.2,0-4,1.8-4,4c0,8.9,3.1,17.5,8.6,24.5l-62-23.2L483.2,399z M705.5,447.1l38.5,34l-53.6,56.5l-0.8-87.8
		l14.6-5.5C704.2,445.4,704.7,446.4,705.5,447.1L705.5,447.1z M539.5,449.8l-0.8,86.8L486,481.1l38.5-34c0.7-0.6,1.2-1.5,1.3-2.5
		L539.5,449.8z M433.8,501.2c-8.2-6.6-10-18.4-4-27c7.2-10.7,19.6-28.2,37.6-51.3l50.8,19l-40.7,36c-0.8,0.7-1.3,1.7-1.4,2.8
		c0,1.1,0.4,2.1,1.1,2.9l63.4,66.8c0.7,0.8,1.8,1.2,2.9,1.2l0,0c1.1,0,2.1-0.4,2.8-1.2l5.9-6c1.2-1.2,2.8-1.9,4.5-1.9
		c1.7,0,3.3,0.7,4.5,1.8c1.6,1.6,2.3,3.9,1.6,6.1c0,0,0,0,0,0.1c-0.3,1-0.8,2-1.6,2.7l-4.3,4.3c-0.8,0.8-1.2,1.9-1.2,3.1
		c0.1,1.1,0.6,2.2,1.5,2.9l8.8,7c6.3,5,7.4,14.3,2.4,20.6c-4.7,5.9-13,7.3-19.4,3.2L433.8,501.2z M557.5,1057.5H452.1
		c-0.3,0-0.6,0-0.9,0H451l-0.6-0.1h-0.2c-0.2-0.1-0.5-0.1-0.7-0.2l-0.3-0.1l-0.4-0.2l-0.3-0.1l-0.3-0.2l-0.2-0.2l-0.4-0.3l-0.1-0.1
		l-0.4-0.4l-0.1-0.1l-0.3-0.3l0,0c-0.6-0.7-1.1-1.6-1.4-2.5h112.1V1057.5z M557.5,1044.6H448.1l50.6-24.6c7.1-3.4,14.8-5.5,22.7-6
		v1.9c0,5.5,4.5,10,10,10h14.1c5.5,0,10-4.5,10-10c0-1,0.8-1.9,1.8-2L557.5,1044.6z M567.6,877.1c-0.1,0.6-0.1,1.2,0,1.7
		c8.4,40.6-5.6,111.5-8.9,127.1h-1c-5.5,0-10,4.5-10,10c0,1.1-0.9,2-2,2h-14.1c-1.1,0-2-0.9-2-2v-6c0-0.1,0-0.1,0-0.2
		c0-0.1,0-0.1,0-0.2L509,768.8h83.8L567.6,877.1z M667.7,835.3c0.1,0.2,0.1,0.5,0,0.7c-0.1,0.2-0.4,0.4-0.6,0.4
		c-3.1,0-6,1.7-7.5,4.3c-0.2,0.3-0.6,0.5-1,0.3c-0.1-0.1-0.2-0.2-0.3-0.3c-1.6-2.7-4.4-4.3-7.5-4.3c-0.4,0-0.7-0.3-0.7-0.7
		c0-0.1,0-0.2,0.1-0.4c1.5-2.7,1.5-6,0-8.7c-0.1-0.2-0.1-0.5,0-0.7c0.1-0.2,0.4-0.4,0.6-0.4c3.1,0,6-1.7,7.5-4.4
		c0.1-0.2,0.4-0.4,0.6-0.4c0.3,0,0.5,0.1,0.6,0.4l0,0c1.6,2.7,4.4,4.4,7.5,4.4c0.3,0,0.5,0.1,0.6,0.4c0.1,0.2,0.1,0.5,0,0.7
		C666.2,829.3,666.2,832.7,667.7,835.3L667.7,835.3z M780.5,1054.6L780.5,1054.6c-0.1,0.2-0.3,0.4-0.4,0.5l0,0l-0.3,0.3l-0.1,0.1
		l-0.4,0.3l-0.2,0.2c-0.1,0.1-0.2,0.2-0.3,0.2l-0.2,0.2l-0.3,0.2l-0.3,0.2l-0.4,0.2l-0.3,0.1c-0.2,0.1-0.4,0.1-0.7,0.2h-0.2
		l-0.6,0.1h-0.3c-0.3,0-0.6,0-0.9,0H669.3v-4.9h112.2C781.2,1053.2,780.9,1053.9,780.5,1054.6L780.5,1054.6z M728,1020l50.6,24.6
		H669.3v-30.7c1,0.1,1.9,1,1.8,2c0,5.5,4.5,10,10,10h14.1c5.5,0,10-4.5,10-10v-1.9C713.1,1014.6,720.9,1016.6,728,1020L728,1020z
		 M710.9,862.9l-1.7-0.4c-1.1-0.2-2.1-0.4-3-0.7c-6.3-2-10.1-8.5-11.5-14c-0.2-0.6-0.3-1.3-0.4-2.1c0.3,0,0.6,0,0.9,0
		c8.2,0,15-6.6,15-14.9c0-0.8-0.1-1.6-0.2-2.4c-0.3-1.6-1.4-2.9-3-3.2c-4.9-1.2-10,0-13.8,3.3c-0.2,0.1-0.3,0.3-0.4,0.4
		c-0.2-5.7-0.2-11.3,0-14.8c1.5-0.8,2.8-2,3.6-3.4c0.1-0.2,0.4-0.4,0.6-0.3c4.8,0,8.7-3.9,8.7-8.7c0-1.5-0.4-3-1.2-4.3
		c-0.1-0.2-0.1-0.5,0-0.7c2.4-4.2,1-9.5-3.2-11.9c-1.3-0.8-2.8-1.2-4.3-1.2c-0.3,0-0.5-0.1-0.6-0.4l0,0c-2.4-4.2-7.7-5.6-11.9-3.2
		c-1.3,0.8-2.4,1.9-3.2,3.2c-0.1,0.2-0.4,0.4-0.6,0.4c-4.8,0-8.7,3.9-8.7,8.7c0,1.5,0.4,3,1.2,4.3c0.1,0.2,0.1,0.5,0,0.7
		c-2.4,4.2-1,9.5,3.2,11.9c1.3,0.8,2.8,1.2,4.4,1.2c0.3,0,0.5,0.1,0.6,0.3c0.8,1.4,2,2.6,3.5,3.3c-0.4,8.6,0.2,28.2,2.1,35.8
		c1,4,2.8,7.7,5.2,11c-1.7,0.6-3.3,1.5-4.6,2.6c-4.1,3.5-6,9-5,14.3c0.3,1.6,1.5,2.8,3.1,3.1c1,0.2,2.1,0.3,3.2,0.3
		c3.9,0,7.6-1.5,10.5-4.1c2.2-2.1,3.7-4.8,4.3-7.7h0.1c1.3,0.4,2.5,0.7,3.8,0.9c0.9,0.2,1.8,0.4,2.6,0.6l-2.5,29.6
		c-0.9-0.3-1.9-0.5-2.9-0.5c-0.3,0-0.5-0.1-0.6-0.4l0,0c-1.5-2.7-4.4-4.4-7.5-4.4l0,0c-3.1,0-6,1.7-7.5,4.4
		c-0.1,0.2-0.4,0.4-0.6,0.4c-4.8,0-8.7,4-8.6,8.8c0,1.5,0.4,3,1.2,4.3c0.1,0.2,0.1,0.5,0,0.7c-2.4,4.2-1,9.5,3.2,11.9
		c1.3,0.8,2.8,1.2,4.3,1.2c0.3,0,0.5,0.1,0.6,0.3c1.5,2.7,4.4,4.4,7.5,4.4l0,0c3.1,0,6-1.7,7.5-4.4c0.1-0.2,0.4-0.4,0.6-0.3
		c0.2,0,0.4,0,0.6,0l-6.9,80.1c-0.8,0.8-1.3,1.8-1.3,2.9v6c0,1.1-0.9,2-2,2h-14.1c-1.1,0-2-0.9-2-2c0-5.5-4.5-10-10-10l0,0h-0.6
		c-3.3-15.7-17.3-86.5-8.9-127.1c0.1-0.6,0.1-1.2,0-1.7l-7.2-31c3.1,3.6,8.6,4,12.3,0.9c0.7-0.6,1.4-1.4,1.9-2.2
		c0.1-0.2,0.4-0.4,0.6-0.3c4.8,0,8.7-3.9,8.7-8.7c0-1.5-0.4-3-1.2-4.4c-0.1-0.2-0.1-0.5,0-0.7c2.4-4.2,1-9.5-3.2-11.9
		c-1.3-0.8-2.8-1.2-4.3-1.2c-0.3,0-0.5-0.1-0.6-0.4c-2.4-4.2-7.7-5.6-11.9-3.2c-1.3,0.8-2.4,1.9-3.2,3.2c-0.1,0.2-0.4,0.4-0.6,0.4
		c-1.7,0-3.3,0.5-4.7,1.4l-11.6-50.1H719L710.9,862.9z M695.7,868.1c-0.7,2.4-2.7,4.3-5.1,4.9c0.4-1.3,1.1-2.5,2.2-3.4
		C693.6,868.8,694.6,868.3,695.7,868.1L695.7,868.1z M696.5,837.6c0.8-2.4,2.8-4.2,5.3-4.7C701.1,835.3,699,837.1,696.5,837.6z
		 M680.1,792.5c-0.2-0.3-0.1-0.8,0.3-1c0.1-0.1,0.2-0.1,0.3-0.1c3.1,0,6-1.7,7.5-4.4c0.2-0.3,0.6-0.5,1-0.3c0.1,0.1,0.2,0.2,0.3,0.3
		c1.6,2.7,4.4,4.4,7.5,4.4c0.4,0,0.7,0.3,0.7,0.7c0,0.1,0,0.2-0.1,0.3c-1.5,2.7-1.5,6,0,8.7c0.1,0.2,0.1,0.5,0,0.7
		c-0.1,0.2-0.4,0.4-0.6,0.4c-3.1,0-6,1.7-7.5,4.3c-0.2,0.3-0.6,0.5-1,0.3c-0.1-0.1-0.2-0.2-0.3-0.3c-1.6-2.7-4.4-4.3-7.5-4.3
		c-0.3,0-0.5-0.1-0.6-0.4c-0.1-0.2-0.1-0.5,0-0.7C681.6,798.5,681.6,795.2,680.1,792.5L680.1,792.5z M687.8,909.1
		c-0.1-0.2-0.1-0.5,0-0.7c0.1-0.2,0.4-0.4,0.6-0.4c3.1,0,6-1.7,7.5-4.4c0.1-0.2,0.4-0.4,0.6-0.4c0.3,0,0.5,0.1,0.6,0.4
		c1.6,2.7,4.4,4.4,7.5,4.4c0.4,0,0.7,0.3,0.7,0.7c0,0.1,0,0.2-0.1,0.3c-1.5,2.7-1.5,6,0,8.7c0.1,0.2,0.1,0.5,0,0.7
		c-0.1,0.2-0.4,0.4-0.6,0.4c-3.1,0-6,1.7-7.5,4.3c-0.1,0.2-0.4,0.4-0.6,0.4c-0.3,0-0.5-0.1-0.6-0.4c-1.6-2.7-4.4-4.3-7.5-4.3
		c-0.3,0-0.5-0.1-0.6-0.4c-0.1-0.2-0.1-0.5,0-0.7C689.4,915.1,689.4,911.8,687.8,909.1L687.8,909.1z M722,709l-2.5,51.9h-86.7
		l-14.6-92.1c-0.1-0.5-0.3-1-0.5-1.4l-0.3-0.5c-0.7-1.2-2-1.9-3.4-1.9l0,0c-1.4,0-2.7,0.7-3.4,1.9l-0.3,0.5
		c-0.3,0.4-0.4,0.9-0.5,1.4l-14.6,92.1h-86.9L506,709c0-0.6-1-58.3,23.8-119.9l14.5,11.8l0.3,0.2c10.4,6.9,24.5,4.1,31.4-6.4
		c6.5-9.8,4.4-23-4.9-30.3l-5.2-4.2l1.2-1.2c1-1,1.9-2.3,2.6-3.6h90.6c0.7,1.3,1.5,2.5,2.6,3.6l1.2,1.2l-5.2,4.2
		c-9.8,7.8-11.3,22.1-3.5,31.9c7.3,9.1,20.3,11.2,30,4.8l0.3-0.2l13-10.5C722.5,650.6,722,707,722,709z M796.1,501.2l-96.6,78.1
		c-0.3,0-0.7,0.1-1,0.3c-1,0.4-1.8,1.3-2.2,2.3l-15.6,12.6c-6.8,4.4-15.9,2.3-20.2-4.5c-4-6.3-2.6-14.7,3.2-19.4l8.8-7
		c1.7-1.4,2.1-3.9,0.7-5.6c-0.1-0.1-0.2-0.3-0.3-0.4l-4.3-4.3c-0.6-0.6-1.1-1.3-1.4-2.1c0-0.5-0.2-1.1-0.4-1.5
		c-0.4-3.5,2-6.6,5.4-7.1c0.3,0,0.5-0.1,0.8-0.1l0,0c1.7,0,3.3,0.7,4.5,1.9l5.9,6c1.6,1.6,4.1,1.6,5.7,0c0,0,0.1-0.1,0.1-0.1
		l63.5-66.8c0.7-0.8,1.1-1.8,1.1-2.9c0-1.1-0.5-2.1-1.3-2.8l-41-36.2l50.9-19.1c18.1,23.3,30.6,40.8,37.8,51.6
		C806.1,482.8,804.3,494.6,796.1,501.2L796.1,501.2z"/>
	<path class="st3" d="M688.6,799.3c1.3,0,2.4-1.1,2.4-2.4c0-1.3-1.1-2.4-2.4-2.4c-1.3,0-2.4,1.1-2.4,2.4l0,0
		C686.2,798.2,687.3,799.3,688.6,799.3z"/>
	<path class="st3" d="M658.7,828.6c-1.3,0-2.4,1.1-2.4,2.4c0,1.3,1.1,2.4,2.4,2.4c1.3,0,2.4-1.1,2.4-2.4c0,0,0,0,0,0
		C661.1,829.7,660.1,828.6,658.7,828.6C658.7,828.6,658.7,828.6,658.7,828.6z"/>
	<path class="st3" d="M696.4,915.9c1.3,0,2.4-1.1,2.4-2.4s-1.1-2.4-2.4-2.4s-2.4,1.1-2.4,2.4l0,0C693.9,914.8,695,915.9,696.4,915.9
		z"/>
</g>
</svg>
