<?xml version="1.0" encoding="utf-8"?>
<!-- Generator: Adobe Illustrator 22.1.0, SVG Export Plug-In . SVG Version: 6.00 Build 0)  -->
<svg version="1.1" id="Layer_1" xmlns="http://www.w3.org/2000/svg" xmlns:xlink="http://www.w3.org/1999/xlink" x="0px" y="0px"
	 viewBox="0 0 1230 1152" style="enable-background:new 0 0 1230 1152;" xml:space="preserve">
<style type="text/css">
	.st0{fill:#FFFFFF;}
	.st1{opacity:0.4;fill:#A644E5;}
	.st2{opacity:0.4;fill:#0073EC;}
	.st3{fill:#0073EC;}
</style>
<g>
	<g>
		<path class="st0" d="M926.4,722.4l-13.3,280.1H874l-50.7-320.1c0,0,0-0.1,0-0.1c0-0.1-0.1-0.3-0.1-0.4c0-0.1-0.1-0.2-0.1-0.3
			c0-0.1-0.1-0.2-0.2-0.4c0-0.1-0.1-0.1-0.1-0.2l-0.3-0.5c-0.4-0.7-1-1.2-1.6-1.5L792,652.2c-1.6-1.5-4.2-1.4-5.7,0.2
			c-1.5,1.6-1.4,4.2,0.2,5.7l28,25.9L764,1002.5h-40.6l-11.8-280c0-0.8-1.2-79.9,39.1-151.7H881l-6.8,38.3c0,0,0,0.1,0,0.1
			l-2.9,16.7l-4.8-0.4c-3.8-0.3-7.5,0.9-10.4,3.4c-2.9,2.5-4.7,6-5,9.8c-0.3,3.8,0.9,7.5,3.4,10.4c2.5,2.9,6,4.7,9.8,5l1.6,0.1
			l-1.3,6.6c-1.2,6.3,0.3,12.9,4.2,18s9.8,8.3,16.2,8.9c0.6,0,1.2,0.1,1.8,0.1c10,0,19-6.7,21.8-16.4l7.5-26.2
			C926.8,687.5,926.4,721,926.4,722.4z"/>
		<path class="st1" d="M926.4,722.4l-13.3,280.1H874l-50.7-320.1c0,0,0-0.1,0-0.1c0-0.1-0.1-0.3-0.1-0.4c0-0.1-0.1-0.2-0.1-0.3
			c0-0.1-0.1-0.2-0.2-0.4c0-0.1-0.1-0.1-0.1-0.2l-0.3-0.5c-0.4-0.7-1-1.2-1.6-1.5L792,652.2c-1.6-1.5-4.2-1.4-5.7,0.2
			c-1.5,1.6-1.4,4.2,0.2,5.7l28,25.9L764,1002.5h-40.6l-11.8-280c0-0.8-1.2-79.9,39.1-151.7H881l-6.8,38.3c0,0,0,0.1,0,0.1
			l-2.9,16.7l-4.8-0.4c-3.8-0.3-7.5,0.9-10.4,3.4c-2.9,2.5-4.7,6-5,9.8c-0.3,3.8,0.9,7.5,3.4,10.4c2.5,2.9,6,4.7,9.8,5l1.6,0.1
			l-1.3,6.6c-1.2,6.3,0.3,12.9,4.2,18s9.8,8.3,16.2,8.9c0.6,0,1.2,0.1,1.8,0.1c10,0,19-6.7,21.8-16.4l7.5-26.2
			C926.8,687.5,926.4,721,926.4,722.4z"/>
		<path class="st0" d="M520.8,479l8.8-2.8c0.4,0.2,0.7,0.3,1.2,0.4c4.5,0.8,8.7,2.9,11.9,6.1c6.4,6.4,8.2,16.2,4.6,24.4l-26.2,5.6
			L520.8,479z"/>
		<path class="st0" d="M763.2,1010.5v7.3c-5.4,0.1-9.8,4.5-9.8,10c0,1.1-0.9,2-2,2h-14c-1.1,0-2-0.9-2-2v-6v-11.3H763.2z"/>
		<path class="st0" d="M704.9,1031.9c7-3.4,14.8-5.4,22.6-6v1.9c0,5.5,4.5,10,10,10h14c5.5,0,10-4.5,10-10c0-1,0.8-1.9,1.8-2v30.5
			H654.6L704.9,1031.9z"/>
		<path class="st0" d="M763.2,1069.1H658.4c-0.3,0-0.6,0-0.9-0.1c-0.1,0-0.2,0-0.3,0c-0.2,0-0.4-0.1-0.6-0.1c-0.1,0-0.2,0-0.2-0.1
			c-0.2-0.1-0.4-0.1-0.7-0.2c-0.1,0-0.2-0.1-0.3-0.1c-0.1-0.1-0.2-0.1-0.4-0.2c-0.1,0-0.2-0.1-0.3-0.1c-0.1-0.1-0.2-0.1-0.3-0.2
			c-0.1-0.1-0.2-0.1-0.2-0.2c-0.1-0.1-0.2-0.2-0.3-0.2c-0.1-0.1-0.1-0.1-0.2-0.2c-0.1-0.1-0.3-0.2-0.4-0.3c0,0-0.1-0.1-0.1-0.1
			c-0.1-0.1-0.2-0.2-0.3-0.3c0,0,0,0,0,0c-0.1-0.2-0.3-0.3-0.4-0.5c0,0,0,0,0,0c-0.4-0.6-0.7-1.2-1-1.9h111.5V1069.1z"/>
		<path class="st0" d="M911.4,1010.5v7.3c-5.4,0.1-9.9,4.5-9.9,10c0,1.1-0.9,2-2,2h-14c-1.1,0-2-0.9-2-2v-5.1c0-0.2,0.1-0.4,0.1-0.6
			v-11.7H911.4z"/>
		<path class="st0" d="M853,1031.9c7-3.4,14.8-5.4,22.6-6v1.9c0,5.5,4.5,10,10,10h14c5.5,0,10-4.5,10-10c0-1,0.8-1.9,1.8-2v30.5
			H802.7L853,1031.9z"/>
		<path class="st0" d="M911.4,1069.1H806.6c-0.3,0-0.6,0-0.9-0.1c-0.1,0-0.2,0-0.3,0c-0.2,0-0.4-0.1-0.6-0.1c-0.1,0-0.2,0-0.2-0.1
			c-0.2-0.1-0.4-0.1-0.7-0.2c-0.1,0-0.2-0.1-0.3-0.1c-0.1-0.1-0.2-0.1-0.4-0.2c-0.1,0-0.2-0.1-0.3-0.1c-0.1-0.1-0.2-0.1-0.3-0.2
			c-0.1-0.1-0.2-0.1-0.2-0.2c-0.1-0.1-0.2-0.2-0.3-0.2c-0.1-0.1-0.1-0.1-0.2-0.2c-0.1-0.1-0.3-0.2-0.4-0.3c0,0-0.1-0.1-0.1-0.1
			c-0.1-0.1-0.2-0.2-0.3-0.3c0,0,0,0,0,0c-0.1-0.2-0.3-0.3-0.4-0.5c0,0,0,0,0,0c-0.4-0.6-0.7-1.2-1-1.9h111.5V1069.1z"/>
		<path class="st0" d="M901.1,669c-1.9,6.7-8.3,11.1-15.3,10.6c-4.2-0.3-8-2.4-10.5-5.7c-2.5-3.3-3.5-7.6-2.7-11.7l2.1-11
			c0.2-1.1-0.1-2.3-0.7-3.2c-0.7-0.9-1.7-1.5-2.9-1.6l-6.1-0.5c-1.7-0.1-3.2-0.9-4.3-2.2s-1.6-2.9-1.5-4.6c0.1-1.7,0.9-3.2,2.2-4.3
			c1.3-1.1,2.9-1.6,4.6-1.5l8.4,0.7c2.1,0.2,3.9-1.3,4.3-3.3l3.3-18.7c3.4-2.1,7.4-3.2,11.5-3.2c9.3,0,17.6,6,20.7,14.6L901.1,669z"
			/>
		<path class="st0" d="M947.2,480l-2.8,37l-27.3,95.7c-5.6-7.2-14.3-11.8-23.8-11.8c-3.4,0-6.7,0.6-9.8,1.6l15.6-88.3
			c0.1-0.3,0.1-0.6,0.1-0.9l-3.5-78.7c-0.1-2.2-1.9-3.9-4.2-3.8c-2.2,0.1-3.9,2-3.8,4.2l3.5,78.2l-8.7,49.5H752.7l0.8-88.1
			c2.9,1.7,6,3.2,9.2,4.3c0.5,0.2,0.9,0.2,1.4,0.2c1.6,0,3.2-1,3.8-2.6c0.8-2.1-0.3-4.4-2.4-5.1c-10.3-3.8-18.8-10.8-23.7-19.8
			c-1.6-2.8-2.7-5.7-3.5-8.7c0-0.1,0-0.2-0.1-0.3c-1.5-6.1-1.2-12.4,0.9-18.2c0.8-2.1-0.3-4.4-2.4-5.1c-2.1-0.8-4.4,0.3-5.1,2.4
			c-2.4,6.5-2.9,13.5-1.7,20.3c-16.1,11.8-33.4,21.8-51.7,29.8l-34,14.8l-87.8,18.6c2.3-9.9-0.5-20.7-8-28.1
			c-1.9-1.9-4.1-3.6-6.4-4.9l83.5-26.9c0.5-0.2,0.9-0.4,1.3-0.7L731,358.3c0.7,0.9,1.4,1.8,2,2.6c7.8,9.4,17.7,17.4,28.6,23
			c9.1,4.8,18.9,8,28.8,10.3c-0.3,0.5-0.4,1.1-0.5,1.8c-0.1,5,2.7,9.8,8.4,14.4c11.8,9.5,26.9,14.8,42,14.8c3.6,0,7.1-0.3,10.6-0.9
			c27.8-4.7,48.3-25.3,68.5-47.9c0.1-0.1,0.3-0.3,0.4-0.5c3.3-5,5.6-10.5,6.8-16.2C943.1,399.7,950.2,441,947.2,480z"/>
		<path class="st0" d="M728.9,250c1.5-48.3,11.7-79.6,22.6-99.4c0.3-0.3,0.5-0.6,0.7-1c0.5-1,1-2,1.5-2.9c5.5-9.2,11-15.5,15.5-19.8
			c0.2-0.2,0.4-0.5,0.6-0.7c14.8-13.7,34.3-21.5,55.3-21.5c29.9,0,57.4,16.4,71.7,42.7c0.4,0.7,0.9,1.2,1.5,1.5
			C916.7,181,921.1,224,921.9,250c0.4,13.2-1,26.8-4.2,41.5c-2.7,12.5-2.2,31.1,1.5,50.9c1.8,10-0.2,20.2-5.8,28.9
			c-19.2,21.4-38.5,40.8-63.7,45.1c-16.2,2.7-33.5-1.8-46.3-12.2c-3.7-3-5.5-5.7-5.5-8.1c0-0.1,0-0.2,0-0.3c10.9,2,21.7,3.1,32,4.2
			c0.1,0,0.3,0,0.4,0c2,0,3.8-1.5,4-3.6c0.2-2.2-1.4-4.2-3.6-4.4c-21.3-2.2-45.4-4.6-65.4-15.1c-9.9-5.2-19-12.5-26.1-21.1
			c-2.8-3.4-6.2-7.9-7.1-12.9l0.8-37.7c0.2-7.6-0.4-15.6-1.8-23.9C729.3,270.4,728.6,259.9,728.9,250z"/>
		<path class="st2" d="M728.9,250c1.5-48.3,11.7-79.6,22.6-99.4c0.3-0.3,0.5-0.6,0.7-1c0.5-1,1-2,1.5-2.9c5.5-9.2,11-15.5,15.5-19.8
			c0.2-0.2,0.4-0.5,0.6-0.7c14.8-13.7,34.3-21.5,55.3-21.5c29.9,0,57.4,16.4,71.7,42.7c0.4,0.7,0.9,1.2,1.5,1.5
			C916.7,181,921.1,224,921.9,250c0.4,13.2-1,26.8-4.2,41.5c-2.7,12.5-2.2,31.1,1.5,50.9c1.8,10-0.2,20.2-5.8,28.9
			c-19.2,21.4-38.5,40.8-63.7,45.1c-16.2,2.7-33.5-1.8-46.3-12.2c-3.7-3-5.5-5.7-5.5-8.1c0-0.1,0-0.2,0-0.3c10.9,2,21.7,3.1,32,4.2
			c0.1,0,0.3,0,0.4,0c2,0,3.8-1.5,4-3.6c0.2-2.2-1.4-4.2-3.6-4.4c-21.3-2.2-45.4-4.6-65.4-15.1c-9.9-5.2-19-12.5-26.1-21.1
			c-2.8-3.4-6.2-7.9-7.1-12.9l0.8-37.7c0.2-7.6-0.4-15.6-1.8-23.9C729.3,270.4,728.6,259.9,728.9,250z"/>
		<circle class="st0" cx="826" cy="220.8" r="75.6"/>
		<polygon class="st0" points="349.4,992.8 392.2,992.8 390.7,1002.2 349.8,1002.2 		"/>
		<polygon class="st0" points="501.2,1002.2 499.7,992.8 541,992.8 540.5,1002.2 		"/>
		<path class="st0" d="M553.9,720.6l-12.5,264.2h-42.9l-48.3-304.4c-0.1-0.5-0.3-1-0.5-1.4l-0.3-0.5c-0.7-1.2-2-1.9-3.4-1.9
			c0,0,0,0,0,0c-1.4,0-2.7,0.7-3.4,1.9l-0.3,0.5c-0.3,0.4-0.4,0.9-0.5,1.4l-48.3,304.5c-0.3-0.1-0.5-0.1-0.8-0.1h-43.5L338,720.6
			c0-0.4-0.7-41.3,13.7-90.7l8,20.5c0.5,1.2,1.6,2.2,2.9,2.5c3,0.7,6.1,1,9.1,1c0.8,0,1.6,0,2.3-0.1c0.3,0,0.6,0,0.9-0.1
			c0.4,0,0.9-0.1,1.3-0.1c0.4,0,0.8-0.1,1.2-0.2c0.3,0,0.6-0.1,0.9-0.1c0.5-0.1,1-0.2,1.5-0.3c0.2,0,0.4-0.1,0.6-0.1
			c0.6-0.1,1.1-0.3,1.7-0.4c0.1,0,0.1,0,0.2,0c7.9-2,15-6.3,20.6-12.5c0-0.1,0.1-0.1,0.1-0.2c0.4-0.4,0.8-0.9,1.1-1.3
			c0.1-0.1,0.2-0.3,0.3-0.4c0.2-0.3,0.5-0.6,0.7-0.8c0,0,0.1-0.1,0.1-0.1c5.5-7.1,8.7-16.1,8.7-25.7c0-2.2-1.8-4-4-4s-4,1.8-4,4
			c0,4.7-0.9,9.2-2.6,13.2l-15.9-57.6H514C554.7,638.8,554,718.3,553.9,720.6z"/>
		<path class="st2" d="M553.9,720.6l-12.5,264.2h-42.9l-48.3-304.4c-0.1-0.5-0.3-1-0.5-1.4l-0.3-0.5c-0.7-1.2-2-1.9-3.4-1.9
			c0,0,0,0,0,0c-1.4,0-2.7,0.7-3.4,1.9l-0.3,0.5c-0.3,0.4-0.4,0.9-0.5,1.4l-48.3,304.5c-0.3-0.1-0.5-0.1-0.8-0.1h-43.5L338,720.6
			c0-0.4-0.7-41.3,13.7-90.7l8,20.5c0.5,1.2,1.6,2.2,2.9,2.5c3,0.7,6.1,1,9.1,1c0.8,0,1.6,0,2.3-0.1c0.3,0,0.6,0,0.9-0.1
			c0.4,0,0.9-0.1,1.3-0.1c0.4,0,0.8-0.1,1.2-0.2c0.3,0,0.6-0.1,0.9-0.1c0.5-0.1,1-0.2,1.5-0.3c0.2,0,0.4-0.1,0.6-0.1
			c0.6-0.1,1.1-0.3,1.7-0.4c0.1,0,0.1,0,0.2,0c7.9-2,15-6.3,20.6-12.5c0-0.1,0.1-0.1,0.1-0.2c0.4-0.4,0.8-0.9,1.1-1.3
			c0.1-0.1,0.2-0.3,0.3-0.4c0.2-0.3,0.5-0.6,0.7-0.8c0,0,0.1-0.1,0.1-0.1c5.5-7.1,8.7-16.1,8.7-25.7c0-2.2-1.8-4-4-4s-4,1.8-4,4
			c0,4.7-0.9,9.2-2.6,13.2l-15.9-57.6H514C554.7,638.8,554,718.3,553.9,720.6z"/>
		<path class="st0" d="M655.8,353.7c0.3,0,0.6-0.1,0.9-0.2l67.6-22l-0.3,11.5c0,0.1,0,0.2,0,0.4c0,0.1,0,0.2,0,0.4c0,0,0,0,0,0.1
			c0,0,0,0,0,0c0.5,2.8,1.4,5.3,2.5,7.6l-55.9,46.3c-0.3,0-0.6,0.1-0.8,0.1c-0.5,0.2-52.5,14.8-99.3,9.6l19.9-53.7
			c0.2-0.6,0.3-1.2,0.2-1.7c12.9,1.9,25.9,2.8,38.9,2.8C638.4,355,647.1,354.5,655.8,353.7z"/>
		<path class="st0" d="M362.1,220.8c0-2.2-1.8-4-4-4c-7,0-12.8-5.7-12.8-12.8c0-7,5.7-12.7,12.7-12.8c0,0,0,0,0.1,0c0,0,0,0,0,0
			c0,0,0,0,0.1,0c0.3,0,0.5,0,0.8-0.1c0,0,0,0,0,0c0.1,0,0.2-0.1,0.3-0.1c0.1,0,0.3-0.1,0.4-0.1c0.1-0.1,0.2-0.1,0.3-0.2
			c0.1-0.1,0.2-0.1,0.3-0.2c0.1-0.1,0.2-0.2,0.3-0.3c0.1-0.1,0.2-0.1,0.3-0.2c0.1-0.1,0.2-0.2,0.3-0.3c0.1-0.1,0.2-0.2,0.2-0.3
			c0.1-0.1,0.1-0.2,0.2-0.3c0.1-0.1,0.1-0.2,0.2-0.3c0,0,0,0,0-0.1c7.2-4.5,14.7-14,22.4-28.1c12.8-5.1,21.9-11.8,27.8-17
			c-2.2,7-6.9,15.1-10.5,20c-1,1.4-1,3.2-0.1,4.6c1,1.4,2.7,2,4.3,1.6c26.3-7,39.9-16.8,46.5-23.2c0,2.4-0.4,5.4-1.9,9
			c-0.5,1.2-0.4,2.5,0.3,3.6c0.6,1.1,1.8,1.8,3,1.9c1.5,0.2,14.6,0.9,39.1-16.7c5.2,12.1,19,41.3,34.9,46.6c0.1,0,0.2,0.1,0.3,0.1
			c0,0,0.1,0,0.1,0c0,0,0,0,0.1,0c0.2,0.1,0.4,0.1,0.6,0.1c0.1,0,0.2,0,0.3,0c0.1,0,0.2,0,0.2,0c7,0,12.7,5.8,12.7,12.8
			c0,7-5.7,12.8-12.8,12.8c-2.2,0-4,1.9-4,4.1c0,44.7-36.4,81.1-81.1,81.1h-0.8C398.5,302,362.1,265.6,362.1,220.8z"/>
		<path class="st0" d="M443.2,310h0.8c8.3,0,16.4-1.2,24-3.3v15.7c0,12.5-10.2,22.7-22.7,22.7s-22.7-10.2-22.7-22.7v-14.7
			C429.3,309.2,436.1,310,443.2,310z"/>
		<path class="st0" d="M343,371.1c16.9-23.7,43.1-39.9,71.8-44.5c0.1,0,0.2,0,0.2-0.1c2,15,14.9,26.5,30.4,26.5
			c15.5,0,28.3-11.5,30.4-26.5c9.5,0.6,35.4,3.1,60.4,12c15.5,5.5,31.2,9.6,47,12.4c0,0.1-0.1,0.1-0.1,0.2l-27.7,74.7l-22.3-3.5
			c-1.2-0.2-2.3,0.2-3.2,0.9c-0.9,0.8-1.4,1.9-1.4,3c0,19.5-18.4,35.3-41,35.3c-2.2,0-4,1.8-4,4s1.8,4,4,4c9.3,0,17.9-2.3,25.3-6.2
			l0.9,95.8H385.4l-7.1-25.9l-5.7-74.7c8.7,6.8,20.1,11,32.6,11c2.2,0,4-1.8,4-4s-1.8-4-4-4c-22.6,0-41-15.9-41-35.3
			c0-2.2-1.8-4-4-4s-4,1.8-4,4c0,8,2.5,15.4,6.7,21.9c-16.7-5.8-47.8-16.5-60-20.7L343,371.1z"/>
		<path class="st0" d="M312.3,439.1c10.2,3.5,26.4,9.1,52.2,18l5.8,77.2c0,0.3,0.1,0.5,0.1,0.8l27.3,98.9c-0.2,0.2-0.3,0.4-0.5,0.6
			c0,0-0.1,0.1-0.1,0.1c-4.8,5.3-11.2,9-18.4,10.5c-0.1,0-0.2,0-0.2,0c-0.5,0.1-0.9,0.2-1.4,0.3c-0.2,0-0.4,0-0.5,0.1
			c-0.4,0.1-0.8,0.1-1.2,0.2c-0.3,0-0.6,0-0.9,0.1c-0.3,0-0.6,0.1-0.9,0.1c-0.6,0-1.2,0-1.8,0c-1.8,0-3.6-0.1-5.4-0.4l-40.5-103.6
			C324.9,538.3,311.2,486.6,312.3,439.1z"/>
		<path class="st0" d="M327.3,1037c1.1-0.7,1.8-2,1.8-3.4v-18.1c9,1.8,15.7,9.5,16,19.1c0.1,2.2,1.8,3.9,4,3.9l23.1,0
			c2.4,0,4.8-1,6.5-2.7c1.7-1.7,2.6-3.9,2.5-6.3c0-0.4,0.2-0.6,0.3-0.7c0.1-0.1,0.4-0.3,0.7-0.3h12.4v31.7H291.4L327.3,1037z"/>
		<path class="st0" d="M394,1073H289.2c-2.7,0-4.4-1.3-5.3-2.3c-0.6-0.7-1.1-1.6-1.4-2.5H394V1073z"/>
		<path class="st0" d="M382.2,1020.5c-2.4,0-4.7,1-6.4,2.7c-1.7,1.7-2.6,4-2.6,6.5c0,0.2-0.1,0.4-0.2,0.5c-0.2,0.2-0.5,0.3-0.8,0.3
			l-11.6,0v-20.3h28v10.3H382.2z"/>
		<path class="st0" d="M606.6,1070.6c-0.9,1.1-2.6,2.3-5.3,2.3H496.5v-4.8H608C607.7,1069,607.3,1069.9,606.6,1070.6z"/>
		<path class="st0" d="M545.4,1034.6c0.3-9.5,7-17.3,16-19.1v18.1c0,1.4,0.7,2.6,1.8,3.4l35.9,23.2H495.9v-31.7h12.4
			c0.4,0,0.6,0.2,0.7,0.3s0.3,0.4,0.3,0.7c0,2.3,0.9,4.6,2.5,6.3c1.7,1.7,4.1,2.7,6.5,2.7l23.1,0
			C543.6,1038.4,545.3,1036.7,545.4,1034.6z"/>
		<path class="st0" d="M529.9,1030.5l-11.6,0c-0.3,0-0.6-0.1-0.8-0.3c-0.2-0.2-0.2-0.3-0.2-0.5c0-2.4-0.9-4.7-2.6-6.5
			s-4-2.7-6.4-2.7h-6.4v-10.3h28V1030.5z"/>
		<path class="st0" d="M373.7,121.2C373.7,121.2,373.7,121.2,373.7,121.2c32.3-37.1,87.4-28,87.9-27.9c1.2,0.2,2.4-0.1,3.3-0.9
			c0.9-0.8,1.4-1.9,1.4-3.1v-6.4c2.7,3.5,5.1,8.7,6.4,12.7c0.4,1.3,1.5,2.3,2.8,2.6c1.3,0.3,2.8,0,3.7-1c4.9-4.7,11.4-5.9,16.7-5.8
			l-9.6,5.4c-1.3,0.7-2.1,2.2-2,3.7s1,2.9,2.4,3.5c21,9.1,33.9,25.6,38.2,49c2.2,11.6,1.6,22.2,0.9,28.2
			c-11.8-8.3-23.8-34.2-27.8-44.6c-0.5-1.2-1.4-2.1-2.6-2.4c-1.2-0.3-2.5-0.1-3.5,0.7c-15.6,11.9-26.5,16-32.4,17.4
			c2-10.2-2.1-16.3-2.3-16.6c-0.8-1.1-2.1-1.7-3.5-1.7c-1.4,0.1-2.6,0.9-3.3,2.1c-0.1,0.1-7.4,13-36.7,22.8
			c4.4-7.9,9.2-19.1,6.8-27.4c-0.4-1.5-1.7-2.6-3.2-2.8c-1.5-0.3-3,0.4-3.9,1.6c-0.1,0.1-10.6,14.2-32.5,22.9
			c-0.1,0-0.2,0.1-0.3,0.1c-1.2,0.2-2.3,0.9-2.9,2.1c-6,11.3-11.9,19.6-17.2,24.2C354.8,142.4,372.9,122.1,373.7,121.2z"/>
		<path class="st1" d="M373.7,121.2C373.7,121.2,373.7,121.2,373.7,121.2c32.3-37.1,87.4-28,87.9-27.9c1.2,0.2,2.4-0.1,3.3-0.9
			c0.9-0.8,1.4-1.9,1.4-3.1v-6.4c2.7,3.5,5.1,8.7,6.4,12.7c0.4,1.3,1.5,2.3,2.8,2.6c1.3,0.3,2.8,0,3.7-1c4.9-4.7,11.4-5.9,16.7-5.8
			l-9.6,5.4c-1.3,0.7-2.1,2.2-2,3.7s1,2.9,2.4,3.5c21,9.1,33.9,25.6,38.2,49c2.2,11.6,1.6,22.2,0.9,28.2
			c-11.8-8.3-23.8-34.2-27.8-44.6c-0.5-1.2-1.4-2.1-2.6-2.4c-1.2-0.3-2.5-0.1-3.5,0.7c-15.6,11.9-26.5,16-32.4,17.4
			c2-10.2-2.1-16.3-2.3-16.6c-0.8-1.1-2.1-1.7-3.5-1.7c-1.4,0.1-2.6,0.9-3.3,2.1c-0.1,0.1-7.4,13-36.7,22.8
			c4.4-7.9,9.2-19.1,6.8-27.4c-0.4-1.5-1.7-2.6-3.2-2.8c-1.5-0.3-3,0.4-3.9,1.6c-0.1,0.1-10.6,14.2-32.5,22.9
			c-0.1,0-0.2,0.1-0.3,0.1c-1.2,0.2-2.3,0.9-2.9,2.1c-6,11.3-11.9,19.6-17.2,24.2C354.8,142.4,372.9,122.1,373.7,121.2z"/>
		<path class="st2" d="M469.7,304.2c-8.1,2.5-16.7,3.9-25.6,3.9h-0.8c-7.9,0-15.6-1.1-22.8-3.1l-1.8,1.4v12.1
			c7.8,2.3,16,3.6,24.6,3.6h0.8c9.8,0,19.2-1.7,27.9-4.7v-11L469.7,304.2z"/>
		<g>
			<path class="st3" d="M850.4,471.2h-25.2c-2.2,0-4,1.8-4,4s1.8,4,4,4h25.2c2.2,0,4-1.8,4-4S852.6,471.2,850.4,471.2z"/>
			<path class="st3" d="M847.9,243.2L847.9,243.2h-42.8h0c-2.8,0-5.4,1.3-7.2,3.5c-1.7,2.2-2.3,4.9-1.7,7.6
				c3.3,14.2,15.8,24.1,30.3,24.1s27-9.9,30.3-24.1c0.6-2.7,0-5.4-1.7-7.6C853.3,244.4,850.7,243.2,847.9,243.2z M847.9,251.2
				c0.1,0,0.1,0,0.2,0c0.1,0,0.1,0,0.2,0c0.3,0.1,0.4,0.2,0.6,0.4c0.1,0.2,0.3,0.5,0.2,1c-0.3,1.4-0.8,2.8-1.4,4.2h-42.1
				c-0.6-1.3-1.1-2.7-1.4-4.2c0,0,0,0,0,0c-0.1-0.5,0.1-0.8,0.2-1c0.1-0.1,0.3-0.3,0.6-0.4c0,0,0.1,0,0.2,0c0.1,0,0.1,0,0.2,0H847.9
				z M811.4,264.7h30.1c-4.1,3.5-9.3,5.6-15.1,5.6S815.5,268.2,811.4,264.7z"/>
			<path class="st3" d="M814.5,225.8c1.7,3.2,5,5.2,8.6,5.2h12.5c2.2,0,4-1.8,4-4s-1.8-4-4-4h-12.5c-0.9,0-1.3-0.6-1.5-0.9
				c-0.2-0.3-0.4-1,0.1-1.7c6.3-9,8.1-17.7,5.9-29.2c-0.4-2.2-2.5-3.6-4.7-3.2c-2.2,0.4-3.6,2.5-3.2,4.7c1.7,9.5,0.4,16-4.6,23.2
				C813.1,218.8,812.8,222.6,814.5,225.8z"/>
			<path class="st3" d="M803.3,193.9c0-3.9-3.2-7.1-7.1-7.1s-7.1,3.2-7.1,7.1c0,3.9,3.2,7.1,7.1,7.1S803.3,197.8,803.3,193.9z"/>
			<path class="st3" d="M852.8,186.8c-3.9,0-7.1,3.2-7.1,7.1c0,3.9,3.2,7.1,7.1,7.1c3.9,0,7.1-3.2,7.1-7.1
				C859.9,189.9,856.7,186.8,852.8,186.8z"/>
			<path class="st3" d="M830.5,333.3c0-2.2-1.8-4-4-4c-25.8,0-50.3-11.3-67.1-30.9c-1.4-1.7-4-1.9-5.6-0.4c-1.7,1.4-1.9,4-0.4,5.6
				c18.3,21.4,45,33.7,73.2,33.7C828.7,337.3,830.5,335.5,830.5,333.3z"/>
			<path class="st3" d="M891.4,328.4c-16.8,19.6-41.3,30.9-67.1,30.9c-2.2,0-4,1.8-4,4s1.8,4,4,4c28.2,0,54.8-12.3,73.2-33.7
				c1.4-1.7,1.2-4.2-0.4-5.6C895.4,326.5,892.8,326.7,891.4,328.4z"/>
			<path class="st3" d="M780.3,181.9c1.9,1.1,4.4,0.5,5.5-1.5c2.2-3.7,6.1-6,10.4-6c4.3,0,8.3,2.3,10.4,6c0.7,1.3,2.1,2,3.5,2
				c0.7,0,1.4-0.2,2-0.5c1.9-1.1,2.6-3.6,1.5-5.5c-3.6-6.2-10.2-10-17.3-10c-7.1,0-13.7,3.8-17.3,10
				C777.8,178.3,778.4,180.8,780.3,181.9z"/>
			<path class="st3" d="M838.2,181.9c1.9,1.1,4.4,0.5,5.5-1.5c2.2-3.7,6.1-6,10.4-6c4.3,0,8.3,2.3,10.4,6c0.7,1.3,2.1,2,3.5,2
				c0.7,0,1.4-0.2,2-0.5c1.9-1.1,2.6-3.6,1.5-5.5c-3.6-6.2-10.2-10-17.3-10c-7.1,0-13.7,3.8-17.3,10
				C835.6,178.3,836.3,180.8,838.2,181.9z"/>
			<path class="st3" d="M826,304.3c46.1,0,83.6-37.5,83.6-83.6c0-46.1-37.5-83.6-83.6-83.6s-83.6,37.5-83.6,83.6
				C742.4,266.8,779.9,304.3,826,304.3z M826,145.2c41.7,0,75.6,33.9,75.6,75.6c0,41.7-33.9,75.6-75.6,75.6s-75.6-33.9-75.6-75.6
				C750.4,179.1,784.3,145.2,826,145.2z"/>
			<path class="st3" d="M928.2,343.3c-0.2-0.5-0.6-1-1-1.3c-0.1-0.3-0.1-0.7-0.2-1c-3.5-18.8-4-36.2-1.5-47.7
				c3.4-15.4,4.8-29.7,4.4-43.5c-1-33.8-8-95.5-42.9-128.7c-0.4-0.4-0.8-0.6-1.2-0.8c-16.3-15-37.8-23.7-60.6-23.7
				c-31.6,0-60.2,16.3-76.4,42.9c-7.9,12.4-14.3,27.4-18.9,44.9c-6.4,24.2-8.4,48.9-8.9,65.4c-0.3,10.4,0.5,21.4,2.3,32.7
				c1.3,7.8,1.8,15.3,1.7,22.4l-0.4,18.1l-69.9,22.8c-39,3.7-78-1.3-115.8-14.7c-25.4-9.1-51.1-11.7-61.7-12.4c-0.1,0-0.1,0-0.2,0
				c-0.3,0-0.7,0-1-0.1v-14.3c0-0.1,0-0.2,0-0.3c32.3-12.5,55.6-43.2,57-79.6c9.6-1.8,16.8-10.3,16.8-20.4c0-9.9-6.9-18.1-16.2-20.2
				c0.8-6.2,1.7-18.3-0.8-32c-4.3-23.3-16.6-41-36-51.7l12.9-7.3c1.4-0.8,2.2-2.3,2-3.8c-0.1-1.6-1.2-2.9-2.7-3.4
				c-0.8-0.3-17.5-6-30.9,2.4c-2.6-6-7.8-15.1-15.1-16.8c-1.2-0.3-2.4,0-3.4,0.8c-1,0.8-1.5,1.9-1.5,3.1v9.7
				c-14.8-1.6-60.7-3.2-90.5,31.1c-1.5,1.6-22.4,25.5-14.5,68c-9.2,2.2-16,10.4-16,20.2c0,10.1,7.3,18.6,16.8,20.4
				c1.5,37.6,26.4,69.3,60.6,80.9v13.3c-0.4-0.1-0.8-0.1-1.2,0c-30.8,4.9-58.9,22.4-77.1,47.8l-43.2,60.6c-0.7,1-0.9,2.2-0.6,3.3
				c0.3,1.1,1,2.1,2.1,2.6c0.1,0.1,0.2,0.1,9.7,3.4c-1.8,50.9,13.2,105.5,13.8,107.8c0,0.1,0.1,0.3,0.1,0.4L347,618c0,0,0,0.1,0,0.1
				c-17.8,54.9-17,100.8-17,102.8l12,285.5c0.1,2.1,1.9,3.8,4,3.8h6.6v19.5c-2.5-13-13.8-22.6-27.5-22.6c-2.2,0-4,1.8-4,4v20.3
				l-44,28.4c-0.4,0.2-0.7,0.5-0.9,0.9c-1,0.6-1.7,1.6-1.9,2.9c-0.7,4.4,0.7,9,3.5,12.3c2.8,3.3,6.9,5.1,11.4,5.1H398
				c2,0,3.7-1.5,4-3.5c0.4-0.6,0.7-1.4,0.7-2.2v-50.8c0-2.2-1.8-4-4-4h-2v-11.1c0.8-0.6,1.3-1.5,1.5-2.5L446,704.6l47.9,302.2
				c0,0.1,0,0.1,0,0.2v13.5h-2c-2.2,0-4,1.8-4,4v50.8c0,0.8,0.2,1.6,0.7,2.2c0.2,2,1.9,3.5,4,3.5h108.8c4.5,0,8.5-1.8,11.4-5.1
				c2.9-3.3,4.2-7.9,3.5-12.3c-0.2-1.2-0.9-2.3-1.9-2.9c-0.3-0.3-0.6-0.6-0.9-0.9l-44-28.4v-20.3c0-2.2-1.8-4-4-4
				c-13.7,0-25,9.6-27.5,22.6v-19.5h6.5c2.1,0,3.9-1.7,4-3.8l13.6-285.5c0,0,0-0.1,0-0.1c0-0.8,1.3-82.8-40.6-157
				c0.1-0.4,0.2-0.8,0.2-1.3l-0.4-41.7l125-26.4c0.3-0.1,0.5-0.1,0.8-0.2l34.4-14.9c17.9-7.8,35-17.5,50.9-28.9
				c0.7,1.8,1.5,3.5,2.5,5.3c2.8,5,6.5,9.5,10.9,13.4c0,0.1,0,0.2,0,0.3l-0.9,96.2c-42.2,74.1-41,156.4-40.9,157.3l11.9,283.9
				c0.1,2.1,1.9,3.8,4,3.8h7.8v7.4c-9,0.5-17.9,2.8-26.1,6.8l-51.3,24.9c-0.2,0.1-0.4,0.2-0.7,0.4c-5.3,4-7.3,10.6-5.3,16.8
				c0.8,2.5,2.2,4.6,4,6.3c0,0,0,0,0.1,0.1c0.3,0.3,0.7,0.6,1.1,0.9c0.1,0,0.1,0.1,0.2,0.1c0.4,0.3,0.8,0.5,1.1,0.8
				c0.2,0.1,0.3,0.2,0.5,0.3c0.2,0.1,0.5,0.3,0.7,0.4c0.2,0.1,0.4,0.2,0.6,0.3c0.2,0.1,0.5,0.2,0.7,0.3c0.3,0.1,0.5,0.2,0.8,0.3
				c0.3,0.1,0.7,0.2,1,0.3c0.2,0,0.4,0.1,0.6,0.1c0.3,0.1,0.6,0.1,0.9,0.1c0.2,0,0.3,0,0.5,0.1c0.5,0,1,0.1,1.5,0.1h108.8
				c2.2,0,4-1.8,4-4v-12.8v-38.5c0-0.2,0-0.3,0-0.4c0-0.1,0-0.3,0-0.4v-13.1c0.1-0.2,0.1-0.5,0.2-0.7L819,706.6l47.6,300.5
				c0.3,1.9,2,3.4,4,3.4h5v7.4c-9,0.5-18,2.8-26.1,6.8l-51.3,24.9c-0.2,0.1-0.4,0.2-0.7,0.4c-5.3,4-7.3,10.6-5.3,16.8
				c0.8,2.5,2.2,4.6,4,6.3c0,0,0,0,0.1,0.1c0.3,0.3,0.7,0.6,1.1,0.9c0.1,0,0.1,0.1,0.2,0.1c0.4,0.3,0.8,0.5,1.1,0.8
				c0.2,0.1,0.3,0.2,0.5,0.3c0.2,0.1,0.5,0.3,0.7,0.4c0.2,0.1,0.4,0.2,0.6,0.3c0.2,0.1,0.5,0.2,0.7,0.3c0.3,0.1,0.5,0.2,0.8,0.3
				c0.3,0.1,0.7,0.2,1,0.3c0.2,0,0.4,0.1,0.6,0.1c0.3,0.1,0.6,0.1,0.9,0.1c0.2,0,0.3,0,0.5,0.1c0.5,0,1,0.1,1.5,0.1h108.8
				c2.2,0,4-1.8,4-4v-12.8v-37.9c0-0.2,0.1-0.4,0.1-0.6v-12.2c0.8-0.7,1.4-1.7,1.5-2.9l13.5-283.9c0,0,0-0.1,0-0.1
				c0-1.7,0.7-42.2-13.9-92.6l1.6-5.5c0,0,0,0,0-0.1l30.2-105.7c0.1-0.3,0.1-0.5,0.1-0.8l2.9-37.4
				C958.6,435.9,949.3,388.4,928.2,343.3z M728.9,250c1.5-48.3,11.7-79.6,22.6-99.4c0.3-0.3,0.5-0.6,0.7-1c0.5-1,1-2,1.5-2.9
				c5.5-9.2,11-15.5,15.5-19.8c0.2-0.2,0.4-0.5,0.6-0.7c14.8-13.7,34.3-21.5,55.3-21.5c29.9,0,57.4,16.4,71.7,42.7
				c0.4,0.7,0.9,1.2,1.5,1.5C916.7,181,921.1,224,921.9,250c0.4,13.2-1,26.8-4.2,41.5c-2.7,12.5-2.2,31.1,1.5,50.9
				c1.8,10-0.2,20.2-5.8,28.9c-19.2,21.4-38.5,40.8-63.7,45.1c-16.2,2.7-33.5-1.8-46.3-12.2c-3.7-3-5.5-5.7-5.5-8.1
				c0-0.1,0-0.2,0-0.3c10.9,2,21.7,3.1,32,4.2c0.1,0,0.3,0,0.4,0c2,0,3.8-1.5,4-3.6c0.2-2.2-1.4-4.2-3.6-4.4
				c-21.3-2.2-45.4-4.6-65.4-15.1c-9.9-5.2-19-12.5-26.1-21.1c-2.8-3.4-6.2-7.9-7.1-12.9l0.8-37.7c0.2-7.6-0.4-15.6-1.8-23.9
				C729.3,270.4,728.6,259.9,728.9,250z M655.8,353.7c0.3,0,0.6-0.1,0.9-0.2l67.6-22l-0.3,11.5c0,0.1,0,0.2,0,0.4c0,0.1,0,0.2,0,0.4
				c0,0,0,0,0,0.1c0,0,0,0,0,0c0.5,2.8,1.4,5.3,2.5,7.6l-55.9,46.3c-0.3,0-0.6,0.1-0.8,0.1c-0.5,0.2-52.5,14.8-99.3,9.6l19.9-53.7
				c0.2-0.6,0.3-1.2,0.2-1.7c12.9,1.9,25.9,2.8,38.9,2.8C638.4,355,647.1,354.5,655.8,353.7z M520.7,470.6l-0.1-12
				c0-0.2,0-0.4-0.1-0.6c8.5-6.9,14.3-16.5,15.6-27.2l21.2,3.3c1.9,0.3,3.7-0.8,4.4-2.6l6.1-16.3c8.1,1,16.4,1.4,24.5,1.4
				c25.4,0,49.5-4.1,64.5-7.3l-34.5,28.6L520.7,470.6z M373.7,121.2C373.7,121.2,373.7,121.2,373.7,121.2
				c32.3-37.1,87.4-28,87.9-27.9c1.2,0.2,2.4-0.1,3.3-0.9c0.9-0.8,1.4-1.9,1.4-3.1v-6.4c2.7,3.5,5.1,8.7,6.4,12.7
				c0.4,1.3,1.5,2.3,2.8,2.6c1.3,0.3,2.8,0,3.7-1c4.9-4.7,11.4-5.9,16.7-5.8l-9.6,5.4c-1.3,0.7-2.1,2.2-2,3.7s1,2.9,2.4,3.5
				c21,9.1,33.9,25.6,38.2,49c2.2,11.6,1.6,22.2,0.9,28.2c-11.8-8.3-23.8-34.2-27.8-44.6c-0.5-1.2-1.4-2.1-2.6-2.4
				c-1.2-0.3-2.5-0.1-3.5,0.7c-15.6,11.9-26.5,16-32.4,17.4c2-10.2-2.1-16.3-2.3-16.6c-0.8-1.1-2.1-1.7-3.5-1.7
				c-1.4,0.1-2.6,0.9-3.3,2.1c-0.1,0.1-7.4,13-36.7,22.8c4.4-7.9,9.2-19.1,6.8-27.4c-0.4-1.5-1.7-2.6-3.2-2.8
				c-1.5-0.3-3,0.4-3.9,1.6c-0.1,0.1-10.6,14.2-32.5,22.9c-0.1,0-0.2,0.1-0.3,0.1c-1.2,0.2-2.3,0.9-2.9,2.1
				c-6,11.3-11.9,19.6-17.2,24.2C354.8,142.4,372.9,122.1,373.7,121.2z M362.1,220.8c0-2.2-1.8-4-4-4c-7,0-12.8-5.7-12.8-12.8
				c0-7,5.7-12.7,12.7-12.8c0,0,0,0,0.1,0c0,0,0,0,0,0c0,0,0,0,0.1,0c0.3,0,0.5,0,0.8-0.1c0,0,0,0,0,0c0.1,0,0.2-0.1,0.3-0.1
				c0.1,0,0.3-0.1,0.4-0.1c0.1-0.1,0.2-0.1,0.3-0.2c0.1-0.1,0.2-0.1,0.3-0.2c0.1-0.1,0.2-0.2,0.3-0.3c0.1-0.1,0.2-0.1,0.3-0.2
				c0.1-0.1,0.2-0.2,0.3-0.3c0.1-0.1,0.2-0.2,0.2-0.3c0.1-0.1,0.1-0.2,0.2-0.3c0.1-0.1,0.1-0.2,0.2-0.3c0,0,0,0,0-0.1
				c7.2-4.5,14.7-14,22.4-28.1c12.8-5.1,21.9-11.8,27.8-17c-2.2,7-6.9,15.1-10.5,20c-1,1.4-1,3.2-0.1,4.6c1,1.4,2.7,2,4.3,1.6
				c26.3-7,39.9-16.8,46.5-23.2c0,2.4-0.4,5.4-1.9,9c-0.5,1.2-0.4,2.5,0.3,3.6c0.6,1.1,1.8,1.8,3,1.9c1.5,0.2,14.6,0.9,39.1-16.7
				c5.2,12.1,19,41.3,34.9,46.6c0.1,0,0.2,0.1,0.3,0.1c0,0,0.1,0,0.1,0c0,0,0,0,0.1,0c0.2,0.1,0.4,0.1,0.6,0.1c0.1,0,0.2,0,0.3,0
				c0.1,0,0.2,0,0.2,0c7,0,12.7,5.8,12.7,12.8c0,7-5.7,12.8-12.8,12.8c-2.2,0-4,1.9-4,4.1c0,44.7-36.4,81.1-81.1,81.1h-0.8
				C398.5,302,362.1,265.6,362.1,220.8z M443.2,310h0.8c8.3,0,16.4-1.2,24-3.3v15.7c0,12.5-10.2,22.7-22.7,22.7
				s-22.7-10.2-22.7-22.7v-14.7C429.3,309.2,436.1,310,443.2,310z M343,371.1c16.9-23.7,43.1-39.9,71.8-44.5c0.1,0,0.2,0,0.2-0.1
				c2,15,14.9,26.5,30.4,26.5c15.5,0,28.3-11.5,30.4-26.5c9.5,0.6,35.4,3.1,60.4,12c15.5,5.5,31.2,9.6,47,12.4
				c0,0.1-0.1,0.1-0.1,0.2l-27.7,74.7l-22.3-3.5c-1.2-0.2-2.3,0.2-3.2,0.9c-0.9,0.8-1.4,1.9-1.4,3c0,19.5-18.4,35.3-41,35.3
				c-2.2,0-4,1.8-4,4s1.8,4,4,4c9.3,0,17.9-2.3,25.3-6.2l0.9,95.8H385.4l-7.1-25.9l-5.7-74.7c8.7,6.8,20.1,11,32.6,11
				c2.2,0,4-1.8,4-4s-1.8-4-4-4c-22.6,0-41-15.9-41-35.3c0-2.2-1.8-4-4-4s-4,1.8-4,4c0,8,2.5,15.4,6.7,21.9
				c-16.7-5.8-47.8-16.5-60-20.7L343,371.1z M312.3,439.1c10.2,3.5,26.4,9.1,52.2,18l5.8,77.2c0,0.3,0.1,0.5,0.1,0.8l27.3,98.9
				c-0.2,0.2-0.3,0.4-0.5,0.6c0,0-0.1,0.1-0.1,0.1c-4.8,5.3-11.2,9-18.4,10.5c-0.1,0-0.2,0-0.2,0c-0.5,0.1-0.9,0.2-1.4,0.3
				c-0.2,0-0.4,0-0.5,0.1c-0.4,0.1-0.8,0.1-1.2,0.2c-0.3,0-0.6,0-0.9,0.1c-0.3,0-0.6,0.1-0.9,0.1c-0.6,0-1.2,0-1.8,0
				c-1.8,0-3.6-0.1-5.4-0.4l-40.5-103.6C324.9,538.3,311.2,486.6,312.3,439.1z M349.4,992.8h42.7l-1.5,9.4h-40.8L349.4,992.8z
				 M327.3,1037c1.1-0.7,1.8-2,1.8-3.4v-18.1c9,1.8,15.7,9.5,16,19.1c0.1,2.2,1.8,3.9,4,3.9l23.1,0c2.4,0,4.8-1,6.5-2.7
				c1.7-1.7,2.6-3.9,2.5-6.3c0-0.4,0.2-0.6,0.3-0.7c0.1-0.1,0.4-0.3,0.7-0.3h12.4v31.7H291.4L327.3,1037z M394,1073H289.2
				c-2.7,0-4.4-1.3-5.3-2.3c-0.6-0.7-1.1-1.6-1.4-2.5H394V1073z M382.2,1020.5c-2.4,0-4.7,1-6.4,2.7c-1.7,1.7-2.6,4-2.6,6.5
				c0,0.2-0.1,0.4-0.2,0.5c-0.2,0.2-0.5,0.3-0.8,0.3l-11.6,0v-20.3h28v10.3H382.2z M606.6,1070.6c-0.9,1.1-2.6,2.3-5.3,2.3H496.5
				v-4.8H608C607.7,1069,607.3,1069.9,606.6,1070.6z M545.4,1034.6c0.3-9.5,7-17.3,16-19.1v18.1c0,1.4,0.7,2.6,1.8,3.4l35.9,23.2
				H495.9v-31.7h12.4c0.4,0,0.6,0.2,0.7,0.3s0.3,0.4,0.3,0.7c0,2.3,0.9,4.6,2.5,6.3c1.7,1.7,4.1,2.7,6.5,2.7l23.1,0
				C543.6,1038.4,545.3,1036.7,545.4,1034.6z M529.9,1030.5l-11.6,0c-0.3,0-0.6-0.1-0.8-0.3c-0.2-0.2-0.2-0.3-0.2-0.5
				c0-2.4-0.9-4.7-2.6-6.5s-4-2.7-6.4-2.7h-6.4v-10.3h28V1030.5z M501.2,1002.2l-1.5-9.4H541l-0.4,9.4H501.2z M553.9,720.6
				l-12.5,264.2h-42.9l-48.3-304.4c-0.1-0.5-0.3-1-0.5-1.4l-0.3-0.5c-0.7-1.2-2-1.9-3.4-1.9c0,0,0,0,0,0c-1.4,0-2.7,0.7-3.4,1.9
				l-0.3,0.5c-0.3,0.4-0.4,0.9-0.5,1.4l-48.3,304.5c-0.3-0.1-0.5-0.1-0.8-0.1h-43.5L338,720.6c0-0.4-0.7-41.3,13.7-90.7l8,20.5
				c0.5,1.2,1.6,2.2,2.9,2.5c3,0.7,6.1,1,9.1,1c0.8,0,1.6,0,2.3-0.1c0.3,0,0.6,0,0.9-0.1c0.4,0,0.9-0.1,1.3-0.1
				c0.4,0,0.8-0.1,1.2-0.2c0.3,0,0.6-0.1,0.9-0.1c0.5-0.1,1-0.2,1.5-0.3c0.2,0,0.4-0.1,0.6-0.1c0.6-0.1,1.1-0.3,1.7-0.4
				c0.1,0,0.1,0,0.2,0c7.9-2,15-6.3,20.6-12.5c0-0.1,0.1-0.1,0.1-0.2c0.4-0.4,0.8-0.9,1.1-1.3c0.1-0.1,0.2-0.3,0.3-0.4
				c0.2-0.3,0.5-0.6,0.7-0.8c0,0,0.1-0.1,0.1-0.1c5.5-7.1,8.7-16.1,8.7-25.7c0-2.2-1.8-4-4-4s-4,1.8-4,4c0,4.7-0.9,9.2-2.6,13.2
				l-15.9-57.6H514C554.7,638.8,554,718.3,553.9,720.6z M520.8,479l8.8-2.8c0.4,0.2,0.7,0.3,1.2,0.4c4.5,0.8,8.7,2.9,11.9,6.1
				c6.4,6.4,8.2,16.2,4.6,24.4l-26.2,5.6L520.8,479z M763.2,1010.5v7.3c-5.4,0.1-9.8,4.5-9.8,10c0,1.1-0.9,2-2,2h-14
				c-1.1,0-2-0.9-2-2v-6v-11.3H763.2z M704.9,1031.9c7-3.4,14.8-5.4,22.6-6v1.9c0,5.5,4.5,10,10,10h14c5.5,0,10-4.5,10-10
				c0-1,0.8-1.9,1.8-2v30.5H654.6L704.9,1031.9z M763.2,1069.1H658.4c-0.3,0-0.6,0-0.9-0.1c-0.1,0-0.2,0-0.3,0
				c-0.2,0-0.4-0.1-0.6-0.1c-0.1,0-0.2,0-0.2-0.1c-0.2-0.1-0.4-0.1-0.7-0.2c-0.1,0-0.2-0.1-0.3-0.1c-0.1-0.1-0.2-0.1-0.4-0.2
				c-0.1,0-0.2-0.1-0.3-0.1c-0.1-0.1-0.2-0.1-0.3-0.2c-0.1-0.1-0.2-0.1-0.2-0.2c-0.1-0.1-0.2-0.2-0.3-0.2c-0.1-0.1-0.1-0.1-0.2-0.2
				c-0.1-0.1-0.3-0.2-0.4-0.3c0,0-0.1-0.1-0.1-0.1c-0.1-0.1-0.2-0.2-0.3-0.3c0,0,0,0,0,0c-0.1-0.2-0.3-0.3-0.4-0.5c0,0,0,0,0,0
				c-0.4-0.6-0.7-1.2-1-1.9h111.5V1069.1z M911.4,1010.5v7.3c-5.4,0.1-9.9,4.5-9.9,10c0,1.1-0.9,2-2,2h-14c-1.1,0-2-0.9-2-2v-5.1
				c0-0.2,0.1-0.4,0.1-0.6v-11.7H911.4z M853,1031.9c7-3.4,14.8-5.4,22.6-6v1.9c0,5.5,4.5,10,10,10h14c5.5,0,10-4.5,10-10
				c0-1,0.8-1.9,1.8-2v30.5H802.7L853,1031.9z M911.4,1069.1H806.6c-0.3,0-0.6,0-0.9-0.1c-0.1,0-0.2,0-0.3,0c-0.2,0-0.4-0.1-0.6-0.1
				c-0.1,0-0.2,0-0.2-0.1c-0.2-0.1-0.4-0.1-0.7-0.2c-0.1,0-0.2-0.1-0.3-0.1c-0.1-0.1-0.2-0.1-0.4-0.2c-0.1,0-0.2-0.1-0.3-0.1
				c-0.1-0.1-0.2-0.1-0.3-0.2c-0.1-0.1-0.2-0.1-0.2-0.2c-0.1-0.1-0.2-0.2-0.3-0.2c-0.1-0.1-0.1-0.1-0.2-0.2
				c-0.1-0.1-0.3-0.2-0.4-0.3c0,0-0.1-0.1-0.1-0.1c-0.1-0.1-0.2-0.2-0.3-0.3c0,0,0,0,0,0c-0.1-0.2-0.3-0.3-0.4-0.5c0,0,0,0,0,0
				c-0.4-0.6-0.7-1.2-1-1.9h111.5V1069.1z M926.4,722.4l-13.3,280.1H874l-50.7-320.1c0,0,0-0.1,0-0.1c0-0.1-0.1-0.3-0.1-0.4
				c0-0.1-0.1-0.2-0.1-0.3c0-0.1-0.1-0.2-0.2-0.4c0-0.1-0.1-0.1-0.1-0.2l-0.3-0.5c-0.4-0.7-1-1.2-1.6-1.5L792,652.2
				c-1.6-1.5-4.2-1.4-5.7,0.2c-1.5,1.6-1.4,4.2,0.2,5.7l28,25.9L764,1002.5h-40.6l-11.8-280c0-0.8-1.2-79.9,39.1-151.7H881
				l-6.8,38.3c0,0,0,0.1,0,0.1l-2.9,16.7l-4.8-0.4c-3.8-0.3-7.5,0.9-10.4,3.4c-2.9,2.5-4.7,6-5,9.8c-0.3,3.8,0.9,7.5,3.4,10.4
				c2.5,2.9,6,4.7,9.8,5l1.6,0.1l-1.3,6.6c-1.2,6.3,0.3,12.9,4.2,18s9.8,8.3,16.2,8.9c0.6,0,1.2,0.1,1.8,0.1c10,0,19-6.7,21.8-16.4
				l7.5-26.2C926.8,687.5,926.4,721,926.4,722.4z M901.1,669c-1.9,6.7-8.3,11.1-15.3,10.6c-4.2-0.3-8-2.4-10.5-5.7
				c-2.5-3.3-3.5-7.6-2.7-11.7l2.1-11c0.2-1.1-0.1-2.3-0.7-3.2c-0.7-0.9-1.7-1.5-2.9-1.6l-6.1-0.5c-1.7-0.1-3.2-0.9-4.3-2.2
				s-1.6-2.9-1.5-4.6c0.1-1.7,0.9-3.2,2.2-4.3c1.3-1.1,2.9-1.6,4.6-1.5l8.4,0.7c2.1,0.2,3.9-1.3,4.3-3.3l3.3-18.7
				c3.4-2.1,7.4-3.2,11.5-3.2c9.3,0,17.6,6,20.7,14.6L901.1,669z M947.2,480l-2.8,37l-27.3,95.7c-5.6-7.2-14.3-11.8-23.8-11.8
				c-3.4,0-6.7,0.6-9.8,1.6l15.6-88.3c0.1-0.3,0.1-0.6,0.1-0.9l-3.5-78.7c-0.1-2.2-1.9-3.9-4.2-3.8c-2.2,0.1-3.9,2-3.8,4.2l3.5,78.2
				l-8.7,49.5H752.7l0.8-88.1c2.9,1.7,6,3.2,9.2,4.3c0.5,0.2,0.9,0.2,1.4,0.2c1.6,0,3.2-1,3.8-2.6c0.8-2.1-0.3-4.4-2.4-5.1
				c-10.3-3.8-18.8-10.8-23.7-19.8c-1.6-2.8-2.7-5.7-3.5-8.7c0-0.1,0-0.2-0.1-0.3c-1.5-6.1-1.2-12.4,0.9-18.2
				c0.8-2.1-0.3-4.4-2.4-5.1c-2.1-0.8-4.4,0.3-5.1,2.4c-2.4,6.5-2.9,13.5-1.7,20.3c-16.1,11.8-33.4,21.8-51.7,29.8l-34,14.8
				l-87.8,18.6c2.3-9.9-0.5-20.7-8-28.1c-1.9-1.9-4.1-3.6-6.4-4.9l83.5-26.9c0.5-0.2,0.9-0.4,1.3-0.7L731,358.3
				c0.7,0.9,1.4,1.8,2,2.6c7.8,9.4,17.7,17.4,28.6,23c9.1,4.8,18.9,8,28.8,10.3c-0.3,0.5-0.4,1.1-0.5,1.8c-0.1,5,2.7,9.8,8.4,14.4
				c11.8,9.5,26.9,14.8,42,14.8c3.6,0,7.1-0.3,10.6-0.9c27.8-4.7,48.3-25.3,68.5-47.9c0.1-0.1,0.3-0.3,0.4-0.5
				c3.3-5,5.6-10.5,6.8-16.2C943.1,399.7,950.2,441,947.2,480z"/>
			<path class="st3" d="M475.4,251.8c0.5-2.2-0.8-4.3-3-4.8c-2.1-0.5-4.3,0.8-4.8,3c-2.4,10.5-11.7,17.9-22.5,17.9c-2.2,0-4,1.8-4,4
				s1.8,4,4,4C459.6,275.9,472.1,266,475.4,251.8z"/>
			<path class="st3" d="M454.2,242.6c2.2,0,4-1.8,4-4s-1.8-4-4-4h-12.5c-0.9,0-1.3-0.6-1.5-0.9c-0.2-0.3-0.4-1,0.1-1.7
				c3.1-4.5,5.1-8.7,6-13.2c0.5-2.2-0.9-4.3-3.1-4.8c-2.2-0.5-4.3,0.9-4.8,3.1c-0.8,3.5-2.3,6.8-4.8,10.3c-2.1,3-2.3,6.8-0.7,10
				c1.7,3.2,5,5.2,8.6,5.2H454.2z"/>
			<path class="st3" d="M411.7,202.6c3.9,0,7.1-3.2,7.1-7.1c0-3.9-3.2-7.1-7.1-7.1s-7.1,3.2-7.1,7.1
				C404.6,199.4,407.8,202.6,411.7,202.6z"/>
			<circle class="st3" cx="474.4" cy="195.5" r="7.1"/>
			<path class="st3" d="M488.1,418.7c11.3,0,20.5-9.2,20.5-20.5v-16.5c0-2.2-1.8-4-4-4h-33c-2.2,0-4,1.8-4,4v16.5
				C467.6,409.5,476.8,418.7,488.1,418.7z M475.6,385.7h25v12.5c0,6.9-5.6,12.5-12.5,12.5s-12.5-5.6-12.5-12.5V385.7z"/>
			<path class="st3" d="M437.9,211.8v-12.3l10.3,0v12.4c0,2.2,1.8,4,4,4h44.2c2.2,0,4-1.8,4-4V179c0-2.2-1.8-4-4-4h-44.2
				c-2.2,0-4,1.8-4,4v12.4l-10.3,0V179c0-2.2-1.8-4-4-4h-44.2c-2.2,0-4,1.8-4,4v32.8c0,2.2,1.8,4,4,4h44.2
				C436.1,215.8,437.9,214,437.9,211.8z M456.2,183h36.2v24.8h-36.2V183z M429.9,207.8h-36.2V183h36.2V207.8z"/>
		</g>
	</g>
	<path class="st1" d="M327.3,1037c1.1-0.7,1.8-2,1.8-3.4v-18.1c9,1.8,15.7,9.5,16,19.1c0.1,2.2,1.8,3.9,4,3.9l23.1,0
		c2.4,0,4.8-1,6.5-2.7c1.7-1.7,2.6-3.9,2.5-6.3c0-0.4,0.2-0.6,0.3-0.7c0.1-0.1,0.4-0.3,0.7-0.3h12.4v31.7H291.4L327.3,1037z"/>
	<path class="st1" d="M545.4,1034.6c0.3-9.5,7-17.3,16-19.1v18.1c0,1.4,0.7,2.6,1.8,3.4l35.9,23.2H495.9v-31.7h12.4
		c0.4,0,0.6,0.2,0.7,0.3s0.3,0.4,0.3,0.7c0,2.3,0.9,4.6,2.5,6.3c1.7,1.7,4.1,2.7,6.5,2.7l23.1,0
		C543.6,1038.4,545.3,1036.7,545.4,1034.6z"/>
</g>
</svg>
