<?xml version="1.0" encoding="utf-8"?>
<!-- Generator: Adobe Illustrator 22.1.0, SVG Export Plug-In . SVG Version: 6.00 Build 0)  -->
<svg version="1.1" id="Layer_1" xmlns="http://www.w3.org/2000/svg" xmlns:xlink="http://www.w3.org/1999/xlink" x="0px" y="0px"
	 viewBox="0 0 1230 1152" style="enable-background:new 0 0 1230 1152;" xml:space="preserve">
<style type="text/css">
	.st0{fill:#FFFFFF;}
	.st1{opacity:0.4;fill:#0073EC;enable-background:new    ;}
	.st2{opacity:0.4;fill:#A644E5;enable-background:new    ;}
	.st3{fill:#0073EC;}
</style>
<title>qArtboard 1</title>
<g>
	<path class="st0" d="M958.9,709c14.7,0,27.9,8.8,33.3,22.4l86.8,213.1l-23.1,11.9c-0.5,0.2-0.9,0.6-1.2,1l-15.7-0.1
		c-0.1-0.5-0.3-1-0.6-1.5l-112.7-179c-0.7-1.2-2.1-1.9-3.5-1.9l-10.4,0.2l-19-46.8c-3.2-7.8-8.5-14.6-15.4-19.4L958.9,709z"/>
	<path class="st0" d="M885.6,731.4l86.8,213.1l-31,16.1l-5,2.6l-64.8-103c-0.1-0.1-0.2-0.3-0.3-0.4c-5.8-60.8-38-115.9-88.1-150.8
		h69.1C866.8,708.9,880.1,717.8,885.6,731.4z"/>
	<path class="st1" d="M958.9,709c14.7,0,27.9,8.8,33.3,22.4l86.8,213.1l-23.1,11.9c-0.5,0.2-0.9,0.6-1.2,1l-15.7-0.1
		c-0.1-0.5-0.3-1-0.6-1.5l-112.7-179c-0.7-1.2-2.1-1.9-3.5-1.9l-10.4,0.2l-19-46.8c-3.2-7.8-8.5-14.6-15.4-19.4L958.9,709z"/>
	<path class="st1" d="M885.6,731.4l86.8,213.1l-31,16.1l-5,2.6l-64.8-103c-0.1-0.1-0.2-0.3-0.3-0.4c-5.8-60.8-38-115.9-88.1-150.8
		h69.1C866.8,708.9,880.1,717.8,885.6,731.4z"/>
	<path class="st0" d="M1074.6,1022.6l-2.5-4.9l98.9-51.5c0.1,0.6,0.1,1.3,0.1,1.9L1074.6,1022.6z"/>
	<path class="st0" d="M1108.9,962l55.9-1.5l-96.4,50.1l-1.3-2.5l46.9-26c1.9-1.1,2.6-3.5,1.6-5.4c0,0,0-0.1-0.1-0.1l-8.7-14.5
		C1107.5,962.1,1108.2,962,1108.9,962z"/>
	<path class="st0" d="M1077,966.8l-3.6,2c0.1-3.4-0.9-6.7-2.9-9.4c-0.3-0.4-0.6-0.7-1-1l2.5-1.3L1077,966.8z"/>
	<path class="st0" d="M948.6,986.6c0.4-0.2,0.9-0.2,1.3,0c0.5,0.2,0.9,0.5,1.2,1c2.6,4.9,8.6,6.8,13.5,4.2l12.5-6.5
		c4.9-2.5,6.8-8.6,4.3-13.5l-0.9-1.7c7.2-3.2,14.9-4.9,22.7-5.2l48.5,0.3l-89.8,46.7L948.6,986.6z"/>
	<path class="st0" d="M965.2,957.2l5.8,11.1c0,0.7,0.1,1.3,0.4,1.9l2.8,5.3c0.5,1,0.1,2.2-0.8,2.7l-12.5,6.5c-1,0.5-2.2,0.1-2.7-0.8
		c-2.4-4.6-8-6.6-12.8-4.5l-4.8-9.2l4.3-2.2L965.2,957.2z"/>
	<path class="st0" d="M969.8,1027.3l-4.2-8.1l99.7-51.9c0.3,1.7,0,3.4-0.9,4.8c-0.4,0.6-0.6,1.4-0.6,2.1L969.8,1027.3z"/>
	<path class="st0" d="M621.4,714.4l8.6,13.2c4,7.1,11.5,11.4,19.7,11.4c2.3,0,4.7-0.4,6.9-1.1c11.9-3.8,18.4-16.5,14.6-28.4
		c0-0.1-0.1-0.3-0.1-0.4c91.5,3.5,163.9,78.7,163.9,170.3c0,94-76.5,170.5-170.5,170.5s-170.5-76.5-170.5-170.5
		c0-77.6,52.3-145.4,127.4-165L621.4,714.4z"/>
	<path class="st0" d="M664.3,1079.3c-110.2,0-199.9-89.7-199.9-199.9c-0.1-43.6,14.1-86,40.5-120.6c25.2-33.1,60-57.6,99.6-70.2
		l12.2,18.7c-77.4,21.4-131,91.8-130.9,172.1c0,98.4,80.1,178.5,178.5,178.5s178.5-80.1,178.5-178.5c0-97.2-77.8-176.5-174.9-178.4
		l0,0l1.1-0.4c7.5-2.4,11.6-10.5,9.2-18c0,0,0,0,0,0c-0.3-0.9-0.7-1.8-1.2-2.7c104.3,6.6,187.2,93.5,187.2,199.5
		C864.2,989.6,774.5,1079.3,664.3,1079.3z"/>
	<path class="st0" d="M889,963.5h-34.6c2-4.6,3.9-9.3,5.6-14h40c3.9,0,7,3.1,7,7v38.9c-4.6-0.7-9.4-0.7-14,0v-27.9
		C893,965.3,891.2,963.5,889,963.5z"/>
	<path class="st0" d="M900,1079.2c-21.1,0-38.2-17.1-38.2-38.2c0-21.1,17.1-38.2,38.2-38.2c21.1,0,38.2,17.1,38.2,38.2
		C938.2,1062.1,921.1,1079.2,900,1079.2z"/>
	<path class="st2" d="M900,1079.2c-21.1,0-38.2-17.1-38.2-38.2c0-21.1,17.1-38.2,38.2-38.2c21.1,0,38.2,17.1,38.2,38.2
		C938.2,1062.1,921.1,1079.2,900,1079.2z"/>
	<polygon class="st0" points="959.9,1058.5 951.8,1046.6 1098.5,963.9 1106.5,977.2 	"/>
	<polygon class="st0" points="1054.6,1059.6 1046.4,1047.7 1193.1,965 1201.1,978.3 	"/>
	<path class="st0" d="M571.9,638.5l28.2,43.2c-15.5,5-30.3,11.9-44.1,20.4v-63.6H571.9z"/>
	<path class="st0" d="M664.3,671.6c-3.5,0-7,0.1-10.5,0.3l-8.8-16.8h35.6v17.1C675.2,671.8,669.8,671.6,664.3,671.6z"/>
	<path class="st0" d="M711.2,655.1h33.1l55.9,45.9h-29.1c-0.1,0-0.2,0-0.3,0c-18.5-11.1-38.6-19.2-59.6-24.1V655.1z"/>
	<path class="st0" d="M818.1,554.5c0.1,0.3,0.3,0.5,0.5,0.7l77.1,89c1.3,1.6,3.7,1.8,5.3,0.6l6.8-4.8c2.8-2,6.7-1.3,8.7,1.5
		c1,1.4,1.4,3,1.1,4.7c-0.3,1.6-1.2,3.1-2.5,4.1l-5,3.5c-1.8,1.3-2.2,3.8-0.9,5.6c0.1,0.1,0.2,0.2,0.3,0.3l7.4,8.3
		c5.4,6,4.9,15.2-1,20.6c-5.7,5.1-14.3,5-19.8-0.3l-55.2-51.8c8.5-4.4,11.8-15,7.4-23.5c-3-5.7-8.9-9.3-15.4-9.4h-26.9
		c-0.1-0.1-0.2-0.2-0.3-0.3l-24.2-22.7l-28.9-40.9c0.3-0.3,0.6-0.6,0.9-1l0.3-0.1l46.6-17.4L818.1,554.5z"/>
	<path class="st0" d="M660.7,694.9c-2.1,0.7-3.3,2.9-2.6,5c0,0.1,0.1,0.3,0.2,0.4l4.6,10.1c3.3,7.3,0.1,16-7.2,19.3
		c-6.9,3.2-15.1,0.5-18.8-6.2l-0.1-0.2l-91.6-140.7c-0.7-6.4-4.3-44.3-0.4-64.5l56.5,16.2l-8.4,36.5c-0.2,0.9-0.1,1.9,0.4,2.8
		l56.8,108.1c0.9,1.7,2.9,2.5,4.8,1.9l8-2.6c3.4-0.9,6.8,1.2,7.6,4.5c0.8,3.1-0.9,6.3-3.8,7.4L660.7,694.9z"/>
	<path class="st0" d="M707.2,630.5h-72.4c-0.9,0-1.7,0.3-2.4,0.8l-10.3-19.6H718c5.2-0.2,9.5,3.9,9.7,9.1c0.2,5.2-3.9,9.5-9.1,9.7
		c-0.2,0-0.4,0-0.6,0H707.2z"/>
	<path class="st0" d="M680.5,647.1H641h-0.2l-4.5-8.6h44.3V647.1z"/>
	<path class="st0" d="M688.5,638.5h14.7v36.8c-4.8-0.9-9.7-1.7-14.7-2.2V638.5z"/>
	<path class="st0" d="M832.7,630.5h-83.1l-0.2-18.8h83.3c5.2-0.2,9.5,3.9,9.7,9.1c0.2,5.2-3.9,9.5-9.1,9.7
		C833.1,630.5,832.9,630.5,832.7,630.5L832.7,630.5z"/>
	<polygon class="st0" points="817.9,701 812.8,701 803.2,693.1 803.2,638.5 817.9,638.5 	"/>
	<path class="st0" d="M776.3,450.6l40,56.1L761,527.4c4.9-9.8,5.5-21.1,1.9-31.3c-0.8-2.1-3-3.1-5.1-2.4c-2.1,0.8-3.1,3-2.4,5.1
		c3.2,8.7,2.2,18.4-2.6,27.2c-2.2,3.9-5,7.5-8.3,10.5l0,0c-4.5,4-9.7,7.2-15.3,9.2c-2.1,0.8-3.1,3-2.4,5.1c0.6,1.6,2.1,2.6,3.8,2.6
		c0.5,0,0.9-0.1,1.4-0.2c3.2-1.2,6.3-2.6,9.2-4.3l0.8,98.1h-30.6v-8.6h6.8c9.6,0.2,17.6-7.4,17.8-17s-7.4-17.6-17-17.8
		c-0.3,0-0.6,0-0.8,0h-97.8c-0.7,0-1.4,0.2-2,0.5l-17.3-33l8-34.9c0.5-0.3,0.9-0.8,1.2-1.3l22.7-40.6c1.1-1.9,0.4-4.4-1.5-5.5
		c-1.9-1.1-4.4-0.4-5.5,1.5l0,0l-20.5,36.8l-73-20.9l39.7-55.7c12.3-17.1,29.2-30.4,48.8-38.1c8.5,29.7,39.5,46.8,69.1,38.3
		c18.4-5.3,32.8-19.6,38.2-37.9C747.5,420.7,764.1,433.8,776.3,450.6z"/>
	<path class="st0" d="M593.8,300.7c0-2.2-1.8-4-4-4c-7.1,0-12.8-5.7-12.8-12.7c0-7.1,5.7-12.8,12.7-12.8l0,0c2.2,0,4-1.7,4.1-3.9
		c0,0,0-0.1,0-0.1c0-7.5,1.1-15,3.2-22.3c6.7-1,13.1-3.3,18.9-7c9.4-5.8,18.1-14.7,25.9-26.6c6,9.6,21.2,26.9,54.4,33.6
		c2.2,0.4,4.3-1,4.7-3.1c0.1-0.3,0.1-0.5,0.1-0.8v-10.9c9.2,6.2,27,15.9,48.6,15.9c1.4,0,2.9-0.1,4.3-0.1c1.9,6.9,2.9,14.1,2.9,21.3
		c0,2.2,1.8,4,4,4c0,0,0.1,0,0.1,0c7.1,0,12.8,5.8,12.7,12.8c0,7.1-5.8,12.8-12.8,12.7l0,0c-2.2,0-4,1.8-4,4.1
		c0,44.8-36.3,81.1-81.1,81.1h-0.8C630.1,381.9,593.8,345.6,593.8,300.7z"/>
	<path class="st0" d="M643.5,406.3c0.2,0,0.4-0.1,0.6-0.1v6.4c0,2.2,1.8,4,4,4s4-1.8,4-4v-25.7c7.4,2,15.1,3,22.8,3h0.8
		c7.2,0,14.4-0.9,21.4-2.6v25.3c0,2.2,1.8,4,4,4s4-1.8,4-4v-6.2c5.3,0.9,10.5,2.1,15.5,3.7c-7.2,25.4-33.6,40.2-59.1,33
		c-16.1-4.5-28.7-17.2-33.1-33.3C633.4,408.4,638.4,407.2,643.5,406.3z"/>
	<path class="st0" d="M528.3,386c0-4.3,3.5-7.9,7.9-7.9h57.6v15.8h-57.6C531.8,393.9,528.3,390.4,528.3,386L528.3,386z"/>
	<path class="st0" d="M601.7,396.8v-17c11.7,3.3,21.7,11,27.9,21.5c-5.3,1.5-10.5,3.3-15.5,5.5C610.9,402.4,606.6,399,601.7,396.8z"
		/>
	<path class="st0" d="M378.4,386c0-4.3,3.5-7.9,7.9-7.9h57.6v15.8h-57.6C382,393.9,378.4,390.4,378.4,386L378.4,386z"/>
	<path class="st0" d="M451.9,396.8v-17c15.6,4.4,27.9,16.5,32.6,32l1.2,4H469C466.2,407.3,460,400.5,451.9,396.8z"/>
	<path class="st0" d="M586.3,423.8c-7.9,6.5-14.8,13.9-20.7,22.2l-43,60.3c-1.3,1.8-0.9,4.3,0.9,5.6c0.2,0.1,0.3,0.2,0.5,0.3
		c0.2,0.1,0.3,0.1,12.9,3.8c-4.6,23.1,0.1,66.6,0.3,68.5c0.1,0.6,0.3,1.2,0.6,1.7l11.4,17.4H529l-57.7-179.9H586.3z"/>
	<path class="st0" d="M513.5,621.1c0-5.2,4.2-9.4,9.4-9.4h31.6l12.3,18.8h-53.3V621.1z"/>
	<path class="st0" d="M533.2,638.5h14.7v68.8c-5,3.4-9.9,7-14.7,10.9V638.5z"/>
	<path class="st0" d="M666.8,186.5l0.6-0.1c0.9-0.1,1.7-0.1,2.6-0.2c1.7-0.1,3.3-0.2,5-0.2c33.6-0.1,63.9,20.6,75.9,52
		c-28.7,0.6-51.1-18.7-51.3-18.9c-0.7-0.6-1.7-1-2.6-1c-2.2,0-4,1.8-4,4V236c-37.5-9.4-46.7-33.1-47.1-34.1
		c-0.8-2.1-3.1-3.1-5.1-2.4c-0.9,0.3-1.6,0.9-2.1,1.7c-14.4,24.6-29.2,32.5-38.5,34.9C611.6,208.7,637.2,189.7,666.8,186.5z"/>
	<path class="st0" d="M638.1,165.5c0-19.3,15.6-34.9,34.9-34.9c19.3,0,34.9,15.6,34.9,34.9c0,6-1.5,11.9-4.5,17.1
		c-9.1-3-18.5-4.6-28.1-4.6c-2,0-4,0.1-6,0.2c-0.9,0.1-1.7,0.1-2.6,0.2l-0.8,0.1c-7.8,0.8-15.4,2.5-22.8,5.3
		C639.8,178.3,638,172,638.1,165.5z"/>
	<path class="st2" d="M666.8,186.5l0.6-0.1c0.9-0.1,1.7-0.1,2.6-0.2c1.7-0.1,3.3-0.2,5-0.2c33.6-0.1,63.9,20.6,75.9,52
		c-28.7,0.6-51.1-18.7-51.3-18.9c-0.7-0.6-1.7-1-2.6-1c-2.2,0-4,1.8-4,4V236c-37.5-9.4-46.7-33.1-47.1-34.1
		c-0.8-2.1-3.1-3.1-5.1-2.4c-0.9,0.3-1.6,0.9-2.1,1.7c-14.4,24.6-29.2,32.5-38.5,34.9C611.6,208.7,637.2,189.7,666.8,186.5z"/>
	<path class="st2" d="M638.1,165.5c0-19.3,15.6-34.9,34.9-34.9c19.3,0,34.9,15.6,34.9,34.9c0,6-1.5,11.9-4.5,17.1
		c-9.1-3-18.5-4.6-28.1-4.6c-2,0-4,0.1-6,0.2c-0.9,0.1-1.7,0.1-2.6,0.2l-0.8,0.1c-7.8,0.8-15.4,2.5-22.8,5.3
		C639.8,178.3,638,172,638.1,165.5z"/>
	<rect x="72.9" y="716.7" class="st0" width="40" height="19.5"/>
	<rect x="82.9" y="745.9" class="st0" width="30" height="57"/>
	<rect x="294.9" y="745.9" class="st0" width="30" height="57"/>
	<rect x="294.9" y="716.7" class="st0" width="40" height="19.5"/>
	<path class="st0" d="M290.9,708.7c-2.2,0-4,1.8-4,4v27.5c0,0.3,0,0.6,0.1,0.8c-0.1,0.3-0.1,0.6-0.1,0.8v65c0,2.2,1.8,4,4,4h20v68.3
		h-85.9l-17.8-186.2c0-2.2-1.8-4-4-4s-4,1.8-4,4l-17.8,186.3H95.5v-68.3h21.4c2.2,0,4-1.8,4-4v-65c0-0.3,0-0.6-0.1-0.8
		c0.1-0.3,0.1-0.5,0.1-0.8v-27.5c0-2.2-1.8-4-4-4H95.5v-33.2c1.3,0.1,2.5,0.2,3.6,0.2c0.8,0,1.7,0,2.5-0.1l0.6,0
		c0.7,0,1.3-0.1,2-0.2l0.6-0.1c0.7-0.1,1.4-0.2,2.1-0.3l0.3-0.1c4.3-0.8,8.4-2.2,12.2-4.2h0.1c2.2-1.2,4.4-2.5,6.4-4.1l0.7-0.5
		c0.4-0.3,0.8-0.6,1.2-0.9l0.8-0.7l0.9-0.8l0.9-0.8c0.3-0.2,0.5-0.5,0.8-0.8c0.6-0.6,1.1-1.2,1.6-1.8c0.2-0.3,0.4-0.5,0.7-0.8l0.8-1
		c0.2-0.3,0.5-0.6,0.7-0.9s0.3-0.4,0.4-0.5s0-0.1,0.1-0.1c5.3-7.5,8.1-16.4,8-25.5c0-2.2-1.8-4-4-4s-4,1.8-4,4
		c0,4.4-0.8,8.7-2.3,12.8l-11.7-39.5h189.4v104.2H290.9z"/>
	<rect x="72.9" y="716.7" class="st2" width="40" height="19.5"/>
	<rect x="82.9" y="745.9" class="st2" width="30" height="57"/>
	<rect x="294.9" y="745.9" class="st2" width="30" height="57"/>
	<rect x="294.9" y="716.7" class="st2" width="40" height="19.5"/>
	<path class="st2" d="M290.9,708.7c-2.2,0-4,1.8-4,4v27.5c0,0.3,0,0.6,0.1,0.8c-0.1,0.3-0.1,0.6-0.1,0.8v65c0,2.2,1.8,4,4,4h20v68.3
		h-85.9l-17.8-186.2c0-2.2-1.8-4-4-4s-4,1.8-4,4l-17.8,186.3H95.5v-68.3h21.4c2.2,0,4-1.8,4-4v-65c0-0.3,0-0.6-0.1-0.8
		c0.1-0.3,0.1-0.5,0.1-0.8v-27.5c0-2.2-1.8-4-4-4H95.5v-33.2c1.3,0.1,2.5,0.2,3.6,0.2c0.8,0,1.7,0,2.5-0.1l0.6,0
		c0.7,0,1.3-0.1,2-0.2l0.6-0.1c0.7-0.1,1.4-0.2,2.1-0.3l0.3-0.1c4.3-0.8,8.4-2.2,12.2-4.2h0.1c2.2-1.2,4.4-2.5,6.4-4.1l0.7-0.5
		c0.4-0.3,0.8-0.6,1.2-0.9l0.8-0.7l0.9-0.8l0.9-0.8c0.3-0.2,0.5-0.5,0.8-0.8c0.6-0.6,1.1-1.2,1.6-1.8c0.2-0.3,0.4-0.5,0.7-0.8l0.8-1
		c0.2-0.3,0.5-0.6,0.7-0.9s0.3-0.4,0.4-0.5s0-0.1,0.1-0.1c5.3-7.5,8.1-16.4,8-25.5c0-2.2-1.8-4-4-4s-4,1.8-4,4
		c0,4.4-0.8,8.7-2.3,12.8l-11.7-39.5h189.4v104.2H290.9z"/>
	<path class="st0" d="M120.4,185.1c0-2.2-1.8-4-4-4c-7.1-0.2-12.6-6-12.5-13.1c0.2-6.8,5.6-12.2,12.4-12.5c0.3,0,0.7,0,1-0.1
		c0.4,0,0.9-0.1,1.3-0.3c13.3-5.5,21.6-16.8,26.2-25.4c2.9-5.6,5.3-11.4,7.2-17.4c0.8,2.3,1.6,4.5,2.6,6.7c0.5,1.1,2,4.4,5.6,5.1
		c2.1,0.4,5.1-0.1,7.9-4.5c0.9-1.5,1.8-3,2.7-4.5c1.7,4.1,3.9,7.9,6.7,11.3c0.9,1,2.2,1.6,3.5,1.4c1.4-0.1,2.5-1,3.2-2.2
		c2.5-5,4.6-10.2,6.2-15.5c3,9.2,6.4,18,14.9,25.4c1.7,1.5,4.2,1.3,5.6-0.4c0.5-0.5,0.8-1.2,0.9-1.9l3.4-18.7
		c1.3,3.8,2.9,7.5,4.7,11.1c0.6,1.2,1.8,2,3.2,2.2c1.4,0.1,2.7-0.4,3.5-1.5c2.7-3.4,5-7.2,6.6-11.3c0.9,1.5,1.8,3,2.7,4.5
		c2.8,4.4,5.8,4.8,7.9,4.5c3.6-0.6,5.1-4,5.6-5.1c1-2.2,1.9-4.4,2.6-6.7c1.9,6,4.3,11.8,7.2,17.4c4.6,8.6,12.8,19.9,26.2,25.4
		c0.3,0.1,0.7,0.2,1,0.2c0.3,0.1,0.7,0.1,1,0.1c7.1,0.2,12.6,6.1,12.4,13.2c-0.2,6.8-5.7,12.2-12.5,12.4c-2.2,0-4,1.8-4,4.1
		c0,44.8-36.3,81.1-81.1,81.1h-0.8C156.7,266.1,120.5,229.9,120.4,185.1z"/>
	<path class="st0" d="M201.5,274.3h0.8c7.5,0,14.9-0.9,22.2-2.8v15.1c-0.2,12.5-10.6,22.5-23.1,22.2c-11.6-0.2-21.2-9.2-22.2-20.8
		c0-0.2,0-0.3,0.1-0.5c0-0.3,0-0.6-0.1-0.9v-15.2C186.5,273.3,194,274.3,201.5,274.3z"/>
	<path class="st0" d="M34.3,438.5l56.1,35.3l4.7,69.8c0,0.3,0.1,0.6,0.2,0.9l32.5,109.4l-0.3,0.4l-0.5,0.6c-0.2,0.3-0.5,0.5-0.7,0.8
		l-0.6,0.6l-0.7,0.8c-0.4,0.4-0.9,0.8-1.3,1.2l-0.5,0.5c-0.3,0.3-0.7,0.6-1,0.8l-0.5,0.4l-1.1,0.8L120,661c-0.4,0.3-0.9,0.6-1.3,0.9
		l-0.2,0.2c-3.4,2.2-7.2,3.7-11.1,4.6h-0.1c-0.6,0.1-1.2,0.2-1.8,0.4h-0.3c-0.6,0.1-1.1,0.2-1.7,0.2h-0.4c-0.5,0.1-1.1,0.1-1.6,0.1
		h-0.4c-0.7,0-1.3,0.1-2,0.1h-0.6L50.7,552C49.5,548.3,27,476.2,34.3,438.5z"/>
	<path class="st0" d="M167.8,1081.7H33c-1.6,0.1-3.1-0.7-4-2c-0.4-0.6-0.7-1.3-0.8-2h139.6V1081.7z"/>
	<path class="st0" d="M167.8,1069.6H34.3l45.2-34.4c1-0.8,1.6-1.9,1.6-3.2v-24.7c12.9,1.9,22.6,12.8,22.9,25.9c0,1.2,0.6,2.2,1.4,3
		c0.7,0.6,1.6,1,2.6,1h29.7c2.8,0,5.5-1.1,7.5-3.2c1.9-1.9,3-4.5,2.9-7.2c0-1.4,1.1-2.5,2.4-2.5c0,0,0,0,0,0h17.1L167.8,1069.6z"/>
	<path class="st0" d="M176.8,917.9c-2.8,26.3-8,52.4-15.6,77.8l-6.2,20.7h-4.3c-5.8,0-10.5,4.7-10.5,10.5c0,0.1,0,0.1,0,0.2
		c0,0.6-0.2,1.1-0.6,1.5c-0.5,0.5-1.1,0.8-1.8,0.8h-22.9v-142H180L176.8,917.9z"/>
	<path class="st0" d="M237.4,1081.7v-4.1H377c-0.1,0.7-0.4,1.4-0.8,2c-0.9,1.3-2.4,2.1-4,2L237.4,1081.7z"/>
	<path class="st0" d="M301.1,1033.3c0.3-13.1,10-24,22.9-25.9v24.7c0,1.3,0.6,2.4,1.6,3.2l45.2,34.4H237.4v-45.3h17.1
		c1.4,0,2.5,1.1,2.5,2.5c0,0,0,0,0,0c-0.1,2.7,1,5.3,2.9,7.2c2,2,4.7,3.2,7.5,3.2h29.7c1,0,1.9-0.4,2.6-1
		C300.6,1035.5,301.1,1034.4,301.1,1033.3z"/>
	<path class="st0" d="M291.3,1029.2h-24c-0.7,0-1.3-0.3-1.8-0.8c-0.4-0.4-0.6-0.9-0.6-1.5c0.1-5.8-4.5-10.5-10.3-10.6
		c0,0-0.1,0-0.1,0h-3.2l-6.2-20.7c-7.6-25.4-12.8-51.4-15.6-77.8l-3.2-30.7h65.1L291.3,1029.2z"/>
	<path class="st0" d="M311.5,596.6H119l-16-54l-4.8-72.2l9.2-21c0.9-2,0-4.4-2.1-5.3s-4.4,0-5.3,2.1l0,0L92.3,464
		c-0.4,0.2-0.8,0.5-1.1,0.8l-62.5-39.3c49.9-85.2,74.1-108.1,82.2-113.9c0.2-0.1,0.4-0.3,0.5-0.5c12-12.6,28.7-19.7,46.1-19.6h14
		c2.7,16.7,18.4,28.1,35.2,25.4c13.1-2.1,23.3-12.3,25.4-25.4h14.7c20.6,0,39.9,9.9,51.9,26.6c0.1,0.2,0.3,0.3,0.4,0.5
		c12.8,12.8,36.1,41.7,74.3,107L316,463.9l-12-18.3c-1.2-1.8-3.7-2.3-5.6-1.1c-1.7,1.2-2.3,3.5-1.2,5.3
		C297.6,450.5,338.3,521.4,311.5,596.6z"/>
	<path class="st0" d="M506.1,585.4l-138.9-75.6l-46.7-39.3l57-38c13.7,23.5,16.6,34.8,16.6,34.9c0.2,0.9,0.8,1.8,1.6,2.3l104.8,72.8
		c0.2,0.1,0.3,0.2,0.5,0.3l14.2,44.2C512.1,587.5,508.9,586.9,506.1,585.4z"/>
	<path class="st0" d="M201.9,70.4c42.3,0.1,77.5,32.5,81.2,74.6c-6.5-4.1-12.4-10.7-16.8-18.9c-5.2-9.8-8.2-20.8-11.1-31.5
		c-0.6-2.1-2.7-3.4-4.9-2.9c-1.7,0.4-2.9,1.9-3,3.6c-0.5,6.9-2.1,13.6-4.9,19.9c-2.5-3.9-4.7-8-6.7-12.2c-0.9-2-3.3-2.9-5.3-1.9
		c-1.2,0.6-2,1.6-2.2,2.9c-0.7,4.2-2.1,8.2-4.1,11.9c-2.7-6.7-4.6-13.8-5.5-21c-0.3-1.9-1.9-3.4-3.9-3.5h-0.1
		c-1.9,0-3.6,1.4-3.9,3.3l-5.3,29.4c-4-5.5-6-11.8-8.2-18.8c-1.2-3.6-2.4-7.4-4-11.3c-0.8-2-3.2-3-5.2-2.2c-1.3,0.5-2.3,1.8-2.5,3.2
		c-0.9,7.2-2.8,14.3-5.5,21c-2-3.7-3.4-7.8-4.1-11.9c-0.4-2.2-2.5-3.6-4.6-3.2c-1.3,0.2-2.4,1.1-2.9,2.2c-2,4.2-4.2,8.3-6.7,12.2
		c-2.8-6.3-4.4-13-4.9-19.9c-0.1-2.2-2.1-3.9-4.3-3.7c-1.7,0.1-3.2,1.3-3.6,3c-2.9,10.7-5.8,21.8-11.1,31.5
		c-4.5,8.3-10.4,14.9-17,19.1C124.2,102.9,159.5,70.4,201.9,70.4z"/>
	<path class="st1" d="M201.9,70.4c42.3,0.1,77.5,32.5,81.2,74.6c-6.5-4.1-12.4-10.7-16.8-18.9c-5.2-9.8-8.2-20.8-11.1-31.5
		c-0.6-2.1-2.7-3.4-4.9-2.9c-1.7,0.4-2.9,1.9-3,3.6c-0.5,6.9-2.1,13.6-4.9,19.9c-2.5-3.9-4.7-8-6.7-12.2c-0.9-2-3.3-2.9-5.3-1.9
		c-1.2,0.6-2,1.6-2.2,2.9c-0.7,4.2-2.1,8.2-4.1,11.9c-2.7-6.7-4.6-13.8-5.5-21c-0.3-1.9-1.9-3.4-3.9-3.5h-0.1
		c-1.9,0-3.6,1.4-3.9,3.3l-5.3,29.4c-4-5.5-6-11.8-8.2-18.8c-1.2-3.6-2.4-7.4-4-11.3c-0.8-2-3.2-3-5.2-2.2c-1.3,0.5-2.3,1.8-2.5,3.2
		c-0.9,7.2-2.8,14.3-5.5,21c-2-3.7-3.4-7.8-4.1-11.9c-0.4-2.2-2.5-3.6-4.6-3.2c-1.3,0.2-2.4,1.1-2.9,2.2c-2,4.2-4.2,8.3-6.7,12.2
		c-2.8-6.3-4.4-13-4.9-19.9c-0.1-2.2-2.1-3.9-4.3-3.7c-1.7,0.1-3.2,1.3-3.6,3c-2.9,10.7-5.8,21.8-11.1,31.5
		c-4.5,8.3-10.4,14.9-17,19.1C124.2,102.9,159.5,70.4,201.9,70.4z"/>
	<path class="st1" d="M650,385.7c8.3,2.6,16.9,3.9,25.6,3.9h0.8c7.7,0,15.4-1.1,22.8-3.1l1.8,1.4V400c-8,2.4-16.3,3.6-24.6,3.6h-0.8
		c-9.5,0-18.9-1.6-27.9-4.7v-11L650,385.7z"/>
	<path class="st1" d="M227.6,269c-8.3,2.6-16.9,3.9-25.6,3.9h-0.8c-7.7,0-15.4-1.1-22.9-3.1l-1.8,1.4v12.1c8,2.4,16.3,3.6,24.6,3.6
		h0.8c9.5,0,18.9-1.6,27.9-4.7v-11L227.6,269z"/>
	<path class="st1" d="M265,136.2v33.2c0,19-15.4,34.5-34.5,34.5h-58.2c-19,0-34.5-15.4-34.5-34.5v-31.8c-5.7,6.8-12.1,13-19.2,18.4
		v34.8c0,43.4,35.2,78.6,78.6,78.6c0,0,0,0,0,0h7.8c43.4,0,78.6-35.2,78.6-78.6c0,0,0,0,0,0v-36.1C276.7,149.2,270.5,143,265,136.2z
		 M228.3,222c-3.4,14.6-18,23.7-32.6,20.3c-10.1-2.3-17.9-10.2-20.3-20.3c-0.6-2.7,1.2-5.5,3.9-6c0.4-0.1,0.7-0.1,1.1-0.1h42.8
		c2.8,0,5.1,2.2,5.1,5C228.4,221.3,228.4,221.7,228.3,222z"/>
	<path class="st3" d="M707,335.7c0.6-2.7,0-5.5-1.7-7.6c-1.7-2.2-4.4-3.5-7.2-3.5h-42.8c-2.8,0-5.4,1.3-7.2,3.5
		c-1.7,2.1-2.3,4.9-1.7,7.6c3.9,16.7,20.6,27.2,37.4,23.3C695.2,356.3,704.3,347.3,707,335.7L707,335.7z M661.6,346.2h30.1
		C683,353.7,670.2,353.7,661.6,346.2z M698,332.7h0.2h0.2c0.6,0.2,0.9,0.8,0.8,1.4c-0.3,1.4-0.8,2.8-1.4,4.2h-42.1
		c-0.6-1.3-1.1-2.7-1.4-4.2l0,0c-0.1-0.6,0.2-1.2,0.8-1.4h0.2h0.2H698z"/>
	<path class="st3" d="M673.2,312.5h12.5c2.2,0,4-1.8,4-4s-1.8-4-4-4h-12.5c-0.6,0-1.2-0.3-1.5-0.9c-0.3-0.6-0.3-1.2,0.1-1.8
		c6.3-9,8-17.7,5.9-29.2c-0.4-2.2-2.5-3.6-4.7-3.2c-2.2,0.4-3.6,2.5-3.2,4.7c1.7,9.5,0.4,16-4.6,23.2c-3.1,4.4-2,10.4,2.4,13.5
		C669.3,311.9,671.3,312.5,673.2,312.5z"/>
	<path class="st3" d="M653.5,275.4c0-3.9-3.2-7.1-7.1-7.1c-3.9,0-7.1,3.2-7.1,7.1c0,3.9,3.2,7.1,7.1,7.1c0,0,0,0,0,0
		C650.3,282.5,653.5,279.3,653.5,275.4z"/>
	<path class="st3" d="M703,268.3c-3.9,0-7.1,3.2-7.1,7.1c0,3.9,3.2,7.1,7.1,7.1c3.9,0,7.1-3.2,7.1-7.1c0,0,0,0,0,0
		C710.1,271.5,706.9,268.3,703,268.3z"/>
	<path class="st3" d="M655.5,261.9c0.7,1.2,2,2,3.5,2c0.7,0,1.4-0.2,2-0.5c1.9-1.1,2.6-3.6,1.5-5.5c0,0,0,0,0,0
		c-5.5-9.6-17.7-12.9-27.3-7.3c-3.1,1.8-5.6,4.3-7.3,7.3c-1.1,1.9-0.4,4.4,1.5,5.5c1.9,1.1,4.4,0.4,5.5-1.5
		c3.3-5.7,10.6-7.7,16.4-4.4C652.9,258.6,654.4,260.1,655.5,261.9L655.5,261.9z"/>
	<path class="st3" d="M687.1,263.4c1.9,1.1,4.4,0.4,5.5-1.5c3.3-5.7,10.6-7.7,16.4-4.4c1.8,1.1,3.4,2.6,4.4,4.4c0.7,1.2,2,2,3.5,2
		c0.7,0,1.4-0.2,2-0.5c1.9-1.1,2.6-3.6,1.5-5.5c0,0,0,0,0,0c-5.5-9.6-17.7-12.9-27.3-7.3c-3.1,1.8-5.6,4.3-7.3,7.3
		C684.5,259.8,685.2,262.3,687.1,263.4C687.1,263.4,687.1,263.4,687.1,263.4z"/>
	<path class="st3" d="M669.2,545.5H644c-2.2,0-4,1.8-4,4s1.8,4,4,4h25.2c2.2,0,4-1.8,4-4S671.4,545.5,669.2,545.5z"/>
	<path class="st3" d="M664.3,904.9c14.1,0,25.4-11.4,25.4-25.4S678.4,854,664.3,854s-25.4,11.4-25.4,25.4c0,0,0,0,0,0
		C638.9,893.5,650.3,904.9,664.3,904.9z M664.3,862c9.6,0,17.4,7.8,17.4,17.4s-7.8,17.4-17.4,17.4s-17.4-7.8-17.4-17.4
		C646.9,869.8,654.7,862,664.3,862L664.3,862z"/>
	<path class="st3" d="M531.9,838.9c0.5,1,1.4,1.7,2.5,2L572,851c0.3,0.1,0.7,0.1,1,0.1c1.7,0,3.2-1.1,3.8-2.7
		c4.1-11.7,10.5-22.4,18.9-31.5c0.7-0.8,1.1-1.8,1-2.9c-0.1-1.1-0.5-2.1-1.3-2.8l-28.7-26.2c-1.6-1.5-4.2-1.4-5.7,0.3
		c-13.3,14.5-23.3,31.7-29.5,50.4C531.2,836.8,531.4,838,531.9,838.9z M564.3,793.8l22.8,20.8c-7,8.3-12.6,17.7-16.6,27.8l-30-8.1
		C546,819.4,554,805.7,564.3,793.8L564.3,793.8z"/>
	<path class="st3" d="M568.3,880.6l-39-6.2c-2.2-0.3-4.2,1.1-4.6,3.3c0,0.2,0,0.4,0,0.6v0.4c0,0.2,0,0.5,0,0.7
		c0.1,38.7,16.1,75.7,44.4,102.2c0.7,0.7,1.7,1.1,2.7,1.1h0.1c1.1,0,2.1-0.5,2.8-1.3l26.5-28.4c1.5-1.6,1.4-4.1-0.2-5.7c0,0,0,0,0,0
		c-17.6-16.4-28.2-39-29.4-63C571.6,882.5,570.1,880.9,568.3,880.6z M571.6,973c-24-23.9-38-56.1-39-90l31.2,5
		c1.9,23.6,12.2,45.7,28.8,62.4L571.6,973z"/>
	<path class="st3" d="M900,1021.5c-10.8,0-19.5,8.8-19.5,19.5c0,10.8,8.8,19.5,19.6,19.5c10.8,0,19.5-8.7,19.5-19.5
		C919.6,1030.2,910.8,1021.5,900,1021.5z M900,1052.5c-6.4,0-11.5-5.2-11.5-11.6c0-6.4,5.2-11.5,11.5-11.5c6.4,0,11.5,5.2,11.5,11.5
		c0,0,0,0,0,0C911.6,1047.4,906.4,1052.5,900,1052.5z"/>
	<path class="st3" d="M1210.1,977.7l-12.1-20.2c-1.1-1.9-3.5-2.5-5.4-1.4l-13.9,7.8c-0.5-1.9-1.3-3.8-2.5-5.4
		c-0.1-0.1-0.2-0.2-0.2-0.3c-2.3-3-5.7-5.1-9.5-5.6c-0.3,0-0.5,0-0.8,0l-57,1.6c-2.5,0.1-5,0.3-7.6,0.6c-1.1-0.4-2.2-0.3-3.2,0.3
		l-14,7.9l-4.9-9.4l6.9-3.6c1.8-0.9,2.7-3.2,1.9-5.1l-88.2-216.5c-6.7-16.6-22.8-27.5-40.8-27.4H857.8c-0.4,0-0.9,0.1-1.3,0.2
		c-1.5-0.2-2.9-0.2-4.4-0.2h-26.3v-62.5h5.3l59.4,55.7c9.1,8.5,23.4,8,31.9-1.1c7.9-8.5,8.1-21.7,0.4-30.4l-4.4-5l1.3-0.9
		c6.3-4.7,7.6-13.7,2.9-20c-4.6-6.1-13.1-7.6-19.4-3.3l-3.9,2.7l-74.4-86l-17.2-31.9l8.2-3c8.8-3.3,8.8-3.3,9.4-3.9
		c1.4-1.4,1.6-3.6,0.4-5.1l-43-60.3c-18.2-25.4-45.8-42.5-76.7-47.6c-0.3,0-0.7,0-1,0v-13.5c34.5-12.1,58.1-44,59.6-80.6
		c11.3-2.2,18.7-13,16.5-24.3c-1.6-8.4-8.1-14.9-16.5-16.5c-1.6-34.2-22.5-64.5-53.8-78.1c11-21,3-46.9-18-57.9s-46.9-3-57.9,18
		c-6.9,13.1-6.5,28.7,0.9,41.5c-21.9,10.6-38.5,29.8-45.9,52.9c-0.1,0.5-0.2,1-0.2,1.4c-2.2,7.2-3.5,14.6-3.8,22.2
		c-11.3,2.2-18.7,13-16.5,24.3c1.6,8.4,8.1,14.9,16.5,16.5c1.5,36,24.5,67.5,58.2,80v14.2c-0.6-0.2-1.2-0.3-1.8-0.2
		c-1.5,0.2-3,0.5-4.5,0.8c-7.7-14.4-21.4-24.6-37.3-28.1c-0.7-0.7-1.7-1.1-2.7-1.1h-61.6c-8.8-0.2-16.1,6.7-16.3,15.5
		c-0.2,8.8,6.7,16.1,15.5,16.3c0.3,0,0.5,0,0.8,0h58.1c0.5,0.6,1.1,1,1.8,1.3c4.1,1.4,7.8,3.8,10.6,7.1c-3.3,1.7-6.4,3.6-9.5,5.6
		c-0.2,0-0.4,0-0.5,0H494c0-0.2-0.1-0.5-0.1-0.7l-1.7-5.6c-5.8-19.4-21.8-34-41.6-38.2c-0.7-0.7-1.7-1.1-2.7-1.1h-61.6
		c-8.8-0.2-16.1,6.7-16.3,15.5c-0.2,8.8,6.7,16.1,15.5,16.3c0.3,0,0.5,0,0.8,0h58.2c0.5,0.6,1.1,1,1.8,1.3c7.3,2.5,13,8.3,15.3,15.7
		l0.3,0.9c0,0.4,0,0.8,0.2,1.2l35,109.3L401.5,464c-1.3-4.2-5.9-16.9-19.2-39.2l0,0c-39.6-68-63.9-98.3-77.3-111.7
		c-13.6-18.6-35.2-29.6-58.2-29.6h-14.3V269c34.1-12.3,57.3-44.1,58.9-80.3c11.3-2.2,18.6-13.1,16.5-24.3
		c-1.6-8.3-8.1-14.9-16.5-16.5c-2.2-49.4-43.9-87.7-93.3-85.5c-46.4,2-83.5,39.2-85.5,85.5c-11.3,2.2-18.7,13-16.5,24.3
		c1.6,8.4,8.1,14.9,16.5,16.5c1.5,36.2,24.7,67.9,58.7,80.2v14.5h-13.6c-19.5-0.1-38.1,7.8-51.6,21.8c-10.9,8-36.5,34.2-86.1,119.5
		c-1.1,1.9-0.5,4.2,1.3,5.4l6,3.7c-4,16.6-2.7,41.5,4,74.1c5.2,25.4,11.9,46.3,12,46.5l0.1,0.3l44.3,107.2c0,0.2,0,0.3,0,0.5v46.1
		H68.9c-2.2,0-4,1.8-4,4v27.5c0,2.2,1.8,4,4,4h6v62.7c0,2.2,1.8,4,4,4h8.6v72.3c0,2.2,1.8,4,4,4h15.4v128.5
		c-6.4-10.3-17.6-16.6-29.8-16.5c-2.2,0-4,1.8-4,4v27L24.5,1067c-5.5,4.2-6.6,12.1-2.4,17.7c2.4,3.1,6.1,5,10.1,5h139.6
		c2.2,0,4-1.8,4-4v-65.4c0-2.2-1.8-4-4-4h-8.4l5.5-18.4c7.8-25.8,13.1-52.4,15.9-79.2l3.5-33.1c0.5-0.6,0.7-1.3,0.8-2.1l14.1-148.2
		l14.1,148.2c0.1,0.7,0.3,1.3,0.7,1.9l3.5,33.3c2.8,26.8,8.1,53.4,15.9,79.2l5.5,18.4h-9.5c-2.2,0-4,1.8-4,4v65.4c0,2.2,1.8,4,4,4
		H373c7,0,12.6-5.6,12.6-12.6c0-3.9-1.8-7.7-5-10.1l-48.6-37v-27c0-2.2-1.8-4-4-4c-11.4,0-22.2,5.6-28.7,15V887.2h15.5
		c2.2,0,4-1.8,4-4v-72.3h10c2.2,0,4-1.8,4-4v-62.7h6c2.2,0,4-1.8,4-4v-27.5c0-2.2-1.8-4-4-4h-20V600.6c0-0.3,0-0.5-0.1-0.8
		c14.8-40.9,10.2-80.2,3.7-106.2c-1.3-5.2-2.8-10.1-4.2-14.6l44.2,37.2c0.2,0.2,0.4,0.3,0.7,0.5l139.2,75.8
		c4.7,2.6,10.2,3.4,15.4,2.3l2.9,9.2c-8.7,1.1-15.1,8.5-15.1,17.2v13.4c0,2.2,1.8,4,4,4h15.8v85.6c0,0.3,0,0.6,0.1,0.8
		c-43.9,39.3-69,95.5-68.9,154.5c0,114.6,93.2,207.9,207.9,207.9c81.6,0,152.4-47.3,186.4-115.9c0.3,0.1,0.5,0.1,0.8,0.1h33.5v25.9
		c-24.1,8.3-37,34.6-28.7,58.7c8.3,24.1,34.6,37,58.7,28.7c15.2-5.2,26.6-18,30.1-33.7l10.2,15c0.7,1.1,2,1.7,3.3,1.7
		c0.7,0,1.3-0.2,1.9-0.5l64.9-36l24.5,35.9c1.2,1.7,3.4,2.2,5.2,1.2l153.4-85.1c0.9-0.5,1.6-1.4,1.9-2.5
		C1210.8,979.7,1210.7,978.6,1210.1,977.7z M1074.6,1022.6l-2.5-4.9l98.9-51.5c0.1,0.6,0.1,1.3,0.1,1.9L1074.6,1022.6z M1108.9,962
		l55.9-1.5l-96.4,50.1l-1.3-2.5l46.9-26c1.9-1.1,2.6-3.5,1.6-5.4c0,0,0-0.1-0.1-0.1l-8.7-14.5C1107.5,962.1,1108.2,962,1108.9,962z
		 M1076.9,966.8l-3.6,2c0.1-3.4-0.9-6.7-2.9-9.4c-0.3-0.4-0.6-0.7-1-1l2.5-1.3L1076.9,966.8z M915,997.3v-40.9c0-8.3-6.7-15-15-15
		h-19.9L867.6,923c3.1-14.3,4.6-29,4.6-43.6c0-1.1,0-2.2,0-3.4l59.4,94.5c0.2,0.3,0.4,0.6,0.7,0.8l7,13.5c0,0.7,0.1,1.3,0.4,1.9
		l23.1,44.5l-16.6,9.4C946,1021,933.5,1003.7,915,997.3z M865,933.5l5.4,7.9h-7.7C863.5,938.8,864.3,936.2,865,933.5L865,933.5z
		 M981.1,944.8l-65.9-161.7l5-0.1l109.7,174.2l-26.8-0.2h-0.1c-8.9,0.3-17.7,2.2-25.8,5.8l-4.9-9.4l6.9-3.6
		C981.1,948.9,981.9,946.7,981.1,944.8L981.1,944.8z M948.7,986.6c0.4-0.2,0.9-0.2,1.3,0c0.5,0.2,0.9,0.5,1.2,1
		c2.6,4.9,8.6,6.8,13.5,4.2l12.5-6.5c4.9-2.5,6.8-8.6,4.3-13.5l-0.9-1.7c7.2-3.2,14.9-4.9,22.7-5.2l48.5,0.3l-89.8,46.7L948.7,986.6
		z M965.3,957.2l5.8,11.1c0,0.7,0.1,1.3,0.4,1.9l2.8,5.3c0.5,1,0.1,2.2-0.8,2.7l-12.5,6.5c-1,0.5-2.2,0.1-2.7-0.8
		c-2.4-4.6-8-6.6-12.8-4.5l-4.9-9.2l4.3-2.2L965.3,957.2z M969.8,1027.3l-4.2-8.1l99.7-51.9c0.3,1.7,0,3.4-0.9,4.8
		c-0.4,0.6-0.6,1.4-0.6,2.1L969.8,1027.3z M958.9,709c14.7,0,27.9,8.8,33.3,22.4l86.8,213.1l-23.1,11.9c-0.5,0.2-0.9,0.6-1.2,1
		l-15.7-0.1c-0.1-0.5-0.3-1-0.6-1.5l-112.7-179c-0.7-1.2-2.1-1.9-3.5-1.9l-10.4,0.2l-19-46.8c-3.2-7.8-8.5-14.6-15.4-19.4L958.9,709
		z M885.6,731.4l86.8,213.1l-31,16.1l-5,2.6l-64.8-103c-0.1-0.1-0.2-0.3-0.3-0.4c-5.8-60.8-38-115.9-88.1-150.8h69.1
		C866.8,708.9,880.1,717.8,885.6,731.4z M621.4,714.4l8.6,13.2c4,7.1,11.5,11.4,19.7,11.4c2.3,0,4.7-0.4,6.9-1.1
		c11.9-3.8,18.4-16.5,14.6-28.4c0-0.1-0.1-0.3-0.1-0.4c91.5,3.5,163.9,78.7,163.9,170.3c0,94-76.5,170.5-170.5,170.5
		s-170.5-76.5-170.5-170.5c0-77.6,52.3-145.4,127.4-165L621.4,714.4z M660.7,694.9c-2.1,0.7-3.3,2.9-2.6,5c0,0.1,0.1,0.3,0.2,0.4
		l4.6,10.1c3.3,7.3,0.1,16-7.2,19.3c-6.9,3.2-15.1,0.5-18.8-6.2l-0.1-0.2l-91.6-140.6c-0.7-6.4-4.3-44.3-0.4-64.5l56.5,16.2
		l-8.4,36.5c-0.2,0.9-0.1,1.9,0.4,2.8l56.8,108.1c0.9,1.7,2.9,2.5,4.8,1.9l8-2.6c3.4-0.9,6.8,1.2,7.6,4.5c0.8,3.1-0.9,6.3-3.8,7.4
		L660.7,694.9z M571.9,638.5l28.2,43.2c-15.5,5-30.3,11.9-44.1,20.4v-63.6L571.9,638.5z M707.2,630.5h-72.4c-0.9,0-1.7,0.3-2.4,0.8
		l-10.3-19.6H718c5.2-0.2,9.5,3.9,9.7,9.1c0.2,5.2-3.9,9.5-9.1,9.7c-0.2,0-0.4,0-0.6,0H707.2z M680.5,647.1H641h-0.2l-4.5-8.6h44.3
		V647.1z M664.3,671.6c-3.5,0-7,0.1-10.5,0.3l-8.8-16.8h35.6v17.1C675.2,671.8,669.8,671.6,664.3,671.6L664.3,671.6z M688.5,638.5
		h14.7v36.8c-4.8-0.9-9.7-1.7-14.7-2.2V638.5z M711.2,655.1h33.1l55.9,45.9h-29.1c-0.1,0-0.2,0-0.3,0
		c-18.5-11.1-38.6-19.2-59.6-24.1V655.1z M832.7,630.5h-83.1l-0.2-18.8h83.3c5.2-0.2,9.5,3.9,9.7,9.1c0.2,5.2-3.9,9.5-9.1,9.7
		C833.1,630.5,832.9,630.5,832.7,630.5L832.7,630.5z M749.7,649.2l-0.1-10.7h45.6v48L749.7,649.2z M749.3,603.7l-0.5-54.9
		c0-0.1,0-0.2,0-0.3l26.2,37.2c0.2,0.2,0.3,0.4,0.5,0.6l18.5,17.4L749.3,603.7z M817.9,700.9h-5l-9.6-7.9v-54.5h14.7L817.9,700.9z
		 M818.1,554.5c0.1,0.3,0.3,0.5,0.5,0.7l77.1,89c1.3,1.6,3.7,1.8,5.3,0.6l6.8-4.8c2.8-2,6.7-1.3,8.7,1.5c1,1.4,1.4,3,1.1,4.7
		c-0.3,1.6-1.2,3.1-2.5,4.1l-5,3.5c-1.8,1.3-2.2,3.8-0.9,5.6c0.1,0.1,0.2,0.2,0.3,0.3l7.4,8.3c5.4,6,4.9,15.2-1,20.6
		c-5.7,5.1-14.3,5-19.8-0.3l-55.2-51.8c8.5-4.4,11.8-15,7.4-23.5c-3-5.7-8.9-9.3-15.4-9.4h-26.9c-0.1-0.1-0.2-0.2-0.3-0.3
		l-24.2-22.7l-28.9-40.9c0.3-0.3,0.6-0.6,0.9-1l0.3-0.1l46.6-17.4L818.1,554.5z M776.3,450.6l40,56.1L761,527.4
		c4.9-9.8,5.5-21.1,1.9-31.3c-0.8-2.1-3-3.1-5.1-2.4c-2.1,0.8-3.1,3-2.4,5.1c3.2,8.7,2.2,18.4-2.6,27.2c-2.2,3.9-5,7.5-8.3,10.5l0,0
		c-4.5,4-9.7,7.2-15.3,9.2c-2.1,0.8-3.1,3-2.4,5.1c0.6,1.6,2.1,2.6,3.8,2.6c0.5,0,0.9-0.1,1.4-0.2c3.2-1.2,6.3-2.6,9.2-4.3l0.8,98.1
		h-30.6v-8.6h6.8c9.6,0.2,17.6-7.4,17.8-17s-7.4-17.6-17-17.8c-0.3,0-0.6,0-0.8,0h-97.8c-0.7,0-1.4,0.2-2,0.5l-17.3-33l8-34.9
		c0.5-0.3,0.9-0.8,1.2-1.3l22.7-40.6c1.1-1.9,0.4-4.4-1.5-5.5c-1.9-1.1-4.4-0.4-5.5,1.5l0,0l-20.5,36.8l-73-20.9l39.7-55.7
		c12.3-17.1,29.2-30.4,48.8-38.1c8.5,29.7,39.5,46.8,69.1,38.3c18.4-5.3,32.8-19.6,38.2-37.9C747.5,420.7,764.1,433.8,776.3,450.6z
		 M666.8,186.5l0.6-0.1c0.9-0.1,1.7-0.1,2.6-0.2c1.7-0.1,3.3-0.2,5-0.2c33.6-0.1,63.9,20.6,75.9,52c-28.7,0.6-51.1-18.7-51.3-18.9
		c-0.7-0.6-1.7-1-2.6-1c-2.2,0-4,1.8-4,4V236c-37.5-9.4-46.7-33.1-47.1-34.1c-0.8-2.1-3.1-3.1-5.1-2.4c-0.9,0.3-1.6,0.9-2.1,1.7
		c-14.4,24.6-29.2,32.5-38.5,34.9C611.6,208.7,637.2,189.7,666.8,186.5z M638.1,165.5c0-19.3,15.6-34.9,34.9-34.9
		c19.3,0,34.9,15.6,34.9,34.9c0,6-1.5,11.9-4.5,17.1c-9.1-3-18.5-4.5-28.1-4.5c-2,0-4,0.1-6,0.2c-0.9,0.1-1.7,0.1-2.6,0.2l-0.8,0.1
		c-7.8,0.8-15.4,2.5-22.8,5.3C639.8,178.3,638,172,638.1,165.5L638.1,165.5z M593.8,300.7c0-2.2-1.8-4-4-4
		c-7.1,0-12.8-5.7-12.8-12.7c0-7.1,5.7-12.8,12.7-12.8l0,0c2.2,0,4-1.7,4.1-3.9c0,0,0-0.1,0-0.1c0-7.5,1.1-15,3.2-22.3
		c6.7-1,13.1-3.3,18.9-7c9.4-5.8,18.1-14.7,25.9-26.6c6,9.6,21.2,26.9,54.4,33.6c2.2,0.4,4.3-1,4.7-3.1c0.1-0.3,0.1-0.5,0.1-0.8
		v-10.9c9.2,6.2,27,15.9,48.6,15.9c1.4,0,2.9-0.1,4.3-0.1c1.9,6.9,2.9,14.1,2.9,21.3c0,2.2,1.8,4,4,4c0,0,0.1,0,0.1,0
		c7.1,0,12.8,5.8,12.7,12.8c0,7.1-5.8,12.8-12.8,12.7l0,0c-2.2,0-4,1.8-4,4.1c0,44.8-36.3,81.1-81.1,81.1h-0.8
		C630.1,381.9,593.8,345.6,593.8,300.7z M643.5,406.3c0.2,0,0.4-0.1,0.6-0.1v6.4c0,2.2,1.8,4,4,4s4-1.8,4-4v-25.7
		c7.4,2,15.1,3,22.8,3h0.8c7.2,0,14.4-0.9,21.4-2.6v25.3c0,2.2,1.8,4,4,4s4-1.8,4-4v-6.2c5.3,0.9,10.5,2.1,15.5,3.7
		c-7.2,25.4-33.6,40.2-59.1,33c-16.1-4.5-28.7-17.2-33.1-33.3C633.4,408.4,638.4,407.2,643.5,406.3z M528.3,386
		c0-4.3,3.5-7.9,7.9-7.9h57.6v15.8h-57.6C531.8,393.9,528.3,390.4,528.3,386L528.3,386z M601.7,396.8v-17
		c11.7,3.3,21.7,11,27.9,21.5c-5.3,1.5-10.5,3.3-15.5,5.5C610.9,402.4,606.6,399,601.7,396.8L601.7,396.8z M378.4,386
		c0-4.3,3.5-7.9,7.9-7.9h57.6v15.8h-57.6C382,393.9,378.4,390.4,378.4,386L378.4,386z M451.9,396.8v-17c15.6,4.4,27.9,16.5,32.6,32
		l1.2,4H469C466.2,407.4,460,400.5,451.9,396.8L451.9,396.8z M586.3,423.8c-7.9,6.5-14.8,13.9-20.7,22.2l-43,60.3
		c-1.3,1.8-0.9,4.3,0.9,5.6c0.2,0.1,0.3,0.2,0.5,0.3c0.2,0.1,0.3,0.1,12.9,3.8c-4.6,23.1,0.1,66.6,0.3,68.5c0.1,0.6,0.3,1.2,0.6,1.7
		l11.4,17.4H529l-57.7-179.9H586.3z M201.9,70.4c42.3,0.1,77.5,32.5,81.2,74.6c-6.5-4.1-12.4-10.7-16.8-18.9
		c-5.2-9.8-8.2-20.8-11.1-31.5c-0.6-2.1-2.7-3.4-4.9-2.9c-1.7,0.4-2.9,1.9-3,3.6c-0.5,6.9-2.1,13.6-4.9,19.9
		c-2.5-3.9-4.7-8-6.7-12.2c-0.9-2-3.3-2.9-5.3-1.9c-1.2,0.6-2,1.6-2.2,2.9c-0.7,4.2-2.1,8.2-4.1,11.9c-2.7-6.7-4.6-13.8-5.5-21
		c-0.3-1.9-1.9-3.4-3.9-3.5h-0.1c-1.9,0-3.6,1.4-3.9,3.3l-5.3,29.4c-4-5.5-6-11.8-8.2-18.8c-1.2-3.6-2.4-7.4-4-11.3
		c-0.8-2-3.2-3-5.2-2.2c-1.3,0.5-2.3,1.8-2.5,3.2c-0.9,7.2-2.8,14.3-5.5,21c-2-3.7-3.4-7.8-4.1-11.9c-0.4-2.2-2.5-3.6-4.6-3.2
		c-1.3,0.2-2.4,1.1-2.9,2.2c-2,4.2-4.2,8.3-6.7,12.2c-2.8-6.3-4.4-13-4.9-19.9c-0.1-2.2-2.1-3.9-4.3-3.7c-1.7,0.1-3.2,1.3-3.6,3
		c-2.9,10.7-5.8,21.8-11.1,31.5c-4.5,8.3-10.4,14.9-17,19.1C124.2,102.9,159.5,70.4,201.9,70.4z M120.4,185.1c0-2.2-1.8-4-4-4
		c-7.1-0.2-12.6-6-12.5-13.1c0.2-6.8,5.6-12.2,12.4-12.5c0.3,0,0.7,0,1-0.1c0.4,0,0.9-0.1,1.3-0.3c13.3-5.5,21.6-16.8,26.2-25.4
		c2.9-5.6,5.3-11.4,7.2-17.4c0.8,2.3,1.6,4.5,2.6,6.7c0.5,1.1,2,4.4,5.6,5.1c2.1,0.4,5.1-0.1,7.9-4.5c0.9-1.5,1.8-3,2.7-4.5
		c1.7,4.1,3.9,7.9,6.7,11.3c0.9,1,2.2,1.6,3.5,1.4c1.4-0.1,2.5-1,3.2-2.2c2.5-5,4.6-10.2,6.2-15.5c3,9.2,6.4,18,14.9,25.4
		c1.7,1.5,4.2,1.3,5.6-0.4c0.5-0.5,0.8-1.2,0.9-1.9l3.4-18.7c1.3,3.8,2.9,7.5,4.7,11.1c0.6,1.2,1.8,2,3.2,2.2
		c1.4,0.1,2.7-0.4,3.5-1.5c2.7-3.4,5-7.2,6.6-11.3c0.9,1.5,1.8,3,2.7,4.5c2.8,4.4,5.8,4.8,7.9,4.5c3.6-0.6,5.1-4,5.6-5.1
		c1-2.2,1.9-4.4,2.6-6.7c1.9,6,4.3,11.8,7.2,17.4c4.6,8.6,12.8,19.9,26.2,25.4c0.3,0.1,0.7,0.2,1,0.2c0.3,0.1,0.7,0.1,1,0.1
		c7.1,0.2,12.6,6.1,12.4,13.2c-0.2,6.8-5.7,12.2-12.5,12.4c-2.2,0-4,1.8-4,4.1c0,44.8-36.3,81.1-81.1,81.1h-0.8
		C156.7,266.1,120.5,229.9,120.4,185.1z M201.5,274.3h0.8c7.5,0,14.9-0.9,22.2-2.8v15.1c-0.2,12.5-10.6,22.5-23.1,22.2
		c-11.6-0.2-21.2-9.2-22.2-20.8c0-0.2,0-0.3,0.1-0.5c0-0.3,0-0.6-0.1-0.9v-15.2C186.5,273.3,194,274.3,201.5,274.3z M34.3,438.5
		l56.1,35.3l4.7,69.8c0,0.3,0.1,0.6,0.2,0.9l32.5,109.4l-0.3,0.4l-0.5,0.6c-0.2,0.3-0.5,0.5-0.7,0.8l-0.6,0.6l-0.7,0.8
		c-0.4,0.4-0.9,0.8-1.3,1.2l-0.5,0.5c-0.3,0.3-0.7,0.6-1,0.8l-0.5,0.4l-1.1,0.8L120,661c-0.4,0.3-0.9,0.6-1.3,0.9l-0.2,0.2
		c-3.4,2.2-7.2,3.7-11.1,4.6h-0.1c-0.6,0.1-1.2,0.2-1.8,0.4h-0.3c-0.6,0.1-1.1,0.2-1.7,0.2h-0.4c-0.5,0.1-1.1,0.1-1.6,0.1h-0.4
		c-0.7,0-1.3,0.1-2,0.1h-0.6L50.7,552C49.5,548.3,27,476.2,34.3,438.5z M72.9,716.7h40v19.5h-40V716.7z M82.9,745.9h30v57h-30V745.9
		z M167.8,1081.7H33c-1.6,0.1-3.1-0.7-4-2c-0.4-0.6-0.7-1.3-0.8-2h139.6L167.8,1081.7z M167.8,1069.6H34.3l45.2-34.4
		c1-0.8,1.6-1.9,1.6-3.2v-24.7c12.9,1.9,22.6,12.8,22.9,25.9c0,1.2,0.6,2.2,1.4,3c0.7,0.6,1.6,1,2.6,1h29.7c2.8,0,5.5-1.1,7.5-3.2
		c1.9-1.9,3-4.5,2.9-7.2c0-1.4,1.1-2.5,2.4-2.5c0,0,0,0,0,0h17.1V1069.6z M176.8,917.9c-2.8,26.3-8,52.4-15.6,77.8l-6.2,20.7h-4.2
		c-5.8,0-10.5,4.7-10.5,10.5c0,0.1,0,0.1,0,0.2c0,0.6-0.2,1.1-0.6,1.5c-0.5,0.5-1.1,0.8-1.8,0.8h-22.9v-142H180L176.8,917.9z
		 M237.4,1081.7v-4.1H377c-0.1,0.7-0.4,1.4-0.8,2c-0.9,1.3-2.4,2.1-4,2L237.4,1081.7z M301,1033.3c0.3-13.1,10-24,22.9-25.9v24.7
		c0,1.3,0.6,2.4,1.6,3.2l45.2,34.4H237.4v-45.3h17.1c1.4,0,2.5,1.1,2.5,2.5c0,0,0,0,0,0c-0.1,2.7,1,5.3,2.9,7.2c2,2,4.7,3.2,7.5,3.2
		h29.7c1,0,1.9-0.4,2.6-1C300.6,1035.5,301.1,1034.4,301,1033.3L301,1033.3z M291.3,1029.2h-24c-0.7,0-1.3-0.3-1.8-0.8
		c-0.4-0.4-0.6-0.9-0.6-1.5c0.1-5.8-4.5-10.5-10.3-10.6c0,0,0,0-0.1,0h-3.2l-6.2-20.7c-7.6-25.4-12.8-51.4-15.6-77.8l-3.2-30.7h65.1
		L291.3,1029.2z M324.8,802.9h-30v-57h30V802.9z M334.8,736.2h-40v-19.5h40V736.2z M290.8,708.7c-2.2,0-4,1.8-4,4v27.5
		c0,0.3,0,0.6,0.1,0.8c-0.1,0.3-0.1,0.6-0.1,0.8v65c0,2.2,1.8,4,4,4h20v68.3h-85.9l-17.8-186.2c0-2.2-1.8-4-4-4s-4,1.8-4,4
		l-17.8,186.3H95.5v-68.3h21.4c2.2,0,4-1.8,4-4v-65c0-0.3,0-0.6-0.1-0.8c0.1-0.3,0.1-0.5,0.1-0.8v-27.5c0-2.2-1.8-4-4-4H95.5v-33.2
		c1.3,0.1,2.5,0.2,3.6,0.2c0.8,0,1.7,0,2.5-0.1l0.6,0c0.7,0,1.3-0.1,2-0.2l0.6-0.1c0.7-0.1,1.4-0.2,2.1-0.3l0.3-0.1
		c4.3-0.8,8.4-2.2,12.2-4.2h0.1c2.2-1.2,4.4-2.5,6.4-4.1l0.7-0.5c0.4-0.3,0.8-0.6,1.2-0.9l0.8-0.7l0.9-0.8l0.9-0.8
		c0.3-0.2,0.5-0.5,0.8-0.8c0.6-0.6,1.1-1.2,1.6-1.8c0.2-0.3,0.4-0.5,0.7-0.8l0.8-1c0.2-0.3,0.5-0.6,0.7-0.9s0.3-0.4,0.4-0.5
		s0-0.1,0.1-0.1c5.3-7.5,8.1-16.4,8-25.5c0-2.2-1.8-4-4-4s-4,1.8-4,4c0,4.4-0.8,8.7-2.3,12.8l-11.7-39.5h189.4v104.2L290.8,708.7z
		 M311.5,596.6H119l-16-54l-4.8-72.2l9.2-21c0.9-2,0-4.4-2.1-5.3s-4.4,0-5.3,2.1l0,0L92.3,464c-0.4,0.2-0.8,0.5-1.1,0.8l-62.5-39.3
		c49.9-85.2,74.1-108.1,82.2-113.9c0.2-0.1,0.4-0.3,0.5-0.5c12-12.6,28.7-19.7,46.1-19.6h14c2.7,16.7,18.4,28.1,35.2,25.4
		c13.1-2.1,23.3-12.3,25.4-25.4h14.7c20.6,0,39.9,9.9,51.9,26.6c0.1,0.2,0.3,0.3,0.4,0.5c12.8,12.8,36.1,41.7,74.3,107L316,463.9
		l-12-18.3c-1.2-1.8-3.7-2.3-5.6-1.1c-1.7,1.2-2.3,3.5-1.2,5.3C297.6,450.5,338.3,521.4,311.5,596.6z M506.1,585.4l-138.9-75.6
		l-46.7-39.3l57-38c13.7,23.5,16.6,34.8,16.6,34.9c0.2,0.9,0.8,1.8,1.6,2.3l104.8,72.8c0.2,0.1,0.3,0.2,0.5,0.3l14.2,44.2
		C512.1,587.5,508.9,586.9,506.1,585.4L506.1,585.4z M513.5,621.1c0-5.2,4.2-9.4,9.4-9.4h31.6l12.3,18.8h-53.3V621.1z M533.2,638.5
		h14.7v68.8c-5,3.4-9.9,7-14.7,10.9V638.5z M664.3,1079.3c-110.2,0-199.9-89.7-199.9-199.9c-0.1-43.6,14.1-86,40.5-120.6
		c25.2-33.1,60-57.6,99.6-70.2l12.2,18.7c-77.4,21.4-131,91.8-130.9,172.1c0,98.4,80.1,178.5,178.5,178.5s178.5-80.1,178.5-178.5
		c0-97.2-77.8-176.5-174.9-178.4l0,0l1.1-0.4c7.5-2.4,11.6-10.5,9.2-18c0,0,0,0,0,0c-0.3-0.9-0.7-1.8-1.2-2.7
		c104.3,6.6,187.2,93.5,187.2,199.5C864.2,989.6,774.5,1079.3,664.3,1079.3z M889,963.5h-34.6c2-4.6,3.9-9.3,5.6-14h40
		c3.9,0,7,3.1,7,7v38.9c-4.6-0.7-9.4-0.7-14,0v-27.9C893,965.3,891.2,963.5,889,963.5z M900,1079.2c-21.1,0-38.2-17.1-38.2-38.2
		c0-21.1,17.1-38.2,38.2-38.2c21.1,0,38.2,17.1,38.2,38.2C938.2,1062.1,921.1,1079.2,900,1079.2z M959.9,1058.5l-8.1-11.9
		l146.7-82.7l8,13.3L959.9,1058.5z M1032.6,1027.3l27.6-15.3l3,5.8l0,0l4.5,8.7l-25.7,14.5L1032.6,1027.3z M1054.6,1059.6l-8.1-11.9
		l146.7-82.7l8,13.3L1054.6,1059.6z"/>
	<circle class="st3" cx="92.9" cy="726.5" r="5"/>
	<circle class="st3" cx="314.9" cy="726.5" r="5"/>
	<path class="st3" d="M234.2,225.8c0.6-2.7,0-5.5-1.7-7.6c-1.7-2.2-4.4-3.5-7.2-3.5h-42.8c-2.8,0-5.4,1.3-7.2,3.5
		c-1.7,2.1-2.4,4.9-1.8,7.6c3.9,16.7,20.6,27.2,37.4,23.3C222.4,246.4,231.4,237.4,234.2,225.8L234.2,225.8z M188.8,236.3h30.1
		C210.2,243.8,197.4,243.8,188.8,236.3z M225.2,222.8h0.1h0.2c0.2,0.1,0.4,0.2,0.6,0.4c0.2,0.3,0.3,0.7,0.2,1
		c-0.3,1.4-0.8,2.8-1.4,4.2h-42.1c-0.6-1.3-1.1-2.7-1.4-4.2c-0.1-0.3,0-0.7,0.2-1c0.1-0.2,0.3-0.3,0.6-0.4c0,0,0.1,0,0.1,0h0.2
		H225.2z"/>
	<path class="st3" d="M205.1,182.7c0.5-2.2-0.9-4.3-3.1-4.8s-4.3,0.9-4.8,3.1l0,0c-0.9,3.7-2.5,7.3-4.8,10.4
		c-3.1,4.4-2,10.4,2.4,13.5c1.6,1.2,3.6,1.8,5.6,1.7H213c2.2,0,4-1.8,4-4s-1.8-4-4-4h-12.5c-0.6,0-1.2-0.3-1.5-0.9
		c-0.3-0.6-0.3-1.2,0.1-1.8C202,192,204,187.5,205.1,182.7z"/>
	<path class="st3" d="M170.5,152.4c-3.9,0-7.1,3.2-7.1,7.1s3.2,7.1,7.1,7.1s7.1-3.2,7.1-7.1C177.6,155.6,174.5,152.4,170.5,152.4
		C170.5,152.4,170.5,152.4,170.5,152.4z"/>
	<path class="st3" d="M233.2,166.6c3.9,0,7.1-3.2,7.1-7.1c0-3.9-3.2-7.1-7.1-7.1s-7.1,3.2-7.1,7.1c0,0,0,0,0,0
		C226.1,163.4,229.3,166.6,233.2,166.6C233.2,166.6,233.2,166.6,233.2,166.6z"/>
	<path class="st3" d="M196.7,163.8h11.1c1.9,9.5,10.3,16.4,20,16.4h11.5c9.7,0,18.1-6.9,20-16.4h6.9c2.2,0,4-1.8,4-4s-1.8-4-4-4
		h-6.9c-1.9-9.5-10.3-16.4-20-16.4h-11.5c-9.7,0-18.1,6.9-20,16.4h-11.1c-1.9-9.5-10.3-16.4-20-16.4h-11.4c-9.7,0-18.1,6.9-20,16.4
		h-6.9c-2.2,0-4,1.8-4,4s1.8,4,4,4h6.9c1.9,9.5,10.3,16.4,20,16.4h11.5C186.4,180.1,194.7,173.3,196.7,163.8z M227.8,147.3h11.5
		c6.8,0,12.4,5.6,12.4,12.4c0,6.8-5.5,12.4-12.4,12.4h-11.5c-6.8,0-12.4-5.6-12.4-12.4C215.4,152.9,220.9,147.3,227.8,147.3z
		 M152.9,159.7c0-6.8,5.5-12.4,12.4-12.4h11.5c6.8,0,12.4,5.6,12.4,12.4c0,6.8-5.5,12.4-12.4,12.4h-11.5
		C158.4,172.1,152.9,166.6,152.9,159.7z"/>
	<path class="st3" d="M271.6,358.5h-46.2c-2.2,0-4,1.8-4,4v23.1c0.3,15,12.7,26.9,27.6,26.6c14.6-0.3,26.3-12,26.6-26.6v-23.1
		C275.6,360.3,273.8,358.5,271.6,358.5z M267.6,385.6c-0.2,10.6-9,18.9-19.5,18.7c-10.2-0.2-18.4-8.5-18.7-18.7v-19.1h38.2V385.6z"
		/>
	<path class="st3" d="M243.9,440c-2.2,0-4,1.8-4,4s1.8,4,4,4c4.4,0,8.7,1.6,12,4.5c0.7,0.6,1.7,1,2.7,1c2.2,0,4-1.8,4-4
		c0-1.1-0.5-2.2-1.4-3C256.4,442.4,250.3,440,243.9,440z"/>
	<path class="st3" d="M220.6,440h-54.8c-6.4,0-12.5,2.3-17.3,6.5c-1.7,1.4-1.9,4-0.4,5.6c1.4,1.7,4,1.9,5.6,0.4c0,0,0.1-0.1,0.1-0.1
		c3.3-2.9,7.6-4.5,12-4.5h54.8c2.2,0,4-1.8,4-4S222.7,440,220.6,440L220.6,440z"/>
	<path class="st1" d="M167.8,1069.6H34.3l45.2-34.4c1-0.8,1.6-1.9,1.6-3.2v-24.7c12.9,1.9,22.6,12.8,22.9,25.9c0,1.2,0.6,2.2,1.4,3
		c0.7,0.6,1.6,1,2.6,1h29.7c2.8,0,5.5-1.1,7.5-3.2c1.9-1.9,3-4.5,2.9-7.2c0-1.4,1.1-2.5,2.4-2.5c0,0,0,0,0,0h17.1L167.8,1069.6z"/>
	<path class="st1" d="M301.1,1033.3c0.3-13.1,10-24,22.9-25.9v24.7c0,1.3,0.6,2.4,1.6,3.2l45.2,34.4H237.4v-45.3h17.1
		c1.4,0,2.5,1.1,2.5,2.5c0,0,0,0,0,0c-0.1,2.7,1,5.3,2.9,7.2c2,2,4.7,3.2,7.5,3.2h29.7c1,0,1.9-0.4,2.6-1
		C300.6,1035.5,301.1,1034.4,301.1,1033.3z"/>
	<path class="st1" d="M664.3,671.6c-3.5,0-7,0.1-10.5,0.3l-8.8-16.8h35.6v17.1C675.2,671.8,669.8,671.6,664.3,671.6z"/>
	<path class="st1" d="M711.2,655.1h33.1l55.9,45.9h-29.1c-0.1,0-0.2,0-0.3,0c-18.5-11.1-38.6-19.2-59.6-24.1V655.1z"/>
	<path class="st2" d="M664.3,1079.3c-110.2,0-199.9-89.7-199.9-199.9c-0.1-43.6,14.1-86,40.5-120.6c25.2-33.1,60-57.6,99.6-70.2
		l12.2,18.7c-77.4,21.4-131,91.8-130.9,172.1c0,98.4,80.1,178.5,178.5,178.5s178.5-80.1,178.5-178.5c0-97.2-77.8-176.5-174.9-178.4
		l0,0l1.1-0.4c7.5-2.4,11.6-10.5,9.2-18c0,0,0,0,0,0c-0.3-0.9-0.7-1.8-1.2-2.7c104.3,6.6,187.2,93.5,187.2,199.5
		C864.2,989.6,774.5,1079.3,664.3,1079.3z"/>
	<path class="st0" d="M900,1052.5c-6.4,0-11.5-5.2-11.5-11.6c0-6.4,5.2-11.5,11.5-11.5c6.4,0,11.5,5.2,11.5,11.5c0,0,0,0,0,0
		C911.6,1047.4,906.4,1052.5,900,1052.5z"/>
</g>
</svg>
