<?xml version="1.0" encoding="utf-8"?>
<!-- Generator: Adobe Illustrator 25.2.1, SVG Export Plug-In . SVG Version: 6.00 Build 0)  -->
<svg version="1.1" id="Layer_1" xmlns="http://www.w3.org/2000/svg" xmlns:xlink="http://www.w3.org/1999/xlink" x="0px" y="0px"
	 viewBox="0 0 500 500" style="enable-background:new 0 0 500 500;" xml:space="preserve">
<g>
	<path d="M215,170.7c0.6,3-0.9,5.8-0.9,8.6c0.3,0,0.6,0,0.7-0.1c0.9-0.9,1.7-1.9,2.6-2.8c0.6-0.7,1.3-1.5,1.9-2.2
		c1.3-2,3.5-2.3,5.4-2.9c0.7-0.1,1.6,0.1,2.6,0.3c0,0.9,0.1,1.7,0,2.3c-0.7,2.6-1.6,5.4-2.3,8c-1.3,4.1-1.9,8.3-2,12.6
		c0,0.4,0.1,0.9,0.3,1.3c1.5,0.1,2.3-0.9,2.9-1.7c1-1.6,1.9-3,2.6-4.8c1.3-3,2.2-6.1,2.8-9.4c0.9-5.9,2.3-11.7,4.5-17.3
		c1.2-2.9,2.9-5.5,4.6-8c0.4-0.6,1.2-1,1.7-1.3c1.3-0.6,3,0.7,3,2.3c-0.1,2.8-1,5.4-1.9,8.1c-1.5,4.2-2.8,8.3-4.2,12.5
		c-0.1,0.3,0,0.6,0,0.9c0.9,0.4,1.2-0.3,1.6-0.6c1.2-1,2.2-2,3.6-2.6c1.5-0.6,2.5,0,2.9,1.6c0.3,1.2,0.3,2.3,0.4,3.5
		c0.1,0.9,0.1,1.6,0.1,2.5c1.7-0.4,1.7-0.4,2.5-1.3c1.6-2,3.2-4.1,4.6-6.1c0.6-0.7,1.2-1.6,2-1.9c1-0.3,1.9-0.3,2.6,0.6
		c0.7,0.9,1.3,1.6,2.2,2.6c0.4-0.3,0.9-0.7,1.3-1c1.3-1,2.6-2.2,4.1-3c0.7-0.4,1.7-0.9,2.6-1c1.9-0.3,2.6,0.3,3,2.3l0.9,4.4
		c0.1,1,0.6,2,0.7,3c1.9,0.4,2.9-0.7,4.1-1.7c1.7-1.7,3.5-3.8,5.2-5.5c1.9-1.9,4.1-3,6.5-3.8c1.3-0.4,2.5-0.4,3.8,0c1,0.3,2,0.6,3,1
		l1.7,3c1-0.7,1.9-1.5,2.9-2c0.4-0.3,1.2,0,2,0.1c-0.1,0.7-0.1,1.3-0.3,1.9c-0.3,0.9-0.7,1.7-1.3,2.6c-2.3,3.6-3.2,7.5-3.2,11.9v1
		c0.1,1,1,1.5,1.9,1c0.7-0.4,1.5-0.9,2-1.5c0.7-0.9,1.3-2,1.9-3c1.5-2.9,2.8-5.8,4.2-8.6c1.6-3.2,3.3-6.4,5.8-9.1
		c1.6-1.7,3.5-3.2,5.5-4.4c1.2-0.7,2.3-0.9,3.6-0.9c1.6,0,2.6,0.7,3.2,2.2c0.3,0.7,0.4,1.6,0.4,2.5c0.1,1,0.1,2-0.7,2.6
		c-0.9,0.7-1.9,0.3-2.9-0.1c-0.1-0.4-0.3-1-0.4-1.6c-0.1-0.4-0.1-1-0.3-1.7c-0.7,0.3-1.2,0.4-1.6,0.7c-2,1.6-3.6,3.5-4.8,5.9
		c-1.6,3.3-2.2,6.8-2.3,10.6c-0.1,3,3,4.6,5.2,3.5c3.9-2.3,7.4-5.1,9-9.4c1.3-3.6,2.9-7.1,5.1-10.3c2.6-3.9,6.2-5.7,10.7-5.8
		c2.3-0.1,3.6,0.7,4.2,3c1.2,4.1-0.6,7.4-3.6,9.4c-2.5,1.7-5.2,3.3-7.7,5.1c-1.9,1.3-2.5,3.3-1,5.2c2.3,2.9,3.9,3.2,7,2.2l5.7-2.2
		c0.1,0,0.4,0,0.9,0.1c-0.1,0.4-0.1,0.7-0.3,1.2c-0.9,1.7-2.3,3-4.1,4.1c-1.7,0.9-3.3,1.7-5.2,2.6c-3.5,1.5-7,1.2-10.2-0.6
		c-1.6-0.9-2.8-2-2.8-4.1c0-0.4-0.1-0.9-0.3-1.5c-0.7,0.4-1.3,0.6-1.7,1c-2,1.6-3.9,3.2-5.9,4.9c-2.8,2.3-5.8,2.5-9,1.5
		c-0.1,0-0.4-0.3-0.6-0.3c-2.2-0.1-3.5-1.3-4.5-3.2c-0.9,0.9-1.7,1.6-2.5,2.3c-1.2,1-2.5,1.7-4.1,1.6c-1.3-0.1-2.8-0.4-4.1-0.9
		c-1.6-0.4-1.5-2.2-2.2-3.3c-0.9-0.1-1.3,0.6-1.7,1c-1.6,1.9-3.6,3.2-5.9,4.4c-1,0.6-2.2,0.7-3.3,0.3c-1.2-0.4-2.3-0.4-3.5-0.7
		c-1.5-0.4-2.2-1.3-2.2-2.8c-0.1-2.6,0-5.1,0.7-7.7c-1.3-0.6-2.5-0.4-3.5,0.4c-1.6,1.5-3.3,1-5.1,0.6c-0.9-0.3-1.5-1-1.3-1.9
		c0-0.9,0.1-1.7,0.3-2.5c0.3-1.2,0.3-2.3-0.1-3.6c-0.7,0.3-1.3,0.6-1.7,0.9c-1.2,1-2.2,2-3,3.2c-1.6,2.2-2.9,4.5-4.4,6.7
		c-1.2,1.9-2.3,3.8-3.3,5.8c-0.6,1.2-1.9,1.7-2.6,2.8c-0.6,0.7-1.3,1.3-2.2,0.7s-0.6-1.5-0.4-2.3c0.4-2,1-3.9,1.5-5.9
		c0.4-1.3,1-2.6,1.5-3.9c0.1-0.6,0.3-1.2,0.4-2.3c-1.9,1.6-3.5,2.8-4.9,3.9c-0.3,0.3-0.6,0.9-0.7,1.5l-0.4,2.2
		c-0.4,1.5-0.9,2.8-2,3.9c-1,1-1.7,2.2-2.6,3.2c-1.2,1.5-2.5,2.6-4.4,3c-0.7,0.1-1.5,0.4-2.2,0.7c-1.5,0.6-2.8,0.9-4.4,0.3
		c-0.4-0.1-1-0.3-1.6-0.1c-1.3,0.1-1.9-0.7-2.3-1.5c-1.9,0.9-3.8,1.7-5.5,2.5c-1.2,0.4-2.3,0.3-3.2-0.9c-0.4-0.6-1-1.2-1.3-1.7
		c-0.7-1.2-1-2.2-0.7-3.6c0.7-3.5,1.3-7,1.9-10.4c0.1-0.7,0.6-1.6-0.1-2.5c-0.3,0.1-0.6,0.1-0.9,0.4c-1.6,1.7-3.3,3.6-4.9,5.5
		c-1.3,1.5-2,3.2-2.2,5.2c-0.1,1.6-0.4,3.2-0.6,4.8c-0.1,1.7-1,2.8-2.5,3.5c-1.3,0.6-2.6,1-3.9,0.9c-0.9-0.9-0.7-1.9-0.6-2.8
		c0.4-2.9,1-5.9,1.6-8.8c0.1-0.9,0.6-1.9,0.9-2.8c0.4-1.7,1-3.5,1.2-5.4c-1.6,0.6-1.9,0.9-5.5,5.5c-1.6,2-2.9,4.2-3.8,6.7
		c-0.9,2.5-1.9,4.9-2.8,7.7c-1.7,1-3.5,0.6-5.5-0.1c0-0.6-0.1-1.2-0.1-1.7c0-0.4,0.3-0.9,0.3-1.2l5.2-17.4c0.1-0.4,0.1-0.7,0.3-1.6
		c-0.7,0.3-1.3,0.3-1.6,0.6c-0.7,0.6-1.5,1.3-2.2,1.7c-0.6,0.4-1.3,0.4-2,0.7c-0.6-1.9-0.3-3.3,1-4.6c1.2-1.2,2.2-2.3,3.6-3
		c1.2-0.7,2.3-0.9,3.6-0.3c0.1,0.1,0.4,0.3,0.6,0.3c2,0.4,2.6,1.9,2.9,3.8c0.1,0.6,0.1,1.3,0.3,2.2c0.6-0.4,1-0.7,1.3-1
		c1.6-2,3.2-3.9,4.9-5.9c0.9-1,1.6-2,2.6-2.8c0.7-0.6,1.6-1,2.5-1.3C213.4,170.1,214.2,170.5,215,170.7 M293.3,172.3
		c-3,0.7-5.4,2.5-7,5.2c-1.3,2.2-2.3,4.5-2.8,7.1c-0.3,1.7,0.3,2.6,2,2.8c0.9,0,1.7,0,2.5-0.3c1.7-0.7,3.2-1.6,4.4-3
		c2-2.3,2.8-5.1,3-7.8C295.9,174.4,295,173,293.3,172.3 M243.2,179.4c-0.4,0-0.7-0.1-0.9,0c-3.3,2-6.5,4.1-7.4,8.3
		c-0.1,0.6-0.4,1.2-0.6,1.7c-0.3,0.9-0.4,1.9-0.4,2.8c-0.1,1.6,1,2.6,2.6,2.2c0.4-0.1,1-0.3,1.5-0.6
		C241.9,191.1,244.8,185,243.2,179.4 M337.1,175.3c0.4-0.1,0.9-0.1,1-0.4c1.7-1.5,3.6-3,5.4-4.6c0.6-0.6,1-1.3,1.3-2.2
		c0.4-0.9,0.4-1.7-0.3-2.3c-0.7-0.6-1.5-0.1-2,0.3c-2.2,1.3-3.5,3.5-4.6,5.5C337.2,172.7,336.8,173.7,337.1,175.3 M340.3,267.2
		c1.7-1.5,3.8-0.4,5.5-1.3c0.4-1.9,0.1-3.8,0.3-5.7c0.1-4.9,0.3-9.9,0.4-14.6c0.1-4.5,0.4-9,0.6-13.5c0-0.6,0-1-0.3-1.6
		c-0.3-1-1-1.6-2.2-1.6h-3.8c-0.3-0.4-0.4-0.7-0.6-1c-0.1-3.3-0.3-6.8-0.4-10.4c0.6-0.1,1.2-0.4,1.7-0.4c0.4-0.1,0.9,0,1.3,0
		c5.1,0.6,10.2,0,15.4-0.1c5.4-0.1,10.9-0.4,16.2-0.6h2.2c2,2.6,3.9,5.2,5.9,7.7c1.3,1.6,2.6,3,4.1,4.5c2.6,2.5,4.9,5.4,7,8.3
		c2,3,4.8,5.4,7.3,8c0.1,0.1,0.4,0.1,0.7,0.1c0.1-0.4,0.3-0.7,0.3-1.2c0-3.6,0.1-7.3,0.4-10.9c0.1-2.2-1.2-3.6-3.3-3.6h-3.6
		c-0.1-0.4-0.3-0.9-0.3-1.2c0.4-3,0-5.9-0.1-9c-0.1-4.1-0.1-4.1,3.8-3.6c9,1,18.1,1.2,27.1,1.2c1.7,0,3.6,0,5.5,0.1
		c0.3,2.3-0.1,4.6,0,6.8s0,4.5,0,6.8c-1.2,1.2-2.9,1-4.6,1.6c-0.1,0.6-0.4,1.2-0.6,1.9c-0.4,5.2-1,10.4-1.3,15.7
		c-0.3,4.1-0.1,8.1-0.1,12.2c0,2.6,0.1,5.1,0,7.7c-0.3,3.6-0.7,7.3-1,10.7c0,0.4-0.3,0.7-0.4,1.2c-0.4,0.1-0.9,0.3-1.3,0.3
		c-3,0-6.1,0.6-9.1,1c-1.7,0.3-3.6,0.3-5.4,0.3c-1.6,0-3.2,0-4.8,0.1c-1.6,0.1-2.9-0.4-3.9-1.7c-2.3-2.8-4.6-5.5-7.1-8.3
		c-3.6-4.1-7.4-8-11.2-11.9c-1.9-1.9-3.5-3.8-4.9-5.8c-0.9-1.2-1.7-2.3-2.9-3.6c-0.3,0.6-0.6,0.9-0.6,1c-0.1,5.4-0.4,10.9,0.3,16.4
		c1,0.1,2,0.1,2.9,0.3c1.6,0.1,3.2,0.1,4.8,0.3c1,0.1,1.5,0.7,1.5,1.7v8c0,2.2-0.6,2.8-2.9,3c-2.2,0.1-4.5,0.1-6.7,0.1
		c-7.8,0-15.8-0.1-23.6,0.4c-2.3,0.1-4.6,0.1-7.3,0.3c-0.1-0.6-0.4-1.2-0.4-1.7c-0.1-3.9-0.4-7.8-0.6-11.9
		C340.1,268.8,340.3,268,340.3,267.2 M404.2,254c-0.4-0.3-0.9-0.4-1.2-0.7c-0.6-0.6-0.9-1.2-1.5-1.7c-3.5-3.9-7-7.8-10.3-11.9
		c-3-3.8-5.9-7.5-8.3-11.7c-1.3-2.5-3.3-4.5-5.2-6.4c-1.2-1.2-2.6-1.9-4.4-1.7c-1,0-2.2-0.1-3.2-0.1c-8.7-0.3-17.4-0.4-26.1-0.7
		c-0.9,2.2-0.9,3.5-0.4,7h3.2c1.9,0,2.5,0.6,2.6,2.5c0.1,4.4,0.1,8.7,0.1,13.1v23.1c0,1.3,0,2.6-0.3,3.8c-0.3,1.6-1,2.2-2.6,2.3
		c-0.9,0.1-1.9,0.1-2.8,0.1c-0.7,3.8-0.7,6.4,0.1,8.7c2,0.1,4.2,0.3,6.4,0.3c4.6,0.1,9.4,0.3,14.1,0.3c2.6,0,5.1,0,7.7,0.4
		c1.6,0.3,3.2,0.4,4.8,0.1c2.5-2.5,2.3-5.4,1.5-8.3c-1.5-0.6-2.6-0.6-3.9-0.7c-1.6,0-3.2-0.1-4.8-0.1c-0.9,0-1.5-0.4-1.6-1.3
		c-0.1-1.3-0.4-2.6-0.3-3.8c0.1-4.6,0.4-9.4,0.6-14.1c0.1-2.5,0-4.9,0-7.4c0-0.4,0-1.2,0.9-1.3c0.3,0.3,0.7,0.7,1,1.2
		c2,2.8,4.4,5.2,7,7.5c4.5,4.1,8.8,8.3,13.2,12.5c3.9,3.9,7.5,8.1,10.2,13.1c0.3,0.6,0.7,1,1,1.6c3.2-0.3,6.2-0.7,9.3-1
		c3.2-0.3,6.4-0.4,9.6-0.6c0.1-0.6,0.1-1.2,0.1-1.7c0.1-3.9,0.3-7.8,0.4-11.9c0-5.7,0.1-11.3,1-16.8c1-5.8,1.5-11.6,1.5-17.5
		c0-0.9,0.1-1.9,0.1-2.9c1.6-0.3,2.9-0.4,4.5-0.7v-5.5c0-0.3-0.1-0.6-0.1-0.9c-0.9-0.7-1.9-0.6-2.8-0.4c-1.5,0-2.8,0.1-4.2,0.1
		c-6.8-0.1-13.6-0.3-20.4-0.3c-0.7,0-1.5,0.1-2.2,0.1c-0.6,1.9-0.7,3.6-0.3,5.7c2,0.1,4.2-0.1,6.1,1.3c1.2,4.5,1.2,9.1,1.2,13.8
		c0,2.9-0.1,5.8-0.3,8.6c0,1.2,0,2.3-0.1,3.5C404.9,253,404.5,253.5,404.2,254 M228.2,291.3c0.4-0.1,0.9-0.3,1.3-0.3
		c2.8,0,5.5,0.1,8.3,0.1c1.6,0,2,0.4,2.3,2c0.1,0.6,0.1,1.3,0.1,1.9c0.1,6.2-0.1,12.6-0.7,18.9c-0.3,3.3-0.6,6.8-1.3,10.2
		c-1.2,6.1-3.8,11.2-9.1,14.8c-5.9,4.1-9.3,4.9-16.2,4.1c-1-0.1-2-0.4-3-0.7c-1.7-0.6-3.3-1.3-5.1-1.9c-1.7-0.6-3.2-1.7-4.1-3.3
		c-2.3-3.9-4.1-8-4.8-12.5c-0.4-2.9-0.7-5.7-0.6-8.6c0.3-3.8,0.3-7.7,0.4-11.5c0-1.6,0-3.2-0.1-4.8c0-1.5-0.1-2.8,0.7-4.2
		c0.9-0.7,2.5-0.3,3.2-1.5c0.1-0.1,0.6-0.3,0.9-0.3c2.3-0.1,4.6-0.3,7-0.3c0.1,0,0.4,0.1,0.6,0.3c0.7,0.9,0.4,1.9,0.4,2.8
		c-0.1,5.5-0.4,11-0.4,16.7c0,3.2,0.3,6.4,0.7,9.6c0.1,1.5,0.9,2.9,1.5,4.2c1.7,3.5,6.8,5.4,10.2,3.6c0.4-0.1,0.9-0.3,1-0.7
		c2.8-3.2,5.1-6.5,5.7-10.9c0.6-4.1,0.6-8.1,0.6-12.2c0-4.5,0-9,0.1-13.5C227.9,292.5,228.2,291.9,228.2,291.3 M175.8,314.8
		c0.4,6.5-2.3,12-6.7,16.8c-2.5,2.8-5.2,5.2-8.6,7.1c-2.8,1.5-5.7,2.3-8.8,2.8c-1.3,0.1-2.8,0-4.1-0.3c-4.4-1.2-8.3-3.5-11.9-5.9
		c-1.6-1-2.5-2.8-3-4.4c-1.3-3.5-2.6-7-3.2-10.7c-0.4-3.2-0.7-6.4,0.7-9.4c0.9-2,1.5-4.2,2.5-6.2c1.6-2.9,3.3-5.7,6.2-7.5
		c4.2-2.9,8.6-5.2,13.5-6.2c1.6-0.3,3-0.3,4.6,0.1c4.4,1.3,8.4,3.2,12,5.8c1.2,0.9,2.2,2,3,3.2c2.5,3.6,3.6,7.7,3.8,12
		C175.8,312.9,175.8,313.8,175.8,314.8 M153.2,302.6H151c-1.6-0.1-2.9,0.3-3.8,1.9c-0.1,0.4-0.6,0.6-0.9,1
		c-2.5,3.2-4.1,6.8-4.5,10.7c-0.3,2.2,0,4.2,1.5,5.9c0.9,1,1.6,1.9,2.5,2.9c3.8,4.8,3,3.8,8.1,4.5c1.9,0.3,3.5-0.1,4.6-1.5
		c2.6-2.9,5.4-5.8,5.9-10c0-0.6,0.1-1,0.4-1.5c0.6-0.9,0.4-1.9,0.4-2.8c0.1-2.5-0.9-4.6-1.9-6.7c-1-2-2.6-3.2-4.6-4.1
		C157.1,302.6,155.1,302.8,153.2,302.6 M299.7,342.7c-2.9,1-5.8,1.2-8.8,1.3c-2.3-3.6-4.2-7.4-6.4-11s-4.5-7.3-6.8-10.9
		c-1.5-0.1-2.9-0.1-4.5,0.1c-0.6,1.3-0.6,2.8-0.7,4.1c0,4.2-0.1,8.6-0.1,12.8c0,1.6,0,3.2-0.6,4.8c-3.2,1-6.2,0.3-9.3,0.6
		c-0.4-2.6-0.4-4.9-0.6-7.3c-0.3-4.6-0.6-9.1-0.9-13.8c-0.3-4.6-0.6-9.1-0.7-13.8c-0.1-3.9,0-7.8-1-11.7c-0.6-2-0.4-4.2,0.6-6.4
		c3.6-0.6,7.3-1.3,11-1c4.2,0.3,8.6,0.7,12.8,1.3c3.2,0.4,5.8,2.2,7.5,4.8l0.9,1.3c2,1.9,2.3,4.4,2.5,7c0.1,4.5-1,8.4-4.2,11.7
		c-0.7,0.7-1.5,1.6-2.2,2.5C292.4,326.7,297,334.2,299.7,342.7 M273.1,311.9c2,0.6,3.9,0.7,5.8,0.4c4.1-0.4,6.1-2.8,6.2-6.7
		c0.1-3.3-1.9-6.1-5.2-6.5c-2.6-0.3-5.4-0.1-8-0.1c-0.1,0-0.3,0.1-0.6,0.4c-0.1,2,0.9,4.1,1.2,6.1
		C272.7,307.7,272.8,309.7,273.1,311.9 M304.2,237.4c-2.2-2.6-1.3-5.7-2.8-8.1c-3.9,0.6-7.8,1.2-11.9,1.9c-1,2.9,0,5.7,0.1,8.6
		c1.6,0.6,3,0.1,4.5,0.1c0.7,0,1.5,0.1,2.2,0.3c1.3,2.5,3.8,1.5,5.7,1.7c1.7,0.1,3.3,0.1,5.2,0.1c0.7,3.8,0.1,7.4,1.2,11
		c-1,0.1-1.7,0.3-2.5,0.4c-4.5,0.1-9,0.1-13.5,0.1c-1.3,0-2.8,0.3-4.4,0.3c0.3,2.5,0.6,4.5,0.7,6.7c0.1,2.2,0,4.5,0,6.5
		c0.9,0.9,1.7,0.9,2.8,0.9c3.5,0.1,7,0.3,10.7,0.4c1.3-0.7,1.9-2.2,1.9-3.9c0-1.3,0.1-2.8,0.1-4.2c0.9,0,1.6-0.3,2.3-0.1
		c3.6,0.7,7.3,0.7,10.9,0.7h8.7c0.6,0,1.3,0.1,2,0.3c0,1,0.1,1.9,0.1,2.9c-0.1,4.6-0.1,9.4,0.6,14.1c0.1,0.6,0.1,1.3,0.1,1.9
		c-0.1,1.9-1.6,3.3-3.5,3.5c-0.6,0-1,0-1.6-0.1c-4.9-1-10-0.6-14.9-0.6s-9.9,0.1-14.6,0.4c-3.8,0.1-7.7,0.6-11.5,0.9
		c-3.3,0.3-6.5,0.4-9.9,0.7c-0.6,0-1,0-1.6,0.1c-4.9,0.6-9.7,1.2-14.6,1.6c-1.6,0.1-2.2-0.3-2.5-1.9c-0.1-0.7-0.3-1.5-0.3-2.2
		c-0.1-3.8-0.3-7.4-0.3-11.2c0-0.6,0-1,0.1-1.7c1.5-0.3,2.9-0.7,4.4-1c0.6-0.1,1.3-0.3,1.9-0.4c1-0.3,1.6-1,1.7-2v-1.9
		c-0.1-4.6-0.3-9.1-0.3-13.8c0-4.2,0.1-8.3,0.1-12.5c0-1.6-0.3-3.2-0.4-4.8c-0.1-1.7-1.2-2.8-2.9-2.9c-1.3-0.1-2.5-0.3-3.8-0.4
		c-1.2-2.9-2.2-9-2-12.3c0.4-0.1,0.9-0.3,1.5-0.3c7.5,0.1,15.1,0,22.6-0.4c5.9-0.4,11.9-0.3,17.8-0.4c4.6-0.1,9.4-0.3,14.1-0.1
		c3.8,0.1,7.7-0.3,11.5-0.4h6.5c0.1,0.7,0.3,1.3,0.3,1.9v18c-0.1,1-0.6,1.6-1.6,1.6c-0.9,0.1-1.7,0.1-2.6,0.1
		c-5.4,0-10.7-0.3-16,0.3C306.2,237.5,305.2,237.4,304.2,237.4 M264.4,270.9c-2.3,0.4-4.4,0.9-6.8,1.5c0.1,3.3-0.3,6.5,0.6,9.6
		c0.6,0.1,1,0.3,1.5,0.3c4.6,0,9.4,0,14.1-0.3c8-0.4,16-1.5,23.9-1.2c1,0,1.9-0.1,2.9-0.1c3.5-0.3,7-0.7,10.4-0.9
		c3.9-0.3,7.8-0.3,11.9-0.4c0.6,0,1.2-0.1,2-0.1c0.6-2.6,0.1-5.1,0.1-7.4c0-2.5,0.6-5.1-0.4-7.7c-5.7,0.1-11.2,0.6-16.8-0.1
		c-0.3,2.5-0.6,4.8-0.9,7c-1.3,0.9-2.5,0.6-3.6,0.6c-4.8,0-9.6-0.3-14.4,0.6c-0.7,0.1-1.5,0-2.2,0c-0.4-1.5-0.4-2.8-0.3-3.9
		c0.1-4.4-0.1-8.6-0.9-12.8c0-0.4-0.1-0.9-0.1-1.3c0-0.7,0.1-1.5,0.3-2.3c2-0.1,3.8-0.4,5.5-0.4h12.5c0.6,0,1.2-0.1,1.9-0.3
		c0.1-1.6,0.1-3,0.1-4.6c0-0.4-0.3-1-0.4-1.5c-6.4-0.1-12.6,0.4-18.9-0.4c-1-2.8-1-4.9-0.9-14.5c0-0.6,0.3-1.2,0.4-2h10
		c3.3,0,6.7-1.2,10.3-0.3l0.9,6.1c0.6,0.1,0.9,0.1,1.3,0.1c4.6,0.1,9.1,0.1,13.8,0.3c0.4,0,0.7-0.1,1.3-0.4v-7.4
		c0-1.7,0.1-3.6,0.3-5.4c0-0.6-0.1-1.2-0.3-1.7c-0.6-0.1-0.9-0.1-1.2-0.1c-4.9,0-9.9-0.1-14.8-0.1l-41.3,0.4h-6.7
		c-0.9,0-1.6,0.1-2.6,0.3c0,2.6-0.4,5.1,0.1,7.4h3c1,0,2.2,0,3,0.6C264.1,232.4,265,266.2,264.4,270.9 M421,290.9
		c0.1,3.6,1,7.1,0.4,10.9c-0.7,0.1-1.6,0.3-2.5,0.3c-3.8,0.1-7.7,0.4-11.5,0.6c-2.3,0-4.6-0.1-7-0.1c-1.3,0-2.8-0.3-4.2,0.6
		c0,2.5,0,4.8,0.3,7.4c1.7,0.3,3.3,0,4.8-0.3c1.5-0.3,2.9-0.3,4.6,0c0.4,3.3,0.3,6.5,0.9,9.9c-3.6,1.2-7,0.1-10.3,0.7
		c-0.7,1.9-1.2,8.1-0.9,11.2c2.8-0.1,5.7-0.1,8.6-0.3s5.8-0.3,8.6-0.4c2.9-0.1,5.7-0.3,8.7-0.1c0.4,2.9,0,5.7,0.3,8.1
		c-1.5,1.3-2.9,1.5-4.4,1.5h-15.1c-2.6,0-5.1,0.3-7.7,0.4c-1.6,0.1-3.3,1-5.1,0.1c-0.4-0.1-1.2,0.1-1.7,0.4c-1,0.6-2.2,0.9-3.3,0.3
		c-0.1-0.3-0.3-0.4-0.4-0.7c-0.7-6.5-0.9-12.9-0.4-19.4c0.4-5.4,0.4-10.9,0.4-16.2c0-2.6-0.4-5.4-0.7-8c-0.1-1.5-0.3-2.8,0.7-4.2
		C396.5,292.2,408.6,290.7,421,290.9 M353.2,306.3l-2.2-2.6c-1.6-1.9-3.6-2.9-6.1-3h-6.1c-2,0-3.3,1-4.5,2.6
		c-4.2,5.5-4.4,11.7-3.2,18.3c1.5,3.3,3.3,6.1,6.7,7.8c0.9,0.4,1.9,0.9,2.9,1.3c1.5,0.7,2.9,1,4.6,1c3.9-0.1,6.7-2,8.4-5.4
		c0.1-0.4,0.3-0.7,0.6-1.2c0.1-0.3,0.3-0.6,0.6-0.9c3,0,5.9,1,9.1,1.7c-0.1,2.3-0.7,4.4-1.9,5.9c-2.3,3.2-5.1,6.1-9,7.3
		c-0.1,0-0.1,0.1-0.3,0.1c-4.5,2.8-9.4,2.8-14.2,2.2c-6.5-0.7-11.7-4.1-15.2-9.9c-3.6-5.9-4.1-12.5-3.6-19.1c0.3-3.3,0.9-6.7,2.2-10
		c2.2-5.2,5.8-9.1,11-11.3c2.8-1.2,5.7-1.2,8.6-1.2c4.1,0,8,0.7,11.9,2.2c1.5,0.6,2.8,1.2,3.5,2.5c0.6,0.9,1.3,1.7,2,2.5
		c1,1.2,1.6,2.5,1.9,3.9C359.1,303.2,356.1,305.2,353.2,306.3 M77.2,336.9c1.3-0.9,2.9-1.9,4.4-2.9c1.5-1,2-2.8,3.9-3.5
		c0.3,0.3,0.7,0.4,0.9,0.7c1.3,2.2,3.3,3.5,5.7,4.4c0.6,0.3,1.2,0.4,1.7,0.7c2.2,0.7,3.6,0.3,4.9-1.6c1.9-2.5,1.2-5.1,0.4-7.7
		c-0.1-0.7-1-1.3-1.7-1.9c-0.9-0.6-1.7-1.2-2.8-1.7c-4.1-1.9-7.5-4.8-10.6-8c-3.9-4.2-5.2-9-3.2-14.5c0.4-1.2,0.7-2.2,1.2-3.3
		c0.6-1.6,1.7-2.6,3.2-3.5c3-1.9,6.5-1.9,9.9-2.3c0.7-0.1,1.5,0.1,2.2,0.3c0.9,0.1,1.9,0.4,2.8,0.6c1.9,0.4,3.8,0.7,5.5,1.6
		c1.6,0.9,3,2.3,4.5,3.5c0.3,0.1,0.4,0.4,0.7,0.6c0.7,0.9,0.7,1.7,0,2.5l-0.4,0.4c-2,1.2-3.5,2.8-5.1,4.4c-0.3,0.3-0.7,0.4-1.2,0.7
		c-0.7-0.7-1.6-1.5-2.3-2.2c-1.7-1.7-3.8-2.8-6.1-3.5c-1.9-0.6-3.6,0.3-4.5,2c-1,2.2-0.3,5.2,1.6,6.7c1.7,1.2,3.6,2.2,5.5,3.2
		c2.2,1.2,4.1,2.8,5.9,4.4c2.2,1.9,3.8,4.4,4.8,7.1c0.4,1,0.6,2.3,0.7,3.5c0.1,1.3,0,2.8,0,4.2c0.1,4.1-1.6,7.3-4.6,9.7
		c-2.8,2.3-5.7,4.1-9.1,5.1c-3.5,1-6.8,0.1-10-0.9c-0.4-0.1-0.7-0.4-1-0.7c-2-1.6-4.2-3.3-6.2-4.9C77.8,339.5,76.8,338.6,77.2,336.9
		 M167,283.2c-0.1-0.4-0.3-0.7-0.3-1.2c0.3-3.6-0.7-7.3-0.9-10.9c0-0.1,0.1-0.4,0.3-0.7c1.5-0.3,3-0.4,4.5-1
		c1.3-0.6,2.5-1.6,3.9-2.5c-0.1-1.7-0.1-3.6-0.3-5.5c0-1-0.1-1.9-0.1-2.9v-19.1c0-2-0.3-4.1-0.4-6.1c0-0.7-0.3-1.5-0.4-2.2
		c-1.7-0.6-3.3-1.2-5.1-1.6c-1-1.3-0.9-3-1-4.5c-0.1-2.6,0-5.1,0.1-7.7c0.1-1.9,0.6-2.5,2.6-2.5c6.5-0.1,13.1-0.3,19.4-0.3
		c5.7-0.1,11.3-0.1,17-0.3c4.1-0.1,8.1,0.4,12,1.2c4.8,0.9,9.6,2,14.1,3.9c2.5,1,4.6,2.2,6.5,3.9c2.5,2.2,3.8,4.8,3.9,8.1
		c0,3-0.1,5.9-0.7,8.8c-0.7,4.4-3.2,7.7-6.4,10.4c-2.9,2.5-6.2,4.1-10,4.8c-2.9,0.6-5.9,1-8.8,1.5c-3.2,0.6-6.2,1-9.4,1.5
		c-1.5,0.1-2.9,0.3-4.5,0.4c-1.3,0.1-1.9,0.6-2.2,1.9c-0.4,2.2-0.3,4.5,0.1,6.7c0.3,1.2,1,1.7,2.3,1.9h2.2c0.6,0,1.3,0.1,1.9,0.1
		c0.7,2.2,0.1,4.4,0.3,6.4c0.1,2.2,0,4.2-0.1,6.4c-2.9,0.7-5.5,0.4-8.1,0.4H191c-2.6,0-5.4,0-8,0.1l-8.3,0.4L167,283.2 M177.6,228.7
		c0.1,1.5,0.3,2.6,0.3,3.8v12.5c0.1,8.3,0.4,16.4,0.6,24.7c0,1,0.3,2.2-0.4,3.2c-2.5,0.7-5.1,0-7.7,0.7c-0.3,2.2-0.4,4.2,0,6.2h4.6
		c9.3,0,18.6-0.1,27.8-0.1c0.9,0,1.7,0.3,2.5-0.6c0.1-2.2,0.1-4.4-0.7-6.5c-1.7-0.6-3.6,0.1-5.2-0.7c-1.2-3.3-1.5-11.9-0.4-15.1
		c1.7-0.1,3.5-0.4,5.2-0.6c2.2-0.1,4.5-0.1,6.7-0.3c4.6-0.3,9.3-1.2,13.6-3c2.6-1.2,5.1-2.8,7.4-4.4c2.2-1.5,4.2-3.3,5.9-5.4
		c0.9-1,1.7-2.2,1.9-3.3c0.3-2.2,0.1-4.5-0.1-6.7c-0.6-3.5-2.8-6.1-5.4-8.4c-1.7-1.5-3.5-2.8-5.8-3.3c-3.6-0.9-7.3-1.9-10.9-2.3
		c-6.7-0.9-13.3-1.5-20.2-1.5c-4.9,0.1-9.9,0-14.8,0c-2.8,0-5.5,0.1-8.3,0.4c-1,0.1-2.5,0-3.3,1.2c-0.3,1.5,0.1,3,0.3,4.6
		c0.1,1.7,0.7,3.3,1.9,4.5C174.5,228.4,175.8,228.5,177.6,228.7 M114.2,285.4h-8c-1.7,0-3.6-0.1-5.4-0.6c-3.2-0.6-6.2-1.3-9.3-2.2
		c-3.2-1-6.2-2.6-9-4.8c-2.8-2.2-4.9-4.8-7.1-7.4c-0.9-1.2-1.6-2.6-2.2-3.9c-2.3-5.2-4.2-10.4-4.6-16.2c-0.4-5.9,0.9-11.6,3.3-17.1
		c3-6.7,7.8-11.6,14.1-15.2c3.2-1.9,6.4-3.5,9.9-4.5c1.2-0.4,2.5-0.6,3.8-0.7c7.3-1.3,14.5-0.9,21.8-0.3c3.9,0.3,7.4,1.6,11,3.2
		c4.1,1.9,7.8,4.2,11.9,6.2c0.4,0.1,0.7,0.4,1.2,0.7c4.8,4.2,8.6,9.1,10.9,15.2c2.3,5.9,2.6,12,2.2,18.3c-0.3,3.5-1.7,6.5-3.3,9.6
		c-1.2,2.3-2.5,4.5-3.9,6.5c-0.9,1.3-2,2.5-3.3,3.3c-2.6,1.9-5.2,3.6-7.8,5.5c-2.8,1.9-6.1,2.6-9.4,2.9c-5.4,0.7-10.9,1-16.2,1.6
		C114.2,285.5,114.2,285.4,114.2,285.4 M115.1,283.1v-0.3h7.7c2.9,0,5.7-0.7,8.4-1.9c2-0.9,4.1-1.9,6.1-2.8c3-1.2,5.8-2.6,8.3-4.8
		c7-6.1,10-13.6,9-22.8c-0.1-1.7-0.4-3.6-0.6-5.4c-0.4-5.2-2.3-9.9-5.8-13.9c-2.9-3.3-6.5-5.8-9.7-8.7c-3.2-2.8-7-4.1-10.9-5.1
		c-1.6-0.4-3.2-0.7-4.8-0.9c-4.4-0.3-8.7-0.4-13.1-0.9c-5.4-0.4-10.6,0.4-15.7,2.2c-6.2,2.2-10.9,6.2-14.8,11.2
		c-0.6,0.7-0.9,1.5-1.3,2.2c-3.2,6.7-4.8,13.6-4.4,21c0.3,4.9,1.2,9.7,3.9,14.1c3.3,5.1,7.4,9.3,13.2,11.6c3.2,1.3,6.7,2.3,10,3.5
		c2.2,0.7,4.5,1.2,7,1.2C110,282.9,112.6,283.1,115.1,283.1"/>
	<path d="M162.3,175.2c-2.5-0.7-4.9-0.9-7.5-0.6c-0.1-0.3-0.4-0.7-0.3-1.2c0.1-0.4,0.4-0.9,0.9-1.3c0.4-0.3,0.9-0.6,1.5-0.7
		c5.5-1.2,10.6-3.8,15.8-5.8c3-1.2,6.1-2.5,9.1-3.6c2.6-1,5.2-1.9,7.8-2.9c0.7-0.3,1.6-0.4,2.6-0.7c0.6,2.3,0.3,4.5-0.3,6.7
		c-0.1,0.6-0.6,1-0.6,1.5c0,2-1.2,2.8-2.9,3.2c-5.8,1.5-11.5,3.3-17.4,4.1c-1.6,0.1-2.8,1-3.3,2.6c-0.3,0.9-0.6,1.7-1,2.9
		c0.7,0,1.3,0.1,1.7,0c1.2-0.3,2.3-0.6,3.3-0.9c0.7-0.1,1.5-0.3,2.3-0.3c0.1,0.9,0.3,1.6,0.3,2.3v3.5c-1,0.3-1.7,0.6-2.6,0.9
		c-1.5,0.4-2.9,0.7-4.4,1.2c-4.2,1.2-6.8,3.9-8,8.3c-0.6,1.9-1.6,3.8-2.5,5.8c0.1,1,0.3,2.3,0.6,3.5c1.3,0.6,2.6,0.4,3.8,0.1
		c2.5-0.6,4.9-1.3,7.4-2c5.4-1.7,10.6-3.9,15.7-6.4c0.7-0.3,1.3-0.7,2-0.9c0.6-0.3,1.3,0.4,1.2,1c-0.1,0.9-0.4,1.9-0.9,2.6
		c-1.6,2.3-3.2,4.6-4.9,6.7c-0.7,0.9-1.9,1.5-2.9,1.9c-1.2,0.6-2.5,0.9-3.6,1.2c-4.1,1.2-8.3,2.2-12.3,3.3c-3,0.7-5.9,1.5-9,2.2
		c-2.6,0.6-5.2,0.7-8.1,0.3c-0.4-1.7,0.1-3.3,0.7-4.9c0.9-2,1.9-4.1,2.9-6.1c2.2-4.5,4.2-9.1,6.4-13.6c0.9-1.9,1.9-3.8,2.8-5.8
		c0.3-0.7,0.7-1.3,0.9-2c0.4-2,1.2-3.8,2.6-5.4C162.3,175.9,162.3,175.6,162.3,175.2 M231.8,207.8c1.5-1.2,2.6-1.6,3.9-1.9
		c4.6-1.2,9.3-2.5,13.9-3.5c5.7-1.2,11.3-2.3,17-3c3.5-0.4,7-1.3,10.4-0.9h0.6c6.5-1.5,13.2-1.3,19.7-1.3c8.3-0.1,16.7,0.1,24.9,0.3
		c2.8,0,5.5,0.4,8.3,0.6c0.4,0,0.7,0.3,1.3,0.3c0.3,1.5,0.3,2.9-1,3.9c-1.2,1-2.6,1.7-4.4,1.6c-8.1-0.9-16.2-0.7-24.4-0.7
		c-10.2,0.1-20.3,0.1-30.5,0.3c-7.1,0.1-14.4,0.6-21.3,2.3c-5.8,1.5-11.6,1.5-17.4,2.3C233,207.9,232.7,207.8,231.8,207.8
		 M359.6,193.7V190c1-0.7,2.2-0.4,3.2-0.6c4.2-0.3,8.6-0.4,12.8-0.6c4.2-0.1,8.3-0.1,12.5-0.3l23.9-0.9c3-0.1,6.2-0.3,9.3-0.4
		c2,0,4.1,0,5.9,0.7c0.6,1.5,0.3,2.8,0.1,4.4c-0.9,0.1-1.6,0.3-2.5,0.3c-4.5,0-9,0-13.5,0.1l-12.2,0.4c-3.5,0.1-7,0.1-10.6,0.1
		c-9,0-17.8-0.3-26.8,0.4H359.6 M361.6,170.2c-0.6-1.5-0.1-2.8-0.1-4.4c0.6-0.1,1.2-0.3,1.7-0.3c1.5,0,3,0.1,4.5,0.1h35.5
		c6.5,0,13.1,0,19.6-0.1c0.6,0,1.3,0.1,1.9,0.1c0.6,1.2,0.4,2.3,0.4,3.5s-0.7,1.7-1.6,2c-0.4,0.1-1,0.3-1.6,0.3h-4.2
		c-10.2-0.9-20.4-1.2-30.6-1.5c-2.3,0-4.6-0.3-7-0.3c-3.8,0.1-7.4,0.3-11.2,0.4C366.5,170.4,364,170.7,361.6,170.2 M75.9,170.8
		c0.6-0.1,0.9-0.3,1.2-0.1c19,0.9,38,0.6,57,0.4c0.1,0,0.4,0.1,0.6,0.1c0.9,0.9-0.1,1.9,0,2.8c0.3,1,0.3,1.9-0.1,3
		c-0.7,0-1.6,0.1-2.3,0.1c-6.7-0.1-13.5-0.4-20.2-0.6c-7.4-0.3-14.9-0.6-22.3-0.9c-3.5-0.1-7-0.6-10.6-0.9c-1-0.1-1.9-0.3-2.9-0.3
		C75.6,173.4,75.8,172.3,75.9,170.8 M131,192.9c0.4,1.7,0.4,1.7-0.1,3.6c-0.3,0-0.7,0.3-1.2,0.1c-5.8-0.7-11.5-0.3-17.3,0.4
		c-2,0.3-4.1,0.3-6.1,0.1c-8.3-0.3-16.7-0.1-24.9,0.1h-2.9c-1.3-3.6-1.3-3.6-1.2-5.9h1.9c10.2,0.6,20.4,1,30.6,0.9
		c3.2,0,6.4-0.3,9.6-0.4h2.9c2.3,0.1,4.6,0.4,7,0.6C130,192.7,130.6,192.9,131,192.9 M201.6,244.3c-0.6-2.5-1-11.7-0.7-14.4
		c0.4-0.1,0.9-0.4,1.5-0.4c2.2-0.1,4.5,0,6.7-0.1c1.5,0,2.8,0.4,3.8,1.3c0.9,0.7,1.7,1.3,2.5,1.9c2.2,1.9,2.5,5.1,0.7,7.4
		c-1,1.3-2.3,2.2-3.9,2.8C208.7,243.9,205.3,244,201.6,244.3 M203.4,232.2c-0.3,3.2,0,6.1,0.3,9.3c3.3-0.3,6.1-1.5,8.8-2.6
		c0.7-0.3,1-1,0.9-1.9c-0.1-0.7-0.3-1.5-0.7-2c-1.2-1.5-2.8-2.5-4.6-2.6C206.7,232.2,205.3,232.2,203.4,232.2 M101.4,249.3
		c0.3-2.9,0.4-5.9,0.7-8.8c0.1-0.9,0.3-1.9,0.7-2.8c1.2-1.9,2.2-3.9,3.6-5.7c2.6-3.2,7-3.8,10.2-1.9c1.6,1,2.6,2.5,3.5,4.1
		c1.5,2.9,2.9,5.8,3.3,9c0.6,3.5,1.2,7,0.7,10.4c-0.1,1.9-0.7,3.6-1.6,5.5c-1.3,2.9-3,5.4-5.2,7.5c-1.9,1.9-4.1,2.8-6.7,1.5
		c-0.7-0.3-1.5-0.4-2-0.7c-2.2-1.2-3.9-2.8-4.8-5.2C102.4,258,101.4,253.8,101.4,249.3 M121.3,248.7c0.4-6.2-1.5-11-5.8-14.6
		c-1.9-1.6-4.1-1.7-6.1-0.3c-1.3,1-2.3,2.2-2.9,3.6c-0.6,1.5-1,2.8-1.3,4.2c-0.7,3.5-1,7.1-0.9,10.7c0,2.8,0.9,5.2,1.7,7.7
		c0.4,1.3,1.3,2.5,2.5,3.2c0.4,0.3,1,0.4,1.3,0.9c0.6,0.7,1.3,1.3,2.3,1.3c1,0,1.9-0.4,2.6-0.9c2-1.5,3.6-3.2,4.5-5.7
		C120.4,255.5,121.3,251.9,121.3,248.7"/>
</g>
</svg>
