<svg xmlns="http://www.w3.org/2000/svg" viewBox="0 0 500 500"><path d="M380.9 362.4c-.2-.4-.4-.9-.4-1.5-.4-1.1-.6-2.2-.9-3.3-.6-1.9-.7-3.7-1.5-5.6-.2-.7 0-1.7-.7-2.4-.4-.4-.2-.9-.4-1.5-.2-.7-.6-1.3-.7-2-.2-1.5-.4-2.8-.7-4.3-.6-1.9-1.1-3.9-1.7-5.8-.9-3.3-1.7-6.5-2.4-9.9-.4-1.5-.9-2.8-1.5-4.3-.7-2.2-1.5-4.6-2.2-6.9-.7-2-.9-4.1-2-6-.4-.6-.2-1.3-.4-1.9-1.1-3.3-2.2-6.7-3.3-10 0-.2-.2-.4-.4-.6-.4.2-.6.2-.9.4-3.5 1.1-6.9 2-10.4 3.3-7.1 2.4-14.1 4.8-21 7.3-3.5 1.3-6.9 2.6-10.4 3.9-3.3 1.3-6.5 2.4-9.9 3.5-6 2-11.9 3.7-17.9 5.8-1.9.6-3.7 1.5-5.8 2.2-5.2 1.7-10.6 3.3-15.8 5-6.9 2.2-13.9 4.3-20.8 6.5-5.6 1.9-11.2 3.7-16.5 5.8-3.5 1.3-7.1 3-10.6 4.5-3.2 1.3-6.3 2.2-9.5 3.5-2 .7-4.1 1.9-6.1 2.8-5.6 2.2-11.3 4.6-16.9 6.9-5 2-9.9 4.3-14.9 6.3-.6.2-.7.6-.6 1.1.2.7.6 1.3.6 2 .2.7 0 1.5 0 2h-.4c-.2-.4-.4-.9-.6-1.3-.2 0-.2 0-.4.2.4 1.5.9 3 1.5 4.5.4 1.1.9 2.2 1.3 3.5.7 2 1.3 4.1 2 6 1.3 3.9 2.6 7.8 4.1 11.5.9 2.4 1.9 4.8 2.6 7.4.9 3 1.7 6.1 3.3 8.9.9 1.7 1.7 3.3 2.6 4.8 1.1 2 2.2 3.9 3.2 6 .2.6.6.9.7 1.1-.2 0-.2.2-.4.2 1.5 2 2.8 4.1 4.3 6.1.2.2.4.6.6.7 1.3 1.7 2.6 3.2 3.5 5 .2.2.6.2.9 0 7.3-3.7 15.4-6.9 22.7-11.3 11.7-5.6 24.2-9.5 36.1-14.7 1.1-.2 2.2-.6 3.5-.9 3.9-1.1 7.8-2.4 11.5-3.7 3.5-1.3 7.1-2.8 10.4-4.1 2.4-.9 4.6-1.7 7.1-2.6 2.6-.9 5.2-2 7.8-3 4.1-1.5 8.2-2.8 12.1-4.1 4.5-1.5 9.1-3 13.6-4.6 2.8-.9 5.8-2 8.6-3 2.4-.9 4.8-1.9 7.1-2.8 1.1-.6 2.2-.9 3.5-1.5 1.7-.7 3.5-1.3 5.2-2 2-.7 3.9-1.9 6-2.4 1.1-.4 2.2-.9 3.3-1.3 2.2-.9 4.3-2 6.5-3 2.8-1.3 5.8-2.4 8.6-3.7 1.7-.7 3.5-1.5 5.4-2.2-.7-.1-1-.1-1.2-.5zm-154.5 36.3c-.2 1.1-.6 2.2-.9 3.2-.2.4-.7.6-1.1.9-.9.9-1.9 1.9-2.8 3-.9 1.1-1.9 1.5-3.2 1.3-1.1-.2-2.4-.4-3.3-.7-.7-.2-1.5-.9-1.9-1.5-.9-1.7-1.9-3.5-2.6-5.2-.4-.9-.7-2-1.1-3.2-.2-.6 0-.9.4-1.3.7-.4 1.3-.6 2-.7.6-.2.7 0 .9.7 0 1.7.2 3.3.6 5 .2.7.4 1.9.9 2.4.6.6 1.3 1.7 2.4 1.5 1.5-.2 3-.6 4.3-.9.6-.2.9-.7 1.3-1.3 1.1-2.2 1.5-4.6.7-7.1-.6-1.5-.7-3.2-1.9-4.3-1.1-1.1-2.4-2.4-3.9-3-1.1-.6-1.9-1.1-2.8-1.9-1.7-1.3-3.5-1.5-5.2-2.2-.6-.2-1.1-.7-1.5-1.1-.7-1.5-2-2.2-3.3-3.3-1.3-1.1-2.2-2.4-2.4-4.3-.4-2.6-.4-5.2 0-7.8.2-1.1.9-1.7 1.5-2.4 1.3-1.5 2.8-2.4 4.3-3.5 1.7-1.1 3.7-1.1 5.8-1.3.4 0 .9.2 1.3.6 3 1.7 4.3 4.3 5.6 7.3.4.9.6 2 .9 3 .6 1.9.4 2-1.7 2.2-.7-1.9-1.5-3.9-2.2-6-.6-1.5-1.5-2.6-2.8-3.3-1.9-1.3-3.9-1.5-6-.6-2.4.9-3.7 2.6-4.3 5-.2.9-.4 2-.4 3 0 .7.4 1.5.6 2 0 .2.4.2.4.4.2.4.2.9.4 1.1.6.9 1.3 1.7 2 2.4l1.7 1.7c-.2.7 0 .9 1.1 1.1.6.2.9.6 1.5.9.2.2.6.4.9.6.7.4 1.7.7 2.4 1.1 1.7.9 3.2 2 4.8 2.6.7.2 1.5 1.1 2 1.9 1.1 1.3 2.2 2.6 3.2 3.9 1.3 2 2 4.3 1.9 6.7v.7c-.7.1-.5.5-.5.7zm26-9c-.2 1.5-.9 3-1.3 4.6-.4 1.3-1.5 1.7-2.4 2.4-2 1.7-4.5 1.5-6.7 1.3-.9 0-1.9-.7-2.4-1.3-1.3-1.5-2.4-3.2-3.5-4.8-.9-1.5-1.9-3.2-2.6-4.8-.7-1.9-1.3-3.7-1.9-5.6-.7-2.8-1.3-5.6-2-8.4-.6-2.2-1.7-4.6-2-6.9-.6-2.6-.7-5.2.2-7.6.9-2.4 2.4-4.6 4.8-6 .7-.4 1.3-.7 2-1.1 1.3-.6 2.4 0 3.5.4 1.5.6 2.8 1.3 4.1 2.2.4.2.6.6.6.9 1.9 4.6 3.7 9.3 5.4 14.1 1.5 3.7 2.8 7.4 3.9 11.3.6 1.7.4 3.3.4 5.2.1 1.3.1 2.8-.1 4.1zm26.4-5.6c-.9 2-2.2 4.1-4.1 5.6-1.1.7-2.4.7-3.7.7-1.9-.2-3.3-.7-5-1.7-2.4-1.7-3.9-3.9-5.2-6.3-1.3-2.4-2.4-5-3.5-7.6-1.1-2.6-2.2-5.4-3.3-8.2-.7-2.2-1.5-4.5-2-6.7-.2-.7-.6-1.5-.7-2.4-.7-2.2-1.3-4.6-2-6.9-.2-.7.4-.9.7-1.1.6-.2 1.1-.2 1.3.4.6 1.7 1.1 3.3 1.7 5 1.3 4.1 2.6 8.2 4.1 12.3 1.1 3 2.4 5.8 3.7 8.6.9 2 1.9 4.3 3 6.3.9 1.9 2.2 3.7 4.1 4.6.2.2.6.2.7.2.7 0 1.1.2 1.3.9 2-.2 3.5-1.3 4.8-2.2.6-.4.9-1.3.9-1.9.6-2.6.2-5.4-.2-8-.6-3-1.3-5.8-2-8.7-1.1-4.5-2.2-8.7-3.5-13.2-.9-3.2-1.9-6.3-2.8-9.5-.2-.6-.4-1.3-.4-1.9l2.8-.9c.2.6.4 1.1.6 1.9.6 1.7.9 3.3 1.3 5 .6 2 .7 3.9 1.3 6 .7 2.8 1.5 5.8 2.4 8.6 1.5 5 3.2 9.9 3.9 15.1.2 1.3.4 2.8.4 4.1.1.3-.2 1.2-.6 1.9zm28.4-7.9c-.2 0-.6-.2-.7-.4-.9-1.1-1.9-2.4-2.8-3.5-1.7-2-3.5-3.9-5.4-5.8-1.7-1.7-3.5-3.3-5.4-5l-.4-.4c-.7-.7-1.1-1.5-2.2-1.7-.4 0-.6-.4-.9-.6-.7 0-1.5 0-2.4.2-.9 1.3-.4 2.6.2 3.9 1.5 4.3 2.8 8.4 4.3 12.6.6 1.5 1.1 3 1.7 4.3.2.4.2.7.4 1.1l-2.4.7c-.4-.9-.6-2-.9-3-1.9-5.4-3.9-11-5.8-16.4-1.7-5-3.3-10.2-4.8-15.4-.9-2.8-1.7-5.6-2.6-8.4-.4-1.1-.4-1.3.7-1.7 1.9-.6 3.7-1.1 5.6-1.9.6-.2 1.1-.4 1.5-.6 2.2-1.1 4.6-.9 7.1-.7 1.3.2 2.6.2 3.2 1.7.2.6.9.7 1.5 1.1 1.7.9 2.8 2.4 3.2 4.3.2.7.4 1.5.7 2.2.9 2.6.2 5-.9 7.4-.4.6-.4 1.3-.7 2-.6 1.9-1.7 3.2-3.3 4.1-.6.4-.6 1.3 0 1.5 1.3.4 1.7 1.7 2.4 2.4 2.2 2.6 4.5 5.4 6.7 8.2.9 1.1 1.7 2.2 3 3.2.6.4.6 1.1.9 1.7.4.6.9.9 1.5 1.5-1.1.6-2 1-3 1.4zm22.9-4.5c-2.2 1.5-4.8 1.9-7.4.9-.4-.2-.9 0-1.3 0s-.7-.2-.9-.4c-1.1-1.3-2.2-2.6-3.2-3.9-.9-1.1-2-2.4-2.8-3.7-.9-1.7-2.2-3.2-1.7-5.4.2-.6-.4-1.1-.6-1.9-.9-3.5-2-6.9-3-10.4-.7-3.3-1.3-6.7-1.9-9.9-.2-1.3-.2-2.6 0-3.9.2-1.1.6-2.2 1.3-3 1.7-1.7 3.5-3.2 5.2-4.8 1.1-1.1 2.6-1.3 4.1-.9 1.5.4 3 .9 4.5 1.5.4.2.7.6 1.1.9 1.1 1.1 2 2.4 3.2 3.5.7.9.7 1.1-.2 2-.4.4-.9.7-1.3 1.1l-3.3-3.9c-1.3-1.5-3-1.9-4.8-1.5-1.7.4-3.5.7-4.5 2.4-.9 1.7-1.9 3.3-1.7 5.6.2 1.7.4 3.3.6 5.2-.9.6-.6 1.7-.6 2.4.2 2 .4 4.3.9 6.3.4 2.2.9 4.5 1.7 6.5.9 2.2 2.2 4.1 3.3 6.1.7 1.3 1.5 2.4 2.4 3.7.4.4.7.7.9 1.3.6.7.9 1.5 1.5 2.2.7 1.1 2.4 1.5 3.2.6 0 0 .2-.2.4-.2 1.1-.2 2.2-.4 3.5-.2.9 0 1.5-.2 1.9-1.1.6-1.5.9-3 1.3-4.5.4-1.3.4-2.4.6-3.7 0-.7.6-1.3 1.5-1.3.7 0 .7.6.7 1.1v5.2c-.3 2.9-2.3 4.6-4.6 6.1zm27.5-10.2c-1.3.6-2.6.9-3.9 1.5-.6.2-1.3.2-1.9.2-.4.2-.9.7-1.3.9-1.5.6-3 1.1-4.5 1.7-.4-.6-.6-1.1-.7-1.7-1.3-3.3-2.6-6.5-3.7-9.9-.9-2.4-1.5-4.8-2.2-7.3-2.6-8-5-16-7.6-24.2-.4-1.1-.9-2-1.5-3-.4-.7-.2-.9.6-1.1 1.9-.6 3.5-1.1 5.4-1.5.7-.2 1.7-.2 2.4-.4.4 0 .7-.4 1.3-.6 1.1-.6 2-1.1 3.3-1.7.4 1.1.7 2 .9 3 0 .2-.4.6-.6.7-1.3.4-2.8.7-4.1 1.3-.9.4-1.9.9-2.8 1.1-.9.2-.9.9-.9 1.5.6 3.7 1.3 7.4 2.6 11.2 0 .2.2.4.2.4 2.2-.7 4.3-1.3 6.3-2 1.1-.4 2.6 1.1 2 2-.4.6-1.1 1.1-1.9 1.5-1.5.7-3.2 1.5-4.6 2.2-.6.2-.6.6-.4 1.1 2 6.1 4.1 12.3 6 18.4.2.7.6 1.5.9 2 .4.6 1.1.7 1.5 1.3.9.9 1.9.4 2.8 0 2-.7 4.1-1.7 6.3-2.8.4 1.1.7 2 .9 3.2-.2.6-.6 1-.8 1zM353.4 271.3c-.6-2-1.1-4.3-1.7-6.3-.7-2.2-1.5-4.3-2.2-6.5-.7-2.4-1.5-4.8-2.2-7.3-1.1-3.5-2.4-6.9-3.5-10.4-.4-.9-.6-1.9-.9-2.8-.6-1.7-1.3-3.3-1.9-5-.6-1.5-.9-3-1.5-4.6-2.6.9-5 1.9-7.4 2.6-5.2 1.9-10.2 3.5-15.4 5.4-3.7 1.3-7.6 2.6-11.3 3.9-3.7 1.3-7.4 2.2-11 3.5-3.3 1.1-6.5 2.2-9.9 3.3-2 .7-4.1 1.3-6 2-4.3 1.5-8.4 3.2-12.5 4.6l-23.4 7.8c-2.4.7-4.8 1.9-7.3 2.8-4.8 1.9-9.7 3.9-14.5 5.8-2.6.9-5 2-7.6 2.8-2 .6-4.1.9-6.1 1.5-5.2 1.5-10.4 3.2-15.6 4.8-3.5 1.1-7.1 2.6-10.6 3.9-3.7 1.3-7.4 2.6-11.2 4.1-2.4.9-4.8 1.9-7.3 2.8-3.9 1.5-8 2.8-11.9 4.3-.6.2-.7.6-.6 1.1.4 1.5.9 2.8 1.3 4.3.7 3 1.3 6.1 2 9.1.4 1.7.9 3.3 1.5 4.8.7 2.2 1.5 4.5 2.2 6.5 1.1 3.3 2 6.7 3.2 10 .9 3 1.9 5.8 3 8.7.7 2.2 1.7 4.6 2.6 6.9.7 2 1.9 4.1 2.6 6.1 1.3 3 2.4 6 3.5 8.9 1.1-.4 2.2-.6 3.3-.9 4.3-1.3 8.4-2.8 12.6-4.1 2.6-1.3 5.2-2.4 7.8-3.3 6.1-2.8 12.3-5.2 18.6-7.6 9.9-3.9 19.5-8.2 29.8-10.8 2.2-.9 4.3-1.7 6.5-2.6 2.6-.9 5.2-2 7.8-3 3-1.1 5.8-2.4 8.7-3.3 2.8-.9 5.8-1.5 8.6-2.4 5-1.5 9.9-3 14.9-4.6 4.1-1.3 8.2-2.6 12.1-3.9 3.3-1.1 6.7-2 10-3.2 3.9-1.3 7.8-2.6 11.5-4.1 3.3-1.1 6.7-2.4 10-3.7 3.9-1.5 7.8-3 11.7-4.6 3.9-1.5 7.8-3.2 11.5-4.8.9-.4 2-.7 3-1.3-.7-2.2-1.7-4.3-2.4-6.5-1.1-3.7-2.2-7.4-3.3-11.2-.4-.9-.8-2.2-1.1-3.5zm-147.9 46.3c.6 2.8.9 5.8.6 8.6-.2 1.1-.7 2.2-1.1 3.3 0 .2-.2.4-.2.6-.2 1.3-1.1 2-2.2 2.8-.2 0-.2.2-.4.2-1.1 1.9-3 1.7-4.6 2.2-1.1.4-2 .9-3.2 1.1-1.3.4-2.6.6-3.7.9h-.4c-.7-.7-1.9-1.5-2.2-2.4-.2-.6-.4-1.1-.9-1.3-1.9-.7-2.2-2.6-2.8-4.1-1.5-3.9-2.6-7.8-3.7-11.7-.6-1.9-.6-3.7-.9-5.6-.2-.6-.4-1.1-.4-1.7v-3.3-2.4c0-1.1.2-2.2.2-3.2 0-.2 0-.2.2-.4.7-.9 1.5-1.9 2.4-2.4 1.1-.7 2.6-1.3 3.9-2 .2 0 .4-.2.6-.2v-.2c1.1 0 2.4 0 3.5-.4 1.3-.4 2.4 0 3.5.2.6.2 1.1.6 1.7.9.6.2.9.6 1.5.7 1.5.7 2.4 2 3.2 3.3 2.6 4.9 4.3 10.7 5.4 16.5zm40.9-27c-.4 2-.9 4.1-1.5 6.1-.2.7-.7 1.5-1.3 2-2 1.5-3.7 3.5-6.1 4.5-.2 0-.4.6-.4.7.6 5.4 2.8 10.4 4.5 15.4.7 2 .7 2-1.1 2.8-1.3.6-2.6 1.1-4.3 1.9-1.3-3.9-2.4-7.6-3.5-11.3-2-6.1-3.9-12.5-6-18.6-.9-2.6-2.2-5.2-3.3-7.8-.4-.7-.2-1.1.6-1.5 2.2-.7 4.3-1.7 6.5-2.2 2-.6 4.1-1.1 6.3-1.3 1.9-.2 3.5.2 5 1.5 1.7 1.7 3.5 3.3 4.3 5.8.3.5.5 1.5.3 2zm37.6-21.2c-2.8.9-5.8 1.9-8.7 2.6-1.7.6-1.9.7-1.1 3 .4 1.1.7 2 1.1 3.2.2.6.4.7 1.1.6 1.7-.6 3.3-.9 5-1.3.2 0 .7 0 .7.2.7 1.7 1.3 3.5 1.9 5.2v.4c-1.9.4-3.7.9-5.6 1.3-.2 2.8.6 5.4 1.3 8 .4 1.7.7 3.3 1.1 5 .2.9.4 1.7.7 2.8 1.7-.6 3.3-1.1 5-1.5 1.9-.6 3.9-1.1 5.8-1.5.2 0 .7.2.7.4.4 1.3.7 2.4 1.3 3.7.2.7 0 1.1-.7 1.3-2.8.7-5.6 1.7-8.4 2.6-2.8.9-5.6 1.9-8.4 3-.6.2-.7.2-1.1-.4-1.9-3.2-2.6-6.7-3.7-10.2-1.3-4.3-2.6-8.7-3.9-13-1.3-4.6-2.6-9.3-3.9-13.8 0-.2-.2-.6-.2-.7-.2-1.3.2-2 1.5-2.4 4.5-1.3 8.9-2.8 13.4-4.1 1.3-.4 2.6-.7 3.7-1.3.6-.2.9 0 1.1.4.6 1.5 1.3 3 1.7 4.5.5 1.3.5 1.5-1.4 2zm45.7-11.3c1.3 4.6 2.8 9.3 3.9 13.9.9 3.7 1.9 7.4 2.8 11.2.2.6.2 1.3.4 1.9 0 .4 0 .7-.2 1.3.4.6 0 1.7-1.1 2.2-.9.4-1.9.7-3 .9-.2 0-.7 0-.9-.2-.7-.9-1.7-1.9-2.4-2.6-1.5-1.7-3-3.3-4.5-4.8-1.7-1.7-3.5-3.3-5.4-5-.9-.9-1.5-2-2.4-3.2-.4-.6-1.1-.7-1.7-1.1l6.7 21.2c-2.2.9-4.3 1.7-6.7 2.6-.2-.6-.4-1.3-.6-1.9-1.1-3.2-2-6.1-3.3-9.3-.9-2.6-2-5.2-3-7.8-.9-2.6-1.7-5.2-2.6-7.8s-1.9-5-2.6-7.6c-.4-1.3-.9-2.6-1.1-4.1 0-.4.2-.9.2-1.3h-.6v-.4c.7-.4 1.5-.7 2.2-.9 1.3-.4 2.8-.6 4.3-.9.7-.2 2 .6 2.2 1.3 0 .2.2.6.4.6.7.4 1.1.7 1.5 1.7.4.7 1.1 1.1 1.9 1.7 2.2 2 4.3 4.3 6.5 6.3 1.5 1.3 3.3 2.6 4.8 3.7.7.6 1.5 1.1 2 1.7l.2-.2c-.6-2-1.1-4.1-1.7-6-1.5-5-3-9.9-4.5-14.9-.2-.6-.2-.9.6-1.3 1.1-.4 2-.7 3.2-1.1.6-.2.9-.2 1.3.6 1.6 3.2 2.3 6.4 3.2 9.6zM148.3 291.9c-.7-2.6-1.5-5-2.2-7.4-1.1-3.5-2.2-7.3-3.3-10.8-.7-3-1.3-6.1-1.9-9.3-.9-4.6-1.7-9.5-2.4-14.1-.6-3.3-1.3-6.9-2-10.2-.2-.7 0-1.3.7-1.7 2.8-1.1 5.6-2.4 8.2-3.7 2.6-1.1 5.4-2.4 8-3.5s5.2-2.4 7.8-3.7c3.7-1.7 7.6-3.2 11.3-4.6 2.2-.9 4.5-1.7 6.7-2.6 7.3-3 14.5-5.6 21.9-7.8 3.5-1.1 6.9-2.2 10.2-3.2 8.2-2.6 16.2-5 24.4-7.6 3.7-1.1 7.4-2.4 11.2-3.5 6.1-1.9 12.3-3.5 18.6-5.2 5.8-1.7 11.5-3.2 17.3-4.8 3.5-.9 7.1-1.9 10.6-2.8 5.6-1.3 11.2-2.6 16.7-3.9 3.7-.9 7.3-1.7 11-2.6.7-.2 1.1 0 1.3.7 1.5 4.5 2.8 8.9 4.3 13.4.9 2.6 1.9 5.2 2.6 7.8 1.3 3.9 2.6 7.6 3.9 11.5 1.1 3.5 2.2 6.9 3.5 10.4.4 1.3.9 2.4 1.5 3.5.2.6.2.9-.6 1.1-.6.2-1.3.4-1.9.6-1.3.6-2.6 1.1-4.1 1.5-2.8.9-5.6 1.9-8.4 2.6-3.5 1.1-7.3 2.4-10.8 3.5-2.4.7-4.8 1.5-7.4 2.2-3.3.9-6.7 1.9-10.2 2.8-2.6.7-5.2 1.1-7.6 2-3.3 1.1-6.5 2.2-9.9 3.3-3.9 1.5-8 2.8-11.9 4.3-2.4.9-4.8 2-7.4 3-8 3-15.8 6-23.8 9.1-6.7 2.6-13.6 5.2-20.3 7.6-4.3 1.7-8.7 3.2-13 4.6-8.2 2.8-16.2 5.4-24.4 8.2-.6.2-1.3.2-1.9.6-1.9.7-3.5 1.7-5.4 2.2-2.4.9-4.8 2-7.4 2.8-3 .9-6 1.9-8.9 2.6-.9.4-2.6.7-4.6 1.1zm47.4-55.4c-.2 0-.2-.2-.4-.2-.7.9-1.3 1.9-2 3-.2.2 0 .6 0 .7 0 .4.2.7.2 1.1.6 2.4.9 5 1.5 7.4.4 1.5.4 2.8 0 4.3-1.1 3.7-3.7 6.3-6.5 8.7-.9.7-2 1.3-3.3 1.3-1.7-.2-3.2-.2-3.5-2.2 0-.2-.2-.4-.2-.6-.2-1.1-.4-2-.4-3.2 0-1.1.9-1.7 1.5-2.2 1.7-1.9 3-3.9 3.7-6.3.4-1.3.6-2.6 0-3.9-.4-.9-.9-2-1.3-3-.2-.6-.4-1.3-1.3-1.1-1.1.2-2.2 0-2.8 1.1-1.5 2.8-2 6-2.4 9.1-.4 3.2 0 6.1.7 9.1.6 1.7 1.1 3.5 2 5 .4.7 1.1 1.9 1.9 1.9 1.7.2 3.5-.2 4.8-1.3 1.1-.9 2-1.9 3.2-2.6.9-.6 1.7-1.5 2.2-2.4.6-1.1 1.3-1.9 2.6-2.4.7 1.1 1.3 2.2 2 3.2.2.4.7.7 1.1.7.4-.2.7-.6.9-1.1.2-.2 0-.7 0-1.1-.7-3-1.3-6.1-2-9.1-.7-2.8-.7-5.6.4-8.4.4-.7.9-1.3 1.7-1.3s1.9.2 2.2.6c.9 1.1 2.2 2.2 2.4 4.1 0 .4.2.7.4 1.1.2.2.4.6.6.6.9.2 1.7-.6 1.9-1.3.4-1.5.9-2.8 1.5-4.3.2-.2.6-.6.7-.6 1.1-.4 1.7.2 1.9 1.1.2.4.4.7.4 1.3.6 3 1.3 6 1.9 8.9.2.6.4 1.1.7 1.7.4.6.9.6 1.5 0 .7-.9 1.5-1.9 2.2-2.6 1.3-1.5 2.4-1.7 3.9-.4 1.1.9 2.6 1.3 3.9.9 1.5-.7 3-1.9 4.1-3.2.7-.9 1.1-2 1.5-3.3.9-2.6.6-5.2-.4-7.6-.4-1.3 0-2 1.1-1.9.9.2 1.3-.4 1.9-.9.4-.6.7-1.1 1.1-1.7.2-.2.6-.6.7-.9.2.4.2.6.2.7.2 1.1.4 2 .2 3.2 0 1.1.6 1.9.6 3-.2 1.1.2 2.4.4 3.5s.6 2.2.9 3.3c.2.7.9.7 1.5.6.6-.2 1.5-.4 1.1-1.5-1.1-3-.9-6-.7-8.9 0-2.6.6-5.2.7-7.8.2-2.8 2.4-4.3 4.8-3.9.4 0 .9.4 1.1.7.6 1.1 1.1 2.2 1.7 3.3.9-.4 1.5-1.1 1.9-1.9.4-1.3-1.3-4.8-2.4-5.4h-.2c-1.3 0-2.8 0-4.1.2-.7.2-1.3.6-1.9 1.1-.9.9-1.5 1.9-2.4 2.8-.6-1.1-1.7-.6-2.6-.7-.2 0-.6.4-.7.6-.4.7-.6 1.7-.7 2.6-.4 2.6-1.9 4.5-3.9 5.8-.6.4-1.3.4-2.2.7 0-.6 0-.9-.2-1.5-2 .4-3.9.7-5.8.9-2.8-4.3-2.8-8.9-3.3-13.6-2 .6-3.2 2.4-3 4.5.7 4.6 1.3 9.1 1.9 13.8.2 1.5-.2 3.2 0 4.6 0 1.7 0 3.3-.7 5-.4.7-1.5 1.7-2.2 1.7-.2 0-.4-.2-.4-.2-.4-.7-.7-1.5-.9-2.2-.4-2-.9-4.3-1.1-6.3-.2-2.2-.9-4.1-2.2-5.8-.9-1.1-2-.7-2.4.6-.4 1.1-.7 2.4-1.3 3.5-.2.4-.7.9-.9.9-.4 0-.7-.6-.9-.9-.4-1.5-1.7-2-2.8-3-1.3-1.1-2.6-.6-3.7 0-.4.2-.9.7-.9 1.1-.4 1.1-.4 2-.6 3.2 0 .2-.2.4-.4.7-.2-.6-.4-1.1-.6-1.5-.2-.2-.6-.4-.6-.7-.4-.7-.5-1.7-.7-2.6zm72.3-.9h.4c.2.4.4.7.6 1.1.9 1.9 1.5 2 3.3 1.1 1.1-.6 2-1.3 3-1.9.9-.6 1.7-1.3 2.2-2.2.2-.4.6-.7.7-.7 1.5 0 3 .2 4.5.2 2.2 0 4.5-.2 6.1-1.9.9-1.1 1.7-2.2 2.6-3.3.4-.6.7-.7 1.3 0 .7 1.1 1.9 1.9 3.3 2 2 .2 4.1-.2 5.6-1.3 2-1.3 3.3-3.5 3.9-5.8.2-1.1 0-1.5-.7-1.7-.7 1.3-1.5 2.4-2.2 3.7-1.1 1.7-2.8 2.2-4.6 2.2-1.5 0-2.2-1.3-2.8-2.6-.2-.4-.4-.6-.4-.9 0-.6-.2-1.1.2-1.5.7-1.3 1.7-2.6 2.8-3.7.7-.7 1.3-1.5 1.5-2.6.4-1.3.7-2.8.9-4.1.2-1.7.6-3.7-1.7-4.6-.7-.4-1.5-.4-2.2-.4-.9 0-1.7.2-2.6.4-.6.2-1.3.6-1.5.9-.6 1.1-.9 2.4-1.3 3.7-.7 2.8-.4 5.6.2 8.4.2.6.4 1.3-.4 1.7 0 0 0 .4-.2.6-.4 1.3-.4 2.6-.9 3.9-.7 1.5-2 2.8-3.2 4.3-.2.4-1.1.6-1.3.6-.7-.7-1.3-.2-2 0-.7 0-1.7.7-1.9-.7-.9 0-1.9-.2-2.2-.9-1.1-2.8-2.2-5.6-1.9-8.6.4-1.9.6-3.5 2.4-4.6.7-.4 3 0 3.5.7v.2c-.2.7.4 1.1.9 1.1.7 0 1.5-.9 1.3-1.3-.4-1.1-.7-2.4-1.3-3.5-.2-.4-.7-.7-1.3-.9-.7-.2-1.5-.2-2 0-1.5.6-2.8 1.1-4.1 1.9-.7.6-1.5 1.3-1.7 2.2-.6 1.5-.9 3.2-1.1 4.6-.2 2.8.4 5.6 1.5 8.2.2.4.4.6.2.9-.2 1.1-.4 2-.7 3.2-.4 1.3-.9 1.7-2.6 1.5h-.4c-.7.4-.9-.2-1.1-.6-.4-1.7-.9-3.3-1.3-5-.2-1.5-.2-3-.2-4.5-.2-2.2-.7-4.5-.4-6.7 0-.2-.2-.7-.4-.9-.7-.4-1.7 0-2 .7-.2.2-.6.6-.7.6-1.7-.6-3.3 0-5 .4-3.5.9-6.7 5-6.7 8.9 0 1.1-.4 2.2-.7 3.5 0 .2 0 .7-.2 1.1 0 .4-.2.7-.2 1.1.4 1.3.6 2.8.9 4.1.2.7.6 1.9 1.1 2.2 1.5.7 3 1.3 4.6 1.7.9.2 1.9 0 2.8-.2.7-.2 1.3-.7 2-1.1 2.3-1.4 4-2.3 3.8-4.9zm-101.5 21.5c-.7-2.2-2.8-3-4.6-1.5-.4.4-1.1.4-1.5.7-.4.6-.7 1.3-.9 2-.2 1.7 1.5 4.3 3 4.6h.7c2-.4 4.4-3.2 3.3-5.8zm146.3-45.9c0 1.9 1.7 2 3 2.4.2 0 .6-.2.9-.4l.6-.6c.7-.7 1.9-1.7 1.5-3-.4-1.5-.9-3.2-2.8-3.5-.9-.2-1.9.2-2.8.2-.2 0-.4.4-.6.6-.1 1.3-.3 2.8.2 4.3zM290.5 135.5c-.4-.9-.4-2-.7-3-.6-1.7-.9-3.3-1.7-5-.4-.9-.9-2-1.5-3-2.4-3.5-5-6.9-7.1-10.8-.6-.4-.9-.9-1.3-1.5-2.6-2.6-5.2-5.4-7.6-8.4-.4-.4-.7-.9-1.3-1.3l-.6-.6c-2.4-2.6-4.8-5.2-7.1-8-.4-.4-.7-.7-.9-1.3l-.2-.2c-4.8-3-9.1-6.7-13.6-10.4-2.4-1.5-4.6-3.2-6.9-5-.2-.2-.6-.4-.7-.6-.4-.2-.7-.4-.9-.7-.4-.2-.7-.4-1.1-.7-.6 0-.9-.4-1.5-.6-2.2-1.3-4.3-2.4-6.5-3.7v-.2h-.2c-.4 0-.7-.2-1.1-.2-.7-.2-1.3-.7-1.9-.9-1.3-.6-2.6-1.1-3.9-1.5-1.3-.4-2.6-.6-3.7-.9-2-.7-4.1-1.1-6.1-1.3-1.7-.2-3.3-.2-5.2-.4-.6 0-1.3-.4-1.9-.4-.9-.2-2-.2-3-.4-1.1-.4-2.2-.6-3.5-.4-1.5.2-3.2-.2-4.8 0-1.9.2-3.7-.4-5.6.2h-.6c-.7 0-1.5 0-2.2.2-2.2.4-4.3.7-6.5 1.1-2.6.6-5.2.9-7.8 1.7-3.2.7-6.1 1.9-9.3 2.8-4.1 1.1-7.8 2.8-11.5 4.5-1.9.9-3.5 1.9-5.4 3-.9.6-1.9 1.1-2.8 1.7 0 0 0 .2-.2.2-3.3 3.7-7.1 6.7-11.2 9.7-.6.7-1.1 1.3-1.7 1.9-4.1 6-8.4 11.7-12.5 17.5-.2.4-.4.6-.6.9-.9 3-2 5.8-3.2 8.7-.9 4.5-1.7 9.1-2.2 13.6.4 2.8.6 5.6 1.1 8.4.7 5 1.5 9.9 2.4 14.7.7 4.5 1.9 8.7 3 13 1.1 4.3 2.6 8.7 4.1 13 .2.7.6 1.5.7 2.2.9 2.2 2 4.3 3.2 6.5 1.1 2.4 2.2 4.8 3.5 7.3.2.4.4.6.4.9.6.9 1.1 2 1.7 3 .4.4.7 1.3 1.5 1.7l-.4.4c0 .2.2.2.2.4.2.2.4.2.4.4.4.7.7 1.3 1.1 2 4.1 5.8 8.7 11 12.8 16.5 1.1 1.1 2.2 2.4 2.8 3.9.6.4 1.1.6 1.7.2.9-.4 1.9-.7 2.8-1.1 3-.9 6-1.9 8.7-3 4.8-1.7 9.7-3.5 14.5-5.4.2-.2.6-.6.6-.7 0-.7 0-1.5-.2-2.4 0-.6-1.3-1.5-1.7-1.3-.4-.4-.6-.7-.9-1.1l-1.7-1.7c0-.2-.2-.2-.2-.4-.4-.4-.9-.7-1.3-1.1h-.4c-.2 0-.4-.2-.4-.4v-.4c-.7-.6-1.7-1.3-2.4-2v-.2c-2.6-2.2-5-4.6-6.5-7.6-.4-.4-.7-.9-1.1-1.3-.2-.4-.2-.9-.6-1.1-1.1-1.1-.9-2.8-2.2-3.9-.6-.6-.7-1.5-1.1-2.2-.4-.7-.9-1.5-1.3-2.2-.4-1.1-.6-2-1.5-3-.7-.6-.9-1.9-1.3-2.8-.2-.4 0-.7 0-1.1-.9-1.9-2-3.5-2.8-5.6-.9-2-1.5-4.1-2-6.1-.9-3.3-1.9-6.7-3-10-.9-3.5-2.2-6.9-3.2-10.4-.6-2.2-.9-4.6-1.3-6.9-.4-1.7-.7-3.5-.9-5.2-.2-1.5 0-2.8 0-4.3 0-.2.2-.2.2-.4.2 0 .2-.2.4-.2 0-2.8.9-5.6 2-8 .6-1.9 1.3-3.7 2.2-5.4 1.3-2.4 3-5 5.4-6.5 0-.4.4-.7.6-.9 1.1-1.3 2-3.2 3.5-4.3.4-.4.9-.7 1.1-1.3.6-.7 1.1-1.7 1.7-2.2.9-.9 1.9-1.5 2.8-2.4 1.1-.9 2.2-1.9 3.2-2.8 2-2.2 4.5-3.3 7.1-4.6 1.9-.9 3.9-1.5 6-2 2.8-.9 5.6-1.7 8.6-2.4 1.3-.4 2.8-.4 4.1-.6 2.8-.2 5.4-.6 8.2-.7 2.4 0 5 .2 7.4.2.7 0 1.5.2 2.4.2.7 0 1.5-.4 2.2-.2 1.3.2 2.4.7 3.7.9.6 0 .7.2.9.4 1.7 0 3.2.6 4.6 1.5.4.2.7.4 1.1.6.2.2.6.4.6.7.2 0 .2.2.4.2s.6 0 .7.2l.2.2c.2.2.6.2.7.4.7.4 1.5.9 2 1.3 3.5 2.2 6.5 5.4 9.1 8.6.4.4.7.9 1.1 1.5 1.3 1.3 2.6 2.8 3.7 4.3.2.2.4.4.4.6.6.7 1.3 1.5 2 2 .4.4.6.9.9 1.5 0 .2.2.2.2.4.7.6 3 3.7 3.5 5.2.9.2 1.9.4 2.8.6l1.5-.7c.4-.2.6-.2.7 0 1.9-.6 3.9-.9 5.8-.2 2.6 1.1 4.1 3.9 5.4 6.1 1.5 2.6 3.3 5.6 3 8.7 0 .4-.2.7-.2 1.1v.2c0 .4-.2.6-.2.6-.2.6-.4.9-.6 1.5-.2.7-.4 1.5-1.1 1.9 0 .2-.2.2-.2.4 0 .4 0 .7-.2.7-.2.2-.4.4-.4.6 1.1 1.7 2.4 3.2 3.7 4.6 2.6.6 5 2.4 7.1 3.5 1.5.7 3.2 1.5 4.8 2.2 1.1-.7 2.2-1.5 3.2-2.2 1.7-1.3 3.3-2.8 4.8-4.3 1.5-1.3 2.8-2.8 4.1-4.3 2.3.3 2.9-1.2 2.1-2.9z"/><path d="M236.8 160.3c-.2-.7-.2-1.7-.4-2.4-.4-2 0-2.2 2-2 8.7.9 17.7 1.9 26.4 3 .6 0 1.1.2 1.9.4v.4c-.2 2.2-1.7 1.9-3.3 1.9-2.4-.2-4.8.2-7.1.2-3.7-.2-7.4-.6-11.2-.7-2.8-.7-5.5-.7-8.3-.8zM274.7 174c-5 1.9-10 3.5-15.1 5.6-1.1.4-2.4.9-3.5 1.3-.2-.2-.4-.2-.6-.2-1.9 1.3-3.9 2.4-6.1 3.3-.4.2-.9.2-1.3 0-.4.7-.7 1.3-1.1 2 .7.9 1.5 1.7 2.2 2.6.2-.2.6-.4.7-.6h.9c2.2-.9 4.3-1.9 6.5-3 5.2-2.6 10.4-5 15.6-7.6 1.5-.7 3-1.7 4.6-2.4-.9-1.2-1.7-1.4-2.8-1zM300.2 133.5c.9-2 1.9-4.3 2.8-6.3.9-1.9 2-3.7 2.4-5.8.4-2 1.5-3.5 2.2-5.4.7-1.9 1.5-3.9 2.2-5.8 0-.2.2-.4.2-.4 1.1.4 2.4.7 3.5 1.1.2.2.4 1.1.2 1.5-.4.7-.9 1.1-1.3 1.9-1.3 1.9-2.6 3.7-2.8 6.1v.2c-1.7 1.9-1.9 4.6-3.2 6.7-.7 1.3-1.7 2.4-2.4 3.7-.2.4-.4.7-.4 1.1-.3 1.9-1 2.3-3.4 1.4zM315.8 153.2c-1.5-2.2-1.3-2.6.7-3.9 5.8-3.3 11.3-6.9 17.3-10 4.3-2.2 3.3-1.5 4.3 2.4.2.6-.4 1.5-.7 1.7-7.3 3.3-14.5 6.6-21.6 9.8zM319.9 164.2c1.7.2 3.2.6 4.8.7 4.6.7 9.3 1.3 13.9 2.2 2.6.4 5 .9 7.6 1.5 1.5.4 1.9 1.5.9 4.1-9.1-3.5-19-3.3-28.8-4.8.5-1.3 1-2.4 1.6-3.7zM282.7 338.2c.4-.4.6-.9.9-1.1 2.4-1.1 4.8-2 7.4-1.1 3.3 1.3 6.7 2.6 7.6 6.9.6 2.4-.2 4.5-1.5 6.5-.9 1.3-2 2.8-3.3 3.9-2 1.9-4.6 2.8-7.4 3-.4 0-.9-.4-1.3-.7-.9-1.3-1.1-3-1.5-4.5-.7-3-1.5-6-2.2-8.9 0-.2 0-.4-.2-.6-.4-1.9-.4-2.2 1.3-3 .4-.2.2-.4.2-.4zM242.9 396.4c-.2-.4-.2-.7-.4-.9-2-.7-3.3-2.2-4.1-4.3-1.7-4.8-3.5-9.7-5-14.5-1.1-3.5-2-7.3-3-11-.2-.6 0-1.3 0-2 0-1.3-.2-2.6-.6-3.7-.2-.4.4-1.3.6-1.7.4-.7.9-1.3 1.7-1.9 1.1-.9 2.6-1.3 4.1-1.3.4 0 .7-.2 1.1 0 .9.4 1.9.7 2.8 1.1 1.9.9 2.6 2.8 3.2 4.5 1.3 3.9 2.4 8 3.5 11.9.2.4.2.7.4 1.1 1.5 1.7 1.7 3.9 1.9 6 .2 1.3.7 2.4 1.1 3.5.7 2 1.3 4.1 1.1 6.1-.2 1.5-.6 3.2-1.5 4.5-1.1 1.5-2.8 2.4-4.6 2.6-1-.2-1.7-.2-2.3 0zM197.7 315.7c.7 3 1.7 6 .9 8.9-.7 2.8-2.8 3.7-5.2 2.2-.7-.6-1.5-1.3-2-2-1.5-2.2-2.8-4.6-3.3-7.4v-.7-.7c-.7-2.2-1.5-4.5-2.2-6.7-.9-3 2.4-5.8 5-5.2.4.2.9.4 1.1.7.9 1.7 2 3.2 3 4.8 1 2.2 1.8 4.3 2.7 6.1zM234.9 287.1c.4-.2.9-.2 1.3-.4 3.5-1.1 5.4 1.5 5 4.5-.4 3.3-2.2 5.6-5.8 6-1.3.2-1.5 0-1.7-1.1-.6-1.9-1.1-3.5-1.7-5.4-.6-1.5-.2-2 1.3-3 .5-.2 1.1-.4 1.6-.6zM224.9 235.8c.9 0 2 .2 3 .4.2 0 .2.2.4.4.6 1.1 1.3 2 1.7 3.2.9 2.2-.2 4.3-.9 6.3-.4 1.1-1.3 1.9-2.6 2-1.3.2-2.4-.4-3.2-1.7-.6-1.1-.9-2.4-1.1-3.7-.2-1.5 0-3 .6-4.3.4-1.1.9-2 2.2-2-.1-.5-.1-.5-.1-.6zM181.4 251.6c.2-2.2.2-4.5 1.1-6.7.2-.4.6-.6.9-.7.2.4.4.7.4 1.1.2 1.1.2 2 .4 3.2.2.6.2 1.1-.6 1.5-.4.2-.7.7-1.1 1.1l-.7.7c-.3-.1-.3-.2-.4-.2zM255.9 234.5c-.2-1.3-.4-2.2-.6-3.2 0-.4.2-.9.4-1.3 0-.2.2-.2.2-.4 0-2.2.7-4.3 2.6-6 1.7-1.5 3.7-2.2 6-2.2 1.3 0 2 1.1 2.4 3l.6 3.3c.4 1.9 0 3.3-.9 5-.6.9-.9 1.9-1.3 2.8-1.1 2-3.2 2.8-5.4 3-.9 0-2-.7-2.6-1.5-.6-.7-.8-1.8-1.4-2.5zM297.2 209.5c.4 2.4.2 4.5-.9 6.5-.4.6-1.1 1.1-1.7 1.5-.2.2-.9 0-.9-.2-.9-2.2-1.1-4.5 0-6.7.4-.6.6-1.3 1.1-1.7.6-.4 1.3-.4 1.9-.4.1.1.3.7.5 1z"/></svg>