<?xml version="1.0" encoding="utf-8"?>
<!-- Generator: Adobe Illustrator 25.2.1, SVG Export Plug-In . SVG Version: 6.00 Build 0)  -->
<svg version="1.1" id="Layer_1" xmlns="http://www.w3.org/2000/svg" xmlns:xlink="http://www.w3.org/1999/xlink" x="0px" y="0px"
	 viewBox="0 0 500 500" style="enable-background:new 0 0 500 500;" xml:space="preserve">
<g>
	<path d="M233.4,256.6c-0.3,1.5,0.8,2.6,1.7,3.6c1.8,2.3,2.9,5,4.7,7.1c0.5,0.6,0.9,1.2,1.4,2c2,2.7,3,5.6,3.3,8.9
		c0.2,2.1,0.6,4.2,0.9,6.3c0.5,3.6,0.5,7.2,0.2,11c-0.9,8.7-2,17.3-2.9,26.1c-0.2,2-0.9,3.9-2,5.6c-2,3.2-4.5,6-7.7,8.3
		c-1.8,1.4-3.8,1.8-5.9,0.6c-0.3-0.2-0.6-0.3-0.9-0.3c-3.3-0.2-6.6-1.1-9.9-0.5c-2.9,0.6-5.7,0.5-8.4-0.9c-2-0.9-3.9-1.5-5.9-2.1
		c-0.9-0.3-1.5-0.8-2.1-1.5c-1.8-2.9-3.8-5.7-5.7-8.6c-1.1-1.7-1.7-3.3-1.7-5.3c0.2-2.9,0-5.7,0.2-8.6c0.2-5.3,0.2-10.4,0.5-15.7
		c0.3-7.1,1.5-13.9,3.8-20.5c0.5-1.2,1.1-2.1,1.7-3.2c1.1-1.8,2.6-3.3,3.2-5.4c0.2-0.6,0.8-1.1,1.2-1.5c2.4-2,5-3.8,7.4-5.7
		c2.3-1.7,4.8-2.7,7.7-2.4c3.5,0.3,6.8,0.6,10.2,0.9C230.1,254.8,231.8,255.5,233.4,256.6 M224.4,277.7c-2.1-0.2-4.1,0.3-5.9,0.8
		c-0.5,0.2-0.9,0.8-1.1,1.2c-0.8,2.3-1.5,4.4-1.5,6.8c0,3.3-0.3,6.6-0.5,9.9c-0.3,3.9-0.6,7.7-0.9,11.6v2.1c1.4,0.3,2.7,0.8,3.9,1.1
		c1.2,0.3,2.6,0.6,3.9,0.9l2.9-2.9c0.6-0.6,0.9-1.5,0.9-2.4c0-3.5,0.2-6.9-0.2-10.2c-0.3-5.6-0.8-11-1.2-16.6
		C224.8,279.2,224.7,278.6,224.4,277.7 M177.7,251c-0.6,7.8,0.5,15.4,0.2,23c-0.6,0.2-1.1,0.3-1.7,0.3c-4.2,0.6-8.6,1.2-12.8,2
		c-0.5,0-0.9,0.2-1.2,0.5c-0.3,0.2-0.5,0.5-0.6,0.8c-0.5,0.8,0.9,1.5,0,2.4c-0.6,0.6-0.5,1.4-0.2,2.4c4.2,0.3,8.3-0.5,12.7,0.3
		c0.6,2.3,0,4.4,0,6.6c0,2.3,0.2,4.7,0,6.9c0,2.1,0.8,4.4,0.2,6.6c-2.3,0.5-4.5,0.3-6.6,0.3h-6.2c-0.6,2.3-0.9,6.9-0.6,9.9
		c0.8,0,1.4,0.2,2.1,0.2c3.6-0.2,7.1-0.2,10.7-0.3c1.8,0,3.5,0.2,5.4,0.8c0.2,0.6,0.3,1.2,0.3,1.8v16.3c0,0.9-0.6,1.5-1.4,1.7
		c-0.9,0.2-1.8,0.3-2.6,0.3c-3.5-0.2-7.1-0.5-10.5-0.5c-6.8-0.2-13.6,0-20.2,0.9c-2.6,0.3-5.1,0-7.4,0c-1.2-1.2-0.9-2.4-0.9-3.6
		c-0.2-5.1-0.2-10.2-0.2-15.2l0.5-24.9c0.2-5.6,0.2-11,0.2-16.6c0-1.5,0.2-3,0.6-4.5c0.8-2.4,0.9-5,0.9-7.5
		c-0.2-1.8,0.2-3.8,0.3-5.6c12.7-2.1,25.3-3.3,37.8-5C176.5,250.9,176.9,250.9,177.7,251 M425.3,252.8c0.3,1.4,0.9,18.4,0.9,21.4
		c0,0.5-0.2,1.1-0.3,1.8h-7.7c-2.4,0-4.8,0-7.2,0.3c-0.6,3.2-0.6,5.7,0.2,8.9c3.5,0.6,7.2,0,10.8,0.6c0.6,2.9-0.2,5.6-0.2,8.3
		c0.2,2.7,0,5.6-0.2,8.4c-0.9,0.2-1.7,0.5-2.3,0.5c-1.8,0-3.8-0.2-5.6-0.2c-1.5,0-3,0.2-4.7,0.9c-0.2,2.3-0.2,4.7,0.2,6.8
		c0.8,0.9,1.7,0.8,2.6,0.8l12.2,1.4c0.8,0.2,1.5,0.5,2.3,0.6v17.6c0,0.6-0.2,1.2-0.3,2c-0.5,0.2-0.9,0.3-1.4,0.3
		c-6-0.2-12.2-0.3-18.2-0.6c-5.9-0.3-11.8-0.9-17.6-1.4h-0.6c-2-0.3-2.4-0.8-2.6-2.9c-0.2-1.1,0-2.3,0-3.3
		c0.3-9.8,0.9-19.7,1.1-29.5c0.2-9.6,0-19.3,0-28.9c0-2.6-0.3-5.1-0.5-7.7v-3.6c2.1-1.2,4.2-1.4,6.5-1.4c2.7,0,5.4-0.2,8.3-0.2
		c7.5,0,15.1-0.3,22.6-1.2C424.1,252.8,424.9,252.8,425.3,252.8 M76.3,254.5c4.7-0.2,9-1.5,13.7-0.8c4.2,0.8,8.4,0.9,12.7,0.3
		c0.9-0.2,2,0,3,0c2,0,3.3,0.9,4.4,2.6c1.5,2.3,3,4.7,4.7,6.8c1.2,1.7,2.6,3.3,3.9,4.8c0.8,0.9,1.2,1.8,1.5,2.9
		c1.1,4.5,1.5,9.2,1.4,13.9c-0.2,3,0,6.2,0.2,9.3c0.2,1.8-0.3,3.5-1.4,5c-1.8,2.4-3.3,5-4.8,7.5c-1.4,2.3-3.3,3.8-6,4.4
		c-3,0.8-6,1.2-9.2,1.1c-1.4,0-2.7,0-4.1,0.8c-0.2,2.1-0.3,4.2-0.3,6.5c-0.2,2.3-0.2,4.7-0.2,6.9v6.8c-3.3-0.8-6.3-0.8-9.5-0.6
		c-3,0.2-5.9,0.8-9,1.1c-0.2-0.6-0.5-1.2-0.5-1.8c-0.5-4.2-1.1-8.6-0.9-13l0.5-32.2c0.2-10.1,0.2-20.2,0.2-30.3
		C76.1,256,76.3,255.2,76.3,254.5 M98.7,293.9c0.6-1.2,1.4-2.4,1.8-3.6c0.3-0.8,0.5-1.5,0.5-2.3c0-4.5-0.2-9-1.4-13.4
		c-0.2-0.6-0.6-1.1-0.9-1.7c-1.5,0.2-2.7,0.2-3.9,0.6c-0.3,3.9,0.6,17.9,1.2,20.3C96.9,294.1,97.8,293.9,98.7,293.9 M263.9,257.6
		c0.6-0.2,1.1-0.5,1.7-0.5c6.8-0.6,13.4-1.1,20.2-1.7h0.3c3-0.6,5.3,0.6,7.7,2.3s4.2,3.9,6.3,5.9c1.1,1.1,2,2.1,3,3.2
		c1.2,1.2,1.7,2.4,1.8,4.1c0.6,7.8,1.4,15.7,2,23.5c0.2,1.1,0.2,2.3,0.2,3.3s-0.3,2-0.9,2.7l-7.2,9.9c-0.9,1.4-2.1,2.3-3.8,2.4
		c-2.1,0.2-4.2,0.6-6.3,0.6c-1.8,0-2.7,1.2-4.1,1.8c-0.3,0.2-0.6,0.8-0.6,1.1c-0.2,0.8-0.2,1.5-0.2,2.3v10.2
		c-0.2,1.7-0.6,2.1-2.3,2.1s-3.3-0.2-5-0.2c-2.9,0-5.7,0.2-8.6,0.3c-0.9,0-1.8,0-2.7,0.2c-2.1,0.3-3.8-1.4-3.8-3.6v-2.7
		c0.3-6.8,0.8-13.6,0.9-20.2c0.3-7.7,0.3-15.5,0.5-23.2c0.2-6.9,0.3-13.7,0.6-20.6C263.5,259.9,263.7,258.7,263.9,257.6
		 M286.4,293.2v-7.1c0-3.9-0.2-8-0.2-11.9c0-0.6-0.3-1.2-0.5-2c-0.9,0-1.8,0.2-2.6,0.2c-0.6,4.1-1.1,19.1-0.6,22
		C284.5,294.7,284.5,294.7,286.4,293.2 M271.7,209.4c-0.2,4.4-0.5,9.2-0.8,14.2c-0.3,4.8-2.1,9-4.7,13c-1.5,2.4-3,4.7-4.5,6.9
		l-1.4,1.8c-2.3,3.2-5.3,4.1-9,3.3c-0.6-0.2-1.2-0.5-2-0.5c-1.2-0.2-2.4-0.6-3.6-0.5c-1.4,0.2-2.6-0.2-3.8-0.9
		c-2.4-1.4-5-2.6-7.4-3.8c-3-1.5-5.1-3.9-6.8-6.6c-1.7-2.6-3.3-5-4.2-7.8c-0.5-1.5-0.6-3-0.5-4.5c2-2.4,0.9-5.3,1.1-8
		c0.2-4.4,0.5-8.7,1.1-13.1c0.6-3.9,0.6-8,1.1-11.9c0.9-7.5,3.8-14.3,9.3-19.7c1.4-1.4,2.9-2.3,5-2.4c5.6-0.6,11-0.8,16.6,0.3
		c1.4,0.3,2.6,0.6,3.9,1.1c1.5,0.5,2.9,1.1,3.6,2.7c0.2,0.3,0.3,0.6,0.6,0.8c1.8,1.1,2.3,2.9,2.9,4.7c1.5,4.8,2.7,9.8,2.9,14.9
		C271.2,198.6,271.5,203.7,271.7,209.4 M245.3,232c1.1,0,1.8-0.8,2.6-1.4c6.2-5.4,10.1-9.5,11.6-12.1c-1.4-0.3-2.6-0.8-3.8-1.1
		c-0.8-2.1,0.3-3.8,1.1-5.4c1.7-3.5,3.3-6.8,4.8-10.2c0.3-0.6,0.3-1.2,0.5-1.8c-2.6-0.6-5.1,0.3-7.4-1.4c0.3-1.5,0.5-3,0.9-4.5
		c0.5-1.7,1.1-3.2,1.4-4.8c0.3-1.5,1.2-2.9,1.1-4.4c-1.2-0.5-2.1,0-3.2,0.2l-8.6,2.3c-1.4,0.3-2.6,0.6-3.9,0.9
		c-1.2,0.3-2,0.8-2.3,2.1c-1.2,3.6-2.4,7.1-3.6,10.7c-0.2,0.5-0.3,1.1,0.3,1.7c2.1,0.2,4.4-1.2,6.6-0.9c0.8,1.8,0.5,3.5,0,5
		c-0.9,3-2,5.9-2.9,8.9c-0.3,0.9-0.9,1.8-0.6,3c0.3,0.2,0.8,0.2,1.2,0.3c0.9,0,1.8,0,2.7,0.2c2.9,0.6,3.5,2,2.9,3.9
		c-0.6,2.1-0.9,4.4-1.5,6.5C245.2,230.4,244.9,231.1,245.3,232 M324.1,254.3c0.6-0.2,0.9-0.3,1.2-0.3c6.8,0.2,13.6,0.3,20.2,0.6
		c0.5,0,0.9,0.2,1.2,0.3c0.8,1.1,0.5,2.3,0.5,3.3c0,9.8-0.2,19.7-0.2,29.5c0,4.8,0.2,9.8,0.3,14.6c0,1.5,0.2,3,0.9,4.5
		c0.3,0.6,0.3,1.5,0.5,2.3c0,0.8-0.2,1.5,0,2.3c0.2,1.7,0.8,2.9,2.3,3.8c1.5,0.8,3,1.2,4.8,1.1c3.2-0.2,6.2-0.2,9.3-0.3h3.2
		c0.6,6,0.8,11.8,0.6,17.8c-0.9,0-1.5,0.2-2.1,0.2c-8.6-0.9-17-0.5-25.6,0.5c-0.6,0-1.4,0.2-2,0.2c-0.8,0-1.2-0.3-1.7-0.9
		c-0.9-1.2-2-1.4-3-0.5c-0.6,0.5-1.1,0.8-1.7,0.8c-2.9,0.2-5.7,0-8.7,0c-0.3-2.4-0.8-4.7-0.6-6.9c0.9-11.1,0.6-22.3,0.8-33.6
		c0.2-7.2,0.5-14.5,0.6-21.5c0.2-5.1,0.2-10.2-0.6-15.2C324.1,256,324.1,255.2,324.1,254.3 M143.6,202.5c1.2-2.7,1.8-5,2.6-6.9
		c0.9-2.6,2-5.1,3.2-7.7c2.3-4.8,3.5-10.1,3.9-15.4c0.2-1.8,0.2-3.5,0.3-5.4c3.3-0.6,6.5,0.3,9.5,0.6c3,0.3,6.2-0.2,9.3,1.1
		c0.6,3.5,1.1,7.1,0.9,10.5c-0.2,5.7-0.5,11.4-0.6,17.3c-0.2,2.7-0.2,5.3,0,8c0.3,7.1,0.2,14.2,0,21.2v14c0,1.2,0.2,2.4-0.6,3.6
		c-2.3,0.5-4.5,0.8-6.9,0.8c-0.2-0.8-0.3-1.5-0.2-2.1c0.5-4.1,0.3-8.1-0.2-12.2c-0.5-4.4-0.3-8.9-0.3-13.3c0-4.7,0.2-9.3,0.2-14
		c0-2.4-0.5-4.8-0.6-7.2c-0.5-6-1.5-11.9-1.2-17.9c0-1.2,0-1.2-0.9-2.3c-0.2,0-0.3,0-0.3,0.2c-1.1,2.4-2.4,4.7-3.3,7.2
		c-1.2,3.5-2.1,6.9-3.2,10.4l-1.8,5c-1.8,5-3.8,9.9-5.7,14.9c-0.6,1.5-1.1,3.2-1.7,4.7c-0.3,1.1-1.1,1.7-2.4,1.5
		c-0.5-1.1-0.8-2.1-1.2-3.3c-0.8-1.8-1.4-3.5-2.1-5.3c-0.6-1.4-1.1-2.7-1.5-4.1c-0.8-2.7-1.5-5.3-2.3-8c-0.5-1.7-1.2-3.3-1.4-5.1
		c0-0.6-0.3-1.4-0.6-2c-1.7-3.9-3.5-8-5.1-11.9c-0.2-0.3-0.3-0.5-0.6-0.8c-1.2,0-2,0.6-2,1.8v9.3c0,3,0.2,6,0,8.9
		c-0.6,6.6-1.5,13.3-2.1,19.9c-0.5,4.4-0.5,8.6-0.8,13c-0.3,3.8-0.5,7.5-0.8,11.3c0,0.3-0.2,0.6-0.3,1.1c-0.5,0-0.9,0.2-1.2,0.2
		c-3.6,0-4.2-0.6-4.2-4.2c0.2-5.7,0.5-11.4,0.6-17.3c0.2-7.7,0.3-15.5,0-23.2c-0.2-4.7,0.5-9.3,0.8-13.9c0.3-3.2,0.3-6.2-0.2-9.3
		v-1.2c0.6-0.9,1.5-1.1,2.4-1.2c3.8-0.6,7.7-1.4,11.4-2c3.5-0.6,4.8,0.5,5.6,3.9c0.2,0.5,0.2,0.9,0.2,1.4c0.6,3.5,1.2,6.9,2.1,10.4
		c1.1,3.9,1.7,7.8,2.6,11.6C143,200.1,143.2,200.8,143.6,202.5 M304.5,219.7c-1.1,2.1-1.7,4.2-2.3,6.2c-1.2,4.2-2.4,8.4-3.6,12.8
		c-0.5,1.7-1.5,2.7-2.9,3.6c-0.3,0.3-0.9,0.3-1.2,0.3c-4.7-0.5-9.5-1.1-14.3-1.7c-0.3-0.9-0.6-1.5-0.6-2.3
		c-0.8-5.9-0.9-11.9-0.9-17.9c-0.2-7.4-0.3-14.9-0.6-22.3c-0.3-5.1-0.8-10.4-1.4-15.5c-0.3-2.6-0.8-5.3-1.5-7.8
		c-0.6-2.3-0.3-4.4,0.2-6.6c0.2-1.1,0.8-1.8,2-2c0.6,0,1.1-0.2,1.7-0.2c0.5,0.6,0.8,1.1,1.4,2c0.5-1.1,0.6-1.7,1.1-2.6
		c0.3,0.8,0.6,1.2,0.8,1.7l1.4,6.8c1.2,8.6,2.4,17.3,3,26.1c0.6,8.7,1.7,17.5,2.4,26.1c0.2,0.9,0.2,1.8,0.5,2.6
		c0.2,0.5,0.6,0.9,1.1,1.2c1.2,0.8,2.3,0.3,2.7-0.9c0.8-1.8,1.4-3.8,2-5.6c1.1-2.9,2.1-5.6,3.3-8.3c0.5-1.2,1.1-2.6,1.8-3.5
		c1.8-2.1,2.9-4.7,3.9-7.4c0.9,0.2,1.7,0.2,2.7,0.3c2.1,3.9,4.1,8,6.2,12.1c1.8,3.6,3,7.4,4.2,11.1c0.3,1.1,0.8,2.1,1.2,3
		c0.2,0.3,0.8,0.5,1.2,0.3c0.3-0.2,0.8-0.5,0.8-0.9c0.2-0.6,0-1.4,0-2c0-8.6,0.6-17.3,1.2-25.9c0.6-8.6,0.9-17.3,1.4-25.9
		c0-1.5,0.2-3.2,0.2-4.7c0-1.1,0.2-2.3,0.8-3.3c1.4-0.5,2.6-0.5,3.9,0c1.5,0.6,2.4,1.7,2.7,3.5c0.8,5.6,0.2,11-0.3,16.6
		c-0.8,8.3-1.5,16.6-1.7,24.9c-0.2,5.3-0.6,10.5-1.1,16c-0.2,2.4-0.2,4.8-0.3,7.2c-0.2,1.8-0.3,3.8-0.5,5.7c-1.8,0.3-3.5,0.8-5,0.8
		c-2.7,0.3-5.3,0.6-7.8,1.4c-1.4,0.5-2.9,0.2-4.4-0.5c-0.3-1.8-0.6-3.6-1.1-5.4c-0.5-2.4-1.1-4.7-1.5-7.1c-0.5-2.7-0.8-5.4-1.1-8.3
		c-0.2-1.1-0.2-2-0.3-3C305.3,220.4,305,220.3,304.5,219.7 M383.3,169.8h5.6c2.3,0,4.4,0,6.6-0.2c4.2-0.3,8.4-0.3,12.7-0.3
		c4.4,0.2,8.1,1.8,11.8,4.1c1.1,0.6,2,1.8,2.7,2.9c3.2,5,5,10.4,5.3,16.3c0.2,2.4,0.2,4.8,0.2,7.4v1.4c-1.1,4.4-2.1,8.6-5.1,12.2
		c-1.4,1.7-2.7,3.5-4.1,5.3c-1.1,1.4-1.4,2.7-0.9,4.4c0.3,1.2,0.6,2.4,1.1,3.5c1.7,5,3.5,10.1,5.1,15.1c0.2,0.5,0.3,1.1,0.3,1.7
		s-0.3,1.1-0.9,1.2h-4.2c-0.3-0.6-0.8-1.2-1.1-2c-2.1-4.7-3.6-9.5-4.7-14.5c-0.5-2.1-1.4-4.2-2.1-6.3c-0.3-0.8-0.5-1.5-0.8-2.4
		c0.6-0.5,1.2-0.9,2-1.4c2-0.9,3.5-2.4,4.7-4.1c1.8-2.6,3-5.4,4.1-8.3c0.3-1.1,0.5-2.3,0.3-3.3c-0.5-3.9-0.8-8-1.4-11.9
		c-0.6-4.2-3-7.5-6.2-10.2c-0.6-0.5-1.4-0.9-2.1-1.1c-2.1-0.5-4.1-1.1-6.2-1.2c-3.9-0.3-7.7-0.5-11.6-0.8c-0.6,0-1.4,0-2,0.2
		c-0.6,1.2-0.5,2.3-0.5,3.3c0.8,5.6,0.6,11.3-0.2,16.9c-0.3,2-0.5,4.1-0.3,6c0.5,6.6,0,13.3-0.6,19.9c-0.5,5.6-0.5,11-0.8,16.6
		c-0.2,2-0.2,3.9-0.3,6c-2.1,0.9-4.2,0.8-6.3,0.9c-0.6-1.8-0.6-3.6-0.8-5.3c-0.6-10.7-0.5-21.5-0.5-32.2c0-9,0.2-18.2,0.3-27.3
		c0-2.9,0.3-5.7,0.5-8.6C382.9,172.1,383.2,171.2,383.3,169.8 M209.6,213.5c3.3-2.9,5-6.8,5.3-11.1c0.6-5.6,0.5-11-1.1-16.4
		c-0.9-3.3-2.7-5.7-5.9-7.1c-2.4-1.1-4.7-1.8-7.4-1.8c-1.4,0-2.7-0.2-3.9-0.3c-2.1-0.3-4.2-0.3-6.5,0c-0.2,0.8-0.5,1.4-0.5,2.1
		c0,3.2,0.2,6.5,0,9.6c-0.3,9.5-0.8,19-1.1,28.6c-0.3,7.5-0.5,15.1,0,22.6v2.4c-1.8,0.8-3.8,0.8-5.6,1.1c-1.5,0.3-2.3-0.5-2.4-2
		c-0.2-2.1-0.2-4.2-0.2-6.3c0-10.1,0.5-20.2,1.1-30.3c0.2-2.7,0.2-5.3,0.3-8c0.3-5.4,0.6-10.8,0.8-16.3c0.2-3,0-6,0-9.2
		c0.5-0.2,0.9-0.3,1.5-0.3c6.5,0.5,12.8,0,19.3-0.2c1.1,0,2-0.2,3,0c2.9,0.3,5.4,1.1,7.5,3.2c1.4,1.4,3,2.6,4.4,3.9
		c2.1,2.1,3.6,4.5,3.5,7.7c-0.2,3.8-0.2,7.5-0.6,11.3c-0.5,4.8-1.4,9.6-2,14.5c-0.5,3.9-2.9,6.9-5.3,9.8c-0.6,0.8-1.8,1.2-2.9,1.4
		c-2.7,0.8-5.6,1.4-8.4,2c-0.6,0.2-1.1,0.2-1.7,0.3c-0.9,0.3-1.5,0.9-1.7,1.8c-0.2,1.1-0.2,2-0.2,3v5.6c-0.2,1.8-0.3,3.8-0.6,5.4
		c-2.4,2.3-4.8,1.8-7.5,1.5c-0.5-1.4-0.5-2.7-0.5-4.1c0.2-4.1,0.3-8.1,0.3-12.4c0-2.1,0.5-4.1,2.1-5.9
		C199.2,219.7,205.2,218.5,209.6,213.5z M346.4,234.9c3.3,0.6,6.5,0.6,9.8,0.6c5.6-0.2,11-0.3,16.6-0.3c0.6,0,1.4,0,1.8,0.2
		c1.1,0.9,0.8,2,0.8,2.9c0,1.4,0,2.7-0.2,3.9c-0.2,1.2-0.9,2-2.3,1.8c-4.2-0.2-8.4-0.3-12.7-0.3c-1.5,0-3.2,0.2-4.7,0.3
		c-2.1,0.2-4.2,0.2-6.3,0.3l-3.6,0.5c-2.6,0.5-5.3,0.8-7.8,0.6c-0.8-1.2-0.6-2.4-0.8-3.6c-0.2-3-0.3-6-0.3-8.9
		c0-8.1,0.3-16.4,0.5-24.6c0-2,0.2-3.9,0-6c-0.2-7.2,0-14.5,0.6-21.5c0.5-4.4,0.5-8.7-0.3-13.4c0.9-0.3,1.8-0.6,2.6-0.8
		c2.6-0.6,5.3-0.8,7.8-0.6c4.7,0,9.3-0.2,14-0.2c3.2,0,6.2,0.3,9.3,0.6c1.5,0.2,1.5,0.2,3.6,1.7c0.3,2,0.6,4.1-0.8,6.2
		c-1.8,0.3-3.8,0.6-5.7,0.6c-2.1,0-4.2,0.2-6.3,0.2c-4.4-0.2-8.6,0.8-12.8,1.2c-0.6,0-1.1,0.2-1.7,0.3c-1.2,0.3-1.7,0.8-1.7,2.1
		c-0.2,3.8,0,7.5-0.2,11.3c-0.2,4.8,0.2,9.8,0.5,14.6c0.3,3.2,0.2,6.5,0,9.6c-0.2,6.5-0.3,13.1-0.3,19.6
		C346.1,234.1,346.3,234.4,346.4,234.9 M72.1,241.7c-0.3-3.3,0-6.5,0-9.6c0-3.3,0.2-6.6,0.2-9.9c0-3.2,0-6.5,0.2-9.6
		c0.2-3.3,0.5-6.6,0.5-9.9c0.2-3.2,0-6.5,0.2-9.6c0.2-3.3,0.2-6.6,0.6-9.9c0.5-3.2,0.3-6.3,1.1-9.5c0.6-0.2,1.1-0.6,1.7-0.6
		c4.2,0,28.6-2.6,31.9-1.5c0.6,1.7,1.2,3.3,0.8,5.4c-1.7,0.3-3.3,0.6-4.8,0.8c-3.5,0.3-6.8,0.5-10.2,0.6c-3.3,0.2-6.6,0.5-10.1,0.8
		c-0.2,0.8-0.5,1.4-0.5,2c0,3.3,0,6.6-0.2,9.9c-0.2,4.1-0.3,8.1-0.5,12.4c-0.3,6.9-0.6,13.7-0.9,20.6c-0.2,2.7-0.3,5.3-0.3,8v3.5
		c0.6,0.2,1.2,0.3,1.7,0.3c1.8,0,3.5-0.2,5.3,0.5c0.8,0.3,1.8,0,2.6-0.2c4.2-0.8,8.4-1.5,12.8-1.7c2.3,0,4.4-0.2,6.6,0.2
		c0.8,1.7,0.3,3.3,0.6,5c0.2,1.5,0,3,0,4.7c-2.3,1.2-4.2,1.7-6.8,1.2c-2.4-0.5-5.1-0.5-7.5-0.8c-3-0.3-6.2-0.9-9.2-1.2
		c-3.6-0.3-7.2-0.6-11-0.8c-1.1-0.2-2.3-0.2-3.3-0.3C73,242.1,72.5,241.8,72.1,241.7"/>
	<path d="M156.3,209.6c-0.5,1.1-0.8,1.5-0.8,2c-0.6,4.1-1.2,8.1-1.7,12.2c-0.5,4.7-1.5,9.2-2.6,13.7c-0.3,1.1-0.8,2.1-1.2,3.3
		c-2.6,0.2-5,0.3-7.5,0.3c-0.8-2.4-2.1-4.7-2.6-7.2c-0.9-4.5-2-9-2.9-13.7c-0.5-2.4-1.5-4.5-2.4-6.8c-0.9,0-0.8,0.5-0.8,0.9
		c-0.5,6.5-1.4,13-2.3,19.4c-0.3,1.8-0.2,3.8-0.2,5.6c0,1.5,0.2,3.2-0.6,4.7c-1.8,0.5-3.6,0.5-5.6,0.2c-0.3-1.5,0-3,0.2-4.4
		c0.2-3,0.5-6,0.5-8.9c0.3-6.9,0.6-13.7,1.5-20.5c0.3-2.4,0.5-4.8,0.6-7.2c0.3-4.4,0.5-8.6,0.8-13c0-1.1,0-2.3,0.8-3.3
		c1.2,0.9,1.4,2.4,1.7,3.5c0.6,2.6,1.8,5,3,7.4c1.4,2.7,2.6,5.6,3.3,8.6c1.5,5.9,3.8,11.6,6,17.2c0.3,0.6,0.8,1.1,1.2,1.7
		c1.5-2.6,2.9-5,4.2-7.4c0.5-0.9,0.8-1.8,0.8-2.9c0.9-7.5,3.6-14.6,6.5-21.5c0.9-2.1,1.5-4.4,2.4-6.5c0.8-1.8,1.5-3.6,2.3-5.6
		c0.6,2,0.8,3.2,0.6,5.3c-0.2,1.4-0.3,2.9-0.3,4.4c0,0.9,0,1.8,0.3,2.6c1.5,3.6,1.5,7.4,1.5,11.1c0.2,6.5,0,13.1-0.2,19.6v19.6
		c-1.1,0.9-2,1.2-3.3,1.1c-1.1-0.9-1.5-2.3-1.7-3.8c-0.3-2.6-0.6-5.1-0.8-7.5c0-1.1,0.2-2.3,0.3-3.3c0.3-2.3,0.3-4.4,0-6.6
		C157.2,218.9,156.7,214.6,156.3,209.6 M304.8,195.1c-2,3.5-2.9,6.5-4.1,9.5c-1.2,3-2.6,6.2-3.9,9.2c-1.4,2.9-2.7,5.9-3.9,8.6
		c-1.4-0.2-1.7-1.1-1.8-2c-0.8-5.4-1.7-11-2.1-16.4c-0.5-4.4-0.3-8.6-0.6-13c-0.2-2.7-0.6-5.6-0.9-8.3c-0.5-4.5-1.1-9-2.1-13.4
		c-0.3-1.5-0.3-3-0.5-4.7c1.7-0.5,3.2-0.9,4.4-1.4c1.1,0.5,1.4,1.4,1.5,2.3c0.3,1.8,0.6,3.5,0.9,5.3c1.1,6,2.1,12.1,3.2,17.9
		c0.2,1.2,0.6,2.4,0.8,3.5c0.8,0.3,1.1-0.3,1.2-0.8c0.3-1.4,1.1-2.4,1.8-3.5c0.9-1.5,1.5-3.2,2.3-4.8c0.9-2.1,1.4-4.5,2.6-6.3
		c1.2-0.6,2.3-0.5,3.5-0.3c1.7,3,2.6,6.5,3.3,9.9c0.2,1.2,0.5,2.4,0.9,3.5c0.2,0.6,0.8,1.1,1.4,1.8c0.5-0.9,0.8-1.4,0.9-2
		c0.6-4.1,1.1-8.1,1.7-12.2c0.3-2.6,0.8-5.3,1.2-7.8c0.3-2,1.1-2.3,3-2l1.4,0.5c0,0.5,0.2,1.1,0.2,1.5c-0.2,2.3-0.3,4.7-0.3,6.9
		c-0.2,3-0.3,6-0.5,8.9c-0.2,4.8-0.3,9.8-0.6,14.6c-0.3,4.7-0.6,9.3-1.1,13.9c-0.2,1.1,0.2,2.3-1.1,3.2c-0.3-0.3-0.5-0.8-0.9-0.9
		c-2.3-0.9-2.9-2.9-3.5-4.8c-0.3-0.9-0.5-1.8-1.1-2.4c-2.4-3.5-3.9-7.5-5.6-11.3C305.9,197.2,305.4,196.6,304.8,195.1 M296.7,194.2
		h-0.2l0.2,0.2V194.2z M393.3,218.3c-0.2-1.2-0.3-2-0.3-2.7c0.3-7.1,0.8-14.2,0.5-21.2c-0.2-4.4-0.2-8.6,0.6-13
		c0-0.5,0.2-0.9,0.3-1.4c4.5-1.4,8.9-1.2,13.4,0c2.3,0.6,4.4,1.5,6.3,3c1.1,0.8,1.8,1.7,2.3,2.7c1.5,3.8,2.6,7.5,2.9,11.6
		c0.5,4.5-0.9,8.6-3.2,12.4c-1.2,2-2.1,4.1-4.1,5.6c-2.3,2-4.5,3.2-7.4,3.2C400.8,218.3,397.2,218.3,393.3,218.3 M402.7,210.3
		c3.8-0.6,6.3-2.6,8.3-5.3c0.5-0.6,0.5-1.5,0.5-2.3c-0.2-2.3-0.3-4.4-0.5-6.6c-0.2-1.1-0.5-2.1-0.8-3.2c-0.5-1.8-1.8-3-3.3-3.9
		c-1.2-0.8-2.7-0.5-4.2-0.2C402.7,188.9,402.7,210.3,402.7,210.3z M209.6,213.5c-2.1,0.8-4.4,1.7-6.6,2.6c-3.2,1.2-6.6,1.7-10.1,2.3
		c-0.3-0.9-0.6-1.5-0.6-2.3c-0.2-3.2-0.5-6.2-0.5-9.3c0.2-7.7,0.5-15.2,0.6-22.9c0-1.1,0.2-2,0-3c0-1.2,0.5-2.1,1.4-2.9
		c0.9,0,2-0.2,2.9,0c2.6,0.3,5.1,0.5,7.5,1.1c3,0.6,5.6,2.1,7.1,5.1c0.6,1.2,1.1,2.4,1.4,3.8c0.6,4.2,1.5,8.3,1.2,12.5
		c-0.2,1.1-0.3,2.3-0.6,3.2c-0.9,2.9-1.7,6-3.3,8.6C209.8,212.6,209.8,213,209.6,213.5 M199.2,185.2c0.3,8.7,0.8,16.9,1.1,25
		c0,0.3,0.2,0.6,0.3,0.9c0.6-0.2,1.1-0.6,1.4-1.1l2.7-5c0.8-1.4,1.2-2.9,1.2-4.4c0-3.2,0-6.2-0.2-9.3c0-2.1-1.4-3.5-2.6-5
		C202.4,185.3,200.9,185.6,199.2,185.2 M374.9,176.7c0.6,2.6,0.6,4.8,0.3,6.9c-0.2,1.1-1.1,2.1-1.7,3.2h-11.4c-2,1.5-3,3.3-3.3,5.6
		c-0.3,2.1-0.9,4.1,0.2,6.3c3.3,0.8,6.8-0.3,10.2,0.5c0,0.9,0.2,1.5,0.2,2.3c0,0.8-0.2,1.5-0.2,2.4c-0.8,0.2-1.4,0.3-2,0.3
		c-2.7,0-5.3-0.2-8-0.3c-2.4,0-4.8-0.2-7.2-0.2c-2.7,0-3-0.3-3-3c0-1.7-0.2-3.3-0.2-5c0-4.4,0-8.9,0.2-13.3c0-0.6,0-1.4,0.2-2
		c0.5-2,1.7-3,3.8-3.2c4.4-0.2,8.6-0.3,13-0.6c1.8,0,3.8-0.2,5.6-0.2C372.5,176.7,373.5,176.7,374.9,176.7 M375.5,232
		c-2.4,0.3-4.5,0.6-6.6,0.8c-4.4,0.5-8.9,0.6-13.3,1.1c-1.8,0.2-3.5,0.5-4.8-1.1c-0.3-0.3-0.8-0.3-1.4-0.3c-0.2-0.9-0.3-1.7-0.3-2.4
		c0.2-6.5,0.3-12.8,0.3-19.3c0-1.8,0.5-3.3,2.1-4.2c1.5-0.2,3-0.5,4.5-0.6c0.6,0,1.4-0.2,2,0c3.2,0.6,6.3,0.5,9.6,0.5
		c0.5,0,0.9,0.2,1.4,0.3c0.3,2,0.5,3.9-0.2,6c-1.5,0.6-2.9,0.2-4.2,0c-3.6-0.5-4.5,0.5-4.5,4.1c0,2.4,0,4.8,0.2,7.2
		c2.7,0.9,6.9,1.1,9.6,0.6c1.2-0.2,2.4-0.5,3.6-0.5c1.2,0,2.1,0.9,2.1,2.1C375.8,228.1,375.6,229.8,375.5,232 M84.6,207.9
		c1.8-0.9,3.6-1.2,5.6-1.1H104c0.2,0,0.5,0.2,0.8,0.2c0.8,2.1,0.5,4.2,0.3,6.5c0,0.3-0.5,0.8-0.8,0.9c-0.8,0.3-1.5,0.6-2.3,0.6
		c-2,0.2-3.9,0.3-6,0.5c-1.2,0-2.4,0.2-3.6,0.2c-1.1,3.5,0,6.5,0.2,9.9c1.2,0,2.1,0.2,3.2,0.2h11.6c1.1,0,2,0,3,0.6
		c0.5,1.8,0.3,3.6,0.3,5.6c-0.5,0.2-0.9,0.5-1.2,0.5c-5.3,0.5-10.5,0.9-15.8,1.1c-2.4,0.2-4.8-0.2-7.2-0.3c-0.5,0-0.9-0.2-1.2-0.3
		c-1.2-2.9-1.7-5.6-1.5-8.4c0.2-2.9-0.2-5.7,0.8-8.6c0.3-0.8,0-1.8,0-2.6v-3.3C84.3,209.3,84.4,208.5,84.6,207.9 M88,205.5
		c-3.2-2-3.5-5-3.3-8c0.2-3.9,0.5-8,0.8-11.9c0.3-4.8,1.2-5.7,6-6c3.3-0.2,6.6,0,9.9,0c1.5,0,3.2-0.2,4.7-0.2c1.1,0,2.1-0.2,3.5-0.2
		c0.8,2.4-0.2,4.5,0,6.6c-2.6,1.4-5.4,0.9-7.8,1.7c-2.4,0.8-4.8,1.2-7.5,1.8c-0.2,0.2-0.5,0.6-0.5,0.9c-0.2,2.3-0.6,4.5-0.5,7.1
		c1.2,0.2,2.1,0.2,3,0.3c1.1,0.2,2.3,0,3.3,0.3c1.7,0.5,3.2,0.9,4.8,0c0.2-0.2,0.6,0.2,1.1,0.3c0,2,0.2,3.9-0.3,5.9
		c-1.8,0.8-4.7,1.4-8.7,1.4C93.5,205.7,90.6,205.5,88,205.5 M393,221.5c2.4-0.2,4.7-0.2,6.8-0.5c2.1-0.3,4.2-0.8,6.2-1.1
		c2.4,0.8,3.3,2.9,4.4,4.8c2.7,5.6,5,11.3,5.9,17.6v1.4c-1.7,0.3-3.2,0.5-4.7,0c-1.8-4.2-3.6-8.4-5.4-12.5c-0.3-0.8-0.6-1.5-0.9-2.1
		c-0.5-0.8-0.8-1.5-2-1.5c-0.3,0-0.6-0.6-0.9-0.9c-0.8-0.8-1.5-0.8-2.4-0.5c-0.9,0.3-1.2,0.9-1.2,1.8c-0.2,1.8-0.2,3.6-0.2,5.3v8
		c0,2.3,0.3,2.6-2.3,4.5h-4.1c-0.2-0.8-0.3-1.5-0.3-2.3c0-2.7,0.3-5.3,0.3-8c0.2-3.9,0.3-8,0.5-11.9
		C392.8,223.3,393,222.5,393,221.5"/>
</g>
</svg>
