<?xml version="1.0" encoding="utf-8"?>
<!-- Generator: Adobe Illustrator 25.2.1, SVG Export Plug-In . SVG Version: 6.00 Build 0)  -->
<svg version="1.1" id="Layer_1" xmlns="http://www.w3.org/2000/svg" xmlns:xlink="http://www.w3.org/1999/xlink" x="0px" y="0px"
	 viewBox="0 0 500 500" style="enable-background:new 0 0 500 500;" xml:space="preserve">
<g>
	<path d="M109.3,188.1c-0.2,1.8-0.4,3.5-0.6,5.3c-0.5,3.4-2.2,6.1-4.2,8.6c-1.9,2.3-4.1,4.3-6.7,5.8c-2.3,1.2-4.6,1.8-7,2.3
		c-3.8,0.7-7.8,1.1-11.9,1.1c-3.8,0-7.3-1.1-10.3-3.5c-2.3-1.8-4.4-3.7-6.4-6c-1.1-1.2-1.9-2.8-2.4-4.3c-1.9-6-1.7-12-0.2-18
		c0.8-3.7,3-7,5.8-9.6c4.1-3.8,8.9-6.6,14.6-7.3c1.7-0.2,3.2-0.5,4.9-0.6c2.8-0.1,5.3,0.6,7.7,1.6c3.1,1.3,6,2.9,8.6,5
		c3,2.5,5.4,5.6,6.5,9.5C108.7,181.2,109.4,184.6,109.3,188.1 M440.3,310.5c0,1.7,0.2,3.4,0,5c-0.4,2.9-1.4,5.4-3.2,7.7
		c-2.2,2.5-4.3,5.2-6.4,7.7c-1.4,1.8-3.6,2.5-5.6,3.4c-3.6,1.3-7.4,1.3-11.3,1.2c-0.5,0-0.8,0-1.3-0.1c-5.3-1.4-9.6-4.3-12.6-9
		c-2.2-3.4-3.6-7.1-4.7-10.9c-0.1-0.5-0.2-0.8-0.2-1.3c-0.4-4.6-0.6-9,1.2-13.3c1.2-2.8,2.6-5.4,4.3-7.8c1.8-2.4,4.3-4.1,6.8-5.8
		c0.7-0.5,1.8-0.8,2.8-1c5.4-0.7,10.7-0.4,15.9,1.1c1.4,0.4,2.6,1,3.8,1.8c2.2,1.6,4.3,3.4,6,5.5c2.8,3.5,4.3,7.4,4.6,11.9
		C440.4,307.9,440.3,309.2,440.3,310.5 M380.2,271.7c-1.4-2.8-2.8-5.4-4-7.9c-1.4-3-2.8-6.1-4.4-9c-1.8-3.2-4.1-6.1-6.5-9
		c-0.1-0.1-0.2-0.4-0.4-0.4c-1.1-0.1-1.4-1.1-2-1.9c-0.6,0.8-0.4,1.6-0.5,2.2c-0.2,3.2-0.4,6.5-0.5,9.7c-0.1,2.5,0.1,4.9,0.5,7.3
		c0.1,1,0.6,1.2,1.4,1.2c0.4,0,0.7-0.1,1.1-0.1c1.6,0,2.6,0.5,2.4,2.5c-0.2,1.8,0,3.7-0.1,5.5c0,0.8-0.1,1.7-0.2,2.8
		c-2.3,0.4-4.4,0-6.6,0h-6.6c-2.2,0-4.3-0.2-6.5-0.4c-0.6-2.3-0.7-6-0.1-10.7c1.7-0.7,3.6-0.2,5.5-0.6c0-0.7,0.1-1.4,0-2
		c-0.8-5.3-1.1-10.5-1.3-15.8c-0.1-3.6-0.1-7.2-0.1-10.8v-2.5c-0.8-0.1-1.6-0.2-2.2-0.2c-0.6,0-1.2,0.2-1.8,0.2
		c-1,0-1.6-0.4-1.8-1.2c-0.6-2.8-0.7-5.5-0.1-8.4c0.6-0.1,1.1-0.4,1.6-0.4h12.7c0.1,0,0.4,0.1,0.7,0.2c2.4,3.4,4.8,6.7,7.2,10.2
		c0.4,0.5,0.6,1,1,1.3c1.8,1.7,3.2,3.7,4.6,5.8c1.8,2.8,3.6,5.6,5.3,8.5c0.1,0.2,0.5,0.5,0.7,0.7c0.2-0.2,0.5-0.2,0.5-0.4
		c0.7-5.2,0.6-10.3,0.4-15.6c-1-0.8-2.2-0.5-3.1-0.5c-1.3-0.1-2-0.5-2-1.9c-0.1-2.4-0.1-4.9,0.1-7.3c0.4-0.1,0.6-0.4,0.8-0.4
		c2.8,0.1,5.4-0.2,8.1-0.4c1.2-0.1,2.5,0,3.7,0c1.8,0.1,3.5,0.4,5.3,0.5c0.5,0,0.8,0,1.3,0.1c0.6,0.2,1.1,0.6,1.1,1.3v7.5
		c-1.7,0.7-3.5,1.4-5.3,2.3c-0.5,1.9-0.5,3.8-0.5,5.8c0,2.6,0.1,5.3,0.1,7.9l0.4,19.3c0,0.8,0,1.6,0.1,2.4c0,0.8,0.1,1.8-0.5,2.5
		c-0.2,0-0.5,0.1-0.7,0.1C386.1,271.7,383.3,271.7,380.2,271.7 M439.9,188.8c0,0.6,0.1,1.2,0.1,1.8c0.1,2.8-0.7,5.4-1.8,7.9
		c-1.4,3.2-3.5,5.6-6.5,7.4c-0.5,0.4-1.1,0.6-1.4,1.1c-2.2,2.4-5.2,3.2-8,4.4c-0.4,0.1-0.8,0.2-1.3,0.2c-5.3,0.2-10.4-0.4-15.3-2.2
		c-0.5-0.1-1-0.4-1.4-0.7c-1.8-1.6-3.6-3-5.3-4.7c-0.7-0.7-1.1-1.8-1.6-2.8c-0.5-1.2-0.8-2.5-1.1-3.8c-0.7-3-1.1-6.1-1-9.1
		c0-1,0.2-1.9,0.5-2.9c0.6-1.9,1.4-3.8,2-5.8c1.1-3.1,2.9-5.6,5-8c2.2-2.4,4.9-4,8.3-4.3c3.2-0.4,6.5-1,9.7-1
		c3.1-0.1,5.9,0.7,8.4,2.5c3.2,2.4,6.2,5.2,8.5,8.5c0.8,1.3,1.6,2.8,1.7,4.4C439.7,184.2,439.8,186.5,439.9,188.8
		C440,188.8,439.9,188.8,439.9,188.8 M344.7,249.2v5.5c0,0.7,0.1,1.4-0.1,2.2c-1.3,3.5-2.2,7.1-4.3,10.1c-1.2,1.7-2.8,3-4.2,4.3
		c-3.5,3.1-7.9,3.7-12.2,4.3c-2,0.4-4.1,0.2-6.1,0.2c-1.8,0-3.4-0.5-4.7-1.6c-2.5-1.8-4.9-3.7-7.4-5.5c-0.4-0.4-0.8-0.7-1.1-1.1
		c-1.7-2.6-3.6-5.3-4.4-8.4c-0.5-1.4-1-2.8-1.4-4.2c-1.2-3.7-1.4-7.4-0.8-11.3c0.5-3.2,1.4-6.4,2.2-9.5c0.1-0.2,0.1-0.5,0.2-0.7
		c2.5-5.4,6-9.7,11.3-12.5c1.2-0.7,2.5-1.3,4-1.2c0.2,0,0.6,0,0.8-0.1c3.1-1.2,6.2-0.7,9.5-0.6c1.1,0,2.2,0.2,3.1,0.7
		c4.3,2,8.4,4.6,11.5,8.3c0.6,0.7,1.1,1.6,1.4,2.5c1.4,3.7,2.2,7.7,2.8,11.5C344.7,244.4,344.6,246.8,344.7,249.2 M322,232.8v-0.1
		c-1.3,0.1-2.6,0.1-4,0.2c-1.6,0.1-2.8,1-3.6,2.4c-0.6,1.1-1.3,2-1.9,3.2c-1.6,3.2-2.3,6.6-2,10.2c0.4,4.8,2.5,8.6,5.8,12.1
		c2.5,2.8,5.6,3.4,9.2,2c0.5-0.1,1-0.5,1.4-0.6c3.7-1.3,5.5-4.2,6-8c0.2-1.8,0-3.7-0.1-5.5c-0.1-1.7-0.5-3.2-0.7-4.9
		c-0.5-3.1-1.2-6-3.2-8.4c-1.3-1.6-2.6-2.5-4.7-2.5C323.3,232.8,322.7,232.8,322,232.8 M229,252.8c-1.7,0.1-2.9,0.2-4.2,0.2
		c-0.6,1-0.5,1.9-0.5,2.8c-0.1,1.8,0,3.5-1.1,5c-0.4,0.5-0.2,1.2-0.4,1.8c-0.1,2.2-0.2,4.2-0.4,6.4c-0.1,1.7-0.4,3.4-0.7,4.8
		c-3.1,0.2-6.1,0.5-9.1,0.7c-1.2,0.1-2.3,0-3.4-0.5c-1-0.5-2-0.5-3-0.7c-0.5-1.9-0.7-6.8-0.5-10.9c0.8-0.2,1.9-0.4,2.6-0.8
		c1.1-0.6,1.8,0.5,2.9,0.4c0.1-0.4,0.2-0.7,0.2-1.2v-6.1c0-6.6,0.1-13.2,0.1-19.8c0-0.7-0.1-1.4-0.1-2.2c-1.7-0.7-3.6,0-5.3-0.6
		c-0.1-1.4-0.2-2.9-0.4-4.4l1.1-1.8c-0.1-1-0.4-1.9-0.5-2.9c1.3-0.8,2.8-0.6,4.1-0.8c1.1-0.2,2.3-0.2,3.4-0.7c1-0.4,2-0.2,3.1-0.4
		c0.5,0,1.1,0.2,1.6,0.1c3.6-0.6,7.2,0.1,10.8,0.4c1.8,0.1,3.7,0.2,5.5,0.5c3,0.5,5.9,1.4,8.3,3.2c2.4,1.9,3.8,4.3,3.7,7.4v3.5
		c0.1,3.6-1.2,6.6-3.5,9.1c-1.2,1.3-2.5,2.5-3.7,3.7c-0.5,0.5-1.1,1-1.7,1.6c0.2,1,0.5,1.9,0.7,2.8c0.7,2.3,1.4,4.6,2,6.8
		c0.6,1.9,1.8,2.9,3.8,3c1.4,0,3,0.1,4.6,0.2c0.6,1.8,0.1,3.4,0.1,5c0,1.6,0.1,3.1-0.5,4.8c-1.6,0.4-3.1,0.2-4.7,0.1
		c-1.1,0-2-0.1-3.1,0.1c-0.7,0.2-1.4,0.2-2,0.2c-2.2,0.1-2.8,0.1-3.4-2.3c-0.2-0.8-0.8-1.6-1.1-2.4c-0.5-1.4-1-3-1.4-4.4
		c-1-3-1.9-6-3.2-8.9C229.5,255,229.3,254,229,252.8 M224.5,231.8c0.4,3,0,6,0.4,8.9c0,0.1,0.2,0.2,0.5,0.5c1.8-0.4,3.8-0.7,5.8-1.1
		c1-0.2,1.6-0.7,1.7-1.8c0.1-1.1,0.4-2,0.5-3.1c0.1-1.2-0.4-2-1.4-2.5C229.7,231.6,227.4,231.2,224.5,231.8 M57.5,310.4
		c-0.4-2.6,0-5.3,0.7-7.9c1.2-4.4,2.8-8.7,5.6-12.3c2.4-3,5.2-5.8,9.2-6.7c0.2-0.1,0.5-0.1,0.7-0.2c2.5-1.3,5.2-1.4,7.9-0.5
		c1.3,0.5,2.8,0.5,4.2,0.7c1.7,0.2,3.2,0.6,4.9,0.8c2.3,0.2,4,1.4,5.4,3c1.4,1.7,2.9,3.4,4.2,5c1.1,1.4,2,3.1,2.6,4.9
		c0.4,1.2,0.8,2.5,1.4,3.7c0.8,1.7,1,3.4,0.8,5.2c-0.4,3.7-0.7,7.3-2.2,10.9c-1.2,3.1-2.5,6.1-4.7,8.7c-1.4,1.9-2.9,3.8-4.9,5.2
		c-4.8,3.1-9.8,4.6-15.6,3.2c-3.4-0.8-6.6-2-9.7-3.4c-3.1-1.2-5.3-3.5-6.8-6.4c-1-1.7-1.7-3.5-2.5-5.3
		C57.7,316.4,57,313.5,57.5,310.4 M88.8,300.2c-0.6-0.7-1-1.3-1.4-1.7c-1.3-1-2.6-1.6-4.4-1.2c-3.4,0.8-6.6,1.9-9.6,3.7
		c-0.6,0.4-1.2,0.7-1.7,1.3c-1.6,2-3,4.2-3.8,6.6c-0.4,1.1-0.6,2.3-0.6,3.4c0,1.4,0.4,3,0.5,4.4c0.1,1.1,0.6,2,1.7,2.5
		c0.8,0.4,1.6,0.8,2.3,1.3c0.7,0.6,1.6,0.7,2.5,0.7c1-0.1,2-0.1,2.9-0.5c2.4-1.1,5.2-1.3,6.8-3.7c0-0.1,0.1-0.1,0.2-0.1
		c0.5-0.2,1.3-0.1,1.6,0.5c0.4,0.7,0.5,1.6,0.8,2.2c0.5,1.1,1.6,1.6,2.6,1.3c2.2-0.6,4.1-1.6,5.5-3.4c0.1-0.2,0.1-0.7,0-1
		c-0.1-0.2-0.6-0.4-1-0.4c-0.7,0.2-1.3,0.6-1.9,0.8c-1.7,0.5-2.8-0.2-3-2c-0.1-0.5-0.1-1.1,0-1.6c0.2-1.4,0.4-2.8,0.7-4.2
		c0.6-2.5,1.6-4.8,2.6-7.2c0.4-1,0.8-1.9,0.6-3c-0.8-0.6-1.7-1-2.6-1C89.7,298.7,89.4,299.3,88.8,300.2 M417.4,232.6
		c0.1,1.8,0.1,3.6,0.4,5.5c0.1,1.4,1,2,2.5,2.2h1.1c0.4,0,0.7,0,1.1,0.1c0.6,1.1,1,2.3,1,3.5c0,1,0.1,1.9,0.1,2.9
		c0,0.7-0.2,1.6-0.5,2.3c-0.4,0.7-1,1.3-1.9,1.2c-1.3-0.1-2.4,0.2-3.6,1.2c-0.1,3.5-0.4,7.1-0.5,10.5c0.4,0.2,0.5,0.5,0.6,0.5h13.5
		c0.8-2.2-0.1-4.7,1.1-7c0.5-0.1,1-0.2,1.4-0.2h6.4c1,0,1.4,0.5,1.4,1.6v0.2l-0.4,14.3c0,0.2-0.1,0.5-0.2,1c-0.5,0.1-1,0.4-1.4,0.5
		c-9.6,1.9-19.3,2.2-29,2c-1.2,0-2.3-0.2-3.5-0.2c-2.2-0.1-4.2-0.6-6.4-0.2c-0.4,0-0.7-0.1-1.1-0.2c-0.1-0.4-0.4-0.8-0.4-1.2
		c-0.1-3.1-0.1-6.1-0.1-9.2c0-0.5,0.1-1,0.2-1.6c1.4-0.5,2.4,0.8,3.6,0.8c1.2,0.1,2.4-0.1,3.7-0.1c0.5-1.3,0.2-2.5,0.2-3.7
		c0-5.8,0-11.6,0.1-17.4c0-2,0.4-4.1,0.5-6.1c0.1-1.2,0.1-1.2-0.6-2.9c-2-0.7-4.6,0-6.7-1.2c0-3.2-0.7-6.5,0.6-9.6
		c1.4-0.5,2.9-0.5,4.2-0.5c2.3-0.1,4.6-0.2,6.8-0.2h3.5c3.6,0,7.2,0.1,10.8,0.1c3.1,0.1,6.1-0.1,9.2,0.8c0.8,0.2,1.7,0.2,2.6,0.4
		c0.7,0.1,1.4,0,2,0.2c2.3,0.8,2.8,1.2,2.8,3.2c0,4.4-0.1,9-0.2,13.4c0,0.6-0.2,1.2-0.4,1.8c-2.6,1-5.3,1-7.9,1.2
		c-1.1,0.1-1.9-0.7-2.2-1.9c-0.1-1.1-0.2-2.2-0.2-3.1c-0.1-1.3-0.1-2.6-0.1-3.8C428.9,232.2,420.4,231.9,417.4,232.6 M190.2,239.7
		c-0.1-2.2-0.4-4.3-0.5-6.5c-2.5-0.8-9.5-1.1-13.7-0.5c-0.1,0.2-0.4,0.4-0.4,0.6v6.1c0,0.7,0.4,1.2,1,1.4c1.1,0.5,2.2,0.7,3.4,0.5
		c1.1-0.1,2,0.1,3.1,0.8c0.2,2.6-0.1,5.4,0,8.1c-1,0.8-2,1.1-3.2,1.1s-2.3,0.1-3.5,0.2c-1,0.8-1.3,1.9-1.4,3.1l-0.4,7.9
		c0,0.4,0.1,0.7,0.1,1.1c1.6,0.7,3.1,0.2,4.7,0.4c1.7,0.1,3.4,0.1,5,0.2c1.6,0.1,3.1,0.1,4.9,0.2c0.1-0.6,0.5-1.2,0.5-1.8
		c0-2.9,0.6-5.8,1-8.6c0-0.1,0.1-0.4,0.2-0.6c1.2-0.1,2.4-0.2,3.5-0.6c1.2-0.2,2.4-0.7,3.7-0.2c0.1,0.5,0.2,1,0.2,1.6
		c0,3.5,0,7.1,0.1,10.5v8.1c0,0.5-0.1,1-0.1,1.4c-0.4,0.1-0.5,0.2-0.6,0.2c-2.2-0.1-4.4-0.2-6.6-0.5c-4.3-0.4-8.6-0.6-12.9-0.6
		c-4,0-7.9,0.1-11.9,0.1c-2.3,0-4.1-0.5-6.5-1.6c-0.4-2.5-0.6-5.2-0.5-7.9c1.8-0.2,3.6-0.6,5.4-0.8c0.1-0.5,0.2-0.8,0.2-1.2v-29.4
		c-1.4-0.8-3,0.2-4.6-0.5c-0.6-1.1-0.8-2.4-0.8-3.6c0-1.8,0.1-3.5,0.2-5.3c0.1-0.6,0.6-1.2,0.8-1.9c1.4,0,2.8-0.1,4.1-0.1
		c2.8,0,5.5-0.1,8.1,0c6.7,0.1,13.4,0.1,20.1,0.4c2,0,4.1,0.2,6.1,1c0.1,0.5,0.2,1,0.2,1.4c0.1,4.4,0.2,8.9,0.4,13.2
		c0,0.7,0,1.4-0.1,2.2s-0.7,1.2-1.4,1.3h-0.5c-2.4-0.4-4.7-0.7-7.1-0.8C190.6,240.2,190.4,239.9,190.2,239.7 M180.6,312.1
		c0.1-1.9,0.2-3.4,0.2-4.9c0-2.5,1-4.8,1.4-7.3c0-0.4,0.2-0.6,0.4-1c0.8-2,2.5-3.6,3.4-5.5c0.4-0.8,1.4-1.6,2.3-2.2
		c1.7-1.2,3.5-2.2,5.2-3.2c1.3-0.8,2.8-1.2,4.2-1.3c3.2-0.2,6.4-0.4,9.5,0.7c0.7,0.2,1.3,0.4,2,0.4c6.2,0.5,10.3,4.1,13.2,9.3
		c1,1.8,1.7,3.7,2.6,5.4c2.2,3.8,2.3,7.9,1.3,12.1c-0.7,3.1-1.4,6.1-3.1,9c-0.1,0.4-0.2,0.6-0.4,1c-0.7,2.5-2.2,4.3-4.1,6.1
		c-2.4,2.3-5,4.2-8,5.5c-4.6,1.9-9.3,2.3-14.3,0.7c-2.8-0.8-5.2-2.3-7.3-4.2c-0.6-0.5-1.3-1-1.8-1.6c-0.7-0.7-1.7-1.4-2.3-2.3
		c-2.2-3.4-4.1-6.8-4.6-10.9C180.6,315.9,180.7,313.8,180.6,312.1 M215.2,313.3c-0.1-1.7-0.1-2.9-0.2-4.1c-0.2-2.8-1.2-5.2-3.1-7.1
		c-0.7-0.7-1.4-1.6-2.2-2.3c-1.1-1.1-2.2-2.2-3.8-2.3c-2-0.1-4.2-0.7-6.2,0.2c-0.1,0.1-0.4,0.1-0.5,0.2c-2.2,1.7-4.4,3.2-5.3,6.1
		c-0.2,0.8-0.6,1.7-1.1,2.4c-0.8,1.1-1.1,2.2-1.1,3.5c0,0.7,0,1.4-0.1,2.2c-0.1,2.2,0.4,4.2,1.4,6.1c1,1.7,1.9,3.1,3.1,4.6
		c1.3,1.4,2.8,2.8,4.7,3.4c4.4,1.3,8.3,0.2,11.6-3c1-1,1.6-1.9,1.8-3.1C214.7,317.4,215,315.2,215.2,313.3 M99.8,222.3
		c0.4,2.2,0.1,11.9-0.2,14.6c-3.5,0.8-7.1,2-10.9,1.7c-1.1-2-0.4-4.3-1-6.5H76c-0.5,2-0.4,4.1-0.7,6c1.1,0.7,2.2,0.4,3.2,0.6
		s1.6,0.6,1.6,1.8c0,1.9-0.1,3.8-0.6,5.8c-1.3,0.8-2.9,0.1-4.4,0.7c-0.6,1.2-1.2,2.6-1.1,4.3c0.1,2.9,0.1,5.8,0.2,8.7
		c1.4,0.8,3.1,0.4,4.7,0.5c1.7,0.2,3.4,0.2,5,0.4c1.6,0.1,3.1,0.1,4.7,0.2c1-1.7,0.1-3.4,0.8-4.9c1.6-0.8,3.4-0.5,5-0.7
		s3.2-0.6,4.8-0.2c0.7,0.8,0.6,1.6,0.6,2.4c0,3.1,0.1,6.4,0.1,9.5c0,0.6,0,1.2-0.1,1.8c-0.1,1.3-0.7,1.9-1.9,2c-0.6,0.1-1.2,0-1.8,0
		c-6.4-0.4-12.7-0.4-19.1-0.1c-3.4,0.1-6.7,0.4-10.1,0.7c-2.4,0.2-4.7-0.1-7-0.4c-0.5-1.8-0.5-4.2-0.1-9.5c0.8-0.2,1.7-0.6,2.8-1
		c0.1-0.8,0.1-1.7,0.1-2.5c0-4.3-0.1-8.6-0.1-12.9v-6.8c0-2.3,0.2-4.6,0.4-7.1c-0.4-0.2-1-0.4-1.2-0.6c-1-1-1.9-1.8-1.8-3.2
		c0-1.3-0.2-2.6-0.4-4.1c0.6-0.1,1.1-0.2,1.6-0.4c3.4-0.5,6.8-0.8,10.2-1.3c2.4-0.4,4.9-0.5,7.4-0.4c6.2,0.5,12.5,0.4,18.8,0.2
		c0.7,0,1.4,0,2.2,0.1C99.6,222,99.7,222.2,99.8,222.3 M375.1,288.4c0.1,1.4,0.2,2.6,0.2,3.7c0,3.5,0,7.1-0.1,10.5
		c0,1.9-0.8,2.8-2.6,2.9c-2.2,0.1-4.4,0.2-6.6,0.2c-1-1.4-1.2-2.9-1.1-4.6c0.1-1.1,0-2.3,0-3.6c-0.7-0.1-1.3-0.2-1.9-0.2
		c-4.3,0.4-8.6,0.4-12.9,0.1c-0.1,0-0.4,0.1-0.6,0.2c-0.4,3.1-0.4,6.2,0.5,9.3c1.7,0.6,3.5,0,5.3,0.2c0.8,1,1.1,2,1.1,3.4
		c0,0.6-0.1,1.2,0,1.8c0.2,1.7-0.8,2.8-1.7,4c-0.2,0.4-1.1,0.6-1.7,0.7c-0.8,0.1-1.8,0.1-2.6,0.1c-1.2,0.1-1.7,0.5-1.7,1.6
		c-0.1,2.5-0.1,5-0.2,7.8c1.4,0.6,2.9,0.4,4.2,0.6c1.4,0.2,2.8-0.2,4.2-0.4s2.8-0.2,4.2-0.5c1.3-0.2,2.8-0.6,4.2-1
		c0.4-1.7,0.7-3.4,0.5-5c-0.1-1.2-0.1-2.3,0.7-3.4c2.9-0.2,5.9,0.5,8.7,0.6c0.8,2.4,0.7,12.5,0.2,16.1c-0.7,1-1.8,1.1-2.9,1.1h-5.9
		c-5.2,0.2-10.4,0.6-15.6,0.8c-0.8,0-1.8,0.1-2.6,0.1c-3,0-6,0.5-8.9,0.8c-1.7,0.2-3.4,0.2-4.9,0.1c-0.6-1.9-0.7-6.6-0.2-9.5
		c1.1-1,2.6,0,4-0.6c0-0.4,0.1-0.8,0.1-1.2c0.2-6.1-0.6-12.1-0.7-18.2c0-2.3,0-4.6,0.2-6.8c0.1-1.1,0.5-2,0.8-3.4
		c-0.1-0.4-0.6-0.6-1.3-0.7c-1.1-0.1-2.3-0.2-3.5-0.4c-0.5-2.2-0.4-4.2-0.1-6.5c4.7-0.4,9.2-0.1,13.8-0.4c4.6-0.4,9.1-0.5,13.7-0.7
		C365.6,288.5,370.2,288.5,375.1,288.4 M103.3,230.7c-0.6-2.5-1-5.2-0.8-7.7c0.7-0.8,1.4-0.7,2.2-0.7l14.7-0.4h5.3
		c0.7,0,1.3,0.2,2,0.2c0.8,1.8,1.1,3.6,1.2,5.4c0,1.8-0.7,2.5-2.5,2.9c-0.6,0.1-1.2,0.1-1.8,0.1c-1.2,0.1-1.7,0.7-1.4,1.9
		c0.1,0.6,0.2,1.2,0.5,1.8c1.8,3.6,3.2,7.4,4.6,11.3c0.6,1.9,1.4,3.8,2.2,5.6c0.1,0.2,0.4,0.5,0.8,1c0.4-0.8,0.7-1.4,1-2
		c1.8-4.3,3.5-8.6,5.3-12.9c0.7-1.8,1.1-3.7,1.6-5.6c-1.6-0.7-3,0.1-4.7-0.5c-0.8-2.8-1-5.6-0.7-8.7c4-0.1,7.8,0.1,11.7,0.1
		c3.8,0,7.5,0.1,11.4,0.6c1,1.3,0.5,2.8,0.6,4.2c0.1,1.3,0.4,2.6,0,4.1c-0.6,0.1-1.1,0.1-1.7,0.1c-0.7,0.1-1.4,0.2-2,0.5
		c-0.8,0.5-1.6,0.7-2.5,0.7c-0.8,0-1.3,0.4-1.6,1.1c-0.7,1.6-1.3,3.1-1.9,4.6c-2.4,5.8-4.9,11.5-6.7,17.5c-0.5,1.7-1.1,3.4-1.4,5
		c-0.5,1.9-1.1,3.8-2.2,5.6c-0.6,1-1.1,2-1.1,3.2c0,0.7-0.4,1.3-0.6,1.9c-1.9,0.6-6.2,0.7-10.2,0.2c-0.2-0.4-0.5-0.8-0.6-1.3
		c-1.2-3.6-2.3-7.2-3.6-10.8c-1.1-3.2-2.3-6.5-3.6-9.6c-1.6-3.6-2.8-7.2-3.8-10.9c-0.6-2.3-1.7-4.4-2.5-6.7c-0.2-0.7-0.7-1-1.4-1.1
		c-0.8-0.1-1.8-0.2-2.6-0.2C105.2,231.1,104.2,231.3,103.3,230.7 M308.1,291.9c0.5-2.2,0-4.1,0.7-5.8c2-0.6,2.4-0.6,6.8,0.2
		c1,1.3,0.1,3.1,1,4.6c0.8,1.4,0.5,3.1,0.8,4.7c0.4,1.6,0.6,3.1,1,4.7c0.4,1.6,0.7,3,1.1,4.6c-2.9,0.8-5.5,1.7-8.1,2.4
		c-0.7-1.3-1.4-2.6-2.2-3.8c-1.8-2.8-4.3-4.3-7.7-4.6c-1.3-0.1-2.6-0.1-4,0c-1.8,0-3.4,1-5,1.6c-0.6,0.2-1.1,1-1.4,1.4
		c-1,1.4-1.8,2.8-2.6,4.3c-1.1,1.8-1.3,3.8-1.4,5.9c-0.1,2.5-0.2,4.9,0.6,7.3c0.7,2.4,2.2,4.2,4.1,5.6c0.4,0.2,0.7,0.5,1.2,0.6
		c1.3,0.4,2.8,0.7,4.1,0.8c1.2,0.1,2.5,0,3.2,1.3c3.4-1.7,6.1-3.7,8-6.7c0.5-0.7,0.7-1.8,1-2.8c0.2-1,0.4-1.9,0.5-2.8
		c2,0.2,6.6,1.9,9.1,3.4c-0.1,0.5-0.1,1.2-0.4,1.7c-1.1,2.4-2.2,4.9-3.4,7.2c-1.3,2.6-3.6,4.6-6.1,6.1c-0.8,0.6-1.7,1.3-2.5,1.8
		c-1,0.6-1.9,1.2-3,1.6c-2.3,0.8-4.7,0.8-7.1,1h-0.5c-4.3-1.1-8.7-2.2-12.5-4.9c-3-2.2-4.9-5.2-6.7-8.4c-1.4-2.6-1.8-5.4-2-8.3
		c-0.1-2.5-0.4-4.9-0.1-7.4c0.2-3.7,1.3-7.1,2.5-10.4c0.2-0.6,0.7-1.2,1.2-1.7c2.3-2.6,4.3-5.3,7.4-7.1c0.8-0.5,1.7-1,2.6-1
		c3.8-0.5,7.7-0.5,11.5,0c2.2,0.1,4.1,1,6,2C306.5,291.2,307.1,291.6,308.1,291.9 M149.8,295.4v-10.2c2-0.4,4.1-0.4,6-0.4l-0.4,0.7
		c2.4,1.1,4.9,1.1,7.4,1.3c2.5,0.2,5,0.4,7.5,0.5c0.5,2.9,0.5,6.4,0.1,8.6c-1.8,0.6-3.7-0.1-5.8,0.2c-0.2,0.6-0.6,1.3-0.8,1.9
		c-1.9,5-4,9.9-5.8,15c-1.6,4.1-3,8.3-4.4,12.5c-0.6,1.8-1.1,3.6-1.6,5.3c-0.2,1-0.7,1.8-1.1,2.6c-0.5,1.3-1.6,2-3,1.7
		c-1.6-0.4-3-0.2-4.4,0c-1,0.1-1.6-0.4-1.8-1.2l-1.4-4c-0.7-1.8-1.4-3.6-2.4-5.3c-1.1-1.8-1.4-3.7-2.3-5.6c-1.2-2.5-2.2-5.2-3-7.9
		c-1.2-3.5-2.4-7-3.5-10.5c-0.6-2-1.9-3-4-3.2c-1.1-0.1-2-0.4-3.1-0.7c-1-0.2-1.8-0.6-2.8-0.8c-0.6-1.8-0.1-3.6-0.4-5.4
		c-0.2-1.7-0.2-3.5-0.4-5.3c1-0.5,1.9-0.4,2.9-0.4c3.5,0,6.8-0.1,10.3,0c2.8,0.1,5.6,0.6,8.4,1.1c1.3,0.2,1.7,0.7,1.9,2.2
		c0.4,2.5,0.2,4.9-1,7.3c-0.7,0.1-1.4,0.4-2.2,0.5c-0.8,2.2-0.1,4.1,0.7,5.8c1.8,3.2,2.8,6.8,4,10.3c0.2,0.6,0.1,1.3,0.8,1.6
		c0.5,0.2,1.4-0.2,1.9-1.1c0.7-1.1,1.2-2.3,1.8-3.6c1.3-3.1,2.5-6.2,4.2-9.1c0.2-0.5,0.4-1,0.6-1.4c0.5-1.6,0.2-2.3-1.4-2.8
		C151,295.8,150.4,295.7,149.8,295.4 M273.9,222c0.5,4.1,0.5,8.7,0.1,10.5c-1.1,0.7-2.4,0.2-3.7,0.6c0,0.4-0.1,0.7,0,1
		c1.7,2.5,3.4,4.9,5.2,7.4c1.4-1.3,2-3.2,3.2-4.7c1.2-1.6,2.3-3.1,3.5-4.8c-1.3-0.2-2.4-0.5-3.5-0.7c-0.2-3.2-0.4-6.2-0.5-9.3
		c1.1-0.7,2.3-0.5,3.4-0.6c0.7-0.1,1.4-0.1,2.2,0c3.8,0.2,7.5,0.5,11.4,0.8c1.1,0.1,2.3,0.1,3.4,1c0.4,2,0.2,4.2,0.2,6.2
		c0,1.2-0.7,2.2-1.3,3.1c-1,0.1-1.9,0.2-2.9,0.5c-2.5,0.5-4,2.4-5.4,4.2c-1.4,2-2.8,4.1-4.2,6.1c-0.2,0.2-0.5,0.6-0.5,1
		c-0.8,2.4-1.9,4.4-3.5,6.5c-0.4,0.5-0.4,1.2-0.5,1.8c-0.1,1-0.1,1.9-0.2,2.9c-0.1,1.4-0.4,2.8-0.6,4.2c-0.2,1.3-0.5,2.6-0.2,4
		c0.7,0.8,1.8,0.6,2.8,0.7c1.8,0.1,3.5,0.6,5.2,1.3c0.5,2.8-0.2,5.3-0.4,8c-1.7,0.6-3.5,0.2-5.3,0.2h-5.5c-1.8,0-3.5,0.2-5.3,0.2
		c-1.8,0-3.5,0.4-5.4,0.1c-0.1-1.4,0.2-2.8,0.2-4s0.1-2.4,0.1-3.6c1-0.8,2-0.6,3.1-0.7c1.8-0.1,2.5-0.8,2.6-2.6
		c0.1-1.4,0.2-3,0.2-4.4v-5.5c0-1.6-0.4-2.9-1.2-4.2c-3.2-5.2-6.8-10.1-9.6-15.5c-0.5-1.1-1.4-1.6-2.5-1.7h-3.7
		c-0.4,0-0.7-0.1-1-0.1c-0.4-2.6-0.1-7.9,0.4-9.7c2-0.4,4.3-0.1,6.5-0.1c2.2,0,4.4-0.1,6.6-0.1C269.4,221.7,271.5,221.5,273.9,222
		 M240.1,286.4c1.2-0.5,2.4-0.6,3.6-0.6c6.7,0.1,13.5-0.5,20.4,0.6c0.1,0.7,0.4,1.2,0.5,1.8c0.1,1.2-0.5,6.1-0.8,7.7
		c-2.6,0.8-5.8,0-8.5,1.6c0,2.4-0.1,4.9-0.1,7.3v7.4c0,2.5-0.1,4.9-0.2,7.4c0,2.4-0.4,4.9-0.2,7.4c2.4,0.2,4.6,0.5,6.8,0.6
		c0.6,2.2,0.2,4.3,0.4,6.4c0.1,0.7-0.1,1.6-0.2,2.3c-2,0.6-3.8,0-5.6,0.1c-1.8,0.1-3.7,0.1-5.5,0.1c-1.8,0-3.5,0.1-5.3,0.1
		s-3.7-0.1-5.4-0.2c-0.2-0.4-0.4-0.5-0.4-0.6c0-2.8-0.1-5.5-0.1-8.1c0-1.2,0.4-1.6,1.6-1.7h3.1c1.2-1.8,1.7-3.6,1.7-5.6
		c0.1-5.3,0.6-10.5,0.7-15.8c0.1-2.2-0.1-4.2-0.4-6.4c-0.1-1-0.6-1.4-1.6-1.4c-1.1-0.1-2.3-0.1-3.5-0.2c-1,0-1.4-0.6-1.7-1.4
		C238.8,292.2,238.3,289.3,240.1,286.4 M343.5,195.6c-0.2,0.7-0.5,1.3-0.5,2c-0.1,1.3-0.2,2.6-0.1,4c0.1,2.3,1.7,3.7,4,3.7
		c1.8,0,3.2-0.7,4.7-1.7c1.3-0.8,2.5-1.7,3.8-2.6c0.4,0.1,1,0.4,1.3,0.6c1,0.7,1.1,1.2,0.2,2.2c-2.4,2.5-5.2,4.6-8.7,4.8
		c-1.8,0.1-3.5,0.5-5.3,0.2c-1.4-0.2-2.5-0.8-2.9-2.3c-1-3-1.8-6.1-1-9.3c0.1-0.7,0.2-1.3,0.4-2c-1.3-0.8-2.5-1.7-3.8-2.5
		c0.4-0.6,0.7-1.2,1-1.8c0.5,0.1,0.8,0.1,1.3,0.2c1.8,0.5,3,0.1,3.6-1.6c1.3-3.7,4.6-5.4,7.4-7.7c0.2-0.1,0.5-0.2,0.7-0.2
		c1.4,0,2.9,0,4.2,0.1c1.6,0.2,2.6,1.6,2.8,3.1c0.1,1.9-0.1,4-1.3,5.5c-1.2,1.4-2.5,2.8-3.8,4c-0.6,0.6-1.6,0.8-2.4,0.8
		c-1.2,0-2.3,0-3.5,0.1C344.6,195.5,344.1,195.5,343.5,195.6 M345.6,191.5c0.7,0.1,1.1,0.1,1.4,0.2c1.7,0.7,3,0.1,4.2-1.2
		c1.1-1.1,1.9-2.3,2.2-3.8c0.1-0.5,0-1,0-1.4c-1.3-0.7-2.3-0.5-3.2,0.4C348.2,187.2,347,189.2,345.6,191.5 M303.6,195.2
		c1.1,1.1,1.2,1.4,0.8,2.2c-0.2,0.4-0.5,0.7-0.8,1.1c-1.9,2-4.3,2.6-7,3c-1.7,0.2-2.5-0.5-3.7-2.5c-0.4,0.4-0.7,0.6-1.1,1
		c-1.6,1.8-3,3.6-4.7,5.4c-0.7,0.8-1.7,1.6-2.5,2.3c-1.8,1.3-3.7,1.9-5.9,1.6c-1.3-1.8-1.4-3.6-1.1-5.6c0.4-2.5,0.7-5,1-7.5
		c0.1-0.6,0.1-1.2,0.1-1.8c0-0.7,0.1-1.7-0.7-2.2c-1.1-0.5-2.2-0.7-3.2,0c-1,0.6-1.8,1.3-2.9,2.2c-0.2-0.7-0.5-1.2-0.7-1.8
		c0.5-0.4,0.8-0.8,1.2-1.1c2-1.6,4.1-3,6.2-4.6c1-0.7,2-1,3.2-0.8c1,0,1.4,0.6,1.4,1.6c0,0.5,0,1.1-0.1,1.6
		c-0.6,3.2-1.2,6.4-1.8,9.6c-0.4,1.7-0.6,3.4-0.8,4.9c0,0.4,0,0.7,0.1,1.1c0.4-0.1,0.7,0,0.8-0.2c2.4-1.9,5-3.6,6.8-6.1
		s3.6-5,4.8-7.8c0.4-0.7,0.6-1.4,1.4-1.8c0.5-0.1,1.1-0.5,1.4,0c0.2,0.2,0.2,0.8,0.2,1.2c-0.1,0.7-0.4,1.3-0.6,2
		c-0.5,1.6-0.4,3.1,0,4.7c0.1,0.7,0.6,1.1,1.2,1.2c1.7,0.5,3.1,0.1,4.6-0.8C302.1,196.3,302.8,195.8,303.6,195.2 M224.7,203
		c2.6-0.2,4.6-1.6,6.1-3.4c0.7-0.8,1.4-1.8,2.3-2.6c0.4,0.1,0.7,0.2,1,0.4c1.3,1,1.6,1.7,0.6,2.9c-1.3,1.7-2.5,3.4-4,4.9
		c-1.4,1.7-3.5,2.6-5.6,3.4c-2.4,0.7-4.4-0.5-4.8-3c-0.2-1.7-0.4-3.6-0.1-5.3c0.8-5.2,2-10.2,4.3-14.9c0.1-0.4,0.4-0.6,0.5-0.8
		c0.8-0.4,1.8-0.6,2.6-0.2c0.7,0.4,1.3,0.8,2.2,1.3c-0.1,0.5-0.1,1-0.4,1.4c-0.7,1.7-1.6,3.4-2.3,5c-0.7,1.6-1.6,3-2.2,4.6
		C224,198.6,223.6,200.8,224.7,203 M233.3,169.2c1.8,0,2.8,1.4,1.9,3c-0.6,1-1.2,1.9-1.9,2.8c-0.6,0.7-1.2,1.3-2.3,1
		s-1.9-1.4-1.9-2.6C229.1,170.9,231,169.2,233.3,169.2"/>
	<path d="M85.5,302.3c0.8,2,0.8,3.7,0.2,5.5c-1,3.1-2.6,6-4.6,8.6c-1,1.2-2.2,2-4,1.7h-0.8c-3.1-0.1-4.8-1.6-5.4-4.7
		c-0.4-2.3,0-4.4,1-6.5c0.2-0.4,0.5-0.7,0.8-1c1.3-1.2,2.8-2.4,4.2-3.7c1.6-1.4,3.2-1.9,5.3-1.1C83.4,301.5,84.5,301.8,85.5,302.3
		 M178.3,167.1c-1.8-0.8-3.6-1-5.5-1.3c-2.5-0.5-4.8,0.1-7,1.6c-0.6,0.5-1.3,0.8-2,1.1c-2.4,2-4.3,4.7-6.1,6.7c-1.1,1.3-2,2.8-3,4.1
		c-0.1,0.1-0.1,0.4-0.2,0.5c-0.5,0.6-0.8,1.3-1.3,1.9c-0.1,0.2-0.1,0.6-0.2,0.8c-0.7,1.4-1.7,2.9-2.3,4.4c-1,2-1.6,4.1-2.2,6.2
		c-0.6,3-0.8,5.9-0.7,8.9c0,1.9,0.6,3.8,2.2,4.9c1.2,0.8,2.8,1.3,4.3,1.4c4.6,0.5,9.1,0.2,13.1-2.8c0.2-0.2,0.6-0.2,1-0.4
		c0.1,3.6,0.4,7,0.5,10.5c1.3-0.7,2.5-1.3,3.6-1.9c0.2-0.1,0.5-0.6,0.5-1c0-2-0.1-4.1,0-6c0.1-2.8,0.2-5.5,0.5-8.3
		c0.1-0.8,0.7-1.7,0.6-2.4c-0.2-1.1,0.5-1.8,0.5-2.8c0.1-0.8,0.4-1.6,1-2.2v-0.4c-1,0-2-0.1-3-0.1c-0.2,0-0.6,0.4-0.7,0.6
		c-1.2,2-2.5,4.1-3.7,6.1c-0.2,0.4-0.2,1.1-0.5,1.1c-1,0.1-1,1-1.4,1.6c-0.7,1-1.4,2-2.4,2.5c-3,1.4-6,2.4-9.3,0.5
		c-1.3-0.7-1.9-1.6-1.8-2.9c0.1-1.7,0.2-3.5,0.7-5c0.5-1.9,1.4-3.7,1.3-5.9c0-0.2,0-0.5,0.1-0.7c0.7-1.6,1.6-3.1,2.3-4.7
		c0.1-0.4,0-0.8,0.1-1.2c0.4-0.5,0.7-1,1.2-1.3c1-1.4,2.2-2.5,3.4-3.6c0.1-0.4,0.4-0.7,0.7-1h-0.1c1.3-1.1,2.5-1.9,3.5-2.9
		c1.2-1.1,2.2-2.4,3.6-3.2c1.9-1.1,4.1-1.2,6.1-1.3c0.4,0,1,0.5,1,0.8c0.1,1,0.5,2-0.4,3c-0.2,0.2-0.6,0.7-0.5,1
		c0.4,1-0.5,1.2-1,1.4c-1.1,0.6-2.3,1.1-3.5,1.6c-0.4,0.1-0.7,0.2-1,0.2c-0.6,0.5-1.1,0.8-1.7,1.3c-1,1.1-1.2,2.3-0.8,3.5h1.7
		c2.4,0,4.8-0.4,6.8-1.9c0.5-0.4,0.8-1,1.2-1.3c0.2-0.4,0.7-0.6,1-1c1.8-1.9,2.6-4.1,2.6-6.7C180.9,169,180.6,168.3,178.3,167.1"/>
</g>
</svg>
