<?xml version="1.0" encoding="utf-8"?>
<!-- Generator: Adobe Illustrator 25.2.1, SVG Export Plug-In . SVG Version: 6.00 Build 0)  -->
<svg version="1.1" id="Layer_1" xmlns="http://www.w3.org/2000/svg" xmlns:xlink="http://www.w3.org/1999/xlink" x="0px" y="0px"
	 viewBox="0 0 500 500" style="enable-background:new 0 0 500 500;" xml:space="preserve">
<g id="Layer_2_1_">
	<g id="Layer_1-2">
		<path d="M46,192.6c-0.2-1.5-0.1-3,0.3-4.5c1.5-7.6,4.5-14.8,9-21.1c1.7-2.3,3.3-4.8,5.2-7.1s3.8-4.8,5.8-7
			c2.1-2.3,4.7-4.2,7.6-5.5c4.1-1.9,8.2-3.6,12.5-5.2c4-1.3,8.1-2.7,12.3-3.8c1.8-0.5,3.6-0.7,5.5-0.7c6.6-0.2,13.5-0.2,20.1,0
			c6.7,0.1,13.4,1,19.9,2.7c4.8,1.2,8.6,3.7,12.8,6.3c1,0.7,2,1.4,3,2.2c1,0.7,1.8,1.6,2.5,2.7c1.5,2.6,3.4,5,5.7,7.1
			c2.9,3.4,5.5,7.2,7.6,11.1c0.8,1.5,1.8,2.8,2.7,4.3c0.5,1,1,2,1.3,3c0.3,1,0.5,2.2,0.8,3.2c1,0,1.2-0.5,1.3-1.2
			c1.2-3,2.7-6,4.3-8.8c2.7-5.3,6.3-9.8,9.6-14.6c2.4-3.5,5-6.7,7.8-9.8c2.8-2.8,6-5,9.6-6.6c3-1.4,5.5-3.5,7.3-6.3
			c0.8-1.3,1.7-2.5,2.3-3.8c1.8-3.1,4.3-5.7,7.1-7.8c1.9-1.4,4.3-1.9,6.6-1.5c0.7,0.1,1.4,0.4,2,0.8c1,0.8,1.8,1.8,2.8,2.8
			c0.9,0.9,1.3,2.1,1,3.3c-0.3,1-0.2,2.1,0.3,3c0.5,0,1,0.2,1.7,0.2c5.3,0,10.6,0.3,15.8,1c2,0.3,4.2-0.2,6.1,0.5
			c0.8,0,1.7-0.1,2.5-0.3l4.3-1c2.2-0.6,4.5-0.4,6.5,0.7c1.5,0.8,3.3,0.5,4.7,1.8c1.8,1.5,3.5,3,3.5,5.7c0.1,1.2,0.9,2.3,2,2.8
			c1.5,0.8,2.8,1.8,4.3,2.7c3.7,2.1,7,4.9,9.6,8.3c3.7,5.1,6.6,10.9,8.3,17c0.5,1.8,0.7,3.7,1,5.3c0.3,1.2,0.6,2.5,1,3.7
			c1.5-3.3,2.8-6,4.2-8.8c2.5-5.2,4.7-10.5,8.5-15c0.5-0.7,0.8-1.5,1.3-2.2c0.6-1.1,1.4-2,2.3-2.8c3.7-3.7,7.7-7.1,11.8-10.3
			c5.3-4.2,11.6-7,18.3-8.1c1.1-0.2,2.2-0.3,3.3-0.3c3.2-0.2,6.3-0.2,9.5-0.3c6.1-0.2,12.3-0.5,18.3-0.3c6.1,0,12.2,1,17.9,3
			c4.5,1.7,8.7,4,12.5,7c1.5,1,2.9,2.2,4.2,3.5c1.2,1.4,2.5,2.6,4,3.7c1.3,0.7,1.3,2.2,2.3,3.2c1.6,1.8,3.1,3.7,4.3,5.8
			c5.8,8.3,8.9,18.2,8.8,28.3c0,2,0.7,3.8-0.2,6c-1,0.2-2.1,0.3-3.2,0.3l-23.1,1.5c-2.3,0.2-4.7,0-7,0c-17.1-0.7-34.2-0.5-51.4,0.5
			c-5.7,0.4-11.4,0.1-17.1-0.7c-2.8-0.3-5.7-0.3-8.5-0.5c-7.3-0.2-14.6-0.2-21.9-0.3c-10.8-0.3-21.8,0-32.6,0.2
			c-7.6,0.2-15.1,0.7-22.8,1c-9.8,0.5-19.4,1.3-29.2,1.8c-1.2,0.1-2.5-0.1-3.7-0.5c-3.9-1.2-7.9-1.8-12-2c-9-0.7-18.1-0.3-27.1-0.2
			c-5.8,0.2-11.8,0.2-17.6,0.8c-4.3,0.3-8.5,1-12.6,2.2c-2,0.5-4.1,0.7-6.1,0.5c-9,0.2-17.8,0-26.8,0.3s-18.3-0.5-27.4-1
			c-13.6-0.7-27.1-1.2-40.7-1.2h-6.6C47.5,192.8,46.8,192.6,46,192.6 M217.7,164.4c0.2,1.2,0.3,2.2,0.5,3.3c0.3,2.8,0.8,5.8,1,8.6
			c0.4,2.2,1.3,4.2,2.7,6c0.5,0.6,1.1,1,1.8,1.2c2.2,0.5,4.3,1,6.5,1.3c1.9,0.4,3.9-0.2,5.3-1.7c1.5-1.4,3.1-2.8,4.8-4
			c2.2-1.4,3.8-3.5,4.7-6c0.2-0.7,0.3-1.4,0.3-2.2c-0.8-0.4-1.7-0.6-2.7-0.7c-1.8-0.3-2.3-0.2-3.2,1.7c-1,2.1-2.5,3.9-4.3,5.3
			c-1.4,1.4-3.5,1.4-5,0.2c-1.2-1-2.3-2.2-3.2-3.5c-2.2-4.2-2.8-9.2-1.5-13.8c0.3-1.9,2-3.4,4-3.3c0.4,0.5,0.8,1.1,1,1.7
			c1.3,2.5,3.4,4.5,6,5.7c3.9,2,8.1,3.5,12.5,4.3c1.8,0.7,3.8,0.8,5.7,0.2c0.8-0.3,1.7-0.4,2.5-0.2c3.4,0.2,6.9-0.5,10-2
			c2.2-1,4.5-2,6.6-3.2c0.8-0.6,1.6-1.2,2.3-1.8c2.3-2.3,4.4-4.8,6.3-7.5c2.1-2.5,3.1-5.6,2.8-8.8l-1-6.5c-0.2-1-0.8-1.8-1.7-2.3
			c-0.7-0.3-1.2-0.8-1.8-1.2c-1.9-1.3-4.4-1.5-6.5-0.3c-4.7,2.5-8.6,5.5-10.8,10.8c-1.8,4.7-4,9.1-4,14.3c-0.1,0.3-0.2,0.6-0.3,0.8
			c-2.5,0.9-5.3,1.2-8,0.8c-1.5-1.5-2.6-3.4-3-5.5c-0.3-1.5-1.4-2.7-2.8-3.2c-2.6-1.3-5.6-1.8-8.5-1.3c-0.8,0.1-1.6,0.1-2.3,0
			c0-1.5,0.4-3,1.2-4.3c1.2-2.2,2.1-4.4,2.8-6.8c0.9-3.7,1.6-7.4,2-11.1c0.1-1.1,0.1-2.2-0.2-3.3c-0.2-1.3-0.8-1.8-2.2-2.2
			c-2.4-0.9-5.1,0-6.5,2.2c-1,1.5-1.8,2.8-2.8,4.2c-3,3.9-5.3,8.2-7,12.8c-1.4,3.1-2.4,6.3-3.2,9.6c-0.3,1.8-1.7,3.3-3.5,3.8
			c-1.5,0.7-3.2,1.2-4.8,1.8c-2.2,1.1-4.6,1.7-7,1.8c-0.3,0-1-0.2-1,0.8C206.9,164,212.3,164.6,217.7,164.4 M262.1,173.5
			c1,1.3,2.1,2.4,3.3,3.5c3.3,2.8,7,4.3,11.5,2.7c2-0.7,4-1,6-1.5c2.5-0.5,4.8-1.8,6.5-3.8c3.5-3.8,5.5-8.8,5.7-14
			c0-0.5-0.1-0.9-0.3-1.3c-1.3,0.3-1.7,1.3-2,2.2c-1,2.4-2.4,4.5-4.3,6.3c-2.1,2.2-4.8,3.8-7.6,4.8c-3,1.1-6.4,0.6-9-1.3
			c-0.5-0.4-1-0.8-1.5-1.2c-0.5-0.2-1.2-0.5-1.7-0.3C266.2,170.3,264,171.7,262.1,173.5 M317.6,316.4c1.2-0.6,2.5-0.8,3.8-0.7
			c18.4,0.2,36.9,0.3,55.3,0.3c17.8,0,35.7-0.2,53.5-0.3c3.7,0,7.3,0,11-0.2c0.5,0,1,0.2,1.7,0.2c0.2,0.5,0.7,1,0.7,1.7
			c-0.2,2.5-0.3,5.2-0.7,7.6c-0.3,2.7-0.7,5.3-1.3,8c-0.7,2.8-1.8,5.5-2.7,8.3c-2.8,3.8-5,8.1-8.1,11.6c-1.5,1.7-2.7,3.5-4.2,5.2
			c-3,2.9-6.2,5.4-9.6,7.6c-1.5,0.8-2.7,2.2-4.2,3c-8.1,5.8-17.9,8.8-27.9,8.6c-6.1,0-12.5-0.5-18.6-1c-2.7-0.2-5.3-0.6-8-1.2
			c-7.6-1.7-14.3-6.1-18.9-12.3c-3.6-4.4-6.7-9.2-9.3-14.3c-1.2-2.3-2.7-4.3-4-6.5c-0.8-1.3-1.4-2.6-2-4c-2.5-6-4.5-12.1-6-18.4
			C318,318.7,317.8,317.5,317.6,316.4 M52.5,311.1c0.7,0,1.3-0.2,1.8-0.2c8.5-0.5,16.8-0.8,25.3-1.3c7.6-0.3,15.1-0.7,22.8-0.8
			c2,0,4,0,5-2.2c4.5-3.5,9.3-6.3,15.5-5.2c2.3,0.3,4.4,1.6,5.7,3.7c0.9,1.3,1.7,2.7,2.3,4.2c2.9,0.9,5.8,1.1,8.8,0.8
			c5.5-0.5,11-1,16.5-1.7c1.3-0.2,2.7-0.3,4-0.3c8,0,16-0.2,23.8-0.2c0.7,0,1.2,0.2,2,0.2c0.2,0.8,0.4,1.6,0.5,2.5
			c0,3.8-0.2,7.6-0.5,11.3c-0.2,3.3-1.6,6.5-3.8,9c-1.7,2-3.3,3.8-5,5.8c-5.4,6.6-11.5,12.7-18.3,17.9c-0.8,0.7-1.7,1.5-2.5,2.2
			c-2.3,2.1-4.9,3.9-7.6,5.3c2.3,2.8,5.7,3.5,8.3,5.3c0,3-0.2,3.3-2.5,4.2c-3,1.1-6.2,1.5-9.3,1.2c-2.5-0.3-4.8-0.3-7.3-0.8
			c-2.2-0.5-4.3-1.2-6.3-2c-1.1-0.6-2.4-0.6-3.5-0.2c-6.8,2.5-13.8,2.5-20.9,2.3c-4.5-0.2-9-1.2-13.1-3c-3.8-1.5-7.8-3-11.6-4.5
			c-3.7-1.6-7-4.1-9.6-7.1c-2.5-2.7-5-5.3-7.1-8.1c-3.7-4.4-6.7-9.4-8.8-14.8l-3-7.5c-1.8-4.7-2.4-9.8-1.8-14.8
			C52.2,312.1,52.4,311.6,52.5,311.1 M128.3,308.3c-0.8-0.5-1.5-1-2-1.3c-2.7-2.2-5.8-1.7-8.8-1.3c-0.9,0.2-1.8,0.7-2.5,1.3
			c-3,3.7-5.7,7.5-5.5,12.5c0.2,1.7-0.7,3.4-2.3,4.2c-3.6,2.3-6.9,5.2-9.6,8.5c-3.9,4.7-5.7,10.7-5.2,16.8c0.2,1.4,0.5,2.8,1.2,4.2
			c0.7,1.7,2.3,2.5,3.2,3.8c1.1,1.6,3,2.5,5,2.3c2,0.1,4-0.1,5.8-0.8c3.1-1.4,6.2-2.9,9.1-4.7c2.2-1.2,2-2.7,0.8-4.2
			c-0.4-0.5-0.8-1-1.3-1.3c-1-0.8-1.8-0.7-3,0c-1.3,0.9-2.6,1.8-4,2.5c-2.2,1.1-4.8,0.2-5.9-1.9c-0.5-0.9-0.6-1.9-0.4-2.9
			c0.4-3.4,1.8-6.6,4.2-9.1c1.5-1.5,3-3,4.3-4.5c3.1-3.4,6.7-6.4,10.6-8.8c2.5-1.6,4.4-3.9,5.5-6.6
			C128.6,314.1,128.9,311.1,128.3,308.3 M152.8,368.8c-1.3-0.7-2.2-1.2-3-1.5c-1.2-0.7-2.5-1.2-3.7-1.8c-4.9-3.1-9.4-6.6-13.6-10.5
			c-2.2-2.2-4.2-4.3-4.7-7.6c-0.2-1.3,0-2.6,0.7-3.7c1.9-3.3,3.3-6.8,4.3-10.5c0.1-0.7,0.2-1.4,0.2-2.2c-0.1-0.7-0.3-1.3-0.7-1.9
			c-1.2,1.3-2,2.3-3,3.3c-1.5,1.5-3,3-4.5,4.3c-1,1-2.3,1.6-3.7,1.7c-1.1-2-1.9-4.2-2.3-6.5c0-0.8-0.7-1.5-1.5-1.4
			c-0.4,0-0.9,0.2-1.1,0.6c-1.3,1-2.4,2.2-3.3,3.7c0.3,1,0.5,2,0.8,3c1,3.7,2.6,7.1,4.8,10.1c2,2.5,3.8,5.2,5.8,7.6
			c3.7,4.8,8.6,8.3,14.3,10.3c1.5,0.5,3,1.2,4.5,1.8c2.3,1.1,4.9,1.6,7.5,1.5C151.3,369.2,152.1,369,152.8,368.8 M413.5,291.6
			c-4.2,0.5-8,1-11.8,1.5c-1.7-5.5-3-10.8-4.7-16c-1.7-5.2-3.2-10.1-5-16c-0.5,1.7-0.8,3.4-1,5.2c-0.4,5.7-1.2,11.4-2.5,17
			c-0.7,3.2-0.8,6.5-1.3,9.8c0,1.2-0.3,2.4-1,3.5c-3.2,0.7-6.8-0.3-10,1.2c-0.2-0.3-0.5-0.7-0.5-1c-0.7-5.7-1-11.5-1.2-17.1
			c-0.1-6.5,0.1-13,0.7-19.4c0.2-2.5,0-5.2,0-7.6c-0.2-7.6-0.7-15.1-0.5-22.8c0-6.3,0.5-12.6,0.8-19.1c0-0.7,0.3-1.2,0.3-1.8
			l12.8-2.5c0.4,0.5,0.7,1.1,1,1.7c0.5,1.2,0.9,2.5,1.2,3.8c1.3,7.1,2.7,14.5,3.8,21.6c0.3,1.7,0.7,3.3,1.2,5c0.3,1.3,1,2.5,1.3,3.7
			c1,0,0.8-0.5,0.8-1c0-2-0.2-4.2-0.2-6.1c0.2-4.2,0.3-8.3,0.7-12.5c0.2-1.4,0.1-2.9-0.3-4.3c-0.7-2.2-1.1-4.5-1-6.8
			c0-2.6,0.2-5.1,0.5-7.6c0.2-1.8,0.8-2.3,2.7-2.3c1.8,0,4.2,0.2,6.3,0c1.7,0,2.2,1.7,3.7,2.2c0.8,0.3,0.8,1.3,0.8,2.3
			c0,1.7,0.2,3.2,0.2,4.8c-0.2,4.9-0.1,9.8,0.5,14.6c0.8,6.1,1.2,12.2,1.2,18.3c0,11.3,0.3,22.4,0.8,33.7c0.2,4,0.2,7.8,0.2,11.8
			C414,290,413.8,290.8,413.5,291.6 M273.2,310.6c3.7-0.7,6.8-1.3,9.8-2c1.8-0.3,3.7-0.3,5.5,0c1,0,1.5,0.8,2,1.5
			c1.2,1.8,2.2,3.5,3.2,5.3c0.8,1.7,1.9,3.4,3.2,4.8c-0.2-6.3-0.8-12,0.5-17.9c0.8,0,1.5-0.2,2.3-0.2c3.8,0.3,7.8,0.8,11.6,1.2
			c0.5,0,1,0,1.5,0.2c1,0.3,1.8,0.8,1.8,2c0.4,2.3,0.6,4.6,0.7,7c0.3,8.5,0.7,16.8,1,25.3c0.3,7.1,0.5,14.1,0.7,21.3
			c-0.1,1.3,0.1,2.7,0.5,4c0.9,2.4,0.9,5.1-0.2,7.5c-3.6,1.7-7.3,3-11.1,3.8c-0.3-0.5-0.8-1.2-1.2-1.7c-1.5-3-3-5.8-4.5-8.8
			c-2.4-4.2-5.2-8.2-8.3-12c-0.3-0.3-0.8-0.5-1.2-0.8c-1.6,1.1-2.4,2.9-2.2,4.8c0.2,4,0,8.1,0,12.1c0,2-0.2,4-0.3,5.8
			c-0.3,1.1-0.1,2.2,0.5,3.2c0.5,0.9,0.2,2.1-0.8,2.5c-0.1,0-0.2,0.1-0.2,0.1c-0.6,0.2-1.2,0.3-1.8,0.3c-5.3-0.3-10.5-0.7-15.8-1.2
			c-1.7-0.2-2-0.7-1.8-2.3c0.2-2.3,0.2-4.7,0.3-7c-0.1-2.4,0.4-4.7,1.5-6.8c3.2-6,3.7-12.6,3.7-19.3l-0.5-17.9
			c-0.2-3.5-0.3-7.1-0.3-10.6L273.2,310.6"/>
		<path d="M224.9,322.8c2.5-0.2,4.8-0.3,7.3-0.7c1-4.2-0.2-8.5,2-12.5c3.6-0.8,7.2-0.8,10.8,0c1.1,1.2,1.7,2.8,1.5,4.5
			c-0.2,3.5-0.3,6.8-0.5,10.3c-0.3,6.5-0.7,13-0.8,19.4c-0.2,2.3,0.3,4.6,1.5,6.6c0.3,0.6,1,0.8,1.6,0.5c0.1,0,0.1-0.1,0.2-0.1
			c0.7-0.5,1.3-1.2,1.5-2c0.5-1.5,1-3,1.3-4.5c0.5-1.8,0.7-3.8,1.3-5.7c1-3.5,1.5-7.1,1.7-10.8c0.2-6.7-0.2-13.4-1-20.1
			c-0.3-1.9-0.4-3.9-0.2-5.8c4.8-0.6,9.7-0.6,14.5,0.2c0.4,0,0.7,0.1,1,0.3c1.5,0.5,2,1,2,2.7c0,2.5,0.2,5.2,0.2,7.6
			c-0.2,8.1-0.2,16.1,0.3,24.1c0.1,3.5-0.1,7-0.8,10.5c-1,5.4-2.5,10.7-4.3,15.8c-1.2,3.3-2.8,6.4-4.8,9.3
			c-5.8,8.3-17.1,10.3-25.4,4.6c-0.3-0.2-0.5-0.4-0.8-0.6c-2.3-1.7-4.3-3.5-6.5-5.3c-0.5-0.4-0.8-0.9-1-1.5
			c-2.2-3.4-3.5-7.3-3.7-11.3c-0.3-7.3,0.2-14.6,0.5-21.9c0.4-3.5,0.6-7.1,0.5-10.6C224.6,324.7,224.6,323.7,224.9,322.8
			 M307.6,254.6c0,2-0.2,4.2,0,6.1c0.3,4.1,0.3,8.3,0,12.5c-0.4,3.7-0.3,7.3,0.2,11c0.6,3.3,0.7,6.8,0.3,10.1
			c-4.6,0.8-9.2,1.1-13.8,1c-0.2-0.6-0.3-1.3-0.3-2c0.2-6.8,0.2-13.6,0.5-20.4c0.7-14.5,0.8-29.1,0.8-43.7
			c-0.1-6.2-0.4-12.4-1.2-18.6c-0.4-3.6-0.4-7.2,0.2-10.8l2-0.5c1.5-0.1,2.9-0.4,4.3-0.7c4.7-0.8,9.6-0.7,14.3,0.3
			c5,0.8,8.9,4.7,9.8,9.6c0.8,3.7,1.4,7.5,1.7,11.3c0.2,3.3,0,6.8,0,10.3c0.1,3.5-0.8,6.9-2.7,9.8c-1.3,2.2-2.5,4.5-3.7,6.8
			c-0.7,1.2-0.7,1.8,0.3,2.7c2.8,2.5,4.5,5.9,4.8,9.6c1.4,8.3,2.4,16.7,2.8,25.1c0.1,3.2,0.1,6.3-0.2,9.5c0,0.7-0.2,1.5-0.2,2.2
			c-3.7,0.2-7.5,0-11.1-0.8c0-0.8-0.2-1.5-0.2-2.3c0.6-7.2,0.4-14.4-0.5-21.6c-0.3-2.3-0.9-4.5-1.8-6.6c-1.3-3.2-3.2-6.1-4.7-9.1
			C309.1,254.1,308.4,254.1,307.6,254.6 M307.6,237.2c5.3-3.2,7.8-7.5,7.6-13.1c-1.5-4.7-2.2-8.6-6.3-10
			C308.3,221.5,306.1,229,307.6,237.2 M108.8,247.6l2.2,2.2c1.3,1.3,2.5,2.7,3.8,4c1.9,2.1,3.1,4.8,3.3,7.6
			c0.9,7.5,0.9,15.1,0.2,22.6c-0.2,1-0.4,2-0.7,3c-3.2,0.2-6.3,0.2-9.3,0.3c-0.6-1.1-0.7-2.4-0.5-3.7c0.1-3.6-0.2-7.1-0.8-10.6
			c-1-5-3.5-9.5-7-13.1c-0.4-0.5-0.9-0.9-1.5-1.2c-0.3-0.3-0.8-0.3-1.2-0.5c-1.4,0.5-2.3,2-2.2,3.5c0,4.3,0.2,8.8,0,13.1
			c-0.2,5.2-0.5,10.3-0.8,15.3c-0.1,0.7-0.3,1.5-0.5,2.2c-3.3,0.4-6.6,0.6-10,0.3c-0.2-0.6-0.4-1.2-0.5-1.8
			c-0.3-8.3-1-16.6-1.2-24.9c-0.2-8.3,0-16.3,0-24.6c0-8-0.2-16-0.3-23.8c0-2.3-0.5-4.7-0.7-7c-0.3-1.5-0.3-3.1,0-4.7
			c0.3-0.2,0.5-0.5,0.7-0.5c6-0.9,12.2-1.4,18.3-1.3c2.9,0.2,5.8,1.1,8.3,2.5c3.8,1.6,6.7,4.6,8.1,8.5c0.4,0.9,0.7,1.9,0.8,2.8
			c0.5,6.1,0.2,12.2-0.8,18.3c-0.4,2.9-1.8,5.6-4,7.6C111.3,245.1,110.2,246.1,108.8,247.6 M93.1,217.2c0,4,0.8,7.6,1.2,11.3
			c0.1,3.9,0.5,7.8,1.2,11.6c3.9-1,7.1-3.7,8.8-7.3c2.2-4.7,1.8-10.2-1-14.6c-1-1.7-3-2.8-5-2.7c-0.5,0-1.5,0.2-1.7,0.5
			C95.9,217.4,94.6,216.7,93.1,217.2 M125.1,206.6c0.5-0.3,0.5-0.5,0.7-0.5c5.2-0.3,10.3-0.8,15.3-0.8c5.2,0.1,10.1,1.9,14.1,5.2
			c1.2,1,2,2.4,2.2,4c1,6.1,0.5,12.5,0.5,18.6c-0.1,3-1.1,5.9-2.8,8.3c-1.5,1.8-2.8,3.9-3.7,6.1c0,0.3-0.7,0.3-1,0.7
			c0.5,0.9,1.1,1.8,1.7,2.7c1,1.3,2,2.5,3,3.7c2.3,2.6,3.7,5.9,3.8,9.3c0.7,6.7,0.4,13.5-0.8,20.1c-0.1,0.7-0.4,1.5-0.7,2.2
			c-0.2,0.5-0.5,0.9-0.8,1.3c-3-0.2-5.8-0.5-9-0.7v-2.4c0.2-3.8,0.3-7.6,0.3-11.3c-0.1-3.2-0.9-6.3-2.3-9.1
			c-1.3-3.2-3.8-5.2-6.5-7.6c0,0.8-0.2,1.5-0.2,2.3c-0.5-0.2-0.9-0.4-1.3-0.7c-0.2,0.1-0.3,0.2-0.5,0.3c-0.1,1.7-0.1,3.4,0.2,5.2
			c0.5,3.6,0.6,7.3,0.3,11c-0.2,4.8-0.5,9.8-0.8,14.6c-0.1,1.8-0.4,3.7-0.8,5.5c-3.6,0.2-7.1,0-10.6-0.5c-0.2-0.7-0.3-1.3-0.3-2
			c0-5.2,0.2-10.3,0.2-15.5c0-5.8-0.3-11.5-0.5-17.3c0-1.7-0.2-3.5-0.2-5.2c-0.5-9.5-0.8-19.1-0.8-28.6c-0.1-2.2,0.2-4.4,0.8-6.5
			c0.5-1.6,0.7-3.3,0.7-5L125.1,206.6 M141.1,241.1c4-2.3,6.5-5.3,6.1-9.8c-0.2-2.4-0.7-4.8-1.5-7.1c-0.3-1-1-1.8-2-2.3
			c-1.7-0.8-3.5-1.1-5.3-0.8c-0.3,2-0.7,14.5-0.5,17.3c0.7,0.2,1.3,0.2,2,0.3C140.3,239.3,140.6,239.9,141.1,241.1"/>
		<path d="M209.7,347.2c-0.2,1.2-0.3,2.4-0.3,3.7l0.5,15c-0.1,1.7,0.1,3.4,0.3,5.2c0.2,2.5-1.6,4.8-4.2,5.2c-1,0.2-2,0.2-3,0
			c-3.8-0.7-7.6-1.3-11.6-2c-1.3-0.1-2.5-0.6-3.5-1.3c-0.4-2.5-0.4-5,0-7.5c0-8,0.3-16,0.5-23.8c0.2-6.3,0.3-12.5,0.5-18.6
			c0.2-5.7,0.3-11.3,0.7-16.8c0.1-1.3,0.3-2.7,0.5-4c0.6-0.2,1.2-0.4,1.8-0.5c7.1-0.5,14.1-1,21.3-1.2c4.2-0.2,8.3,0.2,12.5,0.3
			c0.8,0,1.7,0.1,2.5,0.3c0.8,0.1,1.4,0.7,1.3,1.5v0.3c0,4.5,0.2,9,0.2,13.6c0,1.5-0.2,3.2-0.3,4.8c-0.8,0-1.5,0.2-2.2,0.2
			c-2.2,0.2-4.3,0.2-6.6,0.3c-1.3,0.2-2.7,0-3.8-0.7c-2.5-1.3-4.8,0.3-5.3,3.2c-0.3,2-0.5,4.1-0.5,6.1c2,1.3,4.3,0.3,6.1,1
			c0.7,1.4,1,3.1,0.8,4.7c-0.3,2.8-0.4,5.6-0.3,8.5c0,0.8-0.3,1.7-0.3,2.5C214.9,347.4,212.6,346.5,209.7,347.2 M363,255.8
			c-3.8,0.3-7.5-0.5-11.3,0.3c0,0.7-0.2,1.3-0.2,2.2c-0.2,3.5-0.3,7.1-0.5,10.6c-0.1,2.2,0.2,4.5,0.8,6.6c0.7,0,1.2,0.3,1.7,0.2
			c1.8-0.6,3.7-0.6,5.5-0.2c2.3,0.3,4.7,0.3,7.1,0.5c0.2,0.5,0.3,1.1,0.3,1.7c-0.2,4.8-0.3,9.8-0.5,14.6c0,1.7-0.2,3.3-0.3,5.2
			c-1.5,0.4-3.1,0.4-4.5-0.2c-3.5-0.8-7.1-1.1-10.6-1c-1.8-0.1-3.7,0.1-5.5,0.3c-2,0.5-4.2,0.2-6-0.8c-0.4-0.2-0.9-0.4-1.3-0.5
			c-0.2-1.7-0.5-3.5-0.7-5.2c-0.2-4,0-7.8,0-11.8s0.3-7.8,0.2-11.6c-0.2-6.3,0.8-12.6,1-18.9c0.2-5.2,0.5-10.3,0.5-15.5
			c0-5.8-0.3-11.8-0.7-17.6c-0.2-3.5-0.8-7-1.2-10.5c0-0.7-0.2-1.3-0.2-2.3c3.1-0.9,6.3-1.1,9.5-0.7c5.1,0.7,10.2,1.1,15.3,1.2
			c2.1-0.2,4.3,0,6.3,0.7c0.8,3-0.3,5.8-0.3,8.6c-0.1,2.7-0.5,5.3-1,8c-1.4,1-3.1,1.4-4.8,1.2c-1.3-0.1-2.7-0.3-4-0.5
			c-1.5-0.2-2.8-0.2-4.2-0.3c-0.3,0.2-0.4,0.5-0.5,0.8c-0.2,5.7-0.3,11.1-0.7,16.6c0.8,1,2,0.7,2.8,0.7c2.3-0.1,4.6,0,6.8,0.3
			C362.8,244.2,363.1,250,363,255.8 M198.6,276.9c0,4,0.2,8.1,0.2,12.3c0,0.4,0,0.8-0.2,1.2c-0.2,1.3-0.8,1.8-2.3,1.7
			c-1.2,0-2.2-0.2-3.3-0.2c-6.5-0.6-13-0.9-19.4-0.7c-1.2,0-2.3,0-3.5-0.2c-0.1-0.7-0.2-1.3-0.2-2c-0.2-12.8-0.8-25.4-1.8-38.1
			c-0.7-9.1-0.5-18.3-0.3-27.4c0.3-4.5,0-9-0.8-13.5c-0.7-2.8-0.1-5.8,1.7-8.1c3-0.2,6.1-0.3,9.1-0.2c3.7,0,7.3,0,11-0.2
			c1.2-0.1,2.4-0.4,3.5-0.8c1.4-0.6,3-0.9,4.5-0.7c0.2,0.3,0.3,0.5,0.3,0.7c0.2,5,0.3,10,0.3,15.1c-4.5,0.7-9-0.3-13.3,1v2.8
			c-0.7,0.2-1.5,0.5-2.2,0.8c0.2,3.3-1.2,6.6-0.2,10.3c2.5-0.2,4.8-0.5,7.3-0.5c2.3-0.1,4.6,0,6.8,0.3c0.6,0.9,0.8,1.9,0.7,3
			c-0.4,4.4-0.4,8.8,0,13.1c0.2,2.2-0.5,2.8-2.7,3c-2.5,0.2-5.2,0.3-7.6,0.3c-1.3,0-2.7-0.2-4.2-0.2c0,0.8-0.2,1.5-0.2,2.2
			c0.5,6,1,12,1.7,17.9c0.2,2.7,0.7,3.2,3.3,3.5l4.8,0.5C194.2,274.1,196.7,275.1,198.6,276.9 M233.7,292.8
			c-5.7,0.8-11.3,0.3-17.3,0.3c-0.2-0.8-0.3-1.7-0.3-2.5c-0.5-8.5-0.7-16.8-1.3-25.3c-0.7-9.3-1.3-18.6-2.3-27.8
			c-0.6-5.7-1.8-11.3-3.5-16.8c-0.5-1.5-1-3-1.7-4.5c-1.7-3.5-1.3-7.1-1.2-11c3.7-0.7,7.1-1.5,10.8-2.2c1,1.6,1.9,3.2,2.5,5
			c2.5,6.2,4,12.8,4.4,19.5c0.1,1.2,0.3,2.5,0.7,3.7c1.3,4.3,2.3,8.7,3,13.1c0,0.5,0.5,1,0.8,2.2c0.7-3.7,1-6.6,1.8-9.6
			c1.8-7.3,1.7-14.8,2-22.3c0-2.5-0.3-4.8-0.5-7.3v-3.8h2c2,0.2,3.8,0.8,5.8,0.2c0.7-0.1,1.5,0.1,2.2,0.3c1.5,0.3,3.2,0.7,4.8,1
			c0.1,0.8,0.2,1.5,0.2,2.3c-0.2,2.3-0.6,4.6-1.2,6.8c-2.6,9.2-4.5,18.5-5.8,27.9c-1.7,9.8-3,19.6-4.2,29.4c-0.7,5-0.5,10-0.7,15
			C234.7,288.7,234.4,290.8,233.7,292.8 M255.5,291.1c-0.9-1.1-1.3-2.6-1.2-4c0.2-8.1,0.5-16.3,1.2-24.6c0.7-8.3,1-16.3,1.3-24.6
			c0.2-3.5,0-7.1,0-10.6c0-7.4-0.7-14.7-2-21.9c-0.1-0.6,0-1.1,0.2-1.7c1.1-0.4,2.3-0.6,3.5-0.8c1.2-0.3,2.4-0.4,3.7-0.5
			c5-0.3,10-0.5,15-0.7c2-0.2,4.2-0.2,6.1-0.3h4.8c1,2.2,0.3,4.5,0.2,6.5s-0.5,4.2-0.7,6c-1.2,1-2.8,1.5-4.3,1.3
			c-2.2,0-4.3-0.2-6.6-0.2c-1.7,0-3.3-0.3-4.8,1c-0.7,0.5-2.2,0.2-3.3,0.3c0,0.8-0.2,1.5-0.2,2.2c0,4.3,0.2,8.8,0.2,13.1
			c0,0.6,0,1.2,0.2,1.8c0.3,2.3,1,2.8,3.5,2.7l7.1-0.5c0.2,0.7,0.4,1.4,0.5,2.2c0.2,3.8,0.3,7.8,0.5,11.6c-2.8,3.7-7.1,3.3-11.1,4.2
			c0,0.8-0.2,1.5-0.2,2.2v10.6c0.2,2.5,0.5,5.2,0.7,7.6c0.1,1,0.8,1.9,1.8,2c3,0.6,6.1,0.7,9.1,0.5h4c1.8,0.2,2.3,0.7,2.2,2.2
			c0,4.3-0.2,8.8-0.2,13.1c0,0.4-0.1,0.7-0.3,1C281.7,293.8,260.3,292.3,255.5,291.1 M445.3,293.3c-4.2,0.6-8.4,0.9-12.6,0.7
			c-0.2-0.7-0.3-1.3-0.3-2l0.5-23.1V257c0-8.8-0.6-17.6-1.8-26.3c-0.5-3.7,0.3-4.7-5.3-5.5c-1.8-0.4-3.5-1.2-4.8-2.5
			c-0.2-6,1.3-12.1,0.3-18.3c0.6-0.2,1.3-0.4,2-0.5c3.5,0,7.1,0.2,10.6,0.2h3c5.2-0.7,10.3,0.2,15.3,0.2c0.4,0.1,0.8,0.2,1.2,0.3
			c0.2,0.4,0.3,0.9,0.3,1.3c0.2,4.3,0.3,8.5,0.5,12.8c0.1,1.2-0.1,2.4-0.7,3.5c-1,1.7-2.7,2.8-4.7,3c-1.2,0.2-2.5,0.2-3.7,0.3
			c-1,1.2-0.5,2.7-0.3,3.8c1.2,9.6,1.8,19.3,2,28.9c0,7.6-0.2,15.1-0.2,22.8c-0.1,3.1-0.3,6.1-0.7,9.1
			C445.9,291.3,445.6,292.3,445.3,293.3 M70.7,292.8c-6.1-0.2-12,0.3-17.9,0.5c0-2.8,0.2-5.5,0.2-8c0.2-5.8,0.3-11.6,0.5-17.6
			c0.2-11.5,0.2-22.9,0.3-34.4v-1.5c-0.2-4.5,0-9,0.7-13.5c0.6-4.7,0.7-9.5,0.3-14.3c0-0.6,0-1.1,0.2-1.7L72,204
			c0,9.1,0.2,18.3,0,27.4c0,4-0.3,8-0.5,12.1c-0.2,3.8-0.3,7.8-0.3,11.6c0,5.8-0.2,11.5,0.3,17.3c0.2,3.5,0.1,7.1-0.2,10.6
			c-0.2,0.7-0.5,1.2-0.7,2 M271.3,380.1v0.2h-0.3v-0.3C271.1,380.1,271.1,380.1,271.3,380.1 M271.8,154.1c0.2-0.8,0.4-1.7,0.7-2.5
			c0.8-1.8,2-3.7,2.8-5.5c0.7-1.3,1.8-2.3,3.2-2.8c0.7-0.4,1.5-0.3,2,0.3c0.6,0.5,0.9,1.3,0.7,2c-0.2,0.5-0.3,0.8-0.5,1.3
			c-0.7,1.5-1.3,3.2-2,4.7c-0.8,1.9-2,3.7-3.7,5c-1.5,1.2-2.8,0.7-3.2-1.3L271.8,154.1 M241.2,158.7c-1-0.3-1.9-0.7-2.8-1.2
			c-0.6-0.3-0.9-1-0.6-1.6c0-0.1,0.1-0.2,0.1-0.2c0.4-0.8,1.4-1,2.2-0.7C241.2,155.6,241.7,156.7,241.2,158.7 M118.4,317.3
			c-0.9-0.4-1.4-1.4-1.3-2.3c0.1-1.6,0.4-3.1,0.8-4.7c0.2-1,1.1-1.7,2.2-1.7c1.1,0,2.1,0.2,3.2,0.5c1.2,0.4,1.9,1.7,1.5,2.9
			c-0.1,0.2-0.2,0.4-0.3,0.6C122.9,314.8,120.8,316.5,118.4,317.3"/>
	</g>
</g>
</svg>
