<?xml version="1.0" encoding="utf-8"?>
<!-- Generator: Adobe Illustrator 25.2.1, SVG Export Plug-In . SVG Version: 6.00 Build 0)  -->
<svg version="1.1" id="Layer_1" xmlns="http://www.w3.org/2000/svg" xmlns:xlink="http://www.w3.org/1999/xlink" x="0px" y="0px"
	 viewBox="0 0 500 500" style="enable-background:new 0 0 500 500;" xml:space="preserve">
<g>
	<path d="M368.3,111.8c-2.7,0.2-5.4,0.5-8,0.2c0-0.3-0.2-0.5,0-0.6c1.6-2.4,3.5-4.9,5-7.3c3.3-4.9,7.3-9.1,10.9-13.7
		c2.4-2.8,4.9-5.8,7.4-8.7c2.4-2.5,4.4-5.4,6.8-8c1.4-1.6,2.5-3.5,4.4-4.9c0.3,0.3,0.6,0.5,0.8,0.8c2,2.2,3.6,4.9,5.7,7.1
		c2.2,2.5,3.8,5.2,5.8,7.9c1.6,1.9,2.5,4.1,4.3,5.8c0.8,0.8,1.1,1.9,1.6,2.7c1.4,2.2,3,4.4,4.4,6.6c1.4,2,2.7,4.3,4.1,6.3
		c0.5,0.8,0.9,1.4,1.4,2c0.2,0.2,0.3,0.5,0.5,0.8c-0.8,0.5-1.6,0.3-2.2,0.5s-1.4,0-2,0s-1.4,0.2-2.4,0.2c-0.2,0.5-0.2,0.9-0.2,1.4
		c0,3.6-0.2,7.1,0,10.7c0,0.9,0.2,1.9,0.3,2.7c0.6,5.8,1.1,11.8,1.3,17.7c0.2,2.8,0.5,5.8,0.8,8.5s0.3,5.5,0.3,8.2v70.3
		c0,1.6-0.3,3-0.5,4.6c-0.2,1.9-0.5,3.9-0.6,5.8c-0.3,4.9-0.8,9.8-0.8,14.8c0,3.8-0.2,7.4-0.2,11.2c-0.2,5,0.3,10.1,0.6,15
		c0.2,1.1,0.2,2.2,0.2,3.2c-0.2,7.1-0.5,14.2-0.5,21.1c0,3.6-0.2,7.4,0.5,10.9c0.2,0.8,0,1.6,0,2.2c0.2,4.1,0,8,0.3,12.1
		c0.3,4.4,0.2,8.8,0.2,13.2c0.2,4.9,0,9.9-0.2,14.8c-0.2,3.6-0.5,7.3-1.4,10.9c-0.8,3.2-1.4,6.3-2.2,9.5c0,0.2,0,0.3-0.2,0.5
		c-1.4,2.2-2,4.9-3.2,7.3c-1.9,4.4-4.4,8.5-6.9,12.5c-1.4,0.9-1.6,2.5-3.2,3.5c-0.9,0.5-1.6,1.4-1.9,2.7c-0.2,0.5-0.5,0.9-0.8,1.3
		c-0.9,0.8-2,1.4-2.8,2.2c-1.4,1.6-3.5,2.4-4.9,3.9c-0.5,0.6-1.1,1.6-2,1.6c-0.2,1.1-1.4,0.9-1.9,1.4c-1.1,1.1-2.2,1.6-3.6,2.2
		c-2,0.9-4.3,1.7-6.3,2.5c-3.8,1.6-7.6,3.2-11.4,4.7c-1.1,0.5-2.4,0.6-3.5,1.1c-6.3,2.2-12.9,3.5-19.6,4.6
		c-8.4,1.4-16.9,1.3-25.2,0.9c-6.8-0.2-13.6-0.5-20.2-0.3c-8.4,0.2-16.7,0-25.1-0.5c-1.1-0.2-2.2-0.2-3.5-0.2c-6,0.2-12,0.6-18,0.8
		c-3.6,0.2-7.4,0.2-10.9,0.2c-0.8,0-1.6-0.2-2.2-0.3c-1.9-0.6-3.8-0.9-5.5-1.1c-3-0.2-6.1-0.3-9.1-0.5c-4.9-0.2-9.8-0.2-14.5-0.2
		c-14.2-0.3-28.4-0.6-42.4-0.2c-4.6,0.2-9.1,0.3-13.7,1.4c-1.4,0.3-3,0.5-4.6,0.3c-3.3-0.2-6.6-0.5-10.1-0.8c-2-0.3-4.4-0.2-6.5,0.2
		c-3.2,0.6-6.3,0.8-9.5,0.8c-5.2,0.2-10.7,0.2-15.9-0.3c-4.6-0.3-9.3-0.3-13.9-0.5c-4.7-0.2-9.6-0.3-14.3-0.5
		c-0.2,0-0.5-0.2-0.6-0.2c-0.3-0.5-0.2-0.8,0.2-1.1c0.8-0.9,1.6-1.9,2.2-2.8c1.1-1.4,2.2-2.8,3.2-4.6c0.8-1.4,1.6-2.5,2.5-3.8
		c0.8-1.1,1.4-2.2,2-3.2c0.2-0.2,0.2-0.6,0.5-0.8c1.4-1.4,1.7-3.3,2.5-5c0.3-0.5,0.5-1.1,1.1-1.4c0.8-0.6,0.8-1.3,0.5-2
		c-0.8-1.9-1.9-3.6-2.8-5.4c-1.3-1.9-2.5-4.1-3.8-5.8c-1.1-1.6-2.5-3.2-3.6-4.6c-1.1-1.4-1.9-2.7-3-4.1c0.5-0.2,0.8-0.2,1.1-0.3
		c6.8-0.3,13.4,0,20,0.8c1.6,0.2,3,0.2,4.6,0.2h32.8c6.3,0,12.6,0,18.9-0.2c3.6,0,7.1-0.2,10.7-0.2s7.4,0.2,10.9,0.2
		c2.7,0,5.5-0.2,8.2-0.5c4.7-0.5,9.6-0.5,14.3-0.6c5.2-0.2,10.4-0.5,15.8-0.6c3.3-0.2,6.5-0.2,9.8-0.2c3.9-0.2,7.7-0.2,11.7-0.2
		c2.8,0,5.5-0.5,8.4-0.8c1.3-0.2,2.4-0.3,3.6-0.3c4.1-0.2,8.2,0,12.3-0.2c1.9,0,3.9-0.2,5.8,0c3.5,0.2,7.1,0.3,10.4,0.5
		c2,0.2,4.1,0.2,6.1,0.3c5.4,0.5,10.7,0.3,16.2,0.3c4.4,0,8.7,0.2,13.1,0.2c2.8,0,5.5-0.2,8.5-0.2c2,0,4.1,0.2,6.1,0.2
		c1.6,0,3.3-0.2,4.9-0.3c0.5,0,0.9-0.2,1.4-0.2c3.5,0,6.6-0.9,9.8-2c2.7-1.1,5.2-2.4,8-3.2c0.8-0.2,1.4-0.8,1.9-1.1
		c2.2-1.4,4.6-2.7,6.8-4.3c0.8-0.6,1.6-1.4,2-2.4c1.3-1.9,2.4-3.8,2.8-6.1c0.9-3.6,1.6-7.4,2.5-10.9c0.8-2.7,0.9-5.4,0.8-8.2
		c0-3.3,0-6.8,0.2-10.1c0.2-4.1-0.5-8-0.8-12.1c0-0.6-0.2-1.3-0.2-1.9c0.5-7.3,0.9-14.3,1.3-21.6c0.2-5.5,0.3-11,0.3-16.7
		c0-3.9,0-7.9-0.2-11.8c-0.2-3.3-0.3-6.8-0.5-10.1c0-0.8-0.2-1.6,0-2.2c0.6-8.2,1.3-16.6,1.6-24.8c0.2-5.4,0.3-10.7,0.5-16.2
		c0.2-7.4,0-14.5,0-21.9c0-3.5,0.2-6.8,0.2-10.2c0-8.2,0.2-16.6,0-24.9c-0.2-6.8-0.2-13.7-0.5-20.5c-0.2-3.8-0.5-7.7-0.6-11.5
		c-0.3-4.4-0.6-9-1.1-13.4C368.7,114,368.6,112.9,368.3,111.8 M146.7,419.1c1.1-2.8,1.9-5.5,3-8.2c0.6-1.7,1.3-3.6,1.7-5.4
		c0.5-1.6,0.8-3.2,1.1-4.6c0.5-1.9,2.2-2.8,4.3-2.7c1.4,0.2,2.5,1.6,2.7,3.5c0,1.3-0.5,2.2-1.6,2.8c-0.5,0.5-1.3,0.6-1.9,0.9
		c-0.6,0.3-1.3,0.5-1.9,0.8c-0.8,0.5-1.3,1.1-1.4,2.2c-0.2,1.6,0.2,2.8,1.1,4.1c1.3,1.9,2.7,3.8,4.1,5.5c0.5,0.6,1.1,0.6,1.6,0.2
		c0.5-0.6,1.1-1.3,1.6-1.9c0.5-0.5,0.5-0.9,0-1.4c-0.8-0.9-1.6-1.9-2.2-2.8c-0.5-0.6-1.1-1.3-1.3-2.2c0.5-0.2,0.8-0.5,1.3-0.8
		c0.8-0.5,1.6-0.9,2.2-1.4c1.9-1.6,2.8-3.6,2.7-6.1c-0.2-1.1-0.2-2.2-0.5-3.2c-0.2-0.8-0.6-1.4-1.1-1.9c-2.2-1.9-4.6-3-8.4-1.3
		c-0.9,0.5-1.7,1.1-2.7,1.6c-1.1,0.6-1.7,1.6-2.2,2.8c-0.2,0.5-0.2,0.8-0.3,1.1c-1.4,4.9-3,9.8-5,14.3c-0.6,1.4-0.8,2.7,0.2,4.1
		C144.5,419.2,145.5,419.2,146.7,419.1 M389.2,242c-0.8-0.8-1.4-1.4-1.9-1.9c-1.4-1.6-3.2-2.2-5.2-2.2c-2.2-0.2-3.5,0.9-3.9,3
		c-0.2,0.6-0.2,1.4-0.2,2c0,2.2,0.5,4.6,0.9,6.8c0.2,0.6,0.3,1.1,0.6,1.7c1.1,2.2,2.7,3.6,5.2,3.9c1.6,0.2,3.3,0.3,4.9,0.8
		c2.4,0.5,4.6,0.6,7.1,0.5c1.4,0,2.7-0.2,4.1-0.2h0.8c0.9-0.2,1.3-0.8,0.8-1.4c-0.6-0.8-1.4-1.6-2-2.5h-7.7c-3.5,0-6.6-0.8-9.6-2.4
		c-0.8-0.5-1.3-0.9-1.4-1.7c-0.2-0.8-0.3-1.6-0.5-2.5c-0.2-0.9-0.2-1.9,0-2.7c0.2-0.8,0.5-1.3,1.4-1.3c1.4,0,2.5,0.5,3.2,1.7
		c0.5,1.3,1.3,2.2,2.4,3c0.5,0,1.1-0.2,1.6-0.2c0.9,0,1.6-0.5,1.7-1.4c0.2-0.8,0.5-1.4,0.8-2c0.8-1.1,1.6-2,3-2.2
		c1.9-0.2,3.5,0.2,4.6,1.9c0.5,0.6,0.8,1.3,1.1,1.9c0.2,0.3,0.2,0.8,0.5,1.1c0.5,0.8,1.1,0.9,1.7,0.8s0.8-0.5,0.8-1.4
		c0.2-4.6-3.5-8.2-7.4-7.9c-0.8,0.2-1.6,0.2-2.2,0.2c-0.8,0-1.4,0.3-2,0.8C390.7,238.7,389.7,240,389.2,242 M175.7,415.9
		c0.6,0.3,1.1,0.5,1.6,0.8c0.6,0.3,1.1,0.2,1.7-0.2c0.8-0.5,1.3-1.1,1.6-1.9c0.2-0.5,0.5-1.1,0.5-1.4c1.4-4.4,4.1-8.2,6.1-12.1
		c0.2-0.5,0.6-0.8,0.8-1.1c0.8-1.1,1.9-1.4,3.2-1.6c1.6-0.2,2,0.5,2.2,1.9c0.5,3.3-0.2,6.5-0.2,9.8c0,0.3-0.2,0.6-0.2,0.8
		c-0.8,1.4-2.2,1.4-3.2,0.2c-0.5-0.5-0.6-1.1-1.1-1.6c-0.6-0.8-1.3-0.8-2.2-0.2c-0.8,0.5-0.9,1.1-0.6,1.9c0.5,1.3,0.9,2.4,1.4,3.6
		c0.8,2.2,3.2,3.2,5.4,2c0.6-0.3,1.1-0.8,1.6-1.3c1.4-1.6,2-3.3,2-5.4c0-3,0.2-5.8,0.2-8.8c0-1.7-0.5-3.5-0.8-5.2
		c-0.3-1.1-1.1-1.6-1.9-1.9c-0.6-0.2-1.3-0.3-1.7-0.3c-3.3,0.2-6.3,1.3-8,4.3c-1.9,3.2-3.8,6.5-5.7,9.6
		C176.8,410.3,176.2,412.9,175.7,415.9 M342.9,416.3c-1.1,0.6-1.7,1.1-2.7,1.6c-1.4,0.8-2.8,1.3-4.6,0.9c-0.5-0.2-0.9-0.3-1.4-0.8
		c-1.4-2-1.3-5.2,0.5-6.9c0.9-0.9,2-1.6,3.2-2.2c1.1-0.8,1.3-1.7,0.2-2.5c-0.5-0.5-1.1-0.8-1.7-1.1c-0.5-0.2-0.8-0.5-1.1-0.8
		c-1.1-0.8-1.4-2-1.1-3.8c0.3-0.9,1.4-1.9,2.5-1.9c0.9,0,1.7,0.2,2.7,0.3c0.5,0.2,1.1,0.3,1.4,0.5c1.1-1.1,1.1-1.1,1.4-2.4
		c-0.6-0.8-1.4-1.1-2.2-1.4c-2.5-0.8-4.9-0.8-7.4-0.6c-0.9,0.2-1.7,0.5-2.2,1.4c-0.6,0.8-1.3,1.7-1.4,2.8c-0.2,1.6-0.2,3-0.2,4.6
		c0,0.8,0.5,1.4,1.1,1.9l1.6,0.9c0.3,0.2,0.8,0.5,0.9,0.8c-0.2,0.2-0.2,0.3-0.2,0.5c-0.3,0.3-0.8,0.6-1.1,0.8
		c-2,1.6-3.3,3.8-2.8,6.5c0.2,0.9,0.2,1.9,0.5,2.8c0.2,0.6,0.3,1.4,0.8,1.9c0.5,0.8,1.1,1.6,2,2c1.6,0.6,3.2,1.1,4.9,0.8
		c1.6-0.2,3-0.5,4.4-0.8c1.9-0.5,3.2-2,4.6-3.6C344.5,417.8,343.8,417,342.9,416.3 M404.7,295.1c-0.8-0.5-1.6-0.5-2.5-0.5
		s-1.6,0-2.5,0.2c-0.8,0.2-1.6,0.5-2.4,0.8s-1.4,0.8-2.2,1.1c-0.8,0.5-1.3,1.1-2.2,1.4c-0.9-0.9-2.2-1.6-3.5-2
		c-1.9-0.6-3.8-1.3-5.7-1.6c-0.8-0.2-1.6-0.5-2.5,0c-0.3,1.1-0.2,2,0.2,3.2c0.3,0.2,0.6,0.3,0.8,0.3c1.6,0.3,2.8,1.1,4.3,1.6
		c1.6,0.8,2.5,1.9,3,3.8c0.2,0.8,0.2,1.4-0.5,2.2c-0.8,1.1-1.9,1.9-3.3,2.2l-4.6,1.6c-0.3,0.6-0.5,1.3-0.2,1.7
		c0.5,0.6,1.1,0.8,1.9,0.8c0.5,0,1.1-0.2,1.6-0.2c1.4-0.3,2.8-0.6,4.3-0.9c1.3-0.3,2.5-0.8,3.5-1.6c0.8-0.8,1.1-0.8,1.9,0
		c3,2.5,6.8,3.3,10.6,3.9c0.3-0.9,0.3-1.6-0.2-2.5c-0.3-0.2-0.6-0.2-1.1-0.5c-2.2-0.8-4.4-1.7-6.3-3.2c-0.5-0.3-1.1-0.8-1.4-1.3
		c-1.4-2.2-0.5-4.9,1.9-6.1c1.7-0.8,3.5-1.4,5.5-1.6c0.5,0,0.8-0.2,1.4-0.2c0.2-0.5,0.2-0.8,0.2-1.1
		C404.7,296.1,404.7,295.5,404.7,295.1 M228.2,403.8c0.5-3.8-0.9-6-4.4-6.8c-0.5-0.2-0.9-0.2-1.4-0.2c-1.9-0.2-3.9,0-5.8,0.5
		c-3.9,0.9-6.3,3.5-7.9,6.9c-1.4,3.2-1.4,6.5-0.9,9.8c0.2,0.5,0.5,1.1,0.8,1.6c1.1,1.4,2.5,2.2,3.9,3c0.8,0.5,1.6,0.8,2.4,0.5
		c1.6-0.2,3.2-0.3,4.7-0.8c2.5-0.6,4.3-2.4,5.2-4.9c-1.1-1.1-2.2-1.3-3.3-0.3c-1.1,0.9-2.5,1.4-3.9,1.6c-4.4,0.8-6-0.9-5.8-5.4
		c0-0.2,0.2-0.5,0.2-0.6c0.2-0.6,0.3-1.1,0.5-1.7c0.2-2,1.7-3.3,3-4.7c0.2-0.2,0.5-0.3,0.6-0.3c1.1-0.3,2.2-0.8,3.3-0.8
		c2.2-0.5,4.3-0.2,5.8,1.9C225.7,404.1,227,404.3,228.2,403.8 M381.5,112.4c0.8,0.2,1.6,0.2,2.2,0.5c1.7,0.5,3.5,1.1,4.9,2.2
		c1.4,1.4,1.9,2.8,1.4,4.7c-0.3,1.1-0.9,1.9-1.7,2.5c-1.4,1.1-2.8,1.6-4.6,1.9c-1.1,0.2-2,0.2-3.2,0.5c-0.5,0.2-0.9,0.6-0.9,1.1
		c0.2,1.9,1.1,2.8,3,3h0.8c1.9,0,3.8-0.5,5.5-1.1c1.4-0.5,2.4-1.3,3.5-2.2c1.3-1.1,2-2.5,3.2-3.9c2.2-0.2,4.3,0,6.5,0.2
		c2,0.2,4.1-0.2,6-0.8c0.3-1.1,0.3-2.2,0-3.5c-0.8-0.2-1.4-0.2-2-0.2c-2.7-0.2-5.5-0.2-8.2-0.2c-2.2-0.2-2.7,0.3-3.2-2.5
		c-0.2-0.5-0.5-0.8-0.8-1.1c-1.3-0.8-2.5-1.6-3.8-2.5c-0.5-0.3-0.9-0.5-1.4-0.6c-1.6-0.5-3.2-0.8-4.9-1.1c-0.5-0.2-0.8,0-1.4,0
		C381.7,110.3,381.5,111.1,381.5,112.4 M383.7,382.8c-0.5-0.2-0.8-0.5-1.1-0.6c-0.5-0.2-0.8-0.2-1.3-0.5c-1.9,1.1-2,3.2-3.8,4.4
		c-0.8-0.5-1.4-0.8-1.9-1.1s-1.3-0.9-1.7-1.4c-1.7-1.3-1.3-2.5-0.2-3.8c0.2-0.3,0.5-0.6,0.8-0.8c1.6-1.1,2.4-2.5,3.2-4.1
		c0.6-1.3,1.4-2.5,1.4-4.1c-1.4-0.8-2.8-1.4-4.6-1.3c-0.5,2.8-2,4.9-3.8,7.1c-2,2.5-1.9,5.4-1.3,8.2c0.2,1.1,0.8,1.7,1.6,2.4
		c0.8,0.5,1.4,1.1,2.2,1.4c2.5,1.4,5.2,2.5,7.7,3.9c2.4,1.3,4.6,2.7,6.5,4.6c0.3,0.3,0.6,0.5,1.1,0.8c1.4-0.8,1.9-1.9,2.8-3
		c-0.2-0.3-0.3-0.6-0.6-0.8c-2-1.7-4.3-3.5-6.8-4.6c-1.1-0.5-1.9-0.9-2.4-1.9C382.9,386.6,383.3,384.9,383.7,382.8 M405.3,324
		c-0.2,0.5-0.2,1.1-0.2,1.6c-0.2,1.1-0.2,2.2-0.3,3.2c-0.2,0.9-0.5,1.7-0.8,2.5c-0.6,1.4-2.4,2.4-3.5,2c-2.2-0.6-4.3-1.6-5.4-3.8
		c-0.5-0.8-1.1-1.4-1.9-1.6c-1.3-0.5-2.4-0.2-3.5,0.5c-0.2,0.3-0.3,0.6-0.3,0.8c-0.6,2.4-2.5,3.2-4.7,3.8c-1.4,0.3-1.9-0.2-2.5-1.4
		c-0.5-0.9-0.5-1.9-0.6-2.8c-0.2-0.8,0.2-1.6-0.5-2.5c-0.5-0.2-1.1-0.2-1.6-0.2c-0.2,0-0.5,0.2-0.6,0.2c-0.9,2.8-0.8,6.1,0.6,9.9
		c1.1,0.6,2.2,1.3,3.5,1.9c0.6,0.3,1.1,0.3,1.7,0c2.5-1.1,5-2,6.8-4.4c0.2-0.2,0.3-0.2,0.5-0.2c0.6,0.5,1.4,1.1,2,1.7
		c2,1.9,4.6,1.9,7.1,1.4c1.4-0.3,2.7-1.1,4.1-1.6c1.1-0.5,1.9-1.1,2.2-2.2c0.8-2.2,1.1-4.4,1.3-6.8c0.2-0.9-0.5-1.6-1.1-2.2
		C406.9,324,406.3,323.7,405.3,324 M123.1,409.3c1.4,0.2,2.2,0,3.2-0.5c1.1-0.5,1.9-0.8,2.8-1.3c1.6-0.8,2.5-2.2,2.8-3.8
		c0.3-1.4,0.3-2.7,0.5-4.1c0.2-1.6-0.6-2.8-1.9-3.8c-0.5-0.5-1.3-0.6-1.9-0.8c-2.5-0.8-5.2-0.6-7.9-0.2c-2.2,0.5-3.5,1.6-4.1,3.8
		c-0.2,0.8-0.5,1.6-0.6,2.4c-2.2,5.8-2.8,12-4.6,17.8c0.8,0.5,1.6,0.2,2.2,0.2c1.1,0,1.6-0.5,2-1.4c0.2-0.3,0.2-0.5,0.3-0.8
		c0.8-3,1.6-6,1.9-9.1c0-0.8,0.2-1.6,0.5-2.5c0.8-1.9,1.6-3.9,2.5-5.8c0.2-0.3,0.3-0.5,0.5-0.8c0.5-0.6,1.1-0.9,2-0.8
		c1.4,0.2,2.7,0.5,3.9,1.1c0.5,0.2,0.8,0.8,0.9,1.3c0.5,2.2-0.8,4.1-2.8,4.9c-0.5,0.2-1.1,0.5-1.7,0.6
		C123.5,406.8,123.2,407.9,123.1,409.3 M310.9,413.4c-1.1-0.5-1.9-0.6-2.8-0.9c-0.5-0.2-0.9,0-1.3,0.3l-0.6,0.6
		c-1.7,1.6-3.8,2-6.1,1.6c-1.1-0.2-1.6-0.8-2.2-1.9c-0.6-1.1-0.5-2.4-0.5-3.6c0-2.8,1.1-5.5,2.8-7.6c0.5-0.6,1.1-0.9,1.9-0.9
		c1.7,0,3.5-0.2,5.2,0c0.5,0,0.8,0.2,1.3,0.5c0.5,0.2,0.9,0.5,1.4,0.8c1.1-0.3,1.9-0.8,2.5-1.7c-0.5-0.8-1.1-1.6-2-1.9
		c-1.4-0.6-2.8-1.3-4.3-1.7c-1.6-0.6-3.2-0.8-4.6-0.3c-1.4,0.5-2.7,1.4-3.9,2.2c-1.7,2.5-3.8,5.2-4.1,8.5c-0.2,0.5-0.2,0.9-0.2,1.4
		c-0.3,1.9-0.2,3.6,0.8,5.2c0.2,0.5,0.5,0.8,0.5,1.3c-0.2,1.1,0.5,1.7,1.4,2.4c2.8,2.2,6,2.4,9.3,1.4
		C307.9,417.8,309.8,416.1,310.9,413.4 M385.9,149.3c0.5-0.2,0.8-0.2,0.9-0.3c0.9-1.1,2-1.1,3.3-0.9c2.2,0,4.4,0,6.6-0.2
		c2.4-0.2,4.6-0.6,6.8-1.7c1.4-0.8,2.5-1.7,3.3-3.2c0.6-1.1,1.3-2.4,0.9-3.9c-0.8-0.2-1.6-0.3-2.5-0.5c-0.6-0.2-1.1,0.2-1.3,0.8
		c-0.2,0.5-0.3,0.8-0.5,1.4c-0.3,1.7-1.6,2.5-3.2,3c-1.1,0.3-2.4,0.5-3.6,0.5c-3.5,0-7.1-0.2-10.4-0.3c-0.2,0-0.5-0.2-0.8-0.3
		c-0.2-1.9-0.2-3.9-1.7-5.5c-1.1,0-2,0.2-3.2,0.8v4.6c0,1.6,0,3,0.2,4.6c0.2,1.4,0,3,0.6,4.4c1.3,0,2.5,0.5,3.8-0.2
		C385.6,151.3,385.6,150.4,385.9,149.3 M247.5,401c-0.2,0.5-0.2,0.8-0.3,1.1c-0.8,1.3-0.8,2.5-1.1,3.9l-0.6,4.1
		c-0.2,2-0.3,4.3,0,6.3c0.2,1.3,0.8,2.2,1.9,2.5c1.1,0.5,2.4,0.6,3.5,0.8c1.3,0.2,2-0.5,2.5-1.6c0.3-0.6,0-1.4-0.6-1.4
		c-0.8-0.2-1.6,0-2.2-0.5c-0.3-0.2-0.8-0.5-0.8-0.8c-0.2-1.4-0.5-2.8-0.5-4.3c-0.2-2.2,0.8-4.4,1.4-6.6c0.5-1.4,0.9-2.7,2.2-3.8h3.5
		c0.5,0,1.1,0,1.6-0.2c1.1-0.2,1.6-0.9,1.4-1.9c-0.2-0.5-0.5-1.1-0.5-1.6c-5-0.8-13.1-0.9-15.6-0.3c-0.8,2.2-0.5,3,1.9,3.5
		C246.1,400.5,246.7,400.8,247.5,401 M404.4,185.4c0,1.6,0,2.8-0.2,4.4c-0.2,3.5-1.9,5.8-5.4,6.3c-1.4,0.2-2.7,0.5-4.1,0.5
		c-4.1-0.2-8.4-0.5-12.5-0.6c-0.3,0-0.6,0-0.9,0.2c-0.5,1.1-0.5,2-0.3,3.2c0.6,0.2,1.3,0.2,1.7,0.2c3.5,0.2,6.9,0.5,10.4,0.6
		c3.2,0.2,6.1-0.2,9.3-0.2c1.4-0.2,2.8-0.5,3.8-1.7c1.6-1.9,2.2-4.1,2.2-6.6c0-1.1-0.2-2.2-0.3-3.5c-0.2-2.4-0.3-2.5-2.7-2.7
		C405.3,185.1,405,185.2,404.4,185.4 M406.6,354.4c-1.1-0.2-1.9-0.3-2.7-0.3c-0.3,0-0.8,0.3-0.9,0.6c-0.2,0.3-0.2,0.8-0.3,1.1
		c-0.2,1.1-0.5,2.2-0.8,3.3c-0.2,0.6-0.5,1.4-0.9,1.7c-1.6,1.4-3.9,1.4-5.8,0.3c-0.6-0.5-1.4-0.8-1.9-1.1c-2.8-1.4-5.8-2-8.8-2.8
		c-1.1-0.3-2.4-0.3-3.6-0.5c-0.8,0.9-0.5,2-0.8,3.2c2.5,0.8,4.9,1.7,7.6,2.2c0.9,0.2,1.7,0.5,2.5,0.8c1.7,0.8,3.6,1.4,5.4,2.5
		c0.9,0.6,2,0.9,3.2,1.1c4.1,0.5,7.1-1.9,7.4-5.5c0.2-1.4,0.3-2.7,0.5-4.1C406.6,356,406.6,355.4,406.6,354.4 M381.5,166.3
		c-0.2,1.4-0.2,2.7,0.5,3.9c0.5,0.2,1.1,0.2,1.6,0.2c5,0.2,10.1,0.3,15.1,0.5c1.9,0.2,3.6,0.2,5.5,0.2c1.1,0,2.2,0,3.3-0.9v-1.7
		c0-0.6-0.2-1.4-0.2-1.9C403.3,165.8,385.5,165.7,381.5,166.3 M274.6,420.4h1.4c1.6,0,1.6,0,2-1.6c2.2-6.5,3.2-13.1,4.1-19.9
		c0.2-0.8,0.2-1.6-0.5-2.2l-0.6-0.3c-0.2-0.2-0.5-0.2-0.6-0.2c-2.5-0.2-3.3,0.5-3.5,3v0.8c-0.2,2.5-0.3,5.2-0.9,7.6
		c-0.6,2.5-1.3,4.9-1.9,7.3c-0.2,0.9-0.5,1.7-0.5,2.7C273.5,418.6,273.8,419.4,274.6,420.4 M380.3,220.1c0.6,0.2,1.1,0.2,1.6,0.2
		h24.4c0.5,0,0.8-0.2,1.3-0.3c0.2-1.3,0.2-1.3-0.2-2.4c-2.2-0.8-4.4-0.8-6.8-1.1s-4.6-0.3-6.8-0.5c-2.2-0.2-4.6-0.2-6.8,0
		s-4.6-0.2-6.8,0.3C379.9,217.7,379.9,218.7,380.3,220.1 M406,275.6c-1.6-0.2-3.2-0.5-4.6-0.5c-1.6-0.2-3.2-0.2-4.7-0.2
		c-5.5,0-10.9,0-16.4,0.2c-0.2,0-0.2,0.2-0.2,0.2c-0.2,0-0.2,0.2-0.2,0.2c-0.2,1.3,0,2.4,0.6,3.5c0.8,0.5,1.4,0.3,2.2,0.3
		c1.9-0.2,3.8-0.2,5.7-0.3c5.2-0.2,10.4-0.2,15.5-0.2c0.8,0,1.6,0.2,2.2-0.3c0-0.2,0.2-0.5,0.2-0.6C406,277,406,276.4,406,275.6"/>
</g>
</svg>
