<?xml version="1.0" encoding="utf-8"?>
<!-- Generator: Adobe Illustrator 25.2.1, SVG Export Plug-In . SVG Version: 6.00 Build 0)  -->
<svg version="1.1" id="Layer_1" xmlns="http://www.w3.org/2000/svg" xmlns:xlink="http://www.w3.org/1999/xlink" x="0px" y="0px"
	 viewBox="0 0 500 500" style="enable-background:new 0 0 500 500;" xml:space="preserve">
<path d="M424.8,230.2c-0.3-3.1-0.4-6.1-0.7-9.3c-0.4-3.8-0.9-7.7-1.3-11.3c-0.4-2.7-1.2-5.2-2.1-8c-0.7-2.5-1.3-5-2.2-7.4
	c-0.7-2.1-1.6-3.8-2.2-5.9c-0.9-2.5-1.8-5.2-2.7-7.7c-1.2-3-2.2-5.6-3.4-8.6c-0.7-1.3-1.2-2.7-1.8-4c-1.2-2.5-2.2-4.7-3.4-7.2
	c-0.7-1.8-1.2-3.8-3-5c-0.3-0.3-0.3-0.4-0.3-0.9c-0.3-0.4-0.3-0.9-0.7-1.3c-0.7-1.2-1.6-2.1-2.2-3.1c-0.9-1.3-1.8-2.7-2.7-4
	c-0.7-1.2-1.8-2.1-2.2-3.1c-0.3-0.4-0.4-0.7-0.7-1.2c-2.1-2.1-3.7-4.3-5.5-6.3c-0.3-0.3-0.3-0.4-0.4-0.7c-0.7-0.4-1.2-1.2-1.8-1.6
	c-3.4-2.2-6.5-4.6-9-7.4c-1.3-1.2-3-2.5-4.3-3.7c-0.3,0-0.4,0-0.7-0.3c-1.8-1.2-3.7-2.5-5.5-3.4c-1.2-0.4-2.2-0.9-3.4-1.3
	c-2.2-0.7-4.6-1.6-7-2.2c-0.4-0.3-0.9-0.3-1.3-0.4c-0.3,0-0.4,0.3-0.7,0.4c0.3-0.3,0.3-0.4,0.4-0.4c-1.8-0.4-3.8-1.2-5.6-1.6
	c-1.8-0.3-3.8-0.3-5.6-0.4h-3.1c-3.4-0.4-6.8-0.7-10.2,0.3c-0.3,0-0.7,0.3-0.9,0.3c-4.7,0.4-9.7,0.7-14.5,1.2
	c-5,0.4-9.7,0.9-14.7,1.6c-3.1,0.4-6.3,0.7-9.5,1.2c-3.4,0.7-6.8,1.2-9.9,2.2c-3.7,1.2-7.2,2.7-10.8,4.3c-2.2,0.9-4.6,2.1-6.5,3.1
	c-3.4,2.1-6.8,4-9.9,6.3c-3,2.1-6.1,3.8-9,6.3c-3.4,2.7-6.8,5.6-9.9,8.6c-3.4,3.1-6.5,6.5-9.7,9.9c-2.1,2.2-4.3,4.6-6.3,6.8
	c-2.1,2.2-4.3,4.3-5.9,6.8c-0.9,1.3-2.1,2.2-3.1,3.7c-2.1,2.5-3.8,5-5.9,7.2c-0.3,0.3-0.7,0.4-1.2,0.7c-0.3,0.3-0.7,0.4-0.9,0.7
	c-0.9,1.6-1.8,3.1-2.7,4.6c-0.4,0.7-1.3,1.3-2.1,2.1c-2.7,2.5-5,5.6-7,8.9c-0.3,0.3-0.4,0.7-0.3,0.7c0.7,1.8-0.7,2.7-1.6,3.8
	c-1.3,1.6-2.5,3.4-3.7,5c-1.2,1.8-2.2,3.7-3.4,5.2c-1.2,1.3-0.7,3,0.9,3.7c3.8,1.8,8,3,11.5,5.5c0.7,0.4,1.6,0.7,2.5,0.7
	c1.2,0,3-3.4,2.7-4.6c0.4-0.3,1.2-0.4,1.6-0.7c0.9-0.9,1.3-2.2,2.1-3.1c1.6-1.8,2.7-3.8,4-5.9c1.2-1.6,3-3,3.1-5.2
	c0-0.3,0.4-0.3,0.7-0.4c0.4-0.7,1.6-1.6,1.3-1.8c-0.7-1.2,0.3-1.8,0.7-2.5c1.2-1.8,2.5-3.7,3.7-5.2c0.7-0.9,1.6-1.3,2.7-1.2
	c0.3,0,0.4,0,0.7-0.3l0.3,0.3c-2.1,2.7-3.7,5.6-5.2,8.6c-0.4,0.4-0.7,0.9-1.2,1.3c-2.2,3-4.3,6.1-6.3,9.3c-2.1,3.1-4.3,6.5-6.3,9.7
	c-0.7,0.9-1.3,1.8-2.1,2.7c-0.3,0.3,0,0.9,0.3,1.2c0.7,0.7,1.6,1.2,2.5,1.6c4,2.1,8.1,4,12.1,6.1c2.1,1.2,2.2,0.9,3.4-1.2
	c1.8-3.1,3.7-6.3,5.5-9.5c0.7-1.2,1.2-2.2,2.1-3.1c2.2-3,5.2-5.2,7.2-8.3c0.4-0.7,1.3-1.2,2.2-1.6c0.3-0.3,0.9,0,1.3,0.3
	c0,0.4-0.3,0.9-0.3,1.2c-0.3,0.3-0.4,0.4-0.7,0.9c-0.9,1.2-2.1,2.5-3,3.7c-1.6,2.2-2.7,4.7-4.3,7c-0.9,1.3-2.2,2.5-3.4,3.8
	c-0.4,0.7-0.9,1.2-1.8,0.9c-0.3,0-0.9,0.7-0.9,0.9c0.3,2.1-1.6,3.4-1.6,5.5s-0.3,3,1.8,3.7c0.3,0.3,0.4,0.3,0.7,0.4
	c2.1,1.2,4,2.7,6.8,3c2.5,0.3,4.6,1.6,6.3,2.7c1.3,0.9,2.2,0.7,3.1-0.7c1.6-2.7,3.4-5,5.6-7c1.8-1.6,3.7-3.1,4.6-5.6
	c0.3-0.7,0.9-1.3,1.3-2.1c2.1-2.2,4.3-4.6,6.3-6.8c0.9-1.2,1.8-2.2,2.7-3.4c1.2-1.2,2.1-2.2,3.1-3.7c0.7-0.9,1.6-1.8,2.2-2.7
	l2.1-2.1c0.7-0.7,1.3-1.6,2.1-2.1c1.2-1.2,2.2-2.2,3.4-3.1c0-0.3,0-0.3,0.3-0.4c1.3-1.2,2.7-2.5,4-3.7c1.2-0.9,2.2-1.8,3.4-2.7
	c0.7-0.4,1.3-1.2,1.8-1.3c0.4-0.4,1.2-0.7,1.6-1.2c0.7-0.4,1.2-0.9,1.8-1.3c0-0.3,0.3-0.3,0.3-0.4c0.3-0.4,0.4-0.9,0.9-1.2
	c4.7-2.7,8.9-6.3,13-9.9c3-2.5,6.5-4.3,10.4-4.7c4.6-0.7,9.3-0.7,13.8-0.9c1.8,0,3.7,0.4,5.5,0.9c1.2,0.3,2.1,0.9,3.1,1.3
	c3.7,1.3,6.5,3.7,9.3,6.3c0.9,0.9,1.6,2.1,2.5,2.7c2.7,1.8,4.6,4.6,5.5,7.4c1.8,4.7,3,9.5,4,14.5c0.9,4.3,1.6,8.9,1.3,13.3
	c0,3.1-0.9,6.1-1.8,9c-0.7,2.2-1.6,4.3-2.2,6.5c-0.9,3.4-2.2,6.8-4.3,9.7c-1.6,2.2-3.4,4.7-5.2,7c-1.3,1.8-2.7,3.8-3.1,6.1
	c-0.4,3.1-0.9,6.3-1.2,9.3c-0.3,1.8,0,3.8,0.3,5.6c0.3,1.6,0.9,3.1,0.9,4.6c0,3.1,0.4,6.3,0.3,9.7c-0.3,3.7,0.4,7,1.2,10.6
	c0.3,1.3,1.2,3,1.6,4.3c0.4,0.9,1.3,1.6,2.1,2.2c2.2,2.2,4.3,5,6.1,7.4c2.7,3.4,5.2,6.8,8,10.2c0.4,0.7,0.4,1.2-0.3,1.6
	c-1.3,1.2-2.7,2.2-4,3.4c-0.7,0.4-1.3,0.9-2.2,1.6c-1.3-1.6-2.7-3-3.8-4.3c-0.9-1.2-1.3-2.2-2.2-3.4c-2.5-3.1-5.2-6.1-8-9
	c-1.8-2.1-3.1-4-5-6.1c-0.7-0.7-1.6-1.3-2.5-1.6c-1.2-0.4-2.2-0.7-3.4-0.9c-5.5-1.3-10.8-2.5-16.3-3.8c-2.2-0.4-4.6-0.9-6.8-1.2
	c-1.2,0-2.5,0-3.4,0.7c-2.2,1.3-4.3,3.1-6.8,4.6c-2.5,1.3-5,2.7-7.4,3.8c-1.8,0.9-3.8,1.8-5.6,2.5c-1.2,0.4-2.2,0.9-3.1,1.3
	c-2.1,0.9-4,1.2-5.9,2.7c-0.3,0.3-0.4,0.3-0.9,0.3c-0.9,0.3-1.6,0.3-2.5,0.4c-2.2,0.4-4.6,1.3-6.8,1.8c-5.6,1.2-11.1,2.5-17,3.1
	c-1.6,0.3-3.1,0.4-5,0.3c-2.7-0.3-5.6-0.9-8.3-1.3c-2.7-0.4-5.5-0.9-8.1-1.6c-2.2-0.4-4.6-0.9-6.8-1.3c-2.1-0.4-4-1.2-6.3-1.6
	c-2.2-0.4-4.6-0.9-6.5-2.1c-2.1-1.2-4-2.5-6.1-3.7c-0.7-0.4-1.2-0.7-1.8-1.2c-0.3-0.3-0.7-0.4-0.9-0.4c-0.4-0.3-1.2-0.4-1.6-0.7
	c-3-1.3-5.9-3-8.1-5.2c-3-1.6-5.6-3.8-8.1-5.9c0,0.3,0,0.4-0.3,0.7c0-0.4-0.3-0.7-0.3-1.2c-0.4-0.4-1.2-0.7-1.6-1.2
	c-0.4-0.3-0.9-0.7-1.3-0.9c-0.3,0-0.4,0.3-0.7,0.3c0-0.3-0.3-0.4-0.3-0.7v-0.3c-1.6-1.2-3.4-2.5-5-3.7c-0.3-0.3-0.4-0.3-0.7-0.4
	c-0.4-0.3-0.7-0.4-1.2-0.7h-0.4c0,0,0-0.3,0.3-0.3c-0.3-0.3-0.4-0.4-0.9-0.4v0.3h-0.3v-0.3c-3.1-2.2-6.3-4.6-8.3-8
	c-0.3-0.4-0.4-0.9-0.4-1.3l-0.7-0.7c-0.9-0.9-1.6-1.8-2.7-2.5c-2.2-1.3-3.8-3.4-5.2-5.5c-2.1-3.4-3.8-7.2-5.5-10.8
	c-2.2-5.5-4.3-10.8-6.5-16.3c-0.3-0.9-0.7-1.6-0.9-2.5c-0.3-1.8-0.4-3.7-0.4-5.6c0-3,0.3-5.9,0.4-8.9c0.3-2.5,0.7-4.7,1.3-7.2
	c0.4-1.6,0.9-3.1,2.1-4.3c0.7-0.9,1.8-1.8,2.5-3c2.1-3.4,4.7-6.3,7-9.5c0.3-0.4,0.9-0.7,1.2-1.2c0.7-0.4,1.2-1.2,1.8-1.6
	c1.2-0.7,2.1-1.6,3.1-2.2c1.6-0.7,3.1-1.3,4.6-1.8c0.9-0.3,1.6-0.7,2.5-0.9c3.4-0.7,6.8-1.3,9.9-2.1c4-0.9,8.1-1.3,12.1,0.4
	c0.7,0.3,1.2,0.4,1.8,0.4c0.7,0,1.6,0.3,2.1-0.3c2.2-2.5,4.6-5.2,6.5-8c1.3-1.6,2.7-3.1,4-4.7c2.2-2.5,4.7-5,7.2-7.4
	c1.2-1.2,0.7-2.5,0.4-3.8c0-0.3-0.7-0.7-0.9-0.7c-2.5-0.3-5-0.4-7.2-0.7c-1.2-0.3-1.6,0.4-2.1,1.2c-1.6,3.1-3.1,6.3-4.7,9.5
	c-0.4,0.9-0.9,1.2-1.8,0.9c-1.8-0.4-3.4-0.7-5.2-1.2c-0.3,0-0.7-0.9-0.7-1.2c1.6-3.4,3.1-6.8,5-10.4c1.3-2.7,2.5-5.5,3.8-8.1
	c1.8-3.4,3.7-7,5.5-10.4c1.3-2.5,2.5-5,3.8-7.7c0.3-0.7,0.7-0.9,1.3-0.7c2.1,0.4,4.3,1.2,6.3,1.3c1.2,0.3,1.3,0.7,1.6,1.8
	c0.3,2.5,0.4,5.2,0.9,7.7c0.7,3.7,1.3,7.2,2.1,10.8c0,0.4,0.3,0.9,0.7,1.8c3-3.1,5.5-6.3,8.1-9.3c2.7-3,5.6-5.9,8.3-8.9
	c1.8-1.8,3.4-3.7,5.2-5.6c0.7-0.9,0.4-1.6-0.4-2.1c-1.3-0.9-2.7-1.6-4.3-2.5c-1.2-0.7-2.2-1.8-3.4-2.1c-3.8-1.2-8-2.2-11.7-3.1
	c-3.4-0.7-7-1.3-10.6-1.8c-2.5-0.4-5-0.9-7.4-0.9c-4.6-0.3-9.3-0.4-13.8-0.4c-3.7,0-7.4,0.3-11.1,0.4c-1.8,0.3-3.8,0.7-5.6,0.7
	s-3.7-0.4-5.5-0.3c-4.6,0.3-8.9,0.4-13.3,0.9c-1.8,0.3-3.7,0.9-5.6,0.9c-3.7,0-6.8,2.1-10.4,2.5c-0.3,0-0.4,0.3-0.7,0.4
	c-0.7,0.4-1.3,0.9-2.1,1.2c-3.4,1.2-6.5,2.2-9.3,4.3c-0.7,0.4-1.2,0.9-1.6,1.3c-0.7,0.3-1.3,0.3-1.8,0.7c-1.8,1.2-3.4,2.5-5.2,3.7
	c-0.4,0.3-1.2,0.4-1.6,0.7c-0.4,0.3-0.9,0.3-0.9,0.4c-0.3,0.9-0.9,0.9-1.6,1.2c-0.3,0.3-0.4,0.3-0.7,0.4c-1.2,0.9-2.5,2.1-3.7,3
	c-1.3,1.2-3,2.1-4,3.1c-2.5,2.7-5.2,5.2-7.2,8.1c-2.1,2.7-4,5.6-5.9,8.6c-0.7,1.2-1.3,2.2-2.1,3.4c-0.9,1.3-1.8,3-2.7,4.3
	c-0.4,0.7-0.9,1.3-1.2,2.2c-0.3,0.9-0.4,1.8-0.7,2.7c-0.9,3-1.8,5.9-2.5,8.9c-0.7,3.1-1.2,6.3-1.8,9.7c-0.3,1.6-0.9,3-1.2,4.6
	c-0.4,2.5-0.7,5-0.9,7.4c-0.3,5-0.3,9.9-0.3,15.1c0,7.7,1.2,14.9,2.7,22.3c0.7,2.7,1.2,5.6,1.6,8.3c0.3,1.2,0.3,2.5,0.3,3.8
	c0.3,1.3,0.7,2.7,0.9,4c0.3,0.7,0.3,1.6,0.4,2.2c0.4,2.1,0.9,3.8,1.3,5.6c0.4,1.3,0.7,3,1.2,4.3h0.3c0,0.3,0.3,0.7,0.3,0.9v0.4
	c0.4,1.8,0.9,3.4,1.3,5c0.4,1.3,0.9,3,1.3,4.3c0.4,1.2,0.9,2.1,1.2,3.1c0.7,1.8,1.2,3.8,1.8,5.6l0.3,0.3c0.3,0.7,0.4,1.3,0.7,1.8
	c0,0.3,0,0.7,0.3,0.9c1.2,2.1,2.5,4,3.7,6.1c1.2,1.8,2.1,3.7,3.1,5.5c0.7,1.2,1.6,2.1,2.5,3c1.6,1.6,2.5,3.8,3.7,5.6
	c0.3,0.3,0.4,0.3,0.7,0.4v-0.3l0.4,0.4v0.4c0.3,0.3,0.4,0.3,0.7,0.4l0.3,0.3c0.3,2.1,2.5,2.7,3.4,4.3c0.3,0.4,0.4,0.9,0.9,0.9
	c0.3,0,0.4,0.3,0.7,0.3l0.4,0.4c0.7,0.7,1.2,1.8,2.1,2.1l0.3,0.3l0.3,0.3c0.4,0.9,1.6,0.9,2.2,1.3c0.3,0.3,0.4,0.3,0.7,0.4
	c0.4,1.2,1.6,1.6,2.7,2.1c0.3,0,0.4,0.4,0.9,0.4c1.2,0.7,2.1,1.2,3.1,1.8c0.3,0.3,0.7,0.3,1.2,0.4c0.9,0.7,2.1,1.3,3,2.1
	c1.2,0.9,2.1,1.8,3,2.7c1.3,1.3,2.5,3,3.8,4.3c1.2,1.2,2.2,1.8,3.4,3c1.8,1.8,3.7,3.7,5.5,5.2c0.4,0.4,1.3,0.7,2.1,1.2
	c0.9,0.7,1.6,1.6,2.5,2.1c4.6,3.4,9.7,5.5,14.7,8c5.5,2.5,10.8,4.7,16.4,6.3c5.5,1.6,10.8,3.4,16.3,4.7c6.1,1.6,12.4,3,18.5,4.3
	c4,0.9,8.1,1.8,12.4,2.2c4.7,0.7,9.5,1.3,14.5,1.8c3.4,0.4,6.8,1.2,10.2,1.2c7-0.4,14-1.2,21-1.8c2.1-0.3,4.3-0.4,6.3-0.7
	c2.1-0.3,3.8-0.9,5.9-1.3c3.4-0.7,6.8-1.3,10.2-2.2c0.9-0.3,1.8-0.9,3-1.2c1.6-0.4,3.1-0.4,4.6-0.9c0.9-0.3,1.6-0.9,2.2-1.2
	c0.7-0.3,1.3-0.4,2.1-0.9c0.4,0,1.2,0,1.6-0.3c0.7-0.3,1.2-1.2,1.6-1.2c1.3-0.3,2.7-0.3,3.8-1.3h0.4c0.1,0,0.4-0.3,0.7-0.3
	c6.8-3.8,13.8-7.4,20.7-10.8c0.9-0.4,1.8-0.3,2.2,0c0.3-0.4,0.7-0.9,1.3-0.9c2.5-1.8,5.2-3.4,7.7-5.2c2.1-1.6,4.3-3,6.5-4
	c1.3-1.2,2.7-2.1,3.8-3.1c2.7-2.5,5.5-4.7,8.1-7.2c0.3-0.3,0.4-0.3,0.7-0.4c0.9-0.9,2.1-1.6,3-2.5c2.1-1.8,3.8-3.7,5.9-5.5
	c1.3-1.3,3-2.7,4.3-4c0.9-0.9,1.6-2.1,2.7-3c3.1-2.7,6.1-5.6,8.9-8.9c1.6-1.6,2.7-3.7,4-5.5c0.3,0,0.3-0.3,0.4-0.4
	c0.4-0.7,1.2-1.3,1.6-2.1c0.3-0.3,0.4-0.3,0.7-0.4v-0.3c0,0,0.3-0.3,0.3-0.4c0,0,0-0.3,0.3-0.3c0.4-0.4,0.9-1.2,1.2-1.6
	c0.3-0.3,0.4-0.7,0.7-0.9c0.3-0.3,0.4-0.4,0.4-0.9c0.4-0.7,0.9-1.3,1.3-2.2c0.9-0.9,1.8-1.8,2.7-3c1.6-3.1,3.4-6.3,5-9.5
	c1.3-2.7,3-6.1,5.2-8.9c0.3-0.9,0.7-1.8,0.9-2.7c0.3-0.3,0.3-0.7,0.4-0.9c0-0.3,0.3-0.3,0.3-0.3c0.3-0.4,0.7-0.9,0.9-1.6
	c0.3-0.3,0.3-0.4,0.4-0.7c1.2-1.8,2.1-3.4,3-5.2c0.7-1.2,1.2-2.1,1.8-3.1v-0.3c0.4-0.7,0.9-1.6,1.2-2.2c0.4-1.2,0.9-2.1,1.6-3.1
	c0.4-0.9,1.3-1.8,1.2-2.5v-0.3c0-0.3,0.3-0.4,0.3-0.9c0.3-0.3,0.7-0.7,0.7-1.2c0.4-1.2,0.7-2.1,0.9-3.1c0-0.3,0.3-0.3,0.3-0.4
	c0.7-2.2,1.2-4.7,1.6-7c0.4-2.1,0.7-4,0.9-6.1c0.3-2.7,0.3-5.2,0.3-8C424.8,234.1,424.8,232.3,424.8,230.2L424.8,230.2z
	 M258.1,192.1c-0.4,1.6-0.7,3-1.2,4.6c-1.2,4.7-5.2,7.7-9.9,8h-2.5c-5.2,0.3-9.7-1.6-13.3-5.5c-1.8-1.8-3.4-4-3.8-6.8
	c-0.4-2.7-1.2-5.5-0.4-8.1c0.4-1.8,0.3-3.8,0.7-5.6c0.3-2.1,0.7-3.8,1.3-5.6c0.4-1.3,1.8-2.2,2.7-3.7c0.3-0.4,0.4-0.9,0.7-1.3
	l0.7-0.7c5.2-3,10.8-3.1,16.3-0.7c0.9,0.4,1.6,1.3,2.5,2.1c0.7,0.7,1.6,1.3,2.2,2.1c0.9,0.9,0.9,1.8,0,2.7c-0.9,0.9-1.8,1.8-3,2.5
	c-0.7,0.4-0.9,0.7-1.8,0c-3.4-3-7.7-2.7-11.1,0.3c-1.2,0.9-1.8,2.1-1.6,3.4c0.3,2.5,0.4,5,0.4,7.4c0,3,1.3,5.6,2.7,8.1
	c0,0.3,0.3,0.4,0.4,0.4c1.6,0.7,3.1,1.2,5,0.4c2.7-0.9,4.6-3,5.6-5.6c0.4-1.2,0.9-1.2,2.1-0.9c1.3,0.4,3,0.7,4.3,0.9
	C258.1,190.9,258.4,191.5,258.1,192.1L258.1,192.1z M285.8,174.3c-0.9,2.1-3,2.7-4.6,4c-0.9,0.9-1.8,0.7-2.2-0.4
	c-2.5-4.6-5.5-8.9-9-12.9c-3.1-3.7-5.9-7.7-9-11.5c-0.4-0.7-0.7-1.2-1.2-1.8c-0.4-1.2-1.2-1.2-2.2-0.4c-2.1,1.2-4,2.2-6.1,3.4
	c-0.9-1.6-1.8-3-2.5-4.6c-0.3-0.4,0-1.2,0.3-1.6c0.4-0.7,1.3-1.3,2.1-1.6c2.2-0.4,3.8-2.1,5.6-3.4c3.1-2.1,6.1-4.3,9-6.3
	c1.3-0.9,2.5-2.1,3.8-3c2.1-1.3,3-1.2,4.3,0.9c0.7,1.2,1.6,2.1,2.5,3.7c-0.4,0.4-1.2,1.2-2.1,1.6c-1.8,1.3-3.8,2.7-5.9,3.8
	c-0.7,0.4-0.9,0.7-0.3,1.6c1.2,1.6,2.5,3.1,2.7,5.5c0,0.3,0.3,0.4,0.4,0.7c1.8,2.7,3.4,5.6,5.2,8.3c1.6,2.2,3,4.7,4.6,7
	c1.3,2.1,2.7,4,4.3,5.9C286.2,173.3,286.2,173.6,285.8,174.3L285.8,174.3z M300,160.9c-0.9,0.3-1.2,0-1.3-0.9c-0.9-4-1.8-8-2.7-12
	c-0.7-3-1.3-5.6-2.2-8.6c-1.2-3.4-2.2-7-3.4-10.4c-0.3-0.9-0.3-1.3,0.9-1.6c2.1-0.4,4-1.2,6.1-1.8c0.9-0.3,1.2,0,1.3,0.9
	c0.7,2.2,1.6,4.7,2.2,7c0.3,0.7,0.3,1.6,0.4,2.2c0.9,3.1,1.8,6.3,2.7,9.5c0.9,3.4,1.3,6.8,2.1,10.2c0.3,0.9,0.7,1.8,1.2,3
	C304.7,159.4,302.5,160,300,160.9z M144.8,143.3c3-1.2,6.1-1.8,9.3-1.3c0.9,0.3,2.1,0.3,3,0.7c3.8,1.6,8.1,2.5,11.3,5.6
	s3.8,6.8,2.5,10.8c-0.3,1.2-0.9,2.2-1.6,3.4c-0.4,0.7-1.3,1.2-2.1,1.6c-0.4,0.4-1.2,0.7-1.2,1.2c-0.3,1.8,0.3,3.7,1.2,5.2
	c1.2,1.8,2.7,3.4,3.1,5.2c0.3,1.6,1.6,2.2,1.8,3.7c0.3,0.9,0,1.2-0.7,1.3c-1.6,0.4-3.4,0.9-5,1.2c-0.3,0-0.7-0.3-0.9-0.4
	c-0.9-1.3-1.6-3-2.5-4.3c-1.2-2.1-2.2-4-3.4-6.1c-0.4-0.9-1.2-1.2-2.2-0.7c0.3,2.1,0.4,4,0.7,5.9c0.3,2.2,0.4,4.6,0.7,6.8
	c0,0.7,0,1.2-0.9,1.3c-2.1,0.4-4,0.9-5.9,1.3c-1.2,0.3-1.6-0.3-1.6-1.2c-0.4-3.1-1.2-6.5-1.6-9.7c-0.9-4.6-1.8-9-2.7-13.6
	c-0.7-3-1.2-5.9-1.8-8.9c-0.4-2.2-0.9-4.3-1.3-6.5C143.2,144.4,143.5,144,144.8,143.3L144.8,143.3z M104.4,172.9
	c0.4-1.8,0.4-3.7,0.7-5.5c0-0.3,0.4-0.7,0.7-0.7c2.5-0.4,4-2.1,5.9-3.7c3.8-3.7,8.3-4.3,13.3-3.1c2.5,0.4,3.7,2.2,5,4
	c1.3,2.1,2.2,4.6,2.1,7c0,3.1-0.7,5.9-2.1,8.6c-0.3,0.3-0.3,0.4-0.4,0.7c-1.2,1.6-0.9,3.7,0.4,5c2.2,2.5,4.7,5.2,7,8
	c0.9,0.9,0.7,1.3-0.7,1.6c-1.8,0.3-3,1.8-4.3,2.7c-1.6,0.9-2.1,0.9-3-0.9c-0.7-1.3-1.8-2.5-3-3.4c-2.1-2.2-4-4.3-6.1-6.3
	c-1.8-1.8-3.8-3.7-5.9-5.2c-1.6-1.3-3-2.5-4.6-3.7c-1.6-1.3-3.1-2.7-4.7-4C104.4,173.6,104.4,173.3,104.4,172.9L104.4,172.9z
	 M106.8,232.6c-1.2-3-0.4-5.9-0.3-8.9c0.3-2.7,1.3-5.5,1.6-8.1c0.3-4.3,2.2-7.7,3.4-11.7c0-0.4,0.4-0.7,0.7-1.3
	c0.7,0.3,1.2,0.4,1.3,0.7c-1.8,3-2.5,6.1-3,9.3c-0.9,6.3-0.9,12.9-0.9,19.2c0,3.4,0.4,6.8,0.7,10.2c0.3,4.3,0.9,8.6,1.6,12.7
	c0.4,2.5,1.2,4.7,2.1,7.2c0.9,2.5,1.8,5,3,7.2c0.9,1.8,1.3,3.4,1.6,5.5v0.7l-0.3,0.3c-1.2-2.2-2.5-4.6-3.4-7c-3-6.8-4.7-14-6.3-21
	c-0.7-3-1.3-6.1-1.8-9c-0.3-1.8,0-3.7,0.3-5.5C106.8,232.9,107.1,232.7,106.8,232.6L106.8,232.6z M91.7,197.1
	c0.7-1.8,1.3-3.7,2.1-5.5c0.3-0.3,0.4-0.4,0.7-0.9c0.3-0.4,0.7-1.2,0.7-1.6c0.3-0.9-0.3-1.6,0.7-2.5c0.4-0.4,0.3-1.6,0.4-2.5v-0.7
	c0.4,0.4,0.9,0.7,1.3,0.9c1.2,0.3,1.2,0.7,0.4,1.8c-1.3,2.1-2.7,4-3.8,6.3c-0.7,1.2-0.9,2.5-1.3,3.7c-0.4,0.7-0.9,1.3-1.3,2.2
	c-0.3,0-0.3-0.3-0.4-0.3C91.3,197.7,91.6,197.5,91.7,197.1L91.7,197.1z M89.5,263.2c-1.2-3.7-1.8-7.4-2.7-11.1
	c-0.4-2.5-1.2-5.2-1.3-7.7c-0.3-3.7,0-7.2,0.3-10.8c0-2.2,0-4.6,0.3-7c0-0.9,0.4-1.8,0.3-2.5c0-1.3-0.4-2.5-0.4-3.8
	c0-1.2,0.4-2.5,0.7-3.7c1.2-4.3,2.2-8.6,3.4-12.9c0.4-1.6,0.9-3.1,1.6-4.7c0.7,0,1.2,0.3,1.2,1.2c-0.3,1.6-0.4,3-0.9,4.3
	c-1.2,5.2-2.2,10.6-3.1,15.8c-0.4,2.5-0.3,5-0.3,7.2c0,4,0,8.1,0.3,12.4c0,1.8,0.4,3.8,0.4,5.6c0.3,2.5,0.3,5,0.7,7.4
	c1.2,7.2,2.7,14.5,5.5,21.3c0.7,1.6,1.6,3.1,2.5,4.7c0.4,1.2,0.9,2.2,1.3,3.4c-0.3,0-0.3,0.3-0.4,0.3c-0.7-1.2-1.6-2.1-2.1-3.1
	C94.1,274.5,91.6,268.8,89.5,263.2L89.5,263.2z M127.2,308.8c-2.7-1.6-3.7-4.6-5.9-6.5c-1.6,1.2-3,2.2-4.6,3.4
	c-2.5,1.8-5.2,3.7-7.7,5.5c-0.4,0.4-0.9,0.4-1.3-0.3c-0.9-1.6-2.1-3.1-3.1-5c1.6-1.3,3.1-2.5,4.7-3.8c4.3-3.7,8.6-7,12.9-10.6
	c3-2.5,5.6-4.7,8.6-7.2c0.9-0.7,1.6-1.6,2.5-2.2c0.9-0.9,1.6-0.7,2.2,0.3c1.6,1.8,3.1,3.7,5,5.2l6.1,6.1c0.3,0.3,0.3,0.9,0,1.2
	c-1.3,1.6-2.7,3-4,4.3c-0.4,0.4-0.9,0.4-1.3,0c-0.9-0.9-2.2-1.6-2.7-2.5c-0.9-1.8-3-2.5-3.7-4.3c-0.4-0.9-0.9-0.9-1.6-0.4
	c-2.1,1.6-3.8,3.4-5.9,5c-0.3,0.3,0,0.7,0,0.9c1.3,1.8,2.7,3.8,4,5.6c0.4,0.4,0.4,0.9,0,1.3C130.3,306.1,128.8,307.4,127.2,308.8
	L127.2,308.8z M152.8,318.1c-0.9,0.9-1.8,2.1-2.7,3c-0.7,1.2-1.6,2.2-1.8,3.7c-0.4,1.8-1.6,3-2.7,4c-0.7,0.9-0.7,1.3,0.3,1.8
	c1.8,1.3,3.7,3,5.5,4.3c0.7,0.4,0.9,0.9,0.4,1.8c-0.7,1.2-1.6,2.2-2.2,3.4c-0.3,0.4-0.7,1.2-0.9,1.8c-0.4,0.9-0.9,1.2-1.8,0.4
	c-1.6-1.2-3.4-2.2-5-3.4c-0.7-0.4-1.2-1.2-1.8-1.6c-1.8-1.2-3.4-2.2-5.2-3.7c-0.7-0.4-1.6-0.9-2.2-1.6c-0.4-0.3-0.4-0.7-0.4-0.9
	c6.1-7,12-14.2,17.6-21.4v-0.3c0.4-0.7,0.9-1.3,1.3-1.8c0.7-0.4,1.6-0.9,2.1-1.8l0.3-0.3c0.4-1.8,1.6-2.1,3-0.7
	c1.3,1.3,2.7,2.5,4.6,3.8c-1.2,1.3-2.5,2.7-3.4,4c-0.4,0.4-0.7,1.2-1.2,1.6C155,315.6,153.8,316.7,152.8,318.1L152.8,318.1z
	 M189.8,327.4c-0.9,1.2-1.6,1.2-3,0.4c-1.3-0.9-3-1.8-4.3-2.5c-0.3,0-0.9,0.3-0.9,0.4c-1.2,1.6-2.1,3.4-3.1,5
	c-0.4,0.7-0.7,1.2-1.2,2.1c1.2,0.4,2.1,0.9,3,1.3c1.2,0.4,1.3,1.3,0.7,2.2c-0.7,1.2-1.3,2.2-1.8,3.4c-0.3,0.3-0.3,0.7-0.3,1.2
	c0,0.3,0,0.9-0.3,0.9c-0.4,0-0.9,0.3-1.2,0c-0.9-0.7-1.6-1.3-2.5-2.1c-1.2-1.2-1.6-1.2-2.2,0.3c-1.6,2.7-3.4,5.2-5,8
	c-0.7,1.2-0.7,1.6,0.7,2.1c2.2,0.9,4.3,2.1,6.5,3c0.7,0.3,1.6,0.4,2.5,0.7c-0.9,2.1-1.8,4-2.7,6.1c-0.3,0.7-0.7,0.7-1.3,0.3
	c-2.5-1.6-4.7-3.1-7.4-4.6c-2.7-1.6-5.5-3-8.3-4.3c-0.4-0.3-0.7-0.4-1.3-0.9c2.2-3.7,4.3-7.2,6.5-10.8c2.2-3.7,4.6-7.4,7-11.1
	c2.2-3.7,4.7-7,7.2-10.4c0.4-0.9,1.2-1.6,1.8-2.5c0.4-0.9,1.2-0.7,1.8-0.3l7.4,4.7c1.6,0.9,3,1.8,4.6,3
	C191.6,324.4,190.7,325.9,189.8,327.4L189.8,327.4z M223.4,341.1c-1.3,1.6-2.7,3.4-3.8,5.2c-0.4,0.7-0.9,1.8-1.3,2.5
	c-0.4,0.9-0.9,1.6-1.3,2.5c-0.7,0.9-0.9,2.1-0.7,3.1c0.9,5.5,1.6,10.8,2.2,16.4c0.3,0.9,0,1.8,0.3,3.1c-3-1.2-5.6-2.1-8.3-3
	c-0.7-0.3-0.9-0.7-0.9-1.6c-0.3-2.2-0.4-4.6-0.7-7.2l-1.3,1.3c-1.2,1.6-2.2,3-3.4,4.6c-0.3,0.3-0.7,0.4-0.9,0.4
	c-2.7-0.7-5.2-1.3-8-2.2c-0.3,0-0.3-0.3-0.4-0.4c0.7-0.7,1.2-1.6,1.8-2.2c2.1-3,4.3-5.6,6.3-8.6c0.7-0.9,0.7-2.1,1.3-2.7
	c3-3.1,2.1-6.8,1.6-10.4c-0.4-5-0.9-9.9-1.3-15.4c1.6,0.3,2.7,0.3,3.8,0.7c1.3,0.4,2.7,1.2,4.3,1.6c0.9,0.3,0.9,0.7,0.9,1.3
	c0.3,2.2,0.3,4.6,0.4,6.8c0,0.7-0.3,1.6,0.9,1.3c0.4,0,0.7-0.7,0.9-1.3c0.4-0.3,1.2-0.4,1.8-0.7c-0.4-0.3-0.4-0.4-0.7-0.7l0.3-0.3
	c1.2-0.4,1.8-1.3,2.2-2.5c0.4-0.9,0.9-1.6,2.1-1.6c2.7,0.4,5.2,0.9,8.1,1.3C227.5,336,225.4,338.6,223.4,341.1L223.4,341.1z
	 M244.6,374.1H239v-6.8c-0.3-4.3-0.4-8.6-0.7-12.7c-0.3-4.7-0.7-9.5-0.9-14.2c0-1.2,0.3-1.6,1.6-1.6h5c0.9,0,1.3,0.4,1.3,1.3
	c0.7,4.6,0.7,9,0.4,13.8c-0.3,3.7,0.3,7.2,0.4,10.8c0.3,2.7,0.3,5.5,0.3,8.1C246.4,374.1,246,374.3,244.6,374.1L244.6,374.1z
	 M278.7,366.6c-3.4,5.2-8.1,6.5-14,5.6c-0.9-0.3-1.8-0.3-3-0.3c-0.3-2.7-0.7-5.6-0.9-8.3c-0.4-3.7-1.2-7.4-1.8-11.1
	c-0.7-3.8-1.6-7.7-2.5-11.7c-0.3-1.3-0.4-2.7-0.7-4c-0.3-1.2,0.3-1.8,1.6-1.8c2.2,0,4.7-0.3,7,0c1.8,0,3.7,0.3,5.2,0.7
	c2.5,0.4,4,2.7,4.6,5c0.7,3.4-0.3,6.3-2.2,8.9c0,0.3-0.3,0.3-0.3,0.4v0.4c0.9,0.3,2.1,0.7,3,1.2c1.6,0.4,2.5,1.6,3.1,3.1
	c0.4,1.2,1.2,2.2,1.6,3.7C280.7,361.1,280.6,363.9,278.7,366.6L278.7,366.6z M303.8,361.1c-1.8,0.9-3.8,1.8-5.9,2.7
	c-0.3,0-0.7-0.4-0.9-0.7c-0.4-0.9-0.9-1.6-2.1-1.8c-0.3,0-0.7-0.4-0.9-0.9c-1.2-3.4-2.2-6.8-3.1-10.2c-0.7-2.2-1.6-4.6-2.2-6.8
	c-0.3-0.9-0.4-2.1-0.9-3c-0.7-1.3-1.3-2.7-1.8-4.3c-0.7-1.6-1.3-3.4-2.1-5.2c0-0.3,0.3-0.9,0.7-1.2c1.3-0.9,2.7-1.3,4.3-2.2
	c0.3,0,0.3,0,0.4-0.3l0.7,0.7c0.4,1.3,0.9,2.7,1.6,3.8c0.9,2.1,1.8,3.8,2.7,5.9c1.6,3.1,3,6.5,4,9.9c0.7,2.1,2.1,3.8,3,5.6
	c0.3,0.4,0.7,1.2,0.9,1.6c0.7,1.6,1.2,3,1.8,4.6C304.2,360.4,304,361,303.8,361.1L303.8,361.1z M334,342.5c-2.5,1.8-5.2,3.8-8,5.5
	c-2.2,1.6-4.7,3-7.2,4.6c-1.2-2.2-1.8-4.6-3-6.8c-1.8-3.8-3.8-7.7-5.9-11.5c-1.3-2.5-2.5-5-3.7-7.4c-0.7-1.3-1.3-3-2.1-4.3
	c-0.4-0.9-0.3-1.6,0.4-2.2c0.9-0.4,1.6-1.2,2.5-1.6c1.2-0.4,2.2-0.3,3,0.9c1.3,2.1,2.7,3.8,4,5.9c2.2,3.7,4.6,7.2,6.8,11.1
	c0.7,1.2,0.9,2.7,1.6,4c0.3,0.7,0.7,1.8,1.2,1.8c0.5,0,1.3-0.7,2.1-1.2c1.8-1.2,3.7-2.5,5.6-3.7c0.3-0.3,0.7,0,0.9,0.3
	c0.9,0.9,1.6,1.8,2.2,3C334.9,341.3,334.4,342.2,334,342.5L334,342.5z M344.2,140.9c-0.3-4-4.6-8-8.6-7.4c-2.5,0.3-3.7,2.2-4.7,4
	c-1.2,2.1-2.2,3.8-3.4,5.9c-0.4,0.7-0.7,1.8-0.7,2.5c-0.4,3-0.9,5.6-0.3,8.6c0.3,1.6,2.5,3.1,4.3,3.4c3,0.3,5.2-0.7,7-3
	c1.2-1.2,1.2-1.2,2.1,0s1.8,2.5,3,3.7c1.3,1.6,1.2,3.7-0.7,5c-2.5,1.6-5.2,2.7-8.1,2.2v0.4c-3-0.7-5.6-1.2-8.3-2.1
	c-2.1-0.7-3.8-2.5-5-4.6c-0.9-2.1-1.8-4-2.1-6.1c-0.4-2.2-0.3-4.6,0-6.8c0-2.2,0.3-4.3,0.4-6.5c0-0.7,0.3-1.3,0.7-2.1
	c0.9-1.3,2.2-2.7,3.1-4.3c0.4-0.7,0.7-1.6,1.2-2.2c0-0.3,0.4-0.3,0.4-0.4c0.4-0.4,0.7-0.9,1.2-1.3c0.9-0.9,1.8-2.1,3-2.5
	c3.8-1.6,8-2.1,12-2.5c0.4,0,1.2,0,1.6,0.3c1.3,0.9,2.7,1.8,4,2.7c0.9,0.7,1.8,1.6,2.7,2.5c1.8,1.8,2.2,4,2.7,6.3
	c0.3,1.3,0.9,3,1.2,4.3c0.3,0.4,0.3,1.3,0,1.6c-0.7,0.7-1.6,1.3-2.5,1.3c-2.2-0.4-4.3-1.2-6.3-1.8
	C344.2,141.9,344.2,141.3,344.2,140.9L344.2,140.9z M349.8,181.4c-0.9-1.2-2.2-2.1-3.4-3.1c-0.9-0.7-0.7-1.3,0-1.8
	c1.8-1.6,3.7-3.1,5.2-5c2.1-2.5,4.6-4.3,6.8-6.3c3.4-3.1,7-6.3,10.4-9.5c2.2-1.8,4.6-3.7,6.8-5.5c1.3,1.2,2.7,2.2,4,3.4l0.4,0.4v0.3
	h0.3l0.3,0.3c0.3,0.4,0.4,0.9,0.7,1.2c0,0.3,0.3,0.3,0.3,0.4c1.2,1.2,2.2,2.2,3.1,3.7c1.8,3,3.8,5.6,6.3,8.1c-1.3,1.3-2.5,3-3.7,4.6
	c-0.9-0.9-2.1-1.8-3-2.7l-0.9-0.9v-0.3c-2.1-2.5-4.3-5.2-6.8-8.1c-0.9,1.2-2.1,2.2-3.1,3.7c-0.3,0.4-0.4,0.9-0.9,1.2
	c-0.7,0.4-0.7,0.9-0.4,1.6c0.3,0.7,0.3,1.6,0.3,2.2c-0.3,1.8,1.3,2.7,2.2,3.8c0.4,0.4,1.2,1.2,1.8,1.6c-1.6,1.3-3.4,2.7-5,4
	c-1.6-2.1-3.4-4-5-6.3c-1.2-1.3-1.8-1.3-3-0.3c-1.8,1.8-3.7,3.1-5.6,4.7c-1.2,0.9-1.2,1.2-0.3,2.2c1.6,2.7,3.1,5.6,4.7,8.3
	c0,0,0,0.3,0.3,0.4c0.3,0.7,1.2,1.3,0.9,1.8c0,0.4-0.9,0.9-1.6,1.3l-2.5,2.5c-1.2-1.6-2.2-3.1-3.4-4.7
	C353.9,186.6,351.9,183.9,349.8,181.4L349.8,181.4z M383.2,220.8c-0.7-4.7-1.2-9.5-2.2-14.2c-0.9-3.4-2.5-6.3-3.8-9.5
	c-0.9-2.1-2.1-3.8-3.8-5c-0.9-0.7-0.4-1.2,0-1.8c0.4-0.7,1.2-0.3,1.3,0.3c1.3,1.8,3,3.4,4.3,5.5c3.8,5.6,5.5,11.7,5.9,18.5
	c0.4,3.8,1.2,7.7,0.4,11.7c0,0.4-0.3,1.2-0.4,2.1c-0.9-0.7-1.6-0.9-2.1-1.6c-0.3-0.3-0.4-1.2-0.3-1.3
	C384,223.7,383.5,222.1,383.2,220.8L383.2,220.8z M374.9,304.5c-1.8,1.8-3.4,3.7-5.2,5.5l-1.6-1.6c-1.2-1.2-2.5-2.2-3.7-3.7
	c-1.3-1.3-2.7-3-4-4.3l-3.8-3.8c-1.8-2.1-3.7-3.8-5.2-5.9c-1.2-1.3-2.5-2.7-3.8-3.8c-0.3-0.3-1.2,0-1.3,0.4c-1.3,1.2-2.7,2.5-4,3.8
	c-0.3,0.3-0.7,0.4-1.2,0.7c-0.3,0-0.3-0.3-0.4-0.3c0-1.6,0-3,0.3-4.6c0.3-1.8,0.4-3.7,0.4-5.5c0-0.9,0.4-1.6,1.2-2.1
	c1.8-1.3,3.4-3,5-4.6c2.1-2.1,3.8-4,5.9-6.1c0.7-0.9,1.3-1.8,2.1-2.5c0.4-0.7,0.9-0.7,1.6-0.3c1.6,1.3,3,2.5,4.6,3.7
	c0.7,0.7,0.7,1.2,0.3,1.8c-1.2,1.3-2.2,2.5-3.4,3.8c-0.3,0.3-0.4,0.7-0.7,1.2c-0.3,0.3-0.3,0.7-0.3,0.9c-1.6,0.4-1.6,2.1-1.6,3.1
	c-0.3,1.2,0.4,2.5,1.2,3.4c1.2,1.6,2.7,3.1,4,4.6c2.2,2.5,4.7,5.2,7.2,7.7c1.6,1.8,3.4,3.4,5.2,5l1.6,1.6
	C375.8,303.4,375.6,303.9,374.9,304.5L374.9,304.5z M401.7,270c-0.4,0.7-0.9,1.6-1.3,2.2c-1.6,2.1-1.3,2.1-3.4,0.7
	c-2.1-1.3-3.8-3-5.9-4.6c-1.6-1.2-3.4-2.5-5-3.7c-0.4-0.3-0.7-0.9-1.2-1.2c-0.9-0.4-1.8-0.9-2.5-1.3c-4.3-2.2-9.3-2.2-14-2.5
	c-2.5-0.3-5-1.2-7.4-1.6c-0.7-0.3-1.3-0.4-2.1-0.7c1.2-1.8,2.1-3.7,3.1-5.5c0.3-0.3,0.9-0.4,1.3-0.4c3.1,0.4,6.5,1.2,9.7,1.8
	c1.8,0.3,3.7,0.4,5.5,0.4c0-0.3,0.3-0.3,0.3-0.4c-0.4-0.9-0.9-1.8-1.3-3c-0.7-1.6-1.6-3.1-2.1-4.7c-0.9-2.5-1.6-5-2.5-7.4
	c0-0.3,0-0.7,0.3-0.9c1.3-1.8,3-3.4,4.6-5.2c0,0,0.3-0.3,0.4-0.3c0.9,2.1,1.6,3.8,2.5,5.6c1.2,2.5,2.2,5,3.4,7.2
	c1.3,3,2.5,6.1,4,9.3c0.4,0.9,1.6,1.8,2.5,2.2c1.2,0.4,1.8,1.6,2.2,2.5c0.3,0.4-0.3,0.9-0.4,1.6c2.2,1.6,4.6,3.4,6.8,5
	c0.7,0.4,1.6,0.9,2.2,1.6C402.9,268.2,402.5,269.1,401.7,270L401.7,270z M409,234.8c-0.3,4.6-1.3,9.3-2.2,13.8
	c-0.4,1.8-1.2,3.4-1.8,5s-0.7,1.6-2.2,0.7c0.3-0.7,0.7-1.3,0.9-2.1c0.7-1.8,1.6-3.8,2.1-5.6c0.7-4.6,1.3-9,1.8-13.6
	c0.7-6.8,0.9-13.3-0.7-19.8c-1.6-5.6-3.1-11.3-5-17c-0.9-2.7-2.2-5.5-3.4-8.1c-0.4-1.2-0.7-2.2-0.9-3.1c0.3,0,0.3,0,0.4-0.3
	c0.9,1.3,1.8,2.7,2.5,4.3c0.9,1.8,1.3,3.8,2.2,5.9c0.7,1.6,1.8,3,2.5,4.6c0.4,0.7,0.4,1.6,0.7,2.5c0.3,1.8,0.7,3.7,0.9,5.5
	c0,0.3,0.3,0.7,0.4,0.7c0.9,0.4,1.2,1.2,1.2,2.1c0,2.2,0,4.6,0.4,6.5C409.7,222.5,409.3,228.6,409,234.8L409,234.8z"/>
<path d="M330,255.5c0-0.3-0.3-0.4-0.3-0.7c-1.2-2.2-2.2-4.6-3.7-6.8c-0.3-0.4-0.3-0.9-0.4-1.3c-1.2-2.2-2.5-4.3-3.7-6.5
	c-0.9-2.1-1.6-4-2.7-6.1c-1.6-2.7-3.1-5.2-4.7-7.7c-2.2-3.8-4.6-7.4-7-11.3c-1.3-2.2-3-4.6-4.6-6.8c-0.7-1.2-1.6-2.1-2.2-3.1
	c-2.2-3.1-4.6-6.3-7-9.5c-0.9-1.2-2.5-1.2-3.7,0c-1.2,1.2-2.5,2.2-3.8,3.4c-1.2,1.2-2.5,2.1-3.7,3.1c-0.3,0.3-0.4,0.9-0.3,1.2
	c0.4,0.7,1.2,1.3,1.8,2.1c1.2,1.6,2.2,3,3.4,4.6c0.3,0.4,0.7,0.7,1.2,1.2c0.7,0.4,1.2,1.2,1.6,1.6c0.7,1.2,1.3,2.5,2.2,3.1
	c1.6,1.3,2.1,3.7,3.4,5c0.7,0.4,0.9,1.3,1.3,2.1c1.2,1.3,1.2,1.3-0.3,2.2c-0.4-0.7-0.9-1.2-1.3-1.8c-0.4-0.7-0.7-1.3-1.2-2.1
	c-0.7-0.7-1.3-1.2-2.1-1.8c-0.9-0.9-1.6-1.8-2.2-2.7c-0.7-0.9-1.6-1.6-2.5-2.5c-1.2-1.2-2.1-2.2-3-3.4c-0.4-0.4-1.3-0.7-1.8-1.2
	c-0.9-1.2-1.8-2.2-2.7-3.4c-0.9-1.2-1.3-1.3-2.5-0.3c-2.2,1.8-4.3,3.8-6.5,5.9s-4.3,4.3-6.5,6.3c-3.1,3.1-6.1,6.3-9.3,9.5
	c-1.2,1.2-0.7,1.8,0.3,2.5c2.5,2.1,4.7,4.3,7.2,6.3c3.7,3,6.5,6.1,9,9.9c0.4,0.7,1.3,0.9,1.8,1.6c0.5,0.7,0.7,1.6,1.3,2.1
	c2.1,2.2,4.6,4.3,6.3,6.8c1.8,2.2,3.4,4.7,4.7,7.2c1.8,3.1,3.1,6.3,5,9.3c0.3,0.4,0.9,1.2,1.2,1.2c1.3-0.3,1.6,0.9,2.1,1.8
	c0.3,0.4,0.7,1.2,1.2,1.2c1.8,0.4,3.7,0.7,5.5,0.9c3.4,0.4,6.8,0.7,10.2,1.2c0.9,0,1.6,0,1.3-1.2c-0.3-3,1.6-5.2,2.7-7.7
	c0.9-2.1,1.8-4.3,2.5-6.5c0.7-2.7-0.4-5.2-1.6-7.7c-0.7-1.3-1.3-2.7-2.1-4c-1.3-2.7-3-5.5-4.3-8.1c-0.9-1.6-2.1-3.1-2.7-5
	c-0.7-1.6-1.2-3.4-3-4.3c0,0-0.3-0.3-0.3-0.7c0.9,0.4,1.6,0.7,2.2,1.2c0.7,0.4,1.6,0.7,1.8,1.8c0,1.6,0.9,2.7,2.1,3.8
	c0.4,0.4,1.2,1.2,1.3,1.8c0.4,1.8,2.1,2.7,2.7,4.6c0.4,0.9,1.3,1.6,2.1,2.5l4.7,7.4c0.4,0.9,0.9,2.2,2.2,2.1
	c1.6-0.3,3.1,0.3,4.7-0.4C329.5,258.2,330.6,257.6,330,255.5L330,255.5z M215.5,267.9c-0.4,0.3-1.2,0-1.8-0.3
	c-1.3-0.9-3-1.6-4.3-2.5h-0.8c-0.7-0.3-1.6-0.4-2.2-0.7c-1.2,0.7-2.2,0.3-2.7-1.2c-0.3,0-0.4-0.3-0.7-0.3c-0.3,0-0.3,0-0.3-0.3
	c0,0.3,0,0.3-0.3,0.4c-3-1.8-5.9-3.4-8.9-5c-5.5-3-11.1-5.6-16.4-8.3c-1.6-0.7-3.1-1.3-5-1.8c-3.1-0.9-6.1-2.2-8.6-4.3
	c-1.2-1.2-1.8-0.9-2.5,0.7c-1.6,3.7-3.1,7.2-4.6,11.1c-0.7,2.1-1.2,4-1.3,6.3c-0.3,1.6-0.3,3.4-0.3,5c0,1.2-0.3,2.5,0.3,3.7
	c0.7,2.5,1.8,4.7,2.5,7c0.3,1.3,1.2,2.2,2.1,3.1c5,4.7,10.8,8,17,10.6c3,1.3,6.1,2.1,9.3,3.1c3.7,1.3,7.2,1.3,10.8,0.9
	c2.2-0.3,4.6-0.4,6.8-0.9c2.5-0.4,4.7-1.2,6.1-3.1c0.9-1.3,1.6-3,2.5-4.3c0.3-0.4,0.7-0.9,0.9-1.3c0.9-2.2,1.8-4.6,3-6.8
	c1.3-2.7,2.7-5.2,4.3-7.7c0.3-0.3,0.3-0.4,0.3-0.7C218.5,269.6,216.8,268.8,215.5,267.9L215.5,267.9z"/>
<path d="M292,282.4c-0.7-0.9-0.7-2.1-0.4-3.1c0.3-0.4,0.3-1.2,0-1.3c-0.7-1.3-1.3-2.5-2.2-3.8c-1.3-2.5-2.5-5-3.8-7.4
	c-0.9-1.3-2.1-3-3.1-4c-1.2-1.2-1.8-2.7-3.1-3.8c-0.7-0.4-0.9-1.2-1.6-1.8c-0.9-0.9-2.1-1.8-3.1-2.7c0-0.3,0.3-0.3,0.3-0.4
	c-3.1-3-5.9-6.3-8.1-9.9c-0.3-0.3-0.3-0.4-0.3-0.7l-0.3-0.3c-1.3-0.3-1.8-1.3-2.5-2.2c-1.3-0.7-2.7-1.2-3.1-2.7c0,0-0.3,0-0.3-0.3
	c-0.3,0-0.3-0.3-0.4-0.3c-0.4,0.3-0.9,0-1.3-0.4c-0.9-0.4-1.6-1.2-2.5-1.6c0,0-0.3,0-0.3-0.3c-1.3-0.9-3-1.8-4.3-3l-0.4-0.4
	l-1.3,1.3c-1.8,2.1-3.4,4-5.2,5.9c-1.8,1.8-1.8,4.6,0.3,6.1c3,2.2,5.6,4.3,8.6,6.5c6.8,5.6,13.3,11.5,18.8,18.5
	c3.1,4,5.6,8.9,8.6,13c1.8,2.7,3.4,5.6,5.2,8.3c1.2,1.8,2.7,3.7,4,5.6c0.3-0.7,0.3-1.2,0.4-1.8c0-0.7,0-1.6,0.3-2.2
	c0.7-2.2,1.3-4.6,2.2-6.8C293.2,285.6,293.3,283.9,292,282.4L292,282.4z M225.3,259.4c-0.7-1.2-1.6-2.1-2.5-3
	c-0.9-0.9-2.2-1.6-3.1-2.2c-2.1-1.3-4.3-2.5-6.3-3.7c-2.1-1.2-3.8-2.2-5.9-3.4c-3.4-1.8-7-2.7-10.2-4.7c-2.5-1.6-5-3.1-7.4-4.3
	c-2.7-1.3-5.5-2.2-8.3-3.4c-2.2-0.7-4.7-1.3-7-1.6c-1.8-0.3-3.8-0.3-5.5-1.3c-0.7-0.4-1.3-0.3-1.6,0.4c-1.2,1.8-2.2,3.8-3.4,5.9
	c-0.3,0.3,0.3,0.9,0.4,1.2c2.1,1.3,4.3,2.5,6.5,3.8c3,1.2,5.6,2.2,8.3,3.7c1.8,0.4,3.7,1.2,5.2,2.1l12.9,7.4
	c0.3,0.3,0.7,0.4,1.2,0.7c0.3,0,0.7,0,1.2,0.3c2.5,1.2,4.7,2.5,7.2,3.8c0.4,0.3,1.2,0.4,1.6,0.7c0.3,0,0.4-0.3,0.9-0.4
	c0-0.3,0.4,0,0.9,0.3c-0.4,0.3-0.7,0.4-0.9,0.7c1.2,0.4,2.2,0.9,3.4,1.3c1.6,0.4,3.1,1.2,5,1.3c1.6,0.3,3.1,0,4.6,0.9
	c0.7,0.3,1.3,0,1.6-0.9c0.4-1.2,1.2-2.2,1.8-3.7C225.3,260.7,225.4,259.8,225.3,259.4L225.3,259.4z M230,248.1
	c-1.8-1.3-3.8-2.7-5.9-4c-2.5-1.3-5-2.7-7.4-4c-1.3-0.7-2.7-1.6-4.3-2.5c-0.4,0-1.2,0-1.6-0.4c-0.3-0.3-0.7-0.4-0.9-0.7
	c-0.3,0-0.3-0.3-0.4-0.3c-3.1-1.2-6.1-2.5-8.9-4.6c-0.4-0.3-1.2-0.7-1.6-1.2c-1.3-0.9-2.7-1.6-4-2.2c-0.4-0.3-0.9-0.3-1.3-0.4
	c-3.4-2.5-6.5-5.2-11.1-5.9c-0.7,0-1.3-0.4-2.1-0.7c-1.6-0.3-3.1-0.7-5-0.7c-0.7,0-1.6,0.7-1.8,1.2c-1.2,1.6-2.1,3.1-3,4.7
	c-0.3,0.4-0.3,1.2,0,1.3c0.9,0.7,1.8,1.6,2.7,2.1c3.8,1.8,8,3.4,11.7,5.2c3,1.3,5.9,3,8.9,4.3c3,1.3,5.9,3,8.9,4.3
	c4.6,2.1,9.3,3.8,13.8,5.6c3.7,1.6,7,3.1,10.4,5c0.9,0.4,1.8,0.4,2.2-0.7c0.3-0.4,0.4-0.9,0.9-1.3
	C231.9,249.9,232.2,249.6,230,248.1L230,248.1z M333.4,297.8c0-0.7-0.3-1.3,0-1.6c-0.4-2.1-0.7-4.3-0.9-6.3c-0.3,0-0.4,0.3-0.4,0.3
	c-2.1,1.8-4,3.8-6.1,5.6c-2.2,1.8-5,3.7-7.2,5.5c-0.3,0.3-0.4,0.4-0.4,0.7c0,0.3,0.4,0.4,0.7,0.4c0.7,0.3,1.6,0.3,2.5,0.7
	c3.7,1.2,7.4,2.2,11.1,3.4c1.6,0.4,2.5,0.3,2.2-1.6C334.3,302.3,333.8,300,333.4,297.8z M199.4,156.9c0.4,2.1,0.7,4,1.2,6.3
	c-1.3-0.3-2.7-0.3-4-0.4c0.9-2.2,1.8-4,2.5-6.1C199.2,156.6,199.4,156.9,199.4,156.9L199.4,156.9z M154.7,151
	c1.8-0.4,3.7,0.3,5.2,1.2c1.8,1.3,2.7,3.4,0.9,5.9c-1.2,1.6-2.5,3-3.8,4.3c-0.7,0.7-1.8,0.3-2.1-0.7c-0.4-3-0.9-5.6-1.2-8.6
	C154.1,152.3,154.6,151.7,154.7,151L154.7,151z M121.3,165.9c2.5,0,3.8,1.2,4,3.7c0,0.4,0.3,0.9,0.3,1.3c0,0.9,0,2.1-0.9,2.7
	c-0.9,0.9-1.6,2.2-2.2,3.4c-0.4,0.7-1.2,0.7-1.6,0.3c-1.3-2.1-3-4-4-6.1c-0.4-0.9-0.4-1.8,0.9-2.2c0.4-0.3,0.9-0.7,1.2-1.2
	C119.1,166.2,120.1,165.9,121.3,165.9L121.3,165.9z M273.1,360.4c0,1.8-0.3,3.4-1.8,4.3c-1.6,0.9-3.4,0.9-5-0.3
	c-1.3-0.9-1.8-5.9-0.4-6.5c0.9-0.4,2.2-0.4,3.4-0.4c0.7,0,1.3,0.4,2.2,0.7C272.9,358.3,273.1,359.2,273.1,360.4L273.1,360.4z
	 M263.1,342v-0.9c0.3-0.7,0.4-1.6,0.9-1.6c0.7-0.3,1.8-0.3,2.5,0.3c0.9,0.4,1.8,1.2,2.7,1.8c0.9,0.9,0.7,2.5-0.3,3.7
	c-1.2,1.6-2.5,2.1-3.8,1.6c-1.2-0.3-1.6-0.9-1.6-2.1C263.1,343.5,263.1,342.9,263.1,342L263.1,342z"/>
</svg>
