<?xml version="1.0" encoding="utf-8"?>
<!-- Generator: Adobe Illustrator 25.2.1, SVG Export Plug-In . SVG Version: 6.00 Build 0)  -->
<svg version="1.1" id="Layer_1" xmlns="http://www.w3.org/2000/svg" xmlns:xlink="http://www.w3.org/1999/xlink" x="0px" y="0px"
	 viewBox="0 0 500 500" style="enable-background:new 0 0 500 500;" xml:space="preserve">
<g>
	<path d="M415.5,216.6c0.2,2.3,0.3,4.8,0.5,7.3c0.3,11.9,0.8,23.7,0.2,35.6c-0.2,1.5,0,2.8,1.2,4c0.5,0.5,0.7,1.5,0.7,2.3
		c0,10.2-0.2,20.5-0.2,30.5c0,2.1,0.3,4.3,0.5,6.8c-2.5,0.5-4.8,0.7-7.3,0.5c-3.3-0.3-6.6-0.5-9.7-0.8c-1.2,0-2.1-0.2-3.3,0.2
		c-6.4,1.5-13,1.6-19.5,1.6c-10.4,0-20.6,0-31-0.2c-9.7-0.2-19.5-0.3-29-0.5c-7.1-0.2-14.3,0-21.4-0.2c-10.2-0.2-20.5-0.3-30.5-0.7
		c-7.3-0.2-14.5-0.7-21.8-0.8c-2,0-4.1,0.2-6.1,0.3c-15.3,1.8-30.7,2.6-46.2,2.1c-8.9-0.3-18-0.3-26.9-0.7c-3.3-0.2-6.6-0.5-9.7-1
		c-4-0.7-7.9-0.7-11.9-0.2c-7.8,1.2-15.5,1.5-23.3,1.6c-7.9,0-15.8,0.2-23.6-0.7c-2.5-0.2-4.8,0-7.3,0s-5.1,0-7.6-0.2
		c-0.3,0-0.7-0.3-1.2-0.5c-0.2-2,0.2-4.1,0.5-6.1c0.2-0.7,0.2-3.6,0-4.5c0-0.3,0-0.7-0.2-1.2c-0.3-1.8,0.8-3.6,0.2-5.8
		c-0.5-1.6-0.3-3.6-0.5-5.4c-0.2-2-0.3-3.8-0.5-5.8V273c0.3-5.3,0.5-10.4,0.8-15.7c0.7-10.6,1.3-21.1,1.2-31.7
		c0-0.7,0.2-1.6-0.2-2.1c-1.6-2.3-0.7-4.9-0.7-7.6c2-0.7,3.8-0.7,5.8-0.7c5.1,0.2,10.2,0.5,15.3,0.7c3.3,0.2,6.6,0.2,9.9,0.3
		c8.6,0.5,17-0.2,25.4-0.5c6.1-0.2,12.2-0.3,18.1,0c14.3,0.8,28.5,0.3,42.9-0.7c17.2-1.3,34.3-2,51.6-2.3c13.4-0.2,26.7,0,40.1,0.5
		c5.8,0.2,11.4,0.7,17,1c1.8,0.2,3.6,0,5.4-0.2c8.7-0.8,17.5-1.2,26.2-1c15.3,0.3,30.8,0.5,46.2,0.8c8.9,0.2,17.6,0.5,26.6,1.5
		C413.1,215.7,414.3,215.7,415.5,216.6 M321.6,287.3c1.3,0.8,2.5,1.5,3.6,2.1c1.3,0.8,2.6,1.2,4.1,1c4.5-0.5,8.6-1.6,11.7-5.1
		c1-1,2.1-2,3.1-3c1.8,0.5,3.3,1,4.9,1.5c1.6,0.5,3.3,1.2,4.9,1.3c3,0.3,5.8,0.5,8.7,0.2c1.8-0.2,3.8-0.5,5.6-0.7
		c1.2-0.2,2.1-0.8,3.3-1.5c0.7-0.3,1.2-0.7,2-1c0.5,0.3,1,0.7,1.2,1c0.8,1.6,2.5,2.3,4.1,2.5c1.5,0.2,3.1,0.5,4.6,0.8
		c3.3,0.5,3,1.5,6.3-1.3c0.5-0.3,1-0.7,1.5-1.2c1.5-1.3,2.8-2.6,4.1-4c0.7-0.7,1-1.3,0.8-2.3c-0.2-2.1-0.3-4.3-1.3-6.4
		c-0.3-0.7-0.7-1.3-0.7-2c-0.2-3-1.2-5.6-3-8.1c-1.8-2.5-2.5-5.3-2.3-8.2v-2.1c-0.2-1.3-1-2-2.6-2c-1.2-0.2-1.6,0.3-2.1,1.6
		c-0.3,1-0.7,2.1-0.8,3.1c-1.8,7.9-5.4,15-10.4,21.4c-1,1.2-1.8,2.6-3.5,3c-1.5-1.3-2.5-2.8-2.5-4.8c0-1.2-0.5-2.3-1.3-3.3
		c-3.8-4.3-5.8-9.4-5.4-15.3c0.2-1.6,0-3.1,0-4.8c0-1-0.8-1.6-2-1.8c-0.8-0.2-1.5,0.2-2,1.2c-0.3,0.7-0.7,1.3-0.8,2
		c-1.6,3.6-3,7.4-4.9,10.9c-2.8,5.1-5.9,10.1-8.9,15c-1.2,2-3,3.5-5.1,4.5c-0.8,0.3-2,0.3-2.8,0.7c-1,0.3-1.8,1-3,1.5
		c-0.3-2.1-0.3-3.6,1.2-5.3c1.5-1.6,3.1-3.5,3.8-5.6c0.8-2.6,2.5-4.8,4.1-6.8c2.3-2.8,2.8-6.1,2.6-9.6c-0.2-1.6-1-2.8-2.6-3.1
		c-3.8-0.8-7.6-0.5-10.6,2.3c-3,2.6-5.6,5.9-6.6,9.9c-1,3.6-2.1,7.3-1.8,11c0,0.7,0.2,1.5,0,2.1c-0.2,0.7-0.5,1.3-0.8,2
		c-0.5,0.7-1,1.5-1.6,2c-0.8,0.7-1.8,1.2-2.8,1.6c-0.5,0.2-1.3,0-1.6-0.3c-4.3-3.1-1.5-9.6-1-13.9c0.2-1.5,0.7-2.8,1.3-4.1
		c2.1-3.5,4.1-6.8,5.6-10.6c0.3-1.2,1.3-2,2.1-3c1.3-1.5,2.3-3.1,2.6-5.1c0.3-1.5,0.7-3.1,0.8-4.6l1.5-14.8c0-0.7,0.2-1.5,0-2.1
		c-0.3-1.6-1.8-2.5-3.3-1.8c-0.8,0.3-1.8,0.8-2.5,1.5c-2.8,2.5-5.1,5.1-6.6,8.6c-0.8,2-1.8,4-2.8,5.9c-2.6,5.4-4.8,11.2-5.3,17.3
		l-1,9.4c-0.2,1-0.5,1.8-1,2.6c-2.6,4.8-8.9,12-14.8,12c-2,0-4,0.5-5.6-0.7c-0.5-0.3-1-0.8-1.6-1.5c0.7-0.8,1.2-1.5,1.6-2
		c4-3.8,7.4-7.9,10.7-12.4c2.3-3.1,3.5-6.6,3.3-10.6c-0.2-2-1-3.3-2.8-4.3c-1.8-1-3.8-1.3-5.9-1.3c-3.6,0-6.3,1.6-8.2,4.5
		c-4.1,5.8-2.3,2.8-4.6,8.2c-1.6,4-3,7.9-3.1,12.2c0,1.2-0.5,2-1.5,2.8c-1.3,1-2.6,2.1-3.6,3.5c-1.2,1.6-2.8,3-4.3,4.3
		c-0.3,0.3-1,0.5-1.6,0.7c-1.3-1.5-1.2-3.1-1.2-4.6c0-4.1,0.5-8.2,1.5-12.2c0.8-3.5,2-6.9,3.1-10.4c0.7-2.1,1.3-4.1,1-6.4
		c-0.3-1.5-1.2-2.3-2.8-2.3c-1.6,0.2-3.3,0.8-4.8,1.8c-3.1,2-5.8,4.3-8.4,6.9c-0.5,0.5-1,1.2-2,0.5v-4.3c0-1.2,0.2-2.5,0.3-3.6
		c0-1-0.2-2-1.2-2.6c-1.5-1-3.3-1.6-4.8-0.7c-3.5,2-7.4,3.1-9.9,6.6c-0.5,0.7-1.2,1.3-1.8,1.6c-0.5,0.3-1,0.3-1.5,0.3
		c-0.8-1.8-0.2-3.3,0-4.9c0-0.8,0.5-1.6-0.7-2.5c-0.5,0.2-1.3,0.2-2,0.3c-2.3,0.7-4,1.8-4.6,4.5c-1.5,5.4-4.5,10.2-8.2,14.3
		c-1,1.2-1.8,2.3-2.3,3.6c-0.8,2.1-4.1,5.8-6.1,6.9c-1,0.5-1.8,1.2-2.6,2c-1.2,1.2-2.5,1.5-4,1.3c-2-2.6-2.1-3-2-5.6
		c0-3.6,1.2-7.1,2.1-10.7c0.8-2.8,2.1-5.1,4.3-7.1c1.6-1.5,2.5-3.5,3.1-5.6c-1.2-1.5-2.6-1.8-4.1-2.3c-0.5,0.3-1,0.7-1.5,1.2
		c-0.5,0.3-1,0.7-1.6,1.2c-0.8-1.3-1.5-2.3-2.1-3.5c-0.7,0-1.2-0.2-1.6,0c-5.4,1.5-9.9,4.6-13.7,8.6c-1.8,2-3.5,4.1-4.5,6.6
		c-1.3,3.3-2.8,6.4-3.3,9.9c-0.2,1-0.5,2.1-1.2,3c-1.3,2-2.6,4-4.1,5.9h-2c-1.8-0.2-2.1-0.3-2.3-2.1c-0.5-7.1-0.5-14,2-20.8
		c1.3-3.5,0.8-6.6-1.6-9.6c-1.2-1.5-2.5-2.1-4.5-1.8c-1.2,0.2-2.1,0.5-2.8,1.5c-0.5,0.7-1.2,1.2-2.3,0.7c-0.2-1.3,0.7-2.5,1.3-3.6
		c1.6-2.8,2.6-5.9,2.8-9.2c0.2-1.5,0.3-3,0.3-4.3c0.2-2.8-0.5-5.4-1.6-8.1c-1.3-0.2-2.5-0.5-3.6-0.7c-0.8,1-1.6,1.8-2,2.8
		c-2.1,4.8-4.8,9.6-6.4,14.7c-1.3,4.5-2.8,8.7-4,13.2c-1.3,4.9-3.5,9.2-7.1,12.9c-0.7,0.7-1.5,1.2-2.8,2.3c0-2-1-2.6-2.3-3.3
		c-0.3-0.2-0.8-0.7-1-1c-1-1.8-2.1-3.5-3.1-5.3c-2.1-4.5-3.5-9.1-3.6-14c0-1-0.2-2.1-0.3-3.3c-1.5-0.8-2.8-1-4.3-0.3
		c-0.5,1.5-1.2,2.8-1.6,4.3c-2,5.8-4,11.4-5.9,17.2c-0.7,2-1.6,3.8-2.8,5.4c-1.2,1.6-2.1,3.3-2.6,5.1c-0.3,1.2-0.8,2-1.5,2.8
		c-1.3,1.6-2.3,3.6-2.1,6.3c0.8-0.5,1.3-1,2-1.2s1-1.2,1.8-0.5c-0.2,0.3-0.5,0.7-0.5,1v0.7c0.3,0.2,0.7,0.3,1,0.3
		c0.2,0,0.5-0.2,0.7-0.3c1.3-1.5,3-1.3,4.6-0.7c3.3,1.3,6.8,1.6,10.4,1c2.1-0.3,4-1.2,5.3-2.8c1.5-1.8,3-3.3,4-5.4
		c0.5-1.2,5.1-4.3,7.6-4.9c0,3.1-0.3,5.3-2,7.4c-0.8,1.2-1,2.5-0.7,3.8c0.2,1,0.8,1.5,1.6,1.6c1.8,0.3,3-0.5,3.3-2.5
		c0.7-5.3,3-9.9,5.8-14.3c1.3-2,2.6-3.8,3.6-5.8c1.6-3.1,4.1-5.3,6.9-7.3c1.6-1.2,3.6-0.3,3.8,1.6c0.3,3,0.7,6.1,0.7,9.1
		c0,3.6-0.5,7.3-0.8,10.9c-0.3,3.1,0.3,6.1,1.8,8.7c1.8,3.5,6.3,4.3,9.2,1.8c1.5-1.2,2.8-2.3,4-3.3c1.3,1,2.3,2.3,3.6,2.6
		c4.3,1.3,8.4,1,11.7-2.3c0.5-0.5,0.8-1,1.5-1.2c0.5-0.2,1.2,0,1.6,0.3c0.3,0.2,0.5,0.8,0.7,1.2c1.8,3.8,4.5,4.5,7.9,2.1
		c1.2-0.7,2.3-1.5,3.3-2.3c3.6-3.1,7.1-6.3,10.7-9.2c0.5-0.5,1-1.3,2-0.5c-0.5,3.6-1,7.3,0.2,10.9c1.3,0.5,2.3,0.5,3.3-0.2
		c1-1.5,0.8-3.3,1.2-4.9c0.5-2.8,0.7-5.6,1.2-8.2c1-4.9,4.1-8.7,7.1-12.4c2-2.3,4.1-4.3,6.8-5.9c2-1.2,2.3-1.3,4.1,0.2
		c0.5,0.3,0.8,0.8,1.5,1.3c-0.3,2.3-0.5,4.8-1,7.1c-0.5,2.8-1,5.4-1.3,8.2c-0.2,1-0.2,2,1,2.8c1.3-0.2,3,0,4.1-1.5
		c1.6-2.5,3.5-4.9,5.1-7.6c1.5-2.1,3-4.1,4.5-6.3c0.5-0.7,1.2-1.3,1.8-1.8c0.8-0.5,2-0.5,2.6,0.2c0.7,0.5,0.7,1.3,0.3,2
		c-0.2,0.7-0.3,1.5-0.7,2.1c-2.1,6.8-3.6,13.5-3.6,20.6c0,2.5,0.2,4.9,0.3,7.4c3.1,2.1,6.1,2,8.9,0.2c1-0.7,1.8-1.5,2.8-2.3
		c1.3-1.2,2.6-2.1,4-2.6c1.5,1.8,2.6,3.5,4,5.1c0.7,0.8,1.5,1.3,2.5,1.3c3.5,0.2,6.8-0.2,9.9-1.8c2.6-1.5,5.1-3.1,7.6-4.8
		c1-0.7,2-1.5,3-2.1c1.3-1,2.8-1.8,4.5-1.2c0.3,0.2,0.7,0,0.8,0c0.3,1.8,0.7,3.5,0.8,5.1c1,6.3,9.2,6.6,13.4,3.1
		C320.3,288.3,320.8,288,321.6,287.3 M123.9,61.2c0.8-0.3,1.2-0.5,1.5-0.5c5.3-0.2,10.4-0.5,15.7-0.5c4.1,0,8.1,1.3,12,2.8
		c3.8,1.5,5.8,4.3,6.8,8.1c1,4,1.5,8.1,1.5,12.2c0,4,0.5,7.9,0.7,12c0.2,2.6,0.2,5.3,0.2,8.1c0,4.9-0.8,9.6-2.6,14.2
		c-0.5,1.2-0.8,2.3-1,3.5c-0.3,2.8-1.8,4.9-4,6.8c-1.2,1-2.3,2-3.6,3.1c0.3,0.7,0.5,1.3,0.8,1.8c4.1,5.6,5.3,12.2,5.4,19
		c0.2,6.3,0,12.5,0,19v15.3c0,1.3,0.2,2.6,0.3,4c0.5,2.8,2,4.9,5.1,5.3c0.7,0.2,1.3,0.3,2.3,0.5c0.2,3.8,0.2,7.4,0.3,11.4
		c-3.1,0.7-6.1,1.2-9.1,0c-1.8-0.7-3-1.6-3.5-3.5c-0.5-1.3-0.8-2.8-1.3-4.1c-3-7.1-3.6-14.5-3.8-22.1c-0.2-8.4-0.2-17-0.2-25.4
		c0-3.1-0.5-6.3-1.5-9.2c-0.8-2.5-2.3-4.3-5.4-4.3c-0.3,1-0.7,1.8-0.8,2.6c-0.2,1.5-0.3,2.8-0.3,4.3v5.4c1.2,15.2,0.3,30.3,0,45.5
		v3.1c1.6,0.5,3.1,1.2,4.6,1.6c0.3,2.1,1.5,4,0.8,6.3c-7.8-0.2-15.5-0.2-23.4-0.3c-0.8-2.3,0-4.6-0.3-6.9c2.6-0.7,4.8,0.8,7.1,0.2
		c1.5-1.3,2.3-3.1,2.3-5.1c0-2.1-0.2-4.3-0.2-6.6c-0.2-3.5-0.2-6.8-0.3-10.2c0-1.2,0-2.5,0.3-3.6c0.7-1.8,0.7-3.6,0.5-5.4
		c-0.5-12.9-0.5-25.7-0.3-38.6c0.2-6.9-0.5-13.9-0.7-20.8c-0.3-9.6-1-19.1-0.7-28.7c0.2-3.8-0.2-7.8-0.2-11.7c0-0.7-0.3-1.2-0.5-1.8
		c-1.5-0.3-3-0.5-4.5-0.8C123.5,65,124.2,63.2,123.9,61.2 M139.4,124.7c0.2,0.2,0.3,0.2,0.5,0.2c7.3-1,11.7-5.8,13.2-12.2
		c0.8-4,1-8.1,1.2-12.2c0.2-3.6-0.3-7.3,0-10.9c0.5-4-0.2-7.8-1.2-11.5c-0.5-1.6-1.2-3.1-2-4.6c-0.7-1.3-1.5-2.1-3-2.6
		c-2.3-0.8-4.6-1.5-6.8-2.1c-2.1,1.8-2.3,4.1-2.1,6.4c0.3,2.1,0.5,4.3,0.5,6.4c0,5.8,0,11.4-0.3,17.2c-0.5,7.9-0.5,15.7-0.5,23.6
		C139.2,123.2,139.4,124,139.4,124.7 M221.2,443.3h-5.3c-0.2-0.7-0.5-1.2-0.7-1.8c-1-5.6-2.5-11-3-16.8c-0.2-1.3-0.8-2.5-1.2-3.8
		c-1.2-3.8-2.1-7.8-3.1-11.5c-1.5-5.4-2.8-10.7-4.1-16.2c-1.2-4.3-2.1-8.7-3.1-13c-0.5-2.1-1.2-4.1-1.6-6.3c-0.7-3.1-1.3-6.1-2-9.2
		c-0.2-0.5-0.3-0.8-0.7-2c-0.3,1.6-0.7,2.5-0.7,3.5c-0.3,4-0.5,7.9-0.8,12c-0.3,7.3-0.7,14.5-0.8,21.8c-0.2,6.4-0.2,12.9-0.2,19.3
		c0,4.9-0.3,9.9-0.3,14.8c0,0.5,0.2,1,0.2,1.5c1.2,0.3,2.3,0.5,3.5,0.8c1,0.3,1.5,1,1.5,1.8v4.8c-0.8,0.2-1.5,0.3-2.3,0.3
		c-1.2,0-2.1-0.2-3.3-0.3c-3.5-0.7-6.9-1.2-10.4-1.3c-1,0-1.8-0.3-3-0.5v-2.6c0-0.7,0.2-1.5,0.3-2.3c1-0.2,2-0.5,3.1-0.7
		c0.8-5.1,1.5-10.1,1.5-15.2v-7.6c-0.2-6.1,0.3-12,0.7-18.1c0.5-10.6,0.8-21.1,1.2-31.7c0.2-4.3,0-8.7,0.2-13
		c0.2-5.6-0.3-11.2-1.3-16.7c-1-5.6-1-11.4-0.7-17c0-1.2,0.2-2.3,0.3-3.8c2.5-0.5,4.6-0.3,6.9-0.2c0.8,0,1.3,0.7,1.5,1.5
		c0.5,2,1,4,1.3,6.1c0.7,4.1,1.6,8.1,2.6,12c1.3,4.9,2.8,9.7,3.5,14.8c0.7,5.3,1.3,10.6,3.1,15.7c0.8,2.3,1.8,4.5,3,6.6
		c1.3,2.5,2,5.3,2.5,7.9l3,13.9c0,0.2,0.3,0.3,0.7,0.7c0.2-0.7,0.2-1.2,0.2-1.8l0.5-10.9c0-1,0.2-2,0-3c-0.5-8.4,0.2-17,0-25.4
		c0-3.5,0.5-6.9,0.7-10.4c0.2-2,0.2-4.1,0-6.1c-0.3-4.1-0.3-8.2,0-12.4c0-0.5,0.2-1,0.2-1.5c0-1.8-0.3-2.3-2.1-2.6
		c-0.5-0.2-1.2-0.2-1.8-0.3c-0.5-1.8-0.5-3.6,0-5.4c5.4-1.2,10.6-0.3,15.8,0.2c0.5,2.6,0.5,2.6,0,5.3c-1.2,0.2-2.3,0.5-3.6,0.7
		c0,0.8-0.2,1.5-0.2,2.1c0.2,1.6,0.3,3.1,0.5,4.8c0.2,1.6,0.3,3.5,0,5.1c-1.5,9.1-1.3,18.1-1.3,27.2c0,4.8,0.7,9.4,0.5,14.2
		c-0.2,9.2,0.5,18.5-0.3,27.7c-0.8,8.1-0.5,16.2-0.5,24.4c0,4.9,0.2,9.9,0.2,14.8C221.5,439.7,221.3,441.4,221.2,443.3 M89.4,318.3
		c-2.5-0.3-4.8-0.7-7.3-0.8c-0.2-1.8-0.2-3.5-0.3-5.1c1.3-0.8,2.6-0.8,4-1c6.4-0.3,13-1,19.6-0.5c0.7,2.1,0.2,4.1,0.5,6.4
		c-1,0.2-1.8,0.3-2.6,0.5c-0.8,0.2-1.6,0.3-2.5,0.7c-0.2,1-0.5,1.8-0.5,2.6c-0.2,13.9-0.2,27.5,0.3,41.1c0.3,0.3,0.3,0.5,0.5,0.5
		c0.2,0,0.2,0.2,0.3,0.2c5.6-0.2,11.2-0.2,17-0.3c0.2-0.8,0.7-1.6,0.5-2.5c-0.5-5.8,0.2-11.4,0.5-17.2c0.3-7.6,0.5-15.3-0.2-22.9
		c0-0.5-0.2-1-0.3-1.3c-1.2-1.3-2.8-0.8-4.3-1.3c-0.7-2-0.3-4-0.5-6.1c3.5-1,6.8-0.2,10.1-0.3c3.3-0.2,6.6-0.2,9.7,0.3
		c0.5,1.6,0.3,3.1,0.2,4.8c-1.3,0.2-2.5,0.5-3.8,0.7c-1.3,1.2-2,3-2,4.8c0,1.3-0.2,2.6,0,4c0.7,6.9,0.3,13.9,0.3,20.8
		c0,5.1-0.5,10.2-0.5,15.3c-0.2,7.1-0.2,14.3-0.2,21.4c0,2.5-0.2,4.8-0.3,7.3l-0.5,36c0,2.6,0,5.3,0.2,7.9c0,0.5,0.2,1,0.3,1.3
		c1.2,1,2.5,0.7,3.6,0.7c0.7,0,1.2,0,1.8,0.2c0.8,0.2,1.3,0.7,1.3,1.5c0,1.5-0.2,2.8-0.2,4.3c-0.5,0.2-0.8,0.5-1.2,0.5
		c-6.1-0.2-12-0.2-18.1-0.3c-0.7-2.1-0.7-2.1-0.2-6.3c1-0.2,2.1-0.3,3.5-0.7c0-0.8,0.2-1.5,0.2-2.1c0.2-5.3,0.2-10.7-0.3-16
		c-0.3-5.9-0.2-11.9-0.2-17.8c0-3.1,0.2-6.3,0.2-9.4c0.2-4,0.3-7.9,0.3-12v-3.3c-1.8-2.3-4.1-3-6.6-2.8c-2.3,0-4.6,0.2-6.9,0.2
		c-0.8,0-1.6,0.2-2.5,0.5c-1.5,0.5-2.1,1.2-2.1,3c0,2.6,0,5.3,0.2,8.1c0.2,5.9,0.7,11.9,0.8,17.8c0.2,6.6,0,13.4,0.2,20v9.4
		c0,1.5,0.2,3.1,0.5,4.8c1.3,0.2,2.5,0.3,3.8,0.3c1,2.1,0.3,4.5,0.3,6.8c-1,0.2-1.6,0.3-2.3,0.3l-14.8,0.5c-1.5,0-3,0.2-4.1-1v-4.8
		c1.6-1.3,4-0.5,5.9-1.6c0.2-0.3,0.3-0.8,0.3-1.3c0-7.1-0.2-14-0.2-21.1c0-3.8,0-7.8,0.2-11.5v-9.1c0-12-0.2-24.2-0.2-36.3
		c0-9.1,0.2-18.1,0.2-27.2C91.4,324.9,90.9,322.6,89.4,318.3 M141.5,391.7v-16c0-5.1,0.2-10.2,0.3-15.2c0-0.7,0-1.5,0.2-2.1
		c1-3.8,0.7-7.8,0.5-11.5c-0.2-3.1,0-6.3,0-9.4c0-3-0.2-6.1-0.2-9.1c0-2.5,0.2-5.1,0.8-7.6c1-4.3,4-6.9,8.2-7.8
		c3.6-0.7,7.3-0.8,10.9,0.2c1.2,0.3,2.3,0.8,3.1,1.6c3.1,3,5.4,6.4,6.1,10.9c0.8,5.9,1.6,11.7,1.5,17.6c-0.2,6.6,0.3,13.4,0.5,20
		c0.2,3.5,0,6.8-0.3,10.2c-0.3,5.6-0.3,11.4-0.2,17c0.2,5.8,0.8,11.5,0.5,17.5c-0.3,6.9-0.8,13.9-1,20.8c-0.2,4.6-2.3,8.1-5.4,11
		c-1.5,1.5-3,2.8-5.3,3c-0.7,0-1.3,0.7-2,1c-2.8,1.3-5.8,1.3-8.9,0.5c-0.5-0.2-1-0.5-1.5-1c-2.1-2.1-4-4.6-5.1-7.4
		c-2-5.1-3.1-10.4-2.8-16c0.2-1.8,0-3.6,0-5.4l-0.5-16.3C141.2,395.8,141.4,393.7,141.5,391.7 M152.9,375.4v18.1
		c0,7.8,0.2,15.5,0.3,23.3c0,2.6,0.2,5.3,0.2,8.1c0,2.6,1,4.9,2.6,6.9c1,1.3,2.5,1.6,3.5,1c2.5-1.8,4.5-4,4.6-7.1
		c0.2-1.8,0.2-3.6,0.2-5.4c-0.2-9.7-0.3-19.5-0.3-29c0-16.2,0.2-32.2,0-48.3c0-4.8-0.5-9.7-1-14.5c-0.5-3.6-3-5.4-6.6-5.4
		c-2,0-3.1,1.2-3.3,3.1v1.8c0,2,0.2,4.1,0,6.1c0,3.5-0.2,7.1-0.3,10.6C152.9,354.8,152.9,365,152.9,375.4 M98.1,200.6
		c2.3,1.3,4.9,0.2,7.4,1c0.3,2.5,0.7,5.1,0.8,7.8c-4,1-20,0-26.1-1c-1.6-2.3-1-5.1-1.3-8.1c2.3-0.3,4.6,0.7,6.6-1.5
		c0,0.2,0,0,0.2-0.3c2-3,1.8-6.4,1.8-9.9c-0.2-8.2,0-16.5-0.3-24.7c-0.7-11.5-0.3-23.1-0.7-34.5c-0.3-7.8-0.7-15.5-0.8-23.3
		c-0.2-7.1,0.2-14.3,0.3-21.4c0-4.6,0.2-9.2,0.2-13.9c0-0.8-0.2-1.6-0.2-2.3c-2.3-1.3-4.8,0.3-6.9-1.2c-0.2-1.8-0.3-3.8,0.2-5.9
		c0.8-0.2,1.5-0.3,2.1-0.3c5.8,0,11.7-0.2,17.5-0.2c4.5,0,8.2,1.8,11.5,4.6c1.8,1.6,2.8,3.6,3.3,5.9c1,4.9,1.5,10.1,1.5,15.2
		c0,4,0.2,8.1,0.5,12c0.5,6.4,0.5,12.9,0.2,19.3c-0.3,4.1-2.1,7.6-4.3,11c-0.3,0.3-0.7,0.8-1,1c-3.1,1.3-6.1,3-9.7,2.5
		c-1.3-0.2-2.6,0-4.1,0c-0.2,1-0.3,1.6-0.3,2.5c0.2,5.6,0.5,11.2,0.5,16.7c0.2,7.9,0.3,15.8,0.3,23.6c0,4-0.2,8.1-0.2,12
		c0,3.8,0.3,7.6,0.7,11.5C97.6,199.4,98,200.1,98.1,200.6 M96.2,68.5c-0.5,2.8-1,5.6-1,8.6c0.3,8.4,0.3,16.7,0.7,25.1
		c0.2,6.3,0.7,12.5,0.2,19c0,0.5,0.2,1,0.3,1.6c0.8,0,1.5,0.2,2.1,0c1.5-0.3,3-0.8,4.5-1.3c1.8-0.7,2.8-2,3-4.1
		c0.5-7.3,1-14.5,0.3-21.8c-0.2-2.6-0.2-5.3,0.2-7.9c0.7-4.8,0.5-9.4,0.3-14.2c0-2.1-1-3.8-3.1-4.3C101.3,68.1,98.8,67.8,96.2,68.5
		 M188.5,165.4c-0.2,1-0.5,2.1-0.5,3.1c0,4.1-1.2,7.9-1.8,11.9c-1,5.8-2.1,11.4-3.1,17.2c0,0.2,0.2,0.5,0.3,0.8
		c1.2,0.3,2.3,0.8,3.6,1.3c0.2,1.6,0.3,3.1,0.2,4.9c-4.8-0.3-9.6,0.2-14.2-1c-1.2-0.3-1.6-0.8-1.6-2c0-1.5,0.2-3,0.8-4.3
		c1.2-0.2,2.3-0.5,3.8-0.7c0.2-0.7,0.5-1.3,0.5-2c0.2-1.6,0.2-3.5,0.3-5.1c0.2-1.8,0.2-3.6,1.3-5.3c0.5-0.8,0.5-1.8,0.7-2.8
		c1.6-10.4,3.1-20.9,4.1-31.3c0.7-5.9,1.6-11.7,2.1-17.6c0.7-9.2,2.5-18.3,4.1-27.4c1.2-6.4,2.1-12.9,3.3-19.3
		c0.3-1.6,0.7-3.3,0.8-4.9c0.8-6.4,1.6-12.7,2.5-19.1c0.3-2.3,0.7-4.6,1-6.8c1.6-1.2,3.1-0.7,4.8-0.5c0.2,0.8,0.3,1.5,0.5,2.1
		c0.5,7.6,0.8,15.2,1.3,22.9c0.3,4.8,0.8,9.4,1.2,14.2c0.5,6.1,0.7,12.4,1.2,18.5c0.5,7.9,1.2,15.7,1.8,23.6c0.5,6.6,1,13,1.6,19.6
		c0.5,4.3,1.2,8.6,1.8,13c0.5,3.5,1,6.9,1.6,10.4c0.8,5.1,1,10.1,1,15.2v3.8c1.5,0.3,2.8,0.5,4.1,0.7c1.5,1.5,0.3,3.1,0.8,4.5
		c-0.8,1.2-1.6,1.6-2.6,1.6c-4.1,0-8.2-0.2-12.5-0.2c-0.2-1.8-0.2-3.6-0.3-5.1c0.3-0.3,0.5-0.7,0.8-0.8c1.8-1.2,2.5-2.6,2.6-4.8
		c0.5-4.8,0.3-9.4-0.3-14.2c-0.5-3.8-0.8-7.8-1.3-11.5c-0.3-2.6-0.8-3.1-3.5-3.5C197.3,164,193,163.8,188.5,165.4 M196.6,122.2h-0.8
		c-2.1,11.5-3.5,23.1-5.1,34.6c2.6,0.5,7.1,0.5,9.7-0.2c0.8-1.5,1.2-3.1,0.7-4.9c-1.8-6.6-2.5-13.4-3.1-20c-0.3-2.6-0.5-5.3-0.7-7.9
		C197.1,123.2,196.8,122.7,196.6,122.2 M275.6,398c1.8,0.3,3.3,0.5,4.8,0.7c0,0.5,0,1-0.2,1.6c1.3-0.2,2.6-0.2,4.1-0.3
		c0.2,0.8,0.5,1.6,0.5,2.5c0.2,3.3,0.2,6.6,0.2,9.9c0,4.6,0.2,9.2,0,13.9c0,2.5,0.8,4.8,2,6.9c0.5,0.7,1,1.3,1.6,2
		c1.3,1.2,2.8,1.2,4.3,0.2c3.5-2.5,5.3-5.9,5.3-10.2c0-2.6-0.2-5.3-0.3-7.9c-0.2-1.6-0.2-3.5-0.5-5.1c-0.2-1.2-0.3-2.3-0.7-3.5
		c-1.2-4.8-2.3-9.6-3.6-14.3c-1-3.6-2-7.3-3.1-10.9c-0.2-0.7-0.5-1.2-0.5-1.6c-2-8.4-4.9-16.5-7.6-24.7c-1.3-3.8-2.5-7.6-4.5-11
		c-0.8-1.3-1-2.6-1.2-4.1c-0.8-4-0.7-7.9-0.7-11.9c0-1.3,0.3-2.6,0.3-4c0-2.8,1.2-5.1,2.6-7.4c2-3.1,4.5-5.6,7.6-7.6
		c0.7-0.3,1.3-0.8,2-0.8c2.3,0,4.6-0.3,6.9,0c4.6,0.7,7.9,3.3,9.9,7.6c1.2,2.6,1.8,5.1,1.8,8.1c0,6.1,0.2,12.4,0.2,18.5v4.8
		c0,1.2-0.2,2.5-1,3.6c-0.7,0-1.5,0.2-2.3,0.2c-1.6,0-3.3,0.2-5.1-0.2c-0.2-0.8-0.3-1.5-0.3-2.1c-0.2-3-0.3-5.8-0.5-8.7v-2.1
		c0.7-4.3,0.3-8.4,0.5-12.7c0-2.5-1.2-3.8-3.3-4.6c-2.3-1-4.8-0.8-7.1-0.7c-0.7,0-1.3,0.7-1.6,1.2c-0.5,1.2-1,2.5-1,3.8
		c0,5.1,0,10.2,0.3,15.3c0.2,3.1,1.5,6.1,2.8,8.9c2.1,4.8,4.3,9.6,6.3,14.3c1,2.3,1.6,4.8,2.3,7.3c1.8,7.1,4.1,14.2,6.3,21.3
		c1.8,5.6,2.5,11.4,3.5,17.2c1,5.4,1,10.9-0.2,16.2c-0.5,2-0.5,4.1-0.8,6.1c-0.5,2.8-1.8,5.3-4,7.1c-1.6,1.5-3.3,2.8-4.9,4.1
		c-0.7,0.5-1.5,0.8-2.3,1c-3.1,0.7-6.3,0.3-9.1-1.3c-3.8-2.3-6.4-5.6-8.1-9.4c-0.2-0.5-0.3-1.2-0.5-1.8c-0.5-5.6-1.5-11-1.5-16.7
		c0-4.9,0-9.9,0.2-14.8C275.1,400.1,275.4,399.3,275.6,398 M255.6,109.5c-2.5,0.3-4.9-0.3-7.4-0.3c-0.2-0.7-0.3-1.3-0.3-2.1
		c0.2-3,0.2-5.8,0.5-8.7c0.5-4.5,0.3-8.9-0.7-13.4c-0.8-3.5-1.6-6.8-2.5-10.2c-0.3-1.6-1.3-3.1-2.5-4.3c-1.3-1.5-3.1-1.2-3.6,0.8
		c-0.8,2.6-1.5,5.4-2,8.1c-0.5,2.6-0.5,5.3-0.7,7.9c-0.8,13-0.5,25.9-0.5,38.9c0,11.7-0.3,23.3-0.5,35c-0.2,6.6-0.3,13.4-0.7,20
		c-0.2,3.1,0.5,6.1,1.3,8.9c0.2,1,0.7,1.8,1,2.6c0.5,1.6,2.1,2.1,4,1.8c4-1,7.6-5.1,7.6-9.2c0.2-4.8,0.2-9.7,0-14.5
		c0-2.5-0.5-4.8-0.8-7.3c-0.2-1.2-0.2-2.5,0.5-3.5c2.6-1,6.4-1.3,8.9-0.5c0,0.2,0.2,0.5,0.2,0.7l-1,25.7c-0.2,2.5-0.5,4.8-0.8,7.3
		c-0.7,4-3,7.1-5.1,10.2c-1.6,0.8-3.1,1.8-4.9,2.1c-3.8,1-7.6,0.7-11.4-1c-2-0.8-3.1-2.1-4-4.1c-0.8-2.3-1.8-4.8-2.3-7.3
		c-1-4.9-1.2-10.1-0.7-15.2c0.2-1.3,0.3-2.6,0.3-4v-20c0-12.5,0.2-25.1,0.3-37.4c0-3.1,0.2-6.3,0.3-9.4c0-1.2,0.2-2.1-0.2-3.3
		c-0.7-3.1-0.3-6.3-0.2-9.4c0.2-6.6,0.5-13,0.7-19.6c0-3.3,0.8-6.3,3.1-8.6c0.8-0.8,1.6-1.8,2.3-2.8c1-1.6,2.6-2.1,4.3-2.3
		c4.3-0.5,7.9,0.7,10.9,3.6c2.1,2,3.5,4.5,4.8,7.3c1.8,4,2.8,7.9,2.8,12.4c0,3,0.2,6.1,0,9.1c-0.2,4.9-0.5,9.9-0.7,14.8
		C256.1,108.7,256,108.9,255.6,109.5 M364.3,159.5c2.5,0.5,4.8-0.7,7.1,0c0.5,1.5,0.8,3.1,0.8,4.6v24.1c0,2.8-0.2,5.6-0.5,8.4
		c-0.5,5.9-5.6,11-11.7,11.5c-2.8,0.2-5.6,0.3-8.2-0.5c-1.2-0.3-2.1-0.8-3.1-1.8c-1.8-1.8-3.1-4-3.8-6.4c-0.8-3.1-1.5-6.4-1.5-9.7
		c0-6.3-0.2-12.4,0-18.6c0.2-5.9-0.2-11.9,0.2-17.8c0.2-4.9-0.2-9.9,0-14.8c0.2-4.9-0.2-9.9,0-14.8c0.3-6.8,0.2-13.5,0.3-20.3
		c0-4.1-0.2-8.2-0.2-12.4c0-6.6,0.7-13,1.8-19.5c0.3-1.6,1-3,2.1-4.1c0.5-0.3,0.8-0.8,1.2-1.3c2.1-3,5.1-4,8.6-4.1h3.3
		c3.6,0,5.8,1.8,7.4,4.9c1.3,2.8,1.8,5.8,2.1,8.7c0.5,4,1,7.9,1.3,11.9c0.3,3.5,0.3,7.1,0.3,10.6v11.7c0,0.7-0.2,1.5-0.3,2.1
		c-2.5,0.8-4.9,0.7-7.6,0.2c-0.2-1-0.7-1.8-0.5-2.6c0.5-6.1-0.3-12-0.2-18.1c0.2-2.3,0.2-4.6,0.3-6.9c0.2-3.1-0.3-6.1-1.6-8.9
		c-0.7-1.3-1.5-2.5-2.6-3.5c-1.3-1-2.6-1.2-3.6,0s-2.1,1.3-3.5,2c-0.5,4.5-1.6,8.7-1.5,13.2c0.5,9.1,0.3,18.1,0.3,27.2v46.2
		c0,3.1-0.3,6.3-0.5,9.4c-0.2,5.8-0.3,11.4-0.3,17.2c0,3.6,0.8,6.9,2.6,10.1c0.3,0.5,0.7,1.2,1,1.5c1.6,1.6,4.3,1.3,5.4-0.7
		c3-4.8,4-10.2,3.8-15.7c-0.2-4.8,0.2-9.7,0.7-14.5c0.2-1.5,0.2-3.1,0.2-4.8C364.3,162.3,364.3,161.2,364.3,159.5 M394.7,123.2
		c2.1-0.3,4.1-0.5,6.4-0.8c0.5,2.5,0.3,4.9,0.3,7.3c-2.3,1-4.6,0-6.8,0.8c0,0.8-0.2,1.6-0.2,2.5c0,6.9,0,13.9-0.2,20.8
		c0,6.6-0.3,13-0.5,19.6c-0.2,6.3-0.2,12.4-0.2,18.5c0,2.3,0.5,4.6,0.8,6.9c2.6,0.8,5.3,0.3,7.8,0.3c2.5,0,4.8,0.5,7.4-0.2
		c0.7-3.5,0.3-7.1,0.3-10.6c0.2-3.5,0.5-6.8,0.7-10.2c0.3-3.5,0.5-6.9,0.8-10.6c1.8-0.7,3.5-0.5,5.1,0.3c0.5,3.3,0.2,6.6,0.3,9.7
		c0.2,3.3,0,6.6,0,9.7c0,3.1,0,6.3,0.2,9.4v10.1c-0.7,0.2-1.3,0.3-2,0.3c-7.1-0.3-14-1-21.1-0.7c-3.6,0.2-7.3-0.5-10.9-0.8
		c-1.2-0.2-1.6-0.7-1.6-2v-4c1.6-1.3,3.5-0.5,5.3-1.3c0.2-0.5,0.3-1.2,0.3-1.8c0-1.2,0-2.5-0.2-3.6c-0.7-5.4-0.2-10.9,0-16.3
		c0-4-0.2-7.8-0.2-11.7c0-2-0.2-4,0-5.8c0.7-6.4,0.5-12.9,0.3-19.3c-0.2-7.1-0.2-14.3-0.3-21.4c0-4,0-8.1-0.3-12
		c-0.7-8.7-0.5-17.5-0.5-26.2c0-4-0.2-7.9-0.3-12.2c-1.8-0.5-3.6-0.8-5.4-1.3v-6.3c0.8-0.2,1.5-0.3,2.1-0.5
		c8.7-1.3,17.6-0.7,26.6-0.7h9.1c0.7,0,1.5,0.2,2,0.2c1.2,4.6,1.5,16.8,0.5,22.3c-2,1-4.1,0.7-6.4,0.7c-1.6-5.3-1.2-10.9-1.8-16.2
		c-3-0.8-12.4-0.8-17.5,0.2c-0.2,0.5-0.2,1.2-0.5,1.5c-0.7,0.7-0.8,1.3-0.5,2c1.2,4,1,8.2,0.8,12.2c-0.2,6.3-0.2,12.5,0.3,19
		c0.2,3-0.2,5.8-0.2,8.7c-0.2,3.5-0.2,7.1-0.3,10.6C394.3,121.6,394.5,122.2,394.7,123.2 M249.5,435.1c3.6,0.5,6.9,0.5,10.4,0.5
		c0.7-1.8,1-3.5,1.2-5.3c0.3-5.9,0.8-11.9,1.2-17.8c0-1,0.2-1.8,0.3-3c1-0.2,2-0.3,3-0.3h2.6c0.8,2.8,0.5,5.6,0.7,8.2
		c0.2,2.6,0.2,5.3,0.2,8.1c0,2.8-0.3,5.6-0.3,8.4v8.1c-0.5,0.2-1,0.3-1.5,0.3H235c-0.3-2.1-0.3-4.1,0.2-6.4c1.6-0.2,3.1-0.3,4.8-0.7
		c0.2-0.7,0.5-1.3,0.5-2c0.5-4.9-0.2-9.9-0.5-14.8c-0.8-9.4-0.7-18.6-0.3-28c0.5-12.2,0.7-24.2,1-36.4c0-0.8,0.2-1.6,0-2.5
		c-1.2-10.2-0.5-20.3-0.5-30.5c0-1.2,0.3-2.1-0.7-3.3c-1.3-0.2-3-0.3-4.6-0.5c-0.2-1.5-0.5-3-0.5-4.5c-0.2-1.6,0.5-2.1,2.1-2.1
		c4.5,0,9.1,0.2,13.5-0.2c4.6-0.3,9.2-0.5,13.9-0.2c1,0,2,0.2,3,0.3c1.3,0.3,2.1,1.2,2.3,2.5v1.5c-0.5,6.6-0.8,13.4-1.3,20
		c0,0.7-0.2,1.2-0.3,1.8c-1.5,1-3,0.8-4.6,0.8c-0.8-1.6-0.7-3.5-0.7-5.1c0-3.6,0.2-7.3,0.2-10.9c0-1-0.2-2.1-0.2-3.5
		c-3.6-0.5-7.1-0.5-10.7,0.2c-0.3,0.8-0.7,1.5-0.8,2.3c-0.3,5.3-1,10.4-0.7,15.7c0,1,0.2,2,0,3c-1,6.4-0.3,12.9-0.5,19.3
		c0,2.6,0,5.3,0.2,7.9c2,1,4.3-0.2,6.3,0.7c0.3,2.8,0.3,5.4,0.2,8.4h-5.6c-1.2,0.8-1,2-1,2.8c0,7.6,0.2,15,0.2,22.6
		c0,7.4,0.2,14.8,0.3,22.3c0,3,0.2,5.8-0.2,8.7C249.4,432.6,249.5,433.8,249.5,435.1 M303.8,61.9c0.5,2.6,0.5,15.7,0.2,19
		c-2.1,0.7-2.1,0.7-4.9,0.2c-1.2-1.6-0.7-3.5-0.8-5.3c-0.2-1.8-0.3-3.6-0.5-5.3c-2.5-0.8-6.3-0.8-9.4-0.2c0,0.5-0.2,0.8,0,1.3
		c0.8,7.6,0.8,15.3,0.7,22.9c0,2.1-0.5,4.3-0.7,6.4c-0.2,0.8-0.2,1.6-0.2,2.5c0,5.1-0.2,10.2-0.2,15.3c0,1.6,0.3,3.5,0.3,5.1
		c0.3,3.8,0.7,7.4,0.8,11.2l0.5,45.5c0,3.5-0.2,6.8-0.2,10.2c0,2.5,0.2,5.1,1,7.8h6.4c0.7,2.6,0.2,4.9,0.2,7.3
		c-0.5,0.3-0.7,0.7-1,0.7c-7.4,1-15,0.8-22.6,0.7c-1-2.3-0.5-4.6-0.7-6.8c2.6-1.2,5.3-0.2,7.8-1.2c0.5-1.6,0.7-3.3,0.5-5.1
		c0-2.8-0.2-5.6-0.2-8.4c0-4.1,0.3-8.2,0.3-12.4c0-4.3-0.2-8.7-0.2-13c0-4.5,0.2-8.9,0.2-13.5V132c-0.2-9.9-0.3-19.6-0.3-29.5
		c0-5.3,0.3-10.4,0.5-15.7c0.2-5.4,0-10.9,0-16.5c-0.7-0.2-1.3-0.5-2-0.5c-1.6,0-3.5,0-5.1,0.2c-2.8,0.3-3.5,1-3.6,4
		c-0.2,1.3,0,2.6,0,4c0,0.7,0,1.2-0.2,2c-1.6,0.5-3.1-0.2-4.8-0.5c0-2,0-4-0.2-5.8c0-3.1-0.2-6.3-0.2-9.4c0-2.6,0.3-3.1,2.8-3.3
		c2.5-0.2,5.1-0.3,7.6,0c7.6,1,15.2,0.8,22.9,0.8C300.3,61.4,302.2,61.2,303.8,61.9 M331,318.2c-2.8-0.2-5.3-0.5-7.6-0.2
		c-1,1.2-0.7,2.5-0.7,3.6v3.3c-2.5,1-4.9,0.3-7.4,0.5c-0.2-0.7-0.7-1.3-0.7-2c0-3.6,0.2-7.3,0.2-10.9c0-2.3,0.8-3,3.1-3.1h16.3
		c2.8,0,5.6,0.2,8.4,0.2c4.5-0.2,8.9,0.7,13.4,1.3c1.5,0.2,2.6,1.3,3.6,2.3c0.7,0.7,1,1.5,0.5,2.3c-1.2,2-1,4.3-1.2,6.4
		c0,0.5-0.2,1-0.3,1.6c-2.1,0.5-4.3,0.3-6.4,0c-0.2-1.6-0.3-3-0.5-4.6c-3.1-0.7-6.3-0.2-9.6-0.5c-0.2,1-0.3,1.6-0.3,2.3
		c-0.2,10.9-0.2,21.8-0.2,32.7c0,1.8-0.2,3.6-0.3,5.4c-0.7,8.1-0.7,16.2-0.3,24.4l0.5,7.9c0,2.5,0.3,4.8-0.5,7.3
		c-0.5,1.2-0.3,2.6-0.3,4c0,8.9,0.2,18,0.2,26.9c0,1.2,0.2,2.5,0.3,3.8c1.3,0.3,2.6,0.7,4.1,1.2c0.3,2.3,0.2,4.5-0.3,6.6
		c-3.5,0.3-13.4,0-16.2-0.8c-0.2-1.3-0.3-2.8-0.5-4.3v-1.6c1.2-0.3,2.5-0.8,4-1.2c0.2-0.7,0.3-1.3,0.3-2c0-2.8-0.2-5.6,0-8.4
		l0.5-13.4c0-3-0.2-5.8-0.2-8.7v-6.6l-0.5-13.9c0-1.2-0.3-2.5-0.2-3.6c0-6.4,0-12.9,0.5-19.3s0.3-12.9-0.3-19.3
		c-0.5-6.1-1.2-12-0.8-18.1C331.2,319.6,331,319.1,331,318.2 M368.6,317.3c-0.2-2.1-0.3-4-0.5-5.8c0.7-0.3,1.2-0.7,1.6-0.7
		c4.9-0.5,9.9,0.2,14.8,0.7c0.5,0,0.8,0.3,1.3,0.7c0.2,1.8,0.3,3.6-0.2,5.4c-1.5,0.2-2.8,0.5-4.5,0.7c0.2,0.8,0.3,1.3,0.5,2
		c0.8,3.1,1.8,6.3,2.5,9.6c1,5.4,2.3,10.9,4.6,16c0.8,1.8,1.3,3.8,2.1,5.8l1,2c1.3-0.3,2.3-0.8,2.6-2.1c1.3-4.9,2.8-9.7,4-14.7
		c1.5-5.9,2.8-11.9,4.1-17.6v-1c-0.8-1.5-2.6-1.2-4-2c-0.5-1.2,0-2.3,0.3-3.5c3.1-0.8,6.3-0.2,9.4-0.2c3,0,6.1,0.3,8.9,0.3
		c0.7,2.1,0.7,2.1,0.3,4.8c-2,1.2-4.3,0-6.6,0.8c-0.2,0.5-0.5,1.2-0.7,1.8c-2,6.1-4,12.2-5.8,18.5c-1.3,4.5-2.3,8.9-3.5,13.4
		c-0.3,1.5-0.7,2.8-1.2,4.3c-0.7,2.3-1.3,4.6-1.2,7.1c0,0.8,0,1.8-0.5,2.5c-0.8,1.8-0.8,3.8-1,5.6c0,3.5-0.2,7.1-0.2,10.6
		c0,2.5,0.3,4.8,0.3,7.3c0.2,2.6,0.2,5.3,0.2,7.9c-0.3,7.9-0.8,15.7-1.2,23.6c-0.2,2.3-0.2,4.6-0.2,6.9c0,2.6,0.3,5.1,2,7.3
		c1.2,0,2.3,0.2,3.6,0.3c1.3,1.8,0.8,3.6,0.5,5.6c-2.1,0.5-4.1,0.2-6.3,0.3c-2,0-4.1,0-6.3,0.2c-2,0-4.1,0.2-6.3,0.2
		c-1-2-0.3-4-0.3-6.1c0.8-0.2,1.6-0.5,2.5-0.7c0.8-0.2,1.6-0.2,2.6-0.3c0-0.8,0.2-1.5,0.2-2.1c0.2-4,0.3-7.8,0.5-11.7v-10.6
		c0-5.1,0-10.2,0.2-15.3c0-1.6,0.7-3.3,0.7-5.1c0-4.8,0-9.4-0.2-14.2c-0.2-3-1-5.8-2.3-8.4c-0.7-1.2-1-2.5-1.3-3.8
		c-1-4.9-2-9.7-4.1-14.3c-1.2-2.8-1.6-5.8-2.6-8.7c-0.8-2.8-1.8-5.6-2.6-8.2c-1.2-3.6-2.3-7.4-3.5-11c-0.2-0.7-0.3-1.2-0.5-1.8
		c-0.3-1-1-1.6-2.1-1.6C370.9,317.7,369.9,317.5,368.6,317.3 M326.6,199.6c1.2,0.7,2,1,2.8,1.5v4.5c-0.5,0.2-1,0.5-1.5,0.5
		c-4.3,0.2-8.4,0.3-12.7,0.5c-0.8,0-1.6-0.2-2.5-0.3c-0.2-2-0.3-4,0.2-5.9c1.5-0.2,2.8-0.5,4.5-0.8c0.2-1.2,0.3-2.1,0.5-3.3
		c0.3-6.9,0.8-13.9,1-20.8c0.2-6.4-0.2-12.9-0.3-19.3c-0.2-5.3-0.7-10.4-0.7-15.7c0-7.9-0.2-16,0.5-23.9c0.2-2.8,0.2-5.6,0.2-8.4
		c-0.2-5.6-0.3-11.2-0.5-16.7c0-0.7,0-1.5,0.2-2.1c0.8-6.6,0.8-13.4,0.8-20c0-0.5-0.2-1-0.2-1.3c-1.5-1.2-3.5-0.2-4.9-1.6v-4.8
		c3.1-1,4.5-1,19,0.2c1,1.5,0.5,3.1,0.3,4.8c-1,0.3-2,0.5-3,0.8c-1,0.3-1.6,1-1.6,2.1c0,0.7,0,1.5-0.2,2.1
		c-1.2,12.4-0.7,24.7-0.7,37.1c0,8.7,0,17.5-0.2,26.2c0,3.6-0.5,7.3-0.7,10.9l-0.5,19.6c-0.2,10.7-0.2,21.3-0.2,32
		C326.6,198.3,326.6,198.8,326.6,199.6"/>
	<path d="M194,256.3c0.5,1-0.5,2.5,1,3.3c0.3,0.2,0.3,0.8,0.3,1.3c-0.3,2-0.5,4.1-0.8,6.1c-0.8,4.8-3.3,8.9-6.6,12.4
		c-0.7,0.8-1.6,1.5-2.6,2c-1.5,0.8-3.3,0-3.6-1.6c-1-5.4-1.3-10.9,2.8-15.5c1.3-1.5,2.3-3.5,3.3-5.3c0.7-1.2,1.5-2,2.6-2.5
		C191.3,256,192.6,255.3,194,256.3 M119.1,258c0.7,1,1,1.3,1.2,1.6c1.8,5.4,3.3,10.9,5.6,16c1,2.3-0.5,4.8-3,5.3
		c-3,0.7-6.1,0.2-8.9-0.8c-0.5-0.2-0.8-0.5-1.2-0.8c-1-1-1.8-1.8-2.6-2.8c0-0.2-0.2-0.5,0-0.7c2-3.5,4.1-6.8,6.1-10.2
		c0.5-0.8,0.8-1.8,1.2-2.6C117.6,261.4,118.1,259.9,119.1,258 M355.8,281.7c-1.3-1.3-3.1-1.3-4.9-1.5c-1,0-1.8-0.3-2.6-1.3
		c0.2-0.3,0.5-1,0.8-1.5s0.8-1.2,1-1.6c0.7-2.1,2-4.6,3-6.6c0.3-0.8,5.1-5.8,4.9-5.9c1.8,4,3.6,8.4,4.1,12.7
		c0.3,2.3-0.7,3.8-3.1,4.8C357.9,281.1,356.9,281.4,355.8,281.7 M379.2,276.9l3.5-5.4c1-1.5,1.5-3,2-4.6c0.2-0.8,0.7-1.6,1.6-1.8
		c1-0.2,1.6,0.3,2.1,1.2c1.3,1.8,2.1,3.8,1.8,5.9c-0.2,1.6-0.3,3.1-0.8,4.6c-1.2,3.6-4.5,4.9-8.1,4.1c-0.5-0.2-1.2-0.7-1.3-1.2
		C379.5,278.9,379.3,277.9,379.2,276.9 M279.7,276.1c-0.3-2-0.3-3.3,0.3-4.8c1.8-3.6,1.8-7.8,3.8-11.4c2.1-4,2.6-8.4,8.4-6.3
		c0.8,0.3,1.2,1.2,1,2.1c-0.2,0.3-0.2,0.7-0.3,1c-2,3.8-3.8,7.6-5.8,11.4c-1.3,2.5-3,4.6-5.1,6.6
		C281.5,275.3,280.7,275.6,279.7,276.1 M329.4,275c-1.3-1.2-1.3-2.5-1.2-3.8c0.5-3.8,1.5-7.3,4-10.4c0.5-0.7,1.2-1.3,1.8-1.6
		c0.5-0.3,1.2-0.5,1.6-0.5c1.3-0.2,2,0.7,2.1,2c0,2.6-0.7,5.1-1.8,7.3c-1.3,2.5-3,4.6-5.1,6.4C330.5,274.6,329.9,274.8,329.4,275
		 M314,257.3c-0.2-0.5-0.3-0.8-0.3-1c0.2-0.7,0.3-1.5,0.5-2.1c1.2-3,2-6.3,3-9.2c1.2-3.5,3-6.8,5.6-10.1c0.2,0.8,0.3,1.3,0.3,1.6
		c-0.2,4.9-2.1,9.4-4.8,13.5c-1.3,2.1-3,4.1-3.5,6.8C314.9,257,314.4,257.1,314,257.3 M151.2,247.6c1-6.6,2.6-11.4,4.6-14.3
		c0.3,0.7,0.7,1,0.7,1.5c0,0.7,0,1.2-0.2,1.8c-1,3.3-2,6.4-3.8,9.4C152.4,246.3,152.1,246.6,151.2,247.6"/>
</g>
</svg>
