<svg xmlns="http://www.w3.org/2000/svg" viewBox="0 0 500 500"><path d="M367.5 275.7c-.2-1.2-.6-2.5-1-3.7-.2-.4-.6-1-1-1.2-1.4-.4-2.9-.4-4.3-.8-2.9-.6-6-1-8.8-1.6-3.7-.8-7.4-1.6-10.9-2.5-2.7-.6-5.3-1.2-8-1.9-.2 0-.6-.6-.6-.8v-4.1c0-2.3 0-4.7-.2-7-.4-4.7-.8-9.3-1.2-14-.2-3.5-.6-7-.8-10.5-.2-2.1-.6-3.9-.8-6-.4-3.1-1-6.2-1.6-9.1-.6-2.7-1.4-5.1-1.9-7.8-.4-2.5-.4-4.9-.6-7.6-.2-3.1-.2-6.2-.2-9.3.2-3.7.6-7.4.8-11.3.2-4.3.4-8.4.4-12.8 0-3.5-.2-7-.2-10.5 0-3.1-.2-6 0-9.1.2-3.9.6-8 .8-11.9.2-5.6.2-11.1.4-16.9.2-6.2.4-12.3.6-18.5V78.7h.4c.2-.6.6-1 .6-1.6 0-3.1-.2-6.4-.2-9.5 0-2.3-.2-4.7 0-7 0-1-.2-1.4-1-1.6-3.9-.8-7.8-1.9-11.7-2.7-2.9-.6-5.8-1.2-8.6-2.1-2.5-.6-4.7-1.2-7.2-1.6-.2 0-.6.2-.8.2-.4-.2-.6-.6-1-.6-4.3-.8-8.6-1.6-13-2.3-4.7-.6-9.5-1.2-14.2-1.9-10.1-1-20.2-1.4-30.2-1.2-8.6.2-17.1.6-25.7 1.2-5.3.4-10.5 1.2-15.6 1.9-4.7.6-9.5 1.6-14.2 2.7-2.3.4-4.3 1-6.6 1.6s-4.3 1.2-6.6 1.6c-1.2.4-2.5.6-3.7 1-1.6.4-3.1 1.2-4.7 1.6-3.1 1-6.4 1.9-9.5 3.1-3.5 1.2-7 2.9-10.5 4.3-.6.2-1.2.6-1.9.8-.4.2-1 .4-1.4.4-1 .6-2.1 1-2.9 1.6-.2.2-.4.2-.6.4 0 .4-.4.8-.6 1-1 .8-2.3 1.4-3.3 2.1-.8.4-1.2 1-1.2 1.9.2 3.9.4 7.8.6 11.5.4 6 .8 11.7 1.4 17.7 0 .4.4.8.6 1 .2.2.2.4.4.6.4 3.3.6 6.4 1.2 9.7.6 3.7 1.2 7.4 2.1 11.1.8 3.7 1.9 7.2 2.7 10.9.4 2.7.4 5.3.8 8 .2 3.1.6 6.2.8 9.3 0 1 0 2.3.2 3.3.2 2.1.6 3.9 1 6 0 .6-.2 1 0 1.6.4 2.1.8 4.1 1.2 6.2 0 .4.2.8.4 1.2.2.8.4 1.4.6 2.3.2 1.2.2 2.7.4 3.9.4 2.1 1.2 4.1 1.4 6.4.4 2.7 1.2 5.1 1.6 7.8.2 3.1 1 6.2 1.6 9.3.6 3.5 1.2 7 1.9 10.7 0 .4.2 1 .2 1.4.2 1.2.2 2.3.4 3.5.2 1.2.6 2.7.8 3.9.4 2.7.6 5.3.8 8 .2 1.4.6 2.9.8 4.1.6 3.9 1.2 7.8 1.9 11.7.2 1 .2 2.1.4 3.1.6 3.3 1.2 6.6 1.9 10.1.6 3.3.8 6.6 1.4 9.9.6 3.5 1.2 7 2.1 10.3.2 1-.2 1.6-1 1.9-1.2.4-2.5.8-3.9 1.2-.4.2-.6.6-1 1-1.2-.4-2.3 0-2.9 1.4l-.6.6c-1.4.8-2.9 1.6-4.5 2.5-2.5 1.4-4.9 2.9-7.4 4.3-1.9 1-3.7 1.9-5.3 2.9-1.2.8-2.5 1.6-3.7 2.5-.4.2-.6.6-.8.8-.2.2-.6.4-.8.6-1.9 1.2-3.9 2.3-4.5 4.9-.4 1.9-1.4 3.7-2.5 5.3-1.2 2.1-1 4.1-.2 6 .6 1.4 1.9 2.9 3.1 4.1 1 1 2.5 1.9 3.7 2.7.6.4 1.2.8 2.1 1.2 2.9 1.9 5.8 3.9 8.6 5.8.8.4 1.6 1 2.5-.2.4-.8 1.2-1.4 2.1-2.1 2.1-1.4 4.3-2.5 6.6-3.9 1.6-1 4.5-.4 5.6.6s1.9 1.9 2.9 2.9c2.1 2.1 4.1 3.9 6.2 6.2 1 1 2.1 1.9 2.5 3.1.8 2.3 1.6 4.5 2.1 7 1 5.8 1.9 11.7 2.7 17.5 0 .4.4.8.8 1 1.4.8 2.9 1.2 4.1 2.3 1.4 1 3.1 2.3 4.3 3.9.8.8 1.2 1.9 1.2 2.9.2 2.1.2 4.1.4 6.2.4 4.3 0 8.8 2.1 13 1.2 2.7 1.4 5.6 2.3 8.2 1.6 6.6 2.7 13.2 3.5 20 .2 1.4.2 3.3 1 4.3 2.3 2.3 4.3 5.1 8.2 4.9 2.1-.2 3.1 1.2 3.1 3.3 0 .6.2 1.2.4 1.4.8.8 2.1 1.4 2.9 2.3.4.2.8.6 1 1 .6 1 1.2 2.1 1.9 3.1 1.4 2.1 2.5 4.3 4.7 5.6.8.4 2.5.8 2.5 2.3h.2l.2-.2 1.2 1.2c.4.4 1 .6 1.4.8 1 .4 1.2 1.6 2.1 2.3 1 1 2.1 1.6 3.3 1.9 3.5.8 6.8 1.6 10.1 3.1 1.4.6 2.9.8 4.1 1.6 1.6 1 3.5 1.6 5.6 1.9 4.5.4 8.8.6 13.4 1 5.8.4 11.3.4 17.1-.6 3.1-.4 6.2-1.2 9.1-2.3 1.9-.6 3.7-1.2 5.6-2.3 2.3-1.2 4.3-2.7 6.6-3.9.8-.4 1.4-.6.6-1.6 4.7-1.9 9.5-3.7 14.4-5.6l-1-1c.4-.4.8-.8 1.4-1 .8-.4 1.6-.6 2.3-1 .8-.6 1.2-1.4 1.9-2.1.2-.2.4-.8.6-1 .4-.4 1-.6 1.4-.8 1.2-.6 1.2-1.4.6-2.7v-.2c.2-.2.6-.4.8-.6 0 0 0-.2-.2-.2h-.8c0-.4.2-.8.4-1 .4-1 .8-2.1 1.2-2.9.2-.4.6-.6.8-1 .8-.6 1.6-1 2.5-1.6.2-.2.6-.4.8-.6.8-5.6 1.6-11.1 3.7-16.5-.4-4.5-1-9.1-1.2-13.6-.2-3.9-.4-8-.2-12.1 0-3.1.6-6.2.8-9.5 0-.4-.2-.6-.2-1-.2.2-.6.2-.8.6-.4.6-.8 1.4-1.2 2.3-.8 2.1-1.4 4.1-2.3 6.2-1.9 5.3-3.7 10.7-5.6 16 0 .2-.2.6-.4.8-1.2.8-2.3 1.9-3.1 2.9-1.6 2.1-2.9 4.3-4.5 6.2-1.9 2.1-4.1 3.7-6.2 5.6-1.9 1.6-3.9 3.1-6.4 3.9-1.2.4-2.3 1-3.5 1.6-2.1 1-4.1 1.9-6.2 2.9-1.2.6-2.3 1.4-3.5 2.1-1.4.6-2.7 1.9-4.5 1-1.9-.8-3.7-1.2-5.6-1.6-4.9-.8-10.1-1.4-15-2.5-4.1-.8-8.2-2.3-11.9-4.1-1.6-.8-3.3-1.9-4.9-2.5-2.5-1-5.1-1.6-7.4-2.9-2.9-1.2-4.9-3.5-6.4-6.4 0-.2-.2-.4-.4-.6-.4-.4-1-.8-1.4-1.4l.4-.4c-1.2.4-1.4-.2-1.6-1-.2-.6-.6-1-1.2-1.6-.8-.8-1.6-1.4-2.3-2.3-.8-1-1.4-2.1-2.1-3.1-.4-.6-.8-.6-1.2-1-.6-.4-1.2-1.4-1.4-2.3-.4-2.7-.8-5.3-1.2-8-.2-1 0-2.1-1.6-2.1.4-.6.6-1 1-1.6h-1.2c.6-.6 1-1.2 1.4-1.6l-.2-.2c-.4 0-.8.2-1.2.2v-.4c.4 0 .8-.2 1.4-.2h1.6v-.4c-1.4-1.2-2.5-2.7-4.5-3.1-2.3-.6-4.5-1.2-6.4-3.1-3.1-3.1-7-5.3-10.7-7.6-2.9-1.6-6-3.3-8.8-5.1-1.4-1-3.7-.8-4.3-3.1 0-.2-.4-.2-.4-.2-.4-.4-.8-1-1-1.4-.6-1.9-1-3.9-1.4-5.8-.4-2.1-.6-4.1.6-6.2.2-.2.2-.4.2-.8.4-2.1.2-4.1 1.2-6 .6-1 1-2.3 1.4-3.5.8-2.3 1.6-4.7 2.7-7 1.2-3.3 2.1-6.6 1.6-10.1 0-.6-.2-1.4-.2-2.1.2-2.1.2-4.1.4-6.2l.6-11.1c0-.4.2-1 .6-1.2 1.2-.4 2.7-.8 3.9-1 4.9-.8 9.7-1.4 14.6-2.3 3.9-.6 7.6-1.4 11.5-2.3 5.3-1 10.9-2.3 16.3-3.3 4.1-.8 8.2-1.4 12.3-1.9 6.4-.6 12.8-1 19.1-1.4 8.2-.4 16.5-.8 24.7-1 6.2-.2 12.1-.2 18.3-.4h5.3c0 .8-.2 1.4 0 2.1.4 1.2 1 2.5 1.4 3.5.8 2.3 1.4 4.3 2.1 6.6.4 1.4.6 2.9 1 4.1 1 2.9 1.2 2.7 4.1 1.9 5.3-1.9 10.7-3.3 16.3-4.1.8-.2 1.4-.4 2.3-.6 3.5-1.4 7-2.9 10.5-4.3 1-.4 2.5-.8 3.3-1.4 1.9-1.2 3.5-2.7 5.1-4.1.4-.4.8-.6 1.2-1v-.5h-.6c.4-.6 1-.8 1.6-1 .2 0 .4-.2.4-.4 0-1.2 1.2-1.9 1.9-2.7-1-.2-.8-.8-.8-1.2zm-55.7-142.2c-.4.6-.4 1.6-1.6 1-2.1-1-2.9-.6-3.5 1.6-.4 2.1-.6 4.1-.6 6.4-.2 3.7.8 7.4 2.1 10.9 1.9 4.7 3.7 9.5 5.6 14.4 1.2 3.5 2.7 7 3.5 10.5.8 4.5 1.2 9.1-1.2 13.4-.2.2-.2.4-.2.6-.8 2.5-2.9 3.3-5.1 2.1-1.6-1-1.9-1.6-.6-3.1.2-.2.4-.4.8-.4 3.1-.2 3.7-.8 3.7-4.1v-.4h.2c-.4-3.5-.8-7.2-1.6-10.7-.6-2.9-2.1-5.6-3.3-8.4-.6-1.4-1-2.7-1.4-4.1-.6-1.4-1-2.9-1.4-4.3-1.4-4.5-3.3-9.1-4.3-13.8-.6-2.1 0-4.5.4-6.8.2-1.6.6-3.1 1.2-4.7.6-1.9 2.3-2.9 4.3-2.5 1 .2 2.1.6 3.1 1 .3 0 .3.6-.1 1.4zm-51.9-60c0-.8.4-1.2 1.2-1.2 1 0 2.3-.2 3.3-.2.8 0 1.2.4 1.2 1.2 0 3.1 0 3.1-3.1 3.1h-.4c-2.8-.1-2.4.1-2.2-2.9zm-96.6 25.7c.4 1.4.8 3.1 1.2 4.5h.4c.2-.6.6-1.2.8-1.9.8-2.3 2.5-3.3 4.7-3.5 2.5-.2 4.3.8 5.8 3.1 1.9 2.9 1.9 6 2.1 9.1v2.7c.2.8.6 1.6 1 2.1.8 1 1.4.8 2.1-.4.8-1.4 1.9-2.9 2.5-4.5.6-1.9 1-3.7 1.2-5.6.2-2.9 0-5.6-.2-8.4 0-1 .2-1.4 1-1.6.4 0 .6-.2 1-.4 1-.4 1.4-.2 1.9.8.2.6.6 1.2 1 1.9 1 1.4 1 1.4 2.5.2 1.4-1.4 2.9-2.7 5.1-2.5 1.9.2 2.1.6 2.1 2.3-.2 3.3-.2 6.8.8 9.9.2 1 .8 2.1 1.4 2.7.6.8 1.9.4 2.1-.6.2-.6.2-1.2 1.2-1.4 1-.2.8-1.2.4-2.3-.4.6-.6 1.2-.8 1.6h-.4c0-.6 0-1.2.2-1.9 1.2-3.1 1.2-6.4 2.1-9.5 0-.4.2-.8.4-1.2 1-2.3 2.9-3.7 4.9-4.5 1.2-.6 3.1-.4 4.7-.4 1 0 1.9 0 2.9.2.4 0 1 0 1.6.2.2-.4.2-.6.4-1 .6-1.2 2.3-2.1 3.5-1.4.4.2.6 1 .4 1.4-.4 3.1-.8 6.4-1.4 9.5-.8 3.9-1 8-.8 11.9 0 1.2.8 1.4 1.9.8 1.4-.8 2.1-2.5 3.1-3.9 1.2-2.1.8-4.3.8-6.6 0-4.3.8-8.6 2.9-12.5 1.4-2.5 4.9-4.3 7.8-3.7.4.2 1 .6 1.2 1 .6 1.4 1 2.9 1.2 4.5.4 1.4-1.2 1-2.1 1.9-.2-1-.4-1.9-.6-2.5-.2-.4-.4-1.2-.6-1.2-.6 0-1.6 0-2.1.4-.8.8-1.4 1.9-1.9 2.9-.8 1.9-1.2 3.9-1 6 .2 2.1.2 4.3.4 6.4.2 1.4.4 2.9 1.2 4.1 1 1.9 2.5 2.7 4.5 1.2 2.3-1.6 4.1-3.5 5.3-6 .4-.8.8-1.4 1.2-2.1 1-1 1.2-2.5 1.2-3.7.2-5.6.2-11.1.4-16.5.2-2.9.2-2.9-2.7-2.7-5.6.6-11.1 1-16.7 1.9-5.1.8-10.3 2.1-15.4 3.1-2.7.6-5.1 1-7.8 1.6-1.2.2-1.9-.2-2.1-1.4-.2-1 .6-2.1 1.4-2.3 6.2-1.2 12.1-2.5 18.3-3.5 3.9-.6 7.6-1 11.5-1.6 3.5-.6 7.2-1.2 10.7-1.9.2 0 .6-.2.8-.2 2.5 0 2.5.2 2.7-2.7.2-2.3 1-2.7 3.1-2.7 1.2 0 1.4.6 1.2 1.6-.2 1-.2 2.1-.4 3.1 1 0 2.1 0 2.9.2.4 0 .8.4.8.6 0 1 0 2.1-.2 2.9 0 .2-.8.6-1.2.6-3.1 0-2.9-.4-3.1 2.9-.2 6-.2 12.1-.2 18.3 0 1.4.6 2.9 1 4.3.2.6.8.8 1.2.2.8-1.2 1.9-2.5 2.5-3.7 1-2.7 1.6-5.3 2.3-8 .4-1.6.4-3.5.8-5.1.2-1 3.3-2.1 4.1-1.2.2.4.2 1 .2 1.4 0 3.5 0 7 .2 10.7 0 1.6.2 3.3.6 4.7.2 1.2 1 1.4 2.1.4 1.6-1.9 3.1-3.7 4.5-5.8.6-.8.8-2.1 1-3.3.4-3.1 1.4-6 2.9-8.6 1-1.9 2.3-3.5 3.3-5.3 1.2-1.9 4.9-2.1 6.2-.2.6.8 1 1.6 1.4 2.7 1 2.3.8 3.3-1 4.9-.6.6-1.2.6-1.6-.4-.4-.8-.8-1.9-1.4-2.7-.6-1-1.2-.8-1.9.2-2.5 4.5-3.5 9.5-3.5 14.6v3.1c0 1.6 1 2.7 2.7 2.3 1.4-.4 2.9-1 4.3-1.9 2.9-1.4 4.1-4.3 5.1-7.2 1.6-4.9 4.3-9.3 7.8-13 1.2-1.2 2.7-2.5 4.3-3.1 1.6-.6 3.3-.2 4.7.2 2.5.6 2.9 3.7 2.3 5.3-1.4 3.7-3.5 6.8-6.4 9.7-2.1 2.1-4.3 3.7-7 4.7-1.2.4-1.9 1.4-1.9 2.9 0 1 .2 2.1.4 3.1.4 1.4 1.6 2.3 3.1 1.9 1-.2 1.9-.4 2.9-.8.8-.4 1.4-.2 2.1.6.4.8 1.4 1.2.6 2.5-.2.2-.2.6-.2.6-.6 0-1.2.2-1.6.2-3.1 1-6.2 1-9.3-.4-1.9-.8-2.3-2.1-2.7-3.5-.2-.4-.2-.8-.4-1.6-1 .6-2.1 1-2.7 1.9-2.3 2.9-5.8 3.1-9.1 3.3-1.4 0-2.7-1.6-3.5-3.1-.4-1.2-.8-2.3-1.2-3.5-.4.2-.6.4-.8.6-1 2.3-3.3 2.9-5.1 4.1-1 .6-2.3.6-3.3.2-.2-.2-.6-.4-.8-.6-.8-1.2-1.6-2.5-2.5-4.1-1 1.2-1.9 2.5-2.7 3.5-1 1.4-2.1 2.7-3.9 3.3-.6.2-1.4.4-1.6-.6 0-.2-.2-.2-.2-.2-2.1-.4-2.3-2.1-2.7-3.9-.4.4-.8.8-1 1.2-2.5 3.1-5.1 6-9.3 7.2-1.6.4-3.3 1-4.9-.2-.8-.6-1.9-1.2-2.7-1.6-.4-.2-1 0-1.2.2-.4.2-.6.8-.8 1-1 1.4-2.5 2.5-4.5 2.7-2.7.2-3.5-.4-4.1-2.9 0-.2-.2-.4-.2-.8-.4.2-1 .4-1.2.8-2.9 2.5-7.4 3.7-10.7 1.2-.4-.2-1.4 0-2.1.4-1 .4-1.9 1-2.7 1.4-2.7 1.2-4.9-.4-5.1-3.5-.2-3.5-.4-7-.8-10.7-.2-1.6-.6-1.9-2.1-1-1.6 1-3.1 2.1-4.5 3.3-1.4 1.2-1.4 3.3-1.4 5.1-.2 2.7-.4 5.3-1.6 7.8-1 2.3-2.7 3.7-5.3 3.9-1.6.2-3.3.6-4.9 0-.2 0-.8.2-1 .6-.4.6-.8 1.2-1.2 1.6-1.9 2.5-4.1 2.7-6.8.8-.2.6-.2 1-.4 1.4v7c0 1.6 0 3.5-.2 5.1-.2 1.6-2.5 2.9-3.9 1.9-.2-.2-.2-.6-.2-.8.8-7.2 0-14.2-.2-21.4-.2-4.3-.4-8.6-1.6-12.8-.1-2.6.9-4 2.8-4.6zm15.4 64.8c1 4.5 2.1 8.8 2.7 13.4.6 4.7 1 9.5 1.4 14.2.4 3.3.8 6.4 1.4 9.7.2 1.2.2 2.3.4 3.5.2 1.4-1 1.2-1.9 1.4-.8.2-.8-.6-1-1-1.2-8.2-2.5-16.5-3.7-24.7-1-6.4-2.3-12.8-3.3-19.1-.2-.6-.8-1.2-.8-1.9-.2-1-.2-2.3-.4-3.3-.4-3.1-.8-6-1.2-9.1-.2-.8 0-1.6 0-2.5 2.1-.6 2.7-.4 3.1 1.4.8 3.5 1.4 7.2 2.1 10.7.2 1.4.4 1.4 1.9 1.2 1.6-.4 3.5-.6 5.1-.8.6-.2 1-.4.8-1.2-.4-3.7-.8-7.6-1.2-11.3 0-.6-.2-1-.4-1.6.6-.2 1.2-.4 1.9-.4 1-.2 1.6.2 1.9 1 .6 2.3 1 4.3 1.4 6.6.4 1.9.6 3.7.8 5.8.2.8.2 1.9.2 2.7.4 3.1.8 6.2 1.2 9.5.4 2.9.8 5.8 1.2 8.6.6 3.1 1.4 6 1.9 9.1 1 5.6 2.1 11.1 3.1 16.9 0 .4.2.8 0 1.2-.2.4-.4 1-.6 1-.6 0-1.2-.2-1.6-.6-2.1-2.1-1.4-4.9-2.1-7.6-.2-1-.8-2.1-1-3.3-.4-1.9-.6-3.9-.8-5.8-.2-2.1 0-4.3-1.2-6.4-.6-1-.6-2.5-.8-3.9-.8-5.1-1.6-10.3-2.7-15.2-.2-1.4-1-1.6-2.1-.6-1.4 1.4-3.1 1.6-4.9 1.6-.8-.5-1-.3-.8.8zm100-28.6c.4 3.3.8 6.4 1.2 9.7 0 .8.6 1 1.4 1 1.6 0 1 1.4 1.2 2.3.2.8-.4 1-1 1s-1 .2-1 1v16.5h.6v24.2c0 .6.4.8 1 .8 1 0 1.9-.2 2.9-.2.4 0 .6.4 1 .6-.2.2-.6.8-.8.8-1.9.2-3.9.6-5.8.6-.2 0-.8-.4-.8-.6-.2-.6-.4-1.4-.4-2.1-.2-7.4-.4-15-.4-22.4 0-4.9 0-9.7-.2-14.6-.4-7-1-14-1.4-20.8 0-.8.2-1.2 1-1.4 2.1-.2 4.1-.6 6.2-.8.6 0 1.4-.2 1.4.8 0 .8.2 1.9-1 2.1-1.2.2-2.5.2-3.5.2-1.4.2-1.8.7-1.6 1.3zm0-14.4h-6.4c-5.6.2-10.9.6-16.5 1-3.7.2-7.6.8-11.3.8-2.3 0-4.3.2-6.6.4-2.1 0-4.1 0-6 .2-3.7.4-7.4 1-11.1 1.6-3.3.4-6.4.8-9.7 1.2-.6 0-1.4.4-2.1.6h-2.1c-3.3.4-6.6.8-9.9 1-.4 0-.8.2-1.2.6-.4.4-.6 1-.8-.2 0-.2-.6-.4-1-.4-2.1.4-3.9 1-6 1.6-.8.2-1.4.4-2.1.6-.4-.6-.6-1.2-1-1.9 3.1-.8 6.4-1.4 9.5-2.3 1.4-.4 2.9-1 4.3-1.4 1.9-.2 3.5-.2 5.3-.4 3.1-.2 6-.4 9.1-.8 4.1-.4 8-.6 12.1-1.2 4.7-.6 9.5-1.6 14.2-2.3 2.3-.4 4.5-.8 6.8-1 1 0 2.1.4 3.1.6.2 0 .4.2.8.2 6-.4 12.1-.8 18.1-1.2 3.3-.2 6.4-.8 9.7-1.2.6 0 1 .2 1 .8-.2.6-.2 1.6-.2 3.1zm-6.6 72.8c0 .2-.4.4-.6.4-2.1.2-3.9.4-6 .4-.4 0-.8-.4-1-.8-.4-2.1-.6-3.9-.8-6-.2-2.9-.2-5.8-.2-8.6l-.6-9.9c-.2-2.1-.2-4.1-.2-6.2 0-1.4-.4-2.9-.4-4.5-.2-7.8-.4-15.6-.6-23.7 0-1.4-.2-2.9-.4-4.3-.2-1.9 0-2.1 1.9-2.1h1.2c.2 5.8.4 11.5.8 17.3.2 5.3.8 10.7 1 15.8.2 6.8 0 13.4.2 20.2 0 2.3.4 4.5.8 6.8.2 1 2.5 2.7 3.5 2.5 1.2.4 2 1.5 1.4 2.7zm-27-43.2c-.4-2.5-.4-4.9-.6-7.2-.2-3.3-.6-6.8-1-10.1 0-.6-.2-1.2-.2-1.9 0-.8.4-1 1-1.2 2.7-.2 5.6-.2 8.2-.4 1.2 0 1.6.4 1.9 1.6 0 1.2 0 2.1-1.4 2.1-1.6.2-3.3.4-4.9.6-1 0-1.6.2-1.4 1.4.6 3.9 1.4 7.8 2.1 11.5.2.8.6.8 1.2.6.2-.2.4-.2.6-.4 1.4-.8 1.9-.6 2.3 1 0 .2 0 .4.2.4.6 1.9.2 2.3-1.6 2.7-2.1.4-2.1.4-1.6 2.7.6 4.3.8 8.8 1.4 13.2.8 6 1.6 11.7 2.5 17.7.2 1.9.4 3.5.6 5.3 0 1.2.6 1.9 1.9 1.9h.4c1.9.2 2.1.4 2.3 2.3 0 .8-.2 1.2-1 1.2-1.9.2-3.7.4-5.6.4-.2 0-.8-.4-.8-.8-.6-3.7-1.2-7.4-1.9-10.9-1.2-7.2-2.3-14.2-3.5-21.4-.2-1.2-.4-2.5-.6-3.5 1-3 .1-5.9-.5-8.8zm-22 11.3c.4 3.3.8 6.8 1.2 10.1.4 3.9 1 7.8 1.6 11.7.6 3.5 1.2 6.8 1.9 10.3.2 1.2.2 2.5 0 3.7 0 .4-1 .8-1.4.8-.2 0-.8-.4-.8-.8-.2-1-.4-2.1-.6-3.1-1.2-6.2-2.5-12.3-3.5-18.3-.6-3.3-1-6.6-1.4-9.9-.6-4.3-1.4-8.8-2.3-13.2-.4-2.3-.4-4.3-.8-6.6-.4-2.7-1-5.1-1.4-7.8-.2-.8 0-1.2.8-1.4.2 0 .2 0 .4-.2 2.7-1 2.7-.8 3.9 1.6 1.4 2.9 3.1 5.6 4.3 8.6 1.2 3.3 2.1 6.8 3.3 10.3.6 1.6 1.4 2.9 2.5 4.3.2-.4.4-.8.4-1.4 0-1.2 0-2.5.2-3.7.2-1.6.4-3.3.6-4.9.2-1.4.2-2.7.4-4.1.4-2.9.8-5.8 1.2-8.6.2-1.2.2-2.5.2-3.9 0-1 .6-1.2 1.4-1.2 1.4.2 2.1.8 2.3 2.3.8 6 1.9 11.9 2.7 18.1.6 4.1.8 8.4 1.4 12.5.6 5.1 1.2 10.1 2.1 15.2.6 3.9 1.2 7.8 2.1 11.5.2.8.2 1.9-1 2.1-1.9.4-2.5.2-2.7-1-.8-3.5-1.6-6.8-2.3-10.3-.4-2.9-.8-5.6-1.2-8.4l-.6-9.3c-.4-4.9-1-9.9-1.6-15 0-.2-.2-.4-.4-.8-.2.4-.4.8-.4 1.2L235 164c0 1 0 2.3-.2 3.3 0 .4-.6.8-1 .8-.8.2-1.9.2-2.7 0-.4 0-1-.4-1.2-.6-1.4-2.7-3.1-5.6-4.5-8.4-.4-.8-.8-1.4-1.2-2.3l-1.4.2c-.1 1.6.1 3.3.3 4.9zm-16.8 1.5c0 2.3.2 4.5.2 6.8.2 5.1.4 10.5.6 15.6 0 2.7.2 5.3.2 8.2v8.4c0 .8-.4 1.2-1.2 1.2h-1.2c-1 0-1.4-.4-1.4-1.4 0-1-.2-1.9-.2-2.9h.2c-.2-5.8-.6-11.7-.8-17.5v-6.6c-.4-7-.8-14-1-21v-6.6c0-2.5.2-4.9.2-7.2 0-1 .4-1.6 1.4-1.9.8-.2 1.6-.6 2.5-.6.4 0 1 .6 1.2 1 .6 2.1 1 3.9 1.4 6 .6 2.5 1.2 5.1 1.6 7.6 1 4.7 2.1 9.7 3.1 14.4.6 2.7 1.4 5.1 2.1 7.6.4 1.4.6 2.7.8 4.1v.8c1.2 3.1 1.4 6.4 2.1 9.5.6 3.1 1.2 6.2 2.1 9.1.6 2.9.8 2.9-2.3 3.5-.2 0-.6.2-.8.2-.6.2-1 0-1.2-.8-.4-3.3-.8-6.8-1.4-10.1-.8-4.7-1.6-9.5-2.7-14.2-1-4.5-2.1-8.8-3.3-13.4-.2-.8-.2-1.4-1.2-1.4-1 .1-1 .9-1 1.6zm-20 54.1c0-.2.2-.6.4-.6 3.1-.6 6.4-1 9.5-1.6 3.5-.6 7-1.4 10.5-2.1 3.5-.6 7-1 10.5-1.6 6.6-1 13.2-1.9 19.7-2.9 3.5-.4 7.2-.8 10.7-1.2 5.8-.6 11.7-1.4 17.5-1.9 7-.6 14-1 20.8-1.4h.2c2.7-.2 2.7-.2 3.1 2.7-.8 0-1.9.2-2.7.2-4.1.2-8.4.2-12.5.2-6 .2-11.7.6-17.7 1-6.6.4-13.2 1-19.7 1.9-7 .8-14 2.1-21 3.3-4.7.8-9.5 1.9-14.2 2.7-2.9.6-5.8 1.4-8.6 2.1-2.1.4-4.3.6-6.6.8.1-.6.1-1 .1-1.6zm-26.5-12c-.4-.6-.8-1.4 0-1.9.6-.6 1.2-1.9 2.5-.4.8 1 1.9 1.9 3.3 2.1 2.1.4 3.1 0 3.7-2.1.4-2.1.8-4.1 1.2-6.2h-.4c.6-3.5-1.4-6.4-2.5-9.5-1.4-3.7-3.1-7.4-4.7-10.9-.6-1.4-1.6-2.9-2.5-4.1-1.9-2.9-3.3-6.2-4.3-9.5-1.4-4.1-.6-8 .4-11.9.8-3.3 1.9-3.7 5.6-3.9 1.2 0 2.5-.2 3.5.6.6.4.8.8.4 1.4-.6.8-1.2 1.6-2.5 1.4-3.3-.6-4.7 1-4.5 4.3.2 3.9 1.6 7.2 3.5 10.5 2.7 4.7 5.1 9.5 7.6 14.2 1 2.1 2.1 3.9 2.9 6.2.6 1.9 1 3.9 1 5.8.2 3.7 0 7.4 0 11.1 0 2.5-2.9 6-5.1 6.8-1.6.6-3.1-.4-4.5-.6-2.6-.3-3.4-1.9-4.6-3.4zm34.5 55.8c-1.9.4-3.9.8-5.8 1-.2 0-.8-.6-.8-1-.4-2.3-.8-4.7-1.2-7-.6-2.9-1-5.8-1.6-8.4 0-.2-.2-.4-.2-.6-2.5 1-4.7 1.9-7.2 2.9-.4.2-.6 1-.4 1.4.4 3.5 1 6.8 1.6 10.3.2 1.4.4 2.7.4 4.1 0 .2-.2.8-.4.8-1.6.6-3.3 1-5.1 1.6-.6-3.9-1-7.4-1.9-10.7-1.4-7-3.3-14-4.7-21 0-.4-.2-.8-.2-1.2-.2-.8 0-1.2.6-1.4 1.4-.6 2.7-1.4 4.1-2.3.4 1.4.6 2.7.8 3.9.4 1.6.8 3.3 1.4 4.7.2.6.8 1.2 1.2 1.9-.6.2-.8.4-1.2.6l.2.2c2.3.6 4.5 0 6.6-.8.6-.4 1.2-1 1.6-1.6.8-1.4 1.9-3.1 1.2-4.9-.2-.6-.2-1-.2-1.6-.6-1.9.6-3.1 1.4-4.1.4-.6 1.9-.6 2.7-.4.2 0 .6 1 .6 1.6 2.1 9.3 4.1 18.7 6 28 .2 1.2.6 2.3.8 3.5.7-.1.5.3-.3.5zm20.8-8.7c0 .6-.4 1.2-.6 1.9-1.6 2.5-3.3 4.9-6.2 6.2-3.5 1.4-7.8-.4-9.3-3.9-2.3-5.6-2.5-11.3-2.1-17.1 0-1.9.2-3.7.4-5.3.4-2.1.6-4.1 2.1-5.8.4-.6 1.2-1 1.9-1.2 3.1-.8 6-.2 8.2 2.1 1.2 1.2 2.7 2.3 3.9 3.9 1.9 2.7 2.7 5.6 2.9 8.8v2.5h.2c-.6 2.6-1 5.3-1.4 7.9zm24.9-.8c-1.2.2-2.5.6-3.5 1-1.9-2.7-3.5-5.3-5.1-7.8-1.9-2.7-3.7-5.1-5.6-7.8-.2 0-.2.2-.4.2v1.6c.4 3.3 1 6.4 1.4 9.7.2 1.9.2 3.9.2 5.8 0 .2-.2.6-.4.8-.2.2-.4.2-.8.2-3.7.8-3.7.8-4.3-2.9-.8-6-1.6-11.9-2.7-17.7-.4-3.1-1.2-6-1.9-8.8-.2-.8-.2-1.4 1-1.4 1 0 2.1-.4 3.3-.8 3.7 5.3 7.4 10.5 11.3 16V238c-.2-2.9-.4-6-.4-8.8 0-1.9-.2-3.5-.2-5.1-.2-1.2.4-1.6 1.4-1.6h.4c.8 0 1.9-.4 2.5-.2.4.2.4 1.4.6 2.3.8 5.3 1.6 10.7 2.7 15.8.6 3.3 1.2 6.6 1.9 9.9.2.7 0 1.3-1.4 1.5zm17.7.8c0 .2-.6.8-.8.8-2.5.2-4.7.4-7.2.2-.8 0-1.6-1.6-1.9-2.5-.6-4.7-1.2-9.5-1.6-14.2-.4-5.3-.8-10.7-1.2-16 0-.8.2-1.2 1.2-1 .8.2 1.6 0 2.5-.2 1.9-.2 3.7-.4 6-.6.2 1.6.4 2.9.4 4.1 0 .4-.4.8-.8 1-.4.2-1 .4-1.6.6-2.1.6-2.1.6-2.1 3.1v2.1c0 1 .4 1.2 1.2 1 .4 0 .8-.2 1.2-.2 1-.2 1.6.2 1.9 1.4.4 3.3.4 3.5-2.9 3.9-1.2.2-1.4.8-1.2 1.9.4 2.9 1 6 1.4 8.8.2.8.2 1.9.2 2.7 0 1.2.6 1.4 1.6 1.4.8 0 1.9-.2 2.7 0 1.6-.3.8.9 1 1.7zm16-1.4c-1.9.8-3.5 1.4-5.6 1.2-2.9-.2-4.3-1.2-4.9-4.1 0-.2-.2-.6-.2-.8-1-3.1-.6-3.7 2.7-4.1.6 1.4 1.4 2.7 2.1 3.9.4 1 1.2.8 2.1.4 2.3-1 3.3-3.9 2.5-6.2-1-2.7-2.5-4.9-4.9-6.8-1-.8-1.4-2.3-2.3-3.3-2.1-3.1-2.9-6.6-2.1-10.3.6-3.5 4.7-5.1 7.8-3.5 1 .4 1.9.8 2.9 1.4 1.4.6 1.9 1.9.6 3.1-.6.6-1.4 1.2-2.5 1.9-.6-1.6-1.4-1.9-2.7-1.6-1 0-1.4.6-1.4 1.4-.2 1.6 0 3.3 1.2 4.7 1.6 1.9 3.5 3.5 4.7 5.6 2.1 3.3 4.1 6.6 4.1 10.7-.2 2.9-1.4 5.2-4.1 6.4zm21.8-31.5c-1.6.2-3.3.2-4.7.4-.2 0-.6.6-.6 1 0 1.6.4 3.5.4 5.1.2 2.7.2 5.6.4 8.4.2 4.5.4 8.8.8 13.4.2 3.3.4 3.3-2.9 3.5h-.4c-3.1.4-2.7.4-2.9-2.5-.4-5.8-.8-11.5-1.2-17.3-.2-3.3-.2-6.8-.2-10.1 0-.6-.2-1-1-1-1 0-2.1 0-2.9-.2-.4 0-.8-.4-.8-.6-.2-1.4-.4-2.7-.6-4.1 0-.2.4-.8.6-.8h11.3c5.5-.3 4.5.1 4.7 4.8.2 0 0 .2 0 0zm1.7-25.1c-.2.2-1.2.2-1.6 0-1.2-.8-2.5-1.9-3.3-2.9-.6-.6-.4-1.4.4-2.1.8-.6 1.2-.2 1.6.2 1.4 1.6 3.1 1.6 3.9-.4.8-1.9 1.2-3.7 1.4-5.6.4-3.9-.4-7.6-1.4-11.3-.8-2.9-1.6-5.6-2.7-8.4 0-.2-.2-.4-.2-.4-1.9-2.7-2.5-5.8-3.5-8.8-.4-1.6-1-3.1-1.4-4.7-.2-.6-.2-1.2-.2-2.3-.6 0-.6-.4-.4-1.2.2-1.9.4-3.9.2-5.8-.2-2.5-.2-4.9.6-7.4.4-1.6 3.5-3.1 5.1-2.3.8.4 1.6.8 2.3 1.2.2.2.6.8.4 1-.2.4-.8.6-1.2.8h-.2c-2.3-.8-3.7-.4-4.1 2.5-.4 3.5-.6 7.2.8 10.7 1.9 3.9 2.7 8 3.9 12.1 1.2 3.9 2.5 7.6 3.7 11.5 1.2 3.9 2.5 8 1.9 12.3-.2 1.9-.2 3.9-1 5.6-1.5 2.2-3.4 3.9-5 5.7zm21.4 22.2c-1.4 2.9-3.1 5.6-4.3 8.6-1 2.5-1.9 4.9-1.9 7.8 0 3.9-.2 8-.2 11.9v3.9c-1.2 0-2.7.2-3.9.2-.2 0-.8-.4-.8-.8-1.2-3.3-1-6.6-1.2-10.1-.2-2.7-.2-5.3-.4-8 0-.6-.4-1.4-.8-2.1-1.4-2.5-3.1-4.9-4.3-7.6-.8-1.9-1.2-3.9-2.1-6l.2-.2c3.3-1.2 3.3-1.2 5.1 1.6 1.6 2.5 3.1 4.9 4.9 7.6.6-1.9 1-3.5 1.6-5.1.6-1.4 1.2-3.1 2.1-4.5.2-.2.6-.6 1-.6 1.4.2 2.9.6 4.3 1 1.1.8 1.3 1.6.7 2.4z"/><path d="M218.8 97.7c-.2 1.4-.2 2.9-.4 4.3-.4 2.7-1.2 4.9-3.9 6-3.1 1.2-4.7 1.2-5.3-2.3-.8-3.9.2-7.4 2.7-10.5.2-.2.4-.4.6-.8.6-1.2 1.6-1.6 2.9-1.6h1.4c1.9 0 1.9 0 2.1 1.9 0 .6.2 1.2.2 1.9-.5.3-.5.7-.3 1.1zM175.2 109.3c-.2 2.3-.2 4.5-1.4 6.6-.6.8-1.2 1.4-1.9 2.1-1.6 1-4.9-.4-5.1-2.5-.2-2.9-.8-5.8.4-8.6.4-.8.4-1.9 1.6-2.1.2 0 .4-.4.4-.6 0-.8 0-1.6.8-1.6 1 0 2.1 0 3.1.4 1.4.6 1.6 2.3 1.9 3.9.2.5.2 1.5.2 2.4zM303.3 81.7c1.2 2.3-3.1 9.1-6.2 9.5.3-2.5 4.2-8.5 6.2-9.5zM205.8 151.6c.4 1.9.8 3.7 1 5.6 0 .2-.4.6-.8 1-.2-.2-.6-.4-.6-.8-.2-1.9-.2-3.7-.4-5.6.4-.2.6-.2.8-.2zM212 245c0 3.1-.2 5.6-1.6 7.6-.8 1.2-3.5 2.3-4.3 1.4-1.2-.8-2.5-1.9-3.1-3.1-.8-1.4-1.4-3.3-1.6-4.9-.2-1.9.4-3.7.6-5.6.2-1 0-2.3.2-3.3.2-1.2.8-1.6 1.9-1.9 2.3-.4 4.7.6 6 2.7.9 2.4 2.1 4.9 1.9 7.1z"/></svg>