<?xml version="1.0" encoding="utf-8"?>
<!-- Generator: Adobe Illustrator 25.2.1, SVG Export Plug-In . SVG Version: 6.00 Build 0)  -->
<svg version="1.1" id="Layer_1" xmlns="http://www.w3.org/2000/svg" xmlns:xlink="http://www.w3.org/1999/xlink" x="0px" y="0px"
	 viewBox="0 0 500 500" style="enable-background:new 0 0 500 500;" xml:space="preserve">
<g>
	<path d="M153.8,194.5c0.8-0.8,1.5-1.6,2.2-2.3c0.9-1,2-1.6,3.5-1.6c5.1,0.1,10.3-0.1,15.4,0.4c3.4,0.3,6.7,0.6,10.1,0.4
		c2.3-0.1,4.6-0.4,6.8-0.3c2.1,0,4.2,0.3,6.4,0.5c1.1,0.1,1.9,0.6,2.7,1.4c0.5,0.6,1.2,1.1,1.7,1.8c0.7,0.8,1.4,1.7,1.5,2.9
		c0.1,0.6,0.3,1.1,0.6,1.6c0.7,1.4,1.2,2.8,1.5,4.4c0,0.2,0,0.4,0.1,0.7c1,2.6,0.8,5.4,0.8,8.1c-0.1,4.7-0.3,9.4-0.4,14.1
		c-0.1,4-0.2,7.9-0.1,11.9c0,1.9-0.6,3.4-1.9,4.8l-2.5,2.5c-0.5,0.6-1.2,0.8-2,0.8c-1.8-0.1-3.5,0-5.3-0.1
		c-4.9-0.2-9.9,0.1-14.8,0.2c-5.3,0.1-10.6,0-15.9,0h-3.3c-1.1,0-2-0.3-2.9-0.9c-1.6-1.1-1.6-1-2.4-2.5c0.9,0.2,1.7,0.5,2.5,0.6
		c0.9,0.1,1.8,0,2.6,0c0.9,0,1.8,0.1,2.6,0.1c5.7,0,11.5,0,17.2-0.1c1.9,0,3.8-0.2,5.7-0.2c3.2,0,6.5,0.1,9.7,0.2
		c0.7,0,1.4,0.3,2.2,0.5c1.9-1,3.2-2.8,4.7-4.4c1.1-1.1,1.4-2.5,1.4-4c0-4,0-7.9,0.1-11.9c0.1-4.8,0.3-9.6,0.4-14.3
		c0-1.5,0-3.1-0.1-4.6c0-0.9-0.1-1.7-0.9-2.7c-0.1,2.9-0.3,5.5-0.3,8.2c0.1,6.6-0.3,13.1-0.8,19.6c-0.1,1.2-0.3,2.5-0.5,3.7
		c-0.2,0.8-0.6,1.6-0.9,2.4c-0.1,0.3-0.4,0.6-0.5,0.9c-0.2,0.8-0.8,1.4-1.5,1.8c-1.1,0.7-2.2,1.5-3.4,2.1c-0.8,0.4-1.7,0.6-2.5,0.6
		c-2.3,0.2-4.6,0.2-6.8,0.3c-0.5,0-1,0-1.5-0.1c-3.9-0.5-7.8-0.4-11.7-0.6c-3.3-0.1-6.6-0.1-9.9-0.2c-1,0-1.9-0.1-2.9,0
		c-1.5,0.1-2.9-0.3-4.3-0.7c-1.5-0.4-2.8-2-3-3.4c0-0.2-0.1-0.4-0.1-0.7c-0.4-4.5-0.8-8.9-0.7-13.4c0.1-4.1,0-8.2-0.1-12.3
		c-0.1-3.9,0.3-10.6,0.9-14.3C153.6,195.5,153.7,194.9,153.8,194.5 M170.3,231.7c0.9-1.2,0.9-2.5,0.9-3.7c0-2.5,0.2-5,1.2-7.5
		c0.6-0.1,1.2-0.2,1.9-0.2c3.3-0.2,6.4-0.9,9.4-2.2c2.8-1.2,2.7-1.3,4-4.1c1.6-3.6,0.9-7-1-10.3c-0.3-0.4-0.6-0.9-1-1.1
		c-1-0.5-2-0.9-3-1.2c-1.5-0.4-3-0.7-4.5-0.9c-1.2-0.2-2.3-0.3-3.5-0.3c-1.8,0-3.7,0-5.5,0.1c-0.6,0-1.3-0.2-2,0.5
		c0,0.7,0,1.6-0.1,2.5c-0.1,2.9-0.3,5.9-0.4,8.8c-0.1,1.3-0.2,2.6-0.2,4c0.2,4.8,0.5,9.7,0.8,14.5c0,0.4,0.2,0.8,0.3,1.2
		C168.4,232.2,169.3,231.9,170.3,231.7 M106.8,240.5H91.4c-1.9,0-3.8-0.2-5.7-0.4c-1.1-0.1-1.9-1.1-2.5-1.9
		c-0.5-0.7-0.6-1.6-0.8-2.5c-0.1-0.3-0.2-0.8,0-1.1c0.5-0.9,0.3-1.9,0.2-2.8c-0.2-4.3-0.4-8.7-0.5-13c-0.1-2.6,0-5.3,0.1-7.9
		c0-2.7,0.1-5.4,0.2-8.1c0.1-1.9,0.2-3.8,0.2-5.7c0-1.5,0.6-2.7,1.9-3.6c0.3-0.2,0.5-0.5,0.8-0.7c1.3-1,2.6-1.7,4.4-1.8
		c2.9-0.1,5.7-0.3,8.6-0.3c3.5,0.1,7.1,0.1,10.6-0.4c0.8-0.1,1.6,0,2.4,0c2.8,0,5.6-0.1,8.4,0c1.9,0,3.8,0.2,5.7,0.3
		c0.5,0,1,0.3,1.4,0.7c1.7,1.6,3.5,3.1,4.7,5.2c0.8,1.4,1.4,2.8,1.5,4.3c0.4,3.8,0.7,7.6,0.7,11.4v17.6c0.2,2.9-1,5.5-2.4,7.9
		c-0.8,1.3-2,2.1-3.6,2.7c-2,0.7-4,0.9-6.1,0.7c-1.6-0.1-3.2-0.1-4.9-0.1c-3.2-0.1-6.5-0.2-9.7-0.3L106.8,240.5 M97,228
		c1.6,1.6,3.2,2.9,5,3.9c1,0.5,2.2,1,3.4,0.8c1-0.2,1.9,0,2.8,0.1c1.2,0.1,2.3,0.2,3.5,0.3c2.1,0.1,3.8-0.8,5.2-2.1
		c2.7-2.4,3.6-5.5,2.8-9c-0.2-1.1-0.6-2.1-1-3.1c-1-2.9-2.9-4.9-6-5.7c-0.7-0.2-1.4-0.4-2.1-0.5c-1.5-0.3-3-0.5-4.5-1
		c-1-0.3-2.1-0.8-3-1.4s-1.5-1.4-1.5-2.6c0-0.8,0-1.6,0.1-2.4c0.1-1.1,0.8-1.7,1.9-1.8c2.5-0.2,5-0.3,7.4,0.6c1.1,0.4,2.1,1,2.8,2.1
		c0.3,0.5,0.8,0.8,1.2,1.2c1.2-1.5,2.6-4,2.9-5.3c-0.8-0.9-1.8-1.3-2.9-1.7c-3.9-1.4-7.9-1.6-12-1.4c-1.4,0.1-2.5,0.6-3.3,1.9
		c-0.4,0.7-1,1.3-1.6,1.8c-0.6,0.6-1,1.3-1.1,2.1c0,1-0.2,2.1,0,3.1c0.4,2.1,1.2,4.1,2.4,5.9c0.4,0.5,0.9,1,1.5,1.3
		c1.5,0.9,3.2,1.5,4.9,1.8c2,0.4,4,0.9,6,1.5c1.8,0.5,2.7,1.9,2.8,3.8c0,1.2-0.2,2.3-0.6,3.5c-0.4,1.3-1.3,2.1-2.6,2.4
		c-2.3,0.5-4.7,0.5-7-0.1c-0.5-0.1-0.9-0.4-1.2-0.8c-1.1-1.3-2.4-2-4-2.3C97.9,225.7,97.8,227,97,228 M239.6,254.6
		c0.3,0.7,0.4,1.1,0.6,1.5c1.5,2.6,1.7,5.4,1.8,8.3c0.2,3.7,0.3,7.5,0.4,11.2v13.2c0,3.1,0.2,6.2,0.3,9.2c0,0.4,0.1,0.9,0.1,1.3
		c0,0.8-0.2,1.6-0.9,2.1c-0.4,0.3-0.7,0.6-1,0.9c-1.6,1.7-3.6,2.5-6,2.1c-4,0.4-8.1,0.2-12.1,0.8c-2.2,0.3-4.4,0.2-6.6,0.2h-11.7
		c-2.2,0-4.2-0.5-6.3-1.1c-1.6-0.4-2.9-1.5-4.1-2.9c0-2.1-0.1-4.4,0-6.7l0.6-13.2c0.1-3.2,0-6.5,0-9.7c0-2.1,0-4.3-0.1-6.4
		c0-1.3-0.2-2.6-0.6-3.9c-0.4-1-0.2-1.9,0.4-2.7c0.4-0.5,0.8-1.1,1.1-1.6c1.2-2.2,3.2-3.2,5.5-3.7c1.2-0.3,2.5-0.3,3.7-0.2
		c4,0.3,8.1,0.3,12.1,0.2l14.8-0.3c1.7,0,3.3,0,5,0.8C237.6,254.5,238.7,254.4,239.6,254.6 M229.1,268.2c-0.2-0.4-0.2-0.7-0.4-1
		c-1.1-2-2.8-3.4-4.5-4.8c-0.4-0.3-0.9-0.5-1.4-0.6c-2.3-0.4-4.7-0.6-7-0.2c-0.7,0.1-1.4,0.4-2,0.9c-2.2,2-3.9,4.4-5.4,6.9
		c-0.4,0.7-0.6,1.5-0.8,2.3c-0.8,3.2-1,6.5-0.9,9.9c0.1,2.2,0.5,4.4,1.2,6.5c0.3,0.7,0.7,1.5,1.1,2.1c0.4,0.6,1,1.1,1.5,1.6
		c1.3,1.4,2.8,2.3,4.7,2.5c1.5,0.2,3.1,0.3,4.6,0.4c3.7,0.2,3.9,0.2,6.5-2.3c1-1,1.9-2,2.8-3.1c0.5-0.6,0.4-1.1-0.2-1.5
		c-0.7-0.5-1.5-0.9-2.3-1.4l-1.1,1.1c-0.8,0.8-1.6,1.5-2.4,2.2c-1,0.7-2.2,1.2-3.3,0.8c-1.6-0.6-3-1.4-4.5-2.2
		c-0.2-0.1-0.3-0.3-0.5-0.5c-1-1.4-1.9-2.8-2.3-4.5c-0.5-2.3-0.6-4.5-0.4-6.8c0.3-3.2,1.4-6.1,3.4-8.7c0.7-0.9,1.5-1.4,2.6-1.5
		c2.2-0.2,4.2,0.2,6,1.7c0.7,0.6,1.5,1.2,2.2,1.8C227.2,269.4,228.1,268.9,229.1,268.2 M296.4,191.6c4.2-0.5,8.2-1,12.2-1.3
		c4.2-0.4,8.5-0.6,12.8-0.9c2.6-0.2,5.3-0.1,7.9-0.2c2.7-0.1,5.3,0.4,7.8,1c2,0.5,3.7,1.7,5.5,2.8c0.6,0.4,1,1,1.2,1.8
		c0.1,0.7,0.5,1.4,0.9,2c0.7,1,0.8,2.2,0.8,3.4v13.5c0,5.6-0.1,11.2-0.1,16.8c0,1,0,1.9,0.1,2.9c0.1,1.2-0.4,2.3-1.1,3.2
		c-1,1.2-2.2,2.2-3.6,2.9c-0.6,0.3-1.3,0.4-1.9,0.4c-6.9,0-13.8,0-20.7-0.1c-3.3,0-6.6-0.2-9.9-0.2c-2.7,0-5.4,0.1-8.1,0.2
		c-0.9,0-1.6-0.1-2.2-0.8c-1-1.1-2-2.2-3-3.2c-0.9-1-1.2-2.1-1.2-3.4V224c-0.1-4.7-0.3-9.4-0.4-14.1c-0.1-2.6,0-5.1,0-7.7
		c0-0.4,0-0.9,0.1-1.3c0.4-1.9,0.9-3.7,1.3-5.6C294.8,193.8,295.5,192.7,296.4,191.6 M329.7,235.1c1.5,0.2,3.1,0.2,4.7-0.2
		c0-2.2-0.4-4.3-1.4-6.2c-0.4-0.7-0.7-1.5-1.1-2.2c-0.9-1.7-1.8-3.3-2.2-5.2c0-0.1-0.1-0.3-0.2-0.4c-0.6-0.5-0.7-1.3-1-2
		c-1.3-3.4-2.5-6.9-3.8-10.3c-0.9-2.3-1.8-4.7-2.4-7.1c-0.2-0.7-0.2-1.5-1-2.1c-0.8,0.1-1.7-0.3-2.8,0.2c-1,2.4-2.1,4.8-3.2,7.3
		c-0.6,1.3-1.1,2.7-1.7,4.1c-0.6,1.6-1.1,3.2-1.4,4.8c-0.8,3.6-1.8,7.1-3.8,10.3c-0.9,1.5-1.5,3-2,4.6c-0.3,1.2-0.7,2.4-0.4,3.7
		c1.3,0.3,2.4,0.2,3.6,0.1c1.1-0.1,1.8-0.6,2.1-1.6c0.2-0.6,0.4-1.2,0.7-1.9c0.6-1.7,1.2-3.4,1.8-5.2c0.4-0.1,0.7-0.1,1-0.1h8.6
		c0.4,0,0.8-0.1,1.1,0.1c0.3,0.1,0.7,0.3,0.9,0.6c0.6,1.3,1.3,2.6,1.7,4C328,232.2,328.5,233.7,329.7,235.1 M269.9,240.1
		c-0.6,0-1.3,0.1-1.9,0.2c-6.7,0.4-13.5,0.8-20.2,1.1c-3.6,0.1-7.2-0.1-10.8-0.3c-1.1,0-2.2-0.3-3.3-0.5c-1.7-0.2-3.4-0.4-5-0.6
		c-2.6-0.3-4-1.5-4.3-4.1c-0.2-1.3-0.3-2.6-0.2-4c0.2-4.9-0.1-9.7-0.1-14.6c0-5.1-0.1-10.3-0.1-15.4c0-1.2,0-2.4-0.1-3.5
		c-0.1-1.6,0.3-3.2,0.7-4.8c0.3-1,0.9-1.7,2-1.9s2.3-0.4,3.5-0.6c0.6-0.1,1.2-0.1,1.8,0c5.9,0.5,11.7-0.4,17.6-0.6
		c1.5,0,3.1-0.2,4.6-0.3c1.6-0.1,3.2-0.2,4.8-0.1c2.5,0,5,0.2,7.5,0.3c2.4,0.1,4.4,1.2,6.1,2.7c1.6,1.5,2.3,3.6,2.3,5.8
		c-0.1,3.3-0.1,6.6-0.6,9.9c-0.5,3.7-0.5,7.5-0.5,11.2v13.7c0,1.3-0.4,2.4-1.3,3.4C271.5,238.1,270.8,239,269.9,240.1 M259.7,200.2
		c-0.8-0.1-1.4-0.2-2-0.2c-6.1-0.1-12.2-0.1-18.2-0.2c-0.5,1.1-0.5,1.1-0.5,1.9c0.1,4,0.1,8.1-0.2,12.1c-0.1,1.7-0.2,3.4-0.2,5.1
		c0,1.9-0.1,3.8,0,5.7c0.2,2-1,3.9-0.3,5.8c0.1,0.2-0.1,0.4-0.2,0.6v1.3c1.6,0.5,3.2,0.6,4.8,0.7c1.9,0,3.8,0.1,5.7,0.2
		c2.3,0.1,4.7,0.2,7,0.2c1.2,0,2.3-0.3,3.2-1c0.4-2.2,0.3-2.9-0.3-4.5c-0.6,0-1.2,0-1.9-0.1l-10.6-0.3c-0.4,0-0.8-0.2-1.4-0.3
		c0.9-1-0.2-1.8,0-2.8c0.2-0.8,0.1-1.8,0.1-2.6c0.1-0.9-0.1-1.9,0.2-2.9c2.1-0.6,4.1-1.2,6.2-1.8c0.3-0.9,0.5-1.8,0-2.8
		c-0.8-0.1-1.5-0.2-2.2-0.3c-0.6-0.1-1.2-0.2-1.6-0.6c-0.8-0.6-1.6-1-2.5-1.1c-0.8-3.3-0.9-5.1-0.4-6.9h2.6c2.9,0,5.9,0,8.8-0.1
		c1.1,0,2.2-0.1,3.3-0.6C259.5,203.2,259.6,201.8,259.7,200.2 M296.7,256.1c0.3,0.9,0.7,1.7,0.9,2.6c0.1,0.5,0.3,1.1,0.2,1.5
		c-0.5,1.4,0.2,2.6,0.7,3.8c0.4,0.9,0.6,1.8,0.6,2.7c-0.3,3.7-0.1,7.5,0.1,11.2c0.2,3,0.2,6,0.3,9c0.1,2.8,0.1,5.6,0.1,8.4
		c0,1.1-0.2,2.2-0.3,3.3c0,0.4-0.1,0.7-0.1,1.1c0.1,1.6-0.6,2.7-1.8,3.7c-1.3,1.1-2.6,1.5-4.2,1.5c-4.3,0-8.5,0-12.8,0.1
		c-2.1,0-4.1,0.1-6.2,0.4c-2.3,0.3-4.5,0.1-6.8,0l-9-0.3c-0.8,0-1.6-0.2-2.4-0.4l-2.1-0.6c-1.9-0.5-2.9-1.8-2.9-3.8
		c0-1,0-1.9,0.1-2.9c0.6-9.5,0.5-19,0-28.4c-0.2-3.1-0.6-6.1-0.8-9.2c-0.1-1.1,0-2.2-0.1-3.3c0-0.9,0.4-1.3,1.2-1.6
		c1.1-0.4,2.3-0.5,3.5-0.6c1.6-0.1,3.2-0.1,4.8-0.2c4.8-0.3,9.7-0.6,14.5-0.8c5.2-0.2,10.4-0.2,15.7-0.3c0.7,0,1.5,0,2.2,0.1
		c0.3,0,0.7,0.1,0.8,0.3c0.8,1.4,2.3,1.7,3.5,2.5C296.4,255.9,296.6,256,296.7,256.1 M286.8,262.6c-2-0.1-3.6-0.2-5.2-0.2
		c-0.8,0-1.5,0.2-2,0.8c-0.6,0.7-1.3,1.4-1.8,2.2c-1.1,1.5-2,3.2-3.4,4.6c-0.3,0.3-0.5,0.7-0.7,1.1c-0.3,0.9-0.9,1.5-1.6,2.1
		c-0.5,0.4-0.9,0.9-1.5,1.2c-0.6,0.3-1,1-1.7,1.9c-0.1-2.6-0.4-4.8-0.5-7.1c0-2.3,0.1-4.5-0.4-6.8c-1.6-0.2-3.1-0.4-4.7,0
		c-0.3,2.3-0.4,4.4,0,6.6c0.5,2.5,0.6,5.1,0.6,7.7c0,6,0.1,11.9-0.4,17.9c0,0.6-0.2,1.2,0.3,1.7c1.3,0,2.7,0.5,4.2,0
		c0.1-0.9,0.2-1.7,0.2-2.6c0.1-1.5,0.2-3.1,0.1-4.6c-0.1-2.5,0.4-4.6,2.4-6.3c0.4-0.3,0.7-0.8,1-1.2c0.3-0.3,0.5-0.7,1.3-0.5
		c1.7,2.4,3.7,4.7,4.6,7.7c0.2,0.6,0.4,1.1,0.6,1.6c0.7,1.5,1.3,2.9,2,4.4c0.2,0.5,0.6,0.9,1.2,0.9c1.5,0.1,3,0.2,4.7-0.2
		c-0.2-0.5-0.3-0.9-0.5-1.3c-1.4-2.8-2.7-5.6-4.3-8.4c-1-1.7-2-3.4-2.7-5.3c-0.4-1-0.9-1.8-1.4-2.7c-0.2-0.4-0.5-0.9-0.8-1.3
		c0.7-1.1,1.3-2.2,2.1-3.2c1.8-2.5,3.6-5,5.8-7.2c0.7-0.7,1.3-1.4,1.9-2.2C286.5,263.6,286.6,263.2,286.8,262.6 M310.7,253.7
		c1.2,0,2.3-0.1,3.4,0c4.9,0.4,9.8,0.5,14.8,0.3c5.1-0.2,10.3-0.1,15.4-0.2c1.5,0,2.9-0.1,4.4-0.2c0.8,0,1.6-0.1,2.4,0
		c1.4,0.1,2.4,0.6,3,2.1c1.1,2.9,1.8,5.7,1.7,8.8l-0.3,18.5v5.9c-0.1,2.1-0.2,4.3-0.3,6.4c0,0.9-0.1,1.8,0,2.6
		c0.1,1.3-0.5,2.2-1.3,3.1c-1.8,1.8-1.8,1.8-4.3,2.2s-5,0.4-7.5,0.4c-4.1,0-8.2,0-12.3,0.4c-2.5,0.3-5,0.1-7.5-0.2
		c-2.5-0.4-5-0.5-7.5,0.1c-1.9,0.4-3.5,0.1-4.7-1.5c-0.4-0.6-0.9-1.2-1.4-1.7c-0.5-0.6-0.7-1.3-0.7-2c-0.4-7.2-0.5-14.4-0.4-21.6
		c0-3.7,0.1-7.4,0.2-11C307.8,261.8,308.8,257.8,310.7,253.7 M340.2,264c-0.4-0.1-0.6-0.2-0.8-0.2c-4.6-0.3-9.2-0.7-13.9-1h-2
		c-0.6,0-0.9,0.4-0.9,1c0,1,0.1,1.9,0.1,2.9c0.1,5,0.1,10,0.2,15l0.3,11.2c0,0.5,0.2,1,0.2,1.5c0.6,0.1,1.1,0.1,1.6,0.1
		c3.3,0.1,6.6,0.1,9.9,0.6c1.9,0.3,3.8-0.2,5.9-0.7c-0.3-1.5,0-2.9-0.5-4.3c-2.3-0.1-4.4-0.1-6.5-0.1c-0.6,0-1.2,0-1.8,0.1
		c-1.3,0.1-2.4-0.2-3.6-0.8c-0.2-1.4,0-2.9,0-4.4c0-1.4-0.3-2.9,0.2-4.3c1.9-0.2,3.7,0.3,5.6-0.4c-0.2-1.5,0.4-3-0.1-4.5
		c-1-0.1-2-0.1-2.9-0.2c-1-0.1-2,0.2-2.9-0.2c-0.6-3-0.7-5.5-0.3-7.1c4-0.7,8-0.1,12-0.7C340.6,266.2,340.5,265.2,340.2,264
		 M129.3,256.4c0.5,1.3,0.7,2.7,0.6,4.1c-0.3,4.3-0.2,8.5,0.1,12.8c0.2,2.9,0.3,5.9,0.4,8.8c0,2,0,4-0.1,5.9
		c-0.2,3.4-0.6,6.9-0.7,10.3c-0.1,1.8-0.9,3-2.6,3.7c-2.3,0.9-4.5,1.7-7,1.8c-3.7,0.1-7.3,0.5-11,0.6c-3.5,0-7.1-0.3-10.6-0.4
		c-3.3-0.1-6.6-0.3-9.9-0.3c-1.4,0-2.8-0.3-4-1c-1.2-0.6-2.3-1.3-3.5-1.9c-0.2-2.5-0.3-4.9-0.3-7.3c0-3.7,0.1-7.4,0.1-11
		c0.1-2.8,0.1-5.6,0.3-8.4c0.3-3.3,0-6.6-0.8-9.8c-0.6-2.5-0.3-4.8,0.7-7.1c0.2-0.4,0.4-0.8,0.8-1c1.9-1.2,3.8-2.1,6.2-2
		c3.3,0.2,6.6,0.1,9.9,0.2H99c4.7,0.6,9.4,0.1,14.1,0.2c3.4,0.1,6.8,0.1,10.2,0.2C125.3,254.9,127.4,255.1,129.3,256.4 M93.4,295.2
		c1.6,0.1,3.1,0.6,4.7-0.1v-1.6c-0.1-2.4-0.2-4.8-0.3-7.3c0-1.8,0.1-3.5,0.6-5.2c3.2-0.5,6.3-0.6,9.4-0.3c1,0.1,2,0.2,3.1,0.4
		c0.6,0.1,0.9,0.7,0.9,1.3c-0.1,1.2-0.3,2.5-0.3,3.7c0,2.4,0.2,4.7,0.3,7.1c0,0.3,0.2,0.5,0.3,0.9c1.4,0.1,2.8,0.5,4.2-0.1
		c0.1-0.6,0.2-1.1,0.3-1.7c0.2-2.3,0.3-4.5,0.5-6.8c0.1-1.5,0.4-2.9,0.5-4.4c0.3-3.7,0.5-7.5,0.7-11.2c0.1-1.7,0-3.4,0-5.1
		c0-0.8-0.1-1.6-0.5-2.5c-1.6,0.3-3.3-0.4-5,0.4c-0.3,2.1-0.6,4.2-0.8,6.4c-0.2,2.2-0.3,4.4-0.4,6.5c-3.6,0.8-9.1,0.6-12.6-0.3
		c0-0.4-0.1-0.8-0.1-1.2v-8.6c0-1.1-0.2-2.2-0.4-3.3c-1.6-0.2-3.1-0.4-4.6,0c-0.5,1.7-0.3,3.4-0.4,5.1
		C93.1,271.4,93.2,293.4,93.4,295.2 M161.3,303.5l-13.5,0.3c-2.4,0-4.9,0.1-7.3-0.5c-0.4-0.1-0.7-0.1-1.1-0.2
		c-1.3-0.4-1.5-0.7-1.6-2c-0.1-3.5-0.1-6.9-0.2-10.4v-1.3c-0.6-4.5-0.4-9-0.4-13.4c0-4.2,0-8.4,0.1-12.6c0-1.2,0.2-2.5,0.3-3.7
		c0.3-2.3,1.6-4.1,3.2-5.6c0.7-0.6,1.5-1,2.4-1c1.1,0,2.2,0,3.3,0.1c4.9,0.4,9.7,0.1,14.6,0.2c0.6,0,1.2-0.1,1.8,0
		c0.5,0.1,1.1,0.2,1.4,0.6c0.5,0.9,1.3,0.9,2.1,0.9c3.1-0.1,6.2-0.2,9.3-0.4c1.7-0.1,3.4-0.1,5.1-0.1c1.5,0,2.7,0.7,3.4,2
		c0.6,1.1,1.1,2.2,1.4,3.5c0.8,3.3,0.9,6.5,0.9,9.8c0,5.4-0.3,10.7-0.7,16.1c-0.3,3.9-0.5,7.8-0.4,11.7c0,1.4-0.3,2.6-1.5,3.5
		c-0.6,0.4-1.1,1-1.6,1.6c-0.7,0.9-1.6,1.2-2.7,1.2H175c-3.5-0.2-7.1-0.2-10.6,0C163.2,303.5,162.3,303.4,161.3,303.5
		C161.3,303.4,161.3,303.4,161.3,303.5 M175.6,294.7c-0.5-2.2-1-4.2-1.5-6.1c-0.3-1.1-0.6-2.1-1-3.2c-0.7-1.9-1.5-3.7-2.2-5.5
		c-1.3-3.6-2.6-7.2-4.3-10.6c-0.1-0.3-0.2-0.5-0.3-0.8c-0.5-1.5-1.1-3-1.6-4.6c-0.3-0.9-1-1.5-2-1.4c-0.7,0-1.3,0.1-2,0.1
		c-1.1,0-1.8,0.5-2.1,1.6c-0.5,1.8-1,3.7-1.6,5.5c-1.2,3.8-2.7,7.5-3.9,11.3c-1.3,4-2.2,8.1-3.4,12.1c-0.2,0.6-0.4,1.3,0.2,1.9
		c1.5,0,3,0.1,4.4-0.3c1.3-1.7,1.5-3.8,2.3-5.5c4.2-1.4,8.6-1.5,11.4-0.2c0.5,1.8,1,3.5,1.6,5.4C171.6,294.3,173.4,295,175.6,294.7
		 M367.1,239.6c-0.2-0.3-0.3-0.4-0.3-0.4c-1.1-2.1-1.3-4.3-1.2-6.6c0.1-5.4,0-10.7,0-16.1c0-1.5,0.1-3.1,0.2-4.6
		c0.3-4.8,0.9-9.5,0.2-14.3c-0.3-2,0.5-3.6,1.6-5.1c0.2-0.3,0.7-0.6,1.1-0.6c4.4-0.3,8.7-1.1,13.2-1c4.9,0.1,9.8-0.2,14.8-0.3
		c1.5,0,2.9-0.1,4.3,0.4c0.7,0.3,1.4,0.2,2.2,0.2c1.8,0.1,3.5,0.2,5.3,0.2c1.1,0,2,0.4,2.7,1.2c0,0.1,0.1,0.1,0.2,0.2
		c1,1.1,2,2.1,2.9,3.3c0.9,1.3,0.4,2.9,0.5,4.3c0.1,1.9,0.1,3.8,0.2,5.7c0.2,4.5,0.5,9.1,0.7,13.6c0.1,2.1,0.2,4.1,0.3,6.2
		c0.1,1.2,0,2.5,0.3,3.7c0.2,0.9-0.1,1.9-0.2,2.8c-0.1,0.6-0.4,1.3-0.6,1.9c-0.6,1.9-2.1,3.1-3.4,4.5c-0.2,0.2-0.5,0.3-0.8,0.3
		c-1.2,0.1-2.5,0.3-3.7,0.4c-4.3,0.1-8.5,0-12.8,0.1c-3.2,0-6.3,0.2-9.5,0.3c-4.3,0.1-8.7,0.3-13,0.5
		C370.5,240.5,368.8,240,367.1,239.6 M382.8,233.3c0.5-0.6,1.2-1,1.5-1.7c0.4-0.9,0.6-1.9,0.7-2.9c0.1-1.3,0.1-2.6,0.2-4
		c0-0.8,0.2-1.4,0.7-2c0.4-0.5,0.7-1.1,1.2-1.6c0.2-0.3,0.5-0.5,0.9-0.8c0.3,0.4,0.4,0.6,0.6,0.8c1,2,2,3.9,3,5.9
		c1.2,2.4,2.2,5,3.8,7.2c0.4,0.5,0.8,0.8,1.4,0.8c1.5,0,2.9-0.3,4.3-1c-0.8-2.4-2.4-4.2-3.5-6.4c-1.1-2.3-1.8-4.7-3-6.9
		c-1.1-2.1-1.4-4.6-2.6-6.7c0.3-0.5,0.6-1,0.9-1.4l5.7-7.8c1.1-1.6,2.1-3.2,3.2-4.8c0.5-0.8,1.1-1.6,0.9-2.8c-0.6,0-1.3,0-1.9-0.1
		c-1-0.1-1.7,0.2-2.3,0.9c-1,1.1-2,2.2-3.1,3.1c-1.8,1.5-3.1,3.3-4.2,5.3c-0.8,1.5-1.8,3-2.7,4.5c-0.6,1-1.4,1.7-2.5,2.1
		c-0.4,0.1-0.8,0-1.3,0c0.1-1.2,0.2-2.3,0.2-3.4c0-0.8,0.1-1.6-0.1-2.4c-0.3-1.4-0.3-2.8-0.4-4.2c0-1.2-0.1-2.5-0.1-3.7
		c0-0.4-0.2-0.8-0.3-1.3c-1.7-0.1-3.3-0.3-4.9,0.1c-0.1,0.3-0.1,0.6-0.2,0.9c-0.1,2.1-0.1,4.3-0.1,6.4c0,6-0.1,11.9-0.4,17.9
		c-0.1,2.6,0,5.3,0,7.9c0,0.5,0.2,1,0.3,1.5C379.9,233,381.2,233.1,382.8,233.3 M414,276.9l0.3,15.2c0,1,0.2,2,0.2,3.1
		c0.1,1.3-0.2,2.5-1.2,3.4c-0.9,0.9-1.8,1.9-2.7,2.9c-0.5,0.6-1.2,0.8-2,0.8c-3.2-0.1-6.4,0.3-9.6,0.9c-3.4,0.6-6.9,0.5-10.3,0.3
		c-5.1-0.3-10.1-0.3-15.2-0.1c-2.3,0.1-4.7,0.2-7,0.3c-1.6,0-2.2-0.5-2.5-2.1c-0.8-3.8-0.9-7.7-0.7-11.6c0.2-4.8,0.5-9.7,0.7-14.5
		l0.3-9.9c0-1.2-0.1-2.5-0.3-3.7c-0.2-1.2,0-2.3,0.5-3.4c0.3-0.7,0.7-1.3,1.1-1.9c0.9-1.5,2.1-2,3.9-1.8c3.2,0.4,6.5,0,9.7-0.1
		c2.9-0.1,5.7-0.3,8.6-0.4c2.9-0.1,5.7-0.2,8.6-0.3c0.7,0,1.4-0.1,2,0.2c1.3,0.6,2.6,0.6,3.9,0.6c2.6,0,5.1,0.4,7.5,1.4
		c0.5,0.2,1,0.4,1.4,0.6c1.7,0.8,2.6,2,2.6,4c0.1,4.9,0.2,9.8,0.4,14.8C414,275.8,414,276.4,414,276.9 M376.4,263.7
		c0,0.5-0.1,1-0.1,1.5c0.1,3.1,0.2,6.2,0.2,9.3l0.3,17.9c0,0.6,0.1,1.2,0.1,1.8c0.1,0.5,0.4,0.8,0.9,0.8c1.8,0.1,3.2-0.5,3.3-2.6
		c0.1-2.3,0.3-4.5,0.5-6.8c0.1-0.9,0.2-1.9,0.3-3c1.9-0.1,3.8-0.2,5.6-0.1c1,0.1,1.6,0.7,2,1.5c1.1,2.3,2.2,4.6,3.3,7
		c0.5,1.1,0.9,2.3,1.3,3.5h2.1c0.6,0,1.3,0.2,1.9-0.3c-1.3-4.2-2.9-8.3-5.1-12c0.2-0.2,0.3-0.4,0.4-0.4c2.6-1.5,4.5-3.5,4.9-6.6
		c0.1-0.6,0.3-1.1,0.4-1.7c0.1-1.2,0.2-2.5,0.3-3.7c0-1-0.3-1.9-1-2.6c-0.9-0.9-1.8-1.7-2.8-2.5c-0.5-0.4-1.1-0.7-1.8-0.8
		c-1.7-0.3-3.5-0.6-5.2-0.7c-3.8-0.2-7.6,0.1-11.4,0.5C376.8,263.5,376.8,263.6,376.4,263.7 M383.2,295.4v0.1h0.2v-0.3
		C383.3,295.4,383.2,295.4,383.2,295.4"/>
	<path d="M245.8,259.7c0.8-0.2,1.2,0.3,1.3,0.9c0.1,0.9,0.2,1.8,0.1,2.6c-1.2,11.2-1.3,22.5-1.1,33.7c0,2.7,0.2,5.4,0.4,8.2
		c0.1,1.1-0.3,2-0.9,2.9c-0.4,0.5-0.9,0.9-1.6,1.1c-1.1,0.3-2.2,0.7-3.4,1c-0.6,0.2-1.3,0.2-2,0.2c-3.4,0.1-6.8,0.2-10.1,0.4
		c-1.9,0.1-3.8,0-5.7-0.2c-2.8-0.3-5.6-0.3-8.4-0.4c-3.7-0.1-7.4-0.1-11-0.1c-1.3,0-2.5-0.2-3.3-1.3c-0.3-0.4-0.9-0.7-1.5-1
		c0.3-0.2,0.4-0.5,0.6-0.4c6,0,12.1-0.1,18.1,0.2c4,0.2,8,0.5,12.1,0.3c2-0.1,4.1-0.3,6.2,0c1,0.2,2.1-0.1,3-0.3
		c1.3-0.3,2.5-0.8,3.7-1.3c1.4-0.6,2-1.9,2.1-3.4c0-1.1-0.1-2.2-0.1-3.3c-0.1-2.9-0.3-5.9-0.3-8.8V279c0-3.2,0.2-6.3,0.3-9.5
		c0-0.9,0.1-1.8,0.3-2.6C245.1,264.4,245,262,245.8,259.7 M276,198.1c0.7-0.1,1,0.2,1.1,0.5c0.5,1.7,1.1,3.3,1.1,5.1
		c0,5.4,0,10.9-0.1,16.3c-0.1,5.2-0.2,10.4-0.3,15.7v5.3c0,1.2-0.4,2.3-1,3.3s-1.4,1.6-2.6,1.8c-1.5,0.1-2.9,0.3-4.4,0.5
		c-0.4,0-0.8,0-1.1,0.1c-1.8,0.8-3.7,0.6-5.6,0.6c-3.8,0-7.6,0.2-11.5,0.1c-4.1-0.1-8.2-0.5-12.3-0.7c-2.3-0.1-4.5-0.3-6.8-0.4
		c-0.3,0-0.6-0.1-1-0.1c-0.4-0.7-0.9-1.4-1.3-2c0.2-0.6,0.6-0.6,1-0.5c2.3,0.1,4.5,0,6.8,0.3c2.8,0.4,5.7,0.4,8.6,0.6
		c4.7,0.2,9.4,0.1,14.1,0c1,0,2.1,0,3.1-0.1c0.5,0,1.1,0.1,1.5-0.1c2-0.8,4-0.8,6.1-1.1c2.7-0.4,4.1-1.6,4.4-4.4
		c0.2-2.3,0.3-4.5,0.2-6.8c-0.1-0.7-0.1-1.3,0-2c0.1-4.9,0.3-9.8,0.3-14.8c0.1-5,0-10,0.1-15C276.1,199.6,276,198.9,276,198.1
		 M417.5,198.8c0.9,0,1.2,0.5,1.4,1c0.2,0.8,0.4,1.6,0.5,2.4c0.2,3,0.3,6,0.4,9c0.1,4.6,0.2,9.2,0.2,13.9c-0.1,4.2-0.4,8.4-0.5,12.5
		c0,0.7,0.1,1.5,0.2,2.2c0.3,2.2-1.1,4.7-3.2,5.5c-0.2,0.1-0.4,0.1-0.6,0.1c-1.9,0.1-3.8,0.3-5.7,0.4c-5.2,0.1-10.4,0.1-15.7,0.1
		c-5.1,0.1-10.1,0.2-15.2,0.4c-2.2,0.1-4.2-0.5-6.2-1.2c-1.1-0.4-2-1.1-2.3-2.4c0.7-0.5,1.3-0.1,1.8,0.1c1.4,0.5,2.8,0.6,4.3,0.5
		c2-0.1,4-0.1,6-0.1c8.8-0.1,17.6-0.3,26.5-0.4c1.2,0,2.5-0.2,3.7-0.2c3.1-0.1,4.8-2.9,4.6-5.4c-0.3-3,0-5.9,0.1-8.8
		c0.2-4.6,0.3-9.1,0.2-13.7c-0.1-4.8-0.2-9.5-0.4-14.3C417.4,199.9,417.5,199.4,417.5,198.8 M135.3,198.5c1.3,1.3,1.7,2.5,1.6,4
		c-0.1,1.8-0.2,3.5-0.3,5.3v1.8c0.9,8.9,0.8,17.8,0.8,26.7v3.5c0,2.7,0,2.7-1.3,5.3c-2.3,0.9-4.8,1.4-7.4,1.3
		c-3.7-0.1-7.5-0.3-11.2-0.4l-12.1-0.3c-3.4-0.1-6.8,0-10.1-0.1c-1.2,0-2.5-0.2-3.7-0.3c-0.4-0.1-0.9-0.2-1.2-0.5
		c-0.5-0.5-1-1.1-1.6-1.8c0.5-0.2,0.8-0.5,1.1-0.4c5.8,0.4,11.6,0.1,17.4,0.2c2.9,0,5.9,0.3,8.8,0.4c2.3,0.1,4.6,0.2,6.8,0.3
		c2.7,0.2,5.3-0.4,7.9-0.4c0.4,0,0.7-0.2,1.1-0.1c1.7,0.3,2.4-0.6,2.9-2c0.3-0.9,0.6-1.8,0.6-2.8v-6v-13.7c0-1.2-0.1-2.5-0.2-3.7
		c-0.2-2.9-0.6-5.9-0.5-8.8C134.6,203.7,134.4,201.2,135.3,198.5 M416.9,260.5c1.2,1.7,1.7,3.5,1.6,5.4c0,0.8-0.1,1.6-0.3,2.4
		c-1.1,3.8-1.1,7.7-0.8,11.6c0.4,4.5,0.3,9.1,0.3,13.7c0,3.5-0.1,6.9-0.1,10.4c0,1-0.4,1.7-1.3,2.1c-1.3,0.6-2.5,1.3-3.8,1.8
		c-0.6,0.2-1.3,0.3-1.9,0.3c-5.9,0.3-11.9,0.6-17.8,0.8c-1.2,0.1-2.4,0.1-3.5,0c-2-0.1-4,0.3-5.9,0c-0.9-0.1-1.7-0.3-2.6-0.4
		c-0.6-0.1-1.2-0.2-1.7-0.2c-3.2,0.2-6.1-0.9-8.9-2.2c-0.2-0.1-0.4-0.2-0.6-0.4c-0.3-0.3-0.8-0.6-0.6-1.1c0.2-0.5,0.7-0.4,1.1-0.3
		c1.4,0.3,2.7,0.8,4.1,1c1.5,0.2,3.1,0.3,4.6,0.4h0.4c1.7,0.1,3.2,1.2,4.9,0.4c1.7,0,3.4,0.1,5.1,0c1.5,0,2.9-0.2,4.4-0.3
		c2.3-0.1,4.5-0.3,6.8-0.4c0.1,0,0.3-0.1,0.4,0c1.4,0.6,2.8,0,4.1,0c0.9,0,1.9-0.1,2.8-0.1c1.3,0,2.5-0.2,3.6-0.8
		c0.9-0.5,1.8-1,2.7-1.4c1-0.5,1.4-1.2,1.4-2.3c0-4.1,0.1-8.2,0.1-12.3c0-4.9-0.1-9.7-0.5-14.5c-0.2-2.4,0.1-4.7,0.6-7
		c0.5-1.9,0.8-3.7,0.6-5.7c0-0.2,0-0.4,0.1-0.7C416.6,260.7,416.7,260.7,416.9,260.5 M131.6,262.1c1.3,1,1.9,2.2,1.8,3.7
		c-0.1,1.3-0.3,2.6-0.3,4c0,4.8,0.2,9.7,0.6,14.5c0.2,2.7,0.3,5.4,0.4,8.1c0.1,1.9,0.1,3.8,0.1,5.7c0,2.8-0.2,5.6-0.8,8.3
		c-0.1,0.4-0.2,0.9-0.4,1.3c-0.4,0.8-1,1.3-1.9,1.3h-1.3c-4.8-0.2-9.7-0.4-14.5-0.5c-1.8,0-3.5,0.1-5.3,0.2
		c-1.8,0.1-3.5,0.2-5.3,0.2c-2.8,0.1-5.6-0.1-8.3-0.6c-2.5-0.5-5-0.8-7.5-0.7c-1.5,0.1-2.6-0.4-3.4-1.5c-0.2-0.3-0.5-0.5-0.6-0.7
		c0.1-0.6,0.5-0.7,0.8-0.7c2.2,0.1,4.4,0,6.6,0.4c3.7,0.7,7.4,0.9,11.2,0.9c4.5-0.1,9-0.2,13.4-0.2c3.6,0,7.2,0.2,10.8,0.3h1.1
		c1.6,0,2.3-0.6,2.5-2.2c0.6-3,0.8-6,0.8-9c0-6-0.4-11.9-0.8-17.8c-0.2-3.5-0.3-7.1-0.2-10.6C131.1,265.1,131.4,263.6,131.6,262.1
		 M314.2,306.5c0.4-0.1,0.6-0.1,0.8-0.1c5.4,0.1,10.7-0.4,16.1-0.1c2.9,0.2,5.9,0.1,8.8,0.2c2.2,0,4.4,0.1,6.6,0.1
		c2.5,0,5-0.1,7.5-0.2c0.7,0,1.3-0.2,1.9-0.4c1.2-0.3,1.6-0.9,1.7-2.2c0-1.6,0.1-3.2,0.1-4.9c0-3.6,0.1-7.2,0.4-10.8
		c0.1-1.7,0.1-3.4,0.1-5.1v-10.6v-8.6c0-0.8-0.1-1.6-0.2-2.6c0.4,0.2,0.7,0.3,0.8,0.5c1,1.7,1.4,3.6,1.4,5.5c0,2.5,0.1,5,0.1,7.5v13
		c0,0.7,0,1.5-0.1,2.2c-0.2,4.8-0.4,9.6-0.6,14.3c0,0.7-0.1,1.5-0.1,2.2c0.1,1.8-0.7,2.1-2,2.3c-1.9,0.3-3.8,0.5-5.7,0.6
		c-2,0.1-4,0-6,0c-6.7-0.1-13.4-0.3-20.1-0.4c-2.6,0-5.1,0.2-7.7,0.2C316.1,309.2,315.4,308.7,314.2,306.5 M256,306.3
		c1.1,0.2,2,0.4,2.8,0.5c0.9,0.1,1.8,0,2.6,0.1c2.9,0.1,5.7,0.2,8.6,0.4c2,0.1,4,0.4,5.9,0.5c2.9,0.1,5.9,0.1,8.8,0.1
		c1.2,0,2.5,0,3.7,0.1c2.9,0.2,5.7-0.1,8.5-0.8c0.6-0.2,1.3-0.3,2.4-0.5c0.1-0.2,0.4-0.8,0.9-1.1c1.5-1,1.9-2.3,1.8-4
		c-0.2-3.6-0.2-7.2-0.4-10.8c-0.3-6.6-0.3-13.2-0.2-19.8c0-1.7,0.1-3.4,0.2-5.1c0-1.1,0.4-2.1,1.1-3.2c1.1,0.9,1.9,1.8,1.5,3.2
		c-1,3.6-0.7,7.3-0.8,11c-0.1,4.3,0.1,8.5,0.2,12.8c0.1,3,0.3,6,0.4,9c0.1,2.3,0.1,4.6,0.1,6.8c0,0.8-0.3,1.4-0.9,1.9
		c-1.1,1.1-2.5,1.8-4,2.2c-2.3,0.6-4.6,1.1-7,1.1c-4.3,0-8.7,0-13-0.1c-1.8,0-3.7-0.3-5.5-0.4c-1.5-0.1-3.1-0.3-4.6-0.3l-8.1-0.3
		c-1,0-1.9-0.3-2.6-0.9C257.7,308,256.7,307.4,256,306.3 M143.5,305.6c0.8,0,1.4,0,1.9,0.1c3,0.6,6.1,0.6,9.2,0.6
		c4,0,8.1-0.1,12.1,0.4c2,0.2,3.9,0.1,5.9-0.2c2.8-0.4,5.6-0.5,8.4,0c3.3,0.6,3.5,0,5.4-2c1.2-1.2,1.7-2.6,1.8-4.4
		c0.5-9.3,0.4-18.5,0.3-27.8c0-2.3-0.2-4.6-0.4-6.8c-0.2-1.8-0.4-3.5-1.1-5.2c-0.2-0.4-0.1-1-0.2-1.8c0.5,0.5,0.7,0.6,0.8,0.9
		c1.5,3.6,2.6,7.4,2.8,11.3c0.2,5.6,0.3,11.2,0,16.8v0.9c0.4,5.2-0.2,10.4-0.3,15.6c0,0.4-0.1,0.9-0.3,1.3c-0.9,1.6-2.1,2.9-3.5,3.9
		c-0.2,0.2-0.5,0.2-0.8,0.3c-0.5,0-1,0.1-1.5,0c-3.5-0.8-7-0.3-10.5,0.1c-1.2,0.1-2.3,0.1-3.5,0.1c-2.6-0.1-5.1-0.4-7.7-0.5
		c-2.6-0.1-5.3-0.1-7.9,0c-2.5,0.1-5-0.3-7.5-0.6C145.2,308.2,144.4,307.1,143.5,305.6 M300.9,241.6c0.7,0.3,1.3,0.6,1.7,0.9
		c1.1,0.7,2.3,1,3.6,1c2.2,0,4.4,0.2,6.6,0.2c0.5,0,1,0,1.5-0.1c3.2-0.6,6.4-0.6,9.7-0.5c1.1,0,2.2-0.1,3.3-0.1
		c1.6-0.1,3.2-0.2,4.8-0.2c2.2,0,4.4-0.1,6.6,0c1.6,0,3.1-0.3,4.6-0.7c1.9-0.5,3-1.8,3.3-3.7c0.3-2.4,0.4-4.8,0.6-7.2
		c0.3-2.6,0.3-5.1,0.2-7.7v-14.1c0-3.1-0.2-6.2-0.4-9.2c0-0.4,0-0.9,0.1-1.3c0-0.1,0.2-0.2,0.3-0.2c0.1,0,0.3,0,0.4,0.1
		c0.2,0.2,0.3,0.3,0.4,0.5c0.2,0.8,0.4,1.6,0.5,2.4c0.4,3.1,0.9,6.2,0.8,9.4c-0.1,2.9,0,5.9,0,8.8c0,3.4,0.2,6.8,0,10.1
		c-0.1,2.7,0,5.4-0.5,8.1c-0.2,0.9-0.1,1.9-0.2,2.9c-0.3,2.2-1.6,3.5-3.7,4.2c-1.3,0.4-2.7,0.6-4.1,0.6c-4.6,0-9.1,0.2-13.7,0.3
		c-2.6,0.1-5.3,0.1-7.9,0.2h-0.2c-3.6,0.6-7.2,0.1-10.8,0.2c-1.1,0-2.2-0.3-3.1-0.9c-1.1-0.7-2.3-1.4-3.4-2.1
		C301.4,243,300.8,242.7,300.9,241.6 M172.5,215.2c-0.2-0.3-0.3-0.4-0.3-0.5v-1.1c0.2-2.6,0.3-5.1,0.5-7.6c0.7-0.4,1.4-0.6,2.2-0.5
		c1,0.1,2.1,0.3,3.1,0.1c2.7-0.3,5.1,2.8,5.2,5.2v1.1c0,1.3-0.8,2.3-2,2.5c-1.4,0.2-2.7,0.5-4.1,0.9
		C175.5,215.6,174,215.4,172.5,215.2 M320.4,210.2c0.3,0.5,0.5,0.8,0.6,1.1c0.8,2.6,1.5,5.2,2.2,7.8c0.1,0.3,0,0.6,0,0.9
		c-0.2,0.1-0.5,0.2-0.7,0.2c-1.9-0.1-3.8-0.3-5.8-0.4c0-0.3-0.1-0.6,0-0.8l3-7.5C319.9,211,320.1,210.7,320.4,210.2"/>
	<path d="M166.3,283c-2.6,0.4-5.1,0.5-7.8,0.6c0-0.5,0-0.8,0.1-1.1c1-3.6,2-7.3,3.1-11.2c0.8,0.7,1.1,1.4,1.4,2.1
		c0.7,2.2,1.5,4.4,2.2,6.6C165.5,280.9,165.9,281.9,166.3,283 M382.2,277.2c0-2.3-0.1-4.3-0.6-6.3c-0.2-0.8-0.1-1.7-0.2-2.6
		c0.6-0.5,1.2-0.9,1.2-1.8c1.7-0.3,3.3-0.1,4.8,0.3c0.9,0.2,1.9,0.3,2.7,0.8c1.8,1,3.6,2,3.9,4.4c0.2,1.6-0.3,2.9-1.6,3.9
		c-1.7,1.2-3.4,2.2-5.7,1.9c-1-0.2-2,0-3.1-0.1C383.3,277.6,382.8,277.4,382.2,277.2"/>
</g>
</svg>
