<svg xmlns="http://www.w3.org/2000/svg" viewBox="0 0 500 500"><path d="M323.5 59.7c0 2.3 4.5 5.4 7.4 5.2-.2 1.1 4.3 4.3 5.9 4.7.7.9 1.1 1.6 1.8 2.5 2 2.5 4.1 5 6.3 7.2 1.1 1.1 2.5 2 3.6 2.9.5.2 1.1.7.9 1.1 0 1.8 1.4 2.5 2.3 3.6.7 1.1 1.6 2 2.5 2.9.9.7 2 1.1 2.9 1.8 0 0-.5.2-1.4.7l2.7 2.7c-.2 1.1.5 2 1.6 3.2.7.7.9 2 1.4 3.2 0 .2-.2.5 0 .7.9 1.6 2 3.2 2.9 5 0 .2 0 .5.2.7.2 1.1.2 2 1.8 1.8-.7 2.3.7 3.8 1.4 5.6.7 1.4 1.6 2.7 2.3 4.1.2.5 0 .9 0 1.4.7.2 1.4.2 2.5.5-.9.5-1.4.7-1.6.9 1.4 3.2 2.7 6.3 4.3 9.5 1.6 3.4 1.8 7 2.5 10.4 2.3 10.4 2 20.8 2.5 31.2.2 5.6.9 11.3 1.1 17.2.2 8.1.5 16 .2 24.2 0 6.5-1.1 12.9-2.9 19-.9 2.7-1.8 5.2-2.5 7.9 0 .2.2.7.2 1.1.2.5.2 1.1 0 1.6-.2-.5-.7-.7-.9-1.1 0 0-.2 0-.2.2.2.5.5.9.2 1.4 0 .7-.2 1.6-.5 2.3-.2.7-1.6.9-.7 2v.2c-2.7 1.6-2.5 5-3.8 7.2-.7 1.6-1.4 3.2-2 4.7-.7 1.6-1.4 2.9-1.8 4.5 0 .2 0 .5-.2.5-2 3.2-4.1 6.1-5.9 9.3-.9 1.4-2 2.9-3.2 4.3-.5.5-1.1.7-1.6 1.1-1.1 1.1-2.5 2.5-3.4 3.8-1.6 2-3.2 4.1-4.7 6.1 0 .2 0 .5-.2.5-1.6.7-2.5 2-3.2 3.6-.5.9-1.8 1.1-2.9 1.8.5.2.9.5 1.6.7-1.1 1.1-2.3 2.3-3.2 3.4-1.8 2-3.4 4.1-5 6.1-2 2.3-4.3 4.5-6.3 7-2.5 2.9-4.7 5.9-7 8.8-1.1 1.8-2 3.8-2.9 5.6-1.1 2-2.3 4.1-3.6 6.1-.2.2-.5.5-.5.7-1.4 4.1-10.8 19.4-11.1 33.9 0 .2 5.2 2 6.3 7.9-.5 3.2-.7 6.5-1.4 9.7-.9 5-1.1 9.9-.7 15.1.5 5 .2 9.9.2 14.7 0 5.4-.2 10.8-.2 16.3 0 3.8-1.6 6.3-4.7 7.9-.2 0-.5.2-.5.5-.7 2.3-2.5 2.3-4.5 2.3-4.5 0-8.8.2-13.3.2-1.4 0-2 .5-2.3 1.8-.7 2.5-2 4.7-4.3 6.1-.7.5-.9 1.4-1.6 2-.7.7-1.6 1.4-2.5 1.6-2.7.7-5.2 1.8-7.7 3.2-2.3 1.1-4.7 1.6-7.2 1.8-2.3.2-4.3-.5-6.5-.9-3.4-.7-6.8-1.1-10.4-1.8-1.8-.5-3.8-.2-5-2.3-.2-.2-.7-.2-.9-.5-2-1.1-3.8-2.5-5.6-3.6-.5-.2-1.1-.7-1.6-.9-2-.9-2.5-2.7-3.6-4.5.7-.2 1.1-.2 1.6-.2v-.5c-3.8.2-7.9.2-11.7.7-4.7.7-8.4-1.1-11.1-4.5-1.8-2.3-1.8-5.2-1.4-8.1 1.4-9.5 1.4-19.2.9-28.9-.2-4.7-.9-9.5-1.6-14.2-.5-3.4-.5-11.5 2-14 .9-.9 6.3-4.3 5.9-6.5-1.6-6.5-3.4-13.1-5.4-19.6-1.4-4.1-2.9-7.9-4.7-11.7-.9-2-2.5-3.8-3.6-5.6-1.4-1.8-2.5-3.6-3.8-5.4-.7-.9-.7-2.3-2-2-.2 0-.5-.5-.5-.7.2-2-1.8-2.3-2.7-3.4-.2-.2-.7 0-1.1 0v-1.1c-1.4.9-1.1 0-.9-.9-.9-.2-2 .5-1.6-1.4.2-1.1-1.4-2-2.9-1.4v-1.6h-1.4c.2-.5.5-.7.9-1.1-.7 0-1.1.2-1.6.2 0-.5.2-.7.2-1.1-.5 0-.9 0-1.6-.2 0-.5 0-1.1.2-1.6-1.6.5-1.8-1.1-2-1.8-.5-1.8-1.4-2.9-2.9-3.8-1.8-1.4-3.6-2.9-5.2-4.5-.5-.5-.2-1.4-.5-1.6-.5-.7-1.4-.9-2-1.4-.5-.2-.9-.7-1.1-.9-2-1.8-3.4-4.5-6.3-5.2-.9-1.4-1.6-3.4-2.9-3.8-2.3-.9-1.8-3.4-3.6-4.5l-.7.7c0-.2-.2-.2-.2-.2 0-.7.9-2-1.1-1.4-.2 0-.9-1.6-1.4-2.5l-.7.7c-.2-.9-.2-1.6-.5-2.5h-.5v1.4c-.7-1.4-1.1-2.3-1.8-3.4 0 0-.2.2-.2 0-.7-.9-1.1-1.8-1.6-2.5-.7-.7-1.4-1.4-2-1.8-.5-.2-1.4 0-1.6-.5-1.4-2-2.5-4.1-3.6-6.1-1.4-2.7-2.7-5.4-4.3-7.9-.2-.5-.9-.7-1.6-1.4 0-.2 0-.9-.2-1.4-.9-1.8-1.8-3.6-2.9-5-1.4-1.4-2-2.9-2.5-4.7-.2-.7-1.4-.9-1.8-1.6-2-2.5-3.8-5.2-4.3-8.6-.5-2.7-1.8-5.4-2.5-8.4-.9-4.1-1.8-8.1-2.7-12-.7-3.2-1.6-6.3-1.8-9.5-.5-4.5-.5-9-.5-13.5.2-8.4.5-16.7.7-25.1v-11.5c.2-5.2 2-10.2 3.8-14.9 2.3-5.9 5-11.5 7.4-17.2 1.6-3.6 3.8-7 5.6-10.4 2.5-4.5 4.7-9 7.2-13.3 1.1-1.8 2.3-3.6 3.4-5.4.7-1.1 1.4-2.5 2.3-3.4 1.1-1.6 2.7-2.9 3.8-4.5 2.9-4.1 6.8-7 10.6-9.9 3.2-2.5 6.5-4.5 9.9-6.5.5-.2 1.1 0 1.6-.2 2.7-1.6 5.6-3.2 8.4-4.7 2.3-1.4 4.5-2.7 7-4.1 1.4-.7 2.7-1.4 4.3-2 2.3-1.1 4.3-2 6.5-3.2 2.9-1.1 5.6-2.5 8.6-3.4 4.5-1.4 8.8-2.5 13.3-3.6 9.5-2.5 19.4-2.7 29.1-2.5h9.7c5.6.2 11.1.5 16.7.7 3.4 0 7-.5 10.4-.2 4.1.2 8.1.5 11.7 1.6 2.5.7 5.2.9 7.7 1.6 2 .7 4.3 1.4 6.3 2.3 3.2 1.4 6.5 2.9 9.5 4.5 2.5 1.4 4.7 2.9 7 4.3-.4-.4.5-.4 1.1-.4zM169.6 237.2l-.5-.5c.2-4.7.2-9.3.5-13.8 0-2.3.7-5-.2-7-1.4-3.8-4.1-6.8-7.4-9-1.6-.9-3.2-.9-4.7-.2-1.4.7-2.7 1.1-4.1 1.6-2.5.9-5.4 1.4-6.5 4.3 0 .2-.5.5-.7.5-.5.2-.7.5-1.1.9-1.1.7-1.1 2-1.6 2.9-1.4 2.7-3.2 5.4-4.3 8.4-.9 2.7-1.4 5.4-1.8 8.4-.2.9 0 2 .2 2.9.5 1.6.7 3.4 1.4 4.7 1.6 2.9 4.7 3.8 7.4 5.2 3.8 1.8 7.9 1.6 11.7.9 1.1-.2 2.3-.5 3.4-.7 0 .2.2.5.2.5v.9c-.5 5.2-.5 10.2 1.1 15.4.9 3.4 2.3 6.5 3.8 9.7 2 4.3 5.2 7.9 8.8 10.8 7.4 6.1 16 9.9 25.1 12.9 3.8 1.4 7.9 1.6 11.7 1.8 7.9.2 15.8.2 23.5.2 6.1 0 12.2-.2 18.3-.7 4.1-.2 8.1-.7 11.7-2 5.9-2 11.7-5 17.4-7.4 3.6-1.6 5.6-4.3 7.7-7.4.7-.9.7-2.5.7-3.6-.2-1.8-1.1-3.4-1.6-5-1.4-4.7-4.5-7.7-9-9.3-3.4-1.1-6.8-.2-10.2.2-4.5.7-7.9 3.8-11.1 7-2.9 2.7-4.5 6.3-6.1 9.9-1.1 2.3-1.6 5-4.1 6.3 0 .7.2 1.6-.2 1.8-1.4.9-2.7 2.3-4.3 2.5-4.1.5-8.4.5-12.4.7-2.3 0-4.7-.2-6.8.2-6.5 1.4-13.1 1.1-19.4-.7-5.6-1.6-11.7-2.3-16.9-5.6-4.5-2.7-8.6-5.9-11.3-10.6-.9-1.4-1.8-2.9-2.7-4.3-.9-1.8-1.1-3.8-2-5.4-1.4-2.5-2.5-4.7-1.8-7.7.2-.5 0-.9 0-1.4-.5-3.2-1.1-6.3-1.4-9.7-.2-2.5 0-2.3 2.5-3.2 3.8-1.4 7.4-2.7 11.1-4.1.5-.2.9-.9.9-1.4-.2-2.3-.5-4.5-.7-6.5 0-.2-.9-.5-1.1-.2-1.6.7-2.9 1.8-4.3 2.5-3.4 1.1-6.1 2.3-8.8 3.4zm39-138.6c4.3-1.8 8.6-3.8 12.9-5.4 2.9-1.1 6.1-1.8 9.3-2 3.4-.5 6.8-.5 10.2-.2 7.2.2 14.4.2 21.7.7 3.2.2 6.3.9 9.5 1.6s6.1 1.6 9.3 2.7c4.3 1.4 8.6 2.5 13.1 3.6.5.2 1.1.7 1.4 1.1.7 2.3 1.4 4.7 1.6 7 .5 4.3.5 8.8.7 13.1v13.8c0 5 .5 9.7 0 14.7-.7 6.5 3.4 10.4 7.4 13.3.5.2 1.4.2 1.6 0 .7-1.1 1.6-2 1.1-3.6-.5-1.8-.9-3.6-1.1-5.6-.2-4.3-.2-8.4-.5-12.6 0-3.2 0-6.1.2-9.3 0-.7.7-1.4 1.1-2 .5.7 1.1 1.1 1.6 1.8.5.5.7 1.1.9 1.6 1.8 2 3.8 4.1 5 6.5.9 1.8 2 3.6 3.4 5.2 2.3 2.5 3.6 5.4 4.5 8.4 1.6 5.2 3.8 9.7 8.4 12.6 2.9 2 6.5 2.7 9.7 1.4 3.8-1.6 7.7-3.8 8.1-8.8 0-.5.5-.9.5-1.4 0-1.6 0-3.2-.5-4.5-.2-.7-.9-1.6-1.8-.5-.9 1.4-1.6 2.9-2.3 4.5-.7 1.8-1.4 3.6-3.4 4.1-2.5.5-5.4.9-7-1.4-2.9-4.3-6.8-8.4-8.8-13.5-1.6-4.3-3.6-8.6-7.2-12-2.3-2.3-3.8-5.2-6.5-7-.5-.2-.5-.7-.9-1.4.7-.2 1.4-.7 1.8-.9 1.6-.7 3.2-1.1 4.5-1.8 6.3-3.2 9-10.6 6.1-17.2-.7-1.8-1.4-3.6-3.4-4.5-4.3-1.8-10.4-.5-13.3 3.6-.5.7-.9 1.4-1.6 1.8-.7.7-1.4.7-1.4-.5-.2-3.2.5-6.3 2.9-8.6 3.4-3.2 7.2-5.6 7.2-10.8V86c0-2.5.5-5-.2-7-.5-2-2.3-3.6-3.6-5.4-1.6-1.8-5.4-2.7-7.2-1.1-2.3 1.8-4.5 3.8-5.9 6.3-1.6 2.9-2.3 6.3-2.9 9.5-.2 1.1 0 2.3 0 3.4-3.8.5-6.8-.2-9.9-1.4-4.3-1.6-8.6-3.2-13.1-4.5-7.7-2-15.6-2.7-23.5-2.5-4.5 0-9 .2-13.3.7-3.2.5-6.1 1.6-9.3 2.5-1.1.2-1.8 1.1-2.9 1.6-2.9 1.4-6.1 2.5-8.8 3.8-2 1.9-4 4.2-5.4 6.7zm-74.9 48.7c.2 2.3.5 4.5.9 6.8.9 5.6 3.4 6.8 7.7 6.8 4.5 0 9-.7 13.8-1.1 1.4 0 2.9 0 4.1.7 1.4.7 2.5 2 3.6 3.2.9.9 2 2 2.5 3.2.7 2.7.9 5.4 0 8.1-.7 1.6-1.4 2.9-1.8 4.5-.9 2.7-2.7 5-5 6.5-1.8 1.1-3.6 2.7-5.2 4.1-3.6 2.9-7.7 5.2-12.4 5.2-1.8 0-3.2-.2-3.8-2-.7-2-1.6-4.1.5-5.9 1.4-1.4 2.9-2.5 4.1-3.8 4.5-5.4 9.9-9.9 15.8-13.8.7-.5 1.8-.7.9-2-1.1-1.8-2.3-2.3-3.4-1.4-4.7 3.6-10.2 5.9-15.1 8.8-5 2.9-9.9 6.3-10.4 13.1 0 .2-.5.7-.7.9-2 1.1-2.5 2-1.6 4.3.2.9.7 1.8.9 2.7.5 2.3 3.4 5.2 5.6 5.4 3.6.2 7.2.2 10.6-.2 6.1-1.1 11.7-3.8 16.3-8.1 2.7-2.5 5.4-5 7.9-7.7 1.8-2 3.2-4.7 4.5-7.2 1.8-2.9 2.9-5.9 2.9-9.3-.2-5.4-1.8-10.4-4.7-14.9-1.8-2.7-4.3-3.8-7-4.1-3.4-.5-7 0-10.4-.2-1.8 0-3.8 0-5.6-.2-2.5-.2-3.8-1.8-4.1-3.8-.5-5.6-.5-11.1 1.4-16.5v-.9c.2-.7.2-1.4.5-1.8 1.4-2 2.9-3.8 4.5-5.6 5.2-6.5 12-10.2 20.3-10.6 3.6-.2 4.3 0 4.5 4.3.2 6.1-1.8 11.7-4.7 16.9-.7.2-.7.7-.9 1.1.7.2 1.1.5 1.8.5.7-.2 1.4-.7 1.8-1.1 5.6-6.3 8.4-13.8 9-22.1.5-4.5-1.4-6.5-5-7-5.2-.7-10.2-.2-15.1 1.6-6.5 2.3-11.7 6.5-16 12-3.4 4.1-6.3 8.6-8.6 13.3-2.9 5.1-4.7 11-4.9 17.3zm148.1 55.6c-1.1-3.6-1.8-7.2-1.8-10.8 0-.5.7-.9 1.1-1.1 1.1-.7 2.5-1.1 3.2-2.3 2-2.9 4.1-5.9 5.6-9 2.5-5 2.5-10.2 1.6-15.6-.2-.7-.9-1.8-1.4-1.8-2.5-.2-5.2-.7-7.7-.5-1.6.2-3.2.9-4.3 2-2.7 2.5-4.3 5.9-4.5 9.7 0 1.4-.5 2.7-.7 4.1-.2.9-.7 2-.7 2.9-.5 9.7.2 19.2 1.6 28.9 1.1 9.3 1.8 18.5 2.7 27.8.2 2.3.5 4.7.7 7 .2 1.4.7 2.3 2.3 1.8 1.6-.2 3.4-.5 5-.7.9 0 1.1-.7 1.4-1.4 0-2 .2-4.3.2-6.3-.2-2.9-.5-5.9-.9-8.8-.2-1.6-.2-3.2 1.1-4.7 1.1 2 2.5 3.8 3.4 5.6.5.9.9 2 1.6 2.7 2.3 2.3 5.2 3.6 8.1 4.1.9.2 2 .2 2.7-.2 3.2-1.1 6.3-2.7 9.7-3.8.9-.5.9-.9.5-1.6-.7-1.1-1.4-2.5-1.8-3.6-.5-.9-.7-.9-1.6-.5-2.5 1.1-5.2 2.3-7.7 3.4-.7.2-1.6.5-2 0-1.6-1.6-3.2-3.4-4.7-5-.9-1.1-1.6-2.5-2.3-3.6-.5-.7-.5-1.1.2-1.6 7.2-4.3 10.6-10.8 11.1-19.2.2-2.5-.7-4.7-2.3-6.3-3.6-3.2-9.7-2.9-12.9 1.1-1.8 2.3-3.6 4.7-5.6 7-.3 0-.5 0-.9.3zm-91.9-56.5c-.2-1.8-.7-3.2-.9-4.5-.5-2.7-.7-2.9-3.4-2.5-2.3.5-4.5 1.1-5.6 3.6-.9 2.3-2.3 4.3-3.6 6.5-1.6 2.5-1.1 4.7 1.4 6.5 1.6-1.4 3.2-2.9 4.7-4.5.2.5.2.7.2.9.9 6.3 1.4 12.4.7 19-.9 7.9-2.9 15.4-5.2 23-.9 3.2-1.8 6.3-1.4 9.7.5 3.2 1.6 4.1 4.5 2.7 1.6-.7 2.7-2 4.1-3.2 1.6-1.4 2-3.4 2.5-5.4.7-5.9 1.4-11.5 2.3-17.4.2-.9.9-1.8 1.1-2.7l.2.2c-.2-1.1-.5-2.5-.7-3.8.7-.2 1.4-.2 2.3-.5h5.2c3.2-.2 5.4-1.8 7.9-3.6 2.3-1.8 3.8-3.8 4.5-6.5.9-4.1 1.6-8.4 2.7-12.4.7-2.9.5-5.6-.5-8.4-1.1-3.4-3.2-6.8-7-6.5-3.4 0-6.5 1.1-9.9 2-.5.2-.9.9-1.1 1.6-1.4 2.4-3 4.2-5 6.2zm28.7 39.3c-2.5 1.1-4.7 2.3-7 3.2-5.2 2.5-10.4 5.2-13.5 10.4-3.2 4.7-5.9 9.5-7.7 14.7-2 5.6-2.9 11.7-2.9 17.8 0 6.8-.7 13.5.5 20.3.9 5.6 2 11.3 5.9 16 .9 1.1 1.8 1.8 3.4 1.1 1.6-.7 2.7-2.7 2.5-3.8-1.4-3.8-2.5-7.7-3.8-11.5-2-7-2-14-1.1-21 .9-6.3 2.7-12.2 5-18.3 1.8-4.7 4.1-9.3 7.9-12.6 3.8-3.6 8.8-6.5 13.1-9.5 1.1-.9 2.7-1.4 4.1-2 1.4-.5 2.7-.9 4.1-1.1 1.8-.2 3.4-.2 5.2-.5h3.6c2.7.5 5.2 1.1 7.9 1.6 2 .5 4.3.7 6.3.9 3.2.2 6.5.7 9.7.7 2.9 0 5.4-1.1 7.2-4.1-.7-.2-1.4-.7-2-.7-1.4 0-2.7.5-3.8.7-5 1.1-9.7.7-14.4-.5-5-1.1-9.7-2.5-14.4-3.6-1.8-.5-3.8-.2-5.6 0-2.9.5-5.6 1.1-8.4 1.6-1.2.7-1.6.2-1.8.2zm26.6 63.7c-.9-.5-1.4.2-1.8 1.1-.9 1.6-2.7 2.5-4.3 2.3-.9 0-1.8-1.6-2-2.7-1.6-4.1-2.3-8.4-2-12.9 0-5.2-.7-10.4-1.1-15.8 0-1.1-.7-1.8-2-1.6-.9.2-2 .2-3.2.2-1.4-.2-1.6.5-1.8 1.4-.2.9-.5 1.6-.9 2.9-.7-.7-.9-.9-1.1-1.4-.5-1.6-1.8-1.8-3.4-2-2.7-.5-5 .7-7.4 1.1-1.4.5-2.9 1.1-3.8 2.3-3.2 4.5-6.1 8.8-7.2 14.2-1.4 7.2-1.4 14.2 1.8 21 1.6 3.4 4.3 5.9 7.7 7.4 2.9 1.4 6.3.5 9.5.2 3.8 0 6.8-1.8 7.9-5.4.5-1.4 1.4-2.9 2-4.3.9.7 1.4 1.4 2 1.6.7.5 1.6.7 2.5 1.1 3.6 1.1 6.5.5 7.7-2 .9-1.8 1.8-3.8 2.5-5.9.2-.5-.5-1.4-.7-1.8-.4.1-.7-.3-.9-1zm-30.9-89c3.2-.2 5.4-1.1 7.7-2.7 1.6-.9 1.8-.9 2.5.9.9 2.3 1.4 4.5 2.7 6.3 1.4 2.5 2.9 5.2 6.1 6.3 1.4.5 2.7.5 4.1.7 5 .2 8.1-2.5 11.3-5.6 3.6-3.6 5.4-8.1 7.2-12.9.5-.9.5-2.7 0-2.9-.9-.7-.7-1.1-.7-1.8 0-1.4-.2-2.7-1.8-3.6-.2.7-.5 1.1-.5 1.8 0 2.3-.7 4.5-1.8 6.5-2 3.8-5.6 6.5-9 9.3-.5.2-1.6.2-2-.2-3.2-1.8-4.7-4.7-5.9-7.9-.7-2 0-3.2 1.6-4.3 2.9-1.8 5.4-3.8 7-6.8 1.8-3.2 3.6-6.1 3.6-9.9.2-5.6-2.7-9.3-7.7-12-.7-.5-1.6-.7-2.3-.5-3.4 1.4-6.5 2.9-8.6 5.9-1.4 1.8-2.5 3.8-3.2 6.1-.9 3.2-1.6 6.3-1.8 9.3 0 3.2-.5 6.3-2 9.3-1.1 2.3-2.7 3.8-5.6 4.3-.7 0-1.4.9-1.6 1.6.2.8.4 1.9.7 2.8zM340 217.8h-.7c-.5.7-.9 1.4-1.4 1.8-2 2.9-3.8 5.9-5.9 8.8-.2.5-1.4.9-1.8.9-2.7-.2-5.6-1.1-6.3-3.6-.2-1.4-.5-2.9-1.1-4.3-.5-1.1 0-1.8 1.4-2.5 1.6-.9 3.4-1.6 4.5-2.7 5.2-5 7.9-10.6 6.1-16.9-.7-2.5-1.6-5.2-5.9-5.4-.7 0-1.1-.5-1.8-.5-2.7-.2-5.2-.7-7.7 1.1-2 1.4-3.4 3.2-4.7 4.7-3.2 3.6-4.3 7.7-4.3 12 0 5.6 1.6 10.8 3.2 16.3.5 1.4 1.6 2.5 1.8 3.8.5 1.8 1.8 3.2 3.4 4.5 1.1 1.1 2.5 1.1 4.1.9 1.4-.2 2.7-.5 3.8-.5 6.8-.7 11.3-3.8 13.3-8.8.9-2.3.5-5 .5-7.4 0-.6-.3-1.3-.5-2.2zm-61.2-102.7c-1.1-.2-2.3-.7-3.2-.7-1.6-.2-3.4-.7-4.7 0-2.3 1.1-4.5 2.7-6.1 4.5-2 2.7-3.4 6.1-4.7 9.3-.9 1.8-.7 4.3-2.3 5.9-.7.7-1.1 1.8-1.1 2.7 0 2.9 0 5.9.7 8.4.7 2.7 2.3 5 3.8 7.4.9 1.4 2 2.5 3.4 3.4 3.2 1.8 6.5 2.5 10.2.9 4.5-2 7-5.6 8.8-10.2.7-1.6 1.6-2 2.9-1.6 2.5.7 6.1-.9 7-3.4.7-1.8.5-3.6 0-5.9-1.4.9-2.3 1.8-3.4 2.3-.5.2-1.6.5-1.8.2-1.4-1.1-2.9-2-2.9-4.1 0-1.8-.5-3.6-.5-5.2.2-5.2.7-10.2 1.1-15.1 0-.5-.2-1.4-.5-1.6-2.4-1.3-5.8 0-6.7 2.8zm-35.6 112.2h-.5c.2 2.5.2 5 .5 7.4.5 3.6 2.5 6.5 4.5 9.5.9 1.1 1.8 2.7 3.2 2.9 4.7 1.4 9.3 1.4 13.5-1.6 2.7-2 4.7-4.5 6.5-7.4.9-1.6 1.4-3.4 1.6-5.2.2-1.6-.5-3.4-.7-5.2 0-.5-.5-.9-.9-1.1-.2 0-.7.5-.9.7-1.6 2.5-2.9 5-4.5 7.2-.9 1.1-1.8 2.5-2.7 3.4-2.3 2.3-7.4 1.8-9.5-.9-1.1-1.6-2-3.4-2-5.4-.2-4.3-.9-8.6-.9-13.1 0-2.9 1.8-5.4 3.8-7.4.9-.7 2.5-.7 3.8-.9 1.6-.5 2.3.5 2.3 1.8.2 1.6.5 3.2.5 4.5.2 1.4 1.4 1.4 2.3 1.6.7 0 1.6-.5 1.8-.9.9-3.6 1.1-7.2-.7-10.6-1.6-3.2-6.8-4.1-10.2-2.3-6.1 3.2-7.7 9.5-10.8 14.9v8.1zm-19.9 167.5v.5c.9 0 1.6.2 2.5.2 6.1 0 12.2-.2 18.3-.5h37c4.1 0 8.4.5 12.4 0 2-.2 4.3-1.4 6.1-2.5.7-.5.9-2 .9-2.9 0-1.4.9-2.9-.9-3.8-1.1-.5-2.3-.7-3.4-.9-2.3 0-4.5.2-6.8.2-4.7 0-9.5.2-14.2.2-9.3.2-18.3 2-27.5 3.8-5.6 1.1-11.5 2.3-17.2 3.4-2.2.9-4.7 1.6-7.2 2.3zm116-210.9c-1.6 2-1.1 3.8-.7 5.6.9 3.4 1.8 6.5 2.3 9.9.9 4.3 1.6 8.8 2 13.1.5 4.7.5 9.5.9 14.4 0 .5.7 1.1.9 1.1 1.8-.2 3.6-.2 5.4-.7 2.5-.7 2.7-.9 1.8-2.9-2-5.6-3.4-11.5-2.9-17.8.2-3.2.2-6.5.9-9.7.5-2.5 1.8-5.2 3.2-7.4.9-1.4 2.5-2.5 2.7-4.3 0-.5.2-.7.7-1.4.5.7.7.9.9 1.4 1.1 2.3 2 4.3 3.2 6.5.5.9 1.4 1.1 2.5 1.1 2.3-.2 2.9-.9 2.9-2.9-.2-4.1-1.4-7.7-3.4-11.3-.7-1.4-1.8-1.8-3.4-1.6-2 .2-3.8.5-5.9.9-.7 0-1.4.5-1.6.9-1.1 2-2.3 4.1-3.2 6.1-.7 1.8-1.1 3.8-1.8 5.6h-.7c-.5-1.8-.9-3.4-1.6-5.2-.2-.5-.5-1.1-.9-1.1-1.5-.3-3-.3-4.2-.3zM220.1 425.5v.5c4.5.5 8.8.9 13.3 1.4 6.1.9 12.4 1.6 18.5 2.7 11.5 2 23 1.6 34.5 2 3.6 0 6.8-1.8 9.9-3.2.7-.2 1.4-4.1 1.1-4.7-.2-.2-.5-.2-.7-.5-3.2-2.3-6.5-2.7-10.4-2.3-1.6.2-3.4-.2-5 .2-1.4.2-2.9-.7-3.8 1.1-.2.5-1.4.5-2 .5-8.8.2-17.4.5-26.2.7-9.3.5-18.7.9-28 1.6-.5-.3-.7 0-1.2 0zm8.2-17.2c.5 0 1.1.2 1.6.2 1.8 0 3.4-.2 5.2-.2 6.1 0 12 .2 18.1.2 7.7 0 15.4 1.4 22.8 3.2 2.3.5 4.5 1.8 7 2 5.2.2 10.4 0 15.6 0 .5 0 1.4-.7 1.4-1.1.5-2.5.7-4.7.9-7.2 0-.5-.2-1.1-.7-1.6-2.5-2-5.2-2.7-8.4-2-2 .5-4.1.2-6.1.5v-.5c.2-.2.7-.2.9-.5-1.4 0-2.5.7-3.6.9-1.4.2-2.7.2-4.1.5v-.7c.7 0 1.6-.2 2.3-.2v-.5c-1.4 0-2.7.2-4.3.2v.5c.5.2.7.2 1.1.5-5.4.7-11.1 1.1-16.5 1.6-5.6.7-11.1 1.1-16.7 2.3-5.7.8-11.3-.8-16.5 1.9zm28.6-103.2c-2.3.2-3.8.5-5.4.7-1.1.2-1.6.7-1.6 2-.2 3.6-.7 7.4-1.1 11.1-.2 2-.2 4.1-.2 6.1 0 2.3.5 4.5.5 6.5.7 7.7 1.1 15.4 1.8 22.8.2 3.4 1.1 6.5 4.1 8.8.7.7 1.6 1.1 2.7 2v-3.2c-.5-3.2-1.1-6.3-1.6-9.5-.5-3.4-.5-6.8-.7-10.2 0-2.3.5-4.7.2-7 0-4.7-.5-9.7-.5-14.4 0-4.1.2-7.9.5-12 .4-1 .9-2.1 1.3-3.7zm12.9 140.2c-2.7 0-5.4-.2-7.9.2-1.1.2-1.8 1.8-2.7 2.9-.2.2.7 1.6 1.4 1.6 1.6.2 3.4.7 5 .2 2-.7 3.6-2.3 5.4-3.4 0-.2-.2-.2-.2-.5-.5 0-.7.2-1.1.2-.1-.5.1-.7.1-1.2z"/><path d="M144.3 232.9c.5-2.9.9-5.9 1.6-8.8.2-.7.7-1.6 1.1-2 2.7-2.9 6.1-5.4 9.7-7.4 2.9-1.6 4.3-.5 5.2 2.7.9 3.2 1.1 6.8 1.1 10.2.2 3.8-.2 7.7-.2 11.5 0 .5-.5 1.4-.9 1.6-4.3 1.8-9 2.7-13.8 1.6-1.8-.5-3.4-2.3-3.6-4.3 0-.9-.2-1.6-.2-2.5 0-.8.2-1.7 0-2.6 0 .2 0 0 0 0zM265.3 287.3c0-.5-.2-.9-.2-1.6-1.8.5-1.8 4.5-5 2.3-.2.2-.7.5-1.1.9-.9-2.9.5-5.4 1.8-7.7 1.4-2.3 3.2-4.1 5-6.1.7-.9 1.4-2 2.3-2.9 2-2 5-2.3 7.4-2.5 2.7-.2 5.6.2 7.7 2.5.7.7.7 1.8 1.1 2.7 1.1 2.5.9 2.7-.9 4.7-3.2 3.8-7.4 5.6-12 6.5-2.3.3-4.1.7-6.1 1.2zM318.3 112.3c0 1.4 0 2.5-.2 3.8-.2.9-1.1 2.3-2 2.5-2.3.9-4.5 1.6-6.8 2.3-1.8.5-2.9-.7-3.6-2-.5-.9-.2-1.8.7-2.7.5-.5.2-1.8.5-2.7 1.4-2.9 3.8-5 6.3-6.5 1.1-.7 2.3-.9 3.4.2.5.5.7.9.7 1.4.6 1.5 1 2.6 1 3.7.3 0 .3 0 0 0zM304.1 90.2c0-4.1.7-7.7 1.8-11.1.2-.5 1.1-.9 1.6-.9 1.4.2 2.7 1.1 2.5 2.5-.5 2.3-1.6 4.5-2.7 6.5-.5 1.2-1.8 1.9-3.2 3zM284.5 213.7c2.7-5.2 3.6-10.8 8.4-14.7 2.3-1.8 3.6-1.4 4.7 1.1 2.5 5.4-2.3 12.9-6.8 14.9-.2.2-.9.2-1.1 0-1.4-1.6-2.9-1.1-4.5-.9-.3-.2-.3-.4-.7-.4zM279.5 184.6c0-2-.2-3.6 0-5.2.5-2.5 1.4-5.2 2.3-7.7.5-1.1 1.4-2.3 2-3.2.5-.7 1.8-1.4 2-1.4.7.7 1.6 1.6 1.6 2.5.2 1.4-.2 2.9-.7 4.3-.2 1.4-.9 2.5-1.1 3.8-.9 3.7-3.2 5.3-6.1 6.9zM193.1 160.7c.2-2 0-4.3.5-6.3.7-2.7 1.6-5.2 2.7-7.7 1.1-2.3 3.4-2.7 5.4-2.9.5 0 1.1.2 1.4.7 2 2.7 4.3 5.6 4.3 9.5 0 2-.5 2.7-2.5 2.7-3.6.2-6.8 1.8-9.7 3.6-.5.2-.9.5-1.4.9-.3-.3-.5-.5-.7-.5zM196.2 168.3c1.4-6.1 2.9-7.2 7.9-6.3 0 5.2-4 7.2-7.9 6.3zM212.5 245.8c-1.1-4.7.7-9.5 2-14.4.2-1.1 1.4-2.9 2.5-3.2 2.3-.7 5-.7 7 1.4 2 1.8 2.7 4.3 3.4 6.8.9 3.8 1.6 7.9 2.3 11.7.2 1.8 0 3.6-.7 5.4-.9 2.9-3.6 4.3-6.3 5.2-3.2.9-5.4-.5-7.7-2.7-2.8-3.2-2.3-6.6-2.5-10.2zM239.1 133.8c0 3.6 0 7-2 10.2-1.1 1.8-2.5 2.3-4.1 1.4-.7-.5-1.6-1.4-1.6-2 .5-4.3.2-8.8 2.3-12.9 1.1-2.3 1.8-2.5 3.6-.7.9.9 1.6 2.3 2.3 3.4 0 .4-.3.4-.5.6zM325.3 198.4c4.5 1.8 5.4 4.7 5 7.7-.5 3.2-4.7 5-8.6 6.8-.7-2.7-.2-5.6.7-8.4.5-1.6 1.1-3.2 1.8-4.7.2-.5.9-1 1.1-1.4zM279.1 124.5c.2 2.7.9 5.4.9 7.9-.2 3.2-.9 6.5-1.6 9.7-.2 1.4-1.1 2.5-2 3.6-1.4 2-3.4 2.5-5.6 1.8-1.8-.5-2.7-2.3-3.2-4.1-1.4-5-1.4-9.9.2-14.9.2-.9.5-1.8.9-2.7 1.1-4.3 2.9-5.4 7.2-5.2.5 0 .9 0 1.4.2 2 .2 2.3.5 2.3 2.5-.3.6-.3.8-.5 1.2.2-.2 0 0 0 0z"/></svg>