<?xml version="1.0" encoding="utf-8"?>
<!-- Generator: Adobe Illustrator 25.2.1, SVG Export Plug-In . SVG Version: 6.00 Build 0)  -->
<svg version="1.1" id="Layer_1" xmlns="http://www.w3.org/2000/svg" xmlns:xlink="http://www.w3.org/1999/xlink" x="0px" y="0px"
	 viewBox="0 0 500 500" style="enable-background:new 0 0 500 500;" xml:space="preserve">
<g>
	<path d="M398.5,288.1c-0.4,2-0.7,3.8-1.1,5.6c-0.8,0-1.6,0.1-2.2,0.1c-2.4,0-4.8,0-7.2-0.2c-3.1-0.4-6.4-0.1-9.5-0.1
		c-1.2,0-2.4-0.4-3.6-0.5c-1.1,0-2.3,0.2-3.4,0.2c-10.1-0.4-20.2-0.8-30.3-0.6c-6.5,0.1-13.1,0.5-19.6,0.7c-0.7,0-1.4,0.1-2,0.5
		c-1.1,0.6-2.2,0.6-3.4,0.6c-6.7-0.4-13.5-0.1-20.2,0.1c-4.8,0.2-9.5,0.6-14.3,0.2c-0.7,0-1.4,0-1.8-0.7c-0.4-0.6-1-0.5-1.4-0.5
		c-2.5,0-5.2-0.1-7.7,0.1c-2,0.1-3.7-0.6-5-1.9c-2.2-2.2-5-3.2-7.4-5c-0.6,1-0.4,1.7-0.5,2.4v2.9c0,1.1-0.6,1.7-1.6,1.8
		c-0.2,0-0.5,0.1-0.8,0.1h-11.2c-1.7,0-3.4-0.2-4.9,0.5c-0.5,0.2-1.2,0.1-1.8,0.1c-1.4,0-2.9,0.1-4.2,0c-6.2-0.5-12.4,0.1-18.5,0.2
		c-1.4,0-3,0-4.3-0.1c-3.2-3-7.1-5-10.3-7.7c-3.2-2.6-6.7-5-10-7.6c-0.8,0.7-0.7,1.3-0.7,1.9c-0.1,2.8-0.1,5.5-0.1,8.2
		c0,1.9-0.5,2.5-2.4,2.8c-1,0.1-1.9,0.2-2.9,0.2c-4.6,0-9.1-0.1-13.8-0.2c-1.4,0-2.8-0.2-4-1.2l-0.4-0.4c-1.3-0.7-2.8-1.7-4.2-1.4
		c-1.1,0.1-2,1.1-3,1.7l-2.2,1.4c-2,1.6-4.4,2-7,2c-3.2,0.1-6.5-0.1-9.7-0.8c-4.4-1-8.5-2.9-11.4-6.7c-0.6-0.8-1.3-1.6-2.2-2.5
		c-2,1.4-4.2,2.5-5.8,4.2c-0.2,0.2-0.5,0.6-0.7,0.7c-2.9,1.6-5.5,3.6-8.5,4.7c-1,0.4-1.9,0.6-2.8,0.7c-4.2,0.2-8.5,0.4-12.7-0.2
		c-3.6-0.5-6.8-1.9-9.9-3.6c-2.2-1.2-4.1-2.6-5.8-4.7c-1.9-2.4-4.4-4.2-6.6-6.5c-1.9-1.9-3.7-4.1-5.3-6.2c-1.8-2.3-3.2-4.8-4.9-7.2
		c-0.1-0.2-0.2-0.5-0.4-0.8c1.2-1.6,2.9-2.5,4.3-3.8c1.4-1.4,3-2.8,4.6-4.1c1.4-1.3,2.9-2.6,4.2-4l4.2-4.2c0.4,0.2,0.7,0.5,1.2,0.8
		c2.3,1.6,4.4,3.2,7.2,3.8c0.6,0.1,1.1,0.6,1.7,0.8c0.4,0.1,0.8,0.1,1.4,0.2c0-0.7,0.2-1.4,0-1.9c-0.5-1.3-1-2.6-1.7-3.8
		c-2.2-3.4-4.3-6.6-6.5-10c-0.5-0.8-0.8-1.8-1.2-2.6c-1.1-2.4-3.1-4-5-5.8c-0.8-0.8-1.6-1.7-2.2-2.6s-1.3-1.9-1.9-2.9
		c-1.3-2.2-2-4.4-2.8-6.8c-1.6-5.4-2.9-10.8-2.9-16.3c0-1.7,0.1-3.4,0.1-5c0.1-3.8,1.6-7.2,3.5-10.5c0.8-1.4,2.2-2.6,3.4-3.7
		c2.6-2.4,5.5-4.3,8.9-5.5c0.6-0.2,1.2-0.4,1.8-0.4c3.5-0.2,6.8-0.4,10.3-0.5c3.2,0,6.2,0.8,9,2.6c0.8,0.6,1.8,1,2.8,1.6
		c1.3,0.7,2.5,1.4,3.5,2.8c0.8,1.1,2,1.9,3.1,2.9c3.8,3.6,7.7,7.3,11.2,11.3c0.6,0.7,1.2,1,2,1c1.6,0.1,3.1,0.2,4.8,0.2
		c6.5,0.1,12.9,0.1,19.3,0.2c6.4,0,12.7,0,19.1,0.1c2.3,0,4.6,0.4,6.8,0.6c0.2,0,0.6,0,0.7,0.1c3.2,1.4,6.7,2,9.5,4.6
		c1.2,1.1,2.6,1.9,4.3,2.5c0.7-2.3-0.1-4.6,0.5-6.6c0.7-0.7,1.7-0.6,2.5-0.6c2.3,0,4.6,0.2,6.8,0.2c6.4,0,12.7,0.2,19.1-0.2
		c0.5,0,1.1,0,1.6-0.1c3.6-0.8,7.2-0.7,10.8-0.7c2.4,0,4.8,0,7.2-0.1c2-0.1,4.1,0.1,6,0.7c2.8,0.8,5.6,1.6,8.3,2.9
		c0.1,0.1,0.4,0.1,0.5,0.1c3.5,0.6,6.1,3,9.3,4.3c0.6,0.2,1,0.7,1.4,1.2c1.1,1.1,2.3,1.9,3.5,2.6c0.8-0.2,0.8-0.8,0.8-1.3v-6.4
		c0-0.2,0.1-0.5,0.1-0.8c1.2-0.5,2.5-0.5,3.8-0.4c3.1,0.4,6.1,0.7,9.3,1.2c2.3,0.4,4.2,1.3,5.8,3c0.5,0.6,1.2,1.1,1.9,1.7
		c0.8-1.4,0.5-2.9,0.7-4.2c0.1-1.3,0.2-2.6,0.2-4c0.6-0.7,1.4-0.5,2.2-0.5c5.9-0.4,11.9-0.6,17.8-0.2c11.7,0.5,23.3,0.6,35,0.6
		c6.2,0,12.4,0.8,18.3,2.5c2.5,0.7,5,1.6,7.4,2.8c2.4,1.2,4.7,2.9,7,4.3c0.4,0.2,0.7,0.5,1.2,0.8c0.1-0.5,0.4-0.7,0.4-1
		c0.1-2.2,1.2-4,2.3-5.5c1.3-1.9,3.1-3.6,4.9-5.2c1.6-1.3,3.5-1.9,5.6-1.8c4.3,0.1,8.7-0.2,13,0.4c1.7,0.2,3.1,0.8,4.7,1.7
		c3.5,2,6.5,4.6,8.8,7.9c1.7,2.4,4.1,4.2,6.1,6.1c1.1,1.1,2.3,1.9,3.4,2.9c1.9,1.6,2.9,3.7,3.4,6.1c0.7,3.8,1.4,7.8,1.9,11.8
		c0.5,3.7,1.1,7.6,1.3,11.3c0.6,9.6,0.4,19.2-2.4,28.6c-0.2,0.7-0.4,1.6-0.5,2.3c-0.5,3-1.7,5.5-3.8,7.7c-0.8,0.8-1.6,1.7-2.2,2.6
		c-1.9,2.8-4.7,4.4-7.7,5.9c-2.6,1.3-5.3,1.3-8,1c-4.3-0.4-8.3-1.7-11.9-4C399.8,288.6,399.3,288.5,398.5,288.1 M123,205.2
		c-1.3-2.9-3.4-5.5-5.3-7.4c-1.1-1.1-2.3-1.7-3.7-1.8c-1.3,0-2.4-0.4-3.6-1c-1.9-0.8-3.8-1.3-5.9-1.3c-4.4,0-8.5,1.6-12,4.2
		c-1.8,1.3-3.2,3-4.7,4.7c-0.6,0.6-1.1,1.4-1.4,2.2c-1,2-1.9,4.2-2.9,6.2c-0.5,1.1-0.7,2.2-0.8,3.4c-0.1,2.2-0.1,4.4,0,6.6
		c0.1,1.7,0.5,3.4,1,4.9c0.4,1.1,1,2,1.4,3.1c1.2,2.6,2.8,5.2,4.8,7.2c0.6,0.6,1.1,1.2,1.6,1.8c1.6,2.5,3.7,4.7,5.5,7.1
		c1.3,0.6,1.6,2,2.5,3c1.7,1.8,3.5,3.5,5,5.4c2,2.4,4,5,4.2,8.4c0.2,2.9,0.4,5.9-0.4,8.6c-0.2,0.8-0.5,1.7-1,2.5
		c-0.7,1.3-1.9,2-3.5,1.8c-0.6-0.1-1.2-0.1-1.8-0.1c-2.5,0.1-4.9-0.5-7.1-1.9c-1.8-1.2-3.4-2.5-5.2-3.7c-2.2,1.3-7.7,7-9.1,9.7
		c2.2,1.9,4.1,4.3,7,5.4c0.4,0.1,0.7,0.5,1.1,0.7c1.7,1.3,3.7,2,5.8,2.5c2.2,0.5,4.3,0.6,6.6,0.8c7.3,0.5,13.2-2.6,18.1-7.8
		c1.7-1.8,3-4,3.7-6.4c0.2-0.8,0.7-1.6,1.1-2.4c0.6-1.3,1.3-2.8,1.3-4.2c0-3,0-6-0.7-8.9c-0.5-2-0.8-4.2-1.7-6.1
		c-1.3-2.9-2.8-5.6-4.6-8.4c-3.1-4.8-7.4-8.8-10.8-13.3l-0.4-0.4c-1.7-1.7-3.5-3.2-5-5c-1.2-1.3-2.2-2.8-3.2-4.2
		c-0.8-1.2-1.4-2.6-1.4-4.2c-0.1-2.3,0.4-4.2,2.5-5.4c0.8-0.5,1.6-1.1,2.4-1.6c0.6-0.4,1.2-0.6,1.9-0.8c0.8-0.4,1.8-0.2,2.5,0.5
		c1.3,1.2,2.6,2.4,4,3.5c0.8,0.6,1.3,1.7,2.6,1.9C116.5,211.6,119.2,207.8,123,205.2 M131.5,217.8c-0.8,4.1-1.6,7.9-1.9,11.8
		c-0.6,5.5-0.6,11.2-0.1,16.7c0.2,3.1,0.2,6.1,0.2,9.3c0,4.4,0,8.9,0.2,13.2c0.2,4,1.1,7.8,3.1,11.4l2.5,4.3
		c0.5,0.8,1.2,1.4,1.9,2.2c1.9,1.9,4.3,2.3,6.8,2.5c5.8,0.6,10.8-1.1,15.4-4.6c3.7-2.9,5.8-6.6,6.5-11.2c0.1-1.1,0.4-2,0.6-3.1
		c0.8-3.8,1.4-7.8,1.7-11.8c0.5-11.5,0-22.9-1.1-34.5c-0.2-1.9-0.2-3.8-0.5-5.8c-0.1-1.3-0.7-1.8-1.9-1.6c-2.9,0.5-5.8,0.5-8.8,0.4
		c-0.7,0-1.3,0.1-2.2,0.2v1.7c0.2,2.9,0.6,5.8,0.6,8.8c0.1,6.4,0.2,12.7-0.5,19.1c-0.1,0.8,0,1.8,0.1,2.6c0.7,4.3,0.4,8.6-0.1,13
		c-0.1,1.6-0.5,3.1-0.8,4.7c-0.1,0.8-0.5,1.6-1.3,1.8c-1.7,0.6-3.4,1-5,0.7c-0.2-0.4-0.4-0.5-0.5-0.7c-2-5-3.4-10.2-3.4-15.7
		c0-6.4,0.1-12.7,0.4-19.1c0.1-4.4,0.5-8.8,0.2-13.2c-0.1-1.1-0.1-2.2-1-3.1C139.1,217.7,135.5,217.5,131.5,217.8 M357.4,214.9
		c-0.1,1.4-0.1,2.6-0.5,3.7c-0.2,1-0.4,1.9-0.2,2.9c0.6,4.9,0.7,9.9,0.6,14.8c-0.1,6.5-0.4,13.1-0.4,19.6
		c0.1,10.5,0.4,20.8,0.6,31.2c0,0.4,0.2,0.8,0.4,1.2c2.8,0.1,5.4,0.2,8,0.2c1.1,0,2.2-0.1,3.2-0.6c0.1-0.5,0.2-1.1,0.2-1.6
		c0.1-2.8,0.4-5.6,0.4-8.4c-0.1-5.9-0.4-11.8-0.6-17.8c0-0.7,0.1-1.6,0.1-2.3c0.8-0.4,1.3,0,1.8,0.5c2.4,2.3,4.6,4.7,5.6,7.8
		c0.1,0.4,0.2,0.6,0.5,1c1.6,2.9,2.3,5.9,2.4,9.1c0.1,2.8,0.1,5.6,0.1,8.5c0,0.6,0.1,1.2,0.1,1.9c2.3,0.1,4.3,0,6.5,0.1
		c2.2,0.1,4.3,0.5,6.6,0.7c0.1-0.5,0.1-0.7,0.2-1.1c0.1-2.9,0.1-5.6,0.2-8.5c0-0.5,0-0.8-0.1-1.3c-1-5.5-2.4-10.8-4.7-16
		c-0.5-1.2-1-2.5-1.7-3.6c-1-1.8-2.4-3.2-4.2-4.3c-1.8-1.2-1.8-2.4-0.2-3.8c0.4-0.4,0.7-0.6,1.1-0.8c1.9-1.7,3.7-3.5,5.2-5.6
		c1.6-2.3,3.2-4.7,3.2-7.7c0-1.7,0.1-3.4,0-5c-0.1-3.1-1-5.8-2.9-8.3c-2-2.6-4.4-4.3-7.6-5c-0.8-0.2-1.7-0.4-2.5-0.6
		c-1.1-0.2-2.3-0.4-3.4-0.8C369.6,213.3,363.6,214,357.4,214.9 M304.9,288.6c3.6,0.5,7,0.6,10.3,0.5c1.4,0,2.2-1,2.3-2.5
		c0.1-1.8,0.1-3.5,0-5.3c-0.1-5.3-0.4-10.6-0.5-15.9c-0.1-4.4,0-8.9,0.1-13.2c0-0.8,0.1-1.8,0.1-2.6c0.2-3,0.6-6,0.7-9
		c0.1-4.6,0.1-9.3,0.1-13.8c0-2.9,0-5.9-0.7-8.6c-1-1.2-2.3-1.2-3.6-1c-2.8,0.4-5.4,0.6-8.2,1c-0.4,0-0.7,0.2-1.2,0.4
		c0.4,6.1,1.2,12.1,0.7,18.1c-2.2,0.8-4.3,0.8-6.6,0.8c-1-1.4-1.6-2.9-1.4-4.6c0.1-1.4,0.2-3,0.2-4.4c0.1-3,0.1-6,0.1-9
		c0-0.5-0.2-1-0.4-1.7c-4.3,0.4-8.4-0.8-12.7,0.4v2.3c-0.1,4.9-0.2,9.9-0.5,14.9c-0.2,5.3-0.6,10.6-1,15.9c-0.1,1.7,0,3.4-0.1,5
		c-0.2,3.8-0.4,7.6,0,11.4c0.1,1.1,0,2.3-0.1,3.5c-0.2,2.5-0.4,4.9,0.1,7.3c0.5,2.5,0.7,5,0.5,7.7c0,0.6-0.1,1.2,0,1.8
		c0,0.5,0.2,1,0.5,1.4c1.9,0.1,3.8,0.4,5.6,0.4c1.9,0,3.8,0.2,5.6-0.6c0.7-1.7,0.6-3.4,0.4-5c-0.2-2.4-0.1-4.8,0.1-7.1
		c0.2-3.6,0.5-7.2,0.8-10.8c0.4-3.8,0.7-7.7,1.1-11.7c0-0.5,0.4-1,0.5-1.4c2.3-0.1,4.3-0.7,6.6-0.2v2.8c0.1,2.2,0.1,4.2,0.2,6.4
		c0.1,2.2,0.6,4.2,0.7,6.2c0.2,6.4,0.4,12.7-0.7,19C304.8,287.4,304.9,287.9,304.9,288.6 M266.7,254.6c0.2-0.1,0.5-0.5,0.7-0.5
		c3-0.8,4.9-2.9,6.7-5.3c0.2-0.2,0.4-0.6,0.6-0.8c2.4-2.8,3.4-6.1,3.7-9.7c0.2-3.2,0-6.5-0.1-9.7c-0.1-2.5-1-4.7-2-6.7
		c-0.6-1.1-1.3-2-2.6-2.5c-1.8-0.6-3.6-1.4-5.4-2c-1-0.4-2-0.5-3.1-0.6c-2.5-0.1-5-0.5-7.7-0.1c-0.5,0.1-1.1,0.1-1.6,0
		c-2.6-0.6-5.3-0.4-7.9-0.4c-1.8,0-3.5,0.4-5.3,0.6c-0.7,0.1-1,0.7-1,1.4c0,0.2,0,0.6,0.1,0.7c1.1,2.3,1.2,4.8,1.2,7.2
		c0.1,5.3,0.2,10.6,0.2,15.9c0,7.6-0.1,15.1-0.1,22.8c0,7.1-0.1,14.2-0.1,21.3c0,0.5,0,1.1,0.1,1.6c0.1,0.8,0.6,1.3,1.3,1.4
		c0.7,0.1,1.6,0.1,2.4,0.2c0.7,0.1,1.6-0.1,2,0.2c1.4,1,2.8,0.4,4.1,0c1.2-0.2,1.6-0.8,1.6-2c0-1.4-0.1-3,0-4.4
		c0.1-4.6,0.1-9.1,0.2-13.8c0-2.5,0.6-4.9,1.2-7.2c1.3-0.4,2.3,0.1,3,0.8c1,1,1.8,1.9,2.6,2.9c2.5,3.1,4.7,6.4,5.5,10.5
		c0.5,2.3,0.8,4.6,1.2,6.7c0.2,1.1,0.5,2.3,0.6,3.4c0.2,1.1,0.4,2.2,0.6,3.5c1.8-0.1,3.5-0.2,5.2-0.4s2.4-0.7,2.8-2.3
		c0.1-0.4,0.1-0.7,0.1-1.1c0.4-4.7,0.1-9.4-1.4-13.8c-0.1-0.4-0.2-0.8-0.4-1.3c-0.4-2.6-1.4-5.2-3-7.3c-2-2.9-4-5.8-6.4-8.3
		C266.7,255.2,266.7,254.9,266.7,254.6 M394.3,246.5H394v4.6l0.4,7.2c0.5,6.8,2.6,13.1,5.5,19.2c1.8,3.7,4.8,6.2,8.6,7.8
		c3.7,1.6,7.6,1.3,11.4,0.7c0.7-0.1,1.3-0.5,1.9-0.8c3.6-1.9,5.9-4.9,7.6-8.5c1.4-3.1,2-6.6,2.9-9.9c0.4-1.3,0.5-2.8,0.7-4.2
		c0.6-4.1,0.5-8.3,0.5-12.5c0.1-5.2-0.1-10.2-1-15.3c-0.6-3.6-1.4-7.1-2.9-10.5c-0.4-0.8-0.8-1.7-1.4-2.5c-2.4-3.4-6-5.2-9.9-6.2
		c-3.7-1.1-7.6-0.8-11.3-0.7c-0.8,0-1.7,0.4-2.5,0.7c-3,1.4-4.9,4-6.4,6.8c-1.1,2.3-1.8,4.6-2.4,7c-0.8,3.2-1.4,6.6-1.4,10
		C394.4,241.7,394.4,244.1,394.3,246.5 M187,260.8c0.8-0.1,1.6-0.2,2.2-0.2c1.9,0,3.7-0.5,5.3-1.3c1.9-1.1,3.8-2.2,5.6-3.4
		c2.2-1.4,3.7-3.5,4.8-5.9c0.6-1.3,1.3-2.6,2.2-4c1-1.6,1.4-3.1,1.6-5c0.2-4.6-0.2-9.1-1.2-13.7c-0.2-1.1-0.8-2.2-1.3-3.1
		c-0.4-0.7-1-1.4-1.4-2.2c-1.3-1.9-2.6-3.7-4.9-4.6c-0.4-0.1-0.8-0.4-1.1-0.7c-2.3-1.8-5.2-2.3-7.9-2.8c-3.7-0.7-7.6-0.6-11.4-0.5
		c-2,0.1-4,0.5-6,0.7c-0.8,2-1,4.1-1,6.2c0,4.9,0.1,9.9,0.1,14.8c0,0.8,0,1.8-0.1,2.6c-0.7,6.1-0.6,12.4-0.7,18.5
		c0,5.5,0.1,11.2-0.1,16.7c-0.2,4.3-0.2,8.6,0,13c0,0.6,0.2,1.2,0.2,1.7c3.8,0.2,12.1-0.1,13.8-0.6c0.4-2.8,0.2-5.8,0.5-8.6l0.7-9
		C186.9,266.7,186.9,263.8,187,260.8 M346.9,254.7c-0.5-4.3-0.4-8.4-0.4-12.5c0-0.4-0.1-0.8-0.2-1.3c-4-0.6-8,0.1-12-0.6
		c-0.1-0.8-0.4-1.7-0.4-2.4c0-3.1,0.1-6.4,0.1-9.6c0.8-0.1,1.6-0.2,2.2-0.2c4.1-0.1,8.2-0.1,12.1-0.2c0.8,0,1.8-0.1,2.6-0.2
		c0.8-0.1,1.3-0.7,1.2-1.4c-0.2-2.8-0.6-5.6-1-8.4c-0.1-0.6-0.4-1.1-0.6-1.7c-2.6-0.4-5.3-0.7-7.7-0.2c-2.8,0.6-5.6,0.6-8.4,0.6
		c-4,0-7.9,0-11.9,0.1c-0.6,0-1.1,0.2-1.7,0.4c0.1,3.2,0.4,6.1,0.4,9.1l0.4,19.3v15.4c0.1,4.9,0.4,9.9,0.5,14.8
		c0.1,3.7,0.1,7.4,0.1,11.2c0,0.6,0.2,1.2,0.2,1.7h27.8c0.1,0,0.4-0.1,0.5-0.2c0.6-3.5,0.4-7.1,0-10.6c-1-0.8-1.9-0.7-2.9-0.7
		c-3.2,0.1-6.5,0.1-9.9,0.2c-1.1,0-2,0.2-3-0.1c-1.1-1.1-1.3-2.4-1.3-3.7v-15.1c0-0.8,0.1-1.7,0.2-2.4c1-0.7,1.9-0.6,2.8-0.6h8.2
		C345.6,254.8,346.2,254.8,346.9,254.7 M233.6,254.1c0.4-3.2,0.2-9.3-0.2-10.8h-10.7c0-0.1-0.2-0.5-0.2-0.8
		c-0.4-4.8-0.7-9.5-1.1-14.3c0-0.4,0.1-0.8,0.1-1.2c0.4-0.1,0.6-0.1,0.8-0.2c3.5,0,7.1,0,10.6-0.1c0.5,0,1.1,0,1.6-0.1
		c0.7-0.1,1.3-0.6,1.4-1.4c0.1-0.6,0.1-1.2,0.1-1.8v-4.6c0-0.7-0.1-1.6-0.1-2.5c-1,0-1.7-0.1-2.4-0.1c-2.2,0-4.4,0.1-6.6,0.2
		c-3.6,0.1-7.2,0.1-10.8,0.2c-1.4,0-2.8,0.1-4.2,0.6c-0.1,0.6-0.2,1.1-0.2,1.6c-0.4,5.8-0.5,11.7-0.4,17.5c0.1,2.3,0,4.6,0,6.8
		c0,1.4-0.1,3-0.1,4.4c0,6.5,0.1,13.1,0.1,19.6c0,3.8-0.2,7.6-0.5,11.4c-0.1,2.5-0.4,4.9-0.5,7.4c-0.1,1.7,0.4,2.3,2,2.3
		c1.2,0.1,2.3,0.1,3.5,0.1c6.2,0,12.4,0.4,18.5,1.1c0.4,0,0.6-0.1,1.2-0.1v-5c0-1.7,0.5-3.4-0.4-5c-1.2,0-2.3,0-3.5-0.1
		c-1.8-0.1-3.5-0.1-5.3-0.2c-0.5,0-1.3-0.2-1.4-0.6c-0.5-1.2-1.7-1.1-2.5-1.6c0-0.6-0.1-1.1,0-1.4c0.6-3.4,0.5-6.8,0.4-10.3
		c-0.1-2.5,0.1-5.2,0.1-7.7c0-1,0.2-1.8,1.1-2.3c0.8-0.5,1.7-1,2.6-1h4.2C232,254.1,232.7,254.1,233.6,254.1 M405.2,202.2
		c0,0,0.1,0,0.1-0.1H405C405.1,202.1,405.1,202.1,405.2,202.2"/>
	<path d="M409.9,144.3c0.1,1.3,0.1,2.3,0.2,3.2l0.7,7.9c0.2,3.5,0.2,6.8-0.2,10.3c-0.4,2.8-0.2,5.6-0.2,8.4v9c0,0.6-0.1,1.2-0.2,1.8
		c-0.4,1.7-0.7,3.4-1.1,5.4c-0.2,0-0.7,0.2-1.3,0.2l-28.4,0.4c-1.7,0-3.4,0.4-5,0.5c-0.8,0.1-1.6,0.1-2.4,0.1H364
		c-1.9,0-3.8,0.1-5.8,0.2c-1.6,0.1-3.1,0.1-4.8,0.1c-2.4,0-4.8-0.1-7.2,0c-3.2,0.1-6.4-0.2-9.5-0.6c-2-0.2-4.1-0.4-6.1-0.4
		c-8.3,0-16.6,0-24.9,0.1c-2.8,0-5.5,0.2-8.2,0.4c-0.7,0-1.4,0.1-2-0.2c-1.3-0.6-2.8-0.6-4.2-0.6c-9.7,0-19.5,0-29.2,0.1
		c-7.2,0-14.3,0.2-21.5,0.4c-1.6,0-3.1,0.2-4.8,0.2c-3.8,0-7.6-0.2-11.4-0.2h-17.2c-1.3,0-2.5-0.1-3.8-0.5c-1.6-0.5-3.4-0.6-4.9-0.6
		c-4,0-7.9,0.2-11.9,0.2c-4.8,0.1-9.7,0.1-14.5,0.1c-12.3,0.1-24.6,0.1-36.9,0.1c-1.6,0-3.1,0.1-4.8,0.2H128
		c-0.1-0.7-0.2-1.3-0.2-1.9c-0.2-5.8-0.2-11.7-0.7-17.4c-0.7-7.2-0.5-14.7-0.7-22.1v-4.1c0.5-0.1,1-0.2,1.4-0.2
		c5.4-0.4,10.8-0.1,16.1,0.4c8,0.7,16.1,1,24.1,0.7c3.6,0,7.2,0,10.8-0.2c4.3-0.2,8.6-0.6,13-0.7s8.6-0.2,13,0
		c5.9,0.4,11.7,0.4,17.5,0.4c8.4-0.1,16.8-0.4,25.2-0.6c4.4-0.1,9-0.4,13.5-0.4c12.5-0.1,25.1-0.2,37.6-0.2h58.6
		c13.9,0,27.9,0.1,41.9,0.1c2.9,0,5.6-0.1,8.5-0.1L409.9,144.3 M131.3,188.6c2,0.4,3.7,0.1,5.4,0.1c4.4-0.1,8.9-0.2,13.2-0.2
		c2.2,0,4.4-0.1,6.6,0.6c0.4,0.1,0.8,0.1,1.3,0.1c2.8,0,5.5-0.1,8.2-0.1l7.9-0.4c9.9-0.1,19.8-0.1,29.7-0.2c14.9-0.2,29.9,0,44.8,0
		c1.7,0,3.4,0.4,5,0.5c0.6,0.1,1.2,0.2,1.8,0.1c1.4-0.2,2.8-0.1,4.2,0.1c1.2,0.1,2.5,0.2,3.7,0.2h22.6c2.9,0,5.9,0,8.8-0.1
		c2.2-0.1,4.2-0.4,6.4-0.4c7.7-0.1,15.4-0.1,23.1-0.1c5.8,0,11.5-0.1,17.2,0.4c2.2,0.2,4.4,0.4,6.6,0.5c2,0.1,4.1,0,6.1,0.5
		c0.6,0.1,1.2,0,1.8,0c1.2,0,2.5-0.1,3.7-0.1c5.5,0,11.2,0.1,16.7,0c3.7,0,7.4-0.4,11.2-0.5c5.6-0.2,11.3-0.4,16.9-0.4
		c1.6,0,2.9-0.4,4-1.4c0-1.6-0.1-3-0.1-4.3c-0.2-4.9,0.5-9.9-0.5-14.8v-0.8c0-2.9,0-5.6-0.1-8.5c-0.1-3.5-0.1-6.8-0.4-10.3
		c0-0.6-0.2-1.2-0.5-1.8c-2.8,0-5.4-0.2-8-0.1c-6.1,0.2-12.4,0.5-18.5,0c-8.3-0.6-16.6-0.7-24.9-0.6c-6,0-12,0-18,0.1h-7.7
		c-5.6-0.1-11.3,0.4-16.9,0.1c-1.8-0.1-3.5,0.1-5.3,0c-3.5-0.2-7.1,0-10.6,0.1l-20.9,0.4c-5.6,0-11.3-0.1-16.9,0
		c-5,0.1-10.1,0.4-15.1,0.5c-3.1,0.1-6.2,0.2-9.3,0c-2.5-0.1-5.2,0-7.7,0.1c-4.1,0.1-8.2,0.4-12.1,0.4c-4.4,0-9-0.2-13.5-0.5
		c-5.4-0.4-10.9-0.5-16.5-0.6c-9.5-0.2-19.1,0-28.6-0.2c-7.8-0.2-15.7-0.1-23.5-0.1c-1,0-1.9-0.2-3,0.4c0,0.5-0.1,1-0.1,1.4
		c0.2,3,0.4,6,0.6,9c0.1,1.4,0.4,2.8,0.6,4.2c0.2,2,0.5,4.1,0.6,6c0.1,1.4,0.1,3.1-0.2,4.4c-0.5,1.7-0.4,3.2-0.1,4.9l0.7,5.8
		C131.6,184.8,131.9,186.6,131.3,188.6 M213.9,147.3l0.1,0.1c0.1,0,0.4,0,0.5-0.1l-0.1-0.1C214.3,147.3,214.1,147.3,213.9,147.3
		 M220.2,333c-0.2,2.2,1.1,3.5,2.2,4.8c0.2,0.4,1,0.5,1.4,0.4c1.1-0.1,2.2-0.2,3-0.7c1.7-1.1,3.2-2.3,4.1-4.1
		c0.8-1.7,1.8-3.5,2.5-5.2c1.2-2.5,2.3-4.9,3.4-7.4l0.4-0.7c1.2-2.4,3.5-2.6,5.3-0.6c0.1,0.2,0.4,0.4,0.6,0.6
		c0.6-0.1,1.2-0.1,1.8-0.2c1-0.1,1.9-0.2,2.9-0.1c2.5,0.1,3.5,1.1,3.4,3.7c0,1.2-0.2,2.3-1.1,3.2c-1.6,2-2.3,4.3-3.4,6.6
		c-0.4,0.8-0.6,1.8-0.4,2.9c0.4,1.2,1.3,1.7,2.4,1.1c1.1-0.6,1.9-1.2,2.4-2.3c0.6-1.1,1.2-2.2,1.9-3.1c0.8-1.3,1.4-2.8,1.8-4.4
		c0.5-2,1-4.1,1.7-6.1c0.5-1.6,1.8-2.4,3.4-2.4c0.7,0,1.6,0.7,1.7,1.4c0.1,0.7,0,1.4-0.1,2c-0.7,3.2-1,6.5-0.7,9.7
		c0,0.1,0.1,0.2,0.2,0.5c0.5,0.2,0.8-0.1,1.2-0.4c0.8-0.8,1.7-1.6,2.3-2.5c1.1-1.7,2-3.5,3-5.4c-1.1-1.6-1.7-3.2-1.4-5.3
		c0.2-2.4,1-3.4,3.2-3.8c1-0.2,1.9-0.2,2.9-0.1c1.3,0.1,2.4,1,3.1,2.3c0.5,1,1.1,1.8,1.8,2.9c-0.1,0.4-0.2,1-0.5,1.6
		c-0.5,1.1-0.7,2.2-1,3.2c-0.4,1.3-0.8,2.6-1.6,3.8c-2.5,4.2-5.6,8-9.3,11.5c-1,1-2,1.7-3.1,2.5c-0.8,0.7-1.9,0.7-3,1
		c-0.4,0-0.7-0.1-1-0.2c-0.6-0.2-1.1-0.5-1.6-0.8c-1.2-1.6-1-3.5-1.4-5.4c-1.7,0.6-2.8,1.7-3.6,2.9c-0.6,1-1.4,1.6-2.4,2
		c-0.5,0.2-1.1,0.5-1.7,0.5c-1.1,0.1-2.3,0.2-3.4,0.4c-1.9,0.2-2.8-0.4-3.2-2.2c-0.4-1.1-0.7-2.2-1-3.2c-0.6-3-0.1-6,1.2-8.8
		c0.4-0.7,0.6-1.4,1-2.2c-0.5-0.6-1-0.5-1.4-0.1c-0.4,0.2-0.6,0.6-0.8,1c-1.2,2.2-2.3,4.3-3.5,6.5c-0.5,0.8-1.1,1.6-1.6,2.4
		c-3.2,4.4-3.4,4.6-8.5,6.6c-1.8,0.7-3.6,1.3-5.6,1.3c-2.8,0-4.6-1.3-5.8-3.5c-1-1.8-1.6-3.6-1.4-5.8c0.1-2.6,0.4-5.3,1-7.9
		c0.5-2.4,2-4.4,3.4-6.6c1.3-2,3.2-3.1,5.2-4.4c0.2-0.1,0.5-0.4,0.7-0.4c1.8-0.2,3.7-0.4,5.5,0.4c2.3,0.8,2.9,1.7,2.9,4.2
		c-0.1,2.6-1,5-2.5,7.2c-0.8,1.2-1.9,2-3.2,2.6c-1.6,0.7-3,1.4-4.6,2C220.8,332.5,220.6,332.8,220.2,333 M226.7,322.6
		c-0.7-0.6-1.1-0.2-1.6,0.1c-1.7,1.2-2.8,2.8-3.6,4.8c1.1,0.6,1.8,0,2.4-0.6C225.2,325.7,226,324.1,226.7,322.6 M327.8,334.6
		c3.1,1.1,2.8,1.8,1.7,4.1c-1.3,2.5-3,4.4-5.5,5.9c-2.8,1.7-5.5,1.4-8.3,0.1c-1.4-0.7-2.5-1.8-3.2-3.4c-0.2-0.6-0.6-1.1-1-1.7
		c-0.5,0.4-1,0.7-1.3,1.1c-1.6,1.7-3.5,2.3-5.6,2.5c-1.3,0.1-2.6,0.1-3.8,0.6c-0.5,0.2-1.2,0.2-1.8,0c-1.7-0.5-3.4-1.1-4.9-1.8
		c-1.8-0.8-3.4-0.8-4.9,0.2c-0.8,0.6-1.9,1-2.6,1.7c-1.3,1.3-2.9,1.6-4.6,1.4c-1.8-0.1-3.2-0.7-4.4-2c-1-1.1-1.6-2.3-1.7-3.7
		c0-1-0.1-1.9-0.4-2.9c-0.4-1.4-0.2-2.8,0.2-4.2c0.8-2.4,1.8-4.8,2.8-7.2c0.2-0.7,0.6-1.4,0.8-2.3c0.8-2.4,1.7-3,4.3-2.9
		c1.1,0.1,2.2,0.1,3.1,0.4c0.4,0,0.8,0.2,1.3,0.4c0.1,1.3-0.5,2.3-0.7,3.4c-1,3.7-1.9,7.4-3,11.3c-0.2,1-0.1,1.9,0.2,2.9
		c0.4,1.2,1.6,1.6,2.5,0.6c0.6-0.6,1.2-1.3,1.6-2c0.7-1.3,1.2-2.8,1.8-4.1c1.4-4.3,3.4-8.3,6.2-11.9c1.1-1.4,2.3-2.6,4.1-3.1
		c0.5-0.1,1-0.5,1.4-0.7c2.4-1.2,4.7-1.2,7.2-0.4c0.6,0.2,1.1,0.6,1.3,1.2c1.1,3.1-1.6,6.5-4.3,6.4c-0.4,0-0.7-0.1-1.1-0.1
		c-2,0-3.6,0.6-4.3,2.8c-0.5,1.4-1.3,2.9-1.9,4.3c-0.6,1.6-0.8,3.2-0.2,4.9c0.2,0.7,0.6,1.2,1.3,1.6c2.6,1.2,5.2,0.6,7.2-1.1
		c3.2-2.6,6-5.8,6.7-10.1c0.1-0.8,0.6-1.7,1.1-2.4c1.6-2.4,3.2-4.8,4.8-7.3c1.3-2.3,3.4-3,5.8-3.1c1.2,0,2.5,0.1,3.7,0.4
		c1.7,0.2,2.6,1.4,3.2,2.9c0.4,0.8,0.2,1.8-0.2,2.5c-2,3.4-4.2,6.7-6.7,9.7c-1,1.1-2,1.9-3.1,2.9c-1.1,1-2.2,1.8-3.2,2.6
		c-1.1,1-0.8,2.6,0.6,3.1c0.7,0.2,1.3,0.4,1.6,1.2c0.1,0.2,0.6,0.4,1,0.4c1.1,0,2.2-0.4,2.9-1.2s1.6-1.7,2.3-2.6
		C327.4,335.4,327.6,335,327.8,334.6 M325.2,320.8c-1.6-1.2-2.3-1.2-3.1,0.1c-0.7,1.2-1.6,2.4-2.2,3.6c-0.4,0.6-1,1.3-0.5,2.2
		C321.1,325.7,323.5,323.3,325.2,320.8"/>
	<path d="M213.2,312.1c0.8-3.1,1.6-6.1,0.8-9.4c-2-0.8-3.8-0.4-5.4,0.5c-1.6,0.7-2.6,2.2-3.1,3.8c-0.6,2.2-1.2,4.4-1,6.7
		c0.1,1.2,0.2,2.4,0.7,3.6c1.6,3.5,2.4,7.2,3,10.9c0.7,4.2,0.7,8.4,0.1,12.6c-0.2,2-1.1,3.7-2.2,5.3c-0.7,1.2-1.7,2.3-2.6,3.4
		c-1.4,1.4-2.9,2.9-4.6,4.1c-3.6,2.5-7.6,2.5-11.7,0.8c-1.8-0.7-3.1-1.9-4.1-3.6c-0.7-1.4-0.8-3.1-0.7-4.7c0.1-2.4,0.8-4.7,2-6.8
		c0.8-1.6,2-2.6,4.2-2.2c0,0.5,0.1,1,0,1.4c-0.1,0.7-0.4,1.3-0.5,2c-0.1,1.2-0.4,2.4-0.4,3.7c0.1,2.6,0.8,3.4,3.2,4.1
		c1,0.2,1.8,0.1,2.5-0.4c0.5-0.4,1.1-0.7,1.4-1.2c2.3-2.8,4.2-5.6,4.9-9.3c0.7-3.2,0.4-6.2-1.1-9.3c-1.3-2.8-2.5-5.6-3.6-8.5
		c-0.5-1.1-0.7-2.2-1-3.2c-1.1-3.6-0.1-6.8,1.8-9.9c1.3-2,2.8-4,4.7-5.4c3.8-3.1,8.3-4.6,13.3-3.7c2.3,0.4,4.3,1.7,6,3.2
		c0.6,0.5,1,1.6,1.1,2.4c0.5,2,0.4,4.1,0.1,6c0,0.5-0.4,1-0.7,1.3c-1.7,1.4-3.7,2.3-5.9,2.8C213.9,313.8,213.6,313,213.2,312.1
		 M92.2,335.2c-0.7-1.4,0.7-1.4,1.2-2c0.1-1.4-1.4-1.2-2.4-1.9c0.6-0.2,0.8-0.5,1.1-0.6c5.8-0.6,11.5-1.2,17.4-1.8
		c1.4-0.1,3-0.2,4.4-0.5c4.9-0.5,9.9,0,14.8-0.1c5.3,0,10.6-0.2,15.9-0.5c2-0.1,4.1-0.5,6-0.7c0.7-0.1,1.3,0,1.9,0
		c0.4,0.7,0,1.1-0.5,1.2c-1,0.2-1.9,0.5-2.9,0.6c-4.6,0.6-9.1,1.1-13.7,1.7c-4.7,0.6-9.5,1.3-14.2,1.9c-4.7,0.7-9.3,1.4-13.9,2
		c-1,0.1-1.9,0.1-2.9,0.1c-3.1,0.1-6.1,0.4-9.3,0.6C94.4,335.4,93.3,335.6,92.2,335.2 M413.6,321.4c0.4,1.2,0.6,2.3,1,3.4
		c-0.4,0.6-0.8,0.5-1.3,0.6c-4.7,0-9.4,0-14.1,0.1c-4.9,0-9.9,0.2-14.8,0.2h-6.1c-5.9,0.2-11.8,0.6-17.8,0.7
		c-3.7,0.1-7.6-0.1-11.3-0.2c8.4-1.7,16.9-2.5,25.5-3c3.7-0.2,7.4-0.6,11.1-0.8c8.3-0.6,16.6-1.6,24.9-1.3
		C411.7,321,412.7,320.9,413.6,321.4 M284.9,317.2c-0.4,0-1.3-0.1-2.3-0.2c-1.7-0.1-2.8-1.2-3.1-2.8c-0.2-1.1-0.4-2.3-0.5-3.4
		c0-0.2,0-0.6,0.1-0.7c1.6-2.4,3.2-4.7,6.6-4.7c1.9,0,3.7,0.2,5.3,1.3c1,0.6,1.6,1.3,1.9,2.4c1.2,3.8-2,7.8-5.5,8
		C286.7,317.3,286.1,317.2,284.9,317.2 M137.2,309.8c-0.1-1.4-0.1-2.6-0.2-4.1c0.4,0,0.7-0.1,1.1,0c3.1,0.8,6.2,1.7,9.4,2.6
		c0.4,0.1,0.7,0.1,1.1,0.2c4.2,1.7,8.3,3.4,12.5,5.2c1.6,0.7,3.4,1,4.8,2.2c1,0,1.9,0.1,2.5,1.1c0,0.5-0.5,0.5-0.7,0.5
		c-1.1-0.1-2.3-0.2-3.4-0.4c-8.2-1.2-16-3.8-23.8-6.1C139.2,310.6,138.3,310.2,137.2,309.8 M128.5,350c0.6-0.4,1-0.6,1.3-0.8
		c2.9-1,5.8-2.3,8.8-2.9c6.1-1.3,12.3-2.4,18.5-3.5c0.2,0,0.5-0.1,0.7-0.1c0.2,0.6-0.2,0.8-0.6,1c-0.7,0.4-1.4,0.6-2.2,0.8
		c-4.8,1.6-9.5,3.2-14.1,5.3c-2,1-4.2,1.8-6.4,2.8c-1.4,0.6-2.8,0.7-4-0.4C130.1,351.5,129.2,351.1,128.5,350 M393.8,307.4
		c0,1.1,0.1,1.9,0.1,2.8c-3.2,1.4-15.5,3.5-19.3,3.4c0.2-0.2,0.4-0.5,0.5-0.6C378.4,311.6,391.4,307.7,393.8,307.4 M394.8,344.6v2
		c-0.2,0.1-0.5,0.2-0.6,0.2c-7-1.7-14.1-3.5-21-5.3c-1-0.2-2-0.2-3.1-1.2c0.7,0,1.1-0.1,1.6,0C379.3,341.7,386.8,343.1,394.8,344.6
		 M369.8,224.2c4.1-0.2,6.6,1.2,8,4.6c0.1,0.4,0.2,0.7,0.4,1c1.6,3.7,0.4,6.8-2.4,9.5c-1.1,1.1-2,1.3-4.8,1.4
		c-0.6-1.8-0.1-3.6-0.4-5.4c-0.2-1.8-0.4-3.7-0.5-5.5C370,228,369.9,226.2,369.8,224.2 M257.2,242.9c-0.6-2.8-1.8-12-1.8-14.3
		c0-0.4,0.1-0.7,0.1-1c2.8-0.5,6,0,8,1c0.4,0.1,0.6,0.4,0.8,0.6c2.2,2.2,2.8,6.7,1.3,9.4c-0.1,0.2-0.4,0.4-0.5,0.6
		C262.7,243,263,243,257.2,242.9 M423.6,251.7c-0.1,4.6-0.4,9-1.9,13.3c-0.5,1.4-1.1,2.8-1.8,4.1c-0.5,1-1.2,1.8-1.9,2.5
		c-1.8,1.9-4.7,1.9-6.2-0.1c-1-1.2-1.8-2.6-2.4-4.1c-1.1-2.6-1.8-5.3-2.3-8.2c-0.5-3-1-5.9-1.1-8.9c-0.1-3.8,0.1-7.6,0.8-11.3
		c0.6-3.4,1.7-6.7,3.2-9.7c0.5-1,1.2-1.9,2-2.8c1.6-1.6,3.4-1.2,4.8,0.4c3.1,3.7,4.8,7.9,5.6,12.6
		C423.1,243.5,423.8,247.6,423.6,251.7 M186.8,247.7c-1-3.4-0.8-6.6-0.7-9.7c0.1-2.4,0.1-4.8,0.2-7.1c0-0.7,0.1-1.6,0.2-2.4
		c4-0.4,7.1,0.8,9.7,3.5c1.2,1.2,1.9,2.9,1.8,4.6c-0.1,1.8-0.4,3.5-0.7,5.2c-0.4,1.6-1.4,2.6-2.8,3.4
		C192.3,246.4,189.7,247.4,186.8,247.7 M203.9,156.9c3.1-1,8.2-0.6,10.8,0.6c0.4,0.2,0.8,0.4,1.1,0.7c2.3,1.7,2.9,4.2,1.3,6.7
		c-1.2,1.9-2.6,3.5-4.7,4.7c-0.2,4.2,0.1,8.3,1,12.4c-1.1,1-2.4,1.1-3.7,1.1c-0.8-0.6-0.8-1.6-1-2.4l-0.4-6.1v-1.8
		c0-0.8-0.5-1.3-1.1-1.3c-0.8-0.1-1.7,0.2-1.9,1.1c-0.2,0.7-0.4,1.3-0.5,2c-0.6,2.8-1.1,5.5-1.7,8.3c-1.3,0.6-2.5,0.4-4,0.2
		c0-0.6-0.1-1.2,0-1.8c0.8-4.8,1.8-9.7,2.6-14.5C202.7,163.5,203.3,160.3,203.9,156.9 M206.9,167.1c2,0,3.7-0.5,5-1.7
		c0.5-0.4,0.8-0.8,1.2-1.3c0.6-0.8,0.4-2-0.6-2.5c-1.4-0.7-3-1.4-4.7-1C206.7,162.9,206.5,164.8,206.9,167.1 M322.4,179.9
		c0.6-3.5,1.2-6.7,2.3-10c0.8-2.8,1.8-5.5,2.6-8.3c0.4-1.2,0.6-2.4,1-3.6c0.2-0.7,0.7-1.2,1.6-1.2c1.8,0.1,3.7,0.4,5.5,0.5
		c0.5,0,1,0.4,1.6,0.4c3.5,0.5,5.2,2.8,6,5.9c0.7,2.5,1,5-0.4,7.4c-0.2,0.5-0.4,1.2-0.6,1.8c-1.4,4-4.2,6.1-8.3,6.8
		c-3,0.5-6,0.6-9,0.5C323.9,180.2,323.3,180,322.4,179.9 M332.3,160.8c-1.7,3.7-4,12.1-4.2,15c3,0.8,6.6,0,8.6-1.8
		c0.8-0.8,1.4-1.8,1.7-3c0.5-2,0.4-4.2-0.2-6.2C337.3,161.6,335.9,160.5,332.3,160.8 M167,172.3c-1,3.5-1.8,6.8-2.8,10.3
		c-1.6,0.1-2.9,0.4-4.3-0.1c-0.2-1.1-0.1-2,0.2-2.9c1.1-3.8,1.8-7.7,2.5-11.7c0.2-1.1,0.5-2.3,0.8-3.4c0.8-2.4,1.3-4.9,1.7-7.4
		c0.1-1.3,0.5-1.7,1.8-1.8c1.7-0.1,3.4-0.1,5-0.1c1.6,0,3,0.5,4.3,1.2c1.8,1,2.8,2.4,2.9,4.4c0.4,4.2-1.4,7.6-4.7,10.1
		c-0.5,0.4-1.2,0.7-1.9,0.8c-1,0.2-1.9,0.2-2.9,0.2C168.9,172,167.9,172.2,167,172.3 M168.3,168c1.7-0.4,2.9-0.6,4.2-0.8
		c0.2,0,0.5-0.2,0.6-0.5c1.4-1.3,2-3.1,1.6-5c-0.6-2-1.4-2.5-3-2.3c-0.5,0-1.1,0.1-1.7,0.2C169.1,162.1,168.7,164.7,168.3,168
		 M252.9,165.7c-0.2,3.8-1,7.6-3,10.9c-0.5,0.8-1.1,1.6-1.7,2.4c-2.2,2.5-4.9,3-7.9,2.5c-1.2-0.2-2.3-1-3-2
		c-1.9-2.5-2.6-5.4-2.8-8.4c0-1.9,0.1-3.8,0.6-5.8c0.8-3.6,3-6.4,6.5-7.8c1.3-0.6,2.6-0.8,4.1-0.6c0.7,0.1,1.6,0.2,2.4,0.4
		c2,0.5,3.6,1.6,4.1,3.7C252.5,162.4,252.6,164.1,252.9,165.7 M238.5,169.3c0.4,1.8,0.4,3.6,1.3,5c1.6,2.5,3.7,2.8,5.8,1.2
		c2.2-1.7,3.4-3.8,3.6-6.5l0.4-4.7c0-0.5-0.1-1.1-0.5-1.4c-0.5-0.7-1.2-1.1-2-1.2c-2-0.4-4,0.4-5.9,1.2c-0.5,0.2-1,0.8-1.2,1.4
		C239.4,165.9,238.9,167.7,238.5,169.3 M276.1,180.6c-1.3,0.2-2.6,0.4-4,0.5c-0.8-1.1-1.1-2.2-1.2-3.2c-0.5-6.1-1.2-12.1-1.1-18.3
		c0-0.7,0.1-1.4,0.1-2.2c1.1-0.6,2.3-0.4,3.4-0.5c0.8,0.8,0.7,1.9,0.8,2.8l1.1,10.8c0,0.4-0.1,1,0.6,1.2c1-1.1,1.3-2.5,2-3.8
		c0.7-1.3,1.3-2.6,2-4c0.7-1.2,1.3-2.5,2-3.7c0.7-1.3,1.6-2.5,2.4-3.8c1.6-0.4,3,0.1,4.7,0.4c-2.2,4.2-4.3,7.9-6.5,11.8
		C280.4,172.5,278.3,176.4,276.1,180.6 M363.9,156.8h11.1c0.2,1.2,0,2.2-0.4,3.2c-2.2,1.1-4.6,0.4-6.8,1c-0.6,1.4-0.8,3-1.1,4.7
		c0.7,0.2,1.4,0.4,2.2,0.6c0,2.2-0.1,2.6-1,4.4c-1,0.1-2,0.2-3,0.4c-1.3,2.6-2,4.8-2.2,6.5c1.8,0.5,3.7-0.2,5.5,0.6
		c0.4,1.1-0.1,2-0.4,3c-2.3,0.5-9.4,0.6-11.4,0.1c0-0.4-0.1-0.8,0-1.2c0.7-2.4,1.4-4.7,2.3-7c1.6-4.3,3.2-8.6,4-13.2
		C362.9,158.8,363,157.7,363.9,156.8 M305.4,158.3c1.8-0.2,3.4-0.4,5-0.6c-0.1,2-0.8,3.6-1.4,5.2c-1.9,5-3.5,10.2-3.8,15.6
		c0,0.5-0.1,1-0.2,1.7c-1.6,0.4-3,0.5-4.6,0.2c-0.1-0.5-0.2-0.8-0.2-1.2c0.8-6.8,2.2-13.6,4.7-19.9
		C305,158.9,305.1,158.7,305.4,158.3"/>
</g>
</svg>
