<svg width="290" height="50" viewBox="0 0 290 50" fill="none" xmlns="http://www.w3.org/2000/svg">
<path d="M22.6563 18.75C22.6563 18.3185 22.3065 17.9688 21.875 17.9688C21.4435 17.9688 21.0938 18.3185 21.0938 18.75V21.875C21.0938 22.3065 21.4435 22.6563 21.875 22.6563C22.3065 22.6563 22.6563 22.3065 22.6563 21.875V18.75Z" fill="#434F58"/>
<path fill-rule="evenodd" clip-rule="evenodd" d="M25.7813 2.34375C21.4665 2.34375 17.9688 5.84153 17.9688 10.1563V10.2896C17.0584 10.6114 16.4063 11.4795 16.4063 12.5V23.4375C16.4063 24.7319 17.4556 25.7813 18.75 25.7813H32.8125C34.1069 25.7813 35.1563 24.7319 35.1563 23.4375V12.5C35.1563 11.4795 34.5041 10.6114 33.5938 10.2896V10.1563C33.5938 5.84153 30.096 2.34375 25.7813 2.34375ZM32.0313 10.1563C32.0313 6.70447 29.233 3.90625 25.7813 3.90625C22.3295 3.90625 19.5313 6.70447 19.5313 10.1563H32.0313ZM18.75 11.7188C18.3185 11.7188 17.9688 12.0685 17.9688 12.5V14.8438H27.3438V24.2188H32.8125C33.244 24.2188 33.5938 23.869 33.5938 23.4375V12.5C33.5938 12.0685 33.244 11.7188 32.8125 11.7188H18.75ZM17.9688 23.4375V16.4063H25.7813V24.2188H18.75C18.3185 24.2188 17.9688 23.869 17.9688 23.4375Z" fill="#434F58"/>
<path d="M3.14664 18.1741C3.66073 17.6601 4.35798 17.3712 5.085 17.3712H14.0625C14.494 17.3712 14.8438 17.721 14.8438 18.1525C14.8438 18.584 14.494 18.9337 14.0625 18.9337H5.085C4.77238 18.9337 4.47256 19.0579 4.2515 19.279C4.03044 19.5001 3.90625 19.7999 3.90625 20.1125V29.2003C3.90829 29.5128 4.03335 29.812 4.2544 30.0331C4.47547 30.2542 4.7747 30.3792 5.08728 30.3812H45.5627C45.8753 30.3792 46.1746 30.2542 46.3956 30.0331C46.6167 29.812 46.7418 29.5127 46.7438 29.2001V20.1125C46.7438 19.7999 46.6196 19.5001 46.3985 19.279C46.1775 19.0579 45.8776 18.9337 45.565 18.9337H37.5C37.0685 18.9337 36.7188 18.584 36.7188 18.1525C36.7188 17.721 37.0685 17.3712 37.5 17.3712H45.565C46.292 17.3712 46.9893 17.6601 47.5034 18.1741C48.0175 18.6882 48.3063 19.3855 48.3063 20.1125V29.2025L48.3063 29.2065C48.3026 29.9313 48.013 30.6254 47.5005 31.138C46.9879 31.6505 46.2938 31.9401 45.569 31.9437L45.565 31.9437H5.085L5.08105 31.9437C4.3562 31.9401 3.66209 31.6505 3.14955 31.138C2.637 30.6254 2.34743 29.9313 2.34376 29.2065L2.34375 29.2025V20.1125C2.34375 19.3855 2.63256 18.6882 3.14664 18.1741Z" fill="#434F58"/>
<path d="M30.515 42.0075C30.737 42.1558 30.998 42.235 31.2651 42.235C31.4427 42.2363 31.6189 42.2023 31.7832 42.135C31.9476 42.0676 32.097 41.9682 32.2226 41.8426C32.3482 41.7169 32.4476 41.5676 32.515 41.4032C32.5824 41.2388 32.6164 41.0627 32.6151 40.885C32.6151 40.618 32.5359 40.357 32.3875 40.135C32.2392 39.913 32.0284 39.7399 31.7817 39.6378C31.535 39.5356 31.2636 39.5089 31.0017 39.5609C30.7398 39.613 30.4993 39.7416 30.3105 39.9304C30.1217 40.1192 29.9931 40.3598 29.941 40.6216C29.8889 40.8835 29.9156 41.1549 30.0178 41.4016C30.12 41.6483 30.293 41.8591 30.515 42.0075Z" fill="#434F58"/>
<path d="M35.675 41.9975C35.897 42.1458 36.1581 42.225 36.4251 42.225C36.6027 42.2263 36.7789 42.1923 36.9432 42.125C37.1076 42.0576 37.257 41.9582 37.3826 41.8326C37.5082 41.7069 37.6076 41.5576 37.675 41.3932C37.7424 41.2288 37.7764 41.0527 37.7751 40.875C37.7751 40.608 37.6959 40.347 37.5475 40.125C37.3992 39.903 37.1884 39.7299 36.9417 39.6278C36.695 39.5256 36.4236 39.4989 36.1617 39.5509C35.8998 39.603 35.6593 39.7316 35.4705 39.9204C35.2817 40.1092 35.1531 40.3498 35.101 40.6116C35.0489 40.8735 35.0756 41.1449 35.1778 41.3916C35.28 41.6383 35.453 41.8491 35.675 41.9975Z" fill="#434F58"/>
<path d="M40.575 41.9975C40.7971 42.1458 41.0581 42.225 41.3251 42.225C41.5027 42.2263 41.6789 42.1923 41.8433 42.125C42.0076 42.0576 42.157 41.9582 42.2826 41.8326C42.4082 41.7069 42.5076 41.5576 42.575 41.3932C42.6424 41.2288 42.6764 41.0527 42.6751 40.875C42.6751 40.608 42.5959 40.347 42.4475 40.125C42.2992 39.903 42.0884 39.7299 41.8417 39.6278C41.595 39.5256 41.3236 39.4989 41.0617 39.5509C40.7998 39.603 40.5593 39.7316 40.3705 39.9204C40.1817 40.1092 40.0531 40.3498 40.001 40.6116C39.9489 40.8735 39.9756 41.1449 40.0778 41.3916C40.18 41.6383 40.353 41.8491 40.575 41.9975Z" fill="#434F58"/>
<path fill-rule="evenodd" clip-rule="evenodd" d="M3.14664 34.3967C3.66073 33.8826 4.35797 33.5938 5.085 33.5938H45.565C46.292 33.5938 46.9893 33.8826 47.5034 34.3967C48.0175 34.9107 48.3063 35.608 48.3063 36.335V45.425C48.3063 46.152 48.0175 46.8493 47.5034 47.3634C46.9893 47.8775 46.292 48.1663 45.565 48.1663H5.085C4.35798 48.1663 3.66073 47.8775 3.14664 47.3634C2.63256 46.8493 2.34375 46.152 2.34375 45.425V36.335C2.34375 35.608 2.63256 34.9107 3.14664 34.3967ZM5.085 35.1563C4.77238 35.1563 4.47256 35.2804 4.2515 35.5015C4.03044 35.7226 3.90625 36.0224 3.90625 36.335V45.425C3.90625 45.7376 4.03044 46.0375 4.2515 46.2585C4.47256 46.4796 4.77238 46.6038 5.085 46.6038H45.565C45.8776 46.6038 46.1775 46.4796 46.3985 46.2585C46.6196 46.0375 46.7438 45.7376 46.7438 45.425V36.335C46.7438 36.0224 46.6196 35.7226 46.3985 35.5015C46.1775 35.2804 45.8776 35.1563 45.565 35.1563H5.085Z" fill="#434F58"/>
<path d="M99.6946 18.017C99.779 18.0556 99.8708 18.0757 99.9636 18.076C100.078 18.0775 100.19 18.0466 100.287 17.9867C100.384 17.9268 100.462 17.8406 100.512 17.738C100.547 17.6673 100.569 17.5903 100.574 17.5113C100.58 17.4324 100.57 17.3531 100.545 17.278C100.52 17.2029 100.481 17.1335 100.429 17.0737C100.377 17.014 100.314 16.9651 100.243 16.93C98.8166 16.222 96.1556 16.213 96.0426 16.213C95.8814 16.213 95.7267 16.277 95.6127 16.3911C95.4987 16.5051 95.4346 16.6597 95.4346 16.821C95.4346 16.9822 95.4987 17.1369 95.6127 17.2509C95.7267 17.3649 95.8814 17.429 96.0426 17.429C96.7356 17.425 98.7296 17.538 99.6946 18.017Z" fill="#434F58"/>
<path d="M80.2997 10.172C80.2997 10.152 80.3087 10.132 80.3287 10.132C81.6446 9.93179 82.9777 9.86845 84.3066 9.94301C86.2066 10.072 87.5956 10.551 88.4126 11.368C88.5277 11.4827 88.6836 11.5472 88.8461 11.5472C89.0086 11.5472 89.1645 11.4827 89.2796 11.368C89.3388 11.3127 89.3862 11.2459 89.4189 11.1718C89.4515 11.0976 89.4689 11.0177 89.4698 10.9366C89.4708 10.8556 89.4553 10.7753 89.4243 10.7004C89.3933 10.6255 89.3475 10.5577 89.2896 10.501C86.9776 8.18901 82.1336 8.62501 80.1597 8.92501C79.8588 8.96917 79.5841 9.12063 79.3861 9.35147C79.1882 9.5823 79.0804 9.87693 79.0827 10.181V11.588C79.089 11.7451 79.1559 11.8937 79.2693 12.0026C79.3828 12.1115 79.5339 12.1723 79.6912 12.1723C79.8484 12.1723 79.9995 12.1115 80.113 12.0026C80.2264 11.8937 80.2933 11.7451 80.2997 11.588V10.172Z" fill="#434F58"/>
<path fill-rule="evenodd" clip-rule="evenodd" d="M64.7955 27.942C64.6634 28.1552 64.5939 28.4012 64.5947 28.652V33.3094C64.5947 33.6452 64.3225 33.9174 63.9867 33.9174C63.6509 33.9174 63.3787 33.6452 63.3787 33.3094V28.653C63.3786 28.1748 63.512 27.7062 63.764 27.2998C64.0159 26.8934 64.3764 26.5655 64.8047 26.353L66.4497 25.535C64.7574 24.7954 64.1781 23.7676 64.1119 23.6502L64.1067 23.641C64.0624 23.5564 64.0392 23.4624 64.0392 23.367C64.0392 23.2715 64.0624 23.1775 64.1067 23.093C64.5447 22.213 64.6057 20.588 64.6447 19.293C64.6547 18.864 64.6647 18.455 64.6947 18.086C64.8997 15.146 67.1317 12.934 69.8827 12.934C72.6337 12.934 74.8666 15.147 75.0756 18.087C75.0956 18.456 75.1156 18.865 75.1256 19.294C75.1646 20.594 75.2256 22.207 75.6646 23.094C75.7082 23.1788 75.7309 23.2727 75.7309 23.368C75.7309 23.4633 75.7082 23.5572 75.6646 23.642C75.6446 23.692 75.0856 24.769 73.3217 25.536L73.9096 25.836C74.1423 25.6678 74.3975 25.5331 74.6676 25.436L78.4356 24.07C78.4307 23.9846 78.4432 23.8991 78.4722 23.8187C78.5013 23.7382 78.5463 23.6645 78.6046 23.602L79.7406 22.402V20.349C78.9156 19.6442 78.2539 18.7683 77.8013 17.7821C77.3487 16.7959 77.1161 15.7231 77.1196 14.638V13.252C76.6843 12.3225 76.4597 11.3084 76.4616 10.282V8.97602C76.4638 7.4249 77.0809 5.9379 78.1777 4.84109C79.2745 3.74428 80.7615 3.12716 82.3126 3.12504H91.4726C91.5526 3.1241 91.6321 3.13919 91.7062 3.16943C91.7804 3.19966 91.8477 3.24442 91.9043 3.30108C91.9608 3.35774 92.0055 3.42515 92.0356 3.49934C92.0657 3.57352 92.0807 3.65298 92.0796 3.73304V10.297C92.0806 11.3233 91.856 12.3372 91.4216 13.267V14.867C91.4199 15.8457 91.2185 16.8138 90.8295 17.7119C90.4406 18.61 89.8723 19.4192 89.1596 20.09C89.0396 20.199 88.9206 20.299 88.8006 20.399V22.408L89.9366 23.608C89.9969 23.6694 90.0433 23.743 90.0726 23.824C90.102 23.9049 90.1136 23.9912 90.1066 24.077L93.6746 25.377L94.9106 25.028C95.4186 24.878 95.4186 24.829 95.4186 24.689V23.802C94.809 23.3606 94.313 22.7805 93.9717 22.1098C93.6304 21.439 93.4535 20.6966 93.4556 19.944V18.944L93.1466 18.316C92.9257 17.8658 92.8098 17.3714 92.8076 16.87V16.83C92.8089 15.7995 93.2188 14.8116 93.9475 14.0829C94.6762 13.3543 95.6641 12.9443 96.6946 12.943H102.587C102.667 12.9419 102.746 12.9569 102.82 12.9871C102.895 13.0173 102.962 13.062 103.019 13.1187C103.076 13.1754 103.12 13.2428 103.15 13.3171C103.181 13.3913 103.196 13.4709 103.195 13.551V16.701C103.195 17.3031 103.055 17.897 102.787 18.436L102.537 18.925V20.087C102.538 20.6947 102.417 21.2966 102.181 21.8565C101.945 22.4165 101.598 22.9231 101.162 23.346C100.979 23.522 100.783 23.6823 100.574 23.825V24.676C100.573 24.7325 100.591 24.7876 100.626 24.8327C100.66 24.8777 100.708 24.9102 100.763 24.925L103.295 25.642C104.401 25.951 105.169 26.978 105.119 28.094V33.1619C105.119 33.3232 105.054 33.4778 104.94 33.5919C104.826 33.7059 104.672 33.7699 104.511 33.7699C104.349 33.7699 104.195 33.7059 104.081 33.5919C103.967 33.4778 103.903 33.3232 103.903 33.1619V28.099C103.902 27.8058 103.807 27.5206 103.631 27.2863C103.454 27.0519 103.207 26.8809 102.926 26.799L100.394 26.081C100.303 26.0584 100.216 26.0248 100.135 25.981L98.5796 27.536V33.1719C98.5796 33.3332 98.5155 33.4878 98.4015 33.6019C98.2875 33.7159 98.1328 33.7799 97.9716 33.7799C97.8103 33.7799 97.6557 33.7159 97.5416 33.6019C97.4276 33.4878 97.3636 33.3332 97.3636 33.1719V27.541L95.7986 25.976C95.6176 26.0664 95.4271 26.1365 95.2306 26.185L95.0816 26.225C95.6609 26.8267 95.9873 27.6277 95.9936 28.463V33.1769C95.9936 33.3382 95.9295 33.4928 95.8155 33.6069C95.7015 33.7209 95.5468 33.7849 95.3856 33.7849C95.2243 33.7849 95.0697 33.7209 94.9557 33.6069C94.8416 33.4928 94.7776 33.3382 94.7776 33.1769V28.463C94.7764 28.0522 94.6497 27.6517 94.4145 27.315C94.1793 26.9782 93.8468 26.7214 93.4616 26.579L89.4946 25.134L87.8366 27.615C87.7335 27.7713 87.5967 27.9026 87.4364 27.9994C87.276 28.0961 87.096 28.1557 86.9096 28.174C86.8671 28.1818 86.8238 28.1852 86.7806 28.184C86.6137 28.185 86.4481 28.1529 86.2937 28.0896C86.1392 28.0262 85.9988 27.9329 85.8806 27.815L84.8746 26.808V33.1869C84.8746 33.3482 84.8106 33.5028 84.6965 33.6169C84.5825 33.7309 84.4279 33.7949 84.2666 33.7949C84.1054 33.7949 83.9507 33.7309 83.8367 33.6169C83.7227 33.5028 83.6586 33.3482 83.6586 33.1869V26.808L82.6516 27.815C82.5336 27.9331 82.3932 28.0265 82.2387 28.0899C82.0842 28.1532 81.9186 28.1852 81.7516 28.184C81.7252 28.184 81.7016 28.1812 81.6793 28.1785C81.6594 28.1762 81.6405 28.174 81.6216 28.174C81.4353 28.1556 81.2553 28.0959 81.095 27.9992C80.9346 27.9025 80.7978 27.7712 80.6946 27.615L79.0436 25.134L75.0756 26.579C74.6905 26.7215 74.3582 26.9783 74.1231 27.3151C73.8881 27.6518 73.7616 28.0523 73.7606 28.463V33.3094C73.7606 33.6452 73.4884 33.9174 73.1527 33.9174C72.8169 33.9174 72.5447 33.6452 72.5447 33.3094V28.454C72.5431 27.8525 72.7124 27.263 73.0326 26.754L72.3647 26.425L71.6577 27.103C71.1786 27.5575 70.5435 27.8109 69.8832 27.8109C69.2228 27.8109 68.5877 27.5575 68.1087 27.103L67.4007 26.425L65.3417 27.446C65.1168 27.5569 64.9276 27.7288 64.7955 27.942ZM96.6166 25.03L98.0116 26.425L99.3965 25.033C99.3742 24.9145 99.3611 24.7945 99.3576 24.674V24.425C98.9211 24.5572 98.4676 24.6246 98.0116 24.625H97.8716C97.4578 24.6155 97.0479 24.5437 96.6556 24.412V24.671C96.6531 24.7915 96.64 24.9117 96.6166 25.03ZM94.6926 18.784V19.925L94.6946 19.93C94.6946 21.794 96.1276 23.359 97.9056 23.409C98.3502 23.424 98.7933 23.3487 99.208 23.1877C99.6228 23.0266 100.001 22.7832 100.319 22.472C100.639 22.161 100.893 21.7893 101.068 21.3785C101.242 20.9678 101.333 20.5263 101.335 20.08V18.774C101.335 18.6811 101.356 18.5894 101.395 18.505L101.7 17.891C101.881 17.5217 101.976 17.1163 101.979 16.705V14.163H96.7056C96.0001 14.1646 95.3241 14.4456 94.8254 14.9445C94.3266 15.4434 94.0459 16.1196 94.0446 16.825V16.857C94.0436 17.1691 94.1151 17.4772 94.2536 17.757L94.6326 18.515C94.6735 18.5987 94.6941 18.6908 94.6926 18.784ZM81.7646 26.958C81.7755 26.9585 81.7862 26.9549 81.7946 26.948L83.3336 25.413L80.4426 23.439L79.8346 24.087L81.7346 26.938C81.7346 26.948 81.7446 26.958 81.7646 26.958ZM80.9566 22.325L84.2766 24.585L87.5826 22.325V21.206C86.5609 21.7382 85.4256 22.0154 84.2736 22.014C84.1146 22.014 83.9566 22.0041 83.7976 21.9942L83.7946 21.994C82.7996 21.9356 81.8301 21.6562 80.9566 21.176V22.325ZM86.7976 26.958C86.8176 26.958 86.8276 26.948 86.8276 26.938L88.7316 24.087L88.1236 23.439L85.2336 25.413L86.7686 26.948C86.7725 26.9515 86.7771 26.9541 86.7821 26.9559C86.7871 26.9576 86.7924 26.9583 86.7976 26.958ZM78.3456 13.113V14.625C78.3456 17.877 80.7776 20.578 83.8856 20.779C85.3075 20.8731 86.7157 20.4521 87.8526 19.593L87.8626 19.583C88.0253 19.4577 88.1815 19.3242 88.3306 19.183C88.9251 18.6306 89.3985 17.961 89.7211 17.2164C90.0436 16.4718 90.2083 15.6684 90.2046 14.857V13.113C90.2033 13.0196 90.2238 12.9271 90.2646 12.843C90.659 12.0433 90.8642 11.1637 90.8646 10.272V4.34104H82.3106C81.0842 4.34183 79.9083 4.82936 79.0411 5.69654C78.174 6.56372 77.6864 7.73964 77.6856 8.96602V10.272C77.686 11.1637 77.8913 12.0433 78.2856 12.843C78.3245 12.9278 78.3449 13.0198 78.3456 13.113ZM69.8777 26.5983C70.2248 26.5983 70.5585 26.4646 70.8097 26.225L71.3877 25.687C71.2885 25.5026 71.2372 25.2963 71.2387 25.087V24.439C70.8004 24.5791 70.3428 24.6496 69.8827 24.648C69.4232 24.6455 68.9666 24.575 68.5277 24.439V25.087C68.5293 25.2964 68.4777 25.5029 68.3777 25.687L68.9457 26.225C69.1968 26.4646 69.5306 26.5983 69.8777 26.5983ZM72.4547 24.57C73.6006 24.152 74.1786 23.604 74.4186 23.314V23.309C74.2454 22.8377 74.1283 22.3477 74.0696 21.849C73.7344 22.6552 73.1736 23.3476 72.4547 23.843V24.57ZM65.9157 18.176C65.8957 18.515 65.8757 18.914 65.8657 19.332C65.8574 19.3849 65.854 19.4385 65.8557 19.492C65.8883 19.4837 65.922 19.4803 65.9557 19.482C66.0358 19.4809 66.1154 19.4959 66.1896 19.5261C66.2639 19.5562 66.3313 19.601 66.388 19.6577C66.4447 19.7143 66.4894 19.7818 66.5196 19.856C66.5498 19.9303 66.5647 20.0098 66.5637 20.09C66.5634 20.925 66.8784 21.7293 67.4455 22.3421C68.0127 22.955 68.7904 23.3311 69.6229 23.3952C70.4555 23.4594 71.2815 23.207 71.936 22.6883C72.5904 22.1697 73.0249 21.4232 73.1527 20.598C72.1657 18.425 69.6137 18.126 68.8267 18.086L67.9097 19.043C67.8541 19.1012 67.7875 19.1479 67.7138 19.1805C67.6402 19.213 67.5608 19.2307 67.4803 19.2325C67.3998 19.2344 67.3197 19.2204 67.2446 19.1913C67.1695 19.1622 67.1009 19.1186 67.0427 19.063C66.9844 19.0074 66.9377 18.9408 66.9052 18.8672C66.8727 18.7935 66.855 18.7141 66.8531 18.6336C66.8512 18.5531 66.8653 18.473 66.8944 18.3979C66.9235 18.3229 66.9671 18.2542 67.0227 18.196L68.1287 17.05C68.1814 16.9908 68.2459 16.9433 68.318 16.9106C68.3902 16.8779 68.4684 16.8606 68.5477 16.86C69.3395 16.86 70.1265 16.9845 70.8797 17.229C72.2057 17.658 73.2317 18.415 73.8997 19.442V19.332C73.8897 18.914 73.8697 18.515 73.8497 18.176C73.7848 17.1101 73.3473 16.1009 72.6137 15.325C72.2593 14.9588 71.835 14.6676 71.3658 14.4687C70.8966 14.2698 70.3922 14.1673 69.8827 14.1673C69.3731 14.1673 68.8687 14.2698 68.3995 14.4687C67.9304 14.6676 67.506 14.9588 67.1517 15.325C66.4188 16.1015 65.9814 17.1103 65.9157 18.176ZM65.6947 21.825C65.6368 22.3252 65.5204 22.8169 65.3477 23.29C65.5947 23.599 66.1647 24.147 67.3097 24.556V23.819C66.5928 23.3212 66.0326 22.6296 65.6947 21.825Z" fill="#434F58"/>
<path d="M95.0025 42.1939C95.7338 42.1939 96.3265 41.6011 96.3265 40.8699C96.3265 40.1387 95.7338 39.5459 95.0025 39.5459C94.2713 39.5459 93.6785 40.1387 93.6785 40.8699C93.6785 41.6011 94.2713 42.1939 95.0025 42.1939Z" fill="#434F58"/>
<path d="M101.137 40.8699C101.137 41.6011 100.544 42.1939 99.8126 42.1939C99.0814 42.1939 98.4886 41.6011 98.4886 40.8699C98.4886 40.1387 99.0814 39.5459 99.8126 39.5459C100.544 39.5459 101.137 40.1387 101.137 40.8699Z" fill="#434F58"/>
<path d="M89.9426 42.1989C90.6739 42.1989 91.2666 41.6061 91.2666 40.8749C91.2666 40.1437 90.6739 39.5509 89.9426 39.5509C89.2114 39.5509 88.6186 40.1437 88.6186 40.8749C88.6186 41.6061 89.2114 42.1989 89.9426 42.1989Z" fill="#434F58"/>
<path fill-rule="evenodd" clip-rule="evenodd" d="M91.4682 34.4929H103.973C104.482 34.4937 104.971 34.6968 105.331 35.0575C105.692 35.4182 105.894 35.9071 105.895 36.4169V45.3249C105.893 45.8343 105.69 46.3225 105.33 46.6828C104.97 47.0432 104.482 47.2463 103.973 47.2479H78.8897C78.8862 47.2479 78.8827 47.2479 78.8793 47.2478H65.047C64.5376 47.2463 64.0495 47.0431 63.6893 46.6828C63.3292 46.3225 63.1263 45.8343 63.125 45.3248V36.4169C63.1253 35.907 63.3278 35.4181 63.6881 35.0574C64.0484 34.6967 64.5371 34.4937 65.047 34.4929H91.4599C91.4627 34.4929 91.4654 34.4929 91.4682 34.4929ZM77.559 35.9379C77.5626 35.9379 77.5661 35.9379 77.5697 35.9379H103.983C104.109 35.9382 104.231 35.9888 104.321 36.0786C104.41 36.1684 104.461 36.2901 104.461 36.4169V45.3249C104.461 45.4517 104.41 45.5732 104.321 45.6629C104.231 45.7525 104.109 45.8029 103.983 45.8029H90.131C90.129 45.8029 90.1269 45.8028 90.1249 45.8028H65.037C64.9102 45.8028 64.7886 45.7525 64.699 45.6628C64.6094 45.5732 64.559 45.4516 64.559 45.3248V36.4169C64.559 36.29 64.6093 36.1683 64.6989 36.0785C64.7885 35.9887 64.9101 35.9381 65.037 35.9379H77.559Z" fill="#434F58"/>
<path fill-rule="evenodd" clip-rule="evenodd" d="M130.989 5.24122C131.344 4.88668 131.825 4.6875 132.326 4.6875H161.167C161.668 4.6875 162.149 4.88668 162.504 5.24122C162.858 5.59576 163.057 6.07661 163.057 6.57801V8.79652C163.057 9.29791 162.858 9.77877 162.504 10.1333C162.149 10.4878 161.668 10.687 161.167 10.687H149.746V13.5799C158.392 13.9877 165.276 21.1262 165.276 29.8724C165.276 30.668 164.96 31.431 164.397 31.9935C163.835 32.5561 163.072 32.8721 162.276 32.8721H143.419C142.953 32.8721 142.494 32.7637 142.077 32.5554C141.661 32.3472 141.298 32.0448 141.019 31.6722L139.521 29.6756C139.263 29.3304 139.333 28.8407 139.678 28.5818C140.023 28.3229 140.513 28.3929 140.771 28.7381L142.269 30.7347C142.403 30.9132 142.576 31.0581 142.776 31.1579C142.976 31.2577 143.196 31.3096 143.419 31.3096H162.276C162.657 31.3096 163.023 31.1582 163.292 30.8887C163.562 30.6191 163.713 30.2536 163.713 29.8724C163.713 21.7272 157.11 15.124 148.965 15.124H129.717L126.488 10.8182C126.457 10.7775 126.418 10.7444 126.372 10.7216C126.326 10.6989 126.276 10.687 126.225 10.687H123.453C123.403 10.6871 123.354 10.6985 123.309 10.7203C123.264 10.7422 123.225 10.774 123.194 10.8133C123.164 10.8525 123.142 10.8983 123.132 10.947C123.123 10.9923 123.123 11.0391 123.132 11.0842L125.205 18.1958L136.148 22.5728L137.776 24.7447C138.035 25.0899 137.965 25.5796 137.62 25.8385C137.275 26.0974 136.785 26.0274 136.526 25.6822L135.16 23.8608L123.918 19.3638L121.623 11.4881L121.619 11.4735C121.549 11.1949 121.544 10.9041 121.604 10.6232C121.663 10.3422 121.786 10.0785 121.962 9.85213C122.139 9.62572 122.365 9.44253 122.623 9.31645C122.881 9.19038 123.164 9.12474 123.452 9.12452L126.225 9.12452C126.519 9.12452 126.808 9.19285 127.071 9.3241C127.333 9.45536 127.562 9.64593 127.738 9.88072L130.498 13.5615H143.747V10.687H132.326C131.825 10.687 131.344 10.4878 130.989 10.1333C130.635 9.77877 130.436 9.29791 130.436 8.79652V6.57801C130.436 6.07661 130.635 5.59575 130.989 5.24122ZM145.309 13.5615H148.184V9.12452H161.167C161.254 9.12452 161.337 9.08997 161.399 9.02845C161.46 8.96694 161.495 8.88351 161.495 8.79652V6.57801C161.495 6.49101 161.46 6.40758 161.399 6.34607C161.337 6.28456 161.254 6.25 161.167 6.25H132.326C132.239 6.25 132.156 6.28456 132.094 6.34607C132.033 6.40758 131.998 6.49101 131.998 6.57801V8.79652C131.998 8.88351 132.033 8.96694 132.094 9.02845C132.156 9.08997 132.239 9.12452 132.326 9.12452H145.309V13.5615Z" fill="#434F58"/>
<path fill-rule="evenodd" clip-rule="evenodd" d="M167.51 37.7483C167.766 38.0107 167.966 38.3227 168.098 38.6651C168.229 39.0076 168.289 39.3733 168.273 39.7397C168.258 40.1061 168.168 40.4655 168.009 40.7959C167.851 41.1252 167.627 41.4187 167.351 41.6585C166.087 42.7662 164.984 43.3999 163.976 43.7399C162.956 44.0841 162.134 44.0899 161.579 44.0899H138.982C138.273 44.0899 137.594 43.8085 137.093 43.3074C136.592 42.8064 136.31 42.1268 136.31 41.4182V39.19C136.31 38.4814 136.592 37.8018 137.093 37.3008C137.594 36.7997 138.273 36.5182 138.982 36.5182H161.579C161.719 36.5182 161.782 36.4935 161.829 36.4698C161.899 36.435 162.007 36.3624 162.202 36.1767C162.702 35.6895 163.373 35.4166 164.072 35.4166C164.776 35.4166 165.452 35.6936 165.953 36.1877L165.963 36.1971L167.51 37.7483ZM166.324 40.4809C166.44 40.3801 166.535 40.2566 166.602 40.118C166.668 39.9794 166.706 39.8287 166.712 39.675C166.719 39.5213 166.694 39.368 166.639 39.2244C166.583 39.0808 166.5 38.9499 166.392 38.8399L164.857 37.3008C164.647 37.0947 164.365 36.9791 164.072 36.9791C163.778 36.9791 163.496 37.0947 163.287 37.3008C162.795 37.7701 162.327 38.0807 161.579 38.0807H138.982C138.688 38.0807 138.405 38.1976 138.197 38.4056C137.989 38.6136 137.873 38.8958 137.873 39.19V41.4182C137.873 41.7124 137.989 41.9945 138.197 42.2025C138.405 42.4106 138.688 42.5274 138.982 42.5274H161.579C162.61 42.5274 164.026 42.4949 166.324 40.4809Z" fill="#434F58"/>
<path d="M130.156 26.5625C129.725 26.5625 129.375 26.9123 129.375 27.3438C129.375 27.7752 129.725 28.125 130.156 28.125L139.531 28.125C139.963 28.125 140.313 27.7752 140.313 27.3438C140.313 26.9123 139.963 26.5625 139.531 26.5625H130.156Z" fill="#434F58"/>
<path d="M126.25 32.0313C126.25 31.5998 126.6 31.25 127.031 31.25H136.406C136.838 31.25 137.188 31.5998 137.188 32.0313C137.188 32.4627 136.838 32.8125 136.406 32.8125H127.031C126.6 32.8125 126.25 32.4627 126.25 32.0313Z" fill="#434F58"/>
<path fill-rule="evenodd" clip-rule="evenodd" d="M149.621 17.1088V29.2164H161.749L161.366 27.3409C160.353 22.3862 156.442 18.5035 151.497 17.4923L149.621 17.1088ZM151.184 19.0232V27.6539H159.835C159.725 27.1178 159.577 26.596 159.393 26.0914C158.271 23.0175 155.823 20.5823 152.746 19.4642C152.241 19.2807 151.719 19.1327 151.184 19.0232Z" fill="#434F58"/>
<path fill-rule="evenodd" clip-rule="evenodd" d="M204.065 26.9872H197.257C196.868 26.9872 196.494 26.823 196.218 26.5308C195.943 26.2385 195.788 25.8421 195.788 25.4288V18.2176C195.79 17.8058 195.946 17.4118 196.222 17.1215C196.497 16.8313 196.869 16.6683 197.257 16.6683H204.065C204.453 16.6683 204.825 16.8313 205.101 17.1215C205.376 17.4118 205.532 17.8058 205.534 18.2176V25.4288C205.534 25.6334 205.496 25.8361 205.422 26.0252C205.348 26.2143 205.24 26.3861 205.104 26.5308C204.967 26.6755 204.805 26.7903 204.627 26.8686C204.449 26.9469 204.258 26.9872 204.065 26.9872ZM196.997 17.9501C196.931 18.0222 196.894 18.1177 196.892 18.2176V25.4196C196.892 25.5223 196.931 25.6208 196.999 25.6934C197.068 25.7661 197.161 25.8069 197.257 25.8069H204.074C204.122 25.8081 204.17 25.799 204.215 25.7799C204.259 25.7609 204.3 25.7324 204.334 25.6962L204.378 25.6409C204.42 25.5759 204.441 25.4983 204.439 25.4196V18.2083C204.44 18.1326 204.419 18.0584 204.378 17.9962L204.334 17.9409H204.326L204.221 17.8671C204.175 17.8452 204.125 17.8326 204.074 17.8303H197.257C197.209 17.8307 197.16 17.8416 197.116 17.8622C197.071 17.8828 197.03 17.9127 196.997 17.9501Z" fill="#434F58"/>
<path fill-rule="evenodd" clip-rule="evenodd" d="M205.899 30.4729C207.377 30.4637 208.768 29.311 208.812 27.7895C208.881 24.9216 208.812 16.2718 208.812 16.2718C208.812 15.8661 208.736 15.4644 208.59 15.0896C208.444 14.7148 208.229 14.3743 207.959 14.0874C207.688 13.8005 207.367 13.573 207.014 13.4177C206.66 13.2625 206.282 13.1826 205.899 13.1826V11.5873L209.22 8.06465H209.229C209.462 8.18626 209.717 8.24937 209.977 8.24907C210.358 8.25073 210.73 8.12062 211.035 7.87842C211.341 7.63622 211.564 7.29509 211.67 6.90662C211.777 6.51815 211.761 6.10345 211.626 5.72523C211.49 5.34699 211.243 5.02579 210.92 4.81017C210.597 4.59456 210.217 4.49626 209.837 4.53014C209.457 4.56402 209.097 4.72823 208.813 4.99794C208.529 5.26766 208.335 5.62823 208.261 6.02512C208.187 6.422 208.237 6.83366 208.403 7.19782H208.394L204.908 10.8957C204.852 10.951 204.808 11.0182 204.778 11.0928C204.748 11.1675 204.733 11.248 204.734 11.3291V13.1826H203.569V10.8127C203.569 10.6488 203.508 10.4916 203.399 10.3758C203.289 10.2599 203.141 10.1948 202.987 10.1948C202.832 10.1948 202.684 10.2599 202.575 10.3758C202.466 10.4916 202.404 10.6488 202.404 10.8127V13.1826H201.239V8.84848C201.566 8.72668 201.851 8.50487 202.058 8.21115C202.265 7.91744 202.386 7.56503 202.404 7.19858C202.423 6.83213 202.338 6.46814 202.161 6.15272C201.984 5.8373 201.723 5.58465 201.411 5.42678C201.099 5.26891 200.749 5.21292 200.407 5.26592C200.065 5.31891 199.745 5.4785 199.488 5.72446C199.231 5.97042 199.049 6.29168 198.965 6.64756C198.88 7.00342 198.897 7.37786 199.014 7.72345C199.1 7.98434 199.242 8.22105 199.427 8.41587C199.612 8.61069 199.836 8.75858 200.083 8.84848V13.1826H198.918V10.8127C198.918 10.6488 198.857 10.4916 198.747 10.3758C198.638 10.2599 198.49 10.1948 198.335 10.1948C198.181 10.1948 198.033 10.2599 197.924 10.3758C197.814 10.4916 197.753 10.6488 197.753 10.8127V13.1826H196.588V8.8577C196.586 8.69454 196.524 8.53873 196.414 8.42428L194.084 5.95292C194.198 5.70593 194.257 5.43477 194.258 5.15986C194.26 4.79289 194.159 4.43362 193.968 4.1276C193.777 3.82158 193.504 3.58258 193.185 3.44087C192.866 3.29917 192.514 3.26114 192.175 3.33162C191.835 3.40209 191.523 3.57789 191.278 3.83674C191.033 4.09559 190.865 4.42583 190.797 4.78563C190.729 5.14543 190.763 5.51858 190.895 5.85781C191.027 6.19703 191.251 6.48707 191.539 6.69114C191.826 6.89522 192.164 7.00416 192.51 7.00417C192.77 7.0091 193.027 6.94574 193.258 6.81974H193.267L195.423 9.10668V13.1734C194.651 13.1734 193.91 13.4988 193.364 14.0782C192.817 14.6575 192.51 15.4433 192.51 16.2626H190.424L188.85 14.6027H188.842C188.954 14.3547 189.016 14.0846 189.024 13.8097C189.024 13.4431 188.922 13.0847 188.73 12.7799C188.538 12.4751 188.265 12.2375 187.945 12.0972C187.626 11.9569 187.275 11.9202 186.936 11.9917C186.597 12.0633 186.285 12.2398 186.041 12.499C185.797 12.7582 185.63 13.0885 185.563 13.448C185.495 13.8076 185.53 14.1803 185.662 14.519C185.794 14.8577 186.018 15.1471 186.306 15.3508C186.593 15.5545 186.931 15.6632 187.277 15.6632C187.536 15.6625 187.792 15.5994 188.024 15.4788L189.772 17.3323C189.88 17.4486 190.027 17.5149 190.181 17.5167H192.51V18.7524H189.024C188.892 18.751 188.764 18.7965 188.659 18.8815L186.086 21.0578C185.773 20.7593 185.368 20.5921 184.947 20.5875C184.601 20.5875 184.263 20.6962 183.976 20.8999C183.688 21.1035 183.465 21.393 183.332 21.7317C183.2 22.0704 183.165 22.4431 183.233 22.8026C183.3 23.1622 183.467 23.4924 183.711 23.7516C183.955 24.0109 184.267 24.1874 184.606 24.2589C184.945 24.3304 185.296 24.2937 185.615 24.1534C185.935 24.0131 186.208 23.7756 186.4 23.4708C186.592 23.166 186.694 22.8076 186.694 22.441C186.691 22.3418 186.679 22.243 186.659 22.1459L189.224 19.9696H192.51V21.2053H190.763C190.608 21.2053 190.46 21.2704 190.351 21.3863C190.242 21.5021 190.181 21.6593 190.181 21.8232C190.181 21.987 190.242 22.1442 190.351 22.26C190.46 22.3759 190.608 22.441 190.763 22.441H192.51V23.6767H188.442C188.287 23.6767 188.139 23.7418 188.03 23.8576C187.921 23.9735 187.859 24.1307 187.859 24.2945C187.859 24.4584 187.921 24.6155 188.03 24.7314C188.139 24.8473 188.287 24.9124 188.442 24.9124H192.51V26.1481H189.598C189.503 26.1477 189.409 26.1729 189.325 26.2212C189.242 26.2696 189.171 26.3396 189.12 26.4247L186.851 30.0303C186.619 29.9178 186.367 29.8581 186.112 29.8551C185.73 29.8535 185.359 29.9836 185.053 30.2258C184.748 30.468 184.525 30.8091 184.418 31.1976C184.312 31.586 184.327 32.0007 184.463 32.379C184.598 32.7572 184.846 33.0784 185.169 33.294C185.491 33.5096 185.872 33.6079 186.252 33.574C186.632 33.5402 186.991 33.376 187.275 33.1062C187.56 32.8365 187.753 32.476 187.827 32.0791C187.901 31.6822 187.851 31.2705 187.685 30.9064L187.764 30.8141L189.911 27.3837H192.51C192.513 28.2023 192.82 28.9866 193.366 29.5655C193.912 30.1443 194.651 30.4705 195.423 30.4729H205.899ZM209.646 5.87914C209.745 5.81234 209.86 5.77712 209.977 5.7777C210.054 5.77438 210.132 5.79016 210.203 5.82382C210.309 5.87115 210.399 5.9507 210.463 6.05244C210.526 6.15419 210.56 6.27357 210.559 6.39555C210.558 6.50305 210.53 6.60831 210.478 6.70064C210.426 6.79296 210.352 6.86906 210.264 6.92118C210.177 6.97638 210.078 7.0051 209.977 7.00417C209.86 7.00475 209.745 6.96953 209.646 6.90273C209.569 6.8448 209.506 6.7681 209.463 6.67905C209.419 6.59 209.397 6.4912 209.397 6.39094C209.397 6.29068 209.419 6.19188 209.463 6.10283C209.506 6.01378 209.569 5.93707 209.646 5.87914ZM192.841 5.66705C192.743 5.73663 192.628 5.77503 192.51 5.7777C192.356 5.7777 192.208 5.71261 192.099 5.59675C191.989 5.48088 191.928 5.32373 191.928 5.15986C191.928 4.996 191.989 4.83885 192.099 4.72298C192.208 4.60712 192.356 4.54203 192.51 4.54203C192.628 4.54144 192.742 4.57666 192.841 4.64346C192.918 4.70262 192.981 4.78015 193.025 4.86984C193.069 4.95953 193.092 5.05887 193.093 5.15986C193.092 5.25957 193.069 5.35761 193.025 5.44581C192.981 5.53402 192.918 5.60986 192.841 5.66705ZM187.598 14.3076C187.505 14.3807 187.392 14.4196 187.277 14.4183C187.122 14.4183 186.974 14.3532 186.865 14.2373C186.756 14.1214 186.694 13.9643 186.694 13.8004C186.693 13.7201 186.707 13.6404 186.735 13.5659C186.764 13.4915 186.806 13.4238 186.859 13.367C186.863 13.3635 186.866 13.3613 186.869 13.3595C186.873 13.3565 186.877 13.3543 186.877 13.3486C186.914 13.3127 186.955 13.2818 186.998 13.2564C187.084 13.2083 187.18 13.183 187.277 13.1826C187.391 13.1822 187.503 13.2175 187.598 13.284C187.678 13.3411 187.744 13.4179 187.789 13.5079C187.835 13.5979 187.859 13.6983 187.859 13.8004C187.859 13.9013 187.835 14.0004 187.789 14.0889C187.744 14.1775 187.678 14.2526 187.598 14.3076ZM185.416 22.8006C185.363 22.8805 185.293 22.9456 185.211 22.9905C185.129 23.0355 185.039 23.0589 184.947 23.0588C184.792 23.0588 184.644 22.9937 184.535 22.8779C184.426 22.762 184.364 22.6049 184.364 22.441C184.363 22.3599 184.378 22.2794 184.408 22.2048C184.438 22.1301 184.482 22.063 184.538 22.0076C184.591 21.9496 184.655 21.9034 184.725 21.8717C184.795 21.8401 184.87 21.8236 184.947 21.8232C185.101 21.8232 185.249 21.8883 185.359 22.0041C185.468 22.12 185.529 22.2771 185.529 22.441C185.529 22.5707 185.49 22.6969 185.416 22.8006ZM186.52 32.142C186.469 32.1983 186.407 32.2423 186.338 32.2711C186.267 32.308 186.19 32.3269 186.112 32.3265C185.957 32.3265 185.809 32.2614 185.7 32.1455C185.591 32.0296 185.529 31.8725 185.529 31.7086C185.529 31.5448 185.591 31.3876 185.7 31.2718C185.809 31.1559 185.957 31.0908 186.112 31.0908C186.189 31.0875 186.267 31.1033 186.338 31.1369C186.407 31.1657 186.469 31.2097 186.52 31.266C186.576 31.3228 186.62 31.3908 186.65 31.4661C186.68 31.5413 186.696 31.6223 186.696 31.704C186.696 31.7858 186.68 31.8667 186.65 31.942C186.62 32.0172 186.576 32.0853 186.52 32.142ZM200.665 6.49698C200.742 6.4957 200.818 6.51087 200.888 6.54158C200.959 6.5723 201.023 6.61792 201.077 6.67567C201.131 6.73343 201.173 6.80212 201.201 6.87761C201.228 6.95309 201.242 7.03379 201.239 7.11483C201.241 7.21498 201.218 7.31387 201.174 7.40247C201.13 7.49107 201.066 7.56655 200.987 7.62201C200.892 7.69346 200.778 7.73182 200.661 7.73182C200.544 7.73182 200.43 7.69346 200.335 7.62201L200.248 7.54823C200.167 7.46131 200.113 7.351 200.091 7.2312C200.07 7.11141 200.082 6.98749 200.126 6.87506C200.171 6.76264 200.246 6.66675 200.342 6.59947C200.438 6.53219 200.55 6.49653 200.665 6.49698ZM194.727 29.0805C194.414 28.9389 194.147 28.7024 193.96 28.4005C193.773 28.0987 193.674 27.745 193.675 27.3837V16.2718C193.675 15.7802 193.86 15.3088 194.187 14.9612C194.515 14.6136 194.96 14.4183 195.423 14.4183H205.899C206.19 14.4194 206.477 14.4953 206.734 14.6396C207.009 14.8007 207.239 15.0369 207.4 15.3239C207.56 15.6109 207.646 15.9381 207.647 16.2718V27.3837C207.647 27.8753 207.463 28.3468 207.135 28.6944C206.807 29.042 206.363 29.2373 205.899 29.2373H195.423C195.246 29.2382 195.07 29.2102 194.901 29.1543L194.727 29.0805Z" fill="#434F58"/>
<path d="M211.881 13.948L223.843 13.9203C224.233 13.9203 224.607 14.0845 224.882 14.3768C225.158 14.669 225.313 15.0654 225.313 15.4787V22.192C225.308 22.7351 225.102 23.2543 224.739 23.6375C224.376 24.0206 223.886 24.2368 223.374 24.2392L211.742 24.2669C211.679 24.2669 211.616 24.2534 211.558 24.2273C211.526 24.213 211.496 24.195 211.468 24.1738C211.452 24.1614 211.436 24.1478 211.421 24.1332C211.415 24.1272 211.409 24.121 211.403 24.1145C211.36 24.0663 211.325 24.0092 211.303 23.9467C211.28 23.8841 211.27 23.8174 211.272 23.7505V23.5845C211.275 23.454 211.325 23.3297 211.413 23.2383C211.501 23.1469 211.619 23.0957 211.742 23.0957L223.852 23.0681C223.949 23.0681 224.042 23.0273 224.11 22.9546C224.179 22.882 224.217 22.7835 224.217 22.6808V15.4695C224.217 15.3668 224.179 15.2683 224.11 15.1957C224.042 15.123 223.949 15.0822 223.852 15.0822L211.872 15.1099C211.748 15.1099 211.628 15.0574 211.54 14.964C211.452 14.8707 211.403 14.744 211.403 14.6119V14.4459C211.405 14.313 211.456 14.1864 211.546 14.0933C211.635 14.0001 211.756 13.948 211.881 13.948Z" fill="#434F58"/>
<path d="M213.98 18.4901C214.091 18.666 214.15 18.8728 214.15 19.0844C214.15 19.3681 214.043 19.6401 213.854 19.8407C213.665 20.0414 213.409 20.154 213.141 20.154C212.942 20.154 212.747 20.0913 212.581 19.9738C212.415 19.8562 212.286 19.6892 212.209 19.4937C212.133 19.2982 212.113 19.0832 212.152 18.8757C212.191 18.6682 212.287 18.4776 212.428 18.328C212.569 18.1784 212.749 18.0765 212.944 18.0352C213.14 17.9939 213.343 18.0151 213.527 18.0961C213.711 18.177 213.869 18.3142 213.98 18.4901Z" fill="#434F58"/>
<path d="M213.98 29.7218C214.091 29.8977 214.15 30.1045 214.15 30.3161C214.15 30.5998 214.043 30.8719 213.854 31.0725C213.665 31.2731 213.409 31.3858 213.141 31.3858C212.942 31.3858 212.747 31.3231 212.581 31.2055C212.415 31.088 212.286 30.9209 212.209 30.7255C212.133 30.53 212.113 30.3149 212.152 30.1074C212.191 29.8999 212.287 29.7093 212.428 29.5597C212.569 29.4101 212.749 29.3082 212.944 29.267C213.14 29.2257 213.343 29.2469 213.527 29.3278C213.711 29.4088 213.869 29.5459 213.98 29.7218Z" fill="#434F58"/>
<path d="M220.908 31.3306C221.45 31.1947 221.785 30.6184 221.657 30.0435C221.529 29.4686 220.986 29.1127 220.444 29.2486C219.901 29.3845 219.566 29.9608 219.694 30.5357C219.822 31.1106 220.365 31.4665 220.908 31.3306Z" fill="#434F58"/>
<path d="M211.75 25.1798L223.843 25.1521C224.233 25.1521 224.607 25.3163 224.882 25.6086C225.158 25.9009 225.313 26.2972 225.313 26.7106V33.9218C225.308 34.3319 225.151 34.7236 224.876 35.0119C224.601 35.3002 224.23 35.4618 223.843 35.4618H193.562C193.174 35.4618 192.802 35.2989 192.526 35.0086C192.251 34.7183 192.095 34.3243 192.093 33.9126L192.067 32.1513C192.067 32.0701 192.082 31.9897 192.113 31.9154C192.13 31.8744 192.151 31.8358 192.176 31.8003C192.197 31.7712 192.22 31.7442 192.245 31.7196C192.302 31.6649 192.369 31.6233 192.441 31.5976C192.514 31.5719 192.591 31.5626 192.667 31.5703H192.676C192.809 31.5882 192.932 31.6569 193.022 31.7638C193.111 31.8706 193.161 32.0083 193.162 32.1513L193.197 33.9126C193.197 34.0153 193.236 34.1138 193.304 34.1864C193.373 34.2591 193.465 34.2999 193.562 34.2999H223.852C223.949 34.2999 224.042 34.2591 224.11 34.1864C224.179 34.1138 224.217 34.0153 224.217 33.9126V26.7013C224.217 26.5986 224.179 26.5001 224.11 26.4275C224.042 26.3548 223.949 26.314 223.852 26.314L211.75 26.3417C211.677 26.3418 211.605 26.3261 211.538 26.2957C211.471 26.2652 211.41 26.2206 211.36 26.1646C211.309 26.1085 211.27 26.0422 211.245 25.9696C211.219 25.897 211.208 25.8197 211.211 25.7423C211.216 25.593 211.274 25.4513 211.375 25.3466C211.475 25.2418 211.61 25.1821 211.75 25.1798Z" fill="#434F58"/>
<path d="M217.241 31.3314C217.783 31.1955 218.119 30.6192 217.991 30.0443C217.863 29.4694 217.319 29.1135 216.777 29.2494C216.235 29.3853 215.9 29.9615 216.028 30.5365C216.156 31.1114 216.699 31.4673 217.241 31.3314Z" fill="#434F58"/>
<path d="M217.001 20.154C217.558 20.154 218.01 19.6751 218.01 19.0844C218.01 18.4936 217.558 18.0147 217.001 18.0147C216.444 18.0147 215.993 18.4936 215.993 19.0844C215.993 19.6751 216.444 20.154 217.001 20.154Z" fill="#434F58"/>
<path d="M217.001 40.4691C216.802 40.4691 216.607 40.5319 216.441 40.6494C216.275 40.7669 216.146 40.934 216.07 41.1295C215.993 41.3249 215.973 41.54 216.012 41.7475C216.051 41.955 216.147 42.1456 216.288 42.2952C216.429 42.4448 216.609 42.5467 216.805 42.5879C217 42.6292 217.203 42.608 217.387 42.5271C217.571 42.4461 217.729 42.309 217.84 42.1331C217.951 41.9572 218.01 41.7504 218.01 41.5388C218.01 41.2551 217.904 40.983 217.714 40.7824C217.525 40.5818 217.269 40.4691 217.001 40.4691Z" fill="#434F58"/>
<path d="M212.581 40.6586C212.747 40.541 212.942 40.4783 213.141 40.4783C213.274 40.4771 213.406 40.5039 213.528 40.5572C213.651 40.6105 213.763 40.6893 213.857 40.7889C213.951 40.8884 214.025 41.0069 214.075 41.1372C214.126 41.2675 214.151 41.4072 214.15 41.548C214.15 41.7596 214.091 41.9664 213.98 42.1423C213.869 42.3182 213.711 42.4553 213.527 42.5363C213.343 42.6172 213.14 42.6384 212.944 42.5971C212.749 42.5559 212.569 42.454 212.428 42.3044C212.287 42.1548 212.191 41.9642 212.152 41.7567C212.113 41.5492 212.133 41.3341 212.209 41.1386C212.286 40.9432 212.415 40.7761 212.581 40.6586Z" fill="#434F58"/>
<path d="M220.67 40.4691C220.471 40.4691 220.276 40.5319 220.11 40.6494C219.944 40.7669 219.815 40.934 219.738 41.1295C219.662 41.3249 219.642 41.54 219.681 41.7475C219.72 41.955 219.816 42.1456 219.957 42.2952C220.098 42.4448 220.278 42.5467 220.473 42.5879C220.669 42.6292 220.872 42.608 221.056 42.5271C221.24 42.4461 221.398 42.309 221.509 42.1331C221.619 41.9572 221.679 41.7504 221.679 41.5388C221.679 41.2551 221.572 40.983 221.383 40.7824C221.194 40.5818 220.938 40.4691 220.67 40.4691Z" fill="#434F58"/>
<path fill-rule="evenodd" clip-rule="evenodd" d="M193.562 36.3839H223.843C224.233 36.3839 224.607 36.5481 224.882 36.8403C225.158 37.1326 225.313 37.529 225.313 37.9423V45.1443C225.313 45.5577 225.158 45.954 224.882 46.2463C224.607 46.5386 224.233 46.7028 223.843 46.7028H193.562C193.173 46.7028 192.799 46.5386 192.523 46.2463C192.248 45.954 192.093 45.5577 192.093 45.1443V37.9423C192.093 37.529 192.248 37.1326 192.523 36.8403C192.799 36.5481 193.173 36.3839 193.562 36.3839ZM224.156 45.3656C224.195 45.2989 224.216 45.2225 224.217 45.1443V37.9331C224.216 37.8549 224.195 37.7786 224.156 37.7118L224.113 37.6565H224.104L224 37.5827C223.953 37.5639 223.903 37.5545 223.852 37.555H193.562C193.514 37.5538 193.466 37.5629 193.421 37.5819C193.397 37.5923 193.373 37.6055 193.352 37.6213C193.334 37.6344 193.317 37.6492 193.301 37.6657C193.282 37.685 193.266 37.7064 193.251 37.7297C193.246 37.7394 193.24 37.7495 193.235 37.7598C193.23 37.7702 193.225 37.781 193.221 37.792C193.203 37.8397 193.195 37.891 193.197 37.9423V45.1443C193.197 45.247 193.236 45.3456 193.304 45.4182C193.373 45.4908 193.465 45.5316 193.562 45.5316H223.852C223.9 45.5324 223.948 45.523 223.993 45.504C224.038 45.485 224.078 45.4568 224.113 45.421L224.156 45.3656Z" fill="#434F58"/>
<path d="M221.679 19.0844C221.679 19.6751 221.227 20.154 220.67 20.154C220.113 20.154 219.662 19.6751 219.662 19.0844C219.662 18.4936 220.113 18.0147 220.67 18.0147C221.227 18.0147 221.679 18.4936 221.679 19.0844Z" fill="#434F58"/>
<path d="M245.313 37.5V12.9687H284.688V37.5C284.688 37.6562 284.532 37.9687 284.375 38.1249C284.375 38.1249 284.219 38.2812 284.063 38.2812C283.907 38.2812 283.907 38.2812 283.75 38.2812H282.188V39.5312H283.907C284.219 39.5312 284.532 39.5312 284.688 39.375C285 39.2187 285.157 39.0625 285.313 38.9062C285.625 38.4375 285.938 37.9687 285.938 37.3437V6.24994C285.938 5.62494 285.782 5.15619 285.313 4.68744C285.157 4.53119 284.844 4.37494 284.688 4.21869C284.375 4.06244 284.219 4.06244 283.907 4.06244H246.094C245.781 4.06244 245.469 4.06244 245.313 4.21869C245.156 4.37494 244.844 4.53119 244.688 4.68744C244.219 5.15619 244.063 5.62494 244.063 6.24994V37.5C244.063 38.1249 244.219 38.5937 244.688 39.0625C244.844 39.2187 245.156 39.3749 245.313 39.5312C245.625 39.6875 245.781 39.6875 246.094 39.6875H265C265.313 39.6875 265.625 39.375 265.625 39.0625C265.625 38.7499 265.313 38.4375 265 38.4375H246.094C245.938 38.4375 245.938 38.4375 245.781 38.4375C245.625 38.4375 245.625 38.2812 245.469 38.2812C245.469 37.9687 245.313 37.6562 245.313 37.5ZM245.313 11.7187V6.24994C245.313 6.09369 245.469 5.78119 245.625 5.62494C245.625 5.62494 245.781 5.46869 245.938 5.46869C246.094 5.46869 246.094 5.46869 246.25 5.46869H284.063C284.219 5.46869 284.219 5.46869 284.375 5.46869C284.532 5.46869 284.532 5.62494 284.688 5.62494C284.844 5.78119 285 5.93744 285 6.24994V11.7187H245.313Z" fill="#434F58"/>
<path d="M264.375 19.2187C264.375 18.5937 263.906 17.9687 263.281 17.9687H250.313C249.688 17.9687 249.219 18.4374 249.219 19.2187V29.5312C249.219 30.1562 249.688 30.7812 250.313 30.7812H263.281C263.906 30.7812 264.375 30.3124 264.375 29.5312V19.2187ZM250.469 29.3749V19.2187H263.281V29.3749H250.469Z" fill="#434F58"/>
<path d="M275.781 45.7812H282.188V17.9687H275.781V45.7812ZM277.032 39.5312H278.907C279.219 39.5312 279.532 39.2187 279.532 38.9062C279.532 38.5937 279.219 38.2812 278.907 38.2812H277.032V35.7812H278.907C279.219 35.7812 279.532 35.4687 279.532 35.1562C279.532 34.8437 279.219 34.5312 278.907 34.5312H277.032V32.0312H278.907C279.219 32.0312 279.532 31.7187 279.532 31.4062C279.532 31.0937 279.219 30.7812 278.907 30.7812H277.032V28.1249H278.907C279.219 28.1249 279.532 27.8124 279.532 27.4999C279.532 27.1874 279.219 26.8749 278.907 26.8749H277.032V24.3749H278.907C279.219 24.3749 279.532 24.0624 279.532 23.7499C279.532 23.4374 279.219 23.1249 278.907 23.1249H277.032V19.3749H280.782V44.6875H277.032V39.5312Z" fill="#434F58"/>
<path d="M252.969 8.28119C252.5 8.12494 251.875 8.28119 251.719 8.74994C251.563 9.21869 251.719 9.84369 252.188 9.99994C252.656 10.1562 253.281 9.99994 253.438 9.53119C253.594 9.06244 253.438 8.43744 252.969 8.28119Z" fill="#434F58"/>
<path d="M249.063 9.99994C249.581 9.99994 250 9.58021 250 9.06244C250 8.54467 249.581 8.12494 249.063 8.12494C248.545 8.12494 248.125 8.54467 248.125 9.06244C248.125 9.58021 248.545 9.99994 249.063 9.99994Z" fill="#434F58"/>
<path d="M256.094 9.99994C256.612 9.99994 257.031 9.58021 257.031 9.06244C257.031 8.54467 256.612 8.12494 256.094 8.12494C255.576 8.12494 255.156 8.54467 255.156 9.06244C255.156 9.58021 255.576 9.99994 256.094 9.99994Z" fill="#434F58"/>
<path d="M272.656 21.4062L271.25 17.9687C271.094 17.6562 270.781 17.3437 270.313 17.3437C269.844 17.3437 269.531 17.6562 269.375 17.9687L268.125 21.4062C267.813 21.7187 267.656 22.0312 267.656 22.4999V45C267.656 45.7812 268.281 46.25 269.063 46.25H272.188C272.969 46.25 273.438 45.625 273.438 45V22.4999C273.281 22.0312 272.969 21.7187 272.656 21.4062ZM272.188 22.4999V42.1875H270.938V22.1874H271.875C272.031 22.1874 272.188 22.3437 272.188 22.4999ZM270.469 18.4374L271.563 21.0937H269.375L270.469 18.4374ZM268.594 42.1875V22.4999C268.594 22.3437 268.75 22.1874 268.906 22.1874H269.844V42.1875H268.594ZM272.188 45.1562C272.188 45.3125 272.031 45.4687 271.875 45.4687H269.063C268.906 45.4687 268.75 45.3125 268.75 45.1562V43.4375H272.188V45.1562Z" fill="#434F58"/>
<path d="M263.75 33.7499H249.688C249.375 33.7499 249.063 33.4374 249.063 33.1249C249.063 32.8124 249.375 32.4999 249.688 32.4999H263.75C264.063 32.4999 264.375 32.8124 264.375 33.1249C264.375 33.4374 264.063 33.7499 263.75 33.7499Z" fill="#434F58"/>
</svg>
