<svg width="294" height="50" viewBox="0 0 294 46" fill="none" xmlns="http://www.w3.org/2000/svg">
<path fill-rule="evenodd" clip-rule="evenodd" d="M264.078 8.73976C264.078 4.73553 267.314 1.48946 271.306 1.48946C275.298 1.48946 278.535 4.73553 278.535 8.73976V8.86352C279.377 9.16211 279.98 9.9678 279.98 10.9148C279.98 15.2822 279.98 15.4355 279.98 15.4355H289.611C290.283 15.4355 290.928 15.7036 291.404 16.1807C291.88 16.6577 292.147 17.3048 292.147 17.9795V26.4191C292.134 28.8376 292.147 30.7564 292.147 33.0346L292.906 41.4705C292.906 42.1452 292.639 42.7923 292.163 43.2693C291.688 43.7464 291.043 44.0145 290.37 44.0145H252.158C251.485 44.0145 250.84 43.7464 250.365 43.2693C249.889 42.7923 249.622 42.1452 249.622 41.4705C249.622 33.6402 249.622 25.8098 249.622 17.9795C249.622 17.3048 249.889 16.6577 250.365 16.1807C250.84 15.7036 251.485 15.4355 252.158 15.4355H262.633C262.633 15.4355 262.633 15.877 262.633 10.9148C262.633 9.9678 263.236 9.16211 264.078 8.86352V8.73976Z" fill="url(#paint0_radial_70_2268)" fill-opacity="0.25"/>
<path d="M268.606 16.6772C268.606 16.2578 268.266 15.9178 267.847 15.9178C267.427 15.9178 267.087 16.2578 267.087 16.6772V19.7147C267.087 20.1341 267.427 20.474 267.847 20.474C268.266 20.474 268.606 20.1341 268.606 19.7147V16.6772Z" fill="#677983"/>
<path fill-rule="evenodd" clip-rule="evenodd" d="M271.644 0.730286C267.45 0.730286 264.05 4.13012 264.05 8.32404V8.45367C263.165 8.7664 262.531 9.61025 262.531 10.6022V21.2334C262.531 22.4916 263.551 23.5115 264.809 23.5115H278.478C279.736 23.5115 280.756 22.4916 280.756 21.2334V10.6022C280.756 9.61025 280.122 8.7664 279.237 8.45367V8.32404C279.237 4.13012 275.837 0.730286 271.644 0.730286ZM277.719 8.32404C277.719 4.96891 274.999 2.24904 271.644 2.24904C268.288 2.24904 265.569 4.96891 265.569 8.32404H277.719ZM264.809 9.84279C264.39 9.84279 264.05 10.1828 264.05 10.6022V12.8803H273.162V21.9928H278.478C278.897 21.9928 279.237 21.6528 279.237 21.2334V10.6022C279.237 10.1828 278.897 9.84279 278.478 9.84279H264.809ZM264.05 21.2334V14.399H271.644V21.9928H264.809C264.39 21.9928 264.05 21.6528 264.05 21.2334Z" fill="#677983"/>
<path d="M249.643 16.1174C250.142 15.6177 250.82 15.337 251.527 15.337H260.253C260.672 15.337 261.012 15.677 261.012 16.0964C261.012 16.5158 260.672 16.8558 260.253 16.8558H251.527C251.223 16.8558 250.932 16.9765 250.717 17.1913C250.502 17.4062 250.381 17.6976 250.381 18.0015V26.8348C250.383 27.1386 250.505 27.4295 250.719 27.6443C250.934 27.8592 251.225 27.9808 251.529 27.9827H290.871C291.175 27.9808 291.466 27.8592 291.681 27.6443C291.896 27.4294 292.017 27.1385 292.019 26.8347V18.0015C292.019 17.6976 291.898 17.4062 291.684 17.1913C291.469 16.9765 291.177 16.8558 290.873 16.8558H283.034C282.615 16.8558 282.275 16.5158 282.275 16.0964C282.275 15.677 282.615 15.337 283.034 15.337H290.873C291.58 15.337 292.258 15.6177 292.757 16.1174C293.257 16.6171 293.538 17.2948 293.538 18.0015V26.837V26.8408C293.534 27.5454 293.253 28.2201 292.755 28.7183C292.256 29.2164 291.582 29.4979 290.877 29.5015L290.873 29.5015H251.527L251.523 29.5015C250.818 29.4979 250.144 29.2164 249.646 28.7183C249.147 28.2201 248.866 27.5454 248.862 26.8408L248.862 26.837V18.0015C248.862 17.2948 249.143 16.6171 249.643 16.1174Z" fill="#677983"/>
<path d="M276.245 39.2834C276.461 39.4276 276.714 39.5046 276.974 39.5046C277.146 39.5059 277.318 39.4728 277.478 39.4073C277.637 39.3418 277.782 39.2452 277.905 39.1231C278.027 39.001 278.123 38.8558 278.189 38.6961C278.254 38.5363 278.287 38.365 278.286 38.1924C278.286 37.9328 278.209 37.6791 278.065 37.4633C277.921 37.2476 277.716 37.0794 277.476 36.9801C277.236 36.8807 276.972 36.8548 276.718 36.9054C276.463 36.956 276.229 37.081 276.046 37.2645C275.862 37.448 275.737 37.6818 275.687 37.9364C275.636 38.1909 275.662 38.4548 275.762 38.6945C275.861 38.9343 276.029 39.1392 276.245 39.2834Z" fill="#677983"/>
<path d="M281.26 39.2737C281.476 39.4179 281.73 39.4948 281.989 39.4948C282.162 39.4961 282.333 39.4631 282.493 39.3976C282.653 39.3321 282.798 39.2355 282.92 39.1134C283.042 38.9913 283.139 38.8461 283.204 38.6863C283.27 38.5265 283.303 38.3553 283.302 38.1826C283.302 37.9231 283.225 37.6694 283.08 37.4536C282.936 37.2378 282.731 37.0697 282.491 36.9703C282.252 36.871 281.988 36.845 281.733 36.8957C281.479 36.9463 281.245 37.0713 281.061 37.2548C280.878 37.4383 280.753 37.6721 280.702 37.9267C280.652 38.1812 280.678 38.445 280.777 38.6848C280.876 38.9246 281.045 39.1295 281.26 39.2737Z" fill="#677983"/>
<path d="M286.023 39.2737C286.239 39.4179 286.493 39.4948 286.752 39.4948C286.925 39.4961 287.096 39.4631 287.256 39.3976C287.416 39.3321 287.561 39.2355 287.683 39.1134C287.805 38.9913 287.902 38.8461 287.967 38.6863C288.033 38.5265 288.066 38.3553 288.064 38.1826C288.064 37.9231 287.987 37.6694 287.843 37.4536C287.699 37.2378 287.494 37.0697 287.254 36.9703C287.015 36.871 286.751 36.845 286.496 36.8957C286.242 36.9463 286.008 37.0713 285.824 37.2548C285.641 37.4383 285.516 37.6721 285.465 37.9267C285.415 38.1812 285.441 38.445 285.54 38.6848C285.639 38.9246 285.807 39.1295 286.023 39.2737Z" fill="#677983"/>
<path fill-rule="evenodd" clip-rule="evenodd" d="M249.643 31.8857C250.142 31.386 250.82 31.1053 251.527 31.1053H290.873C291.58 31.1053 292.258 31.386 292.757 31.8857C293.257 32.3854 293.538 33.0631 293.538 33.7698V42.6053C293.538 43.3119 293.257 43.9897 292.757 44.4893C292.258 44.989 291.58 45.2698 290.873 45.2698H251.527C250.82 45.2698 250.142 44.989 249.643 44.4893C249.143 43.9897 248.862 43.3119 248.862 42.6053V33.7698C248.862 33.0631 249.143 32.3854 249.643 31.8857ZM251.527 32.624C251.223 32.624 250.932 32.7447 250.717 32.9596C250.502 33.1745 250.381 33.4659 250.381 33.7698V42.6053C250.381 42.9091 250.502 43.2006 250.717 43.4154C250.932 43.6303 251.223 43.751 251.527 43.751H290.873C291.177 43.751 291.469 43.6303 291.684 43.4154C291.898 43.2006 292.019 42.9091 292.019 42.6053V33.7698C292.019 33.4659 291.898 33.1745 291.684 32.9596C291.469 32.7447 291.177 32.624 290.873 32.624H251.527Z" fill="#677983"/>
<path fill-rule="evenodd" clip-rule="evenodd" d="M201.978 8.73976C201.978 4.73553 205.214 1.48946 209.206 1.48946C213.198 1.48946 216.435 4.73553 216.435 8.73976V8.86352C217.277 9.16211 217.88 9.9678 217.88 10.9148C217.88 15.2822 217.88 15.4355 217.88 15.4355H227.511C228.183 15.4355 228.828 15.7036 229.304 16.1807C229.779 16.6577 230.047 17.3048 230.047 17.9795V26.4191C230.034 28.8376 230.047 30.7564 230.047 33.0346L230.806 41.4705C230.806 42.1452 230.539 42.7923 230.063 43.2693C229.588 43.7464 228.943 44.0145 228.27 44.0145H190.058C189.385 44.0145 188.74 43.7464 188.265 43.2693C187.789 42.7923 187.522 42.1452 187.522 41.4705C187.522 33.6402 187.522 25.8098 187.522 17.9795C187.522 17.3048 187.789 16.6577 188.265 16.1807C188.74 15.7036 189.385 15.4355 190.058 15.4355H200.533C200.533 15.4355 200.533 15.877 200.533 10.9148C200.533 9.9678 201.136 9.16211 201.978 8.86352V8.73976Z" fill="url(#paint1_radial_70_2268)" fill-opacity="0.25"/>
<path d="M206.506 16.6772C206.506 16.2578 206.166 15.9178 205.747 15.9178C205.327 15.9178 204.987 16.2578 204.987 16.6772V19.7147C204.987 20.1341 205.327 20.474 205.747 20.474C206.166 20.474 206.506 20.1341 206.506 19.7147V16.6772Z" fill="#434F58"/>
<path fill-rule="evenodd" clip-rule="evenodd" d="M209.543 0.730286C205.35 0.730286 201.95 4.13012 201.95 8.32404V8.45367C201.065 8.7664 200.431 9.61025 200.431 10.6022V21.2334C200.431 22.4916 201.451 23.5115 202.709 23.5115H216.378C217.636 23.5115 218.656 22.4916 218.656 21.2334V10.6022C218.656 9.61025 218.022 8.7664 217.137 8.45367V8.32404C217.137 4.13012 213.737 0.730286 209.543 0.730286ZM215.618 8.32404C215.618 4.96891 212.899 2.24904 209.543 2.24904C206.188 2.24904 203.468 4.96891 203.468 8.32404H215.618ZM202.709 9.84279C202.29 9.84279 201.95 10.1828 201.95 10.6022V12.8803H211.062V21.9928H216.378C216.797 21.9928 217.137 21.6528 217.137 21.2334V10.6022C217.137 10.1828 216.797 9.84279 216.378 9.84279H202.709ZM201.95 21.2334V14.399H209.543V21.9928H202.709C202.29 21.9928 201.95 21.6528 201.95 21.2334Z" fill="#434F58"/>
<path d="M187.543 16.1174C188.042 15.6177 188.72 15.337 189.427 15.337H198.153C198.572 15.337 198.912 15.677 198.912 16.0964C198.912 16.5158 198.572 16.8558 198.153 16.8558H189.427C189.123 16.8558 188.831 16.9765 188.617 17.1913C188.402 17.4062 188.281 17.6976 188.281 18.0015V26.8348C188.283 27.1386 188.404 27.4295 188.619 27.6443C188.834 27.8592 189.125 27.9808 189.429 27.9827H228.771C229.075 27.9808 229.366 27.8592 229.581 27.6443C229.796 27.4294 229.917 27.1385 229.919 26.8347V18.0015C229.919 17.6976 229.798 17.4062 229.583 17.1913C229.369 16.9765 229.077 16.8558 228.773 16.8558H220.934C220.515 16.8558 220.175 16.5158 220.175 16.0964C220.175 15.677 220.515 15.337 220.934 15.337H228.773C229.48 15.337 230.158 15.6177 230.657 16.1174C231.157 16.6171 231.438 17.2948 231.438 18.0015V26.837L231.438 26.8408C231.434 27.5454 231.153 28.2201 230.655 28.7182C230.156 29.2164 229.482 29.4979 228.777 29.5015L228.773 29.5015H189.427L189.423 29.5015C188.718 29.4979 188.044 29.2164 187.545 28.7182C187.047 28.2201 186.766 27.5454 186.762 26.8408L186.762 26.837V18.0015C186.762 17.2948 187.043 16.6171 187.543 16.1174Z" fill="#434F58"/>
<path d="M214.145 39.2834C214.36 39.4276 214.614 39.5046 214.874 39.5046C215.046 39.5059 215.218 39.4728 215.377 39.4073C215.537 39.3418 215.682 39.2452 215.804 39.1231C215.927 39.001 216.023 38.8559 216.089 38.6961C216.154 38.5363 216.187 38.3651 216.186 38.1924C216.186 37.9328 216.109 37.6791 215.965 37.4634C215.821 37.2476 215.616 37.0794 215.376 36.9801C215.136 36.8807 214.872 36.8548 214.618 36.9054C214.363 36.956 214.129 37.081 213.946 37.2645C213.762 37.448 213.637 37.6818 213.587 37.9364C213.536 38.1909 213.562 38.4548 213.661 38.6945C213.761 38.9343 213.929 39.1393 214.145 39.2834Z" fill="#434F58"/>
<path d="M219.16 39.2737C219.376 39.4179 219.63 39.4949 219.889 39.4949C220.062 39.4962 220.233 39.4631 220.393 39.3976C220.553 39.3321 220.698 39.2355 220.82 39.1134C220.942 38.9913 221.039 38.8461 221.104 38.6863C221.17 38.5266 221.203 38.3553 221.201 38.1827C221.201 37.9231 221.124 37.6694 220.98 37.4536C220.836 37.2379 220.631 37.0697 220.391 36.9703C220.152 36.871 219.888 36.845 219.633 36.8957C219.379 36.9463 219.145 37.0713 218.961 37.2548C218.778 37.4383 218.653 37.6721 218.602 37.9267C218.552 38.1812 218.578 38.445 218.677 38.6848C218.776 38.9246 218.944 39.1295 219.16 39.2737Z" fill="#434F58"/>
<path d="M223.923 39.2737C224.139 39.4179 224.393 39.4949 224.652 39.4949C224.825 39.4962 224.996 39.4631 225.156 39.3976C225.316 39.3321 225.461 39.2355 225.583 39.1134C225.705 38.9913 225.801 38.8461 225.867 38.6863C225.932 38.5266 225.966 38.3553 225.964 38.1827C225.964 37.9231 225.887 37.6694 225.743 37.4536C225.599 37.2379 225.394 37.0697 225.154 36.9703C224.914 36.871 224.651 36.845 224.396 36.8957C224.141 36.9463 223.908 37.0713 223.724 37.2548C223.541 37.4383 223.416 37.6721 223.365 37.9267C223.314 38.1812 223.34 38.445 223.44 38.6848C223.539 38.9246 223.707 39.1295 223.923 39.2737Z" fill="#434F58"/>
<path fill-rule="evenodd" clip-rule="evenodd" d="M187.543 31.8857C188.042 31.386 188.72 31.1053 189.427 31.1053H228.773C229.48 31.1053 230.158 31.386 230.657 31.8857C231.157 32.3854 231.438 33.0631 231.438 33.7698V42.6053C231.438 43.3119 231.157 43.9897 230.657 44.4893C230.158 44.989 229.48 45.2698 228.773 45.2698H189.427C188.72 45.2698 188.042 44.989 187.543 44.4893C187.043 43.9897 186.762 43.3119 186.762 42.6053V33.7698C186.762 33.0631 187.043 32.3854 187.543 31.8857ZM189.427 32.624C189.123 32.624 188.831 32.7447 188.617 32.9596C188.402 33.1745 188.281 33.4659 188.281 33.7698V42.6053C188.281 42.9091 188.402 43.2006 188.617 43.4154C188.831 43.6303 189.123 43.751 189.427 43.751H228.773C229.077 43.751 229.369 43.6303 229.583 43.4154C229.798 43.2006 229.919 42.9091 229.919 42.6053V33.7698C229.919 33.4659 229.798 33.1745 229.583 32.9596C229.369 32.7447 229.077 32.624 228.773 32.624H189.427Z" fill="#434F58"/>
<path fill-rule="evenodd" clip-rule="evenodd" d="M139.879 8.73976C139.879 4.73553 143.115 1.48946 147.107 1.48946C151.099 1.48946 154.335 4.73553 154.335 8.73976V8.86352C155.177 9.16211 155.781 9.9678 155.781 10.9148C155.781 15.2822 155.781 15.4355 155.781 15.4355H165.411C166.084 15.4355 166.729 15.7036 167.204 16.1807C167.68 16.6577 167.947 17.3048 167.947 17.9795V26.4191C167.935 28.8376 167.947 30.7564 167.947 33.0346L168.707 41.4705C168.707 42.1452 168.439 42.7923 167.964 43.2693C167.488 43.7464 166.843 44.0145 166.17 44.0145H127.958C127.286 44.0145 126.641 43.7464 126.165 43.2693C125.689 42.7923 125.422 42.1452 125.422 41.4705C125.422 33.6402 125.422 25.8098 125.422 17.9795C125.422 17.3048 125.689 16.6577 126.165 16.1807C126.641 15.7036 127.286 15.4355 127.958 15.4355H138.433C138.433 15.4355 138.433 15.877 138.433 10.9148C138.433 9.9678 139.036 9.16211 139.879 8.86352V8.73976Z" fill="url(#paint2_radial_70_2268)" fill-opacity="0.25"/>
<path d="M144.406 16.6772C144.406 16.2578 144.066 15.9178 143.647 15.9178C143.228 15.9178 142.888 16.2578 142.888 16.6772V19.7147C142.888 20.1341 143.228 20.474 143.647 20.474C144.066 20.474 144.406 20.1341 144.406 19.7147V16.6772Z" fill="#00CAAA"/>
<path fill-rule="evenodd" clip-rule="evenodd" d="M147.444 0.730286C143.25 0.730286 139.85 4.13012 139.85 8.32404V8.45367C138.965 8.7664 138.331 9.61025 138.331 10.6022V21.2334C138.331 22.4916 139.351 23.5115 140.609 23.5115H154.278C155.536 23.5115 156.556 22.4916 156.556 21.2334V10.6022C156.556 9.61025 155.922 8.7664 155.038 8.45367V8.32404C155.038 4.13012 151.638 0.730286 147.444 0.730286ZM153.519 8.32404C153.519 4.96891 150.799 2.24904 147.444 2.24904C144.089 2.24904 141.369 4.96891 141.369 8.32404H153.519ZM140.609 9.84279C140.19 9.84279 139.85 10.1828 139.85 10.6022V12.8803H148.963V21.9928H154.278C154.698 21.9928 155.038 21.6528 155.038 21.2334V10.6022C155.038 10.1828 154.698 9.84279 154.278 9.84279H140.609ZM139.85 21.2334V14.399H147.444V21.9928H140.609C140.19 21.9928 139.85 21.6528 139.85 21.2334Z" fill="#00CAAA"/>
<path d="M125.443 16.1174C125.943 15.6177 126.62 15.337 127.327 15.337H136.053C136.473 15.337 136.813 15.677 136.813 16.0964C136.813 16.5158 136.473 16.8558 136.053 16.8558H127.327C127.023 16.8558 126.732 16.9765 126.517 17.1913C126.302 17.4062 126.181 17.6976 126.181 18.0015V26.8348C126.183 27.1386 126.305 27.4295 126.52 27.6443C126.735 27.8592 127.025 27.9808 127.329 27.9827H166.671C166.975 27.9808 167.266 27.8592 167.481 27.6443C167.696 27.4294 167.817 27.1385 167.819 26.8347V18.0015C167.819 17.6976 167.699 17.4062 167.484 17.1913C167.269 16.9765 166.978 16.8558 166.674 16.8558H158.834C158.415 16.8558 158.075 16.5158 158.075 16.0964C158.075 15.677 158.415 15.337 158.834 15.337H166.674C167.38 15.337 168.058 15.6177 168.558 16.1174C169.057 16.6171 169.338 17.2948 169.338 18.0015V26.837L169.338 26.8408C169.335 27.5454 169.053 28.2201 168.555 28.7183C168.057 29.2164 167.382 29.4979 166.678 29.5015L166.674 29.5015H127.327L127.323 29.5015C126.619 29.4979 125.944 29.2164 125.446 28.7183C124.948 28.2201 124.666 27.5454 124.663 26.8408L124.663 26.837V18.0015C124.663 17.2948 124.943 16.6171 125.443 16.1174Z" fill="#00CAAA"/>
<path d="M152.045 39.2834C152.261 39.4276 152.515 39.5046 152.774 39.5046C152.947 39.5059 153.118 39.4728 153.278 39.4073C153.438 39.3418 153.583 39.2452 153.705 39.1231C153.827 39.001 153.924 38.8558 153.989 38.6961C154.055 38.5363 154.088 38.365 154.086 38.1924C154.086 37.9328 154.009 37.6791 153.865 37.4633C153.721 37.2476 153.516 37.0794 153.276 36.9801C153.036 36.8807 152.773 36.8548 152.518 36.9054C152.264 36.956 152.03 37.081 151.846 37.2645C151.663 37.448 151.538 37.6818 151.487 37.9364C151.436 38.1909 151.462 38.4548 151.562 38.6945C151.661 38.9343 151.829 39.1392 152.045 39.2834Z" fill="#00CAAA"/>
<path d="M157.061 39.2737C157.276 39.4179 157.53 39.4948 157.79 39.4948C157.962 39.4961 158.134 39.4631 158.293 39.3976C158.453 39.3321 158.598 39.2355 158.72 39.1134C158.842 38.9913 158.939 38.8461 159.005 38.6863C159.07 38.5265 159.103 38.3553 159.102 38.1826C159.102 37.9231 159.025 37.6694 158.881 37.4536C158.736 37.2378 158.532 37.0697 158.292 36.9703C158.052 36.871 157.788 36.845 157.534 36.8957C157.279 36.9463 157.045 37.0713 156.862 37.2548C156.678 37.4383 156.553 37.6721 156.503 37.9267C156.452 38.1812 156.478 38.445 156.577 38.6848C156.677 38.9246 156.845 39.1295 157.061 39.2737Z" fill="#00CAAA"/>
<path d="M161.823 39.2737C162.039 39.4179 162.293 39.4948 162.552 39.4948C162.725 39.4961 162.896 39.4631 163.056 39.3976C163.216 39.3321 163.361 39.2355 163.483 39.1134C163.605 38.9913 163.702 38.8461 163.767 38.6863C163.833 38.5265 163.866 38.3553 163.865 38.1826C163.865 37.9231 163.788 37.6694 163.643 37.4536C163.499 37.2378 163.294 37.0697 163.055 36.9703C162.815 36.871 162.551 36.845 162.296 36.8957C162.042 36.9463 161.808 37.0713 161.625 37.2548C161.441 37.4383 161.316 37.6721 161.265 37.9267C161.215 38.1812 161.241 38.445 161.34 38.6848C161.439 38.9246 161.608 39.1295 161.823 39.2737Z" fill="#00CAAA"/>
<path fill-rule="evenodd" clip-rule="evenodd" d="M125.443 31.8857C125.943 31.386 126.62 31.1053 127.327 31.1053H166.674C167.38 31.1053 168.058 31.386 168.558 31.8857C169.057 32.3854 169.338 33.0631 169.338 33.7698V42.6053C169.338 43.3119 169.057 43.9897 168.558 44.4893C168.058 44.989 167.38 45.2698 166.674 45.2698H127.327C126.62 45.2698 125.943 44.989 125.443 44.4893C124.943 43.9897 124.663 43.3119 124.663 42.6053V33.7698C124.663 33.0631 124.943 32.3854 125.443 31.8857ZM127.327 32.624C127.023 32.624 126.732 32.7447 126.517 32.9596C126.302 33.1745 126.181 33.4659 126.181 33.7698V42.6053C126.181 42.9091 126.302 43.2006 126.517 43.4154C126.732 43.6303 127.023 43.751 127.327 43.751H166.674C166.978 43.751 167.269 43.6303 167.484 43.4154C167.699 43.2006 167.819 42.9091 167.819 42.6053V33.7698C167.819 33.4659 167.699 33.1745 167.484 32.9596C167.269 32.7447 166.978 32.624 166.674 32.624H127.327Z" fill="#00CAAA"/>
<path fill-rule="evenodd" clip-rule="evenodd" d="M77.7785 8.73976C77.7785 4.73553 81.0146 1.48946 85.0067 1.48946C88.9987 1.48946 92.2349 4.73553 92.2349 8.73976V8.86352C93.0771 9.16211 93.6805 9.9678 93.6805 10.9148C93.6805 15.2822 93.6805 15.4355 93.6805 15.4355H103.311C103.983 15.4355 104.629 15.7036 105.104 16.1807C105.58 16.6577 105.847 17.3048 105.847 17.9795V26.4191C105.835 28.8376 105.847 30.7564 105.847 33.0346L106.606 41.4705C106.606 42.1452 106.339 42.7923 105.864 43.2693C105.388 43.7464 104.743 44.0145 104.07 44.0145H65.8583C65.1856 44.0145 64.5406 43.7464 64.0649 43.2693C63.5892 42.7923 63.322 42.1452 63.322 41.4705C63.322 33.6402 63.322 25.8098 63.322 17.9795C63.322 17.3048 63.5892 16.6577 64.0649 16.1807C64.5406 15.7036 65.1856 15.4355 65.8583 15.4355H76.3328C76.3328 15.4355 76.3328 15.877 76.3328 10.9148C76.3328 9.9678 76.9362 9.16211 77.7785 8.86352V8.73976Z" fill="url(#paint3_radial_70_2268)" fill-opacity="0.25"/>
<path d="M82.3063 16.6772C82.3063 16.2578 81.9663 15.9178 81.5469 15.9178C81.1275 15.9178 80.7875 16.2578 80.7875 16.6772V19.7147C80.7875 20.1341 81.1275 20.474 81.5469 20.474C81.9663 20.474 82.3063 20.1341 82.3063 19.7147V16.6772Z" fill="#A644E5"/>
<path fill-rule="evenodd" clip-rule="evenodd" d="M85.3438 0.730286C81.1498 0.730286 77.75 4.13012 77.75 8.32404V8.45367C76.8652 8.7664 76.2313 9.61025 76.2313 10.6022V21.2334C76.2313 22.4916 77.2512 23.5115 78.5094 23.5115H92.1781C93.4363 23.5115 94.4563 22.4916 94.4563 21.2334V10.6022C94.4563 9.61025 93.8223 8.7664 92.9375 8.45367V8.32404C92.9375 4.13012 89.5377 0.730286 85.3438 0.730286ZM91.4188 8.32404C91.4188 4.96891 88.6989 2.24904 85.3438 2.24904C81.9886 2.24904 79.2688 4.96891 79.2688 8.32404H91.4188ZM78.5094 9.84279C78.09 9.84279 77.75 10.1828 77.75 10.6022V12.8803H86.8625V21.9928H92.1781C92.5975 21.9928 92.9375 21.6528 92.9375 21.2334V10.6022C92.9375 10.1828 92.5975 9.84279 92.1781 9.84279H78.5094ZM77.75 21.2334V14.399H85.3438V21.9928H78.5094C78.09 21.9928 77.75 21.6528 77.75 21.2334Z" fill="#A644E5"/>
<path d="M63.3429 16.1174C63.8426 15.6177 64.5203 15.337 65.227 15.337H73.9531C74.3725 15.337 74.7125 15.677 74.7125 16.0964C74.7125 16.5158 74.3725 16.8558 73.9531 16.8558H65.227C64.9231 16.8558 64.6317 16.9765 64.4168 17.1913C64.202 17.4062 64.0812 17.6976 64.0812 18.0015V26.8348C64.0832 27.1386 64.2048 27.4295 64.4197 27.6443C64.6345 27.8592 64.9254 27.9808 65.2292 27.9827H104.571C104.875 27.9808 105.166 27.8592 105.381 27.6443C105.596 27.4294 105.717 27.1385 105.719 26.8347V18.0015C105.719 17.6976 105.599 17.4062 105.384 17.1913C105.169 16.9765 104.877 16.8558 104.574 16.8558H96.7344C96.315 16.8558 95.975 16.5158 95.975 16.0964C95.975 15.677 96.315 15.337 96.7344 15.337H104.574C105.28 15.337 105.958 15.6177 106.458 16.1174C106.957 16.6171 107.238 17.2948 107.238 18.0015V26.837L107.238 26.8408C107.234 27.5454 106.953 28.2201 106.455 28.7183C105.957 29.2164 105.282 29.4979 104.577 29.5015L104.574 29.5015H65.227L65.2232 29.5015C64.5186 29.4979 63.8439 29.2164 63.3457 28.7183C62.8475 28.2201 62.5661 27.5454 62.5625 26.8408L62.5625 26.837V18.0015C62.5625 17.2948 62.8432 16.6171 63.3429 16.1174Z" fill="#A644E5"/>
<path d="M89.945 39.2834C90.1608 39.4276 90.4145 39.5046 90.674 39.5046C90.8467 39.5059 91.0179 39.4728 91.1777 39.4073C91.3375 39.3418 91.4827 39.2452 91.6048 39.1231C91.7269 39.001 91.8235 38.8559 91.889 38.6961C91.9544 38.5363 91.9875 38.3651 91.9862 38.1924C91.9862 37.9328 91.9092 37.6791 91.7651 37.4634C91.6209 37.2476 91.4159 37.0794 91.1762 36.9801C90.9364 36.8807 90.6725 36.8548 90.418 36.9054C90.1635 36.956 89.9297 37.081 89.7461 37.2645C89.5626 37.448 89.4377 37.6818 89.387 37.9364C89.3364 38.1909 89.3624 38.4548 89.4617 38.6945C89.561 38.9343 89.7292 39.1393 89.945 39.2834Z" fill="#A644E5"/>
<path d="M94.9605 39.2737C95.1763 39.4179 95.43 39.4949 95.6895 39.4949C95.8622 39.4962 96.0334 39.4631 96.1932 39.3976C96.353 39.3321 96.4982 39.2355 96.6203 39.1134C96.7424 38.9913 96.839 38.8461 96.9045 38.6863C96.97 38.5266 97.003 38.3553 97.0017 38.1827C97.0017 37.9231 96.9248 37.6694 96.7806 37.4536C96.6364 37.2379 96.4315 37.0697 96.1917 36.9703C95.9519 36.871 95.6881 36.845 95.4335 36.8957C95.179 36.9463 94.9452 37.0713 94.7617 37.2548C94.5781 37.4383 94.4532 37.6721 94.4025 37.9267C94.3519 38.1812 94.3779 38.445 94.4772 38.6848C94.5765 38.9246 94.7447 39.1295 94.9605 39.2737Z" fill="#A644E5"/>
<path d="M99.7233 39.2737C99.9391 39.4179 100.193 39.4949 100.452 39.4949C100.625 39.4962 100.796 39.4631 100.956 39.3976C101.116 39.3321 101.261 39.2355 101.383 39.1134C101.505 38.9913 101.602 38.8461 101.667 38.6863C101.733 38.5266 101.766 38.3553 101.765 38.1827C101.765 37.9231 101.688 37.6694 101.543 37.4536C101.399 37.2379 101.194 37.0697 100.954 36.9703C100.715 36.871 100.451 36.845 100.196 36.8957C99.9418 36.9463 99.708 37.0713 99.5245 37.2548C99.341 37.4383 99.216 37.6721 99.1653 37.9267C99.1147 38.1812 99.1407 38.445 99.24 38.6848C99.3393 38.9246 99.5075 39.1295 99.7233 39.2737Z" fill="#A644E5"/>
<path fill-rule="evenodd" clip-rule="evenodd" d="M63.3429 31.8857C63.8426 31.386 64.5203 31.1053 65.227 31.1053H104.574C105.28 31.1053 105.958 31.386 106.458 31.8857C106.957 32.3854 107.238 33.0631 107.238 33.7698V42.6053C107.238 43.3119 106.957 43.9897 106.458 44.4893C105.958 44.989 105.28 45.2698 104.574 45.2698H65.227C64.5203 45.2698 63.8426 44.989 63.3429 44.4893C62.8432 43.9897 62.5625 43.3119 62.5625 42.6053V33.7698C62.5625 33.0631 62.8432 32.3854 63.3429 31.8857ZM65.227 32.624C64.9231 32.624 64.6317 32.7447 64.4168 32.9596C64.202 33.1745 64.0812 33.4659 64.0812 33.7698V42.6053C64.0812 42.9091 64.202 43.2006 64.4168 43.4154C64.6317 43.6303 64.9231 43.751 65.227 43.751H104.574C104.877 43.751 105.169 43.6303 105.384 43.4154C105.599 43.2006 105.719 42.9091 105.719 42.6053V33.7698C105.719 33.4659 105.599 33.1745 105.384 32.9596C105.169 32.7447 104.877 32.624 104.574 32.624H65.227Z" fill="#A644E5"/>
<path fill-rule="evenodd" clip-rule="evenodd" d="M15.6784 8.73976C15.6784 4.73553 18.9145 1.48946 22.9066 1.48946C26.8986 1.48946 30.1348 4.73553 30.1348 8.73976V8.86352C30.977 9.16211 31.5804 9.9678 31.5804 10.9148C31.5804 15.2822 31.5804 15.4355 31.5804 15.4355H41.2107C41.8833 15.4355 42.5284 15.7036 43.0041 16.1807C43.4797 16.6577 43.7469 17.3048 43.7469 17.9795V26.4191C43.7346 28.8376 43.7469 30.7564 43.7469 33.0346L44.5063 41.4705C44.5063 42.1452 44.2391 42.7923 43.7635 43.2693C43.2878 43.7464 42.6427 44.0145 41.9701 44.0145H3.75816C3.08555 44.0145 2.44046 43.7464 1.96479 43.2693C1.48911 42.7923 1.22194 42.1452 1.22194 41.4705C1.22194 33.6402 1.22194 25.8098 1.22194 17.9795C1.22194 17.3048 1.48911 16.6577 1.96479 16.1807C2.44046 15.7036 3.08555 15.4355 3.75816 15.4355H14.2327C14.2327 15.4355 14.2327 15.877 14.2327 10.9148C14.2327 9.9678 14.8361 9.16211 15.6784 8.86352V8.73976Z" fill="url(#paint4_radial_70_2268)" fill-opacity="0.25"/>
<path d="M20.2062 16.6772C20.2062 16.2578 19.8662 15.9178 19.4468 15.9178C19.0274 15.9178 18.6874 16.2578 18.6874 16.6772V19.7147C18.6874 20.1341 19.0274 20.474 19.4468 20.474C19.8662 20.474 20.2062 20.1341 20.2062 19.7147V16.6772Z" fill="#0073EC"/>
<path fill-rule="evenodd" clip-rule="evenodd" d="M23.2437 0.730286C19.0497 0.730286 15.6499 4.13012 15.6499 8.32404V8.45367C14.7651 8.7664 14.1312 9.61025 14.1312 10.6022V21.2334C14.1312 22.4916 15.1511 23.5115 16.4093 23.5115H30.078C31.3362 23.5115 32.3562 22.4916 32.3562 21.2334V10.6022C32.3562 9.61025 31.7222 8.7664 30.8374 8.45367V8.32404C30.8374 4.13012 27.4376 0.730286 23.2437 0.730286ZM29.3187 8.32404C29.3187 4.96891 26.5988 2.24904 23.2437 2.24904C19.8885 2.24904 17.1687 4.96891 17.1687 8.32404H29.3187ZM16.4093 9.84279C15.9899 9.84279 15.6499 10.1828 15.6499 10.6022V12.8803H24.7624V21.9928H30.078C30.4974 21.9928 30.8374 21.6528 30.8374 21.2334V10.6022C30.8374 10.1828 30.4974 9.84279 30.078 9.84279H16.4093ZM15.6499 21.2334V14.399H23.2437V21.9928H16.4093C15.9899 21.9928 15.6499 21.6528 15.6499 21.2334Z" fill="#0073EC"/>
<path d="M1.24282 16.1174C1.74251 15.6177 2.42023 15.337 3.1269 15.337H11.853C12.2724 15.337 12.6124 15.677 12.6124 16.0964C12.6124 16.5158 12.2724 16.8558 11.853 16.8558H3.1269C2.82303 16.8558 2.5316 16.9765 2.31673 17.1913C2.10187 17.4062 1.98115 17.6976 1.98115 18.0015V26.8348C1.98313 27.1386 2.10469 27.4295 2.31956 27.6443C2.53443 27.8592 2.82528 27.9808 3.12911 27.9827H42.4713C42.7751 27.9808 43.0659 27.8592 43.2808 27.6443C43.4957 27.4294 43.6173 27.1385 43.6192 26.8347V18.0015C43.6192 17.6976 43.4985 17.4062 43.2836 17.1913C43.0688 16.9765 42.7773 16.8558 42.4735 16.8558H34.6343C34.2149 16.8558 33.8749 16.5158 33.8749 16.0964C33.8749 15.677 34.2149 15.337 34.6343 15.337H42.4735C43.1801 15.337 43.8579 15.6177 44.3576 16.1174C44.8572 16.6171 45.138 17.2948 45.138 18.0015V26.837L45.138 26.8408C45.1344 27.5454 44.8529 28.2201 44.3547 28.7183C43.8565 29.2164 43.1819 29.4979 42.4773 29.5015L42.4735 29.5015H3.1269L3.12305 29.5015C2.41851 29.4979 1.74383 29.2164 1.24564 28.7183C0.747441 28.2201 0.465979 27.5454 0.462412 26.8408L0.462402 26.837V18.0015C0.462402 17.2948 0.743125 16.6171 1.24282 16.1174Z" fill="#0073EC"/>
<path d="M27.8449 39.2834C28.0607 39.4276 28.3144 39.5046 28.5739 39.5046C28.7466 39.5059 28.9178 39.4728 29.0776 39.4073C29.2374 39.3418 29.3826 39.2452 29.5047 39.1231C29.6268 39.001 29.7234 38.8558 29.7889 38.6961C29.8543 38.5363 29.8874 38.365 29.8861 38.1924C29.8861 37.9328 29.8092 37.6791 29.665 37.4633C29.5208 37.2476 29.3158 37.0794 29.0761 36.9801C28.8363 36.8807 28.5725 36.8548 28.3179 36.9054C28.0634 36.956 27.8296 37.081 27.646 37.2645C27.4625 37.448 27.3376 37.6818 27.2869 37.9364C27.2363 38.1909 27.2623 38.4548 27.3616 38.6945C27.4609 38.9343 27.6291 39.1392 27.8449 39.2834Z" fill="#0073EC"/>
<path d="M32.8604 39.2737C33.0762 39.4179 33.3299 39.4948 33.5894 39.4948C33.7621 39.4961 33.9333 39.4631 34.0931 39.3976C34.2529 39.3321 34.3981 39.2355 34.5202 39.1134C34.6423 38.9913 34.7389 38.8461 34.8044 38.6863C34.8699 38.5265 34.9029 38.3553 34.9016 38.1826C34.9016 37.9231 34.8247 37.6694 34.6805 37.4536C34.5363 37.2378 34.3314 37.0697 34.0916 36.9703C33.8518 36.871 33.588 36.845 33.3334 36.8957C33.0789 36.9463 32.8451 37.0713 32.6616 37.2548C32.4781 37.4383 32.3531 37.6721 32.3024 37.9267C32.2518 38.1812 32.2778 38.445 32.3771 38.6848C32.4764 38.9246 32.6446 39.1295 32.8604 39.2737Z" fill="#0073EC"/>
<path d="M37.6232 39.2737C37.839 39.4179 38.0927 39.4948 38.3522 39.4948C38.5249 39.4961 38.6961 39.4631 38.8559 39.3976C39.0157 39.3321 39.1609 39.2355 39.283 39.1134C39.4051 38.9913 39.5017 38.8461 39.5672 38.6863C39.6327 38.5265 39.6657 38.3553 39.6644 38.1826C39.6644 37.9231 39.5875 37.6694 39.4433 37.4536C39.2991 37.2378 39.0942 37.0697 38.8544 36.9703C38.6146 36.871 38.3508 36.845 38.0962 36.8957C37.8417 36.9463 37.6079 37.0713 37.4244 37.2548C37.2409 37.4383 37.1159 37.6721 37.0652 37.9267C37.0146 38.1812 37.0406 38.445 37.1399 38.6848C37.2392 38.9246 37.4074 39.1295 37.6232 39.2737Z" fill="#0073EC"/>
<path fill-rule="evenodd" clip-rule="evenodd" d="M1.24282 31.8857C1.7425 31.386 2.42023 31.1053 3.1269 31.1053H42.4735C43.1801 31.1053 43.8579 31.386 44.3576 31.8857C44.8572 32.3854 45.138 33.0631 45.138 33.7698V42.6053C45.138 43.3119 44.8572 43.9897 44.3576 44.4893C43.8579 44.989 43.1801 45.2698 42.4735 45.2698H3.1269C2.42023 45.2698 1.74251 44.989 1.24282 44.4893C0.743125 43.9897 0.462402 43.3119 0.462402 42.6053V33.7698C0.462402 33.0631 0.743126 32.3854 1.24282 31.8857ZM3.1269 32.624C2.82303 32.624 2.5316 32.7447 2.31673 32.9596C2.10186 33.1745 1.98115 33.4659 1.98115 33.7698V42.6053C1.98115 42.9091 2.10187 43.2006 2.31673 43.4154C2.5316 43.6303 2.82303 43.751 3.1269 43.751H42.4735C42.7773 43.751 43.0688 43.6303 43.2836 43.4154C43.4985 43.2006 43.6192 42.9091 43.6192 42.6053V33.7698C43.6192 33.4659 43.4985 33.1745 43.2836 32.9596C43.0688 32.7447 42.7773 32.624 42.4735 32.624H3.1269Z" fill="#0073EC"/>
<defs>
<radialGradient id="paint0_radial_70_2268" cx="0" cy="0" r="1" gradientUnits="userSpaceOnUse" gradientTransform="translate(147 23) rotate(90) scale(22.2697 146.538)">
<stop stop-color="#677983"/>
<stop offset="1" stop-color="#677983" stop-opacity="0"/>
</radialGradient>
<radialGradient id="paint1_radial_70_2268" cx="0" cy="0" r="1" gradientUnits="userSpaceOnUse" gradientTransform="translate(147 23) rotate(90) scale(22.2697 146.538)">
<stop stop-color="#434F58"/>
<stop offset="1" stop-color="#434F58" stop-opacity="0"/>
</radialGradient>
<radialGradient id="paint2_radial_70_2268" cx="0" cy="0" r="1" gradientUnits="userSpaceOnUse" gradientTransform="translate(147 23) rotate(90) scale(22.2697 146.538)">
<stop stop-color="#00CAAA"/>
<stop offset="1" stop-color="#00CAAA" stop-opacity="0"/>
</radialGradient>
<radialGradient id="paint3_radial_70_2268" cx="0" cy="0" r="1" gradientUnits="userSpaceOnUse" gradientTransform="translate(147 23) rotate(90) scale(22.2697 146.538)">
<stop stop-color="#A644E5"/>
<stop offset="1" stop-color="#A644E5" stop-opacity="0"/>
</radialGradient>
<radialGradient id="paint4_radial_70_2268" cx="0" cy="0" r="1" gradientUnits="userSpaceOnUse" gradientTransform="translate(147 23) rotate(90) scale(22.2697 146.538)">
<stop stop-color="#0073EC"/>
<stop offset="1" stop-color="#0073EC" stop-opacity="0"/>
</radialGradient>
</defs>
</svg>
