<svg width="100" height="100" viewBox="0 0 100 100" fill="none" xmlns="http://www.w3.org/2000/svg">
<path fill-rule="evenodd" clip-rule="evenodd" d="M6.25 90.6497C6.25264 91.6685 6.65841 92.6449 7.37867 93.3656C8.09893 94.0862 9.07513 94.4925 10.094 94.4957H37.7586L37.7793 94.4958H87.9451C88.964 94.4926 89.9402 94.0863 90.6604 93.3657C91.3807 92.645 91.7865 91.6686 91.7891 90.6498V72.8338C91.7886 71.8141 91.3836 70.8363 90.6629 70.1149L90.625 70.0775L90.2371 67.1875V64.0625V56.1879C90.3371 53.9559 88.801 51.9019 86.5891 51.2839L81.5251 49.8499C81.4159 49.8203 81.3196 49.7554 81.2512 49.6653C81.1829 49.5752 81.1463 49.465 81.1471 49.3519V47.6499C81.5656 47.3645 81.959 47.044 82.3231 46.6919C83.196 45.8461 83.8895 44.833 84.362 43.7131C84.8345 42.5931 85.0763 41.3895 85.0731 40.174V37.85L85.5731 36.872C86.1099 35.794 86.3893 34.6062 86.3891 33.402V27.102C86.3912 26.9417 86.3613 26.7826 86.3009 26.6341C86.2406 26.4856 86.151 26.3507 86.0377 26.2374C85.9243 26.124 85.7895 26.0345 85.641 25.9742C85.4925 25.9138 85.3334 25.8839 85.1731 25.886H73.3891C71.3281 25.8887 69.3523 26.7085 67.895 28.1659C66.4377 29.6232 65.6178 31.599 65.6152 33.66V33.74C65.6195 34.7429 65.8513 35.7317 66.2931 36.632L66.9111 37.888V39.888C66.907 41.3932 67.2608 42.8779 67.9434 44.2195C68.626 45.5611 69.6179 46.7211 70.8371 47.6039V49.3779C70.8371 49.6579 70.8371 49.7559 69.8211 50.0559L67.3492 50.7539L60.2132 48.1539C60.2271 47.9823 60.2039 47.8098 60.1453 47.6479C60.0866 47.4861 59.9938 47.3387 59.8732 47.2159L57.6012 44.8159V40.798C57.8412 40.598 58.0792 40.398 58.3192 40.18C59.7446 38.8384 60.8811 37.22 61.659 35.4238C62.4369 33.6276 62.8399 31.6914 62.8432 29.734V26.534C63.712 24.6744 64.1612 22.6466 64.1592 20.594V7.46608C64.1613 7.30597 64.1314 7.14704 64.0712 6.99867C64.0109 6.8503 63.9216 6.71549 63.8085 6.60217C63.6954 6.48885 63.5607 6.39932 63.4124 6.33885C63.2642 6.27838 63.1053 6.2482 62.9452 6.25008H44.6252C41.523 6.25432 38.549 7.48856 36.3554 9.68218C34.1618 11.8758 32.9275 14.8498 32.9233 17.952V20.564C32.9193 22.6168 33.3687 24.645 34.2393 26.504V29.276C34.2321 31.4461 34.6973 33.5918 35.6025 35.5642C36.5077 37.5366 37.8312 39.2883 39.4813 40.698V44.8039L37.2093 47.2039C37.0926 47.329 37.0025 47.4765 36.9444 47.6373C36.8863 47.7982 36.8615 47.9692 36.8713 48.1399L29.3353 50.8719C28.795 51.0663 28.2847 51.3356 27.8193 51.6719L26.6433 51.0719C30.1713 49.5379 31.2893 47.3839 31.3293 47.2839C31.4163 47.1144 31.4617 46.9265 31.4617 46.7359C31.4617 46.5453 31.4163 46.3575 31.3293 46.1879C30.4513 44.4139 30.3293 41.188 30.2513 38.588C30.2313 37.73 30.1913 36.912 30.1513 36.174C29.7333 30.294 25.2673 25.868 19.7653 25.868C14.2633 25.868 9.79935 30.292 9.38935 36.172C9.32935 36.91 9.30936 37.728 9.28936 38.586C9.21136 41.176 9.08935 44.4259 8.21335 46.1859C8.1247 46.355 8.07838 46.543 8.07838 46.7339C8.07838 46.9248 8.1247 47.1129 8.21335 47.2819L8.22389 47.3004C8.3562 47.5352 9.51483 49.5908 12.8993 51.0699L9.60935 52.7059C8.75274 53.131 8.03185 53.7868 7.52795 54.5996C7.02405 55.4123 6.75716 56.3496 6.75735 57.3059V64.0625V67.1875L6.25 90.6497Z" fill="url(#paint0_radial_70_2294)" fill-opacity="0.25"/>
<path d="M79.3892 36.0339C79.5581 36.1112 79.7415 36.1514 79.9272 36.1519C80.1553 36.1551 80.3795 36.0931 80.5736 35.9734C80.7677 35.8537 80.9236 35.6811 81.0232 35.4759C81.0946 35.3346 81.1373 35.1806 81.1488 35.0227C81.1604 34.8648 81.1406 34.7062 81.0906 34.556C81.0406 34.4057 80.9614 34.2669 80.8575 34.1475C80.7536 34.028 80.6271 33.9303 80.4852 33.86C77.6332 32.444 72.3112 32.426 72.0853 32.426C71.7627 32.426 71.4535 32.5541 71.2254 32.7821C70.9974 33.0102 70.8692 33.3195 70.8692 33.642C70.8692 33.9645 70.9974 34.2737 71.2254 34.5018C71.4535 34.7298 71.7627 34.8579 72.0853 34.8579C73.4712 34.8499 77.4592 35.0759 79.3892 36.0339Z" fill="#00CAAA"/>
<path d="M40.5993 20.344C40.5993 20.304 40.6173 20.264 40.6573 20.264C43.2891 19.8636 45.9554 19.7369 48.6133 19.886C52.4133 20.144 55.1913 21.102 56.8252 22.736C57.0554 22.9655 57.3672 23.0943 57.6922 23.0943C58.0173 23.0943 58.3291 22.9655 58.5592 22.736C58.6776 22.6253 58.7723 22.4918 58.8377 22.3436C58.9031 22.1953 58.9378 22.0353 58.9396 21.8733C58.9415 21.7112 58.9105 21.5505 58.8486 21.4008C58.7866 21.251 58.695 21.1154 58.5792 21.002C53.9553 16.378 44.2673 17.25 40.3193 17.85C39.7176 17.9383 39.1681 18.2413 38.7722 18.7029C38.3764 19.1646 38.1608 19.7539 38.1653 20.362V23.176C38.178 23.4902 38.3118 23.7874 38.5387 24.0052C38.7655 24.223 39.0678 24.3446 39.3823 24.3446C39.6968 24.3446 39.9991 24.223 40.2259 24.0052C40.4528 23.7874 40.5866 23.4902 40.5993 23.176V20.344Z" fill="#00CAAA"/>
<path fill-rule="evenodd" clip-rule="evenodd" d="M9.59099 55.884C9.32688 56.3104 9.18773 56.8023 9.18936 57.3039V66.6189C9.18936 67.2905 8.64493 67.8349 7.97336 67.8349C7.30178 67.8349 6.75735 67.2905 6.75735 66.6189V57.3059C6.75716 56.3496 7.02405 55.4123 7.52795 54.5996C8.03185 53.7868 8.75274 53.131 9.60935 52.7059L12.8993 51.0699C9.51483 49.5908 8.35621 47.5352 8.2239 47.3004L8.21335 47.2819C8.1247 47.1129 8.07839 46.9248 8.07839 46.7339C8.07839 46.543 8.1247 46.355 8.21335 46.1859C9.08935 44.4259 9.21135 41.176 9.28935 38.586C9.30935 37.728 9.32935 36.91 9.38935 36.172C9.79935 30.292 14.2633 25.868 19.7653 25.868C25.2673 25.868 29.7333 30.294 30.1513 36.174C30.1913 36.912 30.2313 37.73 30.2513 38.588C30.3293 41.188 30.4513 44.4139 31.3293 46.1879C31.4163 46.3575 31.4617 46.5453 31.4617 46.7359C31.4617 46.9265 31.4163 47.1144 31.3293 47.2839C31.2893 47.3839 30.1713 49.5379 26.6433 51.0719L27.8193 51.6719C28.2847 51.3356 28.795 51.0663 29.3353 50.8719L36.8713 48.1399C36.8615 47.9692 36.8863 47.7982 36.9444 47.6373C37.0025 47.4765 37.0926 47.329 37.2093 47.2039L39.4813 44.8039V40.698C37.8312 39.2883 36.5077 37.5366 35.6025 35.5642C34.6973 33.5918 34.2321 31.4461 34.2393 29.276V26.504C33.3687 24.645 32.9193 22.6168 32.9233 20.564V17.952C32.9275 14.8498 34.1618 11.8758 36.3554 9.68218C38.549 7.48856 41.523 6.25432 44.6252 6.25008H62.9452C63.1053 6.2482 63.2641 6.27838 63.4124 6.33885C63.5607 6.39932 63.6954 6.48885 63.8085 6.60217C63.9216 6.71549 64.0109 6.8503 64.0712 6.99867C64.1314 7.14704 64.1613 7.30597 64.1592 7.46608V20.594C64.1612 22.6466 63.712 24.6744 62.8432 26.534V29.734C62.8399 31.6914 62.4369 33.6276 61.659 35.4238C60.8811 37.22 59.7446 38.8384 58.3192 40.18C58.0792 40.398 57.8412 40.598 57.6012 40.798V44.8159L59.8732 47.2159C59.9938 47.3387 60.0866 47.4861 60.1453 47.6479C60.2039 47.8098 60.2271 47.9823 60.2132 48.1539L67.3491 50.7539L69.8211 50.0559C70.8371 49.7559 70.8371 49.6579 70.8371 49.3779V47.6039C69.6179 46.7211 68.6261 45.5611 67.9434 44.2195C67.2608 42.8779 66.907 41.3932 66.9111 39.888V37.888L66.2931 36.632C65.8513 35.7317 65.6195 34.7429 65.6152 33.74V33.66C65.6178 31.599 66.4377 29.6232 67.895 28.1659C69.3523 26.7085 71.3281 25.8887 73.3891 25.886H85.1731C85.3334 25.8839 85.4924 25.9138 85.6409 25.9742C85.7895 26.0345 85.9244 26.124 86.0377 26.2374C86.151 26.3507 86.2405 26.4856 86.3009 26.6341C86.3612 26.7826 86.3912 26.9417 86.3891 27.102V33.402C86.3893 34.6062 86.11 35.7941 85.5731 36.872L85.0731 37.85V40.174C85.0763 41.3895 84.8345 42.5931 84.362 43.7131C83.8895 44.833 83.196 45.8461 82.3231 46.6919C81.959 47.044 81.5656 47.3645 81.1471 47.6499V49.3519C81.1462 49.465 81.1829 49.5752 81.2512 49.6653C81.3196 49.7554 81.4159 49.8203 81.5251 49.8499L86.5891 51.2839C88.8011 51.9019 90.3371 53.9559 90.2371 56.1879V66.3239C90.2371 66.6464 90.1089 66.9557 89.8809 67.1837C89.6528 67.4118 89.3436 67.5399 89.0211 67.5399C88.6986 67.5399 88.3893 67.4118 88.1612 67.1837C87.9332 66.9557 87.8051 66.6464 87.8051 66.3239V56.1979C87.8042 55.6115 87.6133 55.0412 87.2611 54.5725C86.9088 54.1037 86.4141 53.7618 85.8511 53.5979L80.7871 52.1619C80.6068 52.1169 80.4329 52.0497 80.2691 51.9619L77.1591 55.0719V66.3439C77.1591 66.6664 77.031 66.9757 76.8029 67.2037C76.5749 67.4317 76.2656 67.5599 75.9431 67.5599C75.6206 67.5599 75.3113 67.4317 75.0833 67.2037C74.8552 66.9757 74.7271 66.6664 74.7271 66.3439V55.0819L71.5971 51.9519C71.2351 52.1329 70.8541 52.2731 70.4611 52.3699L70.1631 52.4499C71.3218 53.6534 71.9746 55.2554 71.9871 56.9259V66.3539C71.9871 66.6764 71.859 66.9857 71.631 67.2137C71.4029 67.4417 71.0936 67.5699 70.7711 67.5699C70.4486 67.5699 70.1393 67.4417 69.9113 67.2137C69.6833 66.9857 69.5551 66.6764 69.5551 66.3539V56.9259C69.5527 56.1045 69.2994 55.3033 68.829 54.6299C68.3586 53.9565 67.6936 53.4429 66.9231 53.1579L58.9892 50.2679L55.6732 55.2299C55.467 55.5426 55.1935 55.8053 54.8727 55.9987C54.552 56.1921 54.192 56.3114 53.8192 56.3479C53.7342 56.3637 53.6477 56.3704 53.5612 56.3679C53.2273 56.37 52.8963 56.3058 52.5873 56.1791C52.2784 56.0525 51.9976 55.8658 51.7612 55.6299L49.7492 53.6159V66.3739C49.7492 66.6964 49.6211 67.0057 49.3931 67.2337C49.165 67.4618 48.8557 67.5899 48.5332 67.5899C48.2107 67.5899 47.9014 67.4618 47.6734 67.2337C47.4453 67.0057 47.3172 66.6964 47.3172 66.3739V53.6159L45.3032 55.6299C45.0671 55.8661 44.7864 56.0531 44.4774 56.1798C44.1684 56.3065 43.8372 56.3704 43.5033 56.3679C43.4505 56.3679 43.4033 56.3623 43.3587 56.3571C43.3188 56.3524 43.281 56.3479 43.2432 56.3479C42.8705 56.3112 42.5107 56.1917 42.19 55.9983C41.8692 55.8049 41.5957 55.5424 41.3893 55.2299L38.0873 50.2679L30.1513 53.1579C29.3811 53.443 28.7164 53.9566 28.2463 54.6301C27.7762 55.3036 27.5233 56.1046 27.5213 56.9259V66.6189C27.5213 67.2905 26.9769 67.8349 26.3053 67.8349C25.6337 67.8349 25.0893 67.2905 25.0893 66.6189V56.9079C25.0863 55.705 25.4247 54.526 26.0653 53.5079L24.7293 52.8499L23.3153 54.2059C22.3573 55.115 21.087 55.6217 19.7663 55.6217C18.4457 55.6217 17.1753 55.115 16.2173 54.2059L14.8013 52.8499L10.6833 54.8919C10.2336 55.1139 9.8551 55.4576 9.59099 55.884ZM73.2331 50.0599L76.0231 52.8499L78.7931 50.0659C78.7483 49.829 78.7222 49.5889 78.7151 49.3479V48.8499C77.8422 49.1145 76.9352 49.2492 76.0231 49.2499H75.7431C74.9156 49.2309 74.0958 49.0873 73.3111 48.8239V49.3419C73.3061 49.5831 73.28 49.8233 73.2331 50.0599ZM69.3851 37.568V39.85L69.3891 39.86C69.3891 43.588 72.2551 46.7179 75.8111 46.8179C76.7004 46.848 77.5866 46.6974 78.4161 46.3753C79.2456 46.0532 80.0011 45.5663 80.6371 44.9439C81.2774 44.3221 81.7869 43.5786 82.1359 42.757C82.4848 41.9355 82.6661 41.0525 82.6691 40.16V37.548C82.6705 37.3622 82.7114 37.1788 82.7891 37.01L83.3991 35.782C83.7613 35.0434 83.952 34.2326 83.9571 33.41V28.326H73.4111C72.0003 28.3292 70.6481 28.8912 69.6507 29.889C68.6533 30.8868 68.0918 32.2391 68.0891 33.65V33.714C68.0872 34.3383 68.2303 34.9545 68.5071 35.514L69.2651 37.03C69.347 37.1973 69.3881 37.3817 69.3851 37.568ZM43.5293 53.9159C43.551 53.9169 43.5724 53.9098 43.5892 53.8959L46.6672 50.8259L40.8853 46.8779L39.6693 48.1739L43.4693 53.8759C43.4693 53.8959 43.4893 53.9159 43.5293 53.9159ZM41.9132 44.6499L48.5532 49.1699L55.1652 44.6499V42.412C53.1218 43.4763 50.8512 44.0308 48.5472 44.0279C48.2292 44.0279 47.9131 44.0082 47.5951 43.9883L47.5892 43.9879C45.5992 43.8712 43.6601 43.3123 41.9132 42.352V44.6499ZM53.5952 53.9159C53.6352 53.9159 53.6552 53.8959 53.6552 53.8759L57.4632 48.1739L56.2472 46.8779L50.4672 50.8259L53.5372 53.8959C53.5451 53.9029 53.5543 53.9083 53.5642 53.9117C53.5742 53.9151 53.5847 53.9166 53.5952 53.9159ZM36.6913 26.226V29.25C36.6913 35.754 41.5552 41.156 47.7712 41.558C50.615 41.7463 53.4314 40.9042 55.7052 39.186L55.7252 39.166C56.0506 38.9154 56.363 38.6484 56.6612 38.366C57.8501 37.2613 58.797 35.922 59.4421 34.4329C60.0872 32.9437 60.4165 31.3369 60.4092 29.714V26.226C60.4066 26.0391 60.4477 25.8542 60.5292 25.686C61.3179 24.0866 61.7285 22.3273 61.7292 20.544V8.68207H44.6212C42.1685 8.68366 39.8166 9.65872 38.0823 11.3931C36.3479 13.1274 35.3729 15.4793 35.3713 17.932V20.544C35.372 22.3273 35.7825 24.0866 36.5713 25.686C36.649 25.8555 36.6898 26.0396 36.6913 26.226ZM19.7553 53.1966C20.4495 53.1966 21.1171 52.9292 21.6193 52.4499L22.7753 51.3739C22.5769 51.0052 22.4744 50.5926 22.4773 50.1739V48.8779C21.6007 49.1582 20.6856 49.2993 19.7653 49.2959C18.8463 49.2909 17.9331 49.1501 17.0553 48.8779V50.1739C17.0585 50.5929 16.9553 51.0058 16.7553 51.3739L17.8913 52.4499C18.3936 52.9292 19.0611 53.1966 19.7553 53.1966ZM24.9093 49.1399C27.2013 48.3039 28.3573 47.2079 28.8373 46.6279V46.6179C28.4909 45.6754 28.2566 44.6953 28.1393 43.6979C27.4688 45.3104 26.3473 46.6951 24.9093 47.6859V49.1399ZM11.8313 36.352C11.7913 37.03 11.7513 37.828 11.7313 38.664C11.7147 38.7698 11.708 38.8769 11.7113 38.984C11.7766 38.9674 11.8441 38.9607 11.9113 38.964C12.0716 38.9618 12.2307 38.9918 12.3792 39.0521C12.5277 39.1125 12.6626 39.202 12.776 39.3153C12.8893 39.4287 12.9788 39.5636 13.0392 39.7121C13.0995 39.8606 13.1295 40.0197 13.1273 40.18C13.1268 41.85 13.7567 43.4587 14.8911 44.6843C16.0255 45.9099 17.5807 46.6621 19.2458 46.7905C20.9109 46.9189 22.5631 46.4139 23.8719 45.3767C25.1808 44.3394 26.0498 42.8463 26.3053 41.196C24.3313 36.85 19.2273 36.252 17.6533 36.172L15.8193 38.086C15.7081 38.2024 15.575 38.2959 15.4277 38.3609C15.2803 38.426 15.1216 38.4614 14.9606 38.4651C14.7996 38.4688 14.6394 38.4408 14.4892 38.3826C14.3391 38.3244 14.2018 38.2372 14.0853 38.126C13.9689 38.0147 13.8754 37.8817 13.8104 37.7343C13.7453 37.587 13.7099 37.4283 13.7062 37.2673C13.7025 37.1062 13.7305 36.9461 13.7887 36.7959C13.8469 36.6457 13.9341 36.5085 14.0453 36.392L16.2573 34.1C16.3627 33.9816 16.4917 33.8866 16.6361 33.8212C16.7804 33.7557 16.9368 33.7213 17.0953 33.72C18.6791 33.72 20.253 33.969 21.7593 34.458C24.4113 35.316 26.4633 36.83 27.7993 38.884V38.664C27.7793 37.828 27.7393 37.03 27.6993 36.352C27.5696 34.2202 26.6946 32.2019 25.2273 30.65C24.5186 29.9175 23.6699 29.3351 22.7316 28.9373C21.7932 28.5395 20.7845 28.3346 19.7653 28.3346C18.7462 28.3346 17.7374 28.5395 16.7991 28.9373C15.8607 29.3351 15.012 29.9175 14.3033 30.65C12.8376 32.2029 11.9629 34.2206 11.8313 36.352ZM11.3893 43.65C11.2737 44.6504 11.0407 45.6339 10.6953 46.5799C11.1893 47.1979 12.3293 48.2939 14.6193 49.1119V47.6379C13.1857 46.6425 12.0653 45.2591 11.3893 43.65Z" fill="#00CAAA"/>
<path d="M70.0051 84.3877C71.4675 84.3877 72.653 83.2022 72.653 81.7397C72.653 80.2773 71.4675 79.0917 70.0051 79.0917C68.5426 79.0917 67.3571 80.2773 67.3571 81.7397C67.3571 83.2022 68.5426 84.3877 70.0051 84.3877Z" fill="#00CAAA"/>
<path d="M82.2731 81.7397C82.2731 83.2022 81.0876 84.3877 79.6251 84.3877C78.1627 84.3877 76.9771 83.2022 76.9771 81.7397C76.9771 80.2773 78.1627 79.0917 79.6251 79.0917C81.0876 79.0917 82.2731 80.2773 82.2731 81.7397Z" fill="#00CAAA"/>
<path d="M59.8853 84.3978C61.3477 84.3978 62.5332 83.2122 62.5332 81.7498C62.5332 80.2873 61.3477 79.1018 59.8853 79.1018C58.4228 79.1018 57.2373 80.2873 57.2373 81.7498C57.2373 83.2122 58.4228 84.3978 59.8853 84.3978Z" fill="#00CAAA"/>
<path fill-rule="evenodd" clip-rule="evenodd" d="M62.9364 68.9858H87.9451C88.9648 68.9874 89.9422 69.3935 90.6629 70.1149C91.3836 70.8363 91.7886 71.8141 91.7891 72.8338V90.6498C91.7865 91.6686 91.3807 92.645 90.6604 93.3657C89.9402 94.0863 88.964 94.4926 87.9451 94.4958H37.7793C37.7724 94.4958 37.7655 94.4957 37.7586 94.4957H10.094C9.07513 94.4925 8.09893 94.0862 7.37867 93.3656C6.65841 92.6449 6.25264 91.6685 6.25 90.6497V72.8337C6.25053 71.814 6.65556 70.8362 7.37622 70.1148C8.09688 69.3934 9.07429 68.9873 10.094 68.9857H62.9198C62.9253 68.9857 62.9308 68.9858 62.9364 68.9858ZM35.118 71.8757C35.1251 71.8758 35.1322 71.8759 35.1393 71.8758H87.9651C88.2189 71.8764 88.462 71.9775 88.6412 72.1571C88.8205 72.3367 88.9211 72.5801 88.9211 72.8338V90.6498C88.9211 90.9033 88.8204 91.1465 88.6411 91.3258C88.4618 91.505 88.2187 91.6058 87.9651 91.6058H60.2619C60.2579 91.6057 60.2538 91.6057 60.2498 91.6057H10.074C9.82044 91.6057 9.57728 91.505 9.398 91.3257C9.21871 91.1464 9.11799 90.9032 9.11799 90.6497V72.8337C9.11799 72.58 9.21864 72.3366 9.39787 72.157C9.5771 71.9774 9.82025 71.8763 10.074 71.8757H35.118Z" fill="#00CAAA"/>
<defs>
<radialGradient id="paint0_radial_70_2294" cx="0" cy="0" r="1" gradientUnits="userSpaceOnUse" gradientTransform="translate(43.75 60.9375) rotate(15.7086) scale(51.9399 53.8684)">
<stop stop-color="#00CAAA"/>
<stop offset="1" stop-color="#00CAAA" stop-opacity="0"/>
</radialGradient>
</defs>
</svg>
