<svg width="100" height="100" viewBox="0 0 100 100" fill="none" xmlns="http://www.w3.org/2000/svg">
<path fill-rule="evenodd" clip-rule="evenodd" d="M6.24951 90.6496C6.25215 91.6685 6.65793 92.6449 7.37819 93.3655C8.09845 94.0862 9.07464 94.4925 10.0935 94.4956H37.7581L37.7788 94.4957H87.9446C88.9635 94.4926 89.9397 94.0863 90.66 93.3656C91.3802 92.645 91.786 91.6686 91.7886 90.6497V72.8338C91.7881 71.8141 91.3831 70.8363 90.6624 70.1149L90.6245 70.0774L90.2366 67.1875V64.0625V56.1879C90.3366 53.9559 88.8006 51.9019 86.5886 51.2839L81.5246 49.8499C81.4154 49.8203 81.3191 49.7554 81.2508 49.6653C81.1824 49.5752 81.1458 49.465 81.1466 49.3519V47.6499C81.5651 47.3645 81.9585 47.044 82.3226 46.6919C83.1955 45.8461 83.889 44.8329 84.3615 43.713C84.834 42.5931 85.0759 41.3894 85.0726 40.1739V37.8499L85.5726 36.8719C86.1095 35.794 86.3888 34.6062 86.3886 33.402V27.102C86.3907 26.9417 86.3608 26.7826 86.3004 26.6341C86.2401 26.4856 86.1506 26.3507 86.0372 26.2373C85.9239 26.124 85.789 26.0345 85.6405 25.9742C85.492 25.9138 85.3329 25.8838 85.1726 25.886H73.3886C71.3277 25.8886 69.3519 26.7085 67.8945 28.1658C66.4372 29.6232 65.6173 31.599 65.6147 33.66V33.74C65.619 34.7428 65.8508 35.7316 66.2927 36.6319L66.9106 37.8879V39.8879C66.9065 41.3932 67.2603 42.8779 67.943 44.2195C68.6256 45.5611 69.6174 46.7211 70.8366 47.6039V49.3779C70.8366 49.6579 70.8366 49.7559 69.8206 50.0559L67.3487 50.7539L60.2127 48.1539C60.2266 47.9823 60.2035 47.8097 60.1448 47.6479C60.0861 47.486 59.9933 47.3387 59.8727 47.2159L57.6007 44.8159V40.7979C57.8407 40.5979 58.0787 40.3979 58.3187 40.1799C59.7441 38.8384 60.8806 37.22 61.6585 35.4237C62.4364 33.6275 62.8394 31.6914 62.8427 29.734V26.534C63.7115 24.6744 64.1607 22.6465 64.1587 20.594V7.46605C64.1608 7.30594 64.1309 7.14701 64.0707 6.99864C64.0105 6.85027 63.9211 6.71546 63.808 6.60214C63.6949 6.48882 63.5602 6.39929 63.4119 6.33882C63.2637 6.27835 63.1048 6.24817 62.9447 6.25005H44.6248C41.5225 6.25429 38.5485 7.48853 36.3549 9.68215C34.1613 11.8758 32.927 14.8498 32.9228 17.952V20.564C32.9188 22.6167 33.3682 24.645 34.2388 26.504V29.276C34.2317 31.4461 34.6968 33.5918 35.602 35.5642C36.5072 37.5365 37.8308 39.2883 39.4808 40.6979V44.8039L37.2088 47.2039C37.0921 47.329 37.002 47.4764 36.944 47.6373C36.8859 47.7982 36.861 47.9691 36.8708 48.1399L29.3348 50.8719C28.7945 51.0662 28.2842 51.3355 27.8188 51.6719L26.6428 51.0719C30.1708 49.5379 31.2888 47.3839 31.3288 47.2839C31.4158 47.1143 31.4612 46.9265 31.4612 46.7359C31.4612 46.5453 31.4158 46.3575 31.3288 46.1879C30.4508 44.4139 30.3288 41.1879 30.2508 38.5879C30.2308 37.7299 30.1908 36.9119 30.1508 36.1739C29.7328 30.294 25.2668 25.868 19.7648 25.868C14.2629 25.868 9.79886 30.292 9.38886 36.1719C9.32887 36.9099 9.30887 37.7279 9.28887 38.5859C9.21087 41.1759 9.08886 44.4259 8.21287 46.1859C8.12421 46.355 8.0779 46.543 8.0779 46.7339C8.0779 46.9248 8.12421 47.1128 8.21287 47.2819L8.2234 47.3004C8.35571 47.5351 9.51435 49.5907 12.8989 51.0699L9.60887 52.7059C8.75225 53.1309 8.03136 53.7868 7.52746 54.5995C7.02356 55.4123 6.75667 56.3496 6.75687 57.3059V64.0625V67.1875L6.24951 90.6496Z" fill="#0073EC" fill-opacity="0.5"/>
<path d="M79.3887 36.0339C79.5576 36.1112 79.741 36.1514 79.9267 36.1519C80.1548 36.155 80.379 36.0931 80.5731 35.9734C80.7672 35.8537 80.9232 35.6811 81.0227 35.4759C81.0941 35.3346 81.1368 35.1806 81.1484 35.0227C81.1599 34.8648 81.1401 34.7061 81.0901 34.5559C81.0401 34.4057 80.9609 34.2669 80.857 34.1474C80.7531 34.028 80.6266 33.9303 80.4847 33.8599C77.6328 32.4439 72.3108 32.4259 72.0848 32.4259C71.7623 32.4259 71.453 32.554 71.2249 32.7821C70.9969 33.0101 70.8688 33.3194 70.8688 33.6419C70.8688 33.9644 70.9969 34.2737 71.2249 34.5018C71.453 34.7298 71.7623 34.8579 72.0848 34.8579C73.4708 34.8499 77.4587 35.0759 79.3887 36.0339Z" fill="#0073EC"/>
<path d="M40.5988 20.344C40.5988 20.304 40.6168 20.264 40.6568 20.264C43.2886 19.8635 45.9549 19.7369 48.6128 19.886C52.4128 20.144 55.1908 21.102 56.8248 22.736C57.055 22.9655 57.3667 23.0943 57.6918 23.0943C58.0168 23.0943 58.3286 22.9655 58.5588 22.736C58.6771 22.6253 58.7719 22.4918 58.8372 22.3435C58.9026 22.1953 58.9373 22.0353 58.9391 21.8732C58.941 21.7112 58.91 21.5505 58.8481 21.4007C58.7862 21.251 58.6946 21.1153 58.5788 21.002C53.9548 16.378 44.2668 17.25 40.3188 17.85C39.7171 17.9383 39.1676 18.2412 38.7718 18.7029C38.3759 19.1646 38.1603 19.7538 38.1648 20.362V23.176C38.1776 23.4902 38.3114 23.7873 38.5382 24.0051C38.765 24.223 39.0673 24.3446 39.3818 24.3446C39.6963 24.3446 39.9986 24.223 40.2254 24.0051C40.4523 23.7873 40.5861 23.4902 40.5988 23.176V20.344Z" fill="#0073EC"/>
<path fill-rule="evenodd" clip-rule="evenodd" d="M9.5905 55.884C9.32639 56.3104 9.18724 56.8023 9.18887 57.3039V66.6188C9.18887 67.2904 8.64445 67.8348 7.97287 67.8348C7.30129 67.8348 6.75687 67.2904 6.75687 66.6188V57.3059C6.75667 56.3496 7.02357 55.4123 7.52747 54.5995C8.03136 53.7868 8.75225 53.1309 9.60887 52.7059L12.8989 51.0699C9.51435 49.5907 8.35572 47.5351 8.22341 47.3004L8.21287 47.2819C8.12421 47.1129 8.0779 46.9248 8.0779 46.7339C8.0779 46.543 8.12421 46.355 8.21287 46.1859C9.08886 44.4259 9.21087 41.1759 9.28887 38.5859C9.30887 37.7279 9.32887 36.9099 9.38887 36.1719C9.79886 30.292 14.2629 25.868 19.7648 25.868C25.2668 25.868 29.7328 30.294 30.1508 36.1739C30.1908 36.9119 30.2308 37.7299 30.2508 38.5879C30.3288 41.1879 30.4508 44.4139 31.3288 46.1879C31.4158 46.3575 31.4612 46.5453 31.4612 46.7359C31.4612 46.9265 31.4158 47.1143 31.3288 47.2839C31.2888 47.3839 30.1708 49.5379 26.6428 51.0719L27.8188 51.6719C28.2842 51.3355 28.7945 51.0662 29.3348 50.8719L36.8708 48.1399C36.861 47.9692 36.8859 47.7982 36.944 47.6373C37.0021 47.4764 37.0921 47.329 37.2088 47.2039L39.4808 44.8039V40.6979C37.8308 39.2883 36.5072 37.5365 35.602 35.5642C34.6968 33.5918 34.2317 31.4461 34.2388 29.276V26.504C33.3682 24.645 32.9188 22.6167 32.9228 20.564V17.952C32.927 14.8498 34.1613 11.8758 36.3549 9.68215C38.5485 7.48853 41.5225 6.25429 44.6248 6.25005H62.9447C63.1048 6.24817 63.2637 6.27835 63.4119 6.33882C63.5602 6.39929 63.6949 6.48882 63.808 6.60214C63.9212 6.71546 64.0105 6.85027 64.0707 6.99864C64.1309 7.14701 64.1608 7.30594 64.1587 7.46605V20.594C64.1607 22.6465 63.7115 24.6744 62.8427 26.534V29.734C62.8394 31.6914 62.4364 33.6275 61.6585 35.4237C60.8806 37.22 59.7441 38.8384 58.3187 40.1799C58.0787 40.3979 57.8407 40.5979 57.6007 40.7979V44.8159L59.8727 47.2159C59.9933 47.3387 60.0861 47.486 60.1448 47.6479C60.2035 47.8097 60.2266 47.9823 60.2127 48.1539L67.3487 50.7539L69.8207 50.0559C70.8367 49.7559 70.8366 49.6579 70.8366 49.3779V47.6039C69.6174 46.7211 68.6256 45.5611 67.943 44.2195C67.2604 42.8779 66.9065 41.3932 66.9107 39.8879V37.8879L66.2927 36.6319C65.8508 35.7316 65.619 34.7428 65.6147 33.74V33.66C65.6173 31.599 66.4372 29.6232 67.8945 28.1658C69.3519 26.7085 71.3277 25.8886 73.3886 25.886H85.1726C85.3329 25.8838 85.492 25.9138 85.6405 25.9742C85.789 26.0345 85.9239 26.124 86.0372 26.2373C86.1506 26.3507 86.2401 26.4856 86.3004 26.6341C86.3608 26.7826 86.3907 26.9417 86.3886 27.102V33.402C86.3888 34.6062 86.1095 35.794 85.5726 36.8719L85.0726 37.8499V40.1739C85.0759 41.3894 84.834 42.5931 84.3615 43.713C83.889 44.8329 83.1956 45.8461 82.3226 46.6919C81.9585 47.044 81.5651 47.3645 81.1466 47.6499V49.3519C81.1458 49.465 81.1824 49.5752 81.2508 49.6653C81.3192 49.7554 81.4154 49.8203 81.5246 49.8499L86.5886 51.2839C88.8006 51.9019 90.3366 53.9559 90.2366 56.1879V66.3238C90.2366 66.6463 90.1085 66.9556 89.8804 67.1837C89.6524 67.4117 89.3431 67.5398 89.0206 67.5398C88.6981 67.5398 88.3888 67.4117 88.1607 67.1837C87.9327 66.9556 87.8046 66.6463 87.8046 66.3238V56.1979C87.8037 55.6115 87.6129 55.0412 87.2606 54.5725C86.9083 54.1037 86.4136 53.7618 85.8506 53.5979L80.7866 52.1619C80.6064 52.1168 80.4324 52.0497 80.2686 51.9619L77.1586 55.0719V66.3438C77.1586 66.6664 77.0305 66.9756 76.8025 67.2037C76.5744 67.4317 76.2651 67.5598 75.9426 67.5598C75.6201 67.5598 75.3108 67.4317 75.0828 67.2037C74.8548 66.9756 74.7266 66.6664 74.7266 66.3438V55.0819L71.5966 51.9519C71.2346 52.1329 70.8536 52.273 70.4606 52.3699L70.1627 52.4499C71.3213 53.6533 71.9741 55.2554 71.9866 56.9259V66.3538C71.9866 66.6763 71.8585 66.9856 71.6305 67.2137C71.4024 67.4417 71.0932 67.5698 70.7706 67.5698C70.4481 67.5698 70.1389 67.4417 69.9108 67.2137C69.6828 66.9856 69.5547 66.6763 69.5547 66.3538V56.9259C69.5523 56.1044 69.2989 55.3033 68.8285 54.6299C68.3581 53.9564 67.6931 53.4428 66.9227 53.1579L58.9887 50.2679L55.6727 55.2299C55.4665 55.5426 55.193 55.8052 54.8722 55.9987C54.5515 56.1921 54.1915 56.3114 53.8187 56.3479C53.7337 56.3637 53.6472 56.3704 53.5607 56.3679C53.2268 56.3699 52.8958 56.3058 52.5868 56.1791C52.2779 56.0524 51.9971 55.8658 51.7607 55.6299L49.7487 53.6159V66.3738C49.7487 66.6964 49.6206 67.0056 49.3926 67.2337C49.1645 67.4617 48.8552 67.5898 48.5327 67.5898C48.2102 67.5898 47.9009 67.4617 47.6729 67.2337C47.4448 67.0056 47.3167 66.6964 47.3167 66.3738V53.6159L45.3028 55.6299C45.0667 55.8661 44.7859 56.053 44.4769 56.1797C44.1679 56.3064 43.8368 56.3704 43.5028 56.3679C43.45 56.3679 43.4028 56.3623 43.3582 56.357C43.3184 56.3523 43.2805 56.3479 43.2428 56.3479C42.87 56.3111 42.5102 56.1917 42.1895 55.9983C41.8687 55.8049 41.5952 55.5424 41.3888 55.2299L38.0868 50.2679L30.1508 53.1579C29.3806 53.4429 28.7159 53.9566 28.2458 54.6301C27.7757 55.3035 27.5228 56.1046 27.5208 56.9259V66.6188C27.5208 67.2904 26.9764 67.8348 26.3048 67.8348C25.6332 67.8348 25.0888 67.2904 25.0888 66.6188V56.9079C25.0858 55.705 25.4242 54.526 26.0648 53.5079L24.7288 52.8499L23.3148 54.2059C22.3568 55.1149 21.0865 55.6217 19.7658 55.6217C18.4452 55.6217 17.1749 55.1149 16.2168 54.2059L14.8008 52.8499L10.6829 54.8919C10.2331 55.1138 9.85461 55.4576 9.5905 55.884ZM73.2326 50.0599L76.0226 52.8499L78.7926 50.0659C78.7478 49.829 78.7218 49.5889 78.7146 49.3479V48.8499C77.8417 49.1144 76.9347 49.2492 76.0226 49.2499H75.7426C74.9152 49.2309 74.0953 49.0873 73.3106 48.8239V49.3419C73.3056 49.5831 73.2795 49.8233 73.2326 50.0599ZM69.3847 37.5679V39.8499L69.3887 39.8599C69.3887 43.5879 72.2546 46.7179 75.8106 46.8179C76.6999 46.848 77.5861 46.6974 78.4156 46.3753C79.2451 46.0532 80.0006 45.5663 80.6366 44.9439C81.2769 44.3221 81.7865 43.5785 82.1354 42.757C82.4844 41.9355 82.6656 41.0525 82.6686 40.1599V37.5479C82.6701 37.3621 82.711 37.1788 82.7886 37.0099L83.3986 35.7819C83.7608 35.0434 83.9515 34.2325 83.9566 33.41V28.326H73.4106C71.9998 28.3291 70.6477 28.8911 69.6502 29.889C68.6528 30.8868 68.0913 32.2391 68.0887 33.65V33.714C68.0867 34.3382 68.2298 34.9544 68.5067 35.514L69.2647 37.0299C69.3465 37.1973 69.3876 37.3817 69.3847 37.5679ZM43.5288 53.9159C43.5506 53.9169 43.5719 53.9098 43.5888 53.8959L46.6668 50.8259L40.8848 46.8779L39.6688 48.1739L43.4688 53.8759C43.4688 53.8959 43.4888 53.9159 43.5288 53.9159ZM41.9128 44.6499L48.5527 49.1699L55.1647 44.6499V42.4119C53.1213 43.4763 50.8508 44.0307 48.5467 44.0279C48.2287 44.0279 47.9127 44.0082 47.5947 43.9883L47.5887 43.9879C45.5987 43.8712 43.6597 43.3123 41.9128 42.3519V44.6499ZM53.5947 53.9159C53.6347 53.9159 53.6547 53.8959 53.6547 53.8759L57.4627 48.1739L56.2467 46.8779L50.4667 50.8259L53.5367 53.8959C53.5446 53.9029 53.5538 53.9082 53.5637 53.9117C53.5737 53.9151 53.5842 53.9165 53.5947 53.9159ZM36.6908 26.226V29.25C36.6908 35.7539 41.5548 41.1559 47.7707 41.5579C50.6145 41.7462 53.431 40.9042 55.7047 39.1859L55.7247 39.1659C56.0502 38.9154 56.3626 38.6484 56.6607 38.3659C57.8496 37.2612 58.7965 35.922 59.4416 34.4328C60.0867 32.9436 60.416 31.3369 60.4087 29.714V26.226C60.4061 26.0391 60.4472 25.8542 60.5287 25.686C61.3174 24.0866 61.728 22.3273 61.7287 20.544V8.68204H44.6208C42.168 8.68363 39.8162 9.65869 38.0818 11.3931C36.3474 13.1274 35.3724 15.4793 35.3708 17.932V20.544C35.3715 22.3273 35.782 24.0866 36.5708 25.686C36.6485 25.8555 36.6894 26.0395 36.6908 26.226ZM19.7548 53.1966C20.449 53.1966 21.1166 52.9292 21.6188 52.4499L22.7748 51.3739C22.5764 51.0052 22.4739 50.5926 22.4768 50.1739V48.8779C21.6002 49.1582 20.6851 49.2992 19.7648 49.2959C18.8458 49.2909 17.9326 49.1501 17.0548 48.8779V50.1739C17.0581 50.5928 16.9548 51.0057 16.7548 51.3739L17.8908 52.4499C18.3931 52.9292 19.0606 53.1966 19.7548 53.1966ZM24.9088 49.1399C27.2008 48.3039 28.3568 47.2079 28.8368 46.6279V46.6179C28.4904 45.6753 28.2561 44.6953 28.1388 43.6979C27.4683 45.3104 26.3468 46.6951 24.9088 47.6859V49.1399ZM11.8309 36.3519C11.7909 37.0299 11.7509 37.8279 11.7309 38.6639C11.7142 38.7697 11.7075 38.8769 11.7109 38.9839C11.7762 38.9674 11.8436 38.9607 11.9109 38.9639C12.0711 38.9618 12.2302 38.9918 12.3787 39.0521C12.5272 39.1125 12.6621 39.202 12.7755 39.3153C12.8888 39.4286 12.9783 39.5636 13.0387 39.7121C13.099 39.8606 13.129 40.0196 13.1269 40.1799C13.1263 41.85 13.7562 43.4586 14.8906 44.6842C16.025 45.9099 17.5803 46.6621 19.2453 46.7905C20.9104 46.9188 22.5626 46.4139 23.8715 45.3767C25.1803 44.3394 26.0494 42.8463 26.3048 41.1959C24.3308 36.8499 19.2268 36.2519 17.6528 36.1719L15.8188 38.0859C15.7076 38.2024 15.5745 38.2959 15.4272 38.3609C15.2799 38.426 15.1211 38.4613 14.9601 38.4651C14.7991 38.4688 14.6389 38.4407 14.4888 38.3826C14.3386 38.3244 14.2013 38.2372 14.0848 38.1259C13.9684 38.0147 13.8749 37.8816 13.8099 37.7343C13.7448 37.587 13.7094 37.4282 13.7057 37.2672C13.702 37.1062 13.7301 36.946 13.7882 36.7959C13.8464 36.6457 13.9336 36.5084 14.0448 36.3919L16.2568 34.1C16.3622 33.9816 16.4912 33.8866 16.6356 33.8211C16.7799 33.7557 16.9364 33.7212 17.0948 33.72C18.6786 33.7199 20.2525 33.969 21.7588 34.458C24.4108 35.316 26.4628 36.8299 27.7988 38.8839V38.6639C27.7788 37.8279 27.7388 37.0299 27.6988 36.3519C27.5691 34.2202 26.6941 32.2018 25.2268 30.65C24.5182 29.9175 23.6694 29.3351 22.7311 28.9373C21.7927 28.5395 20.784 28.3345 19.7648 28.3345C18.7457 28.3345 17.7369 28.5395 16.7986 28.9373C15.8603 29.3351 15.0115 29.9175 14.3028 30.65C12.8371 32.2029 11.9624 34.2206 11.8309 36.3519ZM11.3889 43.6499C11.2732 44.6504 11.0402 45.6338 10.6949 46.5799C11.1889 47.1979 12.3289 48.2939 14.6188 49.1119V47.6379C13.1852 46.6424 12.0648 45.2591 11.3889 43.6499Z" fill="#0073EC"/>
<path d="M70.0046 84.3877C71.467 84.3877 72.6526 83.2022 72.6526 81.7397C72.6526 80.2773 71.467 79.0917 70.0046 79.0917C68.5421 79.0917 67.3566 80.2773 67.3566 81.7397C67.3566 83.2022 68.5421 84.3877 70.0046 84.3877Z" fill="#0073EC"/>
<path d="M82.2727 81.7397C82.2727 83.2022 81.0871 84.3877 79.6247 84.3877C78.1622 84.3877 76.9767 83.2022 76.9767 81.7397C76.9767 80.2773 78.1622 79.0917 79.6247 79.0917C81.0871 79.0917 82.2727 80.2773 82.2727 81.7397Z" fill="#0073EC"/>
<path d="M59.8848 84.3978C61.3472 84.3978 62.5327 83.2122 62.5327 81.7498C62.5327 80.2873 61.3472 79.1018 59.8848 79.1018C58.4223 79.1018 57.2368 80.2873 57.2368 81.7498C57.2368 83.2122 58.4223 84.3978 59.8848 84.3978Z" fill="#0073EC"/>
<path fill-rule="evenodd" clip-rule="evenodd" d="M62.9359 68.9858H87.9447C88.9643 68.9874 89.9418 69.3935 90.6624 70.1149C91.3831 70.8363 91.7881 71.8141 91.7886 72.8338V90.6497C91.786 91.6686 91.3802 92.645 90.66 93.3656C89.9397 94.0863 88.9635 94.4926 87.9447 94.4957H37.7789C37.7719 94.4958 37.765 94.4957 37.7581 94.4956H10.0935C9.07464 94.4925 8.09845 94.0862 7.37819 93.3655C6.65793 92.6449 6.25215 91.6685 6.24951 90.6496V72.8337C6.25004 71.814 6.65507 70.8362 7.37573 70.1148C8.09639 69.3934 9.07381 68.9873 10.0935 68.9857H62.9193C62.9248 68.9857 62.9304 68.9858 62.9359 68.9858ZM35.1175 71.8757C35.1246 71.8758 35.1318 71.8758 35.1389 71.8758H87.9647C88.2184 71.8763 88.4615 71.9775 88.6408 72.1571C88.82 72.3367 88.9206 72.5801 88.9206 72.8338V90.6497C88.9206 90.9033 88.8199 91.1465 88.6406 91.3257C88.4614 91.505 88.2182 91.6057 87.9647 91.6057H60.2614C60.2574 91.6057 60.2534 91.6057 60.2493 91.6056H10.0735C9.81995 91.6056 9.57679 91.5049 9.39751 91.3256C9.21822 91.1464 9.1175 90.9032 9.1175 90.6496V72.8337C9.1175 72.58 9.21816 72.3366 9.39738 72.157C9.57661 71.9774 9.81977 71.8762 10.0735 71.8757H35.1175Z" fill="#0073EC"/>
</svg>
