<svg width="100" height="100" viewBox="0 0 100 100" fill="none" xmlns="http://www.w3.org/2000/svg">
<path d="M45.3125 37.5C45.3125 36.6371 44.6129 35.9375 43.75 35.9375C42.8871 35.9375 42.1875 36.6371 42.1875 37.5V43.75C42.1875 44.6129 42.8871 45.3125 43.75 45.3125C44.6129 45.3125 45.3125 44.6129 45.3125 43.75V37.5Z" fill="#A644E5"/>
<path fill-rule="evenodd" clip-rule="evenodd" d="M51.5625 4.6875C42.9331 4.6875 35.9375 11.6831 35.9375 20.3125V20.5792C34.1169 21.2227 32.8125 22.959 32.8125 25V46.875C32.8125 49.4638 34.9112 51.5625 37.5 51.5625H65.625C68.2138 51.5625 70.3125 49.4638 70.3125 46.875V25C70.3125 22.959 69.0081 21.2227 67.1875 20.5792V20.3125C67.1875 11.6831 60.192 4.6875 51.5625 4.6875ZM64.0625 20.3125C64.0625 13.4089 58.4661 7.8125 51.5625 7.8125C44.6589 7.8125 39.0625 13.4089 39.0625 20.3125H64.0625ZM37.5 23.4375C36.6371 23.4375 35.9375 24.1371 35.9375 25V29.6875H54.6875V48.4375H65.625C66.488 48.4375 67.1875 47.7379 67.1875 46.875V25C67.1875 24.1371 66.488 23.4375 65.625 23.4375H37.5ZM35.9375 46.875V32.8125H51.5625V48.4375H37.5C36.6371 48.4375 35.9375 47.7379 35.9375 46.875Z" fill="#A644E5"/>
<path d="M6.29329 36.3483C7.32146 35.3201 8.71595 34.7425 10.17 34.7425H28.125C28.9879 34.7425 29.6875 35.442 29.6875 36.305C29.6875 37.1679 28.9879 37.8675 28.125 37.8675H10.17C9.54475 37.8675 8.94511 38.1159 8.503 38.558C8.06088 39.0001 7.8125 39.5997 7.8125 40.225V58.4005C7.81657 59.0257 8.0667 59.6241 8.5088 60.0662C8.95093 60.5083 9.5494 60.7584 10.1746 60.7625H91.1255C91.7506 60.7584 92.3491 60.5083 92.7912 60.0662C93.2334 59.624 93.4835 59.0255 93.4875 58.4002V40.225C93.4875 39.5997 93.2392 39.0001 92.797 38.558C92.3549 38.1159 91.7553 37.8675 91.13 37.8675H75C74.1371 37.8675 73.4375 37.1679 73.4375 36.305C73.4375 35.442 74.1371 34.7425 75 34.7425H91.13C92.5841 34.7425 93.9786 35.3201 95.0067 36.3483C96.0349 37.3764 96.6125 38.7709 96.6125 40.225V58.405L96.6125 58.4129C96.6052 59.8626 96.026 61.2508 95.0009 62.2759C93.9758 63.301 92.5876 63.8801 91.1379 63.8875L91.13 63.8875H10.17L10.1621 63.8875C8.71241 63.8801 7.32419 63.301 6.29909 62.2759C5.274 61.2508 4.69486 59.8626 4.68752 58.4129L4.6875 58.405V40.225C4.6875 38.7709 5.26512 37.3764 6.29329 36.3483Z" fill="#A644E5"/>
<path d="M61.0301 84.015C61.4741 84.3116 61.9961 84.47 62.5301 84.47C62.8854 84.4726 63.2377 84.4046 63.5665 84.2699C63.8953 84.1351 64.194 83.9364 64.4452 83.6851C64.6965 83.4339 64.8953 83.1352 65.03 82.8064C65.1647 82.4776 65.2328 82.1253 65.2301 81.77C65.2301 81.236 65.0718 80.714 64.7751 80.27C64.4784 79.8259 64.0567 79.4799 63.5634 79.2755C63.07 79.0712 62.5271 79.0177 62.0034 79.1219C61.4796 79.226 60.9985 79.4832 60.6209 79.8608C60.2433 80.2384 59.9862 80.7195 59.882 81.2432C59.7778 81.767 59.8313 82.3099 60.0356 82.8032C60.24 83.2966 60.5861 83.7183 61.0301 84.015Z" fill="#A644E5"/>
<path d="M71.3501 83.995C71.7941 84.2916 72.3161 84.45 72.8501 84.45C73.2054 84.4527 73.5577 84.3846 73.8865 84.2499C74.2153 84.1151 74.514 83.9164 74.7652 83.6651C75.0165 83.4139 75.2153 83.1152 75.35 82.7864C75.4847 82.4576 75.5528 82.1053 75.5501 81.75C75.5501 81.216 75.3918 80.694 75.0951 80.25C74.7984 79.8059 74.3767 79.4599 73.8834 79.2555C73.39 79.0512 72.8471 78.9977 72.3234 79.1019C71.7996 79.206 71.3185 79.4632 70.9409 79.8408C70.5633 80.2184 70.3062 80.6995 70.202 81.2232C70.0978 81.747 70.1513 82.2899 70.3556 82.7832C70.56 83.2766 70.9061 83.6983 71.3501 83.995Z" fill="#A644E5"/>
<path d="M81.1501 83.995C81.5941 84.2916 82.1161 84.45 82.6501 84.45C83.0054 84.4527 83.3577 84.3846 83.6865 84.2499C84.0153 84.1151 84.314 83.9164 84.5652 83.6651C84.8165 83.4139 85.0153 83.1152 85.15 82.7864C85.2848 82.4576 85.3528 82.1053 85.3501 81.75C85.3501 81.216 85.1918 80.694 84.8951 80.25C84.5984 79.8059 84.1767 79.4599 83.6834 79.2555C83.19 79.0512 82.6471 78.9977 82.1234 79.1019C81.5996 79.206 81.1185 79.4632 80.7409 79.8408C80.3633 80.2184 80.1062 80.6995 80.002 81.2232C79.8978 81.747 79.9513 82.2899 80.1556 82.7832C80.36 83.2766 80.7061 83.6983 81.1501 83.995Z" fill="#A644E5"/>
<path fill-rule="evenodd" clip-rule="evenodd" d="M6.29329 68.7933C7.32145 67.7651 8.71595 67.1875 10.17 67.1875H91.13C92.5841 67.1875 93.9786 67.7651 95.0067 68.7933C96.0349 69.8215 96.6125 71.216 96.6125 72.67V90.85C96.6125 92.304 96.0349 93.6985 95.0067 94.7267C93.9786 95.7549 92.5841 96.3325 91.13 96.3325H10.17C8.71595 96.3325 7.32146 95.7549 6.29329 94.7267C5.26512 93.6985 4.6875 92.304 4.6875 90.85V72.67C4.6875 71.216 5.26512 69.8215 6.29329 68.7933ZM10.17 70.3125C9.54476 70.3125 8.94512 70.5609 8.503 71.003C8.06088 71.4451 7.8125 72.0447 7.8125 72.67V90.85C7.8125 91.4753 8.06088 92.0749 8.503 92.517C8.94511 92.9591 9.54475 93.2075 10.17 93.2075H91.13C91.7553 93.2075 92.3549 92.9591 92.797 92.517C93.2392 92.0749 93.4875 91.4753 93.4875 90.85V72.67C93.4875 72.0447 93.2392 71.4451 92.797 71.003C92.3549 70.5609 91.7553 70.3125 91.13 70.3125H10.17Z" fill="#A644E5"/>
</svg>
