<svg xmlns="http://www.w3.org/2000/svg" viewBox="0 0 500 500"><path d="M348.5 284.7c-.3-.3-.7-.8-1-1.2-2.2-2.7-4-5.5-6.3-8-1.8-2-4-3.6-6.3-5.3-1.2-.8-2.5-1.3-3.6-2-1.8-1-3.6-2.2-5.6-2.8-2.5-1-5.1-1.8-7.8-2.5-3.2-1-6.5-2-9.8-2.5-2.8-.5-5.8-.3-8.8-.5-4.6-.2-9.3.2-13.6 1.7-2.2.7-4.3 1.5-6.5 2.3-2.5 1-5 2-7.5 3.3-2.5 1.3-4.6 2.8-7 4.3-2.5 1.5-4.8 3.2-7.1 5-1.5 1-3 2.2-4.5 3.3-2.2 1.7-4.3 3.3-6.1 5.3-1.7 1.8-3.5 2.3-5.8 2.2-3.8 0-7.6 0-11.4.5-5.3.7-10.4 1.8-15.6 2.8s-10.3 2.3-15.4 3.5c-3.8 1-7.8 1.8-11.6 3-3.6 1.2-7.3 2.5-10.9 3.8-.3.2-.8.5-1 .7.3.8.7 1.5.8 2-.7.8-1.2 1.5-1.7 2.2-.3.5-.8 1-1.3 1.7.3.7 0 1.5-1 2.2-.2.2-.2.3-.3.5-.3.5-.7.8-.8 1.2 0 .5 0 1-.2 1.2-.7.7-.8 1.5-.7 2.5.3 7 .7 13.9 1.2 20.9.3 4 1 8 1.3 11.9.2 2 1.7 2.8 2.7 4 .8 1.2 2.2 2.2 3.2 3.2.7.7 1.2 1.3 1.7 1.8.8 1 1.7 1.8 2.5 2.8 1.3 2 2.7 4 5 5.1 1.7.7 3 1.7 4.6 2.3.7.3 1.2.5 1.3 1.3.2 2.5.3 5 .5 7.5.2 1 0 2.2.7 2.8v2.3c.2 2.2.5 4.3.7 6.6.2 1 .2 2 .2 3 0 .2.2.3.3.5l1.7 1.5c.2-.3.2-.5.5-1 .5 1 .8 2 1.5 2.8.3.5.7 1 1.2 1.2 1 .5 1.2.5.3 1.5.7 0 1.3 0 2 .2 8.6.2 17.2.3 25.9.5 5.6.2 11.3.3 16.9.7 5.1.2 10.3.5 15.4.8 4.1.2 8.5.2 12.6.3 3 .2 6-.7 9-1.2 2.2-.3 4.3-.8 6.5-1 4.1-.5 8.3-.8 12.4-1.3.7 0 1.2-.5 1.8-.7v-.2c.3.2.7.2 1 .3.2-.7.2-1.3.5-2 .2-.7.7-1.3.7-2.2 1-8.5 1.5-16.9 1.7-25.4 0-1.8.3-2.8 1.3-4.3.2-.2 0-.3.2-.5.2-1 .5-1.8.8-3 .3.5.5.7.7 1-.2-1.5-.2-1.5 1.2-2.8v-.3c.2-.8.8-1.5.3-2.3-.2-.2.2-.7.3-.8.8-1 1.5-2.2 2.2-3.3.5-1.2.8-2.3 1.3-3.5.8-1.7 1.3-3.3 3-4.5.7-.3 1.2-1 1.7-1.5 2-1.8 4.1-3.8 6.1-5.6 1.5-1.3 3.2-2.5 4.5-3.8 1-1 2-2 2.7-3.2 1.5-2.3 2.8-4.6 4.1-7.1.8-1.3 1.7-2.8 2.5-4.1 1.2-2.3 2.3-4.6 3.6-7 .7-1.5 1.5-2.8 2.2-4.3.2-.5.3-1 .7-1.5.5-1 1.2-2.2 1.3-3.2.3-2 1.3-3.8 1.2-6.1-.2-1.5.5-3 .8-4.5-.4-1.7-.4-3.5-1.8-5zm-96.8 4.8c2-.8 4-1.5 5.8-2.5 1.2-.5 2.3-1.3 3.5-2 .7-.5 1-.2 1.5.3.5.7.2 1-.3 1.3-3 2-3.2 2.8-1.8 6.1.8 1.8 1.8 3.6 2.7 5.5.2.3.5.7.7.7.3.8.5 1.5.8 2 .8 1.7 1.7 3.3 2.5 4.8.5 1 1 2 1.3 3.2.2.2.2.5.3.7 0 .2.2.5.2.7.3 0 .7 0 .8-.3.7-.7 1-1.3.8-2.3-.3-1.8-.5-3.8-.7-5.6-.2-2.7-.3-5.3-.5-8 0-.3.3-.8.7-1.2.3-.3.8-.7 1.5-1.2.5.8.8 1.5 1.2 2.3 1.5 3.2 3 6.1 4.5 9.3 1.2 2.3 2 4.8 3 7.3.2.3.3.8.5 1.2.3.3.7.8 1.2 1 .3.2 1-1.3 1-1.8 0-.3-.2-.7 0-1 .2-2.5.5-5 .7-7.5.3-4.6.7-9.3 1-13.9.2-2.2.3-4.5.5-6.6.2-1.3.5-2.7 1-4 .3-1-.2-1.2-.8-1.2-1.2-.2-2.2-.2-3.3-.2h-1c.3-.3.5-.7.8-.8.7-.2 1.5-.3 2.2-.3 2.7-.3 5.3-.7 8-.8.3 0 1-.2 1.2.2.2.3.2.8 0 1.2-.3.3-.2 1.3-1.2 1l.5-.5h-2c-.8.2-2.2 1.7-2.2 2.5-.3 3.6-.5 7.1-.8 10.8-.5 4-1.2 8-1.7 12.1-.3 2.3-.5 4.6-.7 7.1-.3 3-.8 6-1.2 9-.3 4.1-.7 8.3-.8 12.4 0 .3.2.8.2 1.2v3.8c.5.5.8 1 1.2 1.3-.5.2-1.2.3-1.7.5-1 .2-2 .2-2.8.2-1 .2-1.5-.2-1.3-1.2.2-.7.5-1.3 1-1.8.8-.7 1.3-1.3 1.3-2.5 0-2.7-.5-5.1-1-7.6-.2-1.3-.3-2.8-.7-4.1-.5-2-1-4-1.5-5.8-1-3.2-2-6.3-3-9.3-.7-1.8-1.3-3.5-2-5.5v5.6h-.2v-1h-.2c0 .5 0 1.2-.2 1.7-.2 3.6-.3 7.3-.5 10.9-.2 4.5-.3 8.8-.5 13.3 0 .7 0 1.3-.2 2-.3 1.7.8 2.3 1.8 3.2.3.3.7.5 1.2.8-.5.2-.7.5-1 .5-2.5.2-5 .3-7.5.5-.7-1.2-.7-1.3.7-1.8 1-.3 2.2-.2 2.8-1.3.2-.3.5-.8.5-1.2.2-5.1-.7-10.3-1.8-15.4-1.3-5.8-3.3-11.3-6-16.6-1-2.2-2-4.3-3.2-6.3-.7-1.2-1.5-2.2-2.3-3.3-.5-.8-1.5-1-2.3-.5-.5.3-.8.5-1.3.8-.5.3-.8.3-1.3-.2-.8-1.2-.8-1.4.4-1.9zm8.4 45.1c-1.8 2.5-4.3 3.3-7.1 3.5-1.3 0-2.8 0-4.1-.5-1-.3-2-1.2-2.5-2.2-1.7-2.3-2.2-5.1-1.8-8 .3-3.2 1.2-6.1 2.5-9.1.2-.3.2-.7.3-1 .8-2.2 2.5-2.8 5-3.2 2.2-.2 4.1.5 6.3.8.2 0 .3 0 .5.2 1 1.2 2.2 2.3 3.2 3.5 1.3 1.7 2.2 3.5 1.7 5.3-.1 4.4-1.6 7.6-4 10.7zm-59.3-30.1c.8-.2 1.8-.3 2.8-.3.5 0 1 .3 1.3.8 2 1.8 4 3.6 6 5.6.3.3.5.7.5 1.2.3.8.7 1 1.3.3.3-.3.7-1 1-1.5.8-2.3 1.7-4.8 2.3-7.1.2-.7.5-.8 1-.8h3.2c.7 0 .8.3.8.8 0 .3 0 .7.2 1 .2 1-.3 1.2-1.2 1-1.7-.2-2.2 0-1.8 1.8.3 1.8.8 3.8 1.2 5.6.3 1.3.8 2.8 1.2 4.1 1.2 4.1 2.2 8.5 3.3 12.6.7 2.5 1.5 5.1 2.3 7.6.3.8.8 1.7 1.5 2.2.3.3 1.2.2 1.8.3.2.7-.3 1.3-.8 1.5-1.7.5-3.3.7-5.1 1 0-.2 0-.2-.2-.3.7-.8 1.3-1.8 2-2.7-.3-1.2-.8-2.5-1.2-4-2-6.6-3.8-13.4-5.8-20.1-.3-1.3-.7-2.7-1-4-.2-1-1-1-1.5-1-.3 0-.8.7-.8 1-.5 1.3-.8 2.8-1.2 4.3-.2.3-.3.7-.5 1-1.2-1.5-2.3-3-3.5-4.3-.2 0-.2.2-.3.2v1.2h-.2c-.2-.5-.5-1.2-.8-1.8-.5.5-1.2 1-1.7 1.3-.3.3-.8.5-1.2.7 0 4.6.7 9.3 1.8 13.8.7 2.5 1.5 5 2.3 7.5 1.2 3.3 2.3 6.6 3.6 10 .3.7.7 1.3 1 2 .5.8.8 1.8 1.2 2.7.3.8 1 .8 1.8.5.7-.3 1.2-.2 1.2.5 0 .3-.3.8-.5.8-2.3.3-4.5 1.2-6.5 2.5-.3-.5-.7-1-1-1.5.8-.8 1.8-1.5 2.8-2.5-.7-1.7-1.5-3.3-2.3-5-.2-.2-.3-.3-.3-.5 0-2.5-2.2-4-2.8-6.1-.5-1.8-1.2-3.6-1.7-5.5-.7-2.3-1.2-4.6-1.8-7-1.3-4.8-2.2-9.8-2.3-14.8v-1.7c0-2-.5-2.5-2.5-2-.6-1.8-.3-2.4 1.1-2.9zm.8 48.4c-.5.3-.8.8-1.2 1.3-1 1.2-2.2 2.3-3.2 3.5-.8-.5-1-1.2-.7-2.2.2-.3.3-.7.5-.8.3-.5.3-.8-.2-1.2-5.3-3.8-8.3-9.3-10.4-15.1-.3-1-.5-2.2-.7-3.3-.3-3.3-.7-6.5-1-9.8 0-.3-.2-.7-.3-1v-1.7l.3-.3c-.8-.2-1.8-.3-2.7-.2-.7 0-1.3.2-1.3-.7-.2-.8.7-1 1.2-1.2.7-.2 1.2 0 1.8.2.5.2.8-.2.8-.7.2-2.7.2-5.1.2-7.8 0-1-1-1-1.7-1.2h-.3c-.2-.8 0-1.2.8-1.3 3-.5 6-1.2 8.8-1.7.7-.2 1.2-.3 1.8-.2 1.3.2 1.8 1 2 2.5 0 .3 0 .7.2 1 .3 2.2.3 2.2-2.2 2.3 0-1-.2-2.2-.2-3.2s-.5-1.5-1.3-1.3c-1.7.3-3.3 1-5 1.7-.5.2-1 1-1 1.5-.2 2.7-.3 5.5-.3 8.3 0 1.5 2.3 2.3 3.6 1.5.7-.5 1.2-1 1.7-1.5.5.2 1 .5 1.7.7-.5.5-1 1.2-1.5 1.7-1.5 1.7-1.2 1.3-3.2.8-1.2-.3-1.7-.2-1.7 1.2 0 5.1 0 10.1 2.2 14.9.8 1.8 1.8 3.5 3 5 1.7 2.5 3.5 4.8 5.1 7.1.5.7 1 .5 1.5.2 1.3-1 2.8-1.8 4-3 1-1 1.3-1.2.8-2.5 1-1.2 1.7-1 2.3.3.2.5.3 1.2.7 1.7.3.7 0 1-.7 1.3-.5.2-1 .3-1.5.7-.5.7-1.7 1.7-2.7 2.5zm18.4 11.9c-.8 4-2.8 7.5-5.1 10.8-.3.5-.7 1.2-1.2 1.5-.5.5-1.3.7-1.8 1.2-.5.3-1.2.7-1.2 1.2 0 1.7.2 3.5.3 5.1 0 .3.5.7.7 1 .3-.3.7-.5 1-.8.2.2.3.2.7.3-.2.5-.5 1.2-.8 1.8.7 0 1.2-.2 1.5 0 .3.2.7.5 1 .8-.3.2-.5.5-.8.7-2.3.3-4.5.5-6.8.8-.5 0-1 .2-1-.7 0-.7 0-1.2.8-1.2.7 0 1.3-.2 2.2-.2 0-3.2-.2-6.3-.2-9.3 0-2-.2-4-.5-6-.2-1.5-.7-3-1-4.5 0-.2-.2-.3-.3-.5-.7-.5-1.3-.5-2 .3-.5.7-1 1.2-1.5 1.8-1-1.3-1-2.3-.2-3.2.8-.8 1.8-1.7 2.7-2.5.2-.2.3-.2.5-.3 1.5-.5 2.8-1.2 4.3-1.5 1.5-.5 3.2-1 4.8-1.2s3.2.7 4 1.8c.2.8.1 2-.1 2.8zm16.8-15.2c-.2 1.5-.2 2.8-.3 4.3-.2 1.5-.5 1.8-2.2 2-.2-1-.3-2-.3-3.2s-.7-1.7-1.7-2c-1-.3-2.7.7-3.3 1.5-1.3 1.8-1 4-1.2 6-.2 2 0 4.1 0 6.3 1.3.7 2.3.2 3.2-1 .2-.3.3-.5.7-.7s.8-.3 1.2-.2c.2.2.5.7.3.8-.2.5-.5 1.2-1 1.3-1 .5-2.2.8-3.2 1-.7.2-1.2.3-1.2 1.2v3.6c-.2 1.2-.7 2.2-.7 3.2 0 3.3.2 6.6.2 9.8 0 .7.3.8.8.8 1 0 2 0 3.2-.2.2 0 .5-.3.7-.5.2-1 .2-1.8.2-2.8 0-.5.3-.8.7-1.3.3.3.8.5 1.5 1 .7-.3.8.3.8 1v2.5c-.3 0-.5-.2-1-.3.2.5.2.8.2 1.2-1.2 1.2-2.7.5-4.1.7-2 .3-4 .3-6 .5-.3 0-1.2-.2-1.2-.3 0-.5-.2-1 .8-1.3 1-.2 1.3-1.3 1.5-2.5 0-3.3 0-6.8.2-10.1 0-1.3.2-2.7.3-4 0-.5-.2-1-.3-1.3 0-.2-.2-.3-.2-.5.5-.8-.2-1.5-.7-2 1.5-.2 1.5-.2 1.5-1.8.2-2.2.5-4.5.5-6.6 0-.7-.7-1.5-1.2-2-.7-.7-.8-1.2 0-1.7 1.2-.7 2.3-1.2 3.6-1.7 2.2-.8 4.3-1.3 6.6-2 1.1-.2 1.2-.1 1.1 1.3zm-2-8.2h-.7c-.7.2-1.2 0-1.3-.7 0-.3.5-.8 1-1 .7-.3 1-.5.8-1.3 0-1 .2-2 .2-3 0-.5 0-1-.2-1.5-1.3-3-1.5-6-1.8-9.1-.3-2.7-1-5.3-1.5-8.1-.2-.7-.2-1.5-.2-2.3-.8-4.1-1-8.5-1.2-12.8 0-2.2-.8-2.7-2.8-2.2-.7.2-1.3.3-1.3-.7 0-.3.2-.7.5-.7.7-.3 1.5-.5 2.2-.5 2.7-.5 5.3-1 7.8-1.3 3-.5 6.1-.2 9.1.5s6.5 4.6 6.1 8.5c-.2 1.3-.5 2.3-1.3 3.2-.5.5-.8 1-1.3 1.5-1.2 1.2-2.7 2.2-3.8 3.3-1.8 2-4.5 1.5-6.6 2.2-1.7.5-3 1-3.8 2.5-.3.5-.3 1.5-.2 2.2.5 3 1 6 1.3 8.8.3 2.3.5 4.6.8 7.1.2 1 .2 1.8.3 2.7 0 .2.3.5.7.5.5.2 1.2.3 1.7.3 1.3 0 1 .8 1 1.8-2 .1-3.9.1-5.5.1zm23.5 20.1c-.3 5.1-.8 10.3-1.3 15.3-.2 1-.5 2-1 2.8-1.2 2.2-2.5 4.1-4.3 5.6-.7.5-1.5.7-2.2 1-.5.2-1.2.2-1.7.3-2.2 1.2-4.3.7-6.3 0-1-.3-1.8-1.5-2.5-2.3-1.7-2.5-1.5-5.5-1.5-8.3v-1.2c-.2-3.2.7-6.1 1.2-9.3.5-3.6 1.5-7 3.3-10.3.8-1.5 1.8-2.8 3-3.8.7-.7 1.8-1 2.7-1 3.8-.2 6.6 1.8 9 4.6 1.5 2 1.8 4.3 1.6 6.6zm8.8 24.9c-2.3.3-4.6.8-7.1 1.2-.7.2-1.2 0-1.2-.7s-.5-1.5.8-1.5h.2c.7-.2 1.7 0 2-.3.5-.7.5-1.7.7-2.7.2-2 .2-4 .2-6 0-1.2 0-2.2-.2-3.3-.5-3.8.2-7.5.5-11.3.3-3.5.8-7 1.2-10.6v-1.5c0-.3-.3-.7-.7-.8-.3-.2-.8-.2-1 0-.8 1-2 .3-2.8.7 0 0-.3-.3-.3-.5.2-.5.2-1.2.5-1.3.7-.5 1.5-.8 2.3-1 3.3-.8 6.6-1.2 10.1-.3 1.3.3 2.7.3 4 .7 3.3.7 4.8 3 5.5 6.1.3 1.5-.7 2.7-1.2 3.6-1.5 2.5-3.6 3.8-6.5 4.5-2 .5-4 1.5-5.8 2.7-.7.3-.8 1.3-1.3 2.2-1-.3-1.3-.2-1.5 1-1.2 4.8-.7 9.5-.3 14.3 0 .5 0 1 .2 1.5.5 1.3 1.8 1.7 3 2 .2 1.1.2 1.1-1.3 1.3zm12.4-1c-2.2 0-4.5-.2-6.6-.3-.5 0-1 0-1.5-.2-.3 0-.5-.3-.7-.7 0-.2.3-.5.5-.5.5-.2 1.2-.2 1.7-.2s.8-.2 1-.8c.2-1.3.3-2.8.8-4 1.2-2.7 1.5-5.3 1.8-8.1.2-.8 0-1.3-.8-1.7-.2-.2-.5-.5-.3-.7.2-.3.5-.8.8-.8 1.8-.2 3.6-.3 5.5-.5.3 1.3.2 2-1.2 2.5-1.2.5-1.8 1.3-2.2 2.7-.7 3.3-1.3 6.6-2.2 10-.2 1.2 0 1.5 1.2 1.7h2.5c.8 0 1.5-.2 2.2-.3.5-2.2.8-4.3 1.3-6.3 0-.2.3-.2.7-.2v4.5c0 1.5.3 2.8.3 4.1-1.4-.2-3.1-.2-4.8-.2zm22.8-30.9c-.2.5 0 1 0 1.7-.5-.2-1-.2-1.3-.3-.5-.2-.7-.3-.7-1 .3-2.2.2-2.3-1.8-3-.8-.3-1.7-.7-2.5-.8-.8-.2-1.7-.7-2.5.2h-.3c-1.2.2-1.5.5-1.5 1.8 0 1.5-.2 3 .2 4.3.3 1 0 2.7 1.5 3.3.3.2.7.3 1 .3 1 .2 2.2.2 3.2.3.3 0 .7.2.8.3-1.3 1.8-3.3 2.2-5.1.7-.2-.2-.5-.3-.8-.7v1.8c-1.2 0-1.3.8-1.3 1.7-.2 2-.2 4-.2 6.1 0 2.7.2 5.3.3 8 .2 1.2.5 2.3.8 3.5 0 .2.3.5.7.7.7.2 1.3.3 2 1 .5.5.8-.2.8-.7v-3.6c0-.5.2-1.3.5-1.5.8-.2 1.3.3 1.3 1.2.2 1.7.5 3.3.7 5 .2.8-.3 1.3-1.3 1.3-.8 0-1.7-.2-2.5-.2-2.2-.2-4.3-.5-6.5-.7-1.3-.2-1.3-.2-1.2-1.5 1.3.2 2.5-1 2.7-2.5 0-4.6 0-9.3.2-13.9 0-1.7.2-3.3.3-5 0-.8 0-1.5-.8-1.8-.8-.5-1.7-.5-2.5 0-.7.3-1.3.8-2.2 1.3-.2-.7-.5-1.3-.3-1.5.3-.5 1-.8 1.7-1.2.5-.2 1.2 0 1.8 0 1.3 0 1.8-.7 2.3-2 .8-2 .5-4 .5-5.8 0-.8 0-1.7-1.2-1.8-.3 0-.7-.7-.7-1.2 0-.7.5-.7 1.2-.5 3.8.7 7.5 2.2 11.1 3.6 1.4.5 2.1 1.3 1.6 3.1zm5.4-16c-.3 1.5-.8 3-1.3 4.5-1.2-.2-1.8-1.2-2.8-1.8-1.8-1.5-4-2.7-6-4-2.3-1.5-5-2.8-7.6-3.3-.8-.2-1-.8-.3-2.5.5.2 1.2.3 1.7.3 1 .2 1.7-.3 1.8-1.3.2-1.5.3-3 .5-4.6.3-2.2.5-4.3.8-6.5.7-5 1.3-10 1.8-15.1.3-3.3.5-6.5.7-9.8 0-.8.2-1.7.2-2.3 0-1.3-1.3-2.2-2.7-1.7-.5.2-1 .3-1.3.7-.7.5-.8.2-1-.3-.3-.8-.3-1.5.7-2 .5-.2.8-.7 1.2-1 .7-.5 1.3-.7 2.2 0 .2.2.7.2.8 0 .3-.5 1-1 .8-1.5-.7-2.7-.2-5.1.5-7.6.3-1.2 0-1.7-1-2.3-.3-.2-.5-.5-.5-.8-.2-.7 0-1.3 0-2 5 .2 9.8.5 14.8.7-.2 2-.2 4.1-.3 6.1 0 .8-.2 1.7-.3 2.3-.2 1-.8.7-1.5.7s-.8-.3-.8-1c.2-1.3.2-2.7 0-4-.2-.5-.8-1.3-1.5-1.5-1.5-.3-3-.5-4.6-.5-.2 0-.7.3-.7.7-1.7 4.3-1.2 8.8-.5 13.3.2 1.2 1.2 1.2 2 1.3 2.2.5 2.5.3 4.6-1.7.5.5 1 .8 1.7 1.3-1.3 1.5-2.8 2.5-4.6 3 0-.2-.2-.2-.2-.3.5-.2.8-.3 1.3-.3v-.2c-.3 0-.7-.2-1-.2h-3.2c-1 0-1.7.7-1.8 2-.3 3.2-.8 6.3-1.2 9.5-.3 1.8-.8 3.5-1.2 5.3-.3 2.2-.7 4.5-1 6.8-.3 3.2-.8 6.3-1 9.5-.2 1.8-.2 3.6-.3 5.5 0 .8.3 1.2 1 1.5 1.2.7 2.3 1.3 3.2 2.3 1.5 1.7 3 3.2 4.8 4.3.5.3 1 .3 1.3-.3s.7-1.3 1-1.8c.2-.2.7-.3 1-.3-.3.2-.2.7-.2.9zm22.9-42.5c-1.2 1.5-2.3 3-4 3.8-.7.3-1.7.2-2.5.3-.5.2-1.7.3-1.7.5 0 .8.2 1.8.3 2.7.2.3.5.7.8 1 .7 1 1.2 1.8.7 3.2-.5 1.7-.7 3.5-1 5.1-.2.7-.3 1.5-.5 2.2-.3 1.7-.2 3 1.7 3.6v.3c-.5 0-.8.2-1.5.2-.7.7.3.8.7 1.3-.2.2-.3.2-.5.2-1.3.2-2.8-1.3-2.8-2.7.2-1.5.5-2.7 1-4 1-2.3 1.3-5 1-7.6-.2-1.2-.8-2.3-2-3-1.2-.7-2.2-1.3-3.3-2-.8-.5-1.3-.2-1.5.7l-1.5 4.5c-.8 3-1.7 6-2.5 9-.7 2.5-1 4.8-1.7 7.5 1 .2 2 .5 3 .7.5.2.8.3.7 1-.2.8-.5 1.5-.7 2.2-3.2-1.2-6.3-2.3-9.6-3.5.2-.2.3-.3.5-.3.8 0 1.3-.5 2-.8 2-.8 2.7-2.5 3.3-4.3 2.2-7.8 4.6-15.4 6.3-23.4.5-2.8 1.3-5.6 1.8-8.3.3-1.3.3-2.8.5-4.3.2-1-.3-1.7-1.3-1.8-.7-.2-1-.5-.8-1.2.2-.3.7-.5 1-.5.7 0 1.5.3 2.2.5.3 0 .7.2 1 .2 1.8 0 3.5.5 4.8 1.7 3.6 3.3 6 7.3 6.1 12.4.5.6.9 1.7 0 2.9z"/><path d="M214.9 282.9c.8-.7.7-1.2-1-2 0-.2.2-.5.3-1-.7.2-1.2.3-1.8.3-.5-.8-1-2-1.5-3 0 0 0 .2-.3.5-.3-.8-.5-1.5-.7-2.2-.5-2.5-.8-5-1.2-7.6-.2-1.3-.2-2.8-.3-4.1 0-.3-.2-.5-.2-.8-.2-1-.8-1.8-.5-2.8.2-.3-.3-1-.5-1.5-.5-1.5-1.2-3.2-1.2-4.6 0-2-1.2-3.3-1.5-5.1-.2-.7-.7-1.7-.8-2.5-.3-.8-.5-1.8-.8-2.7-.5-1.2-1-2.5-1.3-3.6-.3-.8-.5-1.8-.8-2.7-.2-.3-.2-.7-.3-.8-.8-.7-.8-1.7-.8-2.7.2-.8-.2-1.2-.7-1.2 0-.7 0-1.2-.2-1.7-.8-1.8-1.8-3.5-2.5-5.3-.3-1-.5-2-.8-3-.2-.7-.3-1.5-.7-2-1.3-2-1.5-4.3-2.2-6.5-2-6.3-3.3-12.8-3.8-19.4 0-.2 0-.3-.2-.5-1.2-1.2-.7-2.5-.8-3.8-.2-.8-.3-1.8-.3-2.7 0-.7 0-1.5.2-2.2.3-1 .8-1.8 1.3-2.7.5-1 1.5-1 2.3-1.2 5.5-.8 10.9-1.7 16.4-2.3 2.8-.3 5.5-.5 8.3-.5 3.2 0 6.3.3 9.5.5.2 0 .7.2.7.3.8 2.2 1.8 4.5 2.5 6.8.7 2 .8 4.3 1.2 6.3.3 2.2 1.2 4 2.2 5.8 1.2 2.2 2.2 4.1 3.2 6.3 1.7 3.8 1.8 8 2.7 12.1.7 3.8.5 7.8 1.7 11.4.8 3.2 1.2 6.6 2 9.8.7 2.8 1.7 5.8 1.2 8.8-.7 4.1.5 8.1.7 12.3.2 3 .5 6.1.5 9.1 0 2.5-.2 5-.2 7.5 0 1.2-.3 2.3-.5 3.5-.3 2-1.7 3.2-3.6 3.2-.2 0-.7 0-.7.2-1.2 1.5-2.5.7-3.8.7-1.8 0-3.6.3-5.5.7-3.2.7-6.1 1.2-9.3 1.2h-1.2c-.3 0-.7-.3-1.2-.5-.3-.2-.7-.3-1-.5-.2-.2-.5-.2-.7-.5-1-.3-1.2-.6-1.5-1.1zM206.7 283.6c-1 0-1.3.7-.7 1.3.5.7 1 1.3.7 2.2-.5.8-1.2 1.8-2 2.3-3.8 2.2-8 2.8-12.3 3.3-.5 0-1.2.5-1.5.3-1-.7-2.2 0-3.2-.2-1.3-.3-2.8-.7-4.1-1-.3-.2-.7-.5-1-.7s-.7-.3-1.2-.5c-.3-.2-.7-.3-1.2-.7.5-.2.7-.2.8-.2 0-.2 0-.2-.2-.2-1.2 0-1.5-1-1.7-1.8 0-.2 0-.3-.2-.3-1.8-1.7-2.2-4-3.2-5.8-.7-1.3-1.3-2.8-2-4.1-.7-1.7-1.3-3.3-2-5-.3-.8-.8-1.5-1.2-2.3-.2-.2 0-.5 0-1-.5-.5-1.3-1.3-1.2-2.5 0-.2 0-.3-.2-.3-1.5-1.3-1.7-3.3-2.5-5-.2-.2 0-.7 0-.8-1-.8-1.5-2-1.5-3.3v-.3c-.3-.7-.5-1.3-1.2-1.7.3-.7.2-1.3-.5-1.7l-.2-.2c.5-1.5-1.2-1.8-1.3-3 0-.2-.2-.5-.2-.5.5-.8 0-1-.8-1.2.3-.2.5-.2.8-.3-.3-.5-.8-1-1.2-1.5-.2-.3-.5-1-.3-1.3.3-.7-.3-.8-.5-1.2-.3-.5-.7-1.2-.8-1.7-.3-1-.3-1.8-.7-2.8-.2-.3-.7-.5-.8-.8-.7-1.7-1.5-3.3-2-5-.2-.5-.5-.8-.7-1.3-.2-.8-.2-1.7-.5-2.5-.7-1.3-.8-2.8-2-4-1.3-1.5-1.8-3.5-1.7-5.5 0-.3.7-.7 1-1 .8-.8 1.8-1.7 2.7-2.5.3-.2.7-.3 1-.5.2-.2.5-.2.5-.2.3-1.2 1.5-1.5 2.3-2 1.3-1 2.7-1.8 4.3-2.3 2.8-1 5.8-2 8.8-2.7 1.8-.5 3.8-.7 5.6-1 .3 0 .5-.3 1-.8.5 0 1.2.2 2 .2 0-.3.2-.5.2-.8h.5c.3 0 .7 0 1-.2.8-.5 2.8-.2 3.3.8 1.5 2.5 3 5 4.1 7.5 1 2.2 1.8 4.5 2.7 6.8 1 2.8 2 5.6 3 8.5.3.8.5 1.7.7 2.3 0 .3 0 .7-.2.8.3.3.7.7.8 1 .8 3.2 1.7 6.5 2.5 9.6.3 1.5 1 2.8 1.3 4.3.3 1.3.5 2.7.8 4.1.2.8.7 1.5.8 2.3.5 2 1.2 4.1 1.7 6.3.3 1.8.8 3.6 1 5.5.3 2.7.7 5.3 1 8v1.5c0 1.8.2 3.8.7 5.6 1.1-.2 1.1.7 1.1 1.7zM244.7 211.6h4.8c.8 0 1.5.5 2.3.7 2.5.5 5.1 1.2 7.6 1.2 6.1.3 12.3.3 18.4.3 3.6 0 7.3.2 10.9 0 6.6-.2 13.1-.7 19.7-1 3.2-.2 6.5-.5 9.6-.8 2.2-.2 4.3-.7 6.5-1 .8-.2 1.5 0 2.2.7 3.2 3.2 6.3 6.1 9.5 9.1l.2.2c1.8.8 2.2 2.7 2.7 4.3.2.2-.2.8-.5 1-2.3 1.2-4.6 2.3-6.8 3.5-2.7 1.3-5.3 2.7-7.8 4.3-3.5 2.2-7 4.3-10.4 6.6-1.8 1.2-3.5 2.5-5.3 3.6-1.5 1-3.2 1.8-4.6 2.7-2.5 1.3-5.1 2.5-7.8 3.6-1.7.7-3.2 1.3-4.8 2-.8.3-2.2.2-2.8.8-1.2 1-2.5 1-4 1-4.3-.2-8.3-1-12.3-2.2-5-1.3-9.6-3.6-14.3-5.6-1.8-.8-3.6-1.2-5.3-2.5-3-2.5-5.3-5.5-6.3-9.3-.3-1.3-1-2.5-1.5-3.6-1.3-3-1.5-6-1.5-9.1v-9.3c.3-.9.3-1.5 1.6-1.2zM275.1 205.6l.7.7c-.2 0-.2.2-.3.2-2.2.3-4.3.7-6.3 1-.3 0-.8.3-.8.5 0 1.2-.8 1.2-1.7 1.3-3.5.2-7 .5-10.4.5-4 0-8.1-.3-12.1-.5h-.7c-1.8-.3-1.8-.3-2.2-2.2-.2-1.2-.8-2.3-1.2-3.5-.3-1.2-.7-2.5-.8-3.6 0-.3 0-.7-.2-1-.8-2.7-1.7-5.5-2.3-8.1s-1.2-5.3-1.7-8.1c-.5-2.7-1-5.5-1.7-8-.5-1.7-1.3-3.3-2-4.8s-.7-3 0-4.5c.2-.3 0-.7-.2-.8-.8-1.2 0-3 1.3-2.8 2 .2 3.5-.7 5-1.8.8-.7 2-.8 2.8-1.3.5-.2 1-.3 1.5-.5 3.2-1.5 6.6-1.8 10-2 1.7-.2 3.2.2 4.8.2h1.3c2.7-.7 5.1.2 7.8.3.5 0 .8 1 1.3 1.7.2.3.3.8.5 1.2.5 1.3 1 2.7 1.3 4 1.2 5 2.3 10 3.5 14.9.7 2.8 1.8 5.6 2.5 8.6.3 1.2-.2 2.5-.2 3.8 0 .7-.2 1 .7 1.5.5.3.7 1.3.8 2.2.3 2.3.3 4.6.8 7 .3 1.3-.2 2.3-.5 3.5 0-.1-.7.1-1.3.4zM289.8 172.5c-.2-.3-.3-.5-.3-.8.2 0 .2-.2.3-.2 7.6-1.3 15.4-1 23.1.2 2.8.5 5.5 1 8.1 1.7 1.3.3 2.5.8 3.6 1.3.7.2.8.7 1 1.3.2 6.8.3 13.8.5 20.6 0 2-.5 4-.7 6-.2 1.2 0 2.3 0 3.3-.5.2-.8.2-1 .2-1 .5-1.8 1.2-2.8 1.5-1.8.5-3.8.8-5.6 1-4.5.2-8.8.2-13.3.2h-12.6c-1.3 0-2.7-.2-4-.5-1.3-.3-2.2-2-1.5-3.2 1.7-2.8 1.3-5.8 1.5-8.8.3-5.1.2-10.3.3-15.4.2-2.7.5-5.3.8-8 .2-1 .3-1 1.2-.5.4.1.9-.1 1.4.1zM341.2 231c.8 2.8 1.8 5.3 2.5 8 1.5 5.1 3 10.3 4.1 15.6 1.7 7 3.3 14.1 5 21.1 0 .2.2.5 0 .7 0 .2-.2.5-.3.5s-.3-.2-.5-.2c-2.8-3-6-5.1-9.5-7.5-4.1-2.8-8.8-5-13.1-7.3-3-1.5-6-3-9.1-4.3-1.7-.7-3.5-1.3-5.5-.8-1.2.2-2.5-.2-3.6-.3-3.5-.7-7-.8-10.4-.5-2.2.2-4.3-.3-6.5-1 15.6-8.7 31-16.5 46.9-24zM250.9 244.6c1.8 1.3 3.6 2.7 5.3 4.1.3.2.5.3.8.5 4 1.7 8.1 3.2 12.1 4.8 3.2 1.3 6.3 2.2 9.6 3 .5.2 1.2.5 1.2.7 0 .8.2 1.8-.7 2.5-1.5.8-3.2 1.7-4.6 2.5-1.3.7-2.7 1.3-4 2-3.3 1.5-6.6 2.8-10.1 3.6-.7.2-1.5.5-2.2.7-1.8.8-3.6.3-5.5-.5-.5-.2-1-.5-1.5-.7-.5-.2-1.2-.3-1.2-1.2 0-.3-.7-.7-1-1-1.8-1.3-2.7-3.2-2.7-5.3 0-5-.2-10.1-1.2-14.9 0-.2-.2-.3 0-.7 0-1.3.5-1.5 1.7-1 .8.3 1.7.8 2.5 1.2.5.2 1 0 1.5-.2v-.1zM142.1 142.3v.3c-.8-1-1.7-1.8-2.5-2.8-.5-.7-.8-1.7-1.5-2.5-1-1.2-2.2-2-3.2-3.2-.5-.7-.7-1.5-1.2-2.2-.3-.7-.8-1.2-1.3-1.7-.3-.5-.5-.8.2-1.3.5-.3 1-.8 1.5-1.2 1.5-1.2 3.2-2.3 4.6-3.6 1.2-.8 2.3-1.7 3.5-2.7.3.3.7.7.8 1 1.8 2.8 3.8 5.6 5.6 8.5 2.2 3.5 4.3 7.1 6.5 10.6.7 1 1.5 2 1.5 3.3 1.8 1.8 2.8 4.1 4 6.3 1.5 2.5 2.7 5.1 3.6 7.8.3.7-.2 1.5.8 2 .2.2.3 1 .2 1.5-.2.3-.5.7-1 .8-1.7 1-2.2 1-3.5-.5-.7-.8-1.3-1.5-2.2-2.3-1-1.2-2.2-2.2-3.3-3.3-.3-.3-.3-.8-.5-1.2-.7-.8-1.7-1.7-2.3-2.5-1.5-1.5-3-3-4.3-4.5-.2-.2-.3-.2-.3-.3-.7-.5-1.3-.8-1.5-1.7 0-.3-.3-.5-.5-.7-1-.8-2-1.7-3-2.7-.3-.5-.5-1.2-.8-1.7.2.5.2.5.1.5zM282 137.5c-1-1.5-.8-3.3-1-5.1-.3-2.5-.7-5-1-7.5-.7-4.3-.5-8.5-.2-12.8.3-3.3.3-6.8.7-10.1.2-2 .7-3.8 1.2-5.8 0-.3.5-.7.8-.7 3.2 0 6.5 0 9.6.2 1 0 1.8.3 3 .5-.3 1.8-.7 3.8-1 5.8-.5.2-.8.2-1.2.2v.2c.3 0 .5.2 1 .2-1 4-1.8 8-3 11.9-1.8 6.1-3.6 12.1-4.6 18.4-.2 1.5-.8 3-1.3 4.3-.2.7-.7 1-1.5.5-.5-.2-1-.2-1.5-.2zM350.4 164.3c-.2.3-.2.7-.3 1.2.2 0 .2.2.3.2-.3.2-.7.3-.8.5-.8-3.2 2.7-12.3 5-12.6-.2-.2-.2-.3-.3-.7.2 0 .3-.2.3-.2.7 0 1.2-.2 1-1v-.3c1-1 2-2 2.8-3.2.7-.7 1-1.7 1.5-2.3 1.2-1.3 2.3-2.8 3.5-4.1 1-1.2 2-2.2 3-3.3.7-.7 1.5-1.3 2.2-2 .2-.3.3-.7.5-1 .8-.8 1.8-1.5 2.5-2.3.7-.7 1-1.3 1.7-2.2.3-.3.7-.7 1-1.2.3-.3.5-.8.8-1.2.2-.3.5-.7.8-.8.2 0 .5.3.7.7 1.7 2.5 3.2 5 4.8 7.6.8 1.2.8 1.8 0 2.8-1.3 1.5-2.8 3-4.3 4.3-1.8 1.7-3.6 3.5-5.6 5.1-1.3 1.2-2.7 2.5-3.8 3.8-3 3.5-6.6 6.3-10.6 9-1.8 1.2-3.6 2.3-5.5 3.5-.6.4-1.1.7-1.2-.3zM203.3 115.9c-1.3.2-1.3-1.2-1.7-1.8-.5-.8-.7-1.8-1.2-2.7-.3-.5-.2-.7.3-.8 1.2-.3 2.3-.8 3.5-1.2 2.5-.8 5.1-1.7 7.6-2.5 1-.3 1.2.2 1.5 1-.5.2-1 .2-1.5.3v.2c.7 0 1.2.2 1.8.2 1.2.7 1.3 2 1.5 3.3.2 1.3.3 2.7.5 4 .5 3.5 1 6.8 1.7 10.3.8 4.8 1.7 9.5 2.7 14.3 0 .5.2.8.3 1.7-2-.8-4.3-.2-5.8-2-.8-.8-1-2.2-1.7-3.3-.2-.3-.5-.7-.7-1.2-.2-.5-.3-1.2-.5-1.7-.3-1.2-.7-2.3-1.5-3.3-1-1-1.2-1.8-1.7-2.7-.3-.7-.8-1.2-1.2-1.8-.3-.8-.5-1.7-.8-2.3-.2-.3-.3-.8-.7-1-1-.8-1.5-2-1.7-3.3v-.2c-1.1-.8-.2-2.3-.7-3.5zM139.7 201.6c-.5.7-1 1.2-1.5 1.8-.2.2-.3.5-.5.8-.3.5-.7.5-1.2.2-2-1.7-4-3.2-6.1-4.6-.5-.5-1.2-.8-1.7-1.2-1.5-1.3-3-2.7-4.5-4-1.3-1.3-2.8-2.7-4.1-3.8-1.8-1.7-3.5-3.3-5.3-4.8-1.7-1.5-3.5-3-5.1-4.5-.8-.8-.8-1.3.2-2 .2-.2.2-.7.5-.8 1.7-1.8 3.2-3.6 5-5.5.2-.2.7-.2.8.2 2.3 2.7 4.8 5.3 7.1 8l2 2c.2.2.3.7.5.8 1.5 1.7 3 3.3 4.5 5 1.2 1.3 2.2 2.5 3.3 3.8.3.3.7.3 1 .7-.5.3-.2.8.3 1.3.3.2.5.5.8.8 1 1 1.8 2.2 2.8 3.2.3.5.8.8 1.2 1.5.3.5.3 1.2.3 1.8-.1-.7-.3-.7-.3-.7zM171.9 294.5c-.3-1.5-1.5-2-2.5-2.5-1.8-1-3.6-1.8-5.6-2.5-.7-.3-.8-.8-.8-1.5-.2-3.3.7-6.5 1.5-9.6.2-.7.3-1.2.5-1.8 0-.2.3-.7.3-.7.2 0 .5.2.7.5.7.8 1.3 1.7 2 2.3.2.2.3 0 .5 0 0 .2.2.5 0 .7-.3.7.2.8.7 1.2.5.3 1 .5 1.2 1 1.8 2.8 3.8 5.8 5.6 8.8.3.3.7.7 1.2 1 .7.5 1 1.3.5 2-.8 1.5-1.5 1.7-3.2 1.2-.8-.3-1.6-.1-2.6-.1zM322 282.2c-.2-1 .5-.8 1.2-.8 3 .7 4.5 2.7 5.1 5.5.5 1.8.7 3.6.7 5.6-.2 2.2-.8 4-3 5-1.8.8-3.6.5-5.5-.2-.2 0-.3-.3-.3-.5 0-1.3 0-1.5-1.5-1.5 0-.8.2-1.5.2-2.3 0-3.2.7-6.1 1.2-9.3.1-1.3.4-1.6 1.9-1.5zM265.8 359c.3-2.2.5-4.1.8-6.3.2-.7.3-1.2.5-1.8.3-1.5 2-3.2 3.8-3.2 1.3 0 2.7.2 4 .2 1 0 3 2.2 3.2 3.6 0 1 .3 2 .5 3 0 .2.2.5 0 .7-1.5 1.7-2.7 3.6-5 4.6-.8.3-1.8.5-2.7.8-1 .2-1.8.3-2.8.7-1.5.5-1.8.3-2.2-1.2 0-.2 0-.7-.1-1.1zM232.1 297.7c1.5.2 2.8.2 4.1.3.7 0 1.2.3 1.8-.3 1.2-1.2 2.7-.7 4-.3 2.5.7 4.1 2.3 5.3 4.5.2.3.2.7.3 1.2.2 1 .5 2.2.5 3.2 0 1.2-.3 2.3-1 3.2-1.5 2.5-3.8 4-6.6 4.8-.2 0-.3.2-.5.2-1.3-.7-2.3.3-3.6.7-.3 0-.7-.2-1-.2-.2 0-.5-.3-.7-.2-1 .2-1.7-.5-1.8-1.3-.5-1.8-.8-3.6-1-5.5.1-3.7.2-6.9.2-10.3zM256 369.3c-.2 1.8-.2 3.8-.3 5.6-.3 3-1.3 5.5-4 7-.8.5-1.3 1.2-2 1.8-1.7 1.5-3.6 1.2-5.3.2-1.7-1-3.3-2.2-4.1-4.1-1-2.3-1.2-4.5-1.3-7-.2-2.7.2-5.3.8-7.8.7-2.8 1.8-5.6 3.3-8.1.5-1 1.7-1.8 2.5-2.5 1-.7 1.8-1.5 3.2-1.5 2 0 3.8 1 4.5 2.8.2.3.5.8.7 1.2 1.8 3 2.5 6.3 2.3 9.8-.3.8-.3 1.6-.3 2.6zM254.3 316.4c1.8.2 3.6 1.3 5 3 1.7 1.8 2.3 4.1 2.5 6.6.2 2.5-.8 4.1-2.3 5.8-.3.5-.7 1-1 1.5-1.3 2.3-4 3.5-6.5 2.5-2.2-.8-4.6-3-4.8-5.8-.2-3-.2-5.8.3-8.8.3-1.5.5-2.7 1.5-3.8.5-.7 1.2-1 2-1 1 .2 2 .2 3.3 0zM209.7 368c-.5-1.3 1-2.5 1.3-3.8 0-.3.5-.5.8-.7 1.7-.3 3.5-.5 5.1.3 1 .5 1.3 1.2 1 2.3-.5 1.8-.8 3.6-1.8 5.3-.7 1.3-2 2.2-3.3 3-.3.3-1.5-.5-2.2-.8-.7-.3-1-1-1-1.8.3-1.2.3-2.3.1-3.8z"/></svg>