
<svg xmlns="http://www.w3.org/2000/svg" viewBox="0 0 412 222"><path d="M88.8 60.1c-.2 1.5-.3 2.9-.5 4.4-.4 2.8-1.8 5.1-3.5 7.2-1.6 1.9-3.4 3.6-5.6 4.8-1.9 1-3.8 1.5-5.8 1.9-3.2.6-6.5.9-9.9.9-3.2 0-6.1-.9-8.6-2.9-1.9-1.5-3.7-3.1-5.3-5-.9-1-1.6-2.3-2-3.6-1.6-5-1.4-10-.2-15 .7-3.1 2.5-5.8 4.8-8 3.4-3.2 7.4-5.5 12.2-6.1 1.4-.2 2.7-.4 4.1-.5 2.3-.1 4.4.5 6.4 1.3 2.6 1.1 5 2.4 7.2 4.2 2.5 2.1 4.5 4.7 5.4 7.9.8 2.8 1.4 5.6 1.3 8.5M365 162.3c0 1.4.2 2.8 0 4.2-.3 2.4-1.2 4.5-2.7 6.4-1.8 2.1-3.6 4.3-5.3 6.4-1.2 1.5-3 2.1-4.7 2.8-3 1.1-6.2 1.1-9.4 1-.4 0-.7 0-1.1-.1-4.4-1.2-8-3.6-10.5-7.5-1.8-2.8-3-5.9-3.9-9.1-.1-.4-.2-.7-.2-1.1-.3-3.8-.5-7.5 1-11.1 1-2.3 2.2-4.5 3.6-6.5 1.5-2 3.6-3.4 5.7-4.8.6-.4 1.5-.7 2.3-.8 4.5-.6 8.9-.3 13.3.9 1.2.3 2.2.8 3.2 1.5 1.8 1.3 3.6 2.8 5 4.6 2.3 2.9 3.6 6.2 3.8 9.9 0 1.1-.1 2.2-.1 3.3M314.9 129.9c-1.2-2.3-2.3-4.5-3.3-6.6-1.2-2.5-2.3-5.1-3.7-7.5-1.5-2.7-3.4-5.1-5.4-7.5-.1-.1-.2-.3-.3-.3-.9-.1-1.2-.9-1.7-1.6-.5.7-.3 1.3-.4 1.8-.2 2.7-.3 5.4-.4 8.1-.1 2.1.1 4.1.4 6.1.1.8.5 1 1.2 1 .3 0 .6-.1.9-.1 1.3 0 2.2.4 2 2.1-.2 1.5 0 3.1-.1 4.6 0 .7-.1 1.4-.2 2.3-1.9.3-3.7 0-5.5 0h-5.5c-1.8 0-3.6-.2-5.4-.3-.5-1.9-.6-5-.1-8.9 1.4-.6 3-.2 4.6-.5 0-.6.1-1.2 0-1.7-.7-4.4-.9-8.8-1.1-13.2-.1-3-.1-6-.1-9v-2.1c-.7-.1-1.3-.2-1.8-.2s-1 .2-1.5.2c-.8 0-1.3-.3-1.5-1-.5-2.3-.6-4.6-.1-7 .5-.1.9-.3 1.3-.3h10.6c.1 0 .3.1.6.2 2 2.8 4 5.6 6 8.5.3.4.5.8.8 1.1 1.5 1.4 2.7 3.1 3.8 4.8 1.5 2.3 3 4.7 4.4 7.1.1.2.4.4.6.6.2-.2.4-.2.4-.3.6-4.3.5-8.6.3-13-.8-.7-1.8-.4-2.6-.4-1.1-.1-1.7-.4-1.7-1.6-.1-2-.1-4.1.1-6.1.3-.1.5-.3.7-.3 2.3.1 4.5-.2 6.8-.3 1-.1 2.1 0 3.1 0 1.5.1 2.9.3 4.4.4.4 0 .7 0 1.1.1.5.2.9.5.9 1.1v6.3c-1.4.6-2.9 1.2-4.4 1.9-.4 1.6-.4 3.2-.4 4.8 0 2.2.1 4.4.1 6.6l.3 16.1c0 .7 0 1.3.1 2 0 .7.1 1.5-.4 2.1-.2 0-.4.1-.6.1-2.4-.2-4.7-.2-7.3-.2M364.7 60.7c0 .5.1 1 .1 1.5.1 2.3-.6 4.5-1.5 6.6-1.2 2.7-2.9 4.7-5.4 6.2-.4.3-.9.5-1.2.9-1.8 2-4.3 2.7-6.7 3.7-.3.1-.7.2-1.1.2-4.4.2-8.7-.3-12.8-1.8-.4-.1-.8-.3-1.2-.6-1.5-1.3-3-2.5-4.4-3.9-.6-.6-.9-1.5-1.3-2.3-.4-1-.7-2.1-.9-3.2-.6-2.5-.9-5.1-.8-7.6 0-.8.2-1.6.4-2.4.5-1.6 1.2-3.2 1.7-4.8.9-2.6 2.4-4.7 4.2-6.7 1.8-2 4.1-3.3 6.9-3.6 2.7-.3 5.4-.8 8.1-.8 2.6-.1 4.9.6 7 2.1 2.7 2 5.2 4.3 7.1 7.1.7 1.1 1.3 2.3 1.4 3.7.2 1.9.3 3.8.4 5.7.1 0 0 0 0 0M285.3 111.1v4.6c0 .6.1 1.2-.1 1.8-1.1 2.9-1.8 5.9-3.6 8.4-1 1.4-2.3 2.5-3.5 3.6-2.9 2.6-6.6 3.1-10.2 3.6-1.7.3-3.4.2-5.1.2-1.5 0-2.8-.4-3.9-1.3-2.1-1.5-4.1-3.1-6.2-4.6-.3-.3-.7-.6-.9-.9-1.4-2.2-3-4.4-3.7-7-.4-1.2-.8-2.3-1.2-3.5-1-3.1-1.2-6.2-.7-9.4.4-2.7 1.2-5.3 1.8-7.9.1-.2.1-.4.2-.6 2.1-4.5 5-8.1 9.4-10.4 1-.6 2.1-1.1 3.3-1 .2 0 .5 0 .7-.1 2.6-1 5.2-.6 7.9-.5.9 0 1.8.2 2.6.6 3.6 1.7 7 3.8 9.6 6.9.5.6.9 1.3 1.2 2.1 1.2 3.1 1.8 6.4 2.3 9.6.1 1.8 0 3.8.1 5.8m-19-13.7v-.1c-1.1.1-2.2.1-3.3.2-1.3.1-2.3.8-3 2-.5.9-1.1 1.7-1.6 2.7-1.3 2.7-1.9 5.5-1.7 8.5.3 4 2.1 7.2 4.8 10.1 2.1 2.3 4.7 2.8 7.7 1.7.4-.1.8-.4 1.2-.5 3.1-1.1 4.6-3.5 5-6.7.2-1.5 0-3.1-.1-4.6-.1-1.4-.4-2.7-.6-4.1-.4-2.6-1-5-2.7-7-1.1-1.3-2.2-2.1-3.9-2.1-.7-.1-1.2-.1-1.8-.1M188.7 114.1c-1.4.1-2.4.2-3.5.2-.5.8-.4 1.6-.4 2.3-.1 1.5 0 2.9-.9 4.2-.3.4-.2 1-.3 1.5-.1 1.8-.2 3.5-.3 5.3-.1 1.4-.3 2.8-.6 4-2.6.2-5.1.4-7.6.6-1 .1-1.9 0-2.8-.4-.8-.4-1.7-.4-2.5-.6-.4-1.6-.6-5.7-.4-9.1.7-.2 1.6-.3 2.2-.7.9-.5 1.5.4 2.4.3.1-.3.2-.6.2-1v-5.1c0-5.5.1-11 .1-16.5 0-.6-.1-1.2-.1-1.8-1.4-.6-3 0-4.4-.5-.1-1.2-.2-2.4-.3-3.7l.9-1.5c-.1-.8-.3-1.6-.4-2.4 1.1-.7 2.3-.5 3.4-.7.9-.2 1.9-.2 2.8-.6.8-.3 1.7-.2 2.6-.3.4 0 .9.2 1.3.1 3-.5 6 .1 9 .3 1.5.1 3.1.2 4.6.4 2.5.4 4.9 1.2 6.9 2.7 2 1.6 3.2 3.6 3.1 6.2v2.9c.1 3-1 5.5-2.9 7.6-1 1.1-2.1 2.1-3.1 3.1-.4.4-.9.8-1.4 1.3.2.8.4 1.6.6 2.3.6 1.9 1.2 3.8 1.7 5.7.5 1.6 1.5 2.4 3.2 2.5 1.2 0 2.5.1 3.8.2.5 1.5.1 2.8.1 4.2 0 1.3.1 2.6-.4 4-1.3.3-2.6.2-3.9.1-.9 0-1.7-.1-2.6.1-.6.2-1.2.2-1.7.2-1.8.1-2.3.1-2.8-1.9-.2-.7-.7-1.3-.9-2-.4-1.2-.8-2.5-1.2-3.7-.8-2.5-1.6-5-2.7-7.4-.4-.5-.5-1.4-.8-2.4M185 96.6c.3 2.5 0 5 .3 7.4 0 .1.2.2.4.4 1.5-.3 3.2-.6 4.8-.9.8-.2 1.3-.6 1.4-1.5.1-.9.3-1.7.4-2.6.1-1-.3-1.7-1.2-2.1-1.8-.9-3.7-1.2-6.1-.7M45.6 162.2c-.3-2.2 0-4.4.6-6.6 1-3.7 2.3-7.3 4.7-10.3 2-2.5 4.3-4.8 7.7-5.6.2-.1.4-.1.6-.2 2.1-1.1 4.3-1.2 6.6-.4 1.1.4 2.3.4 3.5.6 1.4.2 2.7.5 4.1.7 1.9.2 3.3 1.2 4.5 2.5 1.2 1.4 2.4 2.8 3.5 4.2.9 1.2 1.7 2.6 2.2 4.1.3 1 .7 2.1 1.2 3.1.7 1.4.8 2.8.7 4.3-.3 3.1-.6 6.1-1.8 9.1-1 2.6-2.1 5.1-3.9 7.3-1.2 1.6-2.4 3.2-4.1 4.3-4 2.6-8.2 3.8-13 2.7-2.8-.7-5.5-1.7-8.1-2.8-2.6-1-4.4-2.9-5.7-5.3-.8-1.4-1.4-2.9-2.1-4.4-1-2.3-1.6-4.7-1.2-7.3m26.1-8.5c-.5-.6-.8-1.1-1.2-1.4-1.1-.8-2.2-1.3-3.7-1-2.8.7-5.5 1.6-8 3.1-.5.3-1 .6-1.4 1.1-1.3 1.7-2.5 3.5-3.2 5.5-.3.9-.5 1.9-.5 2.8 0 1.2.3 2.5.4 3.7.1.9.5 1.7 1.4 2.1.7.3 1.3.7 1.9 1.1.6.5 1.3.6 2.1.6.8-.1 1.7-.1 2.4-.4 2-.9 4.3-1.1 5.7-3.1 0-.1.1-.1.2-.1.4-.2 1.1-.1 1.3.4.3.6.4 1.3.7 1.8.4.9 1.3 1.3 2.2 1.1 1.8-.5 3.4-1.3 4.6-2.8.1-.2.1-.6 0-.8-.1-.2-.5-.3-.8-.3-.6.2-1.1.5-1.6.7-1.4.4-2.3-.2-2.5-1.7-.1-.4-.1-.9 0-1.3.2-1.2.3-2.3.6-3.5.5-2.1 1.3-4 2.2-6 .3-.8.7-1.6.5-2.5-.7-.5-1.4-.8-2.2-.8-.3.4-.6.9-1.1 1.7M345.9 97.3c.1 1.5.1 3 .3 4.6.1 1.2.8 1.7 2.1 1.8h.9c.3 0 .6 0 .9.1.5.9.8 1.9.8 2.9 0 .8.1 1.6.1 2.4 0 .6-.2 1.3-.4 1.9-.3.6-.8 1.1-1.6 1-1.1-.1-2 .2-3 1-.1 2.9-.3 5.9-.4 8.8.3.2.4.4.5.4h11.3c.7-1.8-.1-3.9.9-5.8.4-.1.8-.2 1.2-.2h5.3c.8 0 1.2.4 1.2 1.3v.2l-.3 11.9c0 .2-.1.4-.2.8-.4.1-.8.3-1.2.4-8 1.6-16.1 1.8-24.2 1.7-1 0-1.9-.2-2.9-.2-1.8-.1-3.5-.5-5.3-.2-.3 0-.6-.1-.9-.2-.1-.3-.3-.7-.3-1-.1-2.6-.1-5.1-.1-7.7 0-.4.1-.8.2-1.3 1.2-.4 2 .7 3 .7 1 .1 2-.1 3.1-.1.4-1.1.2-2.1.2-3.1 0-4.8 0-9.7.1-14.5 0-1.7.3-3.4.4-5.1.1-1 .1-1-.5-2.4-1.7-.6-3.8 0-5.6-1 0-2.7-.6-5.4.5-8 1.2-.4 2.4-.4 3.5-.4 1.9-.1 3.8-.2 5.7-.2h2.9c3 0 6 .1 9 .1 2.6.1 5.1-.1 7.7.7.7.2 1.4.2 2.2.3.6.1 1.2 0 1.7.2 1.9.7 2.3 1 2.3 2.7 0 3.7-.1 7.5-.2 11.2 0 .5-.2 1-.3 1.5-2.2.8-4.4.8-6.6 1-.9.1-1.6-.6-1.8-1.6-.1-.9-.2-1.8-.2-2.6-.1-1.1-.1-2.2-.1-3.2-2.3-1.2-9.4-1.4-11.9-.8M156.3 103.2c-.1-1.8-.3-3.6-.4-5.4-2.1-.7-7.9-.9-11.4-.4-.1.2-.3.3-.3.5v5.1c0 .6.3 1 .8 1.2.9.4 1.8.6 2.8.4.9-.1 1.7.1 2.6.7.2 2.2-.1 4.5 0 6.8-.8.7-1.7.9-2.7.9-1 0-1.9.1-2.9.2-.8.7-1.1 1.6-1.2 2.6l-.3 6.6c0 .3.1.6.1.9 1.3.6 2.6.2 3.9.3 1.4.1 2.8.1 4.2.2 1.3.1 2.6.1 4.1.2.1-.5.4-1 .4-1.5 0-2.4.5-4.8.8-7.2 0-.1.1-.3.2-.5 1-.1 2-.2 2.9-.5 1-.2 2-.6 3.1-.2.1.4.2.8.2 1.3 0 2.9 0 5.9.1 8.8v6.8c0 .4-.1.8-.1 1.2-.3.1-.4.2-.5.2-1.8-.1-3.7-.2-5.5-.4-3.6-.3-7.2-.5-10.8-.5-3.3 0-6.6.1-9.9.1-1.9 0-3.4-.4-5.4-1.3-.3-2.1-.5-4.3-.4-6.6 1.5-.2 3-.5 4.5-.7.1-.4.2-.7.2-1V97.5c-1.2-.7-2.5.2-3.8-.4-.5-.9-.7-2-.7-3 0-1.5.1-2.9.2-4.4.1-.5.5-1 .7-1.6 1.2 0 2.3-.1 3.4-.1 2.3 0 4.6-.1 6.8 0 5.6.1 11.2.1 16.8.3 1.7 0 3.4.2 5.1.8.1.4.2.8.2 1.2.1 3.7.2 7.4.3 11 0 .6 0 1.2-.1 1.8-.1.6-.6 1-1.2 1.1h-.4c-2-.3-3.9-.6-5.9-.7-.1.1-.3-.1-.5-.3M148.3 163.6c.1-1.6.2-2.8.2-4.1 0-2.1.8-4 1.2-6.1 0-.3.2-.5.3-.8.7-1.7 2.1-3 2.8-4.6.3-.7 1.2-1.3 1.9-1.8 1.4-1 2.9-1.8 4.3-2.7 1.1-.7 2.3-1 3.5-1.1 2.7-.2 5.3-.3 7.9.6.6.2 1.1.3 1.7.3 5.2.4 8.6 3.4 11 7.8.8 1.5 1.4 3.1 2.2 4.5 1.8 3.2 1.9 6.6 1.1 10.1-.6 2.6-1.2 5.1-2.6 7.5-.1.3-.2.5-.3.8-.6 2.1-1.8 3.6-3.4 5.1-2 1.9-4.2 3.5-6.7 4.6-3.8 1.6-7.8 1.9-11.9.6-2.3-.7-4.3-1.9-6.1-3.5-.5-.4-1.1-.8-1.5-1.3-.6-.6-1.4-1.2-1.9-1.9-1.8-2.8-3.4-5.7-3.8-9.1.1-1.7.2-3.5.1-4.9m28.9 1c-.1-1.4-.1-2.4-.2-3.4-.2-2.3-1-4.3-2.6-5.9-.6-.6-1.2-1.3-1.8-1.9-.9-.9-1.8-1.8-3.2-1.9-1.7-.1-3.5-.6-5.2.2-.1.1-.3.1-.4.2-1.8 1.4-3.7 2.7-4.4 5.1-.2.7-.5 1.4-.9 2-.7.9-.9 1.8-.9 2.9 0 .6 0 1.2-.1 1.8-.1 1.8.3 3.5 1.2 5.1.8 1.4 1.6 2.6 2.6 3.8 1.1 1.2 2.3 2.3 3.9 2.8 3.7 1.1 6.9.2 9.7-2.5.8-.8 1.3-1.6 1.5-2.6.4-2.3.6-4.1.8-5.7M80.9 88.7c.3 1.8.1 9.9-.2 12.2-2.9.7-5.9 1.7-9.1 1.4-.9-1.7-.3-3.6-.8-5.4H61c-.4 1.7-.3 3.4-.6 5 .9.6 1.8.3 2.7.5.9.2 1.3.5 1.3 1.5 0 1.6-.1 3.2-.5 4.8-1.1.7-2.4.1-3.7.6-.5 1-1 2.2-.9 3.6.1 2.4.1 4.8.2 7.3 1.2.7 2.6.3 3.9.4 1.4.2 2.8.2 4.2.3 1.3.1 2.6.1 3.9.2.8-1.4.1-2.8.7-4.1 1.3-.7 2.8-.4 4.2-.6 1.4-.2 2.7-.5 4-.2.6.7.5 1.3.5 2 0 2.6.1 5.3.1 7.9 0 .5 0 1-.1 1.5-.1 1.1-.6 1.6-1.6 1.7-.5.1-1 0-1.5 0-5.3-.3-10.6-.3-15.9-.1-2.8.1-5.6.3-8.4.6-2 .2-3.9-.1-5.8-.3-.4-1.5-.4-3.5-.1-7.9.7-.2 1.4-.5 2.3-.8.1-.7.1-1.4.1-2.1 0-3.6-.1-7.2-.1-10.8v-5.7c0-1.9.2-3.8.3-5.9-.3-.2-.8-.3-1-.5-.8-.8-1.6-1.5-1.5-2.7 0-1.1-.2-2.2-.3-3.4.5-.1.9-.2 1.3-.3 2.8-.4 5.7-.7 8.5-1.1 2-.3 4.1-.4 6.2-.3 5.2.4 10.4.3 15.7.2.6 0 1.2 0 1.8.1-.2.1-.1.3 0 .4M310.6 143.8c.1 1.2.2 2.2.2 3.1 0 2.9 0 5.9-.1 8.8 0 1.6-.7 2.3-2.2 2.4-1.8.1-3.7.2-5.5.2-.8-1.2-1-2.4-.9-3.8.1-.9 0-1.9 0-3-.6-.1-1.1-.2-1.6-.2-3.6.3-7.2.3-10.8.1-.1 0-.3.1-.5.2-.3 2.6-.3 5.2.4 7.8 1.4.5 2.9 0 4.4.2.7.8.9 1.7.9 2.8 0 .5-.1 1 0 1.5.2 1.4-.7 2.3-1.4 3.3-.2.3-.9.5-1.4.6-.7.1-1.5.1-2.2.1-1 .1-1.4.4-1.4 1.3-.1 2.1-.1 4.2-.2 6.5 1.2.5 2.4.3 3.5.5 1.2.2 2.3-.2 3.5-.3 1.2-.1 2.3-.2 3.5-.4 1.1-.2 2.3-.5 3.5-.8.3-1.4.6-2.8.4-4.2-.1-1-.1-1.9.6-2.8 2.4-.2 4.9.4 7.3.5.7 2 .6 10.4.2 13.4-.6.8-1.5.9-2.4.9h-4.9c-4.3.2-8.7.5-13 .7-.7 0-1.5.1-2.2.1-2.5 0-5 .4-7.4.7-1.4.2-2.8.2-4.1.1-.5-1.6-.6-5.5-.2-7.9.9-.8 2.2 0 3.3-.5 0-.3.1-.7.1-1 .2-5.1-.5-10.1-.6-15.2 0-1.9 0-3.8.2-5.7.1-.9.4-1.7.7-2.8-.1-.3-.5-.5-1.1-.6-.9-.1-1.9-.2-2.9-.3-.4-1.8-.3-3.5-.1-5.4 3.9-.3 7.7-.1 11.5-.3 3.8-.3 7.6-.4 11.4-.6 3.6.1 7.4.1 11.5 0M83.8 95.7c-.5-2.1-.8-4.3-.7-6.4.6-.7 1.2-.6 1.8-.6l12.3-.3h4.4c.6 0 1.1.2 1.7.2.7 1.5.9 3 1 4.5 0 1.5-.6 2.1-2.1 2.4-.5.1-1 .1-1.5.1-1 .1-1.4.6-1.2 1.6.1.5.2 1 .4 1.5 1.5 3 2.7 6.2 3.8 9.4.5 1.6 1.2 3.2 1.8 4.7.1.2.3.4.7.8.3-.7.6-1.2.8-1.7 1.5-3.6 2.9-7.2 4.4-10.8.6-1.5.9-3.1 1.3-4.7-1.3-.6-2.5.1-3.9-.4-.7-2.3-.8-4.7-.6-7.3 3.3-.1 6.5.1 9.8.1 3.2 0 6.3.1 9.5.5.8 1.1.4 2.3.5 3.5.1 1.1.3 2.2 0 3.4-.5.1-.9.1-1.4.1-.6.1-1.2.2-1.7.4-.7.4-1.3.6-2.1.6-.7 0-1.1.3-1.3.9-.6 1.3-1.1 2.6-1.6 3.8-2 4.8-4.1 9.6-5.6 14.6-.4 1.4-.9 2.8-1.2 4.2-.4 1.6-.9 3.2-1.8 4.7-.5.8-.9 1.7-.9 2.7 0 .6-.3 1.1-.5 1.6-1.6.5-5.2.6-8.5.2-.2-.3-.4-.7-.5-1.1-1-3-1.9-6-3-9-.9-2.7-1.9-5.4-3-8-1.3-3-2.3-6-3.2-9.1-.5-1.9-1.4-3.7-2.1-5.6-.2-.6-.6-.8-1.2-.9-.7-.1-1.5-.2-2.2-.2-.8-.1-1.6.1-2.4-.4M254.7 146.8c.4-1.8 0-3.4.6-4.8 1.7-.5 2-.5 5.7.2.8 1.1.1 2.6.8 3.8.7 1.2.4 2.6.7 3.9.3 1.3.5 2.6.8 3.9.3 1.3.6 2.5.9 3.8-2.4.7-4.6 1.4-6.8 2-.6-1.1-1.2-2.2-1.8-3.2-1.5-2.3-3.6-3.6-6.4-3.8-1.1-.1-2.2-.1-3.3 0-1.5 0-2.8.8-4.2 1.3-.5.2-.9.8-1.2 1.2-.8 1.2-1.5 2.3-2.2 3.6-.9 1.5-1.1 3.2-1.2 4.9-.1 2.1-.2 4.1.5 6.1.6 2 1.8 3.5 3.4 4.7.3.2.6.4 1 .5 1.1.3 2.3.6 3.4.7 1 .1 2.1 0 2.7 1.1 2.8-1.4 5.1-3.1 6.7-5.6.4-.6.6-1.5.8-2.3.2-.8.3-1.6.4-2.3 1.7.2 5.5 1.6 7.6 2.8-.1.4-.1 1-.3 1.4-.9 2-1.8 4.1-2.8 6-1.1 2.2-3 3.8-5.1 5.1-.7.5-1.4 1.1-2.1 1.5-.8.5-1.6 1-2.5 1.3-1.9.7-3.9.7-5.9.8h-.4c-3.6-.9-7.3-1.8-10.4-4.1-2.5-1.8-4.1-4.3-5.6-7-1.2-2.2-1.5-4.5-1.7-6.9-.1-2.1-.3-4.1-.1-6.2.2-3.1 1.1-5.9 2.1-8.7.2-.5.6-1 1-1.4 1.9-2.2 3.6-4.4 6.2-5.9.7-.4 1.4-.8 2.2-.8a38.663 38.663 0 0 1 9.6 0c1.8.1 3.4.8 5 1.7.6.1 1.1.4 1.9.7M122.6 149.7v-8.5c1.7-.3 3.4-.3 5-.3l-.3.6c2 .9 4.1.9 6.2 1.1 2.1.2 4.2.3 6.3.4.4 2.4.4 5.3.1 7.2-1.5.5-3.1-.1-4.8.2-.2.5-.5 1.1-.7 1.6-1.6 4.2-3.3 8.3-4.8 12.5-1.3 3.4-2.5 6.9-3.7 10.4-.5 1.5-.9 3-1.3 4.4-.2.8-.6 1.5-.9 2.2-.4 1.1-1.3 1.7-2.5 1.4-1.3-.3-2.5-.2-3.7 0-.8.1-1.3-.3-1.5-1l-1.2-3.3c-.6-1.5-1.2-3-2-4.4-.9-1.5-1.2-3.1-1.9-4.7-1-2.1-1.8-4.3-2.5-6.6-1-2.9-2-5.8-2.9-8.8-.5-1.7-1.6-2.5-3.3-2.7-.9-.1-1.7-.3-2.6-.6-.8-.2-1.5-.5-2.3-.7-.5-1.5-.1-3-.3-4.5-.2-1.4-.2-2.9-.3-4.4.8-.4 1.6-.3 2.4-.3 2.9 0 5.7-.1 8.6 0 2.3.1 4.7.5 7 .9 1.1.2 1.4.6 1.6 1.8.3 2.1.2 4.1-.8 6.1-.6.1-1.2.3-1.8.4-.7 1.8-.1 3.4.6 4.8 1.5 2.7 2.3 5.7 3.3 8.6.2.5.1 1.1.7 1.3.4.2 1.2-.2 1.6-.9.6-.9 1-1.9 1.5-3 1.1-2.6 2.1-5.2 3.5-7.6.2-.4.3-.8.5-1.2.4-1.3.2-1.9-1.2-2.3-.6.2-1.1.1-1.6-.1M226.2 88.4c.4 3.4.4 7.3.1 8.8-.9.6-2 .2-3.1.5 0 .3-.1.6 0 .8 1.4 2.1 2.8 4.1 4.3 6.2 1.2-1.1 1.7-2.7 2.7-3.9 1-1.3 1.9-2.6 2.9-4-1.1-.2-2-.4-2.9-.6-.2-2.7-.3-5.2-.4-7.8.9-.6 1.9-.4 2.8-.5.6-.1 1.2-.1 1.8 0 3.2.2 6.3.4 9.5.7.9.1 1.9.1 2.8.8.3 1.7.2 3.5.2 5.2 0 1-.6 1.8-1.1 2.6-.8.1-1.6.2-2.4.4-2.1.4-3.3 2-4.5 3.5-1.2 1.7-2.3 3.4-3.5 5.1-.2.2-.4.5-.4.8-.7 2-1.6 3.7-2.9 5.4-.3.4-.3 1-.4 1.5-.1.8-.1 1.6-.2 2.4-.1 1.2-.3 2.3-.5 3.5-.2 1.1-.4 2.2-.2 3.3.6.7 1.5.5 2.3.6 1.5.1 2.9.5 4.3 1.1.4 2.3-.2 4.4-.3 6.7-1.4.5-2.9.2-4.4.2h-4.6c-1.5 0-2.9.2-4.4.2-1.5 0-2.9.3-4.5.1-.1-1.2.2-2.3.2-3.3s.1-2 .1-3c.8-.7 1.7-.5 2.6-.6 1.5-.1 2.1-.7 2.2-2.2.1-1.2.2-2.5.2-3.7v-4.6c0-1.3-.3-2.4-1-3.5-2.7-4.3-5.7-8.4-8-12.9-.4-.9-1.2-1.3-2.1-1.4h-3.1c-.3 0-.6-.1-.8-.1-.3-2.2-.1-6.6.3-8.1 1.7-.3 3.6-.1 5.4-.1 1.8 0 3.7-.1 5.5-.1 1.7-.2 3.5-.4 5.5 0M198 142.2c1-.4 2-.5 3-.5 5.6.1 11.3-.4 17 .5.1.6.3 1 .4 1.5.1 1-.4 5.1-.7 6.4-2.2.7-4.8 0-7.1 1.3 0 2-.1 4.1-.1 6.1v6.2c0 2.1-.1 4.1-.2 6.2 0 2-.3 4.1-.2 6.2 2 .2 3.8.4 5.7.5.5 1.8.2 3.6.3 5.3.1.6-.1 1.3-.2 1.9-1.7.5-3.2 0-4.7.1s-3.1.1-4.6.1c-1.5 0-2.9.1-4.4.1-1.5 0-3.1-.1-4.5-.2-.2-.3-.3-.4-.3-.5 0-2.3-.1-4.6-.1-6.8 0-1 .3-1.3 1.3-1.4h2.6c1-1.5 1.4-3 1.4-4.7.1-4.4.5-8.8.6-13.2.1-1.8-.1-3.5-.3-5.3-.1-.8-.5-1.2-1.3-1.2-.9-.1-1.9-.1-2.9-.2-.8 0-1.2-.5-1.4-1.2-.4-2.4-.8-4.8.7-7.2M284.3 66.4c-.2.6-.4 1.1-.4 1.7-.1 1.1-.2 2.2-.1 3.3.1 1.9 1.4 3.1 3.3 3.1 1.5 0 2.7-.6 3.9-1.4 1.1-.7 2.1-1.4 3.2-2.2.3.1.8.3 1.1.5.8.6.9 1 .2 1.8-2 2.1-4.3 3.8-7.3 4-1.5.1-2.9.4-4.4.2-1.2-.2-2.1-.7-2.4-1.9-.8-2.5-1.5-5.1-.8-7.8.1-.6.2-1.1.3-1.7-1.1-.7-2.1-1.4-3.2-2.1.3-.5.6-1 .8-1.5.4.1.7.1 1.1.2 1.5.4 2.5.1 3-1.3 1.1-3.1 3.8-4.5 6.2-6.4.2-.1.4-.2.6-.2 1.2 0 2.4 0 3.5.1 1.3.2 2.2 1.3 2.3 2.6.1 1.6-.1 3.3-1.1 4.6-1 1.2-2.1 2.3-3.2 3.3-.5.5-1.3.7-2 .7-1 0-1.9 0-2.9.1-.8.2-1.2.2-1.7.3M286 63c.6.1.9.1 1.2.2 1.4.6 2.5.1 3.5-1 .9-.9 1.6-1.9 1.8-3.2.1-.4 0-.8 0-1.2-1.1-.6-1.9-.4-2.7.3-1.6 1.3-2.6 3-3.8 4.9M251 66.1c.9.9 1 1.2.7 1.8-.2.3-.4.6-.7.9-1.6 1.7-3.6 2.2-5.8 2.5-1.4.2-2.1-.4-3.1-2.1-.3.3-.6.5-.9.8-1.3 1.5-2.5 3-3.9 4.5-.6.7-1.4 1.3-2.1 1.9-1.5 1.1-3.1 1.6-4.9 1.3-1.1-1.5-1.2-3-.9-4.7.3-2.1.6-4.2.8-6.3.1-.5.1-1 .1-1.5 0-.6.1-1.4-.6-1.8-.9-.4-1.8-.6-2.7 0-.8.5-1.5 1.1-2.4 1.8-.2-.6-.4-1-.6-1.5.4-.3.7-.7 1-.9 1.7-1.3 3.4-2.5 5.2-3.8.8-.6 1.7-.8 2.7-.7.8 0 1.2.5 1.2 1.3 0 .4 0 .9-.1 1.3-.5 2.7-1 5.3-1.5 8-.3 1.4-.5 2.8-.7 4.1 0 .3 0 .6.1.9.3-.1.6 0 .7-.2 2-1.6 4.2-3 5.7-5.1 1.5-2.1 3-4.2 4-6.5.3-.6.5-1.2 1.2-1.5.4-.1.9-.4 1.2 0 .2.2.2.7.2 1-.1.6-.3 1.1-.5 1.7-.4 1.3-.3 2.6 0 3.9.1.6.5.9 1 1 1.4.4 2.6.1 3.8-.7.5-.5 1.1-.9 1.8-1.4M185.1 72.6c2.2-.2 3.8-1.3 5.1-2.8.6-.7 1.2-1.5 1.9-2.2.3.1.6.2.8.3 1.1.8 1.3 1.4.5 2.4-1.1 1.4-2.1 2.8-3.3 4.1-1.2 1.4-2.9 2.2-4.7 2.8-2 .6-3.7-.4-4-2.5-.2-1.4-.3-3-.1-4.4.7-4.3 1.7-8.5 3.6-12.4.1-.3.3-.5.4-.7.7-.3 1.5-.5 2.2-.2.6.3 1.1.7 1.8 1.1-.1.4-.1.8-.3 1.2-.6 1.4-1.3 2.8-1.9 4.2-.6 1.3-1.3 2.5-1.8 3.8-.8 1.6-1.1 3.4-.2 5.3M192.3 44.4c1.5 0 2.3 1.2 1.6 2.5-.5.8-1 1.6-1.6 2.3-.5.6-1 1.1-1.9.8-.9-.3-1.6-1.2-1.6-2.2 0-2 1.6-3.4 3.5-3.4"/><path d="M69 155.4c.7 1.7.7 3.1.2 4.6-.8 2.6-2.2 5-3.8 7.2-.8 1-1.8 1.7-3.3 1.4h-.7c-2.6-.1-4-1.3-4.5-3.9-.3-1.9 0-3.7.8-5.4.2-.3.4-.6.7-.8 1.1-1 2.3-2 3.5-3.1 1.3-1.2 2.7-1.6 4.4-.9.9.3 1.8.5 2.7.9M146.4 42.6c-1.5-.7-3-.8-4.6-1.1-2.1-.4-4 .1-5.8 1.3-.5.4-1.1.7-1.7.9-2 1.7-3.6 3.9-5.1 5.6-.9 1.1-1.7 2.3-2.5 3.4-.1.1-.1.3-.2.4-.4.5-.7 1.1-1.1 1.6-.1.2-.1.5-.2.7-.6 1.2-1.4 2.4-1.9 3.7-.8 1.7-1.3 3.4-1.8 5.2-.5 2.5-.7 4.9-.6 7.4 0 1.6.5 3.2 1.8 4.1 1 .7 2.3 1.1 3.6 1.2 3.8.4 7.6.2 10.9-2.3.2-.2.5-.2.8-.3.1 3 .3 5.8.4 8.8 1.1-.6 2.1-1.1 3-1.6.2-.1.4-.5.4-.8 0-1.7-.1-3.4 0-5 .1-2.3.2-4.6.4-6.9.1-.7.6-1.4.5-2-.2-.9.4-1.5.4-2.3.1-.7.3-1.3.8-1.8v-.3c-.8 0-1.7-.1-2.5-.1-.2 0-.5.3-.6.5-1 1.7-2.1 3.4-3.1 5.1-.2.3-.2.9-.4.9-.8.1-.8.8-1.2 1.3-.6.8-1.2 1.7-2 2.1-2.5 1.2-5 2-7.8.4-1.1-.6-1.6-1.3-1.5-2.4.1-1.4.2-2.9.6-4.2.4-1.6 1.2-3.1 1.1-4.9 0-.2 0-.4.1-.6.6-1.3 1.3-2.6 1.9-3.9.1-.3 0-.7.1-1 .3-.4.6-.8 1-1.1.8-1.2 1.8-2.1 2.8-3 .1-.3.3-.6.6-.8h-.1c1.1-.9 2.1-1.6 2.9-2.4 1-.9 1.8-2 3-2.7 1.6-.9 3.4-1 5.1-1.1.3 0 .8.4.8.7.1.8.4 1.7-.3 2.5-.2.2-.5.6-.4.8.3.8-.4 1-.8 1.2-.9.5-1.9.9-2.9 1.3-.3.1-.6.2-.8.2-.5.4-.9.7-1.4 1.1-.8.9-1 1.9-.7 2.9h1.4c2 0 4-.3 5.7-1.6.4-.3.7-.8 1-1.1.2-.3.6-.5.8-.8 1.5-1.6 2.2-3.4 2.2-5.6.1-2-.2-2.6-2.1-3.6"/></svg>