<svg xmlns="http://www.w3.org/2000/svg" viewBox="0 0 245.58 156.77"><g id="Layer_2" data-name="Layer 2"><g id="Layer_1-2" data-name="Layer 1"><path d="M.08,43.84a6.09,6.09,0,0,1,.2-2.7,32.6,32.6,0,0,1,5.4-12.7c1-1.4,2-2.9,3.1-4.3s2.3-2.9,3.5-4.2a13.86,13.86,0,0,1,4.6-3.3,79.23,79.23,0,0,1,7.5-3.1c2.4-.8,4.9-1.6,7.4-2.3a11.94,11.94,0,0,1,3.3-.4c4-.1,8.1-.1,12.1,0a54.13,54.13,0,0,1,12,1.6c2.9.7,5.2,2.2,7.7,3.8a20.28,20.28,0,0,1,1.8,1.3,5.62,5.62,0,0,1,1.5,1.6,20.13,20.13,0,0,0,3.4,4.3,37.94,37.94,0,0,1,4.6,6.7c.5.9,1.1,1.7,1.6,2.6a14.17,14.17,0,0,1,.8,1.8c.2.6.3,1.3.5,1.9.6,0,.7-.3.8-.7a43.45,43.45,0,0,1,2.6-5.3c1.6-3.2,3.8-5.9,5.8-8.8a52.86,52.86,0,0,1,4.7-5.9,19.4,19.4,0,0,1,5.8-4,10.2,10.2,0,0,0,4.4-3.8c.5-.8,1-1.5,1.4-2.3a16.12,16.12,0,0,1,4.3-4.7,5.23,5.23,0,0,1,4-.9,2.57,2.57,0,0,1,1.2.5c.6.5,1.1,1.1,1.7,1.7a2.13,2.13,0,0,1,.6,2,2.29,2.29,0,0,0,.2,1.8c.3,0,.6.1,1,.1a75.73,75.73,0,0,1,9.5.6c1.2.2,2.5-.1,3.7.3a4.14,4.14,0,0,0,1.5-.2l2.6-.6a5.33,5.33,0,0,1,3.9.4c.9.5,2,.3,2.8,1.1,1.1.9,2.1,1.8,2.1,3.4a2,2,0,0,0,1.2,1.7c.9.5,1.7,1.1,2.6,1.6a19.78,19.78,0,0,1,5.8,5,32.31,32.31,0,0,1,5,10.2c.3,1.1.4,2.2.6,3.2a19.37,19.37,0,0,0,.6,2.2c.9-2,1.7-3.6,2.5-5.3,1.5-3.1,2.8-6.3,5.1-9,.3-.4.5-.9.8-1.3a7.46,7.46,0,0,1,1.4-1.7,82.9,82.9,0,0,1,7.1-6.2,24.42,24.42,0,0,1,11-4.9,13.55,13.55,0,0,1,2-.2c1.9-.1,3.8-.1,5.7-.2,3.7-.1,7.4-.3,11-.2a33.08,33.08,0,0,1,10.8,1.8,27.73,27.73,0,0,1,7.5,4.2,12.66,12.66,0,0,1,2.5,2.1,12.56,12.56,0,0,0,2.4,2.2c.8.4.8,1.3,1.4,1.9a22.7,22.7,0,0,1,2.6,3.5,29.5,29.5,0,0,1,5.3,17c0,1.2.4,2.3-.1,3.6a11.08,11.08,0,0,1-1.9.2l-13.9.9c-1.4.1-2.8,0-4.2,0q-15.45-.6-30.9.3a50.48,50.48,0,0,1-10.3-.4c-1.7-.2-3.4-.2-5.1-.3-4.4-.1-8.8-.1-13.2-.2-6.5-.2-13.1,0-19.6.1-4.6.1-9.1.4-13.7.6-5.9.3-11.7.8-17.6,1.1a5.58,5.58,0,0,1-2.2-.3,28.54,28.54,0,0,0-7.2-1.2c-5.4-.4-10.9-.2-16.3-.1-3.5.1-7.1.1-10.6.5a39,39,0,0,0-7.6,1.3,11.6,11.6,0,0,1-3.7.3c-5.4.1-10.7,0-16.1.2s-11-.3-16.5-.6c-8.2-.4-16.3-.7-24.5-.7h-4a5.07,5.07,0,0,0-1.3-.2m103.3-17c.1.7.2,1.3.3,2,.2,1.7.5,3.5.6,5.2a7.85,7.85,0,0,0,1.6,3.6,2.1,2.1,0,0,0,1.1.7c1.3.3,2.6.6,3.9.8a3.5,3.5,0,0,0,3.2-1,33.57,33.57,0,0,1,2.9-2.4,7.12,7.12,0,0,0,2.8-3.6,5.07,5.07,0,0,0,.2-1.3,5.35,5.35,0,0,0-1.6-.4c-1.1-.2-1.4-.1-1.9,1a8.19,8.19,0,0,1-2.6,3.2,2.18,2.18,0,0,1-3,.1,9.52,9.52,0,0,1-1.9-2.1,11.41,11.41,0,0,1-.9-8.3,2.39,2.39,0,0,1,2.4-2,3.33,3.33,0,0,1,.6,1,7.89,7.89,0,0,0,3.6,3.4,27.79,27.79,0,0,0,7.5,2.6,5,5,0,0,0,3.4.1,2.52,2.52,0,0,1,1.5-.1,12.43,12.43,0,0,0,6-1.2c1.3-.6,2.7-1.2,4-1.9a13.44,13.44,0,0,0,1.4-1.1,32.34,32.34,0,0,0,3.8-4.5,7.37,7.37,0,0,0,1.7-5.3l-.6-3.9a2.07,2.07,0,0,0-1-1.4c-.4-.2-.7-.5-1.1-.7a3.67,3.67,0,0,0-3.9-.2c-2.8,1.5-5.2,3.3-6.5,6.5-1.1,2.8-2.4,5.5-2.4,8.6a1.69,1.69,0,0,1-.2.5,9.66,9.66,0,0,1-4.8.5,6.35,6.35,0,0,1-1.8-3.3A2.72,2.72,0,0,0,120,20a8.16,8.16,0,0,0-5.1-.8,6.55,6.55,0,0,1-1.4,0,4.62,4.62,0,0,1,.7-2.6,20.88,20.88,0,0,0,1.7-4.1,52.35,52.35,0,0,0,1.2-6.7,6.89,6.89,0,0,0-.1-2c-.1-.8-.5-1.1-1.3-1.3a3.32,3.32,0,0,0-3.9,1.3c-.6.9-1.1,1.7-1.7,2.5a28.86,28.86,0,0,0-4.2,7.7,30.27,30.27,0,0,0-1.9,5.8,2.92,2.92,0,0,1-2.1,2.3c-.9.4-1.9.7-2.9,1.1a10.49,10.49,0,0,1-4.2,1.1c-.2,0-.6-.1-.6.5,2.7,1.8,5.9,2.2,9.2,2m26.7,5.5a13.7,13.7,0,0,0,2,2.1c2,1.7,4.2,2.6,6.9,1.6,1.2-.4,2.4-.6,3.6-.9a6.53,6.53,0,0,0,3.9-2.3,13.11,13.11,0,0,0,3.4-8.4,2.35,2.35,0,0,0-.2-.8c-.8.2-1,.8-1.2,1.3a10.76,10.76,0,0,1-2.6,3.8,11.93,11.93,0,0,1-4.6,2.9,5.83,5.83,0,0,1-5.4-.8,7.05,7.05,0,0,0-.9-.7c-.3-.1-.7-.3-1-.2a11.12,11.12,0,0,0-3.9,2.4m33.4,86a3.9,3.9,0,0,1,2.3-.4c11.1.1,22.2.2,33.3.2,10.7,0,21.5-.1,32.2-.2,2.2,0,4.4,0,6.6-.1.3,0,.6.1,1,.1.1.3.4.6.4,1-.1,1.5-.2,3.1-.4,4.6a40,40,0,0,1-.8,4.8c-.4,1.7-1.1,3.3-1.6,5-1.7,2.3-3,4.9-4.9,7-.9,1-1.6,2.1-2.5,3.1a37.86,37.86,0,0,1-5.8,4.6c-.9.5-1.6,1.3-2.5,1.8A27.93,27.93,0,0,1,204,155c-3.7,0-7.5-.3-11.2-.6a39.67,39.67,0,0,1-4.8-.7,19.9,19.9,0,0,1-11.4-7.4,48.82,48.82,0,0,1-5.6-8.6c-.7-1.4-1.6-2.6-2.4-3.9a17.91,17.91,0,0,1-1.2-2.4,68.55,68.55,0,0,1-3.6-11.1c-.1-.6-.2-1.3-.3-2M4,115.14c.4,0,.8-.1,1.1-.1,5.1-.3,10.1-.5,15.2-.8,4.6-.2,9.1-.4,13.7-.5,1.2,0,2.4,0,3-1.3,2.7-2.1,5.6-3.8,9.3-3.1a4.71,4.71,0,0,1,3.4,2.2,20.13,20.13,0,0,1,1.4,2.5,13.68,13.68,0,0,0,5.3.5c3.3-.3,6.6-.6,9.9-1a19.42,19.42,0,0,1,2.4-.2c4.8,0,9.6-.1,14.3-.1.4,0,.7.1,1.2.1a8,8,0,0,1,.3,1.5c0,2.3-.1,4.6-.3,6.8a9.08,9.08,0,0,1-2.3,5.4c-1,1.2-2,2.3-3,3.5a70.23,70.23,0,0,1-11,10.8c-.5.4-1,.9-1.5,1.3a19.76,19.76,0,0,1-4.6,3.2c1.4,1.7,3.4,2.1,5,3.2,0,1.8-.1,2-1.5,2.5a11.89,11.89,0,0,1-5.6.7c-1.5-.2-2.9-.2-4.4-.5a27.79,27.79,0,0,1-3.8-1.2,2.57,2.57,0,0,0-2.1-.1c-4.1,1.5-8.3,1.5-12.6,1.4a23.35,23.35,0,0,1-7.9-1.8c-2.3-.9-4.7-1.8-7-2.7a16.6,16.6,0,0,1-5.8-4.3c-1.5-1.6-3-3.2-4.3-4.9a33.31,33.31,0,0,1-5.3-8.9l-1.8-4.5a19.22,19.22,0,0,1-1.1-8.9c.2-.1.3-.4.4-.7m45.6-1.7c-.5-.3-.9-.6-1.2-.8-1.6-1.3-3.5-1-5.3-.8a3.15,3.15,0,0,0-1.5.8c-1.8,2.2-3.4,4.5-3.3,7.5a2.42,2.42,0,0,1-1.4,2.5,25.61,25.61,0,0,0-5.8,5.1,13.74,13.74,0,0,0-3.1,10.1,7.83,7.83,0,0,0,.7,2.5c.4,1,1.4,1.5,1.9,2.3a3.35,3.35,0,0,0,3,1.4,8.51,8.51,0,0,0,3.5-.5,56.82,56.82,0,0,0,5.5-2.8c1.3-.7,1.2-1.6.5-2.5a3,3,0,0,0-.8-.8c-.6-.5-1.1-.4-1.8,0a19.4,19.4,0,0,1-2.4,1.5,2.65,2.65,0,0,1-3.8-2.9,9.61,9.61,0,0,1,2.5-5.5c.9-.9,1.8-1.8,2.6-2.7a29.62,29.62,0,0,1,6.4-5.3,8.17,8.17,0,0,0,3.3-4,8.81,8.81,0,0,0,.5-5.1m14.7,36.4c-.8-.4-1.3-.7-1.8-.9-.7-.4-1.5-.7-2.2-1.1a55.8,55.8,0,0,1-8.2-6.3c-1.3-1.3-2.5-2.6-2.8-4.6a3.25,3.25,0,0,1,.4-2.2,27,27,0,0,0,2.6-6.3,5.7,5.7,0,0,0,.1-1.3A3.74,3.74,0,0,0,52,126c-.7.8-1.2,1.4-1.8,2-.9.9-1.8,1.8-2.7,2.6a3.47,3.47,0,0,1-2.2,1,14,14,0,0,1-1.4-3.9.89.89,0,0,0-1.6-.5,8.33,8.33,0,0,0-2,2.2c.2.6.3,1.2.5,1.8a18,18,0,0,0,2.9,6.1c1.2,1.5,2.3,3.1,3.5,4.6a18.4,18.4,0,0,0,8.6,6.2c.9.3,1.8.7,2.7,1.1a9.81,9.81,0,0,0,4.5.9,4.51,4.51,0,0,0,1.3-.3m156.9-46.4c-2.5.3-4.8.6-7.1.9-1-3.3-1.8-6.5-2.8-9.6s-1.9-6.1-3-9.6a15.08,15.08,0,0,0-.6,3.1,67.74,67.74,0,0,1-1.5,10.2c-.4,1.9-.5,3.9-.8,5.9a3.94,3.94,0,0,1-.6,2.1c-1.9.4-4.1-.2-6,.7-.1-.2-.3-.4-.3-.6-.4-3.4-.6-6.9-.7-10.3a114.35,114.35,0,0,1,.4-11.7c.1-1.5,0-3.1,0-4.6-.1-4.6-.4-9.1-.3-13.7,0-3.8.3-7.6.5-11.5,0-.4.2-.7.2-1.1l7.7-1.5a8.79,8.79,0,0,1,.6,1,20.16,20.16,0,0,1,.7,2.3c.8,4.3,1.6,8.7,2.3,13,.2,1,.4,2,.7,3,.2.8.6,1.5.8,2.2.6,0,.5-.3.5-.6,0-1.2-.1-2.5-.1-3.7.1-2.5.2-5,.4-7.5a5.65,5.65,0,0,0-.2-2.6,11.33,11.33,0,0,1-.6-4.1,35.53,35.53,0,0,1,.3-4.6c.1-1.1.5-1.4,1.6-1.4s2.5.1,3.8,0c1,0,1.3,1,2.2,1.3.5.2.5.8.5,1.4,0,1,.1,1.9.1,2.9a51.81,51.81,0,0,0,.3,8.8,81.25,81.25,0,0,1,.7,11c0,6.8.2,13.5.5,20.3.1,2.4.1,4.7.1,7.1a4.94,4.94,0,0,1-.3,1.5m-84.4,11.4c2.2-.4,4.1-.8,5.9-1.2a9.15,9.15,0,0,1,3.3,0c.6,0,.9.5,1.2.9.7,1.1,1.3,2.1,1.9,3.2a12.92,12.92,0,0,0,1.9,2.9c-.1-3.8-.5-7.2.3-10.8.5,0,.9-.1,1.4-.1,2.3.2,4.7.5,7,.7a2.77,2.77,0,0,1,.9.1c.6.2,1.1.5,1.1,1.2a29.84,29.84,0,0,1,.4,4.2c.2,5.1.4,10.1.6,15.2.2,4.3.3,8.5.4,12.8a6.34,6.34,0,0,0,.3,2.4,5.85,5.85,0,0,1-.1,4.5,33,33,0,0,1-6.7,2.3c-.2-.3-.5-.7-.7-1-.9-1.8-1.8-3.5-2.7-5.3a51.35,51.35,0,0,0-5-7.2c-.2-.2-.5-.3-.7-.5a3,3,0,0,0-1.3,2.9c.1,2.4,0,4.9,0,7.3,0,1.2-.1,2.4-.2,3.5a2.52,2.52,0,0,0,.3,1.9,1.13,1.13,0,0,1-.6,1.6,3.59,3.59,0,0,1-1.1.2c-3.2-.2-6.3-.4-9.5-.7-1-.1-1.2-.4-1.1-1.4.1-1.4.1-2.8.2-4.2a8.46,8.46,0,0,1,.9-4.1c1.9-3.6,2.2-7.6,2.2-11.6l-.3-10.8c-.1-2.1-.2-4.3-.2-6.4v-2.5"/><path d="M107.68,122.14c1.5-.1,2.9-.2,4.4-.4.6-2.5-.1-5.1,1.2-7.5a14.27,14.27,0,0,1,6.5,0,3.44,3.44,0,0,1,.9,2.7c-.1,2.1-.2,4.1-.3,6.2-.2,3.9-.4,7.8-.5,11.7a7,7,0,0,0,.9,4,.72.72,0,0,0,1.1.2,2.15,2.15,0,0,0,.9-1.2,27.59,27.59,0,0,0,.8-2.7c.3-1.1.4-2.3.8-3.4a28.4,28.4,0,0,0,1-6.5,81.08,81.08,0,0,0-.6-12.1,13.68,13.68,0,0,1-.1-3.5,31.65,31.65,0,0,1,8.7.1,1.42,1.42,0,0,1,.6.2c.9.3,1.2.6,1.2,1.6,0,1.5.1,3.1.1,4.6-.1,4.9-.1,9.7.2,14.5a26.8,26.8,0,0,1-.5,6.3,60.53,60.53,0,0,1-2.6,9.5,22.89,22.89,0,0,1-2.9,5.6,11,11,0,0,1-15.8,2.4c-1.4-1-2.6-2.1-3.9-3.2a1.8,1.8,0,0,1-.6-.9,13.7,13.7,0,0,1-2.2-6.8c-.2-4.4.1-8.8.3-13.2a45,45,0,0,0,.3-6.4,5.74,5.74,0,0,1,.1-1.8m49.8-41c0,1.2-.1,2.5,0,3.7a47,47,0,0,1,0,7.5,29.14,29.14,0,0,0,.1,6.6,20.82,20.82,0,0,1,.2,6.1,44.44,44.44,0,0,1-8.3.6,5,5,0,0,1-.2-1.2c.1-4.1.1-8.2.3-12.3.4-8.7.5-17.5.5-26.3a103.6,103.6,0,0,0-.7-11.2,23.7,23.7,0,0,1,.1-6.5l1.2-.3a23.36,23.36,0,0,0,2.6-.4,22.64,22.64,0,0,1,8.6.2,7.24,7.24,0,0,1,5.9,5.8,50.63,50.63,0,0,1,1,6.8c.1,2,0,4.1,0,6.2a10.3,10.3,0,0,1-1.6,5.9c-.8,1.3-1.5,2.7-2.2,4.1-.4.7-.4,1.1.2,1.6a8.78,8.78,0,0,1,2.9,5.8,126.82,126.82,0,0,1,1.7,15.1,54.21,54.21,0,0,1-.1,5.7c0,.4-.1.9-.1,1.3a24.64,24.64,0,0,1-6.7-.5c0-.5-.1-.9-.1-1.4a62.81,62.81,0,0,0-.3-13,13.16,13.16,0,0,0-1.1-4c-.8-1.9-1.9-3.7-2.8-5.5-.2-.7-.6-.7-1.1-.4m0-10.5c3.2-1.9,4.7-4.5,4.6-7.9-.9-2.8-1.3-5.2-3.8-6-.4,4.5-1.7,9-.8,13.9m-119.6,6.3,1.3,1.3c.8.8,1.5,1.6,2.3,2.4a8,8,0,0,1,2,4.6,61.85,61.85,0,0,1,.1,13.6,14.91,14.91,0,0,1-.4,1.8c-1.9.1-3.8.1-5.6.2a3.41,3.41,0,0,1-.3-2.2,34.52,34.52,0,0,0-.5-6.4,16,16,0,0,0-4.2-7.9,2.18,2.18,0,0,0-.9-.7c-.2-.2-.5-.2-.7-.3a2,2,0,0,0-1.3,2.1c0,2.6.1,5.3,0,7.9-.1,3.1-.3,6.2-.5,9.2a7.89,7.89,0,0,1-.3,1.3,30.12,30.12,0,0,1-6,.2,4.51,4.51,0,0,1-.3-1.1c-.2-5-.6-10-.7-15s0-9.8,0-14.8c0-4.8-.1-9.6-.2-14.3,0-1.4-.3-2.8-.4-4.2a6.61,6.61,0,0,1,0-2.8c.2-.1.3-.3.4-.3a67.06,67.06,0,0,1,11-.8,12.14,12.14,0,0,1,5,1.5,8.79,8.79,0,0,1,4.9,5.1,8.45,8.45,0,0,1,.5,1.7,45.12,45.12,0,0,1-.5,11,7.93,7.93,0,0,1-2.4,4.6c-.8.8-1.5,1.4-2.3,2.3m-9.5-18.3c0,2.4.5,4.6.7,6.8a57.21,57.21,0,0,0,.7,7,7.88,7.88,0,0,0,5.3-4.4,9.17,9.17,0,0,0-.6-8.8,3.31,3.31,0,0,0-3-1.6c-.3,0-.9.1-1,.3-.4.8-1.2.4-2.1.7m19.3-6.4c.3-.2.3-.3.4-.3,3.1-.2,6.2-.5,9.2-.5a13.86,13.86,0,0,1,8.5,3.1,3.59,3.59,0,0,1,1.3,2.4c.6,3.7.3,7.5.3,11.2a9.38,9.38,0,0,1-1.7,5,13.93,13.93,0,0,0-2.2,3.7c0,.2-.4.2-.6.4a15.77,15.77,0,0,0,1,1.6c.6.8,1.2,1.5,1.8,2.2a9,9,0,0,1,2.3,5.6,41,41,0,0,1-.5,12.1,6.47,6.47,0,0,1-.4,1.3,3.51,3.51,0,0,1-.5.8c-1.8-.1-3.5-.3-5.4-.4V99c.1-2.3.2-4.6.2-6.8a13.57,13.57,0,0,0-1.4-5.5c-.8-1.9-2.3-3.1-3.9-4.6,0,.5-.1.9-.1,1.4a3,3,0,0,1-.8-.4,1.44,1.44,0,0,1-.3.2,16.08,16.08,0,0,0,.1,3.1,29.17,29.17,0,0,1,.2,6.6c-.1,2.9-.3,5.9-.5,8.8a18.81,18.81,0,0,1-.5,3.3,33.92,33.92,0,0,1-6.4-.3,6,6,0,0,1-.2-1.2c0-3.1.1-6.2.1-9.3,0-3.5-.2-6.9-.3-10.4,0-1-.1-2.1-.1-3.1-.3-5.7-.5-11.5-.5-17.2a13.06,13.06,0,0,1,.5-3.9,10.32,10.32,0,0,0,.4-3v-4.5M57.28,73c2.4-1.4,3.9-3.2,3.7-5.9a16.5,16.5,0,0,0-.9-4.3,2.41,2.41,0,0,0-1.2-1.4,5.86,5.86,0,0,0-3.2-.5c-.2,1.2-.4,8.7-.3,10.4.4.1.8.1,1.2.2.2.4.4.8.7,1.5"/><path d="M98.58,136.84a18,18,0,0,0-.2,2.2l.3,9a16.15,16.15,0,0,0,.2,3.1,2.89,2.89,0,0,1-2.5,3.1,5.44,5.44,0,0,1-1.8,0c-2.3-.4-4.6-.8-7-1.2a4.56,4.56,0,0,1-2.1-.8,13.59,13.59,0,0,1,0-4.5c0-4.8.2-9.6.3-14.3.1-3.8.2-7.5.3-11.2.1-3.4.2-6.8.4-10.1a19.67,19.67,0,0,1,.3-2.4,6.15,6.15,0,0,1,1.1-.3c4.3-.3,8.5-.6,12.8-.7,2.5-.1,5,.1,7.5.2a7.72,7.72,0,0,1,1.5.2.88.88,0,0,1,.8.9v.2c0,2.7.1,5.4.1,8.2,0,.9-.1,1.9-.2,2.9-.5,0-.9.1-1.3.1-1.3.1-2.6.1-4,.2a3.78,3.78,0,0,1-2.3-.4c-1.5-.8-2.9.2-3.2,1.9a23.08,23.08,0,0,0-.3,3.7c1.2.8,2.6.2,3.7.6a5.39,5.39,0,0,1,.5,2.8,43.49,43.49,0,0,0-.2,5.1c0,.5-.2,1-.2,1.5-1.4.1-2.8-.4-4.5,0m92.2-55c-2.3.2-4.5-.3-6.8.2,0,.4-.1.8-.1,1.3-.1,2.1-.2,4.3-.3,6.4a11.28,11.28,0,0,0,.5,4c.4,0,.7.2,1,.1a6.17,6.17,0,0,1,3.3-.1c1.4.2,2.8.2,4.3.3a4.4,4.4,0,0,1,.2,1c-.1,2.9-.2,5.9-.3,8.8,0,1-.1,2-.2,3.1a4.14,4.14,0,0,1-2.7-.1,27.25,27.25,0,0,0-6.4-.6,18.29,18.29,0,0,0-3.3.2,5,5,0,0,1-3.6-.5,3.39,3.39,0,0,0-.8-.3c-.1-1-.3-2.1-.4-3.1-.1-2.4,0-4.7,0-7.1s.2-4.7.1-7c-.1-3.8.5-7.6.6-11.4.1-3.1.3-6.2.3-9.3,0-3.5-.2-7.1-.4-10.6-.1-2.1-.5-4.2-.7-6.3,0-.4-.1-.8-.1-1.4a13.9,13.9,0,0,1,5.7-.4,71.22,71.22,0,0,0,9.2.7,10.08,10.08,0,0,1,3.8.4c.5,1.8-.2,3.5-.2,5.2a35,35,0,0,1-.6,4.8,4.06,4.06,0,0,1-2.9.7,19.67,19.67,0,0,1-2.4-.3c-.9-.1-1.7-.1-2.5-.2a.91.91,0,0,0-.3.5c-.1,3.4-.2,6.7-.4,10,.5.6,1.2.4,1.7.4a18.5,18.5,0,0,1,4.1.2,61.89,61.89,0,0,1,.6,10.4m-98.9,12.7c0,2.4.1,4.9.1,7.4a2,2,0,0,1-.1.7c-.1.8-.5,1.1-1.4,1-.7,0-1.3-.1-2-.1a91.51,91.51,0,0,0-11.7-.4,16.23,16.23,0,0,1-2.1-.1,5.28,5.28,0,0,1-.1-1.2c-.1-7.7-.5-15.3-1.1-22.9-.4-5.5-.3-11-.2-16.5a31.55,31.55,0,0,0-.5-8.1,5.8,5.8,0,0,1,1-4.9,50,50,0,0,1,5.5-.1c2.2,0,4.4,0,6.6-.1a8,8,0,0,0,2.1-.5,5.11,5.11,0,0,1,2.7-.4c.1.2.2.3.2.4.1,3,.2,6,.2,9.1-2.7.4-5.4-.2-8,.6v1.7a11.22,11.22,0,0,0-1.3.5c.1,2-.7,4-.1,6.2,1.5-.1,2.9-.3,4.4-.3a18.5,18.5,0,0,1,4.1.2,2.41,2.41,0,0,1,.4,1.8,41.7,41.7,0,0,0,0,7.9c.1,1.3-.3,1.7-1.6,1.8-1.5.1-3.1.2-4.6.2-.8,0-1.6-.1-2.5-.1,0,.5-.1.9-.1,1.3.3,3.6.6,7.2,1,10.8.1,1.6.4,1.9,2,2.1l2.9.3a6.35,6.35,0,0,1,4.2,1.7m21.1,9.6c-3.4.5-6.8.2-10.4.2a8.87,8.87,0,0,1-.2-1.5c-.3-5.1-.4-10.1-.8-15.2-.4-5.6-.8-11.2-1.4-16.7a50.4,50.4,0,0,0-2.1-10.1c-.3-.9-.6-1.8-1-2.7-1-2.1-.8-4.3-.7-6.6,2.2-.4,4.3-.9,6.5-1.3a14,14,0,0,1,1.5,3A36.73,36.73,0,0,1,107,65a8.51,8.51,0,0,0,.4,2.2,53.16,53.16,0,0,1,1.8,7.9c0,.3.3.6.5,1.3.4-2.2.6-4,1.1-5.8,1.1-4.4,1-8.9,1.2-13.4,0-1.5-.2-2.9-.3-4.4v-2.3h1.2c1.2.1,2.3.5,3.5.1a3,3,0,0,1,1.3.2c.9.2,1.9.4,2.9.6a6.15,6.15,0,0,1,.1,1.4,27,27,0,0,1-.7,4.1,122.31,122.31,0,0,0-3.5,16.8c-1,5.9-1.8,11.8-2.5,17.7-.4,3-.3,6-.4,9a11.48,11.48,0,0,1-.6,3.7m13.1-1a3.41,3.41,0,0,1-.7-2.4c.1-4.9.3-9.8.7-14.8s.6-9.8.8-14.8c.1-2.1,0-4.3,0-6.4a73.65,73.65,0,0,0-1.2-13.2,1.8,1.8,0,0,1,.1-1,16,16,0,0,1,2.1-.5,14.6,14.6,0,0,1,2.2-.3c3-.2,6-.3,9-.4,1.2-.1,2.5-.1,3.7-.2h2.9c.6,1.3.2,2.7.1,3.9s-.3,2.5-.4,3.6a3.66,3.66,0,0,1-2.6.8c-1.3,0-2.6-.1-4-.1-1,0-2-.2-2.9.6-.4.3-1.3.1-2,.2,0,.5-.1.9-.1,1.3,0,2.6.1,5.3.1,7.9a4.1,4.1,0,0,0,.1,1.1c.2,1.4.6,1.7,2.1,1.6l4.3-.3a7.89,7.89,0,0,1,.3,1.3c.1,2.3.2,4.7.3,7-1.7,2.2-4.3,2-6.7,2.5,0,.5-.1.9-.1,1.3v6.4c.1,1.5.3,3.1.4,4.6a1.28,1.28,0,0,0,1.1,1.2,20.35,20.35,0,0,0,5.5.3h2.4c1.1.1,1.4.4,1.3,1.3,0,2.6-.1,5.3-.1,7.9a1.42,1.42,0,0,1-.2.6c-2.7.6-15.6-.3-18.5-1m114.2,1.3a38.36,38.36,0,0,1-7.6.4,6,6,0,0,1-.2-1.2l.3-13.9v-7.1a118.69,118.69,0,0,0-1.1-15.8c-.3-2.2.2-2.8-3.2-3.3a6.21,6.21,0,0,1-2.9-1.5c-.1-3.6.8-7.3.2-11a5.27,5.27,0,0,1,1.2-.3c2.1,0,4.3.1,6.4.1h1.8c3.1-.4,6.2.1,9.2.1a2.54,2.54,0,0,1,.7.2,2.35,2.35,0,0,1,.2.8c.1,2.6.2,5.1.3,7.7a4,4,0,0,1-.4,2.1,3.53,3.53,0,0,1-2.8,1.8c-.7.1-1.5.1-2.2.2-.6.7-.3,1.6-.2,2.3a167.59,167.59,0,0,1,1.2,17.4c0,4.6-.1,9.1-.1,13.7a50.85,50.85,0,0,1-.4,5.5,5.84,5.84,0,0,1-.4,1.8m-225.4-.3c-3.7-.1-7.2.2-10.8.3,0-1.7.1-3.3.1-4.8.1-3.5.2-7,.3-10.6.1-6.9.1-13.8.2-20.7v-.9a44,44,0,0,1,.4-8.1,41.23,41.23,0,0,0,.2-8.6,3.75,3.75,0,0,1,.1-1l10.3,1c0,5.5.1,11,0,16.5,0,2.4-.2,4.8-.3,7.3-.1,2.3-.2,4.7-.2,7,0,3.5-.1,6.9.2,10.4a45.58,45.58,0,0,1-.1,6.4c-.1.4-.3.7-.4,1.2m120.7,57.14v.1h-.2v-.2c.1.1.1.1.2.1m.3-136a11.31,11.31,0,0,1,.4-1.5c.5-1.1,1.2-2.2,1.7-3.3a3.51,3.51,0,0,1,1.9-1.7.94.94,0,0,1,1.2.2,1.09,1.09,0,0,1,.4,1.2c-.1.3-.2.5-.3.8-.4.9-.8,1.9-1.2,2.8a7.33,7.33,0,0,1-2.2,3c-.9.7-1.7.4-1.9-.8v-.7m-18.4,2.8a9.76,9.76,0,0,1-1.7-.7.73.73,0,0,1-.3-1.1,1,1,0,0,1,1.3-.4c.7.3,1,1,.7,2.2m-73.9,95.4a1.42,1.42,0,0,1-.8-1.4,13.73,13.73,0,0,1,.5-2.8,1.22,1.22,0,0,1,1.3-1,6.28,6.28,0,0,1,1.9.3,1.38,1.38,0,0,1,.7,2.1,6.73,6.73,0,0,1-3.6,2.8"/></g></g></svg>