<?xml version="1.0" encoding="utf-8"?>
<!-- Generator: Adobe Illustrator 22.0.1, SVG Export Plug-In . SVG Version: 6.00 Build 0)  -->
<svg version="1.1" id="Layer_1" xmlns="http://www.w3.org/2000/svg" xmlns:xlink="http://www.w3.org/1999/xlink" x="0px" y="0px"
	 viewBox="0 0 396 245" style="enable-background:new 0 0 396 245;" xml:space="preserve">
<path d="M272.3,33.2c-1.7,0.1-3.4,0.3-5.1,0.1c0-0.2-0.1-0.3,0-0.4c1-1.5,2.2-3.1,3.2-4.6c2.1-3.1,4.6-5.8,6.9-8.7
	c1.5-1.8,3.1-3.7,4.7-5.5c1.5-1.6,2.8-3.4,4.3-5.1c0.9-1,1.6-2.2,2.8-3.1c0.2,0.2,0.4,0.3,0.5,0.5c1.3,1.4,2.3,3.1,3.6,4.5
	c1.4,1.6,2.4,3.3,3.7,5c1,1.2,1.6,2.6,2.7,3.7c0.5,0.5,0.7,1.2,1,1.7c0.9,1.4,1.9,2.8,2.8,4.2c0.9,1.3,1.7,2.7,2.6,4
	c0.3,0.5,0.6,0.9,0.9,1.3c0.1,0.1,0.2,0.3,0.3,0.5c-0.5,0.3-1,0.2-1.4,0.3s-0.9,0-1.3,0s-0.9,0.1-1.5,0.1c-0.1,0.3-0.1,0.6-0.1,0.9
	c0,2.3-0.1,4.5,0,6.8c0,0.6,0.1,1.2,0.2,1.7c0.4,3.7,0.7,7.5,0.8,11.2c0.1,1.8,0.3,3.7,0.5,5.4c0.2,1.7,0.2,3.5,0.2,5.2v44.6
	c0,1-0.2,1.9-0.3,2.9c-0.1,1.2-0.3,2.5-0.4,3.7c-0.2,3.1-0.5,6.2-0.5,9.4c0,2.4-0.1,4.7-0.1,7.1c-0.1,3.2,0.2,6.4,0.4,9.5
	c0.1,0.7,0.1,1.4,0.1,2c-0.1,4.5-0.3,9-0.3,13.4c0,2.3-0.1,4.7,0.3,6.9c0.1,0.5,0,1,0,1.4c0.1,2.6,0,5.1,0.2,7.7
	c0.2,2.8,0.1,5.6,0.1,8.4c0.1,3.1,0,6.3-0.1,9.4c-0.1,2.3-0.3,4.6-0.9,6.9c-0.5,2-0.9,4-1.4,6c0,0.1,0,0.2-0.1,0.3
	c-0.9,1.4-1.3,3.1-2,4.6c-1.2,2.8-2.8,5.4-4.4,7.9c-0.9,0.6-1,1.6-2,2.2c-0.6,0.3-1,0.9-1.2,1.7c-0.1,0.3-0.3,0.6-0.5,0.8
	c-0.6,0.5-1.3,0.9-1.8,1.4c-0.9,1-2.2,1.5-3.1,2.5c-0.3,0.4-0.7,1-1.3,1c-0.1,0.7-0.9,0.6-1.2,0.9c-0.7,0.7-1.4,1-2.3,1.4
	c-1.3,0.6-2.7,1.1-4,1.6c-2.4,1-4.8,2-7.2,3c-0.7,0.3-1.5,0.4-2.2,0.7c-4,1.4-8.2,2.2-12.4,2.9c-5.3,0.9-10.7,0.8-16,0.6
	c-4.3-0.1-8.6-0.3-12.8-0.2c-5.3,0.1-10.6,0-15.9-0.3c-0.7-0.1-1.4-0.1-2.2-0.1c-3.8,0.1-7.6,0.4-11.4,0.5c-2.3,0.1-4.7,0.1-6.9,0.1
	c-0.5,0-1-0.1-1.4-0.2c-1.2-0.4-2.4-0.6-3.5-0.7c-1.9-0.1-3.9-0.2-5.8-0.3c-3.1-0.1-6.2-0.1-9.2-0.1c-9-0.2-18-0.4-26.9-0.1
	c-2.9,0.1-5.8,0.2-8.7,0.9c-0.9,0.2-1.9,0.3-2.9,0.2c-2.1-0.1-4.2-0.3-6.4-0.5c-1.3-0.2-2.8-0.1-4.1,0.1c-2,0.4-4,0.5-6,0.5
	c-3.3,0.1-6.8,0.1-10.1-0.2c-2.9-0.2-5.9-0.2-8.8-0.3c-3-0.1-6.1-0.2-9.1-0.3c-0.1,0-0.3-0.1-0.4-0.1c-0.2-0.3-0.1-0.5,0.1-0.7
	c0.5-0.6,1-1.2,1.4-1.8c0.7-0.9,1.4-1.8,2-2.9c0.5-0.9,1-1.6,1.6-2.4c0.5-0.7,0.9-1.4,1.3-2c0.1-0.1,0.1-0.4,0.3-0.5
	c0.9-0.9,1.1-2.1,1.6-3.2c0.2-0.3,0.3-0.7,0.7-0.9c0.5-0.4,0.5-0.8,0.3-1.3c-0.5-1.2-1.2-2.3-1.8-3.4c-0.8-1.2-1.6-2.6-2.4-3.7
	c-0.7-1-1.6-2-2.3-2.9c-0.7-0.9-1.2-1.7-1.9-2.6c0.3-0.1,0.5-0.1,0.7-0.2c4.3-0.2,8.5,0,12.7,0.5c1,0.1,1.9,0.1,2.9,0.1h20.8
	c4,0,8,0,12-0.1c2.3,0,4.5-0.1,6.8-0.1c2.3,0,4.7,0.1,6.9,0.1c1.7,0,3.5-0.1,5.2-0.3c3-0.3,6.1-0.3,9.1-0.4c3.3-0.1,6.6-0.3,10-0.4
	c2.1-0.1,4.1-0.1,6.2-0.1c2.5-0.1,4.9-0.1,7.4-0.1c1.8,0,3.5-0.3,5.3-0.5c0.8-0.1,1.5-0.2,2.3-0.2c2.6-0.1,5.2,0,7.8-0.1
	c1.2,0,2.5-0.1,3.7,0c2.2,0.1,4.5,0.2,6.6,0.3c1.3,0.1,2.6,0.1,3.9,0.2c3.4,0.3,6.8,0.2,10.3,0.2c2.8,0,5.5,0.1,8.3,0.1
	c1.8,0,3.5-0.1,5.4-0.1c1.3,0,2.6,0.1,3.9,0.1c1,0,2.1-0.1,3.1-0.2c0.3,0,0.6-0.1,0.9-0.1c2.2,0,4.2-0.6,6.2-1.3
	c1.7-0.7,3.3-1.5,5.1-2c0.5-0.1,0.9-0.5,1.2-0.7c1.4-0.9,2.9-1.7,4.3-2.7c0.5-0.4,1-0.9,1.3-1.5c0.8-1.2,1.5-2.4,1.8-3.9
	c0.6-2.3,1-4.7,1.6-6.9c0.5-1.7,0.6-3.4,0.5-5.2c0-2.1,0-4.3,0.1-6.4c0.1-2.6-0.3-5.1-0.5-7.7c0-0.4-0.1-0.8-0.1-1.2
	c0.3-4.6,0.6-9.1,0.8-13.7c0.1-3.5,0.2-7,0.2-10.6c0-2.5,0-5-0.1-7.5c-0.1-2.1-0.2-4.3-0.3-6.4c0-0.5-0.1-1,0-1.4
	c0.4-5.2,0.8-10.5,1-15.7c0.1-3.4,0.2-6.8,0.3-10.3c0.1-4.7,0-9.2,0-13.9c0-2.2,0.1-4.3,0.1-6.5c0-5.2,0.1-10.5,0-15.8
	c-0.1-4.3-0.1-8.7-0.3-13c-0.1-2.4-0.3-4.9-0.4-7.3c-0.2-2.8-0.4-5.7-0.7-8.5C272.6,34.6,272.5,33.9,272.3,33.2 M131.8,228.1
	c0.7-1.8,1.2-3.5,1.9-5.2c0.4-1.1,0.8-2.3,1.1-3.4c0.3-1,0.5-2,0.7-2.9c0.3-1.2,1.4-1.8,2.7-1.7c0.9,0.1,1.6,1,1.7,2.2
	c0,0.8-0.3,1.4-1,1.8c-0.3,0.3-0.8,0.4-1.2,0.6c-0.4,0.2-0.8,0.3-1.2,0.5c-0.5,0.3-0.8,0.7-0.9,1.4c-0.1,1,0.1,1.8,0.7,2.6
	c0.8,1.2,1.7,2.4,2.6,3.5c0.3,0.4,0.7,0.4,1,0.1c0.3-0.4,0.7-0.8,1-1.2c0.3-0.3,0.3-0.6,0-0.9c-0.5-0.6-1-1.2-1.4-1.8
	c-0.3-0.4-0.7-0.8-0.8-1.4c0.3-0.1,0.5-0.3,0.8-0.5c0.5-0.3,1-0.6,1.4-0.9c1.2-1,1.8-2.3,1.7-3.9c-0.1-0.7-0.1-1.4-0.3-2
	c-0.1-0.5-0.4-0.9-0.7-1.2c-1.4-1.2-2.9-1.9-5.3-0.8c-0.6,0.3-1.1,0.7-1.7,1c-0.7,0.4-1.1,1-1.4,1.8c-0.1,0.3-0.1,0.5-0.2,0.7
	c-0.9,3.1-1.9,6.2-3.2,9.1c-0.4,0.9-0.5,1.7,0.1,2.6C130.4,228.2,131,228.2,131.8,228.1 M285.6,115.8c-0.5-0.5-0.9-0.9-1.2-1.2
	c-0.9-1-2-1.4-3.3-1.4c-1.4-0.1-2.2,0.6-2.5,1.9c-0.1,0.4-0.1,0.9-0.1,1.3c0,1.4,0.3,2.9,0.6,4.3c0.1,0.4,0.2,0.7,0.4,1.1
	c0.7,1.4,1.7,2.3,3.3,2.5c1,0.1,2.1,0.2,3.1,0.5c1.5,0.3,2.9,0.4,4.5,0.3c0.9,0,1.7-0.1,2.6-0.1h0.5c0.6-0.1,0.8-0.5,0.5-0.9
	c-0.4-0.5-0.9-1-1.3-1.6h-4.9c-2.2,0-4.2-0.5-6.1-1.5c-0.5-0.3-0.8-0.6-0.9-1.1c-0.1-0.5-0.2-1-0.3-1.6c-0.1-0.6-0.1-1.2,0-1.7
	c0.1-0.5,0.3-0.8,0.9-0.8c0.9,0,1.6,0.3,2,1.1c0.3,0.8,0.8,1.4,1.5,1.9c0.3,0,0.7-0.1,1-0.1c0.6,0,1-0.3,1.1-0.9
	c0.1-0.5,0.3-0.9,0.5-1.3c0.5-0.7,1-1.3,1.9-1.4c1.2-0.1,2.2,0.1,2.9,1.2c0.3,0.4,0.5,0.8,0.7,1.2c0.1,0.2,0.1,0.5,0.3,0.7
	c0.3,0.5,0.7,0.6,1.1,0.5c0.4-0.1,0.5-0.3,0.5-0.9c0.1-2.9-2.2-5.2-4.7-5c-0.5,0.1-1,0.1-1.4,0.1c-0.5,0-0.9,0.2-1.3,0.5
	C286.5,113.7,285.9,114.5,285.6,115.8 M150.2,226.1c0.4,0.2,0.7,0.3,1,0.5c0.4,0.2,0.7,0.1,1.1-0.1c0.5-0.3,0.8-0.7,1-1.2
	c0.1-0.3,0.3-0.7,0.3-0.9c0.9-2.8,2.6-5.2,3.9-7.7c0.1-0.3,0.4-0.5,0.5-0.7c0.5-0.7,1.2-0.9,2-1c1-0.1,1.3,0.3,1.4,1.2
	c0.3,2.1-0.1,4.1-0.1,6.2c0,0.2-0.1,0.4-0.1,0.5c-0.5,0.9-1.4,0.9-2,0.1c-0.3-0.3-0.4-0.7-0.7-1c-0.4-0.5-0.8-0.5-1.4-0.1
	c-0.5,0.3-0.6,0.7-0.4,1.2c0.3,0.8,0.6,1.5,0.9,2.3c0.5,1.4,2,2,3.4,1.3c0.4-0.2,0.7-0.5,1-0.8c0.9-1,1.3-2.1,1.3-3.4
	c0-1.9,0.1-3.7,0.1-5.6c0-1.1-0.3-2.2-0.5-3.3c-0.2-0.7-0.7-1-1.2-1.2c-0.4-0.1-0.8-0.2-1.1-0.2c-2.1,0.1-4,0.8-5.1,2.7
	c-1.2,2-2.4,4.1-3.6,6.1C150.9,222.5,150.5,224.2,150.2,226.1 M256.2,226.3c-0.7,0.4-1.1,0.7-1.7,1c-0.9,0.5-1.8,0.8-2.9,0.6
	c-0.3-0.1-0.6-0.2-0.9-0.5c-0.9-1.3-0.8-3.3,0.3-4.4c0.6-0.6,1.3-1,2-1.4c0.7-0.5,0.8-1.1,0.1-1.6c-0.3-0.3-0.7-0.5-1.1-0.7
	c-0.3-0.1-0.5-0.3-0.7-0.5c-0.7-0.5-0.9-1.3-0.7-2.4c0.2-0.6,0.9-1.2,1.6-1.2c0.6,0,1.1,0.1,1.7,0.2c0.3,0.1,0.7,0.2,0.9,0.3
	c0.7-0.7,0.7-0.7,0.9-1.5c-0.4-0.5-0.9-0.7-1.4-0.9c-1.6-0.5-3.1-0.5-4.7-0.4c-0.6,0.1-1.1,0.3-1.4,0.9c-0.4,0.5-0.8,1.1-0.9,1.8
	c-0.1,1-0.1,1.9-0.1,2.9c0,0.5,0.3,0.9,0.7,1.2l1,0.6c0.2,0.1,0.5,0.3,0.6,0.5c-0.1,0.1-0.1,0.2-0.1,0.3c-0.2,0.2-0.5,0.4-0.7,0.5
	c-1.3,1-2.1,2.4-1.8,4.1c0.1,0.6,0.1,1.2,0.3,1.8c0.1,0.4,0.2,0.9,0.5,1.2c0.3,0.5,0.7,1,1.3,1.3c1,0.4,2,0.7,3.1,0.5
	c1-0.1,1.9-0.3,2.8-0.5c1.2-0.3,2-1.3,2.9-2.3C257.2,227.3,256.8,226.8,256.2,226.3 M295.4,149.5c-0.5-0.3-1-0.3-1.6-0.3
	s-1,0-1.6,0.1c-0.5,0.1-1,0.3-1.5,0.5c-0.5,0.2-0.9,0.5-1.4,0.7c-0.5,0.3-0.8,0.7-1.4,0.9c-0.6-0.6-1.4-1-2.2-1.3
	c-1.2-0.4-2.4-0.8-3.6-1c-0.5-0.1-1-0.3-1.6,0c-0.2,0.7-0.1,1.3,0.1,2c0.2,0.1,0.4,0.2,0.5,0.2c1,0.2,1.8,0.7,2.7,1
	c1,0.5,1.6,1.2,1.9,2.4c0.1,0.5,0.1,0.9-0.3,1.4c-0.5,0.7-1.2,1.2-2.1,1.4l-2.9,1c-0.2,0.4-0.3,0.8-0.1,1.1c0.3,0.4,0.7,0.5,1.2,0.5
	c0.3,0,0.7-0.1,1-0.1c0.9-0.2,1.8-0.4,2.7-0.6c0.8-0.2,1.6-0.5,2.2-1c0.5-0.5,0.7-0.5,1.2,0c1.9,1.6,4.3,2.1,6.7,2.5
	c0.2-0.6,0.2-1-0.1-1.6c-0.2-0.1-0.4-0.1-0.7-0.3c-1.4-0.5-2.8-1.1-4-2c-0.3-0.2-0.7-0.5-0.9-0.8c-0.9-1.4-0.3-3.1,1.2-3.9
	c1.1-0.5,2.2-0.9,3.5-1c0.3,0,0.5-0.1,0.9-0.1c0.1-0.3,0.1-0.5,0.1-0.7C295.4,150.1,295.4,149.7,295.4,149.5 M183.5,218.4
	c0.3-2.4-0.6-3.8-2.8-4.3c-0.3-0.1-0.6-0.1-0.9-0.1c-1.2-0.1-2.5,0-3.7,0.3c-2.5,0.6-4,2.2-5,4.4c-0.9,2-0.9,4.1-0.6,6.2
	c0.1,0.3,0.3,0.7,0.5,1c0.7,0.9,1.6,1.4,2.5,1.9c0.5,0.3,1,0.5,1.5,0.3c1-0.1,2-0.2,3-0.5c1.6-0.4,2.7-1.5,3.3-3.1
	c-0.7-0.7-1.4-0.8-2.1-0.2c-0.7,0.6-1.6,0.9-2.5,1c-2.8,0.5-3.8-0.6-3.7-3.4c0-0.1,0.1-0.3,0.1-0.4c0.1-0.4,0.2-0.7,0.3-1.1
	c0.1-1.3,1.1-2.1,1.9-3c0.1-0.1,0.3-0.2,0.4-0.2c0.7-0.2,1.4-0.5,2.1-0.5c1.4-0.3,2.7-0.1,3.7,1.2
	C181.9,218.6,182.7,218.7,183.5,218.4 M280.7,33.6c0.5,0.1,1,0.1,1.4,0.3c1.1,0.3,2.2,0.7,3.1,1.4c0.9,0.9,1.2,1.8,0.9,3
	c-0.2,0.7-0.6,1.2-1.1,1.6c-0.9,0.7-1.8,1-2.9,1.2c-0.7,0.1-1.3,0.1-2,0.3c-0.3,0.1-0.6,0.4-0.6,0.7c0.1,1.2,0.7,1.8,1.9,1.9h0.5
	c1.2,0,2.4-0.3,3.5-0.7c0.9-0.3,1.5-0.8,2.2-1.4c0.8-0.7,1.3-1.6,2-2.5c1.4-0.1,2.7,0,4.1,0.1c1.3,0.1,2.6-0.1,3.8-0.5
	c0.2-0.7,0.2-1.4,0-2.2c-0.5-0.1-0.9-0.1-1.3-0.1c-1.7-0.1-3.5-0.1-5.2-0.1c-1.4-0.1-1.7,0.2-2-1.6c-0.1-0.3-0.3-0.5-0.5-0.7
	c-0.8-0.5-1.6-1-2.4-1.6c-0.3-0.2-0.6-0.3-0.9-0.4c-1-0.3-2-0.5-3.1-0.7c-0.3-0.1-0.5,0-0.9,0C280.8,32.3,280.7,32.8,280.7,33.6
	 M282.1,205.1c-0.3-0.1-0.5-0.3-0.7-0.4c-0.3-0.1-0.5-0.1-0.8-0.3c-1.2,0.7-1.3,2-2.4,2.8c-0.5-0.3-0.9-0.5-1.2-0.7
	s-0.8-0.6-1.1-0.9c-1.1-0.8-0.8-1.6-0.1-2.4c0.1-0.2,0.3-0.4,0.5-0.5c1-0.7,1.5-1.6,2-2.6c0.4-0.8,0.9-1.6,0.9-2.6
	c-0.9-0.5-1.8-0.9-2.9-0.8c-0.3,1.8-1.3,3.1-2.4,4.5c-1.3,1.6-1.2,3.4-0.8,5.2c0.1,0.7,0.5,1.1,1,1.5c0.5,0.3,0.9,0.7,1.4,0.9
	c1.6,0.9,3.3,1.6,4.9,2.5c1.5,0.8,2.9,1.7,4.1,2.9c0.2,0.2,0.4,0.3,0.7,0.5c0.9-0.5,1.2-1.2,1.8-1.9c-0.1-0.2-0.2-0.4-0.4-0.5
	c-1.3-1.1-2.7-2.2-4.3-2.9c-0.7-0.3-1.2-0.6-1.5-1.2C281.6,207.5,281.8,206.4,282.1,205.1 M295.8,167.8c-0.1,0.3-0.1,0.7-0.1,1
	c-0.1,0.7-0.1,1.4-0.2,2c-0.1,0.6-0.3,1.1-0.5,1.6c-0.4,0.9-1.5,1.5-2.2,1.3c-1.4-0.4-2.7-1-3.4-2.4c-0.3-0.5-0.7-0.9-1.2-1
	c-0.8-0.3-1.5-0.1-2.2,0.3c-0.1,0.2-0.2,0.4-0.2,0.5c-0.4,1.5-1.6,2-3,2.4c-0.9,0.2-1.2-0.1-1.6-0.9c-0.3-0.6-0.3-1.2-0.4-1.8
	c-0.1-0.5,0.1-1-0.3-1.6c-0.3-0.1-0.7-0.1-1-0.1c-0.1,0-0.3,0.1-0.4,0.1c-0.6,1.8-0.5,3.9,0.4,6.3c0.7,0.4,1.4,0.8,2.2,1.2
	c0.4,0.2,0.7,0.2,1.1,0c1.6-0.7,3.2-1.3,4.3-2.8c0.1-0.1,0.2-0.1,0.3-0.1c0.4,0.3,0.9,0.7,1.3,1.1c1.3,1.2,2.9,1.2,4.5,0.9
	c0.9-0.2,1.7-0.7,2.6-1c0.7-0.3,1.2-0.7,1.4-1.4c0.5-1.4,0.7-2.8,0.8-4.3c0.1-0.6-0.3-1-0.7-1.4
	C296.8,167.8,296.4,167.6,295.8,167.8 M116.8,221.9c0.9,0.1,1.4,0,2-0.3c0.7-0.3,1.2-0.5,1.8-0.8c1-0.5,1.6-1.4,1.8-2.4
	c0.2-0.9,0.2-1.7,0.3-2.6c0.1-1-0.4-1.8-1.2-2.4c-0.3-0.3-0.8-0.4-1.2-0.5c-1.6-0.5-3.3-0.4-5-0.1c-1.4,0.3-2.2,1-2.6,2.4
	c-0.1,0.5-0.3,1-0.4,1.5c-1.4,3.7-1.8,7.6-2.9,11.3c0.5,0.3,1,0.1,1.4,0.1c0.7,0,1-0.3,1.3-0.9c0.1-0.2,0.1-0.3,0.2-0.5
	c0.5-1.9,1-3.8,1.2-5.8c0-0.5,0.1-1,0.3-1.6c0.5-1.2,1-2.5,1.6-3.7c0.1-0.2,0.2-0.3,0.3-0.5c0.3-0.4,0.7-0.6,1.3-0.5
	c0.9,0.1,1.7,0.3,2.5,0.7c0.3,0.1,0.5,0.5,0.6,0.8c0.3,1.4-0.5,2.6-1.8,3.1c-0.3,0.1-0.7,0.3-1.1,0.4
	C117.1,220.3,116.9,221,116.8,221.9 M235.9,224.5c-0.7-0.3-1.2-0.4-1.8-0.6c-0.3-0.1-0.6,0-0.8,0.2l-0.4,0.4c-1.1,1-2.4,1.3-3.9,1
	c-0.7-0.1-1-0.5-1.4-1.2c-0.4-0.7-0.3-1.5-0.3-2.3c0-1.8,0.7-3.5,1.8-4.8c0.3-0.4,0.7-0.6,1.2-0.6c1.1,0,2.2-0.1,3.3,0
	c0.3,0,0.5,0.1,0.8,0.3c0.3,0.1,0.6,0.3,0.9,0.5c0.7-0.2,1.2-0.5,1.6-1.1c-0.3-0.5-0.7-1-1.3-1.2c-0.9-0.4-1.8-0.8-2.7-1.1
	c-1-0.4-2-0.5-2.9-0.2c-0.9,0.3-1.7,0.9-2.5,1.4c-1.1,1.6-2.4,3.3-2.6,5.4c-0.1,0.3-0.1,0.6-0.1,0.9c-0.2,1.2-0.1,2.3,0.5,3.3
	c0.1,0.3,0.3,0.5,0.3,0.8c-0.1,0.7,0.3,1.1,0.9,1.5c1.8,1.4,3.8,1.5,5.9,0.9C234,227.3,235.2,226.2,235.9,224.5 M283.5,57
	c0.3-0.1,0.5-0.1,0.6-0.2c0.6-0.7,1.3-0.7,2.1-0.6c1.4,0,2.8,0,4.2-0.1c1.5-0.1,2.9-0.4,4.3-1.1c0.9-0.5,1.6-1.1,2.1-2
	c0.4-0.7,0.8-1.5,0.6-2.5c-0.5-0.1-1-0.2-1.6-0.3c-0.4-0.1-0.7,0.1-0.8,0.5c-0.1,0.3-0.2,0.5-0.3,0.9c-0.2,1.1-1,1.6-2,1.9
	c-0.7,0.2-1.5,0.3-2.3,0.3c-2.2,0-4.5-0.1-6.6-0.2c-0.1,0-0.3-0.1-0.5-0.2c-0.1-1.2-0.1-2.5-1.1-3.5c-0.7,0-1.3,0.1-2,0.5v2.9
	c0,1,0,1.9,0.1,2.9c0.1,0.9,0,1.9,0.4,2.8c0.8,0,1.6,0.3,2.4-0.1C283.3,58.3,283.3,57.7,283.5,57 M195.7,216.6
	c-0.1,0.3-0.1,0.5-0.2,0.7c-0.5,0.8-0.5,1.6-0.7,2.5l-0.4,2.6c-0.1,1.3-0.2,2.7,0,4c0.1,0.8,0.5,1.4,1.2,1.6
	c0.7,0.3,1.5,0.4,2.2,0.5c0.8,0.1,1.3-0.3,1.6-1c0.2-0.4,0-0.9-0.4-0.9c-0.5-0.1-1,0-1.4-0.3c-0.2-0.1-0.5-0.3-0.5-0.5
	c-0.1-0.9-0.3-1.8-0.3-2.7c-0.1-1.4,0.5-2.8,0.9-4.2c0.3-0.9,0.6-1.7,1.4-2.4h2.2c0.3,0,0.7,0,1-0.1c0.7-0.1,1-0.6,0.9-1.2
	c-0.1-0.3-0.3-0.7-0.3-1c-3.2-0.5-8.3-0.6-9.9-0.2c-0.5,1.4-0.3,1.9,1.2,2.2C194.8,216.3,195.2,216.5,195.7,216.6 M295.2,79.9
	c0,1,0,1.8-0.1,2.8c-0.1,2.2-1.2,3.7-3.4,4c-0.9,0.1-1.7,0.3-2.6,0.3c-2.6-0.1-5.3-0.3-7.9-0.4c-0.2,0-0.4,0-0.6,0.1
	c-0.3,0.7-0.3,1.3-0.2,2c0.4,0.1,0.8,0.1,1.1,0.1c2.2,0.1,4.4,0.3,6.6,0.4c2,0.1,3.9-0.1,5.9-0.1c0.9-0.1,1.8-0.3,2.4-1.1
	c1-1.2,1.4-2.6,1.4-4.2c0-0.7-0.1-1.4-0.2-2.2c-0.1-1.5-0.2-1.6-1.7-1.7C295.8,79.7,295.6,79.8,295.2,79.9 M296.6,187.1
	c-0.7-0.1-1.2-0.2-1.7-0.2c-0.2,0-0.5,0.2-0.6,0.4c-0.1,0.2-0.1,0.5-0.2,0.7c-0.1,0.7-0.3,1.4-0.5,2.1c-0.1,0.4-0.3,0.9-0.6,1.1
	c-1,0.9-2.5,0.9-3.7,0.2c-0.4-0.3-0.9-0.5-1.2-0.7c-1.8-0.9-3.7-1.3-5.6-1.8c-0.7-0.2-1.5-0.2-2.3-0.3c-0.5,0.6-0.3,1.3-0.5,2
	c1.6,0.5,3.1,1.1,4.8,1.4c0.6,0.1,1.1,0.3,1.6,0.5c1.1,0.5,2.3,0.9,3.4,1.6c0.6,0.4,1.3,0.6,2,0.7c2.6,0.3,4.5-1.2,4.7-3.5
	c0.1-0.9,0.2-1.7,0.3-2.6C296.6,188.1,296.6,187.7,296.6,187.1 M280.7,67.8c-0.1,0.9-0.1,1.7,0.3,2.5c0.3,0.1,0.7,0.1,1,0.1
	c3.2,0.1,6.4,0.2,9.6,0.3c1.2,0.1,2.3,0.1,3.5,0.1c0.7,0,1.4,0,2.1-0.6v-1.1c0-0.4-0.1-0.9-0.1-1.2
	C294.5,67.5,283.2,67.4,280.7,67.8 M212.9,228.9h0.9c1,0,1,0,1.3-1c1.4-4.1,2-8.3,2.6-12.6c0.1-0.5,0.1-1-0.3-1.4l-0.4-0.2
	c-0.1-0.1-0.3-0.1-0.4-0.1c-1.6-0.1-2.1,0.3-2.2,1.9v0.5c-0.1,1.6-0.2,3.3-0.6,4.8c-0.4,1.6-0.8,3.1-1.2,4.6
	c-0.1,0.6-0.3,1.1-0.3,1.7C212.2,227.8,212.4,228.3,212.9,228.9 M279.9,101.9c0.4,0.1,0.7,0.1,1,0.1h15.5c0.3,0,0.5-0.1,0.8-0.2
	c0.1-0.8,0.1-0.8-0.1-1.5c-1.4-0.5-2.8-0.5-4.3-0.7s-2.9-0.2-4.3-0.3c-1.4-0.1-2.9-0.1-4.3,0c-1.4,0.1-2.9-0.1-4.3,0.2
	C279.7,100.4,279.7,101,279.9,101.9 M296.2,137.1c-1-0.1-2-0.3-2.9-0.3c-1-0.1-2-0.1-3-0.1c-3.5,0-6.9,0-10.4,0.1
	c-0.1,0-0.1,0.1-0.1,0.1c-0.1,0-0.1,0.1-0.1,0.1c-0.1,0.8,0,1.5,0.4,2.2c0.5,0.3,0.9,0.2,1.4,0.2c1.2-0.1,2.4-0.1,3.6-0.2
	c3.3-0.1,6.6-0.1,9.8-0.1c0.5,0,1,0.1,1.4-0.2c0-0.1,0.1-0.3,0.1-0.4C296.2,138,296.2,137.6,296.2,137.1"/>
</svg>
