<svg xmlns="http://www.w3.org/2000/svg" viewBox="0 0 500 500"><path d="M383.3 234.8c-.2-2.4-.3-4.7-.5-7.1-.3-2.9-.7-5.9-1-8.7-.3-2.1-.9-4-1.6-6.1-.5-1.9-1-3.8-1.7-5.7-.5-1.6-1.2-2.9-1.7-4.5-.7-1.9-1.4-4-2.1-5.9-.9-2.3-1.7-4.3-2.6-6.6-.5-1-.9-2.1-1.4-3.1-.9-1.9-1.7-3.6-2.6-5.5-.5-1.4-.9-2.9-2.3-3.8-.2-.2-.2-.3-.2-.7-.2-.3-.2-.7-.5-1-.5-.9-1.2-1.6-1.7-2.4-.7-1-1.4-2.1-2.1-3.1-.5-.9-1.4-1.6-1.7-2.4-.2-.3-.3-.5-.5-.9-1.6-1.6-2.8-3.3-4.2-4.8-.2-.2-.2-.3-.3-.5-.5-.3-.9-.9-1.4-1.2-2.6-1.7-5-3.5-6.9-5.7-1-.9-2.3-1.9-3.3-2.8-.2 0-.3 0-.5-.2-1.4-.9-2.8-1.9-4.2-2.6-.9-.3-1.7-.7-2.6-1-1.7-.5-3.5-1.2-5.4-1.7-.3-.2-.7-.2-1-.3-.2 0-.3.2-.5.3.2-.2.2-.3.3-.3-1.4-.3-2.9-.9-4.3-1.2-1.4-.2-2.9-.2-4.3-.3h-2.4c-2.6-.3-5.2-.5-7.8.2-.2 0-.5.2-.7.2-3.6.3-7.4.5-11.1.9-3.8.3-7.4.7-11.3 1.2-2.4.3-4.8.5-7.3.9-2.6.5-5.2.9-7.6 1.7-2.8.9-5.5 2.1-8.3 3.3-1.7.7-3.5 1.6-5 2.4-2.6 1.6-5.2 3.1-7.6 4.8-2.3 1.6-4.7 2.9-6.9 4.8-2.6 2.1-5.2 4.3-7.6 6.6-2.6 2.4-5 5-7.4 7.6-1.6 1.7-3.3 3.5-4.8 5.2-1.6 1.7-3.3 3.3-4.5 5.2-.7 1-1.6 1.7-2.4 2.8-1.6 1.9-2.9 3.8-4.5 5.5-.2.2-.5.3-.9.5-.2.2-.5.3-.7.5-.7 1.2-1.4 2.4-2.1 3.5-.3.5-1 1-1.6 1.6-2.1 1.9-3.8 4.3-5.4 6.8-.2.2-.3.5-.2.5.5 1.4-.5 2.1-1.2 2.9-1 1.2-1.9 2.6-2.8 3.8-.9 1.4-1.7 2.8-2.6 4-.9 1-.5 2.3.7 2.8 2.9 1.4 6.1 2.3 8.8 4.2.5.3 1.2.5 1.9.5.9 0 2.3-2.6 2.1-3.5.3-.2.9-.3 1.2-.5.7-.7 1-1.7 1.6-2.4 1.2-1.4 2.1-2.9 3.1-4.5.9-1.2 2.3-2.3 2.4-4 0-.2.3-.2.5-.3.3-.5 1.2-1.2 1-1.4-.5-.9.2-1.4.5-1.9.9-1.4 1.9-2.8 2.8-4 .5-.7 1.2-1 2.1-.9.2 0 .3 0 .5-.2l.2.2c-1.6 2.1-2.8 4.3-4 6.6-.3.3-.5.7-.9 1-1.7 2.3-3.3 4.7-4.8 7.1-1.6 2.4-3.3 5-4.8 7.4-.5.7-1 1.4-1.6 2.1-.2.2 0 .7.2.9.5.5 1.2.9 1.9 1.2 3.1 1.6 6.2 3.1 9.3 4.7 1.6.9 1.7.7 2.6-.9 1.4-2.4 2.8-4.8 4.2-7.3.5-.9.9-1.7 1.6-2.4 1.7-2.3 4-4 5.5-6.4.3-.5 1-.9 1.7-1.2.2-.2.7 0 1 .2 0 .3-.2.7-.2.9-.2.2-.3.3-.5.7-.7.9-1.6 1.9-2.3 2.8-1.2 1.7-2.1 3.6-3.3 5.4-.7 1-1.7 1.9-2.6 2.9-.3.5-.7.9-1.4.7-.2 0-.7.5-.7.7.2 1.6-1.2 2.6-1.2 4.2s-.2 2.3 1.4 2.8c.2.2.3.2.5.3 1.6.9 3.1 2.1 5.2 2.3 1.9.2 3.5 1.2 4.8 2.1 1 .7 1.7.5 2.4-.5 1.2-2.1 2.6-3.8 4.3-5.4 1.4-1.2 2.8-2.4 3.5-4.3.2-.5.7-1 1-1.6 1.6-1.7 3.3-3.5 4.8-5.2.7-.9 1.4-1.7 2.1-2.6.9-.9 1.6-1.7 2.4-2.8.5-.7 1.2-1.4 1.7-2.1l1.6-1.6c.5-.5 1-1.2 1.6-1.6.9-.9 1.7-1.7 2.6-2.4 0-.2 0-.2.2-.3 1-.9 2.1-1.9 3.1-2.8.9-.7 1.7-1.4 2.6-2.1.5-.3 1-.9 1.4-1 .3-.3.9-.5 1.2-.9.5-.3.9-.7 1.4-1 0-.2.2-.2.2-.3.2-.3.3-.7.7-.9 3.6-2.1 6.8-4.8 10-7.6 2.3-1.9 5-3.3 8-3.6 3.5-.5 7.1-.5 10.6-.7 1.4 0 2.8.3 4.2.7.9.2 1.6.7 2.4 1 2.8 1 5 2.8 7.1 4.8.7.7 1.2 1.6 1.9 2.1 2.1 1.4 3.5 3.5 4.2 5.7 1.4 3.6 2.3 7.3 3.1 11.1.7 3.3 1.2 6.8 1 10.2 0 2.4-.7 4.7-1.4 6.9-.5 1.7-1.2 3.3-1.7 5-.7 2.6-1.7 5.2-3.3 7.4-1.2 1.7-2.6 3.6-4 5.4-1 1.4-2.1 2.9-2.4 4.7-.3 2.4-.7 4.8-.9 7.1-.2 1.4 0 2.9.2 4.3.2 1.2.7 2.4.7 3.5 0 2.4.3 4.8.2 7.4-.2 2.8.3 5.4.9 8.1.2 1 .9 2.3 1.2 3.3.3.7 1 1.2 1.6 1.7 1.7 1.7 3.3 3.8 4.7 5.7 2.1 2.6 4 5.2 6.1 7.8.3.5.3.9-.2 1.2-1 .9-2.1 1.7-3.1 2.6-.5.3-1 .7-1.7 1.2-1-1.2-2.1-2.3-2.9-3.3-.7-.9-1-1.7-1.7-2.6-1.9-2.4-4-4.7-6.1-6.9-1.4-1.6-2.4-3.1-3.8-4.7-.5-.5-1.2-1-1.9-1.2-.9-.3-1.7-.5-2.6-.7-4.2-1-8.3-1.9-12.5-2.9-1.7-.3-3.5-.7-5.2-.9-.9 0-1.9 0-2.6.5-1.7 1-3.3 2.4-5.2 3.5-1.9 1-3.8 2.1-5.7 2.9-1.4.7-2.9 1.4-4.3 1.9-.9.3-1.7.7-2.4 1-1.6.7-3.1.9-4.5 2.1-.2.2-.3.2-.7.2-.7.2-1.2.2-1.9.3-1.7.3-3.5 1-5.2 1.4-4.3.9-8.5 1.9-13 2.4-1.2.2-2.4.3-3.8.2-2.1-.2-4.3-.7-6.4-1s-4.2-.7-6.2-1.2c-1.7-.3-3.5-.7-5.2-1-1.6-.3-3.1-.9-4.8-1.2-1.7-.3-3.5-.7-5-1.6-1.6-.9-3.1-1.9-4.7-2.8-.5-.3-.9-.5-1.4-.9-.2-.2-.5-.3-.7-.3-.3-.2-.9-.3-1.2-.5-2.3-1-4.5-2.3-6.2-4-2.3-1.2-4.3-2.9-6.2-4.5 0 .2 0 .3-.2.5 0-.3-.2-.5-.2-.9-.3-.3-.9-.5-1.2-.9-.3-.2-.7-.5-1-.7-.2 0-.3.2-.5.2 0-.2-.2-.3-.2-.5v-.2c-1.2-.9-2.6-1.9-3.8-2.8-.2-.2-.3-.2-.5-.3-.3-.2-.5-.3-.9-.5h-.3s0-.2.2-.2c-.2-.2-.3-.3-.7-.3v.2h-.2v-.2c-2.4-1.7-4.8-3.5-6.4-6.1-.2-.3-.3-.7-.3-1l-.5-.5c-.7-.7-1.2-1.4-2.1-1.9-1.7-1-2.9-2.6-4-4.2-1.6-2.6-2.9-5.5-4.2-8.3-1.7-4.2-3.3-8.3-5-12.5-.2-.7-.5-1.2-.7-1.9-.2-1.4-.3-2.8-.3-4.3 0-2.3.2-4.5.3-6.8.2-1.9.5-3.6 1-5.5.3-1.2.7-2.4 1.6-3.3.5-.7 1.4-1.4 1.9-2.3 1.6-2.6 3.6-4.8 5.4-7.3.2-.3.7-.5.9-.9.5-.3.9-.9 1.4-1.2.9-.5 1.6-1.2 2.4-1.7 1.2-.5 2.4-1 3.5-1.4.7-.2 1.2-.5 1.9-.7 2.6-.5 5.2-1 7.6-1.6 3.1-.7 6.2-1 9.3.3.5.2.9.3 1.4.3.5 0 1.2.2 1.6-.2 1.7-1.9 3.5-4 5-6.1 1-1.2 2.1-2.4 3.1-3.6 1.7-1.9 3.6-3.8 5.5-5.7.9-.9.5-1.9.3-2.9 0-.2-.5-.5-.7-.5-1.9-.2-3.8-.3-5.5-.5-.9-.2-1.2.3-1.6.9-1.2 2.4-2.4 4.8-3.6 7.3-.3.7-.7.9-1.4.7-1.4-.3-2.6-.5-4-.9-.2 0-.5-.7-.5-.9 1.2-2.6 2.4-5.2 3.8-8 1-2.1 1.9-4.2 2.9-6.2 1.4-2.6 2.8-5.4 4.2-8 1-1.9 1.9-3.8 2.9-5.9.2-.5.5-.7 1-.5 1.6.3 3.3.9 4.8 1 .9.2 1 .5 1.2 1.4.2 1.9.3 4 .7 5.9.5 2.8 1 5.5 1.6 8.3 0 .3.2.7.5 1.4 2.3-2.4 4.2-4.8 6.2-7.1 2.1-2.3 4.3-4.5 6.4-6.8 1.4-1.4 2.6-2.8 4-4.3.5-.7.3-1.2-.3-1.6-1-.7-2.1-1.2-3.3-1.9-.9-.5-1.7-1.4-2.6-1.6-2.9-.9-6.1-1.7-9-2.4-2.6-.5-5.4-1-8.1-1.4-1.9-.3-3.8-.7-5.7-.7-3.5-.2-7.1-.3-10.6-.3-2.8 0-5.7.2-8.5.3-1.4.2-2.9.5-4.3.5s-2.8-.3-4.2-.2c-3.5.2-6.8.3-10.2.7-1.4.2-2.8.7-4.3.7-2.8 0-5.2 1.6-8 1.9-.2 0-.3.2-.5.3-.5.3-1 .7-1.6.9-2.6.9-5 1.7-7.1 3.3-.5.3-.9.7-1.2 1-.5.2-1 .2-1.4.5-1.4.9-2.6 1.9-4 2.8-.3.2-.9.3-1.2.5-.3.2-.7.2-.7.3-.2.7-.7.7-1.2.9-.2.2-.3.2-.5.3-.9.7-1.9 1.6-2.8 2.3-1 .9-2.3 1.6-3.1 2.4-1.9 2.1-4 4-5.5 6.2-1.6 2.1-3.1 4.3-4.5 6.6-.5.9-1 1.7-1.6 2.6-.7 1-1.4 2.3-2.1 3.3-.3.5-.7 1-.9 1.7-.2.7-.3 1.4-.5 2.1-.7 2.3-1.4 4.5-1.9 6.8-.5 2.4-.9 4.8-1.4 7.4-.2 1.2-.7 2.3-.9 3.5-.3 1.9-.5 3.8-.7 5.7-.2 3.8-.2 7.6-.2 11.6 0 5.9.9 11.4 2.1 17.1.5 2.1.9 4.3 1.2 6.4.2.9.2 1.9.2 2.9.2 1 .5 2.1.7 3.1.2.5.2 1.2.3 1.7.3 1.6.7 2.9 1 4.3.3 1 .5 2.3.9 3.3h.2c0 .2.2.5.2.7v.3c.3 1.4.7 2.6 1 3.8.3 1 .7 2.3 1 3.3.3.9.7 1.6.9 2.4.5 1.4.9 2.9 1.4 4.3l.2.2c.2.5.3 1 .5 1.4 0 .2 0 .5.2.7.9 1.6 1.9 3.1 2.8 4.7.9 1.4 1.6 2.8 2.4 4.2.5.9 1.2 1.6 1.9 2.3 1.2 1.2 1.9 2.9 2.8 4.3.2.2.3.2.5.3v-.2l.3.3v.3c.2.2.3.2.5.3l.2.2c.2 1.6 1.9 2.1 2.6 3.3.2.3.3.7.7.7.2 0 .3.2.5.2l.3.3c.5.5.9 1.4 1.6 1.6l.2.2.2.2c.3.7 1.2.7 1.7 1 .2.2.3.2.5.3.3.9 1.2 1.2 2.1 1.6.2 0 .3.3.7.3.9.5 1.6.9 2.4 1.4.2.2.5.2.9.3.7.5 1.6 1 2.3 1.6.9.7 1.6 1.4 2.3 2.1 1 1 1.9 2.3 2.9 3.3.9.9 1.7 1.4 2.6 2.3 1.4 1.4 2.8 2.8 4.2 4 .3.3 1 .5 1.6.9.7.5 1.2 1.2 1.9 1.6 3.5 2.6 7.4 4.2 11.3 6.1 4.2 1.9 8.3 3.6 12.6 4.8 4.2 1.2 8.3 2.6 12.5 3.6 4.7 1.2 9.5 2.3 14.2 3.3 3.1.7 6.2 1.4 9.5 1.7 3.6.5 7.3 1 11.1 1.4 2.6.3 5.2.9 7.8.9 5.4-.3 10.7-.9 16.1-1.4 1.6-.2 3.3-.3 4.8-.5 1.6-.2 2.9-.7 4.5-1 2.6-.5 5.2-1 7.8-1.7.7-.2 1.4-.7 2.3-.9 1.2-.3 2.4-.3 3.5-.7.7-.2 1.2-.7 1.7-.9.5-.2 1-.3 1.6-.7.3 0 .9 0 1.2-.2.5-.2.9-.9 1.2-.9 1-.2 2.1-.2 2.9-1h.3c.1 0 .3-.2.5-.2 5.2-2.9 10.6-5.7 15.9-8.3.7-.3 1.4-.2 1.7 0 .2-.3.5-.7 1-.7 1.9-1.4 4-2.6 5.9-4 1.6-1.2 3.3-2.3 5-3.1 1-.9 2.1-1.6 2.9-2.4 2.1-1.9 4.2-3.6 6.2-5.5.2-.2.3-.2.5-.3.7-.7 1.6-1.2 2.3-1.9 1.6-1.4 2.9-2.8 4.5-4.2 1-1 2.3-2.1 3.3-3.1.7-.7 1.2-1.6 2.1-2.3 2.4-2.1 4.7-4.3 6.8-6.8 1.2-1.2 2.1-2.8 3.1-4.2.2 0 .2-.2.3-.3.3-.5.9-1 1.2-1.6.2-.2.3-.2.5-.3v-.2s.2-.2.2-.3c0 0 0-.2.2-.2.3-.3.7-.9.9-1.2.2-.2.3-.5.5-.7.2-.2.3-.3.3-.7.3-.5.7-1 1-1.7.7-.7 1.4-1.4 2.1-2.3 1.2-2.4 2.6-4.8 3.8-7.3 1-2.1 2.3-4.7 4-6.8.2-.7.5-1.4.7-2.1.2-.2.2-.5.3-.7 0-.2.2-.2.2-.2.2-.3.5-.7.7-1.2.2-.2.2-.3.3-.5.9-1.4 1.6-2.6 2.3-4 .5-.9.9-1.6 1.4-2.4v-.2c.3-.5.7-1.2.9-1.7.3-.9.7-1.6 1.2-2.4.3-.7 1-1.4.9-1.9v-.2c0-.2.2-.3.2-.7.2-.2.5-.5.5-.9.3-.9.5-1.6.7-2.4 0-.2.2-.2.2-.3.5-1.7.9-3.6 1.2-5.4.3-1.6.5-3.1.7-4.7.2-2.1.2-4 .2-6.1 1.1 1.2 1.1-.2 1.1-1.8zm-127.8-29.2c-.3 1.2-.5 2.3-.9 3.5-.9 3.6-4 5.9-7.6 6.1h-1.9c-4 .2-7.4-1.2-10.2-4.2-1.4-1.4-2.6-3.1-2.9-5.2-.3-2.1-.9-4.2-.3-6.2.3-1.4.2-2.9.5-4.3.2-1.6.5-2.9 1-4.3.3-1 1.4-1.7 2.1-2.8.2-.3.3-.7.5-1l.5-.5c4-2.3 8.3-2.4 12.5-.5.7.3 1.2 1 1.9 1.6.5.5 1.2 1 1.7 1.6.7.7.7 1.4 0 2.1-.7.7-1.4 1.4-2.3 1.9-.5.3-.7.5-1.4 0-2.6-2.3-5.9-2.1-8.5.2-.9.7-1.4 1.6-1.2 2.6.2 1.9.3 3.8.3 5.7 0 2.3 1 4.3 2.1 6.2 0 .2.2.3.3.3 1.2.5 2.4.9 3.8.3 2.1-.7 3.5-2.3 4.3-4.3.3-.9.7-.9 1.6-.7 1 .3 2.3.5 3.3.7.8.3 1 .7.8 1.2zm21.2-13.7c-.7 1.6-2.3 2.1-3.5 3.1-.7.7-1.4.5-1.7-.3-1.9-3.5-4.2-6.8-6.9-9.9-2.4-2.8-4.5-5.9-6.9-8.8-.3-.5-.5-.9-.9-1.4-.3-.9-.9-.9-1.7-.3-1.6.9-3.1 1.7-4.7 2.6-.7-1.2-1.4-2.3-1.9-3.5-.2-.3 0-.9.2-1.2.3-.5 1-1 1.6-1.2 1.7-.3 2.9-1.6 4.3-2.6 2.4-1.6 4.7-3.3 6.9-4.8 1-.7 1.9-1.6 2.9-2.3 1.6-1 2.3-.9 3.3.7.5.9 1.2 1.6 1.9 2.8-.3.3-.9.9-1.6 1.2-1.4 1-2.9 2.1-4.5 2.9-.5.3-.7.5-.2 1.2.9 1.2 1.9 2.4 2.1 4.2 0 .2.2.3.3.5 1.4 2.1 2.6 4.3 4 6.4 1.2 1.7 2.3 3.6 3.5 5.4 1 1.6 2.1 3.1 3.3 4.5.5.1.5.3.2.8zm10.9-10.2c-.7.2-.9 0-1-.7-.7-3.1-1.4-6.1-2.1-9.2-.5-2.3-1-4.3-1.7-6.6-.9-2.6-1.7-5.4-2.6-8-.2-.7-.2-1 .7-1.2 1.6-.3 3.1-.9 4.7-1.4.7-.2.9 0 1 .7.5 1.7 1.2 3.6 1.7 5.4.2.5.2 1.2.3 1.7.7 2.4 1.4 4.8 2.1 7.3.7 2.6 1 5.2 1.6 7.8.2.7.5 1.4.9 2.3-2 .7-3.7 1.2-5.6 1.9zm-119-13.5c2.3-.9 4.7-1.4 7.1-1 .7.2 1.6.2 2.3.5 2.9 1.2 6.2 1.9 8.7 4.3s2.9 5.2 1.9 8.3c-.2.9-.7 1.7-1.2 2.6-.3.5-1 .9-1.6 1.2-.3.3-.9.5-.9.9-.2 1.4.2 2.8.9 4 .9 1.4 2.1 2.6 2.4 4 .2 1.2 1.2 1.7 1.4 2.8.2.7 0 .9-.5 1-1.2.3-2.6.7-3.8.9-.2 0-.5-.2-.7-.3-.7-1-1.2-2.3-1.9-3.3-.9-1.6-1.7-3.1-2.6-4.7-.3-.7-.9-.9-1.7-.5.2 1.6.3 3.1.5 4.5.2 1.7.3 3.5.5 5.2 0 .5 0 .9-.7 1-1.6.3-3.1.7-4.5 1-.9.2-1.2-.2-1.2-.9-.3-2.4-.9-5-1.2-7.4-.7-3.5-1.4-6.9-2.1-10.4-.5-2.3-.9-4.5-1.4-6.8-.3-1.7-.7-3.3-1-5 .1-1.1.3-1.4 1.3-1.9zm-31 22.7c.3-1.4.3-2.8.5-4.2 0-.2.3-.5.5-.5 1.9-.3 3.1-1.6 4.5-2.8 2.9-2.8 6.4-3.3 10.2-2.4 1.9.3 2.8 1.7 3.8 3.1 1 1.6 1.7 3.5 1.6 5.4 0 2.4-.5 4.5-1.6 6.6-.2.2-.2.3-.3.5-.9 1.2-.7 2.8.3 3.8 1.7 1.9 3.6 4 5.4 6.1.7.7.5 1-.5 1.2-1.4.2-2.3 1.4-3.3 2.1-1.2.7-1.6.7-2.3-.7-.5-1-1.4-1.9-2.3-2.6-1.6-1.7-3.1-3.3-4.7-4.8-1.4-1.4-2.9-2.8-4.5-4-1.2-1-2.3-1.9-3.5-2.8-1.2-1-2.4-2.1-3.6-3.1-.2-.4-.2-.6-.2-.9zm1.9 45.7c-.9-2.3-.3-4.5-.2-6.8.2-2.1 1-4.2 1.2-6.2.2-3.3 1.7-5.9 2.6-9 0-.3.3-.5.5-1 .5.2.9.3 1 .5-1.4 2.3-1.9 4.7-2.3 7.1-.7 4.8-.7 9.9-.7 14.7 0 2.6.3 5.2.5 7.8.2 3.3.7 6.6 1.2 9.7.3 1.9.9 3.6 1.6 5.5.7 1.9 1.4 3.8 2.3 5.5.7 1.4 1 2.6 1.2 4.2v.5l-.2.2c-.9-1.7-1.9-3.5-2.6-5.4-2.3-5.2-3.6-10.7-4.8-16.1-.5-2.3-1-4.7-1.4-6.9-.2-1.4 0-2.8.2-4.2-.1.2.1 0-.1-.1zm-11.6-27.2c.5-1.4 1-2.8 1.6-4.2.2-.2.3-.3.5-.7.2-.3.5-.9.5-1.2.2-.7-.2-1.2.5-1.9.3-.3.2-1.2.3-1.9v-.5c.3.3.7.5 1 .7.9.2.9.5.3 1.4-1 1.6-2.1 3.1-2.9 4.8-.5.9-.7 1.9-1 2.8-.3.5-.7 1-1 1.7-.2 0-.2-.2-.3-.2.2-.3.4-.5.5-.8zm-1.7 50.7c-.9-2.8-1.4-5.7-2.1-8.5-.3-1.9-.9-4-1-5.9-.2-2.8 0-5.5.2-8.3 0-1.7 0-3.5.2-5.4 0-.7.3-1.4.2-1.9 0-1-.3-1.9-.3-2.9 0-.9.3-1.9.5-2.8.9-3.3 1.7-6.6 2.6-9.9.3-1.2.7-2.4 1.2-3.6.5 0 .9.2.9.9-.2 1.2-.3 2.3-.7 3.3-.9 4-1.7 8.1-2.4 12.1-.3 1.9-.2 3.8-.2 5.5 0 3.1 0 6.2.2 9.5 0 1.4.3 2.9.3 4.3.2 1.9.2 3.8.5 5.7.9 5.5 2.1 11.1 4.2 16.3.5 1.2 1.2 2.4 1.9 3.6.3.9.7 1.7 1 2.6-.2 0-.2.2-.3.2-.5-.9-1.2-1.6-1.6-2.4-1.8-3.7-3.7-8.1-5.3-12.4zm28.9 35c-2.1-1.2-2.8-3.5-4.5-5-1.2.9-2.3 1.7-3.5 2.6-1.9 1.4-4 2.8-5.9 4.2-.3.3-.7.3-1-.2-.7-1.2-1.6-2.4-2.4-3.8 1.2-1 2.4-1.9 3.6-2.9 3.3-2.8 6.6-5.4 9.9-8.1 2.3-1.9 4.3-3.6 6.6-5.5.7-.5 1.2-1.2 1.9-1.7.7-.7 1.2-.5 1.7.2 1.2 1.4 2.4 2.8 3.8 4l4.7 4.7c.2.2.2.7 0 .9-1 1.2-2.1 2.3-3.1 3.3-.3.3-.7.3-1 0-.7-.7-1.7-1.2-2.1-1.9-.7-1.4-2.3-1.9-2.8-3.3-.3-.7-.7-.7-1.2-.3-1.6 1.2-2.9 2.6-4.5 3.8-.2.2 0 .5 0 .7 1 1.4 2.1 2.9 3.1 4.3.3.3.3.7 0 1-.9.9-2.1 1.9-3.3 3zm19.6 7.1c-.7.7-1.4 1.6-2.1 2.3-.5.9-1.2 1.7-1.4 2.8-.3 1.4-1.2 2.3-2.1 3.1-.5.7-.5 1 .2 1.4 1.4 1 2.8 2.3 4.2 3.3.5.3.7.7.3 1.4-.5.9-1.2 1.7-1.7 2.6-.2.3-.5.9-.7 1.4-.3.7-.7.9-1.4.3-1.2-.9-2.6-1.7-3.8-2.6-.5-.3-.9-.9-1.4-1.2-1.4-.9-2.6-1.7-4-2.8-.5-.3-1.2-.7-1.7-1.2-.3-.2-.3-.5-.3-.7 4.7-5.4 9.2-10.9 13.5-16.4v-.2c.3-.5.7-1 1-1.4.5-.3 1.2-.7 1.6-1.4l.2-.2c.3-1.4 1.2-1.6 2.3-.5 1 1 2.1 1.9 3.5 2.9-.9 1-1.9 2.1-2.6 3.1-.3.3-.5.9-.9 1.2-1 .9-1.9 1.7-2.7 2.8zm28.4 7.1c-.7.9-1.2.9-2.3.3-1-.7-2.3-1.4-3.3-1.9-.2 0-.7.2-.7.3-.9 1.2-1.6 2.6-2.4 3.8-.3.5-.5.9-.9 1.6.9.3 1.6.7 2.3 1 .9.3 1 1 .5 1.7-.5.9-1 1.7-1.4 2.6-.2.2-.2.5-.2.9 0 .2 0 .7-.2.7-.3 0-.7.2-.9 0-.7-.5-1.2-1-1.9-1.6-.9-.9-1.2-.9-1.7.2-1.2 2.1-2.6 4-3.8 6.1-.5.9-.5 1.2.5 1.6 1.7.7 3.3 1.6 5 2.3.5.2 1.2.3 1.9.5-.7 1.6-1.4 3.1-2.1 4.7-.2.5-.5.5-1 .2-1.9-1.2-3.6-2.4-5.7-3.5-2.1-1.2-4.2-2.3-6.4-3.3-.3-.2-.5-.3-1-.7 1.7-2.8 3.3-5.5 5-8.3 1.7-2.8 3.5-5.7 5.4-8.5 1.7-2.8 3.6-5.4 5.5-8 .3-.7.9-1.2 1.4-1.9.3-.7.9-.5 1.4-.2l5.7 3.6c1.2.7 2.3 1.4 3.5 2.3-.8 1.2-1.5 2.4-2.2 3.5zm25.8 10.5c-1 1.2-2.1 2.6-2.9 4-.3.5-.7 1.4-1 1.9-.3.7-.7 1.2-1 1.9-.5.7-.7 1.6-.5 2.4.7 4.2 1.2 8.3 1.7 12.6.2.7 0 1.4.2 2.4-2.3-.9-4.3-1.6-6.4-2.3-.5-.2-.7-.5-.7-1.2-.2-1.7-.3-3.5-.5-5.5l-1 1c-.9 1.2-1.7 2.3-2.6 3.5-.2.2-.5.3-.7.3-2.1-.5-4-1-6.1-1.7-.2 0-.2-.2-.3-.3.5-.5.9-1.2 1.4-1.7 1.6-2.3 3.3-4.3 4.8-6.6.5-.7.5-1.6 1-2.1 2.3-2.4 1.6-5.2 1.2-8-.3-3.8-.7-7.6-1-11.8 1.2.2 2.1.2 2.9.5 1 .3 2.1.9 3.3 1.2.7.2.7.5.7 1 .2 1.7.2 3.5.3 5.2 0 .5-.2 1.2.7 1 .3 0 .5-.5.7-1 .3-.2.9-.3 1.4-.5-.3-.2-.3-.3-.5-.5l.2-.2c.9-.3 1.4-1 1.7-1.9.3-.7.7-1.2 1.6-1.2 2.1.3 4 .7 6.2 1-1.7 2.7-3.3 4.7-4.8 6.6zm16.2 25.3h-4.3v-5.2c-.2-3.3-.3-6.6-.5-9.7-.2-3.6-.5-7.3-.7-10.9 0-.9.2-1.2 1.2-1.2h3.8c.7 0 1 .3 1 1 .5 3.5.5 6.9.3 10.6-.2 2.8.2 5.5.3 8.3.2 2.1.2 4.2.2 6.2.1.9-.2 1.1-1.3.9zm26.2-5.7c-2.6 4-6.2 5-10.7 4.3-.7-.2-1.4-.2-2.3-.2-.2-2.1-.5-4.3-.7-6.4-.3-2.8-.9-5.7-1.4-8.5-.5-2.9-1.2-5.9-1.9-9-.2-1-.3-2.1-.5-3.1-.2-.9.2-1.4 1.2-1.4 1.7 0 3.6-.2 5.4 0 1.4 0 2.8.2 4 .5 1.9.3 3.1 2.1 3.5 3.8.5 2.6-.2 4.8-1.7 6.8 0 .2-.2.2-.2.3v.3c.7.2 1.6.5 2.3.9 1.2.3 1.9 1.2 2.4 2.4.3.9.9 1.7 1.2 2.8.9 2.3.8 4.4-.6 6.5zm19.2-4.2c-1.4.7-2.9 1.4-4.5 2.1-.2 0-.5-.3-.7-.5-.3-.7-.7-1.2-1.6-1.4-.2 0-.5-.3-.7-.7-.9-2.6-1.7-5.2-2.4-7.8-.5-1.7-1.2-3.5-1.7-5.2-.2-.7-.3-1.6-.7-2.3-.5-1-1-2.1-1.4-3.3-.5-1.2-1-2.6-1.6-4 0-.2.2-.7.5-.9 1-.7 2.1-1 3.3-1.7.2 0 .2 0 .3-.2l.5.5c.3 1 .7 2.1 1.2 2.9.7 1.6 1.4 2.9 2.1 4.5 1.2 2.4 2.3 5 3.1 7.6.5 1.6 1.6 2.9 2.3 4.3.2.3.5.9.7 1.2.5 1.2.9 2.3 1.4 3.5.2.8.1 1.3-.1 1.4zm23.2-14.3c-1.9 1.4-4 2.9-6.1 4.2-1.7 1.2-3.6 2.3-5.5 3.5-.9-1.7-1.4-3.5-2.3-5.2-1.4-2.9-2.9-5.9-4.5-8.8-1-1.9-1.9-3.8-2.8-5.7-.5-1-1-2.3-1.6-3.3-.3-.7-.2-1.2.3-1.7.7-.3 1.2-.9 1.9-1.2.9-.3 1.7-.2 2.3.7 1 1.6 2.1 2.9 3.1 4.5 1.7 2.8 3.5 5.5 5.2 8.5.5.9.7 2.1 1.2 3.1.2.5.5 1.4.9 1.4s1-.5 1.6-.9c1.4-.9 2.8-1.9 4.3-2.8.2-.2.5 0 .7.2.7.7 1.2 1.4 1.7 2.3.3.3-.1 1-.4 1.2zm7.8-154.6c-.2-3.1-3.5-6.1-6.6-5.7-1.9.2-2.8 1.7-3.6 3.1-.9 1.6-1.7 2.9-2.6 4.5-.3.5-.5 1.4-.5 1.9-.3 2.3-.7 4.3-.2 6.6.2 1.2 1.9 2.4 3.3 2.6 2.3.2 4-.5 5.4-2.3.9-.9.9-.9 1.6 0 .7.9 1.4 1.9 2.3 2.8 1 1.2.9 2.8-.5 3.8-1.9 1.2-4 2.1-6.2 1.7v.3c-2.3-.5-4.3-.9-6.4-1.6-1.6-.5-2.9-1.9-3.8-3.5-.7-1.6-1.4-3.1-1.6-4.7-.3-1.7-.2-3.5 0-5.2 0-1.7.2-3.3.3-5 0-.5.2-1 .5-1.6.7-1 1.7-2.1 2.4-3.3.3-.5.5-1.2.9-1.7 0-.2.3-.2.3-.3.3-.3.5-.7.9-1 .7-.7 1.4-1.6 2.3-1.9 2.9-1.2 6.1-1.6 9.2-1.9.3 0 .9 0 1.2.2 1 .7 2.1 1.4 3.1 2.1.7.5 1.4 1.2 2.1 1.9 1.4 1.4 1.7 3.1 2.1 4.8.2 1 .7 2.3.9 3.3.2.3.2 1 0 1.2-.5.5-1.2 1-1.9 1-1.7-.3-3.3-.9-4.8-1.4-.1.1-.1-.4-.1-.7zm4.3 31.1c-.7-.9-1.7-1.6-2.6-2.4-.7-.5-.5-1 0-1.4 1.4-1.2 2.8-2.4 4-3.8 1.6-1.9 3.5-3.3 5.2-4.8 2.6-2.4 5.4-4.8 8-7.3 1.7-1.4 3.5-2.8 5.2-4.2 1 .9 2.1 1.7 3.1 2.6l.3.3v.2h.2l.2.2c.2.3.3.7.5.9 0 .2.2.2.2.3.9.9 1.7 1.7 2.4 2.8 1.4 2.3 2.9 4.3 4.8 6.2-1 1-1.9 2.3-2.8 3.5-.7-.7-1.6-1.4-2.3-2.1l-.7-.7v-.2c-1.6-1.9-3.3-4-5.2-6.2-.7.9-1.6 1.7-2.4 2.8-.2.3-.3.7-.7.9-.5.3-.5.7-.3 1.2s.2 1.2.2 1.7c-.2 1.4 1 2.1 1.7 2.9.3.3.9.9 1.4 1.2-1.2 1-2.6 2.1-3.8 3.1-1.2-1.6-2.6-3.1-3.8-4.8-.9-1-1.4-1-2.3-.2-1.4 1.4-2.8 2.4-4.3 3.6-.9.7-.9.9-.2 1.7 1.2 2.1 2.4 4.3 3.6 6.4 0 0 0 .2.2.3.2.5.9 1 .7 1.4 0 .3-.7.7-1.2 1l-1.9 1.9c-.9-1.2-1.7-2.4-2.6-3.6-1.7-1.4-3.2-3.5-4.8-5.4zm25.6 30.2c-.5-3.6-.9-7.3-1.7-10.9-.7-2.6-1.9-4.8-2.9-7.3-.7-1.6-1.6-2.9-2.9-3.8-.7-.5-.3-.9 0-1.4.3-.5.9-.2 1 .2 1 1.4 2.3 2.6 3.3 4.2 2.9 4.3 4.2 9 4.5 14.2.3 2.9.9 5.9.3 9 0 .3-.2.9-.3 1.6-.7-.5-1.2-.7-1.6-1.2-.2-.2-.3-.9-.2-1 1.1-1.4.7-2.6.5-3.6zm-6.4 64.2c-1.4 1.4-2.6 2.8-4 4.2l-1.2-1.2c-.9-.9-1.9-1.7-2.8-2.8-1-1-2.1-2.3-3.1-3.3l-2.9-2.9c-1.4-1.6-2.8-2.9-4-4.5-.9-1-1.9-2.1-2.9-2.9-.2-.2-.9 0-1 .3-1 .9-2.1 1.9-3.1 2.9-.2.2-.5.3-.9.5-.2 0-.2-.2-.3-.2 0-1.2 0-2.3.2-3.5.2-1.4.3-2.8.3-4.2 0-.7.3-1.2.9-1.6 1.4-1 2.6-2.3 3.8-3.5 1.6-1.6 2.9-3.1 4.5-4.7.5-.7 1-1.4 1.6-1.9.3-.5.7-.5 1.2-.2 1.2 1 2.3 1.9 3.5 2.8.5.5.5.9.2 1.4-.9 1-1.7 1.9-2.6 2.9-.2.2-.3.5-.5.9-.2.2-.2.5-.2.7-1.2.3-1.2 1.6-1.2 2.4-.2.9.3 1.9.9 2.6.9 1.2 2.1 2.4 3.1 3.5 1.7 1.9 3.6 4 5.5 5.9 1.2 1.4 2.6 2.6 4 3.8l1.2 1.2c.5.5.4.9-.2 1.4zm20.6-26.5c-.3.5-.7 1.2-1 1.7-1.2 1.6-1 1.6-2.6.5-1.6-1-2.9-2.3-4.5-3.5-1.2-.9-2.6-1.9-3.8-2.8-.3-.2-.5-.7-.9-.9-.7-.3-1.4-.7-1.9-1-3.3-1.7-7.1-1.7-10.7-1.9-1.9-.2-3.8-.9-5.7-1.2-.5-.2-1-.3-1.6-.5.9-1.4 1.6-2.8 2.4-4.2.2-.2.7-.3 1-.3 2.4.3 5 .9 7.4 1.4 1.4.2 2.8.3 4.2.3 0-.2.2-.2.2-.3-.3-.7-.7-1.4-1-2.3-.5-1.2-1.2-2.4-1.6-3.6-.7-1.9-1.2-3.8-1.9-5.7 0-.2 0-.5.2-.7 1-1.4 2.3-2.6 3.5-4 0 0 .2-.2.3-.2.7 1.6 1.2 2.9 1.9 4.3.9 1.9 1.7 3.8 2.6 5.5 1 2.3 1.9 4.7 3.1 7.1.3.7 1.2 1.4 1.9 1.7.9.3 1.4 1.2 1.7 1.9.2.3-.2.7-.3 1.2 1.7 1.2 3.5 2.6 5.2 3.8.5.3 1.2.7 1.7 1.2 1.1 1.1.8 1.8.2 2.5zm5.6-27c-.2 3.5-1 7.1-1.7 10.6-.3 1.4-.9 2.6-1.4 3.8-.5 1.2-.5 1.2-1.7.5.2-.5.5-1 .7-1.6.5-1.4 1.2-2.9 1.6-4.3.5-3.5 1-6.9 1.4-10.4.5-5.2.7-10.2-.5-15.2-1.2-4.3-2.4-8.7-3.8-13-.7-2.1-1.7-4.2-2.6-6.2-.3-.9-.5-1.7-.7-2.4.2 0 .2 0 .3-.2.7 1 1.4 2.1 1.9 3.3.7 1.4 1 2.9 1.7 4.5.5 1.2 1.4 2.3 1.9 3.5.3.5.3 1.2.5 1.9.2 1.4.5 2.8.7 4.2 0 .2.2.5.3.5.7.3.9.9.9 1.6 0 1.7 0 3.5.3 5 .7 4.5.4 9.2.2 13.9z"/><path d="M310.6 254.2c0-.2-.2-.3-.2-.5-.9-1.7-1.7-3.5-2.8-5.2-.2-.3-.2-.7-.3-1-.9-1.7-1.9-3.3-2.8-5-.7-1.6-1.2-3.1-2.1-4.7-1.2-2.1-2.4-4-3.6-5.9-1.7-2.9-3.5-5.7-5.4-8.7-1-1.7-2.3-3.5-3.5-5.2-.5-.9-1.2-1.6-1.7-2.4-1.7-2.4-3.5-4.8-5.4-7.3-.7-.9-1.9-.9-2.8 0-.9.9-1.9 1.7-2.9 2.6-.9.9-1.9 1.6-2.8 2.4-.2.2-.3.7-.2.9.3.5.9 1 1.4 1.6.9 1.2 1.7 2.3 2.6 3.5.2.3.5.5.9.9.5.3.9.9 1.2 1.2.5.9 1 1.9 1.7 2.4 1.2 1 1.6 2.8 2.6 3.8.5.3.7 1 1 1.6.9 1 .9 1-.2 1.7-.3-.5-.7-.9-1-1.4s-.5-1-.9-1.6c-.5-.5-1-.9-1.6-1.4-.7-.7-1.2-1.4-1.7-2.1-.5-.7-1.2-1.2-1.9-1.9-.9-.9-1.6-1.7-2.3-2.6-.3-.3-1-.5-1.4-.9-.7-.9-1.4-1.7-2.1-2.6-.7-.9-1-1-1.9-.2-1.7 1.4-3.3 2.9-5 4.5-1.7 1.6-3.3 3.3-5 4.8-2.4 2.4-4.7 4.8-7.1 7.3-.9.9-.5 1.4.2 1.9 1.9 1.6 3.6 3.3 5.5 4.8 2.8 2.3 5 4.7 6.9 7.6.3.5 1 .7 1.4 1.2s.5 1.2 1 1.6c1.6 1.7 3.5 3.3 4.8 5.2 1.4 1.7 2.6 3.6 3.6 5.5 1.4 2.4 2.4 4.8 3.8 7.1.2.3.7.9.9.9 1-.2 1.2.7 1.6 1.4.2.3.5.9.9.9 1.4.3 2.8.5 4.2.7 2.6.3 5.2.5 7.8.9.7 0 1.2 0 1-.9-.2-2.3 1.2-4 2.1-5.9.7-1.6 1.4-3.3 1.9-5 .5-2.1-.3-4-1.2-5.9-.5-1-1-2.1-1.6-3.1-1-2.1-2.3-4.2-3.3-6.2-.7-1.2-1.6-2.4-2.1-3.8-.5-1.2-.9-2.6-2.3-3.3 0 0-.2-.2-.2-.5.7.3 1.2.5 1.7.9.5.3 1.2.5 1.4 1.4 0 1.2.7 2.1 1.6 2.9.3.3.9.9 1 1.4.3 1.4 1.6 2.1 2.1 3.5.3.7 1 1.2 1.6 1.9l3.6 5.7c.3.7.7 1.7 1.7 1.6 1.2-.2 2.4.2 3.6-.3 1.6-.6 2.5-1.1 2-2.7zM222.8 263.7c-.3.2-.9 0-1.4-.2-1-.7-2.3-1.2-3.3-1.9H217.5c-.5-.2-1.2-.3-1.7-.5-.9.5-1.7.2-2.1-.9-.2 0-.3-.2-.5-.2s-.2 0-.2-.2c0 .2 0 .2-.2.3-2.3-1.4-4.5-2.6-6.8-3.8-4.2-2.3-8.5-4.3-12.6-6.4-1.2-.5-2.4-1-3.8-1.4-2.4-.7-4.7-1.7-6.6-3.3-.9-.9-1.4-.7-1.9.5-1.2 2.8-2.4 5.5-3.5 8.5-.5 1.6-.9 3.1-1 4.8-.2 1.2-.2 2.6-.2 3.8 0 .9-.2 1.9.2 2.8.5 1.9 1.4 3.6 1.9 5.4.2 1 .9 1.7 1.6 2.4 3.8 3.6 8.3 6.1 13 8.1 2.3 1 4.7 1.6 7.1 2.4 2.8 1 5.5 1 8.3.7 1.7-.2 3.5-.3 5.2-.7 1.9-.3 3.6-.9 4.7-2.4.7-1 1.2-2.3 1.9-3.3.2-.3.5-.7.7-1 .7-1.7 1.4-3.5 2.3-5.2 1-2.1 2.1-4 3.3-5.9.2-.2.2-.3.2-.5-1.7-.6-3-1.2-4-1.9z"/><path d="M281.5 274.8c-.5-.7-.5-1.6-.3-2.4.2-.3.2-.9 0-1-.5-1-1-1.9-1.7-2.9-1-1.9-1.9-3.8-2.9-5.7-.7-1-1.6-2.3-2.4-3.1-.9-.9-1.4-2.1-2.4-2.9-.5-.3-.7-.9-1.2-1.4-.7-.7-1.6-1.4-2.4-2.1 0-.2.2-.2.2-.3-2.4-2.3-4.5-4.8-6.2-7.6-.2-.2-.2-.3-.2-.5l-.2-.2c-1-.2-1.4-1-1.9-1.7-1-.5-2.1-.9-2.4-2.1 0 0-.2 0-.2-.2-.2 0-.2-.2-.3-.2-.3.2-.7 0-1-.3-.7-.3-1.2-.9-1.9-1.2 0 0-.2 0-.2-.2-1-.7-2.3-1.4-3.3-2.3l-.3-.3-1 1c-1.4 1.6-2.6 3.1-4 4.5s-1.4 3.5.2 4.7c2.3 1.7 4.3 3.3 6.6 5 5.2 4.3 10.2 8.8 14.4 14.2 2.4 3.1 4.3 6.8 6.6 10 1.4 2.1 2.6 4.3 4 6.4.9 1.4 2.1 2.8 3.1 4.3.2-.5.2-.9.3-1.4 0-.5 0-1.2.2-1.7.5-1.7 1-3.5 1.7-5.2 0-.7.1-2-.9-3.2zM230.3 257.2c-.5-.9-1.2-1.6-1.9-2.3s-1.7-1.2-2.4-1.7c-1.6-1-3.3-1.9-4.8-2.8-1.6-.9-2.9-1.7-4.5-2.6-2.6-1.4-5.4-2.1-7.8-3.6-1.9-1.2-3.8-2.4-5.7-3.3-2.1-1-4.2-1.7-6.4-2.6-1.7-.5-3.6-1-5.4-1.2-1.4-.2-2.9-.2-4.2-1-.5-.3-1-.2-1.2.3-.9 1.4-1.7 2.9-2.6 4.5-.2.2.2.7.3.9 1.6 1 3.3 1.9 5 2.9 2.3.9 4.3 1.7 6.4 2.8 1.4.3 2.8.9 4 1.6l9.9 5.7c.2.2.5.3.9.5.2 0 .5 0 .9.2 1.9.9 3.6 1.9 5.5 2.9.3.2.9.3 1.2.5.2 0 .3-.2.7-.3 0-.2.3 0 .7.2-.3.2-.5.3-.7.5.9.3 1.7.7 2.6 1 1.2.3 2.4.9 3.8 1 1.2.2 2.4 0 3.5.7.5.2 1 0 1.2-.7.3-.9.9-1.7 1.4-2.8-.4-.3-.3-1-.4-1.3zM233.9 248.5c-1.4-1-2.9-2.1-4.5-3.1-1.9-1-3.8-2.1-5.7-3.1-1-.5-2.1-1.2-3.3-1.9-.3 0-.9 0-1.2-.3-.2-.2-.5-.3-.7-.5-.2 0-.2-.2-.3-.2-2.4-.9-4.7-1.9-6.8-3.5-.3-.2-.9-.5-1.2-.9-1-.7-2.1-1.2-3.1-1.7-.3-.2-.7-.2-1-.3-2.6-1.9-5-4-8.5-4.5-.5 0-1-.3-1.6-.5-1.2-.2-2.4-.5-3.8-.5-.5 0-1.2.5-1.4.9-.9 1.2-1.6 2.4-2.3 3.6-.2.3-.2.9 0 1 .7.5 1.4 1.2 2.1 1.6 2.9 1.4 6.1 2.6 9 4 2.3 1 4.5 2.3 6.8 3.3s4.5 2.3 6.8 3.3c3.5 1.6 7.1 2.9 10.6 4.3 2.8 1.2 5.4 2.4 8 3.8.7.3 1.4.3 1.7-.5.2-.3.3-.7.7-1 1.2-1.9 1.4-2.1-.3-3.3zM313.2 286.6c0-.5-.2-1 0-1.2-.3-1.6-.5-3.3-.7-4.8-.2 0-.3.2-.3.2-1.6 1.4-3.1 2.9-4.7 4.3-1.7 1.4-3.8 2.8-5.5 4.2-.2.2-.3.3-.3.5s.3.3.5.3c.5.2 1.2.2 1.9.5 2.8.9 5.7 1.7 8.5 2.6 1.2.3 1.9.2 1.7-1.2-.4-1.9-.8-3.7-1.1-5.4zM210.5 178.6c.3 1.6.5 3.1.9 4.8-1-.2-2.1-.2-3.1-.3.7-1.7 1.4-3.1 1.9-4.7.1 0 .3.2.3.2zM176.2 174.1c1.4-.3 2.8.2 4 .9 1.4 1 2.1 2.6.7 4.5-.9 1.2-1.9 2.3-2.9 3.3-.5.5-1.4.2-1.6-.5-.3-2.3-.7-4.3-.9-6.6.2-.6.6-1.1.7-1.6zM150.6 185.5c1.9 0 2.9.9 3.1 2.8 0 .3.2.7.2 1 0 .7 0 1.6-.7 2.1-.7.7-1.2 1.7-1.7 2.6-.3.5-.9.5-1.2.2-1-1.6-2.3-3.1-3.1-4.7-.3-.7-.3-1.4.7-1.7.3-.2.7-.5.9-.9.1-1.2.9-1.4 1.8-1.4zM267 334.6c0 1.4-.2 2.6-1.4 3.3-1.2.7-2.6.7-3.8-.2-1-.7-1.4-4.5-.3-5 .7-.3 1.7-.3 2.6-.3.5 0 1 .3 1.7.5 1 .1 1.2.8 1.2 1.7zM259.3 320.5v-.7c.2-.5.3-1.2.7-1.2.5-.2 1.4-.2 1.9.2.7.3 1.4.9 2.1 1.4.7.7.5 1.9-.2 2.8-.9 1.2-1.9 1.6-2.9 1.2-.9-.2-1.2-.7-1.2-1.6-.4-.9-.4-1.4-.4-2.1z"/></svg>