<svg xmlns="http://www.w3.org/2000/svg" viewBox="0 0 286 314"><path d="M243.3 136.8c.1 1.4.2 2.9.3 4.4.2 7.2.5 14.4.1 21.6-.1.9 0 1.7.7 2.4.3.3.4.9.4 1.4 0 6.2-.1 12.4-.1 18.5 0 1.3.2 2.6.3 4.1-1.5.3-2.9.4-4.4.3-2-.2-4-.3-5.9-.5-.7 0-1.3-.1-2 .1-3.9.9-7.9 1-11.8 1-6.3 0-12.5 0-18.8-.1-5.9-.1-11.8-.2-17.6-.3-4.3-.1-8.7 0-13-.1-6.2-.1-12.4-.2-18.5-.4-4.4-.1-8.8-.4-13.2-.5-1.2 0-2.5.1-3.7.2-9.3 1.1-18.6 1.6-28 1.3-5.4-.2-10.9-.2-16.3-.4-2-.1-4-.3-5.9-.6-2.4-.4-4.8-.4-7.2-.1-4.7.7-9.4.9-14.1 1-4.8 0-9.6.1-14.3-.4-1.5-.1-2.9 0-4.4 0-1.5 0-3.1 0-4.6-.1-.2 0-.4-.2-.7-.3-.1-1.2.1-2.5.3-3.7.1-.4.1-2.2 0-2.7 0-.2 0-.4-.1-.7-.2-1.1.5-2.2.1-3.5-.3-1-.2-2.2-.3-3.3-.1-1.2-.2-2.3-.3-3.5v-.9c.2-3.2.3-6.3.5-9.5.4-6.4.8-12.8.7-19.2 0-.4.1-1-.1-1.3-1-1.4-.4-3-.4-4.6 1.2-.4 2.3-.4 3.5-.4 3.1.1 6.2.3 9.3.4 2 .1 4 .1 6 .2 5.2.3 10.3-.1 15.4-.3 3.7-.1 7.4-.2 11 0 8.7.5 17.3.2 26-.4 10.4-.8 20.8-1.2 31.3-1.4 8.1-.1 16.2 0 24.3.3 3.5.1 6.9.4 10.3.6 1.1.1 2.2 0 3.3-.1 5.3-.5 10.6-.7 15.9-.6 9.3.2 18.7.3 28 .5 5.4.1 10.7.3 16.1.9.5.2 1.2.2 1.9.7m-56.9 42.9c.8.5 1.5.9 2.2 1.3.8.5 1.6.7 2.5.6 2.7-.3 5.2-1 7.1-3.1.6-.6 1.3-1.2 1.9-1.8 1.1.3 2 .6 3 .9 1 .3 2 .7 3 .8 1.8.2 3.5.3 5.3.1 1.1-.1 2.3-.3 3.4-.4.7-.1 1.3-.5 2-.9.4-.2.7-.4 1.2-.6.3.2.6.4.7.6.5 1 1.5 1.4 2.5 1.5.9.1 1.9.3 2.8.5 2 .3 1.8.9 3.8-.8.3-.2.6-.4.9-.7.9-.8 1.7-1.6 2.5-2.4.4-.4.6-.8.5-1.4-.1-1.3-.2-2.6-.8-3.9-.2-.4-.4-.8-.4-1.2-.1-1.8-.7-3.4-1.8-4.9-1.1-1.5-1.5-3.2-1.4-5v-1.3c-.1-.8-.6-1.2-1.6-1.2-.7-.1-1 .2-1.3 1-.2.6-.4 1.3-.5 1.9-1.1 4.8-3.3 9.1-6.3 13-.6.7-1.1 1.6-2.1 1.8-.9-.8-1.5-1.7-1.5-2.9 0-.7-.3-1.4-.8-2-2.3-2.6-3.5-5.7-3.3-9.3.1-1 0-1.9 0-2.9 0-.6-.5-1-1.2-1.1-.5-.1-.9.1-1.2.7-.2.4-.4.8-.5 1.2-1 2.2-1.8 4.5-3 6.6-1.7 3.1-3.6 6.1-5.4 9.1-.7 1.2-1.8 2.1-3.1 2.7-.5.2-1.2.2-1.7.4-.6.2-1.1.6-1.8.9-.2-1.3-.2-2.2.7-3.2.9-1 1.9-2.1 2.3-3.4.5-1.6 1.5-2.9 2.5-4.1 1.4-1.7 1.7-3.7 1.6-5.8-.1-1-.6-1.7-1.6-1.9-2.3-.5-4.6-.3-6.4 1.4-1.8 1.6-3.4 3.6-4 6-.6 2.2-1.3 4.4-1.1 6.7 0 .4.1.9 0 1.3s-.3.8-.5 1.2c-.3.4-.6.9-1 1.2-.5.4-1.1.7-1.7 1-.3.1-.8 0-1-.2-2.6-1.9-.9-5.8-.6-8.4.1-.9.4-1.7.8-2.5 1.3-2.1 2.5-4.1 3.4-6.4.2-.7.8-1.2 1.3-1.8.8-.9 1.4-1.9 1.6-3.1.2-.9.4-1.9.5-2.8l.9-9c0-.4.1-.9 0-1.3-.2-1-1.1-1.5-2-1.1-.5.2-1.1.5-1.5.9-1.7 1.5-3.1 3.1-4 5.2-.5 1.2-1.1 2.4-1.7 3.6-1.6 3.3-2.9 6.8-3.2 10.5l-.6 5.7c-.1.6-.3 1.1-.6 1.6-1.6 2.9-5.4 7.3-9 7.3-1.2 0-2.4.3-3.4-.4-.3-.2-.6-.5-1-.9.4-.5.7-.9 1-1.2 2.4-2.3 4.5-4.8 6.5-7.5 1.4-1.9 2.1-4 2-6.4-.1-1.2-.6-2-1.7-2.6-1.1-.6-2.3-.8-3.6-.8-2.2 0-3.8 1-5 2.7-2.5 3.5-1.4 1.7-2.8 5-1 2.4-1.8 4.8-1.9 7.4 0 .7-.3 1.2-.9 1.7-.8.6-1.6 1.3-2.2 2.1-.7 1-1.7 1.8-2.6 2.6-.2.2-.6.3-1 .4-.8-.9-.7-1.9-.7-2.8 0-2.5.3-5 .9-7.4.5-2.1 1.2-4.2 1.9-6.3.4-1.3.8-2.5.6-3.9-.2-.9-.7-1.4-1.7-1.4-1 .1-2 .5-2.9 1.1-1.9 1.2-3.5 2.6-5.1 4.2-.3.3-.6.7-1.2.3v-2.6c0-.7.1-1.5.2-2.2 0-.6-.1-1.2-.7-1.6-.9-.6-2-1-2.9-.4-2.1 1.2-4.5 1.9-6 4-.3.4-.7.8-1.1 1-.3.2-.6.2-.9.2-.5-1.1-.1-2 0-3 0-.5.3-1-.4-1.5-.3.1-.8.1-1.2.2-1.4.4-2.4 1.1-2.8 2.7-.9 3.3-2.7 6.2-5 8.7-.6.7-1.1 1.4-1.4 2.2-.5 1.3-2.5 3.5-3.7 4.2-.6.3-1.1.7-1.6 1.2-.7.7-1.5.9-2.4.8-1.2-1.6-1.3-1.8-1.2-3.4 0-2.2.7-4.3 1.3-6.5.5-1.7 1.3-3.1 2.6-4.3 1-.9 1.5-2.1 1.9-3.4-.7-.9-1.6-1.1-2.5-1.4-.3.2-.6.4-.9.7-.3.2-.6.4-1 .7-.5-.8-.9-1.4-1.3-2.1-.4 0-.7-.1-1 0-3.3.9-6 2.8-8.3 5.2-1.1 1.2-2.1 2.5-2.7 4-.8 2-1.7 3.9-2 6-.1.6-.3 1.3-.7 1.8-.8 1.2-1.6 2.4-2.5 3.6h-1.2c-1.1-.1-1.3-.2-1.4-1.3-.3-4.3-.3-8.5 1.2-12.6.8-2.1.5-4-1-5.8-.7-.9-1.5-1.3-2.7-1.1-.7.1-1.3.3-1.7.9-.3.4-.7.7-1.4.4-.1-.8.4-1.5.8-2.2 1-1.7 1.6-3.6 1.7-5.6.1-.9.2-1.8.2-2.6.1-1.7-.3-3.3-1-4.9-.8-.1-1.5-.3-2.2-.4-.5.6-1 1.1-1.2 1.7-1.3 2.9-2.9 5.8-3.9 8.9-.8 2.7-1.7 5.3-2.4 8-.8 3-2.1 5.6-4.3 7.8-.4.4-.9.7-1.7 1.4 0-1.2-.6-1.6-1.4-2-.2-.1-.5-.4-.6-.6-.6-1.1-1.3-2.1-1.9-3.2-1.3-2.7-2.1-5.5-2.2-8.5 0-.6-.1-1.3-.2-2-.9-.5-1.7-.6-2.6-.2-.3.9-.7 1.7-1 2.6-1.2 3.5-2.4 6.9-3.6 10.4-.4 1.2-1 2.3-1.7 3.3s-1.3 2-1.6 3.1c-.2.7-.5 1.2-.9 1.7-.8 1-1.4 2.2-1.3 3.8.5-.3.8-.6 1.2-.7.4-.1.6-.7 1.1-.3-.1.2-.3.4-.3.6v.4c.2.1.4.2.6.2.1 0 .3-.1.4-.2.8-.9 1.8-.8 2.8-.4 2 .8 4.1 1 6.3.6 1.3-.2 2.4-.7 3.2-1.7.9-1.1 1.8-2 2.4-3.3.3-.7 3.1-2.6 4.6-3 0 1.9-.2 3.2-1.2 4.5-.5.7-.6 1.5-.4 2.3.1.6.5.9 1 1 1.1.2 1.8-.3 2-1.5.4-3.2 1.8-6 3.5-8.7.8-1.2 1.6-2.3 2.2-3.5 1-1.9 2.5-3.2 4.2-4.4 1-.7 2.2-.2 2.3 1 .2 1.8.4 3.7.4 5.5 0 2.2-.3 4.4-.5 6.6-.2 1.9.2 3.7 1.1 5.3 1.1 2.1 3.8 2.6 5.6 1.1.9-.7 1.7-1.4 2.4-2 .8.6 1.4 1.4 2.2 1.6 2.6.8 5.1.6 7.1-1.4.3-.3.5-.6.9-.7.3-.1.7 0 1 .2.2.1.3.5.4.7 1.1 2.3 2.7 2.7 4.8 1.3.7-.4 1.4-.9 2-1.4 2.2-1.9 4.3-3.8 6.5-5.6.3-.3.6-.8 1.2-.3-.3 2.2-.6 4.4.1 6.6.8.3 1.4.3 2-.1.6-.9.5-2 .7-3 .3-1.7.4-3.4.7-5 .6-3 2.5-5.3 4.3-7.5 1.2-1.4 2.5-2.6 4.1-3.6 1.2-.7 1.4-.8 2.5.1.3.2.5.5.9.8-.2 1.4-.3 2.9-.6 4.3-.3 1.7-.6 3.3-.8 5-.1.6-.1 1.2.6 1.7.8-.1 1.8 0 2.5-.9 1-1.5 2.1-3 3.1-4.6.9-1.3 1.8-2.5 2.7-3.8.3-.4.7-.8 1.1-1.1.5-.3 1.2-.3 1.6.1.4.3.4.8.2 1.2-.1.4-.2.9-.4 1.3-1.3 4.1-2.2 8.2-2.2 12.5 0 1.5.1 3 .2 4.5 1.9 1.3 3.7 1.2 5.4.1.6-.4 1.1-.9 1.7-1.4.8-.7 1.6-1.3 2.4-1.6.9 1.1 1.6 2.1 2.4 3.1.4.5.9.8 1.5.8 2.1.1 4.1-.1 6-1.1 1.6-.9 3.1-1.9 4.6-2.9.6-.4 1.2-.9 1.8-1.3.8-.6 1.7-1.1 2.7-.7.2.1.4 0 .5 0 .2 1.1.4 2.1.5 3.1.6 3.8 5.6 4 8.1 1.9.8.2 1.1 0 1.6-.4M66.5 42.6c.5-.2.7-.3.9-.3 3.2-.1 6.3-.3 9.5-.3 2.5 0 4.9.8 7.3 1.7 2.3.9 3.5 2.6 4.1 4.9.6 2.4.9 4.9.9 7.4 0 2.4.3 4.8.4 7.3.1 1.6.1 3.2.1 4.9 0 3-.5 5.8-1.6 8.6-.3.7-.5 1.4-.6 2.1-.2 1.7-1.1 3-2.4 4.1-.7.6-1.4 1.2-2.2 1.9.2.4.3.8.5 1.1 2.5 3.4 3.2 7.4 3.3 11.5.1 3.8 0 7.6 0 11.5v9.3c0 .8.1 1.6.2 2.4.3 1.7 1.2 3 3.1 3.2.4.1.8.2 1.4.3.1 2.3.1 4.5.2 6.9-1.9.4-3.7.7-5.5 0-1.1-.4-1.8-1-2.1-2.1-.3-.8-.5-1.7-.8-2.5-1.8-4.3-2.2-8.8-2.3-13.4-.1-5.1-.1-10.3-.1-15.4 0-1.9-.3-3.8-.9-5.6-.5-1.5-1.4-2.6-3.3-2.6-.2.6-.4 1.1-.5 1.6-.1.9-.2 1.7-.2 2.6V97c.7 9.2.2 18.4 0 27.6v1.9c1 .3 1.9.7 2.8 1 .2 1.3.9 2.4.5 3.8-4.7-.1-9.4-.1-14.2-.2-.5-1.4 0-2.8-.2-4.2 1.6-.4 2.9.5 4.3.1.9-.8 1.4-1.9 1.4-3.1 0-1.3-.1-2.6-.1-4-.1-2.1-.1-4.1-.2-6.2 0-.7 0-1.5.2-2.2.4-1.1.4-2.2.3-3.3-.3-7.8-.3-15.6-.2-23.4.1-4.2-.3-8.4-.4-12.6-.2-5.8-.6-11.6-.4-17.4.1-2.3-.1-4.7-.1-7.1 0-.4-.2-.7-.3-1.1-.9-.2-1.8-.3-2.7-.5-.3-1.2.1-2.3-.1-3.5m9.4 38.5c.1.1.2.1.3.1 4.4-.6 7.1-3.5 8-7.4.5-2.4.6-4.9.7-7.4.1-2.2-.2-4.4 0-6.6.3-2.4-.1-4.7-.7-7-.3-1-.7-1.9-1.2-2.8-.4-.8-.9-1.3-1.8-1.6-1.4-.5-2.8-.9-4.1-1.3-1.3 1.1-1.4 2.5-1.3 3.9.2 1.3.3 2.6.3 3.9 0 3.5 0 6.9-.2 10.4-.3 4.8-.3 9.5-.3 14.3.2.6.3 1.1.3 1.5M125.5 274.3h-3.2c-.1-.4-.3-.7-.4-1.1-.6-3.4-1.5-6.7-1.8-10.2-.1-.8-.5-1.5-.7-2.3-.7-2.3-1.3-4.7-1.9-7-.9-3.3-1.7-6.5-2.5-9.8-.7-2.6-1.3-5.3-1.9-7.9-.3-1.3-.7-2.5-1-3.8-.4-1.9-.8-3.7-1.2-5.6-.1-.3-.2-.5-.4-1.2-.2 1-.4 1.5-.4 2.1-.2 2.4-.3 4.8-.5 7.3-.2 4.4-.4 8.8-.5 13.2-.1 3.9-.1 7.8-.1 11.7 0 3-.2 6-.2 9 0 .3.1.6.1.9.7.2 1.4.3 2.1.5.6.2.9.6.9 1.1v2.9c-.5.1-.9.2-1.4.2-.7 0-1.3-.1-2-.2-2.1-.4-4.2-.7-6.3-.8-.6 0-1.1-.2-1.8-.3v-1.6c0-.4.1-.9.2-1.4.6-.1 1.2-.3 1.9-.4.5-3.1.9-6.1.9-9.2v-4.6c-.1-3.7.2-7.3.4-11 .3-6.4.5-12.8.7-19.2.1-2.6 0-5.3.1-7.9.1-3.4-.2-6.8-.8-10.1-.6-3.4-.6-6.9-.4-10.3 0-.7.1-1.4.2-2.3 1.5-.3 2.8-.2 4.2-.1.5 0 .8.4.9.9.3 1.2.6 2.4.8 3.7.4 2.5 1 4.9 1.6 7.3.8 3 1.7 5.9 2.1 9 .4 3.2.8 6.4 1.9 9.5.5 1.4 1.1 2.7 1.8 4 .8 1.5 1.2 3.2 1.5 4.8l1.8 8.4c0 .1.2.2.4.4.1-.4.1-.7.1-1.1l.3-6.6c0-.6.1-1.2 0-1.8-.3-5.1.1-10.3 0-15.4 0-2.1.3-4.2.4-6.3.1-1.2.1-2.5 0-3.7-.2-2.5-.2-5 0-7.5 0-.3.1-.6.1-.9 0-1.1-.2-1.4-1.3-1.6-.3-.1-.7-.1-1.1-.2-.3-1.1-.3-2.2 0-3.3 3.3-.7 6.4-.2 9.6.1.3 1.6.3 1.6 0 3.2-.7.1-1.4.3-2.2.4 0 .5-.1.9-.1 1.3.1 1 .2 1.9.3 2.9.1 1 .2 2.1 0 3.1-.9 5.5-.8 11-.8 16.5 0 2.9.4 5.7.3 8.6-.1 5.6.3 11.2-.2 16.8-.5 4.9-.3 9.8-.3 14.8 0 3 .1 6 .1 9-.1.9-.2 1.9-.3 3.1M45.6 198.5c-1.5-.2-2.9-.4-4.4-.5-.1-1.1-.1-2.1-.2-3.1.8-.5 1.6-.5 2.4-.6 3.9-.2 7.9-.6 11.9-.3.4 1.3.1 2.5.3 3.9-.6.1-1.1.2-1.6.3-.5.1-1 .2-1.5.4-.1.6-.3 1.1-.3 1.6-.1 8.4-.1 16.7.2 24.9.2.2.2.3.3.3.1 0 .1.1.2.1 3.4-.1 6.8-.1 10.3-.2.1-.5.4-1 .3-1.5-.3-3.5.1-6.9.3-10.4.2-4.6.3-9.3-.1-13.9 0-.3-.1-.6-.2-.8-.7-.8-1.7-.5-2.6-.8-.4-1.2-.2-2.4-.3-3.7 2.1-.6 4.1-.1 6.1-.2s4-.1 5.9.2c.3 1 .2 1.9.1 2.9-.8.1-1.5.3-2.3.4-.8.7-1.2 1.8-1.2 2.9 0 .8-.1 1.6 0 2.4.4 4.2.2 8.4.2 12.6 0 3.1-.3 6.2-.3 9.3-.1 4.3-.1 8.7-.1 13 0 1.5-.1 2.9-.2 4.4l-.3 21.8c0 1.6 0 3.2.1 4.8 0 .3.1.6.2.8.7.6 1.5.4 2.2.4.4 0 .7 0 1.1.1.5.1.8.4.8.9 0 .9-.1 1.7-.1 2.6-.3.1-.5.3-.7.3-3.7-.1-7.3-.1-11-.2-.4-1.3-.4-1.3-.1-3.8.6-.1 1.3-.2 2.1-.4 0-.5.1-.9.1-1.3.1-3.2.1-6.5-.2-9.7-.2-3.6-.1-7.2-.1-10.8 0-1.9.1-3.8.1-5.7.1-2.4.2-4.8.2-7.3v-2c-1.1-1.4-2.5-1.8-4-1.7-1.4 0-2.8.1-4.2.1-.5 0-1 .1-1.5.3-.9.3-1.3.7-1.3 1.8 0 1.6 0 3.2.1 4.9.1 3.6.4 7.2.5 10.8.1 4 0 8.1.1 12.1v5.7c0 .9.1 1.9.3 2.9.8.1 1.5.2 2.3.2.6 1.3.2 2.7.2 4.1-.6.1-1 .2-1.4.2l-9 .3c-.9 0-1.8.1-2.5-.6v-2.9c1-.8 2.4-.3 3.6-1 .1-.2.2-.5.2-.8 0-4.3-.1-8.5-.1-12.8 0-2.3 0-4.7.1-7v-5.5c0-7.3-.1-14.7-.1-22 0-5.5.1-11 .1-16.5.2-2.7-.1-4.1-1-6.7M77.2 243v-9.7c0-3.1.1-6.2.2-9.2 0-.4 0-.9.1-1.3.6-2.3.4-4.7.3-7-.1-1.9 0-3.8 0-5.7 0-1.8-.1-3.7-.1-5.5 0-1.5.1-3.1.5-4.6.6-2.6 2.4-4.2 5-4.7 2.2-.4 4.4-.5 6.6.1.7.2 1.4.5 1.9 1 1.9 1.8 3.3 3.9 3.7 6.6.5 3.6 1 7.1.9 10.7-.1 4 .2 8.1.3 12.1.1 2.1 0 4.1-.2 6.2-.2 3.4-.2 6.9-.1 10.3.1 3.5.5 7 .3 10.6-.2 4.2-.5 8.4-.6 12.6-.1 2.8-1.4 4.9-3.3 6.7-.9.9-1.8 1.7-3.2 1.8-.4 0-.8.4-1.2.6-1.7.8-3.5.8-5.4.3-.3-.1-.6-.3-.9-.6-1.3-1.3-2.4-2.8-3.1-4.5-1.2-3.1-1.9-6.3-1.7-9.7.1-1.1 0-2.2 0-3.3l-.3-9.9c.1-1.4.2-2.7.3-3.9m6.9-9.9v11c0 4.7.1 9.4.2 14.1 0 1.6.1 3.2.1 4.9 0 1.6.6 3 1.6 4.2.6.8 1.5 1 2.1.6 1.5-1.1 2.7-2.4 2.8-4.3.1-1.1.1-2.2.1-3.3-.1-5.9-.2-11.8-.2-17.6 0-9.8.1-19.5 0-29.3 0-2.9-.3-5.9-.6-8.8-.3-2.2-1.8-3.3-4-3.3-1.2 0-1.9.7-2 1.9v1.1c0 1.2.1 2.5 0 3.7 0 2.1-.1 4.3-.2 6.4.1 6.2.1 12.4.1 18.7M50.9 127.1c1.4.8 3 .1 4.5.6.2 1.5.4 3.1.5 4.7-2.4.6-12.1 0-15.8-.6-1-1.4-.6-3.1-.8-4.9 1.4-.2 2.8.4 4-.9 0 .1 0 0 .1-.2 1.2-1.8 1.1-3.9 1.1-6-.1-5 0-10-.2-15-.4-7-.2-14-.4-20.9-.2-4.7-.4-9.4-.5-14.1-.1-4.3.1-8.7.2-13 0-2.8.1-5.6.1-8.4 0-.5-.1-1-.1-1.4-1.4-.8-2.9.2-4.2-.7-.1-1.1-.2-2.3.1-3.6.5-.1.9-.2 1.3-.2 3.5 0 7.1-.1 10.6-.1 2.7 0 5 1.1 7 2.8 1.1 1 1.7 2.2 2 3.6.6 3 .9 6.1.9 9.2 0 2.4.1 4.9.3 7.3.3 3.9.3 7.8.1 11.7-.2 2.5-1.3 4.6-2.6 6.7-.2.2-.4.5-.6.6-1.9.8-3.7 1.8-5.9 1.5-.8-.1-1.6 0-2.5 0-.1.6-.2 1-.2 1.5.1 3.4.3 6.8.3 10.1.1 4.8.2 9.6.2 14.3 0 2.4-.1 4.9-.1 7.3 0 2.3.2 4.6.4 7-.1.4.1.8.2 1.1M49.7 47c-.3 1.7-.6 3.4-.6 5.2.2 5.1.2 10.1.4 15.2.1 3.8.4 7.6.1 11.5 0 .3.1.6.2 1 .5 0 .9.1 1.3 0 .9-.2 1.8-.5 2.7-.8 1.1-.4 1.7-1.2 1.8-2.5.3-4.4.6-8.8.2-13.2-.1-1.6-.1-3.2.1-4.8.4-2.9.3-5.7.2-8.6 0-1.3-.6-2.3-1.9-2.6-1.4-.6-2.9-.8-4.5-.4M105.7 105.8c-.1.6-.3 1.3-.3 1.9 0 2.5-.7 4.8-1.1 7.2-.6 3.5-1.3 6.9-1.9 10.4 0 .1.1.3.2.5.7.2 1.4.5 2.2.8.1 1 .2 1.9.1 3-2.9-.2-5.8.1-8.6-.6-.7-.2-1-.5-1-1.2 0-.9.1-1.8.5-2.6.7-.1 1.4-.3 2.3-.4.1-.4.3-.8.3-1.2.1-1 .1-2.1.2-3.1.1-1.1.1-2.2.8-3.2.3-.5.3-1.1.4-1.7 1-6.3 1.9-12.7 2.5-19 .4-3.6 1-7.1 1.3-10.7.4-5.6 1.5-11.1 2.5-16.6.7-3.9 1.3-7.8 2-11.7.2-1 .4-2 .5-3 .5-3.9 1-7.7 1.5-11.6.2-1.4.4-2.8.6-4.1 1-.7 1.9-.4 2.9-.3.1.5.2.9.3 1.3.3 4.6.5 9.2.8 13.9.2 2.9.5 5.7.7 8.6.3 3.7.4 7.5.7 11.2.3 4.8.7 9.5 1.1 14.3.3 4 .6 7.9 1 11.9.3 2.6.7 5.2 1.1 7.9.3 2.1.6 4.2 1 6.3.5 3.1.6 6.1.6 9.2v2.3c.9.2 1.7.3 2.5.4.9.9.2 1.9.5 2.7-.5.7-1 1-1.6 1-2.5 0-5-.1-7.6-.1-.1-1.1-.1-2.2-.2-3.1.2-.2.3-.4.5-.5 1.1-.7 1.5-1.6 1.6-2.9.3-2.9.2-5.7-.2-8.6-.3-2.3-.5-4.7-.8-7-.2-1.6-.5-1.9-2.1-2.1-2.5-.4-5.1-.5-7.8.5m4.9-26.2h-.5c-1.3 7-2.1 14-3.1 21 1.6.3 4.3.3 5.9-.1.5-.9.7-1.9.4-3-1.1-4-1.5-8.1-1.9-12.1-.2-1.6-.3-3.2-.4-4.8-.1-.4-.3-.7-.4-1M158.5 246.8c1.1.2 2 .3 2.9.4 0 .3 0 .6-.1 1 .8-.1 1.6-.1 2.5-.2.1.5.3 1 .3 1.5.1 2 .1 4 .1 6 0 2.8.1 5.6 0 8.4 0 1.5.5 2.9 1.2 4.2.3.4.6.8 1 1.2.8.7 1.7.7 2.6.1 2.1-1.5 3.2-3.6 3.2-6.2 0-1.6-.1-3.2-.2-4.8-.1-1-.1-2.1-.3-3.1-.1-.7-.2-1.4-.4-2.1-.7-2.9-1.4-5.8-2.2-8.7-.6-2.2-1.2-4.4-1.9-6.6-.1-.4-.3-.7-.3-1-1.2-5.1-3-10-4.6-15-.8-2.3-1.5-4.6-2.7-6.7-.5-.8-.6-1.6-.7-2.5-.5-2.4-.4-4.8-.4-7.2 0-.8.2-1.6.2-2.4 0-1.7.7-3.1 1.6-4.5 1.2-1.9 2.7-3.4 4.6-4.6.4-.2.8-.5 1.2-.5 1.4 0 2.8-.2 4.2 0 2.8.4 4.8 2 6 4.6.7 1.6 1.1 3.1 1.1 4.9 0 3.7.1 7.5.1 11.2v2.9c0 .7-.1 1.5-.6 2.2-.4 0-.9.1-1.4.1-1 0-2 .1-3.1-.1-.1-.5-.2-.9-.2-1.3-.1-1.8-.2-3.5-.3-5.3v-1.3c.4-2.6.2-5.1.3-7.7 0-1.5-.7-2.3-2-2.8-1.4-.6-2.9-.5-4.3-.4-.4 0-.8.4-1 .7-.3.7-.6 1.5-.6 2.3 0 3.1 0 6.2.2 9.3.1 1.9.9 3.7 1.7 5.4 1.3 2.9 2.6 5.8 3.8 8.7.6 1.4 1 2.9 1.4 4.4 1.1 4.3 2.5 8.6 3.8 12.9 1.1 3.4 1.5 6.9 2.1 10.4.6 3.3.6 6.6-.1 9.8-.3 1.2-.3 2.5-.5 3.7-.3 1.7-1.1 3.2-2.4 4.3-1 .9-2 1.7-3 2.5-.4.3-.9.5-1.4.6-1.9.4-3.8.2-5.5-.8-2.3-1.4-3.9-3.4-4.9-5.7-.1-.3-.2-.7-.3-1.1-.3-3.4-.9-6.7-.9-10.1 0-3 0-6 .1-9-.2-.7 0-1.2.1-2M146.4 71.9c-1.5.2-3-.2-4.5-.2-.1-.4-.2-.8-.2-1.3.1-1.8.1-3.5.3-5.3.3-2.7.2-5.4-.4-8.1-.5-2.1-1-4.1-1.5-6.2-.2-1-.8-1.9-1.5-2.6-.8-.9-1.9-.7-2.2.5-.5 1.6-.9 3.3-1.2 4.9-.3 1.6-.3 3.2-.4 4.8-.5 7.9-.3 15.7-.3 23.6 0 7.1-.2 14.1-.3 21.2-.1 4-.2 8.1-.4 12.1-.1 1.9.3 3.7.8 5.4.1.6.4 1.1.6 1.6.3 1 1.3 1.3 2.4 1.1 2.4-.6 4.6-3.1 4.6-5.6.1-2.9.1-5.9 0-8.8 0-1.5-.3-2.9-.5-4.4-.1-.7-.1-1.5.3-2.1 1.6-.6 3.9-.8 5.4-.3 0 .1.1.3.1.4l-.6 15.6c-.1 1.5-.3 2.9-.5 4.4-.4 2.4-1.8 4.3-3.1 6.2-1 .5-1.9 1.1-3 1.3-2.3.6-4.6.4-6.9-.6-1.2-.5-1.9-1.3-2.4-2.5-.5-1.4-1.1-2.9-1.4-4.4-.6-3-.7-6.1-.4-9.2.1-.8.2-1.6.2-2.4V98.9c0-7.6.1-15.2.2-22.7 0-1.9.1-3.8.2-5.7 0-.7.1-1.3-.1-2-.4-1.9-.2-3.8-.1-5.7.1-4 .3-7.9.4-11.9 0-2 .5-3.8 1.9-5.2.5-.5 1-1.1 1.4-1.7.6-1 1.6-1.3 2.6-1.4 2.6-.3 4.8.4 6.6 2.2 1.3 1.2 2.1 2.7 2.9 4.4 1.1 2.4 1.7 4.8 1.7 7.5 0 1.8.1 3.7 0 5.5-.1 3-.3 6-.4 9 0 .2-.1.3-.3.7M212.3 102.2c1.5.3 2.9-.4 4.3 0 .3.9.5 1.9.5 2.8v14.6c0 1.7-.1 3.4-.3 5.1-.3 3.6-3.4 6.7-7.1 7-1.7.1-3.4.2-5-.3-.7-.2-1.3-.5-1.9-1.1-1.1-1.1-1.9-2.4-2.3-3.9-.5-1.9-.9-3.9-.9-5.9 0-3.8-.1-7.5 0-11.3.1-3.6-.1-7.2.1-10.8.1-3-.1-6 0-9s-.1-6 0-9c.2-4.1.1-8.2.2-12.3 0-2.5-.1-5-.1-7.5 0-4 .4-7.9 1.1-11.8.2-1 .6-1.8 1.3-2.5.3-.2.5-.5.7-.8 1.3-1.8 3.1-2.4 5.2-2.5h2c2.2 0 3.5 1.1 4.5 3 .8 1.7 1.1 3.5 1.3 5.3.3 2.4.6 4.8.8 7.2.2 2.1.2 4.3.2 6.4V72c0 .4-.1.9-.2 1.3-1.5.5-3 .4-4.6.1-.1-.6-.4-1.1-.3-1.6.3-3.7-.2-7.3-.1-11 .1-1.4.1-2.8.2-4.2.1-1.9-.2-3.7-1-5.4-.4-.8-.9-1.5-1.6-2.1-.8-.6-1.6-.7-2.2 0-.6.7-1.3.8-2.1 1.2-.3 2.7-1 5.3-.9 8 .3 5.5.2 11 .2 16.5v28c0 1.9-.2 3.8-.3 5.7-.1 3.5-.2 6.9-.2 10.4 0 2.2.5 4.2 1.6 6.1.2.3.4.7.6.9 1 1 2.6.8 3.3-.4 1.8-2.9 2.4-6.2 2.3-9.5-.1-2.9.1-5.9.4-8.8.1-.9.1-1.9.1-2.9.2-.4.2-1.1.2-2.1M230.7 80.2c1.3-.2 2.5-.3 3.9-.5.3 1.5.2 3 .2 4.4-1.4.6-2.8 0-4.1.5 0 .5-.1 1-.1 1.5 0 4.2 0 8.4-.1 12.6 0 4-.2 7.9-.3 11.9-.1 3.8-.1 7.5-.1 11.2 0 1.4.3 2.8.5 4.2 1.6.5 3.2.2 4.7.2s2.9.3 4.5-.1c.4-2.1.2-4.3.2-6.4.1-2.1.3-4.1.4-6.2.2-2.1.3-4.2.5-6.4 1.1-.4 2.1-.3 3.1.2.3 2 .1 4 .2 5.9.1 2 0 4 0 5.9 0 1.9 0 3.8.1 5.7v6.1c-.4.1-.8.2-1.2.2-4.3-.2-8.5-.6-12.8-.4-2.2.1-4.4-.3-6.6-.5-.7-.1-1-.4-1-1.2v-2.4c1-.8 2.1-.3 3.2-.8.1-.3.2-.7.2-1.1 0-.7 0-1.5-.1-2.2-.4-3.3-.1-6.6 0-9.9 0-2.4-.1-4.7-.1-7.1 0-1.2-.1-2.4 0-3.5.4-3.9.3-7.8.2-11.7-.1-4.3-.1-8.7-.2-13 0-2.4 0-4.9-.2-7.3-.4-5.3-.3-10.6-.3-15.9 0-2.4-.1-4.8-.2-7.4-1.1-.3-2.2-.5-3.3-.8v-3.8c.5-.1.9-.2 1.3-.3 5.3-.8 10.7-.4 16.1-.4h5.5c.4 0 .9.1 1.2.1.7 2.8.9 10.2.3 13.5-1.2.6-2.5.4-3.9.4-1-3.2-.7-6.6-1.1-9.8-1.8-.5-7.5-.5-10.6.1-.1.3-.1.7-.3.9-.4.4-.5.8-.3 1.2.7 2.4.6 5 .5 7.4-.1 3.8-.1 7.6.2 11.5.1 1.8-.1 3.5-.1 5.3-.1 2.1-.1 4.3-.2 6.4 0 .8.1 1.2.2 1.8M142.7 269.3c2.2.3 4.2.3 6.3.3.4-1.1.6-2.1.7-3.2.2-3.6.5-7.2.7-10.8 0-.6.1-1.1.2-1.8.6-.1 1.2-.2 1.8-.2h1.6c.5 1.7.3 3.4.4 5 .1 1.6.1 3.2.1 4.9 0 1.7-.2 3.4-.2 5.1v4.9c-.3.1-.6.2-.9.2h-19.5c-.2-1.3-.2-2.5.1-3.9 1-.1 1.9-.2 2.9-.4.1-.4.3-.8.3-1.2.3-3-.1-6-.3-9-.5-5.7-.4-11.3-.2-17 .3-7.4.4-14.7.6-22.1 0-.5.1-1 0-1.5-.7-6.2-.3-12.3-.3-18.5 0-.7.2-1.3-.4-2-.8-.1-1.8-.2-2.8-.3-.1-.9-.3-1.8-.3-2.7-.1-1 .3-1.3 1.3-1.3 2.7 0 5.5.1 8.2-.1 2.8-.2 5.6-.3 8.4-.1.6 0 1.2.1 1.8.2.8.2 1.3.7 1.4 1.5v.9c-.3 4-.5 8.1-.8 12.1 0 .4-.1.7-.2 1.1-.9.6-1.8.5-2.8.5-.5-1-.4-2.1-.4-3.1 0-2.2.1-4.4.1-6.6 0-.6-.1-1.3-.1-2.1-2.2-.3-4.3-.3-6.5.1-.2.5-.4.9-.5 1.4-.2 3.2-.6 6.3-.4 9.5 0 .6.1 1.2 0 1.8-.6 3.9-.2 7.8-.3 11.7 0 1.6 0 3.2.1 4.8 1.2.6 2.6-.1 3.8.4.2 1.7.2 3.3.1 5.1h-3.4c-.7.5-.6 1.2-.6 1.7 0 4.6.1 9.1.1 13.7 0 4.5.1 9 .2 13.5 0 1.8.1 3.5-.1 5.3-.3.7-.2 1.4-.2 2.2M175.6 43c.3 1.6.3 9.5.1 11.5-1.3.4-1.3.4-3 .1-.7-1-.4-2.1-.5-3.2-.1-1.1-.2-2.2-.3-3.2-1.5-.5-3.8-.5-5.7-.1 0 .3-.1.5 0 .8.5 4.6.5 9.3.4 13.9 0 1.3-.3 2.6-.4 3.9-.1.5-.1 1-.1 1.5 0 3.1-.1 6.2-.1 9.3 0 1 .2 2.1.2 3.1.2 2.3.4 4.5.5 6.8l.3 27.6c0 2.1-.1 4.1-.1 6.2 0 1.5.1 3.1.6 4.7h3.9c.4 1.6.1 3 .1 4.4-.3.2-.4.4-.6.4-4.5.6-9.1.5-13.7.4-.6-1.4-.3-2.8-.4-4.1 1.6-.7 3.2-.1 4.7-.7.3-1 .4-2 .3-3.1 0-1.7-.1-3.4-.1-5.1 0-2.5.2-5 .2-7.5 0-2.6-.1-5.3-.1-7.9 0-2.7.1-5.4.1-8.2v-9c-.1-6-.2-11.9-.2-17.9 0-3.2.2-6.3.3-9.5.1-3.3 0-6.6 0-10-.4-.1-.8-.3-1.2-.3-1 0-2.1 0-3.1.1-1.7.2-2.1.6-2.2 2.4-.1.8 0 1.6 0 2.4 0 .4 0 .7-.1 1.2-1 .3-1.9-.1-2.9-.3 0-1.2 0-2.4-.1-3.5 0-1.9-.1-3.8-.1-5.7 0-1.6.2-1.9 1.7-2 1.5-.1 3.1-.2 4.6 0 4.6.6 9.2.5 13.9.5 1-.2 2.1-.3 3.1.1M192.1 198.4c-1.7-.1-3.2-.3-4.6-.1-.6.7-.4 1.5-.4 2.2v2c-1.5.6-3 .2-4.5.3-.1-.4-.4-.8-.4-1.2 0-2.2.1-4.4.1-6.6 0-1.4.5-1.8 1.9-1.9h9.9c1.7 0 3.4.1 5.1.1 2.7-.1 5.4.4 8.1.8.9.1 1.6.8 2.2 1.4.4.4.6.9.3 1.4-.7 1.2-.6 2.6-.7 3.9 0 .3-.1.6-.2 1-1.3.3-2.6.2-3.9 0-.1-1-.2-1.8-.3-2.8-1.9-.4-3.8-.1-5.8-.3-.1.6-.2 1-.2 1.4-.1 6.6-.1 13.2-.1 19.8 0 1.1-.1 2.2-.2 3.3-.4 4.9-.4 9.8-.2 14.8l.3 4.8c0 1.5.2 2.9-.3 4.4-.3.7-.2 1.6-.2 2.4 0 5.4.1 10.9.1 16.3 0 .7.1 1.5.2 2.3.8.2 1.6.4 2.5.7.2 1.4.1 2.7-.2 4-2.1.2-8.1 0-9.8-.5-.1-.8-.2-1.7-.3-2.6v-1c.7-.2 1.5-.5 2.4-.7.1-.4.2-.8.2-1.2 0-1.7-.1-3.4 0-5.1l.3-8.1c0-1.8-.1-3.5-.1-5.3v-4l-.3-8.4c0-.7-.2-1.5-.1-2.2 0-3.9 0-7.8.3-11.7.3-3.9.2-7.8-.2-11.7-.3-3.7-.7-7.3-.5-11-.3 0-.4-.3-.4-.9M214.9 197.9c-.1-1.3-.2-2.4-.3-3.5.4-.2.7-.4 1-.4 3-.3 6 .1 9 .4.3 0 .5.2.8.4.1 1.1.2 2.2-.1 3.3-.9.1-1.7.3-2.7.4.1.5.2.8.3 1.2.5 1.9 1.1 3.8 1.5 5.8.6 3.3 1.4 6.6 2.8 9.7.5 1.1.8 2.3 1.3 3.5l.6 1.2c.8-.2 1.4-.5 1.6-1.3.8-3 1.7-5.9 2.4-8.9.9-3.6 1.7-7.2 2.5-10.7v-.6c-.5-.9-1.6-.7-2.4-1.2-.3-.7 0-1.4.2-2.1 1.9-.5 3.8-.1 5.7-.1 1.8 0 3.7.2 5.4.2.4 1.3.4 1.3.2 2.9-1.2.7-2.6 0-4 .5-.1.3-.3.7-.4 1.1-1.2 3.7-2.4 7.4-3.5 11.2-.8 2.7-1.4 5.4-2.1 8.1-.2.9-.4 1.7-.7 2.6-.4 1.4-.8 2.8-.7 4.3 0 .5 0 1.1-.3 1.5-.5 1.1-.5 2.3-.6 3.4 0 2.1-.1 4.3-.1 6.4 0 1.5.2 2.9.2 4.4.1 1.6.1 3.2.1 4.8-.2 4.8-.5 9.5-.7 14.3-.1 1.4-.1 2.8-.1 4.2 0 1.6.2 3.1 1.2 4.4.7 0 1.4.1 2.2.2.8 1.1.5 2.2.3 3.4-1.3.3-2.5.1-3.8.2-1.2 0-2.5 0-3.8.1-1.2 0-2.5.1-3.8.1-.6-1.2-.2-2.4-.2-3.7.5-.1 1-.3 1.5-.4.5-.1 1-.1 1.6-.2 0-.5.1-.9.1-1.3.1-2.4.2-4.7.3-7.1v-6.4c0-3.1 0-6.2.1-9.3 0-1 .4-2 .4-3.1 0-2.9 0-5.7-.1-8.6-.1-1.8-.6-3.5-1.4-5.1-.4-.7-.6-1.5-.8-2.3-.6-3-1.2-5.9-2.5-8.7-.7-1.7-1-3.5-1.6-5.3-.5-1.7-1.1-3.4-1.6-5-.7-2.2-1.4-4.5-2.1-6.7-.1-.4-.2-.7-.3-1.1-.2-.6-.6-1-1.3-1 .1.1-.5 0-1.3-.1M189.4 126.5c.7.4 1.2.6 1.7.9v2.7c-.3.1-.6.3-.9.3-2.6.1-5.1.2-7.7.3-.5 0-1-.1-1.5-.2-.1-1.2-.2-2.4.1-3.6.9-.1 1.7-.3 2.7-.5.1-.7.2-1.3.3-2 .2-4.2.5-8.4.6-12.6.1-3.9-.1-7.8-.2-11.7-.1-3.2-.4-6.3-.4-9.5 0-4.8-.1-9.7.3-14.5.1-1.7.1-3.4.1-5.1-.1-3.4-.2-6.8-.3-10.1 0-.4 0-.9.1-1.3.5-4 .5-8.1.5-12.1 0-.3-.1-.6-.1-.8-.9-.7-2.1-.1-3-1v-2.9c1.9-.6 2.7-.6 11.5.1.6.9.3 1.9.2 2.9-.6.2-1.2.3-1.8.5-.6.2-1 .6-1 1.3 0 .4 0 .9-.1 1.3-.7 7.5-.4 15-.4 22.5 0 5.3 0 10.6-.1 15.9 0 2.2-.3 4.4-.4 6.6l-.3 11.9c-.1 6.5-.1 12.9-.1 19.4.2.5.2.8.2 1.3"/><path d="M109 160.9c.3.6-.3 1.5.6 2 .2.1.2.5.2.8-.2 1.2-.3 2.5-.5 3.7-.5 2.9-2 5.4-4 7.5-.4.5-1 .9-1.6 1.2-.9.5-2 0-2.2-1-.6-3.3-.8-6.6 1.7-9.4.8-.9 1.4-2.1 2-3.2.4-.7.9-1.2 1.6-1.5.6-.3 1.4-.7 2.2-.1M63.6 161.9c.4.6.6.8.7 1 1.1 3.3 2 6.6 3.4 9.7.6 1.4-.3 2.9-1.8 3.2-1.8.4-3.7.1-5.4-.5-.3-.1-.5-.3-.7-.5-.6-.6-1.1-1.1-1.6-1.7 0-.1-.1-.3 0-.4 1.2-2.1 2.5-4.1 3.7-6.2.3-.5.5-1.1.7-1.6.1-.9.4-1.8 1-3M207.1 176.3c-.8-.8-1.9-.8-3-.9-.6 0-1.1-.2-1.6-.8.1-.2.3-.6.5-.9.2-.3.5-.7.6-1 .4-1.3 1.2-2.8 1.8-4 .2-.5 3.1-3.5 3-3.6 1.1 2.4 2.2 5.1 2.5 7.7.2 1.4-.4 2.3-1.9 2.9-.6.2-1.2.4-1.9.6M221.3 173.4l2.1-3.3c.6-.9.9-1.8 1.2-2.8.1-.5.4-1 1-1.1.6-.1 1 .2 1.3.7.8 1.1 1.3 2.3 1.1 3.6-.1 1-.2 1.9-.5 2.8-.7 2.2-2.7 3-4.9 2.5-.3-.1-.7-.4-.8-.7-.3-.5-.4-1.1-.5-1.7M161 172.9c-.2-1.2-.2-2 .2-2.9 1.1-2.2 1.1-4.7 2.3-6.9 1.3-2.4 1.6-5.1 5.1-3.8.5.2.7.7.6 1.3-.1.2-.1.4-.2.6-1.2 2.3-2.3 4.6-3.5 6.9-.8 1.5-1.8 2.8-3.1 4-.3.3-.8.5-1.4.8M191.1 172.2c-.8-.7-.8-1.5-.7-2.3.3-2.3.9-4.4 2.4-6.3.3-.4.7-.8 1.1-1 .3-.2.7-.3 1-.3.8-.1 1.2.4 1.3 1.2 0 1.6-.4 3.1-1.1 4.4-.8 1.5-1.8 2.8-3.1 3.9-.2.2-.6.3-.9.4M181.8 161.5c-.1-.3-.2-.5-.2-.6.1-.4.2-.9.3-1.3.7-1.8 1.2-3.8 1.8-5.6.7-2.1 1.8-4.1 3.4-6.1.1.5.2.8.2 1-.1 3-1.3 5.7-2.9 8.2-.8 1.3-1.8 2.5-2.1 4.1 0 .1-.3.2-.5.3M83.1 155.6c.6-4 1.6-6.9 2.8-8.7.2.4.4.6.4.9 0 .4 0 .7-.1 1.1-.6 2-1.2 3.9-2.3 5.7-.1.2-.3.4-.8 1"/></svg>