<svg xmlns="http://www.w3.org/2000/svg" viewBox="0 0 420 188"><path d="M113.9 38.6c.8-.8 1.5-1.6 2.2-2.3.9-1 2-1.6 3.5-1.6 5.1.1 10.3-.1 15.4.4 3.4.3 6.7.6 10.1.4 2.3-.1 4.6-.4 6.8-.3 2.1 0 4.2.3 6.4.5 1.1.1 1.9.6 2.7 1.4.5.6 1.2 1.1 1.7 1.8.7.8 1.4 1.7 1.5 2.9.1.6.3 1.1.6 1.6.7 1.4 1.2 2.8 1.5 4.4 0 .2 0 .4.1.7 1 2.6.8 5.4.8 8.1-.1 4.7-.3 9.4-.4 14.1-.1 4-.2 7.9-.1 11.9 0 1.9-.6 3.4-1.9 4.8l-2.5 2.5c-.5.6-1.2.8-2 .8-1.8-.1-3.5 0-5.3-.1-4.9-.2-9.9.1-14.8.2-5.3.1-10.6 0-15.9 0H121c-1.1 0-2-.3-2.9-.9-1.6-1.1-1.6-1-2.4-2.5.9.2 1.7.5 2.5.6.9.1 1.8 0 2.6 0 .9 0 1.8.1 2.6.1 5.7 0 11.5 0 17.2-.1 1.9 0 3.8-.2 5.7-.2 3.2 0 6.5.1 9.7.2.7 0 1.4.3 2.2.5 1.9-1 3.2-2.8 4.7-4.4 1.1-1.1 1.4-2.5 1.4-4 0-4 0-7.9.1-11.9.1-4.8.3-9.6.4-14.3 0-1.5 0-3.1-.1-4.6 0-.9-.1-1.7-.9-2.7-.1 2.9-.3 5.5-.3 8.2.1 6.6-.3 13.1-.8 19.6-.1 1.2-.3 2.5-.5 3.7-.2.8-.6 1.6-.9 2.4-.1.3-.4.6-.5.9-.2.8-.8 1.4-1.5 1.8-1.1.7-2.2 1.5-3.4 2.1-.8.4-1.7.6-2.5.6-2.3.2-4.6.2-6.8.3-.5 0-1 0-1.5-.1-3.9-.5-7.8-.4-11.7-.6-3.3-.1-6.6-.1-9.9-.2-1 0-1.9-.1-2.9 0-1.5.1-2.9-.3-4.3-.7-1.5-.4-2.8-2-3-3.4 0-.2-.1-.4-.1-.7-.4-4.5-.8-8.9-.7-13.4.1-4.1 0-8.2-.1-12.3-.1-3.9.3-10.6.9-14.3.4-.9.5-1.5.6-1.9m16.5 37.2c.9-1.2.9-2.5.9-3.7 0-2.5.2-5 1.2-7.5.6-.1 1.2-.2 1.9-.2 3.3-.2 6.4-.9 9.4-2.2 2.8-1.2 2.7-1.3 4-4.1 1.6-3.6.9-7-1-10.3-.3-.4-.6-.9-1-1.1-1-.5-2-.9-3-1.2-1.5-.4-3-.7-4.5-.9-1.2-.2-2.3-.3-3.5-.3-1.8 0-3.7 0-5.5.1-.6 0-1.3-.2-2 .5 0 .7 0 1.6-.1 2.5-.1 2.9-.3 5.9-.4 8.8-.1 1.3-.2 2.6-.2 4 .2 4.8.5 9.7.8 14.5 0 .4.2.8.3 1.2.8.4 1.7.1 2.7-.1M66.9 84.6H51.5c-1.9 0-3.8-.2-5.7-.4-1.1-.1-1.9-1.1-2.5-1.9-.5-.7-.6-1.6-.8-2.5-.1-.3-.2-.8 0-1.1.5-.9.3-1.9.2-2.8-.2-4.3-.4-8.7-.5-13-.1-2.6 0-5.3.1-7.9 0-2.7.1-5.4.2-8.1.1-1.9.2-3.8.2-5.7 0-1.5.6-2.7 1.9-3.6.3-.2.5-.5.8-.7 1.3-1 2.6-1.7 4.4-1.8 2.9-.1 5.7-.3 8.6-.3 3.5.1 7.1.1 10.6-.4.8-.1 1.6 0 2.4 0 2.8 0 5.6-.1 8.4 0 1.9 0 3.8.2 5.7.3.5 0 1 .3 1.4.7 1.7 1.6 3.5 3.1 4.7 5.2.8 1.4 1.4 2.8 1.5 4.3.4 3.8.7 7.6.7 11.4v17.6c.2 2.9-1 5.5-2.4 7.9-.8 1.3-2 2.1-3.6 2.7-2 .7-4 .9-6.1.7-1.6-.1-3.2-.1-4.9-.1-3.2-.1-6.5-.2-9.7-.3l-.2-.2m-9.8-12.5c1.6 1.6 3.2 2.9 5 3.9 1 .5 2.2 1 3.4.8 1-.2 1.9 0 2.8.1 1.2.1 2.3.2 3.5.3 2.1.1 3.8-.8 5.2-2.1 2.7-2.4 3.6-5.5 2.8-9-.2-1.1-.6-2.1-1-3.1-1-2.9-2.9-4.9-6-5.7-.7-.2-1.4-.4-2.1-.5-1.5-.3-3-.5-4.5-1-1-.3-2.1-.8-3-1.4-.9-.6-1.5-1.4-1.5-2.6 0-.8 0-1.6.1-2.4.1-1.1.8-1.7 1.9-1.8 2.5-.2 5-.3 7.4.6 1.1.4 2.1 1 2.8 2.1.3.5.8.8 1.2 1.2 1.2-1.5 2.6-4 2.9-5.3-.8-.9-1.8-1.3-2.9-1.7-3.9-1.4-7.9-1.6-12-1.4-1.4.1-2.5.6-3.3 1.9-.4.7-1 1.3-1.6 1.8-.6.6-1 1.3-1.1 2.1 0 1-.2 2.1 0 3.1.4 2.1 1.2 4.1 2.4 5.9.4.5.9 1 1.5 1.3 1.5.9 3.2 1.5 4.9 1.8 2 .4 4 .9 6 1.5 1.8.5 2.7 1.9 2.8 3.8 0 1.2-.2 2.3-.6 3.5-.4 1.3-1.3 2.1-2.6 2.4-2.3.5-4.7.5-7-.1-.5-.1-.9-.4-1.2-.8-1.1-1.3-2.4-2-4-2.3-1.3.8-1.4 2.1-2.2 3.1M199.7 98.7c.3.7.4 1.1.6 1.5 1.5 2.6 1.7 5.4 1.8 8.3.2 3.7.3 7.5.4 11.2v13.2c0 3.1.2 6.2.3 9.2 0 .4.1.9.1 1.3 0 .8-.2 1.6-.9 2.1-.4.3-.7.6-1 .9-1.6 1.7-3.6 2.5-6 2.1-4 .4-8.1.2-12.1.8-2.2.3-4.4.2-6.6.2h-11.7c-2.2 0-4.2-.5-6.3-1.1-1.6-.4-2.9-1.5-4.1-2.9 0-2.1-.1-4.4 0-6.7l.6-13.2c.1-3.2 0-6.5 0-9.7 0-2.1 0-4.3-.1-6.4 0-1.3-.2-2.6-.6-3.9-.4-1-.2-1.9.4-2.7.4-.5.8-1.1 1.1-1.6 1.2-2.2 3.2-3.2 5.5-3.7 1.2-.3 2.5-.3 3.7-.2 4 .3 8.1.3 12.1.2l14.8-.3c1.7 0 3.3 0 5 .8 1 .5 2.1.4 3 .6m-10.5 13.6c-.2-.4-.2-.7-.4-1-1.1-2-2.8-3.4-4.5-4.8-.4-.3-.9-.5-1.4-.6-2.3-.4-4.7-.6-7-.2-.7.1-1.4.4-2 .9-2.2 2-3.9 4.4-5.4 6.9-.4.7-.6 1.5-.8 2.3-.8 3.2-1 6.5-.9 9.9.1 2.2.5 4.4 1.2 6.5.3.7.7 1.5 1.1 2.1.4.6 1 1.1 1.5 1.6 1.3 1.4 2.8 2.3 4.7 2.5 1.5.2 3.1.3 4.6.4 3.7.2 3.9.2 6.5-2.3 1-1 1.9-2 2.8-3.1.5-.6.4-1.1-.2-1.5-.7-.5-1.5-.9-2.3-1.4l-1.1 1.1c-.8.8-1.6 1.5-2.4 2.2-1 .7-2.2 1.2-3.3.8-1.6-.6-3-1.4-4.5-2.2-.2-.1-.3-.3-.5-.5-1-1.4-1.9-2.8-2.3-4.5-.5-2.3-.6-4.5-.4-6.8.3-3.2 1.4-6.1 3.4-8.7.7-.9 1.5-1.4 2.6-1.5 2.2-.2 4.2.2 6 1.7.7.6 1.5 1.2 2.2 1.8.9-.4 1.8-.9 2.8-1.6M256.5 35.7c4.2-.5 8.2-1 12.2-1.3 4.2-.4 8.5-.6 12.8-.9 2.6-.2 5.3-.1 7.9-.2 2.7-.1 5.3.4 7.8 1 2 .5 3.7 1.7 5.5 2.8.6.4 1 1 1.2 1.8.1.7.5 1.4.9 2 .7 1 .8 2.2.8 3.4v13.5c0 5.6-.1 11.2-.1 16.8 0 1 0 1.9.1 2.9.1 1.2-.4 2.3-1.1 3.2-1 1.2-2.2 2.2-3.6 2.9-.6.3-1.3.4-1.9.4-6.9 0-13.8 0-20.7-.1-3.3 0-6.6-.2-9.9-.2-2.7 0-5.4.1-8.1.2-.9 0-1.6-.1-2.2-.8-1-1.1-2-2.2-3-3.2-.9-1-1.2-2.1-1.2-3.4v-8.4c-.1-4.7-.3-9.4-.4-14.1-.1-2.6 0-5.1 0-7.7 0-.4 0-.9.1-1.3.4-1.9.9-3.7 1.3-5.6 0-1.5.7-2.6 1.6-3.7m33.3 43.5c1.5.2 3.1.2 4.7-.2 0-2.2-.4-4.3-1.4-6.2-.4-.7-.7-1.5-1.1-2.2-.9-1.7-1.8-3.3-2.2-5.2 0-.1-.1-.3-.2-.4-.6-.5-.7-1.3-1-2-1.3-3.4-2.5-6.9-3.8-10.3-.9-2.3-1.8-4.7-2.4-7.1-.2-.7-.2-1.5-1-2.1-.8.1-1.7-.3-2.8.2-1 2.4-2.1 4.8-3.2 7.3-.6 1.3-1.1 2.7-1.7 4.1-.6 1.6-1.1 3.2-1.4 4.8-.8 3.6-1.8 7.1-3.8 10.3-.9 1.5-1.5 3-2 4.6-.3 1.2-.7 2.4-.4 3.7 1.3.3 2.4.2 3.6.1 1.1-.1 1.8-.6 2.1-1.6.2-.6.4-1.2.7-1.9.6-1.7 1.2-3.4 1.8-5.2.4-.1.7-.1 1-.1h8.6c.4 0 .8-.1 1.1.1.3.1.7.3.9.6.6 1.3 1.3 2.6 1.7 4 .5 1.8 1 3.3 2.2 4.7M230 84.2c-.6 0-1.3.1-1.9.2-6.7.4-13.5.8-20.2 1.1-3.6.1-7.2-.1-10.8-.3-1.1 0-2.2-.3-3.3-.5-1.7-.2-3.4-.4-5-.6-2.6-.3-4-1.5-4.3-4.1-.2-1.3-.3-2.6-.2-4 .2-4.9-.1-9.7-.1-14.6 0-5.1-.1-10.3-.1-15.4 0-1.2 0-2.4-.1-3.5-.1-1.6.3-3.2.7-4.8.3-1 .9-1.7 2-1.9 1.1-.2 2.3-.4 3.5-.6.6-.1 1.2-.1 1.8 0 5.9.5 11.7-.4 17.6-.6 1.5 0 3.1-.2 4.6-.3 1.6-.1 3.2-.2 4.8-.1 2.5 0 5 .2 7.5.3 2.4.1 4.4 1.2 6.1 2.7 1.6 1.5 2.3 3.6 2.3 5.8-.1 3.3-.1 6.6-.6 9.9-.5 3.7-.5 7.5-.5 11.2v13.7c0 1.3-.4 2.4-1.3 3.4s-1.6 1.9-2.5 3m-10.2-39.9c-.8-.1-1.4-.2-2-.2-6.1-.1-12.2-.1-18.2-.2-.5 1.1-.5 1.1-.5 1.9.1 4 .1 8.1-.2 12.1-.1 1.7-.2 3.4-.2 5.1 0 1.9-.1 3.8 0 5.7.2 2-1 3.9-.3 5.8.1.2-.1.4-.2.6v1.3c1.6.5 3.2.6 4.8.7 1.9 0 3.8.1 5.7.2 2.3.1 4.7.2 7 .2 1.2 0 2.3-.3 3.2-1 .4-2.2.3-2.9-.3-4.5-.6 0-1.2 0-1.9-.1l-10.6-.3c-.4 0-.8-.2-1.4-.3.9-1-.2-1.8 0-2.8.2-.8.1-1.8.1-2.6.1-.9-.1-1.9.2-2.9 2.1-.6 4.1-1.2 6.2-1.8.3-.9.5-1.8 0-2.8-.8-.1-1.5-.2-2.2-.3-.6-.1-1.2-.2-1.6-.6-.8-.6-1.6-1-2.5-1.1-.8-3.3-.9-5.1-.4-6.9h2.6c2.9 0 5.9 0 8.8-.1 1.1 0 2.2-.1 3.3-.6.4-1.5.5-2.9.6-4.5M256.8 100.2c.3.9.7 1.7.9 2.6.1.5.3 1.1.2 1.5-.5 1.4.2 2.6.7 3.8.4.9.6 1.8.6 2.7-.3 3.7-.1 7.5.1 11.2.2 3 .2 6 .3 9 .1 2.8.1 5.6.1 8.4 0 1.1-.2 2.2-.3 3.3 0 .4-.1.7-.1 1.1.1 1.6-.6 2.7-1.8 3.7-1.3 1.1-2.6 1.5-4.2 1.5-4.3 0-8.5 0-12.8.1-2.1 0-4.1.1-6.2.4-2.3.3-4.5.1-6.8 0l-9-.3c-.8 0-1.6-.2-2.4-.4l-2.1-.6c-1.9-.5-2.9-1.8-2.9-3.8 0-1 0-1.9.1-2.9.6-9.5.5-19 0-28.4-.2-3.1-.6-6.1-.8-9.2-.1-1.1 0-2.2-.1-3.3 0-.9.4-1.3 1.2-1.6 1.1-.4 2.3-.5 3.5-.6 1.6-.1 3.2-.1 4.8-.2 4.8-.3 9.7-.6 14.5-.8 5.2-.2 10.4-.2 15.7-.3.7 0 1.5 0 2.2.1.3 0 .7.1.8.3.8 1.4 2.3 1.7 3.5 2.5 0 0 .2.1.3.2m-9.9 6.5c-2-.1-3.6-.2-5.2-.2-.8 0-1.5.2-2 .8-.6.7-1.3 1.4-1.8 2.2-1.1 1.5-2 3.2-3.4 4.6-.3.3-.5.7-.7 1.1-.3.9-.9 1.5-1.6 2.1-.5.4-.9.9-1.5 1.2-.6.3-1 1-1.7 1.9-.1-2.6-.4-4.8-.5-7.1 0-2.3.1-4.5-.4-6.8-1.6-.2-3.1-.4-4.7 0-.3 2.3-.4 4.4 0 6.6.5 2.5.6 5.1.6 7.7 0 6 .1 11.9-.4 17.9 0 .6-.2 1.2.3 1.7 1.3 0 2.7.5 4.2 0 .1-.9.2-1.7.2-2.6.1-1.5.2-3.1.1-4.6-.1-2.5.4-4.6 2.4-6.3.4-.3.7-.8 1-1.2.3-.3.5-.7 1.3-.5 1.7 2.4 3.7 4.7 4.6 7.7.2.6.4 1.1.6 1.6.7 1.5 1.3 2.9 2 4.4.2.5.6.9 1.2.9 1.5.1 3 .2 4.7-.2-.2-.5-.3-.9-.5-1.3-1.4-2.8-2.7-5.6-4.3-8.4-1-1.7-2-3.4-2.7-5.3-.4-1-.9-1.8-1.4-2.7-.2-.4-.5-.9-.8-1.3.7-1.1 1.3-2.2 2.1-3.2 1.8-2.5 3.6-5 5.8-7.2.7-.7 1.3-1.4 1.9-2.2.3-.3.4-.7.6-1.3M270.8 97.8c1.2 0 2.3-.1 3.4 0 4.9.4 9.8.5 14.8.3 5.1-.2 10.3-.1 15.4-.2 1.5 0 2.9-.1 4.4-.2.8 0 1.6-.1 2.4 0 1.4.1 2.4.6 3 2.1 1.1 2.9 1.8 5.7 1.7 8.8l-.3 18.5v5.9c-.1 2.1-.2 4.3-.3 6.4 0 .9-.1 1.8 0 2.6.1 1.3-.5 2.2-1.3 3.1-1.8 1.8-1.8 1.8-4.3 2.2-2.5.4-5 .4-7.5.4-4.1 0-8.2 0-12.3.4-2.5.3-5 .1-7.5-.2-2.5-.4-5-.5-7.5.1-1.9.4-3.5.1-4.7-1.5-.4-.6-.9-1.2-1.4-1.7-.5-.6-.7-1.3-.7-2-.4-7.2-.5-14.4-.4-21.6 0-3.7.1-7.4.2-11 0-4.3 1-8.3 2.9-12.4m29.5 10.3c-.4-.1-.6-.2-.8-.2-4.6-.3-9.2-.7-13.9-1h-2c-.6 0-.9.4-.9 1 0 1 .1 1.9.1 2.9.1 5 .1 10 .2 15l.3 11.2c0 .5.2 1 .2 1.5.6.1 1.1.1 1.6.1 3.3.1 6.6.1 9.9.6 1.9.3 3.8-.2 5.9-.7-.3-1.5 0-2.9-.5-4.3-2.3-.1-4.4-.1-6.5-.1-.6 0-1.2 0-1.8.1-1.3.1-2.4-.2-3.6-.8-.2-1.4 0-2.9 0-4.4 0-1.4-.3-2.9.2-4.3 1.9-.2 3.7.3 5.6-.4-.2-1.5.4-3-.1-4.5-1-.1-2-.1-2.9-.2-1-.1-2 .2-2.9-.2-.6-3-.7-5.5-.3-7.1 4-.7 8-.1 12-.7.6-1.3.5-2.3.2-3.5M89.4 100.5c.5 1.3.7 2.7.6 4.1-.3 4.3-.2 8.5.1 12.8.2 2.9.3 5.9.4 8.8 0 2 0 4-.1 5.9-.2 3.4-.6 6.9-.7 10.3-.1 1.8-.9 3-2.6 3.7-2.3.9-4.5 1.7-7 1.8-3.7.1-7.3.5-11 .6-3.5 0-7.1-.3-10.6-.4-3.3-.1-6.6-.3-9.9-.3-1.4 0-2.8-.3-4-1-1.2-.6-2.3-1.3-3.5-1.9-.2-2.5-.3-4.9-.3-7.3 0-3.7.1-7.4.1-11 .1-2.8.1-5.6.3-8.4.3-3.3 0-6.6-.8-9.8-.6-2.5-.3-4.8.7-7.1.2-.4.4-.8.8-1 1.9-1.2 3.8-2.1 6.2-2 3.3.2 6.6.1 9.9.2h1.1c4.7.6 9.4.1 14.1.2 3.4.1 6.8.1 10.2.2 2 .1 4.1.3 6 1.6m-35.9 38.8c1.6.1 3.1.6 4.7-.1v-1.6c-.1-2.4-.2-4.8-.3-7.3 0-1.8.1-3.5.6-5.2 3.2-.5 6.3-.6 9.4-.3 1 .1 2 .2 3.1.4.6.1.9.7.9 1.3-.1 1.2-.3 2.5-.3 3.7 0 2.4.2 4.7.3 7.1 0 .3.2.5.3.9 1.4.1 2.8.5 4.2-.1.1-.6.2-1.1.3-1.7.2-2.3.3-4.5.5-6.8.1-1.5.4-2.9.5-4.4.3-3.7.5-7.5.7-11.2.1-1.7 0-3.4 0-5.1 0-.8-.1-1.6-.5-2.5-1.6.3-3.3-.4-5 .4-.3 2.1-.6 4.2-.8 6.4-.2 2.2-.3 4.4-.4 6.5-3.6.8-9.1.6-12.6-.3 0-.4-.1-.8-.1-1.2v-8.6c0-1.1-.2-2.2-.4-3.3-1.6-.2-3.1-.4-4.6 0-.5 1.7-.3 3.4-.4 5.1-.4 4.1-.3 26.1-.1 27.9M121.4 147.6l-13.5.3c-2.4 0-4.9.1-7.3-.5-.4-.1-.7-.1-1.1-.2-1.3-.4-1.5-.7-1.6-2-.1-3.5-.1-6.9-.2-10.4v-1.3c-.6-4.5-.4-9-.4-13.4 0-4.2 0-8.4.1-12.6 0-1.2.2-2.5.3-3.7.3-2.3 1.6-4.1 3.2-5.6.7-.6 1.5-1 2.4-1 1.1 0 2.2 0 3.3.1 4.9.4 9.7.1 14.6.2.6 0 1.2-.1 1.8 0 .5.1 1.1.2 1.4.6.5.9 1.3.9 2.1.9 3.1-.1 6.2-.2 9.3-.4 1.7-.1 3.4-.1 5.1-.1 1.5 0 2.7.7 3.4 2 .6 1.1 1.1 2.2 1.4 3.5.8 3.3.9 6.5.9 9.8 0 5.4-.3 10.7-.7 16.1-.3 3.9-.5 7.8-.4 11.7 0 1.4-.3 2.6-1.5 3.5-.6.4-1.1 1-1.6 1.6-.7.9-1.6 1.2-2.7 1.2h-4.6c-3.5-.2-7.1-.2-10.6 0-1.2-.3-2.1-.4-3.1-.3 0-.1 0-.1 0 0m14.3-8.8c-.5-2.2-1-4.2-1.5-6.1-.3-1.1-.6-2.1-1-3.2-.7-1.9-1.5-3.7-2.2-5.5-1.3-3.6-2.6-7.2-4.3-10.6-.1-.3-.2-.5-.3-.8-.5-1.5-1.1-3-1.6-4.6-.3-.9-1-1.5-2-1.4-.7 0-1.3.1-2 .1-1.1 0-1.8.5-2.1 1.6-.5 1.8-1 3.7-1.6 5.5-1.2 3.8-2.7 7.5-3.9 11.3-1.3 4-2.2 8.1-3.4 12.1-.2.6-.4 1.3.2 1.9 1.5 0 3 .1 4.4-.3 1.3-1.7 1.5-3.8 2.3-5.5 4.2-1.4 8.6-1.5 11.4-.2.5 1.8 1 3.5 1.6 5.4 2-.1 3.8.6 6 .3M327.2 83.7c-.2-.3-.3-.4-.3-.4-1.1-2.1-1.3-4.3-1.2-6.6.1-5.4 0-10.7 0-16.1 0-1.5.1-3.1.2-4.6.3-4.8.9-9.5.2-14.3-.3-2 .5-3.6 1.6-5.1.2-.3.7-.6 1.1-.6 4.4-.3 8.7-1.1 13.2-1 4.9.1 9.8-.2 14.8-.3 1.5 0 2.9-.1 4.3.4.7.3 1.4.2 2.2.2 1.8.1 3.5.2 5.3.2 1.1 0 2 .4 2.7 1.2 0 .1.1.1.2.2 1 1.1 2 2.1 2.9 3.3.9 1.3.4 2.9.5 4.3.1 1.9.1 3.8.2 5.7.2 4.5.5 9.1.7 13.6.1 2.1.2 4.1.3 6.2.1 1.2 0 2.5.3 3.7.2.9-.1 1.9-.2 2.8-.1.6-.4 1.3-.6 1.9-.6 1.9-2.1 3.1-3.4 4.5-.2.2-.5.3-.8.3-1.2.1-2.5.3-3.7.4-4.3.1-8.5 0-12.8.1-3.2 0-6.3.2-9.5.3-4.3.1-8.7.3-13 .5-1.8.1-3.5-.4-5.2-.8m15.7-6.3c.5-.6 1.2-1 1.5-1.7.4-.9.6-1.9.7-2.9.1-1.3.1-2.6.2-4 0-.8.2-1.4.7-2 .4-.5.7-1.1 1.2-1.6.2-.3.5-.5.9-.8.3.4.4.6.6.8 1 2 2 3.9 3 5.9 1.2 2.4 2.2 5 3.8 7.2.4.5.8.8 1.4.8 1.5 0 2.9-.3 4.3-1-.8-2.4-2.4-4.2-3.5-6.4-1.1-2.3-1.8-4.7-3-6.9-1.1-2.1-1.4-4.6-2.6-6.7.3-.5.6-1 .9-1.4l5.7-7.8c1.1-1.6 2.1-3.2 3.2-4.8.5-.8 1.1-1.6.9-2.8-.6 0-1.3 0-1.9-.1-1-.1-1.7.2-2.3.9-1 1.1-2 2.2-3.1 3.1-1.8 1.5-3.1 3.3-4.2 5.3-.8 1.5-1.8 3-2.7 4.5-.6 1-1.4 1.7-2.5 2.1-.4.1-.8 0-1.3 0 .1-1.2.2-2.3.2-3.4 0-.8.1-1.6-.1-2.4-.3-1.4-.3-2.8-.4-4.2 0-1.2-.1-2.5-.1-3.7 0-.4-.2-.8-.3-1.3-1.7-.1-3.3-.3-4.9.1-.1.3-.1.6-.2.9-.1 2.1-.1 4.3-.1 6.4 0 6-.1 11.9-.4 17.9-.1 2.6 0 5.3 0 7.9 0 .5.2 1 .3 1.5 1.2.3 2.5.4 4.1.6M374.1 121l.3 15.2c0 1 .2 2 .2 3.1.1 1.3-.2 2.5-1.2 3.4-.9.9-1.8 1.9-2.7 2.9-.5.6-1.2.8-2 .8-3.2-.1-6.4.3-9.6.9-3.4.6-6.9.5-10.3.3-5.1-.3-10.1-.3-15.2-.1-2.3.1-4.7.2-7 .3-1.6 0-2.2-.5-2.5-2.1-.8-3.8-.9-7.7-.7-11.6.2-4.8.5-9.7.7-14.5l.3-9.9c0-1.2-.1-2.5-.3-3.7-.2-1.2 0-2.3.5-3.4.3-.7.7-1.3 1.1-1.9.9-1.5 2.1-2 3.9-1.8 3.2.4 6.5 0 9.7-.1 2.9-.1 5.7-.3 8.6-.4 2.9-.1 5.7-.2 8.6-.3.7 0 1.4-.1 2 .2 1.3.6 2.6.6 3.9.6 2.6 0 5.1.4 7.5 1.4.5.2 1 .4 1.4.6 1.7.8 2.6 2 2.6 4 .1 4.9.2 9.8.4 14.8-.2.2-.2.8-.2 1.3m-37.6-13.2c0 .5-.1 1-.1 1.5.1 3.1.2 6.2.2 9.3l.3 17.9c0 .6.1 1.2.1 1.8.1.5.4.8.9.8 1.8.1 3.2-.5 3.3-2.6.1-2.3.3-4.5.5-6.8.1-.9.2-1.9.3-3 1.9-.1 3.8-.2 5.6-.1 1 .1 1.6.7 2 1.5 1.1 2.3 2.2 4.6 3.3 7 .5 1.1.9 2.3 1.3 3.5h2.1c.6 0 1.3.2 1.9-.3-1.3-4.2-2.9-8.3-5.1-12 .2-.2.3-.4.4-.4 2.6-1.5 4.5-3.5 4.9-6.6.1-.6.3-1.1.4-1.7.1-1.2.2-2.5.3-3.7 0-1-.3-1.9-1-2.6-.9-.9-1.8-1.7-2.8-2.5-.5-.4-1.1-.7-1.8-.8-1.7-.3-3.5-.6-5.2-.7-3.8-.2-7.6.1-11.4.5 0-.2 0-.1-.4 0m6.8 31.7v.1h.2v-.3c-.1.2-.2.2-.2.2"/><path d="M205.9 103.8c.8-.2 1.2.3 1.3.9.1.9.2 1.8.1 2.6-1.2 11.2-1.3 22.5-1.1 33.7 0 2.7.2 5.4.4 8.2.1 1.1-.3 2-.9 2.9-.4.5-.9.9-1.6 1.1-1.1.3-2.2.7-3.4 1-.6.2-1.3.2-2 .2-3.4.1-6.8.2-10.1.4-1.9.1-3.8 0-5.7-.2-2.8-.3-5.6-.3-8.4-.4-3.7-.1-7.4-.1-11-.1-1.3 0-2.5-.2-3.3-1.3-.3-.4-.9-.7-1.5-1 .3-.2.4-.5.6-.4 6 0 12.1-.1 18.1.2 4 .2 8 .5 12.1.3 2-.1 4.1-.3 6.2 0 1 .2 2.1-.1 3-.3 1.3-.3 2.5-.8 3.7-1.3 1.4-.6 2-1.9 2.1-3.4 0-1.1-.1-2.2-.1-3.3-.1-2.9-.3-5.9-.3-8.8v-11.7c0-3.2.2-6.3.3-9.5 0-.9.1-1.8.3-2.6.5-2.5.4-4.9 1.2-7.2M236.1 42.2c.7-.1 1 .2 1.1.5.5 1.7 1.1 3.3 1.1 5.1 0 5.4 0 10.9-.1 16.3-.1 5.2-.2 10.4-.3 15.7v5.3c0 1.2-.4 2.3-1 3.3s-1.4 1.6-2.6 1.8c-1.5.1-2.9.3-4.4.5-.4 0-.8 0-1.1.1-1.8.8-3.7.6-5.6.6-3.8 0-7.6.2-11.5.1-4.1-.1-8.2-.5-12.3-.7-2.3-.1-4.5-.3-6.8-.4-.3 0-.6-.1-1-.1-.4-.7-.9-1.4-1.3-2 .2-.6.6-.6 1-.5 2.3.1 4.5 0 6.8.3 2.8.4 5.7.4 8.6.6 4.7.2 9.4.1 14.1 0 1 0 2.1 0 3.1-.1.5 0 1.1.1 1.5-.1 2-.8 4-.8 6.1-1.1 2.7-.4 4.1-1.6 4.4-4.4.2-2.3.3-4.5.2-6.8-.1-.7-.1-1.3 0-2 .1-4.9.3-9.8.3-14.8.1-5 0-10 .1-15-.3-.7-.4-1.4-.4-2.2M377.6 42.9c.9 0 1.2.5 1.4 1 .2.8.4 1.6.5 2.4.2 3 .3 6 .4 9 .1 4.6.2 9.2.2 13.9-.1 4.2-.4 8.4-.5 12.5 0 .7.1 1.5.2 2.2.3 2.2-1.1 4.7-3.2 5.5-.2.1-.4.1-.6.1-1.9.1-3.8.3-5.7.4-5.2.1-10.4.1-15.7.1-5.1.1-10.1.2-15.2.4-2.2.1-4.2-.5-6.2-1.2-1.1-.4-2-1.1-2.3-2.4.7-.5 1.3-.1 1.8.1 1.4.5 2.8.6 4.3.5 2-.1 4-.1 6-.1 8.8-.1 17.6-.3 26.5-.4 1.2 0 2.5-.2 3.7-.2 3.1-.1 4.8-2.9 4.6-5.4-.3-3 0-5.9.1-8.8.2-4.6.3-9.1.2-13.7-.1-4.8-.2-9.5-.4-14.3-.2-.5-.1-1-.1-1.6M95.4 42.6c1.3 1.3 1.7 2.5 1.6 4-.1 1.8-.2 3.5-.3 5.3v1.8c.9 8.9.8 17.8.8 26.7v3.5c0 2.7 0 2.7-1.3 5.3-2.3.9-4.8 1.4-7.4 1.3-3.7-.1-7.5-.3-11.2-.4l-12.1-.3c-3.4-.1-6.8 0-10.1-.1-1.2 0-2.5-.2-3.7-.3-.4-.1-.9-.2-1.2-.5-.5-.5-1-1.1-1.6-1.8.5-.2.8-.5 1.1-.4 5.8.4 11.6.1 17.4.2 2.9 0 5.9.3 8.8.4 2.3.1 4.6.2 6.8.3 2.7.2 5.3-.4 7.9-.4.4 0 .7-.2 1.1-.1 1.7.3 2.4-.6 2.9-2 .3-.9.6-1.8.6-2.8v-6-13.7c0-1.2-.1-2.5-.2-3.7-.2-2.9-.6-5.9-.5-8.8-.1-2.3-.3-4.8.6-7.5M377 104.6c1.2 1.7 1.7 3.5 1.6 5.4 0 .8-.1 1.6-.3 2.4-1.1 3.8-1.1 7.7-.8 11.6.4 4.5.3 9.1.3 13.7 0 3.5-.1 6.9-.1 10.4 0 1-.4 1.7-1.3 2.1-1.3.6-2.5 1.3-3.8 1.8-.6.2-1.3.3-1.9.3-5.9.3-11.9.6-17.8.8-1.2.1-2.4.1-3.5 0-2-.1-4 .3-5.9 0-.9-.1-1.7-.3-2.6-.4-.6-.1-1.2-.2-1.7-.2-3.2.2-6.1-.9-8.9-2.2-.2-.1-.4-.2-.6-.4-.3-.3-.8-.6-.6-1.1.2-.5.7-.4 1.1-.3 1.4.3 2.7.8 4.1 1 1.5.2 3.1.3 4.6.4h.4c1.7.1 3.2 1.2 4.9.4 1.7 0 3.4.1 5.1 0 1.5 0 2.9-.2 4.4-.3 2.3-.1 4.5-.3 6.8-.4.1 0 .3-.1.4 0 1.4.6 2.8 0 4.1 0 .9 0 1.9-.1 2.8-.1 1.3 0 2.5-.2 3.6-.8.9-.5 1.8-1 2.7-1.4 1-.5 1.4-1.2 1.4-2.3 0-4.1.1-8.2.1-12.3 0-4.9-.1-9.7-.5-14.5-.2-2.4.1-4.7.6-7 .5-1.9.8-3.7.6-5.7 0-.2 0-.4.1-.7.3 0 .4 0 .6-.2M91.7 106.2c1.3 1 1.9 2.2 1.8 3.7-.1 1.3-.3 2.6-.3 4 0 4.8.2 9.7.6 14.5.2 2.7.3 5.4.4 8.1.1 1.9.1 3.8.1 5.7 0 2.8-.2 5.6-.8 8.3-.1.4-.2.9-.4 1.3-.4.8-1 1.3-1.9 1.3h-1.3c-4.8-.2-9.7-.4-14.5-.5-1.8 0-3.5.1-5.3.2-1.8.1-3.5.2-5.3.2-2.8.1-5.6-.1-8.3-.6-2.5-.5-5-.8-7.5-.7-1.5.1-2.6-.4-3.4-1.5-.2-.3-.5-.5-.6-.7.1-.6.5-.7.8-.7 2.2.1 4.4 0 6.6.4 3.7.7 7.4.9 11.2.9 4.5-.1 9-.2 13.4-.2 3.6 0 7.2.2 10.8.3h1.1c1.6 0 2.3-.6 2.5-2.2.6-3 .8-6 .8-9 0-6-.4-11.9-.8-17.8-.2-3.5-.3-7.1-.2-10.6 0-1.4.3-2.9.5-4.4M274.3 150.6c.4-.1.6-.1.8-.1 5.4.1 10.7-.4 16.1-.1 2.9.2 5.9.1 8.8.2 2.2 0 4.4.1 6.6.1 2.5 0 5-.1 7.5-.2.7 0 1.3-.2 1.9-.4 1.2-.3 1.6-.9 1.7-2.2 0-1.6.1-3.2.1-4.9 0-3.6.1-7.2.4-10.8.1-1.7.1-3.4.1-5.1v-10.6-8.6c0-.8-.1-1.6-.2-2.6.4.2.7.3.8.5 1 1.7 1.4 3.6 1.4 5.5 0 2.5.1 5 .1 7.5v13c0 .7 0 1.5-.1 2.2-.2 4.8-.4 9.6-.6 14.3 0 .7-.1 1.5-.1 2.2.1 1.8-.7 2.1-2 2.3-1.9.3-3.8.5-5.7.6-2 .1-4 0-6 0-6.7-.1-13.4-.3-20.1-.4-2.6 0-5.1.2-7.7.2-1.9.1-2.6-.4-3.8-2.6M216.1 150.4c1.1.2 2 .4 2.8.5.9.1 1.8 0 2.6.1 2.9.1 5.7.2 8.6.4 2 .1 4 .4 5.9.5 2.9.1 5.9.1 8.8.1 1.2 0 2.5 0 3.7.1 2.9.2 5.7-.1 8.5-.8.6-.2 1.3-.3 2.4-.5.1-.2.4-.8.9-1.1 1.5-1 1.9-2.3 1.8-4-.2-3.6-.2-7.2-.4-10.8-.3-6.6-.3-13.2-.2-19.8 0-1.7.1-3.4.2-5.1 0-1.1.4-2.1 1.1-3.2 1.1.9 1.9 1.8 1.5 3.2-1 3.6-.7 7.3-.8 11-.1 4.3.1 8.5.2 12.8.1 3 .3 6 .4 9 .1 2.3.1 4.6.1 6.8 0 .8-.3 1.4-.9 1.9-1.1 1.1-2.5 1.8-4 2.2-2.3.6-4.6 1.1-7 1.1-4.3 0-8.7 0-13-.1-1.8 0-3.7-.3-5.5-.4-1.5-.1-3.1-.3-4.6-.3l-8.1-.3c-1 0-1.9-.3-2.6-.9-.7-.7-1.7-1.3-2.4-2.4M103.6 149.7c.8 0 1.4 0 1.9.1 3 .6 6.1.6 9.2.6 4 0 8.1-.1 12.1.4 2 .2 3.9.1 5.9-.2 2.8-.4 5.6-.5 8.4 0 3.3.6 3.5 0 5.4-2 1.2-1.2 1.7-2.6 1.8-4.4.5-9.3.4-18.5.3-27.8 0-2.3-.2-4.6-.4-6.8-.2-1.8-.4-3.5-1.1-5.2-.2-.4-.1-1-.2-1.8.5.5.7.6.8.9 1.5 3.6 2.6 7.4 2.8 11.3.2 5.6.3 11.2 0 16.8v.9c.4 5.2-.2 10.4-.3 15.6 0 .4-.1.9-.3 1.3-.9 1.6-2.1 2.9-3.5 3.9-.2.2-.5.2-.8.3-.5 0-1 .1-1.5 0-3.5-.8-7-.3-10.5.1-1.2.1-2.3.1-3.5.1-2.6-.1-5.1-.4-7.7-.5-2.6-.1-5.3-.1-7.9 0-2.5.1-5-.3-7.5-.6-1.7-.4-2.5-1.5-3.4-3M261 85.7c.7.3 1.3.6 1.7.9 1.1.7 2.3 1 3.6 1 2.2 0 4.4.2 6.6.2.5 0 1 0 1.5-.1 3.2-.6 6.4-.6 9.7-.5 1.1 0 2.2-.1 3.3-.1 1.6-.1 3.2-.2 4.8-.2 2.2 0 4.4-.1 6.6 0 1.6 0 3.1-.3 4.6-.7 1.9-.5 3-1.8 3.3-3.7.3-2.4.4-4.8.6-7.2.3-2.6.3-5.1.2-7.7V53.5c0-3.1-.2-6.2-.4-9.2 0-.4 0-.9.1-1.3 0-.1.2-.2.3-.2.1 0 .3 0 .4.1.2.2.3.3.4.5.2.8.4 1.6.5 2.4.4 3.1.9 6.2.8 9.4-.1 2.9 0 5.9 0 8.8 0 3.4.2 6.8 0 10.1-.1 2.7 0 5.4-.5 8.1-.2.9-.1 1.9-.2 2.9-.3 2.2-1.6 3.5-3.7 4.2-1.3.4-2.7.6-4.1.6-4.6 0-9.1.2-13.7.3-2.6.1-5.3.1-7.9.2h-.2c-3.6.6-7.2.1-10.8.2-1.1 0-2.2-.3-3.1-.9-1.1-.7-2.3-1.4-3.4-2.1-.5-.5-1.1-.8-1-1.9M132.6 59.3c-.2-.3-.3-.4-.3-.5v-1.1c.2-2.6.3-5.1.5-7.6.7-.4 1.4-.6 2.2-.5 1 .1 2.1.3 3.1.1 2.7-.3 5.1 2.8 5.2 5.2V56c0 1.3-.8 2.3-2 2.5-1.4.2-2.7.5-4.1.9-1.6.3-3.1.1-4.6-.1M280.5 54.3c.3.5.5.8.6 1.1.8 2.6 1.5 5.2 2.2 7.8.1.3 0 .6 0 .9-.2.1-.5.2-.7.2-1.9-.1-3.8-.3-5.8-.4 0-.3-.1-.6 0-.8l3-7.5c.2-.5.4-.8.7-1.3"/><path d="M126.4 127.1c-2.6.4-5.1.5-7.8.6 0-.5 0-.8.1-1.1 1-3.6 2-7.3 3.1-11.2.8.7 1.1 1.4 1.4 2.1.7 2.2 1.5 4.4 2.2 6.6.2.9.6 1.9 1 3M342.3 121.3c0-2.3-.1-4.3-.6-6.3-.2-.8-.1-1.7-.2-2.6.6-.5 1.2-.9 1.2-1.8 1.7-.3 3.3-.1 4.8.3.9.2 1.9.3 2.7.8 1.8 1 3.6 2 3.9 4.4.2 1.6-.3 2.9-1.6 3.9-1.7 1.2-3.4 2.2-5.7 1.9-1-.2-2 0-3.1-.1-.3-.1-.8-.3-1.4-.5"/></svg>