<svg xmlns="http://www.w3.org/2000/svg" viewBox="0 0 384 248"><path d="M315.5 155.7c-.3 1.7-.6 3.2-.9 4.7-.7 0-1.3.1-1.8.1-2 0-4 0-6-.2-2.6-.3-5.3-.1-7.9-.1-1 0-2-.3-3-.4-.9 0-1.9.2-2.8.2-8.4-.3-16.8-.7-25.2-.5-5.4.1-10.9.4-16.3.6-.6 0-1.2.1-1.7.4-.9.5-1.8.5-2.8.5-5.6-.3-11.2-.1-16.8.1-4 .2-7.9.5-11.9.2-.6 0-1.2 0-1.5-.6-.3-.5-.8-.4-1.2-.4-2.1 0-4.3-.1-6.4.1-1.7.1-3.1-.5-4.2-1.6-1.8-1.8-4.2-2.7-6.2-4.2-.5.8-.3 1.4-.4 2v2.4c0 .9-.5 1.4-1.3 1.5-.2 0-.4.1-.7.1h-9.3c-1.4 0-2.8-.2-4.1.4-.4.2-1 .1-1.5.1-1.2 0-2.4.1-3.5 0-5.2-.4-10.3.1-15.4.2-1.2 0-2.5 0-3.6-.1-2.7-2.5-5.9-4.2-8.6-6.4-2.7-2.2-5.6-4.2-8.3-6.3-.7.6-.6 1.1-.6 1.6-.1 2.3-.1 4.6-.1 6.8 0 1.6-.4 2.1-2 2.3-.8.1-1.6.2-2.4.2-3.8 0-7.6-.1-11.5-.2-1.2 0-2.3-.2-3.3-1l-.3-.3c-1.1-.6-2.3-1.4-3.5-1.2-.9.1-1.7.9-2.5 1.4l-1.8 1.2c-1.7 1.3-3.7 1.7-5.8 1.7-2.7.1-5.4-.1-8.1-.7-3.7-.8-7.1-2.4-9.5-5.6-.5-.7-1.1-1.3-1.8-2.1-1.7 1.2-3.5 2.1-4.8 3.5-.2.2-.4.5-.6.6-2.4 1.3-4.6 3-7.1 3.9-.8.3-1.6.5-2.3.6-3.5.2-7.1.3-10.6-.2-3-.4-5.7-1.6-8.2-3-1.8-1-3.4-2.2-4.8-3.9-1.6-2-3.7-3.5-5.5-5.4-1.6-1.6-3.1-3.4-4.4-5.2-1.5-1.9-2.7-4-4.1-6-.1-.2-.2-.4-.3-.7 1-1.3 2.4-2.1 3.6-3.2 1.2-1.2 2.5-2.3 3.8-3.4 1.2-1.1 2.4-2.2 3.5-3.3l3.5-3.5c.3.2.6.4 1 .7 1.9 1.3 3.7 2.7 6 3.2.5.1.9.5 1.4.7.3.1.7.1 1.2.2 0-.6.2-1.2 0-1.6-.4-1.1-.8-2.2-1.4-3.2-1.8-2.8-3.6-5.5-5.4-8.3-.4-.7-.7-1.5-1-2.2-.9-2-2.6-3.3-4.2-4.8-.7-.7-1.3-1.4-1.8-2.2-.5-.8-1.1-1.6-1.6-2.4-1.1-1.8-1.7-3.7-2.3-5.7-1.3-4.5-2.4-9-2.4-13.6 0-1.4.1-2.8.1-4.2.1-3.2 1.3-6 2.9-8.7.7-1.2 1.8-2.2 2.8-3.1 2.2-2 4.6-3.6 7.4-4.6.5-.2 1-.3 1.5-.3 2.9-.2 5.7-.3 8.6-.4 2.7 0 5.2.7 7.5 2.2.7.5 1.5.8 2.3 1.3 1.1.6 2.1 1.2 2.9 2.3.7.9 1.7 1.6 2.6 2.4 3.2 3 6.4 6.1 9.3 9.4.5.6 1 .8 1.7.8 1.3.1 2.6.2 4 .2 5.4.1 10.7.1 16.1.2 5.3 0 10.6 0 15.9.1 1.9 0 3.8.3 5.7.5.2 0 .5 0 .6.1 2.7 1.2 5.6 1.7 7.9 3.8 1 .9 2.2 1.6 3.6 2.1.6-1.9-.1-3.8.4-5.5.6-.6 1.4-.5 2.1-.5 1.9 0 3.8.2 5.7.2 5.3 0 10.6.2 15.9-.2.4 0 .9 0 1.3-.1 3-.7 6-.6 9-.6 2 0 4 0 6-.1 1.7-.1 3.4.1 5 .6 2.3.7 4.7 1.3 6.9 2.4.1.1.3.1.4.1 2.9.5 5.1 2.5 7.7 3.6.5.2.8.6 1.2 1 .9.9 1.9 1.6 2.9 2.2.7-.2.7-.7.7-1.1V85c0-.2.1-.4.1-.7 1-.4 2.1-.4 3.2-.3 2.6.3 5.1.6 7.7 1 1.9.3 3.5 1.1 4.8 2.5.4.5 1 .9 1.6 1.4.7-1.2.4-2.4.6-3.5.1-1.1.2-2.2.2-3.3.5-.6 1.2-.4 1.8-.4 4.9-.3 9.9-.5 14.8-.2 9.7.4 19.4.5 29.1.5 5.2 0 10.3.7 15.2 2.1 2.1.6 4.2 1.3 6.2 2.3 2 1 3.9 2.4 5.8 3.6.3.2.6.4 1 .7.1-.4.3-.6.3-.8.1-1.8 1-3.3 1.9-4.6 1.1-1.6 2.6-3 4.1-4.3 1.3-1.1 2.9-1.6 4.7-1.5 3.6.1 7.2-.2 10.8.3 1.4.2 2.6.7 3.9 1.4 2.9 1.7 5.4 3.8 7.3 6.6 1.4 2 3.4 3.5 5.1 5.1.9.9 1.9 1.6 2.8 2.4 1.6 1.3 2.4 3.1 2.8 5.1.6 3.2 1.2 6.5 1.6 9.8.4 3.1.9 6.3 1.1 9.4.5 8 .3 16-2 23.8-.2.6-.3 1.3-.4 1.9-.4 2.5-1.4 4.6-3.2 6.4-.7.7-1.3 1.4-1.8 2.2-1.6 2.3-3.9 3.7-6.4 4.9-2.2 1.1-4.4 1.1-6.7.8-3.6-.3-6.9-1.4-9.9-3.3-.3-.2-.7-.3-1.4-.6m-229.3-69c-1.1-2.4-2.8-4.6-4.4-6.2-.9-.9-1.9-1.4-3.1-1.5-1.1 0-2-.3-3-.8-1.6-.7-3.2-1.1-4.9-1.1-3.7 0-7.1 1.3-10 3.5-1.5 1.1-2.7 2.5-3.9 3.9-.5.5-.9 1.2-1.2 1.8-.8 1.7-1.6 3.5-2.4 5.2-.4.9-.6 1.8-.7 2.8-.1 1.8-.1 3.7 0 5.5.1 1.4.4 2.8.8 4.1.3.9.8 1.7 1.2 2.6 1 2.2 2.3 4.3 4 6 .5.5.9 1 1.3 1.5 1.3 2.1 3.1 3.9 4.6 5.9 1.1.5 1.3 1.7 2.1 2.5 1.4 1.5 2.9 2.9 4.2 4.5 1.7 2 3.3 4.2 3.5 7 .2 2.4.3 4.9-.3 7.2-.2.7-.4 1.4-.8 2.1-.6 1.1-1.6 1.7-2.9 1.5-.5-.1-1-.1-1.5-.1-2.1.1-4.1-.4-5.9-1.6-1.5-1-2.8-2.1-4.3-3.1-1.8 1.1-6.4 5.8-7.6 8.1 1.8 1.6 3.4 3.6 5.8 4.5.3.1.6.4.9.6 1.4 1.1 3.1 1.7 4.8 2.1 1.8.4 3.6.5 5.5.7 6.1.4 11-2.2 15.1-6.5 1.4-1.5 2.5-3.3 3.1-5.3.2-.7.6-1.3.9-2 .5-1.1 1.1-2.3 1.1-3.5 0-2.5 0-5-.6-7.4-.4-1.7-.7-3.5-1.4-5.1-1.1-2.4-2.3-4.7-3.8-7-2.6-4-6.2-7.3-9-11.1l-.3-.3c-1.4-1.4-2.9-2.7-4.2-4.2-1-1.1-1.8-2.3-2.7-3.5-.7-1-1.2-2.2-1.2-3.5-.1-1.9.3-3.5 2.1-4.5.7-.4 1.3-.9 2-1.3.5-.3 1-.5 1.6-.7.7-.3 1.5-.2 2.1.4 1.1 1 2.2 2 3.3 2.9.7.5 1.1 1.4 2.2 1.6 2.5-2.9 4.7-6 7.9-8.2m7.1 10.5c-.7 3.4-1.3 6.6-1.6 9.8-.5 4.6-.5 9.3-.1 13.9.2 2.6.2 5.1.2 7.7 0 3.7 0 7.4.2 11 .2 3.3.9 6.5 2.6 9.5l2.1 3.6c.4.7 1 1.2 1.6 1.8 1.6 1.6 3.6 1.9 5.7 2.1 4.8.5 9-.9 12.8-3.8 3.1-2.4 4.8-5.5 5.4-9.3.1-.9.3-1.7.5-2.6.7-3.2 1.2-6.5 1.4-9.8.4-9.6 0-19.1-.9-28.7-.2-1.6-.2-3.2-.4-4.8-.1-1.1-.6-1.5-1.6-1.3-2.4.4-4.8.4-7.3.3-.6 0-1.1.1-1.8.2v1.4c.2 2.4.5 4.8.5 7.3.1 5.3.2 10.6-.4 15.9-.1.7 0 1.5.1 2.2.6 3.6.3 7.2-.1 10.8-.1 1.3-.4 2.6-.7 3.9-.1.7-.4 1.3-1.1 1.5-1.4.5-2.8.8-4.2.6-.2-.3-.3-.4-.4-.6-1.7-4.2-2.8-8.5-2.8-13.1 0-5.3.1-10.6.3-15.9.1-3.7.4-7.3.2-11-.1-.9-.1-1.8-.8-2.6-3.1-.1-6.1-.3-9.4 0m188-2.4c-.1 1.2-.1 2.2-.4 3.1-.2.8-.3 1.6-.2 2.4.5 4.1.6 8.2.5 12.3-.1 5.4-.3 10.9-.3 16.3.1 8.7.3 17.3.5 26 0 .3.2.7.3 1 2.3.1 4.5.2 6.7.2.9 0 1.8-.1 2.7-.5.1-.4.2-.9.2-1.3.1-2.3.3-4.7.3-7-.1-4.9-.3-9.8-.5-14.8 0-.6.1-1.3.1-1.9.7-.3 1.1 0 1.5.4 2 1.9 3.8 3.9 4.7 6.5.1.3.2.5.4.8 1.3 2.4 1.9 4.9 2 7.6.1 2.3.1 4.7.1 7.1 0 .5.1 1 .1 1.6 1.9.1 3.6 0 5.4.1 1.8.1 3.6.4 5.5.6.1-.4.1-.6.2-.9.1-2.4.1-4.7.2-7.1 0-.4 0-.7-.1-1.1-.8-4.6-2-9-3.9-13.3-.4-1-.8-2.1-1.4-3-.8-1.5-2-2.7-3.5-3.6-1.5-1-1.5-2-.2-3.2.3-.3.6-.5.9-.7 1.6-1.4 3.1-2.9 4.3-4.7 1.3-1.9 2.7-3.9 2.7-6.4 0-1.4.1-2.8 0-4.2-.1-2.6-.8-4.8-2.4-6.9-1.7-2.2-3.7-3.6-6.3-4.2-.7-.2-1.4-.3-2.1-.5-.9-.2-1.9-.3-2.8-.7-5-1.4-10-.8-15.2 0m-43.7 61.3c3 .4 5.8.5 8.6.4 1.2 0 1.8-.8 1.9-2.1.1-1.5.1-2.9 0-4.4-.1-4.4-.3-8.8-.4-13.2-.1-3.7 0-7.4.1-11 0-.7.1-1.5.1-2.2.2-2.5.5-5 .6-7.5.1-3.8.1-7.7.1-11.5 0-2.4 0-4.9-.6-7.2-.8-1-1.9-1-3-.8-2.3.3-4.5.5-6.8.8-.3 0-.6.2-1 .3.3 5.1 1 10.1.6 15.1-1.8.7-3.6.7-5.5.7-.8-1.2-1.3-2.4-1.2-3.8.1-1.2.2-2.5.2-3.7.1-2.5.1-5 .1-7.5 0-.4-.2-.8-.3-1.4-3.6.3-7-.7-10.6.3v1.9c-.1 4.1-.2 8.2-.4 12.4-.2 4.4-.5 8.8-.8 13.2-.1 1.4 0 2.8-.1 4.2-.2 3.2-.3 6.3 0 9.5.1.9 0 1.9-.1 2.9-.2 2.1-.3 4.1.1 6.1.4 2.1.6 4.2.4 6.4 0 .5-.1 1 0 1.5 0 .4.2.8.4 1.2 1.6.1 3.2.3 4.7.3 1.6 0 3.2.2 4.7-.5.6-1.4.5-2.8.3-4.2-.2-2-.1-4 .1-5.9.2-3 .4-6 .7-9 .3-3.2.6-6.4.9-9.7 0-.4.3-.8.4-1.2 1.9-.1 3.6-.6 5.5-.2v2.3c.1 1.8.1 3.5.2 5.3.1 1.8.5 3.5.6 5.2.2 5.3.3 10.6-.6 15.8 0 .2.1.6.1 1.2m-31.8-28.3c.2-.1.4-.4.6-.4 2.5-.7 4.1-2.4 5.6-4.4.2-.2.3-.5.5-.7 2-2.3 2.8-5.1 3.1-8.1.2-2.7 0-5.4-.1-8.1-.1-2.1-.8-3.9-1.7-5.6-.5-.9-1.1-1.7-2.2-2.1-1.5-.5-3-1.2-4.5-1.7-.8-.3-1.7-.4-2.6-.5-2.1-.1-4.2-.4-6.4-.1-.4.1-.9.1-1.3 0-2.2-.5-4.4-.3-6.6-.3-1.5 0-2.9.3-4.4.5-.6.1-.8.6-.8 1.2 0 .2 0 .5.1.6.9 1.9 1 4 1 6 .1 4.4.2 8.8.2 13.2 0 6.3-.1 12.6-.1 19 0 5.9-.1 11.8-.1 17.7 0 .4 0 .9.1 1.3.1.7.5 1.1 1.1 1.2.6.1 1.3.1 2 .2.6.1 1.3-.1 1.7.2 1.2.8 2.3.3 3.4 0 1-.2 1.3-.7 1.3-1.7 0-1.2-.1-2.5 0-3.7.1-3.8.1-7.6.2-11.5 0-2.1.5-4.1 1-6 1.1-.3 1.9.1 2.5.7.8.8 1.5 1.6 2.2 2.4 2.1 2.6 3.9 5.3 4.6 8.7.4 1.9.7 3.8 1 5.6.2.9.4 1.9.5 2.8.2.9.3 1.8.5 2.9 1.5-.1 2.9-.2 4.3-.3 1.4-.1 2-.6 2.3-1.9.1-.3.1-.6.1-.9.3-3.9.1-7.8-1.2-11.5-.1-.3-.2-.7-.3-1.1-.3-2.2-1.2-4.3-2.5-6.1-1.7-2.4-3.3-4.8-5.3-6.9.2-.1.2-.3.2-.6m106.2-6.7h-.2v3.8l.3 6c.4 5.7 2.2 10.9 4.6 16 1.5 3.1 4 5.2 7.2 6.5 3.1 1.3 6.3 1.1 9.5.6.6-.1 1.1-.4 1.6-.7 3-1.6 4.9-4.1 6.3-7.1 1.2-2.6 1.7-5.5 2.4-8.2.3-1.1.4-2.3.6-3.5.5-3.4.4-6.9.4-10.4.1-4.3-.1-8.5-.8-12.7-.5-3-1.2-5.9-2.4-8.7-.3-.7-.7-1.4-1.2-2.1-2-2.8-5-4.3-8.2-5.2-3.1-.9-6.3-.7-9.4-.6-.7 0-1.4.3-2.1.6-2.5 1.2-4.1 3.3-5.3 5.7-.9 1.9-1.5 3.8-2 5.8-.7 2.7-1.2 5.5-1.2 8.3 0 1.9 0 3.9-.1 5.9M139.5 133c.7-.1 1.3-.2 1.8-.2 1.6 0 3.1-.4 4.4-1.1 1.6-.9 3.2-1.8 4.7-2.8 1.8-1.2 3.1-2.9 4-4.9.5-1.1 1.1-2.2 1.8-3.3.8-1.3 1.2-2.6 1.3-4.2.2-3.8-.2-7.6-1-11.4-.2-.9-.7-1.8-1.1-2.6-.3-.6-.8-1.2-1.2-1.8-1.1-1.6-2.2-3.1-4.1-3.8-.3-.1-.7-.3-.9-.6-1.9-1.5-4.3-1.9-6.6-2.3-3.1-.6-6.3-.5-9.5-.4-1.7.1-3.3.4-5 .6-.7 1.7-.8 3.4-.8 5.2 0 4.1.1 8.2.1 12.3 0 .7 0 1.5-.1 2.2-.6 5.1-.5 10.3-.6 15.4 0 4.6.1 9.3-.1 13.9-.2 3.6-.2 7.2 0 10.8 0 .5.2 1 .2 1.4 3.2.2 10.1-.1 11.5-.5.3-2.3.2-4.8.4-7.2l.6-7.5c.1-2.3.1-4.7.2-7.2m133.1-5.1c-.4-3.6-.3-7-.3-10.4 0-.3-.1-.7-.2-1.1-3.3-.5-6.7.1-10-.5-.1-.7-.3-1.4-.3-2 0-2.6.1-5.3.1-8 .7-.1 1.3-.2 1.8-.2 3.4-.1 6.8-.1 10.1-.2.7 0 1.5-.1 2.2-.2.7-.1 1.1-.6 1-1.2-.2-2.3-.5-4.7-.8-7-.1-.5-.3-.9-.5-1.4-2.2-.3-4.4-.6-6.4-.2-2.3.5-4.7.5-7 .5-3.3 0-6.6 0-9.9.1-.5 0-.9.2-1.4.3.1 2.7.3 5.1.3 7.6l.3 16.1v12.8c.1 4.1.3 8.2.4 12.3.1 3.1.1 6.2.1 9.3 0 .5.2 1 .2 1.4h23.1c.1 0 .3-.1.4-.2.5-2.9.3-5.9 0-8.8-.8-.7-1.6-.6-2.4-.6-2.7.1-5.4.1-8.2.2-.9 0-1.7.2-2.5-.1-.9-.9-1.1-2-1.1-3.1v-12.6c0-.7.1-1.4.2-2 .8-.6 1.6-.5 2.3-.5h6.8c.6-.2 1.1-.2 1.7-.3m-94.3-.5c.3-2.7.2-7.7-.2-9h-8.9c0-.1-.2-.4-.2-.7-.3-4-.6-7.9-.9-11.9 0-.3.1-.7.1-1 .3-.1.5-.1.7-.2 2.9 0 5.9 0 8.8-.1.4 0 .9 0 1.3-.1.6-.1 1.1-.5 1.2-1.2.1-.5.1-1 .1-1.5v-3.8c0-.6-.1-1.3-.1-2.1-.8 0-1.4-.1-2-.1-1.8 0-3.7.1-5.5.2-3 .1-6 .1-9 .2-1.2 0-2.3.1-3.5.5-.1.5-.2.9-.2 1.3-.3 4.8-.4 9.7-.3 14.6.1 1.9 0 3.8 0 5.7 0 1.2-.1 2.5-.1 3.7 0 5.4.1 10.9.1 16.3 0 3.2-.2 6.3-.4 9.5-.1 2.1-.3 4.1-.4 6.2-.1 1.4.3 1.9 1.7 1.9 1 .1 1.9.1 2.9.1 5.2 0 10.3.3 15.4.9.3 0 .5-.1 1-.1v-4.2c0-1.4.4-2.8-.3-4.2-1 0-1.9 0-2.9-.1-1.5-.1-2.9-.1-4.4-.2-.4 0-1.1-.2-1.2-.5-.4-1-1.4-.9-2.1-1.3 0-.5-.1-.9 0-1.2.5-2.8.4-5.7.3-8.6-.1-2.1.1-4.3.1-6.4 0-.8.2-1.5.9-1.9.7-.4 1.4-.8 2.2-.8h3.5c.9.1 1.5.1 2.3.1m142.8-43.2s.1 0 .1-.1h-.3c.1 0 .1 0 .2.1"/><path d="M325 36c.1 1.1.1 1.9.2 2.7l.6 6.6c.2 2.9.2 5.7-.2 8.6-.3 2.3-.2 4.7-.2 7v7.5c0 .5-.1 1-.2 1.5-.3 1.4-.6 2.8-.9 4.5-.2 0-.6.2-1.1.2l-23.6.3c-1.4 0-2.8.3-4.2.4-.7.1-1.3.1-2 .1h-6.6c-1.6 0-3.2.1-4.8.2-1.3.1-2.6.1-4 .1-2 0-4-.1-6 0-2.7.1-5.3-.2-7.9-.5-1.7-.2-3.4-.3-5.1-.3-6.9 0-13.8 0-20.7.1-2.3 0-4.6.2-6.8.3-.6 0-1.2.1-1.7-.2-1.1-.5-2.3-.5-3.5-.5-8.1 0-16.2 0-24.3.1-6 0-11.9.2-17.9.3-1.3 0-2.6.2-4 .2-3.2 0-6.3-.2-9.5-.2h-14.3c-1.1 0-2.1-.1-3.2-.4-1.3-.4-2.8-.5-4.1-.5-3.3 0-6.6.2-9.9.2-4 .1-8.1.1-12.1.1-10.2.1-20.5.1-30.7.1-1.3 0-2.6.1-4 .2h-1.9c-.1-.6-.2-1.1-.2-1.6-.2-4.8-.2-9.7-.6-14.5-.6-6-.4-12.2-.6-18.4v-3.4c.4-.1.8-.2 1.2-.2 4.5-.3 9-.1 13.4.3 6.7.6 13.4.8 20.1.6 3 0 6 0 9-.2 3.6-.2 7.2-.5 10.8-.6 3.6-.1 7.2-.2 10.8 0 4.9.3 9.7.3 14.6.3 7-.1 14-.3 21-.5 3.7-.1 7.5-.3 11.2-.3 10.4-.1 20.9-.2 31.3-.2h48.8c11.6 0 23.2.1 34.9.1 2.4 0 4.7-.1 7.1-.1h1.8M93.1 72.9c1.7.3 3.1.1 4.5.1 3.7-.1 7.4-.2 11-.2 1.8 0 3.7-.1 5.5.5.3.1.7.1 1.1.1 2.3 0 4.6-.1 6.8-.1l6.6-.3c8.2-.1 16.5-.1 24.7-.2 12.4-.2 24.9 0 37.3 0 1.4 0 2.8.3 4.2.4.5.1 1 .2 1.5.1 1.2-.2 2.3-.1 3.5.1 1 .1 2.1.2 3.1.2h18.8c2.4 0 4.9 0 7.3-.1 1.8-.1 3.5-.3 5.3-.3 6.4-.1 12.8-.1 19.2-.1 4.8 0 9.6-.1 14.3.3 1.8.2 3.7.3 5.5.4 1.7.1 3.4 0 5.1.4.5.1 1 0 1.5 0 1 0 2.1-.1 3.1-.1 4.6 0 9.3.1 13.9 0 3.1 0 6.2-.3 9.3-.4 4.7-.2 9.4-.3 14.1-.3 1.3 0 2.4-.3 3.3-1.2 0-1.3-.1-2.5-.1-3.6-.2-4.1.4-8.2-.4-12.3v-.7c0-2.4 0-4.7-.1-7.1-.1-2.9-.1-5.7-.3-8.6 0-.5-.2-1-.4-1.5-2.3 0-4.5-.2-6.7-.1-5.1.2-10.3.4-15.4 0-6.9-.5-13.8-.6-20.7-.5-5 0-10 0-15 .1h-6.4c-4.7-.1-9.4.3-14.1.1-1.5-.1-2.9.1-4.4 0-2.9-.2-5.9 0-8.8.1l-17.4.3c-4.7 0-9.4-.1-14.1 0-4.2.1-8.4.3-12.6.4-2.6.1-5.2.2-7.7 0-2.1-.1-4.3 0-6.4.1-3.4.1-6.8.3-10.1.3-3.7 0-7.5-.2-11.2-.4-4.5-.3-9.1-.4-13.7-.5-7.9-.2-15.9 0-23.8-.2-6.5-.2-13.1-.1-19.6-.1-.8 0-1.6-.2-2.5.3 0 .4-.1.8-.1 1.2.2 2.5.3 5 .5 7.5.1 1.2.3 2.3.5 3.5.2 1.7.4 3.4.5 5 .1 1.2.1 2.6-.2 3.7-.4 1.4-.3 2.7-.1 4.1l.6 4.8c0 1.6.2 3.1-.3 4.8m68.8-34.4l.1.1c.1 0 .3 0 .4-.1l-.1-.1c-.1.1-.3.1-.4.1M167.1 193.1c-.2 1.8.9 2.9 1.8 4 .2.3.8.4 1.2.3.9-.1 1.8-.2 2.5-.6 1.4-.9 2.7-1.9 3.4-3.4.7-1.4 1.5-2.9 2.1-4.3 1-2.1 1.9-4.1 2.8-6.2l.3-.6c1-2 2.9-2.2 4.4-.5.1.2.3.3.5.5.5-.1 1-.1 1.5-.2.8-.1 1.6-.2 2.4-.1 2.1.1 2.9.9 2.8 3.1 0 1-.2 1.9-.9 2.7-1.3 1.7-1.9 3.6-2.8 5.5-.3.7-.5 1.5-.3 2.4.3 1 1.1 1.4 2 .9.9-.5 1.6-1 2-1.9.5-.9 1-1.8 1.6-2.6.7-1.1 1.2-2.3 1.5-3.7.4-1.7.8-3.4 1.4-5.1.4-1.3 1.5-2 2.8-2 .6 0 1.3.6 1.4 1.2.1.6 0 1.2-.1 1.7-.6 2.7-.8 5.4-.6 8.1 0 .1.1.2.2.4.4.2.7-.1 1-.3.7-.7 1.4-1.3 1.9-2.1.9-1.4 1.7-2.9 2.5-4.5-.9-1.3-1.4-2.7-1.2-4.4.2-2 .8-2.8 2.7-3.2.8-.2 1.6-.2 2.4-.1 1.1.1 2 .8 2.6 1.9.4.8.9 1.5 1.5 2.4-.1.3-.2.8-.4 1.3-.4.9-.6 1.8-.8 2.7-.3 1.1-.7 2.2-1.3 3.2-2.1 3.5-4.7 6.7-7.7 9.6-.8.8-1.7 1.4-2.6 2.1-.7.6-1.6.6-2.5.8-.3 0-.6-.1-.8-.2-.5-.2-.9-.4-1.3-.7-1-1.3-.8-2.9-1.2-4.5-1.4.5-2.3 1.4-3 2.4-.5.8-1.2 1.3-2 1.7-.4.2-.9.4-1.4.4-.9.1-1.9.2-2.8.3-1.6.2-2.3-.3-2.7-1.8-.3-.9-.6-1.8-.8-2.7-.5-2.5-.1-5 1-7.3.3-.6.5-1.2.8-1.8-.4-.5-.8-.4-1.2-.1-.3.2-.5.5-.7.8-1 1.8-1.9 3.6-2.9 5.4-.4.7-.9 1.3-1.3 2-2.7 3.7-2.8 3.8-7.1 5.5-1.5.6-3 1.1-4.7 1.1-2.3 0-3.8-1.1-4.8-2.9-.8-1.5-1.3-3-1.2-4.8.1-2.2.3-4.4.8-6.6.4-2 1.7-3.7 2.8-5.5 1.1-1.7 2.7-2.6 4.3-3.7.2-.1.4-.3.6-.3 1.5-.2 3.1-.3 4.6.3 1.9.7 2.4 1.4 2.4 3.5-.1 2.2-.8 4.2-2.1 6-.7 1-1.6 1.7-2.7 2.2-1.3.6-2.5 1.2-3.8 1.7-.3.2-.5.4-.8.6m5.4-8.7c-.6-.5-.9-.2-1.3.1-1.4 1-2.3 2.3-3 4 .9.5 1.5 0 2-.5 1.1-1 1.7-2.3 2.3-3.6M256.7 194.4c2.6.9 2.3 1.5 1.4 3.4-1.1 2.1-2.5 3.7-4.6 4.9-2.3 1.4-4.6 1.2-6.9.1-1.2-.6-2.1-1.5-2.7-2.8-.2-.5-.5-.9-.8-1.4-.4.3-.8.6-1.1.9-1.3 1.4-2.9 1.9-4.7 2.1-1.1.1-2.2.1-3.2.5-.4.2-1 .2-1.5 0-1.4-.4-2.8-.9-4.1-1.5-1.5-.7-2.8-.7-4.1.2-.7.5-1.6.8-2.2 1.4-1.1 1.1-2.4 1.3-3.8 1.2-1.5-.1-2.7-.6-3.7-1.7-.8-.9-1.3-1.9-1.4-3.1 0-.8-.1-1.6-.3-2.4-.3-1.2-.2-2.3.2-3.5.7-2 1.5-4 2.3-6 .2-.6.5-1.2.7-1.9.7-2 1.4-2.5 3.6-2.4.9.1 1.8.1 2.6.3.3 0 .7.2 1.1.3.1 1.1-.4 1.9-.6 2.8-.8 3.1-1.6 6.2-2.5 9.4-.2.8-.1 1.6.2 2.4.3 1 1.3 1.3 2.1.5.5-.5 1-1.1 1.3-1.7.6-1.1 1-2.3 1.5-3.4 1.2-3.6 2.8-6.9 5.2-9.9.9-1.2 1.9-2.2 3.4-2.6.4-.1.8-.4 1.2-.6 2-1 3.9-1 6-.3.5.2.9.5 1.1 1 .9 2.6-1.3 5.4-3.6 5.3-.3 0-.6-.1-.9-.1-1.7 0-3 .5-3.6 2.3-.4 1.2-1.1 2.4-1.6 3.6-.5 1.3-.7 2.7-.2 4.1.2.6.5 1 1.1 1.3 2.2 1 4.3.5 6-.9 2.7-2.2 5-4.8 5.6-8.4.1-.7.5-1.4.9-2 1.3-2 2.7-4 4-6.1 1.1-1.9 2.8-2.5 4.8-2.6 1 0 2.1.1 3.1.3 1.4.2 2.2 1.2 2.7 2.4.3.7.2 1.5-.2 2.1-1.7 2.8-3.5 5.6-5.6 8.1-.8.9-1.7 1.6-2.6 2.4-.9.8-1.8 1.5-2.7 2.2-.9.8-.7 2.2.5 2.6.6.2 1.1.3 1.3 1 .1.2.5.3.8.3.9 0 1.8-.3 2.4-1 .6-.7 1.3-1.4 1.9-2.2-.2-.2 0-.6.2-.9m-2.2-11.5c-1.3-1-1.9-1-2.6.1-.6 1-1.3 2-1.8 3-.3.5-.8 1.1-.4 1.8 1.4-.8 3.4-2.8 4.8-4.9"/><path d="M161.3 175.7c.7-2.6 1.3-5.1.7-7.8-1.7-.7-3.2-.3-4.5.4-1.3.6-2.2 1.8-2.6 3.2-.5 1.8-1 3.7-.8 5.6.1 1 .2 2 .6 3 1.3 2.9 2 6 2.5 9.1.6 3.5.6 7 .1 10.5-.2 1.7-.9 3.1-1.8 4.4-.6 1-1.4 1.9-2.2 2.8-1.2 1.2-2.4 2.4-3.8 3.4-3 2.1-6.3 2.1-9.7.7-1.5-.6-2.6-1.6-3.4-3-.6-1.2-.7-2.6-.6-3.9.1-2 .7-3.9 1.7-5.7.7-1.3 1.7-2.2 3.5-1.8 0 .4.1.8 0 1.2-.1.6-.3 1.1-.4 1.7-.1 1-.3 2-.3 3.1.1 2.2.7 2.8 2.7 3.4.8.2 1.5.1 2.1-.3.4-.3.9-.6 1.2-1 1.9-2.3 3.5-4.7 4.1-7.7.6-2.7.3-5.2-.9-7.7-1.1-2.3-2.1-4.7-3-7.1-.4-.9-.6-1.8-.8-2.7-.9-3-.1-5.7 1.5-8.2 1.1-1.7 2.3-3.3 3.9-4.5 3.2-2.6 6.9-3.8 11.1-3.1 1.9.3 3.6 1.4 5 2.7.5.4.8 1.3.9 2 .4 1.7.3 3.4.1 5 0 .4-.3.8-.6 1.1-1.4 1.2-3.1 1.9-4.9 2.3-.8.3-1.1-.4-1.4-1.1M60.6 194.9c-.6-1.2.6-1.2 1-1.7.1-1.2-1.2-1-2-1.6.5-.2.7-.4.9-.5 4.8-.5 9.6-1 14.5-1.5 1.2-.1 2.5-.2 3.7-.4 4.1-.4 8.2 0 12.3-.1 4.4 0 8.8-.2 13.2-.4 1.7-.1 3.4-.4 5-.6.6-.1 1.1 0 1.6 0 .3.6 0 .9-.4 1-.8.2-1.6.4-2.4.5-3.8.5-7.6.9-11.4 1.4-3.9.5-7.9 1.1-11.8 1.6-3.9.6-7.7 1.2-11.6 1.7-.8.1-1.6.1-2.4.1-2.6.1-5.1.3-7.7.5-.7.2-1.6.3-2.5 0M328.1 183.4c.3 1 .5 1.9.8 2.8-.3.5-.7.4-1.1.5-3.9 0-7.8 0-11.7.1-4.1 0-8.2.2-12.3.2h-5.1c-4.9.2-9.8.5-14.8.6-3.1.1-6.3-.1-9.4-.2 7-1.4 14.1-2.1 21.2-2.5 3.1-.2 6.2-.5 9.2-.7 6.9-.5 13.8-1.3 20.7-1.1.9 0 1.7-.1 2.5.3M221 179.9c-.3 0-1.1-.1-1.9-.2-1.4-.1-2.3-1-2.6-2.3-.2-.9-.3-1.9-.4-2.8 0-.2 0-.5.1-.6 1.3-2 2.7-3.9 5.5-3.9 1.6 0 3.1.2 4.4 1.1.8.5 1.3 1.1 1.6 2 1 3.2-1.7 6.5-4.6 6.7-.6.1-1.1 0-2.1 0M98 173.8c-.1-1.2-.1-2.2-.2-3.4.3 0 .6-.1.9 0 2.6.7 5.2 1.4 7.8 2.2.3.1.6.1.9.2 3.5 1.4 6.9 2.8 10.4 4.3 1.3.6 2.8.8 4 1.8.8 0 1.6.1 2.1.9 0 .4-.4.4-.6.4-.9-.1-1.9-.2-2.8-.3-6.8-1-13.3-3.2-19.8-5.1-1-.4-1.8-.7-2.7-1M90.8 207.2c.5-.3.8-.5 1.1-.7 2.4-.8 4.8-1.9 7.3-2.4 5.1-1.1 10.2-2 15.4-2.9.2 0 .4-.1.6-.1.2.5-.2.7-.5.8-.6.3-1.2.5-1.8.7-4 1.3-7.9 2.7-11.7 4.4-1.7.8-3.5 1.5-5.3 2.3-1.2.5-2.3.6-3.3-.3-.5-.5-1.2-.9-1.8-1.8M311.6 171.8c0 .9.1 1.6.1 2.3-2.7 1.2-12.9 2.9-16.1 2.8.2-.2.3-.4.4-.5 2.8-1.1 13.6-4.4 15.6-4.6M312.4 202.7v1.7c-.2.1-.4.2-.5.2-5.8-1.4-11.7-2.9-17.5-4.4-.8-.2-1.7-.2-2.6-1 .6 0 .9-.1 1.3 0 6.4 1.1 12.7 2.3 19.3 3.5M291.6 102.5c3.4-.2 5.5 1 6.7 3.8.1.3.2.6.3.8 1.3 3.1.3 5.7-2 7.9-.9.9-1.7 1.1-4 1.2-.5-1.5-.1-3-.3-4.5-.2-1.5-.3-3.1-.4-4.6-.1-1.4-.2-2.9-.3-4.6M197.9 118.1c-.5-2.3-1.5-10-1.5-11.9 0-.3.1-.6.1-.8 2.3-.4 5 0 6.7.8.3.1.5.3.7.5 1.8 1.8 2.3 5.6 1.1 7.8-.1.2-.3.3-.4.5-2.1 3.2-1.9 3.2-6.7 3.1M336.4 125.4c-.1 3.8-.3 7.5-1.6 11.1-.4 1.2-.9 2.3-1.5 3.4-.4.8-1 1.5-1.6 2.1-1.5 1.6-3.9 1.6-5.2-.1-.8-1-1.5-2.2-2-3.4-.9-2.2-1.5-4.4-1.9-6.8-.4-2.5-.8-4.9-.9-7.4-.1-3.2.1-6.3.7-9.4.5-2.8 1.4-5.6 2.7-8.1.4-.8 1-1.6 1.7-2.3 1.3-1.3 2.8-1 4 .3 2.6 3.1 4 6.6 4.7 10.5.5 3.3 1.1 6.7.9 10.1M139.3 122.1c-.8-2.8-.7-5.5-.6-8.1.1-2 .1-4 .2-5.9 0-.6.1-1.3.2-2 3.3-.3 5.9.7 8.1 2.9 1 1 1.6 2.4 1.5 3.8-.1 1.5-.3 2.9-.6 4.3-.3 1.3-1.2 2.2-2.3 2.8-1.9 1.1-4.1 1.9-6.5 2.2M153.5 46.5c2.6-.8 6.8-.5 9 .5.3.2.7.3.9.6 1.9 1.4 2.4 3.5 1.1 5.6-1 1.6-2.2 2.9-3.9 3.9-.2 3.5.1 6.9.8 10.3-.9.8-2 .9-3.1.9-.7-.5-.7-1.3-.8-2l-.3-5.1v-1.5c0-.7-.4-1.1-.9-1.1-.7-.1-1.4.2-1.6.9-.2.6-.3 1.1-.4 1.7-.5 2.3-.9 4.6-1.4 6.9-1.1.5-2.1.3-3.3.2 0-.5-.1-1 0-1.5.7-4 1.5-8.1 2.2-12.1.7-2.7 1.2-5.4 1.7-8.2M156 55c1.7 0 3.1-.4 4.2-1.4.4-.3.7-.7 1-1.1.5-.7.3-1.7-.5-2.1-1.2-.6-2.5-1.2-3.9-.8-.9 1.9-1.1 3.5-.8 5.4M252.2 65.6c.5-2.9 1-5.6 1.9-8.3.7-2.3 1.5-4.6 2.2-6.9.3-1 .5-2 .8-3 .2-.6.6-1 1.3-1 1.5.1 3.1.3 4.6.4.4 0 .8.3 1.3.3 2.9.4 4.3 2.3 5 4.9.6 2.1.8 4.2-.3 6.2-.2.4-.3 1-.5 1.5-1.2 3.3-3.5 5.1-6.9 5.7-2.5.4-5 .5-7.5.4-.7.1-1.2-.1-1.9-.2m8.2-15.9c-1.4 3.1-3.3 10.1-3.5 12.5 2.5.7 5.5 0 7.2-1.5.7-.7 1.2-1.5 1.4-2.5.4-1.7.3-3.5-.2-5.2-.7-2.6-1.9-3.5-4.9-3.3M122.8 59.3c-.8 2.9-1.5 5.7-2.3 8.6-1.3.1-2.4.3-3.6-.1-.2-.9-.1-1.7.2-2.4.9-3.2 1.5-6.4 2.1-9.7.2-.9.4-1.9.7-2.8.7-2 1.1-4.1 1.4-6.2.1-1.1.4-1.4 1.5-1.5 1.4-.1 2.8-.1 4.2-.1 1.3 0 2.5.4 3.6 1 1.5.8 2.3 2 2.4 3.7.3 3.5-1.2 6.3-3.9 8.4-.4.3-1 .6-1.6.7-.8.2-1.6.2-2.4.2-.7 0-1.5.1-2.3.2m1.1-3.6c1.4-.3 2.4-.5 3.5-.7.2 0 .4-.2.5-.4 1.2-1.1 1.7-2.6 1.3-4.2-.5-1.7-1.2-2.1-2.5-1.9-.4 0-.9.1-1.4.2-.7 2.1-1.1 4.3-1.4 7M194.3 53.8c-.2 3.2-.8 6.3-2.5 9.1-.4.7-.9 1.3-1.4 2-1.8 2.1-4.1 2.5-6.6 2.1-1-.2-1.9-.8-2.5-1.7-1.6-2.1-2.2-4.5-2.3-7 0-1.6.1-3.2.5-4.8.7-3 2.5-5.3 5.4-6.5 1.1-.5 2.2-.7 3.4-.5.6.1 1.3.2 2 .3 1.7.4 3 1.3 3.4 3.1.3 1.2.4 2.6.6 3.9m-12 3c.3 1.5.3 3 1.1 4.2 1.3 2.1 3.1 2.3 4.8 1 1.8-1.4 2.8-3.2 3-5.4l.3-3.9c0-.4-.1-.9-.4-1.2-.4-.6-1-.9-1.7-1-1.7-.3-3.3.3-4.9 1-.4.2-.8.7-1 1.2-.4 1.3-.8 2.8-1.2 4.1M213.6 66.2c-1.1.2-2.2.3-3.3.4-.7-.9-.9-1.8-1-2.7-.4-5.1-1-10.1-.9-15.2 0-.6.1-1.2.1-1.8.9-.5 1.9-.3 2.8-.4.7.7.6 1.6.7 2.3l.9 9c0 .3-.1.8.5 1 .8-.9 1.1-2.1 1.7-3.2.6-1.1 1.1-2.2 1.7-3.3.6-1 1.1-2.1 1.7-3.1.6-1.1 1.3-2.1 2-3.2 1.3-.3 2.5.1 3.9.3-1.8 3.5-3.6 6.6-5.4 9.8-1.8 3.4-3.5 6.6-5.4 10.1M286.7 46.4h9.2c.2 1 0 1.8-.3 2.7-1.8.9-3.8.3-5.7.8-.5 1.2-.7 2.5-.9 3.9.6.2 1.2.3 1.8.5 0 1.8-.1 2.2-.8 3.7-.8.1-1.7.2-2.5.3-1.1 2.2-1.7 4-1.8 5.4 1.5.4 3.1-.2 4.6.5.3.9-.1 1.7-.3 2.5-1.9.4-7.8.5-9.5.1 0-.3-.1-.7 0-1 .6-2 1.2-3.9 1.9-5.8 1.3-3.6 2.7-7.2 3.3-11 .2-.9.3-1.8 1-2.6M238 47.7c1.5-.2 2.8-.3 4.2-.5-.1 1.7-.7 3-1.2 4.3-1.6 4.2-2.9 8.5-3.2 13 0 .4-.1.8-.2 1.4-1.3.3-2.5.4-3.8.2-.1-.4-.2-.7-.2-1 .7-5.7 1.8-11.3 3.9-16.6.2-.3.3-.5.5-.8"/></svg>