<svg xmlns="http://www.w3.org/2000/svg" viewBox="0 0 500 500"><path d="M262.4 362.8zM370.4 309.4c-.4-1.9-1-3.9-1.4-5.8s-.7-3.8-1.3-5.5c-1.3-3.8-2.6-7.7-3.9-11.4l-3-8.7c-1.3-3.2-2.6-6.4-3.9-9.7-1.4-3.5-2.9-7.1-4.3-10.5-.9-1.9-1.9-3.8-2.7-5.6-1.2-2.3-2.2-4.6-3.6-6.6-1.9-2.7-3.3-5.8-4.5-8.8-2.2-5.5-4-11.3-6.2-16.7-.4-1.3-.6-2.9-2-3.6-.1 0 0-.4-.1-.6-.1-.6-.1-1-.4-1.6-.1-.3-.4-.7-.6-1-1-2.5-2-4.9-3-7.4-.9-2.2-1.9-4.2-2.9-6.2-.9-1.9-.6-2.9.9-4.3.3-.1.4-.4.6-.7 1.3-1.3 2.3-3 4.2-3.8 1.7-.6 3.5-1.3 5.2-2 1-.4 2-1 2.9-1.6.9-.6 1.7-1.4 2.6-1.7 2.6-.9 4.2-2.9 5.6-4.9 1.6-2 3-4.2 4-6.5 1.7-3.5 4.9-5.6 7.9-7.5 1.7-1.2 2.5-2.5 2.6-4.2.1-2.9.1-5.8.3-8.7 0-4.6-.9-9.1-2.5-13.3-1.4-3.8-2.7-7.4-4-11.1-1.3-3.6-2.5-7.2-3.8-10.8-.1-.3-.1-.6-.4-.7-1.4-1-1.6-2.7-2-4.2-1-3.5-1.6-7.1-2.5-10.7-.3-1.2-.4-2.2-.6-3.3-.1-.6-.1-1 0-1.6 0-.9-.1-1.7.3-2.3.6-1 1.6-1.9 2.3-2.9.4-.6.9-1.3 1-2 .3-1.9.3-3.8.4-5.6.3-2.3.6-4.5 1-6.6.6-2.2 1.4-4.3 2.2-6.5.4-1.4.9-2.9-.1-4.3s-1-3.2-.7-4.9c0-.4.3-.9.1-1.2-.1-.6-.3-1.3-.7-1.9-.7-1-1.7-1.9-2.6-2.7-.4-.4-.9-.9-1.4-1-.7-.1-.7-.6-.6-1.2.3-1.6.6-3.2 1-4.6.3-1.6.1-1.9-1.3-2.7-1-.6-2-1.2-2.9-1.9-1-.7-2-.6-2.7.3-.7 1-1.4 1.9-2 3-.4.9-1 .7-1.6.6-1.4-.3-2.9-.6-4.3-.7-.4 0-1 .3-1.2.6-.6.7-.9 1.4-1.3 2.2-1 1.7-1.9 3.5-2.9 5.2-.1.4-.3.9-.4 1.2-.1.6-.3 1.3-.4 1.9-.9 2.6-1.7 5.3-2.6 7.9-.3.9-.6 1.6-1.6 2-.6.3-1 .1-1.2-.4-.3-1.3-.7-2.5-1.2-3.8-.4-2-2.6-3.8-4.6-3.9-.3 0-.7.1-1 .3-.9.6-1.7 1.3-2.7 1.9-.9.6-1.2 1.2-.7 2.2 1 2.5 2 4.9 3 7.4.7 1.6 1.2 3.3 2.2 4.8 1.2 1.9 1.3 4 1 6.1-.1 1.7.3 3.2 1.6 4.2 1.7 1.4 3.6 2.9 5.3 4.3.1.1.4.3.4.6.4 1.4 1.2 2.9 1.3 4.3.4 4.6.7 9.2 1.2 13.9.1 2 .3 4.2-.3 6.2-.6 2.2-1.3 4.3-1.7 6.6-1.2 5.2-.4 10.4.7 15.6.4 1.6.9 3.3 1.3 4.9.1.6.1 1.2-.6 1.3-2.2.4-4.3.7-6.6 1-2.2.3-4.5.6-6.4 1.9-.6.4-1 1-1.6 1.3-2.5.9-4 2.9-5.8 4.6-.7.7-1.4 1.2-2.6.7-.3-.1-.7 0-1.2.1-1.2.6-2.3 1.2-3.3 1.9-.4.3-.7 1-.6 1.3.3 1.2-.3 1.6-1.3 1.7s-1.9.4-2 1.7c-.1.7-.6.9-1.2.3-.6-.7-1.3-.7-2-.4-.3.1-.9 0-1-.3-.7-.7-1.6-.9-2.5-.7-.7.1-1.2-.1-1.3-.9-.1-1.3-.4-2.6-.6-4 0-.4.3-1.2.7-1.4.7-.7 1.6-1.2 2.5-1.7.7-.4.7-.9.6-1.6-.4-3.3-1-6.5-1.3-9.8-.1-2 0-4 0-6.2 0-.7-.1-1.4-.4-2.2-.3-.6-.9-1.2-.9-1.7-.3-1.7-.4-3.5-.7-5.2 0-.6.1-1 0-1.6-.6-2.3-1.7-4.5-3.2-6.4-.9-1-1.7-1.9-2.6-2.9-.4-.4-.9-.9-1.3-1-4.5-1.6-9-1.9-13.6-.7-.4.1-.9.4-1 .7-.4.4-.7 1-1 1.6-.6 1.2-1.4 2-2.7 2.3-1.2.3-2.3 1-3.3 1.7-.4.3-.7 1.2-.9 1.7-.1 1.4 0 2.9-.3 4.3-.3 1.2-.6 2.6-1.3 3.5-.4.7-.9 1.3-.7 2 .6 3 1.4 6.1 1.6 9.2.4 4.6.7 9.4.4 14.1-.3 4-1.4 8.1-2 12.3-.1 1.2-.6 1.4-1.7 1.6-1.9.1-3.8.4-5.6.7-.7.1-1.3.7-2 .9-1.6.4-3.3.7-4.9 1-.7.1-1.2.4-1.3 1-.1.7-.6.9-1.2.7s-.6-.4-.6-1c.1-1-.4-1.4-1.4-1.4-.7 0-1.3 0-2-.1-.1 0-.3 0-.3.1-1.2.4-2.5.9-3.6 1.2-2.3.6-4.6 1-6.9 1.2-.3.1-.6.1-1 .3 0 .1-.1.1-.1.3-.4 1.2-.7 2.3-1 3.6-.1.7-.6 1.3-1.4 1.3-1.2 0-2.5.1-3.6.1-3.6-.3-7.2-.3-11 .3-.9.1-1.9.3-2.7.6-1.9 1-3.6 2.2-5.5 3.2-1.3.7-2.6 1.6-4.2 1.6s-3.2.1-4.6.4c-2.6.6-5.2 1.2-7.8 1.9-1 .3-1.2.1-1.2-.9.1-1 .3-2 .3-3 0-6.5.9-12.8 2.6-19.2.3-.9.9-2 1.7-2.3 1.9-.9 3.9-.7 5.8-.1 1.2.4 2.3 1 3.5.3.9-.6 1.7-1.2 2.3-1.9 1-1.3 1.7-1 2.7-.1 1.2 1 2.5 2 3.6 2.9.9.7 2.2.7 2.7 0 1.6-1.4 1.9-5.6.3-7.2-.1-.3-.4-.4-.7-.6-1.2-.3-2.5-.6-3.6-1-.3-.1-.7-.3-.7-.4 0-.3.1-.7.3-.9.4-.4 1-.7 1.6-.9 2-.9 2.7-2.5 2.7-4.6 0-.7.1-1.6.1-2.3.4.1.6.3.6.4.3.9.7 1.7 1 2.6.3.9.9 1.3 1.9 1 1-.3 2-.6 3-.7.9-.1 1.2-.7 1.2-1.6-.1-1 0-2-.1-2.9s.6-2.3-1-2.3c-.1-.7-.3-1.4-.4-2.2-1.2-2.6-2.9-4.8-4.9-6.6-.1-.1-.6-.3-.9-.3-1.7.4-3.5 1-5.1 1.4-2 .6-4.2 1-6.2 1.4-1 .1-1.9-.1-2.9 0-2.6.6-5.3.9-7.9.6-1.3-.1-2.5.1-3.2 1.2-.9 1.2-1.6 2.5-2.3 3.8-.6 1.2-.7 2.5-1.3 3.6-.9 2.2-1.7 4.3-2.7 6.4-1 1.9-1.2 4.2-2.6 5.9-.4.4-.6 1.2-.9 1.7-.4.7-.7 1.4-1.2 2.2-.3.6-.9.9-.6 1.6 0 .1-.6.6-.9.9-.3.1-.6.3-.7.6-.7 1.3-1.3 2.6-1.9 3.8-.4.7-1 1.3-1.4 2-1 1.4-1.7 3.2-3 4.5-1 1-1.6 2.2-2.2 3.3-1.4 3-2.6 6.1-3.5 9.4-.9 3.6-2.2 7.2-3.3 10.8-.7 2.3-1.6 4.5-2.5 6.8-.1.6-.4 1.3-.3 1.7.7 1.4 1.6 2.9 2.3 4.2.1.1.4.1.6.3 2 1 4 2 6.1 3.2 1.3.7 2.5 1.6 3.9 2.2 3.3 1.2 6.8 2 10.1 3 3.8 1.2 7.5 1.4 11.4 1.2 1.3-.1 2.7.1 3.9.6 1.2.4 2.3 1.3 3.5 1.9 1.4.7 3 1.3 4.5 1.9.1.4.1.9.3 1.3-.3.7-.7 1.3-1 2 0 .1-.1.1-.1.3-.7 1.2-1.4 2.3-2.2 3.5-2 3.8-3.9 7.5-5.5 11.5-.6 1-1.3 2-2 2.9-1.3 2.5-2.7 4.8-4.3 7.1-.6 1.2-1.3 2.2-1.9 3.3 0 0 0 .1-.1.1-6.2 6.2-9.8 14.6-13.6 22.5-4 6.8-7.5 14-11.4 20.9-1.3 2.3-2.5 4.8-3.8 7.1-8.1 9.4-13.1 20.8-18.2 32-.6 1-1.4 1.6-1.3 2.6v.1c-.1.1-.3.3-.3.6-.9.7-1.3 1.7-1.9 2.7-.4 1-1.4 1.7-1.4 2.9 0 .1-.1.1-.1.3-.1-.1-.1-.3-.3-.4-2.7 5.1-5.5 10.1-8.4 15.3.6.1.9.1 1.2.1 2.3.4 4.8.6 6.9 1.3 3.3 1 6.6 2.2 10 3.3 1.2.4 2.6.7 3.2 2.2.6 1.4 1.3 2.9 2.2 4.2 1 1.6 2.2 3 3.5 4.6.4.6 1.2 1.2 1.9 1.7.3.1.4.4.7.6.1 0 .1 0 .3-.1 0 .1.1.3.1.4 1.2 1 2.3 1.9 3.5 2.9.3 0 .4.3.4.4.4.3.7.6 1.2 1h.1v.1c1 1 2.2 1.9 3.2 2.9.3.1.6.3.7.6 5.1 2 9.7 5.2 14 8.5.1 0 .4.1.6.1 3.3.1 6.6.3 10 .3 2.2 0 4.3 0 6.4-.1.4 0 .7-.1 1.2-.3 1.2-.6 1.6-1.7 2.2-2.7.7-1.4 1.3-3 1.9-4.5 1.2-2.9 2.2-5.8 3.8-8.4.6-1 1-1.2 2-.7.9.4 1.7.7 2.7 1 2.2.6 4.3 1 6.4 1.6 1.3.3 2.5.7 3.8 1.3 2.2.9 4.5 1.9 6.6 2.7 2.3 1 4.5 2.2 6.8 3.2.9.4 1.7.7 2.6 1.2 0-.1.1-.1.1-.3 0 .3.1.6.1.9 3.6 2 6.8 5.1 9.5 8.1.9.9 2 2 2.9 3.3.7.4 1.6.7 2.5.9 1.7.4 3.6.6 5.5.9 2.3.4 4.8.9 7.1 1.3 1.2.3 1.2.4.9 1.6-.1.4-.3.9-.4 1.2-.1.6-.4 1.2-.6 1.7-.3 1.3-.6 2.7-1 4-.4 1.2-.4 2.2 0 3.2.7 1.3.6 2.6-.3 3.8-.9 1.2-1.2 2.6-1.3 4 0 .4-.1.7-.3 1.2-1.4 3.5-2.7 7.1-4.3 10.5-.9 2-2 3.9-1.3 6.2.6 2.3 1 4.6 1.4 6.8.4 2.3 1.3 4.5 2.5 6.6.6 1 1.6 1.6 2.7 1.3 2.9-.6 5.8-1.3 8.8-1.6 3.2-.4 5.3-2.3 7.1-4.8 1.9-2.6 3.3-5.3 4.9-8.1 1.7-2.7 1.9-5.5 1.4-8.7-.7-3.9-1.9-7.8-1.7-12 0-2.5 1.2-4.3 2.6-6.2.7-1 1.3-1.9 1-3.2-.3-1.3 0-1.6 1.3-1.2 1.3.4 2.7 1.2 4 1.2 3.5.1 6.9 0 10.4-.3 3.2-.3 6.5-.7 9.7-1.2 1.3-.1 2.7-.6 3.9-1.2 2.6-1.2 5.3-1.9 8.2-1.9 3.2.1 6.4 0 9.5 0 .4 0 1-.3 1.2-.6 1.2-2.6 3.3-4.3 5.3-6.1 1.2-1 2.3-1.9 3.6-2.6 1.6-1 3.2-2 4.9-2.9.9-.4 1.7-.9 2.6-.9 2.9-.1 5.8 0 8.7-.1 2.9 0 5.8-.1 8.7-.1 1.2 0 1.6-.7 1.7-1.6.6-2.6 1.3-5.1 1.7-7.7.6-3 1.3-6.1 1.7-9.1.7-4 1.4-8.1 2-12.1.4-3.3.9-6.6 1.3-10.1.4-3 .9-6.2 1.2-9.2.4-4.5.6-9 1.3-13.3 1.8-8.7.2-16.8-1.8-24.7zm-50.5-66c.4-1.7.7-3.5 1.3-5.1.6-1.7 1.6-3.3 2.5-4.9.3-.6.9-.9 1.6-.6 1.2.6 2.6.9 3.6 1.6 1.9 1.3 2.7 3.3 3.8 5.3.6 1.3 1.4 2.5 1.9 3.6.4.9.7 1.9.6 2.7-.1 2.6-.4 5.1-.6 7.7 0 .7 0 1.4.1 2 .3.7.1 1.3-.1 1.9-.9 2.7-2.9 4.8-5.3 5.1h-.1c-.4.1-.9.4-1.3.7 0 .1-.1.3-.1.4-.4-.6-.7-1-1.2-1.6-.1 0-.1 0-.3-.1h-.3c-.3.1-.7 0-1-.3l-.3-.3c-.7-.4-1.3-1-1.9-1.7-.1-.1-.1-.3-.3-.4-2-2.2-3-5.8-3-8.7-.1-1.2-.3-2.3-.1-3.3-.1-1.2 0-2.5.5-4zm4.9 51.6c.1 3.5.4 6.9.9 10.4.4 3.2 1 6.2 1.4 9.4 0 .3 0 .6.1 1 .3 1.4.7 1.6 2.2 1.3 1-.3 1.9-.4 2.2-1.6.3 0 .6.1.9.1.1.1.4.1.6.1.1.3.3.6.3.9-.3 1.2-.7 2.3-1.4 3.2-.6.6-1 1.4-1.9 1.7-.7 1-2 1.3-3.2 1-.7.7-1.7.1-2.5-.7-1-1.2-2.2-2.2-2.9-3.5-.6-1-1-2.3-1-3.5-.3-5.2-.4-10.2-.6-15.4-.1-3.8 1-7.2 2.6-10.7.9-1.7 2.3-2.9 4-3.5.7-.3 1.6-.4 2.3.3.7.6 1.4.9 2.2 1.4.3.1.4.3.6.6 1 1.2.9 1.9-.3 2.9-.4.3-.9.6-1.4 1-.3-1-.6-2-.9-2.7-1.3-.4-2.6-1.4-3.8-.4-.3.4-.4.9-.6 1.2 0 .1 0 .1-.1.3.3 1.7.1 3.4.3 5.2zm-18.5-95.5c2.3-.4 4.5-.9 6.8-1.3.4-.1 1.2-.3 1.2.4 0 .3-.6.7-1 .7-1.2.3-2.2.4-3.3.6-2.6.4-2.6 1.7-2.3 3.6.3 1.6.4 1.6 2.2 1.3.6-.1 1.4.1 2 .4.4.3.1 1.2-.4 1.3-.4.1-.9.1-1.3.1-1.2.1-1.6.7-1.6 1.9v.6c.3 2.2.6 4.2.9 6.4.1.9.4 1.2 1.2 1.2 1.3-.1 2.7-.3 4-.6.4-.1 1-.4 1.4-.6.6 1.7.4 2.2-1.2 2.3-2.3.4-4.6.6-6.9 1-.7.1-1.2-.1-1.2-1 0-3.6-.4-7.2-1.2-10.7-.3-1.7-.7-3.5-1-5.2-.3-1.8-.2-2.1 1.7-2.4zm-2.9 34c1.6.3 3 .6 4.6 1 .4.1.9.3 1.2.3 1.3-.4 2.5 0 3.2.9.6.6 1 1.6 1.2 2.5.3 1.4.4 2.9.3 4.3-.1 1.9-1.2 3.5-2.5 4.9-1.3 1.4-1.4 2.3-.3 3.8 1.9 2.2 2.5 4.9 3.5 7.5.9 2 2 4 3.2 5.9 1 1.7 2.2 3.5 3.2 5.2 1.2 1.9 2.7 3.2 4.9 3.5 1.4.3 2.7.4 4.3.7-1.2 1.2-2 2.5-3.3 3.2-.9.6-2.3.3-3.5.3-.4 0-.9-.3-1.3-.3-2.2 0-3.5-1.4-4.6-3-.3-.4-.7-1-1.2-1.4-1-1.2-1.4-2.5-1.7-3.9-1-3.9-1.9-7.9-2.9-11.8-.3-1.4-.9-2.7-1.4-4-.4-.7-1.2-1.3-1.7-2-1.6 1.3-1.2 2.9-1 4.3.1 3.3.4 6.6.6 10.1 0 .3-.7.9-1.2 1-1.2.3-2.3.3-3.6.4-.1-.7-.3-1.4-.3-2.3-.1-1.7-.1-3.6-.1-5.3 0-.4.4-1 .6-1.4.1-.1.1-.4.1-.6 0-3.6 0-7.1-.1-10.7 0-1.9-.3-3.8-.4-5.5-.1-2.2-.1-4.2-.3-6.4-.4-1.1-.1-1.4.5-1.2zm13.4 90.9c-1.9.4-3.9 1-5.8 1.4v-36.2c.9-.3 2-.6 3.3-.9.9 12 1.7 23.7 2.5 35.7zm-26.4-54.8c.1-3 .4-5.9.6-9 .3-5.6.1-11.1-1-16.7-.3-1.6-.3-3.2-.4-4.8 0-.6-.3-1.3 0-1.6.3-.3 1-.3 1.6-.4 2.3-.6 4.6-1.2 6.9-1.7.3-.1 1 .1 1 .3.1.6.3 1.3-.6 1.6-.9.3-1.6.4-2.5.7-1.6.6-2.3 1.6-2.3 3.2v.3c.1 2.6.1 2.6 2.7 2.6.3 0 .9.3.9.4 0 .4-.1 1.2-.4 1.4s-1 .4-1.4.3c-.9-.1-1 .3-1.3 1-1 3.6-.6 7.2-.3 10.8.3 4.9.7 9.8 1 14.7 0 1 0 2-.1 3-.1 1.3.9 2 2 1.6 2.6-1 5.1-2.2 7.7-3.2.3-.1.4-.1.7-.3 1.6-.4 1.9-.1 1.9 1.4v2.9c-6.1 0-11.8.9-17.3 3.8 1.2-4 .3-8.3.6-12.3zm7.4-96.8c0 .1.1.3.3.7 1.2-1.3.4-3 1-4.3.7 0 1 .3 1 1 .1 1 .3 2.2.6 3.2v1l-.3-.3c-.7.1-1.4.3-2.2.4-.3 0-.4.1-.7.3 0-.3-.3-.7-.1-1-.1-.4.2-.7.4-1zm-7-.3c.6 1.4.1 2.9-.1 4.3-1.2-1.7-1.2-3.2.1-4.3zm-.1 29.6c2.3.4 4.6 1 6.9 1.6 1.7.4 2.2 2 3 3.2.9 1.2 1.6 2.5 1.9 3.8.3 1.4 0 3-.4 4.5-.9 3.3-3.3 5.1-6.2 6.4-1.6.7-3.2 1.3-4.8 1.9-.9.3-1.2.1-1.2-.9v-.6-.6h.1c-.3-6.1-.6-12-.7-18 0-1.4.1-1.5 1.4-1.3zm-3.2 93.6c1.2-.6 2.5-1 3.3-2.2 0-.1.3-.1.4-.1 3.2 6.4 5.3 13.1 7.7 19.9h.3c0-.6.1-1.2.1-1.7-.1-2.5-.4-5.1-.4-7.5-.1-2.9-.1-5.8-.1-8.8v-2c0-.3.3-.6.6-.7 1.7-.6 1.9-.4 1.9 1.3 0 3.6.3 7.2.3 11v24c0 .9-.4 1.3-1.2 1.4s-1.4.4-2.2.6c-.4-2.2-.9-4.3-1.4-6.5-.4-1.9-1-3.6-1.4-5.5-.4-1.7-.7-3.6-1.4-5.3-.9-2.5-1.3-5.1-2.6-7.4-1.3-2.2-2.2-4.5-3.2-6.8-.3-.7-.7-1.4-1.2-2-.3-.7-.2-1.3.5-1.7zm1.5 36.5l-3 .9c-.6-1.6-1-3-1.6-4.5-.7-1.4-1.7-2.7-2.7-4.2-.1-.3-.4-.6-.6-.9-.3-.4-.3-1-1-1.3-.4-.1-.6-1-.7-1.6-.3-1.3-1-2.2-1.9-2.5-1 2.7-1.4 5.5-1.2 8.4.1 1.6.3 3.3.4 4.9.1 1.4.3 2.7.4 4.2.1.7 0 1.3-.7 1.6-1.2.4-2.3 1-3.5 1.4-.3.1-.6 0-.9 0 0-.3.1-.6.1-.6-.3-.9-.9-1.6-.9-2.3-.1-7.5-.3-14.9-.3-22.4 0-1.4-.1-2.9-.1-4.5.4.1.6.3.9.4.1-.9.3-1.6.1-2.3 0-1.9-.3-3.9-.3-5.8 0-.3.3-.7.6-.9 3-1 6.1-.9 9.1-.6.9 0 1.9.4 2.7.7.3.1.4.6.4.9 0 1.4 0 3-.1 4.5-.1 1.3-.6 2.7-1.2 3.9-.6 1.4-1.4 2.6-2.3 3.9-.3.6-.6.9-.1 1.4 1 1.6 1.9 3.3 2.9 5.1.7 1.3 1.6 2.6 2.2 4 1.3 2.9 2.7 5.3 3.3 8.2zM281.3 203c2.6-.3 2.6-.7 2.7 2.2.1 1.3-.1 2.6-.1 3.9 0 1.4.1 3 .1 4.5.1 3 .3 6.2.3 9.2 0 .7.3 1.6 0 2-.3.4-1.2.4-1.9.7-1.4.4-1.3.4-1.4-1.2-.1-2-.4-4-.6-6.1h.1c-.1-4.8-.1-9.5-.3-14.3.1-.6.4-.7 1.1-.9zm-1.3 46.5c.3-.6.4-1.2.6-1.7 0-1.7 0-3.6-.1-5.3 0-.7.1-1.2.9-1.4.6-.3 1.2-.7 1.7-1v4.2c0 7.8-.7 15.7-.1 23.5.3 3.6.6 7.4.9 11 0 .7.1 1.3.3 2 .1.4.7.9 1.2 1.3.1.1.4.3.4.4s-.1.4-.3.4c-1 .4-1.9.9-2.9 1.3-.9.3-1.3 0-1.3-.9 0-1 .3-2 .4-3 .1-.7-.4-2.5-.4-3.3.4-5.2-.4-15.6-.7-21.7-.4-1.3-.4-1.2-1.7-.9-1 .3-2.2.6-3.2.6-.9 0-1.3.7-1.3 1.2.3 1-.3 1.9-.3 2.9.1 5.8 0 11.5 0 17.5 0 2.3.3 4.8.4 7.1 0 .6.3 1 .4 1.6.1.6.3 1.3.4 1.9-1.7.4-3.3.9-5.1 1.4v-3c0-3.6.1-7.2.1-10.8 0-5.5 0-10.8-.1-16.3-.1-3.5-.6-6.9-.9-10.4-.1-.7-.4-1.6-.7-2.3s-.1-1 .6-1.3c1.3-.4 2.6-.9 3.9-1.3.1.1.3.1.4.3 0 1.6 0 3.3.1 4.9 0 1 .3 2 .7 2.9.1.3.6.6.9.6.9 0 4.2-.8 4.8-2.4zm-17.7-42.7c.7-.4 1.4-.7 2.2-1 .1 0 .7.3.9.6 1.7 4.8 3.3 9.5 4.9 14.3.1.6.3 1.3.3 2 0 .9.6 1.3 1.3 1.3.3 0 .7-.7.7-1.2v-6.5c0-2.5-.1-4.9 0-7.4.1-1.4.7-2.7 1.2-4.2.1-.3.6-.4.9-.4.4-.1.7 0 1.2 0 .7-.1 1 .3.9 1-.4 1.9-.7 3.9-1.2 5.8-.3 1.3-.6 2.6-.6 3.9-.1 4.3-.1 8.7-.1 13 0 1.6 0 1.7-1.6 2.2-.9.3-1.7.6-2.6.9-.7.3-1.2 0-1.2-.7-.3-3.3-.9-6.5-2.2-9.5-.6-1.4-1.6-2.7-2-4.2-1.2-2.9-2-5.9-3-9-.5-.4-.3-.8 0-.9zm-3.8 60.4c1.3 2 2.3 4.2 3 6.4.3.9 0 1.9.7 2.6.1.1-.1 1-.6 1.4-.6.6-1.3 1-2.2 1.7-.7-1.4-1.4-2.9-2-4.2-.7-1.4-1.3-3-2.2-4.3-.3-.4-1-.7-1.9-1.3-.1 1.6-.1 2.9-.3 4.2 0 .6 0 1.2.1 1.7.4 1.4-.3 2.6-.9 3.9-.1.4-.7.7-1.2.9-.6.1-1.2.1-1.7.3-1.4.1-1.6.1-1.6-1.3-.1-2.6-.1-5.1-.1-7.7-.1-3-.4-6.1-.6-9.2-.1-1.9 0-3.6 0-5.5 0-.4.4-1 .9-1.2 2.5-1.6 5.2-1.9 7.9-1.7 2 .1 3.5 2.2 3.6 3.9 0 .3 0 .6.1.9 1.3 1.9.1 3.5-.6 5.1-.3.9-.7 1.7-1 2.6.3.1.5.6.6.8zm-.9-56.5c.3.3.4 1 .6 1.4.4 2.9.9 5.6 1.3 8.5.3 2.3.7 4.5 1 6.8.1 2-.4 4-2 5.2-1.3.9-2.9 1.3-4.5 1.9-.1.1-.6-.1-.7-.3-1.4-1.6-2.9-3-4-4.8-.7-1-1-2.5-1.3-3.8-.4-1.9-.9-3.9-1.3-6.4.3-2.5.4-5.3.9-8.1.3-2.2.9-2.6 3-2.7.4 0 1 0 1.4-.1 2.3-.8 4.1.9 5.6 2.4zM247 181.9c.9 0 1.9-.4 2.7-.6.3 1 3.2 1 4.8-.3.7 1.6 1.3 3 2 4.5l-.1.4h-5.6c-.9-.1-1.9 0-2.7-1-.6-.7-1.9-.6-2.9-.9-.1 0-.3-.1-.4-.1.1-1.2.9-2 2.2-2zm-4.9 36.8c-.1 1.3-.6 2.2-1.9 2.7-2.2 1.2-2.2 1.6-.3 3.3 1.4 1.3 2.3 3 3 4.9.3.6.4 1.3.7 1.9.6 1.4 1.2 2.9 1.9 4.3.4.9-.3 1.2-1 1.3-.6.1-1.2.4-1.4-.6-.4-1.3-.9-2.7-1.3-4-1-2.6-3.2-4.3-4.9-6.5-.9-1-2.2-.4-2.3.9-.1 1.9-.1 3.8-.1 5.6 0 1.4.1 2.9.3 4.2 0 .7-.1 1-.9 1-2.7.1-2.7.1-2.6-2.5v-3.6c.1-2.5.4-4.9.3-7.4-.1-3.9-.4-7.9-.7-11.8v-1.7c0-.1.4-.4.6-.6 3.6-1.2 7.1-.1 9.5 2.7 1.2 1.8 1.2 3.8 1.1 5.9zm-10.4 45.1c-.1-1.6.6-2.5 2-3 .9-.3 1.7-.7 2.5-1.2 1.3-.9 2.7-1.3 4.3-1.3.4 0 .9-.1 1.4-.4.1.9.3 1.9.4 2.7 0 .1-.4.4-.6.4-1.2.6-2.5 1-3.6 1.6-.3.1-.6.3-.7.6-.4.6-.7 1.2-1.2 1.7.1.1.4.3.6.6-.1.3-.3.6-.6 1 2 .3 3.5-.9 5.3-1.2 0 1.3.1 2.6.1 3.9 0 .3-.7.6-1.2.7-.6.1-1.3.1-2 .1-1.2.1-1.7.9-1.7 1.9-.1 1.6-.1 3.2-.1 4.6 0 .7.3 1 1 .9 1.3-.3 2.6-.6 3.9-.6.3 0 .7.4.9.7.3.7.3 1.6.4 2.3.1 1.2-.4 1.9-1.4 2.3-1.6.6-3.2 1.3-4.9 1.6-1.4.4-3 .4-4.6.7l-.3-.3c.1-3.3.1-6.9.3-10.4-.1-3.1-.1-6.5-.2-9.9zm-3.5-73.8c.1-1 1.7-2.6 2.7-2.7 1.7-.1 1.7-.1 2-2 .1.3.1.4.3.7.1-.3.4-.4.6-.7.1.1.1.3.1.3.3.3.6.9 1 .9 1.4.4 2.9-.3 3.6-1.6.1-.3.3-.7.4-.9.1-.1.6-.4.7-.4s.3.4.4.6c.1.1.4.3.9.7-.3.7-.7 1.6-1.2 2.5-.1.1-.1.4-.1.7.1.9-.3 1.3-1.2 1.2-1-.3-1.9-.6-2.9-.9-1-.3-2.2-.6-3 .6-.1-.3-.1-.4-.3-.6-.1 0-.3.1-.3.1-.1 2.3-2.5 1.6-3.6 2.3.2.2-.1-.2-.1-.8zm.1 83.7c-.3 2.2-1.4 4.2-3.3 5.6-.7.6-1.3 1.2-1.3 2.3v3.9c0 .4 0 .9-.1 1.3-.3 1-.7 1.7-1.7 2.2-.9.3-1.6 1-2.7 1.6-.1-1.7-.3-3.2-.3-4.6 0-3.5.1-6.9.1-10.2 0-1.7-.3-3.5-.3-5.3 0-1.6.3-3 1.6-4.2.3-.1.4-.3.7-.4.1-.1.6-.1.7-.3.3-.6.6-.9 1.3-.9 1.4 0 2.9-.1 3.9 1 .6.6 1 1.6 1.2 2.5.2 1.6.4 3.7.2 5.5zm-13.5-62.9c0-.9.6-1 1.3-1 2.3-.1 4.3.9 6.4 1.6.3.1.4.3.7.4 2.9 1.3 4 3 3.9 6.6 0 .6 0 1.4-.1 2.5 0 .3-.3.7-.4 1-.1.1-.4.3-.4.6-1 2.3-3.3 2.9-5.5 3.5-1.3.4-2.2 1.3-2.2 2.6 0 2.2.1 4.5.4 6.6.1 1.3.1 1.4-1.2 1.4h-.4c-2 0-2-.1-2-2.2 0-.9-.3-1.9-.3-2.7 0-2.6.1-5.2.1-7.8 0-2.3-.3-4.6-.3-6.9-.2-2.2 0-4.2 0-6.2zM211 345.6c-.3.9-.6 1.9-1 2.7-.6 1.3-1.4 2-2.9 2.2-1.3.1-2 1.2-2.7 2-.3.3-.4.6-.7.7-1.4 1-2.9 2.2-4.5 3-2.5 1.3-5.1 2.3-8.1 1.7-2.6-.4-5.3-1-7.7-2.2-1.9-.9-3.6-2-5.3-2.9-1.6-.7-2.9-1.9-3.9-3.5-1-1.4-1.9-2.9-2.9-4.5-.6-1-1.2-2-1.7-3-.3-.6-.4-1.2-.6-1.7-.7-1.7-1.4-3.3-2.2-5.1-.3-.9-.3-1.3.7-1.7 1.4-.7 2.7-1.6 4-2.5 1.2-.7 2.3-1.3 3.6-2 .1 1.3.3 2.5.4 3.5.3 1.6.4 3 .9 4.5.4 1.6.9 3.3 1.6 4.9.9 1.9 1.6 3.9 3.2 5.5.6.7.9 1.7 1.2 2.7.3 1 .7 1.3 1.9 1.2-.1.3-.3.4-.6.9 2.2 1.4 4.6 1.7 7.2 1.4 1.6-.3 2.5-1.6 3.8-2.3.6-.4 1.2-1 1.6-1.4 1.2-1 1.9-2.2 2.2-3.6.4-1.4 1-2.9 1.3-4.5.4-3.6 1.2-7.4 0-11-.4-1.4-1.3-2.9-1.7-4.5-.6-1.7-1.7-3.2-2.6-4.8-.6-1.3-.9-2.7-1.3-4-1.3-3.5-2.7-7.1-4-10.5-1.2-3.2-2.5-6.5-3.5-9.8-.4-1.4 0-3 0-4.5.4-4.6.7-9.4 1.3-14 .6-5.1 1.7-10.1 3.9-14.9 1.7-3.8 3.6-7.5 6.4-10.5.9-.9 1.9-1.6 2.6-2.5 1.2-1.2 2.2-2.5 3.3-3.6 1.2-1.2 2.5-2.2 3.8-3.2.6-.4 1.6-.6 2.3-.6 2.6-.1 5.2.3 7.5 1.6.1 0 .1.1.4.3-.4.1-.9.3-1.3.4 1.9 2 2.6 4.2 2.7 6.6 0 1 .1 2 0 3s-.6 2-.9 3c0 .1-.3.3-.4.3-2.9.9-5.8 1.7-8.8 2.6v-10.7c-1.2-.4-2.3-1-3.6-1.3-.3-.1-.7.1-1 .4-1.4 1.6-2.9 3.2-3.9 5.1-.9 1.9-2.3 3.5-2.7 5.5-.7 3.5-1.6 7.1-1.6 10.7v12.6c0 1.3.1 2.7.4 4 .7 4.5 1.3 9.1 2.3 13.4.3 1.7 1.6 3.2 2.3 4.8.7 1.4 1.4 2.9 2.2 4.5.9 1.7 1.6 3.6 2.3 5.3 1.4 3.8 3.5 7.4 4.2 11.4.6 3.3.7 6.8 1 10.2.6 3.1.6 6-.4 8.7zm0-74.6c0-.9.1-1.3 1-1.6 1-.3 1.9-.7 3.2-1.3.1 2 .1 3.9.1 5.6 0 2.7 0 5.5-.1 8.2-.1 2-.4 4-.7 6.1-.1 1.2-.4 2.2-1.7 2.7-1.3.7-2.5 1.7-3.8 2.5-.6.3-1.6 0-2.3-.1s-1.6-.6-2.2-1c-.4-.3-.9-.7-1-1.3-1.2-3.3-1.7-6.9-1.6-10.5 0-2 .1-4 .1-6.1 0-.7.3-1 1-1.3 1-.3 2-.7 3.2-1 .1.4.1.7.1 1 .1 3.6.3 7.1.6 10.7 0 .7.1 1.4.4 2.2.1.4.7 1 1.3 1 .3.1 1-.4 1.3-.7 1.2-1.3 1.3-3 1.3-4.6 0-3.4-.2-6.9-.2-10.5zm34.7 92.8c-.9 1.3-1.7 2.7-2.6 4-.4.6-1.3 1.2-1.3 1.7 0 1.2-.9 1.6-1.3 2.3-3.2 5.1-9 5.1-13.1 2.7-2.9-1.4-5.2-3.5-7.4-5.8-.4-.4-1-.7-1.6-1.2.3-1-1-1.3-1.7-2.2-.9-1-1.7-2-2.6-3-.1-.3 0-.9 0-1.3-.3 0-.6-.1-1-.3 1.3-1.4 3-1.9 4.6-2.2 1-.1 1.4.9 1.7 1.7.3 1.2.6 2.2.9 3.3.1.7.3 1.4 1.2 1.7.1 0 .3.3.3.6-.1 1.6 1.2 2 2.2 2.5 1 .6 2.2 1.2 3.3 1.4 3.3.6 5.3-1 6.5-3.9.1-.4.3-.9.4-1.2 0-.1 0-.3.1-.3.1-.6.3-.9.6-1 .4-1.2.9-2.5 1.3-3.8.3-4.3-.4-8.8 0-13.1-1-3.5-2-6.8-2.7-10.2 0-.1-.1-.3-.1-.4-.3-.6-.4-1-.7-1.6-.3-1.6-.9-3-1.3-4.5-.6-1.7-1-3.5-1.6-5.1-.1-.7-.1-1.4-.3-2.2l-.1-.1c-.4-.4-.3-1.4-.3-2.3 0-3.2 0-6.4.1-9.4 0-.3 0-.7.1-.9 1.6-2 3.2-4 4.8-6.1.4-.6 1-1 1.6-1.3.4-.3 1-.3 1.4-.1 1.6.3 3.2.7 4.8 1 1.7.3 2.9 1.3 3.5 2.7.3.7 0 1.4-.6 2-.9 1.2-1.4 2.5-2.2 3.8-.9-1.4-1.7-2.7-2.5-4-1-1.7-3.8-2.6-5.2-1.6.1.6.6 1 .1 1.7-.3.4-.1 1.3-.1 1.9 0 3.2.9 6.1 2.5 8.8.9 1.6 1.4 3.3 2 5.1.4 1 .7 1.9 1 2.9.9 2.9 1.7 5.9 2.6 8.8.4 1.6 1 3 1.4 4.5.1.9.1 1.7.3 2.6.1 2.2.3 4.3.6 6.4.4 3 1 6.1 1.7 9.1.5 2.6-.3 4.3-1.3 5.9zM248 288c-1.3.7-2.6 1.4-4 2.2-1.9 1-3.8 1.9-5.6 2.9-2.9 1.4-5.8 2.9-8.7 4.3-2.7 1.4-5.3 3-7.8 5.1-.7.6-1.6.9-2.3 1.4-.4.3-.7.9-1.2 1.3-1.2 1-2.5 1.9-3.6 2.9-.7.6-1 0-1.3-.4-.6-.7-1.2-1.4-1.7-2.2-.6-.6-.6-1 0-1.4.1-.1.4-.3.7-.4-.7-.1-1.3-.1-1.9-.1-.9 0-1.3-.6-1.3-1.3 0-.3.4-.9.7-1 3.3-1.7 6.8-3.5 10.1-5.3 2-1 4-2.3 6.2-3.2 3.8-1.4 7.7-2.7 11.5-4 2.9-.9 5.9-1.7 9-2.5 1-.3 2.2-.4 3.2-.6.3 0 .9-.1 1-.3.6-1.2 1.7-1 2.7-1.2.3.9-.3 1.2-.7 1.4-1.7.7-3.3 1.6-5 2.4zm7.2 58.2c-1.6-4.6-2.6-9.5-2.6-14.6 0-1.9-.3-3.6-.4-5.5-.1-4-.3-8.1-.4-12.1v-2.9c0-.3.3-.6.3-1s.1-.9 0-1.3c-.4-.9 0-1.9 1-2.3 1.4-.4 2.9-.9 4.3-1.2 1.2-.3 2.3-.6 3.6-1 .1.7.3 1.4.4 2.2.1.9.1 1.7.1 2.6.1 1-.1 1.4-1.2 1.4-1.4 0-2.9.6-4 1.4h.1l-.1.1v3.8h.1c.1.1.3.3.4.3 1.6.4 3.2.1 4.8 0 .1 1.3.1 2.6.3 4h-3.2c-1.6.1-1.9.4-1.9 2 0 2.5-.3 5.1-.1 7.5.1 2.5.7 5.1 1 7.5.1.6.1 1.3.3 2 1.6-.6 3.2-1.2 4.9-1.9.1 1.6.4 2.9.4 4.2 0 .1-.1.4-.3.4-2.6 1.8-5.2 3.1-7.8 4.4zm26 49.7c-.1.6-.1 1.3-.1 2 .1 1.4-.3 2.3-2 3 .1-1.3.3-2.3.4-3.5s.3-2.3.7-3.5 1.3-2 2-3.2c.1.4.3.4.3.6-1.2 1.3-1 3-1.3 4.6zm17.4-36.7c-.3 2.2-.6 4.5-1.2 6.5-.4 1.6-1 3-1.7 4.5-.9 1.7-2 3.3-2.9 4.9-.3.6-.4 1.2-.6 1.7-.1-.1-.1-.3-.3-.4-.1.4-.1.9-.4 1.2-2 3.2-3.9 6.4-5.9 9.5-.1.3-.6.4-.9.7 1.9-3.5 3.6-6.9 5.5-10.4-.1.1-.3.3-.6.4 0 0-.1 0-.1-.1.6-1.4 1.2-2.7 1.7-4.2 1.3-2.5 2-5.1 2.3-7.9.1-1.4.4-2.9.6-4.3.1-.7 0-1.4 0-2.2.1-1 .3-1.9.4-2.9 0-.3.4-.6.6-.7 1.3-.3 2.6-.4 4-.7 0 1.8-.3 3.1-.5 4.4zm39.2-31c-3.8 1-7.5 1.9-11.3 3-1.7.4-3.3 1.4-4.9 2-.7.3-1.3.7-2 1-3.6 1-7.2 2-10.8 3.2-4.5 1.4-8.8 3.2-13.1 4.9-2.3.9-4.6 2-6.9 3.2-4.5 2.3-8.8 4.6-13.1 7.1-1 .6-1.7 1.4-2.6 2.2-.4.3-1 .4-1.4.7-.6.6-1 1.3-1.6 1.7-.6.4-1.3.7-1.9 1.2-2 1.6-3.9 3.2-5.8 4.8l.1.1c-.1.1-.3.3-.4.3-.7-.1-1.4-.3-1.4-1.3 0-.9 0-1.7-1-2.2-.3-.1-.3-.6-.4-1-.3-1-.4-2.2-.9-3.2-.3-.7 0-.9.6-1.2 2-1 3.9-2 5.9-3 3.5-1.6 6.9-3.3 10.4-4.9 2-.9 3.9-1.9 5.9-2.7 1.6-.7 3.3-1.3 4.9-1.9 2.5-1 4.8-2 7.2-2.9 3.8-1.3 7.5-2.6 11.3-3.9 1-.3 1.9-.7 2.7-1.2 2.5-.7 4.8-1.4 7.1-2 2.5-.6 4.8-1.2 7.1-1.9.1 0 .3-.1.3-.1 2.6-.4 5.2-.9 7.7-1.2 2.7-.4 5.6-1 8.4-1.4.3 0 .6 0 .9.1v.3c-.2-.1-.6 0-1 .2zm14.4-10.4c-2.2.3-4.3.6-6.6 1-1.7.3-3.5.7-5.3 1.2-.1-2-.1-4.2-.3-6.2-.1-2.9-.4-5.8-.6-8.7-.1-2.3-.4-4.8-.6-7.1 0-2.5.1-4.9.1-7.4 0-.4 0-.9-.1-1.3h-.1c.1-2 0-3.9-.1-5.9.1 0 .3-.1.3-.1 2.2-.6 4.2-1.2 6.4-1.6 1.3-.3 2.7 0 4-.1 1 0 1.2.6 1.3 1.4.1 1.2.1 2.5.4 3.6.1.9-.1 1-.9 1-2 .1-4.2.4-6.2.6-.7 0-1 .3-.9 1 .1.6.3 1.2.4 1.7.4 1.9.4 1.9 2.5 1.9 1.9 0 1.9 0 2.2 1.9 0 .6.1 1 .1 1.6-.9.1-1.4.3-2.2.4-.9.1-1 .6-1 1.3 0 2 .1 4 .1 6.1v.1c1.2 2.5.9 4.9 1 7.5 0 0 0 .1.1.1 2.2-.3 4.2-.4 6.6-.7v2.9c0 .9.1 1.6.3 2.5 0 1-.3 1.3-.9 1.3z"/><path d="M277.9 312.7c.1-.1.3-.3.4-.6 1-2 2-4 2.9-6.1v-1c-1.2-.3-2.2-.6-3.2-.9-.1 0-.4.1-.6.3-.3.7-.9 1.4-.9 2-.1 2.5 0 4.9 0 7.5.5-.3.9-.7 1.4-1.2zM307.6 246.9c.4.3.9.4 1.6.7.1-.3.6-.7.7-1.2 1-2.5.9-5.1.9-7.7 0-.7-.4-1.7-1-2.3-.4-.4-1.3-.4-2.2-.7-.1.1-.1.3-.1.4-.1 3.3-.1 6.5-.3 9.8 0 .6.3.8.4 1zM252.6 258.2c-.6 1.7-.4 3.5-.1 5.1.1.6.6 1 .9 1.4.4-.4 1.2-.7 1.4-1.2.3-.7.1-1.4.3-2.3-.1-1.7-.5-2.3-2.5-3zM331.7 253c0-1 .1-2 .1-3 0-3.5-.3-6.9-1.4-10.4-.4-1.4-1.2-2.5-2.9-2.6h-.6c-.6 1.4-1 3-1.2 4.8v.4c-.1 1.4-.3 2.9-.1 4.5 0 .4.1.9.1 1.3v1.3c.3 3.3 1.2 6.6 2.2 9.7.1.3.3.4.6.6.1.1.6.3.9.3.4.3 1.2.3 1.4-.3.6-.9.9-1.7 1-2.9 0-1.3 0-2.4-.1-3.7zM235.8 211.7c-1.3-.4-1.9 0-2 1.3-.1 3 .1 5.9.9 9.2 1.2-.7 2.2-1.3 3-2 1.7-1.3 2.6-3 1.9-5.1-.4-1.7-2-2.9-3.8-3.4zM251.3 211.7v5.3c.3 4 .9 8.1 2.7 12 .6 1.3 2.2 1.6 3 .6.4-.6.7-1.3.9-2 .1-1 0-2.2 0-3.2h-.1v-.9c-.3-4.2-.7-8.4-2.5-12.3-.4-1.2-1.2-1.4-2.5-1.4-.8.3-1.5.9-1.5 1.9zM223.4 270.4c-.3 0-.6.6-.9.9-.1.3 0 .6-.1 1.2 0 .4 0 1 .1 1.6 0 .3.3.6.6.6.1 0 .7-.1.7-.4.3-1 .6-2 .6-2.9.2-.8-.5-1.1-1-1zM220.3 224.7c1 0 1.6-.7 1.9-1.7.1-.6.4-1.3.6-1.9.3-.9.4-1.7.7-2.5-.4-2.2-.4-4-2-5.8-.7-.7-1.3-1.2-2.2-1.3-.6-.1-1 .1-1.2.7v1.9c-.4 3 0 6.1.7 9 .2.8.4 1.7 1.5 1.6zM292.9 215c.1 1.2 0 2.5.3 3.6.1.6.4 1.3.9 1.7.1.1 1.2-.3 1.4-.7 2.2-2 3.6-4.5 3.8-7.4 0-3-2.6-6.2-5.5-6.5-.4 0-1 .3-1.3.6-.3.4-.3 1.2-.3 1.7.4 2.4.5 4.7.7 7z"/></svg>