<?xml version="1.0" standalone="no"?>
<!DOCTYPE svg PUBLIC "-//W3C//DTD SVG 1.1//EN" "http://www.w3.org/Graphics/SVG/1.1/DTD/svg11.dtd" >
<!--
2018-6-15: Created with FontForge (http://fontforge.org)
-->
<svg xmlns="http://www.w3.org/2000/svg" xmlns:xlink="http://www.w3.org/1999/xlink" version="1.1">
<metadata>
Created by FontForge 20180321 at Fri Jun 15 11:56:41 2018
 By Christopher Leckie

</metadata>
<defs>
<font id="fontcustom" horiz-adv-x="512" >
  <font-face 
    font-family="fontcustom"
    font-weight="400"
    font-stretch="normal"
    units-per-em="512"
    panose-1="2 0 5 3 0 0 0 0 0 0"
    ascent="448"
    descent="-64"
    bbox="-3.10352 -66.415 819.2 449.348"
    underline-thickness="25.6"
    underline-position="-51.2"
    unicode-range="U+0020-F14D"
  />
    <missing-glyph />
    <glyph glyph-name="space" unicode=" " horiz-adv-x="200" 
 />
    <glyph glyph-name="icon-scale" unicode="&#xf134;" 
d="M380.343 445.074l62.9033 -64.3652c4.38867 -4.38867 4.38867 -10.2402 0 -14.6289s-10.2402 -4.38867 -14.6289 0l-43.8857 43.8857v-462.263c0 -5.85156 -4.38867 -10.2402 -10.2402 -10.2402s-11.7031 4.38867 -11.7031 10.2402v465.188l-46.8105 -46.8115
c-4.38867 -4.38867 -10.2402 -4.38867 -14.6289 0c-4.38867 2.92578 -4.38867 10.2402 0 14.6289l64.3652 64.3652c4.38867 4.38867 10.2402 4.38867 14.6289 0zM231.132 317.806l62.9023 -65.8281c4.38867 -4.38867 4.38867 -10.2402 0 -14.6289
s-10.2402 -4.38867 -14.6289 0l-43.8857 45.3486v-333.531c0 -5.85156 -4.3877 -10.2402 -10.2393 -10.2402s-11.7031 4.38867 -11.7031 10.2402v336.457l-46.8115 -46.8115c-4.38867 -4.38867 -10.2402 -4.38867 -14.6289 0c-4.3877 2.92578 -4.3877 10.2402 0 14.6289
l64.3662 64.3652c4.38867 4.38867 10.2402 4.38867 14.6289 0zM81.9199 189.074c0 0 64.3662 -62.9023 65.8291 -62.9023c4.3877 -4.38867 4.3877 -10.2402 0 -14.6289c-4.38867 -4.38867 -10.2402 -4.38867 -14.6289 0l-45.3486 43.8857v-206.263
c0 -5.85156 -4.38867 -10.2402 -10.2402 -10.2402s-11.7031 4.38867 -11.7031 10.2402v209.188l-46.8105 -46.8115c-4.38867 -2.92578 -10.2402 -2.92578 -14.6289 0s-5.85156 10.2402 -1.46289 14.6289l64.3652 62.9023c4.38867 4.38867 10.2402 4.38867 14.6289 0z" />
    <glyph glyph-name="icon-traffic" unicode="&#xf140;" 
d="M256 448c140.8 0 256 -115.2 256 -256s-115.2 -256 -256 -256s-256 115.2 -256 256s115.2 256 256 256zM256 395.2c-112 0 -203.2 -91.2002 -201.6 -203.2c0 -27.2002 4.7998 -56 16 -80l123.199 128l3.2002 3.2002c4.7998 6.39941 12.7998 9.59961 19.2002 9.59961
s14.4004 -3.2002 19.2002 -8l4.7998 -4.7998l54.4004 -56l123.199 128l1.60059 1.59961c-36.7998 49.6006 -96 81.6006 -163.2 81.6006zM256 -11.2002c112 0 203.2 91.2002 203.2 204.8c0 24 -4.7998 46.4004 -12.7998 68.8008l-131.2 -136
c0 -1.60059 -1.60059 -1.60059 -1.60059 -3.2002c-9.59961 -11.2002 -27.1992 -12.7998 -38.3994 -1.60059l-57.6006 62.4004l-116.8 -121.6c36.7998 -44.8008 92.7998 -73.6006 155.2 -73.6006z" />
    <glyph glyph-name="icon-twitter-solo" unicode="&#xf142;" 
d="M479.18 388.923c-8.20508 -22.9746 -24.6152 -44.3076 -45.9492 -55.7949c21.334 3.28223 41.0264 8.20508 59.0771 16.4102c-14.7695 -21.333 -31.1797 -39.3838 -50.8721 -54.1533v-13.1279c0 -137.847 -101.743 -295.385 -287.179 -295.385
c-54.1543 0 -108.309 16.4102 -154.257 45.9482c8.20508 -1.64062 16.4102 -1.64062 24.6152 -1.64062c44.3076 0 88.6152 16.4102 124.718 44.3076c-44.3076 1.64062 -82.0508 31.1797 -95.1787 72.2051c6.56348 -1.64062 13.1279 -1.64062 19.6914 -1.64062
c8.20605 0 18.0518 1.64062 26.2568 3.28125c-47.5898 11.4873 -80.4102 52.5127 -80.4102 101.744v1.64062c14.7695 -8.20508 29.5381 -13.1279 45.9482 -13.1279c-27.8975 19.6924 -44.3076 52.5127 -44.3076 86.9746c0 18.0508 4.92383 36.1025 13.1289 52.5127
c50.8711 -64 126.358 -103.385 208.41 -108.308c-1.6416 6.56348 -3.28223 14.7686 -3.28223 22.9736v0c0 55.7949 45.9482 103.385 101.743 103.385c27.8975 0 55.7949 -11.4873 73.8467 -32.8203c22.9746 3.28223 44.3076 13.1279 64 24.6152z" />
    <glyph glyph-name="icon-stack" unicode="&#xf13b;" 
d="M49.7373 232.96v0l-43.8857 27.7939c-2.92578 1.46289 -5.85156 5.85156 -5.85156 10.2402s2.92578 8.77734 5.85156 10.2402l266.24 165.303c4.38867 2.92578 8.77637 2.92578 13.165 0l264.777 -165.303c2.92578 -1.46289 5.85156 -5.85156 5.85156 -10.2402
s-1.46289 -7.31445 -5.85156 -10.2402l-43.8857 -27.7939l43.8857 -27.7939c2.92578 -1.46289 5.85156 -5.85156 5.85156 -10.2402s-1.46289 -7.31445 -5.85156 -10.2402l-43.8857 -27.7939l43.8857 -27.7949c2.92578 -1.46191 5.85156 -5.85059 5.85156 -10.2393
s-1.46289 -7.31445 -5.85156 -10.2402l-264.777 -163.84c-2.92578 -1.46289 -4.38867 -1.46289 -7.31445 -1.46289c-2.9248 0 -5.85059 0 -7.31348 1.46289l-264.777 163.84c-2.92578 1.46289 -5.85156 5.85156 -5.85156 10.2402s2.92578 8.77734 5.85156 10.2393
l43.8857 27.7949l-43.8857 27.7939c-2.92578 1.46289 -5.85156 5.85156 -5.85156 10.2402s2.92578 8.77734 5.85156 10.2402zM519.314 118.857v0l-36.5713 23.4053l-197.486 -122.88c-2.92578 -1.46289 -4.38867 -1.46289 -7.31445 -1.46289
c-2.9248 0 -5.85059 0 -7.31348 1.46289l-197.486 122.88l-36.5713 -23.4053l241.371 -149.212zM519.314 194.926v0l-36.5713 23.4053l-197.486 -122.88c-2.92578 -1.46289 -4.38867 -1.46289 -7.31445 -1.46289c-2.9248 0 -5.85059 0 -7.31348 1.46289l-197.486 122.88
l-36.5713 -23.4053l241.371 -149.212zM277.942 420.206v0l-241.371 -149.212l241.371 -149.211l241.372 149.211z" />
    <glyph glyph-name="icon-x" unicode="&#xf14d;" 
d="M209.6 192l-44.7998 48c-12.7998 14.4004 -12.7998 35.2002 1.60059 48c14.3994 12.7998 35.1992 12.7998 48 -1.59961l41.5996 -44.8008l41.5996 44.8008c12.8008 14.3994 33.6006 14.3994 48 1.59961c14.4004 -12.7998 14.4004 -33.5996 1.60059 -48l-44.7998 -48
l44.7998 -48c12.7998 -14.4004 12.7998 -35.2002 -1.60059 -48c-14.3994 -12.7998 -35.1992 -12.7998 -48 1.59961l-41.5996 44.8008l-41.5996 -44.8008c-12.8008 -14.3994 -33.6006 -14.3994 -48 -1.59961c-14.4004 12.7998 -14.4004 33.5996 -1.60059 48zM252.8 -11.2002
c112 0 203.2 91.2002 203.2 203.2s-91.2002 203.2 -203.2 203.2s-203.2 -91.2002 -203.2 -203.2s91.2002 -203.2 203.2 -203.2zM256 -64c-140.8 0 -256 115.2 -256 256s115.2 256 256 256s256 -115.2 256 -256s-115.2 -256 -256 -256z" />
    <glyph glyph-name="icon-alert" unicode="&#xf104;" 
d="M256 -11.2002c112 0 203.2 91.2002 203.2 203.2s-91.2002 203.2 -203.2 203.2s-203.2 -91.2002 -203.2 -203.2s91.2002 -203.2 203.2 -203.2zM256 -64c-140.8 0 -256 115.2 -256 256s115.2 256 256 256s256 -115.2 256 -256s-115.2 -256 -256 -256zM256 336
c17.5996 0 32 -14.4004 32 -32v-144c0 -17.5996 -14.4004 -32 -32 -32s-32 14.4004 -32 32v144c0 17.5996 14.4004 32 32 32zM224 80c0 17.6729 14.3271 32 32 32s32 -14.3271 32 -32s-14.3271 -32 -32 -32s-32 14.3271 -32 32z" />
    <glyph glyph-name="icon-lock" unicode="&#xf123;" 
d="M31.6953 -64c-17.0664 0 -31.6953 14.6289 -31.6953 32.9141v213.334c0 17.0664 14.6289 31.6943 31.6953 31.6943h31.6953v85.334c0 81.6758 67.0479 148.724 149.942 148.724c82.8955 0 149.943 -67.0479 149.943 -149.942v-85.334h31.6953
c17.0664 0 31.6953 -14.6279 31.6953 -31.6953v-213.333c0 -17.0664 -14.6289 -31.6953 -31.6953 -31.6953h-363.276zM85.333 299.276v-85.334h42.667v84.1152c0 47.542 37.79 86.5518 85.333 86.5518s85.334 -39.0098 85.334 -86.5518v-84.1152h42.666v85.334
c0 69.4854 -57.2949 126.781 -128 126.781c-70.7041 0 -128 -57.2959 -128 -126.781zM277.942 213.942h-2.4375v84.1152c0 35.3516 -29.2568 64.6094 -63.3906 64.6094s-63.3906 -29.2578 -63.3906 -64.6094v-84.1152h129.219zM21.9424 181.028h-1.21875v-213.333
c0 -6.0957 4.87598 -10.9717 10.9717 -10.9717h364.495c6.0957 0 10.9717 4.87598 10.9717 10.9717v213.333c0 6.0957 -4.87598 10.9717 -10.9717 10.9717h-363.276c-6.09473 0 -10.9717 -4.87598 -10.9717 -10.9717zM184.076 76.1904v0
c-8.5332 7.31445 -13.4092 18.2861 -10.9717 31.6953c0 23.1621 19.5049 42.667 42.667 42.667c10.9717 0 21.9424 -4.87695 30.4766 -13.4102c15.8477 -15.8477 15.8477 -43.8857 -1.21973 -59.7334l12.1904 -60.9521c1.21973 -1.21875 1.21973 -3.65723 1.21973 -4.87598
c0 -6.0957 -4.87695 -10.9717 -10.9717 -10.9717h-64.6094h-2.43848c-6.09473 1.21875 -9.75195 6.0957 -8.5332 12.1904z" />
    <glyph glyph-name="icon-pencil" unicode="&#xf129;" 
d="M89.126 165.452c-5.68848 -3.79297 -13.2744 -3.79297 -17.0664 1.89648l-36.0303 36.0293c-5.68848 3.79199 -5.68848 11.3779 0 17.0664l7.58594 9.48145l-26.5488 26.5479c-15.1699 15.1709 -15.1699 37.9268 0 53.0967l127.052 123.26
c15.1709 15.1699 37.9268 15.1699 53.0967 0l26.5479 -26.5488l9.48145 9.48145c3.79297 5.68945 11.3779 5.68945 17.0674 0l36.0293 -36.0293c5.68848 -3.79297 5.68848 -11.3779 0 -17.0664l-9.48145 -9.48145l204.8 -204.801
c1.89648 -1.89551 3.79297 -3.79199 3.79297 -5.68848v0l26.5479 -187.733v-3.79297c-1.89648 -7.58496 -7.58496 -13.2734 -15.1699 -11.377l-187.733 26.5479v0c-1.89648 1.89648 -3.79297 1.89648 -5.68945 3.79297l-204.8 204.8zM151.704 228.029v0l-36.0303 -36.0293
l197.215 -197.215l36.0303 36.0293zM204.8 283.022l-36.0293 -36.0303l197.215 -197.215l36.0293 36.0303zM477.866 19.4375l-13.2734 92.918l-125.155 -125.155l92.918 -13.2744zM485.452 -33.6592l-3.79297 20.8594l-17.0664 -17.0664zM455.111 138.903v0
l-195.318 197.215l-36.0303 -36.0293l195.318 -197.215zM36.0293 273.541l26.5488 -26.5488l142.222 142.223l-26.5479 26.5479c-3.79297 5.68945 -11.3779 5.68945 -17.0664 0l-125.156 -125.155c-5.68848 -3.79297 -5.68848 -13.2744 0 -17.0664zM62.5781 210.963
c0 0 17.0664 -18.9629 17.0664 -17.0664l178.252 178.252l-17.0664 17.0664z" />
    <glyph glyph-name="icon-unlock" unicode="&#xf143;" 
d="M488.48 406.389c1.80957 3.61816 1.80957 3.61816 1.80957 7.23633c0 3.61914 0 5.42773 -3.61914 9.0459c-3.61816 5.42773 -10.8545 5.42773 -16.2822 0l-260.522 -262.332l16.2822 -16.2822zM486.671 321.356l-27.1377 27.1387l-61.5117 -61.5127l27.1377 -27.1377z
M128.452 -44.0986c57.8945 0 106.742 48.8477 106.742 104.933c0 59.7031 -47.0391 106.742 -106.742 106.742s-106.742 -48.8486 -106.742 -106.742c0 -57.8945 47.0391 -104.933 106.742 -104.933zM512 415.435c0 -9.0459 -3.61816 -18.0918 -10.8555 -25.3281
l-27.1377 -27.1387l34.375 -34.374c1.80859 -1.80957 3.61816 -5.42773 3.61816 -7.2373c0 -1.80859 -1.80957 -5.42676 -3.61816 -7.23633l-75.9863 -75.9863c-1.80859 -1.80859 -5.42773 -3.61816 -7.23633 -3.61816c-1.80957 0 -5.42773 1.80957 -7.2373 3.61816
l-34.374 34.375l-144.735 -144.735c10.8555 -19.9004 18.0918 -41.6113 18.0918 -65.1299c0 -68.75 -57.8936 -126.644 -128.452 -126.644s-128.452 57.8936 -128.452 126.644c0 68.749 57.8936 126.643 128.452 126.643c23.5195 0 45.2295 -5.42773 63.3213 -16.2822
l264.142 265.95c12.6641 12.6641 34.375 12.6641 47.0391 0c5.42773 -5.42773 9.0459 -14.4736 9.0459 -23.5195zM128.452 149.484c47.0391 0 85.0322 -37.9932 85.0322 -85.0322s-37.9932 -85.0312 -85.0322 -85.0312s-85.0312 37.9922 -85.0312 85.0312
s37.9922 85.0322 85.0312 85.0322zM128.452 -0.678711c34.375 0 63.3213 28.9473 63.3213 63.3223c0 34.374 -28.9463 63.3213 -63.3213 63.3213c-34.374 0 -63.3213 -28.9473 -63.3213 -63.3213c0 -34.375 27.1377 -63.3223 63.3213 -63.3223z" />
    <glyph glyph-name="icon-email" unicode="&#xf117;" 
d="M756.869 436.869v0s0 -2.22559 2.22656 -2.22559v-2.22656v-474.156v-2.22559v-2.22656l-2.22656 -2.22559v-2.22656v0c-2.22559 0 -2.22559 -2.22559 -4.45215 -2.22559h-2.22559c-2.22656 -2.22656 -4.45215 -2.22656 -6.67871 -2.22656h-725.704
c-2.22559 0 -4.45215 2.22656 -6.67773 2.22656h-2.22656c-2.22559 0 -2.22559 0 -4.45215 2.22559v0v2.22656c-2.22559 0 -2.22559 2.22559 -2.22559 2.22559v2.22656v2.22559v476.383v2.22559v2.22656l2.22559 2.22559v2.22656v0l2.22656 2.22559
c0 2.22656 2.22559 2.22656 2.22559 2.22656h2.22656c2.22559 0 2.22559 0 4.45215 -2.22656v0h730.156v0h2.22559h2.22656c0 -2.22559 2.22559 -2.22559 2.22559 -2.22559l2.22656 -2.22656v0v-2.22559c2.22559 0 2.22559 -2.22656 2.22559 -2.22656zM31.165 396.8
v-402.922l231.514 200.349zM378.435 138.574v0l320.557 278.261h-641.113zM287.165 174.191v0l-229.287 -200.348h638.888l-229.287 200.348l-80.1396 -69.0088c-4.45215 -4.45215 -13.3564 -4.45215 -20.0342 0zM494.191 196.452c0 0 231.513 -202.574 231.513 -200.348
v402.922z" />
    <glyph glyph-name="icon-restore" unicode="&#xf131;" 
d="M291.84 448c39.2539 0 76.7998 -8.5332 109.227 -23.8936c3.41406 -1.70605 5.12012 -3.41309 8.5332 -5.12012c0 0 1.70703 0 1.70703 -1.70605c3.41309 -1.70703 6.82715 -3.41406 8.5332 -3.41406c1.70703 0 1.70703 -1.70605 3.41309 -1.70605
c1.70703 -1.70703 5.12012 -3.41309 6.82715 -5.12012c1.70703 0 1.70703 -1.70703 3.41309 -1.70703c1.70703 -1.70605 5.12012 -3.41309 6.82715 -5.12012c1.70605 0 1.70605 -1.70605 3.41309 -1.70605c1.70703 -1.70703 5.12012 -3.41309 6.82617 -5.12012
l1.70703 -1.70703c1.70703 -1.70605 5.12012 -3.41309 6.82715 -5.12012l1.70605 -1.70605c52.9072 -46.0801 85.334 -114.347 85.334 -189.44v-3.41309c0 -64.8535 -23.8936 -124.587 -64.8535 -168.96l-1.70703 -1.70703l-5.12012 -5.12012l-1.70605 -1.70605
c-46.0801 -49.4932 -109.228 -78.5068 -180.907 -78.5068h-5.12012c-64.8535 0 -129.706 23.8936 -179.2 73.3867c-5.11914 35.8398 29.0137 47.7861 46.0801 32.4268c37.5469 -34.1338 85.334 -51.2002 133.12 -49.4932h20.4805c3.41309 0 5.12012 0 8.5332 1.70605
h1.70703c88.7461 13.6533 163.84 85.334 172.373 175.787c0 6.82617 1.70605 13.6533 1.70605 20.4795v3.41406c0 59.7334 -27.3066 114.347 -69.9727 150.187c-1.70703 1.70605 -3.41309 1.70605 -5.12012 3.41309l-3.41309 3.41309
c-1.70703 1.70703 -3.41406 1.70703 -3.41406 3.41406c-1.70605 1.70605 -3.41309 1.70605 -3.41309 3.41309c-1.70605 0 -1.70605 1.70605 -3.41309 1.70605c-1.70703 1.70703 -3.41309 1.70703 -5.12012 3.41406c-1.70703 0 -1.70703 1.70605 -3.41309 1.70605
c-1.70703 1.70703 -3.41309 1.70703 -5.12012 3.41406c-1.70703 0 -1.70703 1.70605 -3.41309 1.70605c-1.70703 0 -3.41406 1.70703 -5.12012 1.70703c-1.70703 0 -3.41406 1.70605 -3.41406 1.70605c-1.70605 0 -1.70605 1.70703 -3.41309 1.70703
c-15.3594 6.82715 -32.4268 11.9463 -47.7861 15.3604c-3.41406 0 -5.12012 1.70605 -8.5332 1.70605h-51.2002c-3.41309 0 -5.12012 0 -8.5332 -1.70605h-1.70703c-88.7471 -13.6533 -163.84 -85.334 -172.373 -175.787c11.9463 8.5332 17.0664 13.6533 17.0664 13.6533
c11.9463 5.12012 18.7734 3.41309 23.8936 -1.70605c5.12012 -5.12012 3.41309 -13.6533 -1.70703 -18.7734c-35.8398 -29.0137 -54.6133 -44.374 -56.3203 -46.0801c-3.41309 -1.70703 -6.82617 -3.41406 -8.5332 -3.41406c-3.41309 0 -6.82617 1.70703 -8.5332 5.12012
c-29.0127 37.5469 -44.373 58.0273 -44.373 58.0273c-6.82715 8.5332 0 23.8926 17.0664 20.4795c5.12012 -6.82617 10.2402 -11.9463 13.6533 -18.7734c5.12012 54.6133 27.3066 102.4 59.7334 139.947c37.5469 42.666 92.1602 69.9727 145.066 80.2129h5.12012
c15.3604 3.41309 30.7207 5.12012 46.0801 5.12012zM317.44 190.293l52.9062 -1.70605c17.0664 0 30.7197 -13.6533 30.7197 -30.7207c0 -17.0664 -13.6533 -30.7197 -30.7197 -30.7197h-83.627c-17.0664 0 -30.7197 13.6533 -30.7197 30.7197v143.36
c0 17.0664 13.6533 30.7197 30.7197 30.7197c17.0674 0 30.7207 -13.6533 30.7207 -30.7197v-110.934z" />
    <glyph glyph-name="icon-vps" unicode="&#xf145;" 
d="M11.7031 -42.0576v0c-5.85156 0 -11.7031 5.85156 -11.7031 11.7031s4.38867 10.2402 11.7031 10.2402h213.577c2.92578 10.2402 11.7021 17.5547 20.4795 20.4795v24.8691h-144.822c-19.0176 0 -33.6465 14.6289 -33.6465 33.6455v89.2344
c0 7.31445 2.92578 16.0918 8.77734 21.9434c-5.85156 5.85059 -8.77734 13.165 -8.77734 21.9424v89.2344c0 7.31445 2.92578 16.0918 8.77734 21.9424c-5.85156 5.85156 -8.77734 13.166 -8.77734 21.9434v89.2344c0 19.0166 14.6289 33.6455 32.1836 33.6455h311.588
c19.0176 0 33.6465 -14.6289 33.6465 -33.6455v-89.2344c0 -8.77734 -2.92578 -16.0918 -8.77734 -21.9434c5.85156 -5.85059 8.77734 -13.165 8.77734 -21.9424v-89.2344c0 -8.77734 -2.92578 -16.0918 -8.77734 -21.9424
c5.85156 -5.85156 8.77734 -13.166 8.77734 -21.9434v-89.2344c0 -19.0166 -14.6289 -33.6455 -33.6465 -33.6455h-144.822v-24.8691c10.2402 -2.9248 17.5537 -11.7021 20.4795 -20.4795h213.577c5.85156 0 10.2402 -4.38867 10.2402 -10.2402
s-4.38867 -11.7031 -10.2402 -11.7031h-213.577c-4.38867 -13.165 -16.0908 -21.9424 -30.7197 -21.9424c-13.166 0 -26.3311 8.77734 -30.7197 21.9424h-213.577zM89.2344 192v0c0 -5.85156 4.38867 -11.7031 10.2402 -11.7031h313.051v0
c7.31445 0 11.7031 5.85156 11.7031 11.7031v89.2344c0 7.31445 -5.85156 11.7031 -11.7031 11.7031h-311.588c-7.31445 0 -11.7031 -5.85156 -11.7031 -11.7031v-89.2344zM89.2344 414.354v0l-1.46289 -89.2344c0 -7.31445 5.85156 -11.7031 11.7031 -11.7031h313.051v0
c7.31445 0 11.7031 5.85156 11.7031 11.7031v89.2344c0 7.31445 -5.85156 11.7031 -11.7031 11.7031h-311.588c-7.31445 0 -11.7031 -5.85156 -11.7031 -11.7031zM89.2344 58.8799v0c0 -7.31445 4.38867 -11.7031 10.2402 -11.7031h313.051
c7.31445 0 11.7031 5.85156 11.7031 11.7031v89.2344c0 7.31445 -5.85156 11.7031 -11.7031 11.7031h-311.588c-7.31445 0 -11.7031 -5.85156 -11.7031 -11.7031v-89.2344zM256 -20.1143c-5.85156 0 -11.7031 -4.38867 -11.7031 -11.7031s5.85156 -11.7021 11.7031 -11.7021
c7.31445 0 11.7031 5.85059 11.7031 11.7021c0 7.31445 -5.85156 11.7031 -11.7031 11.7031zM122.88 336.823v0c-7.31445 0 -11.7031 4.38867 -10.2402 11.7021v43.8857c0 5.85156 4.38867 10.2402 10.2402 10.2402s11.7031 -4.38867 11.7031 -10.2402v-43.8857v0
c0 -7.31348 -5.85156 -11.7021 -11.7031 -11.7021zM122.88 269.531v0c5.85156 0 10.2402 -4.38867 10.2402 -11.7031v-43.8857c0 -5.85059 -4.38867 -10.2393 -10.2402 -10.2393s-11.7031 4.38867 -11.7031 10.2393v43.8857v0c0 7.31445 5.85156 11.7031 11.7031 11.7031z
M122.88 136.411v0v0c5.85156 0 10.2402 -4.38867 10.2402 -11.7021v-43.8857c0 -5.85156 -4.38867 -10.2402 -10.2402 -10.2402s-11.7031 4.38867 -11.7031 10.2402v43.8857c0 7.31348 5.85156 11.7021 11.7031 11.7021zM389.12 358.766
c-2.92578 0 -5.85156 1.46289 -7.31445 2.92578s-2.92578 4.38867 -2.92578 7.31445s1.46289 5.85156 2.92578 7.31445c4.38867 4.38867 11.7031 4.38867 16.0918 0c1.46289 -1.46289 2.92578 -4.38867 2.92578 -7.31445v0c0 -5.85156 -5.85156 -10.2402 -11.7031 -10.2402z
M345.234 358.766c-2.92578 0 -5.85156 1.46289 -8.77734 2.92578c-1.46289 1.46289 -2.92578 4.38867 -2.92578 7.31445s1.46289 5.85156 2.92578 7.31445c4.38867 4.38867 11.7031 4.38867 16.0918 0v0c4.38867 -4.38867 4.38867 -10.2402 0 -14.6289
c-1.46289 -1.46289 -4.38867 -2.92578 -7.31445 -2.92578zM299.886 358.766c-2.92578 0 -4.38867 1.46289 -7.31445 2.92578c-1.46289 1.46289 -2.92578 4.38867 -2.92578 7.31445s1.46289 5.85156 2.92578 7.31445c4.38867 4.38867 11.7031 4.38867 16.0918 0
c1.46289 -1.46289 2.92578 -4.38867 2.92578 -7.31445v0c0 -5.85156 -5.85156 -10.2402 -11.7031 -10.2402zM381.806 244.663c4.38867 4.38867 11.7031 4.38867 16.0918 1.46289c1.46289 -1.46289 2.92578 -4.38867 2.92578 -7.31445
c0 -7.31445 -5.85156 -11.7031 -11.7031 -11.7031c-2.92578 0 -5.85156 1.46289 -7.31445 2.92578s-2.92578 4.38867 -2.92578 7.31445s1.46289 5.85156 2.92578 7.31445zM336.457 244.663c4.38867 4.38867 11.7031 4.38867 16.0918 0
c1.46289 -1.46289 2.92578 -4.38867 2.92578 -7.31445v0c0 -5.85156 -5.85156 -10.2402 -11.7031 -10.2402c-2.92578 0 -5.85156 1.46289 -7.31445 2.92578s-2.92578 4.38867 -2.92578 7.31445s1.46289 5.85156 2.92578 7.31445zM292.571 244.663
c4.38867 4.38867 11.7031 4.38867 16.0918 0c1.46289 -1.46289 2.92578 -4.38867 2.92578 -7.31445v0c0 -5.85156 -5.85156 -10.2402 -11.7031 -10.2402c-2.92578 0 -5.85156 1.46289 -7.31445 2.92578s-2.92578 4.38867 -2.92578 7.31445s1.46289 5.85156 2.92578 7.31445z
M389.12 92.5254c-2.92578 -1.46289 -5.85156 0 -8.77734 2.92578c-1.46289 1.46289 -2.92578 4.38867 -2.92578 7.31445s1.46289 5.85156 2.92578 7.31445c4.38867 4.38867 11.7031 4.38867 16.0918 0c1.46289 -1.46289 2.92578 -4.38867 2.92578 -7.31445
s-1.46289 -5.85156 -2.92578 -7.31445s-4.38867 -2.92578 -7.31445 -2.92578zM345.234 92.5254c-2.92578 0 -5.85156 0 -7.31445 2.92578c-1.46289 1.46289 -2.92578 4.38867 -2.92578 7.31445s1.46289 5.85156 2.92578 7.31445c4.38867 4.38867 11.7031 4.38867 16.0918 0
c1.46289 -1.46289 2.92578 -4.38867 2.92578 -7.31445v0c0 -5.85156 -5.85156 -10.2402 -11.7031 -10.2402zM299.886 92.5254c-2.92578 -1.46289 -5.85156 0 -8.77734 2.92578c-1.46289 1.46289 -2.92578 4.38867 -2.92578 7.31445s1.46289 5.85156 2.92578 7.31445
c4.38867 4.38867 11.7031 4.38867 16.0918 0c1.46289 -1.46289 2.92578 -4.38867 2.92578 -7.31445s-1.46289 -5.85156 -2.92578 -7.31445s-4.38867 -2.92578 -7.31445 -2.92578z" />
    <glyph glyph-name="icon-reload" unicode="&#xf130;" 
d="M193.6 -4.7998c1.60059 1.59961 16 17.5996 44.8008 46.3994c4.7998 4.80078 12.7998 4.80078 17.5996 1.60059c4.7998 -4.7998 6.40039 -11.2002 1.59961 -16l-14.3994 -14.4004c84.7998 4.7998 161.6 65.6006 179.2 140.8v1.60059
c0 1.59961 1.59961 4.7998 1.59961 6.39941v16c3.2002 41.6006 -11.2002 83.2002 -40 116.801c-9.59961 9.59961 -6.40039 25.5996 4.7998 33.5996c11.2002 9.59961 27.2002 8 36.7998 -1.59961c38.4004 -43.2002 54.4004 -96 51.2002 -148.801
c0 -12.7998 -3.2002 -27.1992 -6.39941 -38.3994c0 -1.60059 0 -1.60059 -1.60059 -3.2002v-1.59961c-12.7998 -44.8008 -40 -88 -81.5996 -120c-36.7998 -27.2002 -89.6006 -44.8008 -137.601 -48c3.2002 -3.2002 8 -6.40039 12.8008 -9.60059
c4.7998 -4.7998 6.39941 -11.2002 1.59961 -16s-12.7998 -4.7998 -17.5996 -1.59961c0 0 -17.6006 14.3994 -51.2002 40c-3.2002 1.59961 -4.7998 4.7998 -4.7998 8s1.59961 6.39941 3.19922 8zM3.2002 230.4v4.7998c9.59961 46.3994 35.2002 92.7998 76.7998 126.399
c35.2002 28.8008 80 49.6006 129.6 54.4004c-3.19922 3.2002 -8 6.40039 -12.7998 9.59961c-4.7998 3.2002 -6.39941 11.2002 -1.59961 16c6.39941 4.80078 12.7998 6.40039 19.2002 3.2002c0 0 19.1992 -12.7998 54.3994 -38.3994
c3.2002 -3.2002 4.7998 -6.40039 4.7998 -8c0 -3.2002 0 -6.40039 -3.19922 -8c-1.60059 -1.60059 -16 -17.6006 -43.2002 -49.6006c-4.7998 -4.7998 -12.7998 -6.39941 -17.6006 -1.59961c-4.7998 3.2002 -6.39941 11.2002 -1.59961 16c0 0 4.7998 4.7998 12.7998 16
c-84.7998 -11.2002 -153.6 -76.7998 -166.399 -153.601v-1.59961c0 -1.59961 0 -4.7998 -1.60059 -6.40039v-16c0 -41.5996 16 -83.1992 48 -116.8c9.60059 -9.59961 8 -25.5996 -1.59961 -35.2002c-9.60059 -9.59961 -28.7998 -9.59961 -38.4004 0
c-40 43.2002 -60.7998 96 -60.7998 148.801c0 14.3994 1.59961 27.1992 3.2002 40z" />
    <glyph glyph-name="icon-globe" unicode="&#xf11d;" 
d="M62.3301 25.0439v0c-38.9561 44.5215 -62.3301 103.513 -62.3301 166.956s23.374 122.435 62.3301 166.956v0c1.11328 1.11328 2.22656 2.22656 3.33984 4.45312c25.5996 27.8252 56.7646 51.1992 92.3818 65.6689h1.11328
c30.0527 12.2432 62.3311 18.9219 96.835 18.9219s66.7822 -6.67871 96.835 -18.9219c1.11328 0 1.11328 -1.11328 2.22559 -1.11328c40.0703 -16.6953 75.6875 -43.4082 102.4 -77.9131v0v0c33.3916 -43.4082 54.5391 -97.9473 54.5391 -158.052
s-21.1475 -114.644 -55.6523 -158.052v0l-1.11328 -1.11328c-28.9385 -36.7305 -67.8955 -64.5566 -113.53 -81.252v0c-26.7129 -10.0176 -55.6523 -15.583 -85.7041 -15.583s-57.8779 5.56543 -84.5908 14.4697c-1.11328 1.11328 -1.11328 1.11328 -2.22656 1.11328
c-41.1826 14.4688 -77.9131 40.0693 -106.853 73.4609v0v0zM74.5742 338.922v0c-30.0527 -36.7305 -48.9746 -84.5918 -52.3135 -135.791h66.7832c0 41.1826 6.67773 82.3652 17.8086 120.208c-11.1309 4.45215 -22.2617 10.0176 -32.2783 15.583zM244.869 425.739v0
c-26.7129 -2.22656 -52.3125 -7.79102 -75.6865 -16.6953c-13.3564 -22.2617 -25.5996 -46.748 -34.5039 -71.2354c35.6172 -13.3564 72.3477 -20.0352 110.19 -22.2607v110.191zM342.817 409.044v0c-23.374 8.9043 -48.9736 14.4688 -75.6865 16.6953v-110.191
c37.8428 -1.11328 75.6865 4.45215 112.417 15.583c-8.9043 27.8252 -21.1475 53.4258 -36.7305 77.9131zM489.739 203.131v0c-3.33887 47.8604 -20.0352 92.3818 -46.748 128c-12.2432 -5.56543 -23.374 -10.0176 -35.6172 -14.4697
c10.0176 -36.7305 15.582 -75.6875 15.582 -113.53h66.7832zM442.991 52.8691v0c26.7129 35.6182 43.4092 80.1396 45.6348 128h-66.7822c-2.22656 -37.8428 -8.9043 -76.7998 -20.0352 -111.304c14.4697 -4.45215 27.8262 -10.0176 41.1826 -16.6963zM329.461 -29.4961v0
l8.9043 15.583c14.4697 25.5996 26.7129 45.6348 35.6172 69.0088c-35.6172 10.0176 -71.2344 14.4697 -106.852 14.4697v-110.191c22.2607 1.11328 42.2949 4.45215 62.3301 11.1299zM182.539 -29.4961v0c20.0352 -6.67773 41.1826 -11.1299 62.3301 -12.2432v110.191
c-35.6172 -2.22559 -71.2344 -8.9043 -104.626 -20.0352c7.79199 -16.6953 16.6963 -32.2783 26.7129 -50.0869c4.45312 -8.9043 10.0176 -17.8086 15.583 -27.8262zM244.869 293.287v0c-40.0693 2.22559 -79.0254 10.0176 -116.869 23.374
c-11.1309 -36.7305 -16.6953 -74.5742 -16.6953 -113.53h133.564v90.1562zM386.227 309.982v0c-38.957 -12.2432 -77.9131 -17.8086 -117.983 -17.8086h-1.1123v-89.043h133.564c0 36.7305 -4.45215 72.3477 -14.4688 106.852zM267.131 91.8262v0
c38.9561 0 76.7998 -5.56543 113.53 -15.583c10.0176 31.166 16.6953 67.8955 18.9219 104.626h-132.452v-89.043zM244.869 180.869v0h-133.564c2.22559 -37.8428 10.0166 -77.9131 21.1475 -111.304c36.7305 12.2432 74.5742 18.9219 112.417 21.1475v90.1562z
M90.1562 180.869v0h-67.8955c3.33887 -51.1992 22.2607 -99.0605 53.4258 -135.791c11.1309 5.56543 24.4873 11.1309 36.7305 16.6953c-12.2432 35.6182 -20.0342 77.9131 -22.2607 119.096zM90.1562 27.2695v0c16.6963 -16.6953 36.7305 -31.165 57.8789 -43.4082
c0 1.1123 -1.11328 1.1123 -1.11328 2.22559c-10.0176 18.9219 -20.0352 35.6172 -27.8262 54.5391c-10.0176 -4.45215 -18.9219 -8.9043 -28.9395 -13.3564zM362.853 -15.0264v0c25.5996 12.2441 46.7471 30.0527 65.6689 50.0869
c-11.1299 5.56543 -22.2607 10.0176 -33.3906 13.3564c-8.9043 -22.2607 -20.0352 -42.2949 -32.2783 -63.4434zM428.521 348.939v0c-14.4697 16.6953 -31.165 30.0518 -50.0869 42.2949c8.9043 -17.8086 15.583 -35.6172 22.2607 -53.4258
c8.9043 3.33887 17.8086 6.67871 27.8262 11.1309zM133.565 391.234v0c-15.583 -10.0166 -30.0527 -21.1475 -43.4092 -34.5039c7.79199 -4.45215 15.583 -7.79102 23.374 -11.1309c5.56543 15.583 12.2432 31.166 20.0352 45.6348z" />
    <glyph glyph-name="icon-forward" unicode="&#xf11b;" 
d="M256 298.918v0c58.7295 0 106.918 -48.1885 106.918 -106.918s-48.1885 -106.918 -106.918 -106.918s-106.918 48.1885 -106.918 106.918s48.1885 106.918 106.918 106.918zM256 106.165v0c46.6826 0 85.835 37.6465 85.835 85.835s-37.6465 85.835 -85.835 85.835
s-85.835 -37.6465 -85.835 -85.835s39.1523 -85.835 85.835 -85.835zM501.459 106.165v0c6.02344 0 9.03516 -6.02344 9.03516 -12.0479c0 -6.02344 -4.51758 -10.541 -10.541 -10.541h-123.482l129.506 -129.506c4.51758 -4.51758 4.51758 -10.541 0 -15.0586
c-1.50586 -1.50586 -4.51758 -3.01172 -7.5293 -3.01172s-6.02344 1.50586 -7.5293 3.01172l-129.506 129.506v-123.482c0 -6.02344 -4.51758 -10.541 -10.542 -10.541c-6.02344 0 -10.541 4.51758 -10.541 10.541v149.082c0 1.50586 1.50586 3.0127 1.50586 4.51855
c1.50586 3.01172 3.01172 4.51758 6.02344 6.02344c1.50586 1.50586 3.01172 1.50586 4.51855 1.50586h149.082zM10.541 277.835v0c-6.02344 0 -10.541 4.51758 -10.541 10.542c0 6.02344 4.51758 10.541 10.541 10.541h123.482l-129.506 129.506
c-4.51758 4.51758 -4.51758 10.541 0 15.0586s10.541 4.51758 15.0586 0l129.506 -129.506v123.482c0 6.02344 4.51758 10.541 10.541 10.541c6.02441 0 10.542 -4.51758 12.0479 -10.541v-147.576c0 -1.50586 -1.50586 -3.0127 -1.50586 -4.51855
c-1.50586 -3.01172 -3.01172 -4.51758 -6.02344 -6.02344c-1.50586 -1.50586 -3.01172 -1.50586 -4.51855 -1.50586h-149.082zM501.459 298.918v0c6.02344 0 12.0469 -6.02344 12.0469 -12.0479c0 -6.02344 -4.51758 -10.541 -10.541 -10.541h-149.082
c-1.50586 0 -3.0127 1.50586 -4.51855 1.50586c-3.01172 1.50586 -4.51758 3.01172 -6.02344 6.02344c-1.50586 1.50586 -1.50586 3.01172 -1.50586 4.51855v149.082c0 6.02344 4.51758 10.541 10.542 10.541c6.02344 0 10.541 -4.51758 10.541 -10.541v-123.482
l129.506 129.506c4.51758 4.51758 10.541 4.51758 15.0586 0s4.51758 -10.541 0 -15.0586l-129.506 -129.506h123.482zM10.541 85.082v0c-6.02344 0 -10.541 4.51758 -10.541 10.541c0 6.02441 4.51758 10.542 10.541 12.0479h147.576
c1.50586 0 3.0127 -1.50586 4.51855 -1.50586c3.01172 -1.50586 4.51758 -3.01172 6.02344 -6.02344c1.50586 -1.50586 1.50586 -3.01172 1.50586 -4.51855v-149.082c0 -6.02344 -4.51758 -10.541 -10.542 -10.541c-6.02344 0 -10.541 4.51758 -10.541 10.541v123.482
l-129.506 -129.506c-1.50586 -1.50586 -4.51758 -3.01172 -7.5293 -3.01172s-6.02344 1.50586 -7.5293 3.01172c-4.51758 4.51758 -4.51758 10.541 0 15.0586l129.506 129.506h-123.482z" />
    <glyph glyph-name="icon-ssd" unicode="&#xf13a;" 
d="M352 448c17.5996 0 32 -14.4004 32 -32v-448c0 -17.5996 -14.4004 -32 -32 -32h-320c-17.5996 0 -32 14.4004 -32 32v448c0 17.5996 14.4004 32 32 32h320zM363.2 -32v448c0 6.40039 -4.7998 11.2002 -11.2002 11.2002h-320
c-6.40039 0 -11.2002 -4.7998 -11.2002 -11.2002v-448c0 -6.40039 4.7998 -11.2002 11.2002 -11.2002h320c6.40039 0 11.2002 4.7998 11.2002 11.2002zM78.4004 235.2c-6.40039 0 -11.2002 -4.7998 -14.4004 -11.2002c-1.59961 -6.40039 1.59961 -14.4004 9.59961 -17.5996
l30.4004 -9.60059c14.4004 -4.7998 24 -17.5996 24 -33.5996c0 -19.2002 -16 -35.2002 -35.2002 -35.2002h-17.5996c-17.6006 0 -32 14.4004 -32 32c0 4.7998 4.7998 9.59961 9.59961 9.59961c6.40039 1.60059 11.2002 -3.19922 11.2002 -9.59961
s4.7998 -11.2002 11.2002 -9.59961h19.2002c4.7998 0 11.1992 3.19922 12.7998 9.59961c1.59961 6.40039 -1.60059 14.4004 -9.60059 17.5996l-30.3994 9.60059c-14.4004 4.7998 -24 17.5996 -24 33.5996c0 19.2002 16 35.2002 35.2002 35.2002h17.5996
c17.5996 0 32 -14.4004 32 -32c0 -4.7998 -4.7998 -9.59961 -9.59961 -9.59961c-6.40039 -1.60059 -11.2002 3.19922 -11.2002 9.59961s-4.7998 11.2002 -11.2002 11.2002h-17.5996zM184 235.2v0c-4.7998 0 -11.2002 -4.7998 -12.7998 -9.60059
c-1.60059 -6.39941 1.59961 -14.3994 9.59961 -17.5996l30.4004 -9.59961c14.3994 -4.80078 24 -17.6006 24 -33.6006c0 -19.2002 -16 -35.2002 -35.2002 -35.2002h-17.5996c-17.6006 0 -32 14.4004 -32 32c0 6.40039 4.7998 11.2002 11.1992 11.2002
c6.40039 0 11.2002 -4.7998 11.2002 -11.2002c0 -6.39941 4.7998 -11.1992 11.2002 -11.1992h17.5996c4.80078 0 11.2002 3.19922 12.8008 9.59961c1.59961 6.40039 -1.60059 14.4004 -9.60059 17.5996l-30.3994 9.60059c-14.4004 4.7998 -24 17.5996 -24 33.5996
c0 19.2002 16 35.2002 35.1992 35.2002h17.6006c17.5996 0 32 -14.4004 32 -32c0 -6.40039 -4.7998 -11.2002 -11.2002 -11.2002s-11.2002 4.7998 -11.2002 11.2002s-4.7998 11.2002 -11.2002 11.2002h-17.5996zM276.8 256c35.2002 0 64 -30.4004 64 -65.5996
c0 -35.2002 -28.7998 -64 -64 -64h-11.2002c-6.39941 0 -11.1992 4.7998 -11.1992 11.1992v107.2c0 6.40039 4.7998 11.2002 11.1992 11.2002h11.2002zM276.8 148.8c24 0 43.2002 19.2002 43.2002 41.6006c0 24 -19.2002 43.1992 -43.2002 43.1992v-84.7998zM75.2002 340.8
c-17.6006 0 -32 14.4004 -32 32c0 17.6006 14.3994 32 32 32c17.5996 0 32 -14.3994 32 -32c0 -17.5996 -14.4004 -32 -32 -32zM75.2002 384c-6.40039 0 -9.60059 -4.7998 -11.2002 -9.59961c0 -6.40039 4.7998 -11.2002 11.2002 -11.2002
c4.7998 0 9.59961 4.7998 9.59961 9.59961c0 6.40039 -4.7998 11.2002 -9.59961 11.2002zM308.8 404.8c17.6006 0 32 -14.3994 32 -32c0 -17.5996 -14.3994 -32 -32 -32c-17.5996 0 -32 14.4004 -32 32c0 17.6006 14.4004 32 32 32zM308.8 363.2
c6.40039 0 9.60059 4.7998 11.2002 9.59961c0 6.40039 -4.7998 11.2002 -11.2002 11.2002c-4.7998 0 -9.59961 -4.7998 -9.59961 -9.59961c0 -6.40039 3.2002 -11.2002 9.59961 -11.2002zM75.2002 43.2002c17.5996 0 32 -14.4004 32 -32c0 -17.6006 -14.4004 -32 -32 -32
c-17.6006 0 -32 14.3994 -32 32c0 17.5996 14.3994 32 32 32zM75.2002 0c4.7998 0 9.59961 4.7998 8 9.59961c0 6.40039 -3.2002 11.2002 -9.60059 11.2002c-4.7998 0 -9.59961 -4.7998 -9.59961 -9.59961c0 -6.40039 4.7998 -11.2002 11.2002 -11.2002zM308.8 43.2002
c17.6006 0 32 -14.4004 32 -32c0 -17.6006 -14.3994 -32 -32 -32c-17.5996 0 -32 14.3994 -32 32c0 17.5996 14.4004 32 32 32zM308.8 0c6.40039 0 9.60059 4.7998 9.60059 9.59961c0 6.40039 -3.2002 11.2002 -9.60059 11.2002
c-4.7998 0 -9.59961 -4.7998 -9.59961 -9.59961c0 -6.40039 3.2002 -11.2002 9.59961 -11.2002z" />
    <glyph glyph-name="icon-facebook" unicode="&#xf118;" 
d="M418.528 5.75488c0 -12.5557 -9.76562 -22.3213 -22.3213 -22.3213h-107.422v161.831h54.4082l8.37109 62.7793h-62.7793v40.457c0 18.1367 5.58008 30.6924 30.6914 30.6924h33.4824v57.1992c-16.7412 1.39453 -32.0869 2.79004 -48.8281 2.79004
c-48.8281 0 -80.916 -29.2969 -80.916 -83.7061v-47.4326h-54.4082v-62.7793h54.4082v-161.831h-200.894c-12.5557 0 -22.3213 9.76562 -22.3213 22.3213v372.49c0 12.5557 9.76562 22.3213 22.3213 22.3213h372.49c13.9512 0 23.7168 -9.76562 23.7168 -22.3213v-372.49z
" />
    <glyph glyph-name="icon-wp-circle" unicode="&#xf14a;" 
d="M242.955 448h26.6328c1.63086 -0.543945 3.26172 -1.08691 4.8916 -1.08691c33.1553 -1.63086 65.7666 -10.8711 95.1172 -26.0889c78.2676 -40.2217 125.011 -104.357 139.686 -191.321c1.08691 -7.60938 2.17383 -15.7617 3.26172 -23.915v-26.6328
c-0.543945 -1.62988 -1.08789 -3.26074 -1.08789 -4.8916c-2.17383 -33.6982 -10.8701 -66.3096 -26.6318 -96.2031c-41.3086 -77.7246 -104.9 -124.468 -191.864 -138.6l-23.915 -3.26074h-26.6328c-1.63086 0.543945 -3.26172 1.08691 -4.8916 1.08691
c-33.1553 1.63086 -65.7666 10.8711 -95.1172 26.0889c-78.2676 40.7646 -125.011 104.9 -139.143 191.864c-1.08691 7.60938 -2.17383 15.7627 -3.26074 23.915v26.6328c0.543945 1.63086 1.08691 3.26172 1.08691 4.8916c2.17383 34.2422 11.4141 67.3975 27.1768 97.291
c40.7637 76.6367 104.356 122.837 190.233 137.512c8.15234 1.08691 16.3057 2.17383 24.458 2.71777zM411.991 362.667c-65.7666 54.8955 -138.599 73.375 -220.127 50.5479c-54.3525 -15.2188 -96.2041 -47.2871 -128.815 -94.5732c12.501 0 23.3711 -0.543945 34.7852 0
c13.5889 0.542969 27.1768 1.62988 40.7646 2.17383c4.34863 1.08691 9.24023 -1.63086 10.3271 -5.97852v-1.63086c0.542969 -5.97852 -2.17383 -9.24023 -8.69629 -10.3271c-2.17383 -0.542969 -4.8916 -0.542969 -7.06641 -0.542969l-19.0234 -1.63086
c28.2637 -83.1592 55.9834 -165.775 83.7031 -249.478c0.543945 1.08691 1.08691 1.62988 1.08691 2.7168c16.3057 48.374 32.6113 96.748 48.374 145.121c0.542969 2.1748 0.542969 4.34863 -0.543945 6.52246c-10.8701 30.4375 -21.7402 60.3311 -33.1543 90.7686
c-1.08789 3.26172 -2.71777 4.34863 -6.52246 4.8916c-7.06641 0.543945 -13.5879 1.08789 -20.1104 2.1748c-4.34863 0 -8.15332 3.80469 -7.60938 8.15234v1.63086c0 4.8916 4.34766 8.69629 9.23926 8.69629c2.1748 0 4.89258 -0.543945 7.06641 -0.543945
c25.002 -0.542969 50.0039 -1.62988 75.0059 -1.62988c13.0449 0 26.0898 1.62988 39.1338 2.17383c4.8916 1.08691 9.78418 -2.17383 10.8711 -6.52246v-1.63086c0.542969 -4.8916 -2.71777 -9.23926 -7.06641 -9.7832h-1.62988
c-2.1748 -0.542969 -4.89258 -0.542969 -7.06641 -0.542969l-19.0234 -1.63086c27.7197 -82.6162 55.4395 -164.688 83.1592 -247.304c1.08691 1.63086 1.08691 1.63086 1.08691 2.17383c11.4141 38.5908 23.3721 77.1807 34.7861 115.228
c6.52246 20.1104 6.52246 41.8516 1.08691 62.5049c-5.43555 16.3057 -13.0449 31.5244 -22.2842 45.6562c-5.97949 9.7832 -10.3271 20.1104 -14.1318 30.9814c-6.52246 21.1973 5.43555 43.4814 26.6328 50.0039c5.43457 0.543945 10.3271 1.08691 15.7617 1.63086z
M332.094 -24.8662c-23.915 65.2227 -47.8301 130.446 -71.2021 195.669h-1.63086l-68.4834 -198.93c29.8936 -14.6758 110.335 -12.502 141.316 3.26074zM155.991 -15.083c-36.959 101.096 -73.376 200.561 -109.792 301.112
c-50.5479 -109.248 -4.34766 -246.216 109.792 -301.112zM372.314 -5.2998c0.542969 -0.542969 1.08691 -0.542969 1.08691 -1.08691c56.5264 34.7861 93.4863 84.2471 107.618 149.47c12.501 53.2656 4.34766 109.792 -22.2852 157.622
c-0.542969 -0.543945 -0.542969 -1.63086 -0.542969 -2.17383c1.62988 -16.3066 1.08691 -32.6123 -1.63086 -48.374c-3.26074 -19.0234 -8.69629 -37.5029 -15.7627 -55.4395c-18.4795 -52.1787 -36.416 -104.356 -54.3516 -156.535
c-4.34863 -14.6748 -9.24023 -29.3506 -14.1318 -43.4824z" />
    <glyph glyph-name="icon-stopwatch" unicode="&#xf13c;" 
d="M209.6 448h64c16 0 30.4004 -12.7998 30.4004 -30.4004v0c0 -16 -12.7998 -30.3994 -30.4004 -30.3994h-64c-16 0 -30.3994 12.7998 -30.3994 30.3994v0c0 17.6006 12.7998 30.4004 30.3994 30.4004zM244.8 188.8l76.7998 81.6006
c11.2002 12.7998 30.4004 12.7998 41.6006 1.59961c12.7998 -11.2002 12.7998 -30.4004 1.59961 -41.5996l-89.5996 -96c-1.60059 -3.2002 -3.2002 -8 -6.40039 -11.2002c-11.2002 -11.2002 -30.3994 -11.2002 -41.5996 0l-72 72
c-11.2002 11.2002 -11.2002 30.3994 0 41.5996s30.3994 11.2002 41.5996 0zM380.8 328l16 17.5996c11.2002 12.8008 30.4004 12.8008 41.6006 1.60059v0c12.7998 -11.2002 12.7998 -30.4004 1.59961 -41.6006l-16 -17.5996
c-11.2002 -12.7998 -30.4004 -12.7998 -41.5996 -1.59961v0c-11.2002 9.59961 -12.8008 28.7998 -1.60059 41.5996zM240 -17.5996c100.8 0 184 78.3994 184 176c0 97.5996 -81.5996 176 -184 176s-184 -78.4004 -184 -176c0 -97.6006 83.2002 -176 184 -176zM240 -64
c-128 0 -232 99.2002 -232 220.8c0 121.601 104 222.4 232 222.4s232 -99.2002 232 -220.8c0 -121.601 -104 -222.4 -232 -222.4z" />
    <glyph glyph-name="icon-dropdown" unicode="&#xf116;" 
d="M0 320h512l-256 -256z" />
    <glyph glyph-name="icon-weight" unicode="&#xf149;" 
d="M256 -9.59961c112 0 203.2 91.1992 203.2 201.6s-91.2002 203.2 -203.2 203.2s-203.2 -91.2002 -203.2 -203.2s91.2002 -201.6 203.2 -201.6zM256 -62.4004c-140.8 0 -256 113.601 -256 256c0 142.4 115.2 254.4 256 254.4s256 -113.6 256 -256
s-115.2 -254.4 -256 -254.4zM392 89.5996c3.2002 -17.5996 -11.2002 -33.5996 -28.7998 -33.5996h-214.4c-17.5996 0 -32 16 -28.7998 33.5996l27.2002 150.4c3.2002 14.4004 16 24 28.7998 24c-1.59961 25.5996 8 51.2002 27.2002 67.2002
c16 14.3994 33.5996 20.7998 52.7998 20.7998h6.40039c17.5996 -1.59961 32 -8 44.7998 -20.7998c20.7998 -16 30.3994 -41.6006 28.7998 -67.2002c14.4004 0 25.5996 -9.59961 28.7998 -24zM233.6 296c-9.59961 -8 -12.7998 -20.7998 -11.1992 -32h67.1992
c1.60059 11.2002 -1.59961 24 -11.1992 32c-12.8008 11.2002 -32 11.2002 -44.8008 0zM171.2 104h168l-20.7998 112h-126.4z" />
    <glyph glyph-name="icon-proof" unicode="&#xf12c;" 
d="M116.455 440.973c51.2002 0 93.3643 -42.165 93.3643 -95.373v-162.635c0 -41.1611 -33.1289 -74.29 -73.2861 -74.29c-40.1562 0 -73.2861 33.1289 -73.2861 74.29v163.639c0 29.1143 23.0898 53.208 52.2041 53.208c29.1133 0 52.2041 -24.0938 52.2041 -53.208
v-79.3096c0 -5.01953 -4.01562 -10.0391 -10.04 -10.0391c-5.01953 0 -10.0391 4.01562 -10.0391 10.0391v78.3057c0 18.0713 -13.0508 32.126 -31.1211 32.126s-31.1221 -14.0547 -31.1221 -32.126v-162.635c0 -29.1143 23.0908 -53.208 52.2041 -53.208
c29.1143 0 52.2041 24.0938 52.2041 53.208v163.639c0 41.1611 -33.1299 74.291 -73.2861 74.291c-40.1572 0 -73.2861 -33.1299 -73.2861 -74.291v-79.3096c0 -5.01953 -5.01953 -10.0391 -10.0391 -10.0391c-5.02051 0 -10.04 4.01562 -10.04 10.0391v78.3057
c0 52.2041 41.1611 95.373 93.3652 95.373zM376.471 405.835v-89.3486h89.3486zM498.949 313.475c1.00391 -1.00391 1.00391 -2.00781 2.00781 -4.01562c1.00391 -1.00391 1.00391 -3.01172 1.00391 -4.01562v-354.385c0 -5.01953 -4.01562 -10.0391 -10.0391 -10.0391
h-354.385c-5.01953 0 -10.0391 4.01562 -10.0391 10.0391v125.49c0 5.01953 4.01562 10.0391 10.0391 10.0391c5.01953 0 10.0391 -4.01562 10.0391 -10.0391v-113.443h333.303v333.303h-114.447c-5.01953 0 -10.0391 4.01562 -10.0391 10.0391v114.447h-156.612
c-5.01953 0 -10.0391 5.01953 -10.0391 10.0391s4.01562 10.0391 10.0391 10.0391h166.651c1.00391 0 3.01172 0 4.01562 -1.00391c1.00391 0 2.00781 -1.00391 3.01172 -2.00781zM428.675 45.4277c6.02344 0 10.0391 -5.01953 10.0391 -10.0391
c0 -5.02051 -4.01562 -10.04 -10.0391 -10.04h-228.895c-5.01953 0 -10.0391 5.01953 -10.0391 10.04c0 5.01953 4.01562 10.0391 10.0391 10.0391h228.895zM188.737 97.6318c0 5.01953 5.01953 10.0391 11.043 10.0391h227.891
c5.01953 0 10.0391 -4.01562 10.0391 -10.0391c0 -5.02051 -4.01562 -10.04 -10.0391 -10.04h-228.895c-5.01953 0 -10.0391 4.01562 -10.0391 10.04zM262.023 149.835c-6.02344 0 -10.0391 4.01562 -10.0391 10.0391c0 5.02051 4.01562 10.04 10.0391 10.04h166.651
c5.01953 0 10.0391 -4.01562 10.0391 -10.04c0 -5.01953 -4.01562 -10.0391 -10.0391 -10.0391h-166.651zM262.023 212.078c-6.02344 0 -10.0391 5.01953 -10.0391 10.0391c0 5.02051 4.01562 10.04 10.0391 10.04h166.651c5.01953 0 10.0391 -5.01953 10.0391 -10.04
c0 -5.01953 -4.01562 -10.0391 -10.0391 -10.0391h-166.651z" />
    <glyph glyph-name="icon-aid" unicode="&#xf102;" 
d="M52.7061 101.647v0c6.02344 0 10.541 -4.51758 10.541 -10.542v-94.8701c40.6592 -24.0938 93.3643 -37.6475 149.082 -37.6475s108.424 13.5537 149.083 37.6475v94.8701c0 6.02441 4.51758 10.542 10.541 10.542s10.541 -4.51758 10.541 -10.542v-100.894
c0 -3.01172 -1.50586 -7.5293 -4.51758 -9.03516c-43.6709 -28.6123 -103.906 -43.6709 -165.647 -43.6709s-120.471 15.0586 -165.646 43.6709c-3.01172 1.50586 -4.51758 6.02344 -4.51758 9.03516v100.894v0c0 6.02441 4.51758 10.542 10.541 10.542zM373.459 282.353v0
c-6.02344 0 -10.541 4.51758 -12.0469 12.0479v94.8701c-40.6592 24.0938 -93.3652 37.6475 -149.083 37.6475s-108.423 -13.5537 -149.082 -37.6475v-94.8701c0 -6.02344 -4.51758 -10.542 -10.541 -10.542s-10.541 4.51855 -10.541 10.542v100.894
c0 3.01172 3.01172 6.02344 6.02344 9.03516c43.6699 28.6123 102.399 43.6709 165.646 43.6709c61.7412 0 120.471 -15.0586 165.647 -43.6709c3.01172 -1.50586 4.51758 -6.02344 4.51758 -9.03516v-102.399v0c0 -6.02441 -4.51758 -10.542 -10.541 -10.542z
M415.623 139.294v0c-7.5293 -7.5293 -16.5645 -12.0469 -25.5996 -10.541h-352.376c-10.542 0 -19.5771 3.01172 -27.1064 10.541c-6.02344 7.5293 -10.541 16.5645 -10.541 27.1064v52.7051c0 9.03613 4.51758 19.5771 10.541 27.1064
c7.5293 6.02344 16.5645 10.541 27.1064 10.541h350.87c10.541 0 19.5762 -3.01172 27.1055 -10.541c6.02441 -7.5293 10.542 -16.5645 10.542 -27.1064v-52.7051c0 -10.542 -3.01172 -19.5771 -10.542 -27.1064zM25.5996 154.353
c3.01172 -3.01172 7.53027 -4.51758 12.0479 -4.51758h352.376c4.51758 0 9.03516 1.50586 12.0469 4.51758c3.01172 4.51758 4.51758 7.53027 4.51758 12.0479v52.7051c0 4.51758 -1.50586 9.03613 -4.51758 12.0479s-7.5293 4.51758 -12.0469 4.51758h-352.376
c-4.51758 0 -9.03613 -1.50586 -12.0479 -4.51758s-4.51758 -7.53027 -4.51758 -12.0479v-52.7051c0 -4.51758 1.50586 -9.03613 4.51758 -12.0479z" />
    <glyph glyph-name="icon-folders" unicode="&#xf11a;" 
d="M13.6533 -52.0537v0c-8.5332 0 -13.6533 6.82715 -13.6533 11.9473v421.547v0c0 8.5332 5.12012 13.6533 13.6533 13.6533h138.24c3.41309 0 5.12012 -1.70703 8.5332 -3.41406l85.333 -75.0928h320.854c8.5332 0 13.6533 -6.82715 13.6533 -13.6533v-341.334
c0 -8.5332 -6.82617 -13.6533 -13.6533 -13.6533h-552.96zM25.5996 369.493v-394.24h525.653v315.733h-310.613c-3.41309 0 -6.82617 1.70703 -8.5332 3.41406l-87.04 75.0928h-119.467zM617.813 369.493v0c8.5332 0 13.6533 -6.82617 13.6533 -13.6533v-329.387
c0 -6.82617 -5.12012 -11.9463 -11.9473 -11.9463c-6.82617 -1.70703 -13.6533 5.12012 -13.6533 11.9463v315.733h-337.92c-3.41309 0 -6.82617 1.70703 -8.5332 3.41309l-85.333 75.0938h-93.8672c-8.5332 0 -13.6533 6.82617 -13.6533 13.6533
c0 8.5332 5.12012 13.6533 11.9473 13.6533h98.9863c3.41309 0 6.82715 -1.70703 8.5332 -3.41309l87.04 -75.0938h344.747z" />
    <glyph glyph-name="icon-vps2" unicode="&#xf146;" 
d="M89.5996 203.815c-4.92285 0 -7.87695 3.93848 -7.87695 7.87695v32.4922c0 3.93848 3.93848 7.87695 7.87695 7.87695s7.87695 -2.9541 7.87695 -7.87695v-32.4922c0 -3.93848 -2.95312 -7.87695 -7.87695 -7.87695zM89.5996 155.569v0v0
c3.93848 0 7.87695 -3.93848 7.87695 -7.87695v-32.4922c0 -3.93848 -3.93848 -7.87695 -7.87695 -7.87695s-7.87695 2.9541 -7.87695 7.87695v32.4922c0 3.93848 2.9541 7.87695 7.87695 7.87695zM284.554 220.554c-1.96875 0 -3.93848 0.984375 -5.90723 1.96973
c-0.985352 1.96875 -1.96973 3.93848 -1.96973 5.90723c0 1.96973 0.984375 3.93848 1.96973 5.9082c3.93848 2.95312 8.86133 2.95312 11.8154 0c0.984375 -1.96973 1.96875 -3.93848 1.96875 -5.9082c0.984375 -1.96875 0 -4.92285 -1.96875 -5.90723
c-1.96973 -0.985352 -3.93848 -1.96973 -5.9082 -1.96973zM252.062 220.554c-1.96875 0 -3.93848 0.984375 -5.90723 1.96973c-0.985352 1.96875 -1.96973 3.93848 -1.96973 5.90723c0 1.96973 0.984375 3.93848 1.96973 5.9082c2.95312 2.95312 8.86133 2.95312 11.8145 0
c0.985352 -1.96973 1.96973 -3.93848 1.96973 -5.9082c0 -1.96875 -0.984375 -3.93848 -1.96973 -5.90723c-1.96875 -0.985352 -3.9375 -1.96973 -5.90723 -1.96973zM219.569 220.554c-1.96973 0 -3.93848 0.984375 -5.9082 1.96973
c-0.984375 1.96875 -1.96875 3.93848 -1.96875 5.90723c-0.984375 1.96973 0 4.92285 1.96875 5.9082c3.93848 2.95312 8.8623 2.95312 11.8154 0c2.9541 -2.9541 2.9541 -8.8623 0 -11.8154c-1.96875 -0.985352 -3.93848 -1.96973 -5.90723 -1.96973zM284.554 123.077
c-1.96875 0 -3.93848 0 -5.90723 1.96875c-2.9541 2.9541 -2.9541 8.86133 0 11.8154c3.93848 2.9541 8.86133 2.9541 11.8154 0c0.984375 -1.96875 1.96875 -3.93848 1.96875 -5.90723c0.984375 -1.96973 0 -4.92285 -1.96875 -5.9082
c-1.96973 -0.984375 -3.93848 -1.96875 -5.9082 -1.96875zM252.062 123.077c-1.96875 0 -3.93848 0 -5.90723 1.96875c-2.9541 2.9541 -2.9541 8.86133 0 11.8154c3.93848 2.9541 8.86133 2.9541 11.8145 0c0.985352 -1.96875 1.96973 -3.93848 1.96973 -5.90723
c0 -1.96973 0 -3.93848 -1.96973 -5.9082c-1.96875 -0.984375 -3.9375 -1.96875 -5.90723 -1.96875zM219.569 123.077c-1.96973 0 -3.93848 0 -5.9082 1.96875c-0.984375 1.96973 -1.96875 3.93848 -1.96875 5.9082c-0.984375 1.96875 0 4.92285 1.96875 5.90723
c3.93848 2.9541 8.8623 2.9541 11.8154 0c2.9541 -2.9541 2.9541 -8.86133 0 -11.8154c-1.96875 -0.984375 -3.93848 -1.96875 -5.90723 -1.96875zM7.87695 -23.6309c-3.93848 0 -7.87695 4.92285 -7.87695 8.86133s2.9541 7.87695 7.87695 7.87695h138.831
c2.95312 15.7539 15.7539 28.5537 31.5078 31.5078v49.2305h-105.354c-12.7998 0 -23.6309 10.8311 -23.6309 23.6309v64.9854c0 6.8916 1.96973 11.8154 5.9082 16.7383c-3.93848 4.92285 -5.9082 10.8311 -5.9082 16.7383v64.9844
c0 13.7852 10.8311 24.6152 23.6309 24.6152h227.446c13.7852 0 24.6152 -10.8301 24.6152 -24.6152v-64.9844c0 -6.89258 -1.96875 -12.7998 -5.90723 -16.7383c3.93848 -4.92285 5.90723 -10.8311 5.90723 -16.7383v-64.9854
c0 -13.7842 -10.8301 -24.6152 -24.6152 -24.6152h-105.354v-49.2305c15.7539 -2.9541 28.5537 -15.7539 31.5078 -31.5078h138.83c3.93848 0 7.87695 -3.93848 7.87695 -7.87695s-2.95312 -7.87695 -7.87695 -7.87695h-138.83
c-2.9541 -18.708 -19.6924 -32.4922 -39.3848 -32.4922c-18.708 0 -35.4463 13.7842 -39.3848 32.4922h-139.815zM64.9844 260.923v0v-64.9844v0c0 -3.93848 2.9541 -7.87695 7.87695 -7.87695h227.446c3.93848 0 7.87695 2.9541 7.87695 7.87695v64.9844
c0 3.93848 -2.9541 7.87695 -7.87695 7.87695h-227.446c-3.93848 0 -7.87695 -2.9541 -7.87695 -7.87695zM64.9844 98.4619v0v0c0 -4.92383 3.93848 -7.87695 7.87695 -7.87695h227.446c3.93848 0 7.87695 2.95312 7.87695 7.87695v64.9844
c0 3.93848 -2.9541 7.87695 -7.87695 7.87695h-227.446c-3.93848 0 -7.87695 -2.9541 -7.87695 -7.87695v-64.9844zM187.077 8.86133c-13.7852 0 -24.6152 -10.8301 -24.6152 -24.6152c0 -13.7842 10.8301 -24.6152 24.6152 -24.6152
c13.7842 0 24.6152 10.8311 24.6152 24.6152c0 13.7852 -10.8311 24.6152 -24.6152 24.6152zM137.846 318.031v0c-3.93848 0 -7.87695 3.9375 -7.87695 7.87598v49.2314v0c0 3.93848 2.9541 7.87695 7.87695 7.87695h8.8623v24.6152
c0 21.6611 17.7227 40.3691 40.3691 40.3691c22.6455 0 40.3691 -18.708 41.3535 -40.3691v-24.6152h7.87695v0c3.93848 0 7.87695 -2.9541 7.87695 -7.87695v-49.2314c0 -3.93848 -2.9541 -7.87598 -7.87695 -7.87598h-98.4619zM162.462 407.631v-24.6152h49.2305v24.6152
c0 13.7842 -10.8311 24.6152 -24.6152 24.6152c-13.7852 0 -24.6152 -10.8311 -24.6152 -24.6152zM146.708 366.277v0v-32.4932h81.7227v32.4932h-81.7227z" />
    <glyph glyph-name="icon-biz" unicode="&#xf107;" 
d="M510.293 357.547v0c1.70703 -1.70703 1.70703 -3.41309 1.70703 -5.12012v-107.521c0 -5.11914 -5.12012 -10.2393 -10.2402 -10.2393c-15.3594 0 -25.5996 6.82617 -32.4268 15.3594v-303.786c0 -5.12012 -5.12012 -10.2402 -10.2393 -10.2402h-406.188
c-5.11914 0 -10.2393 5.12012 -10.2393 10.2402v303.786c-8.5332 -8.5332 -17.0674 -15.3594 -32.4268 -15.3594c-5.12012 0 -10.2402 5.12012 -10.2402 10.2393v107.521c0 1.70703 0 3.41309 1.70703 5.12012v0l42.666 85.333
c1.70703 3.41309 5.12012 5.12012 8.5332 5.12012h406.188c3.41309 0 6.82617 -1.70703 8.5332 -5.12012zM59.7334 427.52v0l-32.4268 -64.8525h457.387l-32.4268 64.8525h-392.533zM298.667 -43.5195v1.70605h105.813v191.146h-105.813v-192.853zM426.667 -43.5195v1.70605
h22.1865v317.44c-3.41309 1.70605 -5.12012 1.70605 -8.5332 1.70605c-10.2402 0 -13.6533 -6.82617 -22.1865 -17.0664c-8.53418 -11.9463 -18.7734 -25.5996 -39.2539 -25.5996c-20.4795 0 -30.7197 13.6533 -39.2529 25.5996
c-8.5332 10.2402 -13.6533 17.0664 -22.1865 17.0664c-10.2402 0 -13.6533 -6.82617 -22.1875 -17.0664c-8.5332 -11.9463 -18.7725 -25.5996 -39.2529 -25.5996s-30.7197 13.6533 -39.2529 25.5996c-8.53418 10.2402 -11.9473 17.0664 -22.1875 17.0664
c-10.2393 0 -13.6533 -6.82617 -22.1865 -17.0664c-8.5332 -11.9463 -18.7734 -25.5996 -39.2529 -25.5996c-20.4805 0 -30.7197 13.6533 -39.2539 25.5996c-8.5332 10.2402 -11.9463 17.0664 -22.1865 17.0664c-1.70605 0 -5.12012 0 -6.82617 -1.70605v-319.146h213.333
v203.093c0 5.12012 5.12012 10.2402 10.2402 10.2402h128c5.12012 0 10.2402 -5.12012 10.2402 -10.2402v-203.093zM479.573 272.213c3.41309 -5.11914 6.82715 -10.2393 10.2402 -11.9463v81.9199h-469.333v-83.627c5.11914 3.41406 8.5332 8.53418 11.9463 13.6533
c3.41309 5.12012 8.5332 11.9473 11.9463 17.0674h1.70703c6.82617 5.12012 15.3604 8.5332 25.5996 8.5332c20.4805 0 30.7207 -13.6533 39.2539 -25.6006c8.5332 -10.2393 11.9463 -17.0664 22.1865 -17.0664s13.6533 6.82715 22.1865 17.0664
c8.5332 11.9473 18.7734 25.6006 39.2529 25.6006c20.4805 0 30.7207 -13.6533 39.2539 -25.6006c8.5332 -10.2393 11.9463 -17.0664 22.1865 -17.0664s13.6533 6.82715 22.1865 17.0664c8.5332 11.9473 18.7734 25.6006 39.2539 25.6006
c20.4795 0 30.7197 -13.6533 39.2529 -25.6006c8.5332 -10.2393 13.6533 -17.0664 22.1865 -17.0664c10.2402 0 13.6533 6.82715 22.1865 17.0664c8.5332 11.9473 18.7734 25.6006 39.2539 25.6006c8.5332 0 18.7734 -3.41309 25.5996 -10.2402v0
c5.12012 -5.12012 10.2402 -10.2402 13.6533 -15.3604zM245.76 171.52c5.12012 0 10.2402 -5.11914 10.2402 -10.2393v-105.813c0 -5.12012 -5.12012 -10.2402 -10.2402 -10.2402h-150.187c-5.12012 0 -10.2402 5.12012 -10.2402 10.2402v105.813
c0 5.12012 5.12012 10.2393 10.2402 10.2393h150.187zM235.52 64h-1.70605v85.333h-128v-85.333h129.706zM373.76 86.1865c5.12012 0 10.2402 -5.12012 10.2402 -10.2402v-42.666c0 -5.12012 -5.12012 -10.2402 -10.2402 -10.2402s-10.2402 5.12012 -10.2402 10.2402v42.666
c0 5.12012 5.12012 10.2402 10.2402 10.2402z" />
    <glyph glyph-name="icon-network" unicode="&#xf126;" 
d="M17.0664 21.333c-10.2393 0 -17.0664 8.5332 -17.0664 17.0674c0 225.279 184.32 409.6 409.6 409.6c225.28 0 409.601 -184.32 409.601 -409.6c0 -10.2402 -8.5332 -17.0674 -17.0664 -17.0674h-71.6807c-10.2402 0 -17.0664 8.5332 -17.0664 18.7734
c0 8.5332 8.5332 17.0664 17.0664 17.0664h52.9072c-10.2402 196.268 -174.08 354.987 -373.761 354.987c-199.68 0 -363.52 -158.72 -373.76 -356.693h52.9072c10.2393 0 17.0664 -8.5332 17.0664 -18.7734c0 -8.5332 -8.5332 -17.0664 -17.0664 -17.0664
c0 1.70605 -71.6807 1.70605 -71.6807 1.70605zM426.667 359.253c0 -10.2393 -8.5332 -17.0664 -17.0674 -17.0664c-40.96 0 -80.2129 -8.5332 -117.76 -23.8936c-35.8398 -15.3594 -68.2666 -37.5459 -95.5732 -64.8525s-49.4932 -59.7334 -64.8535 -95.5742
c-3.41309 -6.82617 -10.2402 -10.2393 -17.0664 -10.2393c-10.2402 0 -17.0664 8.5332 -17.0664 17.0664c0 1.70703 0 5.12012 1.70605 6.82617c17.0674 40.9609 40.96 76.8008 71.6807 107.521c30.7197 30.7197 66.5596 56.3203 107.52 71.6797
c40.96 17.0674 87.04 27.3066 131.413 27.3066c10.2402 -1.70605 17.0674 -8.5332 17.0674 -18.7734zM599.04 265.387c6.82617 -6.82715 8.5332 -17.0664 1.70703 -25.5996l-122.881 -146.773c11.9473 -15.3604 18.7734 -35.8408 20.4805 -54.6133
c0 -49.4941 -39.2529 -88.7471 -88.7471 -88.7471c-49.4932 0 -88.7461 39.2529 -88.7461 88.7471c0 49.4932 39.2529 88.7461 88.7461 88.7461c15.3604 0 29.0137 -3.41309 42.667 -10.2402l122.88 146.773c5.12012 6.82715 17.0664 8.5332 23.8936 1.70703z" />
    <glyph glyph-name="icon-doc" unicode="&#xf115;" 
d="M262.023 -53.459v-1.50586h-230.4c-18.0703 0 -31.623 15.0586 -31.623 31.624v439.718c0 18.0703 13.5527 31.623 31.623 31.623h313.224c18.0713 0 31.624 -13.5527 31.624 -31.623v-355.389c0 -3.01172 -1.50586 -6.02344 -3.01172 -7.5293l-103.906 -103.906
c-1.50586 -1.50586 -4.51758 -3.01172 -7.5293 -3.01172zM272.564 -18.8232v0l69.2705 69.2705h-58.7295c-6.02344 0 -10.541 -4.51758 -10.541 -10.541v-58.7295zM21.082 -23.3408c0 -4.51758 4.51758 -9.03613 10.541 -10.542h218.354v73.7891
c0 18.0703 15.0586 31.623 31.623 31.623h73.7891v344.848c0 6.02344 -4.51855 10.541 -10.542 10.541h-313.224c-6.02344 0 -10.541 -4.51758 -10.541 -10.541v-439.718zM73.7881 344.094v0c-6.02344 0 -10.541 4.51758 -10.541 10.542
c0 6.02344 4.51758 10.541 10.541 10.541h230.4c6.02344 -1.50586 10.541 -4.51758 10.541 -10.541c0 -6.02441 -4.51758 -10.542 -10.541 -10.542h-230.4zM73.7881 280.847v0c-6.02344 0 -10.541 4.51758 -10.541 10.542c0 6.02344 4.51758 10.541 10.541 10.541h230.4
c6.02344 0 10.541 -4.51758 10.541 -10.541c0 -6.02441 -4.51758 -10.542 -10.541 -10.542h-230.4zM73.7881 217.6v0c-6.02344 0 -10.541 4.51758 -10.541 10.542c0 6.02344 4.51758 10.541 10.541 10.541h230.4c6.02344 0 10.541 -4.51758 10.541 -10.541
c0 -6.02441 -4.51758 -10.542 -10.541 -10.542h-230.4zM73.7881 155.858v0c-6.02344 0 -10.541 4.51855 -10.541 10.542s4.51758 10.541 10.541 10.541h230.4c6.02344 -1.50586 10.541 -4.51758 10.541 -10.541s-4.51758 -10.542 -10.541 -10.542h-230.4zM73.7881 92.6113v0
c-6.02344 0 -10.541 4.51855 -10.541 10.542s4.51758 10.541 10.541 10.541h230.4c6.02344 0 10.541 -4.51758 10.541 -10.541s-4.51758 -10.542 -10.541 -10.542h-230.4zM73.7881 29.3643c-6.02344 0 -10.541 4.51855 -10.541 10.542s4.51758 10.541 10.541 10.541h124.988
c6.02344 0 10.541 -4.51758 10.541 -10.541s-4.51758 -10.542 -10.541 -10.542h-124.988z" />
    <glyph glyph-name="icon-chef" unicode="&#xf110;" 
d="M272.168 130.021c67.3691 -32.3369 111.832 -103.748 111.832 -183.242c0 -5.38965 -5.38965 -10.7793 -10.7793 -10.7793h-362.441c-5.38965 0 -10.7793 5.38965 -10.7793 10.7793c0 79.4941 44.4629 150.905 111.832 180.547
c-17.5166 22.9053 -26.9482 52.5479 -26.9482 83.5371c0 22.9053 5.38965 44.4629 14.8213 64.6738h-4.04199c-5.38965 0 -10.7793 5.38965 -10.7793 10.7783v43.1162c-13.4736 10.7793 -21.5576 25.5996 -21.5576 43.1162c0 29.6416 24.2529 53.8945 53.8945 53.8945
c8.08496 0 16.1689 -1.34766 24.2529 -4.04199c10.7793 17.5156 30.9893 26.9473 51.2002 26.9473c20.21 0 39.0732 -10.7793 51.2002 -26.9473c6.73633 4.04199 14.8203 5.38867 22.9053 5.38867c29.6416 0 53.8945 -24.252 53.8945 -53.8945
c0 -17.5156 -8.08398 -33.6836 -21.5576 -43.1152v-41.7686c0 -5.38965 -5.38965 -10.7793 -10.7793 -10.7793h-4.04199c9.43164 -20.21 14.8213 -43.1152 14.8213 -64.6738c0 -32.3369 -9.43164 -60.6309 -26.9482 -83.5361zM84.8838 373.895v0
c0 -12.126 6.7373 -22.9053 16.1689 -28.2949c4.04199 -2.69434 5.38965 -5.38867 5.38965 -9.43164v-39.0732h173.811v37.7266c0 4.04199 2.69434 8.08398 5.38965 9.43164c10.7783 6.73633 16.168 16.168 16.168 28.2949c0 17.5156 -14.8213 32.3359 -32.3369 32.3359
c-9.43164 0 -16.168 -4.04199 -20.2109 -6.73633c-1.34668 0 -1.34668 -1.34766 -2.69434 -1.34766c-5.38965 -2.69434 -12.126 0 -14.8213 5.38965c-8.08398 14.8213 -22.9053 24.2529 -39.0732 24.2529c-17.5156 0 -32.3369 -9.43164 -39.0742 -24.2529
c0 -1.34766 -1.34668 -2.69434 -1.34668 -2.69434c-4.04199 -4.04297 -10.7793 -5.38965 -14.8213 0c-4.04199 2.69434 -10.7793 6.73633 -20.2109 6.73633c-17.5156 0 -32.3369 -14.8213 -32.3369 -32.3369zM123.958 276.884
c-10.7793 -17.5156 -17.5156 -40.4209 -17.5156 -64.6729c0 -30.9902 10.7783 -59.2842 29.6416 -79.4951c30.9893 -35.0312 80.8428 -35.0312 111.832 0c18.8633 20.2109 29.6416 48.5049 29.6416 79.4951c0 24.252 -6.73633 45.8105 -17.5156 64.6729h-136.084z
M21.5576 -42.4424v0h342.231c-4.04199 68.7158 -45.8105 129.348 -105.095 156.295c-18.8623 -17.5156 -41.7676 -28.2949 -66.0205 -28.2949s-47.1582 10.7793 -66.0215 28.2949c-60.6309 -26.9473 -101.053 -87.5791 -105.095 -156.295zM138.779 20.8838
c5.38867 0 9.43164 -4.04199 10.7783 -10.7783c0 -5.38965 -5.38965 -10.7793 -10.7783 -10.7793h-43.1162c-6.73633 1.34766 -10.7793 5.38965 -10.7793 10.7793s5.38965 10.7783 10.7793 10.7783h43.1162z" />
    <glyph glyph-name="icon-notification" unicode="&#xf128;" 
d="M252.8 -11.2002c112 0 203.2 91.2002 203.2 203.2s-91.2002 203.2 -203.2 203.2s-203.2 -91.2002 -203.2 -203.2s91.2002 -203.2 203.2 -203.2zM256 -64c-140.8 0 -256 115.2 -256 256s115.2 256 256 256s256 -115.2 256 -256s-115.2 -256 -256 -256zM256 131.2
l-52.7998 -49.6006l4.7998 72l-72 11.2002l60.7998 41.6006l-36.7998 62.3994l68.7998 -20.7998l27.2002 67.2002l27.2002 -67.2002l68.7998 20.7998l-36.7998 -62.3994l60.7998 -41.6006l-72 -11.2002l4.7998 -72z" />
    <glyph glyph-name="icon-team" unicode="&#xf13e;" 
d="M265.035 194.008c85.333 -22.0859 147.576 -94.3682 147.576 -179.702v-28.1094c0 -6.02344 -5.01953 -11.043 -11.043 -11.043s-11.043 5.01953 -11.043 11.043v28.1094c0 90.3535 -81.3174 164.644 -181.71 164.644c-100.392 0 -181.71 -74.29 -181.71 -164.644
v-28.1094c0 -6.02344 -5.01953 -11.043 -11.043 -11.043s-11.043 5.01953 -11.043 11.043v28.1094c0 85.334 62.2432 157.616 147.576 179.702c-34.1328 20.0781 -57.2236 56.2197 -57.2236 98.3848c0 62.2432 51.2002 113.442 113.443 113.442
s113.443 -51.1992 113.443 -113.442c0 -42.165 -23.0898 -79.3105 -57.2236 -98.3848zM118.463 292.393c0 -50.1963 40.1562 -90.3535 90.3525 -90.3535s90.3535 40.1572 90.3535 90.3535c0 50.1953 -40.1572 90.3525 -90.3535 90.3525s-90.3525 -40.1572 -90.3525 -90.3525
zM417.632 194.008c63.2471 -19.0742 108.423 -75.2939 107.419 -140.549v-22.0869c0 -6.02344 -5.01953 -11.043 -11.043 -11.043s-11.043 5.01953 -11.043 11.043v22.0869c0 69.2705 -60.2354 125.49 -135.529 125.49c-6.02344 0 -11.043 5.01953 -11.043 11.043
s5.01953 11.043 11.043 11.043c38.1484 0 68.2666 31.1221 68.2666 68.2666c0 38.1494 -31.1221 68.2666 -68.2666 68.2666c-6.02344 0 -10.0391 5.01953 -10.0391 11.043c0 6.02441 5.01953 11.0439 11.043 11.0439c50.1963 0 90.3525 -40.1572 90.3525 -90.3535
c0 -31.1211 -17.0664 -59.2314 -41.1602 -75.2939z" />
    <glyph glyph-name="icon-facebook-solo" unicode="&#xf119;" 
d="M418.528 5.75488c0 -12.5557 -9.76562 -22.3213 -22.3213 -22.3213h-107.422v161.831h54.4082l8.37109 62.7793h-62.7793v40.457c0 18.1367 5.58008 30.6924 30.6914 30.6924h33.4824v57.1992c-16.7412 1.39453 -32.0869 2.79004 -48.8281 2.79004
c-48.8281 0 -80.916 -29.2969 -80.916 -83.7061v-47.4326h-54.4082v-62.7793h54.4082v-161.831h-200.894c-12.5557 0 -22.3213 9.76562 -22.3213 22.3213v372.49c0 12.5557 9.76562 22.3213 22.3213 22.3213h372.49c13.9512 0 23.7168 -9.76562 23.7168 -22.3213v-372.49z
" />
    <glyph glyph-name="icon-thumb" unicode="&#xf13f;" 
d="M552.34 212.17c0 -13.9639 -6.20605 -27.9277 -18.6182 -38.7881c10.8604 -9.30957 17.0664 -21.7217 17.0664 -37.2363c0 -20.1699 -13.9639 -40.3398 -34.1338 -46.5459c3.10352 -4.6543 4.65527 -7.75684 6.20605 -12.4121
c9.30957 -26.375 -4.6543 -54.3027 -31.0303 -63.6113c6.20605 -7.75781 9.30957 -18.6182 9.30957 -27.9277c0 -26.376 -21.7217 -49.6484 -49.6484 -49.6484h-288.582c-43.4424 0 -83.7822 17.0664 -114.812 48.0967c-31.0303 29.4795 -48.0967 71.3701 -48.0967 114.812
c0 68.2666 41.8906 128.775 103.951 152.049l58.958 20.1689c20.1699 7.75781 35.6846 20.1699 46.5449 37.2363l76.0244 122.57c12.4121 18.6182 41.8916 23.2725 58.958 6.20605c20.1699 -20.1699 24.8242 -51.2002 12.4121 -77.5762l-48.0967 -97.7451h193.938
c26.376 0 49.6494 -21.7217 49.6494 -49.6484zM389.431 162.521c-6.20605 0 -12.4121 4.6543 -12.4121 10.8604s6.20605 12.4121 12.4121 12.4121h113.26c13.9639 0 24.8252 10.8604 24.8252 24.8242s-10.8613 26.376 -24.8252 26.376h-214.108
c-4.6543 0 -9.30957 3.10254 -10.8604 6.20605c-1.55176 4.6543 -1.55176 7.75781 0 12.4121l57.4053 114.812c7.75781 15.5156 4.65527 35.6855 -7.75684 48.0977c-6.20605 6.20605 -15.5156 4.6543 -20.1699 -1.55176l-76.0244 -124.121
c-13.9639 -21.7217 -34.1338 -38.7881 -58.958 -46.5459l-58.957 -20.1689c-52.752 -20.1699 -88.4365 -71.3701 -88.4365 -128.776c0 -37.2363 13.9639 -71.3691 40.3398 -97.7451c26.375 -26.376 60.5088 -40.3398 97.7451 -40.3398h288.582
c13.9629 1.55176 24.8242 10.8613 24.8242 24.8242c0 13.9639 -10.8613 26.376 -24.8242 26.376h-62.0605c-6.20605 0 -12.4121 6.20605 -12.4121 12.4121s6.20605 12.4121 12.4121 12.4121h88.4355c13.9639 1.55176 24.8242 10.8604 24.8242 24.8242
s-10.8604 26.376 -24.8242 26.376h-88.4355c-6.20605 0 -12.4121 6.20605 -12.4121 12.4121s6.20605 12.4121 12.4121 12.4121h113.26c13.9639 1.55176 24.8252 10.8604 24.8252 24.8242s-10.8613 26.376 -24.8252 26.376h-113.26z" />
    <glyph glyph-name="icon-clock" unicode="&#xf111;" 
d="M366.157 323.879v0c4.65527 3.10254 10.8613 3.10254 13.9639 0c4.6543 -4.6543 6.20605 -10.8604 1.55176 -15.5156l-99.2969 -99.2969c6.20605 -12.4121 3.10254 -27.9268 -6.20605 -37.2363c-6.20605 -6.20605 -13.9639 -9.30859 -23.2734 -9.30859
c-9.30859 0 -17.0664 3.10254 -23.2725 9.30859c-9.30859 9.30957 -12.4121 24.8242 -6.20605 37.2363l-58.957 58.958c-4.65527 4.6543 -4.65527 10.8604 0 15.5146c4.6543 4.65527 10.8604 4.65527 15.5146 0l58.958 -58.957c9.30859 4.6543 18.6182 4.6543 27.9268 0z
M260.654 187.346c1.55176 1.55078 3.10352 4.6543 3.10352 7.75781c0 3.10254 -1.55176 6.20605 -3.10352 7.75684c-1.55078 1.55176 -4.6543 3.10352 -7.75781 3.10352c-6.20605 0 -10.8604 -4.6543 -10.8604 -10.8604c0 -3.10352 1.55176 -6.20703 3.10352 -7.75781
c4.6543 -4.65527 10.8604 -4.65527 15.5146 0zM516.654 52.3633v0c6.20605 0 10.8613 -4.6543 9.30957 -12.4121c0 -6.20605 -4.6543 -10.8604 -10.8604 -10.8604h-88.4365c-6.20605 0 -10.8613 4.6543 -10.8613 10.8604v88.4365
c1.55176 6.20605 4.65527 10.8604 10.8613 10.8604s12.4121 -4.6543 12.4121 -10.8604v-68.2666c10.8604 13.9639 20.1689 29.4785 26.375 44.9941c9.30957 24.8242 15.5156 52.751 17.0674 79.127h-32.582c-6.20605 0 -10.8604 4.6543 -10.8604 10.8613
c0 6.20605 4.6543 10.8604 10.8604 10.8604h32.582c0 27.9268 -6.20605 54.3027 -17.0674 79.127c-9.30859 23.2725 -24.8242 44.9941 -41.8906 65.1641l-23.2725 -23.2734c-4.6543 -4.6543 -10.8604 -4.6543 -15.5156 0c-4.6543 4.65527 -4.6543 10.8613 0 15.5156
l23.2734 23.2725c-18.6182 17.0664 -41.8916 31.0303 -65.1641 41.8906c-24.8242 10.8613 -52.751 15.5156 -79.127 17.0674v-54.3037c0 -4.6543 -4.6543 -9.30859 -10.8613 -10.8604c-6.20605 0 -10.8604 4.6543 -10.8604 10.8604v54.3037
c-27.9268 -1.55176 -54.3027 -6.20605 -79.127 -17.0674c-23.2725 -9.30859 -44.9941 -24.8242 -65.1641 -41.8906l23.2734 -23.2725v0c4.6543 -4.6543 4.6543 -10.8604 0 -15.5156v0c-4.65527 -4.6543 -10.8613 -4.6543 -15.5156 0l-23.2725 23.2734
c-17.0664 -20.1699 -32.582 -41.8916 -41.8906 -65.1641c-10.8613 -24.8242 -15.5156 -51.2002 -17.0674 -79.127h54.3037c4.6543 0 10.8604 -4.6543 10.8604 -10.8604c0 -6.20703 -4.6543 -10.8613 -10.8604 -10.8613h-54.3037
c0 -27.9268 6.20605 -54.3027 17.0674 -79.127c9.30859 -23.2725 24.8242 -44.9941 41.8906 -65.1641l23.2725 23.2734c3.10352 3.10254 9.30957 3.10254 13.9639 0c4.6543 -4.65527 6.20605 -10.8613 1.55176 -15.5156l-23.2734 -23.2725
c18.6182 -17.0664 41.8916 -31.0303 65.1641 -41.8906c24.8242 -9.30957 52.751 -15.5156 79.127 -17.0674v54.3037c0 6.20605 4.6543 10.8604 10.8604 10.8604c6.20703 0 10.8613 -4.6543 10.8613 -10.8604v-54.3037c27.9268 1.55176 54.3027 6.20605 79.127 17.0674
c4.6543 1.55078 10.8604 0 13.9639 -6.20605c1.55176 -4.65527 0 -10.8613 -6.20605 -13.9639c-31.0303 -13.9639 -63.6123 -20.1699 -97.7461 -20.1699c-32.5811 0 -66.7148 7.75781 -97.7451 20.1699s-57.4062 31.0303 -80.6787 54.3027
s-41.8906 51.2002 -54.3027 80.6787c-13.9639 31.0303 -20.1699 63.6123 -20.1699 97.7461c0 34.1328 6.20605 66.7148 20.1699 97.7451c12.4121 31.0303 31.0303 57.4062 54.3027 80.6787s49.6484 41.8906 80.6787 54.3027
c31.0303 13.9639 63.6123 20.1699 97.7451 20.1699v0v0c34.1338 0 66.7158 -7.75781 97.7461 -20.1699s57.4062 -31.0303 80.6787 -54.3027s41.8906 -51.2002 54.3027 -80.6787c13.9639 -31.0303 20.1699 -63.6123 20.1699 -97.7451
c0 -32.582 -7.75781 -66.7158 -20.1699 -97.7461c-6.20605 -15.5146 -15.5146 -31.0303 -24.8242 -44.9941h55.8545z" />
    <glyph glyph-name="icon-x-solo" unicode="&#xf14b;" 
d="M137.405 191.182l-114.504 116.141c-32.7158 32.7158 -31.0801 85.0615 4.90723 117.776c34.3516 31.0801 89.9678 29.4443 122.684 -3.27148l106.326 -107.961l106.325 107.961c32.7158 32.7158 88.332 35.9873 122.684 3.27148
c34.3516 -31.0791 37.623 -83.4248 4.90723 -117.776l-114.504 -116.141l114.504 -116.14c32.7158 -32.7158 31.0801 -85.0615 -4.90723 -117.776c-34.3516 -31.0801 -89.9678 -29.4443 -122.684 4.90723l-106.325 107.961l-106.326 -107.961
c-32.7158 -32.7158 -88.332 -35.9873 -122.684 -4.90723c-34.3516 31.0791 -37.623 83.4248 -4.90723 117.776z" />
    <glyph glyph-name="icon-http" unicode="&#xf11f;" 
d="M516.654 -36.0723c6.20605 0 9.30957 -4.65527 10.8613 -10.8613c0 -4.6543 -4.65527 -10.8604 -10.8613 -10.8604h-505.794c-6.20605 0 -10.8604 4.6543 -10.8604 10.8604c0 4.65527 4.6543 10.8613 10.8604 10.8613h505.794zM32.582 -14.3516
c-17.0664 0 -32.582 15.5156 -35.6855 34.1338c0 17.0664 13.9639 32.5811 32.582 32.5811c13.9639 0 26.376 -7.75684 31.0303 -20.1689c23.2734 1.55078 44.9941 6.20605 68.2666 12.4121c1.55176 15.5146 15.5156 29.4785 32.582 29.4785
c9.30957 0 17.0664 -3.10352 23.2725 -9.30957c27.9277 13.9639 55.8545 31.0303 79.1279 51.2002c-1.55176 4.6543 -3.10352 9.30957 -3.10352 13.9639c0 17.0664 13.9639 32.582 32.582 32.582c4.6543 0 9.30957 -1.55176 13.9639 -3.10352
c20.1699 23.2725 37.2363 51.2002 51.2002 79.1279c-6.20605 6.20605 -9.30957 13.9629 -9.30957 23.2725c0 17.0664 12.4121 31.0303 29.4785 32.582c9.30957 32.5811 13.9639 65.1631 13.9639 99.2969v17.0664l-46.5449 -46.5459
c-3.10352 -3.10254 -9.30957 -3.10254 -13.9639 0c-4.6543 4.65527 -6.20605 10.8613 -1.55176 15.5156l65.1641 65.1631v0c4.6543 4.65527 10.8604 4.65527 15.5146 0l66.7148 -65.1631c4.65527 -4.6543 4.65527 -10.8604 0 -15.5156v0
c-4.6543 -4.6543 -10.8604 -4.6543 -15.5146 0l-46.5459 46.5459v-18.6182c0 -35.6846 -4.6543 -69.8184 -13.9629 -103.951c6.20605 0 12.4121 -3.10352 18.6182 -6.20605c15.5146 -9.30957 20.1689 -29.4795 9.30859 -44.9941
c-9.30859 -15.5156 -29.4785 -20.1699 -44.9941 -9.30957h-4.6543c-13.9639 -29.4785 -32.582 -57.4062 -54.3027 -83.7812c1.55176 -4.65527 3.10254 -10.8613 3.10254 -15.5156c0 -17.0664 -13.9629 -32.582 -32.5811 -32.582
c-6.20605 0 -10.8613 1.55176 -15.5156 3.10352c-24.8242 -21.7217 -52.752 -40.3398 -83.7822 -54.3027v-4.65527c0 -17.0664 -13.9629 -32.5811 -32.5811 -32.5811c-10.8613 0 -21.7217 4.6543 -27.9277 13.9629c-23.2725 -6.20605 -48.0967 -10.8604 -72.9209 -12.4121
c-3.10352 -13.9629 -17.0664 -23.2725 -31.0303 -23.2725zM384.775 272.679c-6.20605 0 -10.8604 -6.20605 -10.8604 -10.8604c0 -6.20605 4.6543 -10.8604 10.8604 -10.8604s10.8613 4.6543 10.8613 10.8604s-4.65527 10.8604 -10.8613 10.8604zM296.34 140.8
c-6.20605 0 -10.8613 -6.20605 -10.8613 -10.8604c0 -6.20605 4.65527 -10.8604 10.8613 -10.8604s10.8604 4.6543 10.8604 10.8604s-4.6543 10.8604 -10.8604 10.8604zM164.461 52.3633c-6.20605 0 -10.8613 -4.6543 -10.8613 -10.8604s4.65527 -10.8604 10.8613 -10.8604
s10.8604 4.6543 10.8604 10.8604s-4.6543 10.8604 -10.8604 10.8604zM32.582 30.6426c-6.20605 0 -10.8604 -4.6543 -10.8604 -10.8604s4.6543 -10.8613 10.8604 -10.8613s10.8604 4.65527 10.8604 10.8613s-4.6543 10.8604 -10.8604 10.8604z" />
    <glyph glyph-name="icon-ruby" unicode="&#xf133;" 
d="M519.027 285.364c0 -1.00391 1.00391 -3.01172 0 -5.01953c0 -1.00391 -1.00391 -1.00391 -1.00391 -2.00781s0 -2.00781 -1.00391 -3.01172v-1.00391l-244.957 -312.22c-1.00391 0 -1.00391 -1.00391 -2.00781 -1.00391c0 0 0 -1.00391 -1.00391 -1.00391
c-2.00781 -1.00391 -4.01562 -2.00781 -6.02344 -2.00781s-4.01562 1.00391 -6.02344 2.00781l-1.00391 1.00391c-1.00391 0 -2.00781 0 -2.00781 1.00391l-244.957 312.22v1.00391c-1.00391 1.00391 -1.00391 2.00781 -1.00391 3.01172
c-1.00391 1.00391 -1.00391 1.00391 -1.00391 2.00781c0 2.00781 0 3.01172 1.00391 5.01953v1.00391l66.2588 133.522l1.00391 1.00391c1.00391 1.00391 2.00781 3.01172 4.01562 4.01562l1.00391 1.00391c0 1.00391 1.00391 1.00391 1.00391 1.00391
c1.00391 1.00391 3.01172 1.00391 4.01562 1.00391h356.393c1.00391 0 3.01172 0 4.01562 -1.00391c0 -1.00391 1.00391 -1.00391 1.00391 -1.00391l1.00391 -1.00391l3.01172 -3.01172l1.00391 -1.00391l67.2627 -135.53c-1.00391 1.00391 -1.00391 1.00391 0 0
c-1.00391 1.00391 -1.00391 1.00391 0 0c0 1.00391 -1.00391 1.00391 0 0zM424.659 404.831h-136.533l94.3682 -102.399zM360.408 292.393l-97.3809 106.415l-97.3799 -106.415h194.761zM237.93 404.831h-136.533l43.168 -102.399zM84.3291 388.769l-48.1875 -95.3721
h88.3447zM41.1611 270.306l183.718 -233.913l-91.3574 233.913h-92.3604zM263.027 0.250977l106.416 270.055h-212.832zM301.177 36.3926l184.722 234.917h-92.3613zM402.572 292.393h88.3457l-48.1885 95.3721z" />
    <glyph glyph-name="icon-comp" unicode="&#xf112;" 
d="M28.6719 -64c-4.0957 0 -8.19141 0 -8.19141 2.04785c-14.3369 6.14453 -22.5283 22.5283 -16.3848 36.8643l53.248 120.832v309.248c-2.04785 24.5762 18.4326 43.0078 40.96 43.0078h479.232c24.5762 0 43.0078 -20.4805 43.0078 -43.0078v-311.296l53.248 -118.784
c4.0957 -8.19238 4.0957 -18.4316 -2.04785 -26.624c-6.14453 -8.19238 -14.3359 -12.2881 -24.5762 -12.2881h-618.496zM262.144 -35.3281h151.553l-14.3359 28.6719h-122.88zM83.9678 404.992v-299.008h507.904v299.008c0 8.19141 -6.14453 14.3359 -14.3359 14.3359
h-479.232c-8.19141 0 -14.3359 -6.14453 -14.3359 -14.3359zM79.8721 77.3115v0l-53.248 -114.688h202.752l24.5762 49.1523c2.04785 6.14355 6.14355 8.19141 12.2881 8.19141h141.312c4.09668 0 10.2402 -4.0957 12.2881 -8.19141l24.5762 -49.1523h202.752
l-51.2002 114.688h-516.096z" />
    <glyph glyph-name="icon-dedicated" unicode="&#xf114;" 
d="M10.7793 -41.0947c-5.38965 0 -10.7793 4.04199 -10.7793 9.43164s4.04199 10.7793 10.7793 10.7793h214.231c4.04199 9.43164 10.7783 17.5156 20.21 20.21v24.2529h-144.168c-18.8633 0 -33.6846 14.8213 -33.6846 33.6836v88.9268
c0 9.43164 2.69531 16.168 8.08398 22.9053c-5.38867 6.7373 -8.08398 14.8213 -8.08398 22.9053v87.5791c0 9.43164 2.69531 16.168 8.08398 22.9053c-5.38867 6.73633 -8.08398 14.8213 -8.08398 22.9053v88.9258c0 18.8633 14.8213 33.6846 32.3369 33.6846h312.59
c17.5156 0 32.3369 -14.8213 32.3369 -33.6846v-86.2314c0 -9.43164 -2.69531 -17.5156 -8.08398 -22.9053c5.38867 -6.73633 8.08398 -14.8213 8.08398 -22.9053v-88.9258c0 -9.43164 -2.69531 -17.5156 -8.08398 -22.9053
c5.38867 -6.7373 8.08398 -14.8213 8.08398 -22.9053v-88.9268c0 -18.8633 -14.8213 -33.6836 -33.6846 -33.6836h-144.168v-24.2529c9.43164 -2.69531 17.5156 -10.7793 20.21 -20.2109h212.885c5.38867 0 10.7783 -5.38965 10.7783 -10.7783
c0 -5.38965 -4.04199 -10.7793 -10.7783 -10.7793h-212.885c-4.04199 -13.4736 -17.5156 -22.9053 -30.9893 -22.9053s-26.9473 9.43164 -32.3369 22.9053h-212.884zM88.9268 192v0c0 -6.7373 5.38867 -10.7793 10.7783 -10.7793h311.242
c5.38965 0 10.7793 4.04199 10.7793 10.7793v88.9268c0 5.38867 -4.04199 10.7783 -10.7793 10.7783h-311.242c-5.38965 0 -10.7783 -4.04199 -10.7783 -10.7783v-88.9268zM88.9268 414.315v0v-88.9258c0 -5.38965 5.38867 -10.7793 10.7783 -10.7793h311.242
c5.38965 0 10.7793 4.04199 10.7793 10.7793v88.9258c0 5.38965 -4.04199 10.7793 -10.7793 10.7793h-311.242c-5.38965 0 -10.7783 -4.04199 -10.7783 -10.7793zM88.9268 58.6104v0c0 -6.73633 5.38867 -10.7783 10.7783 -10.7783h311.242
c5.38965 0 10.7793 4.04199 10.7793 10.7783v88.9268c0 5.38965 -4.04199 10.7783 -10.7793 10.7783h-311.242c-5.38965 0 -10.7783 -4.04199 -10.7783 -10.7783v-88.9268zM256 -19.5371c-6.7373 0 -10.7793 -5.38965 -10.7793 -10.7783
c0 -5.38965 4.04199 -10.7793 10.7793 -10.7793c5.38965 0 10.7793 4.04199 10.7793 10.7793c0 5.38867 -4.04199 10.7783 -10.7793 10.7783zM122.61 336.168v0c-6.73633 0 -10.7783 5.38965 -10.7783 12.127v44.4629c0 5.38965 5.38867 10.7793 10.7783 10.7793
s10.7793 -4.04199 10.7793 -10.7793v-45.8105c0 -5.38965 -4.04199 -10.7793 -10.7793 -10.7793zM122.61 270.147v0c5.38965 0 10.7793 -5.38965 10.7793 -10.7793v-44.4629c0 -5.38965 -5.38965 -10.7793 -10.7793 -10.7793s-10.7783 4.04199 -10.7783 10.7793v44.4629v0
c0 5.38965 4.04199 10.7793 10.7783 10.7793zM122.61 136.758v0c5.38965 0 10.7793 -5.38965 10.7793 -12.126v-43.1162c0 -5.38965 -5.38965 -10.7783 -10.7793 -10.7783s-10.7783 4.04199 -10.7783 10.7783v44.4629v0c0 5.38965 4.04199 10.7793 10.7783 10.7793z
M389.39 359.073c-2.69531 0 -5.38965 1.34766 -8.08398 2.69531c-1.34766 2.69434 -2.69531 5.38965 -2.69531 8.08398c0 2.69531 1.34766 5.38965 2.69531 8.08398c5.38867 4.04199 12.126 4.04199 16.168 0c1.34766 -2.69434 2.69434 -5.38867 2.69434 -8.08398v0
c0 -5.38965 -4.04199 -10.7793 -10.7783 -10.7793zM344.927 359.073c-2.69531 0 -5.38965 1.34766 -8.08496 1.34766c-1.34668 2.69531 -2.69434 5.38965 -2.69434 8.08398c0 2.69531 1.34766 5.38965 2.69434 8.08496c5.38965 4.04199 12.127 4.04199 16.1689 0v0
c4.04199 -4.04199 4.04199 -10.7793 0 -14.8213c-2.69531 -1.34766 -5.38965 -2.69531 -8.08398 -2.69531zM300.463 359.073c-2.69434 0 -5.38965 1.34766 -8.08398 2.69531c-1.34766 2.69434 -2.69434 5.38965 -2.69434 8.08398c0 2.69531 1.34668 5.38965 2.69434 8.08398
c5.38965 4.04199 12.126 4.04199 16.1689 0c1.34668 -2.69434 2.69434 -5.38867 2.69434 -8.08398v0c0 -5.38965 -4.04199 -10.7793 -10.7793 -10.7793zM381.306 244.548c4.04199 4.04199 12.126 4.04199 16.168 0c1.34766 -2.69531 2.69434 -5.38965 2.69434 -8.08496v0
c0 -5.38965 -4.04199 -10.7783 -10.7783 -10.7783c-2.69531 0 -5.38965 1.34668 -8.08398 2.69434c-1.34766 2.69434 -2.69531 5.38965 -2.69531 8.08398c0 2.69531 1.34766 5.38965 2.69531 8.08496zM336.842 244.548c4.04199 4.04199 12.127 4.04199 16.1689 0
c1.34668 -2.69531 2.69434 -5.38965 2.69434 -8.08496v0c0 -5.38965 -4.04199 -10.7783 -10.7783 -10.7783c-2.69531 0 -6.7373 0 -8.08496 2.69434c-1.34668 2.69434 -2.69434 5.38965 -2.69434 8.08398c0 2.69531 1.34766 5.38965 2.69434 8.08496zM292.379 244.548
c4.04199 4.04199 12.126 4.04199 16.1689 0c1.34668 -2.69531 2.69434 -5.38965 2.69434 -8.08496v0c0 -5.38965 -4.04199 -10.7783 -10.7793 -10.7783c-2.69434 0 -6.73633 0 -8.08398 2.69434s-2.69434 5.38965 -2.69434 8.08398c0 2.69531 0 5.38965 2.69434 8.08496z
M389.39 92.2949c-2.69531 0 -5.38965 0 -8.08398 2.69434c-1.34766 2.69531 -2.69531 5.38965 -2.69531 8.08398c0 2.69531 1.34766 5.38965 2.69531 8.08496c5.38867 4.04199 12.126 4.04199 16.168 0c1.34766 -2.69531 2.69434 -5.38965 2.69434 -8.08496
c1.34766 -2.69434 0 -6.73633 -2.69434 -8.08398c-2.69434 -1.34668 -5.38965 -2.69434 -8.08398 -2.69434zM344.927 92.2949c-2.69531 0 -5.38965 0 -8.08496 2.69434c-1.34668 2.69531 -2.69434 5.38965 -2.69434 8.08398c0 2.69531 1.34766 5.38965 2.69434 8.08496
c5.38965 4.04199 12.127 4.04199 16.1689 0c1.34668 -2.69531 2.69434 -5.38965 2.69434 -8.08496v0c0 -5.38867 -4.04199 -10.7783 -10.7783 -10.7783zM300.463 92.2949c-2.69434 0 -5.38965 0 -8.08398 2.69434c-1.34766 2.69531 -2.69434 5.38965 -2.69434 8.08398
c0 2.69531 0 5.38965 2.69434 8.08496c5.38965 4.04199 12.126 4.04199 16.1689 0c1.34668 -2.69531 2.69434 -5.38965 2.69434 -8.08496c0 -2.69434 0 -6.73633 -2.69434 -8.08398c-2.69531 -1.34668 -5.38965 -2.69434 -8.08496 -2.69434z" />
    <glyph glyph-name="icon-glass" unicode="&#xf11c;" 
d="M337.317 51.9531v0c-12.0469 13.5527 -15.0586 33.1289 -7.5293 49.6943l-40.6582 40.6582c-31.624 -28.6113 -72.2832 -43.6699 -114.447 -43.6699c-46.6826 0 -90.3535 18.0703 -123.482 51.1992c-33.1299 33.1299 -51.2002 76.8008 -51.2002 123.482
c0 46.6826 18.0703 90.3535 49.6943 123.482c33.1289 33.1299 76.7998 51.2002 123.482 51.2002c46.6816 0 91.8584 -18.0703 123.482 -51.2002c66.2588 -64.7529 69.2705 -170.164 9.03516 -237.93l40.6582 -40.6582c15.0596 7.5293 36.1416 4.51758 48.1885 -7.5293
l103.906 -103.906c16.5645 -16.5645 16.5645 -42.165 0 -58.7295c-7.5293 -7.5293 -18.0703 -12.0469 -28.6123 -12.0469c-10.541 0 -21.082 4.51758 -28.6113 12.0469zM379.482 94.1172v0c-3.01172 3.0127 -7.5293 4.51855 -13.5527 4.51855
c-4.51758 0 -9.03516 -1.50586 -12.0469 -4.51855c-7.53027 -7.5293 -7.53027 -18.0703 0 -25.5996l103.905 -103.906c7.5293 -6.02344 19.5762 -6.02344 25.6006 0c7.5293 7.53027 7.5293 18.0713 0 25.6006zM67.7646 166.4v0
c28.6123 -28.6123 67.7646 -43.6709 108.424 -45.1768c39.1523 0 76.7998 15.0586 105.411 43.6709v0v0c57.2236 58.7285 57.2236 155.105 -1.50586 213.835c-28.6113 28.6113 -66.2588 45.1768 -106.917 45.1768c-40.6592 0 -78.3066 -15.0596 -106.918 -43.6709
c-28.6113 -28.6123 -43.6709 -66.2588 -43.6709 -106.918c0 -40.6582 16.5654 -78.3057 45.1768 -106.917zM124.988 392.282v0c6.02344 1.50586 12.0469 -1.50586 15.0586 -7.5293s0 -12.0469 -6.02344 -15.0586c-13.5527 -4.51758 -24.0938 -12.0469 -33.1289 -21.083
c-19.5771 -19.5762 -30.1182 -45.1758 -30.1182 -73.7881c0 -7.5293 -6.02344 -12.0469 -12.0469 -12.0469v0c-7.5293 0 -12.0469 6.02344 -12.0469 12.0469c0 34.6357 13.5527 66.2588 37.6465 90.3535c12.0479 12.0469 25.6006 21.082 40.6592 27.1055z" />
    <glyph glyph-name="icon-globe-3d" unicode="&#xf11e;" 
d="M256 -11.2002c-9.59961 0 -17.5996 0 -27.2002 1.60059c0 1.59961 -1.59961 3.19922 -1.59961 4.7998c-17.6006 32 -32 62.3994 -40 92.7998c22.3994 -1.59961 44.7998 -3.2002 70.3994 -3.2002c80 0 140.801 11.2002 187.2 32c-30.3994 -75.2002 -104 -128 -188.8 -128z
M67.2002 116.8c17.5996 -8 38.3994 -14.3994 60.7998 -20.7998c6.40039 -27.2002 14.4004 -52.7998 27.2002 -80c-40 22.4004 -70.4004 59.2002 -88 100.8zM184 225.6c3.2002 12.8008 8 25.6006 14.4004 36.8008c17.5996 -1.60059 36.7998 -1.60059 59.1992 -1.60059
c83.2002 0 140.801 11.2002 172.801 35.2002c17.5996 -30.4004 28.7998 -65.5996 28.7998 -104c-32 -35.2002 -99.2002 -54.4004 -201.601 -54.4004c-30.3994 0 -57.5996 1.60059 -81.5996 4.80078c-1.59961 30.3994 0 57.5996 8 83.1992zM168 321.6
c-25.5996 4.80078 -41.5996 11.2002 -51.2002 17.6006c30.4004 28.7998 70.4004 48 113.601 54.3994c-20.8008 -19.1992 -43.2002 -43.1992 -62.4004 -72zM395.2 339.2c-16 -11.2002 -54.4004 -24 -139.2 -24h-25.5996c33.5996 41.5996 72 65.5996 81.5996 70.3994
c32 -8 60.7998 -25.5996 83.2002 -46.3994zM52.7998 193.6c0 38.4004 11.2002 73.6006 28.7998 104c14.4004 -11.1992 35.2002 -19.1992 59.2002 -25.5996c-3.2002 -9.59961 -8 -19.2002 -11.2002 -30.4004c-8 -28.7998 -11.1992 -57.5996 -11.1992 -86.3994
c-27.2002 9.59961 -49.6006 20.7998 -65.6006 38.3994zM256 448c-140.8 0 -256 -115.2 -256 -256s115.2 -256 256 -256s256 115.2 256 256s-115.2 256 -256 256z" />
    <glyph glyph-name="icon-build" unicode="&#xf108;" 
d="M47.1846 29.3643c-7.02734 -8.03125 -11.043 -18.0703 -12.0469 -28.1094c0 -11.043 5.01953 -21.082 12.0469 -28.1094c15.0586 -15.0596 41.1602 -15.0596 56.2197 0l232.909 232.909c-24.0938 12.0469 -44.1719 32.126 -56.2197 56.2197zM288.126 332.549
c-2.00879 -17.0664 0 -33.1289 6.02344 -48.1885c10.0391 -30.1172 34.1328 -54.2109 64.251 -64.251c15.0586 -5.01953 31.1211 -7.02734 48.1875 -5.01953c47.1846 5.01953 85.334 44.1729 90.3535 91.3574c0 7.02734 1.00391 14.0547 0 21.082l-54.2119 -54.2119
c-11.043 -12.0469 -32.126 -12.0469 -44.1729 0l-51.2002 51.2002c-12.0469 12.0469 -12.0469 32.126 0 44.1729l54.2119 54.2119c-7.02734 1.00391 -14.0547 1.00391 -21.082 0c-48.1885 -5.01953 -86.3369 -43.1689 -92.3604 -90.3535zM33.1299 -40.9102
c-12.0479 11.0439 -18.0713 26.1025 -18.0713 42.165s7.02734 31.1221 18.0713 43.1689l238.933 239.937c-5.01953 16.0635 -6.02344 33.1299 -4.01562 51.2002c7.02734 56.2197 53.208 102.4 110.432 108.424c16.0625 2.00781 32.125 0 48.1885 -4.01562
c3.01172 -1.00391 6.02344 -3.01172 7.02734 -7.02734s0 -7.02734 -3.01172 -10.0391l-68.2666 -68.2666c-4.01562 -4.0166 -4.01562 -11.0439 0 -15.0596l51.1992 -51.1992c4.0166 -4.0166 11.0439 -4.0166 15.0596 0l68.2666 68.2666
c3.01172 3.01172 6.02344 4.01562 10.0391 3.01172c3.01172 -1.00391 6.02344 -3.01172 7.02734 -7.02734c5.01953 -16.0635 6.02344 -32.126 4.01562 -48.1885c-6.02344 -57.2236 -52.2041 -103.404 -108.424 -110.432
c-5.01953 -1.00391 -11.043 -1.00391 -16.0625 -1.00391c-12.0469 0 -24.0938 2.00781 -35.1367 5.01953l-238.934 -238.934c-12.0469 -12.0469 -26.1025 -18.0703 -43.1689 -18.0703s-32.125 7.02734 -43.168 18.0703zM57.2236 4.2666
c0 11.6436 9.43848 21.082 21.082 21.082s21.083 -9.43848 21.083 -21.082s-9.43945 -21.082 -21.083 -21.082s-21.082 9.43848 -21.082 21.082z" />
    <glyph glyph-name="icon-mouse" unicode="&#xf125;" 
d="M318.271 97.9023c0 -87.1777 -71.957 -159.135 -159.136 -159.135c-87.1777 0 -159.135 71.957 -159.135 159.135v127.309c0 84.4111 66.4219 153.6 148.064 157.751v53.9678c0 6.91895 4.15137 11.0703 11.0703 11.0703s11.0703 -5.53516 11.0703 -11.0703v-52.584
c81.6436 -5.53516 148.065 -74.7236 148.065 -159.135v-127.309zM159.135 299.936c-5.53516 0 -11.0703 -5.53516 -11.0703 -11.0703v-20.7568c0 -6.91895 4.15137 -11.0703 11.0703 -11.0703s11.0703 5.53516 11.0703 11.0703v20.7568
c0 6.91895 -5.53516 11.0703 -11.0703 11.0703zM159.135 -40.4756c76.1084 0 138.379 62.2705 138.379 138.378v127.309c0 71.957 -56.7354 131.459 -127.309 136.994v-42.8965c12.4541 -5.53516 20.7568 -16.6055 20.7568 -30.4434v-20.7568
c0 -17.9893 -13.8379 -31.8271 -31.8271 -31.8271s-31.8262 13.8379 -31.8262 31.8271v19.373c0 13.8379 8.30176 26.292 20.7559 30.4434v44.2803c-70.5723 -5.53516 -127.308 -65.0371 -127.308 -136.994v-127.309c0 -76.1074 62.2705 -138.378 138.378 -138.378z" />
    <glyph glyph-name="icon-secure" unicode="&#xf136;" 
d="M322.259 -4.76855c75.2939 42.165 122.479 122.479 123.482 208.815v187.733c-104.408 39.1533 -249.977 39.1533 -353.381 0v-187.733c0 -86.3369 46.1807 -166.65 123.482 -208.815l53.208 -30.1182zM464.815 401.819c0 -1.00391 1.00391 -2.00781 1.00391 -3.01172
v-194.761c0 -94.3682 -51.2002 -180.706 -133.521 -226.886l-59.2314 -32.126c-2.00781 -1.00391 -3.01172 -1.00391 -5.01953 -1.00391s-3.01172 0 -5.01953 1.00391l-59.2314 32.126c-82.3213 46.1797 -133.521 132.518 -133.521 226.886v194.761
c0 1.00391 1.00391 2.00781 1.00391 3.01172v1.00391l1.00391 1.00391c1.00391 1.00391 1.00391 2.00781 2.00781 3.01172h1.00391c0 1.00391 1.00391 1.00391 2.00781 2.00781c110.432 44.1729 271.059 44.1729 381.49 0
c1.00391 -1.00391 2.00781 -1.00391 3.01172 -3.01172h1.00391s1.00391 -1.00391 1.00391 -2.00781l1.00391 -1.00391v-1.00391zM310.212 198.023l49.1924 36.1416h-63.2471c-5.01953 0 -9.03613 3.01172 -10.04 7.02734l-19.0742 57.2236l-19.0742 -57.2236
c-2.00781 -4.01562 -6.02344 -7.02734 -10.0391 -7.02734h-62.2432l50.1963 -36.1416c4.01562 -3.01172 5.01953 -8.03125 4.01562 -12.0469l-19.0752 -58.2275l51.2002 36.1416c4.01562 2.00781 8.03125 2.00781 12.0469 0l51.2002 -35.1377l-19.0742 57.2236
c-1.00391 5.01953 0 9.03516 4.01562 12.0469zM392.533 254.243c5.01953 0 9.03516 -3.01172 10.0391 -7.02734c1.00391 -5.01953 0 -9.03516 -4.01562 -12.0469l-70.2744 -50.1963l27.1064 -79.3096c1.00391 -5.01953 0 -9.03516 -4.0166 -12.0479
c-3.01172 -2.00781 -8.03125 -3.01172 -12.0469 0l-71.2783 48.1885l-71.2783 -49.1924c-2.00781 -1.00391 -4.01562 -2.00781 -6.02344 -2.00781s-4.01562 1.00391 -6.02344 2.00781c-4.01562 3.01172 -5.01953 8.03223 -4.01562 12.0479l27.1055 80.3135l-70.2744 50.1963
c-4.01562 3.01172 -5.01953 8.03125 -4.01562 12.0469c2.00781 4.01562 6.02344 7.02734 10.0391 7.02734h87.3418l27.1055 78.3057c3.01172 8.03125 17.0664 8.03125 20.0781 0l27.1064 -78.3057h87.3408z" />
    <glyph glyph-name="icon-alarm" unicode="&#xf103;" 
d="M384 416.377v0c70.7764 0 128 -57.2236 126.494 -126.494c0 -67.7656 -52.7061 -123.482 -118.965 -128v-30.1182c0 -12.0469 6.02344 -24.0938 15.0586 -34.6348l57.2236 -60.2354c6.02344 -6.02441 7.5293 -15.0596 4.51758 -22.5889
c-3.01172 -9.03516 -10.541 -13.5527 -19.5762 -13.5527h-131.012c-10.541 -36.1416 -43.6709 -63.2471 -82.8232 -63.2471c-39.1533 0 -73.7881 25.5996 -82.8242 63.2471h-131.012c-7.5293 0 -16.5645 6.02344 -19.5762 13.5527s-1.50586 16.5645 4.51758 22.5889
l55.7178 60.2354c10.541 9.03516 15.0586 21.082 15.0586 34.6348v118.965c0 40.6592 18.0703 79.8115 48.1885 109.93c19.5762 18.0703 42.165 31.623 67.7646 39.1523v6.02344c0 22.5889 19.5762 42.165 42.165 42.165c22.5879 0 42.1641 -18.0703 42.1641 -42.165
v-6.02344c9.03516 -1.50586 19.5771 -6.02344 28.6123 -10.541c21.082 16.5645 48.1885 27.1064 78.3057 27.1064zM213.835 405.835v0v0c9.03516 -1.50586 16.5654 0 25.6006 0c6.02344 0 10.541 -1.50586 16.5645 -1.50586v1.50586
c0 12.0479 -9.03516 21.083 -21.082 21.083c-12.0479 0 -21.083 -9.03516 -21.083 -21.083zM234.918 -42.918v0c27.1055 0 51.1992 18.0713 60.2354 42.165h-120.471c9.03516 -24.0938 33.1289 -42.165 60.2354 -42.165zM447.247 21.835v0l-57.2236 58.7295
c-12.0469 13.5527 -19.5762 31.624 -19.5762 49.6943v30.1182c-63.2471 7.5293 -114.447 61.7402 -114.447 128c0 33.1289 12.0469 61.7402 33.1299 85.835c-15.0596 6.02344 -31.624 10.541 -49.6943 10.541c-37.6475 1.50586 -72.2822 -13.5527 -99.3887 -39.1533
c-25.5996 -25.5996 -40.6582 -60.2354 -40.6582 -94.8701v-118.965c0 -18.0703 -6.02441 -36.1416 -19.5771 -49.6943l-57.2236 -60.2354h137.035v0h1.50684h286.117zM393.035 181.459v0c51.2002 4.51758 91.8594 45.1768 96.377 96.376h-9.03516
c-6.02441 0 -10.542 4.51758 -10.542 10.542c0 6.02344 4.51758 10.541 10.542 10.541h9.03516c-4.51758 49.6934 -45.1768 90.3525 -94.8711 94.8701v-9.03516c0 -6.02344 -4.51758 -10.541 -10.541 -10.541s-10.541 4.51758 -10.541 10.541v9.03516
c-49.6943 -4.51758 -90.3535 -45.1768 -94.8711 -94.8701h9.03516c6.02441 0 10.542 -4.51758 10.542 -10.541c0 -6.02441 -4.51758 -10.542 -10.542 -10.542h-9.03516c6.02344 -49.6934 43.6709 -88.8467 93.3652 -94.8701v9.03516c0 6.02344 4.51758 10.541 10.541 10.541
s10.541 -4.51758 10.541 -10.541v-10.541zM394.541 292.895v0l42.165 -40.6592c4.51758 -4.51758 4.51758 -10.541 0 -15.0586c-1.50586 -1.50586 -4.51758 -3.01172 -7.5293 -3.01172s-6.02344 1.50586 -7.5293 3.01172l-43.6709 43.6699
c-1.50586 0 -3.01172 1.50586 -3.01172 3.01172c-1.50586 1.50586 -1.50586 3.01172 -1.50586 4.51855v42.1641c0 6.02344 4.51758 10.541 10.541 10.541s10.541 -4.51758 10.541 -10.541v-37.6465zM189.741 353.13v0c6.02344 3.01172 12.0469 0 15.0586 -7.53027
c1.50586 -4.51758 0 -10.541 -6.02344 -13.5527c-10.541 -4.51758 -21.082 -10.541 -30.1172 -19.5762c-9.03613 -7.5293 -16.5654 -18.0703 -21.083 -28.6123c-4.51758 -10.541 -7.5293 -22.5879 -7.5293 -34.6348c0 -6.02344 -4.51758 -10.541 -10.541 -10.541
s-10.541 4.51758 -10.541 10.541c0 15.0586 3.01172 30.1172 9.03516 43.6709c6.02344 13.5527 15.0586 25.5996 25.5996 36.1406c10.542 10.541 22.5889 18.0703 36.1416 24.0947z" />
    <glyph glyph-name="icon-security" unicode="&#xf137;" 
d="M404.837 407.517c0 -1.19141 0 -2.38184 1.19141 -3.57227v0v-198.847c0 -97.6367 -52.3906 -185.749 -136.931 -233.377l-60.7256 -33.3389c-3.57227 -1.19141 -7.14453 -1.19141 -10.7158 0l-60.7256 33.3389c-84.54 46.4375 -136.931 135.74 -136.931 233.377v200.037
v0v2.38184v1.19043c1.19043 0 1.19043 1.19043 1.19043 1.19043c1.19141 0 1.19141 1.19043 1.19141 2.38184h1.19043c1.19043 1.19043 2.38086 1.19043 3.57227 2.38086v0c114.307 45.2471 278.623 45.2471 391.739 0v0l2.38086 -2.38086h1.19141
c0 -1.19141 1.19043 -1.19141 1.19043 -2.38184c0 0 1.19043 -1.19043 1.19043 -2.38086c-1.19043 0 -1.19043 0 0 0zM257.19 -10.4189v0c78.5859 44.0566 126.214 126.214 126.214 215.517v191.702c-105.972 39.293 -256 39.293 -361.972 0v-191.702
c0 -89.3027 48.8184 -171.46 126.214 -214.325l54.7725 -30.959zM301.246 295.591v0v0c3.57227 3.57227 10.7168 4.7627 14.2891 1.19043c4.7627 -4.7627 4.7627 -10.7158 1.19043 -15.4785l-128.596 -148.838c-1.19043 -2.38086 -4.7627 -3.57227 -7.14355 -3.57227v0
c-2.38184 0 -4.7627 1.19141 -7.14453 3.57227l-64.2979 64.2979c-3.57227 3.57227 -3.57227 10.7168 0 14.2881c4.7627 3.57227 10.7168 3.57227 15.4795 0l55.9629 -55.9629z" />
    <glyph glyph-name="icon-powercycle" unicode="&#xf12b;" 
d="M272 395.2c0 -3.2002 0 -6.40039 -3.2002 -8l-43.2002 -54.4004c-4.7998 -4.7998 -12.7998 -6.39941 -17.5996 -1.59961s-6.40039 11.2002 -1.59961 17.5996c0 0 4.7998 6.40039 12.7998 17.6006c-92.7998 -12.8008 -166.4 -92.8008 -166.4 -188.801
c0 -104 84.7998 -188.8 187.2 -188.8c14.4004 0 25.5996 -11.2002 25.5996 -25.5996c0 -14.4004 -11.1992 -27.2002 -25.5996 -27.2002c-132.8 0 -240 108.8 -240 241.6c0 121.601 91.2002 224 209.6 238.4c-3.19922 3.2002 -8 6.40039 -12.7998 9.59961
c-4.7998 4.80078 -6.39941 11.2002 -1.59961 17.6006c4.7998 4.7998 11.2002 6.39941 17.5996 1.59961c0 0 19.2002 -14.3994 54.4004 -41.5996c1.59961 -1.60059 3.2002 -4.7998 4.7998 -8zM352 -8c0 12.7998 -11.2002 24 -24 24s-24 -11.2002 -24 -24s11.2002 -24 24 -24
s24 11.2002 24 24zM448 56c0 12.7998 -11.2002 24 -24 24s-24 -11.2002 -24 -24s11.2002 -24 24 -24s24 11.2002 24 24zM480 168c0 12.7998 -11.2002 24 -24 24s-24 -11.2002 -24 -24s11.2002 -24 24 -24s24 11.2002 24 24zM432 296c0 12.7998 -11.2002 24 -24 24
s-24 -11.2002 -24 -24s11.2002 -24 24 -24s24 11.2002 24 24zM248 304c12.7998 0 24 -11.2002 24 -24v-64c0 -12.7998 -11.2002 -24 -24 -24s-24 11.2002 -24 24v64c0 12.7998 11.2002 24 24 24zM329.6 244.8c19.2002 -19.2002 30.4004 -46.3994 28.8008 -76.7998
c0 -62.4004 -49.6006 -112 -112 -112c-62.4004 0 -112 49.5996 -112 112c0 30.4004 12.7998 57.5996 33.5996 78.4004c0 0 22.4004 25.5996 38.4004 9.59961s-8 -44.7998 -8 -44.7998c-9.60059 -11.2002 -16 -27.2002 -16 -43.2002c0 -35.2002 28.7998 -64 64 -64
c36.7998 0 64 28.7998 64 64c0 16 -4.80078 30.4004 -14.4004 41.5996c-3.2002 4.80078 -20.7998 30.4004 -6.40039 44.8008c12.8008 12.7998 30.4004 0 36.8008 -6.40039l3.19922 -3.2002c-1.59961 0 0 0 0 0z" />
    <glyph glyph-name="icon-instagram" unicode="&#xf121;" 
d="M255.149 446.299c69.7412 0 78.2461 0 105.462 -1.70117c20.4121 0 42.5244 -5.10254 61.2363 -11.9062c17.0098 -6.80469 32.3184 -17.0107 45.9268 -28.917c13.6074 -11.9072 23.8135 -28.917 28.917 -45.9268c6.80371 -20.4121 11.9062 -40.8242 11.9062 -61.2363
c1.70117 -27.2158 1.70117 -35.7207 1.70117 -105.462s0 -78.2461 -1.70117 -105.462c0 -20.4121 -5.10254 -42.5244 -11.9062 -61.2354c-13.6084 -34.0205 -40.8242 -61.2363 -74.8438 -74.8438c-20.4121 -6.80469 -40.8242 -11.9072 -61.2363 -11.9072
c-27.2158 -1.70117 -35.7207 -1.70117 -105.462 -1.70117s-78.2461 0 -105.462 1.70117c-20.4121 0 -42.5244 5.10254 -61.2354 11.9072c-17.0107 6.80371 -32.3193 17.0098 -45.9268 28.917c-13.6084 13.6074 -23.8145 28.916 -28.917 45.9268
c-6.80469 20.4121 -11.9072 40.8232 -11.9072 61.2354c-1.70117 28.917 -1.70117 37.4219 -1.70117 105.462s0 78.2461 1.70117 105.462c0 20.4121 5.10254 42.5244 11.9072 61.2363c6.80371 17.0098 17.0098 32.3184 28.917 45.9268
c13.6074 13.6074 28.916 23.8135 45.9268 28.917c20.4121 6.80371 40.8232 11.9062 61.2354 11.9062c27.2158 1.70117 35.7207 1.70117 105.462 1.70117zM255.149 400.372c-68.04 0 -76.5449 0 -103.761 -1.70117c-15.3086 0 -32.3193 -1.70117 -45.9268 -8.50488
c-11.9072 -3.40234 -22.1133 -10.2061 -30.6182 -18.7109s-15.3086 -18.7109 -18.7109 -28.917c-5.10254 -15.3086 -8.50488 -32.3184 -8.50488 -47.6279c-1.70117 -27.2158 -1.70117 -35.7207 -1.70117 -103.761s0 -76.5449 1.70117 -103.761
c0 -17.0098 3.40234 -32.3193 8.50488 -47.6279c3.40234 -11.9072 10.2061 -20.4121 18.7109 -28.917s18.7109 -15.3086 28.917 -18.7109c15.3086 -5.10254 32.3193 -8.50488 47.6279 -8.50488c27.2158 -1.70117 35.7207 -1.70117 103.761 -1.70117
s76.5449 0 103.761 1.70117c17.0098 0 32.3193 3.40234 47.6279 8.50488c22.1133 8.50488 39.123 25.5146 47.6279 47.6279c5.10352 15.3086 8.50488 30.6182 8.50488 47.6279c1.70117 27.2158 1.70117 35.7207 1.70117 103.761s0 76.5449 -1.70117 103.761
c0 17.0098 -3.40137 32.3193 -8.50488 47.6279c-3.40234 11.9072 -10.2061 20.4121 -18.7109 28.917s-18.7109 15.3086 -28.917 18.7109c-15.3086 6.80371 -32.3184 8.50488 -47.6279 8.50488c-27.2158 1.70117 -35.7207 1.70117 -103.761 1.70117zM255.149 322.126
c73.1426 0 130.977 -57.834 130.977 -130.977s-57.834 -130.977 -130.977 -130.977s-130.977 57.834 -130.977 130.977s57.834 130.977 130.977 130.977zM255.149 106.1c47.6279 0 85.0498 37.4219 85.0498 85.0498s-37.4219 85.0498 -85.0498 85.0498
s-85.0498 -37.4219 -85.0498 -85.0498v0c0 -45.9268 37.4219 -85.0498 85.0498 -85.0498v0v0zM421.848 327.229c0 -17.0098 -13.6084 -30.6182 -30.6182 -30.6182s-30.6182 13.6084 -30.6182 30.6182s13.6084 30.6182 30.6182 30.6182s30.6182 -13.6084 30.6182 -30.6182v0z
" />
    <glyph glyph-name="icon-chat" unicode="&#xf10d;" 
d="M572.952 448c7.31445 0 12.1904 -4.87598 12.1904 -12.1904v-268.19c0 -7.31445 -4.87598 -12.1904 -12.1904 -12.1904h-36.5713v-85.333c0 -3.65723 -1.21875 -6.0957 -3.65723 -8.53418c-4.87598 -4.87598 -12.1904 -4.87598 -17.0664 0l-93.8672 93.8672h-31.6943
v-109.715c0 -7.31348 -4.87695 -12.1904 -12.1914 -12.1904h-214.552l-93.8672 -93.8662c-2.4375 -2.43848 -4.87598 -3.65723 -8.5332 -3.65723c-7.31445 0 -12.1904 4.87598 -12.1904 12.1904v85.333h-36.5713c-7.31445 0 -12.1904 4.87695 -12.1904 12.1904v268.19
c0 7.31445 4.87598 12.1914 12.1904 12.1914h182.857v109.714c0 7.31445 4.87598 12.1904 12.1904 12.1904h365.714zM365.714 57.9043v97.5244h-158.476c-7.31445 0 -12.1904 4.87598 -12.1904 12.1904v134.095h-170.667v-243.81h36.5713
c7.31445 0 12.1904 -4.87598 12.1904 -12.1904v-68.2666l76.7998 76.8008c2.43848 2.4375 4.87695 3.65625 8.53418 3.65625h207.237zM560.762 179.81v243.81h-341.333v-243.81h207.238c3.65723 0 6.09473 -1.21875 8.5332 -3.65723l76.7998 -76.7998v68.2666
c0 7.31445 4.87598 12.1904 12.1904 12.1904h36.5713zM280.381 326.096c-7.31445 0 -12.1904 4.87598 -12.1904 12.1904c0 7.31348 4.87598 12.1904 12.1904 12.1904h219.429c7.31445 0 12.1904 -4.87695 12.1904 -12.1904c0 -7.31445 -4.87598 -12.1904 -12.1904 -12.1904
h-219.429zM280.381 252.952c-7.31445 0 -12.1904 4.87598 -12.1904 12.1904s4.87598 12.1904 12.1904 12.1904h219.429c7.31445 0 12.1904 -4.87598 12.1904 -12.1904s-4.87598 -12.1904 -12.1904 -12.1904h-219.429z" />
    <glyph glyph-name="icon-check-solo" unicode="&#xf10f;" 
d="M166.4 147.2l224 246.399c27.1992 28.8008 72 30.4004 100.8 1.60059c27.2002 -27.2002 28.7998 -72 3.2002 -100.8l-265.601 -292.801c-20.7998 -33.5996 -64 -44.7998 -97.5996 -22.3994c-6.40039 4.7998 -12.7998 9.59961 -17.6006 16l-92.7998 96
c-27.2002 28.7998 -25.5996 75.2002 1.60059 104c27.1992 27.2002 70.3994 27.2002 99.1992 0z" />
    <glyph glyph-name="icon-accounts" unicode="&#xf101;" 
d="M219.858 375.718c-6.02344 0 -12.0469 5.01953 -12.0469 12.0469s6.02344 12.0469 12.0469 12.0469h92.3613c7.02734 0 12.0469 -5.01953 12.0469 -12.0469s-6.02344 -12.0469 -12.0469 -12.0469h-92.3613zM324.267 340.58
c0 -6.02344 -6.02344 -12.0469 -12.0469 -12.0469h-92.3613c-7.02734 0 -12.0469 6.02344 -12.0469 12.0469c0 7.02734 6.02344 12.0479 12.0469 12.0479h92.3613c7.02734 0 12.0469 -6.02441 12.0469 -12.0479zM370.447 39.4043c0 7.02734 5.01953 12.0469 11.043 12.0469
h93.3643c7.02832 0 12.0479 -5.01953 12.0479 -12.0469s-6.02344 -12.0479 -12.0479 -12.0479h-92.3604c-7.02734 0 -12.0469 6.02441 -12.0469 12.0479zM473.851 5.27051c7.02832 0 12.0479 -5.01953 12.0479 -12.0469s-6.02441 -12.0469 -12.0479 -12.0469h-92.3604
c-7.02734 0 -12.0469 5.01953 -12.0469 12.0469s6.02344 12.0469 12.0469 12.0469h92.3604zM150.588 5.27051c6.02344 0 12.0479 -5.01953 12.0479 -12.0469s-6.02441 -12.0469 -12.0479 -12.0469h-92.3604c-7.02734 0 -12.0469 5.01953 -12.0469 12.0469
s6.02344 12.0469 12.0469 12.0469h92.3604zM150.588 51.4512c6.02344 0 12.0479 -5.01953 12.0479 -12.0469s-6.02441 -12.0479 -12.0479 -12.0479h-92.3604c-7.02734 0 -12.0469 5.02051 -12.0469 12.0479s6.02344 12.0469 12.0469 12.0469h92.3604zM23.0898 74.541
v-115.451h161.632v115.451h-161.632zM184.722 421.898v-115.451h161.631v115.451h-161.631zM508.988 -40.9102v115.451h-161.632v-115.451h161.632zM12.0469 -64c-7.02734 0 -12.0469 5.01953 -12.0469 10.0391v138.541c0 7.02734 6.02344 12.0479 12.0469 12.0479h80.3135
v81.3174c0 7.02734 6.02441 12.0469 12.0479 12.0469h150.588v92.3604h-81.3174c-7.02734 0 -12.0469 6.02441 -12.0469 12.0479v138.541c0 7.02734 6.02344 12.0469 12.0469 12.0469h183.718c7.02734 0 12.0469 -6.02344 12.0469 -12.0469v-137.537
c0 -7.02734 -6.02344 -12.0479 -12.0469 -12.0479h-81.3184v-92.3604h150.589c7.02734 0 12.0469 -6.02344 12.0469 -12.0469v-81.3174h81.3174c7.02734 0 12.0469 -6.02441 12.0469 -12.0479v-138.541c0 -7.02734 -6.02344 -12.0469 -12.0469 -12.0469h-184.722
c-7.02734 0 -12.0469 6.02344 -12.0469 12.0469v138.541c0 7.02734 6.02344 12.0479 12.0469 12.0479h81.3184v69.2705h-301.177v-69.2705h81.3174c7.02734 0 12.0469 -6.02441 12.0469 -12.0479v-137.537c0 -7.02734 -6.02344 -12.0469 -12.0469 -12.0469h-184.722z" />
    <glyph glyph-name="icon-wall" unicode="&#xf147;" 
d="M14.6289 -60.3428c-7.31445 0 -14.6289 5.48535 -14.6289 14.6289v479.085c0 7.31445 7.31445 14.6289 16.457 14.6289h329.143v0c7.31445 0 14.6289 -5.48535 14.6289 -14.6289v-106.057h74.9717v0c7.31445 0 14.6279 -5.48633 14.6279 -14.6289v-106.057h104.229v0
c7.31348 0 14.6279 -5.48633 14.6279 -14.6289v-104.229h74.9717v0c7.31445 0 14.6289 -5.48535 14.6289 -14.6289v-118.856v0c0 -7.31445 -5.48633 -14.6289 -14.6289 -14.6289h-629.028zM135.314 298.058v0h-106.058v-89.6006h181.029v89.6006h-74.9717zM329.143 89.5996
v0v89.6006h-179.2v-89.6006h179.2zM29.2568 89.5996v0h89.6006v89.6006h-89.6006v-89.6006zM29.2568 58.5146v0v-89.6006h179.2v89.6006h-179.2zM239.543 58.5146v0v-89.6006h179.2v89.6006h-179.2zM629.028 -31.0859v0v89.6006h-179.2v-89.6006h179.2zM539.429 89.5996v0
v89.6006h-179.2v-89.6006h179.2zM418.743 208.457v0v89.6006h-179.2v-89.6006h179.2zM329.143 329.143v0v89.6006h-179.2v-89.6006h179.2zM29.2568 418.743v-89.6006h89.6006v89.6006h-89.6006z" />
    <glyph glyph-name="icon-node" unicode="&#xf127;" 
d="M431.687 96.6279c44.1719 44.1719 68.2666 100.392 68.2666 163.639s-24.0947 121.475 -68.2666 165.647c-4.01562 5.01953 -4.01562 12.0469 0 16.0625c5.01953 4.01562 12.0469 4.01562 16.0625 0c48.1885 -48.1885 75.2939 -112.439 75.2939 -180.706
s-27.1055 -132.518 -75.2939 -180.706c-2.00781 -2.00781 -5.01953 -3.01172 -8.03125 -3.01172s-6.02344 1.00391 -8.03125 3.01172c-4.01562 5.01953 -4.01562 12.0469 0 16.0635zM85.333 442.98c4.01562 4.01562 11.0439 4.01562 15.0596 0
c4.01562 -5.01953 4.01562 -12.0469 0 -16.0625c-44.1729 -44.1729 -67.2627 -100.393 -67.2627 -163.64s24.0938 -121.475 68.2666 -165.646c4.01562 -5.02051 4.01562 -12.0479 0 -16.0635c-2.00781 -2.00781 -5.01953 -3.01172 -8.03223 -3.01172
c-3.01172 0 -6.02344 1.00391 -8.03125 3.01172c-48.1875 48.1885 -75.2939 112.439 -75.2939 180.706s27.1064 132.518 75.2939 180.706zM384.502 395.796c4.01562 4.01562 11.043 4.01562 16.0625 -2.00781c35.1377 -35.1367 55.2158 -83.3252 55.2158 -133.521
s-19.0742 -97.3799 -55.2158 -133.521c-2.00781 -2.00781 -5.01953 -3.01172 -8.03125 -3.01172s-6.02344 1.00391 -8.03125 3.01172c-4.01562 5.01953 -4.01562 12.0469 0 16.0625c32.126 32.126 49.1924 73.2861 49.1924 118.463s-18.0713 87.3408 -49.1924 118.463
c-4.01562 5.01953 -4.01562 12.0469 0 16.0625zM132.518 395.796c4.01562 4.01562 11.043 4.01562 16.0625 2.00781c4.01562 -5.01953 4.01562 -12.0469 0 -16.0625c-32.125 -32.126 -49.1914 -73.2861 -49.1914 -118.463s18.0703 -87.3408 49.1914 -118.463
c4.01562 -5.01953 4.01562 -12.0469 0 -16.0625c-2.00781 -2.00781 -5.01953 -3.01172 -8.03125 -3.01172s-6.02344 1.00391 -8.03125 3.01172c-35.1367 35.1377 -55.2158 83.3252 -55.2158 133.521s19.0752 97.3809 55.2158 133.521zM337.317 175.938
c-5.01953 4.01562 -5.01953 11.043 0 14.0547c19.0752 19.0742 29.1143 44.1729 29.1143 71.2783c0 27.1064 -10.0391 52.2041 -29.1143 71.2783c-4.01562 5.01953 -5.01953 12.0469 0 16.0625c5.01953 4.0166 12.0469 4.0166 16.0635 0
c23.0898 -23.0898 36.1406 -54.2109 36.1406 -86.3369c0 -32.125 -13.0508 -63.2471 -36.1406 -86.3369c-2.00879 -2.00781 -5.02051 -3.01172 -8.03223 -3.01172s-6.02344 1.00391 -8.03125 3.01172zM194.761 348.611c5.01953 -4.01562 5.01953 -11.043 0 -14.0547
c-19.0742 -19.0742 -29.1133 -44.1719 -29.1133 -71.2783c0 -27.1055 10.0391 -52.2041 29.1133 -71.2783c4.01562 -5.01953 4.01562 -12.0469 0 -16.0625c-2.00781 -2.00781 -5.01953 -3.01172 -8.03125 -3.01172s-6.02344 1.00391 -8.03125 3.01172
c-23.0908 23.0898 -36.1416 54.2119 -36.1416 86.3369c0 32.126 13.0508 63.2471 36.1416 86.3369c5.01953 4.0166 12.0469 4.0166 16.0625 0zM232.91 262.274c0 -18.0703 15.0586 -33.1289 33.1289 -33.1289s33.1299 15.0586 33.1299 33.1289
s-15.0596 33.1299 -33.1299 33.1299s-33.1289 -15.0596 -33.1289 -33.1299zM321.255 262.274c0 -27.1055 -19.0742 -49.1924 -44.1729 -54.2119v-257.004c0 -6.02344 -5.01953 -11.043 -11.043 -11.043s-11.043 5.01953 -11.043 11.043v257.004
c-25.0977 5.01953 -44.1729 27.1064 -44.1729 54.2119c0 30.1182 25.0986 55.2158 55.2158 55.2158c30.1182 0 55.2158 -24.0938 55.2158 -55.2158z" />
    </font>
</defs>
</svg>
