<svg width="452" height="334" viewBox="0 0 452 334" fill="none" xmlns="http://www.w3.org/2000/svg">
<path d="M309.453 217.354L299.994 208.242L295.086 213.118L304.545 222.23L309.453 217.354Z" fill="#1C056D"/>
<path d="M346.819 222.604C375.781 222.604 399.26 199.636 399.26 171.302C399.26 142.969 375.781 120 346.819 120C317.857 120 294.378 142.969 294.378 171.302C294.378 199.636 317.857 222.604 346.819 222.604Z" fill="#EAF2FC"/>
<path opacity="0.2" d="M307.117 193.729C297.079 192.376 287.975 193.77 287.961 193.729C287.931 193.632 287.695 157.731 287.695 157.731L364.327 161.019L294.962 150.402L309.327 120.503L406.457 139L399.827 190.706H360.16L399.603 195.35L386.684 219.942L312.796 220.592L293.872 198.743L337.608 195.699C337.608 195.699 320.849 195.581 307.117 193.729Z" fill="#6880E4"/>
<path d="M303.841 213.827C293.047 203.36 286.595 189.328 285.737 174.453C284.878 159.578 289.674 144.919 299.195 133.321C308.715 121.723 322.281 114.012 337.261 111.685C352.242 109.357 367.568 112.579 380.267 120.724C392.966 128.87 402.133 141.359 405.989 155.768C409.845 170.178 408.116 185.481 401.137 198.709C394.157 211.937 382.426 222.147 368.217 227.358C354.009 232.569 338.337 232.41 324.241 226.912C316.614 223.943 309.675 219.492 303.841 213.827V213.827ZM383.142 134.723C374.625 126.482 363.463 121.396 351.557 120.334C339.651 119.271 327.739 122.297 317.849 128.895C307.96 135.494 300.705 145.257 297.322 156.521C293.938 167.785 294.635 179.853 299.294 190.669C303.952 201.485 312.284 210.38 322.87 215.837C333.456 221.295 345.64 222.977 357.347 220.599C369.054 218.22 379.559 211.927 387.073 202.792C394.586 193.657 398.643 182.245 398.552 170.501C398.52 163.832 397.141 157.235 394.496 151.093C391.851 144.951 387.992 139.385 383.142 134.718V134.723Z" fill="#1B3D9E"/>
<path d="M264.314 262.153L255.048 253.378C254.233 252.607 253.771 251.556 253.762 250.456C253.753 249.357 254.199 248.3 255.001 247.516L290.582 212.775C291.384 211.992 292.477 211.548 293.621 211.539C294.764 211.531 295.864 211.959 296.678 212.731L305.945 221.504C306.759 222.275 307.222 223.326 307.231 224.425C307.239 225.525 306.794 226.582 305.992 227.365L270.409 262.108C269.607 262.891 268.514 263.335 267.371 263.344C266.228 263.352 265.129 262.924 264.314 262.153V262.153Z" fill="#1B3D9E"/>
<path d="M347.346 226.593C334.161 226.596 321.381 222.113 311.179 213.907C300.977 205.7 293.982 194.276 291.384 181.577C288.786 168.877 290.745 155.686 296.927 144.244C303.11 132.803 313.134 123.818 325.297 118.816C337.46 113.814 351.011 113.104 363.647 116.807C376.282 120.51 387.223 128.397 394.608 139.128C401.994 149.859 405.369 162.771 404.161 175.67C402.952 188.569 397.233 200.659 387.977 209.884L387.726 209.64L387.977 209.884C382.73 215.132 376.478 219.309 369.582 222.176C362.686 225.043 355.282 226.544 347.794 226.591L347.346 226.593ZM347.37 115.276H346.927C331.915 115.334 317.54 121.24 306.956 131.698C296.372 142.157 290.445 156.313 290.474 171.061C290.503 185.808 296.487 199.941 307.113 210.359C317.738 220.777 332.137 226.628 347.148 226.628C362.16 226.628 376.559 220.777 387.184 210.359C397.809 199.941 403.793 185.808 403.823 171.061C403.852 156.313 397.924 142.157 387.341 131.698C376.757 121.24 362.382 115.334 347.37 115.276Z" fill="#1C056D"/>
<path d="M270.404 260.367L256.832 247.529C256.516 247.23 256.336 246.823 256.332 246.396C256.329 245.97 256.502 245.56 256.813 245.256L257.888 244.208C258.042 244.058 258.226 243.938 258.428 243.856C258.631 243.773 258.848 243.73 259.068 243.729C259.288 243.727 259.506 243.767 259.71 243.846C259.913 243.926 260.099 244.043 260.255 244.191L273.827 257.029C273.984 257.177 274.109 257.353 274.194 257.548C274.28 257.742 274.325 257.951 274.327 258.162C274.328 258.373 274.287 258.582 274.204 258.778C274.121 258.974 273.999 259.152 273.845 259.302L272.771 260.35C272.46 260.654 272.035 260.826 271.591 260.829C271.147 260.832 270.72 260.666 270.404 260.367V260.367Z" fill="#1C056D"/>
<path d="M210.35 48.7039C214.148 46.6756 276.086 36.5144 277.34 43.3936C277.34 43.3936 284.81 81.979 281.064 83.3127C278.708 84.1515 253.133 87.5289 233.798 89.0357C229.773 95.1892 224.78 101.502 223.277 102.319C221.644 103.207 222.569 96.3276 223.798 89.6482C217.356 89.9033 212.823 89.7147 212.139 88.7938C209.427 85.159 206.549 50.7343 210.35 48.7039Z" fill="#C20200"/>
<path d="M267.044 68.0727C268.63 66.994 269.022 64.8616 267.919 63.3097C266.817 61.7579 264.637 61.3744 263.051 62.4531C261.464 63.5318 261.072 65.6642 262.175 67.2161C263.277 68.7679 265.457 69.1514 267.044 68.0727Z" fill="white"/>
<path d="M242.944 66.5084C243.132 67.129 243.504 67.6812 244.012 68.0953C244.521 68.5094 245.143 68.7667 245.801 68.8347C246.459 68.9027 247.123 68.7784 247.709 68.4774C248.294 68.1764 248.776 67.7124 249.092 67.1438C249.408 66.5753 249.545 65.9279 249.485 65.2834C249.425 64.6389 249.171 64.0263 248.755 63.5229C248.339 63.0196 247.78 62.6483 247.148 62.4558C246.516 62.2632 245.841 62.2583 245.206 62.4414C244.355 62.6881 243.639 63.2549 243.215 64.0174C242.791 64.7799 242.694 65.6758 242.944 66.5084V66.5084Z" fill="white"/>
<path d="M223.728 68.6704C223.939 69.3686 224.358 69.9898 224.93 70.4555C225.502 70.9213 226.202 71.2106 226.942 71.2869C227.683 71.3632 228.429 71.2231 229.088 70.8843C229.747 70.5454 230.288 70.0231 230.644 69.3833C230.999 68.7435 231.152 68.015 231.085 67.2899C231.017 66.5648 230.731 65.8757 230.262 65.3096C229.794 64.7436 229.165 64.3261 228.454 64.1099C227.744 63.8937 226.983 63.8885 226.269 64.095C225.795 64.2322 225.354 64.4593 224.97 64.7635C224.585 65.0676 224.266 65.4428 224.03 65.8677C223.794 66.2926 223.646 66.7588 223.594 67.2397C223.542 67.7205 223.588 68.2067 223.728 68.6704V68.6704Z" fill="white"/>
<path d="M155.925 108.019H104.731C103.276 108.019 102.096 109.159 102.096 110.564V130.066C102.096 131.472 103.276 132.611 104.731 132.611H155.925C157.38 132.611 158.56 131.472 158.56 130.066V110.564C158.56 109.159 157.38 108.019 155.925 108.019Z" fill="#D3E8FF"/>
<path d="M105.867 110.669H115.728C115.805 110.669 115.879 110.697 115.933 110.748C115.987 110.798 116.018 110.867 116.018 110.939V112.667C116.018 112.739 115.987 112.808 115.933 112.858C115.879 112.909 115.805 112.938 115.728 112.938H105.867C105.79 112.938 105.716 112.909 105.661 112.858C105.607 112.807 105.576 112.738 105.576 112.666V110.939C105.576 110.903 105.584 110.868 105.598 110.835C105.613 110.802 105.634 110.772 105.661 110.747C105.688 110.722 105.721 110.702 105.756 110.688C105.791 110.675 105.829 110.667 105.867 110.667V110.669Z" fill="white"/>
<path d="M153.379 110.667H118.491C118.193 110.667 117.952 110.893 117.952 111.171V112.434C117.952 112.712 118.193 112.938 118.491 112.938H153.379C153.677 112.938 153.918 112.712 153.918 112.434V111.171C153.918 110.893 153.677 110.667 153.379 110.667Z" fill="#B7C9F7"/>
<path d="M129.496 114.451H106.021C105.775 114.451 105.576 114.636 105.576 114.865V116.307C105.576 116.535 105.775 116.721 106.021 116.721H129.496C129.741 116.721 129.94 116.535 129.94 116.307V114.865C129.94 114.636 129.741 114.451 129.496 114.451Z" fill="white"/>
<path d="M122.601 118.612H105.954C105.745 118.612 105.576 118.768 105.576 118.96V120.535C105.576 120.727 105.745 120.882 105.954 120.882H122.601C122.81 120.882 122.979 120.727 122.979 120.535V118.96C122.979 118.768 122.81 118.612 122.601 118.612Z" fill="#B7C9F7"/>
<path opacity="0.2" d="M141.164 118.612H124.517C124.308 118.612 124.139 118.768 124.139 118.96V120.535C124.139 120.727 124.308 120.882 124.517 120.882H141.164C141.373 120.882 141.542 120.727 141.542 120.535V118.96C141.542 118.768 141.373 118.612 141.164 118.612Z" fill="#6880E4"/>
<path opacity="0.2" d="M153.29 122.396H106.204C105.857 122.396 105.576 122.699 105.576 123.073V124.367C105.576 124.741 105.857 125.044 106.204 125.044H153.29C153.637 125.044 153.918 124.741 153.918 124.367V123.073C153.918 122.699 153.637 122.396 153.29 122.396Z" fill="#6880E4"/>
<path d="M129.496 126.558H106.021C105.775 126.558 105.576 126.743 105.576 126.972V128.414C105.576 128.643 105.775 128.828 106.021 128.828H129.496C129.741 128.828 129.94 128.643 129.94 128.414V126.972C129.94 126.743 129.741 126.558 129.496 126.558Z" fill="white"/>
<path d="M142.43 35H104.691C103.258 35 102.096 36.1346 102.096 37.5343V101.702C102.096 103.101 103.258 104.236 104.691 104.236H142.43C143.863 104.236 145.024 103.101 145.024 101.702V37.5343C145.024 36.1346 143.863 35 142.43 35Z" fill="#D3E8FF"/>
<path d="M141.052 38.7832H106.067C105.796 38.7832 105.576 38.9753 105.576 39.2123V40.6241C105.576 40.8611 105.796 41.0532 106.067 41.0532H141.052C141.323 41.0532 141.543 40.8611 141.543 40.6241V39.2123C141.543 38.9753 141.323 38.7832 141.052 38.7832Z" fill="#B7C9F7"/>
<path d="M141.052 42.5669H106.067C105.796 42.5669 105.576 42.791 105.576 43.0675V44.7147C105.576 44.9911 105.796 45.2153 106.067 45.2153H141.052C141.323 45.2153 141.543 44.9911 141.543 44.7147V43.0675C141.543 42.791 141.323 42.5669 141.052 42.5669Z" fill="#F6F9FF"/>
<path opacity="0.2" d="M129.54 46.7285H105.976C105.755 46.7285 105.576 46.9144 105.576 47.1437V48.9617C105.576 49.191 105.755 49.3769 105.976 49.3769H129.54C129.761 49.3769 129.94 49.191 129.94 48.9617V47.1437C129.94 46.9144 129.761 46.7285 129.54 46.7285Z" fill="#6880E4"/>
<path d="M141.052 50.8901H106.067C105.796 50.8901 105.576 51.0823 105.576 51.3192V52.7311C105.576 52.9681 105.796 53.1602 106.067 53.1602H141.052C141.323 53.1602 141.543 52.9681 141.543 52.7311V51.3192C141.543 51.0823 141.323 50.8901 141.052 50.8901Z" fill="#F6F9FF"/>
<path d="M141.182 54.6733H122.565C122.367 54.6733 122.206 54.8368 122.206 55.0384V56.9566C122.206 57.1583 122.367 57.3217 122.565 57.3217H141.182C141.381 57.3217 141.542 57.1583 141.542 56.9566V55.0384C141.542 54.8368 141.381 54.6733 141.182 54.6733Z" fill="#F6F9FF"/>
<path opacity="0.2" d="M119.96 54.6733H105.888C105.716 54.6733 105.576 54.8171 105.576 54.9945V57.0006C105.576 57.1779 105.716 57.3217 105.888 57.3217H119.96C120.132 57.3217 120.272 57.1779 120.272 57.0006V54.9945C120.272 54.8171 120.132 54.6733 119.96 54.6733Z" fill="#6880E4"/>
<path d="M141.052 58.835H106.067C105.796 58.835 105.576 59.0591 105.576 59.3356V60.9827C105.576 61.2592 105.796 61.4833 106.067 61.4833H141.052C141.323 61.4833 141.543 61.2592 141.543 60.9827V59.3356C141.543 59.0591 141.323 58.835 141.052 58.835Z" fill="#F6F9FF"/>
<path d="M141.052 62.6187H106.067C105.796 62.6187 105.576 62.8428 105.576 63.1193V64.7664C105.576 65.0429 105.796 65.267 106.067 65.267H141.052C141.323 65.267 141.543 65.0429 141.543 64.7664V63.1193C141.543 62.8428 141.323 62.6187 141.052 62.6187Z" fill="#F6F9FF"/>
<path opacity="0.2" d="M141.052 66.7803H106.067C105.796 66.7803 105.576 67.0044 105.576 67.2809V68.928C105.576 69.2045 105.796 69.4286 106.067 69.4286H141.052C141.323 69.4286 141.543 69.2045 141.543 68.928V67.2809C141.543 67.0044 141.323 66.7803 141.052 66.7803Z" fill="#6880E4"/>
<path d="M141.052 70.9424H106.067C105.796 70.9424 105.576 71.1345 105.576 71.3715V72.7833C105.576 73.0203 105.796 73.2124 106.067 73.2124H141.052C141.323 73.2124 141.543 73.0203 141.543 72.7833V71.3715C141.543 71.1345 141.323 70.9424 141.052 70.9424Z" fill="#F6F9FF"/>
<path d="M116.52 75.104H105.848C105.698 75.104 105.576 75.2122 105.576 75.3458V77.1323C105.576 77.2658 105.698 77.374 105.848 77.374H116.52C116.67 77.374 116.791 77.2658 116.791 77.1323V75.3458C116.791 75.2122 116.67 75.104 116.52 75.104Z" fill="#F6F9FF"/>
<path opacity="0.2" d="M133.115 75.104H119.805C119.636 75.104 119.499 75.223 119.499 75.3698V77.1082C119.499 77.255 119.636 77.374 119.805 77.374H133.115C133.284 77.374 133.421 77.255 133.421 77.1082V75.3698C133.421 75.223 133.284 75.104 133.115 75.104Z" fill="#6880E4"/>
<path d="M141.052 78.8872H106.067C105.796 78.8872 105.576 79.1113 105.576 79.3878V81.035C105.576 81.3114 105.796 81.5356 106.067 81.5356H141.052C141.323 81.5356 141.543 81.3114 141.543 81.035V79.3878C141.543 79.1113 141.323 78.8872 141.052 78.8872Z" fill="#F6F9FF"/>
<path d="M136.062 83.0493H106.029C105.779 83.0493 105.576 83.2581 105.576 83.5157V85.2313C105.576 85.4889 105.779 85.6977 106.029 85.6977H136.062C136.312 85.6977 136.515 85.4889 136.515 85.2313V83.5157C136.515 83.2581 136.312 83.0493 136.062 83.0493Z" fill="#B7C9F7"/>
<path d="M141.052 87.2109H106.067C105.796 87.2109 105.576 87.4351 105.576 87.7116V89.3587C105.576 89.6352 105.796 89.8593 106.067 89.8593H141.052C141.323 89.8593 141.543 89.6352 141.543 89.3587V87.7116C141.543 87.4351 141.323 87.2109 141.052 87.2109Z" fill="#F6F9FF"/>
<path opacity="0.2" d="M119.195 90.9941H105.88C105.712 90.9941 105.576 91.1341 105.576 91.3067V93.3299C105.576 93.5026 105.712 93.6425 105.88 93.6425H119.195C119.362 93.6425 119.499 93.5026 119.499 93.3299V91.3067C119.499 91.1341 119.362 90.9941 119.195 90.9941Z" fill="#6880E4"/>
<path d="M141.174 90.9941H121.415C121.211 90.9941 121.046 91.1631 121.046 91.3714V93.2652C121.046 93.4736 121.211 93.6425 121.415 93.6425H141.174C141.378 93.6425 141.543 93.4736 141.543 93.2652V91.3714C141.543 91.1631 141.378 90.9941 141.174 90.9941Z" fill="#B7C9F7"/>
<path d="M141.052 95.1558H106.067C105.796 95.1558 105.576 95.3799 105.576 95.6564V97.3035C105.576 97.58 105.796 97.8041 106.067 97.8041H141.052C141.323 97.8041 141.543 97.58 141.543 97.3035V95.6564C141.543 95.3799 141.323 95.1558 141.052 95.1558Z" fill="#F6F9FF"/>
<path d="M141.052 99.3174H106.067C105.796 99.3174 105.576 99.5095 105.576 99.7465V101.158C105.576 101.395 105.796 101.587 106.067 101.587H141.052C141.323 101.587 141.543 101.395 141.543 101.158V99.7465C141.543 99.5095 141.323 99.3174 141.052 99.3174Z" fill="#F6F9FF"/>
<path d="M290.214 267.174C290.533 266.63 290.84 266.086 291.136 265.541C300.148 248.697 305.275 230.115 306.153 211.111C296.897 219.441 287.586 228.027 279.747 237.653C273.758 245.001 268.618 253.165 265.353 261.987C271.104 241.149 274.124 219.514 273.508 197.958C251.651 227.711 236.947 262.405 230.627 298.55L281.713 297.98C300.503 287.01 315.109 269.316 322.141 249.006C310.447 252.876 299.414 259.063 290.214 267.174Z" fill="#EAF2FC"/>
<path d="M370.489 286.795V294.793C370.489 296.086 355.747 297.134 337.562 297.134C319.378 297.134 304.634 296.086 304.634 294.793V286.795H370.489Z" fill="#E59F39"/>
<path d="M346.66 297.039V286.795H370.489V294.793C370.489 295.857 360.42 296.759 346.66 297.039Z" fill="#EAB054"/>
<path d="M345.555 297.06C342.997 297.105 340.322 297.13 337.567 297.13C333.461 297.13 329.531 297.077 325.906 296.978V286.795H345.555V297.06Z" fill="#EAB054"/>
<path d="M324.582 296.941C312.851 296.582 304.634 295.754 304.634 294.788V286.79H324.582V296.941Z" fill="#EAB054"/>
<path d="M337.561 289.05C355.746 289.05 370.488 288.003 370.488 286.71C370.488 285.418 355.746 284.371 337.561 284.371C319.376 284.371 304.634 285.418 304.634 286.71C304.634 288.003 319.376 289.05 337.561 289.05Z" fill="#E59F39"/>
<path d="M310.451 286.71C310.451 287.607 322.59 288.333 337.565 288.333C352.541 288.333 364.68 287.607 364.68 286.71C364.68 285.814 352.54 285.088 337.565 285.088C322.591 285.088 310.451 285.814 310.451 286.71Z" fill="#F7CC7F"/>
<path d="M376.124 278.335V286.333C376.124 287.625 361.383 288.673 343.198 288.673C325.012 288.673 310.271 287.625 310.271 286.333V278.335H376.124Z" fill="#E59F39"/>
<path d="M352.295 288.579V278.335H376.124V286.333C376.124 287.398 366.055 288.3 352.295 288.579Z" fill="#EAB054"/>
<path d="M351.186 288.601C348.627 288.646 345.951 288.669 343.196 288.669C339.09 288.669 335.16 288.616 331.535 288.519V278.335H351.186V288.601Z" fill="#EAB054"/>
<path d="M330.218 288.481C318.487 288.123 310.271 287.295 310.271 286.328V278.33H330.218V288.481Z" fill="#EAB054"/>
<path d="M343.197 280.59C361.383 280.59 376.124 279.542 376.124 278.25C376.124 276.958 361.383 275.91 343.197 275.91C325.012 275.91 310.271 276.958 310.271 278.25C310.271 279.542 325.012 280.59 343.197 280.59Z" fill="#E59F39"/>
<path d="M343.198 279.873C358.173 279.873 370.313 279.146 370.313 278.251C370.313 277.355 358.173 276.628 343.198 276.628C328.223 276.628 316.083 277.355 316.083 278.251C316.083 279.146 328.223 279.873 343.198 279.873Z" fill="#F7CC7F"/>
<path d="M372.369 269.65V277.648C372.369 278.941 357.628 279.988 339.442 279.988C321.257 279.988 306.516 278.941 306.516 277.648V269.65H372.369Z" fill="#E59F39"/>
<path d="M348.542 279.893V269.648H372.371V277.646C372.371 278.714 362.302 279.615 348.542 279.893Z" fill="#EAB054"/>
<path d="M347.432 279.916C344.875 279.961 342.198 279.985 339.443 279.985C335.337 279.985 331.407 279.932 327.783 279.834V269.65H347.432V279.916Z" fill="#EAB054"/>
<path d="M326.463 279.796C314.732 279.439 306.516 278.61 306.516 277.643V269.646H326.463V279.796Z" fill="#EAB054"/>
<path d="M339.442 271.906C357.627 271.906 372.369 270.859 372.369 269.566C372.369 268.274 357.627 267.227 339.442 267.227C321.257 267.227 306.516 268.274 306.516 269.566C306.516 270.859 321.257 271.906 339.442 271.906Z" fill="#E59F39"/>
<path d="M339.443 271.189C354.418 271.189 366.557 270.462 366.557 269.566C366.557 268.671 354.418 267.944 339.443 267.944C324.468 267.944 312.328 268.671 312.328 269.566C312.328 270.462 324.468 271.189 339.443 271.189Z" fill="#F7CC7F"/>
<path d="M376.124 261.086V269.084C376.124 270.377 361.383 271.425 343.198 271.425C325.012 271.425 310.271 270.377 310.271 269.084V261.086H376.124Z" fill="#E59F39"/>
<path d="M352.295 271.329V261.086H376.124V269.084C376.124 270.152 366.055 271.049 352.295 271.329Z" fill="#EAB054"/>
<path d="M351.186 271.351C348.627 271.396 345.951 271.42 343.196 271.42C339.09 271.42 335.16 271.367 331.535 271.269V261.086H351.186V271.351Z" fill="#EAB054"/>
<path d="M330.218 271.232C318.487 270.873 310.271 270.045 310.271 269.079V261.081H330.218V271.232Z" fill="#EAB054"/>
<path d="M343.197 263.341C361.383 263.341 376.124 262.293 376.124 261.001C376.124 259.709 361.383 258.661 343.197 258.661C325.012 258.661 310.271 259.709 310.271 261.001C310.271 262.293 325.012 263.341 343.197 263.341Z" fill="#E59F39"/>
<path d="M343.198 262.623C358.173 262.623 370.313 261.896 370.313 261.001C370.313 260.105 358.173 259.378 343.198 259.378C328.223 259.378 316.083 260.105 316.083 261.001C316.083 261.896 328.223 262.623 343.198 262.623Z" fill="#F7CC7F"/>
<path d="M351.4 246.252L349.423 253.006C349.103 254.098 336.39 251.494 321.027 247.19C305.664 242.887 293.47 238.513 293.79 237.421L295.768 230.668L351.4 246.252Z" fill="#E59F39"/>
<path d="M328.737 249.266L331.271 240.612L351.401 246.252L349.423 253.006C349.16 253.908 340.427 252.286 328.737 249.266Z" fill="#EAB054"/>
<path d="M327.795 249.023C325.623 248.456 323.356 247.842 321.029 247.19C317.561 246.218 314.254 245.242 311.216 244.303L313.732 235.7L330.332 240.35L327.795 249.023Z" fill="#EAB054"/>
<path d="M310.109 243.96C300.286 240.884 293.55 238.236 293.79 237.421L295.768 230.668L312.619 235.385L310.109 243.96Z" fill="#EAB054"/>
<path d="M295.79 230.597C295.475 231.688 307.664 236.062 323.027 240.365C338.39 244.668 351.102 247.273 351.422 246.181C351.741 245.089 339.548 240.716 324.184 236.411C308.821 232.107 296.109 229.505 295.79 230.597Z" fill="#E59F39"/>
<path d="M300.701 231.971C300.479 232.728 310.556 236.215 323.206 239.764C335.855 243.312 346.291 245.567 346.513 244.81C346.736 244.054 336.658 240.566 324.009 237.018C311.359 233.469 300.923 231.214 300.701 231.971Z" fill="#F7CC7F"/>
<path d="M333.411 199.77L335.517 206.487C335.858 207.573 323.748 212.167 308.469 216.75C293.189 221.332 280.53 224.167 280.189 223.081L278.083 216.365L333.411 199.77Z" fill="#E59F39"/>
<path d="M316.092 214.381L313.394 205.774L333.413 199.77L335.519 206.487C335.8 207.384 327.579 210.679 316.092 214.381Z" fill="#EAB054"/>
<path d="M315.158 214.678C313.021 215.361 310.779 216.055 308.464 216.75C305.015 217.784 301.7 218.73 298.629 219.561L295.946 211.006L312.454 206.054L315.158 214.678Z" fill="#EAB054"/>
<path d="M297.515 219.862C287.565 222.518 280.443 223.892 280.189 223.082L278.083 216.366L294.842 211.341L297.515 219.862Z" fill="#EAB054"/>
<path d="M278.061 216.294C278.402 217.38 291.062 214.544 306.341 209.962C321.62 205.38 333.728 200.785 333.389 199.699C333.051 198.614 320.389 201.448 305.109 206.03C289.829 210.612 277.721 215.208 278.061 216.294Z" fill="#E59F39"/>
<path d="M282.945 214.829C283.18 215.582 293.571 213.133 306.152 209.359C318.733 205.585 328.74 201.916 328.505 201.163C328.269 200.411 317.878 202.859 305.297 206.632C292.717 210.406 282.708 214.073 282.945 214.829Z" fill="#F7CC7F"/>
<path d="M272.785 296.765H330.469V276.233H272.785V296.765Z" fill="#50BFA5"/>
<path d="M272.785 281.867H330.469V279.225H272.785V281.867Z" fill="#96D9C9"/>
<path d="M272.785 287.026H330.469V284.385H272.785V287.026Z" fill="#96D9C9"/>
<path d="M272.785 292.185H330.469V289.543H272.785V292.185Z" fill="#96D9C9"/>
<path d="M272.785 296.766H330.469V294.124H272.785V296.766Z" fill="#96D9C9"/>
<path d="M294.256 296.765H306.253V276.233H294.256V296.765Z" fill="#F7CC7F"/>
<path d="M329.769 296.765H338.48V276.233H329.769V296.765Z" fill="#3C8F7C"/>
<path d="M302.612 44.0537H347.276C348.7 44.0537 349.854 45.8649 349.854 48.0991V57.5852C349.854 59.8194 348.7 61.6306 347.276 61.6306H302.612C301.189 61.6306 300.035 59.8194 300.035 57.5852V48.0991C300.035 45.8649 301.189 44.0537 302.612 44.0537Z" fill="#53A7FF"/>
<path d="M345.638 51.792H304.248" stroke="white" stroke-width="1.23809" stroke-linecap="round" stroke-linejoin="round"/>
<path d="M345.638 49.8115H304.248" stroke="white" stroke-width="1.23809" stroke-linecap="round" stroke-linejoin="round"/>
<path d="M302.613 64.5146H347.276C348.7 64.5146 349.854 65.7987 349.854 67.3828V74.1082C349.854 75.6922 348.7 76.9763 347.276 76.9763H302.613C301.189 76.9763 300.035 75.6922 300.035 74.1082V67.3828C300.035 65.7987 301.189 64.5146 302.613 64.5146Z" fill="#53A7FF"/>
<path d="M302.613 78.8701H347.276C348.7 78.8701 349.854 80.1542 349.854 81.7382V88.4636C349.854 90.0477 348.7 91.3318 347.276 91.3318H302.613C301.189 91.3318 300.035 90.0477 300.035 88.4636V81.7382C300.035 80.1542 301.189 78.8701 302.613 78.8701Z" fill="#53A7FF"/>
<path d="M305.461 53.2646H344.425C345.667 53.2646 346.674 53.914 346.674 54.7151V58.1161C346.674 58.9172 345.667 59.5665 344.425 59.5665H305.461C304.219 59.5665 303.212 58.9172 303.212 58.1161V54.7151C303.212 53.914 304.219 53.2646 305.461 53.2646Z" fill="white"/>
<path d="M305.461 68.6104H344.425C345.667 68.6104 346.674 69.2597 346.674 70.0608V73.4618C346.674 74.2629 345.667 74.9122 344.425 74.9122H305.461C304.219 74.9122 303.212 74.2629 303.212 73.4618V70.0608C303.212 69.2597 304.219 68.6104 305.461 68.6104Z" fill="white"/>
<path d="M313.738 82.3062H336.152C336.867 82.3062 337.446 82.9555 337.446 83.7566V87.1576C337.446 87.9587 336.867 88.608 336.152 88.608H313.738C313.023 88.608 312.444 87.9587 312.444 87.1576V83.7566C312.444 82.9555 313.023 82.3062 313.738 82.3062Z" fill="#002853"/>
<path d="M134.45 231.56C144.109 243.648 156.756 253.426 171.007 259.833" stroke="#2D1D6A" stroke-width="1.74571" stroke-miterlimit="10"/>
<path d="M270.11 226.783C253.482 250.518 227.211 267.592 198.402 273.401" stroke="#2D1D6A" stroke-width="1.74571" stroke-miterlimit="10"/>
<path d="M166.986 224.151H238.801" stroke="#2D1D6A" stroke-width="1.16381" stroke-miterlimit="10"/>
<path d="M166.986 227.09H238.801" stroke="#2D1D6A" stroke-width="1.16381" stroke-miterlimit="10"/>
<path d="M270.063 228.54C262.414 241.338 250.699 251.49 237.693 259.1C224.687 266.71 210.375 271.936 195.94 276.451" stroke="#2D1D6A" stroke-width="1.74571" stroke-linecap="round" stroke-linejoin="round"/>
<path d="M133.992 228.435C144.002 241.525 157.046 252.372 171.863 259.922" stroke="#2D1D6A" stroke-width="1.74571" stroke-linecap="round" stroke-linejoin="round"/>
<path d="M275.944 283.33H126.255C124.933 283.33 123.855 282.276 123.855 280.983C123.855 279.69 124.933 278.636 126.255 278.636H275.944C277.266 278.636 278.343 279.69 278.343 280.983C278.343 282.276 277.266 283.33 275.944 283.33Z" fill="#2D1D6A"/>
<path d="M249.552 293.183H152.643C151.318 293.183 150.243 294.234 150.243 295.53C150.243 296.827 151.318 297.878 152.643 297.878H249.552C250.877 297.878 251.952 296.827 251.952 295.53C251.952 294.234 250.877 293.183 249.552 293.183Z" fill="#2D1D6A"/>
<path d="M149.449 200.322C147.332 198.348 146.789 195.246 148.111 192.689L161.01 167.848C164.357 161.18 168.384 158.616 177.86 156.358L199.355 152.74L227.086 161.553C233.077 163.579 238.587 166.293 244.417 177.155L254.901 198.797C256.46 201.884 255.551 205.622 252.739 207.7L225.298 227.944L201.013 248.449L149.449 200.329V200.322Z" fill="#F59D00" stroke="#2D1D6A" stroke-width="1.74571" stroke-miterlimit="10"/>
<path d="M239.191 228.587H172.519C171.182 228.587 170.089 227.525 170.089 226.21L163.105 194.11C163.105 192.801 164.19 191.732 165.535 191.732H232.207C233.544 191.732 234.637 192.794 234.637 194.11L241.621 226.21C241.621 227.518 240.536 228.587 239.191 228.587V228.587Z" fill="white" stroke="#2D1D6A" stroke-width="1.16381" stroke-miterlimit="10"/>
<path d="M202.358 212.418C203.633 212.418 204.666 211.407 204.666 210.16C204.666 208.913 203.633 207.902 202.358 207.902C201.084 207.902 200.05 208.913 200.05 210.16C200.05 211.407 201.084 212.418 202.358 212.418Z" fill="#2D1D6A"/>
<path d="M213.608 277.395L229.38 278.023L231.78 261.779L213.608 261.869V277.395Z" fill="#FCF2EE" stroke="#2D1D6A" stroke-width="1.74571" stroke-miterlimit="10"/>
<path d="M247.093 259.072L231.78 261.778L229.38 278.023L247.093 281.813V259.072Z" fill="#420E64" stroke="#2D1D6A" stroke-width="1.74571" stroke-miterlimit="10"/>
<path d="M248.384 260.074V280.819C248.384 281.476 247.788 281.977 247.123 281.895C241.384 281.155 236.952 276.311 236.952 270.45C236.952 264.589 241.384 259.745 247.123 259.005C247.788 258.915 248.384 259.424 248.384 260.081V260.074Z" fill="white" stroke="#2D1D6A" stroke-width="1.74571" stroke-miterlimit="10"/>
<path d="M231.78 261.779L224.956 261.958L225.644 278.008L229.38 278.023L231.78 261.779Z" fill="#2D1D6A" stroke="#2D1D6A" stroke-width="1.74571" stroke-miterlimit="10"/>
<path d="M236.457 267.983C236.617 267.961 236.633 268.245 236.48 268.305C236.327 268.364 236.167 268.275 236.029 268.185C233.859 266.772 231.414 265.711 229.381 264.118C226.684 262.01 225.14 259.79 225.507 257.622C225.942 255.073 230.122 255.634 232.254 259.401C233.897 262.287 235.402 265.501 234.913 268.768C234.654 270.502 233.828 272.11 232.85 273.59C232.231 274.532 231.513 275.459 230.512 275.997C229.511 276.535 228.151 276.573 227.302 275.818C226.584 275.182 226.393 274.106 226.638 273.186C226.882 272.267 227.509 271.489 228.204 270.831C229.893 269.254 232.201 268.245 234.539 268.364C236.87 268.484 239.162 269.845 240.11 271.93" stroke="#FCF2EE" stroke-width="1.74571" stroke-miterlimit="10"/>
<path d="M221.722 260.067C221.722 260.067 194.641 236.257 160.545 208.089C152.246 201.234 140.18 203.215 134.464 210.436C128.748 217.658 126.632 228.901 138.155 239.853C176.523 276.311 217.482 279.914 217.482 279.914L221.722 260.059V260.067Z" fill="#5425CD" stroke="#2D1D6A" stroke-width="1.74571" stroke-miterlimit="10"/>
<path d="M223.939 262.056C223.97 262.235 223.572 277.575 223.572 277.575L219.515 277.396L221.731 262.056H223.947H223.939Z" fill="#420E64"/>
<path d="M193.563 278.293L177.791 278.928L175.392 262.684L193.563 262.773V278.293Z" fill="#FCF2EE" stroke="#2D1D6A" stroke-width="1.74571" stroke-miterlimit="10"/>
<path d="M160.086 259.977L175.392 262.683L177.791 278.928L160.086 282.718V259.977Z" fill="#420E64" stroke="#2D1D6A" stroke-width="1.74571" stroke-miterlimit="10"/>
<path d="M158.794 260.971V281.716C158.794 282.374 159.39 282.875 160.055 282.793C165.794 282.052 170.226 277.208 170.226 271.347C170.226 265.487 165.794 260.642 160.055 259.902C159.39 259.813 158.794 260.321 158.794 260.979V260.971Z" fill="white" stroke="#2D1D6A" stroke-width="1.74571" stroke-miterlimit="10"/>
<path d="M175.392 262.684L182.223 262.863L181.528 278.913L177.791 278.928L175.392 262.684Z" fill="#2D1D6A" stroke="#2D1D6A" stroke-width="1.74571" stroke-miterlimit="10"/>
<path d="M170.716 268.888C170.555 268.865 170.54 269.149 170.693 269.209C170.846 269.269 171.006 269.179 171.144 269.09C173.314 267.677 175.759 266.615 177.792 265.03C180.489 262.922 182.033 260.702 181.666 258.534C181.23 255.985 177.051 256.546 174.919 260.313C173.276 263.199 171.77 266.413 172.259 269.68C172.519 271.415 173.344 273.022 174.323 274.502C174.942 275.444 175.66 276.371 176.661 276.909C177.662 277.447 179.022 277.485 179.87 276.73C180.589 276.094 180.78 275.018 180.535 274.098C180.291 273.179 179.664 272.401 178.969 271.743C177.28 270.166 174.972 269.157 172.634 269.277C170.303 269.396 168.011 270.757 167.063 272.842" stroke="white" stroke-width="1.74571" stroke-miterlimit="10"/>
<path d="M186.922 259.342C186.922 259.342 203.343 241.116 248.91 208.089C255.413 203.38 266.989 204.12 272.705 211.341C278.421 218.563 280.538 229.806 269.014 240.757C230.646 277.216 191.53 280.46 191.53 280.46L186.914 259.342H186.922Z" fill="#5425CD" stroke="#2D1D6A" stroke-width="1.74571" stroke-miterlimit="10"/>
<path d="M183.231 262.952C183.201 263.132 183.598 278.471 183.598 278.471L187.656 278.292L185.44 262.952H183.224H183.231Z" fill="#420E64"/>
<path d="M171.446 170.51C175.022 176.714 176.153 184.227 174.556 191.18" stroke="#2D1D6A" stroke-width="1.74571" stroke-miterlimit="10"/>
<path d="M223.571 172.954C221.86 178.837 221.462 185.086 222.425 191.127" stroke="#2D1D6A" stroke-width="1.74571" stroke-miterlimit="10"/>
<path d="M185.749 140.954L185.894 140.935L183.643 126.521L183.498 126.539C179.43 127.144 176.638 130.868 177.256 134.848C177.875 138.827 181.681 141.559 185.749 140.954Z" fill="#F59D00" stroke="#2D1D6A" stroke-width="1.74571" stroke-miterlimit="10"/>
<path d="M200.327 167.476L197.419 167.599C191.255 167.864 186.424 162.476 187.506 156.531L190.762 138.686H205.458L209.322 156.049C210.598 161.758 206.298 167.212 200.337 167.476H200.327Z" fill="white" stroke="#2D1D6A" stroke-width="1.74571" stroke-linecap="round" stroke-linejoin="round"/>
<path d="M203.534 146.209C201.554 149.225 198.926 151.153 195.844 151.125C188.887 151.058 183.989 143.251 183.283 127.504C182.849 117.617 189.225 115.235 196.182 115.302C203.138 115.368 208.269 121.115 208.182 131.001" fill="white"/>
<path d="M203.534 146.209C201.554 149.225 198.926 151.153 195.844 151.125C188.887 151.058 183.989 143.251 183.283 127.504C182.849 117.617 189.225 115.235 196.182 115.302C203.138 115.368 208.269 121.115 208.182 131.001" stroke="#2D1D6A" stroke-width="1.74571" stroke-linecap="round" stroke-linejoin="round"/>
<path d="M207.015 128.137C207.817 131.52 208.667 136.388 208.474 139.857C211.701 139.507 215.585 136.01 217.237 133.278C218.89 130.547 218.551 126.133 216.658 123.562C214.841 121.095 211.121 119.705 208.184 118.704C206.957 118.288 205.614 118.581 204.291 118.704C202.397 118.883 200.078 120.367 201.46 120.991C204.677 122.418 206.136 124.422 207.015 128.137V128.137Z" fill="#2D1D6A"/>
<path d="M171.855 114.611C170.183 111.284 169.884 107.154 171.768 103.94C174.396 99.4505 181.285 98.0706 185.507 101.171C186.937 102.22 188.077 103.685 189.681 104.451C193.13 106.105 197.207 104.016 201.043 104.243C203.593 104.394 206.173 105.764 207.197 108.052C208.531 111.048 207.023 114.829 208.743 117.636C210.019 119.706 212.637 120.538 214.415 122.22C216.25 123.959 217.062 126.672 216.473 129.101C216.308 129.772 216.028 130.453 215.477 130.888C214.598 131.578 213.265 131.426 212.308 130.85C211.342 130.273 210.656 129.366 209.941 128.506C206.927 124.895 202.84 121.852 198.106 121.275C192.666 120.613 188.009 124.848 182.888 124.139C178.396 123.515 173.729 118.345 171.855 114.611V114.611Z" fill="#2D1D6A"/>
<path d="M206.076 132.674C206.076 132.674 214.356 128.288 213.796 135.131C213.419 139.744 204.202 141.19 204.202 141.19" fill="white"/>
<path d="M206.076 132.674C206.076 132.674 214.356 128.288 213.796 135.131C213.419 139.744 204.202 141.19 204.202 141.19" stroke="#2D1D6A" stroke-width="1.74571" stroke-linecap="round" stroke-linejoin="round"/>
<path d="M192.541 129.876C192.347 132.92 192.144 135.972 191.951 139.016C192.734 139.016 193.526 139.035 194.309 139.035" stroke="#2D1D6A" stroke-width="1.74571" stroke-linecap="round" stroke-linejoin="round"/>
<path d="M191.603 143.553C191.98 144.168 192.666 144.585 193.4 144.651C194.125 144.708 194.878 144.405 195.352 143.866" stroke="#2D1D6A" stroke-width="1.74571" stroke-linecap="round" stroke-linejoin="round"/>
<path d="M196.453 131.946C196.878 132.636 197.651 133.109 198.463 133.175C199.284 133.241 200.124 132.901 200.656 132.287" stroke="#2D1D6A" stroke-width="1.74571" stroke-linecap="round" stroke-linejoin="round"/>
<path d="M186.202 132.381C186.656 132.949 187.39 133.28 188.124 133.251C188.859 133.223 189.564 132.835 189.96 132.229" stroke="#2D1D6A" stroke-width="1.74571" stroke-linecap="round" stroke-linejoin="round"/>
<path d="M171.005 98.5617C172.319 96.3972 174.541 94.762 177.063 94.1382C179.575 93.5144 182.338 93.9019 184.57 95.1874C186.367 96.2271 187.778 97.7867 189.497 98.9303C191.865 100.509 195.043 101.851 200.299 99.8472" stroke="#2D1D6A" stroke-width="1.74571" stroke-linecap="round" stroke-linejoin="round"/>
<path d="M210.734 108.344C212.318 110.008 212.212 112.607 213.255 114.63C214.869 117.758 218.927 119.044 220.753 122.059C221.98 124.082 222.009 126.596 221.594 128.902" stroke="#2D1D6A" stroke-width="1.74571" stroke-linecap="round" stroke-linejoin="round"/>
<path d="M190.357 132.853C190.357 136.086 187.671 138.714 184.367 138.714C181.063 138.714 178.377 136.086 178.377 132.853C178.377 129.621 181.063 126.993 184.367 126.993C187.671 126.993 190.357 129.621 190.357 132.853Z" stroke="#F59D00" stroke-width="1.74571" stroke-miterlimit="10"/>
<path d="M207.014 133.146C207.014 136.379 204.328 139.007 201.024 139.007C197.719 139.007 195.033 136.379 195.033 133.146C195.033 129.914 197.719 127.286 201.024 127.286C204.328 127.286 207.014 129.914 207.014 133.146Z" stroke="#F59D00" stroke-width="1.74571" stroke-miterlimit="10"/>
<path d="M190.405 132.656C190.985 132.013 191.903 131.719 192.782 131.776C193.661 131.833 194.482 132.221 195.168 132.76" stroke="#F59D00" stroke-width="1.74571" stroke-miterlimit="10"/>
<path d="M211.111 127.854H211.255C215.371 127.854 218.705 131.124 218.705 135.141C218.705 139.167 215.362 142.428 211.255 142.428H211.111V127.854V127.854Z" fill="#F59D00" stroke="#2D1D6A" stroke-width="1.74571" stroke-miterlimit="10"/>
<path d="M181.304 129.857C181.594 125.282 183.855 120.377 186.55 118.326C189.256 116.275 192.763 115.367 196.183 115.509C200.328 115.679 204.608 117.333 207.603 120.14C210.608 122.948 212.569 128.146 212.569 132.721" stroke="#F59D00" stroke-width="1.74571" stroke-miterlimit="10"/>
<path d="M356.074 114.949C356.074 112.815 354.306 111.085 352.125 111.085H253.606C251.425 111.085 249.657 112.815 249.657 114.949V154.013H356.074V114.949Z" fill="white" stroke="#2D1D6A" stroke-width="1.74571" stroke-linecap="round" stroke-linejoin="round"/>
<path d="M352.117 111.085H253.598C251.417 111.085 249.649 112.815 249.649 114.949V163.675C249.649 165.809 251.417 167.539 253.598 167.539H352.117C354.298 167.539 356.067 165.809 356.067 163.675V114.949C356.067 112.815 354.298 111.085 352.117 111.085Z" stroke="#2D1D6A" stroke-width="1.74571" stroke-linecap="round" stroke-linejoin="round"/>
<path d="M322.591 138.064C322.318 137.928 322.06 137.777 321.815 137.599L320.305 134.851C320.305 134.851 319.795 134.885 319.935 135.685C320.005 136.061 320.138 136.396 320.256 136.642C320.026 136.492 319.753 136.286 319.446 135.999C318.628 135.233 317.398 133.162 316.873 134.221C317.153 135.391 317.342 136.792 317.342 136.792C317.579 137.483 318.614 138.181 319.348 138.495L321.703 139.199C321.703 139.199 322.71 138.563 322.759 138.543L322.584 138.064H322.591Z" fill="white" stroke="#2D1D6A" stroke-width="0.866666" stroke-miterlimit="10"/>
<path d="M342.643 134.256C342.643 134.256 339.086 135.09 336.087 138.536C333.088 141.976 331.942 143.631 331.942 143.631L322.995 137.483L320.773 139.596C320.773 139.596 329.943 147.986 331.816 148.944C333.69 149.901 335.15 148.95 335.15 148.95C335.15 148.95 338.415 147.07 340.896 143.425C343.377 139.781 342.643 134.256 342.643 134.256V134.256Z" fill="#5425CD" stroke="#2D1D6A" stroke-width="0.581905" stroke-miterlimit="10"/>
<path d="M344.889 129.264L342.492 131.301L342.526 132.307L342.596 134.549L345.847 134.837L344.889 129.264Z" fill="white" stroke="#2D1D6A" stroke-width="0.866666" stroke-miterlimit="10"/>
<path d="M344.202 130.844C344.042 131.021 343.86 131.179 343.643 131.315C342.86 131.698 341.966 131.897 341.064 131.828C340.652 131.801 340.274 131.719 340.079 131.555C338.967 129.811 340.54 125.305 340.54 125.305L342.476 124.607L344.824 126.194L345.321 127.978" fill="white"/>
<path d="M344.202 130.844C344.042 131.021 343.86 131.179 343.643 131.315C342.86 131.698 341.966 131.897 341.064 131.828C340.652 131.801 340.274 131.719 340.079 131.555C338.967 129.811 340.54 125.305 340.54 125.305L342.476 124.607L344.824 126.194L345.321 127.978" stroke="#2D1D6A" stroke-width="0.866666" stroke-linecap="round" stroke-linejoin="round"/>
<path d="M344.371 127.903C344.259 127.384 344.385 126.201 343.847 126.262C343.455 126.31 342.113 126.303 341.666 126.283C340.597 126.235 338.702 125.736 338.779 124.143C338.814 123.343 339.639 122.693 340.149 122.508C340.652 122.331 341.205 122.365 341.701 122.556C342.861 123.014 344.385 123.972 345.014 123.876C346.076 123.719 346.719 124.163 347.083 124.963C347.964 126.898 347.3 127.541 346.866 129.038C346.517 130.242 344.888 130.324 344.888 130.324L344.371 127.89V127.903Z" fill="#2D1D6A"/>
<path d="M344.524 129.284C344.734 129.243 345.133 129.011 345.307 128.861C345.727 128.512 345.797 128.013 345.475 127.739C345.23 127.534 344.601 127.602 344.238 127.753" fill="white"/>
<path d="M344.524 129.284C344.734 129.243 345.133 129.011 345.307 128.861C345.727 128.512 345.797 128.013 345.475 127.739C345.23 127.534 344.601 127.602 344.238 127.753" stroke="#2D1D6A" stroke-width="0.866666" stroke-linecap="round" stroke-linejoin="round"/>
<path d="M347.278 134.474C347.278 134.474 342.127 131.712 338.443 137.668C334.76 143.623 331.572 155.535 331.572 155.535L345.181 158.277L347.536 141.189C347.536 141.189 349.263 135.356 347.278 134.467V134.474Z" fill="#5425CD" stroke="#2D1D6A" stroke-width="0.581905" stroke-miterlimit="10"/>
<path d="M347.346 134.693C346.584 134.775 344.676 136.232 343.984 141.169C343.508 144.547 343.515 147.535 343.788 149.948C342.09 149.08 338.203 147.234 338.203 147.234L337.267 150.065C337.267 150.065 345.137 156.205 345.99 156.294C346.025 156.294 346.053 156.294 346.088 156.294C347.066 156.752 347.402 154.714 347.507 154.229C347.975 152.007 348.562 143.295 348.688 138.844C348.821 134.392 347.353 134.693 347.353 134.693H347.346Z" fill="#5425CD" stroke="#2D1D6A" stroke-width="0.581905" stroke-miterlimit="10"/>
<path d="M338.05 147.589L335.618 146.044C335.352 145.873 335.031 145.798 334.716 145.832L334.436 145.859C334.157 145.887 334.017 146.208 334.192 146.42L334.332 146.584C334.423 146.693 334.388 146.857 334.255 146.926L334.073 147.015C333.689 147.206 333.241 147.254 332.822 147.152L332.347 147.035L331.221 146.475C330.998 146.365 330.739 146.557 330.795 146.803L330.942 147.446C330.942 147.446 331.046 147.999 331.368 148.28C331.557 148.444 332.43 148.888 332.948 149.258C333.36 149.558 333.891 149.64 334.381 149.49L336.128 148.827L337.337 149.675L338.05 147.589V147.589Z" fill="white" stroke="#2D1D6A" stroke-width="0.866666" stroke-miterlimit="10"/>
<path d="M253.605 167.538H352.124C354.305 167.538 356.074 165.808 356.074 163.675V154.013H249.656V163.675C249.656 165.808 251.425 167.538 253.605 167.538V167.538Z" fill="white" stroke="#2D1D6A" stroke-width="1.74571" stroke-linecap="round" stroke-linejoin="round"/>
<path d="M347.629 159.381H264.026V160.456H347.629V159.381Z" fill="#5425CD"/>
<path d="M319.978 159.381H264.026V160.456H319.978V159.381Z" fill="#F59D00"/>
<path d="M322.173 160.024C322.173 161.33 321.09 162.383 319.762 162.383C318.434 162.383 317.35 161.323 317.35 160.024C317.35 158.725 318.434 157.665 319.762 157.665C321.09 157.665 322.173 158.725 322.173 160.024Z" fill="#F59D00"/>
<path d="M258.651 161.638C258.35 161.638 258.106 161.398 258.106 161.104V158.745C258.106 158.451 258.35 158.212 258.651 158.212C258.952 158.212 259.196 158.451 259.196 158.745V161.104C259.196 161.398 258.952 161.638 258.651 161.638Z" fill="#F59D00"/>
<path d="M260.839 161.638C260.538 161.638 260.294 161.398 260.294 161.104V158.745C260.294 158.451 260.538 158.212 260.839 158.212C261.139 158.212 261.384 158.451 261.384 158.745V161.104C261.384 161.398 261.139 161.638 260.839 161.638Z" fill="#F59D00"/>
<path d="M260.432 150.831C260.432 151.174 260.145 151.455 259.795 151.455C259.445 151.455 259.157 151.174 259.157 150.831C259.157 150.489 259.445 150.208 259.795 150.208C260.145 150.208 260.432 150.489 260.432 150.831Z" fill="#F59D00"/>
<path d="M270.197 150.831C270.197 151.174 269.909 151.455 269.559 151.455C269.21 151.455 268.922 151.174 268.922 150.831C268.922 150.489 269.21 150.208 269.559 150.208C269.909 150.208 270.197 150.489 270.197 150.831Z" fill="#2D1D6A"/>
<path d="M263.007 121.27H252.155V132.27H263.007V121.27Z" fill="white" stroke="#2D1D6A" stroke-width="1.16381" stroke-miterlimit="10"/>
<path d="M252.449 121.371L262.715 132.157" stroke="#2D1D6A" stroke-width="1.16381" stroke-miterlimit="10"/>
<path d="M262.715 121.371L252.449 132.157" stroke="#2D1D6A" stroke-width="1.16381" stroke-miterlimit="10"/>
<path d="M331.464 117.211H324.358V124.414H331.464V117.211Z" fill="white" stroke="#2D1D6A" stroke-width="1.16381" stroke-miterlimit="10"/>
<path d="M324.55 117.277L331.273 124.34" stroke="#2D1D6A" stroke-width="1.16381" stroke-miterlimit="10"/>
<path d="M331.273 117.277L324.55 124.34" stroke="#2D1D6A" stroke-width="1.16381" stroke-miterlimit="10"/>
<path d="M311.134 120.106H273.487V147.506H311.134V120.106Z" stroke="#2D1D6A" stroke-width="1.74571" stroke-linecap="round" stroke-linejoin="round"/>
<path d="M308.438 124.05H276.169V127.558H308.438V124.05Z" fill="white" stroke="#2D1D6A" stroke-width="1.74571" stroke-miterlimit="10"/>
<path d="M275.835 131.943H294.1" stroke="#2D1D6A" stroke-width="1.74571" stroke-miterlimit="10"/>
<path d="M275.835 136.111H294.1" stroke="#2D1D6A" stroke-width="1.74571" stroke-miterlimit="10"/>
<path d="M275.835 140.272H294.1" stroke="#2D1D6A" stroke-width="1.74571" stroke-miterlimit="10"/>
<path d="M275.835 144.658H294.1" stroke="#2D1D6A" stroke-width="1.74571" stroke-miterlimit="10"/>
<path d="M308.439 131.943H296.339V144.657H308.439V131.943Z" fill="white" stroke="#2D1D6A" stroke-width="1.74571" stroke-miterlimit="10"/>
<path d="M296.337 131.944L308.437 144.658" stroke="#2D1D6A" stroke-width="1.74571" stroke-miterlimit="10"/>
<path d="M308.437 131.944L296.337 144.658" stroke="#2D1D6A" stroke-width="1.74571" stroke-miterlimit="10"/>
<g clip-path="url(#clip0_469_3620)">
<path d="M134.494 143.133H44.5063V199.974H134.494V143.133Z" fill="white" stroke="#2D1D6A" stroke-width="1.23809" stroke-linecap="round" stroke-linejoin="round"/>
<path d="M134.494 193.646H44.5063V199.974H134.494V193.646Z" fill="#2D1D6A" stroke="#2D1D6A" stroke-width="1.23809" stroke-linecap="round" stroke-linejoin="round"/>
<path d="M134.494 195.885H44.5063V197.735H134.494V195.885Z" fill="white" stroke="#2D1D6A" stroke-width="1.23809" stroke-linecap="round" stroke-linejoin="round"/>
<path d="M101.183 171.273C101.183 164.046 95.2476 158.198 87.9352 158.198C80.6228 158.198 74.6878 164.056 74.6878 171.273C74.6878 178.491 80.6228 184.349 87.9352 184.349C95.2476 184.349 101.183 178.491 101.183 171.273Z" fill="#2D1D6A"/>
<path d="M95.6122 171.563L84.0865 164.985V178.131L95.6122 171.563Z" fill="white"/>
</g>
<g style="mix-blend-mode:overlay" opacity="0.25">
<path d="M121.094 244.288C121.086 245.723 120.932 247.154 120.636 248.559H107.22C101.196 244.691 96.2707 239.348 92.9164 233.042C96.5065 236.929 102.643 241.669 108.893 243.121C114.4 244.317 118.462 243.776 121.094 244.288Z" fill="black"/>
</g>
<path d="M152.272 191.22C150.842 196.644 143.905 207.149 137.626 218.409C130.76 230.68 124.639 243.833 127.027 252.189C127.524 253.725 127.817 255.318 127.9 256.929C127.9 260.573 125.154 259.434 122.35 257.385C120.315 255.798 118.402 254.061 116.629 252.189L116.844 236.004C116.844 236.004 107.618 227.562 115.184 209.114C115.671 207.946 116.214 206.736 116.844 205.469C127.27 184.501 142.918 162.494 128.1 156.259C148.525 155.006 155.405 179.889 152.272 191.22Z" fill="#20C3C5"/>
<g style="mix-blend-mode:overlay" opacity="0.53">
<g style="mix-blend-mode:overlay">
<path d="M128.074 156.259C135.569 157.868 139.917 165.341 140.732 172.487C141.132 176.914 139.616 181.227 138.186 185.298C132.737 199.847 124.326 213.199 119.664 228.003C118.677 231.562 117.647 235.562 118.834 239.121C118.881 239.267 118.87 239.424 118.803 239.562C118.737 239.7 118.62 239.807 118.476 239.861C118.328 239.912 118.166 239.903 118.025 239.837C117.883 239.77 117.773 239.651 117.718 239.505C116.474 235.548 117.59 231.505 118.677 227.704C123.554 212.872 132.122 199.633 137.771 185.128C139.202 181.085 140.804 176.843 140.46 172.487C139.731 165.369 135.526 157.924 128.074 156.23V156.259Z" fill="black"/>
</g>
</g>
<path d="M142.891 223.947C136.64 240.36 142.891 252.801 133.494 254.566C129.203 255.392 127.301 252.218 126.514 248.531C125.964 245.42 125.858 242.247 126.199 239.107C127.444 236.217 129.112 233.526 131.148 231.121C134.072 227.406 138.239 224.86 142.891 223.947V223.947Z" fill="#169799"/>
<path d="M121.09 244.288C121.09 248.103 120.188 251.406 118.401 253.043C118.24 253.206 118.068 253.359 117.886 253.498C113.452 257.071 110.62 250.523 110.62 250.523C110.62 250.523 98.8196 244.729 92.9697 232.986C88.4785 223.946 87.4916 211.391 98.0329 195.249C99.5777 206.736 105.914 214.565 112.193 222.01C112.965 222.95 113.738 223.861 114.51 224.772C118.8 230.38 121.113 237.24 121.09 244.288V244.288Z" fill="#B8E3E2"/>
<g style="mix-blend-mode:overlay" opacity="0.53">
<g style="mix-blend-mode:overlay">
<path d="M98.0329 195.249C96.1449 204.985 96.4738 215.875 101.866 224.473C105.742 231.007 112.35 235.633 115.769 242.523C116.905 244.904 117.398 247.539 117.199 250.167C117.184 250.32 117.11 250.46 116.993 250.559C116.875 250.657 116.723 250.706 116.57 250.694C116.493 250.689 116.417 250.668 116.348 250.634C116.279 250.599 116.218 250.551 116.167 250.493C116.117 250.435 116.078 250.367 116.054 250.294C116.03 250.221 116.02 250.144 116.026 250.068C116.856 232.089 90.7526 231.135 98.0472 195.249H98.0329Z" fill="black"/>
</g>
</g>
<g style="mix-blend-mode:overlay" opacity="0.25">
<g style="mix-blend-mode:overlay">
<path d="M142.89 223.947C136.081 232.189 129.373 241.612 127.614 252.289C127.583 252.432 127.498 252.559 127.377 252.643C127.257 252.727 127.108 252.763 126.962 252.743C126.816 252.723 126.683 252.649 126.589 252.536C126.495 252.423 126.447 252.279 126.456 252.132C128.672 241.185 135.652 232.118 142.89 223.947Z" fill="black"/>
</g>
</g>
<path d="M139.03 252.601L135.025 277.071C134.934 277.57 134.669 278.021 134.276 278.344C133.884 278.667 133.389 278.841 132.88 278.837H107.992C107.482 278.839 106.987 278.664 106.593 278.342C106.198 278.019 105.929 277.57 105.833 277.071L102.586 257.142L101.828 252.544C101.771 252.23 101.785 251.907 101.867 251.598C101.95 251.289 102.099 251.001 102.305 250.756C102.511 250.51 102.768 250.313 103.059 250.176C103.349 250.04 103.666 249.969 103.988 249.968H136.885C137.212 249.964 137.536 250.035 137.833 250.173C138.129 250.312 138.39 250.516 138.597 250.769C138.803 251.022 138.949 251.318 139.024 251.636C139.099 251.953 139.101 252.283 139.03 252.601Z" fill="#B8E3E2"/>
<path d="M142.89 257.584H98.035L99.2222 250.922C99.3444 250.252 99.6963 249.644 100.218 249.203C100.739 248.762 101.398 248.514 102.083 248.502H138.77C139.455 248.511 140.116 248.758 140.638 249.2C141.16 249.641 141.511 250.25 141.631 250.922L142.89 257.584Z" fill="#86BFBC"/>
<g style="mix-blend-mode:overlay" opacity="0.25">
<path d="M126.155 239.107C125.814 242.238 125.92 245.401 126.47 248.502H120.591C120.888 247.097 121.041 245.667 121.049 244.231C121.072 237.183 118.76 230.323 114.469 224.715C113.697 223.804 112.925 222.893 112.152 221.954C112.341 217.511 113.345 213.14 115.113 209.057C115.456 214.936 116.915 225.171 122.808 226.253C127.299 227.064 133.135 222.637 137.583 218.352C135.238 222.551 132.978 226.893 131.104 231.064C129.063 233.486 127.395 236.197 126.155 239.107V239.107Z" fill="black"/>
</g>
<g style="mix-blend-mode:overlay" opacity="0.25">
<path d="M122.882 278.836H107.992C107.482 278.839 106.987 278.664 106.592 278.342C106.198 278.019 105.929 277.57 105.833 277.071L102.643 257.583H115.516C114.973 261.497 115.064 265.472 115.787 269.356C116.971 273.242 119.48 276.595 122.882 278.836V278.836Z" fill="black"/>
</g>
<defs>
<clipPath id="clip0_469_3620">
<rect width="91" height="57.8404" fill="white" transform="translate(44 142.633)"/>
</clipPath>
</defs>
</svg>
