<svg width="452" height="334" viewBox="0 0 452 334" fill="none" xmlns="http://www.w3.org/2000/svg">
<rect width="452" height="334" fill="white"/>
<path d="M396.115 116.075C394.632 110.469 392.788 104.966 390.595 99.5981C386.82 90.4293 381.894 81.7318 375.509 74.1841L375.442 74.1062C371.942 69.9545 367.955 66.2396 363.567 63.0416L363.055 62.6748C361.393 61.4906 359.672 60.3925 357.897 59.3847C355.3 57.9088 352.617 56.59 349.863 55.4355C349.853 55.4321 349.843 55.4279 349.834 55.4231C347.095 54.2785 344.286 53.3062 341.426 52.5121C341.288 52.4696 341.146 52.4324 341.01 52.3987C339.227 51.9121 337.427 51.5028 335.609 51.1709C333.275 50.7421 330.958 50.324 328.658 49.9165C328.516 49.8917 328.38 49.8669 328.238 49.8456C324.172 49.1263 320.168 48.4418 316.225 47.7922L315.804 47.7213C311.592 47.0268 307.461 46.3671 303.41 45.7422L302.99 45.6802C299.693 45.1688 296.457 44.6816 293.282 44.2185L291.028 43.8925C285.159 43.0439 279.519 42.2643 274.172 41.5432C271.754 41.2196 269.393 40.906 267.09 40.6024C255.156 39.0397 244.823 37.7676 236.586 36.6656C235.899 36.5734 235.225 36.4778 234.563 36.391C233.718 36.2705 232.898 36.1571 232.103 36.0455L231.269 35.925L230.326 35.7868C230.083 35.7531 229.851 35.7159 229.617 35.6823C228.922 35.5795 228.247 35.475 227.599 35.374L227.041 35.2872C208.794 32.3762 190.054 30.1137 171.546 30.6966C162.906 30.9676 154.251 32.0909 145.991 34.7291C139.095 36.958 132.523 40.0898 126.448 44.0431C115.042 51.4118 105.702 60.9917 98.1999 71.918C92.8262 79.7527 88.3962 88.2748 84.8374 97.169C84.7913 97.2806 84.7506 97.3887 84.7046 97.5021C84.501 98.0336 84.292 98.551 84.092 99.0754C82.2364 103.896 80.6376 108.82 79.2724 113.781C79.26 113.827 79.2477 113.868 79.2353 113.914C78.5979 116.238 78.0136 118.571 77.4824 120.912C76.9742 123.141 76.2784 126.986 75.6162 132.046C73.1232 151.12 71.08 187.484 81.105 219.962C83.5502 227.86 86.7053 235.528 90.7387 242.663C98.276 255.994 108.892 267.452 123.671 275.063C124.183 275.325 124.698 275.583 125.219 275.837C127.372 276.883 129.609 277.848 131.929 278.732C133.303 279.253 134.678 279.765 136.055 280.269C136.586 280.465 137.117 280.657 137.648 280.848C138.81 281.27 139.97 281.681 141.136 282.088C141.71 282.294 142.28 282.489 142.856 282.685C144.187 283.142 145.523 283.591 146.864 284.03C147.001 284.076 147.139 284.122 147.277 284.163C149.449 284.872 151.627 285.552 153.812 286.204C155.273 286.644 156.74 287.07 158.212 287.48C170.321 290.846 182.646 293.689 195.01 296.143C195.555 296.251 196.1 296.36 196.646 296.464C197.931 296.717 199.222 296.964 200.509 297.21C201.961 297.485 203.409 297.756 204.863 298.018C204.925 298.03 204.987 298.037 205.049 298.052C205.111 298.066 205.226 298.083 205.307 298.096C205.819 298.197 206.336 298.292 206.851 298.379C208.342 298.651 209.832 298.915 211.322 299.171C211.648 299.23 211.972 299.288 212.292 299.348L213.109 299.49C215.323 299.869 217.507 300.217 219.66 300.532L220.263 300.619C221.745 300.837 223.21 301.037 224.667 301.219C225.295 301.303 225.924 301.377 226.549 301.453L227.094 301.515C227.252 301.537 227.406 301.553 227.56 301.568C229.508 301.799 231.415 301.994 233.309 302.169C240.199 302.802 246.809 303.115 253.139 303.106H253.826C254.402 303.106 254.972 303.106 255.542 303.09C257.785 303.063 259.994 302.999 262.169 302.897C262.748 302.872 263.322 302.841 263.896 302.807C266.493 302.665 269.042 302.468 271.543 302.215C271.977 302.173 272.409 302.128 272.842 302.082C275.049 301.848 277.221 301.568 279.356 301.257C279.794 301.195 280.231 301.127 280.663 301.062C281.941 300.861 283.204 300.648 284.452 300.424C285.013 300.319 285.576 300.215 286.134 300.107C288.169 299.721 290.171 299.29 292.14 298.828C293.459 298.521 294.762 298.195 296.053 297.858C296.657 297.699 297.257 297.538 297.852 297.375C312.342 293.348 324.83 287.41 335.583 280.233C336.267 279.784 336.946 279.324 337.617 278.851C346.838 272.413 355.184 264.804 362.448 256.215C363.01 255.559 363.58 254.873 364.158 254.158C364.335 253.937 364.512 253.721 364.689 253.501C366.57 251.176 368.354 248.82 370.042 246.432C370.047 246.422 370.054 246.413 370.063 246.407C370.3 246.074 370.538 245.741 370.771 245.402C373.209 241.903 375.458 238.363 377.522 234.814C381.802 227.443 385.523 219.761 388.654 211.833C391.216 205.378 393.415 198.785 395.242 192.085C397.957 182.139 399.359 173.762 399.975 168.259C400.042 167.668 400.105 167.072 400.163 166.471C401.847 149.565 400.476 132.495 396.115 116.075Z" fill="#005AB9"/>
<path d="M400.177 166.464C400.118 167.062 400.055 167.658 399.989 168.252C399.373 173.755 397.971 182.132 395.257 192.078C391.007 207.685 383.518 227.146 370.786 245.395C370.552 245.734 370.315 246.067 370.077 246.4C370.068 246.406 370.061 246.415 370.056 246.425C368.02 249.236 366.047 251.83 364.165 254.151C363.588 254.86 363.018 255.546 362.455 256.208L240.609 254.592L153.814 286.204C151.628 285.559 149.449 284.879 147.279 284.163C147.14 284.122 147.002 284.076 146.866 284.03C145.525 283.593 144.189 283.145 142.857 282.685C142.282 282.489 141.712 282.294 141.138 282.088C139.971 281.684 138.812 281.273 137.65 280.848C137.119 280.657 136.588 280.465 136.057 280.269C134.679 279.765 133.304 279.253 131.931 278.733C129.608 277.849 127.371 276.884 125.221 275.838C124.7 275.582 124.184 275.324 123.673 275.063C108.887 267.445 98.2708 255.994 90.7405 242.663C86.7071 235.528 83.552 227.86 81.1068 219.962L230.198 166.455L400.177 166.464Z" fill="#005AB9"/>
<path d="M370.785 245.395C368.228 249.061 365.455 252.681 362.463 256.203C355.198 264.794 346.849 272.404 337.625 278.844C336.956 279.317 336.278 279.777 335.591 280.226C324.838 287.403 312.35 293.337 297.86 297.368C297.27 297.531 296.67 297.692 296.061 297.851C294.77 298.188 293.467 298.514 292.148 298.821C290.179 299.283 288.177 299.706 286.142 300.1C285.584 300.208 285.021 300.312 284.46 300.417C283.21 300.642 281.947 300.855 280.671 301.055C280.239 301.12 279.802 301.188 279.364 301.25C277.229 301.561 275.057 301.841 272.851 302.075C272.417 302.121 271.985 302.166 271.551 302.208C269.05 302.459 266.501 302.656 263.904 302.8C263.33 302.834 262.756 302.865 262.177 302.89C260 302.992 257.791 303.056 255.55 303.083C254.98 303.083 254.41 303.096 253.835 303.099H253.148C246.812 303.099 240.202 302.787 233.317 302.162C231.423 301.985 229.509 301.792 227.568 301.561C227.414 301.545 227.26 301.53 227.102 301.508L226.557 301.446C225.932 301.37 225.303 301.296 224.675 301.212C223.218 301.035 221.753 300.83 220.271 300.612L219.668 300.525C217.508 300.213 215.324 299.866 213.117 299.483L212.3 299.341C211.98 299.288 211.656 299.23 211.33 299.164C209.842 298.906 208.351 298.642 206.859 298.372C206.344 298.285 205.827 298.195 205.315 298.089C205.229 298.076 205.138 298.06 205.057 298.045C204.975 298.029 204.933 298.023 204.871 298.011C203.417 297.749 201.969 297.479 200.517 297.203C199.23 296.957 197.939 296.71 196.654 296.457C196.108 296.353 195.563 296.244 195.018 296.136C182.647 293.682 170.329 290.846 158.22 287.473C156.75 287.064 155.284 286.639 153.82 286.197C151.634 285.552 149.456 284.872 147.285 284.156C147.147 284.115 147.009 284.069 146.872 284.023C145.661 283.628 144.452 283.224 143.246 282.811L246.306 245.388L370.785 245.395Z" fill="#2B1919"/>
<path d="M274.171 41.5348L263.883 123.416L263.815 123.932L263.794 124.119C263.772 124.268 263.709 124.407 263.613 124.523C263.516 124.638 263.391 124.724 263.249 124.773L250.699 129.001L106.524 179.533L101.43 181.244L85.2315 186.696C85.199 186.706 85.1659 186.715 85.1323 186.721H85.1164C85.0466 186.733 84.9748 186.728 84.9074 186.706C84.84 186.684 84.7791 186.646 84.7301 186.595C84.681 186.544 84.6453 186.481 84.6263 186.413C84.6072 186.344 84.6052 186.272 84.6206 186.203L86.6515 169.492L86.6975 169.097L90.9681 133.974L95.4813 95.2736L98.2027 71.9149C105.705 60.9885 115.044 51.4087 126.45 44.04C132.526 40.0867 139.098 36.9549 145.994 34.7259C154.254 32.0878 162.908 30.9645 171.549 30.6934C190.053 30.1105 208.793 32.3801 227.039 35.2752L227.596 35.362C228.244 35.463 228.916 35.5675 229.615 35.6703C229.849 35.7039 230.081 35.7411 230.323 35.7748L231.267 35.913L232.101 36.0335L234.56 36.379C235.222 36.4658 235.897 36.5561 236.584 36.6536C244.821 37.7627 255.154 39.0277 267.087 40.5904C269.389 40.9022 271.75 41.217 274.171 41.5348Z" fill="white"/>
<path d="M370.853 201.061C369.938 193.521 368.735 186.013 367.243 178.535C366.498 174.818 365.686 171.111 364.808 167.415C363.996 164.034 363.243 160.61 362.109 157.291C361.074 154.259 359.518 151.1 356.56 148.99C354.721 147.675 352.434 146.863 350.012 146.668C349.877 146.657 349.739 146.647 349.599 146.643C348.631 146.606 347.662 146.702 346.731 146.926C342.808 147.889 341.286 151.177 340.777 154.237C340.156 158.003 340.471 161.847 341.029 165.603C343.276 180.743 347.816 195.641 351.929 210.486C353.997 217.96 359.1 240.797 361.169 248.269C361.803 250.552 362.428 252.841 363.069 255.124C364.939 253.22 366.713 251.289 368.389 249.331C368.395 249.323 368.402 249.316 368.41 249.31C368.646 249.037 368.882 248.763 369.114 248.487C369.403 248.143 369.693 247.797 369.979 247.453C370.086 247.322 370.193 247.193 370.302 247.064C372.273 244.659 374.114 242.238 375.826 239.802C375.475 232 371.797 208.835 370.853 201.061Z" fill="#00CAAA"/>
<path d="M370.606 247.192C370.496 247.322 370.387 247.451 370.279 247.582C369.886 246.081 369.498 244.578 369.114 243.074C365.283 228.051 358.983 197.578 356.7 182.341C355.54 174.622 354.466 166.888 352.881 159.218C352.009 154.992 350.928 150.803 349.72 146.635C349.862 146.635 350.001 146.65 350.138 146.66C351.592 151.767 352.881 156.9 353.866 162.093C355.299 169.591 356.313 177.138 357.465 184.666C358.651 192.418 363.147 215.522 364.812 223.205C366.556 231.234 368.527 239.221 370.606 247.192Z" fill="#374234"/>
<path d="M390.313 149.545C388.768 140.431 386.934 131.377 384.813 122.385C383.755 117.911 382.63 113.454 381.439 109.016C380.343 104.959 379.301 100.843 377.885 96.8806C376.593 93.2629 374.769 89.5258 371.624 87.16C369.668 85.6858 367.303 84.8558 364.856 84.785C364.718 84.7813 364.58 84.7793 364.438 84.785C363.463 84.8064 362.499 84.9904 361.584 85.3292C357.728 86.7717 356.474 90.8781 356.218 94.6369C355.91 99.2635 356.547 103.921 357.42 108.453C360.939 126.725 366.74 144.545 372.107 162.33C374.807 171.285 381.836 198.729 384.535 207.68C385.361 210.416 386.18 213.157 387.016 215.894C388.734 213.447 390.353 210.977 391.873 208.484L391.893 208.458C392.107 208.109 391.665 206.442 391.873 206.09C392.136 205.651 393.312 206.09 393.312 206.09L393.312 201.46C395.087 198.399 396.065 190.613 397.582 187.536C396.579 178.033 391.913 158.941 390.313 149.545Z" fill="#00CAAA"/>
<path d="M393.603 205.573L393.309 206.07C392.793 204.271 392.281 202.472 391.774 200.672C386.71 182.673 377.902 146.065 374.359 127.703C372.562 118.398 370.85 109.07 368.632 99.857C367.411 94.7816 365.979 89.7636 364.439 84.7808C364.581 84.7751 364.719 84.7771 364.857 84.7808C366.727 90.8896 368.439 97.0399 369.855 103.285C371.903 112.301 373.544 121.404 375.318 130.476C377.145 139.816 383.539 167.592 385.841 176.82C388.244 186.454 390.87 196.028 393.603 205.573Z" fill="#374234"/>
<path d="M175.708 162.975C171.349 170.647 170.1 179.382 169.605 188.09C165.44 195.147 166.168 203.848 165.745 211.755C165.199 221.768 162.608 231.562 158.131 240.533C156.037 244.725 153.565 248.724 151.679 253.019C149.76 257.383 148.802 261.911 148.436 266.651C148.044 271.704 148.136 276.803 147.313 281.81C147.191 282.559 147.042 283.302 146.863 284.03C147 284.076 147.138 284.122 147.276 284.163C148.204 280.088 148.382 275.853 148.57 271.675C148.795 266.715 149.061 261.708 150.605 256.951C152.124 252.273 154.634 248.012 156.948 243.7C161.456 235.303 164.534 226.31 165.708 216.829C166.333 211.789 166.216 206.73 166.536 201.663C166.809 197.299 167.505 192.904 169.546 189.038C169.433 191.238 169.369 193.435 169.298 195.609C169.289 195.877 169.705 195.877 169.714 195.609C169.787 193.166 169.865 190.694 170.005 188.219C170.205 187.881 170.414 187.542 170.639 187.213C170.789 186.991 170.431 186.784 170.284 187.004C170.207 187.119 170.134 187.236 170.058 187.358C170.577 178.967 171.862 170.583 176.062 163.193C176.084 163.146 176.089 163.093 176.074 163.043C176.06 162.994 176.027 162.951 175.983 162.924C175.939 162.897 175.887 162.887 175.836 162.897C175.785 162.906 175.739 162.934 175.708 162.975V162.975Z" fill="#2B1919"/>
<path d="M213.98 79.2622H209.688V82.5151H213.98V79.2622Z" fill="#2B1919"/>
<path d="M141.428 190.938L140.579 194.56L138.483 203.503L121.521 276.009C121.003 275.804 120.49 275.596 119.98 275.386L136.794 203.503L138.893 194.56L139.808 190.686C139.834 190.573 139.897 190.467 139.989 190.379C140.082 190.291 140.202 190.224 140.336 190.186C140.476 190.145 140.627 190.136 140.773 190.158C140.919 190.181 141.055 190.235 141.167 190.314C141.276 190.389 141.358 190.487 141.404 190.597C141.45 190.707 141.458 190.824 141.428 190.938V190.938Z" fill="#001020"/>
<path d="M213.947 204.296L192.943 296.895C192.407 296.81 191.871 296.721 191.336 296.632L212.338 204.043C212.362 203.926 212.423 203.817 212.515 203.727C212.607 203.636 212.726 203.568 212.86 203.529C212.999 203.489 213.148 203.48 213.292 203.503C213.436 203.526 213.571 203.58 213.683 203.66C213.79 203.738 213.87 203.837 213.917 203.949C213.963 204.06 213.974 204.18 213.947 204.296V204.296Z" fill="#001020"/>
<path d="M225.321 201.706L208.137 292.242C207.606 292.051 207.075 291.859 206.553 291.662L223.685 201.401C223.711 201.26 223.774 201.128 223.867 201.019C223.961 200.91 224.081 200.827 224.216 200.779C224.357 200.729 224.509 200.717 224.656 200.745C224.803 200.773 224.941 200.84 225.053 200.938C225.163 201.03 225.245 201.15 225.292 201.285C225.339 201.42 225.349 201.565 225.321 201.706Z" fill="#001020"/>
<path d="M290.677 182.683L273.24 274.527C272.695 274.422 272.149 274.314 271.604 274.206L289.041 182.375C289.065 182.233 289.127 182.1 289.221 181.99C289.314 181.88 289.435 181.797 289.572 181.749C289.713 181.7 289.864 181.689 290.011 181.717C290.158 181.745 290.295 181.81 290.409 181.907C290.518 182.002 290.6 182.123 290.647 182.259C290.693 182.396 290.704 182.542 290.677 182.683V182.683Z" fill="#E5D0C6"/>
<path d="M227.816 195.65H118.06L229.396 156.443H339.152L227.816 195.65Z" fill="#F7E9E1"/>
<path d="M339.17 167.534L227.818 206.741V195.634L339.17 156.425V167.534Z" fill="#D4B09F"/>
<path d="M227.816 195.649H118.06V206.756H227.816V195.649Z" fill="#E5D0C6"/>
<path d="M206.017 185.101H184.947C184.782 185.102 184.622 185.045 184.496 184.939C184.37 184.833 184.286 184.686 184.259 184.524C184.232 184.361 184.264 184.194 184.348 184.053C184.433 183.912 184.566 183.806 184.722 183.754L228.429 168.801C229.375 168.477 230.369 168.311 231.369 168.312H257.863L211.404 184.206C209.67 184.799 207.85 185.102 206.017 185.101V185.101Z" fill="#CFC0C2"/>
<path d="M235.656 167.952C235.093 167.95 234.533 168.043 234.001 168.226L192.971 182.193C192.842 182.239 192.733 182.329 192.664 182.447C192.594 182.566 192.569 182.705 192.592 182.84C192.615 182.976 192.685 183.098 192.79 183.187C192.894 183.276 193.027 183.325 193.164 183.325H204.577C205.593 183.325 206.601 183.158 207.563 182.831L246.529 169.564L247.753 169.146L251.262 167.952H235.656ZM246.467 169.146L245.244 169.564L207.421 182.443C206.504 182.754 205.542 182.913 204.574 182.912H193.161C193.121 182.915 193.081 182.902 193.051 182.877C193.02 182.852 192.999 182.816 192.994 182.776C192.986 182.736 192.993 182.695 193.013 182.66C193.034 182.625 193.067 182.6 193.106 182.588L234.134 168.623C234.623 168.454 235.138 168.368 235.656 168.37H248.759L246.467 169.146Z" fill="#2B1919"/>
<path d="M238.57 169.156C238.006 169.155 237.446 169.248 236.913 169.432L197.289 182.919L196.065 183.335H197.363L198.587 182.919L237.047 169.827C237.537 169.66 238.052 169.574 238.57 169.574H246.525L247.748 169.156H238.57Z" fill="#2B1919"/>
<path d="M213.079 180.952C213.038 180.814 212.999 180.674 212.961 180.534L197.711 180.551L197.785 180.97L213.079 180.952Z" fill="#2B1919"/>
<path d="M220.26 178.503C220.22 178.365 220.179 178.227 220.142 178.087L204.892 178.105L204.966 178.523L220.26 178.503Z" fill="#2B1919"/>
<path d="M227.26 176.161C227.218 176.023 227.179 175.883 227.14 175.743L211.89 175.76L211.966 176.18L227.26 176.161Z" fill="#2B1919"/>
<path d="M233.608 174.026C233.567 173.888 233.526 173.748 233.489 173.608L218.239 173.626L218.313 174.046L233.608 174.026Z" fill="#2B1919"/>
<path d="M140.088 174.573H135.856V177.828H140.088V174.573Z" fill="#2B1919"/>
<path d="M228.356 287.704C227.681 287.587 227.044 287.433 226.849 286.754C226.798 286.577 226.748 286.4 226.699 286.223C226.153 284.311 225.607 282.4 225.059 280.487C224.893 279.912 224.73 279.332 224.563 278.758C224.413 278.227 224.259 277.695 224.11 277.155L223.756 275.915C223.482 276.334 223.145 276.893 222.754 277.555C222.4 278.168 222.007 278.861 221.575 279.633C220.797 281.026 219.907 282.645 218.965 284.417C216.459 289.091 213.575 294.693 211.33 299.179C211.656 299.238 211.98 299.296 212.3 299.357L213.117 299.498C215.331 299.877 217.515 300.225 219.668 300.54L220.271 300.627C222.136 298.345 223.951 296.153 225.367 294.451C226.865 292.65 230.054 288.935 230.245 288.728C230.017 287.908 229.158 287.837 228.356 287.704Z" fill="#BD6F4A"/>
<path d="M285.442 87.0298C285.385 86.3097 285.172 85.6107 284.817 84.9816V84.9816C284.495 84.4067 284.008 83.9423 283.418 83.6493C282.779 83.3519 282.064 83.2573 281.37 83.3782C280.645 82.2035 279.468 80.8464 278.144 80.7046C277.216 80.6037 276.633 81.5002 275.626 81.1742C274.659 80.8623 273.744 80.4212 272.804 80.0509C271.322 79.4662 269.744 79.0622 268.182 79.5831C267.021 79.9711 266.068 80.7755 265.776 81.9785C263.357 81.5126 260.399 81.1547 258.772 83.4402C258.488 83.8314 258.292 84.2792 258.196 84.7531C258.067 85.4494 258.373 85.639 257.693 85.9402C256.302 86.5656 254.896 87.0688 253.71 88.0663C252.737 88.8556 252.036 89.9309 251.707 91.1402C251.579 91.6976 251.545 92.2725 251.606 92.8411C251.636 93.215 251.723 93.1441 251.445 93.323C251.167 93.502 250.56 93.5604 250.241 93.6774C247.744 94.5977 245.709 96.4636 244.575 98.8721C244.044 100.047 243.69 101.501 244.276 102.729C244.474 103.165 244.788 103.537 245.184 103.804C245.58 104.072 246.042 104.225 246.519 104.246C244.876 105.983 243.806 108.183 243.451 110.548C243.327 111.444 243.143 112.536 243.993 113.131C244.843 113.726 245.866 113.415 246.732 112.954C245.999 115.108 245.857 118.377 248.192 119.44C250.774 120.619 253.162 118.5 255.215 117.137C255.192 117.555 255.291 117.971 255.5 118.334C255.709 118.697 256.019 118.992 256.392 119.182C256.532 119.254 256.679 119.313 256.829 119.359C257.13 119.453 257.444 119.499 257.759 119.497V119.497C257.83 119.497 257.901 119.497 257.971 119.497C258.433 119.464 258.89 119.38 259.333 119.245C259.767 119.121 260.186 118.964 260.572 118.813C263.03 117.845 265.235 116.33 267.021 114.384C267.521 114.88 268.19 115.169 268.894 115.192C270.456 115.25 271.821 114.168 272.924 113.188C274.212 112.052 275.333 110.739 276.254 109.29C276.366 109.113 276.47 108.936 276.57 108.758C276.747 108.454 276.924 108.145 277.074 107.834C277.563 106.863 277.954 105.846 278.239 104.797C278.714 103.043 278.905 101.227 279.096 99.4285C279.201 98.4522 279.302 97.4796 279.45 96.4945C279.45 96.475 279.45 96.4573 279.45 96.4378C279.47 96.2907 279.487 96.1614 279.503 96.0462C279.516 95.8195 279.577 95.5981 279.681 95.3963C279.785 95.1946 279.93 95.017 280.107 94.8751C280.56 94.4747 280.918 94.3542 281.432 94.0796C282.629 93.4293 283.633 92.4732 284.341 91.3086C285.155 90.0366 285.541 88.5371 285.442 87.0298Z" fill="#2B1919"/>
<path d="M275.054 286.703C274.222 284.513 273.655 282.983 273.567 282.713L271.182 282.146L269.089 281.647C268.912 281.606 268.735 281.563 268.558 281.517C266.385 281.005 264.211 280.484 262.038 279.969L261.006 279.723L259.388 279.335L258.125 279.035C258.359 279.482 258.68 280.047 259.066 280.715C259.42 281.322 259.833 282.003 260.305 282.759C261.134 284.118 262.116 285.692 263.191 287.366C264.988 290.201 267.037 293.344 269.009 296.326C270.358 298.367 271.677 300.33 272.857 302.063C275.063 301.829 277.235 301.549 279.371 301.237C279.808 301.175 280.245 301.108 280.677 301.042C278.77 296.366 276.511 290.532 275.054 286.703Z" fill="#BD6F4A"/>
<path d="M250.263 137.414L246.646 138.111C245.86 138.261 246.908 133.6 246.375 134.349C246.184 134.62 245.817 135.437 245.401 136.449C244.535 138.539 243.454 141.468 243.216 142.118C242.744 143.472 242.267 144.824 241.784 146.176C241.183 147.88 240.581 149.584 239.978 151.287L239.902 151.5C238.89 154.362 237.88 157.222 236.872 160.08C236.839 160.047 236.805 160.022 236.771 159.988C236.594 159.811 236.318 160.109 236.502 160.284C236.577 160.355 236.656 160.417 236.731 160.488C236.554 161.002 236.364 161.514 236.185 162.029C236.093 162.279 236.463 162.384 236.552 162.137C236.713 161.68 236.876 161.221 237.033 160.764C238.252 161.816 239.626 162.673 241.106 163.305C241.247 163.367 241.394 163.425 241.54 163.482C243.292 164.162 245.16 164.495 247.039 164.462C247.081 164.459 247.122 164.443 247.154 164.415C247.186 164.387 247.208 164.349 247.216 164.308C247.579 162.004 247.779 160.022 247.924 158.151C247.937 157.993 247.949 157.839 247.961 157.685C248.139 155.29 248.25 153.032 248.532 150.391C248.939 146.723 249.576 143.085 250.439 139.498C250.456 139.415 250.477 139.321 250.497 139.243C250.538 139.103 250.371 137.395 250.263 137.414Z" fill="#BD6F4A"/>
<path d="M295.632 134.716C295.565 134.599 295.003 133.449 294.184 131.775C294.154 131.72 294.129 131.667 294.104 131.612C293.984 131.368 293.858 131.109 293.725 130.841C293.638 130.664 293.548 130.487 293.463 130.292C293.286 129.938 293.088 129.518 292.868 129.052C292.861 129.044 292.856 129.034 292.856 129.023C291.37 125.944 288.946 120.838 286.891 116.472C286.506 115.668 286.142 114.89 285.791 114.157C284.962 112.385 284.247 110.879 283.76 109.846C283.656 109.625 283.564 109.428 283.48 109.254C283.418 109.116 283.36 108.996 283.303 108.891C283.224 108.725 283.162 108.595 283.126 108.512C283.068 108.388 283.025 108.308 283.013 108.271C282.122 108.95 281.237 109.643 280.357 110.349C279.784 110.808 279.217 111.274 278.65 111.745C278.296 112.048 277.926 112.353 277.565 112.661C276.782 113.324 276.009 114.003 275.242 114.685C274.617 115.239 274.003 115.806 273.385 116.377C272.993 116.743 272.352 117.206 271.917 117.764C271.591 118.172 271.386 118.627 271.471 119.134C271.492 119.242 271.804 120.019 272.269 121.134C272.512 121.717 273.069 122.984 273.769 124.557C274.955 127.239 276.561 130.822 277.747 133.46C277.852 133.689 277.953 133.908 278.048 134.121C278.564 135.276 278.976 136.187 279.196 136.667C279.373 137.046 279.534 137.391 279.675 137.687L279.808 137.971C279.941 138.269 280.098 138.556 280.279 138.828C280.385 138.937 280.518 139.015 280.665 139.053C280.957 139.115 281.466 138.908 281.749 138.85C281.827 138.837 282.16 138.736 282.68 138.579C285.311 137.771 292.659 135.434 295.264 134.946L295.71 134.872C295.687 134.824 295.664 134.769 295.632 134.716Z" fill="#BD6F4A"/>
<path d="M287.327 101.028C287.381 101.878 287.417 102.743 287.419 103.613C287.419 103.737 287.419 103.868 287.419 103.994C287.419 104.703 287.399 105.411 287.358 106.12C287.344 106.409 287.323 106.699 287.3 106.995C287.261 107.445 287.217 107.895 287.162 108.338C287.093 108.93 287.004 109.52 286.893 110.11C286.868 110.245 286.843 110.385 286.811 110.521C286.638 111.42 286.408 112.308 286.124 113.179C286.036 113.467 285.937 113.756 285.832 114.038C285.363 115.343 284.729 116.584 283.947 117.729C283.847 117.868 283.752 118.007 283.646 118.141C283.444 118.414 283.233 118.673 283.013 118.924C281.654 120.469 279.941 121.564 278.139 122.514C276.217 123.532 274.229 124.42 272.188 125.172C272.011 125.241 271.811 125.31 271.616 125.381C269.746 126.072 267.721 126.823 265.741 126.88C262.245 126.975 259.39 124.369 258.252 121.222C257.781 119.828 257.498 118.377 257.411 116.908C257.411 116.828 257.397 116.749 257.393 116.669C257.383 116.556 257.372 116.448 257.367 116.338C257.367 116.283 257.367 116.223 257.356 116.161C257.339 115.898 257.325 115.634 257.314 115.369C257.211 113.079 257.17 110.778 257.161 108.482C257.161 107.626 257.161 106.767 257.174 105.915C257.174 105.62 257.184 105.328 257.191 105.041C257.214 104.086 257.248 103.135 257.298 102.18C257.315 101.889 257.331 101.595 257.354 101.304C257.516 98.5495 257.861 95.8084 258.386 93.0995C258.564 92.1764 258.741 91.2232 259.114 90.3515C259.203 90.1392 259.303 89.9316 259.413 89.7296C259.925 88.882 260.6 88.1443 261.398 87.5592C263.17 86.178 265.252 85.2526 267.464 84.8644C267.482 84.8587 267.501 84.8567 267.52 84.8584C267.538 84.8602 267.557 84.8657 267.573 84.8746C267.59 84.8835 267.604 84.8957 267.616 84.9104C267.628 84.9251 267.636 84.9419 267.641 84.96C269.235 84.1273 271.099 84.2407 272.818 84.6234C276.595 85.4721 280.609 86.8275 283.222 89.8129C285.924 92.9134 287.07 97.0008 287.327 101.028Z" fill="#BD6F4A"/>
<path d="M259.787 105.105C259.887 106.261 260.427 107.16 260.994 107.11C261.561 107.061 261.941 106.084 261.84 104.927C261.739 103.77 261.199 102.874 260.633 102.922C260.066 102.97 259.687 103.955 259.787 105.105Z" fill="#2B1919"/>
<path d="M335.421 203.288C335.014 201.759 333.557 197.388 331.579 191.625C331.492 191.38 331.402 191.134 331.322 190.879C330.251 187.773 329.04 184.286 327.767 180.642C327.434 179.687 327.096 178.721 326.76 177.75C326.71 177.621 326.664 177.488 326.618 177.358C326.5 177.025 326.382 176.692 326.264 176.359C325.934 175.417 325.602 174.472 325.272 173.524C322.453 165.514 319.578 157.401 317.388 151.239C315.361 145.536 313.921 141.512 313.67 140.813C311.173 133.94 310.157 133.419 308.379 132.244C307.519 131.677 305.486 131.086 303.067 130.561L302.596 130.462C299.382 129.794 296.13 129.321 292.858 129.045C292.138 128.984 291.415 128.966 290.693 128.993C286.985 129.232 283.483 130.577 280.358 132.537C279.567 133.033 278.796 133.57 278.056 134.131C277.142 134.834 276.265 135.584 275.429 136.378C275.234 136.566 275.53 136.858 275.724 136.674C275.829 136.575 275.937 136.479 276.041 136.383C275.722 138.009 276.009 139.695 276.849 141.123C276.849 141.123 276.849 141.123 276.849 141.135C277.003 141.394 277.177 141.64 277.369 141.872C277.465 141.989 277.564 142.106 277.669 142.214V142.223C278.396 142.985 279.305 143.543 280.177 144.135C281.332 144.912 282.443 145.753 283.504 146.654C287.46 150.02 290.735 154.081 293.829 158.225C296.854 162.283 299.732 166.457 302.991 170.335C303.439 170.867 303.901 171.398 304.369 171.917C307.765 175.691 311.582 179.042 315.554 182.206C316.653 183.092 317.763 183.948 318.875 184.81C319.842 185.556 320.906 186.717 322.106 187.055C322.116 187.062 322.127 187.066 322.138 187.068C324.628 187.746 323.78 183.972 323.608 182.714C323.436 181.457 323.888 181.802 324.695 183.09C326.032 185.216 328.358 189.966 330.518 194.399C330.614 194.603 330.713 194.803 330.811 195.003C333.353 200.235 335.591 204.842 335.55 203.921C335.529 203.706 335.486 203.494 335.421 203.288V203.288Z" fill="#D9AFF4"/>
<path d="M258.937 109.956C258.987 108.399 259.15 106.071 258.078 104.767C258.162 104.675 258.241 104.579 258.321 104.492C258.525 104.246 258.121 103.961 257.917 104.209L257.73 104.421C257.538 104.329 257.351 104.57 257.434 104.776L257.197 105.05C256.572 105.759 255.957 106.487 255.345 107.221C254.782 107.896 254.211 108.638 254.049 109.524C253.657 111.599 255.653 111.99 257.209 112.432C257.687 112.566 258.257 112.862 258.626 112.449C259.061 111.997 258.919 110.545 258.937 109.956Z" fill="#BD6F4A"/>
<path d="M346.613 240.952C346.55 240.437 346.352 239.948 346.039 239.535C345.851 239.31 345.635 239.076 345.398 238.839C344.669 238.102 342.259 236.358 340.389 235.09C339.661 234.578 338.907 234.105 338.13 233.672C337.776 233.509 337.4 233.355 337.034 233.213C336.519 233.001 335.995 232.809 335.465 232.63C332.164 231.535 328.726 230.907 325.251 230.765C321.295 230.565 317.283 230.898 313.37 231.569C312.775 231.668 312.179 231.776 311.6 231.897C309.516 232.31 307.476 232.809 305.489 233.376C302.463 234.234 299.504 235.314 296.636 236.608C294.88 237.404 293.166 238.291 291.502 239.266C290.469 239.866 289.458 240.506 288.471 241.181C285.928 242.923 283.679 244.956 281.374 246.992C280.464 247.818 279.497 248.578 278.481 249.267C277.086 250.18 275.567 250.862 273.877 250.991C273.849 250.771 273.812 250.55 273.762 250.328C273.699 250.066 273.3 250.18 273.359 250.442C273.403 250.633 273.437 250.824 273.467 251.016C273.32 251.016 273.175 251.016 273.026 251.016C272.974 251.021 272.926 251.045 272.891 251.083C272.856 251.122 272.836 251.172 272.836 251.224C272.836 251.276 272.856 251.326 272.891 251.365C272.926 251.403 272.974 251.427 273.026 251.432C273.187 251.432 273.353 251.432 273.516 251.432C273.516 251.494 273.529 251.562 273.529 251.624C273.654 253.34 273.275 255.073 273.258 256.788C273.232 257.576 273.323 258.364 273.529 259.125C274.161 261.35 275.905 262.291 278.049 262.474C278.169 262.486 278.291 262.495 278.415 262.499C280.772 262.612 293.465 263.294 304.183 263.237C304.744 263.237 305.302 263.237 305.852 263.22C309.769 263.17 313.315 263.003 315.86 262.658C318.531 262.295 334.741 256.868 341.954 253.002C342.733 252.586 343.403 252.191 343.944 251.827C344.801 251.248 345.331 250.754 345.414 250.369C345.846 248.383 347.078 243.647 346.613 240.952Z" fill="#A53D35"/>
<path d="M264.216 98.1555C262.799 96.8852 259.881 97.1598 258.987 98.3717C257.988 99.7377 259.123 101.001 260.519 100.996C261.11 100.996 261.689 100.912 262.289 100.996C262.788 101.066 263.297 101.27 263.799 101.233C264.403 101.187 264.862 100.702 264.986 100.05C265.131 99.3249 264.71 98.6002 264.216 98.1555Z" fill="#2B1919"/>
<path d="M261.552 115.211C261.106 116.127 260.33 116.564 259.357 116.791C258.835 116.937 258.294 117.002 257.752 116.986C257.637 116.976 257.524 116.953 257.414 116.917C257.414 116.837 257.4 116.758 257.397 116.678C257.386 116.564 257.375 116.456 257.37 116.347C257.597 116.429 257.837 116.474 258.078 116.479C259.183 116.469 260.557 116.114 261.088 115.044C261.225 114.763 261.692 114.924 261.552 115.211Z" fill="#995231"/>
<path d="M311.866 211.305C309.415 210.997 306.963 210.687 304.511 210.376C304.573 208.014 304.636 205.652 304.702 203.289C304.698 203.238 304.674 203.189 304.635 203.154C304.597 203.119 304.546 203.1 304.494 203.1C304.442 203.1 304.392 203.119 304.354 203.154C304.315 203.189 304.291 203.238 304.286 203.289C304.223 205.632 304.16 207.974 304.099 210.316C297.059 209.43 288.863 208.509 281.561 208.013C280.771 207.954 279.992 207.91 279.227 207.864C275.892 207.676 273.149 207.426 270.768 207.333C266.41 207.155 263.262 207.533 259.937 209.792C258.985 210.443 258.09 211.173 257.26 211.975C254.046 215.018 251.47 218.851 248.83 222.403C248.747 222.52 248.664 222.633 248.577 222.757C246.241 225.893 243.946 229.058 241.691 232.25C241.1 233.083 240.517 233.916 239.935 234.754C239.219 235.782 238.508 236.813 237.799 237.847C235.245 241.589 232.747 245.369 230.306 249.187C228.143 252.56 226.026 255.964 223.955 259.399C219.063 267.514 213.224 275.915 206.77 287.162C208.224 287.437 209.672 287.708 211.126 287.97L211.312 288.004C211.4 288.02 211.489 288.037 211.57 288.05C212.082 288.149 212.599 288.245 213.114 288.333C214.605 288.603 216.095 288.866 217.585 289.124C217.91 289.182 218.235 289.24 218.555 289.301L219.371 289.442C221.587 289.822 223.771 290.168 225.922 290.482L226.526 290.571C227.195 290.667 227.858 290.762 228.52 290.855C229.327 290.963 230.131 291.071 230.93 291.17C231.558 291.253 232.187 291.329 232.812 291.404L233.357 291.466C233.515 291.487 233.669 291.503 233.823 291.521C234.354 291.583 234.885 291.645 235.416 291.698C236.811 291.851 238.194 291.99 239.563 292.114C240.207 291.315 240.802 290.477 241.42 289.74C243.06 287.758 257.001 272.416 258.274 271.068C259.547 269.719 260.893 268.359 262.253 267.017C262.843 266.435 263.433 265.856 264.023 265.281C264.131 265.173 264.245 265.065 264.356 264.957L264.461 264.856C264.815 264.502 265.181 264.161 265.548 263.814C266.634 262.782 267.736 261.755 268.854 260.733C269.31 260.308 269.772 259.886 270.238 259.466C271.23 258.566 272.229 257.669 273.236 256.775C275.555 254.718 277.907 252.672 280.258 250.652C281.058 249.961 281.858 249.275 282.657 248.595C286.473 245.324 290.27 242.105 293.932 238.926C294.837 238.147 295.73 237.369 296.609 236.593C297.671 235.655 298.721 234.723 299.757 233.795C300.997 232.674 302.275 231.492 303.082 230.02C303.328 229.578 303.525 229.11 303.67 228.625C304.306 226.467 304.182 224.038 304.201 221.769C304.201 221.482 304.201 221.198 304.201 220.918C304.267 218.466 304.334 216.015 304.401 213.564L304.476 210.772C306.927 211.092 309.382 211.408 311.84 211.721C312.13 211.755 312.13 211.339 311.866 211.305Z" fill="#FF6D6C"/>
<path d="M273.965 104.392C274.803 105.025 275.58 105.927 275.72 107.002C275.755 107.263 275.755 107.528 275.72 107.789C275.831 107.887 275.932 107.996 276.021 108.115C280.083 113.506 288.611 107.888 292.935 104.926C293.017 104.626 293.095 104.339 293.146 104.079C293.537 102.111 293.678 100.101 293.565 98.0973C293.367 94.4776 292.369 90.7959 289.688 88.2092C287.276 85.8847 284.022 84.3893 280.794 83.5902C273.595 81.8043 265.663 83.4379 259.985 88.2712C259.831 88.4005 259.935 88.8187 259.951 88.8771C260.374 90.9625 261.098 93.3065 263.02 94.5113C263.111 94.5675 263.206 94.6189 263.303 94.6654C263.983 95.0854 264.799 95.259 265.605 95.4751C266.41 95.6913 267.473 96.0067 267.874 96.8234C268.342 97.7642 267.6 98.9708 267.632 99.9807C267.712 102.576 269.973 102.886 272.002 103.508C272.701 103.69 273.365 103.989 273.965 104.392V104.392Z" fill="#2B1919"/>
<path d="M276.209 104.017C276.034 103.59 275.742 103.222 275.368 102.954C274.483 102.333 273.374 102.587 272.459 103.17C272.433 103.181 272.409 103.197 272.388 103.216C272.251 103.304 272.12 103.402 271.997 103.508C271.569 103.838 271.215 104.253 270.956 104.727C270.945 104.744 270.938 104.762 270.935 104.781C270.932 104.801 270.934 104.82 270.939 104.839C270.944 104.858 270.953 104.876 270.965 104.891C270.978 104.906 270.993 104.918 271.011 104.927C270.465 106.327 269.47 109.034 271.326 109.668C271.669 109.781 272.028 109.835 272.388 109.83C272.769 109.827 273.146 109.767 273.509 109.652C273.783 109.566 274.048 109.452 274.299 109.311C274.825 109.028 275.287 108.639 275.657 108.17C275.724 108.086 275.782 108.003 275.834 107.92C275.885 107.836 275.926 107.773 275.968 107.698C276.526 106.687 276.708 105.158 276.209 104.017Z" fill="#BD6F4A"/>
<path d="M306.788 255.704C306.73 255.857 306.673 256.01 306.612 256.161C306.227 257.182 305.826 258.231 305.186 259.976C305.065 260.292 304.942 260.636 304.804 261.005L304.734 261.192L290.589 300.07C289.997 300.172 289.403 300.275 288.803 300.376L302.948 261.593L303.394 260.377L304.994 256.03C305.522 255.917 306.062 255.813 306.603 255.729L306.788 255.704Z" fill="#A53D35"/>
<path d="M345.078 248.162L343.862 251.034L343.41 252.1L330.298 283.364C329.626 283.626 328.945 283.882 328.253 284.132L341.541 252.46L341.989 251.394L343.196 248.538C343.825 248.413 344.452 248.287 345.078 248.162Z" fill="#A53D35"/>
<path d="M266.176 255.124L265.091 258.017L264.966 258.348L264.674 259.12L264.516 259.538L264.454 259.707L261.525 267.497L261.192 268.38L260.482 270.271L258.769 274.821L258.157 276.453L248.17 303.265C247.598 303.265 247.027 303.273 246.451 303.276L257.065 274.798L257.676 273.177L259.248 268.993L259.571 268.134L260.42 265.869L262.455 260.463L262.652 259.939L263.097 258.744L263.274 258.266L263.34 258.089L263.716 257.096L264.299 255.539C264.927 255.409 265.553 255.271 266.176 255.124Z" fill="#A53D35"/>
<path d="M339.706 228.136C339.604 227.803 339.496 227.468 339.389 227.139C339.076 226.193 338.741 225.259 338.396 224.332C338.334 224.178 338.276 224.024 338.219 223.87C338.212 223.857 338.207 223.844 338.203 223.831C338.153 223.707 338.104 223.586 338.058 223.464C337.992 223.287 337.927 223.11 337.856 222.943C337.837 222.885 337.812 222.83 337.791 222.766C337.629 222.353 337.468 221.94 337.3 221.526C337.192 221.251 337.084 220.98 336.972 220.705C336.919 220.576 336.87 220.447 336.817 220.317C336.3 219.039 335.778 217.764 335.251 216.492C335.159 216.271 335.074 216.049 334.979 215.828L334.657 215.039C334.318 214.214 333.984 213.388 333.646 212.559C333.479 212.15 333.311 211.74 333.144 211.333C332.843 210.598 332.601 209.623 331.795 209.287C331.507 209.175 331.195 209.14 330.889 209.184C330.313 209.256 329.722 209.538 329.205 209.758C329.067 209.82 328.938 209.873 328.812 209.923C328.362 210.1 327.907 210.265 327.45 210.426C327.3 210.479 327.146 210.537 326.986 210.587C326.737 210.674 326.491 210.764 326.241 210.839C325.699 211.016 325.157 211.182 324.616 211.336C322.416 211.969 320.175 212.446 317.909 212.764C317.33 212.85 316.751 212.919 316.168 212.979C315.851 213.016 315.531 213.044 315.21 213.073C313.803 213.191 312.392 213.247 310.977 213.241C309.495 213.241 307.988 213.039 306.51 213.138C305.832 213.184 305.168 213.35 304.548 213.627C304.135 213.811 303.733 214.018 303.344 214.249L303.209 214.324C302.892 214.423 302.575 214.513 302.255 214.591C302.147 214.619 302.043 214.648 301.935 214.673L301.811 214.706C301.602 214.759 301.398 214.806 301.189 214.853C301.135 214.842 301.082 214.825 301.032 214.804C300.901 214.738 300.781 214.652 300.677 214.549C300.233 214.109 299.944 213.339 300.633 213.028C300.879 212.92 300.667 212.561 300.426 212.674C299.633 213.028 299.705 213.863 300.111 214.494C300.232 214.683 300.382 214.853 300.555 214.995C298.71 215.372 296.828 215.594 294.953 215.822C292.984 216.059 291.012 216.274 289.036 216.469C287.891 216.587 286.743 216.7 285.592 216.808C281.769 217.162 266.585 219.43 254.694 221.349C253.203 221.59 251.762 221.827 250.4 222.057C249.891 222.139 249.396 222.22 248.913 222.302C244.132 223.103 240.604 223.749 239.775 224.02C237.416 224.788 235.062 225.705 232.992 227.093C229.897 229.174 228.05 232.254 227.43 235.723C227.203 237.014 227.139 238.329 227.239 239.637C227.322 240.829 228.493 244.277 230.301 249.011C231.2 251.373 232.248 254.053 233.422 256.932C233.665 257.537 233.913 258.153 234.164 258.775C234.808 260.357 235.475 261.979 236.163 263.644C237.183 266.112 238.245 268.652 239.315 271.202C240.127 273.137 246.397 286.862 247.785 290.029H248.472C249.047 290.029 249.618 290.029 250.188 290.018C251.944 290.004 253.68 289.965 255.395 289.901C255.54 289.901 255.687 289.901 255.832 289.887C256.162 289.874 256.486 289.864 256.815 289.848C257.394 289.825 257.968 289.795 258.543 289.763C261.14 289.631 263.689 289.442 266.192 289.196C266.624 289.157 267.058 289.113 267.49 289.067C269.697 288.842 271.87 288.575 274.007 288.264C274.445 288.204 274.882 288.138 275.316 288.073C276.594 287.878 277.858 287.67 279.106 287.449C279.668 287.346 280.231 287.243 280.789 287.137L280.909 287.112C281.047 287.088 281.183 287.063 281.321 287.034C283.175 286.68 284.999 286.294 286.8 285.879C282.474 274.6 280.015 267.898 277.998 262.443C276.782 259.14 275.935 256.86 275.935 256.86C275.942 256.861 275.95 256.861 275.957 256.86C276.626 256.771 293.372 254.473 306.745 252.608C307.345 252.526 307.931 252.441 308.516 252.363C315.244 251.419 320.843 250.625 322.634 250.336C325.361 249.895 328.213 249.863 330.79 248.867C338.113 246.043 340.142 240.126 340.429 235.278C340.636 231.938 340.007 229.116 339.706 228.136Z" fill="#FFB4B3"/>
<path d="M278.005 262.441C276.788 259.138 275.942 256.858 275.942 256.858C275.949 256.859 275.956 256.859 275.963 256.858C268.625 250.101 260.096 244.768 250.811 241.13C243.264 238.177 235.407 236.688 227.439 235.725C227.212 237.016 227.148 238.331 227.248 239.638C227.331 240.831 228.501 244.279 230.309 249.013C231.209 251.374 232.257 254.055 233.431 256.934C233.673 257.538 233.921 258.155 234.172 258.777C234.817 260.358 235.483 261.981 236.171 263.646C237.191 266.114 238.254 268.654 239.323 271.204C240.136 273.139 246.405 286.864 247.794 290.03H248.48C249.056 290.03 249.626 290.03 250.196 290.02C251.953 290.006 253.688 289.967 255.403 289.903C255.549 289.903 255.696 289.903 255.841 289.889C256.17 289.876 256.494 289.866 256.823 289.85C257.402 289.827 257.976 289.797 258.552 289.765C261.148 289.632 263.698 289.443 266.2 289.198C266.632 289.159 267.066 289.114 267.498 289.068C269.706 288.844 271.878 288.576 274.016 288.266C274.453 288.206 274.89 288.14 275.324 288.074C276.603 287.88 277.866 287.672 279.115 287.451C279.676 287.348 280.239 287.245 280.797 287.139L280.917 287.114C281.056 287.089 281.192 287.065 281.33 287.036C283.184 286.682 285.007 286.296 286.808 285.881C282.481 274.599 280.022 267.896 278.005 262.441Z" fill="#FF918F"/>
<path d="M273.087 105.274C273.058 105.215 273.008 105.17 272.946 105.149C272.884 105.127 272.816 105.131 272.757 105.159C272.698 105.188 272.653 105.238 272.632 105.3C272.61 105.362 272.614 105.43 272.642 105.489C272.776 105.742 272.846 106.025 272.848 106.311C272.849 106.598 272.782 106.881 272.652 107.136C272.521 107.391 272.331 107.611 272.098 107.777C271.864 107.944 271.595 108.051 271.311 108.091C271.249 108.106 271.196 108.144 271.162 108.197C271.127 108.25 271.114 108.315 271.126 108.377C271.137 108.439 271.172 108.495 271.223 108.532C271.273 108.57 271.337 108.586 271.399 108.579C271.758 108.526 272.099 108.387 272.394 108.176C272.689 107.964 272.929 107.685 273.094 107.362C273.259 107.038 273.344 106.68 273.343 106.317C273.342 105.954 273.254 105.597 273.087 105.274V105.274Z" fill="#995231"/>
<path d="M338.907 219.826C338.867 219.694 338.824 219.564 338.787 219.43C338.663 219.001 338.55 218.572 338.463 218.143C337.788 214.869 337.705 211.508 336.981 208.234C336.939 208.057 336.898 207.864 336.852 207.679C336.827 207.575 336.797 207.463 336.76 207.337C336.535 206.547 336.115 205.373 335.552 203.918C334.49 201.182 332.918 197.462 331.161 193.465C331.069 193.254 330.974 193.041 330.883 192.829C329.075 188.722 327.098 184.374 325.301 180.52C325.285 180.493 325.271 180.466 325.258 180.437C324.962 179.812 324.676 179.197 324.392 178.6C324.334 178.47 324.272 178.341 324.215 178.217L324.194 178.174C323.025 175.705 321.972 173.543 321.147 171.931C318.512 166.77 316.012 161.516 313.33 156.355C310.32 150.553 307.115 144.873 303.276 139.577C302.906 139.06 302.527 138.544 302.141 138.036C300.031 135.257 297.715 132.433 295.022 130.196C294.369 129.664 293.644 129.225 292.871 129.092C292.364 129.004 291.843 129.048 291.359 129.221C290.827 129.409 285.574 130.762 280.358 132.557C279.483 132.862 278.605 133.174 277.755 133.5C275.151 134.487 272.769 135.56 271.257 136.618C271.133 136.707 271.017 136.795 270.903 136.882C270.903 136.882 270.891 136.882 270.887 136.895C264.639 141.73 264.127 143.037 250.88 155.601C250.775 153.93 250.579 152.468 250.642 150.535C250.642 150.448 250.526 150.386 250.437 150.386C249.814 150.386 249.176 150.399 248.539 150.427C245.673 150.574 242.816 150.875 239.982 151.327C239.32 151.439 238.703 151.552 238.158 151.669C237.488 151.814 236.83 151.971 236.186 152.139C235.973 152.194 224.854 179.452 223.588 182.492C222.526 185.059 222.285 188.199 222.965 191.032C223.569 193.551 226.632 196.542 233.305 195.197C242.946 193.248 271.539 178.819 271.739 178.743C271.764 178.835 278.782 196.815 279.556 201.117C279.984 203.495 280.579 205.862 281.566 208.051C282.125 209.328 282.839 210.531 283.69 211.634C284.598 212.785 285.621 213.838 286.745 214.779C286.883 214.899 287.021 215.013 287.162 215.121C287.736 215.599 288.327 216.049 288.933 216.483C289.995 217.236 291.081 217.945 292.18 218.629C292.596 218.891 293.018 219.148 293.434 219.403C293.58 219.634 293.741 219.855 293.915 220.066C294.266 220.5 294.701 220.858 295.194 221.12C295.36 221.205 295.531 221.282 295.705 221.348C297.205 221.94 299.039 221.96 300.592 221.972C301.805 221.972 303.011 221.907 304.218 221.795C307.423 221.529 310.621 221.042 313.843 221.196L314.096 221.208C314.654 221.24 315.208 221.304 315.754 221.386C315.991 221.423 316.225 221.464 316.462 221.51L316.816 221.581C318.128 221.866 319.405 222.29 320.628 222.844C321.127 223.069 321.62 223.306 322.106 223.552C322.638 223.818 323.169 224.095 323.7 224.364C323.824 224.431 323.95 224.499 324.079 224.561C324.089 224.569 324.1 224.574 324.113 224.577V224.577C324.29 224.669 324.449 224.754 324.621 224.839C325.187 225.128 325.752 225.406 326.331 225.664C327.263 226.082 328.218 226.447 329.191 226.759C331.828 227.601 334.578 228.038 337.346 228.054C337.636 228.054 337.932 228.054 338.231 228.054C338.706 228.042 339.177 228.017 339.648 227.984C339.814 227.971 339.984 227.959 340.15 227.943C340.196 227.942 340.241 227.927 340.277 227.899C340.314 227.871 340.341 227.833 340.354 227.789C340.931 225.021 339.715 222.422 338.907 219.826Z" fill="#D9AFF4"/>
<path d="M292.985 104.72C292.939 104.419 292.893 104.125 292.844 103.824C292.767 103.379 292.785 102.895 292.335 102.708C291.981 102.562 291.424 102.674 290.908 102.821C290.563 102.911 290.239 103.021 290.005 103.071C289.139 103.259 288.278 103.478 287.424 103.728C286.096 104.12 284.79 104.582 283.511 105.112C283.428 105.145 283.344 105.183 283.261 105.22C283.132 105.273 283.005 105.331 282.875 105.397C281.006 106.27 279.12 107.504 277.089 107.846C276.83 107.891 276.569 107.92 276.306 107.932C276.288 107.891 276.256 107.856 276.217 107.834C276.177 107.811 276.131 107.802 276.086 107.808C276.04 107.814 275.998 107.834 275.965 107.866C275.932 107.897 275.91 107.939 275.903 107.984C275.9 108.007 275.9 108.031 275.903 108.055C276.016 108.45 276.133 108.87 276.257 109.295C276.59 110.441 276.988 111.65 277.564 112.674C277.71 112.941 277.874 113.199 278.054 113.444C278.939 114.644 280.179 114.527 281.459 114.102C281.813 113.981 282.25 113.747 282.633 113.728C283.396 113.676 283.658 114.243 284.028 114.761C284.312 115.181 284.652 115.561 285.039 115.889C285.127 115.967 285.222 116.036 285.322 116.097C285.785 116.396 286.335 116.533 286.884 116.485C287.474 116.436 288.025 116.17 288.431 115.739C288.994 115.152 288.977 114.582 289.919 114.477C290.52 114.401 291.087 114.152 291.549 113.76C292.562 112.932 292.994 111.653 293.182 110.393C293.215 110.184 293.24 109.984 293.256 109.78C293.272 109.577 293.29 109.348 293.302 109.13C293.338 107.653 293.232 106.177 292.985 104.72V104.72Z" fill="#2B1919"/>
<path d="M313.231 103.339C314.959 102.618 316.583 101.213 315.141 99.2848C313.934 97.6726 311.921 97.607 310.067 97.8356C311.483 96.9107 312.84 95.3285 311.483 93.7818C310.231 92.3644 307.765 92.6284 306.039 93.2414C306.488 92.6036 306.843 91.8949 306.747 91.087C306.627 90.1674 305.931 89.6696 305.083 89.4711C302.531 88.8634 299.759 90.5342 297.772 91.9516C296.227 93.0616 294.865 94.4067 293.735 95.938C293.652 96.0514 293.569 96.163 293.485 96.28C293.461 96.3136 293.436 96.3508 293.409 96.3845C293.397 96.4058 293.381 96.427 293.369 96.4483C292.037 98.3848 291.088 100.596 290.922 102.827C290.854 103.689 290.914 104.556 291.099 105.401C291.102 105.425 291.111 105.448 291.124 105.469C291.137 105.49 291.155 105.507 291.175 105.521C291.195 105.535 291.218 105.544 291.242 105.548C291.266 105.553 291.291 105.552 291.315 105.546C291.364 105.676 291.414 105.805 291.46 105.934C291.94 107.22 292.405 108.624 293.004 109.94C293.071 110.091 293.142 110.241 293.213 110.387L293.333 110.633C294.066 112.063 294.997 113.345 296.343 114.199C297.32 114.82 298.703 115.298 299.822 114.773C300.768 114.332 301.18 113.356 301.322 112.371C302.395 113.886 303.882 115.652 305.863 115.516C306.595 115.464 307.315 115.053 307.577 114.336C307.898 113.462 307.416 112.387 307.078 111.524C309.04 111.928 311.616 112.045 312.682 110C312.85 109.672 312.946 109.311 312.962 108.942C312.979 108.574 312.916 108.206 312.778 107.864C313.479 107.567 314.125 107.156 314.692 106.646C315.299 106.115 315.52 105.406 315.154 104.651C314.787 103.897 314.001 103.555 313.231 103.339Z" fill="#2B1919"/>
<path d="M349.791 175.482C349.467 176.368 348.759 177.045 348.044 177.619C346.319 179.015 344.184 179.807 342.033 180.252C337.392 181.214 332.5 181.028 327.767 180.636C327.084 180.581 326.405 180.519 325.731 180.459C325.573 180.447 325.416 180.429 325.256 180.413C323.921 180.287 322.588 180.145 321.253 180C320.329 179.901 319.275 179.901 318.502 179.309C317.852 178.813 317.538 178.009 317.262 177.272C316.812 176.072 316.425 174.843 316.055 173.615C314.61 168.79 313.615 163.842 312.113 159.031C312.043 158.806 311.972 158.581 311.896 158.356C311.213 156.174 310.364 154.048 309.357 151.996C308.216 149.714 306.713 147.705 305.332 145.573C304.146 143.736 303.246 141.769 303.275 139.549C303.272 139.503 303.272 139.457 303.275 139.411C303.275 139.291 303.287 139.17 303.296 139.057C304.162 139.711 305.835 139.31 305.925 137.852C306.054 135.845 303.269 132.228 302.196 130.411L302.591 130.474C304.411 130.77 308.54 131.578 309.884 132.069C312.629 133.081 314.734 135.014 316.933 136.87C318.581 138.263 321.577 140.791 324.978 143.69C331.997 149.68 340.736 157.265 342.923 159.781C345.967 163.275 348.993 167.577 349.828 172.24C350.02 173.271 350.167 174.47 349.791 175.482Z" fill="#D9AFF4"/>
<path d="M264.399 126.876C264.396 126.844 264.387 126.813 264.375 126.784C264.242 126.377 263.78 126.348 263.231 126.477C262.407 126.669 261.395 127.227 261.046 127.427C260.131 127.945 259.189 128.414 258.224 128.83C259.01 126.993 259.817 126.502 260.972 125.152C261.104 124.998 261.246 124.828 261.388 124.644C262.016 123.839 260.109 123.793 259.925 122.757C259.741 121.72 259.548 120.416 259.351 119.249C259.289 118.884 259.226 118.54 259.164 118.2C259.151 118.129 258.553 118.425 257.666 118.909C257.411 119.045 257.135 119.204 256.841 119.366C254.351 120.771 250.697 122.978 250.277 123.432C249.746 123.999 247.313 131.309 245.406 136.449C244.904 137.806 244.436 139.014 244.054 139.906C244.04 139.934 244.033 139.966 244.033 139.997C244.033 140.029 244.04 140.06 244.054 140.089C244.068 140.117 244.088 140.142 244.113 140.162C244.139 140.181 244.168 140.195 244.199 140.201C245.295 140.368 246.393 140.532 247.492 140.694C248.013 140.772 248.783 141.059 249.303 140.843C249.785 140.648 250.13 140.023 250.447 139.502C250.541 139.343 250.643 139.189 250.755 139.043C252.473 136.9 254.647 135.168 257.117 133.97C257.53 133.765 258.944 133.084 260.784 131.267C261.504 130.558 262.266 129.879 262.932 129.109C263.305 128.673 264.516 127.53 264.399 126.876Z" fill="#BD6F4A"/>
<path d="M349.825 172.226C348.997 167.564 345.971 163.261 342.92 159.767C340.731 157.251 331.994 149.668 324.975 143.676C322.271 146.013 319.735 148.538 317.386 151.232C316.338 152.431 315.357 153.628 314.444 154.822C314.061 155.321 313.686 155.824 313.319 156.33C312.829 156.998 312.349 157.671 311.887 158.355C308.967 162.631 306.448 167.168 304.362 171.909C297.756 186.818 295.242 203.467 295.649 219.811C295.661 220.311 295.679 220.816 295.699 221.316C297.198 221.907 299.033 221.927 300.585 221.939C301.798 221.939 303.004 221.874 304.212 221.762C307.416 221.496 310.614 221.009 313.836 221.163L314.09 221.176C314.647 221.207 315.202 221.271 315.747 221.353C315.984 221.39 316.218 221.431 316.455 221.477L316.809 221.548C318.121 221.833 319.398 222.257 320.621 222.811C321.121 223.036 321.613 223.273 322.1 223.52C322.631 223.785 323.162 224.062 323.693 224.331C323.817 224.398 323.943 224.466 324.072 224.528C324.082 224.536 324.093 224.541 324.106 224.544C324.283 224.636 324.442 224.721 324.614 224.806C325.18 225.095 325.745 225.373 326.324 225.632C327.257 226.049 328.211 226.414 329.184 226.726C331.821 227.568 334.571 228.005 337.339 228.022C337.629 228.022 337.925 228.022 338.224 228.022C338.699 228.009 339.17 227.984 339.641 227.951C339.807 227.938 339.977 227.926 340.144 227.91C340.19 227.909 340.234 227.894 340.271 227.866C340.307 227.839 340.334 227.8 340.347 227.756C340.935 225.022 339.719 222.423 338.911 219.82C338.871 219.687 338.828 219.558 338.791 219.423C338.667 218.995 338.554 218.566 338.467 218.137C337.792 214.863 337.709 211.502 336.985 208.228C336.942 208.05 336.902 207.857 336.856 207.673C336.831 207.569 336.801 207.457 336.764 207.331C336.539 206.541 336.119 205.366 335.556 203.912C335.534 203.7 335.491 203.491 335.427 203.288C335.02 201.759 333.562 197.388 331.585 191.625C331.498 191.38 331.408 191.134 331.328 190.879C330.257 187.773 329.046 184.286 327.773 180.642C332.505 181.033 337.397 181.219 342.038 180.257C344.189 179.812 346.325 179.017 348.049 177.624C348.758 177.05 349.466 176.372 349.797 175.488C350.167 174.471 350.02 173.271 349.825 172.226Z" fill="#C88CEF"/>
<path d="M260.53 123.822C259.537 122.531 258.718 121.115 258.092 119.611C257.991 119.368 257.589 119.474 257.692 119.722C258.326 121.261 259.159 122.71 260.17 124.031C260.332 124.242 260.693 124.035 260.53 123.822Z" fill="#995231"/>
<path d="M273.453 174.803C273.165 174.911 272.874 175.02 272.588 175.129C274.084 173.689 275.414 172.085 276.55 170.346C279.958 165.135 281.649 158.766 280.966 152.552C280.258 146.053 276.837 139.755 270.884 136.853C270.884 136.853 270.897 136.844 270.9 136.84C271.014 136.752 271.13 136.663 271.254 136.576C273.993 137.981 276.317 140.077 277.995 142.659C284.629 152.761 281.511 166.451 273.453 174.803Z" fill="#87423A"/>
<path d="M326.264 173.839C324.52 165.183 322.514 156.587 320.244 148.049C320.229 147.996 320.194 147.951 320.146 147.924C320.098 147.897 320.041 147.89 319.988 147.905C319.935 147.92 319.89 147.955 319.863 148.003C319.836 148.051 319.829 148.108 319.844 148.161C322.126 156.767 324.146 165.436 325.902 174.167C326 174.035 326.123 173.923 326.264 173.839V173.839Z" fill="#2B1919"/>
<path d="M247.788 157.734C242.936 161.596 238.28 165.686 233.822 170.005C233.631 170.183 233.925 170.486 234.118 170.299C238.57 165.984 243.225 161.893 248.082 158.028C248.291 157.862 247.995 157.57 247.788 157.734Z" fill="#87423A"/>
<path d="M295.71 102.06C295.307 102.8 294.404 103.222 294.167 104.058C293.929 104.894 294.537 105.771 294.604 106.608C294.724 108.082 293.221 109.225 293.31 110.628C293.196 110.399 293.085 110.169 292.98 109.932C293.285 108.812 294.278 107.853 294.175 106.617C294.108 105.821 293.63 105.084 293.708 104.271C293.763 103.713 294.074 103.287 294.441 102.892C294.882 102.418 295.378 102.006 295.503 101.347C295.629 100.688 295.342 100.072 294.958 99.5225C294.464 98.8138 293.935 98.1777 293.614 97.3556C293.502 97.0596 293.413 96.7551 293.349 96.445C293.464 96.2678 293.589 96.0906 293.713 95.9312C293.874 96.9553 294.285 97.924 294.908 98.7518C295.636 99.744 296.382 100.823 295.71 102.06Z" fill="#87423A"/>
<path d="M352.78 214.539L352.668 215.02L350.807 215.667L314.087 228.484L312.232 229.134L312.343 228.654L314.201 228.006L350.919 215.189L352.78 214.539Z" fill="#A53D35"/>
<path d="M364.568 164.107L364.457 164.585L362.592 165.236L325.869 178.056L324.066 178.685L324.178 178.203L325.98 177.574L362.704 164.755L364.568 164.107Z" fill="#A53D35"/>
<path d="M324.028 224.713L335.443 174.69C335.455 174.636 335.446 174.579 335.416 174.532C335.387 174.485 335.34 174.451 335.286 174.439C335.232 174.426 335.175 174.436 335.128 174.465C335.081 174.495 335.048 174.542 335.036 174.596L323.621 224.621C323.611 224.674 323.622 224.729 323.652 224.774C323.681 224.819 323.727 224.851 323.78 224.863C323.833 224.875 323.888 224.866 323.934 224.838C323.98 224.81 324.014 224.765 324.028 224.713V224.713Z" fill="#A53D35"/>
<path d="M333.991 221.381L345.381 171.253C345.391 171.2 345.38 171.145 345.35 171.1C345.321 171.055 345.275 171.023 345.222 171.011C345.169 171 345.114 171.009 345.068 171.036C345.022 171.064 344.988 171.109 344.974 171.161L333.586 221.289C333.58 221.316 333.579 221.343 333.584 221.37C333.588 221.397 333.598 221.423 333.613 221.446C333.627 221.469 333.646 221.489 333.668 221.505C333.691 221.521 333.716 221.532 333.742 221.538C333.769 221.544 333.797 221.545 333.824 221.54C333.85 221.536 333.876 221.526 333.899 221.511C333.922 221.497 333.942 221.478 333.958 221.455C333.974 221.433 333.985 221.408 333.991 221.381Z" fill="#A53D35"/>
<path d="M343.123 218.127L354.454 168.13C354.46 168.103 354.461 168.075 354.457 168.048C354.452 168.022 354.442 167.996 354.428 167.973C354.413 167.95 354.394 167.93 354.372 167.914C354.349 167.898 354.324 167.887 354.298 167.881C354.271 167.875 354.243 167.874 354.217 167.878C354.19 167.883 354.164 167.893 354.141 167.908C354.118 167.922 354.098 167.941 354.082 167.963C354.066 167.986 354.055 168.011 354.049 168.037L342.717 218.034C342.705 218.088 342.715 218.145 342.744 218.191C342.773 218.238 342.82 218.271 342.874 218.283C342.928 218.296 342.984 218.286 343.031 218.257C343.077 218.227 343.11 218.18 343.123 218.127V218.127Z" fill="#A53D35"/>
<path d="M289.894 212.198C277.028 215.251 264.181 218.396 251.354 221.631C251.094 221.696 251.225 222.091 251.483 222.028C264.308 218.792 277.155 215.648 290.023 212.593C290.284 212.531 290.153 212.136 289.894 212.198Z" fill="#2B1919"/>
<path d="M309.528 106.889C309.057 105.657 307.504 104.743 306.164 104.656C306.835 104.105 307.632 103.503 307.515 102.571C307.398 101.639 306.421 101.137 305.598 100.976C304.348 100.737 302.952 100.994 301.72 101.242C300.206 101.555 298.735 102.049 297.34 102.714C297.097 102.828 297.308 103.187 297.549 103.069C299.473 102.152 301.541 101.576 303.662 101.368C304.509 101.29 305.486 101.214 306.267 101.619C308.202 102.627 306.215 103.978 305.442 104.723C305.279 104.881 305.454 105.103 305.645 105.078C306.814 104.901 308.503 105.744 309.052 106.832C309.723 108.161 308.312 108.862 307.349 109.277C307.103 109.383 307.315 109.741 307.558 109.631C308.645 109.171 310.065 108.301 309.528 106.889Z" fill="#87423A"/>
<path d="M283.81 107.222C283.538 105.36 282.614 103.634 281.369 102.242C282.858 101.846 282.759 99.9117 282.12 98.7175C281.171 96.9458 279.439 95.7055 277.516 95.2378C277.256 95.174 277.144 95.5762 277.404 95.64C278.662 95.9368 279.81 96.5822 280.717 97.5021C281.583 98.388 283.502 101.719 280.972 101.894C280.931 101.895 280.892 101.907 280.858 101.93C280.824 101.953 280.798 101.985 280.782 102.023C280.767 102.061 280.763 102.102 280.77 102.142C280.778 102.182 280.797 102.219 280.825 102.249C281.717 103.166 282.419 104.249 282.893 105.438C283.318 106.526 284.262 110.011 281.896 109.646C281.634 109.607 281.521 110 281.785 110.048C283.447 110.298 284.011 108.591 283.81 107.222Z" fill="#87423A"/>
<path d="M327.72 170.28C327.662 170.526 327.604 170.767 327.543 171.004C327.157 172.617 326.754 174.275 326.107 177.028C326.067 177.206 326.024 177.383 325.978 177.56C325.932 177.737 325.904 177.875 325.867 178.042C325.821 178.238 325.775 178.439 325.725 178.646L325.654 178.942L314.377 227.22L314.2 227.991L314.087 228.469L313.929 229.135L306.877 259.337C306.837 259.517 306.737 259.677 306.594 259.793C306.45 259.908 306.272 259.971 306.087 259.971C306.02 259.971 305.953 259.962 305.887 259.946C305.78 259.922 305.678 259.877 305.588 259.813C305.498 259.75 305.422 259.669 305.363 259.575C305.305 259.482 305.265 259.378 305.248 259.269C305.23 259.16 305.233 259.049 305.259 258.942L310.571 236.24L312.083 229.793L312.237 229.13L312.348 228.65L312.525 227.872L323.857 179.581L324.069 178.681L324.181 178.2L324.307 177.668L325.918 170.801C326.449 170.624 326.98 170.459 327.536 170.329C327.596 170.308 327.658 170.296 327.72 170.28Z" fill="#A53D35"/>
<path d="M365.885 158.466L364.679 163.639L364.569 164.107L364.458 164.585L364.229 165.556L352.947 213.833L352.786 214.542L352.674 215.024L352.497 215.757L344.93 248.152L344.289 247.957C344.171 247.919 344.053 247.885 343.935 247.856L343.331 247.711L350.643 216.404L350.821 215.67L350.932 215.19L351.099 214.481L362.381 166.208L362.606 165.237L362.717 164.759L362.825 164.288L364.029 159.15C364.64 158.928 365.265 158.701 365.885 158.466Z" fill="#A53D35"/>
<path d="M249.478 226.277C248.028 225.272 246.006 224.833 244.288 225.419C242.013 226.197 241.358 227.951 241.02 228.731C240.032 231.005 240.37 236.129 243.971 235.64C245.057 235.493 246.015 234.462 246.022 233.353C246.022 232.687 244.942 231.259 245.618 230.77C246.503 230.128 247.674 231.246 248.547 231.427C249.722 231.673 250.829 230.818 251.089 229.678C251.399 228.332 250.547 227.019 249.478 226.277Z" fill="#C20200"/>
<path d="M275.575 265.103C274.123 264.098 272.103 263.659 270.386 264.245C268.11 265.023 267.455 266.775 267.117 267.555C266.129 269.832 266.467 274.956 270.069 274.465C271.154 274.32 272.112 273.288 272.119 272.179C272.119 271.513 271.039 270.085 271.715 269.594C272.601 268.955 273.769 270.071 274.642 270.253C275.82 270.5 276.926 269.644 277.185 268.505C277.493 267.162 276.645 265.845 275.575 265.103Z" fill="#C20200"/>
<path d="M301.487 225.635C300.037 224.631 298.015 224.191 296.297 224.778C294.022 225.555 293.367 227.308 293.029 228.087C292.041 230.364 292.379 235.488 295.98 234.997C297.066 234.852 298.024 233.821 298.031 232.71C298.031 232.044 296.951 230.617 297.627 230.126C298.512 229.487 299.683 230.603 300.554 230.786C301.731 231.032 302.838 230.176 303.098 229.037C303.404 227.694 302.556 226.383 301.487 225.635Z" fill="#C20200"/>
<path d="M222.95 276.731C221.498 275.726 219.478 275.287 217.761 275.873C215.486 276.651 214.83 278.405 214.492 279.185C213.504 281.46 213.842 286.583 217.444 286.094C218.529 285.947 219.487 284.916 219.494 283.807C219.494 283.141 218.414 281.713 219.09 281.224C219.976 280.583 221.146 281.701 222.017 281.881C223.195 282.128 224.301 281.272 224.56 280.133C224.868 278.79 224.02 277.473 222.95 276.731Z" fill="#C20200"/>
<path d="M272.393 231.62C273.809 230.578 274.992 228.81 274.904 226.996C274.863 226.177 273.475 223.396 272.85 222.82C271.024 221.14 266.076 219.781 265.351 223.342C265.134 224.416 265.792 225.66 266.839 226.03C267.465 226.253 269.17 225.697 269.41 226.496C269.725 227.545 268.287 228.284 267.828 229.047C267.21 230.08 267.651 231.407 268.646 232.026C269.813 232.761 271.341 232.389 272.393 231.62Z" fill="#C20200"/>
<path d="M259.494 234.204C259.306 233.283 258.559 232.416 257.573 232.347C256.586 232.278 256.009 233.171 255.333 233.764C254.841 233.835 254.329 233.786 253.824 233.888C253.309 233.996 252.825 234.219 252.408 234.54C251.967 234.884 251.624 235.338 251.416 235.857C251.208 236.376 251.142 236.941 251.223 237.494C251.561 239.707 254.129 240.602 256.039 239.843C258.024 239.058 259.942 236.408 259.494 234.204Z" fill="#C20200"/>
<path d="M302.369 243.368C302.181 242.446 301.434 241.58 300.448 241.511C299.433 241.44 298.882 242.335 298.208 242.928C297.714 243.001 297.202 242.951 296.699 243.054C296.184 243.159 295.699 243.382 295.283 243.704C294.841 244.047 294.499 244.501 294.291 245.02C294.083 245.539 294.016 246.105 294.098 246.658C294.436 248.871 297.002 249.765 298.914 249.007C300.897 248.222 302.817 245.572 302.369 243.368Z" fill="#C20200"/>
<path d="M258.413 277.626C258.225 276.703 257.478 275.837 256.492 275.767C255.478 275.698 254.927 276.593 254.252 277.185C253.758 277.256 253.247 277.206 252.744 277.309C252.228 277.414 251.743 277.637 251.327 277.961C250.886 278.304 250.543 278.758 250.335 279.277C250.127 279.796 250.06 280.361 250.143 280.914C250.481 283.126 253.047 284.02 254.959 283.262C256.942 282.479 258.861 279.828 258.413 277.626Z" fill="#C20200"/>
<path d="M263.143 262.061C263.966 261.604 264.568 260.631 264.338 259.669C264.108 258.707 263.083 258.429 262.314 257.957C262.098 257.507 261.99 257.004 261.742 256.554C261.486 256.094 261.129 255.699 260.698 255.399C260.238 255.08 259.702 254.89 259.145 254.847C258.588 254.804 258.029 254.91 257.527 255.154C255.519 256.139 255.434 258.857 256.732 260.455C258.075 262.112 261.177 263.149 263.143 262.061Z" fill="#C20200"/>
<path d="M287.181 233.422C288.005 232.967 288.607 231.994 288.376 231.032C288.146 230.07 287.121 229.792 286.353 229.319C286.137 228.871 286.03 228.367 285.781 227.917C285.526 227.457 285.168 227.062 284.736 226.762C284.277 226.443 283.741 226.252 283.184 226.209C282.627 226.166 282.068 226.272 281.565 226.516C279.557 227.503 279.474 230.221 280.77 231.819C282.114 233.47 285.216 234.512 287.181 233.422Z" fill="#C20200"/>
<path d="M274.474 248.105C273.67 249.436 272.466 248.459 271.625 247.836C270.837 247.26 269.784 246.679 268.84 247.271C268.132 247.71 267.933 248.569 267.882 249.342C267.84 249.987 267.932 250.63 267.829 251.269C267.652 252.439 266.639 253.08 265.501 252.687C263.865 252.136 263.199 249.834 262.914 248.33C262.578 246.669 262.728 244.946 263.348 243.369C264.056 241.636 265.407 240.127 267.185 239.462C268.601 238.931 270.195 239.028 271.425 239.794C273.195 241.237 274.36 243.293 274.69 245.554C274.8 246.344 274.906 247.389 274.474 248.105Z" fill="#C20200"/>
<path d="M226.942 273.202C225.614 272.394 226.601 271.191 227.217 270.351C227.794 269.563 228.375 268.51 227.785 267.564C227.348 266.855 226.489 266.657 225.715 266.604C225.073 266.559 224.43 266.65 223.789 266.547C222.62 266.37 221.983 265.355 222.372 264.215C222.927 262.578 225.227 261.912 226.732 261.632C228.392 261.298 230.114 261.451 231.689 262.073C233.421 262.782 234.928 264.139 235.584 265.92C236.116 267.337 236.015 268.932 235.248 270.161C233.803 271.931 231.747 273.094 229.487 273.421C228.702 273.53 227.656 273.634 226.942 273.202Z" fill="#C20200"/>
<path d="M271.612 208.777C271.398 208.263 271.113 207.78 270.766 207.344C266.408 207.167 263.26 207.544 259.935 209.803C260.542 209.86 261.155 209.764 261.766 209.785C262.541 209.815 263.402 209.994 263.864 210.671C264.485 211.601 263.94 212.671 263.386 213.476C262.798 214.337 261.854 215.57 263.209 216.337C263.937 216.745 264.979 216.608 265.76 216.47C268.009 216.07 270.026 214.841 271.414 213.026C272.136 211.768 272.186 210.189 271.612 208.777Z" fill="#C20200"/>
<path d="M253.729 269.835C252.923 271.165 251.719 270.179 250.878 269.566C250.09 268.988 249.037 268.409 248.093 269C247.394 269.44 247.188 270.299 247.137 271.072C247.093 271.715 247.185 272.36 247.084 272.999C246.898 274.169 245.894 274.81 244.754 274.425C243.118 273.874 242.452 271.573 242.167 270.069C241.83 268.408 241.982 266.685 242.602 265.108C243.311 263.375 244.66 261.866 246.439 261.21C247.856 260.678 249.449 260.776 250.678 261.541C252.449 262.985 253.614 265.04 253.945 267.301C254.055 268.074 254.161 269.119 253.729 269.835Z" fill="#C20200"/>
<path d="M325.743 237.968C324.938 239.301 323.734 238.314 322.893 237.699C322.105 237.123 321.051 236.542 320.108 237.136C319.399 237.573 319.203 238.432 319.151 239.205C319.107 239.85 319.199 240.493 319.098 241.134C318.921 242.304 317.907 242.943 316.768 242.552C315.132 242.001 314.466 239.698 314.181 238.193C313.845 236.532 313.996 234.81 314.615 233.232C315.323 231.5 316.674 229.99 318.452 229.326C319.869 228.794 321.462 228.892 322.701 229.657C324.469 231.102 325.631 233.158 325.958 235.419C326.067 236.207 326.175 237.254 325.743 237.968Z" fill="#C20200"/>
<path d="M243.876 252.089C243.09 250.748 244.53 250.158 245.47 249.709C246.355 249.29 247.364 248.646 247.292 247.527C247.24 246.703 246.583 246.109 245.928 245.7C245.383 245.346 244.774 245.129 244.259 244.734C243.318 244.015 243.235 242.826 244.115 242.006C245.378 240.828 247.718 241.34 249.176 241.804C250.798 242.298 252.243 243.253 253.335 244.552C254.519 246.001 255.204 247.908 254.941 249.789C254.732 251.297 253.892 252.638 252.639 253.361C250.527 254.232 248.166 254.279 246.022 253.492C245.27 253.214 244.299 252.81 243.876 252.089Z" fill="#C20200"/>
<path d="M287.647 241.532C287.586 240.768 287.457 240.011 287.261 239.269C286.224 237.422 283.736 236.933 282.205 238.502C281.413 239.316 281.226 240.435 281.249 241.53C281.288 243.325 281.511 244.771 280.739 246.475C280.3 247.443 279.786 248.569 280.275 249.622C280.664 250.46 281.592 250.809 282.467 250.816C284.97 250.841 286.716 248.527 287.267 246.309C287.654 244.778 287.724 243.105 287.647 241.532Z" fill="#C20200"/>
<path d="M275.657 285.079C276.417 284.979 277.167 284.813 277.898 284.581C279.692 283.456 280.058 280.946 278.417 279.491C277.567 278.74 276.439 278.605 275.347 278.683C273.559 278.809 272.126 279.103 270.389 278.414C269.401 278.022 268.252 277.563 267.225 278.104C266.407 278.534 266.106 279.477 266.14 280.352C266.239 282.856 268.633 284.479 270.873 284.932C272.424 285.244 274.097 285.23 275.657 285.079Z" fill="#C20200"/>
<path d="M232.629 284.293C231.588 284.743 230.988 285.71 230.598 286.729C229.998 288.292 229.656 289.633 228.516 290.85C229.324 290.958 230.127 291.066 230.926 291.165C231.555 291.249 232.183 291.325 232.808 291.399L233.353 291.461C233.511 291.483 233.665 291.499 233.819 291.516C234.35 291.578 234.881 291.64 235.413 291.693C235.837 290.875 236.204 290.027 236.509 289.156C236.741 288.426 236.908 287.677 237.008 286.917C236.765 284.817 234.646 283.418 232.629 284.293Z" fill="#C20200"/>
<path d="M335.884 232.901C335.599 232.19 335.249 231.505 334.842 230.855C333.303 229.4 330.783 229.673 329.788 231.629C329.273 232.641 329.434 233.766 329.776 234.804C330.346 236.507 330.989 237.816 330.759 239.677C330.628 240.74 330.474 241.96 331.253 242.82C331.876 243.504 332.864 243.56 333.701 243.307C336.099 242.584 337.065 239.857 336.943 237.574C336.858 235.997 336.424 234.381 335.884 232.901Z" fill="#C20200"/>
<path d="M234.622 233.126C232.035 233.585 231.128 236.193 230.815 238.551C230.486 240.045 230.534 241.59 231.258 243.03C232.056 244.625 234.406 246.432 236.113 244.935C237.051 244.115 237.352 242.455 237.648 241.319C238.056 239.831 238.285 238.299 238.329 236.757C238.347 234.574 236.996 232.705 234.622 233.126Z" fill="#C20200"/>
<path d="M275.005 254.122C274.779 252.6 273.686 251.996 272.45 251.952C272.046 251.865 271.624 251.91 271.248 252.081C270.661 252.361 270.156 252.787 269.779 253.317C269.402 253.847 269.167 254.464 269.095 255.111C268.957 256.78 270.538 258.018 272.126 257.815C273.861 257.593 275.269 255.885 275.005 254.122Z" fill="#C20200"/>
<path d="M306.85 234.441C306.622 232.917 305.531 232.315 304.295 232.27C303.891 232.181 303.469 232.226 303.093 232.398C302.506 232.678 302 233.103 301.622 233.634C301.245 234.164 301.01 234.782 300.938 235.429C300.802 237.096 302.381 238.335 303.969 238.133C305.705 237.91 307.114 236.203 306.85 234.441Z" fill="#C20200"/>
<path d="M326.932 244.437C326.706 242.915 325.615 242.311 324.377 242.267C323.973 242.18 323.552 242.225 323.175 242.396C322.588 242.676 322.082 243.101 321.706 243.631C321.329 244.162 321.094 244.779 321.022 245.426C320.884 247.095 322.465 248.333 324.053 248.13C325.788 247.908 327.196 246.2 326.932 244.437Z" fill="#C20200"/>
<path d="M287.076 219.341C286.849 217.819 285.757 217.215 284.521 217.17C284.117 217.083 283.695 217.128 283.319 217.3C282.732 217.58 282.226 218.005 281.85 218.535C281.473 219.065 281.237 219.683 281.166 220.329C281.028 221.998 282.609 223.237 284.197 223.033C285.925 222.811 287.341 221.104 287.076 219.341Z" fill="#C20200"/>
<path d="M241.702 251.52C241.474 249.998 240.383 249.394 239.147 249.349C238.744 249.26 238.322 249.305 237.945 249.477C237.358 249.758 236.853 250.183 236.476 250.713C236.099 251.244 235.863 251.861 235.79 252.508C235.654 254.175 237.235 255.416 238.822 255.212C240.559 254.99 241.966 253.283 241.702 251.52Z" fill="#C20200"/>
<path d="M236.57 278.317C236.343 276.793 235.252 276.19 234.015 276.146C233.611 276.057 233.189 276.102 232.812 276.274C232.226 276.554 231.72 276.98 231.343 277.51C230.966 278.041 230.731 278.658 230.659 279.305C230.521 280.972 232.102 282.213 233.691 282.009C235.426 281.787 236.833 280.079 236.57 278.317Z" fill="#C20200"/>
<path d="M314.287 253.757C313.523 256.494 312.76 259.231 311.996 261.968C311.985 262.02 311.994 262.074 312.021 262.12C312.049 262.165 312.093 262.199 312.144 262.213C312.196 262.227 312.25 262.221 312.298 262.196C312.345 262.172 312.38 262.13 312.398 262.079C313.16 259.341 313.924 256.604 314.689 253.867C314.699 253.816 314.689 253.762 314.661 253.717C314.633 253.672 314.59 253.64 314.539 253.626C314.488 253.612 314.434 253.618 314.387 253.642C314.34 253.667 314.305 253.708 314.287 253.757V253.757Z" fill="#2B1919"/>
<path d="M180.698 187.459L173.672 190.912C173.648 190.924 154.019 190.861 154.019 190.861C153.89 190.861 153.852 190.373 153.89 189.994C153.895 189.897 153.913 189.801 153.941 189.707C153.949 189.659 153.972 189.614 154.007 189.578L154.019 189.566L160.924 187.096C161.089 187.015 161.271 186.973 161.455 186.975L180.485 186.164L180.756 186.151C180.801 186.151 180.84 186.201 180.859 186.281C180.865 186.294 180.869 186.307 180.871 186.321C180.942 186.655 180.856 187.379 180.698 187.459Z" fill="#2B1919"/>
<path d="M180.869 186.313C180.867 186.35 180.855 186.387 180.834 186.418C180.812 186.449 180.783 186.474 180.749 186.49H180.733L173.729 189.925C173.704 189.937 154.134 189.879 154.134 189.879C154.085 189.876 154.04 189.855 154.007 189.819C153.973 189.783 153.956 189.736 153.957 189.688C153.956 189.664 153.961 189.64 153.97 189.618C153.979 189.595 153.993 189.575 154.01 189.558C154.023 189.542 154.04 189.529 154.059 189.521L160.687 186.265L160.991 186.114C161.156 186.032 161.338 185.989 161.522 185.988L163.417 185.997L180.512 186.056H180.659C180.71 186.055 180.759 186.073 180.798 186.105C180.838 186.138 180.865 186.183 180.875 186.233C180.876 186.259 180.874 186.286 180.869 186.313V186.313Z" fill="#2B1919"/>
<path d="M177.99 186.66C177.989 186.687 177.982 186.714 177.967 186.736C177.952 186.759 177.931 186.777 177.906 186.788H177.894L173.016 189.18C173 189.18 156.884 189.098 156.884 189.098C156.867 189.098 156.85 189.095 156.834 189.088C156.818 189.081 156.803 189.071 156.791 189.059C156.779 189.047 156.769 189.032 156.763 189.016C156.756 189 156.753 188.983 156.753 188.965C156.753 188.948 156.756 188.931 156.763 188.916C156.769 188.9 156.779 188.886 156.792 188.875C156.801 188.863 156.812 188.854 156.826 188.848L161.44 186.581L161.651 186.476C161.767 186.419 161.895 186.389 162.024 186.389H163.343L177.736 186.48H177.839C177.874 186.48 177.909 186.492 177.936 186.514C177.963 186.536 177.982 186.567 177.99 186.602C177.991 186.621 177.991 186.641 177.99 186.66V186.66Z" fill="#F7E9E1"/>
<path d="M180.65 186.075H180.503C180.499 186.102 180.493 186.129 180.483 186.155C180.479 186.169 180.473 186.183 180.465 186.196L173.481 189.629C172.516 189.629 155.647 189.583 154.004 189.578H153.992C153.975 189.595 153.961 189.615 153.952 189.637C153.943 189.659 153.938 189.683 153.939 189.707C153.91 189.801 153.893 189.897 153.887 189.994C164.969 190.028 169.807 190.04 171.933 190.04C173.578 190.04 173.594 190.04 173.624 190.021L180.646 186.568C180.675 186.553 180.701 186.533 180.724 186.509C180.78 186.441 180.822 186.362 180.848 186.277C180.849 186.27 180.849 186.263 180.848 186.256C180.839 186.208 180.815 186.164 180.78 186.132C180.744 186.099 180.698 186.079 180.65 186.075V186.075Z" fill="#87423A"/>
<path d="M375.444 74.1006L270.069 74.3664L271.631 62.912L363.057 62.6729C367.647 65.9485 371.809 69.7877 375.444 74.1006V74.1006Z" fill="#002853"/>
<path d="M236.456 36.6404C232.254 69.322 227.249 107.648 224.442 128.509C224.292 128.509 224.134 128.509 223.975 128.53C226.951 106.02 233.005 59.9087 236.071 36.5854L236.456 36.6404Z" fill="#BD8B73"/>
<path d="M363.555 63.027L340.447 63.0606H340.019L327.43 63.0819H327.003L314.802 63.1014H314.374L301.785 63.1191H301.365L288.81 63.135L291.029 43.8921L293.285 44.2216C296.456 44.687 299.692 45.1742 302.993 45.6833L303.412 45.7453C307.457 46.3702 311.589 47.0299 315.806 47.7244L316.228 47.7953C320.165 48.4449 324.17 49.1294 328.241 49.8487L328.278 49.4749L328.698 49.5528C328.685 49.6733 328.673 49.7991 328.661 49.9196C330.959 50.3283 333.276 50.7464 335.612 51.174C337.427 51.5071 339.227 51.9163 341.012 52.4018C341.149 52.4355 341.29 52.4727 341.428 52.5152C344.291 53.3062 347.102 54.2754 349.844 55.4173C349.853 55.4222 349.862 55.4263 349.872 55.4297C352.463 56.5542 354.994 57.8097 357.457 59.1911C359.352 60.2542 361.197 61.4052 362.994 62.6443C363.185 62.7736 363.371 62.8994 363.555 63.027Z" fill="#F7E9E1"/>
<path d="M303.411 45.7374C302.829 51.5251 302.288 57.3211 301.787 63.1254H301.367C301.861 57.2987 302.402 51.4808 302.991 45.6719L303.411 45.7374Z" fill="#AF775F"/>
<path d="M316.226 47.7906C315.717 52.885 315.245 57.9917 314.809 63.1109H314.381C314.822 57.9717 315.298 52.8413 315.808 47.7197L316.226 47.7906Z" fill="#AF775F"/>
<path d="M328.695 49.5443C328.683 49.6647 328.67 49.7905 328.658 49.911C328.226 54.2979 327.817 58.69 327.429 63.0875H327.003C327.385 58.6664 327.798 54.2506 328.242 49.8402L328.279 49.4663L328.695 49.5443Z" fill="#AF775F"/>
<path d="M341.427 52.5065C341.081 56.0216 340.754 59.5415 340.447 63.0661H340.019C340.331 59.5049 340.661 55.9472 341.01 52.3931C341.147 52.4267 341.288 52.4639 341.427 52.5065Z" fill="#AF775F"/>
<path d="M236.585 36.6567C235.898 36.5646 235.223 36.4689 234.561 36.3821C233.716 36.2616 232.897 36.1482 232.102 36.0366L231.268 35.9161L230.324 35.778C230.081 35.7443 229.85 35.7071 229.616 35.6734C228.92 35.5707 228.245 35.4661 227.597 35.3651L227.04 35.2783C208.794 32.3762 190.054 30.1137 171.546 30.6966C162.906 30.9677 154.251 32.0909 145.991 34.7291C139.095 36.958 132.523 40.0898 126.448 44.0432C115.042 51.4119 105.702 60.9917 98.2 71.9181C92.8263 79.7527 88.3963 88.2748 84.8375 97.169C84.7914 97.2806 84.7507 97.3887 84.7047 97.5021C84.501 98.0336 84.2921 98.551 84.092 99.0754C87.8882 97.8045 91.6849 96.5371 95.4822 95.2732C98.9985 94.1039 102.518 92.9375 106.042 91.774C125.924 85.2068 145.834 78.7216 165.772 72.3185C185.637 65.9402 205.534 59.6434 225.462 53.4281C239.319 49.1086 253.194 44.8292 267.088 40.59C255.155 39.0309 244.822 37.7658 236.585 36.6567Z" fill="#D3E8FF"/>
<path d="M224.404 127.962C191.719 139.08 115.474 165.332 85.9038 175.755L85.8524 176.143C96.421 172.346 108.027 168.306 118.659 164.683C123.12 163.163 194.711 138.608 224.643 128.362L224.404 127.962Z" fill="#BD8B73"/>
<path d="M223.955 128.536L248.642 128.181L248.58 127.701C240.942 127.813 232.618 127.937 224.005 128.073C223.996 128.228 223.979 128.382 223.955 128.536V128.536Z" fill="#BD8B73"/>
<path d="M97.4883 141.019C95.1865 135.971 92.7874 130.938 89.8252 126.241C84.9367 118.484 78.1182 111.303 69.2069 108.362C64.7574 106.891 60.1079 107.212 56.2073 109.957C55.2522 110.626 54.3849 111.413 53.6258 112.299C53.5178 112.419 53.4169 112.543 53.3212 112.673C52.6383 113.519 52.1085 114.478 51.7561 115.507C50.8708 118.181 52.5723 120.164 54.8492 121.301C57.0483 122.398 59.5324 122.917 61.8891 123.571C64.0416 124.153 66.146 124.901 68.1835 125.808C72.2753 127.667 76.0253 130.238 79.3894 133.205C86.5231 139.525 91.7605 147.622 96.3392 155.903C97.47 155.407 98.6049 154.913 99.744 154.42C99.8697 154.362 99.9936 154.309 100.123 154.254L102.354 153.283C101.254 149.032 99.3067 145.002 97.4883 141.019Z" fill="#00CAAA"/>
<path d="M161.572 65.6849C161.395 62.7863 159.375 60.4458 156.763 59.3367C155.983 59.0036 155.164 58.7725 154.325 58.6493C154.171 58.6298 154.017 58.6085 153.863 58.5961C148.151 58.0167 142.306 62.2813 138.636 66.2146C133.678 71.5299 130.157 78.1863 126.785 84.5752C115.681 105.617 108.188 128.376 104.618 151.902C104.505 152.672 104.393 153.443 104.288 154.205C103.555 154.084 102.824 153.987 102.079 153.934C101.811 153.913 101.811 154.329 102.079 154.35C102.803 154.405 103.518 154.496 104.227 154.616C104.097 155.58 103.968 156.542 103.848 157.504C103.814 157.77 104.23 157.77 104.264 157.504C104.382 156.559 104.507 155.618 104.639 154.68C105.703 154.875 106.753 155.142 107.782 155.479C107.915 155.525 108.044 155.566 108.173 155.612C109.439 156.053 110.667 156.598 111.844 157.242C111.871 157.257 111.902 157.267 111.934 157.269C111.965 157.271 111.997 157.265 112.027 157.253C112.056 157.241 112.082 157.222 112.103 157.199C112.124 157.175 112.14 157.147 112.148 157.116C116.369 141.996 123.032 127.696 130.943 114.16C138.854 100.624 147.981 87.8317 157.339 75.2629C159.378 72.5256 161.784 69.2939 161.572 65.6849Z" fill="#00CAAA"/>
<path d="M154.326 58.646C150.733 64.2677 147.178 69.9143 143.748 75.6335C135.323 89.651 127.957 104.279 121.712 119.396C116.791 131.312 112.425 143.444 108.175 155.614C107.092 158.714 106.015 161.815 104.944 164.915C104.857 165.171 104.454 165.061 104.54 164.807C105.619 161.696 106.701 158.587 107.784 155.481C109.732 149.894 111.72 144.322 113.749 138.764C119.284 123.705 125.325 108.811 132.668 94.5363C139.035 82.1624 146.379 70.3218 153.863 58.5981C154.017 58.5981 154.171 58.6265 154.326 58.646Z" fill="#4A6144"/>
<path d="M116.792 147.144C112.513 147.891 108.233 148.638 103.953 149.385C103.541 149.456 103.133 149.527 102.714 149.602L95.3162 150.89L95.2542 150.902C94.5212 151.031 93.7846 151.161 93.0481 151.285C92.3646 151.405 91.6865 151.527 91.0048 151.639C90.1974 151.781 89.6769 151.752 89.452 152.594C89.4432 152.619 89.4396 152.652 89.4308 152.677C89.4473 155.227 89.465 157.776 89.4839 160.324C89.4928 161.421 89.4928 162.519 89.5299 163.62C89.5666 165.352 89.7748 167.077 90.1514 168.768C91.258 173.375 94.6345 177.315 99.7037 177.037C101.085 176.953 102.446 176.669 103.746 176.195C106.543 175.191 109.107 173.412 111.182 171.38C117.847 164.84 119.917 155.388 120.878 146.425L116.792 147.144Z" fill="#891DCF"/>
<path d="M100.123 154.251C99.9933 154.306 99.8693 154.359 99.7436 154.417C99.1859 153.152 98.6317 151.877 98.0793 150.606C96.8168 147.733 95.5102 144.884 93.9361 142.164C89.0035 133.703 82.1539 126.52 73.9392 121.194C69.863 118.539 65.4793 116.391 60.8848 114.796C58.4177 113.916 55.8935 113.206 53.3297 112.67C53.4253 112.54 53.5262 112.416 53.6343 112.296C56.4778 112.87 59.2788 113.761 61.8763 114.704C70.8 117.951 78.9057 123.345 85.4621 130.208C88.787 133.686 91.6983 137.536 94.138 141.684C95.4885 144.024 96.7062 146.439 97.7853 148.916C98.4351 150.369 99.0672 151.836 99.7046 153.292C99.8374 153.613 99.9809 153.936 100.123 154.251Z" fill="#4A6144"/>
<path d="M103.952 149.386C103.54 149.457 103.133 149.528 102.713 149.602L95.3155 150.89L95.2535 150.902C95.1924 152.361 95.364 153.821 95.7616 155.225C96.677 158.363 98.9168 161.003 102.189 161.74C105.302 162.449 108.674 161.508 111.13 159.504C113.91 157.238 115.557 153.835 116.309 150.378C116.543 149.313 116.702 148.232 116.784 147.145C112.51 147.891 108.232 148.638 103.952 149.386Z" fill="#1E062E"/>
<path d="M218.82 149.431L136.1 177.789C135.99 177.826 135.873 177.837 135.757 177.824C135.642 177.81 135.531 177.771 135.433 177.709C135.334 177.648 135.25 177.565 135.187 177.467C135.124 177.37 135.083 177.26 135.068 177.144L125.28 105.52C125.254 105.333 125.296 105.144 125.398 104.985C125.499 104.827 125.654 104.71 125.834 104.655L209.492 79.2943C209.602 79.261 209.718 79.252 209.832 79.2679C209.946 79.2839 210.055 79.3245 210.151 79.3869C210.248 79.4493 210.33 79.532 210.391 79.6292C210.452 79.7264 210.492 79.8359 210.507 79.9499L219.36 148.575C219.384 148.758 219.343 148.944 219.244 149.101C219.146 149.257 218.995 149.374 218.82 149.431V149.431Z" fill="#2B1919"/>
<path d="M223.129 149.428L140.402 177.787C140.36 177.801 140.317 177.812 140.273 177.819H140.248C140.146 177.833 140.041 177.827 139.941 177.8C139.841 177.774 139.747 177.728 139.665 177.665C139.583 177.603 139.514 177.524 139.462 177.435C139.41 177.345 139.376 177.246 139.363 177.143L129.594 105.604L129.582 105.519C129.557 105.332 129.599 105.143 129.7 104.984C129.802 104.825 129.956 104.708 130.136 104.652L209.69 80.5389L213.794 79.2987C213.854 79.2798 213.917 79.2702 213.98 79.2703C214.121 79.2607 214.261 79.2902 214.386 79.3556C214.511 79.4209 214.616 79.5196 214.688 79.6406C214.748 79.7353 214.786 79.8417 214.8 79.9525L214.812 80.0375L223.656 148.579C223.68 148.76 223.64 148.943 223.544 149.098C223.448 149.252 223.301 149.369 223.129 149.428Z" fill="#2B1919"/>
<path d="M221.887 147.157C221.905 147.288 221.876 147.42 221.806 147.532C221.736 147.643 221.629 147.727 221.504 147.767L209.995 151.698L160.747 168.53L156.08 170.125L141.232 175.202C141.201 175.211 141.171 175.218 141.139 175.222H141.124C141.051 175.232 140.977 175.227 140.907 175.208C140.836 175.189 140.77 175.157 140.712 175.112C140.654 175.068 140.605 175.013 140.568 174.949C140.532 174.886 140.508 174.816 140.499 174.744L133.887 126.152L131.743 110.383L131.355 107.587L131.343 107.523C131.326 107.391 131.356 107.256 131.428 107.143C131.501 107.031 131.61 106.947 131.738 106.907L209.834 82.7597L212.758 81.8738C212.8 81.8581 212.845 81.8508 212.89 81.8526C212.965 81.8471 213.039 81.8567 213.11 81.8809C213.23 81.9236 213.332 82.0061 213.398 82.1148C213.441 82.1835 213.469 82.26 213.482 82.3398V82.3983L213.894 85.5874L221.887 147.157Z" fill="#CFC0C2"/>
<path d="M213.907 85.5892L209.112 87.035L152.602 104.088L147.25 105.704L131.743 110.385L131.355 107.587L131.343 107.523C131.326 107.391 131.356 107.256 131.428 107.143C131.501 107.031 131.61 106.947 131.738 106.907L209.834 82.7597L212.757 81.8738C212.8 81.8581 212.845 81.8508 212.89 81.8526C212.965 81.8471 213.039 81.8567 213.11 81.8809C213.23 81.9236 213.332 82.0061 213.398 82.1148C213.441 82.1835 213.469 82.26 213.482 82.3398V82.3983L213.907 85.5892Z" fill="#A39092"/>
<path d="M209.397 147.262L160.148 164.103L153.7 111.928L153.275 108.475V108.443C153.263 108.363 153.281 108.281 153.325 108.212C153.368 108.143 153.434 108.092 153.512 108.068L200.76 93.4543L202.53 92.9228C202.556 92.9156 202.583 92.9115 202.61 92.9104C202.657 92.9072 202.703 92.9145 202.746 92.9317C202.82 92.9569 202.883 93.007 202.923 93.0734C202.948 93.1142 202.963 93.1594 202.969 93.2063V93.24L203.182 95.0117L209.397 147.262Z" fill="#A39092"/>
<path d="M218.869 145.081L192.476 154.106L189.022 126.146L188.794 124.297V124.279C188.786 124.236 188.795 124.191 188.818 124.153C188.842 124.116 188.878 124.089 188.921 124.077L214.24 116.248L215.186 115.959H215.228C215.254 115.956 215.279 115.96 215.303 115.97C215.341 115.984 215.375 116.011 215.396 116.046C215.409 116.067 215.417 116.092 215.419 116.117V116.134L215.533 117.084L218.869 145.081Z" fill="#F7E9E1"/>
<path d="M213.248 142.756L202.979 146.264L200.464 126.534L200.255 124.911L200.169 124.19V124.181C200.166 124.165 200.17 124.148 200.179 124.134C200.188 124.12 200.202 124.11 200.218 124.107L210.063 121.061L210.429 120.949C210.434 120.948 210.44 120.948 210.445 120.949C210.455 120.947 210.465 120.947 210.475 120.949C210.49 120.955 210.503 120.965 210.512 120.978C210.514 120.988 210.514 120.998 210.512 121.008V121.008L210.558 121.375L210.762 123.003L213.248 142.756Z" fill="#CFC0C2"/>
<path d="M210.773 123.01L200.431 126.157L200.254 124.916L200.167 124.195V124.186C200.164 124.17 200.168 124.153 200.177 124.139C200.186 124.126 200.2 124.116 200.217 124.112L210.061 121.066L210.427 120.955C210.433 120.953 210.438 120.953 210.443 120.955C210.453 120.952 210.464 120.952 210.474 120.955C210.488 120.961 210.501 120.97 210.511 120.983C210.512 120.993 210.512 121.003 210.511 121.013V121.013L210.557 121.38L210.773 123.01Z" fill="#A39092"/>
<path d="M203.205 95.1428L153.508 110.313L153.275 108.473V108.442C153.263 108.361 153.281 108.279 153.325 108.21C153.368 108.141 153.434 108.09 153.512 108.066L200.76 93.4543L202.53 92.9228C202.556 92.9156 202.583 92.9115 202.61 92.9104C202.656 92.9072 202.703 92.9145 202.746 92.9317C202.82 92.9569 202.883 93.007 202.923 93.0734C202.947 93.1142 202.963 93.1594 202.969 93.2063V93.24L203.205 95.1428Z" fill="#7D6A6C"/>
<path d="M156.085 170.135L154.942 170.526L141.237 175.213C141.207 175.221 141.176 175.228 141.145 175.232H141.129C140.99 175.251 140.848 175.216 140.734 175.134C140.619 175.052 140.54 174.929 140.513 174.791C140.509 174.779 140.506 174.766 140.504 174.754L140.088 171.704L139.635 168.381L139.203 165.181L138.748 161.857L138.328 158.771L137.875 155.443L137.487 152.58L137.034 149.256L136.613 146.17L136.159 142.843L135.725 139.654L135.272 136.326L134.853 133.24L134.398 129.916L133.886 126.158L148.04 121.786L149.81 121.254C149.882 121.234 149.957 121.237 150.026 121.263C150.1 121.289 150.162 121.339 150.204 121.405C150.228 121.445 150.243 121.49 150.248 121.537V121.571L156.085 170.135Z" fill="#A39092"/>
<path d="M149.532 129.876L148.066 130.322L134.999 134.358L134.542 131.034L146.972 127.193L148.742 126.662C148.768 126.653 148.795 126.649 148.822 126.649C148.868 126.645 148.915 126.651 148.958 126.669C149.031 126.695 149.093 126.745 149.135 126.811C149.159 126.851 149.175 126.897 149.181 126.944V126.977L149.532 129.876Z" fill="#7D6A6C"/>
<path d="M168.901 109.872L167.839 110.195L158.391 113.113L158.062 110.71L167.051 107.932L168.327 107.544C168.346 107.541 168.365 107.541 168.384 107.544C168.418 107.541 168.452 107.545 168.483 107.558C168.536 107.577 168.581 107.614 168.611 107.661C168.628 107.69 168.639 107.723 168.643 107.757V107.782L168.901 109.872Z" fill="#CFC0C2"/>
<path d="M182.498 117.301L181.435 117.624L171.986 120.542L171.656 118.138L180.646 115.361L181.922 114.971C181.941 114.969 181.96 114.969 181.979 114.971C182.013 114.969 182.047 114.975 182.078 114.987C182.131 115.006 182.176 115.042 182.206 115.09C182.223 115.119 182.234 115.152 182.237 115.186V115.211L182.498 117.301Z" fill="#CFC0C2"/>
<path d="M179.03 149.376L177.968 149.698L168.518 152.616L168.191 150.212L177.18 147.436L178.456 147.046C178.475 147.041 178.494 147.038 178.513 147.037C178.547 147.035 178.581 147.04 178.612 147.053C178.665 147.071 178.71 147.108 178.74 147.156C178.757 147.185 178.768 147.218 178.772 147.251V147.276L179.03 149.376Z" fill="#CFC0C2"/>
<path d="M191.932 120.432L190.87 120.754L181.424 123.665L181.094 121.263L190.084 118.483L191.36 118.095C191.378 118.089 191.398 118.086 191.417 118.086C191.451 118.082 191.485 118.087 191.516 118.1C191.569 118.119 191.614 118.155 191.643 118.203C191.661 118.232 191.672 118.265 191.675 118.299V118.324L191.932 120.432Z" fill="#FCBD58"/>
<path d="M179.973 136.601L178.91 136.924L162.798 141.885L162.469 139.48L178.126 134.656L179.403 134.268C179.421 134.266 179.441 134.266 179.459 134.268C179.493 134.265 179.527 134.27 179.558 134.282C179.611 134.302 179.656 134.338 179.686 134.385C179.703 134.415 179.714 134.448 179.718 134.482V134.505L179.973 136.601Z" fill="#FCBD58"/>
<path d="M164.38 117.613L159.362 119.153L159.035 116.75L163.815 115.285C163.834 115.28 163.853 115.277 163.872 115.276C163.906 115.273 163.941 115.279 163.973 115.292C164.025 115.311 164.069 115.347 164.098 115.393C164.116 115.423 164.127 115.456 164.132 115.491V115.514L164.38 117.613Z" fill="#D3E7F0"/>
<path d="M169.376 121.362L164.358 122.902L164.031 120.499L168.811 119.034C168.83 119.029 168.85 119.026 168.87 119.025C168.904 119.022 168.938 119.028 168.969 119.041C169.011 119.056 169.049 119.082 169.077 119.117C169.105 119.152 169.123 119.195 169.128 119.24V119.263L169.376 121.362Z" fill="#D3E7F0"/>
<path d="M166.878 133.651L161.86 135.191L161.531 132.786L166.311 131.323C166.329 131.317 166.349 131.314 166.368 131.314C166.401 131.311 166.436 131.315 166.467 131.328C166.52 131.347 166.565 131.383 166.594 131.431C166.612 131.46 166.623 131.493 166.626 131.527V131.552L166.878 133.651Z" fill="#D3E7F0"/>
<path d="M178.806 124.557L173.793 126.102L173.466 123.698L178.246 122.234C178.265 122.227 178.285 122.224 178.305 122.224C178.339 122.222 178.372 122.227 178.404 122.24C178.456 122.259 178.501 122.295 178.53 122.342C178.548 122.371 178.559 122.404 178.563 122.438V122.463L178.806 124.557Z" fill="#4A6144"/>
<path d="M172.463 145.071L167.445 146.611L167.12 144.207L171.9 142.741C171.919 142.739 171.938 142.739 171.957 142.741C171.991 142.739 172.025 142.745 172.056 142.757C172.109 142.776 172.154 142.812 172.183 142.86C172.201 142.89 172.212 142.922 172.217 142.956V142.981L172.463 145.071Z" fill="#C95447"/>
<path d="M174.268 157.012L169.245 158.551L168.917 156.147L173.698 154.683C173.716 154.678 173.735 154.675 173.755 154.675C173.788 154.672 173.822 154.677 173.854 154.689C173.906 154.708 173.951 154.744 173.981 154.792C173.999 154.821 174.01 154.855 174.013 154.889V154.912L174.268 157.012Z" fill="#C95447"/>
<path d="M179.54 143.093L174.522 144.632L174.201 142.225L178.982 140.761C179.001 140.758 179.02 140.758 179.039 140.761C179.072 140.757 179.106 140.762 179.138 140.775C179.191 140.794 179.236 140.83 179.265 140.878C179.283 140.907 179.294 140.94 179.297 140.974V140.998L179.54 143.093Z" fill="#CFC0C2"/>
<path d="M171.274 126.644L164.082 128.873L163.756 126.468L170.705 124.314C170.725 124.311 170.744 124.311 170.764 124.314C170.798 124.312 170.831 124.317 170.863 124.33C170.905 124.345 170.942 124.372 170.97 124.407C170.998 124.442 171.016 124.484 171.022 124.528V124.553L171.274 126.644Z" fill="#D3E7F0"/>
<path d="M178.274 113.299L175.936 114.008L175.618 111.612L177.71 110.971C177.729 110.965 177.748 110.962 177.767 110.962C177.801 110.959 177.835 110.963 177.866 110.976C177.919 110.995 177.964 111.031 177.994 111.079C178.011 111.108 178.022 111.141 178.026 111.175V111.199L178.274 113.299Z" fill="#FCBD58"/>
<path d="M174.307 114.601L167.375 116.759L167.048 114.355L173.735 112.271C173.754 112.266 173.774 112.263 173.793 112.263C173.827 112.261 173.861 112.266 173.893 112.279C173.935 112.294 173.972 112.32 174 112.355C174.028 112.39 174.046 112.432 174.052 112.477V112.502L174.307 114.601Z" fill="#4A6144"/>
<path d="M212.522 83.154V83.1309C212.518 83.0993 212.507 83.069 212.49 83.0424C212.464 82.9973 212.422 82.9633 212.373 82.9467C212.344 82.9335 212.311 82.9286 212.279 82.9325C212.262 82.9294 212.244 82.9294 212.226 82.9325L211.036 83.2869L210.836 83.3489C210.873 83.7192 210.909 84.0895 210.939 84.4598C210.969 84.8301 211.015 85.2269 211.065 85.6149L211.773 85.397L212.763 85.0958L212.522 83.154Z" fill="#7D6A6C"/>
<path d="M152.005 149.037L150.544 149.489L137.6 153.488L137.145 150.164L149.45 146.362L151.221 145.83C151.248 145.823 151.276 145.819 151.304 145.818C151.349 145.814 151.395 145.822 151.437 145.839C151.511 145.864 151.573 145.914 151.614 145.981C151.635 146.023 151.65 146.067 151.66 146.114V146.147L152.005 149.037Z" fill="#7D6A6C"/>
<path d="M191.382 174.007L181.76 177.228L181.357 177.361L178.54 178.306L176.546 163.728L179.36 162.886L179.763 162.766L189.512 159.846L191.382 174.007Z" fill="#2B1919"/>
<path d="M129.781 106.316L139.567 177.106C139.599 177.286 139.685 177.451 139.813 177.581C139.927 177.707 140.08 177.79 140.247 177.818H140.272C140.036 177.839 139.799 177.839 139.564 177.818C139.535 177.811 139.51 177.793 139.493 177.769C139.309 177.613 139.189 177.395 139.156 177.156L129.369 106.373C129.349 106.236 129.359 106.097 129.398 105.964C129.437 105.831 129.503 105.708 129.594 105.604C129.714 105.449 129.88 105.336 130.068 105.281L209.689 81.1483L214.696 79.6353C214.756 79.7299 214.794 79.8363 214.808 79.9471L214.82 80.0321L209.686 81.5806L130.187 105.676C130.054 105.718 129.941 105.804 129.866 105.922C129.792 106.039 129.762 106.179 129.781 106.316V106.316Z" fill="#87423A"/>
<path d="M182.759 179.925H172.953C172.786 179.924 172.624 179.865 172.497 179.756C172.369 179.648 172.284 179.498 172.256 179.333C172.229 179.168 172.261 178.998 172.346 178.854C172.432 178.71 172.565 178.601 172.723 178.546L193.439 171.459C193.513 171.433 193.591 171.42 193.669 171.42H203.475C203.643 171.42 203.806 171.479 203.934 171.588C204.062 171.697 204.148 171.847 204.175 172.013C204.203 172.179 204.17 172.35 204.084 172.494C203.997 172.638 203.862 172.747 203.703 172.801L182.987 179.888C182.914 179.912 182.837 179.925 182.759 179.925V179.925Z" fill="#2B1919"/>
<path d="M149.332 134.335L137.95 137.909C137.902 137.929 137.864 137.966 137.842 138.014C137.82 138.061 137.817 138.115 137.832 138.164C137.848 138.214 137.882 138.256 137.927 138.282C137.972 138.308 138.025 138.316 138.076 138.305L149.457 134.734C149.509 134.716 149.552 134.679 149.576 134.63C149.601 134.581 149.605 134.525 149.589 134.473C149.573 134.421 149.536 134.377 149.488 134.351C149.44 134.326 149.384 134.32 149.332 134.335V134.335Z" fill="#7D6A6C"/>
<path d="M210.161 128.448L205.526 129.925C205.478 129.946 205.439 129.983 205.418 130.03C205.396 130.078 205.392 130.131 205.408 130.181C205.424 130.231 205.458 130.273 205.503 130.299C205.548 130.325 205.601 130.333 205.652 130.322L210.287 128.846C210.339 128.829 210.381 128.792 210.406 128.743C210.431 128.694 210.435 128.638 210.419 128.586C210.402 128.534 210.366 128.49 210.318 128.464C210.27 128.438 210.214 128.433 210.161 128.448V128.448Z" fill="#7D6A6C"/>
<path d="M211.514 140.424L206.88 141.9C206.83 141.919 206.789 141.956 206.766 142.004C206.742 142.052 206.738 142.107 206.754 142.158C206.77 142.209 206.804 142.252 206.851 142.278C206.897 142.304 206.952 142.312 207.004 142.299L211.639 140.821C211.687 140.801 211.726 140.763 211.748 140.716C211.77 140.669 211.773 140.615 211.757 140.565C211.742 140.516 211.708 140.474 211.663 140.448C211.618 140.421 211.565 140.413 211.514 140.424V140.424Z" fill="#7D6A6C"/>
<path d="M210.611 133.863L205.976 135.339C205.924 135.357 205.882 135.394 205.857 135.443C205.832 135.492 205.828 135.548 205.844 135.6C205.861 135.652 205.897 135.696 205.945 135.722C205.993 135.747 206.049 135.753 206.102 135.738L210.735 134.26C210.788 134.244 210.832 134.207 210.857 134.158C210.883 134.11 210.888 134.053 210.872 134C210.855 133.947 210.818 133.903 210.77 133.878C210.721 133.852 210.664 133.847 210.611 133.863V133.863Z" fill="#7D6A6C"/>
<path d="M210.887 135.808L206.248 137.285C206.195 137.302 206.151 137.338 206.126 137.387C206.1 137.436 206.095 137.493 206.112 137.546C206.128 137.598 206.165 137.642 206.214 137.668C206.262 137.693 206.319 137.699 206.372 137.682L211.007 136.204C211.054 136.184 211.091 136.147 211.112 136.1C211.133 136.054 211.136 136.002 211.122 135.953C211.107 135.904 211.075 135.863 211.032 135.836C210.988 135.809 210.937 135.799 210.887 135.808V135.808Z" fill="#7D6A6C"/>
<path d="M149.821 138.015L138.438 141.589C138.385 141.605 138.341 141.642 138.315 141.691C138.29 141.74 138.285 141.797 138.301 141.849C138.318 141.902 138.354 141.946 138.403 141.971C138.452 141.997 138.509 142.002 138.561 141.986L149.946 138.412C149.999 138.395 150.043 138.358 150.068 138.309C150.094 138.26 150.098 138.203 150.082 138.151C150.065 138.098 150.028 138.054 149.979 138.029C149.93 138.003 149.873 137.998 149.821 138.015V138.015Z" fill="#7D6A6C"/>
<path d="M150.094 141.694L138.713 145.267C138.665 145.288 138.626 145.325 138.605 145.372C138.583 145.42 138.579 145.473 138.595 145.523C138.611 145.573 138.645 145.615 138.69 145.641C138.735 145.667 138.788 145.675 138.839 145.664L150.22 142.091C150.268 142.07 150.307 142.033 150.328 141.986C150.35 141.938 150.354 141.885 150.338 141.835C150.322 141.785 150.288 141.743 150.243 141.717C150.198 141.691 150.145 141.683 150.094 141.694V141.694Z" fill="#7D6A6C"/>
<path d="M151.968 152.324L140.587 155.898C140.539 155.918 140.5 155.955 140.479 156.003C140.457 156.05 140.454 156.104 140.469 156.153C140.485 156.203 140.519 156.245 140.564 156.271C140.609 156.297 140.662 156.306 140.713 156.295L152.094 152.721C152.142 152.701 152.181 152.663 152.202 152.616C152.224 152.569 152.228 152.515 152.212 152.465C152.196 152.416 152.162 152.374 152.117 152.347C152.072 152.321 152.019 152.313 151.968 152.324V152.324Z" fill="#7D6A6C"/>
<path d="M152.456 155.997L141.075 159.57C141.022 159.587 140.978 159.623 140.953 159.672C140.927 159.721 140.922 159.778 140.938 159.831C140.955 159.883 140.991 159.927 141.04 159.953C141.089 159.978 141.146 159.984 141.199 159.967L152.58 156.399C152.633 156.382 152.678 156.345 152.704 156.296C152.73 156.247 152.735 156.189 152.719 156.136C152.702 156.082 152.665 156.038 152.616 156.012C152.567 155.986 152.509 155.98 152.456 155.997V155.997Z" fill="#7D6A6C"/>
<path d="M152.731 159.677L141.349 163.248C141.298 163.266 141.255 163.303 141.23 163.352C141.206 163.401 141.201 163.457 141.218 163.509C141.234 163.561 141.27 163.605 141.318 163.631C141.366 163.656 141.423 163.662 141.475 163.647L152.856 160.074C152.904 160.053 152.943 160.016 152.965 159.968C152.987 159.921 152.99 159.867 152.974 159.818C152.959 159.768 152.925 159.726 152.88 159.7C152.835 159.674 152.782 159.666 152.731 159.677V159.677Z" fill="#7D6A6C"/>
<path d="M202.997 129.325C201.659 129.325 201.657 131.408 202.997 131.408C204.338 131.408 204.339 129.325 202.997 129.325Z" fill="#D3E7F0"/>
<path d="M203.803 134.662C202.463 134.662 202.461 136.745 203.803 136.745C205.145 136.745 205.144 134.662 203.803 134.662Z" fill="#FCBD58"/>
<path d="M204.585 140.833C203.245 140.833 203.243 142.914 204.585 142.914C205.927 142.914 205.925 140.833 204.585 140.833Z" fill="#C95447"/>
<path d="M179.942 164.063L179.546 164.24L181.357 177.362L181.761 177.229L179.942 164.063Z" fill="#87423A"/>
</svg>
