<svg width="452" height="334" viewBox="0 0 452 334" fill="none" xmlns="http://www.w3.org/2000/svg">
<rect width="452" height="334" fill="white"/>
<g clip-path="url(#clip0_469_2706)">
<path d="M361.388 157.803C359.092 146.274 355.046 134.487 347.225 125.268C342.889 120.157 337.139 115.913 330.701 113.517C324.395 110.984 316.22 108.222 312.768 101.181C308.495 91.8668 299.562 82.4134 291.197 76.5988C281.474 69.8496 270.738 64.6886 259.391 61.3092C227.371 51.6668 184.065 57.8812 156.293 82.885C136.213 100.959 128.401 122.503 124.871 133.106C122.685 139.672 121.184 146.408 120.017 153.214C119.777 153.731 119.55 154.246 119.298 154.753C117.605 158.234 115.384 161.433 112.714 164.238C109.955 167.11 106.832 169.636 103.994 172.432C93.8581 182.417 88.0841 196.248 87.9954 210.171C87.9427 219.131 90.3923 227.96 94.7977 235.785C94.7809 235.762 94.7616 235.74 94.7425 235.716C94.6466 235.596 94.4382 235.716 94.534 235.836C94.9031 236.314 95.2794 236.793 95.6605 237.272C97.7316 240.695 100.166 243.885 102.92 246.788C105.535 249.533 108.427 252.001 111.549 254.154C111.945 254.429 116.048 257.548 125.93 261.416C127.934 262.199 130.177 263.016 132.675 263.844C139.976 266.266 149.453 268.802 161.547 271.025C163.215 271.332 164.935 271.631 166.707 271.923C170.643 272.574 174.834 273.185 179.281 273.754L179.583 273.793C181.661 274.053 183.794 274.303 185.983 274.544L186.155 274.566C189.671 274.946 193.34 275.296 197.164 275.617C199.334 275.797 201.553 275.966 203.822 276.122H203.858C214.064 276.823 225.303 277.271 237.654 277.381C239.731 277.4 241.848 277.409 244.005 277.407C246.231 277.407 248.493 277.395 250.791 277.372C257.413 277.304 263.588 276.924 269.326 276.304C270.335 276.195 271.332 276.08 272.317 275.959C278.459 275.198 284.55 274.075 290.559 272.596L291.082 272.467C295.494 271.351 299.526 270.111 303.19 268.811C307.318 267.355 311.36 265.669 315.299 263.762C318.501 262.206 321.241 260.684 323.547 259.293C324.745 258.575 325.833 257.883 326.802 257.244C326.905 257.182 327.003 257.117 327.099 257.052L327.413 256.842C328.384 256.198 329.227 255.609 329.951 255.099C334.235 252.045 338.144 248.499 341.597 244.533C342.249 243.795 342.884 243.051 343.503 242.29C349.581 234.8 354.242 226.267 357.256 217.109C359.487 210.406 361.33 203.54 362.289 196.639C364.099 183.748 363.929 170.582 361.388 157.803Z" fill="#00CAAA"/>
<path d="M270.239 270.343C265.961 259.034 260.829 247.041 256.192 241.083C251.99 235.689 249.399 232.64 246.19 230.816C242.515 228.721 238.026 228.235 229.369 227.672C224.067 228.819 234.618 233.726 231.72 238.354C228.987 242.723 231.411 248.494 233.659 253.545L233.767 253.785C234.093 254.519 234.414 255.238 234.714 255.939C237.007 261.249 239.3 266.558 241.595 271.868C241.691 272.095 241.789 272.318 241.885 272.545L241.995 272.799C242.343 273.603 242.69 274.412 243.04 275.219C243.28 275.755 243.603 276.509 243.999 277.405C246.225 277.405 248.486 277.393 250.784 277.369C257.407 277.302 263.581 276.921 269.319 276.301C270.329 276.193 271.326 276.078 272.31 275.956C271.651 274.123 270.956 272.241 270.239 270.343Z" fill="#212333"/>
<path d="M294.684 270.188L290.437 268.66L285.226 219.39L289.474 220.917L294.684 270.188Z" fill="#212333"/>
<path d="M327.094 257.043C326.998 257.107 326.9 257.172 326.797 257.234C325.838 257.873 324.745 258.56 323.542 259.283L320.876 233.293L315.589 181.825L319.522 183.285L323.741 224.371L327.017 256.281L327.094 257.043Z" fill="#212333"/>
<path d="M327.096 171.845V179.89L302.226 227.291H107.886V219.248L132.755 179.89L327.052 171.847L327.096 171.845Z" fill="#EEF1F0"/>
<path d="M327.096 171.845H132.755L107.886 219.248H302.226L327.096 171.845Z" fill="#EEF1F0"/>
<path d="M327.052 171.847L302.437 219.248H107.886V219.514H302.298H302.595L302.734 219.248L327.096 172.338V171.845L327.052 171.847Z" fill="#798D99"/>
<path d="M313.161 194.178L285.406 195.751V177.804L313.161 176.231V194.178Z" fill="#212333"/>
<path d="M313.161 188.623V193.176L299.264 193.978L295.643 194.184L286.302 194.723V190.169L296.285 189.595L299.897 189.387L313.161 188.623Z" fill="white"/>
<path d="M313.161 188.629L286.302 190.176V172.229L313.161 170.683V188.629Z" fill="#212333"/>
<path d="M295.956 191.322C295.674 192.637 295.469 193.967 295.34 195.305C295.212 196.431 295.144 197.562 295.136 198.695C296.346 198.599 297.554 198.484 298.76 198.348C298.768 197.262 298.836 196.178 298.961 195.1C299.086 193.761 299.289 192.431 299.57 191.116L295.956 191.322Z" fill="#E65C37"/>
<path d="M323.303 178.927L285.867 181.691L280.726 169.509V168.245L323.066 178.038L323.303 178.927Z" fill="#4B6B4D"/>
<path d="M323.066 178.039L286.231 180.761L280.726 168.245L280.858 164.698L317.56 165.524L323.198 174.491L323.066 178.039Z" fill="white"/>
<path d="M246.606 177.737H222.606L222.65 176.174L249.108 171.867L249.065 173.43L246.606 177.737Z" fill="#3E3C57"/>
<path d="M246.648 176.174H222.648L225.107 171.867H249.107L246.648 176.174Z" fill="#212333"/>
<path d="M243.859 156.008L243.85 156.398L243.416 171.865L241.199 174.491H229.085L229.646 154.325L243.859 156.008Z" fill="#212333"/>
<path d="M243.851 156.398L243.418 171.865L241.201 174.491L241.754 154.715L243.851 156.398Z" fill="#3E3C57"/>
<path d="M299.23 159.525H169.386C168.946 159.526 168.511 159.439 168.106 159.268C167.701 159.098 167.334 158.848 167.028 158.533C166.722 158.219 166.482 157.846 166.323 157.437C166.164 157.027 166.089 156.59 166.102 156.152L168.061 86.1433C168.09 85.2782 168.454 84.4582 169.075 83.8549C169.697 83.2516 170.528 82.9119 171.394 82.9068L300.665 82.8613C302.521 82.8613 304.522 84.7118 304.469 86.5646L302.552 156.29C302.521 157.153 302.159 157.971 301.54 158.573C300.922 159.176 300.094 159.516 299.23 159.525V159.525Z" fill="#212333"/>
<path d="M297.488 89.5044C296.225 88.4666 295.213 87.1573 294.528 85.6742C294.511 85.6407 294.499 85.6072 294.484 85.5713H171.659C171.421 85.5724 171.194 85.6653 171.023 85.8304C170.853 85.9955 170.753 86.2201 170.745 86.457L170.41 98.4263L168.809 155.656C168.805 155.771 168.825 155.886 168.867 155.993C168.909 156.1 168.972 156.197 169.053 156.279C169.133 156.361 169.23 156.426 169.336 156.47C169.442 156.514 169.557 156.536 169.672 156.535H298.396C298.632 156.534 298.858 156.442 299.028 156.279C299.197 156.115 299.296 155.892 299.304 155.656L301.124 90.7468C299.844 90.9311 298.463 90.2752 297.488 89.5044Z" fill="white"/>
<path d="M301.171 89.062L301.109 91.2763H170.613L170.748 86.4527C170.757 86.2168 170.857 85.9935 171.026 85.8291C171.196 85.6646 171.422 85.5716 171.659 85.5694H297.77C298.225 85.5678 298.676 85.6579 299.096 85.8341C299.516 86.0103 299.895 86.2691 300.213 86.595C300.53 86.9209 300.779 87.3073 300.943 87.7311C301.108 88.155 301.186 88.6076 301.171 89.062V89.062Z" fill="#4D4B73"/>
<path d="M301.108 91.2729L300.876 99.6131L170.356 99.6155L170.61 91.2729H301.108Z" fill="#EEF1F0"/>
<path d="M175.453 98.5437L173.828 156.528H169.672C169.557 156.529 169.442 156.507 169.336 156.463C169.23 156.419 169.133 156.354 169.053 156.272C168.972 156.19 168.909 156.093 168.867 155.986C168.825 155.879 168.805 155.764 168.809 155.649L170.41 98.4192C170.426 97.8504 170.664 97.3104 171.072 96.9139C171.481 96.5174 172.028 96.2957 172.598 96.2959H173.262C173.555 96.2958 173.845 96.3543 174.115 96.468C174.384 96.5817 174.629 96.7482 174.833 96.9577C175.037 97.1673 175.197 97.4156 175.304 97.688C175.41 97.9604 175.461 98.2514 175.453 98.5437V98.5437Z" fill="#DBE2E7"/>
<path d="M175.636 90.2746H180.94C181.381 90.2749 181.806 90.1041 182.124 89.7983C182.441 89.4924 182.628 89.0754 182.644 88.6348V88.6348C182.653 88.406 182.615 88.1779 182.533 87.964C182.451 87.7501 182.327 87.5549 182.168 87.39C182.009 87.2251 181.818 87.0939 181.607 87.0043C181.396 86.9146 181.169 86.8683 180.94 86.8682H175.636C175.194 86.8685 174.77 87.0398 174.452 87.346C174.134 87.6522 173.948 88.0696 173.932 88.5103V88.5103C173.923 88.739 173.961 88.9671 174.043 89.1808C174.125 89.3945 174.249 89.5896 174.408 89.7543C174.567 89.919 174.758 90.05 174.969 90.1394C175.18 90.2288 175.407 90.2748 175.636 90.2746V90.2746Z" fill="#212333"/>
<path d="M187.843 90.2746H190.882C191.324 90.2749 191.748 90.1043 192.066 89.7985C192.385 89.4927 192.572 89.0756 192.589 88.6348V88.6348C192.597 88.4059 192.559 88.1777 192.476 87.9638C192.394 87.7499 192.27 87.5548 192.111 87.3899C191.951 87.2251 191.761 87.0939 191.55 87.0043C191.338 86.9146 191.111 86.8683 190.882 86.8682H187.843C187.401 86.8679 186.976 87.0389 186.658 87.3452C186.34 87.6515 186.153 88.0692 186.136 88.5103V88.5103C186.128 88.7392 186.167 88.9672 186.249 89.181C186.331 89.3947 186.455 89.5898 186.615 89.7544C186.774 89.9191 186.965 90.05 187.176 90.1394C187.387 90.2288 187.614 90.2748 187.843 90.2746V90.2746Z" fill="#212333"/>
<path d="M217.602 90.2746H220.641C221.083 90.2749 221.507 90.1043 221.825 89.7985C222.144 89.4927 222.331 89.0756 222.348 88.6348V88.6348C222.356 88.4059 222.317 88.1777 222.235 87.9638C222.153 87.7499 222.029 87.5548 221.87 87.3899C221.71 87.2251 221.519 87.0939 221.308 87.0043C221.097 86.9146 220.87 86.8683 220.641 86.8682H217.602C217.16 86.8679 216.735 87.0389 216.417 87.3452C216.098 87.6515 215.912 88.0692 215.895 88.5103V88.5103C215.887 88.7392 215.925 88.9672 216.008 89.181C216.09 89.3947 216.214 89.5898 216.373 89.7544C216.533 89.9191 216.724 90.05 216.935 90.1394C217.146 90.2288 217.373 90.2748 217.602 90.2746V90.2746Z" fill="#212333"/>
<path d="M198.151 90.2746H209.241C209.682 90.2749 210.107 90.1041 210.424 89.7983C210.742 89.4924 210.929 89.0754 210.945 88.6348C210.953 88.406 210.916 88.1779 210.834 87.964C210.752 87.7501 210.628 87.5549 210.469 87.39C210.31 87.2251 210.119 87.0939 209.908 87.0043C209.697 86.9146 209.47 86.8683 209.241 86.8682H198.151C197.709 86.8685 197.285 87.0398 196.967 87.346C196.649 87.6522 196.463 88.0696 196.447 88.5103V88.5103C196.439 88.739 196.477 88.9668 196.559 89.1804C196.641 89.394 196.765 89.5889 196.924 89.7536C197.083 89.9182 197.273 90.0492 197.484 90.1387C197.695 90.2282 197.922 90.2744 198.151 90.2746V90.2746Z" fill="#212333"/>
<path d="M171.271 102.053H174.147L174.229 99.1895H171.352L171.271 102.053Z" fill="#A8B6BE"/>
<path d="M171.127 107.086H174.004L174.083 104.223H171.207L171.127 107.086Z" fill="#A8B6BE"/>
<path d="M170.99 112.117H173.866L173.945 109.254H171.069L170.99 112.117Z" fill="#A8B6BE"/>
<path d="M170.852 117.149H173.729L173.81 114.286H170.934L170.852 117.149Z" fill="#A8B6BE"/>
<path d="M297.699 123.733L296.925 151.408C296.905 152.088 296.621 152.734 296.133 153.208C295.645 153.682 294.991 153.948 294.31 153.948H276.187C275.838 153.948 275.492 153.878 275.17 153.742C274.847 153.606 274.556 153.407 274.312 153.156C274.069 152.906 273.877 152.609 273.75 152.284C273.623 151.959 273.563 151.611 273.572 151.262L274.347 123.587C274.366 122.907 274.65 122.262 275.138 121.788C275.626 121.314 276.281 121.049 276.961 121.049H295.084C295.434 121.049 295.78 121.119 296.102 121.255C296.424 121.39 296.715 121.589 296.959 121.839C297.203 122.09 297.394 122.386 297.521 122.711C297.648 123.036 297.708 123.384 297.699 123.733Z" fill="#DBE2E7"/>
<path d="M297.418 133.915L297.41 134.178H274.056L274.063 133.915H297.418Z" fill="#212333"/>
<path d="M297.223 141.06L297.215 141.323H273.858L273.866 141.06H297.223Z" fill="#212333"/>
<path d="M297.023 147.947L297.016 148.213H273.661L273.668 147.947H297.023Z" fill="#212333"/>
<path d="M297.603 127.022L297.596 127.288H274.241L274.248 127.022H297.603Z" fill="#212333"/>
<path d="M298.418 98.2397L298.179 106.977C298.162 107.532 297.931 108.058 297.532 108.445C297.134 108.831 296.601 109.048 296.045 109.048H276.952C276.667 109.048 276.385 108.991 276.123 108.88C275.86 108.769 275.622 108.606 275.424 108.402C275.225 108.198 275.07 107.956 274.966 107.691C274.863 107.425 274.813 107.142 274.821 106.858L275.061 98.12C275.076 97.5656 275.307 97.039 275.705 96.6522C276.103 96.2654 276.637 96.0491 277.192 96.0493H296.28C296.566 96.0489 296.849 96.1057 297.112 96.2163C297.375 96.3269 297.613 96.4892 297.813 96.6934C298.012 96.8976 298.168 97.1396 298.272 97.4052C298.376 97.6708 298.426 97.9546 298.418 98.2397V98.2397Z" fill="#DBE2E7"/>
<path d="M283.218 111.882L283.156 114.108C283.146 114.52 282.976 114.912 282.681 115.2C282.387 115.488 281.991 115.649 281.579 115.65H271.452C271.241 115.65 271.031 115.608 270.836 115.526C270.642 115.444 270.465 115.324 270.318 115.173C270.171 115.021 270.055 114.842 269.979 114.645C269.902 114.448 269.866 114.238 269.872 114.027L269.935 111.803C269.946 111.392 270.117 111.001 270.412 110.714C270.707 110.427 271.102 110.267 271.514 110.266H281.641C281.851 110.267 282.059 110.309 282.253 110.391C282.447 110.473 282.622 110.593 282.769 110.743C282.916 110.894 283.031 111.072 283.109 111.267C283.186 111.463 283.223 111.672 283.218 111.882V111.882Z" fill="#DBE2E7"/>
<path d="M296.849 97.7603L296.775 100.451H276.889L276.965 97.7603H296.849Z" fill="#A8B6BE"/>
<path d="M296.664 104.268L296.59 106.958H276.703L276.78 104.268H296.664Z" fill="#A8B6BE"/>
<path d="M298.308 102.024L298.301 102.29H274.946L274.953 102.024H298.308Z" fill="#212333"/>
<path d="M266.943 106.884L266.926 107.542H188.741L188.758 106.884H266.943Z" fill="#C7D2D9"/>
<path d="M265.762 148.963L265.743 149.624H187.558L187.577 148.963H265.762Z" fill="#C7D2D9"/>
<path d="M266.944 106.884L265.748 149.624H265.084L266.28 106.884H266.944Z" fill="#C7D2D9"/>
<path d="M199.537 126.559H237.503L237.484 127.22H199.518L199.537 126.559Z" fill="#C7D2D9"/>
<path d="M266.391 126.559L266.375 127.22H245.378L245.398 126.559H266.391Z" fill="#C7D2D9"/>
<path d="M257.672 126.559L257.596 129.31H256.932L257.008 126.559H257.672Z" fill="#C7D2D9"/>
<path d="M256.777 135.057H257.441L257.034 149.623H256.37L256.777 135.057Z" fill="#C7D2D9"/>
<path d="M234.8 106.884L234.172 129.309H233.508L234.136 106.884H234.8Z" fill="#C7D2D9"/>
<path d="M207.699 107.069L207.071 129.497H206.409L207.035 107.069H207.699Z" fill="#C7D2D9"/>
<path d="M228.834 135.057H229.496L229.098 149.293H228.434L228.834 135.057Z" fill="#C7D2D9"/>
<path d="M189.418 106.884L188.222 149.624H187.558L188.754 106.884H189.418Z" fill="#C7D2D9"/>
<path d="M250.48 142.178L250.343 147.076C250.34 147.182 250.295 147.284 250.219 147.358C250.142 147.432 250.04 147.473 249.933 147.473H236.132C236.08 147.474 236.029 147.464 235.981 147.444C235.933 147.424 235.89 147.394 235.853 147.357C235.817 147.32 235.789 147.276 235.77 147.228C235.751 147.179 235.742 147.128 235.744 147.076L235.88 142.178C235.885 142.072 235.93 141.972 236.006 141.898C236.082 141.824 236.184 141.782 236.29 141.781H250.094C250.146 141.78 250.197 141.791 250.245 141.811C250.292 141.831 250.336 141.86 250.372 141.897C250.408 141.934 250.436 141.978 250.454 142.027C250.473 142.075 250.482 142.126 250.48 142.178V142.178Z" fill="#C7D2D9"/>
<path d="M265.547 108.947L265.46 111.41C265.454 111.518 265.407 111.619 265.329 111.693C265.25 111.768 265.146 111.809 265.038 111.81L262.443 111.826C262.391 111.828 262.339 111.818 262.291 111.799C262.243 111.78 262.2 111.751 262.163 111.714C262.127 111.677 262.098 111.633 262.08 111.585C262.061 111.537 262.052 111.485 262.054 111.434L262.143 108.956C262.145 108.85 262.188 108.749 262.263 108.674C262.338 108.599 262.439 108.556 262.546 108.554H265.163C265.215 108.552 265.266 108.561 265.314 108.58C265.362 108.6 265.405 108.629 265.442 108.666C265.478 108.703 265.506 108.747 265.524 108.795C265.542 108.843 265.55 108.895 265.547 108.947V108.947Z" fill="#C7D2D9"/>
<path d="M232.679 108.567L229.182 108.52C229.04 108.52 228.903 108.576 228.801 108.675C228.698 108.774 228.638 108.909 228.633 109.051L228.47 112.362C228.467 112.431 228.478 112.5 228.502 112.565C228.527 112.63 228.564 112.689 228.612 112.739C228.66 112.789 228.718 112.828 228.781 112.855C228.845 112.882 228.914 112.896 228.983 112.896L232.451 112.917C232.596 112.918 232.735 112.864 232.841 112.766C232.947 112.669 233.012 112.534 233.022 112.39L233.182 109.099C233.187 109.03 233.178 108.961 233.155 108.896C233.132 108.832 233.095 108.772 233.048 108.722C233.001 108.672 232.943 108.633 232.88 108.606C232.816 108.579 232.748 108.566 232.679 108.567V108.567Z" fill="#C7D2D9"/>
<path d="M232.529 114.047L229.032 114C228.89 114 228.753 114.056 228.65 114.155C228.548 114.254 228.488 114.389 228.483 114.531L228.112 125.239C228.108 125.308 228.119 125.377 228.144 125.442C228.168 125.507 228.206 125.567 228.254 125.617C228.302 125.667 228.36 125.706 228.424 125.733C228.489 125.76 228.557 125.773 228.627 125.773L232.095 125.796C232.239 125.796 232.377 125.741 232.483 125.644C232.588 125.546 232.654 125.413 232.666 125.27L233.032 114.579C233.037 114.51 233.028 114.441 233.005 114.376C232.982 114.312 232.945 114.252 232.898 114.202C232.851 114.152 232.793 114.113 232.73 114.086C232.666 114.059 232.598 114.046 232.529 114.047V114.047Z" fill="#C7D2D9"/>
<path d="M264.999 122.89L264.912 125.353C264.906 125.461 264.859 125.562 264.78 125.636C264.702 125.71 264.599 125.752 264.491 125.753L261.895 125.77C261.843 125.771 261.792 125.761 261.744 125.742C261.696 125.722 261.652 125.693 261.616 125.657C261.579 125.62 261.55 125.576 261.531 125.528C261.512 125.48 261.503 125.429 261.504 125.377L261.595 122.899C261.598 122.793 261.641 122.693 261.716 122.618C261.791 122.543 261.892 122.5 261.998 122.497H264.615C264.667 122.496 264.718 122.505 264.766 122.524C264.814 122.544 264.857 122.573 264.893 122.61C264.929 122.647 264.957 122.691 264.975 122.739C264.993 122.787 265.001 122.838 264.999 122.89Z" fill="#C7D2D9"/>
<path d="M234.777 136.636H231.543C231.412 136.639 231.286 136.692 231.193 136.785C231.099 136.877 231.046 137.003 231.042 137.134L230.932 140.196C230.932 140.323 230.983 140.445 231.073 140.534C231.162 140.624 231.284 140.675 231.412 140.675L234.619 140.653C234.752 140.652 234.879 140.6 234.976 140.509C235.072 140.417 235.13 140.293 235.139 140.16L235.247 137.115C235.249 137.052 235.238 136.99 235.216 136.931C235.193 136.873 235.159 136.82 235.115 136.775C235.071 136.73 235.018 136.695 234.96 136.671C234.902 136.647 234.839 136.635 234.777 136.636V136.636Z" fill="#C7D2D9"/>
<path d="M254.509 128.082H247.026C246.894 128.084 246.769 128.136 246.675 128.229C246.582 128.321 246.528 128.446 246.525 128.577L246.46 130.054C246.46 130.181 246.511 130.303 246.601 130.393C246.691 130.483 246.812 130.533 246.94 130.533L254.396 130.511C254.529 130.51 254.657 130.458 254.753 130.367C254.849 130.275 254.908 130.151 254.916 130.018L254.979 128.558C254.981 128.495 254.971 128.433 254.948 128.374C254.926 128.316 254.891 128.263 254.847 128.218C254.803 128.173 254.751 128.138 254.692 128.115C254.634 128.091 254.572 128.08 254.509 128.082V128.082Z" fill="#C7D2D9"/>
<path d="M264.616 112.679H254.394C254.265 112.68 254.142 112.73 254.05 112.819C253.958 112.909 253.904 113.03 253.9 113.158L253.675 121.197C253.673 121.26 253.684 121.323 253.707 121.382C253.73 121.441 253.766 121.495 253.811 121.54C253.855 121.585 253.909 121.62 253.968 121.643C254.027 121.667 254.09 121.678 254.154 121.676H264.376C264.505 121.674 264.627 121.624 264.719 121.535C264.811 121.446 264.865 121.325 264.87 121.197L265.095 113.158C265.097 113.095 265.086 113.032 265.063 112.973C265.04 112.914 265.004 112.86 264.96 112.815C264.915 112.77 264.861 112.735 264.802 112.712C264.743 112.688 264.68 112.677 264.616 112.679Z" fill="#C7D2D9"/>
<path d="M237.489 112.679H235.764C235.635 112.68 235.512 112.73 235.42 112.819C235.328 112.908 235.274 113.03 235.27 113.158L235.045 121.197C235.043 121.259 235.053 121.321 235.076 121.379C235.099 121.437 235.133 121.49 235.176 121.535C235.22 121.58 235.272 121.615 235.33 121.639C235.388 121.663 235.45 121.676 235.512 121.675H237.238C237.366 121.675 237.489 121.625 237.581 121.535C237.673 121.446 237.727 121.325 237.731 121.197L237.957 113.158C237.959 113.096 237.948 113.033 237.925 112.975C237.903 112.917 237.869 112.864 237.825 112.819C237.781 112.775 237.729 112.739 237.672 112.715C237.614 112.691 237.552 112.679 237.489 112.679Z" fill="#C7D2D9"/>
<path d="M263.072 145.931L264.031 143.597L259.388 141.823L258.429 144.16C258.301 144.46 258.235 144.783 258.235 145.109C258.234 145.435 258.3 145.758 258.427 146.059C258.554 146.359 258.741 146.631 258.976 146.858C259.21 147.085 259.488 147.262 259.793 147.379C260.421 147.61 261.114 147.589 261.726 147.318C262.338 147.048 262.821 146.55 263.072 145.931V145.931Z" fill="#C7D2D9"/>
<path d="M277.807 126.233C278.352 126.231 278.876 126.017 279.268 125.638C279.66 125.259 279.89 124.743 279.909 124.198V124.198C279.917 123.933 279.872 123.668 279.776 123.421C279.68 123.173 279.535 122.948 279.349 122.758C279.164 122.568 278.942 122.417 278.696 122.315C278.451 122.213 278.188 122.161 277.922 122.163V122.163C277.376 122.165 276.852 122.378 276.46 122.757C276.068 123.137 275.838 123.653 275.82 124.198C275.811 124.463 275.857 124.727 275.953 124.975C276.049 125.222 276.194 125.447 276.38 125.637C276.565 125.827 276.787 125.978 277.033 126.08C277.278 126.183 277.541 126.234 277.807 126.233Z" fill="#A8B6BE"/>
<path d="M277.627 132.596C278.173 132.593 278.696 132.38 279.087 132.001C279.479 131.621 279.708 131.106 279.727 130.561V130.561C279.736 130.296 279.691 130.031 279.595 129.784C279.499 129.536 279.354 129.31 279.168 129.12C278.983 128.93 278.761 128.779 278.515 128.677C278.27 128.575 278.006 128.524 277.74 128.526V128.526C277.195 128.529 276.671 128.742 276.28 129.121C275.888 129.501 275.659 130.017 275.641 130.561C275.632 130.827 275.677 131.091 275.773 131.338C275.869 131.586 276.014 131.811 276.2 132.001C276.385 132.192 276.608 132.342 276.853 132.444C277.098 132.546 277.362 132.598 277.627 132.596V132.596Z" fill="#A8B6BE"/>
<path d="M277.436 139.533C277.982 139.53 278.505 139.317 278.897 138.938C279.288 138.558 279.517 138.042 279.536 137.498V137.498C279.544 137.233 279.499 136.969 279.403 136.721C279.306 136.474 279.161 136.249 278.976 136.059C278.79 135.869 278.568 135.719 278.323 135.617C278.078 135.515 277.814 135.463 277.549 135.465V135.465C277.004 135.468 276.481 135.68 276.089 136.059C275.698 136.438 275.469 136.954 275.449 137.498C275.44 137.763 275.485 138.028 275.581 138.275C275.677 138.523 275.822 138.749 276.008 138.939C276.194 139.129 276.416 139.28 276.661 139.382C276.907 139.484 277.17 139.535 277.436 139.533V139.533Z" fill="#A8B6BE"/>
<path d="M277.235 146.728C277.781 146.726 278.304 146.512 278.695 146.133C279.087 145.754 279.316 145.238 279.335 144.694C279.344 144.428 279.299 144.164 279.202 143.916C279.106 143.669 278.961 143.443 278.776 143.253C278.59 143.063 278.368 142.913 278.123 142.81C277.877 142.708 277.614 142.657 277.348 142.659V142.659C276.802 142.661 276.278 142.874 275.887 143.253C275.495 143.633 275.265 144.149 275.246 144.694V144.694C275.238 144.959 275.283 145.223 275.379 145.471C275.476 145.718 275.621 145.944 275.807 146.134C275.993 146.324 276.215 146.475 276.46 146.577C276.706 146.679 276.969 146.73 277.235 146.728V146.728Z" fill="#A8B6BE"/>
<path d="M252.048 117.539L249.586 115.626L250.554 118.569L252.048 117.539Z" fill="#212333"/>
<path d="M288.524 86.9736C286.583 86.9736 286.58 89.9875 288.524 89.9875C290.468 89.9875 290.478 86.9736 288.524 86.9736Z" fill="#212333"/>
<path d="M295.639 86.8472C293.695 86.8472 293.692 89.861 295.639 89.861C297.585 89.861 297.582 86.8472 295.639 86.8472Z" fill="#212333"/>
<path d="M184.173 91.2729L183.907 99.6155H183.655L183.921 91.2729H184.173Z" fill="#A8B6BE"/>
<path d="M198.32 91.2729L198.054 99.6155H197.802L198.068 91.2729H198.32Z" fill="#A8B6BE"/>
<path d="M212.567 91.2729L212.303 99.6155H212.051L212.315 91.2729H212.567Z" fill="#A8B6BE"/>
<path d="M226.714 91.2729L226.45 99.6155H226.199L226.462 91.2729H226.714Z" fill="#A8B6BE"/>
<path d="M241.593 91.2729L241.329 99.6155H241.075L241.341 91.2729H241.593Z" fill="#A8B6BE"/>
<path d="M255.74 91.2729L255.474 99.6155H255.222L255.488 91.2729H255.74Z" fill="#A8B6BE"/>
<path d="M323.197 174.491L286.365 177.213L280.857 164.698V164.121L317.692 161.976L323.197 173.488V174.491Z" fill="#4B6B4D"/>
<path d="M264.163 205.609H197.347C197.212 205.609 197.079 205.574 196.962 205.507C196.844 205.44 196.747 205.343 196.678 205.227C196.61 205.111 196.573 204.978 196.571 204.844C196.569 204.709 196.603 204.576 196.668 204.458L207.979 184.237C208.046 184.116 208.144 184.015 208.264 183.945C208.383 183.875 208.519 183.839 208.657 183.839H275.471C275.606 183.84 275.739 183.875 275.856 183.942C275.974 184.009 276.071 184.105 276.14 184.222C276.208 184.338 276.245 184.47 276.247 184.605C276.249 184.74 276.215 184.873 276.15 184.991L264.839 205.212C264.772 205.332 264.674 205.433 264.555 205.503C264.437 205.572 264.301 205.609 264.163 205.609V205.609Z" fill="#212333"/>
<path d="M263.131 204.074H204.922C204.804 204.075 204.688 204.045 204.586 203.986C204.483 203.928 204.398 203.844 204.338 203.742C204.278 203.641 204.246 203.525 204.245 203.408C204.244 203.29 204.274 203.174 204.332 203.071L214.186 185.453C214.244 185.348 214.33 185.261 214.434 185.2C214.537 185.139 214.655 185.108 214.775 185.108H272.985C273.102 185.108 273.218 185.139 273.32 185.197C273.422 185.256 273.507 185.34 273.567 185.441C273.626 185.542 273.658 185.658 273.66 185.775C273.661 185.892 273.632 186.008 273.574 186.111L263.721 203.727C263.663 203.833 263.577 203.92 263.474 203.981C263.37 204.042 263.252 204.074 263.131 204.074V204.074Z" fill="#3E3C57"/>
<path d="M166.708 271.912C164.936 271.62 163.216 271.32 161.548 271.014L160.441 264.685L165.328 264.024L166.708 271.912Z" fill="#B9643C"/>
<path d="M215.291 255.284C215.034 253.697 208.69 250.341 207.734 249.06C205.936 246.638 203.256 244.991 200.414 244.076C193.911 241.986 187.056 243.732 180.76 245.718C179.676 246.061 178.603 246.41 177.517 246.774C175.518 247.449 173.528 248.15 171.546 248.876C171.462 248.907 171.374 248.936 171.29 248.969C167.884 250.212 164.495 251.509 161.106 252.788C158.805 253.657 156.501 254.516 154.186 255.347C149.992 256.852 145.766 258.265 141.466 259.45C138.508 260.266 135.04 260.735 133.053 263.33C132.924 263.5 132.797 263.672 132.672 263.845C139.973 266.267 149.45 268.802 161.544 271.026C163.213 271.333 164.933 271.632 166.705 271.924C170.64 272.575 174.832 273.186 179.278 273.755L179.58 273.794C181.658 274.054 183.791 274.304 185.98 274.545L186.153 274.567C189.668 274.947 193.337 275.297 197.161 275.618C199.331 275.798 201.551 275.966 203.82 276.123C205.593 273.71 207.302 271.242 209.035 268.795C209.721 267.826 210.449 266.859 211.164 265.877C212.434 264.134 213.659 262.341 214.519 260.398C215.219 258.782 215.574 257.029 215.291 255.284Z" fill="#AB8571"/>
<path d="M252.096 241.352C251.814 239.797 251.365 238.276 250.757 236.816C249.534 233.891 247.418 231.426 244.709 229.773C238.478 225.964 230.911 226.47 223.943 227.109C216.976 227.748 210.056 228.629 203.16 229.742C201.655 227.827 200.126 225.912 198.63 223.982C197.135 222.053 195.658 220.116 194.258 218.122C193.578 217.152 192.916 216.169 192.274 215.173C191.778 214.405 191.315 213.361 190.45 212.947C190.05 212.793 189.624 212.719 189.196 212.729C188.501 212.695 187.801 212.676 187.106 212.655C185.71 212.608 184.313 212.576 182.917 212.559C180.125 212.517 177.329 212.526 174.528 212.585C168.438 212.71 162.358 213.062 156.288 213.643C156.328 213.471 156.369 213.301 156.412 213.131C156.455 212.961 156.194 212.892 156.153 213.059C156.106 213.263 156.055 213.464 156.007 213.667L155.712 213.696C155.545 213.71 155.545 213.978 155.712 213.962L155.952 213.938C155.676 215.055 155.404 216.178 155.137 217.308C154.759 218.881 154.392 220.451 154.044 222.031C154.02 222.125 154.001 222.218 153.98 222.316C152.767 227.822 151.779 233.402 151.441 239.054C151.187 243.222 151.01 247.768 152.4 251.77C152.844 253.035 153.449 254.238 154.2 255.349C155.378 257.085 156.827 258.621 158.493 259.897C161.556 262.291 165.204 263.792 168.907 264.838C171.556 265.578 174.249 266.148 176.97 266.545L177.274 266.591C178.631 266.787 179.997 266.943 181.349 267.069C182.14 267.141 182.936 267.194 183.731 267.235C187.245 267.42 190.767 267.284 194.256 266.83C198.097 266.279 201.872 265.335 205.521 264.015C206 263.85 206.456 263.682 206.923 263.507C210.156 262.31 210.842 261.939 214.032 260.62C213.162 261.954 208.589 268.922 203.858 276.125C214.063 276.827 225.302 277.274 237.653 277.385C239.091 275.388 240.438 273.511 241.596 271.879C243.103 269.751 244.295 268.034 244.968 267.012C246.941 264.034 248.892 260.989 250.289 257.69C250.33 257.604 250.366 257.516 250.402 257.427C252.48 252.345 253.062 246.777 252.08 241.376L252.096 241.352Z" fill="#212333"/>
<path d="M258.672 169.874L257.649 169.26L244.605 190.951L245.628 191.565L258.672 169.874Z" fill="#212333"/>
<path d="M155.904 202.786C155.519 200.332 155.326 197.85 155.326 195.366C155.326 195.345 155.321 195.325 155.312 195.307C155.302 195.289 155.289 195.274 155.273 195.262C155.257 195.249 155.238 195.241 155.218 195.237C155.198 195.233 155.178 195.234 155.158 195.239C148.514 196.51 141.765 197.795 134.968 197.295C133.321 197.175 131.681 196.948 130.028 196.969C128.597 196.997 127.176 197.21 125.8 197.601C122.943 198.396 120.299 199.797 117.706 201.204C116.536 201.839 115.309 202.492 114.436 203.529C114.137 203.885 113.9 204.29 113.736 204.725C113.725 204.746 113.719 204.769 113.72 204.793C113.687 204.878 113.676 204.97 113.689 205.06C113.701 205.151 113.737 205.237 113.791 205.31C114.187 207.445 115.949 209.037 117.972 209.755C120.785 210.756 124.057 210.473 126.972 210.16C133.249 209.511 139.313 207.675 145.331 205.865C148.804 204.819 152.282 203.778 155.81 202.949C155.844 202.939 155.872 202.917 155.89 202.886C155.907 202.856 155.912 202.82 155.904 202.786V202.786Z" fill="#FFA47A"/>
<path d="M211.247 127.497C211.12 126.439 210.049 125.822 209.375 125.127C208.861 124.639 208.414 124.083 208.048 123.476C207.888 123.157 207.794 122.809 207.772 122.453C207.861 121.856 207.91 121.254 207.921 120.651C207.933 119.99 207.793 119.335 207.513 118.736C207.384 118.468 207.209 118.161 207.007 117.831C206.049 116.275 204.505 114.3 204.472 114.345C203.05 116.227 203.383 118.317 203.753 120.495C204.136 122.769 204.582 125.077 205.457 127.224C205.839 128.188 206.33 129.104 206.921 129.956C207.192 130.348 207.495 130.718 207.827 131.059C208.021 131.249 208.424 131.701 208.736 131.701C209.004 131.701 209.138 131.416 209.277 131.222C209.625 130.758 210.025 130.336 210.382 129.879C210.907 129.211 211.353 128.385 211.247 127.497Z" fill="#FFA47A"/>
<path d="M209.885 135.871C209.684 132.424 209.135 128.989 208.502 125.613C207.934 122.576 207.999 120.014 206.618 117.235C205.87 115.729 205.281 114.544 203.862 113.429C202.36 112.343 200.677 111.532 198.891 111.035C195.43 110.163 191.746 110.678 188.273 111.64C188.264 111.617 188.249 111.597 188.229 111.582C188.21 111.567 188.186 111.557 188.162 111.554C188.137 111.551 188.112 111.555 188.089 111.565C188.067 111.575 188.047 111.591 188.033 111.612L187.956 111.729L187.803 111.772C187.779 111.78 187.757 111.794 187.74 111.814C187.724 111.833 187.714 111.857 187.71 111.882C187.707 111.908 187.712 111.934 187.723 111.957C187.734 111.979 187.752 111.999 187.774 112.012C186.142 114.645 185.876 117.853 185.878 120.799C185.878 124.187 186.26 127.593 186.741 130.923C187.202 134.085 187.858 137.351 189.268 140.218C189.843 141.391 190.66 142.33 191.959 142.768C193.541 143.299 195.353 143.385 197.014 143.627C200.046 144.068 204.948 144.664 207.915 143.148C210.844 141.662 210.048 138.684 209.885 135.871Z" fill="#FFA47A"/>
<path d="M191.352 149.773L190.547 151.424C190.439 151.712 190.304 151.989 190.144 152.25C189.904 152.573 189.665 152.49 189.296 152.449L185.607 152.035C183.125 151.759 180.644 151.486 178.162 151.216C179.684 148.085 181.242 144.968 182.716 141.815C183.991 139.094 185.113 136.276 185.444 133.274C188.754 133.609 192.723 132.077 195.345 134.742C197.644 137.071 197.689 140.671 199.566 143.269C197.85 143.388 196.009 143.573 194.581 144.604C192.934 145.794 192.208 148.013 191.352 149.773Z" fill="#FFA47A"/>
<path d="M235.61 193.593C235.425 194.311 234.546 194.689 233.975 195.041C232.088 196.2 230.171 197.299 228.223 198.34C227.008 198.978 225.781 199.6 224.541 200.207C223.867 200.526 223.189 200.845 222.506 201.164C222.391 201.222 222.267 201.275 222.156 201.327C221.212 201.753 220.263 202.167 219.309 202.567C218.501 202.905 217.631 203.314 216.739 203.032C215.98 202.792 215.359 202.127 214.781 201.595L214.616 201.44L214.534 201.363C213.736 200.645 212.957 199.91 212.198 199.158C211.034 198.022 209.901 196.856 208.799 195.661C208.454 195.287 208.111 194.91 207.771 194.529C207.632 194.373 207.495 194.215 207.356 194.05C205.985 198.55 204.147 202.95 202.991 207.494C202.505 209.367 202.173 211.278 201.999 213.206C201.881 214.606 201.846 216.092 201.23 217.385C200.614 218.678 199.509 219.317 198.193 219.583C198.097 219.604 198.001 219.621 197.905 219.635C197.318 219.729 196.724 219.76 196.131 219.798C195.865 219.815 195.602 219.834 195.338 219.858C195.031 219.887 194.722 219.927 194.418 219.978C193.809 220.071 193.219 220.196 192.608 220.33L192.304 220.401C190.511 220.816 188.709 221.311 186.858 221.337C186.446 221.345 186.034 221.325 185.624 221.28C185.018 221.218 184.416 221.119 183.821 220.986C183.05 220.816 182.28 220.603 181.52 220.397H181.499C179.795 219.937 178.129 219.595 176.386 219.604C176.051 219.604 175.708 219.621 175.363 219.652C173.894 219.781 172.451 220.064 170.994 220.267C170.452 220.344 169.91 220.406 169.364 220.447H169.347C168.168 220.528 166.985 220.536 165.804 220.468C164.042 220.361 162.287 220.151 160.548 219.841C159.637 219.69 158.729 219.518 157.828 219.343L156.938 219.169C156.605 219.102 156.284 219.037 155.98 218.956C154.808 218.656 153.823 218.185 153.168 216.985C152.341 215.484 152.035 213.711 151.884 212.025C151.701 210.005 151.747 207.973 151.644 205.947C151.529 203.874 151.325 201.801 151.028 199.742C150.621 196.945 150.047 194.174 149.309 191.445C148.291 191.95 147.26 192.441 146.225 192.908C145.664 193.167 145.103 193.413 144.547 193.657L144.403 193.722C143.974 193.906 143.545 194.086 143.114 194.265C142.613 194.474 142.112 194.677 141.606 194.881C140.633 195.265 139.653 195.637 138.665 195.996C137.879 196.279 137.016 196.686 136.158 196.578C135.3 196.47 134.681 195.86 134.073 195.333C131.374 192.997 128.881 190.434 126.621 187.673C126.4 187.402 126.185 187.132 125.969 186.859C125.499 186.267 125.041 185.667 124.593 185.059C124.234 184.565 123.874 184.065 123.529 183.56C123.026 182.825 122.362 182.045 122.021 181.216C121.782 180.62 122.021 180.177 122.412 179.715C125.42 176.005 128.534 172.328 131.822 168.828L132.239 168.388C132.771 167.825 133.308 167.265 133.852 166.712C134.491 166.074 135.13 165.435 135.77 164.797C136.497 164.085 137.234 163.387 137.982 162.702C140.602 160.292 143.413 158.037 146.637 156.478C147.14 156.239 147.651 156 148.166 155.791C148.792 155.528 149.424 155.284 150.064 155.052C151.85 154.403 153.679 153.855 155.5 153.326C156.179 153.124 156.855 152.926 157.528 152.722C158.607 152.395 159.687 152.076 160.769 151.765L162.43 151.269L164.455 150.668C168.376 149.51 172.303 148.368 176.235 147.243C177.108 146.268 177.755 145.088 178.733 144.212C179.121 143.863 179.416 143.59 179.704 143.377C179.877 143.243 180.063 143.127 180.26 143.032C180.438 142.946 180.624 142.877 180.816 142.826C181.057 142.763 181.302 142.714 181.549 142.68C181.652 142.666 181.76 142.651 181.873 142.642H181.949L182.307 142.608C182.702 142.58 183.126 142.56 183.57 142.553H183.905C184.308 142.553 184.711 142.553 185.104 142.577C185.739 142.601 186.373 142.661 187.002 142.759C188.53 142.982 190.032 143.351 191.489 143.863C192.57 144.274 193.692 144.729 193.97 145.95C194.085 146.467 194.176 146.991 194.267 147.516C194.31 147.786 194.358 148.059 194.406 148.33C194.42 148.409 194.437 148.488 194.449 148.569L195.384 148.873C197.635 149.62 199.851 150.461 202.033 151.396C202.958 151.793 203.888 152.203 204.808 152.634C205.359 152.887 205.907 153.151 206.45 153.424C206.929 153.663 207.409 153.902 207.888 154.159C208.492 154.479 209.086 154.815 209.681 155.162C211 155.929 212.268 156.779 213.48 157.706C215.489 159.284 217.304 161.093 218.887 163.097C219.47 163.815 220.028 164.558 220.565 165.309C220.985 165.893 221.393 166.483 221.787 167.078C223.775 170.138 225.599 173.301 227.252 176.553C227.602 177.219 227.949 177.885 228.292 178.552C228.944 179.813 229.596 181.076 230.248 182.342L230.967 183.723L232.024 185.767L234.773 191.089C235.118 191.776 235.83 192.733 235.61 193.593Z" fill="#C8512C"/>
<path d="M207.509 123.995C207.636 125.147 207.217 126.15 206.57 126.209C205.923 126.269 205.295 125.408 205.165 124.256C205.036 123.105 205.458 122.116 206.105 122.044C206.752 121.972 207.385 122.846 207.509 123.995Z" fill="#212333"/>
<path d="M210.034 133.25C209.853 133.02 209.746 132.741 209.728 132.448C209.778 132.281 209.847 132.121 209.934 131.97C210.013 131.798 210.058 131.613 210.066 131.424C210.039 130.844 209.332 130.65 209.253 130.124C209.271 130.109 209.285 130.09 209.292 130.068C209.3 130.046 209.301 130.022 209.296 129.999C209.291 129.977 209.279 129.956 209.263 129.939C209.246 129.923 209.225 129.911 209.203 129.906C207.621 129.576 207.374 132.104 207.384 133.14C207.396 134.517 207.815 136.606 209.459 136.846C209.524 136.846 209.613 136.831 209.624 136.755C209.735 135.958 210.051 135.266 210.248 134.497C210.314 134.288 210.329 134.065 210.292 133.848C210.255 133.631 210.166 133.426 210.034 133.25Z" fill="#FFA47A"/>
<path d="M207.515 118.734C207.386 118.466 207.211 118.159 207.009 117.829C206.511 117.733 205.996 117.771 205.516 117.939C204.915 118.162 204.112 118.633 204.126 119.71C204.126 120.287 204.366 120.867 204.903 121.073C205.197 121.169 205.511 121.191 205.816 121.137C206.348 121.068 206.923 120.965 207.443 120.843C207.613 120.806 207.775 120.741 207.923 120.651C207.935 119.989 207.796 119.334 207.515 118.734V118.734Z" fill="#B9643C"/>
<path d="M136.029 194.621C135.878 194.316 135.705 194.024 135.511 193.744C134.793 192.756 133.961 191.856 133.031 191.063C131.545 189.732 130.141 188.312 128.827 186.812C128.18 186.038 127.472 185.318 126.71 184.657C126.471 184.454 126.212 184.255 125.96 184.059C125.481 183.48 125.001 182.912 124.481 182.366C124.47 182.358 124.461 182.348 124.453 182.338C123.839 181.696 123.165 180.887 122.418 180.396C121.157 179.57 121.38 181.888 121.528 182.441C121.734 183.174 122.02 183.883 122.382 184.554C122.828 185.384 123.327 186.183 123.877 186.948C124.81 188.26 125.852 189.491 126.993 190.628C128.243 191.871 129.556 193.049 130.926 194.159C131.578 194.695 132.24 195.221 132.899 195.741C133.043 195.851 133.187 195.98 133.338 196.081C133.794 196.478 134.34 196.76 134.929 196.902C136.355 197.158 136.513 195.59 136.029 194.621Z" fill="#3E3C57"/>
<path d="M235.189 191.776C234.067 190.84 232.385 191.237 231.138 191.668C230.069 192.054 229.044 192.555 228.082 193.162C227.622 193.442 227.169 193.734 226.723 194.033C224.907 195.243 223.106 196.474 221.321 197.727C220.399 198.365 219.481 199.011 218.567 199.666C218.27 199.876 217.913 200.085 217.608 200.334C217.35 200.528 217.142 200.782 217.002 201.073C216.472 201.727 216.225 202.593 217.016 203.228C217.711 203.776 218.632 203.795 219.511 203.606C220.062 203.48 220.598 203.296 221.11 203.058C222.845 202.27 224.506 201.262 226.16 200.319C227.814 199.376 229.425 198.404 231.033 197.42C231.551 197.1 232.066 196.779 232.579 196.463C232.819 196.317 233.044 196.171 233.274 196.022C233.931 195.601 234.643 195.204 235.191 194.643C236.021 193.784 236.153 192.58 235.189 191.776Z" fill="#3E3C57"/>
<path d="M259.102 186.59C259.239 186.205 259.28 185.233 259.102 184.826C258.863 184.287 257.969 184.172 257.561 184.407C257.815 183.504 257.894 182.552 257.415 181.709C257.103 181.163 256.475 180.775 255.914 180.926C256.051 180.108 255.771 179.157 255.157 178.698C254.75 178.394 254.081 178.181 253.585 178.389C253.382 178.491 253.221 178.66 253.129 178.868C252.877 179.291 252.6 179.699 252.298 180.088C251.641 180.519 250.833 181.113 250.62 181.192C250.9 180.56 251.228 179.951 251.6 179.368C251.612 179.348 251.618 179.325 251.619 179.302C251.619 179.279 251.613 179.256 251.601 179.236C251.59 179.216 251.573 179.199 251.553 179.187C251.533 179.176 251.511 179.169 251.488 179.169C249.81 179.272 248.06 179.334 247.307 181.101C246.648 182.647 246.795 184.089 247.154 185.755C247.345 187.352 247.449 188.958 247.463 190.566C247.329 190.478 248.271 191.129 248.403 191.229C249.87 192.334 251.154 193.663 252.207 195.167C252.247 195.222 252.096 195.589 252.163 195.553C255.728 193.638 258.987 189.807 259.251 189.034C259.486 188.319 259.594 187.198 259.102 186.59Z" fill="#FFA47A"/>
<path d="M164.671 171.159C164.321 172.734 163.729 174.244 162.917 175.638C161.227 178.717 158.909 181.606 158.334 185.163C157.771 188.632 159.671 191.318 161.21 194.231C161.829 195.414 162.368 196.661 162.552 197.992C162.712 199.332 162.565 200.691 162.121 201.966C161.205 204.755 159.408 207.144 158.233 209.82C156.872 212.932 156.963 216.137 157.821 219.326L156.932 219.151C156.599 219.084 156.278 219.02 155.973 218.938C155.386 216.645 155.163 214.273 155.733 211.951C157.049 206.658 162.466 202.153 160.386 196.319C159.446 193.685 157.538 191.495 156.79 188.783C155.976 185.848 156.994 182.901 158.391 180.316C159.947 177.431 162.073 174.779 162.854 171.535C163.65 168.222 162.656 164.873 161.939 161.644C161.263 158.592 160.942 155.57 161.939 152.547C162.085 152.104 162.248 151.671 162.418 151.24L164.443 150.639C163.807 151.958 163.366 153.362 163.132 154.807C162.531 158.809 164.149 162.656 164.705 166.561C164.951 168.085 164.94 169.639 164.671 171.159V171.159Z" fill="#803921"/>
<path d="M180.269 162.211C180.396 163.749 180.265 165.298 179.883 166.793C179.411 168.335 178.705 169.796 177.789 171.124C175.871 174.058 173.328 176.764 172.477 180.261C171.645 183.675 173.33 186.502 174.634 189.525C175.159 190.753 175.593 192.036 175.679 193.377C175.736 194.726 175.482 196.071 174.939 197.308C173.81 200.017 171.823 202.261 170.454 204.836C168.702 208.116 168.676 211.652 169.496 215.214C169.886 216.921 170.437 218.584 170.977 220.241C170.435 220.317 169.893 220.38 169.347 220.42H169.33C169.016 219.448 168.695 218.481 168.4 217.502C167.362 214.053 166.629 210.273 167.799 206.756C169.522 201.581 175.272 197.511 173.652 191.534C172.918 188.836 171.188 186.507 170.648 183.739C170.068 180.752 171.312 177.891 172.906 175.423C174.682 172.67 177.01 170.188 178.038 167.016C179.09 163.774 178.359 160.358 177.896 157.081C177.46 153.988 177.374 150.953 178.596 148.016C179.186 146.594 180.689 144.253 181.854 142.603H181.93L182.287 142.57C182.683 142.541 183.107 142.522 183.55 142.515H183.79C182.203 144.712 180.157 148.042 179.617 150.369C178.702 154.312 180.018 158.273 180.269 162.211Z" fill="#803921"/>
<path d="M195.007 163.551C195.134 165.089 195.004 166.638 194.623 168.133C194.189 169.689 193.406 171.118 192.528 172.464C190.611 175.399 188.068 178.101 187.214 181.601C186.383 185.017 188.07 187.842 189.372 190.865C189.896 192.093 190.33 193.376 190.417 194.719C190.472 196.068 190.219 197.412 189.676 198.648C188.547 201.355 186.56 203.598 185.191 206.176C183.439 209.454 183.413 212.994 184.233 216.556C184.599 218.15 185.103 219.709 185.611 221.267C185.005 221.205 184.403 221.107 183.809 220.973C183.581 220.267 183.356 219.565 183.14 218.854C182.102 215.405 181.369 211.62 182.536 208.103C184.259 202.93 190.009 198.861 188.391 192.881C187.658 190.185 185.927 187.854 185.388 185.091C184.806 182.101 186.052 179.241 187.646 176.773C189.422 174.02 191.749 171.54 192.777 168.368C193.827 165.124 193.099 161.708 192.636 158.431C192.197 155.338 192.114 152.3 193.334 149.363C193.605 148.717 193.913 148.087 194.256 147.477C194.3 147.747 194.347 148.02 194.395 148.29C194.41 148.369 194.427 148.448 194.438 148.53L195.373 148.834C194.933 149.752 194.592 150.715 194.357 151.707C193.441 155.652 194.757 159.613 195.007 163.551Z" fill="#803921"/>
<path d="M207.309 169.233C207.436 170.771 207.307 172.32 206.926 173.815C206.494 175.371 205.708 176.8 204.831 178.146C202.913 181.08 200.37 183.786 199.517 187.283C198.688 190.699 200.373 193.524 201.674 196.547C202.199 197.775 202.633 199.058 202.719 200.401C202.775 201.75 202.521 203.093 201.979 204.33C200.85 207.039 198.863 209.283 197.494 211.858C196.145 214.381 195.816 217.06 196.116 219.784C195.85 219.801 195.586 219.82 195.323 219.844C195.016 219.873 194.707 219.914 194.402 219.964C194.124 217.893 194.163 215.799 194.843 213.788C196.562 208.612 202.317 204.543 200.694 198.565C199.963 195.87 198.23 193.538 197.693 190.776C197.108 187.783 198.355 184.923 199.948 182.455C201.725 179.702 204.052 177.219 205.08 174.047C206.13 170.808 205.401 167.39 204.939 164.115C204.5 161.02 204.416 157.985 205.636 155.047C205.873 154.475 206.14 153.915 206.437 153.372C206.916 153.611 207.395 153.85 207.875 154.107C207.346 155.146 206.943 156.246 206.676 157.381C205.744 161.334 207.06 165.295 207.309 169.233Z" fill="#803921"/>
<path d="M150.2 171.886C149.729 173.429 149.022 174.889 148.102 176.215C146.185 179.152 143.644 181.852 142.793 185.354C142.053 188.397 143.311 190.973 144.512 193.639L144.368 193.704C143.939 193.888 143.51 194.068 143.079 194.247C142.288 192.474 141.338 190.762 140.965 188.842C140.382 185.855 141.626 182.994 143.22 180.523C144.996 177.773 147.326 175.291 148.352 172.119C149.404 168.875 148.673 165.461 148.21 162.184C147.903 160.015 147.772 157.875 148.141 155.773C148.766 155.51 149.399 155.266 150.039 155.034C150.001 155.175 149.965 155.319 149.931 155.462C149.018 159.405 150.336 163.362 150.585 167.305C150.713 168.843 150.583 170.391 150.2 171.886V171.886Z" fill="#803921"/>
<path d="M133.532 172.317C133.098 173.873 132.312 175.302 131.434 176.647C129.517 179.582 126.974 182.287 126.123 185.784C126.039 186.133 125.978 186.488 125.943 186.845C125.473 186.253 125.015 185.653 124.567 185.045C125.036 183.597 125.703 182.221 126.55 180.956C128.326 178.203 130.653 175.721 131.681 172.551C132.098 171.2 132.278 169.787 132.213 168.374C132.745 167.811 133.282 167.251 133.826 166.698C133.861 167.043 133.89 167.388 133.913 167.732C134.042 169.271 133.914 170.82 133.532 172.317V172.317Z" fill="#803921"/>
<path d="M221.109 177.689C220.637 179.232 219.93 180.693 219.012 182.02C217.094 184.955 214.551 187.657 213.701 191.157C212.871 194.573 214.556 197.4 215.858 200.421C216.23 201.259 216.522 202.13 216.728 203.024C215.968 202.784 215.347 202.119 214.77 201.587L214.604 201.432L214.523 201.355C213.689 199.102 212.339 197.046 211.874 194.652C211.292 191.665 212.538 188.802 214.13 186.334C215.906 183.581 218.233 181.101 219.264 177.929C220.316 174.685 219.585 171.269 219.12 167.992C218.865 166.361 218.785 164.708 218.88 163.061C219.463 163.779 220.021 164.521 220.558 165.272C220.699 167.887 221.335 170.508 221.497 173.11C221.626 174.647 221.494 176.195 221.109 177.689V177.689Z" fill="#803921"/>
<path d="M232.002 185.729C231.942 186.413 231.821 187.09 231.64 187.752C231.169 189.294 230.462 190.754 229.543 192.08C227.81 194.713 225.579 197.184 224.534 200.205C223.859 200.524 223.181 200.843 222.499 201.162C222.887 199.486 223.712 197.863 224.656 196.396C226.432 193.641 228.759 191.158 229.79 187.986C230.394 186.131 230.408 184.218 230.229 182.308L230.948 183.689L232.002 185.729Z" fill="#803921"/>
<path d="M133.04 191.057C131.554 189.726 130.15 188.306 128.836 186.806C128.189 186.032 127.481 185.312 126.719 184.651C126.48 184.448 126.221 184.249 125.969 184.053C125.49 183.473 125.01 182.906 124.49 182.36C123.771 183.079 123.076 183.797 122.391 184.548C119.56 187.603 117.014 190.899 115.243 194.701C113.326 198.84 110.55 208.346 117.681 209.078C120.471 209.365 122.906 207.915 124.816 206.012C126.923 203.917 128.663 201.449 130.595 199.199C131.496 198.145 132.413 197.108 133.344 196.087C134.063 195.297 134.782 194.519 135.52 193.743C134.803 192.753 133.97 191.852 133.04 191.057V191.057Z" fill="#FFA47A"/>
<path d="M253.224 193.019C252.968 192.734 252.695 192.463 252.431 192.188C251.861 191.594 251.312 190.855 250.667 190.345C250.327 190.074 250.221 190.127 249.835 190.323C249.449 190.519 248.261 188.841 247.918 189.05C245.332 190.61 234.795 196.691 232.139 196.624C231.9 196.624 230.371 194.723 228.959 192.65C228.499 192.933 227.171 193.732 226.725 194.031C224.908 195.241 223.107 196.472 221.322 197.725C220.401 198.363 219.482 199.01 218.568 199.664C218.271 199.875 217.914 200.083 217.61 200.332C218.197 201.395 218.825 202.501 219.513 203.592C222.288 208.016 225.984 212.227 231.427 212.414C234.395 212.519 237.065 211.08 239.32 209.283C241.576 207.485 243.613 205.361 245.588 203.26C247.665 201.049 249.641 198.753 251.515 196.37C252.059 195.681 252.594 194.986 253.119 194.28C253.227 194.16 253.324 194.03 253.409 193.892C253.634 193.378 253.51 193.332 253.224 193.019Z" fill="#FFA47A"/>
<path d="M209.575 129.072C209.027 129.204 208.516 129.461 208.084 129.824C207.955 129.934 208.142 130.121 208.274 130.011C208.672 129.679 209.142 129.446 209.647 129.328C209.813 129.295 209.741 129.031 209.575 129.072Z" fill="#B9643C"/>
<path d="M215.751 167.511C211.291 174.617 208.327 182.555 207.038 190.842C207.014 191.009 207.278 191.081 207.295 190.913C208.576 182.649 211.53 174.732 215.976 167.645C216.072 167.499 215.842 167.358 215.751 167.511Z" fill="#803921"/>
<path d="M149.562 188.488C147.833 183.214 146.621 177.786 145.943 172.279C145.924 172.111 145.657 172.109 145.679 172.279C146.357 177.81 147.571 183.261 149.305 188.557C149.358 188.72 149.615 188.662 149.562 188.488Z" fill="#803921"/>
<path d="M191.775 148.156C186.873 146.64 181.686 146.279 176.62 147.1C176.452 147.127 176.524 147.383 176.69 147.356C181.709 146.546 186.847 146.907 191.703 148.412C191.736 148.417 191.769 148.41 191.796 148.392C191.824 148.374 191.844 148.347 191.852 148.316C191.861 148.284 191.858 148.251 191.844 148.221C191.83 148.192 191.806 148.169 191.775 148.156V148.156Z" fill="#803921"/>
<path d="M208.986 132.582C208.171 132.872 207.289 132.917 206.45 132.712C206.284 132.673 206.21 132.927 206.38 132.968C207.266 133.186 208.197 133.141 209.058 132.839C209.218 132.784 209.149 132.525 208.986 132.582Z" fill="#B9643C"/>
<path d="M207.359 114.213C207.195 113.957 206.98 113.738 206.729 113.567C206.714 113.366 206.693 113.167 206.662 112.98C206.564 112.439 206.307 111.939 205.923 111.544C205.545 111.147 205.068 110.858 204.54 110.706C203.809 110.498 202.726 110.914 202.177 110.397C201.767 110.012 201.458 109.598 200.964 109.301C200.38 108.958 199.733 108.734 199.061 108.64C197.707 108.432 196.473 108.714 195.178 109.088C194.105 109.401 193.261 109.284 192.379 108.609C191.787 108.145 191.077 107.989 190.37 107.699C189.172 107.221 187.782 107.333 186.595 107.817C185.219 108.368 184.008 109.264 183.079 110.419C182.6 110.962 182.176 111.616 181.54 111.97C180.821 112.377 179.947 112.257 179.199 112.604C177.89 113.215 177.042 114.563 176.653 115.908C176.394 116.784 176.339 117.758 175.889 118.572C175.476 119.319 174.714 119.69 174.211 120.346C173.993 120.639 173.844 120.978 173.776 121.336C173.707 121.695 173.722 122.065 173.818 122.417C173.897 123.054 173.99 123.573 173.859 124.222C173.684 125.064 173.715 125.792 174.319 126.465C174.61 126.77 174.968 127.005 175.364 127.149C175.761 127.293 176.186 127.343 176.605 127.296C176.766 127.283 176.926 127.26 177.085 127.228C177.701 128.861 178.715 130.324 179.803 131.679C180.603 132.677 181.457 133.632 182.257 134.63C183.149 135.743 184.273 137.101 183.892 138.628C183.887 138.65 183.887 138.672 183.893 138.693C183.898 138.715 183.909 138.734 183.925 138.751C183.94 138.767 183.959 138.779 183.98 138.786C184.001 138.793 184.023 138.795 184.045 138.791C184.039 138.813 184.039 138.836 184.045 138.858C184.05 138.881 184.062 138.901 184.078 138.917C184.094 138.934 184.114 138.946 184.136 138.952C184.158 138.958 184.181 138.959 184.203 138.954C185.522 138.587 186.89 138.425 188.259 138.475C189.402 138.523 190.402 138.87 191.447 138.276C193.227 137.264 194.996 135.643 195.838 133.728C196.839 131.478 195.425 129.924 195.854 127.614C195.94 127.077 196.16 126.571 196.494 126.142C196.669 125.94 196.864 125.757 197.077 125.596C197.178 125.51 197.292 125.44 197.415 125.39C197.922 125.211 198.458 125.126 198.997 125.139C199.4 125.165 199.802 125.077 200.157 124.885C200.811 124.468 200.943 123.626 201.017 122.917C201.118 121.938 201.19 120.361 201.185 119.211C201.904 119.436 202.932 119.269 203.438 119.061C203.758 118.933 204.046 118.736 204.281 118.484C204.516 118.232 204.693 117.931 204.797 117.603C205.662 117.505 206.559 117.294 207.17 116.71C207.488 116.381 207.681 115.952 207.715 115.496C207.75 115.04 207.624 114.586 207.359 114.213V114.213Z" fill="#B9643C"/>
<path d="M200.556 125.972H200.535C200.425 125.911 200.317 125.845 200.214 125.773C200.214 125.782 200.214 125.791 200.214 125.799C199.918 125.551 199.575 125.366 199.205 125.256C198.411 124.988 197.45 124.737 196.628 125.017C195.132 125.515 194.751 127.341 195.065 128.703C195.379 130.065 196.441 132.004 198.009 132.196C199.619 132.394 200.729 130.846 200.926 129.426C201.039 128.309 200.924 127.18 200.585 126.108C200.59 126.053 200.576 126.012 200.556 125.972Z" fill="#FFA47A"/>
<path d="M199.143 129.579C198.558 129.655 197.945 129.39 197.844 128.748C197.758 128.186 198.264 127.427 198.884 127.472C198.913 127.474 198.941 127.466 198.965 127.451C198.989 127.435 199.007 127.413 199.018 127.387C199.028 127.36 199.03 127.331 199.023 127.304C199.017 127.276 199.002 127.251 198.98 127.233C198.671 126.926 198.273 126.725 197.842 126.659C197.411 126.592 196.971 126.664 196.583 126.864C196.432 126.941 196.567 127.168 196.718 127.092C197.009 126.944 197.334 126.878 197.66 126.903C197.985 126.927 198.298 127.041 198.563 127.231C198.264 127.335 198.006 127.532 197.827 127.794C197.648 128.055 197.557 128.367 197.569 128.684C197.631 129.49 198.391 129.931 199.146 129.833C199.309 129.823 199.311 129.557 199.143 129.579Z" fill="#B9643C"/>
<path d="M199.486 118.354C199.439 118.746 199.313 119.124 199.115 119.466C198.918 119.807 198.652 120.105 198.335 120.34C198.018 120.576 197.656 120.744 197.272 120.835C196.887 120.926 196.488 120.938 196.099 120.87C196.071 120.863 196.041 120.866 196.015 120.877C195.988 120.888 195.966 120.907 195.951 120.932C195.284 122.414 193.731 123.91 192.013 122.974C191.982 122.957 191.946 122.952 191.912 122.961C191.878 122.97 191.848 122.992 191.83 123.022C191.495 123.608 191.036 124.113 190.484 124.502C189.933 124.891 189.303 125.155 188.638 125.275C187.968 125.41 187.277 125.398 186.613 125.239C185.882 125.059 185.364 124.604 184.695 124.303C183.442 123.733 182.931 125.157 182.083 125.782C181.465 126.232 180.744 126.521 179.987 126.624C179.229 126.727 178.457 126.64 177.742 126.371C177.581 126.311 177.502 126.567 177.67 126.627C178.302 126.863 178.976 126.965 179.65 126.925C180.323 126.886 180.981 126.707 181.582 126.4C182.199 126.078 182.739 125.627 183.163 125.076C183.597 124.535 184.062 124.255 184.743 124.626C185.074 124.808 185.371 125.04 185.716 125.203C187.921 126.244 190.75 125.337 191.994 123.257C192.375 123.437 192.794 123.523 193.216 123.508C193.637 123.493 194.049 123.377 194.417 123.17C194.836 122.933 195.203 122.613 195.495 122.23C195.701 121.969 195.951 121.255 196.238 121.164C196.418 121.109 196.742 121.2 196.945 121.179C197.134 121.157 197.32 121.119 197.501 121.064C197.865 120.949 198.207 120.773 198.51 120.542C198.859 120.285 199.15 119.957 199.364 119.58C199.577 119.203 199.709 118.785 199.75 118.354C199.769 118.184 199.503 118.184 199.486 118.354Z" fill="#7D331B"/>
<path d="M182.109 115.652C181.695 115.844 181.325 116.12 181.022 116.462C180.72 116.804 180.491 117.204 180.35 117.639C180.252 117.943 180.293 118.701 180.13 118.907C180.048 119.005 179.624 119.108 179.506 119.187C179.294 119.338 179.093 119.505 178.905 119.685C177.311 121.153 176.175 123.444 177.349 125.517C177.367 125.547 177.396 125.569 177.43 125.577C177.464 125.586 177.5 125.581 177.53 125.563C177.56 125.546 177.582 125.517 177.591 125.483C177.6 125.449 177.595 125.413 177.577 125.383C176.927 124.231 177.028 122.871 177.625 121.72C178.104 120.777 179.224 119.276 180.355 119.144C180.42 119.144 180.496 119.089 180.489 119.013C180.412 118.372 180.541 117.724 180.856 117.162C181.171 116.599 181.657 116.151 182.244 115.881C182.395 115.812 182.26 115.582 182.109 115.652Z" fill="#7D331B"/>
<path d="M184.296 121.366C184.309 120.881 184.429 120.404 184.646 119.97C184.72 119.817 184.493 119.683 184.418 119.836C184.152 120.369 184.019 120.959 184.032 121.555C184.047 122.003 184.119 122.649 184.433 122.991C184.449 123.008 184.47 123.02 184.493 123.026C184.516 123.032 184.54 123.032 184.562 123.025L184.598 123.01C184.626 123.002 184.65 122.985 184.667 122.962C184.685 122.94 184.695 122.912 184.696 122.884C184.696 122.884 184.696 122.86 184.696 122.85C184.437 122.398 184.299 121.887 184.296 121.366V121.366Z" fill="#7D331B"/>
<path d="M197.525 117.429C196.211 118.262 192.858 116.749 193.987 114.956C193.997 114.938 194.003 114.919 194.004 114.899C194.005 114.879 194.002 114.859 193.994 114.84C193.987 114.821 193.975 114.805 193.96 114.791C193.945 114.778 193.927 114.768 193.908 114.762C192.727 114.585 192.858 113.251 193.17 112.418C193.23 112.26 192.973 112.179 192.913 112.349C192.568 113.275 192.52 114.683 193.671 114.982C192.664 116.952 196.156 118.614 197.659 117.659C197.803 117.565 197.678 117.326 197.525 117.429Z" fill="#7D331B"/>
<path d="M240.5 249.436C233.085 254.602 224.584 258 215.649 259.371C215.481 259.397 215.553 259.653 215.721 259.627C224.679 258.252 233.201 254.845 240.634 249.666C240.773 249.568 240.639 249.338 240.5 249.436Z" fill="#3E3C57"/>
<path d="M242.301 240.764C240.149 244.121 237.26 246.945 233.852 249.021C233.706 249.109 233.84 249.339 233.987 249.26C237.432 247.162 240.354 244.306 242.529 240.91C242.622 240.755 242.392 240.621 242.301 240.764Z" fill="#3E3C57"/>
<path d="M203.881 230.987C203.863 230.955 203.833 230.932 203.798 230.922C203.763 230.912 203.726 230.917 203.694 230.934C203.662 230.952 203.639 230.982 203.629 231.017C203.619 231.052 203.624 231.089 203.641 231.121C205.741 234.85 207.13 238.936 207.737 243.172C207.764 243.342 208.018 243.27 207.994 243.102C207.384 238.845 205.989 234.737 203.881 230.987V230.987Z" fill="#3E3C57"/>
<path d="M255.641 181.101C255.394 181.592 255.148 182.085 254.903 182.578C254.826 182.729 255.056 182.863 255.143 182.712L255.881 181.235C255.946 181.082 255.716 180.948 255.641 181.101Z" fill="#B9643C"/>
<path d="M257.424 184.592L256.739 185.885C256.66 186.036 256.888 186.17 256.979 186.019C257.207 185.588 257.436 185.157 257.664 184.726C257.734 184.571 257.503 184.437 257.424 184.592Z" fill="#B9643C"/>
<path d="M258.852 187.077C258.672 187.49 258.438 187.879 258.157 188.233C258.054 188.367 258.241 188.554 258.347 188.422C258.642 188.051 258.888 187.644 259.08 187.211C259.149 187.055 258.919 186.921 258.852 187.077Z" fill="#B9643C"/>
<path d="M132.208 197.482C130.732 199.668 129.104 201.748 127.335 203.706C127.22 203.833 127.407 204.022 127.522 203.895C129.306 201.922 130.948 199.827 132.435 197.623C132.531 197.472 132.301 197.34 132.208 197.482Z" fill="#B9643C"/>
<path d="M252.5 248.86C251.68 257.83 247.589 265.897 242.004 272.799L241.894 272.545C241.983 272.442 242.066 272.337 242.148 272.234C249.652 262.853 254.348 250.601 251.575 238.55C251.536 238.382 251.793 238.311 251.831 238.476C252.603 241.88 252.829 245.385 252.5 248.86V248.86Z" fill="#3E3C57"/>
<path d="M183.731 267.221C181.916 261.279 179.615 253.698 177.52 246.768C174.699 237.42 172.247 229.261 171.878 227.933C171.231 225.625 170.553 223.253 169.215 221.23C167.689 218.913 165.38 217.73 162.636 217.484C161.811 217.407 158.895 217.347 155.122 217.302C145.827 217.192 131.343 217.165 130.214 217.204C128.385 217.266 124.761 217.137 123.453 217.354C119.644 217.989 118.105 219.988 117.899 222.247C117.899 222.338 117.882 222.427 117.88 222.516C117.88 222.535 117.88 222.556 117.88 222.578C117.818 224.409 122.559 246.014 125.933 261.413C127.937 262.196 130.18 263.012 132.678 263.841C139.979 266.263 149.456 268.798 161.55 271.022C163.218 271.329 164.939 271.628 166.711 271.92C170.646 272.571 174.838 273.182 179.284 273.751L179.586 273.79C181.664 274.05 183.797 274.3 185.986 274.541C185.406 272.686 184.627 270.148 183.731 267.221Z" fill="#AB8571"/>
<path d="M159.157 210.446C157.668 203.631 156.003 200.71 155.252 199.578C154.277 198.094 152.798 197.337 151.046 197.184C149.217 197.016 129.985 196.595 127.809 197.143C126.414 197.498 125.551 198.446 125.093 199.7C125.062 199.784 125.033 199.875 125.004 199.966C124.935 200.187 124.879 200.413 124.837 200.641C124.559 202.048 127.555 207.707 128.269 211.399C128.38 211.972 128.686 212.488 129.135 212.861C129.584 213.234 130.149 213.441 130.733 213.446L155.693 213.52H156.652C157.033 213.524 157.411 213.442 157.756 213.28C158.101 213.119 158.406 212.881 158.646 212.586C158.887 212.291 159.058 211.945 159.146 211.574C159.235 211.204 159.238 210.818 159.157 210.446V210.446Z" fill="#AB8571"/>
<path d="M148.002 222.077C146.749 216.368 145.447 210.67 144.095 204.982C144.009 204.622 143.8 204.302 143.504 204.078C143.208 203.854 142.844 203.74 142.473 203.754L136.31 203.994C136.075 204.003 135.844 204.064 135.635 204.173C135.425 204.282 135.243 204.435 135.1 204.623C134.958 204.811 134.859 205.028 134.81 205.258C134.762 205.489 134.765 205.727 134.82 205.957C136.119 211.424 137.371 216.903 138.578 222.393L141.454 222.376L148.067 222.34C148.043 222.254 148.021 222.177 148.002 222.077Z" fill="#735241"/>
<path d="M179.582 273.782L179.28 273.743L178.115 270.136C177.729 268.941 177.343 267.744 176.958 266.545C175.066 260.688 173.177 254.829 171.292 248.967C171.105 248.4 170.923 247.83 170.74 247.258C169.523 243.485 168.306 239.712 167.09 235.94C166.483 234.053 165.876 232.167 165.268 230.281C164.758 228.689 164.286 227.051 163.452 225.605C162.617 224.16 161.402 223.054 159.715 222.615C157.941 222.158 155.993 222.299 154.14 222.311H153.963L148.059 222.345L141.444 222.381L138.568 222.398L117.873 222.517C117.873 222.429 117.885 222.34 117.892 222.249L138.505 222.132L145.216 222.094L147.982 222.079C149.224 222.079 150.458 222.065 151.7 222.058C152.467 222.058 153.239 222.039 154.01 222.027C155.194 222.012 156.381 222.003 157.555 222.06C159.108 222.134 160.65 222.424 161.87 223.338C163.037 224.217 163.787 225.493 164.348 226.829C164.99 228.354 165.448 229.969 165.956 231.552C166.578 233.478 167.198 235.404 167.816 237.33C169.058 241.18 170.298 245.028 171.536 248.874C171.565 248.962 171.594 249.053 171.625 249.144C173.499 254.961 175.374 260.777 177.25 266.591C178.03 268.988 178.807 271.385 179.582 273.782Z" fill="#735241"/>
<path d="M155.98 213.519H155.69V213.492C155.082 211.608 154.474 209.721 153.869 207.833C153.356 206.244 152.884 204.606 152.05 203.16C151.216 201.715 150.003 200.609 148.315 200.17C146.542 199.713 144.593 199.852 142.74 199.864L130.037 199.936L125.004 199.965C125.032 199.874 125.061 199.783 125.092 199.699L133.826 199.649C135.988 199.639 138.15 199.627 140.31 199.613C142.259 199.613 144.226 199.522 146.165 199.613C147.721 199.687 149.26 199.974 150.48 200.891C151.647 201.767 152.397 203.045 152.956 204.379C153.6 205.906 154.056 207.522 154.564 209.102C155.038 210.575 155.511 212.047 155.98 213.519Z" fill="#735241"/>
<path d="M306.772 221.219C305.174 219.065 302.631 218.217 300.061 218.157C299.891 218.157 299.721 218.157 299.548 218.157C298.853 218.169 298.16 218.233 297.475 218.351C294.575 218.83 291.914 220.154 289.585 221.911C288.983 222.363 288.403 222.847 287.849 223.347C287.152 223.979 286.49 224.647 285.858 225.339C280.87 230.804 277.747 238.012 275.51 244.937C273.631 250.75 271.702 261.23 270.249 270.341C269.916 272.421 269.609 274.427 269.334 276.292C270.344 276.184 271.341 276.069 272.325 275.947C278.467 275.186 284.558 274.063 290.567 272.584L291.09 272.455C295.502 271.339 299.534 270.099 303.199 268.799C304.57 261.876 305.936 254.95 307.297 248.021C308.244 243.166 309.128 238.263 309.215 233.303C309.279 229.435 309.196 224.475 306.772 221.219Z" fill="#4B6B4D"/>
<path d="M349.809 212.183C349.758 209.867 349.288 207.579 348.422 205.43C347.643 203.561 346.521 201.463 344.369 200.992H344.316C344.148 200.958 343.978 200.93 343.808 200.913C339.851 200.496 335.948 204.719 333.609 207.319C329.168 212.248 326.076 218.17 323.746 224.375C322.639 227.315 321.707 230.317 320.882 233.307C320.808 233.568 320.736 233.831 320.666 234.092C318.03 243.813 316.534 253.779 315.302 263.776C318.504 262.22 321.244 260.697 323.55 259.306C324.748 258.588 325.836 257.896 326.805 257.257C326.908 257.195 327.006 257.13 327.102 257.066L327.186 257.894L327.425 256.855C328.396 256.211 329.24 255.622 329.964 255.112C334.247 252.058 338.156 248.512 341.61 244.546C341.682 244.345 341.754 244.139 341.828 243.938C343.78 238.422 345.579 232.856 347.223 227.238C348.637 222.347 349.987 217.301 349.809 212.183Z" fill="#4B6B4D"/>
<path d="M300.058 218.157C299.216 222.404 298.405 226.655 297.627 230.912C296.05 239.573 294.603 248.254 293.287 256.957C292.678 260.988 292.097 265.022 291.544 269.058C291.388 270.192 291.237 271.322 291.086 272.457L290.564 272.586C290.724 271.351 290.89 270.117 291.062 268.885C291.701 264.257 292.374 259.629 293.08 255.001C294.969 242.673 297.126 230.389 299.552 218.15C299.717 218.152 299.887 218.152 300.058 218.157Z" fill="#374F39"/>
<path d="M344.31 200.979C342.217 206.394 340.246 211.854 338.398 217.36C334.047 230.317 330.38 243.492 327.41 256.832L327.171 257.871L327.087 257.043C326.991 257.108 326.893 257.172 326.79 257.235C326.862 256.911 326.933 256.593 327.008 256.277C331.23 237.433 336.838 218.925 343.786 200.905C343.973 200.917 344.143 200.945 344.31 200.979Z" fill="#374F39"/>
</g>
<defs>
<clipPath id="clip0_469_2706">
<rect width="275.497" height="220.398" fill="white" transform="translate(88 57)"/>
</clipPath>
</defs>
</svg>
