<svg width="452" height="334" viewBox="0 0 452 334" fill="none" xmlns="http://www.w3.org/2000/svg">
<rect width="452" height="334" fill="white"/>
<g clip-path="url(#clip0_469_2705)">
<path d="M385.236 181.354C383.999 152.005 373.102 123.208 353.832 101.493C336.618 82.0989 312.911 68.2932 287.279 65.9859C255.858 63.1614 228.125 69.9118 201.069 84.8304C187.077 92.5513 171.089 107.787 156.777 114.868C149.435 118.539 141.892 121.79 134.184 124.603C126.887 127.218 119.45 129.459 112.248 132.332C105.643 134.965 99.2094 138.162 93.5266 142.558C88.7752 146.26 84.5701 150.622 81.0372 155.512C73.7076 165.607 69.0966 177.731 67.4585 190.208C64.633 211.59 74.6812 246.983 111.751 266.432C125.666 273.682 141.117 277.445 156.788 277.399H320.96C333.906 277.405 346.372 272.464 355.834 263.575C355.897 263.52 355.955 263.459 356.019 263.404C377.785 242.819 386.478 211.102 385.236 181.354Z" fill="#E0E4E8"/>
<path d="M192.468 71.0571C188.079 71.0571 183.789 72.366 180.141 74.8182C176.492 77.2704 173.648 80.7559 171.969 84.8338C170.289 88.9117 169.85 93.3989 170.706 97.7279C171.562 102.057 173.675 106.033 176.778 109.155C179.881 112.276 183.835 114.401 188.139 115.262C192.443 116.123 196.904 115.681 200.959 113.992C205.013 112.303 208.478 109.443 210.916 105.773C213.354 102.103 214.656 97.788 214.656 93.3741C214.656 90.4433 214.082 87.5411 212.967 84.8333C211.853 82.1255 210.218 79.6652 208.158 77.5928C206.097 75.5204 203.651 73.8765 200.959 72.7551C198.267 71.6337 195.381 71.0567 192.468 71.0571V71.0571ZM192.468 110.341C189.131 110.342 185.869 109.347 183.095 107.483C180.32 105.619 178.158 102.97 176.88 99.8692C175.603 96.7689 175.269 93.3573 175.919 90.0657C176.57 86.7742 178.176 83.7507 180.535 81.3774C182.894 79.0042 185.9 77.388 189.173 76.733C192.445 76.0781 195.837 76.414 198.92 77.6981C202.002 78.9822 204.637 81.157 206.491 83.9473C208.345 86.7376 209.334 90.0182 209.334 93.3741C209.333 97.8734 207.556 102.188 204.393 105.37C201.23 108.552 196.941 110.34 192.468 110.341V110.341Z" fill="#0073EC"/>
<path d="M281.474 102.553C250.231 102.553 224.914 128.025 224.914 159.438C224.914 190.85 250.231 216.323 281.474 216.323C312.716 216.323 338.027 190.859 338.027 159.438C338.027 128.017 312.704 102.553 281.474 102.553ZM281.474 208.927C271.742 208.929 262.228 206.027 254.136 200.59C246.044 195.152 239.736 187.424 236.011 178.381C232.286 169.338 231.311 159.387 233.209 149.786C235.107 140.186 239.792 131.367 246.673 124.445C253.555 117.524 262.322 112.81 271.866 110.899C281.411 108.989 291.305 109.969 300.296 113.715C309.287 117.46 316.972 123.804 322.379 131.942C327.786 140.081 330.671 149.649 330.671 159.438C330.672 165.937 329.4 172.372 326.928 178.376C324.456 184.381 320.832 189.836 316.264 194.432C311.695 199.027 306.271 202.673 300.302 205.16C294.333 207.647 287.935 208.927 281.474 208.927Z" fill="#0073EC"/>
<path d="M294.469 277.398H257.547C254.146 268.901 251.084 265.621 247.987 257.011C247.308 264.13 244.725 275.948 244.482 277.398H215.323C214.823 273.013 214.973 245.242 214.606 231.898C214.606 231.77 214.606 231.645 214.606 231.52C214.592 231.067 214.578 230.628 214.563 230.213C214.329 223.57 214.829 215.521 214.413 206.562L214.959 206.606C218.137 206.873 221.329 206.841 224.493 206.812C232.796 206.734 241.09 206.364 249.385 206.039C252.488 205.92 255.596 205.748 258.705 205.748C259.08 205.749 259.453 205.684 259.806 205.557C261.357 209.468 267.317 219.958 271.206 227.008C271.264 227.106 271.319 227.208 271.374 227.298C272.567 229.46 273.552 231.273 274.136 232.439C278.212 240.601 293.865 275.739 294.469 277.398Z" fill="#071C26"/>
<path d="M296.601 180.665C296.601 180.665 293.423 174.717 292.242 172.668C290.471 169.62 288.717 166.54 286.868 163.53C286.402 162.774 285.929 162.022 285.449 161.275C285.319 161.071 285.189 160.865 285.054 160.661C282.823 157.227 278.498 153.01 274.919 150.918C271.452 148.884 267.739 147.469 264.14 146.182C263.235 145.853 262.343 145.539 261.459 145.223C260.991 145.056 260.526 144.889 260.066 144.723H260.049C258.266 144.072 258.237 146.847 258.425 150.116C258.512 151.569 258.636 153.118 258.671 154.507C258.711 155.995 258.648 157.299 258.315 158.122C256.406 162.87 256.7 168.002 258.437 172.761C258.841 173.872 259.303 174.958 259.789 176.036C260.291 177.161 260.739 178.413 261.45 179.425C261.867 180.007 262.485 180.412 263.183 180.561C264.609 182.536 266.141 184.433 267.771 186.242C268.651 187.224 269.564 188.178 270.51 189.104C271.036 189.618 272.477 191.138 272.477 191.138C272.477 191.138 274.584 190.138 275.583 189.9C277.977 189.319 280.358 188.688 282.725 188.008C285.092 187.329 287.445 186.597 289.783 185.815C290.856 185.46 291.924 185.092 292.987 184.71C293.914 184.382 295.05 184.129 295.856 183.548C297.393 182.391 296.601 180.665 296.601 180.665Z" fill="white"/>
<path d="M259.312 145.838C254.631 143.602 250.469 140.402 247.095 136.446C246.647 135.92 246.228 135.383 245.797 134.83C245.565 134.448 245.262 134.115 244.905 133.848C244.419 133.558 243.865 133.659 243.33 133.694L241.045 133.851C240.375 133.898 237.512 133.784 236.859 134.775C231.566 135.879 226.165 136.374 220.761 136.251C220.73 136.253 220.7 136.263 220.674 136.28C220.649 136.298 220.629 136.323 220.617 136.352C220.605 136.38 220.602 136.412 220.607 136.443C220.613 136.473 220.627 136.502 220.648 136.525C224.597 141.04 229.411 144.629 233.97 148.476C235.125 149.456 236.281 150.452 237.382 151.49C237.884 151.957 238.38 152.435 238.869 152.925C239.233 153.288 239.58 153.689 240.129 153.719C240.753 153.748 241.426 153.381 241.998 153.175C242.821 152.879 243.641 152.578 244.46 152.274C246.001 151.693 247.536 151.101 249.065 150.499C252.518 149.123 255.934 147.663 259.312 146.117C259.336 146.102 259.355 146.081 259.368 146.057C259.381 146.032 259.388 146.005 259.388 145.977C259.388 145.95 259.381 145.922 259.368 145.898C259.355 145.873 259.336 145.853 259.312 145.838Z" fill="#FFA47A"/>
<path d="M278.402 156.122C277.824 154.794 276.703 153.835 275.513 153.054C272.416 151.002 269.056 149.226 265.774 147.492C265.153 147.16 264.529 146.841 263.899 146.527C263.067 146.109 262.23 145.704 261.388 145.312C260.946 145.109 260.501 144.911 260.057 144.714H260.039C258.099 143.859 256.115 143.109 254.096 142.465C253.9 142.404 253.807 142.712 254.01 142.776C254.028 142.778 254.046 142.784 254.062 142.793C250.257 147.152 246.18 151.702 240.59 153.62L240.278 153.725C240.266 153.727 240.253 153.727 240.24 153.725L233.494 145.129C231.229 142.247 228.872 139.338 227.647 135.83C227.644 135.811 227.638 135.793 227.63 135.775V135.755C227.62 135.727 227.602 135.701 227.58 135.682C227.557 135.663 227.529 135.65 227.5 135.645C227.47 135.64 227.44 135.643 227.412 135.653C227.384 135.664 227.359 135.682 227.341 135.706C221.964 136.551 217.053 133.381 211.913 132.39C209.417 131.916 207.028 132.181 204.69 132.715C203.954 132.878 203.223 133.07 202.492 133.27C200.212 133.91 197.939 134.659 195.599 135.084C192.421 135.665 189.196 135.892 185.995 136.226L176.334 137.234C174.89 137.385 173.422 137.498 171.978 137.69C171.215 137.795 170.319 138.004 169.955 138.774C169.455 139.838 170.302 141.291 170.66 142.261L172.295 146.762C174.699 153.361 177.107 159.963 179.518 166.569H179.33C179.125 166.569 179.001 167.182 179.203 167.182C179.298 167.182 189.485 167.074 194.226 166.766C197.225 166.569 196.708 166.766 199.643 166.051C201.105 173.127 206.979 198.059 206.97 201.189C206.925 203.037 207.114 204.883 207.53 206.684C207.978 208.323 208.627 209.9 209.463 211.377C210.243 212.804 211.072 214.329 212.098 215.593C213.089 216.814 214.219 216.817 215.669 216.59C223.669 215.341 231.695 214.149 239.79 213.728C243.806 213.519 247.804 213.577 251.82 213.705C255.613 213.829 259.557 213.995 263.295 213.208C263.605 213.174 263.899 213.053 264.142 212.858C264.386 212.663 264.569 212.402 264.67 212.106C265.016 211.219 265.285 210.305 265.476 209.372C265.751 208.16 265.944 206.931 266.054 205.693C266.161 205.397 266.249 205.094 266.317 204.786C266.565 203.46 266.662 202.11 266.606 200.762C266.606 199.21 266.606 197.656 266.67 196.112C266.809 192.799 267.17 189.498 267.75 186.233C268.365 182.72 269.222 179.254 270.316 175.862C274.36 171.648 278.027 166.906 278.778 160.969C279.003 159.38 279.055 157.63 278.402 156.122Z" fill="white"/>
<path d="M263.401 114.434C263.272 113.982 263.108 113.541 262.91 113.115C262.381 111.952 261.792 110.886 261.636 109.602C261.468 108.221 262.913 104.737 260.382 101.91C259.59 100.973 258.706 100.12 257.741 99.3642C256.462 98.414 255.413 97.5452 254.65 96.1068C254.023 94.927 253.494 93.7065 252.385 92.9103C251.388 92.198 250.199 91.8077 248.976 91.7916C248.052 91.7746 247.134 91.9443 246.276 92.2907C245.419 92.6372 244.639 93.1532 243.984 93.8082C243.334 92.6784 242.422 91.7236 241.326 91.0258C240.23 90.3279 238.982 89.9076 237.688 89.8011C236.12 89.6819 234.337 89.9812 233.066 90.9779C231.717 92.0415 231.887 93.5409 231.376 95.0287C230.697 97.0163 228.232 96.7025 226.661 97.4841C225.335 98.1409 224.269 99.3439 224.121 100.881C224.046 101.674 224.286 102.25 224.598 102.947C224.887 103.598 224.844 103.967 224.832 104.624C224.803 104.98 224.871 105.338 225.028 105.658C225.809 107.091 227.736 106.76 228.998 106.364C230.015 106.045 230.977 105.577 231.985 105.231C233.146 104.814 234.396 104.713 235.608 104.941C236.969 105.182 238.769 105.522 239.719 104.31C240.001 104.374 240.294 104.373 240.576 104.306C240.857 104.239 241.12 104.108 241.343 103.924C242.568 103.037 243.735 102.148 245.177 101.642C248.158 100.602 250.955 101.933 252.564 104.572C254.173 107.21 254.491 110.494 255.034 113.475C255.323 115.044 255.525 116.657 255.901 118.203C256.141 119.176 256.768 119.502 257.721 119.508C259.954 119.508 262.586 118.677 263.34 116.297C263.521 115.692 263.542 115.05 263.401 114.434V114.434Z" fill="#C8512C"/>
<path d="M261.006 111.817C260.773 109.472 260.116 107.19 259.067 105.082C257.64 102.153 255.823 99.392 253.289 97.3202C250.839 95.3151 247.988 94.4143 244.873 94.3242C240.398 94.1905 234.562 95.3384 231.901 99.3572C232.293 100.061 232.916 100.606 233.664 100.9C233.677 100.922 233.698 100.938 233.722 100.947C233.746 100.956 233.772 100.957 233.796 100.95L233.903 100.99C234.085 101.045 234.163 100.755 233.981 100.7L233.938 100.682C234.028 100.008 236.423 100.214 236.81 100.211C237.772 100.211 238.737 100.211 239.699 100.264C241.409 100.345 243.368 100.458 244.743 101.627C247.45 103.919 246.598 108.511 245.76 111.477C244.922 114.444 243.657 117.44 243.449 120.596C243.278 123.287 244.006 126.521 247.008 127.114C247.817 126.097 249.031 125.245 249.955 124.542C251.376 123.453 252.74 122.087 254.315 121.221C254.793 120.37 255.53 119.695 256.418 119.297C257.302 118.931 258.258 118.855 259.186 118.664C259.54 118.114 259.807 117.514 259.98 116.882C260.269 115.787 259.98 114.558 260.385 113.523C260.561 113.107 260.781 112.71 261.04 112.341C261.035 112.166 261.023 111.992 261.006 111.817Z" fill="#C8512C"/>
<path d="M249.098 122.309C243.676 123.278 238.262 124.296 232.856 125.363C232.821 125.343 232.789 125.317 232.755 125.3C232.732 125.289 232.707 125.285 232.683 125.286C232.658 125.287 232.634 125.294 232.612 125.306C232.591 125.318 232.572 125.335 232.558 125.356C232.544 125.376 232.535 125.4 232.532 125.425H232.515C232.33 125.459 232.408 125.767 232.596 125.733L232.807 125.689C233.673 126.27 233.948 127.432 234.107 128.502C234.338 130.059 234.471 131.643 234.578 133.215C234.75 135.79 234.792 138.372 234.705 140.95C234.679 140.962 234.658 140.981 234.644 141.006C234.63 141.031 234.624 141.059 234.627 141.087C234.627 141.456 234.647 141.822 234.656 142.188C234.651 142.21 234.652 142.232 234.657 142.253C234.662 142.275 234.672 142.295 234.686 142.311C234.7 142.328 234.717 142.342 234.737 142.352C234.757 142.361 234.778 142.366 234.8 142.366C234.822 142.366 234.843 142.361 234.863 142.352C234.883 142.342 234.9 142.328 234.914 142.311C234.928 142.295 234.938 142.275 234.943 142.253C234.948 142.232 234.949 142.21 234.944 142.188C234.965 141.782 234.979 141.372 234.994 140.965C237.166 140.518 239.535 141.032 241.714 141.235L248.532 141.872C248.639 141.872 248.688 141.761 248.673 141.668C248.239 138.385 248.009 135.077 247.983 131.765C247.957 128.641 248.064 125.433 249.257 122.539C249.269 122.513 249.275 122.485 249.273 122.456C249.271 122.428 249.261 122.401 249.245 122.377C249.229 122.354 249.206 122.335 249.181 122.323C249.155 122.311 249.126 122.307 249.098 122.309Z" fill="#FFA47A"/>
<path d="M251.243 99.6846C250.352 98.7675 249.329 97.9889 248.21 97.3744C248.241 97.3621 248.268 97.3405 248.287 97.3125C248.306 97.2845 248.316 97.2514 248.316 97.2175C248.316 97.1836 248.306 97.1505 248.287 97.1225C248.268 97.0945 248.241 97.073 248.21 97.0606C244.33 95.4943 239.291 95.8111 235.512 97.6418C231.661 99.5015 229.503 102.84 227.359 106.484C225.092 110.335 222.737 114.964 223.026 119.593C223.315 124.347 227.663 126.276 231.754 126.857C236.669 127.533 241.665 127.32 246.505 126.227C246.962 126.415 247.464 126.468 247.95 126.378C249.29 126.154 248.675 124.838 249.599 123.873C251.704 121.584 253.345 118.904 254.43 115.984C256.718 109.867 255.534 104.046 251.243 99.6846Z" fill="#FFA47A"/>
<path d="M240.141 108.129C239.453 109.045 238.485 109.469 237.977 109.077C237.468 108.684 237.619 107.624 238.303 106.708C238.988 105.793 239.959 105.369 240.467 105.761C240.976 106.153 240.828 107.211 240.141 108.129Z" fill="#071C26"/>
<path d="M232.116 107.412C231.432 108.327 230.461 108.752 229.955 108.359C229.45 107.967 229.594 106.906 230.282 105.991C230.97 105.076 231.937 104.651 232.446 105.044C232.954 105.436 232.804 106.497 232.116 107.412Z" fill="#071C26"/>
<path d="M236.661 105.461L233.385 106.873C232.498 107.257 231.469 107.588 230.814 108.35C229.594 109.762 230.845 111.546 231.68 112.819C231.793 112.99 232.065 112.819 231.952 112.659C231.469 111.99 231.068 111.265 230.756 110.5C230.32 109.268 231.001 108.379 232.056 107.824C233.579 107.024 235.234 106.432 236.811 105.752C237.005 105.659 236.846 105.383 236.661 105.461Z" fill="#B9643C"/>
<path d="M233.904 112.351C233.669 111.802 233.293 111.326 232.815 110.971C232.653 110.846 232.494 111.125 232.656 111.261C233.086 111.59 233.422 112.027 233.63 112.528C233.711 112.7 233.982 112.534 233.904 112.351Z" fill="#B9643C"/>
<path d="M238.282 177.602C237.777 181.601 237.823 185.646 238.022 189.662C238.36 196.418 239.137 203.206 238.6 209.959C238.51 211.06 238.389 212.153 238.224 213.248C238.193 213.452 237.886 213.365 237.918 213.164C238.078 212.099 238.2 211.033 238.285 209.968C238.528 206.541 238.542 203.101 238.325 199.672C237.918 191.867 236.95 184.004 238.164 176.219C238.805 172.104 239.764 168.083 240.134 163.919C240.433 160.537 240.481 157.137 240.279 153.748L240.591 153.644C240.838 157.695 240.728 161.761 240.261 165.793C239.793 169.748 238.782 173.633 238.282 177.602Z" fill="#B1B1C2"/>
<path d="M242.635 101.907C241.673 101.518 239.746 101.497 238.845 102.166C238.63 102.303 238.464 102.506 238.374 102.746C238.283 102.985 238.272 103.248 238.342 103.494C238.472 104.252 239.145 104.366 239.648 104.438L241.552 104.688C241.993 104.79 242.45 104.799 242.895 104.714C243.175 104.636 243.418 104.462 243.583 104.222C243.748 103.982 243.823 103.691 243.797 103.401C243.767 103.066 243.641 102.746 243.435 102.481C243.229 102.216 242.951 102.017 242.635 101.907V101.907Z" fill="#C8512C"/>
<path d="M230.601 102.25C230.533 102.543 230.573 102.851 230.711 103.118C230.85 103.384 231.08 103.592 231.358 103.703C231.814 103.862 232.297 103.929 232.779 103.901C233.461 103.924 234.862 104.057 235.414 103.177C235.493 103.077 235.551 102.963 235.585 102.84C235.619 102.718 235.627 102.589 235.611 102.463C235.594 102.337 235.552 102.215 235.487 102.106C235.423 101.996 235.337 101.901 235.235 101.826C234.809 101.442 234.3 101.164 233.747 101.016C233.195 100.867 232.616 100.852 232.057 100.971C231.716 101.018 231.397 101.164 231.138 101.391C230.879 101.618 230.692 101.917 230.601 102.25V102.25Z" fill="#C8512C"/>
<path d="M236.209 115.15C233.795 115.68 231.282 115.503 228.966 114.639C228.775 114.569 228.694 114.877 228.882 114.947C231.253 115.827 233.824 116.004 236.292 115.458C236.492 115.441 236.408 115.118 236.209 115.15Z" fill="#B9643C"/>
<path d="M296.783 181.022C296.078 179.163 293.169 178.988 291.528 179.032C291.092 179.032 290.661 179.075 290.225 179.128C288.203 179.369 286.203 180 284.265 180.648C281.691 181.496 279.226 182.481 277.071 184.169C276.566 184.565 275.257 185.721 274.139 186.84C273.272 187.712 272.521 188.557 272.35 189.011C271.666 190.821 273.006 192.329 274.69 192.788C275.446 192.984 276.222 193.092 277.002 193.111C278.609 193.122 280.214 192.971 281.792 192.66C284.216 192.23 286.583 191.522 288.847 190.551C290.741 189.77 292.442 188.579 293.828 187.064C294.027 186.846 294.218 186.622 294.406 186.387C295.472 185.056 297.494 182.902 296.783 181.022Z" fill="#071C26"/>
<path d="M179.471 162.588C179.217 161.568 178.914 160.554 178.605 159.551C178.449 159.02 178.295 158.488 178.142 157.956C177.073 154.219 176.048 150.459 174.852 146.762C174.273 144.959 173.541 143.208 172.662 141.532C172.523 141.267 172.373 141.009 172.237 140.75C171.948 140.233 171.659 139.71 171.316 139.222C170.972 138.733 170.651 138.44 170.255 138.443C168.811 139.315 168.467 140.994 168.522 142.694C168.562 143.696 168.674 144.693 168.857 145.678C169.241 148.003 169.906 150.258 170.541 152.513C171.139 154.757 171.853 156.967 172.682 159.135C173.264 160.611 173.972 162.033 174.797 163.387C175.334 164.301 175.962 165.158 176.672 165.944C177.406 166.734 179.645 168.208 179.98 166.159C180.162 165.046 179.737 163.677 179.471 162.588Z" fill="#071C26"/>
<path d="M186.779 164.119C186.71 164.959 186.649 165.796 186.6 166.635C186.574 167.054 186.551 167.475 186.531 167.894C186.514 168.266 185.268 168.661 184.844 168.681C183.893 168.722 155.843 170.532 151.154 166.356C148.632 164.113 144.957 161.036 146.214 157.223C146.792 155.459 148.155 154.065 149.392 152.742L151.923 150.052C153.343 150.038 154.763 150.104 156.176 150.249C159.53 150.692 162.744 151.883 165.582 153.736C167.027 154.669 168.347 155.741 169.818 156.607C172.646 158.272 175.83 159.223 178.933 160.242C180.579 160.8 182.254 161.267 183.951 161.643C184.711 161.8 185.476 161.934 186.248 162.012C186.779 162.07 186.941 161.98 186.933 162.553C186.918 163.07 186.84 163.602 186.779 164.119Z" fill="#FFA47A"/>
<path d="M174.87 146.763C174.292 144.959 173.559 143.209 172.68 141.533C171.288 141.893 169.907 142.282 168.526 142.695C168.498 142.702 168.47 142.711 168.442 142.721C163.638 144.174 158.666 145.822 154.231 148.266C150.215 150.477 146.465 154.077 145.959 158.852C145.959 158.852 145.977 158.852 145.983 158.852C148.612 159.923 151.444 160.402 154.277 160.255C157.236 160.095 160.208 161.304 163.132 160.836C166.327 160.31 169.517 159.758 172.695 159.125C174.525 158.764 176.347 158.371 178.161 157.945C177.092 154.22 176.066 150.46 174.87 146.763Z" fill="#FFA47A"/>
<path d="M109.041 173.444C108.185 168.16 107.755 162.815 107.755 157.461C107.755 131.762 117.483 107.597 135.146 89.4236C152.81 71.2504 176.295 61.2368 201.274 61.2368C207.604 61.2355 213.917 61.8898 220.114 63.1896L220.053 63.4801C213.877 62.1838 207.584 61.5314 201.274 61.5332C149.866 61.5332 108.044 104.569 108.044 157.464C108.043 162.802 108.472 168.132 109.327 173.4L109.041 173.444Z" fill="#071C26"/>
<path d="M130.35 120.476L130.061 120.45C130.885 110.918 133.125 101.563 136.706 92.699C140.104 84.2742 144.709 76.3945 150.374 69.3097C153.571 65.3157 157.094 61.5978 160.907 58.1948L161.101 58.4099C157.299 61.8036 153.785 65.5108 150.596 69.4928C144.95 76.556 140.36 84.4112 136.972 92.8094C133.404 101.648 131.172 110.973 130.35 120.476Z" fill="#071C26"/>
<path d="M142.714 84.819C142.717 85.3369 142.567 85.8439 142.283 86.2759C141.999 86.7079 141.594 87.0454 141.119 87.2455C140.645 87.4457 140.121 87.4996 139.616 87.4003C139.111 87.301 138.646 87.0531 138.281 86.6879C137.916 86.3228 137.667 85.8568 137.565 85.3491C137.464 84.8414 137.514 84.3148 137.711 83.8361C137.907 83.3574 138.24 82.9481 138.668 82.66C139.096 82.372 139.599 82.2183 140.114 82.2183C140.801 82.2183 141.461 82.4918 141.948 82.9791C142.435 83.4664 142.711 84.1279 142.714 84.819Z" fill="#071C26"/>
<path d="M131.496 121.484C131.497 121.742 131.421 121.994 131.279 122.209C131.137 122.423 130.935 122.59 130.699 122.689C130.463 122.788 130.202 122.814 129.951 122.765C129.7 122.715 129.469 122.591 129.287 122.409C129.106 122.227 128.983 121.995 128.932 121.742C128.882 121.49 128.908 121.228 129.006 120.99C129.103 120.752 129.269 120.548 129.482 120.405C129.695 120.262 129.946 120.186 130.202 120.186C130.544 120.186 130.873 120.322 131.116 120.566C131.358 120.809 131.495 121.14 131.496 121.484V121.484Z" fill="#071C26"/>
<path d="M162.289 58.3018C162.289 58.5593 162.213 58.811 162.071 59.0251C161.929 59.2392 161.726 59.406 161.49 59.5045C161.253 59.6031 160.993 59.6289 160.742 59.5786C160.491 59.5284 160.26 59.4044 160.079 59.2223C159.898 59.0403 159.775 58.8083 159.725 58.5558C159.675 58.3033 159.701 58.0415 159.799 57.8036C159.897 57.5658 160.063 57.3624 160.276 57.2194C160.488 57.0763 160.739 57 160.995 57C161.338 57 161.667 57.1371 161.91 57.3813C162.153 57.6254 162.289 57.9566 162.289 58.3018V58.3018Z" fill="#071C26"/>
<path d="M292.322 277.399H278.931L163.143 120.924L167.754 117.35L168 117.158L171.648 114.331L292.322 277.399Z" fill="#AFBFC9"/>
<path d="M147.374 89.9385L146.372 90.7579L155.395 101.916L154.574 102.588L145.551 91.4263L144.549 92.2457L153.15 111.297L159.904 116.957L168.268 110.125L163.943 102.483L147.374 89.9385Z" fill="#071C26"/>
<path d="M167.694 109.445L159.36 116.252L163.405 121.262L171.739 114.455L167.694 109.445Z" fill="#071C26"/>
<path d="M286.205 277.398H285.82L167.75 117.349L166.485 115.635C166.366 115.475 166.623 115.298 166.742 115.458L167.996 117.158L286.205 277.398Z" fill="#80809C"/>
<path d="M325.973 211.875C320.242 211.875 314.639 213.585 309.873 216.787C305.108 219.99 301.394 224.542 299.201 229.869C297.008 235.195 296.434 241.055 297.553 246.709C298.671 252.363 301.432 257.556 305.485 261.632C309.538 265.708 314.702 268.483 320.323 269.607C325.945 270.731 331.771 270.153 337.066 267.946C342.361 265.739 346.886 262.003 350.07 257.209C353.253 252.415 354.951 246.78 354.95 241.015C354.948 233.286 351.894 225.875 346.46 220.41C341.026 214.946 333.657 211.876 325.973 211.875V211.875ZM326.314 265.578C321.499 265.579 316.792 264.143 312.789 261.453C308.785 258.763 305.664 254.939 303.822 250.465C301.979 245.991 301.496 241.068 302.435 236.318C303.374 231.569 305.692 227.206 309.097 223.781C312.501 220.357 316.839 218.024 321.561 217.079C326.283 216.134 331.178 216.619 335.626 218.472C340.074 220.325 343.877 223.464 346.552 227.49C349.227 231.517 350.654 236.251 350.654 241.093C350.654 247.587 348.09 253.814 343.525 258.406C338.961 262.997 332.77 265.577 326.314 265.578V265.578Z" fill="white"/>
<path d="M174.76 182.856C171.862 182.856 169.029 183.72 166.62 185.339C164.21 186.958 162.332 189.259 161.223 191.952C160.113 194.644 159.823 197.607 160.388 200.466C160.953 203.325 162.349 205.951 164.398 208.012C166.447 210.073 169.058 211.476 171.9 212.045C174.742 212.613 177.688 212.321 180.365 211.205C183.042 210.09 185.33 208.201 186.94 205.777C188.549 203.353 189.408 200.504 189.408 197.589C189.404 193.683 187.859 189.938 185.113 187.176C182.367 184.414 178.644 182.86 174.76 182.856ZM183.427 197.589C183.427 199.313 182.919 200.999 181.967 202.432C181.014 203.866 179.661 204.983 178.077 205.643C176.493 206.303 174.751 206.476 173.069 206.139C171.388 205.803 169.844 204.973 168.632 203.753C167.419 202.534 166.594 200.981 166.259 199.29C165.925 197.599 166.097 195.846 166.753 194.253C167.409 192.66 168.52 191.299 169.945 190.341C171.37 189.383 173.046 188.872 174.76 188.872C177.057 188.875 179.259 189.793 180.884 191.425C182.51 193.057 183.426 195.27 183.433 197.58L183.427 197.589Z" fill="#00CAAA"/>
<path d="M322.556 97.599C321.912 96.734 320.956 96.1579 319.894 95.9949C318.831 95.8319 317.748 96.0948 316.876 96.7273C317.305 96.3983 317.664 95.9878 317.935 95.5191C318.205 95.0504 318.381 94.5327 318.452 93.9956C318.524 93.4585 318.49 92.9125 318.351 92.3888C318.213 91.865 317.973 91.3738 317.646 90.9432C317.319 90.5125 316.911 90.1509 316.445 89.8789C315.979 89.6069 315.464 89.4299 314.93 89.358C314.396 89.2861 313.854 89.3207 313.333 89.4598C312.812 89.5989 312.324 89.8398 311.896 90.1688V90.16C312.745 89.5166 313.313 88.5664 313.48 87.5099C313.647 86.4534 313.399 85.3731 312.789 84.4968C312.179 83.6205 311.254 83.0168 310.21 82.8129C309.166 82.609 308.084 82.8209 307.192 83.4039C307.959 82.6922 308.427 81.7136 308.502 80.6671C308.576 79.6206 308.252 78.5847 307.594 77.7703C306.936 76.9559 305.995 76.4241 304.961 76.2831C303.927 76.142 302.879 76.4023 302.03 77.011L295.292 82.105L300.227 88.7071L305.138 95.2918L310.067 101.882L315.004 108.467L317.417 106.642L319.748 104.878L321.744 103.37C322.612 102.712 323.185 101.735 323.337 100.653C323.489 99.5715 323.208 98.4731 322.556 97.599V97.599Z" fill="#A644E5"/>
<path d="M248.669 198.74C246.479 198.728 244.336 198.097 242.486 196.918C241.38 196.206 239.944 194.884 238.805 194.21C237.67 193.594 236.361 193.382 235.09 193.608C233.706 193.803 229.257 194.875 227.737 195.099C226.527 195.279 224.909 194.887 223.04 196.261C222.653 196.552 222.338 197.592 222.312 198.086C220.96 197.734 219.134 197.607 218.556 198.348C217.626 199.58 218.767 201.477 219.917 202.087C219.137 202.651 219.284 203.805 219.917 204.461C220.355 204.888 220.873 205.223 221.439 205.449C221.179 205.646 221.003 205.935 220.948 206.257C220.821 206.905 221.197 207.484 221.685 207.873C222.644 208.634 223.961 208.896 225.279 208.995C225.016 210.5 227.324 211.116 228.44 211.29C230.349 211.581 232.302 211.232 234.151 210.75C237.224 209.946 240.208 208.828 243.055 207.414L248.403 207.536C248.576 204.595 248.649 201.669 248.669 198.74Z" fill="#FFA47A"/>
<path d="M294.135 191.057C291.041 188.689 288.632 188.442 284.963 188.614C280.8 188.8 255.913 197.793 247.211 198.688C247.009 198.688 246.807 198.688 246.605 198.688C246.581 201.617 246.506 204.546 246.347 207.47C257.436 207.885 275.957 208.501 279.601 207.996C289.62 206.612 295.268 204.726 296.337 201.649C297.475 198.377 297.169 193.373 294.135 191.057Z" fill="#FFA47A"/>
<path d="M296.785 198.292C296.574 195.386 296.363 193.003 295.224 190.356C295.051 189.952 294.023 187.464 293.841 187.06C292.714 184.459 291.539 181.877 290.316 179.316C290.287 179.252 290.255 179.191 290.226 179.127C288.204 179.369 286.205 179.999 284.266 180.647C281.692 181.496 279.228 182.481 277.072 184.169C276.567 184.564 275.258 185.721 274.14 186.84C275.174 188.894 276.989 193.07 277.87 195.194C278.721 197.247 279.503 199.332 280.216 201.447C280.464 202.187 280.714 202.93 280.964 203.676C281.117 204.121 281.253 204.838 281.646 205.129C281.958 205.37 282.365 205.344 282.738 205.335C283.605 205.315 284.471 205.277 285.355 205.234C288.181 205.088 291.133 204.981 293.803 203.911C296.068 203.002 296.975 200.945 296.785 198.292Z" fill="#FFA47A"/>
<path d="M172.244 157.933C166.772 155.158 162.042 150.864 156.042 149.201C156.001 149.19 155.958 149.195 155.921 149.216C155.884 149.236 155.857 149.271 155.845 149.312C155.834 149.353 155.839 149.396 155.86 149.433C155.88 149.471 155.915 149.498 155.955 149.509C161.93 151.166 166.645 155.446 172.082 158.21C172.264 158.302 172.426 158.026 172.244 157.933Z" fill="#B9643C"/>
<path d="M226.706 202.558C224.542 202.693 222.369 202.484 220.269 201.936C220.229 201.925 220.185 201.93 220.149 201.951C220.112 201.971 220.085 202.006 220.073 202.047C220.062 202.087 220.067 202.131 220.087 202.168C220.108 202.205 220.142 202.233 220.183 202.244C222.31 202.801 224.512 203.015 226.706 202.878C226.909 202.866 226.909 202.544 226.706 202.558Z" fill="#B9643C"/>
<path d="M228.093 205.603C225.982 205.715 223.865 205.608 221.775 205.284C221.573 205.255 221.486 205.574 221.688 205.595C223.807 205.925 225.953 206.035 228.093 205.923C228.299 205.911 228.299 205.592 228.093 205.603Z" fill="#B9643C"/>
<path d="M230.757 208.741C229.136 209.27 227.33 209.032 225.652 208.982C225.449 208.982 225.449 209.296 225.652 209.302C227.362 209.351 229.188 209.593 230.852 209.049C231.046 208.985 230.95 208.677 230.757 208.741Z" fill="#B9643C"/>
<path d="M231.045 196.804C228.734 198.138 226.05 198.005 223.478 197.833C223.273 197.833 223.273 198.141 223.478 198.156C226.113 198.33 228.838 198.446 231.207 197.08C231.225 197.07 231.24 197.056 231.253 197.039C231.265 197.022 231.275 197.003 231.28 196.983C231.285 196.962 231.286 196.941 231.283 196.92C231.28 196.899 231.273 196.879 231.263 196.861C231.252 196.843 231.238 196.827 231.221 196.814C231.205 196.802 231.186 196.793 231.165 196.787C231.125 196.777 231.081 196.783 231.045 196.804Z" fill="#B9643C"/>
<path d="M211.475 142.075C210.392 145.95 209.524 149.882 208.875 153.853C208.84 154.053 209.164 154.143 209.181 153.937C209.831 149.966 210.699 146.034 211.781 142.16C211.79 142.119 211.784 142.077 211.763 142.042C211.742 142.007 211.708 141.981 211.668 141.97C211.629 141.959 211.587 141.964 211.551 141.984C211.515 142.003 211.488 142.036 211.475 142.075V142.075Z" fill="#B1B1C2"/>
<path d="M207.647 157.183C207.633 156.712 207.558 156.064 207.049 155.869C206.875 155.808 206.686 155.808 206.512 155.869C206.588 155.571 206.607 155.262 206.57 154.957C206.532 154.519 206.334 154.112 206.013 153.814C205.692 153.516 205.273 153.35 204.836 153.347C204.942 153.058 204.974 152.747 204.929 152.443C204.885 152.138 204.765 151.85 204.582 151.603C203.634 150.296 202.224 151.356 201.115 152.266C201.168 152.022 201.159 151.769 201.09 151.53C201.02 151.291 200.892 151.073 200.716 150.897C199.982 150.148 199.061 150.918 198.246 151.098C196.963 151.388 195.617 151.228 194.349 151.618C191.526 152.49 189.804 154.84 187.929 156.956C185.45 159.196 183.573 161.024 182.454 161.582C182.509 161.695 182.561 161.815 182.61 161.942C183.307 163.802 182.83 166.08 183.405 167.786C183.527 168.136 183.587 168.505 183.581 168.876C188.568 168.876 198.85 168.274 200.081 167.891C201.493 167.452 204.463 165.813 205.463 164.72C206.367 163.732 207.364 162.256 207.393 160.861C207.394 160.423 207.231 160.001 206.936 159.679C207.394 158.927 207.64 158.064 207.647 157.183V157.183Z" fill="#FFA47A"/>
<path d="M199.852 152.373C198.438 153.333 196.876 154.053 195.23 154.505C195.191 154.518 195.158 154.545 195.139 154.581C195.119 154.618 195.114 154.66 195.125 154.7C195.136 154.739 195.162 154.773 195.197 154.795C195.232 154.816 195.274 154.823 195.314 154.813C196.989 154.356 198.578 153.624 200.017 152.649C200.185 152.535 200.026 152.256 199.852 152.373Z" fill="#B9643C"/>
<path d="M204.278 153.611C203.394 154.586 202.377 155.431 201.259 156.122C200.167 156.825 199.014 157.644 197.72 157.885C197.521 157.923 197.604 158.234 197.804 158.196C199.133 157.946 200.303 157.118 201.421 156.398C202.563 155.696 203.6 154.836 204.503 153.843C204.636 153.684 204.414 153.457 204.278 153.611Z" fill="#B9643C"/>
<path d="M206.571 159.719C205.019 162.381 202.336 163.903 199.724 165.342C199.542 165.441 199.704 165.717 199.883 165.618C202.544 164.165 205.268 162.59 206.845 159.879C206.863 159.842 206.867 159.801 206.855 159.762C206.843 159.723 206.818 159.69 206.783 159.669C206.748 159.649 206.706 159.643 206.667 159.652C206.628 159.661 206.593 159.685 206.571 159.719V159.719Z" fill="#B9643C"/>
<path d="M206.357 155.927C204.31 158.261 201.855 160.198 199.114 161.643C198.932 161.739 199.094 162.015 199.273 161.934C202.039 160.477 204.516 158.523 206.582 156.168C206.718 156 206.49 155.773 206.357 155.927Z" fill="#B9643C"/>
<path d="M283.597 187.122C281.178 187.965 278.791 188.887 276.435 189.889C276.247 189.967 276.409 190.243 276.597 190.165C278.929 189.175 281.291 188.264 283.681 187.433C283.874 187.363 283.791 187.055 283.597 187.122Z" fill="#B9643C"/>
<path d="M231.152 141.884C230.384 140.927 229.755 139.864 229.286 138.728C228.896 137.769 228.809 136.694 228.419 135.758C228.162 135.122 227.674 134.933 227.024 134.916C225.877 134.9 224.731 134.998 223.603 135.206C223.57 135.216 223.541 135.236 223.52 135.264C223.499 135.291 223.488 135.325 223.488 135.36C223.471 135.374 223.457 135.392 223.449 135.412C223.44 135.432 223.437 135.454 223.439 135.476C223.493 138.403 224.063 141.296 225.12 144.023C225.149 144.095 225.23 144.171 225.316 144.136C227.195 143.358 229.118 142.691 231.074 142.14C231.099 142.132 231.122 142.118 231.14 142.099C231.159 142.08 231.172 142.057 231.18 142.032C231.188 142.007 231.189 141.98 231.184 141.955C231.179 141.929 231.168 141.904 231.152 141.884V141.884Z" fill="#F2E6E6"/>
<path d="M249.357 147.859C251.143 148.834 252.871 149.914 254.531 151.093C254.569 151.112 254.612 151.115 254.653 151.103C254.693 151.09 254.727 151.063 254.748 151.026C256.379 148.603 257.572 145.91 258.272 143.07C258.279 143.049 258.28 143.026 258.276 143.004C258.272 142.983 258.263 142.962 258.249 142.945C258.257 142.911 258.254 142.875 258.24 142.843C258.226 142.811 258.202 142.784 258.171 142.767C257.118 142.31 256.024 141.956 254.904 141.71C254.265 141.582 253.748 141.657 253.355 142.221C252.777 143.058 252.457 144.075 251.862 144.924C251.155 145.926 250.308 146.822 249.348 147.582C249.325 147.598 249.307 147.619 249.294 147.643C249.281 147.668 249.275 147.695 249.276 147.723C249.277 147.751 249.285 147.777 249.299 147.801C249.313 147.825 249.333 147.845 249.357 147.859V147.859Z" fill="#F2E6E6"/>
<path d="M231.249 168.327L230.631 167.964L230.374 168.289C230.016 168.733 229.557 169.084 229.035 169.313C228.514 169.541 227.945 169.639 227.378 169.6C226.695 169.569 226.029 169.38 225.431 169.047C224.833 168.715 224.318 168.249 223.928 167.685C223.597 167.187 223.372 166.625 223.269 166.035C223.165 165.445 223.185 164.84 223.328 164.259C223.468 163.681 223.727 163.139 224.089 162.668C224.45 162.197 224.905 161.808 225.425 161.524L225.835 161.303L225.624 160.885C225.355 160.348 225.083 159.811 224.81 159.272L224.584 158.825L224.148 159.075C223.329 159.556 222.615 160.197 222.047 160.961C221.48 161.726 221.071 162.597 220.845 163.523C220.619 164.449 220.58 165.412 220.731 166.353C220.882 167.295 221.22 168.196 221.724 169.004C222.365 170.002 223.237 170.829 224.266 171.414C225.294 171.998 226.448 172.323 227.629 172.36H227.829C228.794 172.376 229.749 172.156 230.612 171.72C231.475 171.284 232.22 170.644 232.783 169.855L233.072 169.434L232.633 169.164C232.188 168.882 231.717 168.617 231.249 168.327Z" fill="#A644E5"/>
<path d="M285.446 161.274C284.339 161.689 283.348 162.368 282.56 163.254C281.772 164.139 281.21 165.204 280.922 166.357C280.905 166.421 280.893 166.488 280.876 166.551C280.653 167.498 280.661 168.485 280.9 169.427C281.138 170.37 281.6 171.241 282.245 171.965L282.592 172.349L282.944 171.974C283.33 171.577 283.7 171.177 284.057 170.774L284.542 170.245L284.282 169.919C283.927 169.473 283.684 168.948 283.574 168.387C283.464 167.827 283.49 167.248 283.649 166.7C283.825 166.035 284.152 165.42 284.603 164.903C285.054 164.386 285.617 163.98 286.25 163.718C286.455 163.636 286.667 163.57 286.882 163.521C286.405 162.771 285.926 162.022 285.446 161.274Z" fill="#A644E5"/>
<path d="M261.399 145.32C260.436 146.932 259.445 148.528 258.426 150.109C256.577 153.015 254.656 155.865 252.662 158.661C252.641 158.697 252.636 158.741 252.646 158.782C252.657 158.823 252.684 158.857 252.72 158.879L254.794 159.934C254.831 159.954 254.874 159.959 254.914 159.948C254.955 159.938 254.989 159.911 255.011 159.875C256.248 158.093 257.468 156.301 258.672 154.5C260.443 151.858 262.179 149.199 263.909 146.535C263.985 146.416 264.065 146.299 264.141 146.18C263.236 145.852 262.344 145.538 261.46 145.221C261.441 145.255 261.421 145.288 261.399 145.32V145.32Z" fill="#A644E5"/>
<path d="M213.212 197.787C211.345 196.698 209.468 195.627 207.581 194.573C206.942 194.209 206.298 193.855 205.657 193.498L206.321 196.854C208.303 197.952 210.266 199.082 212.209 200.242C212.228 200.251 212.248 200.257 212.269 200.258C212.289 200.26 212.31 200.257 212.33 200.25C212.349 200.244 212.368 200.233 212.383 200.219C212.399 200.205 212.411 200.188 212.42 200.169C212.709 199.446 212.998 198.716 213.287 198.002C213.305 197.963 213.307 197.919 213.293 197.879C213.279 197.838 213.25 197.805 213.212 197.787Z" fill="#A644E5"/>
<path d="M259.416 183.528C258.72 183.118 258.007 183.179 257.235 183.203C256.27 183.232 255.406 182.991 255.008 182.026C254.583 180.997 254.944 179.91 255.057 178.861C255.127 178.205 255.062 177.541 254.866 176.911C254.671 176.281 254.35 175.697 253.921 175.197C253.055 174.186 251.983 173.785 250.744 173.485C249.857 173.27 248.99 172.939 248.542 172.082C248.114 171.268 248.172 170.286 248.21 169.397C248.256 168.255 248.366 166.968 247.6 166.026C247.077 165.43 246.36 165.041 245.578 164.928C245.163 165.443 244.713 165.928 244.232 166.381C244.673 166.521 245.084 166.745 245.442 167.04C246.309 167.764 246.523 168.827 246.528 169.903C246.528 171.065 246.216 172.457 246.786 173.523C247.482 174.834 249.129 174.686 250.322 175.22C251.311 175.67 252.135 176.42 252.679 177.365C253.223 178.31 253.46 179.402 253.355 180.489C253.182 182.078 252.575 184.443 254.962 184.493C256.083 184.516 257.004 184.368 257.937 185.123C259.535 186.417 259.581 188.416 259.223 190.293C259.743 190.002 260.257 189.741 260.769 189.453C261.15 188.021 261.398 186.478 260.769 185.094C260.486 184.447 260.014 183.901 259.416 183.528V183.528Z" fill="#A644E5"/>
<path d="M207.236 143.705C207.211 142.997 206.975 142.313 206.56 141.741C206.06 141.105 205.372 140.901 204.644 140.64C203.737 140.311 203.021 139.768 202.997 138.722C202.977 137.609 203.711 136.731 204.196 135.799C204.687 134.855 204.853 133.775 204.667 132.727C203.931 132.89 203.2 133.082 202.469 133.282C202.708 134.435 202.547 135.635 202.012 136.682C201.27 138.1 199.843 140.076 202.05 141.003C203.084 141.433 203.994 141.636 204.586 142.683C205.606 144.473 204.922 146.353 203.908 147.968C204.485 147.901 205.063 147.835 205.641 147.753C206.522 146.562 207.317 145.216 207.236 143.705Z" fill="#A644E5"/>
<path d="M250.405 125.01C250.913 124.603 251.496 124.3 252.121 124.118C252.91 123.898 253.629 123.473 254.204 122.886C255.215 121.817 256.007 120.657 257.191 119.751C257.864 119.234 258.581 118.78 259.294 118.327C259.67 117.782 259.962 117.183 260.161 116.552C260.436 115.747 260.866 114.698 260.395 113.887C260.218 113.601 259.992 113.35 259.728 113.143C259.777 113.03 259.832 112.919 259.878 112.803C260.007 111.591 259.992 110.368 259.835 109.159C259.427 105.963 257.965 103.31 255.342 101.456C253.932 100.456 252.424 99.6191 251.029 98.5933C249.633 97.5676 248.304 96.5592 246.695 96.0071C244.866 95.423 242.932 95.2446 241.027 95.4841C239.701 95.6206 238.294 95.827 237.052 96.3762C235.145 96.1727 232.079 97.0619 232.166 99.2065C232.167 99.2377 232.177 99.2681 232.195 99.2935C232.213 99.3189 232.238 99.3382 232.267 99.3488C232.29 99.3764 232.321 99.395 232.356 99.4013C232.391 99.4077 232.427 99.4015 232.458 99.3837C235.214 97.8436 236.633 96.9573 241.313 97.8872C245.404 98.7008 247.741 100.488 247.897 103.818C247.966 105.344 247.004 106.576 246.857 108.052C246.724 109.365 247.365 109.949 248.241 110.772C248.808 111.276 249.187 111.96 249.316 112.71C249.431 115.235 247.397 117.359 246.455 119.731C245.956 120.974 245.791 122.288 246.273 123.56C246.739 124.784 247.579 125.812 247.888 127.097C248.094 126.954 249.353 125.903 250.405 125.01Z" fill="#C8512C"/>
<path d="M249.611 112.784C249.14 111.009 247.361 110.663 245.856 111.122C245.052 110.942 244.379 111.444 243.946 112.124C243.383 112.996 242.848 114.222 242.946 115.298C243.134 117.384 245.546 117.805 247.161 117.16C248.837 116.486 250.111 114.652 249.611 112.784Z" fill="#FFA47A"/>
<path d="M248.477 112.517C248.079 112.323 247.631 112.257 247.194 112.329C246.758 112.4 246.354 112.606 246.038 112.918C246.019 112.938 246.006 112.963 245.999 112.989C245.992 113.016 245.992 113.044 245.999 113.071C246.006 113.098 246.02 113.122 246.039 113.142C246.058 113.162 246.081 113.177 246.108 113.185C247.029 113.392 247.075 114.455 246.356 114.903C246.12 115.022 245.859 115.084 245.595 115.084C245.33 115.084 245.07 115.022 244.834 114.903C244.646 114.827 244.562 115.135 244.75 115.211C245.565 115.539 246.651 115.472 247.061 114.566C247.132 114.422 247.172 114.265 247.18 114.105C247.188 113.945 247.163 113.785 247.106 113.635C247.049 113.485 246.962 113.349 246.851 113.234C246.739 113.12 246.605 113.03 246.457 112.97C246.72 112.775 247.031 112.655 247.356 112.624C247.682 112.593 248.009 112.653 248.303 112.796C248.5 112.88 248.664 112.604 248.477 112.517Z" fill="#B9643C"/>
<path d="M136.713 223.356L118.8 241.373L136.713 259.375L154.61 241.373L136.713 223.356ZM122.969 241.527L136.88 227.535L150.791 241.527L136.88 255.521L122.969 241.527Z" fill="#A644E5"/>
<path d="M88.5733 183.346L80.0881 191.884L88.5733 200.418L97.0614 191.884L88.5733 183.346Z" fill="#0073EC"/>
<path d="M248.557 93.4467C248.447 93.2753 248.173 93.4467 248.285 93.6095C249.187 95.0333 248.687 96.6374 248.335 98.1542C248.025 99.4953 247.928 100.877 248.046 102.249C248.063 102.452 248.381 102.452 248.363 102.249C248.213 100.459 248.54 98.8342 248.921 97.0994C249.184 95.8528 249.265 94.5626 248.557 93.4467Z" fill="#A03A1F"/>
<path d="M259.412 117.529C256.592 118.075 256.335 113.336 256.277 111.523C256.278 111.501 256.273 111.48 256.264 111.46C256.255 111.44 256.242 111.423 256.225 111.409C256.534 111.03 256.784 110.606 256.968 110.151C258.389 106.705 257.719 102.544 255.627 99.5418C255.512 99.3762 255.237 99.5418 255.356 99.7046C256.229 100.955 256.839 102.372 257.149 103.868C257.46 105.363 257.464 106.907 257.161 108.405C256.872 109.765 256.295 111.601 254.833 112.066C254.611 112.151 254.375 112.191 254.138 112.183C253.901 112.175 253.668 112.119 253.453 112.019C253.237 111.919 253.044 111.777 252.884 111.601C252.724 111.425 252.601 111.219 252.521 110.994C252.21 110.181 251.978 109.339 251.828 108.48C251.821 108.454 251.807 108.429 251.787 108.41C251.768 108.39 251.744 108.376 251.717 108.369C251.691 108.362 251.663 108.361 251.636 108.368C251.609 108.375 251.585 108.389 251.565 108.408C250.86 109.157 249.774 108.663 249.315 107.893C248.962 107.312 248.87 106.577 248.771 105.903C248.74 105.699 248.436 105.787 248.465 105.987C248.61 106.966 248.792 108.149 249.664 108.753C249.937 108.961 250.266 109.079 250.608 109.091C250.95 109.104 251.287 109.01 251.574 108.823C251.834 110.224 252.195 112.246 253.81 112.476C254.205 112.528 254.607 112.484 254.982 112.348C255.357 112.212 255.694 111.988 255.965 111.694C256.043 113.842 256.448 118.427 259.493 117.837C259.695 117.799 259.608 117.491 259.412 117.529Z" fill="#A03A1F"/>
<path d="M239.418 143.919C238.063 141.812 235.873 140.606 233.718 139.479C233.539 139.383 233.377 139.659 233.559 139.769C235.657 140.871 237.82 142.039 239.141 144.093C239.253 144.259 239.528 144.096 239.418 143.919Z" fill="#B9643C"/>
<path d="M249.275 143.737C247.106 143.583 244.91 143.464 242.818 144.173C242.625 144.237 242.706 144.548 242.902 144.481C244.971 143.783 247.134 143.9 249.275 144.057C249.48 144.071 249.48 143.751 249.275 143.737Z" fill="#B9643C"/>
<path d="M271.232 157.935C271.189 166.126 270.182 174.283 268.233 182.236C268.224 182.277 268.23 182.319 268.252 182.354C268.273 182.389 268.306 182.415 268.346 182.426C268.385 182.437 268.427 182.432 268.463 182.412C268.499 182.393 268.527 182.36 268.539 182.321C270.495 174.34 271.506 166.154 271.549 157.935C271.549 157.892 271.533 157.852 271.503 157.822C271.473 157.792 271.433 157.775 271.391 157.775C271.348 157.775 271.308 157.792 271.278 157.822C271.248 157.852 271.232 157.892 271.232 157.935Z" fill="#B1B1C2"/>
<path d="M365.811 194.791L362.76 196.139C361.717 196.607 359.273 197.697 358.785 197.043C358.377 196.497 358.256 195.105 358.178 194.184L358.161 193.977C358.094 192.994 358.079 192.007 358.117 191.022C358.117 190.607 358.135 190.191 358.138 189.776C358.138 188.363 358.039 186.713 357.207 185.173C356.769 184.382 356.167 183.696 355.442 183.16C354.716 182.625 353.885 182.253 353.004 182.069C351.088 181.63 349.219 181.909 347.644 182.241C346.018 182.586 344.437 183.124 342.935 183.842L340.711 184.902L342.326 186.771C342.645 187.139 342.96 187.513 343.27 187.893L344.178 188.997L345.475 188.416C346.427 187.983 347.42 187.648 348.439 187.413C349.436 187.184 350.71 186.945 351.744 187.14C352.461 187.277 352.663 187.648 352.755 187.919C353.001 188.645 352.966 189.63 352.929 190.671V190.874C352.858 192.593 352.945 194.315 353.189 196.017C353.379 197.276 353.662 199.179 355.049 200.667C355.599 201.25 356.264 201.711 357.002 202.019C357.74 202.327 358.535 202.475 359.334 202.454H359.565C361.298 202.399 362.988 201.742 364.106 201.254L367.553 199.74L370.347 198.505L365.811 194.791Z" fill="#F59D00"/>
<path d="M132.059 163.014L129.063 160.719L126.634 158.859L125.608 164.636L128.26 166.67C129.17 167.361 131.305 168.995 130.973 169.73C130.684 170.352 129.546 171.133 128.783 171.65L128.61 171.767C127.783 172.305 126.927 172.798 126.047 173.243C125.689 173.435 125.328 173.626 124.97 173.824C123.739 174.504 122.352 175.396 121.419 176.872C120.944 177.641 120.639 178.504 120.525 179.402C120.41 180.3 120.49 181.212 120.757 182.077C121.306 183.974 122.456 185.482 123.508 186.709C124.597 187.972 125.83 189.101 127.183 190.074L129.185 191.527L130.025 189.202C130.19 188.74 130.363 188.284 130.543 187.827L131.063 186.497L129.907 185.625C129.069 184.996 128.294 184.286 127.596 183.503C126.914 182.739 126.088 181.731 125.755 180.728C125.527 180.031 125.755 179.671 125.943 179.461C126.457 178.88 127.367 178.424 128.254 177.974L128.434 177.881C129.958 177.11 131.409 176.2 132.767 175.161C133.773 174.382 135.289 173.208 135.91 171.267C136.16 170.463 136.233 169.613 136.122 168.778C136.012 167.943 135.722 167.142 135.272 166.432C134.417 164.929 133.027 163.761 132.059 163.014Z" fill="#F59D00"/>
<path d="M180.873 262.25C182.832 262 184.791 261.768 186.756 261.57C186.036 245.623 177.886 229.699 164.764 218.822C157.817 213.032 149.701 208.832 140.978 206.513C131.837 204.13 122.578 204.188 114.2 206.67C105.425 209.27 97.7001 214.425 92.2571 221.274C93.7363 222.585 95.1866 223.927 96.6225 225.285C105.535 213.638 121.379 208.32 137.286 211.723C152.309 214.94 166.032 225.04 173.96 238.747C178.21 246.09 180.593 254.209 180.873 262.25Z" fill="white"/>
<path d="M358.396 143.97C349.951 150.293 339.097 153.269 328.257 152.141C316.331 150.909 304.792 144.533 296.599 134.648C291.794 128.836 288.449 122.423 286.871 115.992C284.97 116.475 283.067 116.948 281.157 117.399C284.393 130.391 293.386 142.575 305.491 150.235C307.308 151.389 309.195 152.426 311.142 153.338C321.506 158.208 333.293 159.528 344.326 156.93C350.854 155.399 356.987 152.498 362.322 148.416C361.016 146.937 359.716 145.446 358.396 143.97Z" fill="#00CAAA"/>
<path d="M316.765 175.028H312.521V170.96C312.521 170.545 312.358 170.148 312.066 169.854C311.775 169.561 311.379 169.396 310.967 169.396C310.555 169.396 310.16 169.561 309.868 169.854C309.577 170.148 309.413 170.545 309.413 170.96V175.028H305.411C305.207 175.028 305.005 175.068 304.817 175.147C304.628 175.226 304.457 175.341 304.312 175.486C304.168 175.631 304.054 175.803 303.975 175.993C303.897 176.183 303.857 176.386 303.857 176.591V176.591C303.857 176.797 303.897 177 303.975 177.19C304.054 177.379 304.168 177.552 304.312 177.697C304.457 177.842 304.628 177.957 304.817 178.036C305.005 178.114 305.207 178.155 305.411 178.155H309.413V182.377C309.413 182.792 309.577 183.189 309.868 183.482C310.16 183.776 310.555 183.94 310.967 183.94C311.379 183.94 311.775 183.776 312.066 183.482C312.358 183.189 312.521 182.792 312.521 182.377V178.155H316.76C316.964 178.155 317.166 178.114 317.355 178.036C317.543 177.957 317.714 177.842 317.859 177.697C318.003 177.552 318.118 177.379 318.196 177.19C318.274 177 318.314 176.797 318.314 176.591C318.314 176.178 318.151 175.781 317.861 175.488C317.571 175.195 317.177 175.03 316.765 175.028V175.028Z" fill="#A644E5"/>
<path d="M199.806 241.682L195.929 253.863H195.903L192.029 266.039L188.409 277.409H168.116C168.761 276.119 169.821 275.087 171.123 274.48C172.426 273.873 173.894 273.728 175.289 274.068C173.759 273.455 172.526 272.268 171.848 270.759C171.171 269.249 171.102 267.533 171.657 265.974C172.212 264.414 173.347 263.132 174.824 262.398C176.3 261.664 178.002 261.534 179.571 262.037H179.591C177.995 261.522 176.665 260.393 175.893 258.896C175.121 257.399 174.967 255.656 175.467 254.046C175.967 252.436 177.079 251.09 178.56 250.301C180.042 249.512 181.774 249.343 183.379 249.833C181.778 249.301 180.453 248.151 179.696 246.636C178.938 245.121 178.809 243.366 179.338 241.756C179.868 240.146 181.011 238.813 182.517 238.051C184.023 237.289 185.768 237.16 187.369 237.692L191.052 238.878L195.36 240.267L199.806 241.682Z" fill="#A644E5"/>
<path d="M227.844 277.398H227.532C227.262 267.46 227.308 257.519 227.668 247.573C227.668 247.372 227.986 247.372 227.98 247.573C227.862 250.845 227.779 254.118 227.729 257.392C227.628 264.062 227.667 270.73 227.844 277.398Z" fill="#3E3C57"/>
<path d="M222.021 216.565C221.466 220.023 220.767 223.539 219.132 226.648C218.152 228.514 216.612 230.786 214.616 231.879C214.616 231.751 214.616 231.626 214.616 231.501C215.432 230.956 216.165 230.297 216.794 229.543C217.765 228.414 218.575 227.155 219.201 225.803C220.591 222.88 221.223 219.666 221.715 216.504C221.752 216.292 222.05 216.376 222.021 216.565Z" fill="#3E3C57"/>
<path d="M248.108 253.947L242.35 242.975C242.257 242.797 241.989 242.954 242.081 243.135C244.007 246.79 245.926 250.447 247.839 254.104C247.931 254.281 248.2 254.125 248.108 253.947Z" fill="#3E3C57"/>
<path d="M271.374 227.315C267.552 227.585 263.768 226.404 260.77 224.005C257.772 221.607 255.776 218.164 255.178 214.358C255.146 214.161 255.446 214.068 255.481 214.277C256.05 217.99 257.976 221.355 260.884 223.713C263.791 226.072 267.469 227.253 271.198 227.025C271.264 227.112 271.319 227.214 271.374 227.315Z" fill="#3E3C57"/>
<path d="M284.382 118.051C285.948 117.598 287.05 116.649 286.845 115.932C286.64 115.215 285.204 115.001 283.639 115.455C282.073 115.908 280.971 116.857 281.176 117.574C281.381 118.291 282.817 118.505 284.382 118.051Z" fill="#071C26"/>
<path d="M96.4321 225.445C95.7359 225.79 94.2509 225.134 93.1126 223.971C91.9743 222.809 91.619 221.588 92.3123 221.24C93.0057 220.891 94.4936 221.551 95.6319 222.71C96.7702 223.87 97.1284 225.096 96.4321 225.445Z" fill="#071C26"/>
<path d="M362.208 148.5C361.492 148.791 360.096 147.966 359.088 146.69C358.08 145.414 357.843 144.153 358.559 143.877C359.276 143.601 360.671 144.415 361.677 145.69C362.682 146.966 362.93 148.227 362.208 148.5Z" fill="#071C26"/>
<path d="M344.067 189.06C343.429 189.307 342.178 188.566 341.27 187.404C340.363 186.241 340.147 185.102 340.782 184.858C341.418 184.614 342.672 185.355 343.579 186.514C344.486 187.674 344.703 188.816 344.067 189.06Z" fill="#071C26"/>
<path d="M370.249 198.563C369.613 198.807 368.154 198.133 366.993 197.055C365.831 195.977 365.407 194.901 366.045 194.657C366.683 194.413 368.14 195.087 369.301 196.166C370.462 197.244 370.875 198.316 370.249 198.563Z" fill="#071C26"/>
<path d="M125.516 164.579C124.987 164.143 124.846 162.545 125.198 160.987C125.551 159.429 126.267 158.534 126.796 158.953C127.325 159.371 127.466 160.987 127.111 162.545C126.755 164.102 126.045 165.012 125.516 164.579Z" fill="#071C26"/>
<path d="M129.137 191.469C128.608 191.036 128.637 189.581 129.197 188.218C129.758 186.855 130.642 186.105 131.168 186.538C131.694 186.971 131.67 188.427 131.11 189.79C130.549 191.153 129.665 191.905 129.137 191.469Z" fill="#071C26"/>
</g>
<defs>
<clipPath id="clip0_469_2705">
<rect width="318.352" height="220.398" fill="white" transform="translate(67 57)"/>
</clipPath>
</defs>
</svg>
