<svg width="550" height="400" viewBox="0 0 550 400" fill="none" xmlns="http://www.w3.org/2000/svg">
<path d="M273.766 16.154C276.384 16.154 277.574 13.858 277.574 11.338C277.574 8.79 276.566 6.508 273.962 6.508C271.918 6.508 270.686 7.95 270.686 9.56C270.686 11.548 272.072 12.542 273.752 12.542C274.942 12.542 275.978 11.73 276.384 11.086C276.398 11.212 276.398 11.338 276.398 11.45C276.398 13.228 275.656 15.118 273.766 15.118C272.8 15.118 272.24 14.726 271.764 14.166L271.176 15.034C271.764 15.692 272.576 16.154 273.766 16.154ZM274.018 11.534C272.814 11.534 271.862 10.89 271.862 9.518C271.862 8.622 272.576 7.544 274.004 7.544C275.628 7.544 276.244 8.986 276.356 10.134C275.852 10.96 274.942 11.534 274.018 11.534ZM282.555 16.168C285.103 16.168 286.125 13.606 286.125 11.338C286.125 9.056 285.103 6.522 282.555 6.522C279.993 6.522 278.985 9.056 278.985 11.338C278.985 13.606 279.993 16.168 282.555 16.168ZM282.555 15.132C280.777 15.132 280.175 13.2 280.175 11.338C280.175 9.476 280.777 7.558 282.555 7.558C284.333 7.558 284.935 9.476 284.935 11.338C284.935 13.2 284.333 15.132 282.555 15.132ZM291.128 16.168C293.676 16.168 294.698 13.606 294.698 11.338C294.698 9.056 293.676 6.522 291.128 6.522C288.566 6.522 287.558 9.056 287.558 11.338C287.558 13.606 288.566 16.168 291.128 16.168ZM291.128 15.132C289.35 15.132 288.748 13.2 288.748 11.338C288.748 9.476 289.35 7.558 291.128 7.558C292.906 7.558 293.508 9.476 293.508 11.338C293.508 13.2 292.906 15.132 291.128 15.132Z" fill="#FF4A48"/>
<rect width="440" height="292" transform="translate(63 50)" fill="white"/>
<path d="M365.875 119.5H200.125C189.562 119.5 181 128.062 181 138.625V253.375C181 263.938 189.562 272.5 200.125 272.5H365.875C376.438 272.5 385 263.938 385 253.375V138.625C385 128.062 376.438 119.5 365.875 119.5ZM372.25 253.375C372.25 256.89 369.39 259.75 365.875 259.75H200.125C196.61 259.75 193.75 256.89 193.75 253.375V138.625C193.75 135.11 196.61 132.25 200.125 132.25H365.875C369.39 132.25 372.25 135.11 372.25 138.625V253.375ZM225.625 186.438C237.948 186.438 247.938 176.448 247.938 164.125C247.938 151.802 237.948 141.812 225.625 141.812C213.302 141.812 203.312 151.802 203.312 164.125C203.312 176.448 213.302 186.438 225.625 186.438ZM225.625 154.562C230.898 154.562 235.188 158.852 235.188 164.125C235.188 169.398 230.898 173.688 225.625 173.688C220.352 173.688 216.062 169.398 216.062 164.125C216.062 158.852 220.352 154.562 225.625 154.562ZM308.113 163.738L270.25 201.602L257.887 189.239C254.152 185.504 248.098 185.504 244.364 189.239L209.301 224.301C208.413 225.189 207.709 226.243 207.228 227.403C206.747 228.563 206.5 229.807 206.5 231.062V242.219C206.5 244.859 208.641 247 211.281 247H354.719C357.359 247 359.5 244.859 359.5 242.219V205.562C359.5 203.026 358.492 200.594 356.699 198.801L321.637 163.738C317.902 160.004 311.848 160.004 308.113 163.738ZM346.75 234.25H219.25V232.383L251.125 200.508L270.25 219.633L314.875 175.008L346.75 206.883V234.25Z" fill="#E0E4E8"/>
<line x1="63.5" y1="31" x2="63.5" y2="43" stroke="#FF4A48"/>
<line x1="503.5" y1="31" x2="503.5" y2="43" stroke="#FF4A48"/>
<line x1="63" y1="36.5" x2="503" y2="36.5" stroke="#FF4A48"/>
<path d="M533.832 189.214C533.832 191.09 535.022 192.546 536.912 192.546C538.844 192.546 539.894 191.132 539.894 189.564C539.894 188.626 539.502 187.842 539.054 187.38L542.302 187.38L542.302 191.93L543.338 191.93L543.338 186.218L538.312 186.218L538.018 187.072C538.62 187.702 538.886 188.416 538.886 189.228C538.886 190.488 538.102 191.37 536.87 191.37C535.736 191.37 534.868 190.488 534.868 189.214C534.868 188.08 535.316 187.254 536.114 186.638L535.33 185.924C534.406 186.624 533.832 187.646 533.832 189.214ZM533.846 197.024C533.846 199.642 536.142 200.832 538.662 200.832C541.21 200.832 543.492 199.824 543.492 197.22C543.492 195.176 542.05 193.944 540.44 193.944C538.452 193.944 537.458 195.33 537.458 197.01C537.458 198.2 538.27 199.236 538.914 199.642C538.788 199.656 538.662 199.656 538.55 199.656C536.772 199.656 534.882 198.914 534.882 197.024C534.882 196.058 535.274 195.498 535.834 195.022L534.966 194.434C534.308 195.022 533.846 195.834 533.846 197.024ZM538.466 197.276C538.466 196.072 539.11 195.12 540.482 195.12C541.378 195.12 542.456 195.834 542.456 197.262C542.456 198.886 541.014 199.502 539.866 199.614C539.04 199.11 538.466 198.2 538.466 197.276ZM533.832 205.603C533.832 207.437 534.784 208.949 536.366 208.949C537.612 208.949 538.466 207.885 538.816 206.723C539.124 207.801 539.838 208.809 541.056 208.809C542.736 208.809 543.478 207.143 543.478 205.603C543.478 204.049 542.736 202.411 541.056 202.411C539.838 202.411 539.124 203.405 538.816 204.483C538.466 203.321 537.612 202.257 536.366 202.257C534.77 202.257 533.832 203.755 533.832 205.603ZM539.292 205.603C539.39 205.043 539.768 203.587 540.902 203.587C541.868 203.587 542.442 204.469 542.442 205.603C542.442 206.723 541.868 207.633 540.902 207.633C539.768 207.633 539.39 206.177 539.292 205.603ZM534.868 205.603C534.868 204.441 535.484 203.433 536.492 203.433C537.71 203.433 538.228 205.029 538.298 205.603C538.228 206.177 537.71 207.773 536.492 207.773C535.484 207.773 534.868 206.751 534.868 205.603Z" fill="#FF4A48"/>
<line x1="530" y1="50.5" x2="518" y2="50.5" stroke="#FF4A48"/>
<line x1="530" y1="342.5" x2="518" y2="342.5" stroke="#FF4A48"/>
<line x1="524.5" y1="50" x2="524.5" y2="342" stroke="#FF4A48"/>
<path d="M75.424 389.218L77.552 386.348V385.2H71.672V386.418H76.026L73.758 389.484L74.276 390.282H74.612C75.788 390.282 76.67 390.926 76.67 392.102C76.67 393.264 75.788 393.908 74.612 393.908C73.548 393.908 72.778 393.46 72.484 392.55L71.392 393.194C71.896 394.51 73.17 395.182 74.612 395.182C76.376 395.182 77.972 394.09 77.972 392.102C77.972 390.478 76.838 389.484 75.424 389.218ZM78.9552 395H85.2832V393.74H80.8452L83.3512 391.248C84.3172 390.282 85.1012 389.232 85.1012 388.014C85.1012 386.082 83.5752 385.018 82.0492 385.018C80.7752 385.018 79.5852 385.648 78.9552 386.95L80.0472 387.594C80.4672 386.712 81.1672 386.278 82.0632 386.278C82.9732 386.278 83.7992 386.88 83.7992 388.028C83.7992 388.854 83.1832 389.638 82.4132 390.408L78.9552 393.936V395Z" fill="#FF4A48"/>
<path d="M15.218 329.576L12.348 327.448L11.2 327.448L11.2 333.328L12.418 333.328L12.418 328.974L15.484 331.242L16.282 330.724L16.282 330.388C16.282 329.212 16.926 328.33 18.102 328.33C19.264 328.33 19.908 329.212 19.908 330.388C19.908 331.452 19.46 332.222 18.55 332.516L19.194 333.608C20.51 333.104 21.182 331.83 21.182 330.388C21.182 328.624 20.09 327.028 18.102 327.028C16.478 327.028 15.484 328.162 15.218 329.576ZM21 326.045L21 319.717L19.74 319.717L19.74 324.155L17.248 321.649C16.282 320.683 15.232 319.899 14.014 319.899C12.082 319.899 11.018 321.425 11.018 322.951C11.018 324.225 11.648 325.415 12.95 326.045L13.594 324.953C12.712 324.533 12.278 323.833 12.278 322.937C12.278 322.027 12.88 321.201 14.028 321.201C14.854 321.201 15.638 321.817 16.408 322.587L19.936 326.045L21 326.045Z" fill="#FF4A48"/>
<line x1="95.5" y1="50" x2="95.5" y2="359" stroke="#9F9F9F" stroke-dasharray="5 5"/>
<line x1="503" y1="343.5" x2="59" y2="343.5" stroke="#9F9F9F" stroke-dasharray="5 5"/>
<line x1="63.5" y1="50" x2="63.5" y2="359" stroke="#9F9F9F" stroke-dasharray="5 5"/>
<line x1="503" y1="311.5" x2="59" y2="311.5" stroke="#9F9F9F" stroke-dasharray="5 5"/>
<line x1="63.5" y1="364.78" x2="63.5" y2="374.386" stroke="#FF4A48"/>
<line x1="51" y1="311.5" x2="37" y2="311.5" stroke="#FF4A48"/>
<line x1="95.5" y1="364.78" x2="95.5" y2="374.386" stroke="#FF4A48"/>
<line x1="51" y1="343.5" x2="37" y2="343.5" stroke="#FF4A48"/>
<line x1="63" y1="369.083" x2="95" y2="369.083" stroke="#FF4A48"/>
<line x1="44.5" y1="311" x2="44.5" y2="343" stroke="#FF4A48"/>
</svg>
