<svg width="762" height="437" viewBox="0 0 762 437" fill="none" xmlns="http://www.w3.org/2000/svg">
<path d="M16.92 356.144L16.92 357.334L14.148 357.334L14.148 358.636L16.92 358.636L16.92 362.234L10.2 358.72L10.2 360.12L16.92 363.634L18.138 363.634L18.138 358.636L20 358.636L20 357.334L18.138 357.334L18.138 356.144L16.92 356.144ZM20.182 351.439C20.182 349.003 18.124 347.659 15.1 347.659C12.076 347.659 10.018 349.003 10.018 351.439C10.018 353.861 12.076 355.219 15.1 355.219C18.124 355.219 20.182 353.861 20.182 351.439ZM18.908 351.439C18.908 353.021 17.536 353.917 15.1 353.917C12.664 353.917 11.278 353.021 11.278 351.439C11.278 349.857 12.664 348.947 15.1 348.947C17.536 348.947 18.908 349.857 18.908 351.439Z" fill="#FF4A48"/>
<line x1="44" y1="334.5" x2="30" y2="334.5" stroke="#FF4A48"/>
<line x1="44" y1="377.5" x2="30" y2="377.5" stroke="#FF4A48"/>
<line x1="37.5" y1="334" x2="37.5" y2="377" stroke="#FF4A48"/>
<path d="M316.654 16V6.662H315.632L313.294 9.07L313.994 9.784L315.492 8.188V16H316.654ZM324.912 16V14.964H320.334C322.938 12.906 324.87 11.17 324.87 9.266C324.87 7.404 323.288 6.522 321.734 6.522C320.418 6.522 319.2 7.04 318.486 7.992L319.2 8.734C319.746 8.034 320.614 7.558 321.734 7.558C322.7 7.558 323.694 8.062 323.694 9.266C323.694 10.876 321.86 12.43 318.5 15.062V16H324.912ZM330.259 16.168C332.807 16.168 333.829 13.606 333.829 11.338C333.829 9.056 332.807 6.522 330.259 6.522C327.697 6.522 326.689 9.056 326.689 11.338C326.689 13.606 327.697 16.168 330.259 16.168ZM330.259 15.132C328.481 15.132 327.879 13.2 327.879 11.338C327.879 9.476 328.481 7.558 330.259 7.558C332.037 7.558 332.639 9.476 332.639 11.338C332.639 13.2 332.037 15.132 330.259 15.132ZM338.831 16.168C341.379 16.168 342.401 13.606 342.401 11.338C342.401 9.056 341.379 6.522 338.831 6.522C336.269 6.522 335.261 9.056 335.261 11.338C335.261 13.606 336.269 16.168 338.831 16.168ZM338.831 15.132C337.053 15.132 336.451 13.2 336.451 11.338C336.451 9.476 337.053 7.558 338.831 7.558C340.609 7.558 341.211 9.476 341.211 11.338C341.211 13.2 340.609 15.132 338.831 15.132Z" fill="#FF4A48"/>
<path d="M745.832 200.326C745.832 202.356 747.274 203.588 748.884 203.588C750.872 203.588 751.866 202.216 751.866 200.536C751.866 199.332 751.054 198.296 750.41 197.89C750.536 197.89 750.648 197.89 750.774 197.89C752.608 197.89 754.442 198.702 754.442 200.522C754.442 201.488 754.05 202.034 753.49 202.51L754.358 203.098C755.03 202.524 755.478 201.712 755.478 200.522C755.478 197.89 753.182 196.714 750.662 196.714C748.114 196.714 745.832 197.708 745.832 200.326ZM746.868 200.27C746.868 198.646 748.31 198.03 749.472 197.932C750.284 198.436 750.858 199.332 750.858 200.27C750.858 201.46 750.214 202.412 748.842 202.412C747.96 202.412 746.868 201.712 746.868 200.27ZM746 211.439L747.036 211.439L747.036 206.861C749.094 209.465 750.83 211.397 752.734 211.397C754.596 211.397 755.478 209.815 755.478 208.261C755.478 206.945 754.96 205.727 754.008 205.013L753.266 205.727C753.966 206.273 754.442 207.141 754.442 208.261C754.442 209.227 753.938 210.221 752.734 210.221C751.124 210.221 749.57 208.387 746.938 205.027L746 205.027L746 211.439ZM745.832 216.576C745.832 218.41 746.784 219.922 748.366 219.922C749.612 219.922 750.466 218.858 750.816 217.696C751.124 218.774 751.838 219.782 753.056 219.782C754.736 219.782 755.478 218.116 755.478 216.576C755.478 215.022 754.736 213.384 753.056 213.384C751.838 213.384 751.124 214.378 750.816 215.456C750.466 214.294 749.612 213.23 748.366 213.23C746.77 213.23 745.832 214.728 745.832 216.576ZM751.292 216.576C751.39 216.016 751.768 214.56 752.902 214.56C753.868 214.56 754.442 215.442 754.442 216.576C754.442 217.696 753.868 218.606 752.902 218.606C751.768 218.606 751.39 217.15 751.292 216.576ZM746.868 216.576C746.868 215.414 747.484 214.406 748.492 214.406C749.71 214.406 750.228 216.002 750.298 216.576C750.228 217.15 749.71 218.746 748.492 218.746C747.484 218.746 746.868 217.724 746.868 216.576Z" fill="#FF4A48"/>
<rect width="650" height="340" transform="translate(72 37)" fill="white"/>
<path d="M581.656 147.125H457.344C449.422 147.125 443 153.547 443 161.469V247.531C443 255.453 449.422 261.875 457.344 261.875H581.656C589.578 261.875 596 255.453 596 247.531V161.469C596 153.547 589.578 147.125 581.656 147.125ZM586.438 247.531C586.438 250.168 584.293 252.312 581.656 252.312H457.344C454.707 252.312 452.562 250.168 452.562 247.531V161.469C452.562 158.832 454.707 156.688 457.344 156.688H581.656C584.293 156.688 586.438 158.832 586.438 161.469V247.531ZM476.469 197.328C485.711 197.328 493.203 189.836 493.203 180.594C493.203 171.352 485.711 163.859 476.469 163.859C467.227 163.859 459.734 171.352 459.734 180.594C459.734 189.836 467.227 197.328 476.469 197.328ZM476.469 173.422C480.423 173.422 483.641 176.639 483.641 180.594C483.641 184.548 480.423 187.766 476.469 187.766C472.514 187.766 469.297 184.548 469.297 180.594C469.297 176.639 472.514 173.422 476.469 173.422ZM538.335 180.304L509.938 208.701L500.665 199.429C497.864 196.628 493.323 196.628 490.523 199.429L464.226 225.726C463.56 226.392 463.031 227.182 462.671 228.052C462.311 228.922 462.125 229.855 462.125 230.797V239.164C462.125 241.144 463.731 242.75 465.711 242.75H573.289C575.269 242.75 576.875 241.144 576.875 239.164V211.672C576.875 209.77 576.119 207.945 574.775 206.6L548.478 180.304C545.677 177.503 541.136 177.503 538.335 180.304ZM567.312 233.188H471.688V231.787L495.594 207.881L509.938 222.225L543.406 188.756L567.312 212.662V233.188Z" fill="#E0E4E8"/>
<path d="M237.308 188.248V167.8H232.34V193H246.92V188.248H237.308ZM257.743 193.504C263.035 193.504 267.283 189.364 267.283 184C267.283 178.636 263.035 174.496 257.743 174.496C252.451 174.496 248.239 178.636 248.239 184C248.239 189.364 252.451 193.504 257.743 193.504ZM257.743 188.968C255.007 188.968 252.883 186.916 252.883 184C252.883 181.084 255.007 179.032 257.743 179.032C260.515 179.032 262.639 181.084 262.639 184C262.639 186.916 260.515 188.968 257.743 188.968ZM275.194 178.096V175H270.55V193H275.194V184.396C275.194 180.616 278.254 179.536 280.666 179.824V174.64C278.398 174.64 276.13 175.648 275.194 178.096ZM286.638 185.908H300.21C300.318 185.296 300.39 184.684 300.39 184C300.39 178.708 296.61 174.496 291.282 174.496C285.63 174.496 281.778 178.636 281.778 184C281.778 189.364 285.594 193.504 291.642 193.504C295.098 193.504 297.798 192.1 299.49 189.652L295.746 187.492C294.954 188.536 293.514 189.292 291.714 189.292C289.266 189.292 287.286 188.284 286.638 185.908ZM286.566 182.308C287.106 180.004 288.798 178.672 291.282 178.672C293.226 178.672 295.17 179.716 295.746 182.308H286.566ZM323.54 174.496C321.092 174.496 319.292 175.468 318.176 177.088C317.168 175.432 315.512 174.496 313.28 174.496C310.976 174.496 309.284 175.396 308.276 176.908V175H303.632V193H308.276V182.884C308.276 180.184 309.68 178.816 311.66 178.816C313.604 178.816 314.684 180.112 314.684 182.236V193H319.328V182.884C319.328 180.184 320.624 178.816 322.676 178.816C324.62 178.816 325.7 180.112 325.7 182.236V193H330.344V181.912C330.344 177.412 327.644 174.496 323.54 174.496ZM232.34 215.8V241H237.308V215.8H232.34ZM252.233 222.496C249.605 222.496 247.697 223.468 246.401 225.124V223H241.757V248.2H246.401V238.876C247.697 240.532 249.605 241.504 252.233 241.504C257.057 241.504 261.017 237.364 261.017 232C261.017 226.636 257.057 222.496 252.233 222.496ZM251.369 237.076C248.525 237.076 246.401 235.024 246.401 232C246.401 228.976 248.525 226.924 251.369 226.924C254.249 226.924 256.373 228.976 256.373 232C256.373 235.024 254.249 237.076 251.369 237.076ZM268.189 228.112C268.189 227.14 269.125 226.636 270.277 226.636C271.609 226.636 272.617 227.32 273.157 228.472L277.117 226.312C275.713 223.828 273.193 222.496 270.277 222.496C266.569 222.496 263.437 224.548 263.437 228.22C263.437 234.556 272.725 233.116 272.725 235.744C272.725 236.788 271.717 237.292 270.241 237.292C268.441 237.292 267.217 236.428 266.713 234.952L262.681 237.22C263.977 239.992 266.641 241.504 270.241 241.504C274.093 241.504 277.477 239.632 277.477 235.744C277.477 229.12 268.189 230.776 268.189 228.112ZM292.344 223V232.72C292.344 235.852 290.652 237.184 288.384 237.184C286.296 237.184 284.82 235.924 284.82 233.476V223H280.176V234.052C280.176 238.84 283.164 241.504 286.98 241.504C289.392 241.504 291.264 240.604 292.344 238.984V241H296.988V223H292.344ZM321.149 222.496C318.701 222.496 316.901 223.468 315.785 225.088C314.777 223.432 313.121 222.496 310.889 222.496C308.585 222.496 306.893 223.396 305.885 224.908V223H301.241V241H305.885V230.884C305.885 228.184 307.289 226.816 309.269 226.816C311.213 226.816 312.293 228.112 312.293 230.236V241H316.937V230.884C316.937 228.184 318.233 226.816 320.285 226.816C322.229 226.816 323.309 228.112 323.309 230.236V241H327.953V229.912C327.953 225.412 325.253 222.496 321.149 222.496Z" fill="#E0E4E8"/>
<line x1="115.5" y1="402" x2="115.5" y2="411.605" stroke="#FF4A48"/>
<path d="M92.8563 428.92H91.6663V426.148H90.3643V428.92H86.7663L90.2803 422.2H88.8803L85.3663 428.92V430.138H90.3643V432H91.6663V430.138H92.8563V428.92ZM97.5614 432.182C99.9974 432.182 101.341 430.124 101.341 427.1C101.341 424.076 99.9974 422.018 97.5614 422.018C95.1394 422.018 93.7814 424.076 93.7814 427.1C93.7814 430.124 95.1394 432.182 97.5614 432.182ZM97.5614 430.908C95.9794 430.908 95.0834 429.536 95.0834 427.1C95.0834 424.664 95.9794 423.278 97.5614 423.278C99.1434 423.278 100.053 424.664 100.053 427.1C100.053 429.536 99.1434 430.908 97.5614 430.908Z" fill="#FF4A48"/>
<line x1="72.5" y1="402" x2="72.5" y2="411.605" stroke="#FF4A48"/>
<line x1="72" y1="406.303" x2="115" y2="406.303" stroke="#FF4A48"/>
<line x1="72.5" y1="18" x2="72.5" y2="30" stroke="#FF4A48"/>
<line x1="584.5" y1="18" x2="584.5" y2="30" stroke="#FF4A48"/>
<line x1="72" y1="23.5" x2="584" y2="23.5" stroke="#FF4A48"/>
<line x1="744" y1="37.5" x2="732" y2="37.5" stroke="#FF4A48"/>
<line x1="744" y1="377.5" x2="732" y2="377.5" stroke="#FF4A48"/>
<line x1="738.5" y1="37" x2="738.5" y2="377" stroke="#FF4A48"/>
<line x1="115.5" y1="37" x2="115.5" y2="395" stroke="#9F9F9F" stroke-dasharray="5 5"/>
<line x1="72.5" y1="37" x2="72.5" y2="395" stroke="#9F9F9F" stroke-dasharray="5 5"/>
<line x1="722" y1="377.5" x2="55" y2="377.5" stroke="#9F9F9F" stroke-dasharray="5 5"/>
<line x1="722" y1="334.5" x2="55" y2="334.5" stroke="#9F9F9F" stroke-dasharray="5 5"/>
</svg>
