<svg width="637" height="395" viewBox="0 0 637 395" fill="none" xmlns="http://www.w3.org/2000/svg">
<path d="M325.654 16V6.662H324.632L322.294 9.07L322.994 9.784L324.492 8.188V16H325.654ZM331.07 16.168C333.1 16.168 334.332 14.726 334.332 13.116C334.332 11.128 332.96 10.134 331.28 10.134C330.076 10.134 329.04 10.946 328.634 11.59C328.634 11.464 328.634 11.352 328.634 11.226C328.634 9.392 329.446 7.558 331.266 7.558C332.232 7.558 332.778 7.95 333.254 8.51L333.842 7.642C333.268 6.97 332.456 6.522 331.266 6.522C328.634 6.522 327.458 8.818 327.458 11.338C327.458 13.886 328.452 16.168 331.07 16.168ZM331.014 15.132C329.39 15.132 328.774 13.69 328.676 12.528C329.18 11.716 330.076 11.142 331.014 11.142C332.204 11.142 333.156 11.786 333.156 13.158C333.156 14.04 332.456 15.132 331.014 15.132ZM339.3 16.168C341.848 16.168 342.87 13.606 342.87 11.338C342.87 9.056 341.848 6.522 339.3 6.522C336.738 6.522 335.73 9.056 335.73 11.338C335.73 13.606 336.738 16.168 339.3 16.168ZM339.3 15.132C337.522 15.132 336.92 13.2 336.92 11.338C336.92 9.476 337.522 7.558 339.3 7.558C341.078 7.558 341.68 9.476 341.68 11.338C341.68 13.2 341.078 15.132 339.3 15.132ZM347.872 16.168C350.42 16.168 351.442 13.606 351.442 11.338C351.442 9.056 350.42 6.522 347.872 6.522C345.31 6.522 344.302 9.056 344.302 11.338C344.302 13.606 345.31 16.168 347.872 16.168ZM347.872 15.132C346.094 15.132 345.492 13.2 345.492 11.338C345.492 9.476 346.094 7.558 347.872 7.558C349.65 7.558 350.252 9.476 350.252 11.338C350.252 13.2 349.65 15.132 347.872 15.132Z" fill="#FF4A48"/>
<path d="M620.846 189.558C620.846 192.176 623.142 193.366 625.662 193.366C628.21 193.366 630.492 192.358 630.492 189.754C630.492 187.71 629.05 186.478 627.44 186.478C625.452 186.478 624.458 187.864 624.458 189.544C624.458 190.734 625.27 191.77 625.914 192.176C625.788 192.19 625.662 192.19 625.55 192.19C623.772 192.19 621.882 191.448 621.882 189.558C621.882 188.592 622.274 188.032 622.834 187.556L621.966 186.968C621.308 187.556 620.846 188.368 620.846 189.558ZM625.466 189.81C625.466 188.606 626.11 187.654 627.482 187.654C628.378 187.654 629.456 188.368 629.456 189.796C629.456 191.42 628.014 192.036 626.866 192.148C626.04 191.644 625.466 190.734 625.466 189.81ZM620.832 198.347C620.832 200.895 623.394 201.917 625.662 201.917C627.944 201.917 630.478 200.895 630.478 198.347C630.478 195.785 627.944 194.777 625.662 194.777C623.394 194.777 620.832 195.785 620.832 198.347ZM621.868 198.347C621.868 196.569 623.8 195.967 625.662 195.967C627.524 195.967 629.442 196.569 629.442 198.347C629.442 200.125 627.524 200.727 625.662 200.727C623.8 200.727 621.868 200.125 621.868 198.347ZM620.832 206.92C620.832 209.468 623.394 210.49 625.662 210.49C627.944 210.49 630.478 209.468 630.478 206.92C630.478 204.358 627.944 203.35 625.662 203.35C623.394 203.35 620.832 204.358 620.832 206.92ZM621.868 206.92C621.868 205.142 623.8 204.54 625.662 204.54C627.524 204.54 629.442 205.142 629.442 206.92C629.442 208.698 627.524 209.3 625.662 209.3C623.8 209.3 621.868 208.698 621.868 206.92Z" fill="#FF4A48"/>
<rect width="519" height="292" transform="translate(78.0002 52)" fill="white"/>
<g clip-path="url(#clip0_469_2586)">
<path d="M500.156 134.125H388.844C381.75 134.125 376 139.875 376 146.969V224.031C376 231.125 381.75 236.875 388.844 236.875H500.156C507.25 236.875 513 231.125 513 224.031V146.969C513 139.875 507.25 134.125 500.156 134.125ZM504.438 224.031C504.438 226.392 502.517 228.312 500.156 228.312H388.844C386.483 228.312 384.563 226.392 384.563 224.031V146.969C384.563 144.608 386.483 142.688 388.844 142.688H500.156C502.517 142.688 504.438 144.608 504.438 146.969V224.031ZM405.969 179.078C414.245 179.078 420.953 172.369 420.953 164.094C420.953 155.818 414.245 149.109 405.969 149.109C397.693 149.109 390.985 155.818 390.985 164.094C390.985 172.369 397.693 179.078 405.969 179.078ZM405.969 157.672C409.51 157.672 412.391 160.553 412.391 164.094C412.391 167.635 409.51 170.516 405.969 170.516C402.428 170.516 399.547 167.635 399.547 164.094C399.547 160.553 402.428 157.672 405.969 157.672ZM461.365 163.834L435.938 189.262L427.635 180.959C425.127 178.451 421.061 178.451 418.553 180.959L395.006 204.506C394.41 205.102 393.937 205.81 393.614 206.589C393.291 207.368 393.125 208.204 393.125 209.047V216.539C393.125 218.312 394.563 219.75 396.336 219.75H492.664C494.438 219.75 495.875 218.312 495.875 216.539V191.922C495.875 190.219 495.199 188.585 493.994 187.381L470.448 163.834C467.94 161.326 463.873 161.326 461.365 163.834ZM487.313 211.188H401.688V209.934L423.094 188.527L435.938 201.371L465.906 171.402L487.313 192.809V211.188Z" fill="#E0E4E8"/>
</g>
<path d="M195.308 169.248V148.8H190.34V174H204.92V169.248H195.308ZM215.743 174.504C221.035 174.504 225.283 170.364 225.283 165C225.283 159.636 221.035 155.496 215.743 155.496C210.451 155.496 206.239 159.636 206.239 165C206.239 170.364 210.451 174.504 215.743 174.504ZM215.743 169.968C213.007 169.968 210.883 167.916 210.883 165C210.883 162.084 213.007 160.032 215.743 160.032C218.515 160.032 220.639 162.084 220.639 165C220.639 167.916 218.515 169.968 215.743 169.968ZM233.194 159.096V156H228.55V174H233.194V165.396C233.194 161.616 236.254 160.536 238.666 160.824V155.64C236.398 155.64 234.13 156.648 233.194 159.096ZM244.638 166.908H258.21C258.318 166.296 258.39 165.684 258.39 165C258.39 159.708 254.61 155.496 249.282 155.496C243.63 155.496 239.778 159.636 239.778 165C239.778 170.364 243.594 174.504 249.642 174.504C253.098 174.504 255.798 173.1 257.49 170.652L253.746 168.492C252.954 169.536 251.514 170.292 249.714 170.292C247.266 170.292 245.286 169.284 244.638 166.908ZM244.566 163.308C245.106 161.004 246.798 159.672 249.282 159.672C251.226 159.672 253.17 160.716 253.746 163.308H244.566ZM281.54 155.496C279.092 155.496 277.292 156.468 276.176 158.088C275.168 156.432 273.512 155.496 271.28 155.496C268.976 155.496 267.284 156.396 266.276 157.908V156H261.632V174H266.276V163.884C266.276 161.184 267.68 159.816 269.66 159.816C271.604 159.816 272.684 161.112 272.684 163.236V174H277.328V163.884C277.328 161.184 278.624 159.816 280.676 159.816C282.62 159.816 283.7 161.112 283.7 163.236V174H288.344V162.912C288.344 158.412 285.644 155.496 281.54 155.496ZM190.34 196.8V222H195.308V196.8H190.34ZM210.233 203.496C207.605 203.496 205.697 204.468 204.401 206.124V204H199.757V229.2H204.401V219.876C205.697 221.532 207.605 222.504 210.233 222.504C215.057 222.504 219.017 218.364 219.017 213C219.017 207.636 215.057 203.496 210.233 203.496ZM209.369 218.076C206.525 218.076 204.401 216.024 204.401 213C204.401 209.976 206.525 207.924 209.369 207.924C212.249 207.924 214.373 209.976 214.373 213C214.373 216.024 212.249 218.076 209.369 218.076ZM226.189 209.112C226.189 208.14 227.125 207.636 228.277 207.636C229.609 207.636 230.617 208.32 231.157 209.472L235.117 207.312C233.713 204.828 231.193 203.496 228.277 203.496C224.569 203.496 221.437 205.548 221.437 209.22C221.437 215.556 230.725 214.116 230.725 216.744C230.725 217.788 229.717 218.292 228.241 218.292C226.441 218.292 225.217 217.428 224.713 215.952L220.681 218.22C221.977 220.992 224.641 222.504 228.241 222.504C232.093 222.504 235.477 220.632 235.477 216.744C235.477 210.12 226.189 211.776 226.189 209.112ZM250.344 204V213.72C250.344 216.852 248.652 218.184 246.384 218.184C244.296 218.184 242.82 216.924 242.82 214.476V204H238.176V215.052C238.176 219.84 241.164 222.504 244.98 222.504C247.392 222.504 249.264 221.604 250.344 219.984V222H254.988V204H250.344ZM279.149 203.496C276.701 203.496 274.901 204.468 273.785 206.088C272.777 204.432 271.121 203.496 268.889 203.496C266.585 203.496 264.893 204.396 263.885 205.908V204H259.241V222H263.885V211.884C263.885 209.184 265.289 207.816 267.269 207.816C269.213 207.816 270.293 209.112 270.293 211.236V222H274.937V211.884C274.937 209.184 276.233 207.816 278.285 207.816C280.229 207.816 281.309 209.112 281.309 211.236V222H285.953V210.912C285.953 206.412 283.253 203.496 279.149 203.496Z" fill="#E0E4E8"/>
<line x1="78.5002" y1="24" x2="78.5002" y2="36" stroke="#FF4A48"/>
<line x1="597.5" y1="24" x2="597.5" y2="36" stroke="#FF4A48"/>
<line x1="78.0002" y1="29.5" x2="597" y2="29.5" stroke="#FF4A48"/>
<line x1="619" y1="52.5" x2="607" y2="52.5" stroke="#FF4A48"/>
<line x1="619" y1="344.5" x2="607" y2="344.5" stroke="#FF4A48"/>
<line x1="613.5" y1="52" x2="613.5" y2="344" stroke="#FF4A48"/>
<line x1="110.5" y1="52" x2="110.5" y2="354.82" stroke="#9F9F9F" stroke-dasharray="5 5"/>
<line x1="78.5002" y1="52" x2="78.5003" y2="354.82" stroke="#9F9F9F" stroke-dasharray="5 5"/>
<path d="M90.4242 384.738L92.5522 381.868V380.72H86.6722V381.938H91.0262L88.7582 385.004L89.2762 385.802H89.6122C90.7882 385.802 91.6702 386.446 91.6702 387.622C91.6702 388.784 90.7882 389.428 89.6122 389.428C88.5482 389.428 87.7782 388.98 87.4842 388.07L86.3922 388.714C86.8962 390.03 88.1702 390.702 89.6122 390.702C91.3762 390.702 92.9722 389.61 92.9722 387.622C92.9722 385.998 91.8382 385.004 90.4242 384.738ZM93.9554 390.52H100.283V389.26H95.8454L98.3514 386.768C99.3174 385.802 100.101 384.752 100.101 383.534C100.101 381.602 98.5754 380.538 97.0494 380.538C95.7754 380.538 94.5854 381.168 93.9554 382.47L95.0474 383.114C95.4674 382.232 96.1674 381.798 97.0634 381.798C97.9734 381.798 98.7994 382.4 98.7994 383.548C98.7994 384.374 98.1834 385.158 97.4134 385.928L93.9554 389.456V390.52Z" fill="#FF4A48"/>
<line x1="78.5002" y1="360.485" x2="78.5002" y2="369.898" stroke="#FF4A48"/>
<line x1="110.5" y1="360.485" x2="110.5" y2="369.898" stroke="#FF4A48"/>
<line x1="78.0002" y1="364.691" x2="110" y2="364.691" stroke="#FF4A48"/>
<line x1="597" y1="344.5" x2="61.0681" y2="344.5" stroke="#9F9F9F" stroke-dasharray="5 5"/>
<line x1="597" y1="312.5" x2="61.0681" y2="312.5" stroke="#9F9F9F" stroke-dasharray="5 5"/>
<path d="M15.218 330.576L12.348 328.448L11.2 328.448L11.2 334.328L12.418 334.328L12.418 329.974L15.484 332.242L16.282 331.724L16.282 331.388C16.282 330.212 16.926 329.33 18.102 329.33C19.264 329.33 19.908 330.212 19.908 331.388C19.908 332.452 19.46 333.222 18.55 333.516L19.194 334.608C20.51 334.104 21.182 332.83 21.182 331.388C21.182 329.624 20.09 328.028 18.102 328.028C16.478 328.028 15.484 329.162 15.218 330.576ZM21 327.045L21 320.717L19.74 320.717L19.74 325.155L17.248 322.649C16.282 321.683 15.232 320.899 14.014 320.899C12.082 320.899 11.018 322.425 11.018 323.951C11.018 325.225 11.648 326.415 12.95 327.045L13.594 325.953C12.712 325.533 12.278 324.833 12.278 323.937C12.278 323.027 12.88 322.201 14.028 322.201C14.854 322.201 15.638 322.817 16.408 323.587L19.936 327.045L21 327.045Z" fill="#FF4A48"/>
<line x1="51.2092" y1="312.5" x2="37.243" y2="312.5" stroke="#FF4A48"/>
<line x1="51.2092" y1="344.5" x2="37.243" y2="344.5" stroke="#FF4A48"/>
<line x1="44.7268" y1="312" x2="44.7268" y2="344" stroke="#FF4A48"/>
<defs>
<clipPath id="clip0_469_2586">
<rect width="137" height="137" fill="white" transform="translate(376 117)"/>
</clipPath>
</defs>
</svg>
