<svg width="56" height="56" xmlns="http://www.w3.org/2000/svg"><g fill="none" fill-rule="evenodd"><circle cx="28" cy="28" r="28" fill="#CCEFFF"/><path d="M49.528 25.256c0-5.4-4.387-9.854-9.854-9.854-.607 0-1.552.135-2.16.27-1.147-4.117-5.062-7.154-9.448-7.154-4.252 0-7.964 2.767-9.314 6.749-.675-.202-1.35-.337-2.025-.337-5.062 0-6.142 4.454-6.344 5.804a6.865 6.865 0 0 0-5.062 6.614 6.798 6.798 0 0 0 6.817 6.816c.877 0 1.687-.135 2.497-.472a5.777 5.777 0 0 0 4.32 1.957c.877 0 1.754-.202 2.496-.54v9.381c0 .27.203.54.54.54h7.762l-1.148 1.62h-1.214c-.27 0-.54.203-.54.54 0 .27.202.54.54.54h11.068c.27 0 .54-.202.54-.54 0-.27-.202-.54-.54-.54h-1.215l-1.08-1.755h7.762c.27 0 .54-.202.54-.54v-10.46c3.104-1.755 5.062-4.995 5.062-8.64z" stroke="#2BADE9" fill="#FFF"/><path d="M24.421 42.398h17.008c.27 0 .54-.202.54-.54V32.95c0-.27-.203-.54-.54-.54H24.42c-.27 0-.54.202-.54.54v8.976c.068.27.27.472.54.472zm.54-8.908h15.995v7.896H24.961V33.49z" fill="#2BADE9" fill-rule="nonzero"/><path d="M49.528 25.256c0-5.4-4.387-9.854-9.854-9.854-.607 0-1.552.135-2.16.27-1.147-4.117-5.062-7.154-9.448-7.154-4.252 0-7.964 2.767-9.314 6.749-.675-.202-1.35-.337-2.025-.337-5.062 0-6.142 4.454-6.344 5.804a6.865 6.865 0 0 0-5.062 6.614 6.798 6.798 0 0 0 6.817 6.816c.877 0 1.687-.135 2.497-.472a5.777 5.777 0 0 0 4.32 1.957c.877 0 1.754-.202 2.496-.54v9.381c0 .27.203.54.54.54h7.762l-1.148 1.62h-1.214c-.27 0-.54.203-.54.54 0 .27.202.54.54.54h11.068c.27 0 .54-.202.54-.54 0-.27-.202-.54-.54-.54h-1.215l-1.08-1.755h7.762c.27 0 .54-.202.54-.54v-10.46c3.104-1.755 5.062-4.995 5.062-8.64zM36.097 46.65H29.82l1.08-1.755h4.117l1.08 1.755zm7.289-2.767H22.464v-12.89h20.99v12.89h-.068zm1.012-11.203v-2.228c0-.27-.202-.54-.54-.54H21.924c-.27 0-.54.203-.54.54v3.375a4.697 4.697 0 0 1-2.497.742 4.84 4.84 0 0 1-4.657-3.51l-.945.27c.135.54.405 1.013.675 1.486-.607.202-1.215.27-1.822.27-3.172 0-5.804-2.633-5.804-5.805a5.783 5.783 0 0 1 4.656-5.669l.405-.067v-.405c0-.203.405-5.197 5.4-5.197.607 0 1.214.135 1.754.27a7.897 7.897 0 0 0-.27 2.16h1.013c0-.81.067-1.553.27-2.295 1.012-3.847 4.522-6.547 8.504-6.547 4.116 0 7.693 2.902 8.57 6.884l.136.473.472-.135s1.62-.338 2.43-.338c4.86 0 8.841 3.982 8.841 8.842 0 3.037-1.552 5.804-4.117 7.424z" fill="#2BADE9" fill-rule="nonzero"/><path d="M28.066 10.88a7.581 7.581 0 0 0-5.94 2.902l.81.608a6.526 6.526 0 0 1 5.13-2.498c1.89 0 3.712.878 4.926 2.363l.81-.675c-1.417-1.688-3.51-2.7-5.736-2.7zM40.956 17.967l-.202 1.012c2.564.472 4.59 2.362 5.13 4.86l1.011-.203c-.674-2.97-2.97-5.197-5.939-5.67z" fill="#2BADE9" fill-rule="nonzero"/></g></svg>