<svg xmlns="http://www.w3.org/2000/svg" xmlns:xlink="http://www.w3.org/1999/xlink" viewBox="0 0 88 40"><defs><path id="a" d="M54.5 6.7L30.7 30.4c-3.8 3.8-7.7 5.5-11.4 5.6-3.7.1-7.3-1.5-10.6-4.7C2.4 25 2.4 15 8.7 8.7c6.5-6.5 14.3-5.9 19.9-.9 3 2.8 6 5.8 8.9 8.7.7.9 2.2.9 3 .1.8-.8.7-2.3-.2-3l-9-8.7c-7-6.2-17.7-6.8-25.5 1-7.8 7.8-7.9 20.5 0 28.3 3.9 3.8 8.6 5.9 13.4 5.8 6.1-.7 10.9-3.6 14.2-6.8L57.3 9.5C61.1 5.7 65 4.1 68.7 4c3.7-.1 7.3 1.5 10.6 4.7 6.3 6.3 6.3 16.3 0 22.6-6.5 6.5-14.3 5.9-19.9.9l-8.9-8.7c-.7-.7-2.1-.7-2.8 0-.7.8-.7 2.1.1 2.8l8.9 8.7c7.1 6.3 17.8 6.8 25.6-1 7.8-7.8 7.9-20.5 0-28.3C78.1 2.1 73 0 68.6 0c-4.8.1-9.8 2.3-14.1 6.7z"/></defs><use xlink:href="#a" overflow="visible" fill="#2bade9"/></svg>