<svg width="20" height="26" xmlns="http://www.w3.org/2000/svg"><g fill-rule="nonzero" fill="none"><path d="M12.606 13.395c.087-.29.058-.579-.086-.752a.895.895 0 0 0-.608-.319l-5.035-.058c-.029 0-.058-.028-.087-.028-.028-.03-.028-.058 0-.087.03-.058.058-.087.116-.087l5.064-.058c.607-.029 1.244-.52 1.475-1.1l.29-.752c0-.029.029-.058 0-.087a3.29 3.29 0 0 0-3.212-2.575c-1.447 0-2.69.926-3.125 2.228a1.58 1.58 0 0 0-1.042-.29c-.694.059-1.244.637-1.33 1.332-.03.173 0 .347.028.52A2.113 2.113 0 0 0 3 13.396c0 .116 0 .202.029.318 0 .058.058.087.087.087h9.288c.058 0 .116-.029.116-.087l.086-.318z" fill="#F48120"/><path d="M9.835 25.339a.675.675 0 0 1-.25-.049c-2.125-.854-6.028-2.977-8.305-7.594C-.12 14.86-.051 11.743.044 7.426.07 6.201.099 4.934.099 3.523c0-.294.19-.553.47-.641L9.634.031a.67.67 0 0 1 .403 0l9.066 2.851c.28.088.47.347.47.64 0 .493.004.971.009 1.436a.672.672 0 0 1-.664.68h-.008a.672.672 0 0 1-.672-.665c-.004-.313-.006-.632-.008-.957l-8.395-2.64-8.394 2.64c-.005 1.24-.03 2.401-.054 3.44-.09 4.125-.156 7.105 1.098 9.646 1.994 4.041 5.36 5.994 7.35 6.838 1.99-.844 5.358-2.796 7.352-6.838 1.254-2.54 1.188-5.52 1.098-9.645l-.007-.326a.672.672 0 0 1 .657-.686h.015c.364 0 .663.29.67.657l.008.325c.095 4.316.163 7.434-1.237 10.27-2.277 4.618-6.181 6.74-8.305 7.593a.676.676 0 0 1-.25.049z" fill="#F39F00"/><path d="M14.198 10.154h-.145c-.029 0-.058.03-.087.058l-.202.695c-.087.289-.058.578.087.752.144.173.347.29.607.318l1.07.058c.03 0 .059.029.088.029.028.029.028.058 0 .087-.03.058-.058.087-.116.087l-1.1.057c-.607.03-1.244.521-1.475 1.1l-.058.26c-.03.03 0 .087.058.087h3.819c.058 0 .087-.029.087-.087.058-.231.116-.492.116-.752a2.766 2.766 0 0 0-2.75-2.749" fill="#FAAD3F"/></g></svg>