<svg width="56" height="56" xmlns="http://www.w3.org/2000/svg"><g fill="none" fill-rule="evenodd"><circle fill="#CCEFFF" cx="28" cy="28" r="28"/><path stroke="#2BADE9" stroke-width="1.5" fill="#FFF" d="M11.14 26.865h3.184l3.76-4.003v-6.189l4.5 3.874 4.389-1.137 5.455.467 5.9 2.199 3.366 3.185 2.07 4.06.273 4.563-.762 2.697-2.058 3.102-1.45 1.576-.342 4.064-.82 1.153h-4.838l-.888-.373-1.066-1.569-1.676.366-4.55-.366-.719 1.569-2.005.647h-3.488l-1.292-1.17-.279-4.78h-.807l-2.673-4.219H11.14l-1.239-1.346-.325-7.136z"/><path d="M48.401 24.888c-.344-.653-.965-.827-1.032-.85a.445.445 0 0 0-.407.765c.05.044.112.085.183.102.005 0 .309.094.47.398.16.3.138.747-.054 1.287-.094.26-.22.46-.358.617-.035-.68-.259-1.336-.746-1.627-.04-.022-.085-.04-.13-.062a1.614 1.614 0 0 0-1.738.237c-.527.447-.693 1.13-.438 1.792.036.094.085.179.138.263.331.51.98.836 1.712.836h.027c-.13.233-.29.389-.465.434-.5.13-1.014.022-1.403-.125-.076-.242-.161-.479-.255-.716-2.065-5.296-8.111-9.139-15.23-9.139-2.218 0-4.367.384-6.343 1.09l-3.825-3.825a.448.448 0 0 0-.764.313v5.984c-1.373 1.05-2.53 2.306-3.393 3.723h-2.489a2.642 2.642 0 0 0-2.637 2.637v5.407a2.642 2.642 0 0 0 2.637 2.637h.715c.014 0 .027.009.045.009h1.175c.769 1.596 1.895 3.03 3.357 4.277v3.209a2.642 2.642 0 0 0 2.636 2.637h3.361a2.65 2.65 0 0 0 2.561-2.047c1.958.304 3.96.304 5.922 0 .272 1.166 1.332 2.047 2.56 2.047h3.361a2.642 2.642 0 0 0 2.637-2.637v-3.209c2.887-2.458 4.474-5.69 4.474-9.113 0-.777-.09-1.541-.246-2.283a2.907 2.907 0 0 0 1.368-.009c.607-.157 1.077-.724 1.291-1.542.541-.255 1.042-.733 1.323-1.506.282-.8.286-1.475 0-2.011zm-3.24 1.55a.772.772 0 0 1 .492-.183h.013c.112 0 .223.027.33.094.21.125.372.693.3 1.372-.12.022-.219.027-.281.031-.483 0-.912-.21-1.033-.523a.772.772 0 0 1-.045-.147.663.663 0 0 1 .224-.644zm-1.394 5.797c0 3.218-1.533 6.257-4.313 8.558a.444.444 0 0 0-.161.345v3.414c0 .96-.782 1.743-1.743 1.743h-3.36a1.753 1.753 0 0 1-1.735-1.685.45.45 0 0 0-.165-.33.433.433 0 0 0-.282-.099 18.85 18.85 0 0 1-6.605.009.433.433 0 0 0-.358.094.458.458 0 0 0-.165.33 1.753 1.753 0 0 1-1.734 1.685h-3.361c-.961 0-1.743-.782-1.743-1.743v-3.414a.444.444 0 0 0-.161-.344c-1.318-1.09-2.35-2.342-3.084-3.723h.559c2.811 0 3.437-1.957 3.464-2.038a.448.448 0 0 0-.859-.26c0 .005-.044.13-.156.305-.264.41-.934 1.1-2.454 1.1h-1.21l-2.28-.01c-.96 0-1.743-.782-1.743-1.743v-5.407c0-.961.782-1.743 1.743-1.743h2.744c.161 0 .309-.085.389-.224.702-1.211 1.64-2.301 2.748-3.24v.241c0 .246.202.447.447.447a.448.448 0 0 0 .447-.447v-6.301l2.785 2.784.335.335.353.353.63.63.112.112a.445.445 0 1 0 .63-.63l-.443-.442a18.065 18.065 0 0 1 5.636-.903c6.753 0 12.487 3.615 14.409 8.585.13.335.237.68.335 1.024.223.849.349 1.73.349 2.632z" fill="#2BADE9" fill-rule="nonzero"/><text font-family="Ubuntu" font-size="15" fill="#2BADE9" transform="translate(8.822 7.645)"><tspan x="16.378" y="30.988">$</tspan></text><path d="M19.53 26.403c-1.881 0-2.467 1.626-2.512 2.489a.445.445 0 0 0 .42.47h.027a.447.447 0 0 0 .447-.425c0-.005 0-.018.005-.036.022-.246.21-1.609 1.618-1.609 1.452 0 1.506 1.354 1.51 1.51 0 .005.005.01.005.014a.445.445 0 0 0 .89-.013c-.01-.832-.51-2.4-2.41-2.4zM11.316 28.356a.448.448 0 0 0-.447.447v5.363c0 .245.201.447.447.447a.448.448 0 0 0 .447-.447v-5.363a.445.445 0 0 0-.447-.447zM26.377 21.933c.317-.067 3.173-.643 6.033.233a.452.452 0 0 0 .559-.3.446.446 0 0 0-.295-.558c-3.017-.925-5.935-.376-6.49-.255a.452.452 0 0 0 .193.88zM24.638 15.98a.45.45 0 0 0 .859-.259L23.23 8.25a.448.448 0 0 0-.858.259l2.265 7.472zM29.55 15.614c.018 0 .031.004.05.004.223 0 .42-.17.442-.397l.679-6.342a.447.447 0 1 0-.89-.094l-.679 6.342a.445.445 0 0 0 .398.487zM33.908 18.278c.067.04.143.058.219.058a.44.44 0 0 0 .388-.228l4.304-7.7a.444.444 0 0 0-.174-.608.447.447 0 0 0-.608.17l-4.304 7.7a.452.452 0 0 0 .175.608z" fill="#2BADE9" fill-rule="nonzero"/></g></svg>