<svg id="Layer_1" xmlns="http://www.w3.org/2000/svg" viewBox="0 0 60 60"><style>.st1{fill:#fff}</style><circle cx="30" cy="30" r="30" fill="#ccefff"/><path class="st1" d="M19.7 19l-.1.5c-.6 3.6-1 6-1.2 6.8-.5 2.2.5 4.1 3.1 5.3 2.1-1 3.6-1.9 4.1-2.6 1.5-2.2.1-5.9-5.6-11.8l-.3 1.8zM46.1 39.7c.6-1.7.7-3.7.5-5.5v-.1c-.3.1-.8.2-1.8.5-6.3 1.7-9.1 3-12 5.9v.1c.1.3.2.5.3.8.1.1.1.2.2.3.1.1.1.2.2.3.1.1.2.3.3.4 0 .1.1.1.1.2.2.2.3.4.5.5.1 0 .1.1.2.1.1.1.2.1.3.2.1 0 .1.1.2.1 0 0 .1 0 .1.1h.1c.2.1.5.3.7.4.8.3 1.7.5 2.5.6.3 0 .6.1.8.1h.3c.3 0 .7 0 1-.1.2 0 .4-.1.6-.1.1 0 .2 0 .2-.1 1.6-.4 2.8-1.5 3.7-2.9l.1-.1.3-.6c.1-.1.1-.3.2-.4.2-.1.3-.4.4-.7z"/><path class="st1" d="M26.7 29.7c-.5.8-1.7 1.6-3.5 2.5.1 0 .1.1.2.1.2.1.3.1.5.2.1 0 .2.1.3.1.1.1.2.1.4.2.1 0 .2.1.3.1.1.1.2.1.3.2.1 0 .2.1.2.1.1.1.2.1.3.2.1 0 .1.1.2.1.1.1.2.1.3.2.1 0 .1.1.2.1l.3.3.1.1.4.4c.2.2.4.5.5.7 0 .1.1.1.1.2l.3.6c0 .1.1.1.1.2.1.2.2.4.2.6 0 .1 0 .2.1.2.1.2.1.4.2.6v.1h2.8v-.1c0-.2.1-.4.2-.6 0-.1 0-.2.1-.2.1-.2.2-.4.2-.6 0-.1.1-.1.1-.2.1-.2.2-.3.3-.5 0-.1.1-.2.1-.2.1-.1.1-.2.2-.2.1-.2.2-.3.3-.5l.4-.4.1-.1.3-.3.1-.1c.1-.1.2-.2.3-.2.1 0 .1-.1.2-.1.1-.1.2-.1.3-.2.1 0 .1-.1.2-.1.1-.1.2-.1.4-.2.1 0 .1-.1.2-.1.2-.1.3-.1.5-.2 0 0 .1 0 .1-.1.2-.1.5-.2.8-.3-1.7-.9-3-1.7-3.5-2.5-1.9-2.9-.3-7.5 6.4-14.1l-.2-1.2c0-.2-.1-.4-.1-.6 0-.2-.1-.5-.1-.7-.8 1.2-1.6 2.3-2.5 3.5-1.1 1.4-2.2 2.5-3.2 3.4-1.3 1.1-2.5 1.7-3.5 1.7s-2.5-.8-3.7-1.8c-1-.9-2.1-2-3.2-3.4-.9-1.1-1.7-2.2-2.4-3.4l-.1-.1c-.1.8-.3 1.7-.4 2.5 6.6 6.7 8.2 11.2 6.3 14.1z"/><path class="st1" d="M27.4 38.8v-.3c0-.2-.1-.5-.1-.7 0-.1 0-.1-.1-.2-.1-.2-.1-.3-.2-.5 0-.1-.1-.2-.1-.2-.1-.2-.2-.3-.2-.4 0-.1-.1-.2-.1-.2-.1-.2-.3-.4-.4-.6-.3-.4-.7-.7-1.1-1-.7-.5-1.6-.8-2.9-1.3-.3-.1-.5-.2-.8-.3-3.4-1.4-4.9-4-4.1-6.9.2-.7.6-3.1 1.2-6.7l.1-.5c.2-1.1.4-2.3.6-3.5.2-1 .3-2 .5-3l-1.2.3c-.2 1-.4 1.9-.6 2.9-.5 2.4-1 4.9-1.5 7.3-.4.9-.6 2-.8 3-.7 2.8-1.2 4.9-1.7 6.2-.1.2-.1.4-.2.6.7.2 1.3.4 2 .6 5.9 1.5 8.9 2.8 11.7 5.4zM45 44c-.2.2-.5.5-.8.6-.1 0-.1.1-.2.1-.2.2-.4.3-.7.4-.1.1-.2.1-.3.1-.1 0-.2.1-.2.1-.2.1-.4.2-.7.3-.1 0-.1 0-.2.1h-.1c-.2.1-.5.1-.7.1h-.3-.1c-.3 0-.7.1-1 0h-.1c-.3 0-.7 0-1.3-.1-.9-.1-1.9-.3-2.8-.7-.3-.1-.6-.2-.8-.4-.1 0-.1-.1-.2-.1-.2-.1-.4-.2-.5-.4l-.2-.2c-.1-.1-.2-.1-.3-.2l-.2-.2-.2-.2c0-.1-.1-.1-.1-.2V43c-.1-.2-.2-.3-.4-.5 0 0 0-.1-.1-.1v-.1l-.3-.6c0-.1-.1-.2-.1-.3-.1-.2-.1-.3-.2-.5 0-.1-.1-.2-.1-.3 0-.2-.1-.3-.1-.5V40c0-.1 0-.2-.1-.3 0-.3-.1-.6-.1-.9h-2.6c0 .3 0 .6-.1.9 0 .1 0 .2-.1.3v.1c0 .2-.1.3-.1.5 0 .1-.1.2-.1.3-.1.2-.1.4-.2.5 0 .1-.1.2-.1.3l-.3.6s0 .1-.1.1c0 0 0 .1-.1.1-.1.1-.2.3-.3.4l-.1.1c0 .1-.1.1-.1.2l-.2.2c0 .1-.1.1-.1.2l-.1.1c-.1.1-.2.1-.2.2l-.2.2h-.1l-.1.1c-.1.1-.3.2-.4.2-.1 0-.1.1-.2.1 0 0-.1 0-.1.1-.2.1-.5.3-.8.4-.9.4-1.9.6-2.8.7-.6.1-1 .1-1.3.1-.4 0-.7 0-1.1-.1h-.4c-.3 0-.6-.1-.9-.2h-.1c-.3-.1-.6-.2-1-.4-.1 0-.2-.1-.3-.1-.3-.1-.5-.3-.7-.4-.1 0-.1-.1-.2-.1-.3-.2-.5-.4-.8-.7l-.2-.2-.3-.3.1.3c.2 1 .7 1.9 1.5 2.6 1.8 1.6 4.7 1.9 7.3 1.1.6-.2 1.2-.5 2.2-1.1h.1c.7-.4 1-.5 1.4-.7.1-.1.1-.1.5-.2 1-.5 1.6-.7 2.3-.7.7 0 1.3.2 2.3.7.3.2.3.2.5.2.5.2 1 .5 1.4.7h.1c1.1.6 1.6.8 2.2 1.1 2.6.9 5.5.5 7.3-1.1.8-.7 1.4-1.7 1.5-2.6l.1-.3-.3.3c0 .3 0 .4-.1.4z"/><path class="st1" d="M27.2 40.4c-2.9-2.9-5.7-4.1-11.9-5.8-1.1-.3-1.6-.4-1.9-.5v.1c-.2 1.8-.1 3.8.5 5.5.1.3.2.6.3.8.1.1.1.3.2.4l.3.6s0 .1.1.1c.9 1.4 2.2 2.5 3.8 2.9h.2c.2 0 .4.1.6.1.3 0 .7.1 1 .1.4 0 .7 0 1.1-.1.9-.1 1.7-.3 2.5-.6.3-.1.5-.2.7-.4 0 0 .1 0 .1-.1 0 0 .1 0 .1-.1.2-.1.3-.2.5-.4.1 0 .1-.1.2-.1.2-.2.4-.3.5-.5l.2-.2c.1-.1.2-.3.3-.4.1-.1.1-.2.2-.3.1-.1.1-.2.2-.3 0-.1.2-.4.2-.8zM41.6 19.3c.6 3.5 1 6 1.2 6.7.7 2.9-.8 5.5-4.1 6.9-.2.1-.5.2-.8.3-1 .3-1.8.6-2.4 1l-.9.6c-.3.2-.5.4-.7.7-.2.2-.3.4-.5.6 0 .1-.1.1-.1.2-.1.2-.2.3-.3.5 0 .1-.1.1-.1.2-.1.2-.1.4-.2.6v.2c-.1.2-.1.5-.1.8v.4c2.9-2.6 5.9-3.9 11.8-5.5 1.1-.3 1.5-.4 1.9-.5-.1-.2-.1-.4-.2-.6-.5-1.3-1-3.4-1.7-6.2-.2-1-.5-2.1-.7-3.2-.5-2.3-1-4.8-1.5-7.3-.2-1-.4-1.9-.6-2.9l-1.2-.3c.4 2.2.7 4.4 1.1 6.6l.1.2z"/><path class="st1" d="M34.4 29c.4.7 1.9 1.6 4.1 2.6 2.6-1.2 3.7-3.1 3.1-5.3-.2-.8-.6-3.2-1.2-6.8-.1-.8-.3-1.5-.4-2.3-5.8 5.9-7.1 9.6-5.6 11.8z"/><path d="M47.9 34.1c0-.2-.1-.4-.1-.6 0-.1 0-.2-.1-.3-.1-.5-.2-.9-.4-1.3-.4-1.2-1-3.3-1.6-6-.2-1-.5-2.1-.7-3.2-.5-2.4-1-4.9-1.5-7.3-.2-1-.4-2.1-.6-3.1v-.2c0-.2-.2-.4-.5-.5l-2.6-.6h-.1-.1-.1c-.1 0-.1 0-.2.1l-.1.1-.1.1c0 .1-.1.2-.2.4-.2.3-.4.7-.7 1.1-.7 1.1-1.5 2.2-2.4 3.3-1.1 1.3-2.1 2.4-3 3.2-1.1.9-2 1.4-2.7 1.4-.7 0-1.7-.5-2.7-1.4-1-.8-2-1.9-3-3.2-.8-1.1-1.6-2.1-2.4-3.3l-.9-1.5-.1-.1s0-.1-.1-.1c0 0-.1 0-.1-.1h-.1-.1-.1l-2.6.6c-.2.1-.4.3-.5.5v.2l-.4.5c-.1.7-.3 1.5-.5 2.4-.5 2.4-1 4.9-1.5 7.3-.2 1.1-.5 2.1-.7 3.2-.6 2.8-1.2 4.8-1.6 6.1-.2.4-.3.9-.4 1.3 0 .1 0 .2-.1.3 0 .2-.1.4-.1.7-.3 2.1-.1 4.3.5 6.1.2 1 .3 1.9.7 3.6l.1.4c.2 1.3 1 2.5 2 3.4 2.2 1.9 5.6 2.3 8.6 1.3.7-.3 1.3-.5 2.4-1.1h.1c.7-.4 1-.5 1.4-.7.2-.1.3-.2.5-.2.9-.4 1.3-.6 1.8-.6s.9.2 1.8.6c.3.2.4.2.5.2.4.2.7.3 1.3.7h.1c1.1.6 1.7.9 2.4 1.1 3 1 6.4.6 8.6-1.3 1-.9 1.7-2.1 2-3.4l.1-.4c.3-1.7.5-2.6.7-3.6.3-1.9.5-4 .2-6.1zm-2.6 7.5l-.1.1c-.9 1.4-2.2 2.4-3.7 2.9-.1 0-.2 0-.2.1-.2 0-.4.1-.6.1-.3 0-.7.1-1 .1h-.3c-.2 0-.5 0-.8-.1-.9-.1-1.7-.3-2.5-.6-.3-.1-.5-.2-.7-.4h-.1s-.1 0-.1-.1c-.1 0-.1-.1-.2-.1-.1-.1-.2-.1-.3-.2-.1 0-.1-.1-.2-.1-.2-.2-.4-.3-.5-.5-.1-.1-.1-.1-.1-.2-.1-.1-.2-.3-.3-.4-.1-.1-.1-.2-.2-.3-.1-.1-.1-.2-.2-.3-.1-.2-.2-.5-.3-.8v-.1c2.9-2.9 5.8-4.2 12-5.9 1-.3 1.5-.4 1.8-.5v.1c.3 1.8.1 3.8-.5 5.5l-.3.9c-.1.1-.1.3-.2.4-.2 0-.3.2-.4.4zm-3.6-29.1c.2 1 .4 1.9.6 2.9.5 2.5 1 5 1.5 7.3.2 1.1.5 2.2.7 3.2.7 2.8 1.2 4.9 1.7 6.2.1.2.1.4.2.6-.3.1-.8.2-1.9.5-5.9 1.6-9 2.9-11.8 5.5v-.4c0-.3.1-.5.1-.8v-.2c.1-.2.1-.4.2-.6 0-.1.1-.1.1-.2.1-.2.2-.3.3-.5 0-.1.1-.1.1-.2.1-.2.3-.4.5-.6.2-.2.4-.5.7-.7l.9-.6c.6-.3 1.4-.7 2.4-1 .3-.1.5-.2.8-.3 3.4-1.4 4.9-4 4.1-6.9-.2-.7-.6-3.1-1.2-6.7l-.1-.5c-.4-2.2-.7-4.4-1.1-6.6l1.2.6zM40 17.2c.1.8.3 1.5.4 2.3.6 3.6 1 6 1.2 6.8.5 2.2-.5 4.1-3.1 5.3-2.1-1-3.6-1.9-4.1-2.6-1.5-2.2-.2-5.9 5.6-11.8zm-19.3-4.1c.8 1.3 1.6 2.4 2.5 3.5 1.1 1.4 2.2 2.5 3.2 3.4 1.3 1.1 2.5 1.7 3.5 1.7s2.3-.6 3.5-1.7c1-.9 2.1-2 3.2-3.4.9-1.1 1.7-2.3 2.5-3.5 0 .2.1.5.1.7 0 .2.1.4.1.6l.2 1.2c-6.7 6.7-8.3 11.2-6.4 14.1.5.8 1.7 1.6 3.5 2.5-.3.1-.5.2-.8.3 0 0-.1 0-.1.1-.2.1-.3.1-.5.2-.1 0-.1.1-.2.1-.1.1-.3.1-.4.2-.1 0-.1.1-.2.1-.1.1-.2.1-.3.2-.1 0-.1.1-.2.1-.1.1-.2.1-.3.2l-.1.1-.3.3-.1.1-.4.4c-.1.1-.2.3-.3.5-.1.1-.1.2-.2.2-.1.1-.1.2-.1.2-.1.2-.2.3-.3.5 0 .1-.1.1-.1.2-.1.2-.2.4-.2.6 0 .1 0 .2-.1.2-.1.2-.1.4-.2.6v.1h-2.8v-.1c0-.2-.1-.4-.2-.6 0-.1 0-.2-.1-.2-.1-.2-.2-.4-.2-.6 0-.1 0-.1-.1-.2l-.3-.6c0-.1-.1-.1-.1-.2-.2-.2-.3-.5-.5-.7l-.4-.4-.1-.1-.3-.3c-.1 0-.1-.1-.2-.1-.1-.1-.2-.1-.3-.2-.1 0-.1-.1-.2-.1-.1-.1-.2-.1-.3-.2-.1 0-.2-.1-.2-.1-.1-.1-.2-.1-.3-.2-.1 0-.2-.1-.3-.1-.1-.1-.2-.1-.4-.2-.1 0-.2-.1-.3-.1-.1-.1-.3-.1-.5-.2-.1 0-.1-.1-.2-.1 1.7-.9 3-1.7 3.5-2.5 1.9-2.9.3-7.5-6.4-14.1.4-.7.6-1.6.7-2.4zM25.6 29c-.4.7-1.9 1.6-4.1 2.6-2.6-1.2-3.7-3.1-3.1-5.3.2-.8.6-3.2 1.2-6.8l.1-.5.3-1.8c5.8 5.9 7.1 9.6 5.6 11.8zm-11.7 3.1c.5-1.3 1-3.4 1.7-6.2.2-1 .5-2.1.7-3.2.5-2.4 1-4.9 1.5-7.3.2-1 .4-1.9.6-2.9l1.2-.3c-.2 1-.3 2-.5 3-.2 1.2-.4 2.4-.6 3.5l-.1.5c-.6 3.5-1 6-1.2 6.7-.7 2.9.8 5.5 4.1 6.9.2.1.5.2.8.3 1.3.4 2.2.8 2.9 1.3.4.3.8.6 1.1 1 .2.2.3.4.4.6 0 .1.1.2.1.2.1.1.2.3.2.4 0 .1.1.2.1.2.1.2.1.3.2.5 0 .1 0 .1.1.2.1.2.1.5.1.7v.3c-2.8-2.6-5.8-3.8-11.7-5.4-.7-.2-1.3-.4-2-.6.1.1.2-.2.3-.4zm13 9.3c0 .1-.1.2-.2.3-.1.1-.1.2-.2.3-.1.1-.2.3-.3.4l-.2.2c-.2.2-.3.4-.5.5-.1 0-.1.1-.2.1-.2.1-.3.2-.5.4 0 0-.1 0-.1.1 0 0-.1 0-.1.1-.2.1-.5.3-.7.4-.8.3-1.7.5-2.5.6-.4 0-.7.1-1.1.1-.3 0-.7 0-1-.1-.2 0-.4-.1-.6-.1h-.2c-1.6-.4-2.9-1.5-3.8-2.9 0 0 0-.1-.1-.1l-.3-.6c-.1-.1-.1-.3-.2-.4-.1-.3-.2-.5-.3-.8-.6-1.7-.7-3.7-.5-5.5v-.1c.4.1.8.2 1.9.5 6.2 1.7 9 2.9 11.9 5.8.1.2-.1.5-.2.8zm18.5 2.5c-.2 1-.7 1.9-1.5 2.6-1.8 1.6-4.7 1.9-7.3 1.1-.6-.2-1.2-.5-2.2-1.1h-.1c-.5-.3-.9-.5-1.4-.7-.1-.1-.1-.1-.5-.2-1-.5-1.6-.7-2.3-.7-.7 0-1.3.2-2.3.7-.3.2-.3.2-.5.2-.4.2-.7.4-1.4.7h-.1c-1.1.6-1.6.8-2.2 1.1-2.6.9-5.5.5-7.3-1.1-.8-.7-1.4-1.7-1.5-2.6l-.1-.3.3.3.2.2c.2.2.5.5.8.7 0 0 .1.1.2.1.2.2.5.3.7.4.1 0 .2.1.3.1.3.1.6.3 1 .4h.1c.3.1.6.2.9.2h.4c.3 0 .7.1 1.1.1.2 0 .7 0 1.3-.1.9-.1 1.9-.3 2.8-.7.3-.1.5-.2.8-.4 0 0 .1 0 .1-.1.1 0 .2-.1.2-.1.1-.1.3-.2.4-.2l.1-.1h.1c.1-.1.2-.1.2-.2.1-.1.2-.1.2-.2l.1-.1c.1 0 .1-.1.1-.2l.2-.2c0-.1.1-.1.1-.2l.1-.1c.1-.1.2-.3.3-.4 0 0 0-.1.1-.1 0 0 0-.1.1-.1l.3-.6c0-.1.1-.2.1-.3.1-.2.1-.4.2-.5 0-.1.1-.2.1-.3 0-.2.1-.3.1-.5v-.1c0-.1 0-.2.1-.3 0-.3.1-.6.1-.9h2.6c0 .3 0 .6.1.9 0 .1 0 .2.1.3v.1c0 .2.1.3.1.5 0 .1.1.2.1.3.1.2.1.4.2.5 0 .1.1.2.1.3l.3.6v.1s0 .1.1.1c.1.2.2.3.4.5v.1c0 .1.1.1.1.2l.2.2c.1.1.1.2.2.2.1.1.2.1.3.2l.2.2c.2.1.4.3.5.4.1 0 .1.1.2.1.3.1.5.3.8.4.9.4 1.9.6 2.8.7.6.1 1 .1 1.3.1H41.2c.2 0 .5-.1.7-.1h.1c.1 0 .1 0 .2-.1.2-.1.4-.2.7-.3.1 0 .2-.1.2-.1.1 0 .2-.1.3-.1.2-.1.5-.3.7-.4.1 0 .1-.1.2-.1.3-.2.5-.4.8-.6l.2-.2.3-.3-.2.1z" fill="#2bade9"/></svg>