<svg width="37" height="37" xmlns="http://www.w3.org/2000/svg"><g fill="#2BADE9" fill-rule="nonzero"><path d="M18.474 37a1.54 1.54 0 0 0 0-3.079 15.292 15.292 0 0 1-10.886-4.509 15.294 15.294 0 0 1-4.51-10.886c0-4.111 1.602-7.977 4.51-10.885l2.177 2.177V3.286H3.234L5.41 5.464A18.35 18.35 0 0 0 0 18.526C0 23.461 1.922 28.1 5.41 31.59A18.352 18.352 0 0 0 18.475 37zM18.54.286a1.54 1.54 0 0 0 0 3.08c4.112 0 7.978 1.6 10.885 4.508a15.294 15.294 0 0 1 4.51 10.886c0 4.112-1.602 7.978-4.51 10.886l-2.177-2.177V34h6.531l-2.177-2.177a18.35 18.35 0 0 0 5.411-13.063c0-4.934-1.922-9.573-5.41-13.062A18.352 18.352 0 0 0 18.538.286z"/><path d="M18.474 26.737c4.527 0 8.21-3.683 8.21-8.21 0-3.439-2.126-6.386-5.131-7.606v3.51a5.121 5.121 0 0 1 2.052 4.095 5.137 5.137 0 0 1-5.131 5.132 5.137 5.137 0 0 1-5.132-5.132c0-1.673.81-3.158 2.053-4.095v-3.51c-3.005 1.22-5.132 4.167-5.132 7.605 0 4.528 3.683 8.21 8.21 8.21z"/><path d="M16.934 8.264h3.079V17.5h-3.079z"/></g></svg>