<svg id="Layer_1" xmlns="http://www.w3.org/2000/svg" xmlns:xlink="http://www.w3.org/1999/xlink" viewBox="0 0 60 60"><style>.st0{clip-path:url(#SVGID_2_)}</style><defs><circle id="SVGID_1_" cx="30" cy="30" r="30"/></defs><clipPath id="SVGID_2_"><use xlink:href="#SVGID_1_" overflow="visible"/></clipPath><g class="st0"><defs><circle id="SVGID_3_" cx="30" cy="30" r="30"/></defs><clipPath id="SVGID_4_"><use xlink:href="#SVGID_3_" overflow="visible"/></clipPath></g><circle cx="30" cy="30" r="30" fill="#ccefff"/><g clip-path="url(#SVGID_2_)"><path d="M19.6 57.1c-.1 0-.1 0-.2-.3-1-2.7-1.9-5.4-2.9-8.1C12.4 37.5 8.3 26.2 4.2 15c-.4-1.2-.7-1.4-2.1-1.5h-.5c-.4 0-.8 0-1.2-.1-.5-.1-.8-.4-.8-.8s.3-.7.8-.8H4.1c2.3 0 4.6-.1 7-.1.9 0 1.8-.1 2.8-.1.6 0 1.1-.1 1.7-.1h.4c.2.2.3.4.4.6h-.1c-.5.2-1 .3-1.6.4-.5.1-1 .1-1.5.1l-1.7.1 7.9 23.7c.5 1.4.9 2.8 1.4 4.2.2.6.4 1.1.6 1.7.4 1.2.8 2.4 1.3 3.6l.2.5 1.2-.1.3-.7c.1-.2.2-.4.2-.6l1.7-5c1.3-4 2.7-8 4-12 .5-1.3.4-2.4 0-3.6-1.4-3.6-2.7-7.3-3.8-10.6-.3-.9-.9-1.3-1.8-1.4-.9-.1-1.6-.1-2.2-.2-.6-.1-.6-.3-.5-.5 0-.1 0-.4.6-.4s1 .1 1.5.1c.7.1 1.5.1 2.2.1 2.7 0 5.3-.1 7.8-.1l2.8-.1h1.5c.3 0 .4.1.5.4 0 .3-.2.4-.4.4-.5.1-1 .1-1.5.2l-.7.1-2.2.2L45.3 46l1.1-.1.3-.3.1-.2c.1-.1.2-.3.2-.5.4-1.4.9-2.8 1.3-4.1 1.1-3.3 2.1-6.8 3.1-10.2 1.4-4.7.8-9.2-1.8-13.4-.9-1.5-1.7-2.8-2.3-4.1-1.1-2.1-.9-4 .5-5.7.8-1 2.1-1.5 3.4-1.5 1.5 0 3 .7 3.9 1.8.8 1 1.3 2.4 1.5 4.2.5 4.5-.1 9.2-1.9 14.2-2.4 6.8-4.8 13.8-7.2 20.6l-.1.2c-1.1 3.1-2.2 6.2-3.2 9.3-.3.8-.3.8-.7.8h-.4c-.8 0-.8 0-1.1-.8-2-5.5-4.1-11.1-6.1-16.6L33 32.1c-.2-.4-.3-.8-.5-1.3l-.5-1.2h-1.2l-.3.7c-.1.2-.2.5-.3.7l-8 23.2c-.1.4-.3.8-.4 1.2-.2.5-.4 1-.5 1.5-.1.1-.1.2-.1.2h-1.5-.1z" fill="#fff"/><path d="M51.1 6.3c1.4 0 2.8.6 3.7 1.7.8 1 1.3 2.3 1.5 4 .5 4.5-.1 9.1-1.9 14.1-2.5 6.9-4.9 13.9-7.2 20.6l-.1.2C46 50 45 53.1 43.9 56.2c-.1.3-.2.5-.2.6H42.4c-.1-.1-.1-.3-.2-.6-2-5.5-4.1-11.1-6.1-16.6L33.3 32c-.2-.4-.3-.8-.5-1.3v-.1l-.4-.9-.1-.3h-1.5l-.1.3-.3.6c-.1.3-.2.5-.3.7l-8 23.2c-.1.4-.3.8-.4 1.2-.2.5-.3 1-.5 1.4h-1.4v-.1c-1-2.9-2-5.7-2.9-8.1-4.3-11.2-8.4-22.5-12.5-33.7-.5-1.3-.9-1.6-2.3-1.6h-.5c-.4 0-.8 0-1.2-.1-.3 0-.6-.2-.6-.5 0-.4.4-.5.6-.6H4c2.3 0 4.6-.1 7-.1.9 0 1.9-.1 2.8-.1h.1c.5 0 1-.1 1.6-.1h.3c0 .1.1.1.1.2-.4.1-.8.2-1.4.3-.5.1-.9.1-1.5.1l-1.4.1-.6-.1.2.6L19 36.4v.1c.5 1.4.9 2.8 1.4 4.1.2.6.4 1.1.6 1.7.4 1.2.8 2.4 1.3 3.6l.1.3.1.3h.3l.9-.1h.3l.1-.3.2-.5c.1-.2.2-.4.2-.6l1.6-4.8v-.1c1.3-3.9 2.7-8 4-12 .5-1.4.5-2.5 0-3.7-1.4-3.6-2.7-7.3-3.8-10.6-.3-1-1-1.5-2.1-1.5-.9-.1-1.6-.1-2.2-.2-.2 0-.3-.1-.3-.1v-.1c0-.1 0-.1.3-.1.6 0 1.1.1 1.5.1.7.1 1.5.1 2.2.1 2.7 0 5.3-.1 7.8-.1l2.8-.1H38v.2c0 .1 0 .1-.2.2-.5.1-1 .1-1.5.2l-.7.1-1.9.2-.6.1.2.6 11.1 32.9.1.4h.4l.8-.1h.2l.1-.1.2-.2.1-.1c.1-.1.2-.3.2-.5.4-1.4.9-2.8 1.3-4.1 1.1-3.3 2.1-6.8 3.1-10.2 1.4-4.8.8-9.4-1.9-13.6-.9-1.5-1.6-2.8-2.3-4.1-1-2.1-.9-3.8.5-5.4 1.4-1.5 2.6-2 3.9-2m0-.5c-1.5 0-2.8.6-3.6 1.6-1.5 1.8-1.7 3.7-.6 5.9.6 1.3 1.4 2.6 2.3 4.1 2.5 4.2 3.2 8.6 1.8 13.2-1 3.4-2.1 6.8-3.1 10.2-.4 1.4-.9 2.8-1.3 4.1 0 .2-.1.3-.2.4l-.1.1-.2.2-.8.1-11-32.7 1.9-.2.7-.1c.5 0 1-.1 1.5-.2.4-.1.6-.3.6-.7 0-.4-.2-.6-.7-.6h-1.5l-2.8.1c-2.6.1-5.2.1-7.8.1-.7 0-1.5-.1-2.2-.1-.5 0-1-.1-1.6-.1-.8 0-.8.5-.8.6 0 .3 0 .6.8.7.6.1 1.3.2 2.2.2.8.1 1.3.4 1.6 1.2 1.2 3.3 2.5 7 3.9 10.6.4 1.1.4 2.1 0 3.4-1.4 4-2.7 8.1-4.1 12.1l-1.6 4.8c-.1.2-.2.4-.2.6l-.3.6-.9.1-.1-.3c-.5-1.2-.9-2.4-1.3-3.6-.2-.6-.4-1.2-.6-1.7-.5-1.4-1-2.8-1.4-4.2l-7.8-23.4 1.4-.1c.5 0 1-.1 1.5-.1.6-.1 1.2-.2 1.6-.4.1 0 .3-.2.3-.3-.1-.3-.3-.6-.5-.7h-.5c-.6 0-1.1.1-1.7.1-.9.1-1.8.1-2.8.1-2.3.1-4.6.1-7 .1H.4c-.6.1-1 .5-1 1 0 .6.4 1 1 1.1.4.1.8.1 1.3.1h.5c1.2 0 1.4.2 1.8 1.3 4 11.2 8.1 22.5 12.2 33.7 1 2.7 2 5.4 2.9 8.1.1.4.3.5.5.5h1.5c.2 0 .3 0 .4-.4.2-.5.3-.9.5-1.4.1-.4.3-.8.4-1.2l8-23.2c.1-.2.2-.5.3-.7l.3-.6h.9l.4.9c.2.5.4.9.5 1.4l2.8 7.6c2 5.5 4.1 11.1 6.1 16.6.3.9.3.9 1.3.9h.4c.6 0 .6 0 1-1 1.1-3.1 2.2-6.2 3.2-9.3 2.4-6.8 4.8-13.8 7.2-20.7 1.8-5.1 2.4-9.8 1.9-14.3-.2-1.9-.7-3.2-1.6-4.3-.9-1.2-2.4-1.9-4-1.9z" fill="#2bade9"/></g></svg>