<svg width="20" height="26" xmlns="http://www.w3.org/2000/svg"><g fill="#2BADE9" fill-rule="nonzero"><path d="M9.835 25.339a.675.675 0 0 1-.25-.049c-2.125-.854-6.028-2.977-8.305-7.594C-.12 14.86-.051 11.743.044 7.426.07 6.201.099 4.934.099 3.523c0-.294.19-.553.47-.641L9.634.031a.67.67 0 0 1 .403 0l9.066 2.851c.28.088.47.347.47.64 0 .493.004.971.009 1.436a.672.672 0 0 1-.664.68h-.008a.672.672 0 0 1-.672-.665c-.004-.313-.006-.632-.008-.957l-8.395-2.64-8.394 2.64c-.005 1.24-.03 2.401-.054 3.44-.09 4.125-.156 7.105 1.098 9.646 1.994 4.041 5.36 5.994 7.35 6.838 1.99-.844 5.358-2.796 7.352-6.838 1.254-2.54 1.188-5.52 1.098-9.645l-.007-.326a.672.672 0 0 1 .657-.686h.015c.364 0 .663.29.67.657l.008.325c.095 4.316.163 7.434-1.237 10.27-2.277 4.618-6.181 6.74-8.305 7.593a.676.676 0 0 1-.25.049z"/><path d="M14 12.008v3.982a.543.543 0 0 0-.02.063 1.124 1.124 0 0 1-.804.886 2.409 2.409 0 0 1-.252.061H7.077l-.136-.031c-.549-.11-.94-.567-.935-1.094a307.93 307.93 0 0 1 0-3.752 1.08 1.08 0 0 1 .358-.807 1.23 1.23 0 0 1 .87-.315h5.53c.606-.02 1.13.392 1.216.955a.362.362 0 0 0 .02.052z"/><path d="M10.195 7c.237.045.48.072.713.138.66.183 1.224.63 1.569 1.243.39.665.514 1.401.523 2.167v.45h-1.28v-.146a4.368 4.368 0 0 0-.112-1.224c-.148-.54-.415-1.004-.963-1.18-.631-.207-1.244-.178-1.77.302-.315.289-.463.682-.53 1.102-.042.27-.047.547-.065.822-.007.106 0 .211 0 .326H7v-.4c0-.662.088-1.31.37-1.914.432-.928 1.136-1.483 2.118-1.64L9.802 7h.393z"/></g></svg>