<svg width="1088" height="233" viewBox="0 0 1088 233" fill="none" xmlns="http://www.w3.org/2000/svg">
<path d="M225.542 69.1115H261.372C296.068 69.1115 325.322 83.3902 325.322 121.833C325.322 155.662 296.748 173.895 264.547 173.895H225.542V69.1115ZM249.353 152.367H261.825C284.049 152.367 300.604 144.239 300.604 120.515C300.604 99.8656 283.596 90.4197 263.413 90.4197H249.353V152.367V152.367Z" fill="black"/>
<path d="M337.567 101.843H360.471V113.485H360.698C365.687 104.698 372.037 100.085 382.015 100.085C384.509 100.085 387.458 100.305 389.725 100.744V120.954C386.55 120.075 383.376 119.416 379.974 119.416C362.512 119.416 360.471 129.082 360.471 143.58V173.675H337.567V101.843Z" fill="black"/>
<path d="M467.509 161.374C460.252 170.38 448.233 175.652 436.214 175.652C413.31 175.652 394.941 160.934 394.941 137.869C394.941 115.023 413.31 100.085 436.214 100.085C457.531 100.085 470.911 114.803 470.911 137.869V144.898H417.846C419.66 153.246 426.236 158.738 435.08 158.738C442.564 158.738 447.553 155.003 451.408 149.951L467.509 161.374ZM448.006 129.521C448.233 122.052 442.11 115.902 433.946 115.902C423.968 115.902 418.299 122.492 417.846 129.521H448.006Z" fill="black"/>
<path d="M528.738 164.669H528.511C523.522 172.357 514.224 175.433 504.926 175.433C491.093 175.433 478.621 167.744 478.621 153.246C478.621 128.423 509.689 127.984 528.738 127.984C528.738 120.075 521.934 115.023 513.997 115.023C506.514 115.023 500.164 118.318 495.402 123.59L483.156 111.508C491.547 103.82 503.792 99.8656 515.811 99.8656C542.571 99.8656 549.601 113.046 549.601 136.99V173.456H528.511V164.669H528.738ZM523.068 142.262C516.038 142.262 500.391 142.921 500.391 152.587C500.391 157.859 506.287 160.495 511.276 160.495C520.347 160.495 528.738 155.882 528.738 147.095V142.262H523.068Z" fill="black"/>
<path d="M564.114 101.843H586.111V111.508H586.338C589.286 105.797 596.77 99.8656 608.108 99.8656C618.54 99.8656 626.931 104.039 631.012 112.826C636.455 103.6 643.485 99.8656 654.597 99.8656C674.78 99.8656 680.903 113.705 680.903 131.059V173.456H657.772V131.718C657.772 125.128 655.277 119.416 647.794 119.416C637.362 119.416 633.96 126.666 633.96 135.452V173.456H611.056V135.672C611.056 130.4 611.283 119.636 600.852 119.636C588.833 119.636 587.018 128.643 587.018 137.869V173.675H564.114V101.843Z" fill="black"/>
<path d="M695.189 69.1115H719.001V107.993H765.262V69.1115H789.074V173.895H765.262V128.423H719.001V173.675H695.189V69.1115Z" fill="black"/>
<path d="M840.551 100.085C863.455 100.085 881.824 114.803 881.824 137.869C881.824 160.715 863.455 175.652 840.551 175.652C817.647 175.652 799.278 160.934 799.278 137.869C799.278 114.803 817.647 100.085 840.551 100.085ZM840.551 155.882C851.89 155.882 858.92 148.413 858.92 137.649C858.92 126.885 852.117 119.416 840.551 119.416C829.212 119.416 822.182 126.885 822.182 137.649C822.182 148.633 829.212 155.882 840.551 155.882Z" fill="black"/>
<path d="M934.208 122.931C930.807 118.977 926.498 116.78 920.829 116.78C916.974 116.78 912.438 118.318 912.438 122.711C912.438 133.256 950.99 124.249 950.99 151.708C950.99 169.941 932.621 175.433 916.747 175.433C906.315 175.433 894.977 173.016 887.493 165.767L901.326 150.83C905.635 155.882 910.624 158.738 917.427 158.738C922.643 158.738 927.859 157.42 927.859 153.466C927.859 141.823 889.307 151.708 889.307 124.249C889.307 107.334 904.955 100.085 920.375 100.085C930.127 100.085 941.012 102.502 947.815 109.531L934.208 122.931Z" fill="black"/>
<path d="M1012.67 119.636H992.489V143.58C992.489 151.269 993.396 156.98 1003.37 156.98C1005.87 156.98 1010.63 156.761 1012.67 155.003V173.456C1007.68 175.213 1002.01 175.652 996.571 175.652C981.377 175.652 969.585 169.502 969.585 153.905V119.636H954.845V101.843H969.585V80.5344H992.489V101.843H1012.67V119.636Z" fill="black"/>
<path d="M184.495 149.731C173.384 155.662 160.684 158.957 147.078 158.738C106.712 157.859 74.9639 126.446 75.6442 88.2229C75.871 75.2623 79.9529 63.1803 86.7561 53.0754C65.2127 64.718 50.4724 86.4656 50.0188 111.728C49.1117 149.731 81.0868 181.364 121.226 182.243C147.985 182.682 171.343 169.721 184.495 149.731Z" fill="black"/>
<path d="M125.534 50C114.649 50 104.444 52.6361 95.3734 57.4689C89.704 66.4754 86.5292 76.8 86.0757 87.3443C85.3953 120.515 113.288 147.974 147.985 148.633C158.416 148.633 170.209 146.216 179.28 141.384C184.722 132.377 187.897 121.833 187.897 110.63C188.35 77.2393 160.231 50 125.534 50Z" fill="#0073EC"/>
<path d="M1020.61 69.5508C1020.61 68.4525 1020.84 67.3541 1021.29 66.2557C1021.74 65.1574 1022.42 64.4984 1023.1 63.6197C1023.78 62.9607 1024.69 62.3016 1025.83 61.8623C1026.73 61.4229 1027.87 61.2033 1029 61.2033C1030.13 61.2033 1031.27 61.4229 1032.17 61.8623C1033.08 62.3016 1033.99 62.741 1034.9 63.6197C1035.58 64.2787 1036.26 65.1574 1036.71 66.2557C1037.16 67.3541 1037.39 68.2328 1037.39 69.5508C1037.39 70.6492 1037.16 71.7475 1036.71 72.8459C1036.26 73.7246 1035.58 74.6033 1034.9 75.482C1034.22 76.141 1033.31 76.8 1032.17 77.2393C1031.27 77.6787 1030.13 77.8984 1029 77.8984C1027.87 77.8984 1026.73 77.6787 1025.83 77.2393C1024.92 76.8 1024.01 76.3607 1023.1 75.482C1022.42 74.823 1021.74 73.9443 1021.29 72.8459C1020.84 71.7475 1020.61 70.6492 1020.61 69.5508ZM1022.2 69.5508C1022.2 70.4295 1022.42 71.5279 1022.65 72.1869C1023.1 73.0656 1023.56 73.7246 1024.01 74.3836C1024.69 75.0426 1025.37 75.482 1026.28 75.9213C1027.19 76.3607 1028.09 76.3607 1029 76.3607C1029.91 76.3607 1030.81 76.141 1031.72 75.9213C1032.63 75.482 1033.31 75.0426 1033.99 74.3836C1034.67 73.7246 1035.12 73.0656 1035.35 72.1869C1035.8 71.3082 1035.8 70.4295 1035.8 69.5508C1035.8 68.6721 1035.58 67.5738 1035.35 66.9148C1034.9 66.0361 1034.44 65.377 1033.99 64.718C1033.31 64.059 1032.63 63.6197 1031.72 63.1803C1030.81 62.741 1029.91 62.741 1029 62.741C1028.09 62.741 1027.19 62.9607 1026.28 63.1803C1025.37 63.6197 1024.69 64.059 1024.01 64.718C1023.33 65.377 1022.88 66.0361 1022.65 66.9148C1022.2 67.5738 1022.2 68.4525 1022.2 69.5508ZM1025.83 64.718H1029.45C1031.72 64.718 1032.86 65.5967 1032.86 67.3541C1032.86 68.2328 1032.63 68.8918 1032.17 69.3311C1031.72 69.7705 1031.04 69.9902 1030.36 69.9902L1033.08 74.1639H1031.49L1028.77 69.9902H1027.19V74.1639H1025.6L1025.83 64.718ZM1027.19 68.8918H1028.77C1029 68.8918 1029.45 68.8918 1029.68 68.8918C1029.91 68.8918 1030.36 68.8918 1030.59 68.6721C1030.81 68.6721 1031.04 68.4525 1031.27 68.2328C1031.49 68.0131 1031.49 67.7934 1031.49 67.3541C1031.49 67.1344 1031.49 66.6951 1031.27 66.4754C1031.04 66.2557 1031.04 66.0361 1030.81 66.0361C1030.59 66.0361 1030.36 65.8164 1030.13 65.8164C1029.91 65.8164 1029.68 65.8164 1029.45 65.8164H1027.41L1027.19 68.8918Z" fill="black"/>
</svg>
