<svg xmlns="http://www.w3.org/2000/svg" xmlns:xlink="http://www.w3.org/1999/xlink" viewBox="0 0 32 32"><defs><path id="a" d="M16 31.9c-8.8 0-16-7.1-16-16S7.2 0 16 0s16 7.1 16 16-7.2 15.9-16 15.9zm0-3.3c7 0 12.7-5.7 12.7-12.6C28.7 9 23 3.3 16 3.3S3.3 9 3.3 16C3.3 23 9 28.6 16 28.6z"/></defs><use xlink:href="#a" overflow="visible"/><g><defs><path id="b" d="M19.3 22.1v2.1l4.6 1.9v3.3H8.4V26l4.3-1.7V22C9.9 20.8 8 18 8 14.8c0-4.4 3.6-8 8-8s8 3.6 8 8c0 3.2-1.9 6-4.7 7.3z"/></defs><use xlink:href="#b" overflow="visible"/></g></svg>