<svg xmlns="http://www.w3.org/2000/svg" viewBox="0 0 38 35"><path d="M3.4 14.7l-3 1.9c-.2.1-.4.4-.4.7 0 .3.2.6.4.7l3 1.9-3 1.9c-.2.1-.4.4-.4.7 0 .3.2.6.4.7l18.1 11.2c.1.1.3.1.5.1s.3 0 .5-.1l18.1-11.2c.3-.2.4-.4.4-.7 0-.3-.2-.6-.4-.7l-3-1.9 3-1.9c.3-.2.4-.4.4-.7 0-.3-.2-.6-.4-.7l-3-1.9 3-1.9c.3-.2.4-.4.4-.7 0-.3-.2-.6-.4-.7L19.5.1c-.3-.2-.6-.2-.9 0L.4 11.4c-.2.1-.4.4-.4.7 0 .3.2.6.4.7l3 1.9zm32.1 7.8L19 32.7 2.5 22.5 5 20.9l13.5 8.4c.1.1.3.1.5.1s.3 0 .5-.1L33 20.9l2.5 1.6zm0-5.2L19 27.5 2.5 17.3 5 15.7l13.5 8.4c.1.1.3.1.5.1s.3 0 .5-.1L33 15.7l2.5 1.6zM19 1.9l16.5 10.2L19 22.3 2.5 12.1 19 1.9z"/></svg>