<svg xmlns="http://www.w3.org/2000/svg" viewBox="0 0 41 28"><path d="M40.1 0H.9C.4 0 0 .4 0 .9v25.6c0 .5.4.9.9.9h39.3c.5 0 .9-.4.9-.9V.9c-.1-.5-.5-.9-1-.9zM5.5 25.6l1.1-3.4h27.8l1.1 3.4h-30zm33.8 0h-1.9l-1.5-4.5c-.1-.3-.4-.6-.8-.6H6c-.4 0-.7.2-.8.6l-1.5 4.5h-2V1.7h37.6v23.9z"/><path d="M25.4 15.6c2 2 5.2 2 7.2 0s2-5.2 0-7.2-5.2-2-7.2 0c-2 1.9-2 5.2 0 7.2zM30.8 9l-.5.5c-.3.3-.3.9 0 1.2.3.3.9.3 1.2 0l.5-.5c.3.5.5 1.1.5 1.7 0 .6-.2 1.2-.5 1.7l-.5-.5c-.3-.3-.9-.3-1.2.1-.3.3-.3.8 0 1.2l.5.5c-.5.3-1.1.5-1.7.5-.6 0-1.2-.2-1.7-.5l.5-.5c.3-.3.3-.9-.1-1.2-.3-.3-.8-.3-1.2 0l-.5.5c-.3-.5-.5-1.1-.5-1.7 0-.6.2-1.2.5-1.7l.5.5c.3.3.9.3 1.2 0 .3-.3.3-.9 0-1.2l-.5-.6c.5-.3 1.1-.5 1.7-.5.6 0 1.2.2 1.8.5zM8.3 8.3c-1 1-1.5 2.3-1.5 3.6 0 1.4.6 2.7 1.5 3.6 2 2 5.2 2 7.2 0s2-5.2 0-7.2c-1-1-2.3-1.5-3.6-1.5-1.3 0-2.6.6-3.6 1.5zm5.4.7l-.5.5c-.3.3-.3.9 0 1.2.3.3.9.3 1.2 0l.5-.5c.3.5.5 1.1.5 1.7 0 .6-.2 1.2-.5 1.7l-.5-.5c-.3-.3-.9-.3-1.2.1-.3.3-.3.8 0 1.2l.5.5c-.5.3-1.1.5-1.7.5-.6 0-1.2-.2-1.7-.5l.5-.5c.3-.3.3-.9-.1-1.2-.3-.3-.8-.3-1.2 0l-.5.5c-.3-.5-.5-1.1-.5-1.7 0-.6.2-1.2.5-1.7l.5.5c.3.3.9.3 1.2 0 .3-.3.3-.9 0-1.2l-.5-.6c.5-.3 1.1-.5 1.7-.5.7 0 1.3.2 1.8.5zM4.3 5.1H6c.5 0 .9-.4.9-.9s-.4-.8-.9-.8H4.3c-.5 0-.9.4-.9.9s.4.8.9.8zm30.7 0h1.7c.5 0 .9-.4.9-.9s-.4-.9-.9-.9H35c-.5 0-.9.4-.9.9s.4.9.9.9z"/></svg>