<svg xmlns="http://www.w3.org/2000/svg" viewBox="0 0 28.3 28.3"><path d="M27 2.3L12.5 16.8l-.9-.9L26 1.4c.3-.3.7-.3.9 0 .2.2.2.3.2.5s0 .2-.1.4zM26.9 7l-3.4 3.4L22 8.9l3.4-3.4L26.9 7zM7.1 27.2c-3.3 0-5.9-2.6-5.9-5.8 0-3.2 2.6-5.9 5.9-5.9s5.9 2.6 5.9 5.9c0 3.1-2.7 5.8-5.9 5.8zM28.3 1.8c0-.5-.2-1-.5-1.3-.7-.7-1.9-.7-2.6 0L10.6 15.2c-1-.6-2.2-.9-3.5-.9-3.9 0-7.1 3.2-7.1 7s3.2 7 7.1 7 7.1-3.2 7.1-7c0-1.3-.4-2.5-1-3.6l8-8 1.9 1.9c.1.1.3.2.4.2.1 0 .3-.1.4-.2l4.2-4.2c.1-.1.2-.3.2-.4s-.1-.3-.2-.4l-1.9-1.9 1.5-1.5c.4-.4.6-.9.6-1.4zM7.1 16.5c-2.6 0-4.7 2.1-4.7 4.7s2.1 4.7 4.7 4.7 4.7-2.1 4.7-4.7-2.1-4.7-4.7-4.7zm0 8.3c-2 0-3.5-1.6-3.5-3.5s1.6-3.5 3.5-3.5 3.5 1.6 3.5 3.5-1.6 3.5-3.5 3.5z"/></svg>