<svg xmlns="http://www.w3.org/2000/svg" viewBox="0 0 36 33"><path d="M35.6 15.2c0-1.8-1.5-3.2-3.2-3.2H19.9L23 5.7c.8-1.7.5-3.7-.8-5-1.1-1.1-3-.8-3.8.4L13.5 9c-.7 1.1-1.7 1.9-3 2.4l-3.8 1.3c-4 1.5-6.7 5.4-6.7 9.8 0 2.8 1.1 5.5 3.1 7.4 2 2 4.6 3.1 7.4 3.1h18.6c1.8 0 3.2-1.5 3.2-3.2 0-.6-.2-1.3-.6-1.8 1.7-.6 2.6-2.4 2-4.1-.1-.3-.2-.5-.4-.8 1.3-.4 2.2-1.7 2.2-3 0-1-.4-1.8-1.1-2.4.8-.7 1.2-1.6 1.2-2.5zm-10.5 3.2h7.3c.9 0 1.6.8 1.6 1.7 0 .9-.7 1.5-1.6 1.6h-7.3c-.4 0-.8.4-.8.8s.4.8.8.8h5.7c.9 0 1.6.8 1.6 1.7 0 .9-.7 1.5-1.6 1.6h-5.7c-.4 0-.8.4-.8.8s.4.8.8.8h4c.9 0 1.6.8 1.6 1.7 0 .9-.7 1.5-1.6 1.6H10.5c-2.4 0-4.6-.9-6.3-2.6-1.7-1.7-2.6-3.9-2.6-6.3 0-3.7 2.3-7 5.7-8.3l3.8-1.3c1.6-.5 2.9-1.6 3.8-3l4.9-8c.3-.4.9-.5 1.3-.1.8.8 1 2.1.5 3.1l-3.7 7.4c-.1.3-.1.5 0 .8.1.2.4.4.7.4h13.8c.9 0 1.6.8 1.6 1.7 0 .9-.7 1.6-1.6 1.6h-7.3c-.4 0-.8.4-.8.8s.4.7.8.7z"/></svg>