<svg xmlns="http://www.w3.org/2000/svg" viewBox="0 0 34 34"><path d="M17 9.9c-3.9 0-7.1 3.2-7.1 7.1s3.2 7.1 7.1 7.1 7.1-3.2 7.1-7.1-3.2-7.1-7.1-7.1zm0 12.8c-3.1 0-5.7-2.5-5.7-5.7s2.5-5.7 5.7-5.7 5.7 2.5 5.7 5.7-2.6 5.7-5.7 5.7zM33.3 22.7h-9.9c-.1 0-.2 0-.3.1-.2.1-.3.2-.4.4 0 .1-.1.2-.1.3v9.9c0 .4.3.7.7.7s.7-.3.7-.7v-8.2l8.6 8.6c.1.1.3.2.5.2s.4-.1.5-.2c.3-.3.3-.7 0-1L25 24.2h8.2c.4 0 .7-.3.7-.7s-.2-.8-.6-.8zM.7 11.3h9.9c.1 0 .2 0 .3-.1.2-.1.3-.2.4-.4 0-.1.1-.2.1-.3V.7c-.1-.4-.4-.7-.8-.7s-.7.3-.7.7v8.2L1.3.3C1 0 .6 0 .3.3s-.3.7 0 1l8.6 8.6H.7c-.4 0-.7.3-.7.7s.3.7.7.7zM33.3 9.9h-8.2l8.6-8.6c.3-.3.3-.7 0-1s-.7-.3-1 0l-8.6 8.6V.7c0-.4-.3-.7-.7-.7s-.7.3-.7.7v9.9c0 .1 0 .2.1.3.1.2.2.3.4.4.1 0 .2.1.3.1h9.9c.4 0 .7-.3.7-.7s-.4-.8-.8-.8zM.7 24.1h8.2L.3 32.7c-.3.3-.3.7 0 1 .1.1.3.2.5.2s.4-.1.5-.2l8.6-8.6v8.2c0 .4.3.7.7.7s.7-.3.7-.7v-9.9c0-.1 0-.2-.1-.3-.1-.2-.2-.3-.4-.4-.1 0-.2-.1-.3-.1H.7c-.4.1-.7.4-.7.8s.3.7.7.7z"/></svg>