<svg xmlns="http://www.w3.org/2000/svg" viewBox="0 0 48 30"><path d="M1 25c-.6 0-1-.5-1-1C0 10.8 10.8 0 24 0s24 10.8 24 24c0 .6-.5 1-1 1h-4.2c-.6 0-1-.5-1-1.1 0-.5.5-1 1-1h3.1C45.3 11.4 35.7 2.1 24 2.1S2.7 11.4 2.1 23h3.1c.6 0 1 .5 1 1.1 0 .5-.5 1-1 1C5.2 25 1 25 1 25zM25 5.2c0 .6-.5 1-1 1-2.4 0-4.7.5-6.9 1.4-2.1.9-4 2.2-5.6 3.8C9.9 13 8.6 14.9 7.7 17c-.2.4-.6.6-1 .6-.6 0-1-.5-1-1 0-.1 0-.3.1-.4 1-2.4 2.4-4.5 4.2-6.3 1.8-1.8 3.9-3.3 6.3-4.2 2.4-1 5.1-1.6 7.7-1.6.6.1 1 .5 1 1.1zm10.1 5.5c.4.4.5 1 .1 1.5L28 20.8c.7.9 1.1 2.1 1.2 3.2 0 2.9-2.3 5.2-5.2 5.2-2.9 0-5.2-2.3-5.2-5.2 0-2.9 2.3-5.2 5.2-5.2.9 0 1.7.2 2.5.6l7.2-8.6c.3-.4 1-.5 1.4-.1z"/></svg>