<svg xmlns="http://www.w3.org/2000/svg" viewBox="0 0 38 38"><path d="M.8 36.3h15.8C17 37.3 18 38 19 38s2-.7 2.3-1.7h15.8c.5 0 .8-.4.8-.8s-.4-.8-.8-.8H21.3c-.2-.7-.8-1.3-1.5-1.5v-1.8h10.7c1.4 0 2.5-1.1 2.5-2.5v-6.6c0-.6-.2-1.2-.6-1.7.4-.4.6-1 .6-1.7v-6.6c0-.6-.2-1.2-.6-1.7.4-.4.6-1 .6-1.7V2.5C33 1.1 31.9 0 30.6 0H7.4C6.1 0 5 1.1 5 2.5v6.6c0 .6.2 1.2.6 1.7-.4.5-.6 1-.6 1.7V19c0 .6.2 1.2.6 1.7-.4.5-.6 1-.6 1.7V29c0 1.4 1.1 2.5 2.5 2.5h10.7v1.8c-.7.2-1.2.8-1.5 1.5H.8c-.5 0-.8.4-.8.8s.4.7.8.7zM6.6 19v-6.6c0-.5.4-.8.8-.8h23.1c.5 0 .8.4.8.8V19c0 .5-.4.8-.8.8H7.4c-.4 0-.8-.3-.8-.8zm0-16.5c0-.5.4-.8.8-.8h23.1c.5 0 .8.4.8.8v6.6c0 .5-.4.8-.8.8H7.4c-.4 0-.8-.4-.8-.8V2.5zm0 26.4v-6.6c0-.5.4-.8.8-.8h23.1c.5 0 .8.4.8.8v6.6c0 .5-.4.8-.8.8H7.4c-.4 0-.8-.3-.8-.8zM19 34.7c.5 0 .8.4.8.8 0 .5-.4.8-.8.8-.5 0-.8-.4-.8-.8s.3-.8.8-.8z"/><path d="M9.1 8.3c.5 0 .8-.4.8-.8V4.1c0-.5-.4-.8-.8-.8s-.8.4-.8.8v3.3c0 .5.3.9.8.9zm0 4.9c-.5 0-.8.4-.8.8v3.3c0 .5.4.8.8.8s.8-.4.8-.8V14c0-.4-.4-.8-.8-.8zm0 9.9c-.5 0-.8.4-.8.8v3.3c0 .5.4.8.8.8s.8-.4.8-.8V24c0-.5-.4-.9-.8-.9zM28.9 6.6c.5 0 .8-.4.8-.8 0-.2-.1-.4-.2-.6-.3-.3-.8-.3-1.2 0-.1.2-.2.4-.2.6 0 .2.1.4.2.6.2.1.4.2.6.2zm-3.3 0c.2 0 .4-.1.6-.2.3-.3.3-.8 0-1.1-.3-.3-.8-.3-1.2 0-.1.2-.2.4-.2.6 0 .2.1.4.2.6.2 0 .4.1.6.1zm-3.3 0c.5 0 .8-.4.8-.8 0-.2-.1-.4-.2-.6-.3-.3-.8-.3-1.2 0-.1.2-.2.4-.2.6 0 .2.1.4.2.6.2.1.4.2.6.2zm6 8.5c-.1.2-.2.4-.2.6 0 .2.1.4.2.6.2.1.4.2.6.2.5 0 .8-.4.8-.8 0-.2-.1-.4-.2-.6-.3-.3-.9-.3-1.2 0zm-3.3 0c-.1.2-.2.4-.2.6 0 .2.1.4.2.6.1.2.4.2.6.2.5 0 .8-.4.8-.8 0-.2-.1-.4-.2-.6-.3-.3-.9-.3-1.2 0zm-3.3 0c-.2.2-.2.4-.2.6 0 .2.1.4.2.6.1.2.4.2.6.2.5 0 .8-.4.8-.8 0-.2-.1-.4-.2-.6-.3-.3-.9-.3-1.2 0zm7.2 11.3c.2 0 .4-.1.6-.2.2-.1.3-.4.2-.6 0-.2-.1-.4-.2-.6-.3-.3-.8-.3-1.2 0-.1.2-.2.4-.2.6 0 .2.1.4.2.6.2.2.4.2.6.2zm-3.3 0c.5 0 .8-.4.8-.8 0-.2-.1-.4-.2-.6-.3-.3-.8-.3-1.2 0-.1.2-.2.4-.2.6 0 .2.1.4.2.6.2.2.4.2.6.2zm-3.3 0c.2 0 .4-.1.6-.2.2-.1.2-.4.2-.6 0-.2-.1-.4-.2-.6-.3-.3-.8-.3-1.2 0-.2.2-.2.4-.2.6 0 .2.1.4.2.6.2.2.4.2.6.2z"/></svg>