<svg xmlns="http://www.w3.org/2000/svg" viewBox="0 0 32 30"><path d="M17.1 0c2.3 0 4.5.5 6.4 1.4.2.1.3.2.5.3 0 0 .1 0 .1.1.2.1.4.2.5.2s.1.1.2.1c.1.1.3.2.4.3.1 0 .1.1.2.1.1.1.3.2.4.3.1 0 .1.1.2.1.1.1.3.2.4.3l.1.1c.1.1.3.2.4.3l.1.1c3.1 2.7 5 6.7 5 11.1v.2c0 3.8-1.4 7.3-3.8 9.9l-.1.1-.3.3-.1.1C25 28.3 21.3 30 17.1 30h-.3c-3.8 0-7.6-1.4-10.5-4.3C6 23.6 8 22.9 9 23.8c2.2 2 5 3 7.8 2.9H18c.2 0 .3 0 .5-.1h.1c5.2-.8 9.6-5 10.1-10.3 0-.4.1-.8.1-1.2v-.2c0-3.5-1.6-6.7-4.1-8.8-.1-.1-.2-.1-.3-.2l-.2-.2c-.1-.1-.2-.1-.2-.2-.1-.1-.2-.1-.2-.2-.1 0-.1-.1-.2-.1-.1-.1-.2-.1-.3-.2-.1 0-.1-.1-.2-.1-.1-.1-.2-.1-.3-.2-.1 0-.1-.1-.2-.1s-.2-.1-.3-.1c-.1 0-.2-.1-.2-.1-.1 0-.1-.1-.2-.1-.9-.4-1.9-.7-2.8-.9-.2 0-.3-.1-.5-.1h-3c-.2 0-.3 0-.5.1H15c-5.2.8-9.6 5-10.1 10.3.7-.5 1-.8 1-.8.7-.3 1.1-.2 1.4.1s.2.8-.1 1.1c-2.1 1.7-3.2 2.6-3.3 2.7-.2.1-.4.2-.5.2-.2 0-.4-.1-.5-.3C1.2 14.5.3 13.3.3 13.3c-.4-.5 0-1.4 1-1.2.3.4.6.7.8 1.1.3-3.2 1.6-6 3.5-8.2C7.8 2.5 11 .9 14.1.3h.3c.9-.2 1.8-.3 2.7-.3z"/><path d="M18.6 15.1V8.6c0-1-.8-1.8-1.8-1.8S15 7.6 15 8.6V17c0 1 .8 1.8 1.8 1.8h4.9c1 0 1.8-.8 1.8-1.8s-.8-1.8-1.8-1.8l-3.1-.1z"/></svg>