<svg xmlns="http://www.w3.org/2000/svg" viewBox="0 0 30 30"><path d="M29.9 5.3l-2.5-5c-.1-.2-.3-.3-.5-.3H3.1c-.2 0-.4.1-.5.3l-2.5 5c-.1.1-.1.2-.1.3v6.3c0 .3.3.6.6.6.9 0 1.4-.4 1.9-.9v17.8c0 .3.3.6.6.6h23.8c.3 0 .6-.3.6-.6V11.6c.4.5 1 .9 1.9.9.3 0 .6-.3.6-.6V5.6c0-.1 0-.2-.1-.3 0 .1 0 .1 0 0zM3.5 1.2h23L28.4 5H1.6l1.9-3.8zm14 27.6V17.5h6.2v11.2h-6.2zm7.5 0V16.9c0-.3-.3-.6-.6-.6h-7.5c-.3 0-.6.3-.6.6v11.9H3.8V10.1c.1-.1.3-.1.4-.1.6 0 .8.4 1.3 1 .5.7 1.1 1.5 2.3 1.5s1.8-.8 2.3-1.5c.5-.6.7-1 1.3-1 .6 0 .8.4 1.3 1 .5.7 1.1 1.5 2.3 1.5 1.2 0 1.8-.8 2.3-1.5.5-.6.7-1 1.3-1 .5 0 .8.4 1.3 1 .5.7 1.1 1.5 2.3 1.5 1.2 0 1.8-.8 2.3-1.5.5-.6.7-1 1.3-1 .2 0 .3 0 .5.1v18.6H25zm3.1-18.5c-.2-.3-.5-.6-.8-.9-.4-.4-1-.6-1.5-.6-1.2 0-1.8.8-2.3 1.5-.5.6-.7 1-1.3 1-.5 0-.8-.4-1.3-1-.5-.7-1.1-1.5-2.3-1.5-1.2 0-1.8.8-2.3 1.5-.5.6-.7 1-1.3 1-.6 0-.8-.4-1.3-1-.5-.7-1.1-1.5-2.3-1.5-1.2 0-1.8.8-2.3 1.5-.5.6-.7 1-1.3 1-.6 0-.8-.4-1.3-1-.5-.7-1.1-1.5-2.3-1.5-.6 0-1.1.2-1.5.5h-.1c-.2.3-.5.7-.7 1-.2.3-.4.6-.7.8V6.2h27.5V11c-.2-.1-.4-.4-.6-.7z"/><path d="M14.4 16.2H5.6c-.3 0-.6.3-.6.6V23c0 .3.3.6.6.6h8.8c.3 0 .6-.3.6-.6v-6.2c0-.3-.3-.6-.6-.6zm-.6 6.3H6.2v-5h7.5v5zm8.1-1.3c-.3 0-.6.3-.6.6v2.5c0 .3.3.6.6.6s.6-.3.6-.6v-2.5c0-.3-.3-.6-.6-.6z"/></svg>