<svg xmlns="http://www.w3.org/2000/svg" viewBox="0 0 41 35"><path d="M40.1 32.5h-9.4v-6.8h6c.5 0 .9-.4.9-.9V.9c0-.5-.4-.9-.9-.9H23.1c-.5 0-.9.4-.9.9v23.9c0 .5.4.9.9.9h6v6.8H12v-6.8h6c.5 0 .9-.4.9-.9V.9c0-.5-.4-.9-.9-.9H4.3c-.5 0-.9.4-.9.9v23.9c0 .5.4.9.9.9h6v6.8H.9c-.5 0-.9.4-.9.9s.4.9.9.9h39.3c.5 0 .9-.4.9-.9s-.5-.9-1-.9zM23.9 1.7h12v22.2h-12V1.7zm-18.8 0h12v22.2h-12V1.7z"/><path d="M13.7 19.6c0-1.4-1.1-2.6-2.6-2.6-1.4 0-2.6 1.1-2.6 2.6 0 1.4 1.1 2.6 2.6 2.6 1.4 0 2.6-1.1 2.6-2.6zm-3.5 0c0-.5.4-.9.9-.9s.9.4.9.9-.4.9-.9.9-.9-.4-.9-.9zm22.3 0c0-1.4-1.1-2.6-2.6-2.6-1.4 0-2.6 1.1-2.6 2.6 0 1.4 1.1 2.6 2.6 2.6 1.4 0 2.6-1.1 2.6-2.6zm-3.5 0c0-.5.4-.9.9-.9s.9.4.9.9-.4.9-.9.9-.9-.4-.9-.9zM7.7 6.8h6.8c.5 0 .9-.4.9-.9s-.4-.8-.9-.8H7.7c-.5 0-.9.4-.9.9s.4.8.9.8zm7.7 2.6c0-.5-.4-.9-.9-.9H7.7c-.5 0-.9.4-.9.9s.4.9.9.9h6.8c.5-.1.9-.4.9-.9zm11.1-2.6h6.8c.5 0 .9-.4.9-.9s-.4-.9-.9-.9h-6.8c-.5 0-.9.4-.9.9s.4.9.9.9zm7.7 2.6c0-.5-.4-.9-.9-.9h-6.8c-.5 0-.9.4-.9.9s.4.9.9.9h6.8c.5-.1.9-.4.9-.9z"/></svg>