<svg xmlns="http://www.w3.org/2000/svg" viewBox="0 0 32 39"><path d="M.9 34.4l4.5-.7 1.7 4.2c.2.4.6.6 1 .5.2-.1.3-.2.4-.3l7.2-12.4h.6L23.5 38c.1.2.4.4.7.4h.1c.3 0 .6-.2.7-.5l1.7-4.2 4.5.7c.3 0 .6-.1.8-.3.2-.3.2-.6 0-.9l-6.7-11.5c2.3-2.4 3.6-5.6 3.6-8.9C28.8 5.7 23.1 0 16 0S3.2 5.7 3.2 12.8c0 3.5 1.4 6.6 3.6 8.9L.1 33.2c-.2.4-.1.9.3 1.1.2.1.3.1.5.1zM26.2 32c-.4-.1-.7.2-.9.5L24 35.7l-6-10.3c2.2-.3 4.2-1.3 6-2.6l5.7 9.8c0-.1-3.5-.6-3.5-.6zM16 1.6c6.2 0 11.2 5 11.2 11.2S22.2 24 16 24 4.8 19 4.8 12.8 9.8 1.6 16 1.6zM8 22.8c1.7 1.4 3.8 2.3 6 2.6L8 35.7l-1.3-3.3c-.2-.2-.5-.4-.9-.4l-3.5.5L8 22.8z"/><path d="M16 20.8c4.4 0 8-3.6 8-8s-3.6-8-8-8-8 3.6-8 8 3.6 8 8 8zm0-14.4c3.5 0 6.4 2.9 6.4 6.4s-2.9 6.4-6.4 6.4-6.4-2.9-6.4-6.4 2.9-6.4 6.4-6.4z"/></svg>