<svg xmlns="http://www.w3.org/2000/svg" xmlns:xlink="http://www.w3.org/1999/xlink" viewBox="0 0 46 46"><defs><path id="bandwidth" d="M1.2 28.7h5.7c.4 0 .7-.2.8-.5l2.9-5.8 6.8 15.2c.2.3.5.6.9.6h.1c.4 0 .7-.3.8-.7L26 11.8l8.4 21.9c.1.3.4.6.8.6s.7-.1.9-.4l3.5-5.3h5.2c.5 0 .9-.4.9-.9s-.4-.9-.9-.9h-5.7c-.3 0-.6.2-.8.4l-2.8 4.2-8.7-23c-.1-.4-.5-.6-.9-.6s-.8.3-.9.7l-6.9 25.8-6.5-14.6c-.1-.3-.5-.6-.8-.6-.4 0-.7.2-.9.5l-3.5 7.1H1.2c-.5 0-.9.4-.9.9 0 .7.4 1.1.9 1.1z"/></defs><use xlink:href="#bandwidth" overflow="visible"/></svg>