<svg xmlns="http://www.w3.org/2000/svg" viewBox="0 0 34 33"><path d="M23.6 8l-6.4 6.4c-.6-.3-1.2-.3-1.8 0l-3.8-3.8c-.3-.3-.7-.3-1 0-.3.3-.3.7 0 1l3.8 3.8c-.4.8-.2 1.8.4 2.4.4.4.9.6 1.5.6s1.1-.2 1.5-.6c.6-.6.8-1.6.4-2.4L24.6 9c.3-.3.2-.7-.1-1-.2-.2-.6-.2-.9 0zm-6.8 8.8c-.3.3-.7.3-1 0-.1-.1-.2-.3-.2-.5 0-.4.3-.7.7-.7.2 0 .4.1.5.2.1.1.2.3.2.5s-.1.4-.2.5z"/><path d="M33.3 25.5h-3.6c.6-.9 1.2-1.9 1.6-2.9.8-2 1.3-4.2 1.3-6.3 0-2.2-.4-4.3-1.3-6.3-.8-1.9-2-3.7-3.5-5.2s-3.2-2.7-5.2-3.5C20.6.5 18.5 0 16.3 0S12 .4 10 1.3c-2 .8-3.7 2-5.2 3.5S2.1 8 1.3 10C.4 12 0 14.1 0 16.3s.4 4.3 1.3 6.3c.8 1.9 2 3.7 3.5 5.2S8 30.5 10 31.3c2 .8 4.2 1.3 6.3 1.3 2.2 0 4.3-.4 6.3-1.3.4-.2.5-.6.4-.9-.2-.4-.6-.5-.9-.4-1.6.7-3.3 1-5.1 1.1v-3.5c0-.4-.3-.7-.7-.7-.4 0-.7.3-.7.7v3.5c-1.7-.1-3.5-.5-5.1-1.1-1.5-.7-3-1.6-4.2-2.7l1.5-1.5c.3-.3.2-.7-.1-1-.3-.2-.7-.2-.9 0l-1.5 1.5c-1.1-1.3-2.1-2.7-2.7-4.2-.7-1.6-1.1-3.3-1.1-5.1H5c.4 0 .7-.3.7-.7s-.4-.7-.7-.7H1.5c.1-1.8.4-3.5 1.1-5.1.6-1.5 1.6-2.9 2.7-4.2l1.5 1.5c.3.3.7.3 1 0 .3-.3.3-.7 0-1L6.3 5.3C7.6 4.2 9 3.2 10.5 2.6c1.6-.7 3.3-1 5.1-1.1V5c0 .4.3.7.7.7.4-.1.7-.4.7-.7V1.5c1.7.1 3.5.4 5.1 1.1 1.5.7 3 1.6 4.2 2.7l-1.5 1.5c-.3.3-.3.7 0 1 .3.3.7.3 1 0l1.5-1.5c1.1 1.3 2.1 2.7 2.7 4.2.7 1.6 1.1 3.3 1.1 5.1H29c-.4 0-.7.3-.7.7 0 .4.3.7.7.7h2.1c-.1 1.7-.5 3.5-1.1 5.1-.4 1-1 2-1.7 2.9v-4.4c0-.4-.4-.7-.8-.7s-.6.3-.7.7v5.7c0 .4.3.7.7.7h5.7c.4 0 .7-.3.7-.7.1-.5-.2-.8-.6-.8z"/></svg>