<svg xmlns="http://www.w3.org/2000/svg" viewBox="0 0 94.3 94.2"><path d="M44.7 0h4.9c.3.1.6.2.9.2C56.6.5 62.6 2.2 68 5c14.4 7.4 23 19.2 25.7 35.2.2 1.4.4 2.9.6 4.4v4.9c-.1.3-.2.6-.2.9-.4 6.2-2 12.2-4.9 17.7C81.6 82.4 69.9 91 53.9 93.6l-4.4.6h-4.9c-.3-.1-.6-.2-.9-.2-6.1-.3-12.1-2-17.5-4.8C11.8 81.7 3.2 69.9.6 53.9.4 52.5.2 51 0 49.5v-4.9c.1-.3.2-.6.2-.9.4-6.3 2.1-12.4 5-17.9C12.7 11.7 24.4 3.2 40.2.5c1.5-.2 3-.4 4.5-.5zm31.1 15.7C63.7 5.6 50.3 2.2 35.3 6.4c-10 2.8-17.7 8.7-23.7 17.4 2.3 0 4.3.1 6.4 0 2.5-.1 5-.3 7.5-.4.8-.2 1.7.3 1.9 1.1v.3c.1 1.1-.4 1.7-1.6 1.9-.4.1-.9.1-1.3.1l-3.5.3C26.2 42.4 31.3 57.6 36.4 73c.1-.2.2-.3.2-.5 3-8.9 6-17.8 8.9-26.7.1-.4.1-.8-.1-1.2-2-5.6-4-11.1-6.1-16.7-.2-.6-.5-.8-1.2-.9-1.3-.1-2.5-.2-3.7-.4-.8 0-1.5-.7-1.4-1.5v-.3c0-.9.8-1.6 1.7-1.6.4 0 .9.1 1.3.1 4.6.1 9.2.3 13.8.3 2.4 0 4.8-.3 7.2-.4.9-.2 1.8.4 2 1.2v.3c.1.9-.5 1.7-1.3 1.8h-.3c-.4.1-.9.1-1.3.1l-3.5.3c5.1 15.2 10.2 30.3 15.3 45.5.2-.3.2-.3.2-.4 2.1-7.1 4.3-14.2 6.4-21.2 1.2-3.7 1.2-7.7.2-11.5-1-3-2.4-5.8-4.1-8.4-1.1-1.8-1.9-3.7-2.6-5.7-1.2-3.9 1-8 4.9-9.2 1-.1 1.9-.2 2.9-.3zM61.1 87C56.7 75 52.3 63 48 51h-.3L35.1 87.6c5.5 2.7 20.3 2.3 26-.6zm-32.4-1.8C21.9 66.6 15.2 48.3 8.5 29.8c-9.3 20.1-.8 45.3 20.2 55.4zm39.8-1.8c.1.1.2.1.2.2 10.4-6.4 17.2-15.5 19.8-27.5 2.3-9.8.8-20.2-4.1-29-.1.1-.1.3-.1.4.3 3 .2 6-.3 8.9-.6 3.5-1.6 6.9-2.9 10.2-3.4 9.6-6.7 19.2-10 28.8-.8 2.7-1.7 5.4-2.6 8z"/></svg>