<svg xmlns="http://www.w3.org/2000/svg" viewBox="0 0 46 46"><path d="M5.6 38c2.6 3 5.9 5.3 9.6 6.6.1 0 .1 0 .2.1 2.4.8 4.9 1.3 7.6 1.3 2.7 0 5.3-.5 7.7-1.4 4.1-1.5 7.6-4 10.2-7.3l.1-.1c3.1-3.9 5-8.8 5-14.2 0-5.4-1.9-10.3-4.9-14.2-2.4-3.1-5.6-5.5-9.2-7-.1 0-.1-.1-.2-.1C29 .6 26.1 0 23 0c-3.1 0-6 .6-8.7 1.7h-.1C11 3 8.2 5.1 5.9 7.6c-.1.2-.2.3-.3.4C2.1 12 0 17.3 0 23s2.1 11 5.6 15zM6.7 9.8c.9.5 1.9 1 2.9 1.4C8.6 14.6 8 18.3 8 22H2c.3-4.6 2-8.9 4.7-12.2zM22 2v9.9c-3.4-.2-6.7-.8-9.9-2 .8-2.2 1.9-4.4 3.1-6.4 2.1-.8 4.4-1.3 6.8-1.5zm8.8 1.5c1.4 2.2 2.5 4.5 3.3 7-3.3 1-6.7 1.5-10.1 1.4V2c2.4.2 4.7.7 6.8 1.5zM44 22h-6c0-3.4-.5-6.9-1.4-10.2 1.1-.4 2.1-.8 3.2-1.3 2.4 3.2 3.9 7.2 4.2 11.5zm-4.2 13.5c-1.2-.6-2.4-1.1-3.7-1.5 1-3.1 1.6-6.6 1.8-10h6c-.2 4.3-1.7 8.3-4.1 11.5zm-10.2 7.4c-1.8.6-3.6.9-5.6 1V34c3.2 0 6.4.4 9.6 1.3-.8 2.1-1.9 3.9-3.2 6.2l-.8 1.4zm-13.2 0c-.5-.9-1-1.7-1.4-2.5-.9-1.6-1.7-3-2.4-4.5 3-1 6.2-1.6 9.4-1.8V44c-1.9-.1-3.8-.5-5.6-1.1zm5.6-29V22H10c0-3.5.5-6.9 1.5-10.2 3.4 1.2 6.9 1.9 10.5 2.1zm12.7-1.5c.9 3.1 1.3 6.3 1.3 9.6H24v-8h.1c3.6 0 7.1-.5 10.6-1.6zM24 32v-8h11.9c-.2 3.3-.8 6.6-1.7 9.4-3.3-.9-6.7-1.4-10.2-1.4zm-2-8v8.1c-3.4.2-6.8.8-10.1 1.9-1-3-1.7-6.6-1.9-10h12zM8.1 24c.2 3.7.9 7.5 2 10.7-1.1.5-2.3 1-3.3 1.5C4 32.9 2.3 28.6 2 24h6.1zm0 13.8c.9-.4 1.7-.8 2.6-1.2.7 1.7 1.6 3.2 2.5 4.9 0 .1.1.1.1.2-1.9-1.1-3.7-2.4-5.2-3.9zm24.5 3.8c1.1-1.9 2.1-3.7 2.9-5.7 1 .3 2 .7 3 1.2-1.7 1.8-3.6 3.4-5.9 4.5zm5.9-32.7c-.9.4-1.7.7-2.5 1-.6-1.6-1.2-3.2-2-4.8 1.7 1.1 3.2 2.3 4.5 3.8zM12 5.1c-.7 1.3-1.3 2.7-1.8 4.1-.7-.3-1.4-.6-2.1-1C9.3 7 10.6 6 12 5.1z"/></svg>