<svg xmlns="http://www.w3.org/2000/svg" viewBox="0 0 53 51"><path d="M21.9 7.2h9.2c.6 0 1.2-.5 1.2-1.2s-.5-1.2-1.2-1.2h-9.2c-.6 0-1.2.5-1.2 1.2s.6 1.2 1.2 1.2zm10.4 3.5c0-.6-.5-1.2-1.2-1.2h-9.2c-.6 0-1.2.5-1.2 1.2 0 .6.5 1.2 1.2 1.2h9.2c.6 0 1.2-.6 1.2-1.2zm4.6 30c0 .6.5 1.2 1.2 1.2h9.2c.6 0 1.2-.5 1.2-1.2s-.5-1.2-1.2-1.2H38c-.6 0-1.1.5-1.1 1.2zm10.3 3.4H38c-.6 0-1.2.5-1.2 1.2s.5 1.2 1.2 1.2h9.2c.6 0 1.2-.5 1.2-1.2s-.5-1.2-1.2-1.2zm-32.2 0H5.8c-.6 0-1.2.5-1.2 1.2s.5 1.2 1.2 1.2H15c.6 0 1.2-.5 1.2-1.2s-.6-1.2-1.2-1.2zm0-4.6H5.8c-.6 0-1.2.5-1.2 1.2s.5 1.2 1.2 1.2H15c.6 0 1.2-.5 1.2-1.2s-.6-1.2-1.2-1.2z"/><path d="M2.3 37.2h16.1v11.5H2.3V37.2zM18.4 2.6h16.1v11.5H18.4V2.6zm32.3 46.1H34.6V37.2h16.1v11.5zM1.2 51h18.4c.6 0 1.2-.5 1.2-1.2V36.1c0-.6-.5-1.2-1.2-1.2h-8.1V28h30v6.9h-8.1c-.6 0-1.2.5-1.2 1.2v13.8c0 .6.5 1.2 1.2 1.2h18.4c.6 0 1.2-.5 1.2-1.2V36.1c0-.6-.5-1.2-1.2-1.2h-8.1v-8.1c0-.6-.5-1.2-1.2-1.2h-15v-9.2h8.1c.6 0 1.2-.5 1.2-1.2V1.5c0-.6-.5-1.2-1.2-1.2H17.3c-.6 0-1.2.5-1.2 1.2v13.8c0 .6.5 1.2 1.2 1.2h8.1v9.2h-15c-.6 0-1.2.5-1.2 1.2V35h-8c-.6 0-1.2.5-1.2 1.2V50c0 .5.5 1 1.2 1z"/></svg>