<svg xmlns="http://www.w3.org/2000/svg" viewBox="0 0 28 36"><path d="M28 29.6V6.2C28 2.7 22 0 14 0S0 2.7 0 6.2v23.3c0 3.5 6 6.2 14 6.2s14-2.6 14-6.1zM26.4 14c0 2.2-5.1 4.7-12.4 4.7S1.6 16.2 1.6 14V9.2c2.3 2 6.9 3.3 12.4 3.3s10.2-1.3 12.4-3.3V14zM1.6 16.9c2.3 2 6.9 3.3 12.4 3.3s10.2-1.3 12.4-3.3v4.8c0 2.2-5.1 4.7-12.4 4.7S1.6 24 1.6 21.8v-4.9zM14 1.6c7.3 0 12.4 2.5 12.4 4.7S21.3 11 14 11 1.6 8.4 1.6 6.2 6.7 1.6 14 1.6zm-12.4 28v-4.8C3.8 26.7 8.4 28 14 28s10.2-1.3 12.4-3.3v4.8c0 2.2-5.1 4.7-12.4 4.7S1.6 31.8 1.6 29.6z"/></svg>