<svg xmlns="http://www.w3.org/2000/svg" viewBox="0 0 35 42"><path d="M2.6 42h29.8c1.4 0 2.6-1.2 2.6-2.6V21.9c0-1.4-1.2-2.6-2.6-2.6h-2.6v-7C29.8 5.5 24.3 0 17.5 0S5.2 5.5 5.2 12.2v7H2.6c-1.4 0-2.6 1.2-2.6 2.6v17.5C0 40.8 1.2 42 2.6 42zM7 12.2C7 6.5 11.7 1.8 17.5 1.8S28 6.5 28 12.2v7h-3.5v-6.9c0-3.9-3.1-7.1-7-7.1s-7 3.2-7 7.1v6.9H7v-7zm15.8 7H12.2v-6.9c0-2.9 2.4-5.3 5.2-5.3s5.2 2.4 5.2 5.3v6.9zm-21 2.7c0-.5.4-.9.9-.9h29.8c.5 0 .9.4.9.9v17.5c0 .5-.4.9-.9.9H2.6c-.5 0-.9-.4-.9-.9V21.9zm13.3 8.6l-1 5.2c-.1.5.2.9.7 1h5.5c.5 0 .9-.4.9-.9 0-.1 0-.3-.1-.4l-1-5c1.4-1.3 1.4-3.6.1-4.9-.7-.7-1.6-1.1-2.5-1.1-1.9 0-3.5 1.6-3.5 3.5-.2 1.1.2 2 .9 2.6z"/></svg>