<svg xmlns="http://www.w3.org/2000/svg" viewBox="0 0 30 34"><path d="M.7 34H29c.4 0 .7-.3.7-.7V29c0-.4-.3-.7-.7-.7h-2.1v-2.1c0-.4-.3-.7-.7-.7h-2.1v-2.1c0-.4-.3-.7-.7-.7H17V12.4c2.5-.9 4.2-3.2 4.2-6 0-3.5-2.9-6.4-6.4-6.4-3.5 0-6.4 2.9-6.4 6.4 0 2.8 1.8 5.1 4.2 6v10.3H6.4c-.4 0-.7.3-.7.7v2.1H3.5c-.4 0-.7.3-.7.7v2.1H.7c-.4 0-.7.4-.7.7v4.2c0 .5.3.8.7.8zM9.9 6.4c0-2.7 2.2-5 5-5 2.7 0 5 2.2 5 5 0 2.7-2.2 5-5 5-2.8-.1-5-2.3-5-5zm4.3 6.3c.2 0 .5.1.7.1.2 0 .5 0 .7-.1v10h-1.4v-10zM7.1 24.1h15.6v1.4H7.1v-1.4zm-2.9 2.8h21.2v1.4H4.2v-1.4zm-2.8 2.9h26.9v2.8H1.4v-2.8z"/><path d="M15.6 3.5c0-.4-.3-.7-.7-.7-2 0-3.5 1.6-3.5 3.5 0 .4.3.7.7.7.4 0 .7-.3.7-.7 0-1.2 1-2.1 2.1-2.1.4 0 .7-.3.7-.7z"/></svg>