<svg xmlns="http://www.w3.org/2000/svg" viewBox="0 0 34 34"><path d="M22.4 26.3l6.9 6.9c.5.5 1.2.8 1.9.8s1.4-.3 1.9-.8c1.1-1.1 1.1-2.8 0-3.9l-6.9-6.9c-.8-.8-2.2-1-3.2-.5l-2.7-2.7c4-4.5 3.8-11.5-.6-15.8C17.6 1.2 14.6 0 11.5 0c-3.1 0-6 1.2-8.2 3.4C1.2 5.6 0 8.5 0 11.6c0 3.1 1.2 6 3.4 8.2 2.2 2.2 5.1 3.4 8.2 3.4 2.8 0 5.5-1 7.6-2.9l2.7 2.7c-.5 1.1-.3 2.4.5 3.3zm2.8-2.8l6.9 6.9c.5.5.5 1.2 0 1.7-.4.4-1.2.4-1.7 0l-6.9-6.9c-.5-.5-.5-1.2 0-1.7.2-.2.5-.3.8-.3.4 0 .7.1.9.3zM4.5 18.7c-1.9-1.9-3-4.4-3-7.1 0-2.7 1-5.2 2.9-7.1 1.9-1.9 4.4-2.9 7.1-2.9 2.7 0 5.2 1.1 7.1 3 3.9 3.9 3.9 10.3.1 14.2-1.9 1.9-4.4 2.9-7 2.9-2.7-.1-5.3-1.1-7.2-3z"/><path d="M8.3 3.7c-1 .4-1.9 1-2.7 1.8-1.6 1.6-2.5 3.7-2.5 6 0 .4.3.8.8.8.4 0 .8-.3.8-.8 0-1.9.7-3.6 2-4.9C7.3 6 8 5.5 8.9 5.2c.4-.2.6-.6.4-1-.2-.4-.6-.6-1-.5z"/></svg>