<svg xmlns="http://www.w3.org/2000/svg" viewBox="0 0 36 28"><path d="M.8 27.8h34.4c.5 0 .8-.4.8-.8v-6.5c0-.5-.4-.8-.8-.8h-4.1V14c0-.5-.4-.8-.8-.8h-5.7V7.4c0-.5-.4-.8-.8-.8h-4.1V.8c0-.5-.4-.8-.8-.8H.9C.4 0 0 .4 0 .8V27c0 .5.4.8.8.8zM7.4 8.2h4.1v4.9H1.6V8.2h5.8zM18 19.6H8.2v-4.9H18v4.9zm-16.4 0v-4.9h4.9v4.9H1.6zm0 1.7h9.8v4.9H1.6v-4.9zm11.5 0h9.8v4.9h-9.8v-4.9zm21.3 4.9h-9.8v-4.9h9.8v4.9zm-4.9-6.6h-9.8v-4.9h9.8v4.9zm-6.6-6.5h-9.8V8.2h9.8v4.9zM18 6.5H8.2V1.6H18v4.9zM1.6 1.6h4.9v4.9H1.6V1.6z"/></svg>