<svg xmlns="http://www.w3.org/2000/svg" viewBox="0 0 24 32"><path d="M22 0H2C.9 0 0 .9 0 2v28c0 1.1.9 2 2 2h20c1.1 0 2-.9 2-2V2c0-1.1-.9-2-2-2zm.7 30c0 .4-.3.7-.7.7H2c-.4 0-.7-.3-.7-.7V2c0-.4.3-.7.7-.7h20c.4 0 .7.3.7.7v28z"/><path d="M4.9 13.3H6c.4 0 .7.3.7.7 0 .4.3.7.7.6.3 0 .6-.3.6-.6 0-1.1-.9-2-2-2H4.9c-1.2 0-2.2 1-2.2 2.2 0 1 .6 1.8 1.5 2.1l1.9.6c.5.2.7.7.6 1.1-.1.4-.5.6-.8.6H4.7c-.4.1-.7-.2-.7-.6 0-.4-.3-.7-.7-.6-.3 0-.6.3-.6.6 0 1.1.9 2 2 2h1.1C7 20 8 19 8 17.8c0-1-.6-1.8-1.5-2.1l-1.9-.6c-.5-.2-.7-.7-.6-1.1.2-.4.5-.7.9-.7zm6.6 0h1.1c.4 0 .7.3.7.7 0 .4.3.7.7.7.4 0 .7-.3.7-.7 0-1.1-.9-2-2-2h-1.1c-1.2 0-2.2 1-2.2 2.2 0 1 .6 1.8 1.5 2.1l1.9.6c.5.2.7.7.6 1.1-.1.4-.5.6-.8.6h-1.1c-.4 0-.7-.3-.7-.7 0-.4-.3-.7-.7-.7-.4 0-.7.3-.7.7 0 1.1.9 2 2 2h1.1c1.2 0 2.2-1 2.2-2.2 0-1-.6-1.8-1.5-2.1l-1.9-.6c-.5-.2-.7-.7-.6-1.1.1-.3.5-.6.8-.6zm5.8-1.3h-.7c-.4 0-.7.3-.7.7v6.7c0 .4.3.7.7.7h.7c2.2 0 4-1.8 4-4s-1.8-4.1-4-4.1zm0 6.7v-5.3c1.5 0 2.7 1.2 2.7 2.7 0 1.4-1.2 2.6-2.7 2.6zM4.7 6.7c1.1 0 2-.9 2-2s-.9-2-2-2-2 .9-2 2 .9 2 2 2zm0-2.7c.3 0 .6.3.6.7 0 .3-.3.6-.6.6-.4 0-.7-.3-.7-.7.1-.3.3-.6.7-.6zm14.6-1.3c-1.1 0-2 .9-2 2s.9 2 2 2 2-.9 2-2-.9-2-2-2zm0 2.6c-.4 0-.6-.3-.6-.7 0-.3.3-.6.6-.6.4 0 .7.3.7.7-.1.3-.3.6-.7.6zm-14.6 20c-1.1 0-2 .9-2 2s.9 2 2 2 2-.9 2-2-.9-2-2-2zm0 2.7c-.4 0-.7-.3-.7-.7 0-.3.3-.6.6-.6.4 0 .6.3.6.7.1.3-.2.6-.5.6zm14.6-2.7c-1.1 0-2 .9-2 2s.9 2 2 2 2-.9 2-2-.9-2-2-2zm0 2.7c-.4 0-.6-.3-.6-.7 0-.3.3-.6.6-.6.4 0 .6.3.6.7 0 .3-.2.6-.6.6z"/></svg>