<svg xmlns="http://www.w3.org/2000/svg" viewBox="0 0 53 51"><path d="M43 35c-.4.4-.4 1.1 0 1.6.2.2.5.3.8.3.3 0 .6-.1.8-.3 4.8-4.8 7.5-11.2 7.5-18S49.4 5.4 44.6.6c-.4-.4-1.1-.4-1.6 0-.4.4-.4 1.1 0 1.6 4.4 4.4 6.8 10.2 6.8 16.5S47.4 30.6 43 35zM8.5.5C3.7 5.3 1 11.7 1 18.5s2.7 13.2 7.5 18c.2.2.5.3.8.3s.6-.1.8-.3c.4-.4.4-1.1 0-1.6-4.4-4.4-6.8-10.2-6.8-16.5S5.6 6.5 10 2.1c.4-.4.4-1.1 0-1.6C9.6.1 8.9.1 8.5.5z"/><path d="M38.3 5.2c-.4.4-.4 1.1 0 1.6 3.1 3.1 4.9 7.3 4.9 11.8s-1.7 8.6-4.9 11.8c-.4.4-.4 1.1 0 1.6.2.2.5.3.8.3.3 0 .6-.1.8-.3 3.6-3.6 5.5-8.3 5.5-13.3s-2-9.8-5.5-13.3c-.5-.6-1.2-.6-1.6-.2zm-25.1 0c-3.6 3.6-5.5 8.3-5.5 13.3s2 9.8 5.5 13.3c.2.2.5.3.8.3s.6-.1.8-.3c.4-.4.4-1.1 0-1.6-3.1-3.1-4.9-7.3-4.9-11.8s1.7-8.6 4.9-11.8c.4-.4.4-1.1 0-1.6-.5-.2-1.2-.2-1.6.2z"/><path d="M33.6 27.1c.2.2.5.3.8.3s.6-.1.8-.3c2.3-2.3 3.6-5.4 3.6-8.6s-1.3-6.3-3.6-8.6c-.4-.4-1.1-.4-1.6 0s-.4 1.1 0 1.6c1.9 1.9 2.9 4.4 2.9 7.1s-1 5.2-2.9 7.1c-.5.3-.5 1 0 1.4zM19.4 9.9c-.4-.4-1.1-.4-1.6 0-2.3 2.3-3.6 5.4-3.6 8.6s1.3 6.3 3.6 8.6c.2.2.5.3.8.3.3 0 .6-.1.8-.3.4-.4.4-1.1 0-1.6-1.9-1.9-2.9-4.4-2.9-7.1s1-5.2 2.9-7.1c.5-.3.5-1 0-1.4zm3.8 8.6c0-1.8 1.5-3.3 3.3-3.3s3.3 1.5 3.3 3.3c0 1.8-1.5 3.3-3.3 3.3s-3.3-1.5-3.3-3.3zm8.8 0c0-3.1-2.5-5.5-5.5-5.5S21 15.5 21 18.5c0 2.7 1.9 4.9 4.4 5.4v25.6c0 .6.5 1.1 1.1 1.1s1.1-.5 1.1-1.1V23.9c2.5-.5 4.4-2.7 4.4-5.4z"/></svg>