<svg xmlns="http://www.w3.org/2000/svg" viewBox="0 0 29 34"><path d="M3.5 23c-.4 0-.7.3-.7.7v6.7c0 .2.1.5.3.6 3 1.9 6.9 2.9 11 2.9s8.1-1 11-2.9c.2-.1.3-.4.3-.6v-6.7c0-.4-.3-.7-.7-.7-.4 0-.7.3-.7.7V30c-2.7 1.6-6.2 2.5-9.9 2.5s-7.2-.9-9.9-2.5v-6.3c0-.4-.3-.7-.7-.7zm21.3-12c.4 0 .7-.3.7-.7V3.5c0-.2-.1-.5-.3-.6-3-1.9-6.9-2.9-11-2.9-4.2 0-8.1 1-11 2.9-.2.2-.4.4-.4.6v6.7c0 .4.3.7.7.7.4 0 .7-.3.7-.7V3.9c2.7-1.6 6.2-2.5 9.9-2.5s7.2.9 9.9 2.5v6.3c.1.5.4.8.8.8zm2.8 9.5c.5-.5.7-1.1.7-1.8v-3.5c0-.7-.3-1.3-.7-1.8-.5-.5-1.1-.7-1.8-.7H2.5c-.7 0-1.3.3-1.8.7-.4.5-.7 1.2-.7 1.8v3.5c0 .7.3 1.3.7 1.8.5.5 1.1.7 1.8.7h23.4c.6.1 1.2-.2 1.7-.7zm-25.9-1c-.2-.2-.3-.5-.3-.8v-3.5c0-.3.1-.6.3-.8.2-.2.5-.3.8-.3h23.4c.3 0 .6.1.8.3.2.2.3.5.3.8v3.5c0 .3-.1.5-.3.8-.2.2-.5.3-.8.3H2.5c-.3 0-.6-.1-.8-.3z"/></svg>