<svg xmlns="http://www.w3.org/2000/svg" xmlns:xlink="http://www.w3.org/1999/xlink" viewBox="0 0 37.7 51"><path d="M37.4 11.4l-.2-.2L26.3.3c-.1-.1-.3-.2-.5-.3H1.1C.5 0 0 .5 0 1.1v48.8c0 .6.5 1.1 1.1 1.1h35.5c.6 0 1.1-.5 1.1-1.1V12.2c0-.3-.1-.6-.3-.8zM26.6 3.8l7.3 7.3h-7.3V3.8zm8.9 45H2.2V2.2h22.2v10c0 .6.5 1.1 1.1 1.1h10v35.5z"/><defs><path id="doc-a" d="M29.9 39.9H7.8c-.6 0-1.1.5-1.1 1.1s.5 1.1 1.1 1.1H30c.6 0 1.1-.5 1.1-1.1s-.6-1.1-1.2-1.1z"/></defs><use xlink:href="#doc-a" overflow="visible"/><defs><path id="doc-b" d="M29.9 33.3H7.8c-.6 0-1.1.5-1.1 1.1s.5 1.1 1.1 1.1H30c.6 0 1.1-.5 1.1-1.1s-.6-1.1-1.2-1.1z"/></defs><use xlink:href="#doc-b" overflow="visible"/><defs><path id="doc-c" d="M29.9 26.6H7.8c-.6 0-1.1.5-1.1 1.1 0 .6.5 1.1 1.1 1.1H30c.6 0 1.1-.5 1.1-1.1-.1-.6-.6-1.1-1.2-1.1z"/></defs><use xlink:href="#doc-c" overflow="visible"/><g><defs><path id="d" d="M29.9 20H7.8c-.6 0-1.1.5-1.1 1.1 0 .6.5 1.1 1.1 1.1H30c.6 0 1.1-.5 1.1-1.1-.1-.6-.6-1.1-1.2-1.1z"/></defs><use xlink:href="#doc-d" overflow="visible"/></g></svg>