<svg xmlns="http://www.w3.org/2000/svg" viewBox="0 0 48 42"><path d="M47 0H17c-.6 0-1 .4-1 1v9H1c-.6 0-1 .4-1 1v22c0 .6.4 1 1 1h3v7c0 .6.4 1 1 1 .3 0 .5-.1.7-.3l7.7-7.7H31c.6 0 1-.4 1-1v-9h2.6l7.7 7.7c.4.4 1 .4 1.4 0 .2-.2.3-.4.3-.7v-7h3c.6 0 1-.4 1-1V1c0-.6-.4-1-1-1zM30 32H13c-.3 0-.5.1-.7.3L6 38.6V33c0-.6-.4-1-1-1H2V12h14v11c0 .6.4 1 1 1h13v8zm16-10h-3c-.6 0-1 .4-1 1v5.6l-6.3-6.3c-.2-.2-.4-.3-.7-.3H18V2h28v20z"/><path d="M23 10h18c.6 0 1-.4 1-1s-.4-1-1-1H23c-.6 0-1 .4-1 1s.4 1 1 1zm0 6h18c.6 0 1-.4 1-1s-.4-1-1-1H23c-.6 0-1 .4-1 1s.4 1 1 1z"/></svg>