<svg xmlns="http://www.w3.org/2000/svg" viewBox="0 0 33.8 45"><path d="M1.9 3.8h7.5v.9c0 .5.4.9.9.9h13.1c.5 0 .9-.4.9-.9v-.9h7.5v39.4h-30V3.8zm9.3-1.9h11.2v1.9H11.2V1.9zM0 44.1c0 .5.4.9.9.9h31.9c.5 0 .9-.4.9-.9V2.8c0-.5-.4-.9-.9-.9h-8.4v-1c0-.5-.4-.9-1-.9H10.3c-.5 0-.9.4-.9.9v.9H.9c-.5.1-.9.5-.9 1v41.3z"/><path d="M27.2 11.2H6.6c-.5 0-.9.4-.9.9s.4.9.9.9h20.6c.5 0 .9-.4.9-.9s-.4-.9-.9-.9zm0 5.7H6.6c-.5 0-.9.4-.9.9s.4.9.9.9h20.6c.5 0 .9-.4.9-.9s-.4-.9-.9-.9zm0 5.6H6.6c-.5 0-.9.4-.9.9s.4.9.9.9h20.6c.5 0 .9-.4.9-.9s-.4-.9-.9-.9zm0 5.6H6.6c-.5 0-.9.4-.9.9s.3 1 .9 1h20.6c.5 0 .9-.4.9-.9s-.4-1-.9-1zm0 5.7c-1.1 0-1.6.9-2 1.4-.1.2-.3.5-.4.5-.1 0-.3-.3-.4-.5-.3-.5-.9-1.4-2-1.4s-1.6.9-2 1.4c-.1.2-.3.5-.4.5-.1 0-.3-.3-.4-.5-.3-.5-.9-1.4-2-1.4-.5 0-.9.4-.9.9s.4.9.9.9c.1 0 .3.3.4.5.3.5.9 1.4 2 1.4s1.6-.9 2-1.4c.1-.2.3-.5.4-.5.1 0 .3.3.4.5.3.5.9 1.4 2 1.4s1.6-.9 2-1.4c.1-.2.3-.5.4-.5.5 0 .9-.4.9-.9s-.4-.9-.9-.9z"/></svg>