<svg xmlns="http://www.w3.org/2000/svg" viewBox="0 0 27 27"><path d="M4.7 14.9l.5-.5L16 25.2c.1.1.2.1.3.2l9.9 1.4c.4.1.7-.2.8-.6V26l-1.4-9.9c0-.1-.1-.2-.2-.3L14.6 5l.5-.5c.3-.3.3-.7 0-.9l-1.9-1.9c-.3-.3-.7-.3-.9 0l-.5.5L10.4.8c-.8-.8-2-.8-2.8 0L.9 7.3c-.8.8-.8 2 0 2.8l1.4 1.4-.4.5c-.3.3-.3.7 0 .9l1.9 1.9c.2.3.6.3.9.1zM8 11.6L18.4 22l-1.9 1.9L6.1 13.5 8 11.6zm2.8-2.9l10.4 10.4-1.9 1.9L8.9 10.6l1.9-1.9zm14.4 13.9L22.8 25l-4.9-.7 6.6-6.6.7 4.9zm.4 2.8l-1.1-.2.9-.9.2 1.1zM24 16.3l-1.9 1.9L11.8 7.8l1.9-1.9L24 16.3zM1.9 9.2c-.3-.2-.3-.7 0-.9l6.6-6.6c.3-.3.7-.3.9 0l1.4 1.4-7.5 7.5-1.4-1.4zm1.4 3.3l9.4-9.4.9.9-9.4 9.4c0 .1-.9-.9-.9-.9z"/></svg>