<svg xmlns="http://www.w3.org/2000/svg" viewBox="0 0 35 32"><path d="M34.2 30.4H.8c-.4 0-.8.3-.8.8 0 .4.3.8.8.8h33.5c.4 0 .8-.3.8-.8-.1-.4-.4-.8-.9-.8zM2.3 21.3c-1.3 0-2.3 1-2.3 2.3v3c0 1.3 1 2.3 2.3 2.3 1.3 0 2.3-1 2.3-2.3v-3c0-1.3-1.1-2.3-2.3-2.3zm.7 5.3c0 .4-.3.8-.8.8-.4 0-.8-.3-.8-.8v-3c0-.4.3-.8.8-.8s.8.4.8.8v3zm4.6-12.1v12.2c0 1.3 1 2.3 2.3 2.3 1.3 0 2.3-1 2.3-2.3V14.5c0-1.3-1-2.3-2.3-2.3-1.3 0-2.3 1-2.3 2.3zm3.1 0v12.2c0 .4-.3.8-.8.8-.4 0-.8-.3-.8-.8V14.5c0-.4.4-.7.8-.7s.7.3.8.7zm4.5 6v6.1c0 1.3 1 2.3 2.3 2.3 1.3 0 2.3-1 2.3-2.3v-6.1c0-1.3-1-2.3-2.3-2.3-1.3.1-2.3 1.1-2.3 2.3zm3.1 0v6.1c0 .4-.4.7-.8.7s-.7-.3-.7-.7v-6.1c0-.4.4-.7.8-.7.3 0 .6.4.7.7zm4.5-10.6v16.7c0 1.3 1 2.3 2.3 2.3 1.3 0 2.3-1 2.3-2.3V9.9c0-1.3-1-2.3-2.3-2.3-1.3 0-2.3 1-2.3 2.3zm3.1 0v16.7c0 .4-.4.7-.8.7s-.7-.3-.7-.7V9.9c0-.4.3-.8.8-.8s.7.4.7.8zM32.7 0c-1.3 0-2.3 1-2.3 2.3v24.3c0 1.3 1 2.3 2.3 2.3 1.3 0 2.3-1 2.3-2.3V2.3C35 1 34 0 32.7 0zm.8 26.6c0 .4-.3.8-.8.8-.4 0-.8-.3-.8-.8V2.3c0-.4.4-.7.8-.7s.7.3.7.7c.1 0 .1 24.3.1 24.3z"/></svg>