<svg xmlns="http://www.w3.org/2000/svg" viewBox="0 0 53 51"><path d="M51.5 13.1H1.4c-.6 0-1.1.6-1.1 1.1v17.5c0 .6.6 1.1 1.1 1.1h3.2V36c0 .6.6 1.1 1.1 1.1h41.5c.6 0 1.1-.6 1.1-1.1v-3.2h3.2c.6 0 1.1-.6 1.1-1.1V14.3c0-.6-.5-1.2-1.1-1.2zm-1.1 17.6h-3.2c-.6 0-1.1.6-1.1 1.1V35h-4.3v-1.1c0-.6-.6-1.1-1.1-1.1s-1.1.6-1.1 1.1V35h-2.3v-1.1c0-.6-.6-1.1-1.1-1.1s-1.1.6-1.1 1.1V35h-2.3v-1.1c0-.6-.6-1.1-1.1-1.1s-1.1.6-1.1 1.1V35h-1.9v-1.1c0-.6-.6-1.1-1.1-1.1s-1.1.6-1.1 1.1V35H24v-1.1c0-.6-.6-1.1-1.1-1.1s-1.1.6-1.1 1.1V35h-4v-1.1c0-.6-.6-1.1-1.1-1.1s-1.1.6-1.1 1.1V35h-2.3v-1.1c0-.6-.6-1.1-1.1-1.1s-1.2.5-1.2 1.1V35H6.8v-3.4c0-.6-.6-1.1-1.1-1.1H2.5V15.4h47.9v15.3z"/><path d="M7.8 26.1c.6 0 1.1-.6 1.1-1.1v-3.2h2.3V25c0 .6.6 1.1 1.1 1.1s1.1-.6 1.1-1.1v-4.3c0-.6-.6-1.1-1.1-1.1H7.8c-.6.2-.9.6-.9 1.1V25c-.1.8.3 1.1.9 1.1zm32.8 0c.6 0 1.1-.6 1.1-1.1v-3.2H44V25c0 .6.6 1.1 1.1 1.1s1.1-.6 1.1-1.1v-4.3c0-.6-.6-1.1-1.1-1.1h-4.3c-.6 0-1.1.6-1.1 1.1V25c-.3.8.3 1.1.9 1.1zm-11 0c.6 0 1.1-.6 1.1-1.1v-3.2H33V25c0 .6.6 1.1 1.1 1.1s1.1-.6 1.1-1.1v-4.3c0-.6-.6-1.1-1.1-1.1h-4.3c-.8.2-1.3.6-1.3 1.1V25c0 .8.6 1.1 1.1 1.1zm-10.9 0c.6 0 1.1-.6 1.1-1.1v-3.2h2.3V25c0 .6.6 1.1 1.1 1.1s1.1-.6 1.1-1.1v-4.3c0-.6-.6-1.1-1.1-1.1h-4.5c-.6.2-.9.6-.9 1.1V25c0 .8.4 1.1.9 1.1z"/></svg>