<svg xmlns="http://www.w3.org/2000/svg" viewBox="0 0 30 30.1"><path d="M15 .1c4.1 0 4.6 0 6.2.1 1.2 0 2.5.3 3.6.7 1 .4 1.9 1 2.7 1.7.8.7 1.4 1.7 1.7 2.7.4 1.2.7 2.4.7 3.6.1 1.6.1 2.1.1 6.2s0 4.6-.1 6.2c0 1.2-.3 2.5-.7 3.6-.8 2-2.4 3.6-4.4 4.4-1.2.4-2.4.7-3.6.7-1.6.1-2.1.1-6.2.1s-4.6 0-6.2-.1c-1.2 0-2.5-.3-3.6-.7-1-.4-1.9-1-2.7-1.7-.8-.8-1.4-1.7-1.7-2.7-.4-1.2-.7-2.4-.7-3.6-.1-1.7-.1-2.2-.1-6.2s0-4.6.1-6.2c0-1.2.3-2.5.7-3.6.4-1 1-1.9 1.7-2.7.8-.8 1.7-1.4 2.7-1.7C6.4.5 7.6.2 8.8.2 10.4.1 10.9.1 15 .1zm0 2.7c-4 0-4.5 0-6.1.1-.9 0-1.9.1-2.7.5-.7.2-1.3.6-1.8 1.1-.5.5-.9 1.1-1.1 1.7-.3.9-.5 1.9-.5 2.8-.1 1.6-.1 2.1-.1 6.1s0 4.5.1 6.1c0 1 .2 1.9.5 2.8.2.7.6 1.2 1.1 1.7.5.5 1.1.9 1.7 1.1.9.3 1.9.5 2.8.5 1.6.1 2.1.1 6.1.1s4.5 0 6.1-.1c1 0 1.9-.2 2.8-.5 1.3-.5 2.3-1.5 2.8-2.8.3-.9.5-1.8.5-2.8.1-1.6.1-2.1.1-6.1s0-4.5-.1-6.1c0-1-.2-1.9-.5-2.8-.2-.7-.6-1.2-1.1-1.7-.5-.5-1.1-.9-1.7-1.1-.9-.4-1.9-.5-2.8-.5-1.6-.1-2.1-.1-6.1-.1zm0 4.6c4.3 0 7.7 3.4 7.7 7.7s-3.4 7.7-7.7 7.7-7.7-3.4-7.7-7.7 3.4-7.7 7.7-7.7zm0 12.7c2.8 0 5-2.2 5-5s-2.2-5-5-5-5 2.2-5 5c0 2.7 2.2 5 5 5zm9.8-13c0 1-.8 1.8-1.8 1.8s-1.8-.8-1.8-1.8.8-1.8 1.8-1.8 1.8.8 1.8 1.8z"/></svg>