<svg xmlns="http://www.w3.org/2000/svg" viewBox="0 0 53 51"><path d="M49.2 28.9c0 .5-.4 1-1 1h-4.9c-.4 0-.8.3-1 .7-.3 1-.7 1.9-1.2 2.8-.2.4-.1.9.2 1.2l3.5 3.5c.2.2.3.4.3.7 0 .3-.1.5-.3.7l-4.4 4.4c-.4.4-1 .4-1.4 0l-3.5-3.5c-.3-.3-.8-.4-1.2-.2-.9.5-1.9.9-2.8 1.2-.4.1-.7.5-.7 1v4.9c0 .5-.4 1-1 1h-6.2c-.5 0-1-.4-1-1v-4.9c0-.4-.3-.8-.7-1-1-.3-1.9-.7-2.8-1.2-.1-.1-.3-.1-.5-.1-.3 0-.5.1-.7.3l-3.5 3.5c-.4.4-1 .4-1.4 0l-4.4-4.4c-.2-.2-.3-.4-.3-.7 0-.3.1-.5.3-.7l3.5-3.5c.3-.3.4-.8.2-1.2-.5-.9-.9-1.9-1.2-2.8-.1-.4-.5-.7-1-.7H5.3c-.5 0-1-.4-1-1v-6.2c0-.5.4-1 1-1h4.9c.4 0 .8-.3 1-.7.3-1 .7-1.9 1.2-2.8.2-.4.1-.9-.2-1.2l-3.5-3.5c-.2-.2-.3-.4-.3-.7 0-.3.1-.5.3-.7l4.4-4.4c.4-.4 1-.4 1.4 0l3.5 3.5c.3.3.8.4 1.2.2.9-.5 1.9-.9 2.8-1.2.4-.1.7-.5.7-1V4.3c0-.5.4-1 1-1h6.2c.5 0 1 .4 1 1v4.9c0 .4.3.8.7 1 1 .3 1.9.7 2.8 1.2.4.2.9.1 1.2-.2l3.5-3.5c.4-.4 1-.4 1.4 0l4.4 4.4c.2.2.3.4.3.7 0 .3-.1.5-.3.7L41.4 17c-.3.3-.4.8-.2 1.2.5.9.9 1.9 1.2 2.8.1.4.5.7 1 .7h4.9c.5 0 1 .4 1 1v6.2zm-1-9.3H44c-.2-.6-.5-1.2-.7-1.8l2.9-2.9c.6-.6.9-1.3.9-2.1s-.3-1.6-.9-2.1l-4.4-4.4c-1.1-1.1-3.1-1.1-4.3 0l-2.9 2.9c-.6-.3-1.2-.5-1.8-.7V4.3c0-1.7-1.4-3-3-3h-6.2c-1.7 0-3 1.4-3 3v4.2c-.6.2-1.2.5-1.8.7l-2.9-2.9c-1.1-1.1-3.1-1.1-4.3 0l-4.4 4.4c-.6.6-.9 1.3-.9 2.1s.3 1.6.9 2.1l2.9 2.9c-.3.6-.5 1.2-.7 1.8H5.3c-1.7 0-3 1.4-3 3v6.2c0 1.7 1.4 3 3 3h4.2c.2.6.5 1.2.7 1.8l-2.9 2.9c-.6.6-.9 1.3-.9 2.1s.3 1.6.9 2.1l4.4 4.4c1.1 1.1 3.1 1.1 4.3 0l2.9-2.9c.6.3 1.2.5 1.8.7v4.2c0 1.7 1.4 3 3 3h6.2c1.7 0 3-1.4 3-3v-4.2c.6-.2 1.2-.5 1.8-.7l2.9 2.9c1.1 1.1 3.1 1.1 4.3 0l4.4-4.4c.6-.6.9-1.3.9-2.1s-.3-1.6-.9-2.1l-2.9-2.9c.3-.6.5-1.2.7-1.8h4.2c1.7 0 3-1.4 3-3v-6.2c-.1-1.6-1.4-3-3.1-3z"/><path d="M26.8 38c-6.8 0-12.2-5.5-12.2-12.2S20 13.5 26.8 13.5 39 19 39 25.8 33.5 38 26.8 38zm0-26.5c-7.9 0-14.3 6.4-14.3 14.3s6.4 14.3 14.3 14.3S41 33.6 41 25.8c0-7.9-6.4-14.3-14.2-14.3z"/></svg>