<svg xmlns="http://www.w3.org/2000/svg" viewBox="0 0 32 32"><path d="M16 28.6c7 0 12.7-5.7 12.7-12.6S23 3.3 16 3.3 3.3 9 3.3 16 9 28.6 16 28.6zm0 3.3c-8.8 0-16-7.1-16-16S7.2 0 16 0s16 7.1 16 16-7.2 15.9-16 15.9z"/><path d="M24.5 22.4L22.8 13c-.2-.9-.9-1.5-1.8-1.5.1-1.6-.5-3.2-1.8-4.2-.8-.8-1.7-1.2-2.8-1.3H16c-1.2 0-2.3.4-3.3 1.3-1.2 1-1.8 2.6-1.7 4.2-.8 0-1.6.6-1.8 1.5l-1.7 9.4c-.2 1.1.7 2.1 1.8 2.1h13.4c1.1 0 2-1 1.8-2.1zM14.6 9.5c.8-.7 2-.7 2.8 0 .6.5.8 1.3.7 2h-4.2c-.1-.7.1-1.5.7-2zm-3.9 12l1.3-7h7.9l1.3 7H10.7z"/></svg>