<svg xmlns="http://www.w3.org/2000/svg" viewBox="0 0 53 51"><path d="M11.6.7C6.4.7 2.3 5 2.3 10.2V18c0 .6.5 1 1 1s1-.5 1-1v-7.9c0-4.1 3.3-7.4 7.3-7.4s7.3 3.3 7.3 7.4v16.3c0 2.9-2.3 5.3-5.2 5.3s-5.2-2.4-5.2-5.3V10.2C8.5 8.4 9.8 7 11.6 7s3.1 1.4 3.1 3.2V18c0 .6.5 1 1 1 .6 0 1-.5 1-1v-7.9c0-2.9-2.3-5.3-5.2-5.3s-5.2 2.4-5.2 5.3v16.3c0 4.1 3.3 7.4 7.3 7.4s7.3-3.3 7.3-7.4V10.2c0-5.3-4.2-9.5-9.3-9.5z"/><path d="M37.5 4.2l8.9 8.9h-8.9V4.2zm12.2 9.2L37.2 1c-.1-.1-.2-.2-.3-.2-.1-.1-.3-.1-.4-.1H19.9c-.6 0-1 .5-1 1s.5 1 1 1h15.6v11.4c0 .6.5 1 1 1h11.4v33.2H14.7V37c0-.6-.5-1-1-1-.6 0-1 .5-1 1v12.5c0 .6.5 1 1 1H49c.6 0 1-.5 1-1V14.2c0-.1 0-.3-.1-.4-.1-.2-.1-.3-.2-.4z"/><path d="M42.7 40.1H19.9c-.6 0-1 .5-1 1s.5 1 1 1h22.8c.6 0 1-.5 1-1s-.4-1-1-1zm-23.9-5.2c0 .6.5 1 1 1h22.8c.6 0 1-.5 1-1 0-.6-.5-1-1-1H19.9c-.6 0-1.1.5-1.1 1zm7.3-5.2h16.6c.6 0 1-.5 1-1 0-.6-.5-1-1-1H26.1c-.6 0-1 .5-1 1 0 .6.4 1 1 1zm0-6.2h16.6c.6 0 1-.5 1-1s-.5-1-1-1H26.1c-.6 0-1 .5-1 1s.4 1 1 1z"/></svg>