<svg xmlns="http://www.w3.org/2000/svg" viewBox="0 0 53 51"><path d="M51.7 16.2c-.1-.1 0-.1 0 0-.1-.1-.1-.1 0 0-.1-.1-.1-.1 0 0L45 2.7l-.1-.1-.3-.3-.1-.1s-.1 0-.1-.1c-.1-.1-.3-.1-.4-.1H8.5c-.1 0-.3 0-.4.1 0 0-.1 0-.1.1l-.1.1c-.2.1-.3.3-.4.4l-.1.1L.8 16.1v.1c-.1.2-.1.3-.1.5 0 .1 0 .1.1.2 0 .1 0 .2.1.3v.1l24.4 31.1c0 .1.1.1.2.1l.1.1c.2.1.4.2.6.2.2 0 .4-.1.6-.2.1 0 .1-.1.1-.1.1 0 .1-.1.2-.1l24.4-31.1v-.1c.1-.1.1-.2.1-.3 0-.1.1-.1.1-.2.1-.2 0-.4 0-.5zM42.3 4.3l-4.2 10.2-9.4-10.2h13.6zm-6.4 11.2H16.5l9.7-10.6 9.7 10.6zM23.7 4.3l-9.3 10.2-4.3-10.2h13.6zM8.4 5.9l4 9.5H3.6l4.8-9.5zM4.1 17.7h9.2L22.4 41 4.1 17.7zm22.1 26.9L15.6 17.7h21.2L26.2 44.6zM30 41l9.2-23.4h9.2L30 41zm10.1-25.5l4-9.5 4.8 9.5h-8.8z"/></svg>