<svg xmlns="http://www.w3.org/2000/svg" viewBox="0 0 34 33"><path d="M33.3 31.2H.7c-.4 0-.7.4-.7.7 0 .4.3.7.7.7h32.6c.4 0 .7-.4.7-.7-.1-.4-.3-.7-.7-.7zM2.1 29.8c.9 0 1.8-.6 2-1.5 1.6-.1 3.2-.4 4.7-.8.4.6 1.1.9 1.8.9 1.2 0 2.1-1 2.1-2.1V26c2-.9 3.8-2.1 5.4-3.5.3.1.6.2 1 .2 1.2 0 2.1-1 2.1-2.1 0-.3-.1-.7-.2-1 1.4-1.7 2.6-3.5 3.5-5.4h.3c1 .7 2.3.4 2.9-.6.7-1 .4-2.3-.6-2.9-.4-.2-.8-.4-1.2-.4.6-2.2.9-4.4.9-6.7V2.4l3 3c.3.3.7.3 1 0 .3-.3.3-.7 0-1L26.5.2c-.3-.3-.7-.3-1 0l-4.2 4.2c-.3.3-.2.7.1 1 .3.2.7.2.9 0l3-3v1.1c0 2.2-.3 4.3-.9 6.4-1.1.1-1.9 1-1.9 2.1 0 .6.2 1.1.6 1.5-.9 1.8-2 3.6-3.3 5.1-.3-.1-.6-.2-.9-.2-1.2 0-2.1 1-2.1 2.1 0 .3.1.6.2.9-1.5 1.3-3.3 2.4-5.1 3.3-.4-.4-.9-.6-1.5-.6-1.1 0-2 .9-2.1 1.9-1.5.4-2.9.7-4.4.8-.3-.8-1.1-1.3-2-1.3-1.2 0-2.1 1-2.1 2.1.2 1.2 1.2 2.2 2.3 2.2zm22.7-18.5c.4 0 .7.3.7.7 0 .4-.3.7-.7.7-.4 0-.7-.3-.7-.7 0-.3.3-.7.7-.7zm-5.7 8.5c.4 0 .7.3.7.7 0 .4-.3.7-.7.7-.4 0-.7-.3-.7-.7 0-.3.3-.7.7-.7zm-8.5 5.7c.4 0 .7.3.7.7 0 .4-.3.7-.7.7-.4 0-.7-.3-.7-.7 0-.4.3-.7.7-.7zm-8.5 1.4c.4 0 .7.3.7.7 0 .4-.3.7-.7.7-.4 0-.7-.3-.7-.7 0-.4.3-.7.7-.7z"/></svg>