<svg xmlns="http://www.w3.org/2000/svg" viewBox="0 0 38 52"><path d="M9.1 24.8c.5 0 .8-.4.8-.8v-3.3c0-.5-.4-.8-.8-.8s-.8.4-.8.8V24c0 .4.3.8.8.8zm0 4.9c-.5 0-.8.4-.8.8v3.3c0 .5.4.8.8.8s.8-.4.8-.8v-3.3c0-.4-.4-.8-.8-.8zm19.8-6.6c.2 0 .4-.1.6-.2.2-.1.3-.4.2-.6 0-.2-.1-.4-.2-.6-.3-.3-.8-.3-1.2 0-.1.2-.2.4-.2.6 0 .2.1.4.2.6.2.1.4.2.6.2zm-3.3 0c.2 0 .4-.1.6-.2.1-.2.2-.4.2-.6 0-.2-.1-.4-.2-.6-.3-.3-.9-.3-1.2 0-.1.2-.2.4-.2.6 0 .2.1.4.2.6.2.1.4.2.6.2zm-3.3 0c.2 0 .4-.1.6-.2.3-.3.3-.9 0-1.2-.3-.3-.8-.3-1.2 0-.2.1-.3.4-.2.6 0 .2.1.4.2.6.2.1.4.2.6.2zm6.6 9.9c.2 0 .4-.1.6-.2.2-.1.3-.4.2-.6 0-.2-.1-.4-.2-.6-.3-.3-.8-.3-1.2 0-.3.3-.3.9 0 1.2.2.2.4.2.6.2zm-3.3 0c.2 0 .4-.1.6-.2.2-.2.2-.4.2-.6 0-.2-.1-.4-.2-.6-.3-.3-.8-.3-1.2 0-.3.3-.3.9 0 1.2.2.2.4.2.6.2zm-3.3 0c.2 0 .4-.1.6-.2.3-.3.3-.9 0-1.2-.3-.3-.8-.3-1.2 0-.2.1-.3.4-.2.6 0 .2.1.4.2.6.2.2.4.2.6.2z"/><path d="M.8 47.9H15c.4 1.9 2.1 3.3 4 3.3 2 0 3.7-1.4 4-3.3h14.1c.5 0 .8-.4.8-.8s-.4-.8-.8-.8H23c-.3-1.6-1.6-2.9-3.2-3.2v-5h10.7c1.4 0 2.5-1.1 2.5-2.5V29c0-.6-.2-1.2-.6-1.7.4-.4.6-1 .6-1.7V19c0-1.4-1.1-2.5-2.5-2.5H7.4C6.1 16.5 5 17.6 5 19v6.6c0 .6.2 1.2.6 1.7-.4.5-.6 1-.6 1.7v6.6C5 36.9 6.1 38 7.4 38h10.7v5c-1.6.3-2.9 1.6-3.2 3.2H.8c-.5 0-.8.4-.8.8s.4.9.8.9zM6.6 19c0-.5.4-.8.8-.8h23.1c.5 0 .8.4.8.8v6.6c0 .5-.4.8-.8.8H7.4c-.5 0-.8-.4-.8-.8V19zm0 16.5v-6.6c0-.5.4-.8.8-.8h23.1c.5 0 .8.4.8.8v6.6c0 .5-.4.8-.8.8H7.4c-.4 0-.8-.3-.8-.8zM19 44.6c1.4 0 2.5 1.1 2.5 2.5s-1.1 2.5-2.5 2.5-2.5-1.1-2.5-2.5 1.1-2.5 2.5-2.5zm-5-31.4h10c.5 0 .8-.4.8-.8v-5c0-.5-.4-.8-.8-.8h-.8V4.1C23.1 1.9 21.3 0 19 0c-2.3 0-4.1 1.9-4.1 4.1v2.5H14c-.5 0-.8.4-.8.8v5c0 .4.4.8.8.8zm2.5-9.1c0-1.4 1.1-2.5 2.5-2.5s2.5 1.1 2.5 2.5v2.5h-5V4.1zm-1.6 4.2h8.3v3.3h-8.3V8.3z"/></svg>