<svg xmlns="http://www.w3.org/2000/svg" viewBox="0 0 41 41"><path d="M40.1 3.4h-11L25.7.2c-.1-.1-.3-.2-.5-.2h-5.6c-.5 0-.9.4-.9.9v15.4c0 .5.4.9.9.9h20.5c.5 0 .9-.4.9-.9v-12c0-.5-.4-.9-.9-.9zm-.8 12H20.5V1.7h4.4l3.4 3.2c.2.2.4.2.6.2h10.5v10.3zM21.4 27.3h-11L7 24.2c-.2-.2-.4-.2-.6-.2H.9c-.5 0-.9.4-.9.9v15.4c0 .3.4.7.9.7h20.5c.5 0 .9-.4.9-.9v-12c-.1-.4-.5-.8-.9-.8zm-.9 12H1.7V25.6h4.4l3.4 3.2c.1.2.3.2.5.2h10.5v10.3zM.9 15.4c.5 0 .9-.4.9-.9 0-4.2 3.5-7.7 7.7-7.7h3.1l-3.7 3.7c-.3.3-.3.9 0 1.2s.9.3 1.2 0l5.1-5.1c.2-.2.3-.6.2-.9 0-.1-.1-.2-.2-.3L10 .2c-.3-.3-.9-.2-1.2.1-.3.3-.3.8 0 1.2l3.7 3.7H9.4C4.2 5.1 0 9.3 0 14.5c0 .5.4.9.9.9zm39.2 10.2c-.5 0-.9.4-.9.9 0 4.2-3.5 7.7-7.7 7.7h-3.1l3.7-3.7c.3-.3.3-.9 0-1.2-.3-.3-.8-.3-1.2 0l-5.1 5.1c-.3.3-.3.9 0 1.2l5.1 5.1c.3.3.9.3 1.2 0 .3-.3.3-.9 0-1.2l-3.7-3.7h3.1c5.2 0 9.4-4.2 9.4-9.4.1-.4-.3-.8-.8-.8z"/></svg>