<svg xmlns="http://www.w3.org/2000/svg" viewBox="0 0 35 35"><path d="M.8 33.5h14.6c.3.9 1.2 1.5 2.1 1.5 1 0 1.8-.6 2.1-1.5h14.6c.4 0 .7-.4.7-.8s-.3-.7-.7-.7H19.6c-.2-.6-.7-1.2-1.4-1.4v-1.7h9.9c1.3 0 2.3-1 2.3-2.3v-6.1c0-.6-.2-1.1-.6-1.5.4-.4.6-.9.6-1.5v-6.1c0-.6-.2-1.1-.6-1.5.4-.4.6-.9.6-1.5V2.3c0-1.3-1-2.3-2.3-2.3H6.8C5.6 0 4.6 1 4.6 2.3v6.1c0 .6.2 1.1.6 1.5-.4.4-.6 1-.6 1.5v6.1c0 .6.2 1.1.6 1.5-.4.4-.6 1-.6 1.5v6.1c0 1.3 1 2.3 2.3 2.3h9.9v1.7c-.6.2-1.2.7-1.4 1.4H.8c-.5 0-.8.3-.8.7 0 .4.4.8.8.8zm5.3-16v-6.1c0-.4.3-.8.8-.8h21.3c.4 0 .8.3.8.8v6.1c0 .4-.3.8-.8.8H6.8c-.4 0-.7-.4-.7-.8zm0-15.2c0-.4.3-.8.8-.8h21.3c.4 0 .8.3.8.8v6.1c0 .4-.3.8-.8.8H6.8c-.4 0-.8-.3-.8-.8l.1-6.1zm0 24.3v-6.1c0-.4.3-.8.8-.8h21.3c.4 0 .8.3.8.8v6.1c0 .4-.3.8-.8.8H6.8c-.4 0-.7-.3-.7-.8zM17.5 32c.4 0 .8.3.8.8 0 .4-.3.8-.8.8-.4 0-.8-.3-.8-.8s.4-.8.8-.8z"/><path d="M8.4 7.6c.4 0 .8-.3.8-.8v-3c0-.4-.4-.7-.8-.7s-.7.3-.7.7v3c-.1.5.2.8.7.8zm0 4.6c-.4 0-.8.3-.8.8v3c0 .4.4.7.8.7s.7-.3.7-.7v-3c0-.5-.3-.8-.7-.8zm0 9.1c-.4 0-.8.3-.8.8v3c0 .4.4.7.8.7s.7-.3.7-.7v-3c0-.5-.3-.8-.7-.8zM26.6 6.1c.4 0 .8-.3.8-.7 0-.2-.1-.4-.2-.5-.3-.3-.8-.3-1.1 0-.1.1-.2.3-.2.5s.1.4.2.5c.1.1.3.2.5.2zm-3 0c.2 0 .4-.1.5-.2.3-.3.3-.7 0-1-.3-.3-.8-.3-1.1 0-.1.1-.2.3-.2.5s.1.4.2.5c.2.1.4.2.6.2zm-3.1 0c.4 0 .8-.3.8-.7 0-.2-.1-.4-.2-.5-.3-.3-.8-.3-1.1 0-.1.1-.2.3-.2.5s.1.4.2.5c.2.1.3.2.5.2zm5.6 7.8c-.1.1-.2.3-.2.5s.1.4.2.5c.1.1.3.2.5.2.4 0 .8-.3.8-.8 0-.2-.1-.4-.2-.5-.3-.2-.8-.2-1.1.1zm-3.1 0c-.1.1-.2.3-.2.5s.1.4.2.5c.1.1.3.2.5.2.4 0 .8-.3.8-.7 0-.2-.1-.4-.2-.5-.3-.3-.8-.3-1.1 0zm-3 0c-.1.1-.2.3-.2.5s.1.4.2.5c.1.1.3.2.5.2.4 0 .8-.3.8-.7 0-.2-.1-.4-.2-.5-.3-.3-.8-.3-1.1 0zm6.6 10.4c.2 0 .4-.1.5-.2.1-.1.2-.3.2-.5s-.1-.4-.2-.5c-.3-.3-.8-.3-1.1 0-.1.1-.2.3-.2.5s.1.4.2.5c.2.2.4.3.6.2zm-3 0c.4 0 .8-.3.8-.7 0-.2-.1-.4-.2-.5-.3-.3-.8-.3-1.1 0-.1.1-.2.3-.2.5s.1.4.2.5c.1.2.3.2.5.2zm-3.1 0c.2 0 .4-.1.5-.2.1-.1.2-.3.2-.5s-.1-.4-.2-.5c-.3-.3-.8-.3-1.1 0-.1.1-.2.3-.2.5s.1.4.2.5c.2.2.4.3.6.2z"/></svg>