<svg xmlns="http://www.w3.org/2000/svg" viewBox="0 0 29 38"><path d="M20.2 23.6c1.3-1.7 2-3.8 2-6.2 0-1.6-.4-3.3-1.1-4.8h.3c.4 0 .8-.4.8-.8V8.7c1-.7 1.6-1.9 1.6-3.2 0-2.2-1.8-4-4-4-.6 0-1.2.1-1.7.4-.9-1.2-2.3-2-3.8-2s-3 .7-3.8 2c-.6-.2-1.2-.3-1.8-.3-2.2 0-4 1.8-4 4 0 1.3.6 2.4 1.6 3.2V12c0 .4.4.8.8.8h.3c-.7 1.5-1.1 3.1-1.1 4.8 0 2.3.7 4.5 2 6.2C3.3 26 0 31.3 0 37.2c0 .4.4.8.8.8h26.9c.4 0 .8-.4.8-.8 0-5.9-3.3-11.2-8.3-13.6zM6.3 5.5c0-1.3 1.1-2.4 2.4-2.4.7 0 1.2.3 1.5.5.3.4.8.3 1.1 0 0 0 .1-.1.1-.2.5-1.1 1.6-1.8 2.9-1.8 1.2 0 2.3.7 2.9 1.8.2.4.7.6 1.1.4.1 0 .1-.1.2-.1.3-.2.8-.5 1.5-.5 1.3 0 2.4 1.1 2.4 2.4 0 .9-.4 1.6-1.2 2.1-.2.1-.4.4-.4.7v2.8H7.9V8.3c0-.3-.1-.5-.4-.7-.7-.4-1.2-1.2-1.2-2.1zm2.9 7.2h10.1c.8 1.4 1.3 3 1.3 4.8 0 2.3-.8 4.4-2.2 5.9-2.3 2.6-6 2.6-8.3 0-1.4-1.5-2.2-3.6-2.2-5.9 0-1.8.5-3.5 1.3-4.8zM1.6 36.4c.3-5.1 3.3-9.6 7.8-11.6 1.4 1.3 3.1 2.1 4.9 2.1 1.8 0 3.5-.8 4.9-2.1 4.4 2 7.5 6.5 7.8 11.6H1.6z"/><path d="M10.3 31.7H7.1c-.4 0-.8.4-.8.8s.3.7.8.8h3.2c.4 0 .8-.4.8-.8-.1-.5-.4-.8-.8-.8z"/></svg>