<svg xmlns="http://www.w3.org/2000/svg" viewBox="0 0 53 51"><path d="M8.1 3C3.8 7.3 1.4 13 1.4 19.1c0 .6.5 1 1 1s1-.5 1-1c0-5.5 2.2-10.7 6.1-14.7.5-.4.5-1 .1-1.4s-1.1-.4-1.5 0zm36.4-.1c-.4-.4-1.1-.4-1.5 0-.4.4-.4 1.1 0 1.5 2 2 3.5 4.3 4.5 6.8s1.6 5.2 1.6 7.9c0 .6.5 1 1 1s1-.5 1-1c0-3-.6-6-1.7-8.7-1-2.8-2.7-5.3-4.9-7.5z"/><path d="M11 5.9c-3.5 3.5-5.5 8.2-5.5 13.2 0 .6.5 1 1 1s1-.5 1-1c0-4.4 1.7-8.6 4.9-11.7.4-.4.4-1.1 0-1.5-.3-.4-1-.4-1.4 0zm34 13.2c0 .6.5 1 1 1 .6 0 1-.5 1-1 0-2.5-.5-4.9-1.4-7.1-.9-2.3-2.3-4.3-4.1-6.1-.4-.4-1.1-.4-1.5 0-.4.4-.4 1.1 0 1.5 1.6 1.6 2.8 3.4 3.6 5.4 1 2 1.4 4.1 1.4 6.3zM26.4 6.6h.4c3.4.1 6.6 1.4 9 3.7 2.5 2.4 3.9 5.5 3.9 8.8v12.2c0 1.8.7 3.5 2 4.9l5.5 5.8H5.6l5.5-5.8c1.3-1.3 2-3.1 2-4.9V19.7c-.1-7.1 6-13.1 13.3-13.1zm-2.1-2c0-1.1.9-2.1 2.1-2.1s2.1.9 2.1 2.1v.1c-.5-.1-1-.1-1.6-.1h-.4c-.7 0-1.4.1-2.1.2-.1-.1-.1-.2-.1-.2zm2 43.6c-2.7 0-5-1.7-5.9-4.2h11.7c-.8 2.5-3.1 4.2-5.8 4.2zM11 19.7v11.6c0 1.3-.5 2.5-1.4 3.4l-5.5 5.8c-.6.6-.7 1.4-.4 2.2.3.8 1.1 1.3 1.9 1.3h12.7c.9 3.6 4.2 6.2 8 6.2s7.1-2.6 8-6.2H47c.9 0 1.6-.5 2-1.3.3-.8.2-1.6-.4-2.2l-5.5-5.8c-.9-.9-1.4-2.2-1.4-3.4V19.1c0-3.9-1.6-7.5-4.5-10.3-1.9-1.8-4.2-3-6.8-3.7 0-.2.1-.4.1-.5 0-2.3-1.9-4.2-4.2-4.2s-4.2 1.9-4.2 4.2c0 .2 0 .4.1.6C15.8 7 11 12.9 11 19.7z"/><path d="M16.1 20.7c.6 0 1-.5 1-1 0-1.2.2-2.3.7-3.4.5-1.1 1.1-2 2-2.8.9-.8 1.8-1.5 2.9-1.9.5-.2.8-.8.6-1.4-.2-.5-.8-.8-1.4-.6-1.3.6-2.5 1.4-3.6 2.4-1 1-1.9 2.2-2.4 3.5-.6 1.4-.9 2.8-.9 4.2.1.6.6 1 1.1 1z"/></svg>