<svg xmlns="http://www.w3.org/2000/svg" viewBox="0 0 37 28"><path d="M36.2 4.6H7.8L6.1.5C6 .2 5.7 0 5.4 0H.8C.3 0 0 .3 0 .8c0 .4.3.8.8.8h4.1l1.7 4.2 3.9 9.2 1.9 4.6c.1.3.5.5.8.5h18.4c.4 0 .8-.3.8-.8 0-.4-.3-.8-.8-.8h-18l-1.3-3.1h20.8c.4 0 .8-.3.8-.8 0-.4-.3-.8-.8-.8H11.7l-1.3-3.1h24.3c.4 0 .8-.3.8-.8 0-.4-.3-.8-.8-.8H10.1c-.1 0-.2 0-.3.1l-1.3-3h27.8c.4 0 .8-.4.7-.8 0-.4-.4-.8-.8-.8zM18.5 24.7c0-1.7-1.4-3.1-3.1-3.1-1.7 0-3.1 1.4-3.1 3.1 0 1.7 1.4 3.1 3.1 3.1 1.7 0 3.1-1.4 3.1-3.1zm-4.6 0c0-.9.7-1.5 1.5-1.5.9 0 1.5.7 1.5 1.5s-.7 1.5-1.5 1.5-1.5-.7-1.5-1.5zm16.9 0c0-1.7-1.4-3.1-3.1-3.1-1.7 0-3.1 1.4-3.1 3.1 0 1.7 1.4 3.1 3.1 3.1s3.1-1.4 3.1-3.1zm-4.6 0c0-.9.7-1.5 1.5-1.5.9 0 1.5.7 1.5 1.5s-.7 1.5-1.5 1.5-1.5-.7-1.5-1.5z"/></svg>