<svg xmlns="http://www.w3.org/2000/svg" viewBox="0 0 53 51"><path d="M32.1 45.1l-5.3 3-5.3-3C13.8 40.9 9.2 32.9 9.2 24.3V5.6c10.3-3.9 24.8-3.9 35.2 0v18.7c-.1 8.6-4.8 16.6-12.3 20.8zM46.3 4.6v-.1l-.1-.1c0-.1-.1-.2-.1-.2H46c-.1-.2-.2-.2-.3-.3-11-4.4-27-4.4-38 0-.1.1-.2.1-.2.2h-.1c-.1.1-.1.2-.2.3l-.1.1v.1c0 .1-.1.2-.1.3v19.4c0 9.4 5.1 18 13.3 22.6l5.9 3.2c.2.1.3.1.5.1s.3 0 .5-.1l5.9-3.2c8.2-4.6 13.3-13.2 13.3-22.6V4.9c0-.1-.1-.2-.1-.3z"/><path d="M30.9 24.9c-.4.3-.5.7-.4 1.2l1.9 5.7-5.1-3.5c-.4-.2-.8-.2-1.2 0L21 31.9l1.9-5.8c.1-.4 0-.9-.4-1.2l-5-3.6h6.2c.4 0 .8-.3 1-.7l1.9-5.7 1.9 5.7c.1.4.5.7 1 .7h6.3l-4.9 3.6zm8.2-5.6h-8.7l-2.7-7.8c-.3-.8-1.7-.8-2 0L23 19.3h-8.7c-.4 0-.8.3-1 .7-.1.4 0 .9.4 1.2l7 5-2.7 8c-.1.4 0 .9.4 1.2.2.1.4.2.6.2.2 0 .4-.1.6-.2l7.1-4.9 7.1 4.8c.4.3.9.2 1.2 0 .4-.3.5-.7.4-1.2l-2.7-7.9 7-5c.4-.3.5-.7.4-1.2-.1-.4-.5-.7-1-.7z"/></svg>