<svg xmlns="http://www.w3.org/2000/svg" viewBox="0 0 30 32"><path d="M13.1 0h4c1 0 1.9.8 1.9 1.9 0 1-.8 1.9-1.9 1.9h-4c-1 0-1.9-.8-1.9-1.9C11.2.8 12 0 13.1 0zM15.3 16.2l4.8-5.1c.7-.8 1.9-.8 2.6-.1.8.7.8 1.9.1 2.6l-5.6 6c-.1.2-.2.5-.4.7-.7.7-1.9.7-2.6 0l-4.5-4.5c-.7-.7-.7-1.9 0-2.6.7-.7 1.9-.7 2.6 0l3 3zM23.8 7.5l1-1.1c.7-.8 1.9-.8 2.6-.1.8.7.8 1.9.1 2.6l-1 1.1c-.7.8-1.9.8-2.6.1-.7-.6-.8-1.8-.1-2.6z"/><path d="M15 29.1c6.3 0 11.5-4.9 11.5-11s-5.1-11-11.5-11S3.5 12 3.5 18.1s5.2 11 11.5 11zm0 2.9C7 32 .5 25.8.5 18.2S7 4.3 15 4.3s14.5 6.2 14.5 13.8S23 32 15 32z"/></svg>