<svg xmlns="http://www.w3.org/2000/svg" viewBox="0 0 53 51"><path d="M26.4 25.3c3.4-1.9 5.7-5.6 5.7-9.8 0-6.2-5.1-11.3-11.3-11.3-6.2 0-11.3 5.1-11.3 11.3 0 4.2 2.3 7.8 5.7 9.8C6.7 27.5.5 34.7.5 43.2V46c0 .6.5 1.1 1.1 1.1.6 0 1.1-.5 1.1-1.1v-2.8c0-9 8.1-16.4 18.1-16.4 10 0 18.1 7.4 18.1 16.4V46c0 .6.5 1.1 1.1 1.1.6 0 1.1-.5 1.1-1.1v-2.8c0-8.5-6.2-15.7-14.7-17.9zm-14.6-9.8c0-5 4-9 9-9s9 4 9 9-4 9-9 9-9-4-9-9z"/><path d="M41.6 25.3c2.4-1.6 4.1-4.4 4.1-7.5 0-5-4-9-9-9-.6 0-1.1.5-1.1 1.1s.4 1.1 1 1.1c3.7 0 6.8 3 6.8 6.8 0 3.7-3 6.8-6.8 6.8-.6 0-1.1.5-1.1 1.1 0 .6.5 1.1 1.1 1.1 7.5 0 13.5 5.6 13.5 12.5v2.2c0 .6.5 1.1 1.1 1.1.6 0 1.1-.5 1.1-1.1v-2.2c.1-6.5-4.4-12.1-10.7-14z"/></svg>