<svg xmlns="http://www.w3.org/2000/svg" viewBox="0 0 25 34"><path d="M17.4 33.3c.2 0 .4-.1.5-.2l6.9-6.9c.1-.1.2-.3.2-.5V2.1C25 .9 24.1 0 22.9 0H2.1C.9 0 0 .9 0 2.1v29.2c0 1.1.9 2.1 2.1 2.1h15.3zm.7-2.3v-3.9c0-.4.3-.7.7-.7h3.9L18.1 31zm-16.7.3V2.1c0-.4.3-.7.7-.7h20.8c.4 0 .7.3.7.7V25h-4.9c-1.1 0-2.1.9-2.1 2.1V32H2.1c-.4-.1-.7-.4-.7-.7z"/><path d="M4.9 6.9h15.3c.4 0 .7-.3.7-.7 0-.4-.3-.6-.7-.7H4.9c-.4 0-.7.3-.7.7 0 .4.3.7.7.7zm0 4.2h15.3c.4 0 .7-.3.7-.7 0-.4-.3-.7-.7-.7H4.9c-.4 0-.7.3-.7.7 0 .4.3.7.7.7zm0 4.2h15.3c.4 0 .7-.3.7-.7 0-.4-.3-.7-.7-.7H4.9c-.4 0-.7.3-.7.7 0 .4.3.7.7.7zm0 4.1h15.3c.4 0 .7-.3.7-.7 0-.4-.3-.6-.7-.7H4.9c-.4 0-.7.3-.7.7 0 .4.3.7.7.7zm0 4.2h15.3c.4 0 .7-.3.7-.7 0-.4-.3-.7-.7-.7H4.9c-.4 0-.7.3-.7.7 0 .4.3.7.7.7zm0 4.2h8.3c.4 0 .7-.3.7-.7 0-.4-.3-.7-.7-.7H4.9c-.4 0-.7.3-.7.7 0 .4.3.7.7.7z"/></svg>