<svg xmlns="http://www.w3.org/2000/svg" viewBox="0 0 32 32"><path d="M16 32C7.2 32 0 24.8 0 16S7.2 0 16 0s16 7.2 16 16-7.2 16-16 16zm0-29C8.8 3 3 8.8 3 16s5.8 13 13 13 13-5.8 13-13S23.2 3 16 3z"/><path d="M9.1 20.3c1.6.1 3-.2 4.2-1.2-.6 0-1.2-.2-1.6-.6-.5-.3-.9-.8-1.1-1.4h.7c.2 0 .4 0 .6-.1-.9-.2-1.5-.7-1.9-1.4-.3-.5-.4-1-.4-1.4.2.1.4.2.6.2.2.1.4.1.6.1-1.2-1.1-1.5-2.4-.8-3.9 1.6 1.9 3.5 2.9 6 3 0-.2 0-.4-.1-.5 0-.9.3-1.7.9-2.3.7-.7 1.6-.9 2.5-.7.6.1 1 .4 1.4.8.1.1.1.1.2.1.5-.1 1.1-.3 1.5-.6 0 0 .1 0 .2-.1-.2.7-.6 1.2-1.2 1.6.5 0 1-.2 1.6-.4-.3.4-.6.7-.9 1l-.4.4c-.1.1-.1.1-.1.2 0 .8-.1 1.6-.3 2.4-.2.7-.5 1.3-.8 2-.4.7-.8 1.3-1.4 1.8-.7.7-1.6 1.3-2.5 1.7-.9.4-1.8.6-2.8.6-.7 0-1.4 0-2-.2-.7-.1-1.3-.3-1.9-.7-.3-.1-.5-.2-.8-.4"/></svg>