<svg xmlns="http://www.w3.org/2000/svg" viewBox="0 0 34 34"><path d="M25.5 2.1c-2 0-3.8.7-5.2 1.8-.6-.3-1.3-.6-1.9-.7v-.4c0-1.6-1.3-2.8-2.8-2.8s-2.8 1.3-2.8 2.8v.4c-1.7.5-3.2 1.4-4.5 2.6-2 2-3.2 4.6-3.2 7.3V21c0 .9-.3 1.7-1 2.3l-3.7 4c-.4.4-.5 1-.3 1.5s.8.9 1.3.9h8.7c.6 2.5 2.9 4.2 5.5 4.2s4.8-1.8 5.5-4.2h8.7c.6 0 1.1-.3 1.3-.9.2-.5.1-1.1-.3-1.5l-3.8-4c-.6-.7-1-1.5-1-2.3v-2c4.4-.3 7.9-4 7.9-8.5.1-4.6-3.7-8.4-8.4-8.4zm-11.3.7c0-.8.6-1.4 1.4-1.4.8 0 1.4.6 1.4 1.4v.1c-.4 0-.7-.1-1.1-.1-.6 0-1.1.1-1.7 0 0 .1 0 .1 0 0zm1.4 29.8c-1.8 0-3.4-1.2-4-2.8h8c-.6 1.6-2.2 2.8-4 2.8zm14.1-4.3h-19-9.2l3.8-4c.9-.9 1.3-2.1 1.3-3.3v-7.9c0-2.3 1-4.6 2.7-6.3 1.8-1.7 4.1-2.7 6.6-2.6 1.2 0 2.3.3 3.3.7-1.4 1.6-2.2 3.5-2.2 5.7 0 4.4 3.4 8 7.6 8.5v2c0 1.2.5 2.4 1.3 3.3l3.8 3.9zm-3.6-10.6V17c0-.4-.3-.7-.7-.7-.4 0-.7.3-.7.7v.6c-3.3-.4-5.8-3-6.2-6.3h.6c.4 0 .7-.3.7-.7s-.3-.7-.7-.7h-.6c.3-3.3 3-6 6.3-6.3v.6c0 .4.3.7.7.7s.7-.3.7-.7v-.6c3.3.3 6 3 6.3 6.3h-.6c-.4 0-.7.3-.7.7s.3.7.7.7h.6c-.3 3.4-3 6.1-6.4 6.4z"/><path d="M26.2 10.3V7.8c0-.4-.3-.7-.7-.7s-.7.3-.7.7v2.8c0 .1 0 .2.1.3 0 .1.1.2.2.2L28 14c.1.1.3.2.5.2s.4-.1.5-.2c.3-.3.3-.7 0-1l-2.8-2.7zM12.6 6.3c-.9.4-1.7.9-2.4 1.6-.7.7-1.3 1.5-1.7 2.4-.4.9-.6 1.9-.6 2.9 0 .4.3.7.7.7s.7-.3.7-.7c0-.8.2-1.6.5-2.3.3-.7.8-1.4 1.4-1.9.6-.6 1.3-1 2-1.3.4-.2.5-.6.4-.9-.2-.5-.6-.7-1-.5z"/></svg>