<svg xmlns="http://www.w3.org/2000/svg" viewBox="0 0 31 35"><path d="M26 .2c-.3-.3-.7-.3-1 0l-4.4 4.4c-.3.3-.3.8 0 1 .3.3.7.3 1 0l3.2-3.2v31.8c0 .4.4.7.8.7s.7-.3.7-.7V2.6l3 3c.3.3.7.3 1 0 .3-.3.3-.7 0-1L26 .2zM15.8 8.9c-.3-.3-.7-.3-1 0l-4.4 4.4c-.3.3-.3.8 0 1 .3.3.7.3 1 0l3.2-3.2v23c0 .4.4.7.8.7s.7-.3.7-.7V11.3l3 3.1c.3.3.7.3 1 0 .3-.3.3-.7 0-1l-4.3-4.5zM5.6 17.7c-.3-.3-.7-.3-1 0L.2 22c-.3.3-.2.8.1 1 .3.2.7.2 1 0l3.2-3.2v14.3c0 .4.4.7.8.7s.7-.3.7-.7V20l3.1 3c.3.3.7.3 1 0 .3-.3.3-.7 0-1-.1 0-4.5-4.3-4.5-4.3z"/></svg>