<svg xmlns="http://www.w3.org/2000/svg" viewBox="0 0 34 43"><path d="M34 3.4c-.1 0-.1 0 0 0 0-.1-.1-.2-.1-.2 0-.1-.1-.1-.1-.2h-.1l-.2-.2C24-1 10.2-1 .6 2.8c-.1.1-.2.1-.3.2H.2c0 .1 0 .2-.1.2 0 0 0 .1-.1.1v17.1C0 28.6 4.4 36.1 11.5 40l5.1 2.8c.3.1.6.1.9 0l5.1-2.8c7.1-4 11.5-11.4 11.5-19.6V3.7c-.1-.1-.1-.2-.1-.3zM21.6 38.5L17 41l-4.6-2.6a20.61 20.61 0 0 1-10.6-18V4.3C10.7 1 23.3 1 32.2 4.3v16.1c0 7.5-4 14.4-10.6 18.1z"/><path d="M25.3 12.8L15.2 24.6l-4.7-4.7c-.4-.3-.9-.3-1.3 0-.3.3-.3.9 0 1.2l5.4 5.4c.2.2.4.3.6.3.2 0 .5-.1.6-.3L26.6 14c.3-.4.3-.9-.1-1.3-.3-.3-.9-.2-1.2.1z"/></svg>