<?xml version="1.0" encoding="utf-8"?>
<!-- Generator: Adobe Illustrator 22.0.1, SVG Export Plug-In . SVG Version: 6.00 Build 0)  -->
<svg version="1.1" id="Layer_1" xmlns="http://www.w3.org/2000/svg" xmlns:xlink="http://www.w3.org/1999/xlink" x="0px" y="0px"
	 viewBox="0 0 32 32" style="enable-background:new 0 0 32 32;" xml:space="preserve">
<path id="Oval" d="M16,28.6c7,0,12.7-5.7,12.7-12.6S23,3.3,16,3.3S3.3,9,3.3,16S9,28.6,16,28.6z M16,31.9c-8.8,0-16-7.1-16-16
	S7.2,0,16,0s16,7.1,16,16S24.8,31.9,16,31.9z"/>
<path id="Shape" d="M20.2,13.9L20,14.2c-0.2,0.3-0.6,0.4-0.9,0.2l-1.3-0.9c-0.3-0.2-0.4-0.6-0.2-0.9l0.2-0.3
	c0.6-0.9,0.4-2.1-0.4-2.8c-0.8-0.7-2-0.7-2.8,0s-1,1.9-0.4,2.8l0.2,0.3c0.2,0.3,0.1,0.7-0.2,0.9l-1.3,0.9c-0.3,0.2-0.7,0.1-0.9-0.2
	l-0.2-0.3c-1.4-2.1-1-5,0.9-6.6C13.7,6.4,14.8,6,16,6h0.4c1.1,0.1,2,0.5,2.8,1.3C21.2,8.9,21.5,11.8,20.2,13.9z"/>
<path id="Shape_1_" d="M11,11.5h10c0.9,0,1.6,0.6,1.8,1.5l1.7,9.4c0.2,1.1-0.7,2.1-1.8,2.1H9.3c-1.1,0-2-1-1.8-2.1L9.2,13
	C9.4,12.1,10.2,11.5,11,11.5z M12,14.5l-1.3,7h10.5l-1.3-7H12z"/>
</svg>
