<svg xmlns="http://www.w3.org/2000/svg" xmlns:xlink="http://www.w3.org/1999/xlink" viewBox="0 0 32 32"><defs><path id="a" d="M18 3.3c0 .2 0 .4-.2.5l-2.7 3.4c-.3.3-.8.4-1.1.1-.3-.3-.4-.7-.1-1.1 0 0 .3-.4.8-1.1-5.8.8-10.4 5.8-10.4 11.8 0 6.5 5.3 11.8 11.7 11.8.9 0 1.6.7 1.6 1.6S16.9 32 16 32C7.7 32 1 25.2 1 16.9 1 9.3 6.7 2.9 14.1 2c-.2-.2-.5-.4-.8-.6-.3-.3-.4-.7-.1-1.1.3-.3.7-.4 1.1-.1 0 0 1.2.9 3.4 2.6.1.1.2.3.3.5"/></defs><use xlink:href="#a" overflow="visible"/><defs><path id="b" d="M23 28.5c0-.8-.7-1.5-1.5-1.5s-1.5.7-1.5 1.5.7 1.5 1.5 1.5 1.5-.7 1.5-1.5"/></defs><use xlink:href="#b" overflow="visible"/><defs><path id="c" d="M29 24.5c0-.8-.7-1.5-1.5-1.5s-1.5.7-1.5 1.5.7 1.5 1.5 1.5 1.5-.7 1.5-1.5"/></defs><use xlink:href="#c" overflow="visible"/><defs><path id="d" d="M31 17.5c0-.8-.7-1.5-1.5-1.5s-1.5.7-1.5 1.5.7 1.5 1.5 1.5 1.5-.7 1.5-1.5"/></defs><use xlink:href="#d" overflow="visible"/><defs><path id="e" d="M28 9.5c0-.8-.7-1.5-1.5-1.5S25 8.7 25 9.5s.7 1.5 1.5 1.5 1.5-.7 1.5-1.5"/></defs><use xlink:href="#e" overflow="visible"/><path d="M16.5 9c.8 0 1.5.7 1.5 1.5v4c0 .8-.7 1.5-1.5 1.5s-1.5-.7-1.5-1.5v-4c0-.8.7-1.5 1.5-1.5z"/><g><path d="M21.6 12.7s-.1 0 0 0l-.2-.2c-.4-.4-1.5-1.2-2.3-.4-.9.9.2 2.5.4 2.8.6.7.9 1.6.9 2.6 0 2.2-1.7 4-4 4-2.2 0-4-1.8-4-4 0-1 .4-2 1-2.7 0 0 1.5-1.8.5-2.8s-2.4.6-2.4.6c-1.3 1.3-2.1 3-2.1 4.9 0 3.9 3.1 7 7 7s7-3.1 7-7c.1-1.9-.6-3.6-1.8-4.8z"/></g></svg>