<svg xmlns="http://www.w3.org/2000/svg" viewBox="0 0 30 32"><path d="M12.1 28.3c.1-.1 1-1.1 2.8-2.9.3-.3.8-.3 1.1-.1.3.3.4.7.1 1l-.9.9c5.3-.3 10.1-4.1 11.2-8.8v-.1c0-.1.1-.3.1-.4v-1c.2-2.6-.7-5.2-2.5-7.3-.6-.6-.4-1.6.3-2.1.7-.6 1.7-.5 2.3.1 2.4 2.7 3.4 6 3.2 9.3 0 .8-.2 1.7-.4 2.4 0 .1 0 .1-.1.2v.1c-.8 2.8-2.5 5.5-5.1 7.5-2.3 1.7-5.6 2.8-8.6 3 .2.2.5.4.8.6.3.3.4.7.1 1s-.8.3-1.1.1c0 0-1.1-.9-3.2-2.5-.2-.1-.3-.3-.3-.5s.1-.4.2-.5M.2 13.6V13.3C.8 10.4 2.4 7.5 5 5.4c2.2-1.8 5-3.1 8.1-3.4-.2-.2-.5-.4-.8-.6s-.4-.7-.1-1c.4-.3.8-.4 1.2-.2 0 0 1.2.8 3.4 2.4.2.2.3.4.3.5 0 .2 0 .4-.2.5-.1.1-1 1.1-2.7 3.1-.3.3-.8.4-1.1.1-.3-.2-.4-.7-.1-1 0 0 .3-.3.8-1-5.3.7-9.6 4.8-10.4 9.6v.1c0 .1 0 .3-.1.4v1c0 2.6 1 5.2 3 7.3.6.6.5 1.6-.1 2.2s-1.8.6-2.4 0c-2.5-2.7-3.8-6-3.8-9.3 0-.9.1-1.7.2-2.5"/></svg>