<?xml version="1.0" encoding="utf-8"?>
<!-- Generator: Adobe Illustrator 22.0.1, SVG Export Plug-In . SVG Version: 6.00 Build 0)  -->
<svg version="1.1" id="Layer_1" xmlns="http://www.w3.org/2000/svg" xmlns:xlink="http://www.w3.org/1999/xlink" x="0px" y="0px"
	 viewBox="0 0 30 32" style="enable-background:new 0 0 30 32;" xml:space="preserve">
<path id="Rectangle" d="M13.1,0h4c1,0,1.9,0.8,1.9,1.9l0,0c0,1-0.8,1.9-1.9,1.9h-4c-1,0-1.9-0.8-1.9-1.9l0,0C11.2,0.8,12,0,13.1,0z"
	/>
<path id="Combined-Shape" d="M15.3,16.2l4.8-5.1c0.7-0.8,1.9-0.8,2.6-0.1c0.8,0.7,0.8,1.9,0.1,2.6l-5.6,6c-0.1,0.2-0.2,0.5-0.4,0.7
	c-0.7,0.7-1.9,0.7-2.6,0l-4.5-4.5c-0.7-0.7-0.7-1.9,0-2.6c0.7-0.7,1.9-0.7,2.6,0L15.3,16.2z"/>
<path id="Rectangle-Copy-3" d="M23.8,7.5l1-1.1c0.7-0.8,1.9-0.8,2.6-0.1l0,0c0.8,0.7,0.8,1.9,0.1,2.6l-1,1.1
	c-0.7,0.8-1.9,0.8-2.6,0.1l0,0C23.2,9.5,23.1,8.3,23.8,7.5z"/>
<path id="Oval" d="M15,29.1c6.3,0,11.5-4.9,11.5-11s-5.1-11-11.5-11S3.5,12,3.5,18.1S8.7,29.1,15,29.1z M15,32
	C7,32,0.5,25.8,0.5,18.2S7,4.3,15,4.3s14.5,6.2,14.5,13.8S23,32,15,32z"/>
</svg>
