<svg width="472" height="171" viewBox="0 0 472 171" fill="none" xmlns="http://www.w3.org/2000/svg">
<rect width="472" height="171" fill="white"/>
<g clip-path="url(#clip0_469_1703)">
<path d="M92 65.2778H113.778C114.603 65.2778 115.394 64.95 115.978 64.3666C116.561 63.7831 116.889 62.9918 116.889 62.1667V49.7222C116.889 48.8971 116.561 48.1058 115.978 47.5223C115.394 46.9389 114.603 46.6111 113.778 46.6111H102.889L99.7778 43.5H92C91.1749 43.5 90.3835 43.8278 89.8001 44.4112C89.2166 44.9947 88.8889 45.786 88.8889 46.6111V53.6111H71.7778V45.0556C71.7778 44.643 71.6139 44.2473 71.3221 43.9556C71.0304 43.6639 70.6348 43.5 70.2222 43.5H68.6666C68.2541 43.5 67.8584 43.6639 67.5667 43.9556C67.275 44.2473 67.1111 44.643 67.1111 45.0556V83.1667C67.1111 83.9918 67.4389 84.7831 68.0223 85.3666C68.6058 85.95 69.3971 86.2778 70.2222 86.2778H88.8889V90.1667C88.8889 90.9918 89.2166 91.7831 89.8001 92.3666C90.3835 92.95 91.1749 93.2778 92 93.2778H113.778C114.603 93.2778 115.394 92.95 115.978 92.3666C116.561 91.7831 116.889 90.9918 116.889 90.1667V77.7222C116.889 76.8971 116.561 76.1058 115.978 75.5223C115.394 74.9389 114.603 74.6111 113.778 74.6111H102.889L99.7778 71.5H92C91.1749 71.5 90.3835 71.8278 89.8001 72.4112C89.2166 72.9947 88.8889 73.786 88.8889 74.6111V81.6111H71.7778V58.2778H88.8889V62.1667C88.8889 62.9918 89.2166 63.7831 89.8001 64.3666C90.3835 64.95 91.1749 65.2778 92 65.2778ZM93.5555 48.1667H97.845L100.956 51.2778H112.222V60.6111H93.5555V48.1667ZM93.5555 76.1667H97.845L100.956 79.2778H112.222V88.6111H93.5555V76.1667Z" fill="#0073EC"/>
</g>
<rect x="156" y="53.5" width="261" height="18" rx="9" fill="#F4F6F9"/>
<rect x="156" y="81.5" width="261" height="18" rx="9" fill="#F4F6F9"/>
<rect x="156" y="109.5" width="261" height="18" rx="9" fill="#F4F6F9"/>
<defs>
<clipPath id="clip0_469_1703">
<rect width="56" height="49.7778" fill="white" transform="translate(64 43.5)"/>
</clipPath>
</defs>
</svg>
