<svg width="472" height="171" viewBox="0 0 472 171" fill="none" xmlns="http://www.w3.org/2000/svg">
<rect width="472" height="171" fill="white"/>
<path d="M413 81.697L173 81.697" stroke="url(#paint0_linear_469_1695)" stroke-width="4"/>
<path d="M103.198 38.532C115.674 40.4226 125.321 50.9189 125.876 63.7864H126.816C127.528 63.7868 128.21 64.0695 128.713 64.5725C129.216 65.0755 129.499 65.7576 129.5 66.4691V78.8991C129.499 79.0774 129.481 79.2538 129.446 79.426V85.2986C129.481 85.4721 129.5 85.6498 129.5 85.8295V98.2594C129.497 98.9704 129.214 99.6516 128.711 100.154C128.208 100.657 127.527 100.941 126.816 100.943H71.4327C70.7219 100.94 70.0411 100.657 69.5386 100.154C69.0361 99.6512 68.7526 98.9702 68.75 98.2594V66.4691C68.753 65.7586 69.0366 65.0779 69.539 64.5755C70.0415 64.073 70.7221 63.7894 71.4327 63.7864H72.3737C72.9628 50.9566 82.5449 40.4775 95.001 38.5449C96.4894 38.2852 100.213 37.9192 103.198 38.532Z" fill="url(#paint1_radial_469_1695)" fill-opacity="0.25"/>
<path d="M112.597 71.882C112.987 70.9396 114.068 70.492 115.01 70.8824C115.952 71.2727 116.4 72.3531 116.01 73.2955C115.619 74.2379 114.539 74.6855 113.596 74.2951C112.654 73.9047 112.206 72.8243 112.597 71.882Z" fill="#0073EC"/>
<path d="M121.012 74.4358C122.032 74.4358 122.859 73.6089 122.859 72.5889C122.859 71.5689 122.032 70.742 121.012 70.742C119.992 70.742 119.165 71.5689 119.165 72.5889C119.165 73.6089 119.992 74.4358 121.012 74.4358Z" fill="#0073EC"/>
<path d="M106.543 70.886C106.787 70.8434 107.028 70.797 107.269 70.7494C107.727 70.7562 108.167 70.933 108.502 71.2455C108.838 71.5579 109.045 71.9838 109.084 72.4405C109.123 72.8973 108.992 73.3522 108.714 73.7173C108.437 74.0823 108.034 74.3314 107.584 74.4162C107.133 74.501 106.667 74.4155 106.276 74.1763C105.885 73.937 105.597 73.5611 105.467 73.1214C105.338 72.6817 105.376 72.2096 105.575 71.7965C105.774 71.3835 106.119 71.059 106.543 70.886Z" fill="#0073EC"/>
<path fill-rule="evenodd" clip-rule="evenodd" d="M126.816 63.6937H125.876C125.289 50.0872 114.536 39.1321 101.021 38.1999C100.918 38.1912 100.814 38.2032 100.715 38.2354C100.616 38.2675 100.525 38.319 100.446 38.387C100.368 38.4549 100.304 38.5379 100.257 38.631C100.211 38.7241 100.184 38.8254 100.178 38.9291C100.169 39.0324 100.181 39.1365 100.214 39.2351C100.246 39.3337 100.297 39.4249 100.365 39.5034C100.433 39.5818 100.516 39.6459 100.609 39.6919C100.701 39.7379 100.803 39.7648 100.906 39.7711C107.069 40.1755 112.866 42.8406 117.184 47.2553C121.503 51.67 124.041 57.5236 124.31 63.6937H122.904C122.562 57.6208 119.909 51.9089 115.489 47.7304C111.069 43.5519 105.217 41.2237 99.1344 41.2237C93.0518 41.2237 87.1999 43.5519 82.7797 47.7304C78.3595 51.9089 75.7064 57.6208 75.3647 63.6937H73.9638C74.2397 57.5271 76.7785 51.6785 81.0948 47.2657C85.4112 42.853 91.2024 40.1857 97.3614 39.7736C97.4649 39.7675 97.5662 39.7407 97.6593 39.6947C97.7523 39.6488 97.8352 39.5847 97.903 39.5062C97.9709 39.4278 98.0223 39.3365 98.0544 39.2378C98.0864 39.1391 98.0983 39.035 98.0894 38.9316C98.0834 38.8276 98.0566 38.7259 98.0106 38.6324C97.9647 38.5389 97.9004 38.4556 97.8217 38.3874C97.7429 38.3192 97.6513 38.2674 97.5522 38.2352C97.4532 38.203 97.3486 38.191 97.2448 38.1999C83.7123 39.1509 72.9977 50.1035 72.3737 63.6937H71.4327C70.7221 63.6967 70.0415 63.9803 69.539 64.4828C69.0366 64.9852 68.753 65.6659 68.75 66.3764V78.8064C68.753 79.5171 69.0365 80.1978 69.5389 80.7005C70.0414 81.2032 70.722 81.487 71.4327 81.4903H126.816C127.527 81.4874 128.208 81.2036 128.711 80.7009C129.213 80.1982 129.497 79.5173 129.5 78.8064V66.3764C129.499 65.6649 129.216 64.9828 128.713 64.4798C128.21 63.9768 127.528 63.6941 126.816 63.6937ZM79.5021 54.4891L80.8441 55.2559C81.0246 55.3601 81.239 55.3883 81.4403 55.3344C81.6415 55.2805 81.8131 55.1488 81.9173 54.9684C82.0215 54.7879 82.0497 54.5735 81.9958 54.3722C81.9419 54.1709 81.8102 53.9993 81.6298 53.8951L80.2878 53.1283C82.0788 50.2762 84.4917 47.8663 87.346 46.0788L88.1129 47.4196C88.1623 47.5129 88.23 47.5953 88.312 47.6619C88.394 47.7285 88.4886 47.7778 88.5901 47.807C88.6916 47.8362 88.798 47.8446 88.9028 47.8318C89.0077 47.8189 89.1088 47.785 89.2003 47.7322C89.2917 47.6793 89.3716 47.6086 89.4351 47.5242C89.4986 47.4398 89.5444 47.3434 89.5698 47.2409C89.5952 47.1384 89.5997 47.0318 89.5829 46.9275C89.5662 46.8232 89.5286 46.7233 89.4724 46.6339L88.6867 45.2932C91.6563 43.7026 94.9529 42.8188 98.3199 42.7107V44.2582C98.3199 44.4666 98.4027 44.6664 98.55 44.8137C98.6974 44.9611 98.8972 45.0438 99.1056 45.0438C99.3139 45.0438 99.5138 44.9611 99.6611 44.8137C99.8084 44.6664 99.8912 44.4666 99.8912 44.2582V42.7107C103.258 42.8185 106.555 43.7023 109.524 45.2932L108.758 46.6339C108.706 46.7233 108.672 46.8219 108.659 46.9242C108.646 47.0265 108.652 47.1304 108.679 47.2301C108.706 47.3297 108.752 47.4232 108.815 47.505C108.877 47.5869 108.956 47.6555 109.045 47.7071C109.134 47.7587 109.233 47.7922 109.335 47.8057C109.438 47.8191 109.542 47.8123 109.641 47.7856C109.741 47.7589 109.834 47.7128 109.916 47.65C109.998 47.5872 110.067 47.5089 110.118 47.4196L110.885 46.0788C113.737 47.8674 116.147 50.2778 117.936 53.1296L116.595 53.8964C116.415 54.0006 116.283 54.1722 116.229 54.3734C116.175 54.5747 116.203 54.7892 116.308 54.9696C116.412 55.1501 116.583 55.2817 116.785 55.3357C116.986 55.3896 117.2 55.3614 117.381 55.2572L118.722 54.4903C120.315 57.4609 121.2 60.7594 121.309 64.1285H111.119C111.021 62.5124 110.592 60.9336 109.859 59.4897C109.126 58.0458 108.105 56.7674 106.859 55.7333L108.181 53.4528C108.321 53.2082 108.411 52.9382 108.445 52.6585C108.479 52.3789 108.457 52.0952 108.381 51.8241C108.304 51.5529 108.174 51.2998 107.998 51.0795C107.823 50.8592 107.605 50.676 107.358 50.5408C106.877 50.2796 106.312 50.2175 105.785 50.3679C105.259 50.5183 104.812 50.8692 104.541 51.3453L103.219 53.6257C101.911 53.1507 100.529 52.9106 99.1369 52.9165C96.0914 52.9183 93.1604 54.077 90.9369 56.1581C88.7134 58.2393 87.3636 61.0873 87.1606 64.126H76.9247L76.9159 64.1185C77.0354 60.7539 77.9198 57.4608 79.5021 54.4891ZM105.045 65.5156C104.899 66.9742 104.216 68.3264 103.129 69.3099C102.042 70.2934 100.628 70.838 99.1626 70.838C97.6967 70.838 96.2831 70.2934 95.1962 69.3099C94.1092 68.3264 93.4264 66.9742 93.2803 65.5156C93.2462 65.1415 93.0744 64.7934 92.7982 64.5387C92.522 64.2841 92.1611 64.141 91.7855 64.1373H88.7782C88.9031 62.5592 89.3844 61.03 90.1859 59.6649C90.9874 58.2998 92.0882 57.1343 93.4054 56.2563C94.7225 55.3782 96.2218 54.8104 97.7901 54.5957C99.3585 54.381 100.955 54.5249 102.46 55.0166L99.1256 60.7805C98.0278 60.7881 96.978 61.2315 96.2071 62.0132C95.4362 62.7949 95.0075 63.8508 95.0151 64.9486C95.0228 66.0465 95.4662 67.0963 96.2479 67.8671C97.0296 68.638 98.0854 69.0668 99.1833 69.0591C99.8715 69.0559 100.548 68.8826 101.153 68.5547C101.758 68.2268 102.273 67.7544 102.652 67.1796C102.712 67.0929 102.754 66.995 102.775 66.8917C102.797 66.7884 102.798 66.6818 102.777 66.5783C102.757 66.4748 102.716 66.3763 102.657 66.2888C102.598 66.2014 102.522 66.1266 102.434 66.069C102.345 66.0113 102.246 65.972 102.143 65.9533C102.039 65.9346 101.932 65.9369 101.829 65.9601C101.726 65.9832 101.629 66.0268 101.543 66.0882C101.457 66.1496 101.385 66.2276 101.33 66.3175C101.028 66.7821 100.584 67.1367 100.064 67.3285C99.5448 67.5202 98.977 67.5388 98.4459 67.3815C97.9147 67.2241 97.4487 66.8993 97.1172 66.4555C96.7858 66.0116 96.6067 65.4725 96.6067 64.9186C96.6067 64.3646 96.7858 63.8255 97.1172 63.3816C97.4487 62.9378 97.9147 62.613 98.4459 62.4556C98.977 62.2983 99.5448 62.3169 100.064 62.5086C100.584 62.7004 101.028 63.055 101.33 63.5196C101.431 63.6732 101.582 63.7868 101.758 63.8408C101.934 63.8949 102.123 63.886 102.293 63.8157C102.463 63.7455 102.604 63.6182 102.69 63.4558C102.776 63.2933 102.804 63.1059 102.767 62.9256L106.119 57.1204C108.157 58.9107 109.41 61.4312 109.606 64.1373H106.54C106.163 64.1382 105.801 64.2803 105.524 64.5355C105.247 64.7907 105.076 65.1404 105.045 65.5156ZM105.908 52.1209C105.977 52.0015 106.088 51.9131 106.22 51.8739C106.352 51.8347 106.494 51.8477 106.616 51.9104C106.679 51.9426 106.736 51.9875 106.781 52.0422C106.826 52.0969 106.86 52.1603 106.88 52.2285C106.899 52.2968 106.905 52.3683 106.896 52.4388C106.887 52.5093 106.864 52.5772 106.828 52.6384L105.16 55.5128C105.063 55.6799 104.796 56.1438 104.448 56.7469L104.447 56.749C103.49 58.4071 101.929 61.115 101.634 61.6062C101.349 61.3937 101.04 61.2138 100.714 61.0699L105.908 52.1209ZM127.496 78.8101C127.496 78.9872 127.426 79.1571 127.301 79.2824C127.176 79.4076 127.006 79.478 126.829 79.478H71.4327C71.2556 79.478 71.0857 79.4076 70.9605 79.2824C70.8352 79.1571 70.7649 78.9872 70.7649 78.8101V66.3802C70.7645 66.2923 70.7816 66.2052 70.815 66.1239C70.8484 66.0425 70.8975 65.9686 70.9596 65.9063C71.0216 65.844 71.0954 65.7946 71.1765 65.7609C71.2577 65.7272 71.3448 65.7098 71.4327 65.7098H78.8105L78.7992 65.6998H91.689C91.709 65.9304 91.7466 66.1597 91.7855 66.3714C92.133 68.1297 93.0997 69.705 94.51 70.8111C95.9202 71.9173 97.6805 72.4809 99.4709 72.3996C101.261 72.3183 102.963 71.5975 104.268 70.3682C105.572 69.1388 106.392 67.4824 106.579 65.6998H119.45L119.438 65.7098H126.831C127.008 65.7098 127.178 65.78 127.303 65.905C127.428 66.03 127.499 66.1995 127.499 66.3764L127.496 78.8101Z" fill="#0073EC"/>
<path d="M122.808 91.5282C123.043 92.521 122.428 93.5157 121.435 93.75C120.442 93.9843 119.448 93.3695 119.213 92.3767C118.979 91.384 119.594 90.3892 120.587 90.1549C121.579 89.9206 122.574 90.5355 122.808 91.5282Z" fill="#0073EC"/>
<path d="M109.091 91.9555C109.091 92.9755 108.264 93.8025 107.244 93.8025C106.224 93.8025 105.397 92.9755 105.397 91.9555C105.397 90.9355 106.224 90.1086 107.244 90.1086C108.264 90.1086 109.091 90.9355 109.091 91.9555Z" fill="#0073EC"/>
<path d="M115.61 90.6426C116.331 91.3639 116.331 92.5333 115.61 93.2546C114.889 93.9758 113.719 93.9758 112.998 93.2546C112.277 92.5333 112.277 91.3639 112.998 90.6426C113.719 89.9213 114.889 89.9213 115.61 90.6426Z" fill="#0073EC"/>
<path fill-rule="evenodd" clip-rule="evenodd" d="M126.816 83.0578H71.4327C70.7228 83.0608 70.0427 83.3439 69.5403 83.8455C69.038 84.3472 68.754 85.0268 68.75 85.7368V98.1667C68.7526 98.8775 69.0361 99.5585 69.5386 100.061C70.0411 100.564 70.7219 100.848 71.4327 100.851H126.816C127.527 100.848 128.208 100.564 128.711 100.062C129.214 99.5589 129.497 98.8777 129.5 98.1667V85.7368C129.498 85.0259 129.215 84.3447 128.712 83.8425C128.209 83.3403 127.527 83.0582 126.816 83.0578ZM127.498 98.1705C127.498 98.3476 127.427 98.5175 127.302 98.6427C127.177 98.7679 127.007 98.8383 126.83 98.8383H71.4327C71.2556 98.8383 71.0857 98.7679 70.9605 98.6427C70.8352 98.5175 70.7649 98.3476 70.7649 98.1705V85.7405C70.7645 85.6526 70.7816 85.5655 70.815 85.4842C70.8484 85.4029 70.8975 85.3289 70.9596 85.2667C71.0216 85.2044 71.0954 85.155 71.1765 85.1212C71.2577 85.0875 71.3448 85.0702 71.4327 85.0702H126.829C127.005 85.0702 127.175 85.1404 127.3 85.2653C127.426 85.3903 127.496 85.5599 127.496 85.7368L127.498 98.1705Z" fill="#0073EC"/>
<rect x="62" y="119.697" width="261" height="18" rx="9" fill="#F4F6F9"/>
<defs>
<linearGradient id="paint0_linear_469_1695" x1="205.211" y1="95.7054" x2="404.113" y2="92.1041" gradientUnits="userSpaceOnUse">
<stop stop-color="#0073EC"/>
<stop offset="1" stop-color="#0073EC" stop-opacity="0"/>
</linearGradient>
<radialGradient id="paint1_radial_469_1695" cx="0" cy="0" r="1" gradientUnits="userSpaceOnUse" gradientTransform="translate(99.125 69.5702) rotate(90) scale(31.3732 30.375)">
<stop stop-color="#0073EC"/>
<stop offset="1" stop-color="#0073EC" stop-opacity="0"/>
</radialGradient>
</defs>
</svg>
