<svg width="449" height="54" viewBox="0 0 449 54" fill="none" xmlns="http://www.w3.org/2000/svg">
<g clip-path="url(#clip0_469_1740)">
<path d="M108.328 2.78125H105.622C104.964 2.78125 104.435 3.32305 104.45 3.98105L104.68 13.6075C100.341 7.08232 92.9234 2.78125 84.5 2.78125C72.6653 2.78125 62.8138 11.2699 60.7008 22.4906C60.5652 23.2103 61.1215 23.875 61.8538 23.875H64.6444C65.1985 23.875 65.6739 23.4861 65.7906 22.9444C67.6485 14.3172 75.3122 7.85938 84.5 7.85938C92.2681 7.85938 98.9475 12.4768 101.949 19.1193L89.6061 18.8255C88.9481 18.8099 88.4062 19.3389 88.4062 19.9971V22.7031C88.4062 23.3503 88.931 23.875 89.5781 23.875H108.328C108.975 23.875 109.5 23.3503 109.5 22.7031V3.95312C109.5 3.30596 108.975 2.78125 108.328 2.78125ZM107.146 30.125H104.356C103.801 30.125 103.326 30.5139 103.209 31.0556C101.351 39.6828 93.6878 46.1406 84.5 46.1406C76.7318 46.1406 70.0525 41.5232 67.0512 34.8807L79.3939 35.1745C80.0519 35.1901 80.5938 34.6611 80.5938 34.0029V31.2969C80.5938 30.6497 80.069 30.125 79.4219 30.125H60.6719C60.0247 30.125 59.5 30.6497 59.5 31.2969V50.0469C59.5 50.694 60.0247 51.2188 60.6719 51.2188H63.378C64.0361 51.2188 64.5652 50.677 64.5496 50.0189L64.3204 40.3925C68.659 46.9177 76.0766 51.2188 84.5 51.2188C96.3347 51.2188 106.186 42.7301 108.299 31.5094C108.435 30.7897 107.879 30.125 107.146 30.125Z" fill="black"/>
</g>
<rect x="59" y="1.5" width="51" height="51" stroke="#FF4A48"/>
<path d="M2.852 26.022L3.02 23.418H7.206V22.2H1.844L1.48 27.282H4.252C5.442 27.282 6.296 27.968 6.296 29.102C6.296 30.236 5.456 30.908 4.224 30.908C3.146 30.908 2.362 30.404 2.096 29.452L0.99 30.082C1.452 31.44 2.726 32.182 4.224 32.182C5.162 32.182 5.946 31.902 6.604 31.356C7.262 30.81 7.584 30.054 7.584 29.102C7.584 28.136 7.262 27.394 6.618 26.848C5.988 26.302 5.204 26.022 4.28 26.022H2.852ZM15.0515 30.796C15.7095 29.872 16.0455 28.64 16.0455 27.1C16.0455 25.56 15.7095 24.328 15.0515 23.404C14.3935 22.48 13.4555 22.018 12.2655 22.018C11.0755 22.018 10.1375 22.48 9.47947 23.404C8.82147 24.328 8.48547 25.56 8.48547 27.1C8.48547 28.64 8.82147 29.872 9.47947 30.796C10.1375 31.72 11.0755 32.182 12.2655 32.182C13.4555 32.182 14.3935 31.72 15.0515 30.796ZM9.78747 27.1C9.78747 24.65 10.6835 23.278 12.2655 23.278C13.8475 23.278 14.7575 24.678 14.7575 27.1C14.7575 29.522 13.8475 30.908 12.2655 30.908C10.6835 30.908 9.78747 29.522 9.78747 27.1ZM21.4618 24.818C20.2998 24.818 19.4178 25.28 18.8158 26.204V25H17.5978V34.8H18.8158V30.796C19.4178 31.72 20.2998 32.182 21.4618 32.182C22.4418 32.182 23.2818 31.832 23.9678 31.118C24.6538 30.404 25.0038 29.522 25.0038 28.5C25.0038 27.478 24.6538 26.61 23.9678 25.896C23.2818 25.182 22.4418 24.818 21.4618 24.818ZM21.3078 31.006C20.5938 31.006 20.0058 30.768 19.5298 30.292C19.0538 29.802 18.8158 29.214 18.8158 28.5C18.8158 27.786 19.0538 27.198 19.5298 26.722C20.0058 26.232 20.5938 25.994 21.3078 25.994C22.0078 25.994 22.5958 26.232 23.0718 26.722C23.5478 27.198 23.7858 27.786 23.7858 28.5C23.7858 29.214 23.5478 29.802 23.0718 30.292C22.5958 30.768 22.0078 31.006 21.3078 31.006ZM29.367 28.388L31.887 25H30.459L28.653 27.436L26.847 25H25.405L27.939 28.402L25.251 32H26.679L28.653 29.354L30.613 32H32.041L29.367 28.388Z" fill="black"/>
<g clip-path="url(#clip1_469_1740)">
<path d="M200.107 25.0119L189.994 10.2606C189.569 9.64004 189.002 9.13306 188.342 8.78295C187.681 8.43284 186.947 8.24999 186.202 8.25H160.233C159.488 8.24999 158.754 8.43284 158.093 8.78295C157.433 9.13306 156.866 9.64004 156.44 10.2606L146.327 25.0119C145.789 25.7976 145.5 26.7318 145.5 27.6889V41.0625C145.5 43.6514 147.568 45.75 150.12 45.75H196.315C198.867 45.75 200.935 43.6514 200.935 41.0625V27.6889C200.935 26.7317 200.646 25.7977 200.107 25.0119V25.0119ZM160.233 12.9375H186.202L193.701 23.875H152.734L160.233 12.9375V12.9375ZM196.315 41.0625H150.12V28.5625H196.315V41.0625ZM193.236 34.8125C193.236 36.5384 191.857 37.9375 190.156 37.9375C188.455 37.9375 187.076 36.5384 187.076 34.8125C187.076 33.0866 188.455 31.6875 190.156 31.6875C191.857 31.6875 193.236 33.0866 193.236 34.8125ZM183.996 34.8125C183.996 36.5384 182.618 37.9375 180.917 37.9375C179.216 37.9375 177.837 36.5384 177.837 34.8125C177.837 33.0866 179.216 31.6875 180.917 31.6875C182.618 31.6875 183.996 33.0866 183.996 34.8125Z" fill="black"/>
</g>
<rect x="145" y="1.5" width="56.4348" height="51" stroke="#FF4A48"/>
<path d="M0 1H447.5" stroke="#D9D9D9" stroke-dasharray="2 2"/>
<path d="M0 53H447.5" stroke="#D9D9D9" stroke-dasharray="2 2"/>
<g clip-path="url(#clip2_469_1740)">
<path d="M272.837 26.9588L248.984 3.82015C245.134 -0.0589525 238.293 2.67493 238.293 8.13988V42.2328C238.293 47.6275 244.976 50.4249 248.934 46.6007L251.305 44.3108L253.042 48.2824L253.054 48.3098L253.066 48.3366C254.444 51.3781 258.049 52.8184 261.206 51.5248L265.357 49.8261L265.382 49.8158L265.407 49.8051C266.955 49.1511 268.148 47.9459 268.767 46.4117C269.38 44.8936 269.354 43.2312 268.695 41.7307L266.842 37.4902H268.479C274.012 37.4904 276.916 30.8022 272.837 26.9588V26.9588ZM268.491 32.8029H259.614L264.331 43.593C264.66 44.3411 264.284 45.1798 263.533 45.4972L259.38 47.1973C258.606 47.5147 257.737 47.1519 257.409 46.4266L252.927 36.1805L245.606 43.2531C244.637 44.1889 243.048 43.4782 243.048 42.2328V8.13968C243.048 6.83997 244.73 6.20326 245.606 7.11966L269.547 30.332C270.517 31.2198 269.8 32.8029 268.491 32.8029V32.8029Z" fill="black"/>
</g>
<rect x="237" y="1.5" width="39.0435" height="51" stroke="#FF4A48"/>
<g clip-path="url(#clip3_469_1740)">
<path d="M361.158 47.791L349.303 35.9355C349.078 35.7109 348.785 35.5938 348.473 35.5938H347.184C350.26 32.0293 352.125 27.3906 352.125 22.3125C352.125 11.0918 343.033 2 331.812 2C320.592 2 311.5 11.0918 311.5 22.3125C311.5 33.5332 320.592 42.625 331.812 42.625C336.891 42.625 341.529 40.7598 345.094 37.6836V38.9727C345.094 39.2852 345.221 39.5781 345.436 39.8027L357.291 51.6582C357.75 52.1172 358.492 52.1172 358.951 51.6582L361.158 49.4512C361.617 48.9922 361.617 48.25 361.158 47.791ZM331.812 37.9375C323.18 37.9375 316.188 30.9453 316.188 22.3125C316.188 13.6797 323.18 6.6875 331.812 6.6875C340.445 6.6875 347.438 13.6797 347.438 22.3125C347.438 30.9453 340.445 37.9375 331.812 37.9375Z" fill="black"/>
</g>
<rect x="311" y="1.5" width="51" height="51" stroke="#FF4A48"/>
<g clip-path="url(#clip4_469_1740)">
<path d="M443.034 29.9971C443.891 28.5469 444.375 27 444.375 25.1299C444.375 20.8315 440.74 16.7725 435.994 16.7725H432.432C432.912 15.5215 433.296 14.0254 433.296 12.2275C433.296 5.11875 429.615 2 423.992 2C417.976 2 418.319 11.2708 416.984 12.6055C414.763 14.8269 412.139 19.0944 410.27 20.75H400.625C398.899 20.75 397.5 22.1491 397.5 23.875V47.3125C397.5 49.0384 398.899 50.4375 400.625 50.4375H406.875C408.329 50.4375 409.552 49.4439 409.9 48.0986C414.247 48.1964 417.23 51.999 427.264 51.999C427.969 51.999 428.75 52 429.434 52C436.965 52 440.37 48.1501 440.463 42.6904C441.764 40.8911 442.445 38.4793 442.156 36.1484C443.119 34.3465 443.491 32.2087 443.034 29.9971ZM437.004 35.2539C438.23 37.3174 437.127 40.0791 435.643 40.876C436.395 45.6396 433.923 47.3115 430.455 47.3115H426.762C419.766 47.3115 415.235 43.6182 410 43.6182V25.4375H411.066C413.836 25.4375 417.705 18.5146 420.299 15.9199C423.068 13.1504 422.146 8.53418 423.992 6.6875C428.608 6.6875 428.608 9.9082 428.608 12.2275C428.608 16.0527 425.839 17.7666 425.839 21.46H435.994C438.056 21.46 439.679 23.3066 439.688 25.1533C439.696 26.999 438.436 28.8457 437.513 28.8457C438.83 30.2671 439.111 33.2633 437.004 35.2539V35.2539ZM406.094 44.1875C406.094 45.4819 405.044 46.5312 403.75 46.5312C402.456 46.5312 401.406 45.4819 401.406 44.1875C401.406 42.8931 402.456 41.8438 403.75 41.8438C405.044 41.8438 406.094 42.8931 406.094 44.1875Z" fill="black"/>
</g>
<rect x="397" y="1.5" width="51" height="51" stroke="#FF4A48"/>
<line x1="52.5" y1="1.5" x2="40.5" y2="1.5" stroke="#FF4A48"/>
<line x1="52.5" y1="53.5" x2="40.5" y2="53.5" stroke="#FF4A48"/>
<line x1="47" y1="1" x2="47" y2="53" stroke="#FF4A48"/>
<defs>
<clipPath id="clip0_469_1740">
<rect x="59.5" y="2" width="50" height="50" fill="white"/>
</clipPath>
<clipPath id="clip1_469_1740">
<rect x="145.5" y="2" width="55.4348" height="50" fill="white"/>
</clipPath>
<clipPath id="clip2_469_1740">
<rect x="237.5" y="2" width="38.0435" height="50" fill="white"/>
</clipPath>
<clipPath id="clip3_469_1740">
<rect x="311.5" y="2" width="50" height="50" fill="white"/>
</clipPath>
<clipPath id="clip4_469_1740">
<rect x="397.5" y="2" width="50" height="50" fill="white"/>
</clipPath>
</defs>
</svg>
