<svg width="466" height="82" viewBox="0 0 466 82" fill="none" xmlns="http://www.w3.org/2000/svg">
<circle cx="36.4631" cy="39.0512" r="36.4631" fill="#F4F6F9"/>
<g clip-path="url(#clip0_469_1713)">
<rect width="46.3164" height="46.3141" transform="translate(12.9688 15.5562)" fill="#F4F6F9"/>
<path d="M36.1269 16.2798C23.7336 16.2798 13.6924 26.3205 13.6924 38.7132C13.6924 51.1058 23.7336 61.1465 36.1269 61.1465C48.5202 61.1465 58.5614 51.1058 58.5614 38.7132C58.5614 26.3205 48.5202 16.2798 36.1269 16.2798ZM36.1269 56.8046C26.1309 56.8046 18.0345 48.7087 18.0345 38.7132C18.0345 28.7176 26.1309 20.6217 36.1269 20.6217C46.1229 20.6217 54.2193 28.7176 54.2193 38.7132C54.2193 48.7087 46.1229 56.8046 36.1269 56.8046ZM41.7174 47.3609L34.0372 41.7797C33.7568 41.5716 33.594 41.246 33.594 40.9022V26.0492C33.594 25.4521 34.0825 24.9637 34.6795 24.9637H37.5743C38.1713 24.9637 38.6598 25.4521 38.6598 26.0492V38.8669L44.7027 43.2631C45.1912 43.6159 45.2907 44.2944 44.9379 44.7828L43.2372 47.1257C42.8844 47.6051 42.2059 47.7136 41.7174 47.3609Z" fill="#0073EC"/>
</g>
<rect x="96.0833" y="2" width="74.1025" height="74.1025" rx="14.8205" fill="#00CAAA"/>
<path d="M133.136 16.6179C120.743 16.6179 110.701 26.6587 110.701 39.0513C110.701 51.4439 120.743 61.4847 133.136 61.4847C145.529 61.4847 155.57 51.4439 155.57 39.0513C155.57 26.6587 145.529 16.6179 133.136 16.6179ZM133.136 57.1427C123.14 57.1427 115.044 49.0468 115.044 39.0513C115.044 29.0558 123.14 20.9599 133.136 20.9599C143.132 20.9599 151.228 29.0558 151.228 39.0513C151.228 49.0468 143.132 57.1427 133.136 57.1427ZM138.726 47.699L131.046 42.1178C130.766 41.9097 130.603 41.5841 130.603 41.2404V26.3873C130.603 25.7903 131.092 25.3018 131.689 25.3018H134.583C135.18 25.3018 135.669 25.7903 135.669 26.3873V39.2051L141.712 43.6013C142.2 43.9541 142.3 44.6325 141.947 45.121L140.246 47.4638C139.893 47.9432 139.215 48.0518 138.726 47.699Z" fill="white"/>
<rect x="193.343" y="2" width="74.1025" height="74.1025" rx="14.8205" fill="#A644E5"/>
<g clip-path="url(#clip1_469_1713)">
<path d="M230.395 16.6179C218.002 16.6179 207.961 26.6587 207.961 39.0513C207.961 51.4439 218.002 61.4847 230.395 61.4847C242.788 61.4847 252.83 51.4439 252.83 39.0513C252.83 26.6587 242.788 16.6179 230.395 16.6179ZM230.395 57.1427C220.399 57.1427 212.303 49.0468 212.303 39.0513C212.303 29.0558 220.399 20.9599 230.395 20.9599C240.391 20.9599 248.488 29.0558 248.488 39.0513C248.488 49.0468 240.391 57.1427 230.395 57.1427ZM235.986 47.699L228.306 42.1178C228.025 41.9097 227.862 41.5841 227.862 41.2404V26.3873C227.862 25.7903 228.351 25.3018 228.948 25.3018H231.843C232.44 25.3018 232.928 25.7903 232.928 26.3873V39.2051L238.971 43.6013C239.459 43.9541 239.559 44.6325 239.206 45.121L237.506 47.4638C237.153 47.9432 236.474 48.0518 235.986 47.699Z" fill="white"/>
</g>
<rect x="290.602" y="2" width="74.1025" height="74.1025" rx="14.8205" fill="#0073EC"/>
<g clip-path="url(#clip2_469_1713)">
<path d="M327.655 16.6179C315.261 16.6179 305.22 26.6587 305.22 39.0513C305.22 51.4439 315.261 61.4847 327.655 61.4847C340.048 61.4847 350.089 51.4439 350.089 39.0513C350.089 26.6587 340.048 16.6179 327.655 16.6179ZM327.655 57.1427C317.659 57.1427 309.562 49.0468 309.562 39.0513C309.562 29.0558 317.659 20.9599 327.655 20.9599C337.651 20.9599 345.747 29.0558 345.747 39.0513C345.747 49.0468 337.651 57.1427 327.655 57.1427ZM333.245 47.699L325.565 42.1178C325.285 41.9097 325.122 41.5841 325.122 41.2404V26.3873C325.122 25.7903 325.61 25.3018 326.207 25.3018H329.102C329.699 25.3018 330.188 25.7903 330.188 26.3873V39.2051L336.231 43.6013C336.719 43.9541 336.819 44.6325 336.466 45.121L334.765 47.4638C334.412 47.9432 333.734 48.0518 333.245 47.699Z" fill="white"/>
</g>
<g filter="url(#filter0_d_469_1713)">
<rect x="387.862" y="2" width="74.1025" height="74.1025" rx="14.8205" fill="white"/>
</g>
<path d="M424.915 16.6179C412.521 16.6179 402.48 26.6587 402.48 39.0513C402.48 51.4439 412.521 61.4847 424.915 61.4847C437.308 61.4847 447.349 51.4439 447.349 39.0513C447.349 26.6587 437.308 16.6179 424.915 16.6179ZM424.915 57.1427C414.918 57.1427 406.822 49.0468 406.822 39.0513C406.822 29.0558 414.918 20.9599 424.915 20.9599C434.911 20.9599 443.007 29.0558 443.007 39.0513C443.007 49.0468 434.911 57.1427 424.915 57.1427ZM430.505 47.699L422.825 42.1178C422.544 41.9097 422.382 41.5841 422.382 41.2404V26.3873C422.382 25.7903 422.87 25.3018 423.467 25.3018H426.362C426.959 25.3018 427.447 25.7903 427.447 26.3873V39.2051L433.49 43.6013C433.979 43.9541 434.078 44.6325 433.725 45.121L432.025 47.4638C431.672 47.9432 430.994 48.0518 430.505 47.699Z" fill="#0073EC"/>
<defs>
<filter id="filter0_d_469_1713" x="384.157" y="0.147438" width="81.5128" height="81.5128" filterUnits="userSpaceOnUse" color-interpolation-filters="sRGB">
<feFlood flood-opacity="0" result="BackgroundImageFix"/>
<feColorMatrix in="SourceAlpha" type="matrix" values="0 0 0 0 0 0 0 0 0 0 0 0 0 0 0 0 0 0 127 0" result="hardAlpha"/>
<feOffset dy="1.85256"/>
<feGaussianBlur stdDeviation="1.85256"/>
<feComposite in2="hardAlpha" operator="out"/>
<feColorMatrix type="matrix" values="0 0 0 0 0.14902 0 0 0 0 0.176471 0 0 0 0 0.462745 0 0 0 0.08 0"/>
<feBlend mode="normal" in2="BackgroundImageFix" result="effect1_dropShadow_469_1713"/>
<feBlend mode="normal" in="SourceGraphic" in2="effect1_dropShadow_469_1713" result="shape"/>
</filter>
<clipPath id="clip0_469_1713">
<rect width="46.3164" height="46.3141" fill="white" transform="translate(12.9688 15.5562)"/>
</clipPath>
<clipPath id="clip1_469_1713">
<rect width="46.3164" height="46.3141" fill="white" transform="translate(207.237 15.8943)"/>
</clipPath>
<clipPath id="clip2_469_1713">
<rect width="46.3164" height="46.3141" fill="white" transform="translate(304.497 15.8943)"/>
</clipPath>
</defs>
</svg>
