<svg width="316" height="146" viewBox="0 0 316 146" fill="none" xmlns="http://www.w3.org/2000/svg">
<rect width="316" height="146" fill="white"/>
<circle cx="93" cy="38" r="21.5" fill="black" stroke="#E0E4E8"/>
<path d="M179.5 38C179.5 49.885 170.087 59.5 158.5 59.5C146.913 59.5 137.5 49.885 137.5 38C137.5 26.115 146.913 16.5 158.5 16.5C170.087 16.5 179.5 26.115 179.5 38Z" fill="#111111" stroke="#E0E4E8"/>
<circle cx="224" cy="38" r="21.5" fill="#071C26" stroke="#E0E4E8"/>
<circle cx="190" cy="107" r="21.5" fill="#0073EC" stroke="#E0E4E8"/>
<path d="M145.5 107C145.5 118.885 136.087 128.5 124.5 128.5C112.913 128.5 103.5 118.885 103.5 107C103.5 95.115 112.913 85.5 124.5 85.5C136.087 85.5 145.5 95.115 145.5 107Z" fill="#A644E5" stroke="#E0E4E8"/>
<circle cx="256" cy="107" r="21.5" fill="#D9D9D9" stroke="#E0E4E8"/>
<path d="M80.5 107C80.5 118.885 71.0872 128.5 59.5 128.5C47.9128 128.5 38.5 118.885 38.5 107C38.5 95.115 47.9128 85.5 59.5 85.5C71.0872 85.5 80.5 95.115 80.5 107Z" fill="white" stroke="#E0E4E8"/>
</svg>
