<svg id="Layer_1" xmlns="http://www.w3.org/2000/svg" viewBox="0 0 1152 1152"><style>.st0{fill:#fff}.st1{fill:#a644e5}.st1,.st2{opacity:.4;enable-background:new}.st2,.st3{fill:#0073ec}</style><path class="st0" d="M357 776.1c7.2 1.5 16 6.1 18.9 14.4 1.5 4.3 1.3 6.8.8 11.5h-18.9l1.2-11.8c.1-1.2-.3-2.4-1.2-3.2-.9-.8-2-1.3-3.2-1.1-4.8.5-9.7 1-14.1-.2-3.4-1-7.2-3.5-7.8-7.2-.1-.3-.1-.6-.1-.9 0-.3-.1-.7-.2-1.1 8.3-1.1 16.7-2 24.6-.4z"/><path class="st0" d="M273.2 802l10-25.2L302 790c1.1.8 3.2 2.2 5.9 2 3.7-.3 5.6-3.3 6.7-5.1 2.2-3.4 5.1-6.4 8.4-8.6.6-.4 1.1-.6 1.5-.8.1.3.1.7.1 1 .1.4.1.8.2 1.3 1.1 6.2 6.4 11.6 13.5 13.5 4.1 1.1 8.3 1.2 12.2.9l-.8 7.8h-76.5z"/><path class="st0" d="M235.1 765.7c.9.2 2.1.6 3.5 1.2 2.3.9 5 2 8 1.9 6.8-.1 11-5.3 14.7-9.8 2.6-3.2 4.5-5.4 6.5-6.3 5.4 8.5 15.9 13.5 25.9 12.2 3.8-.5 7.2-1.8 10.6-3 2.7-1 5.2-2 7.8-2.4 4.5-.8 10.1.7 10.9 4.3.2.8.2 1.9.2 3 0 .9 0 2 .2 3-1.5.3-3.2 1-4.8 2.1-4.3 2.9-8 6.7-10.8 11-.2.3-.5.8-.8 1.1-.2-.1-.4-.2-.5-.3l-23-16.2c-1-.7-2.3-.9-3.4-.6-1.2.3-2.1 1.2-2.6 2.4l-12.9 32.4c-.1.2-.1.3-.1.5h-19.4c-7.8-10.4-11.5-23.7-10-36.5zm137.3 275.5H236.9L215.6 810h187.7l-30.9 231.2zm169.7-601l46.9-4.1c3.6-.3 7 .9 9.7 3.3s4.1 5.8 4.1 9.4v.1h-71.7c1.6-4.7 5.8-8.2 11-8.7zm-365.2-87.8v-20.7H569v20.7c0 17.4-14.1 31.5-31.5 31.5h-329c-17.4 0-31.6-14.2-31.6-31.5zM333 414.5l3.2-22.6h77.1l3.3 22.6 3.1 21.5h-89.8l3.1-21.5zM290.5 444h169.4v4.9H290.5V444zm-161.4 40.7h28v555.6h-28V484.7zm32-8H75.7v-19.8h571.2c-4 6.3-8 12.9-12.2 19.8H161.1zm15.8-331.6c0-17.4 14.1-31.5 31.5-31.5h329c17.4 0 31.5 14.1 31.5 31.5v178.5h-392V145.1z"/><path class="st1" d="M176.9 145.1c0-17.4 14.1-31.5 31.5-31.5h329c17.4 0 31.5 14.1 31.5 31.5v178.5h-392V145.1z"/><path class="st0" d="M204.2 142.5h217.3v18.3H204.2v-18.3zm0 26.3h217.3v128.8H204.2V168.8z"/><path class="st2" d="M307.5 198.7v49.4l-26-26c-.8-.8-2-1.3-3.1-1.2-1.2.1-2.2.7-2.9 1.6l-11.3 15.4-22.8-22.7c-.8-.8-2-1.3-3.1-1.2-1.2.1-2.2.7-2.9 1.6l-6.3 8.5v-25.5l78.4.1z"/><path class="st0" d="M716.4 762.1c-2.2 0-4 1.8-4 4 0 .5.1 1 .3 1.5-.1.3-.2.7-.3 1.1L692.7 975h-17c-2.8 0-5.5 1.1-7.5 3.1s-3 4.7-3 7.5c0 .7-.3 1.2-.6 1.5-.5.5-1.1.8-1.8.8h-26c-1.5-10.9-7.9-20-16.8-25.3V736.1c0-19.9 16.1-36 36-36h94.2c2.2 0 4-1.8 4-4s-1.8-4-4-4h-45.6v-10.9h186.2v44.9c0 19.9-16.1 36-36 36H716.4z"/><path class="st0" d="M489.9 736.1c0-19.9 16.1-36 36-36h104.7c-11.3 8-18.7 21.1-18.7 36V765h-18.5c-2.1 0-3.8 1.6-4 3.6l-19.7 206.3h-17c-2.8 0-5.5 1.1-7.5 3.1s-3 4.7-3 7.5c0 .7-.3 1.2-.6 1.5-.5.5-1.1.8-1.8.8h-26c-1.8-13.5-11.2-24.4-23.8-28.4V736.1h-.1z"/><path class="st2" d="M716.4 762.1c-2.2 0-4 1.8-4 4 0 .5.1 1 .3 1.5-.1.3-.2.7-.3 1.1L692.7 975h-17c-2.8 0-5.5 1.1-7.5 3.1s-3 4.7-3 7.5c0 .7-.3 1.2-.6 1.5-.5.5-1.1.8-1.8.8h-26c-1.5-10.9-7.9-20-16.8-25.3V736.1c0-19.9 16.1-36 36-36h94.2c2.2 0 4-1.8 4-4s-1.8-4-4-4h-45.6v-10.9h186.2v44.9c0 19.9-16.1 36-36 36H716.4z"/><path class="st2" d="M489.9 736.1c0-19.9 16.1-36 36-36h104.7c-11.3 8-18.7 21.1-18.7 36V765h-18.5c-2.1 0-3.8 1.6-4 3.6l-19.7 206.3h-17c-2.8 0-5.5 1.1-7.5 3.1s-3 4.7-3 7.5c0 .7-.3 1.2-.6 1.5-.5.5-1.1.8-1.8.8h-26c-1.8-13.5-11.2-24.4-23.8-28.4V736.1h-.1z"/><circle class="st0" cx="789.3" cy="1025.7" r="14.6"/><path class="st0" d="M711.3 1025.7c0 6.7-4.5 12.3-10.6 14v-28.1c6.1 1.8 10.6 7.4 10.6 14.1z"/><circle class="st0" cx="881.3" cy="1025.7" r="14.6"/><path class="st0" d="M917.4 622.4H779.5c-5.2 0-9.4-4.2-9.4-9.4s4.2-9.4 9.4-9.4h157.2c5.2 0 9.4 4.2 9.4 9.4v9.4h-28.7z"/><circle class="st1" cx="789.3" cy="1025.7" r="14.6"/><path class="st0" d="M879.9 762.1c4.2-2.9 7.8-6.6 10.8-10.8v10.8h-10.8zM554 1038.3c-.4-.6-.7-1.3-.8-2h139.6v4H557.9c-2.1 0-3.3-1.1-3.9-2zm138.7-36.6v26.5H559.3l45.2-34.4c1-.8 1.6-1.9 1.6-3.2v-24.7c2.8.4 5.5 1.3 8 2.5.1.1.2.1.3.1 8.5 4.3 14.3 13 14.6 23.2 0 1.1.6 2.3 1.5 3 .7.6 1.6.9 2.6.9h29.7c2.8 0 5.6-1.2 7.5-3.2s3-4.5 2.9-7.3c0-.7.2-1.3.7-1.8s1.1-.7 1.7-.7h17.1v16.8c0 .6-.1 1.1-.1 1.7.1.2.1.4.1.6zM611.9 808h-18.2l3.3-35h14.9v35zm55-247.7l-1.2-6c-.7-3.4 1.5-6.7 4.9-7.4 1.6-.3 3.3 0 4.7.9s2.3 2.3 2.7 4l1.6 8.2c.4 2 2.3 3.4 4.3 3.2l117.3-11.8c1.2-.1 2.3-.8 3-1.8l23.7-36.4 44.2 29.5-52.5 52.8-166-.4c-6.9 0-12.9-4.9-14.2-11.7-.8-4.1.2-8.3 2.6-11.6 2.5-3.3 6.3-5.4 10.4-5.8l11.1-1c1.1-.1 2.2-.7 2.9-1.6.5-.9.7-2 .5-3.1zm112.6 70.1h111.2v42.7H704.5v-70l60.5.1c-1.9 2.8-2.9 6.1-2.9 9.7 0 9.7 7.8 17.5 17.4 17.5zM913.4 762h-14.7V630.4h14.7V762zM798.9 347.6h.8c7.7 0 15.1-1 22.2-2.8v14.4c0 12.5-10.2 22.7-22.7 22.7s-22.7-10.2-22.7-22.7v-14.4c7.2 1.8 14.7 2.8 22.4 2.8z"/><path class="st0" d="M675.5 428.2c.1-.1.2-.3.2-.4 6.6-12.1 14.2-23.2 22.5-32.8 13.2-15.3 30.2-30.9 56-30.9h14.7c2.3 14.6 15 25.8 30.3 25.8s27.9-11.2 30.3-25.8h14c16 0 31.3 5.9 43.1 16.7 11 10 13.1 25.2 15.2 39.9 3.8 27 4.2 54.8 4 80.8 0 2 0 12-.1 24.8 0 25.2-.1 62.8-.2 69.4h-74.9l50.1-50.4.9-.9c1.2-1.8.7-4.3-1.1-5.5l-61.6-41.1 19.2-70.7c.6-2.1-.7-4.3-2.8-4.9s-4.3.7-4.9 2.8l-20 73.5c-.5 1.7.2 3.4 1.6 4.4l9 6-22.6 34.7-93.8 9.5 14.9-126.7c.3-2.2-1.3-4.2-3.5-4.4-2.2-.2-4.2 1.3-4.4 3.5l-13.4 114.1-66.9-41.5c16.1-27.7 31-51.2 44.2-69.9zM450.8 583.4c-.8-4.1.2-8.3 2.6-11.6 2.5-3.3 6.3-5.4 10.4-5.8l11.1-1c1.1-.1 2.2-.7 2.9-1.6.7-.9.9-2.1.7-3.2l-1.2-6c-.7-3.4 1.5-6.7 4.9-7.4 1.6-.3 3.3 0 4.7.9 1.4.9 2.3 2.3 2.7 4l1.6 8.2c.4 2 2.3 3.4 4.3 3.2l117.2-11.7c1.2-.1 2.3-.8 3-1.8l24-37 57.5 35.7-.6 5.3v.4l-9.7 1-.9-4.6c-.7-3.7-2.9-7-6.1-9.1-3.2-2.1-7-2.9-10.7-2.1-7.7 1.5-12.7 9.1-11.2 16.8l.3 1.6-6.6.6c-6.4.6-12.3 3.8-16.1 8.9-3.8 5.1-5.3 11.7-4.1 18 .8 4.1 2.7 7.7 5.4 10.7h-3.2c-.3-.1-.6-.1-1-.1l-167.6-.4c-7-.2-13-5.2-14.3-11.9zm63.8 29.6c0-5.2 4.2-9.4 9.4-9.4h172.5v18.8H524c-5.2 0-9.4-4.2-9.4-9.4zm128.6 17.4h14.7v61.7h-14.7v-61.7zM481.6 993.8c1-.8 1.6-1.9 1.6-3.2v-24.7c.1 0 .2 0 .3.1.7.5 1.5.9 2.5.9.3 0 .6 0 .9-.1 10.9 3.2 18.9 13.1 19.2 25.1 0 1.1.6 2.3 1.5 3 .7.6 1.6.9 2.6.9h29.7c2.8 0 5.6-1.2 7.5-3.2 1.9-2 3-4.5 2.9-7.3 0-.7.2-1.3.7-1.8s1.1-.7 1.7-.7h17.1v27.3l-20.3 15.4c-1 .8-1.8 1.6-2.6 2.6H436.3l45.3-34.3zm-50.6 44.5c-.4-.6-.7-1.3-.8-2h114.3c.1 1.2.3 2.3.7 3.5.1.2.1.4.2.6H435c-2.1-.1-3.3-1.2-4-2.1z"/><path class="st1" d="M711.3 1025.7c0 6.7-4.5 12.3-10.6 14v-28.1c6.1 1.8 10.6 7.4 10.6 14.1z"/><circle class="st1" cx="881.3" cy="1025.7" r="14.6"/><path class="st0" d="M876.8 997.1H701.1c1.8-8.4 9.3-14.7 18.2-14.7h139.3c8.9 0 16.4 6.3 18.2 14.7zM781.1 816h14.7v157.6h-14.7V816zM972 789c0 10.5-8.5 19-19 19H716.6l3.6-37.9h232.7c10.6 0 19.1 8.5 19.1 18.9zm-50.6-26.9v-54.5h13.9l-8.7 54.5h-5.2zm20.3-62.5h-20.3v-69.2h28.7c2.2 0 4-1.8 4-4V613c0-9.6-7.8-17.4-17.4-17.4h-23.1c.1-7.1.2-42.9.2-69.4 0-12.7 0-22.7.1-24.7.1-14.4 0-29.4-.7-44.5H969c10.2 0 20 4.4 26.8 12s10.1 17.8 9 27.9l-18.4 170.7c-2 18.3-17.4 32.1-35.8 32.1l-8.9-.1z"/><path class="st0" d="M975.8 699.6c10-7.1 17-18.2 18.4-31.3l18.4-170.7c1.3-12.4-2.7-24.8-11-34.1s-20.3-14.6-32.7-14.6h-56.2c-.4-6.3-.9-12.7-1.6-19h87.3c10.2 0 20 4.4 26.8 12 6.8 7.6 10.1 17.8 9 27.9l-21.4 197.7c-2 18.3-17.4 32.1-35.8 32.1h-1.2z"/><path class="st0" d="M1005.4 1040.3v-343c8.4-7.1 14.1-17.2 15.4-28.9l12.6-116.9v488.8h-28zm69.7-563.6h-33.6l.7-6.1c.5-4.6.3-9.3-.7-13.7h33.6v19.8zM717.8 258.4c0-2.2-1.8-4-4-4-7 0-12.8-5.7-12.8-12.8 0-3.8 1.7-7.3 4.4-9.6 1.3-.2 2.4-.9 3-2 1.6-.8 3.4-1.2 5.3-1.2h.1c.7 0 1.3-.2 1.8-.5.4 0 .8 0 1.2-.2 2.1-.6 3.3-2.9 2.7-5-.9-2.9-.5-5.8 1-8.4 1.5-2.6 3.9-4.4 6.8-5.1 7.6-1.8 13.3-8.1 14.3-15.9.4-3 1.9-5.5 4.3-7.3 2.4-1.8 5.4-2.4 8.3-1.8 7.6 1.5 15.5-2 19.5-8.7 1.5-2.5 4-4.3 6.9-4.9 2.9-.6 5.9 0 8.3 1.7 6.4 4.4 15 4.4 21.3 0 2.4-1.7 5.4-2.3 8.3-1.7 2.9.6 5.4 2.4 6.9 4.9 4 6.7 11.9 10.1 19.5 8.7 2.9-.6 5.9.1 8.3 1.8 2.4 1.8 3.9 4.3 4.3 7.3 1 7.7 6.7 14.1 14.3 15.9 2.9.7 5.3 2.5 6.8 5.1s1.8 5.6 1 8.4c-.6 2.1.6 4.3 2.7 5 .3.1.6.1.9.2.5.3 1.2.5 1.8.5h.1c7 0 12.7 5.8 12.7 12.8s-5.7 12.8-12.8 12.8c-2.2 0-4 1.9-4 4.1 0 44.7-36.4 81.1-81.1 81.1h-.8c-44.9 0-81.3-36.4-81.3-81.2z"/><path class="st0" d="M717.8 258.4c0-2.2-1.8-4-4-4-7 0-12.8-5.7-12.8-12.8 0-3.8 1.7-7.3 4.4-9.6 1.3-.2 2.4-.9 3-2 1.6-.8 3.4-1.2 5.3-1.2h.1c.7 0 1.3-.2 1.8-.5.4 0 .8 0 1.2-.2 2.1-.6 3.3-2.9 2.7-5-.9-2.9-.5-5.8 1-8.4 1.5-2.6 3.9-4.4 6.8-5.1 7.6-1.8 13.3-8.1 14.3-15.9.4-3 1.9-5.5 4.3-7.3 2.4-1.8 5.4-2.4 8.3-1.8 7.6 1.5 15.5-2 19.5-8.7 1.5-2.5 4-4.3 6.9-4.9 2.9-.6 5.9 0 8.3 1.7 6.4 4.4 15 4.4 21.3 0 2.4-1.7 5.4-2.3 8.3-1.7 2.9.6 5.4 2.4 6.9 4.9 4 6.7 11.9 10.1 19.5 8.7 2.9-.6 5.9.1 8.3 1.8 2.4 1.8 3.9 4.3 4.3 7.3 1 7.7 6.7 14.1 14.3 15.9 2.9.7 5.3 2.5 6.8 5.1s1.8 5.6 1 8.4c-.6 2.1.6 4.3 2.7 5 .3.1.6.1.9.2.5.3 1.2.5 1.8.5h.1c7 0 12.7 5.8 12.7 12.8s-5.7 12.8-12.8 12.8c-2.2 0-4 1.9-4 4.1 0 44.7-36.4 81.1-81.1 81.1h-.8c-44.9 0-81.3-36.4-81.3-81.2z"/><path class="st0" d="M704.1 216.2c-2.2-2.5-3.2-5.7-2.8-9 .3-3.3 2-6.2 4.6-8.2 6.6-5 9.4-13.6 7-21.5-1-3.2-.6-6.5 1.1-9.3 1.6-2.9 4.3-4.8 7.5-5.6 8-1.9 14.1-8.6 15.1-16.8.4-3.3 2.1-6.1 4.8-8.1 2.7-1.9 5.9-2.7 9.2-2 8.1 1.6 16.4-2.1 20.7-9.2 1.7-2.8 4.4-4.8 7.6-5.4 3.2-.7 6.5 0 9.2 1.9 6.8 4.7 15.9 4.7 22.6 0 2.7-1.9 6-2.5 9.2-1.9 3.2.7 5.9 2.6 7.6 5.4 4.3 7.1 12.6 10.8 20.7 9.2 3.2-.6 6.5.1 9.2 2s4.4 4.8 4.8 8.1c1 8.2 7.1 14.9 15.1 16.8 3.2.7 5.9 2.7 7.5 5.6 1.6 2.9 2 6.2 1.1 9.3-2.4 7.9.4 16.5 7 21.5 2.6 2 4.3 4.9 4.6 8.2s-.7 6.5-2.8 9c-1.5 1.7-2.6 3.6-3.4 5.7-1.1-.4-2.3-.6-3.5-.8.2-3.6-.6-7.1-2.4-10.3-2.6-4.5-6.9-7.7-11.9-8.8-4.3-1-7.6-4.7-8.2-9.1-.6-5.1-3.4-9.8-7.5-12.8-4.2-3-9.4-4.2-14.5-3.2-4.4.8-8.8-1.2-11.1-5-2.7-4.4-7.1-7.5-12.1-8.6s-10.3 0-14.5 2.9c-3.6 2.5-8.5 2.5-12.2 0-4.2-2.9-9.5-4-14.5-2.9s-9.4 4.2-12.1 8.6c-2.3 3.8-6.8 5.8-11.1 5-5-1-10.3.2-14.5 3.2s-6.9 7.7-7.5 12.8c-.6 4.4-3.8 8-8.2 9.1-5 1.2-9.4 4.4-11.9 8.8-1.8 3.1-2.6 6.7-2.5 10.2-1.2.2-2.4.4-3.5.8-.9-2-2-3.9-3.5-5.6z"/><path class="st2" d="M704.1 216.2c-2.2-2.5-3.2-5.7-2.8-9 .3-3.3 2-6.2 4.6-8.2 6.6-5 9.4-13.6 7-21.5-1-3.2-.6-6.5 1.1-9.3 1.6-2.9 4.3-4.8 7.5-5.6 8-1.9 14.1-8.6 15.1-16.8.4-3.3 2.1-6.1 4.8-8.1 2.7-1.9 5.9-2.7 9.2-2 8.1 1.6 16.4-2.1 20.7-9.2 1.7-2.8 4.4-4.8 7.6-5.4 3.2-.7 6.5 0 9.2 1.9 6.8 4.7 15.9 4.7 22.6 0 2.7-1.9 6-2.5 9.2-1.9 3.2.7 5.9 2.6 7.6 5.4 4.3 7.1 12.6 10.8 20.7 9.2 3.2-.6 6.5.1 9.2 2s4.4 4.8 4.8 8.1c1 8.2 7.1 14.9 15.1 16.8 3.2.7 5.9 2.7 7.5 5.6 1.6 2.9 2 6.2 1.1 9.3-2.4 7.9.4 16.5 7 21.5 2.6 2 4.3 4.9 4.6 8.2s-.7 6.5-2.8 9c-1.5 1.7-2.6 3.6-3.4 5.7-1.1-.4-2.3-.6-3.5-.8.2-3.6-.6-7.1-2.4-10.3-2.6-4.5-6.9-7.7-11.9-8.8-4.3-1-7.6-4.7-8.2-9.1-.6-5.1-3.4-9.8-7.5-12.8-4.2-3-9.4-4.2-14.5-3.2-4.4.8-8.8-1.2-11.1-5-2.7-4.4-7.1-7.5-12.1-8.6s-10.3 0-14.5 2.9c-3.6 2.5-8.5 2.5-12.2 0-4.2-2.9-9.5-4-14.5-2.9s-9.4 4.2-12.1 8.6c-2.3 3.8-6.8 5.8-11.1 5-5-1-10.3.2-14.5 3.2s-6.9 7.7-7.5 12.8c-.6 4.4-3.8 8-8.2 9.1-5 1.2-9.4 4.4-11.9 8.8-1.8 3.1-2.6 6.7-2.5 10.2-1.2.2-2.4.4-3.5.8-.9-2-2-3.9-3.5-5.6zM416.6 407.9h-84.2l4-16h77.2l3 16zm356.9-66.4c8.1 2.5 16.7 3.9 25.6 3.9h.8c7.9 0 15.6-1.1 22.8-3.1l1.8 1.4v12.1c-7.8 2.3-16 3.6-24.6 3.6h-.8c-9.8 0-19.2-1.7-27.9-4.7v-11l2.3-2.2z"/><circle class="st3" cx="789.3" cy="1025.7" r="7.3"/><circle class="st3" cx="881.3" cy="1025.7" r="7.3"/><path class="st3" d="M830.9 293.4c.6-2.7 0-5.4-1.7-7.6-1.8-2.2-4.4-3.5-7.2-3.5h-42.8c-2.8 0-5.4 1.3-7.2 3.5-1.7 2.2-2.3 4.9-1.7 7.6 3.3 14.2 15.8 24.1 30.3 24.1 14.6 0 27.1-10 30.3-24.1zm-45.4 10.5h30.1c-4.1 3.5-9.3 5.6-15.1 5.6s-10.9-2.1-15-5.6zm36.5-13.6h.4c.3.1.4.2.6.4.1.2.3.5.2 1-.3 1.4-.8 2.8-1.4 4.2h-42.1c-.6-1.3-1.1-2.7-1.4-4.2-.1-.5.1-.8.2-1 .1-.1.3-.3.6-.4H822zm-24.8-20.1h12.5c2.2 0 4-1.8 4-4s-1.8-4-4-4h-12.5c-.9 0-1.3-.6-1.5-.9s-.4-1 .1-1.8c6.3-9 8-17.7 5.9-29.2-.4-2.2-2.5-3.6-4.7-3.2-2.2.4-3.6 2.5-3.2 4.7 1.7 9.5.4 16-4.6 23.2-2.1 3-2.3 6.8-.7 10 1.8 3.2 5.1 5.2 8.7 5.2z"/><circle class="st3" cx="770.3" cy="233" r="7.1"/><ellipse transform="matrix(.9975 -.07089 .07089 .9975 -14.437 59.212)" class="st3" cx="827" cy="233" rx="7.1" ry="7.1"/><path class="st3" d="M779.5 219.6c.7 1.3 2.1 2 3.5 2 .7 0 1.4-.2 2-.5 1.9-1.1 2.6-3.6 1.5-5.5-3.6-6.2-10.2-10-17.3-10s-13.7 3.8-17.3 10c-1.1 1.9-.5 4.4 1.5 5.5 1.9 1.1 4.4.5 5.5-1.5 2.2-3.7 6.1-6 10.4-6 4.1 0 8 2.3 10.2 6zm31.6 1.4c1.9 1.1 4.4.5 5.5-1.5 2.2-3.7 6.1-6 10.4-6 4.3 0 8.3 2.3 10.4 6 .7 1.3 2.1 2 3.5 2 .7 0 1.4-.2 2-.5 1.9-1.1 2.6-3.6 1.5-5.5-3.6-6.2-10.2-10-17.3-10s-13.7 3.8-17.3 10c-1.3 2-.6 4.4 1.3 5.5zM373 378.6c11.5 0 20.9-9.4 20.9-20.9s-9.4-20.9-20.9-20.9-20.9 9.4-20.9 20.9 9.4 20.9 20.9 20.9zm0-33.7c7.1 0 12.9 5.8 12.9 12.9s-5.8 12.9-12.9 12.9-12.9-5.8-12.9-12.9 5.8-12.9 12.9-12.9zm52.5-210.4H200.2c-2.2 0-4 1.8-4 4v163.1c0 2.2 1.8 4 4 4h225.3c2.2 0 4-1.8 4-4V138.5c0-2.2-1.8-4-4-4zm-4 8v18.3H204.2v-18.3h217.3zM204.2 297.6V168.8h217.3v128.8H204.2z"/><path class="st3" d="M216.5 156.3c2.6 0 4.7-2.1 4.7-4.7s-2.1-4.7-4.7-4.7-4.7 2.1-4.7 4.7 2.1 4.7 4.7 4.7zm18.9 0c2.6 0 4.7-2.1 4.7-4.7s-2.1-4.7-4.7-4.7-4.7 2.1-4.7 4.7 2.1 4.7 4.7 4.7zm18.9 0c2.6 0 4.7-2.1 4.7-4.7s-2.1-4.7-4.7-4.7-4.7 2.1-4.7 4.7 2.1 4.7 4.7 4.7zm290.8-21.8h-34c-2.2 0-4 1.8-4 4v27.2c0 2.2 1.8 4 4 4h34c2.2 0 4-1.8 4-4v-27.2c0-2.2-1.8-4-4-4zm-4 27.2h-26v-19.2h26v19.2zm4 22.8h-34c-2.2 0-4 1.8-4 4v27.2c0 2.2 1.8 4 4 4h34c2.2 0 4-1.8 4-4v-27.2c0-2.2-1.8-4-4-4zm-4 27.2h-26v-19.2h26v19.2zm-90-42h34c2.2 0 4-1.8 4-4v-27.2c0-2.2-1.8-4-4-4h-34c-2.2 0-4 1.8-4 4v27.2c0 2.2 1.8 4 4 4zm4-27.2h26v19.2h-26v-19.2zm34 73.2v-27.2c0-2.2-1.8-4-4-4h-34c-2.2 0-4 1.8-4 4v27.2c0 2.2 1.8 4 4 4h34c2.2 0 4-1.8 4-4zm-8-4h-26v-19.2h26v19.2zm-169.6-21h-86.4c-2.2 0-4 1.8-4 4V272c0 2.2 1.8 4 4 4h86.4c2.2 0 4-1.8 4-4v-77.3c0-2.2-1.8-4-4-4zm-4 8v49.4l-26-26c-.8-.8-2-1.3-3.1-1.2-1.2.1-2.2.7-2.9 1.6l-11.3 15.4-22.8-22.7c-.8-.8-2-1.3-3.1-1.2-1.2.1-2.2.7-2.9 1.6l-6.3 8.5v-25.5l78.4.1zM229.1 268v-30.3l10-13.5 26.8 26.8c.8.8 1.8 1.2 2.8 1.2s2-.4 2.8-1.2c1.6-1.6 1.6-4.1 0-5.7l-1.7-1.7 9.3-12.6 28 28c.1.1.3.2.4.4v8.7h-78.4v-.1z"/><path class="st3" d="M262.2 224.1c6 0 10.9-4.9 10.9-10.9s-4.9-10.9-10.9-10.9-10.9 4.9-10.9 10.9c.1 6 4.9 10.9 10.9 10.9zm0-13.7c1.6 0 2.9 1.3 2.9 2.9 0 1.6-1.3 2.9-2.9 2.9s-2.9-1.3-2.9-2.9c.1-1.6 1.3-2.9 2.9-2.9zm70.2-11.7h29.1c2.2 0 4-1.8 4-4s-1.8-4-4-4h-29.1c-2.2 0-4 1.8-4 4s1.8 4 4 4zm65.5 12h-65.5c-2.2 0-4 1.8-4 4s1.8 4 4 4h65.4c2.2 0 4-1.8 4-4s-1.7-4-3.9-4zm0 20h-65.5c-2.2 0-4 1.8-4 4s1.8 4 4 4h65.4c2.2 0 4-1.8 4-4s-1.7-4-3.9-4zm-6.9 22.4h-58.6c-2.2 0-4 1.8-4 4V272c0 2.2 1.8 4 4 4H391c2.2 0 4-1.8 4-4v-14.9c0-2.2-1.8-4-4-4zm-4 14.9h-50.6v-6.9H387v6.9zm105.8 6.5l-14.3-9.8-14.3-9.8c-1.5-1.1-3.6.4-3.1 2.2l4.6 16.7 4.7 16.7c.5 1.8 3 2 3.8.3l2.1-4.7c.6-1.4 2.6-1.6 3.4-.3l6.7 9.3c.6.9 1.9 1.1 2.8.5l2.5-1.8c.9-.6 1.1-1.9.5-2.8l-6.6-9.2c-.9-1.2-.1-3 1.4-3.2l4.9-.5c1.8-.1 2.4-2.6.9-3.6z"/><path class="st3" d="M1079.1 448.9H1039c-1.9-4.5-4.5-8.7-7.8-12.4-8.3-9.3-20.3-14.6-32.7-14.6h-88.4l-.3-2.4c-2.2-15.3-4.6-32.7-17.7-44.7-13.3-12.1-30.5-18.8-48.5-18.8H830v-13.8c33.2-12 57.3-43.3 58.8-80.3 9.6-1.8 16.8-10.3 16.8-20.4 0-6.3-2.8-11.9-7.2-15.7.5-1.7 1.3-3.2 2.4-4.5 3.6-4.1 5.3-9.6 4.7-15s-3.4-10.4-7.7-13.7c-3.9-3-5.6-8.1-4.2-12.8 1.6-5.2.9-10.9-1.8-15.6-2.7-4.7-7.3-8.1-12.6-9.4-4.8-1.1-8.4-5.1-9-10-.7-5.4-3.6-10.4-8-13.6-4.4-3.2-10-4.5-15.4-3.4-4.8.9-9.8-1.3-12.3-5.5-2.8-4.7-7.5-8-12.8-9.1-5.3-1.1-11 0-15.4 3.1-4 2.8-9.5 2.8-13.5 0-4.5-3.1-10.1-4.2-15.4-3.1-5.3 1.1-10 4.5-12.8 9.1-2.5 4.2-7.5 6.4-12.3 5.5-5.4-1-11 .2-15.4 3.4-4.4 3.2-7.3 8.1-8 13.6-.6 4.9-4.2 8.9-9 10-5.3 1.2-9.9 4.7-12.6 9.4-2.7 4.7-3.4 10.4-1.8 15.6 1.4 4.7-.2 9.9-4.2 12.8-4.3 3.3-7.2 8.3-7.7 13.7-.6 5.4 1.1 10.9 4.7 15 1.1 1.3 1.9 2.7 2.4 4.3-4.5 3.8-7.4 9.5-7.4 15.9 0 10.1 7.3 18.6 16.8 20.4 1.5 37 25.5 68.2 58.7 80.2v13.8h-14.3c-29.1 0-47.7 17-62.1 33.7-8.6 10-16.5 21.5-23.4 34-5.4 7.6-11 16-16.9 25.1H611v-.1c0-5.8-2.5-11.4-6.7-15.3-4.3-3.9-10-5.9-15.8-5.4l-46.9 4.1c-9.4.8-16.8 7.7-18.6 16.7h-55v-8.9c0-2.2-1.8-4-4-4h-36.2l-3.3-22.6-3.1-21.5h116.1c21.8 0 39.5-17.7 39.5-39.5V145.1c0-21.8-17.7-39.5-39.5-39.5h-329c-21.8 0-39.5 17.7-39.5 39.5v207.3c0 21.8 17.7 39.5 39.5 39.5h119.7l-3.1 21.5-3.3 22.6h-35.3c-2.2 0-4 1.8-4 4v8.9H71.7c-2.2 0-4 1.8-4 4v27.8c0 2.2 1.8 4 4 4H121v559.6c0 2.2 1.8 4 4 4h36c2.2 0 4-1.8 4-4V484.7h464.7c-2.5 4.1-4.9 8.3-7.5 12.7-1.1 1.9-.5 4.3 1.3 5.4l9.1 5.6-22.9 35.2-111.6 11.3-.9-4.6c-.7-3.7-2.9-7-6.1-9.1s-7-2.9-10.7-2.1c-7.7 1.5-12.7 9.1-11.2 16.8l.3 1.6-6.6.6c-6.4.6-12.3 3.8-16.1 8.9-3.8 5.1-5.3 11.7-4.1 18 2.1 10.5 11.4 18.1 22.1 18.2l44.7.1c-1.9 2.8-3 6.2-3 9.8 0 9.6 7.8 17.4 17.4 17.4h111.2v61.7H525.9c-24.3 0-44 19.7-44 44v221.7c-.9-.1-1.8-.1-2.8-.1-2.2 0-4 1.8-4 4v27l-48.6 37c-4.4 3.3-6.1 8.8-4.3 14.1 1.8 5.2 6.4 8.6 11.9 8.6h120.3c.3 0 .6-.1.9-.1.6.1 1.2.1 1.8.1h139.6c12.5 0 22.6-10.1 22.6-22.6 0-9.1-5.4-17-13.3-20.6h73.9c-7.8 3.6-13.3 11.4-13.3 20.6 0 12.5 10.1 22.6 22.6 22.6s22.6-10.1 22.6-22.6c0-9.1-5.4-17-13.3-20.6h73.3c-7.8 3.6-13.3 11.4-13.3 20.6 0 12.5 10.1 22.6 22.6 22.6s22.6-10.1 22.6-22.6c0-11.3-8.4-20.7-19.3-22.4.4-.6.7-1.4.7-2.2 0-14.7-12-26.7-26.7-26.7h-54.8V816h149.3c14.9 0 27-12.1 27-27s-12.1-27-27-27h-18.3l8.7-54.4h33.6c7.3 0 14.3-1.8 20.4-5v341.6c0 2.2 1.8 4 4 4h36c2.2 0 4-1.8 4-4V484.7h37.6c2.2 0 4-1.8 4-4v-27.8c.2-2.2-1.6-4-3.8-4zm-275.2 576.8c0 8-6.5 14.6-14.6 14.6s-14.6-6.5-14.6-14.6 6.5-14.6 14.6-14.6 14.6 6.5 14.6 14.6zm76-263.6c4.2-2.9 7.8-6.6 10.8-10.8v10.8h-10.8zm-163.5 0c-2.2 0-4 1.8-4 4 0 .5.1 1 .3 1.5-.1.3-.2.7-.3 1.1L692.7 975h-17c-2.8 0-5.5 1.1-7.5 3.1s-3 4.7-3 7.5c0 .7-.3 1.2-.6 1.5-.5.5-1.1.8-1.8.8h-26c-1.5-10.9-7.9-20-16.8-25.3V736.1c0-19.9 16.1-36 36-36h94.2c2.2 0 4-1.8 4-4s-1.8-4-4-4h-45.6v-10.9h186.2v44.9c0 19.9-16.1 36-36 36H716.4zM554 1038.3c-.4-.6-.7-1.3-.8-2h139.6v4H557.9c-2.1 0-3.3-1.1-3.9-2zm138.7-36.6v26.5H559.3l45.2-34.4c1-.8 1.6-1.9 1.6-3.2v-24.7c2.8.4 5.5 1.3 8 2.5.1.1.2.1.3.1 8.5 4.3 14.3 13 14.6 23.2 0 1.1.6 2.3 1.5 3 .7.6 1.6.9 2.6.9h29.7c2.8 0 5.6-1.2 7.5-3.2s3-4.5 2.9-7.3c0-.7.2-1.3.7-1.8s1.1-.7 1.7-.7h17.1v16.8c0 .6-.1 1.1-.1 1.7.1.2.1.4.1.6zm-115.2-24.2L592.9 816h18.9v143.1c-3.1-.9-6.4-1.4-9.8-1.4-2.2 0-4 1.8-4 4v27l-20.3 15.5V979c.1-.6 0-1-.2-1.5zM611.9 808h-18.2l3.3-35h14.8v35h.1zm84.6-177.6v61.7h-30.6v-61.7h30.6zm-29.6-70.1l-1.2-6c-.7-3.4 1.5-6.7 4.9-7.4 1.6-.3 3.3 0 4.7.9s2.3 2.3 2.7 4l1.6 8.2c.4 2 2.3 3.4 4.3 3.2l117.3-11.8c1.2-.1 2.3-.8 3-1.8l23.7-36.4 44.2 29.5-52.5 52.8-166-.4c-6.9 0-12.9-4.9-14.2-11.7-.8-4.1.2-8.3 2.6-11.6 2.5-3.3 6.3-5.4 10.4-5.8l11.1-1c1.1-.1 2.2-.7 2.9-1.6.5-.9.7-2 .5-3.1zm112.6 70.1h111.2v42.7H704.5v-70l60.5.1c-1.9 2.8-2.9 6.1-2.9 9.7 0 9.7 7.8 17.5 17.4 17.5zM913.4 762h-14.7V630.4h14.7V762zm4-139.6H779.5c-5.2 0-9.4-4.2-9.4-9.4s4.2-9.4 9.4-9.4h157.2c5.2 0 9.4 4.2 9.4 9.4v9.4h-28.7zM704.1 216.2c-2.2-2.5-3.2-5.7-2.8-9 .3-3.3 2-6.2 4.6-8.2 6.6-5 9.4-13.6 7-21.5-1-3.2-.6-6.5 1.1-9.3 1.6-2.9 4.3-4.8 7.5-5.6 8-1.9 14.1-8.6 15.1-16.8.4-3.3 2.1-6.1 4.8-8.1 2.7-1.9 5.9-2.7 9.2-2 8.1 1.6 16.4-2.1 20.7-9.2 1.7-2.8 4.4-4.8 7.6-5.4 3.2-.7 6.5 0 9.2 1.9 6.8 4.7 15.9 4.7 22.6 0 2.7-1.9 6-2.5 9.2-1.9 3.2.7 5.9 2.6 7.6 5.4 4.3 7.1 12.6 10.8 20.7 9.2 3.2-.6 6.5.1 9.2 2s4.4 4.8 4.8 8.1c1 8.2 7.1 14.9 15.1 16.8 3.2.7 5.9 2.7 7.5 5.6 1.6 2.9 2 6.2 1.1 9.3-2.4 7.9.4 16.5 7 21.5 2.6 2 4.3 4.9 4.6 8.2s-.7 6.5-2.8 9c-1.5 1.7-2.6 3.6-3.4 5.7-1.1-.4-2.3-.6-3.5-.8.2-3.6-.6-7.1-2.4-10.3-2.6-4.5-6.9-7.7-11.9-8.8-4.3-1-7.6-4.7-8.2-9.1-.6-5.1-3.4-9.8-7.5-12.8-4.2-3-9.4-4.2-14.5-3.2-4.4.8-8.8-1.2-11.1-5-2.7-4.4-7.1-7.5-12.1-8.6s-10.3 0-14.5 2.9c-3.6 2.5-8.5 2.5-12.2 0-4.2-2.9-9.5-4-14.5-2.9s-9.4 4.2-12.1 8.6c-2.3 3.8-6.8 5.8-11.1 5-5-1-10.3.2-14.5 3.2s-6.9 7.7-7.5 12.8c-.6 4.4-3.8 8-8.2 9.1-5 1.2-9.4 4.4-11.9 8.8-1.8 3.1-2.6 6.7-2.5 10.2-1.2.2-2.4.4-3.5.8-.9-2-2-3.9-3.5-5.6zm13.7 42.2c0-2.2-1.8-4-4-4-7 0-12.8-5.7-12.8-12.8 0-3.8 1.7-7.3 4.4-9.6 1.3-.2 2.4-.9 3-2 1.6-.8 3.4-1.2 5.3-1.2h.1c.7 0 1.3-.2 1.8-.5.4 0 .8 0 1.2-.2 2.1-.6 3.3-2.9 2.7-5-.9-2.9-.5-5.8 1-8.4 1.5-2.6 3.9-4.4 6.8-5.1 7.6-1.8 13.3-8.1 14.3-15.9.4-3 1.9-5.5 4.3-7.3 2.4-1.8 5.4-2.4 8.3-1.8 7.6 1.5 15.5-2 19.5-8.7 1.5-2.5 4-4.3 6.9-4.9 2.9-.6 5.9 0 8.3 1.7 6.4 4.4 15 4.4 21.3 0 2.4-1.7 5.4-2.3 8.3-1.7 2.9.6 5.4 2.4 6.9 4.9 4 6.7 11.9 10.1 19.5 8.7 2.9-.6 5.9.1 8.3 1.8 2.4 1.8 3.9 4.3 4.3 7.3 1 7.7 6.7 14.1 14.3 15.9 2.9.7 5.3 2.5 6.8 5.1s1.8 5.6 1 8.4c-.6 2.1.6 4.3 2.7 5 .3.1.6.1.9.2.5.3 1.2.5 1.8.5h.1c7 0 12.7 5.8 12.7 12.8s-5.7 12.8-12.8 12.8c-2.2 0-4 1.9-4 4.1 0 44.7-36.4 81.1-81.1 81.1h-.8c-44.9 0-81.3-36.4-81.3-81.2zm81.1 89.2h.8c7.7 0 15.1-1 22.2-2.8v14.4c0 12.5-10.2 22.7-22.7 22.7s-22.7-10.2-22.7-22.7v-14.4c7.2 1.8 14.7 2.8 22.4 2.8zm-256.8 92.6l46.9-4.1c3.6-.3 7 .9 9.7 3.3s4.1 5.8 4.1 9.4v.1h-71.7c1.6-4.7 5.8-8.2 11-8.7zM176.9 145.1c0-17.4 14.1-31.5 31.5-31.5h329c17.4 0 31.5 14.1 31.5 31.5v178.5h-392V145.1zm0 207.3v-20.7H569v20.7c0 17.4-14.1 31.5-31.5 31.5h-329c-17.4 0-31.6-14.2-31.6-31.5zM333 414.5l3.3-22.6h77.1l3.3 22.6 3.1 21.5H330l3-21.5zM290.5 444h169.4v4.9H290.5V444zm-133.4 596.3h-28V484.7h28v555.6zm4-563.6H75.7v-19.8h571.2c-4 6.3-8 12.9-12.2 19.8H161.1zm514.4-48.5c.1-.1.2-.3.2-.4 6.6-12.1 14.2-23.2 22.5-32.8 13.2-15.3 30.2-30.9 56-30.9h14.7c2.3 14.6 15 25.8 30.3 25.8s27.9-11.2 30.3-25.8h14c16 0 31.3 5.9 43.1 16.7 11 10 13.1 25.2 15.2 39.9 3.8 27 4.2 54.8 4 80.8 0 2 0 12-.1 24.8 0 25.2-.1 62.8-.2 69.4h-74.9l50.1-50.4.9-.9c1.2-1.8.7-4.3-1.1-5.5l-61.6-41.1 19.2-70.7c.6-2.1-.7-4.3-2.8-4.9s-4.3.7-4.9 2.8l-20 73.5c-.5 1.7.2 3.4 1.6 4.4l9 6-22.6 34.7-93.8 9.5 14.9-126.7c.3-2.2-1.3-4.2-3.5-4.4-2.2-.2-4.2 1.3-4.4 3.5l-13.4 114.1-66.9-41.5c16.1-27.7 31-51.2 44.2-69.9zM450.8 583.4c-.8-4.1.2-8.3 2.6-11.6 2.5-3.3 6.3-5.4 10.4-5.8l11.1-1c1.1-.1 2.2-.7 2.9-1.6.7-.9.9-2.1.7-3.2l-1.2-6c-.7-3.4 1.5-6.7 4.9-7.4 1.6-.3 3.3 0 4.7.9 1.4.9 2.3 2.3 2.7 4l1.6 8.2c.4 2 2.3 3.4 4.3 3.2l117.2-11.7c1.2-.1 2.3-.8 3-1.8l24-37 57.5 35.7-.6 5.3v.4l-9.7 1-.9-4.6c-.7-3.7-2.9-7-6.1-9.1-3.2-2.1-7-2.9-10.7-2.1-7.7 1.5-12.7 9.1-11.2 16.8l.3 1.6-6.6.6c-6.4.6-12.3 3.8-16.1 8.9-3.8 5.1-5.3 11.7-4.1 18 .8 4.1 2.7 7.7 5.4 10.7h-3.2c-.3-.1-.6-.1-1-.1l-167.6-.4c-7-.2-13-5.2-14.3-11.9zm63.8 29.6c0-5.2 4.2-9.4 9.4-9.4h172.5v18.8H524c-5.2 0-9.4-4.2-9.4-9.4zm128.6 17.4h14.7v61.7h-14.6v-61.7h-.1zM489.9 736.1c0-19.9 16.1-36 36-36h104.7c-11.3 8-18.7 21.1-18.7 36V765h-18.5c-2.1 0-3.8 1.6-4 3.6l-19.7 206.3h-17c-2.8 0-5.5 1.1-7.5 3.1s-3 4.7-3 7.5c0 .7-.3 1.2-.6 1.5-.5.5-1.1.8-1.8.8h-26c-1.8-13.5-11.2-24.4-23.8-28.4V736.1h-.1zm-8.3 257.7c1-.8 1.6-1.9 1.6-3.2v-24.7c.1 0 .2 0 .3.1.7.5 1.5.9 2.5.9.3 0 .6 0 .9-.1 10.9 3.2 18.9 13.1 19.2 25.1 0 1.1.6 2.3 1.5 3 .7.6 1.6.9 2.6.9h29.7c2.8 0 5.6-1.2 7.5-3.2 1.9-2 3-4.5 2.9-7.3 0-.7.2-1.3.7-1.8s1.1-.7 1.7-.7h17.1v27.3l-20.3 15.4c-1 .8-1.8 1.6-2.6 2.6H436.3l45.3-34.3zm-50.6 44.5c-.4-.6-.7-1.3-.8-2h114.3c.1 1.2.3 2.3.7 3.5.1.2.1.4.2.6H435c-2.1-.1-3.3-1.2-4-2.1zm280.3-12.6c0 6.7-4.5 12.3-10.6 14v-28.1c6.1 1.8 10.6 7.4 10.6 14.1zm184.6 0c0 8-6.5 14.6-14.6 14.6s-14.6-6.5-14.6-14.6 6.5-14.6 14.6-14.6 14.6 6.5 14.6 14.6zm-19.1-28.6H701.1c1.8-8.4 9.3-14.7 18.2-14.7h139.3c8.9 0 16.4 6.3 18.2 14.7zm-157.5-22.7c-7.2 0-13.8 2.9-18.6 7.6v-3.1c0-.5-.1-.9-.3-1.4L715.8 816H773v158.4h-53.7zm76.5-.8h-14.7V816h14.7v157.6zM972 789c0 10.5-8.5 19-19 19H716.6l3.6-37.9h232.7c10.6 0 19.1 8.5 19.1 18.9zm-50.6-26.9v-54.4h14l-8.7 54.4h-5.3zm20.3-62.5h-20.3v-69.2h28.7c2.2 0 4-1.8 4-4V613c0-9.6-7.8-17.4-17.4-17.4h-23.1c.1-7.1.2-42.9.2-69.4 0-12.7 0-22.7.1-24.7.1-14.4 0-29.4-.7-44.5H969c10.2 0 20 4.4 26.8 12s10.1 17.8 9 27.9l-18.4 170.7c-2 18.3-17.4 32.1-35.8 32.1l-8.9-.1zm34.1 0c10-7.1 17-18.2 18.4-31.3l18.4-170.7c1.3-12.4-2.7-24.8-11-34.1s-20.3-14.6-32.7-14.6h-56.2c-.4-6.3-.9-12.7-1.6-19h87.3c10.2 0 20 4.4 26.8 12 6.8 7.6 10.1 17.8 9 27.9l-21.4 197.7c-2 18.3-17.4 32.1-35.8 32.1h-1.2zm29.6 340.7v-343c8.4-7.1 14.1-17.2 15.4-28.9l12.6-116.9v488.8h-28zm69.7-563.6h-33.6l.7-6.1c.5-4.6.3-9.3-.7-13.7h33.6v19.8z"/><path class="st3" d="M407.9 802h-23c.5-4.8.7-8.5-1.3-14.2-3.4-9.6-12.9-17.1-24.9-19.6-9.2-1.9-18.7-.9-27.3.3-.1-.7-.1-1.4-.1-2.1 0-1.4-.1-3-.4-4.6-1.5-6.7-9.5-12.4-20.2-10.4-3.2.6-6.2 1.7-9.1 2.8-3 1.1-5.9 2.2-8.8 2.6-7.6 1-15.9-3.5-19.2-10.4-.7-1.4-2-2.3-3.6-2.3h-.1c-6.8 0-11 5.2-14.8 9.7-2.8 3.5-5.5 6.8-8.6 6.8-1.4 0-3.2-.6-5-1.3-3.2-1.2-7.2-2.8-11.4-1-1.3.5-2.2 1.7-2.4 3-2.5 13.9.5 28.6 7.8 40.7h-24.2c-1.1 0-2.2.5-3 1.3s-1.1 1.9-1 3.1l22 239.2c.2 2.1 1.9 3.6 4 3.6h142.6c2 0 3.7-1.5 4-3.5l32-239.2c.2-1.1-.2-2.3-1-3.2-.8-.8-1.9-1.3-3-1.3zM357 776.1c7.2 1.5 16 6.1 18.9 14.4 1.5 4.3 1.3 6.8.8 11.5h-18.9l1.2-11.8c.1-1.2-.3-2.4-1.2-3.2-.9-.8-2-1.3-3.2-1.1-4.8.5-9.7 1-14.1-.2-3.4-1-7.2-3.5-7.8-7.2-.1-.3-.1-.6-.1-.9 0-.3-.1-.7-.2-1.1 8.3-1.1 16.7-2 24.6-.4zM273.2 802l10-25.2L302 790c1.1.8 3.2 2.2 5.9 2 3.7-.3 5.6-3.3 6.7-5.1 2.2-3.4 5.1-6.4 8.4-8.6.6-.4 1.1-.6 1.5-.8.1.3.1.7.1 1 .1.4.1.8.2 1.3 1.1 6.2 6.4 11.6 13.5 13.5 4.1 1.1 8.3 1.2 12.2.9l-.8 7.8h-76.5zm-38.1-36.3c.9.2 2.1.6 3.5 1.2 2.3.9 5 2 8 1.9 6.8-.1 11-5.3 14.7-9.8 2.6-3.2 4.5-5.4 6.5-6.3 5.4 8.5 15.9 13.5 25.9 12.2 3.8-.5 7.2-1.8 10.6-3 2.7-1 5.2-2 7.8-2.4 4.5-.8 10.1.7 10.9 4.3.2.8.2 1.9.2 3 0 .9 0 2 .2 3-1.5.3-3.2 1-4.8 2.1-4.3 2.9-8 6.7-10.8 11-.2.3-.5.8-.8 1.1-.2-.1-.4-.2-.5-.3l-23-16.2c-1-.7-2.3-.9-3.4-.6-1.2.3-2.1 1.2-2.6 2.4l-12.9 32.4c-.1.2-.1.3-.1.5h-19.4c-7.8-10.4-11.5-23.7-10-36.5zm137.3 275.5H236.9L215.6 810h187.7l-30.9 231.2z"/><path class="st3" d="M311.6 846.7v-17c0-2.2-1.8-4-4-4s-4 1.8-4 4v17h-46.7l-1.5-16.6c-.2-2.2-2.1-3.8-4.3-3.6s-3.8 2.1-3.6 4.3l1.4 15.9h-9.8c-2.2 0-4 1.8-4 4s1.8 4 4 4h10.5l2 22h-9.4c-2.2 0-4 1.8-4 4s1.8 4 4 4h10.1l2 22h-8.1c-2.2 0-4 1.8-4 4s1.8 4 4 4h8.8l2 22h-8.8c-2.2 0-4 1.8-4 4s1.8 4 4 4h9.5l2 22h-7.4c-2.2 0-4 1.8-4 4s1.8 4 4 4h8.1l2 22.9-6.2.1c-2.2 0-4 1.8-4 4s1.8 4 4 4l6.8-.1 1.5 17.1c.2 2.1 1.9 3.6 4 3.6h.4c2.2-.2 3.8-2.1 3.6-4.3l-1.5-16.5 32.6-.3v17.1c0 2.2 1.8 4 4 4s4-1.8 4-4v-17.2l30.6-.3-1.5 17.2c-.2 2.2 1.4 4.1 3.6 4.3h.4c2 0 3.8-1.6 4-3.6l1.6-18 5.9-.1c2.2 0 4-1.8 4-4s-1.8-4-4-4l-5.1.1 2-22.1h8.2c2.2 0 4-1.8 4-4s-1.8-4-4-4h-7.5l2-22h8.5c2.2 0 4-1.8 4-4s-1.8-4-4-4h-7.8l2-22h8.9c2.2 0 4-1.8 4-4s-1.8-4-4-4h-8.1l2-22h10.2c2.2 0 4-1.8 4-4s-1.8-4-4-4H362l2-22h10.5c2.2 0 4-1.8 4-4s-1.8-4-4-4h-9.8l1.4-15.9c.2-2.2-1.4-4.1-3.6-4.3s-4.1 1.4-4.3 3.6l-1.5 16.6-45.1.1zm-54 8h46v22h-44l-2-22zm2.6 30h43.3v22h-41.4l-1.9-22zm2.7 30h40.7v22h-38.7l-2-22zm2.7 30h38v22h-36l-2-22zm4.7 52.9l-2-22.9h35.3v22.5l-33.3.4zm72.6-.8l-31.3.3v-22.4h33.3l-2 22.1zm2.7-30.1h-34v-22h36l-2 22zm2.6-30h-36.7v-22h38.6l-1.9 22zm2.7-30h-39.3v-22h41.3l-2 22zm2.7-30h-42v-22h44l-2 22z"/><path class="st1" d="M941.7 699.6h-20.3v-69.2h28.7c2.2 0 4-1.8 4-4V613c0-9.6-7.8-17.4-17.4-17.4h-23.1c.1-7.1.2-42.9.2-69.4 0-12.7 0-22.7.1-24.7.1-14.4 0-29.4-.7-44.5H969c10.2 0 20 4.4 26.8 12s10.1 17.8 9 27.9l-18.4 170.7c-2 18.3-17.4 32.1-35.8 32.1l-8.9-.1z"/><path class="st0" d="M455.1 142.5h26v19.2h-26v-19.2zm60 0h26v19.2h-26v-19.2zm-60 50h26v19.2h-26v-19.2zm60 0h26v19.2h-26v-19.2z"/><path class="st2" d="M336.4 261.1H387v6.9h-50.6v-6.9z"/><path class="st0" d="M262.2 210.4c1.6 0 2.9 1.3 2.9 2.9 0 1.6-1.3 2.9-2.9 2.9s-2.9-1.3-2.9-2.9c.1-1.6 1.3-2.9 2.9-2.9z"/><path class="st1" d="M357 776.1c7.2 1.5 16 6.1 18.9 14.4 1.5 4.3 1.3 6.8.8 11.5h-18.9l1.2-11.8c.1-1.2-.3-2.4-1.2-3.2-.9-.8-2-1.3-3.2-1.1-4.8.5-9.7 1-14.1-.2-3.4-1-7.2-3.5-7.8-7.2-.1-.3-.1-.6-.1-.9 0-.3-.1-.7-.2-1.1 8.3-1.1 16.7-2 24.6-.4z"/><path class="st1" d="M273.2 802l10-25.2L302 790c1.1.8 3.2 2.2 5.9 2 3.7-.3 5.6-3.3 6.7-5.1 2.2-3.4 5.1-6.4 8.4-8.6.6-.4 1.1-.6 1.5-.8.1.3.1.7.1 1 .1.4.1.8.2 1.3 1.1 6.2 6.4 11.6 13.5 13.5 4.1 1.1 8.3 1.2 12.2.9l-.8 7.8h-76.5z"/><path class="st1" d="M235.1 765.7c.9.2 2.1.6 3.5 1.2 2.3.9 5 2 8 1.9 6.8-.1 11-5.3 14.7-9.8 2.6-3.2 4.5-5.4 6.5-6.3 5.4 8.5 15.9 13.5 25.9 12.2 3.8-.5 7.2-1.8 10.6-3 2.7-1 5.2-2 7.8-2.4 4.5-.8 10.1.7 10.9 4.3.2.8.2 1.9.2 3 0 .9 0 2 .2 3-1.5.3-3.2 1-4.8 2.1-4.3 2.9-8 6.7-10.8 11-.2.3-.5.8-.8 1.1-.2-.1-.4-.2-.5-.3l-23-16.2c-1-.7-2.3-.9-3.4-.6-1.2.3-2.1 1.2-2.6 2.4l-12.9 32.4c-.1.2-.1.3-.1.5h-19.4c-7.8-10.4-11.5-23.7-10-36.5z"/></svg>