<svg id="Layer_1" xmlns="http://www.w3.org/2000/svg" viewBox="0 0 1152 1152"><style>.st0{fill:#fff}.st2{fill:#a644e5}.st2,.st3{opacity:.4;enable-background:new}.st3,.st4{fill:#0073ec}</style><path class="st0" d="M647.7 132.6h113.2v84.8h-52.4c-.8 0-1.6.3-2.3.7l-36.5 25.6 7.8-20.8c.5-1.2.3-2.6-.5-3.7-.7-1.1-2-1.7-3.3-1.7h-26v-84.9zM640.9 803v-35h14.8l3.4 35h-18.2zm302.2-235.2c-2.1.8-3.1 3.1-2.3 5.2l5.8 15.3-28.8 11-7.7-20.3h8.8c2.2 0 4-1.8 4-4v-32.4l24.6-9.4 11 28.8-15.4 5.8z"/><path class="st0" d="M863.7 519.7h51.2v51.2h-51.2v-51.2zm96.7 58.9c-1.3 2.9-3.5 5.2-6.2 6.7l-4.4-11.4 11.4-4.4c.8 3 .4 6.2-.8 9.1z"/><path d="M535.9 686.8c-6.8 0-12.5-4.5-14.3-10.7h1.6c.5 0 1-.1 1.4-.3H670l-1.8 11H535.9zm386.1-7.4c-.7 4.3-4.4 7.5-8.8 7.5H676.4l25.7-157.3s0-.1.1-.1c.2-.5.2-.9.2-1.4l3.7-22.8c.7-4.3 4.4-7.5 8.8-7.5h226.4c2.6 0 5.1 1.1 6.8 3.1s2.4 4.6 2 7.2l-2.6 16.5-24.5 9.3v-18.2c0-2.2-1.8-4-4-4h-59.2c-2.2 0-4 1.8-4 4v59.2c0 2.2 1.8 4 4 4h41.9l10.2 26.9c.1.2.2.4.3.7 0 .1.1.1.1.2.1.2.2.3.3.4 0 .1.1.1.1.1l.4.4.1.1c.2.1.4.3.6.4h.1c.2.1.4.1.6.2h.2c.2 0 .5.1.7.1.5 0 1-.1 1.4-.3l17.8-6.8-12.6 78.1z" opacity=".4" fill="#fff"/><path class="st0" d="M535.9 686.8c-6.8 0-12.5-4.5-14.3-10.7h1.6c.5 0 1-.1 1.4-.3H670l-1.8 11H535.9zm386.1-7.4c-.7 4.3-4.4 7.5-8.8 7.5H676.4l25.7-157.3s0-.1.1-.1c.2-.5.2-.9.2-1.4l3.7-22.8c.7-4.3 4.4-7.5 8.8-7.5h226.4c2.6 0 5.1 1.1 6.8 3.1s2.4 4.6 2 7.2l-2.6 16.5-24.5 9.3v-18.2c0-2.2-1.8-4-4-4h-59.2c-2.2 0-4 1.8-4 4v59.2c0 2.2 1.8 4 4 4h41.9l10.2 26.9c.1.2.2.4.3.7 0 .1.1.1.1.2.1.2.2.3.3.4 0 .1.1.1.1.1l.4.4.1.1c.2.1.4.3.6.4h.1c.2.1.4.1.6.2h.2c.2 0 .5.1.7.1.5 0 1-.1 1.4-.3l17.8-6.8-12.6 78.1z"/><path class="st2" d="M535.9 686.8c-6.8 0-12.5-4.5-14.3-10.7h1.6c.5 0 1-.1 1.4-.3H670l-1.8 11H535.9zm386.1-7.4c-.7 4.3-4.4 7.5-8.8 7.5H676.4l25.7-157.3s0-.1.1-.1c.2-.5.2-.9.2-1.4l3.7-22.8c.7-4.3 4.4-7.5 8.8-7.5h226.4c2.6 0 5.1 1.1 6.8 3.1s2.4 4.6 2 7.2l-2.6 16.5-24.5 9.3v-18.2c0-2.2-1.8-4-4-4h-59.2c-2.2 0-4 1.8-4 4v59.2c0 2.2 1.8 4 4 4h41.9l10.2 26.9c.1.2.2.4.3.7 0 .1.1.1.1.2.1.2.2.3.3.4 0 .1.1.1.1.1l.4.4.1.1c.2.1.4.3.6.4h.1c.2.1.4.1.6.2h.2c.2 0 .5.1.7.1.5 0 1-.1 1.4-.3l17.8-6.8-12.6 78.1z"/><ellipse transform="rotate(-11.304 463.668 1020.718)" class="st0" cx="463.5" cy="1020.7" rx="14.6" ry="14.6"/><circle class="st0" cx="371.5" cy="1020.7" r="14.6"/><path class="st0" d="M541.4 1020.7c0-6.7 4.5-12.3 10.6-14v28.1c-6.1-1.9-10.6-7.5-10.6-14.1zm11.1-325.6h44.3c19.9 0 36 16.1 36 36v226.4c-9 5.3-15.4 14.4-16.8 25.3h-26c-.7 0-1.4-.3-1.8-.8-.3-.3-.6-.8-.6-1.5 0-2.8-1-5.5-3-7.5s-4.6-3.1-7.5-3.1h-17l-19.7-206.3c0-.4-.1-.7-.3-1.1.2-.5.3-1 .3-1.5 0-2.2-1.8-4-4-4H398.1c-19.9 0-36-16.1-36-36v-44.9h151.4c2 10.6 11.4 18.7 22.5 18.7h15.3c.4.2.9.3 1.2.3z"/><path class="st0" d="M753.4 695c1.6 4.2 2.5 8.6 2.5 13.1v249.3c-9 5.3-15.4 14.4-16.8 25.3h-26c-.7 0-1.4-.3-1.8-.8-.3-.3-.6-.8-.6-1.5 0-2.8-1-5.5-3-7.5s-4.6-3.1-7.5-3.1h-17l-19.7-206.3c-.2-2.1-1.9-3.6-4-3.6H641V731c0-15-7.6-28.3-19.1-36.2h131.5v.2z"/><path class="st3" d="M552.5 695.1h44.3c19.9 0 36 16.1 36 36v226.4c-9 5.3-15.4 14.4-16.8 25.3h-26c-.7 0-1.4-.3-1.8-.8-.3-.3-.6-.8-.6-1.5 0-2.8-1-5.5-3-7.5s-4.6-3.1-7.5-3.1h-17l-19.7-206.3c0-.4-.1-.7-.3-1.1.2-.5.3-1 .3-1.5 0-2.2-1.8-4-4-4H398.1c-19.9 0-36-16.1-36-36v-44.9h151.4c2 10.6 11.4 18.7 22.5 18.7h15.3c.4.2.9.3 1.2.3z"/><path class="st3" d="M753.4 695c1.6 4.2 2.5 8.6 2.5 13.1v249.3c-9 5.3-15.4 14.4-16.8 25.3h-26c-.7 0-1.4-.3-1.8-.8-.3-.3-.6-.8-.6-1.5 0-2.8-1-5.5-3-7.5s-4.6-3.1-7.5-3.1h-17l-19.7-206.3c-.2-2.1-1.9-3.6-4-3.6H641V731c0-15-7.6-28.3-19.1-36.2h131.5v.2z"/><path class="st0" d="M266.5 662.5l-18.4-170.7c-1.1-10.1 2.2-20.3 9-27.9 6.8-7.6 16.6-12 26.8-12h55.8c-.7 15.1-.8 30.1-.7 44.5 0 2 0 12.1.1 24.9.1 26.4.1 62.1.2 69.2h-23.1c-9.6 0-17.4 7.8-17.4 17.4v13.4c0 2.2 1.8 4 4 4h28.7v69.2h-29.1c-18.5.1-33.9-13.7-35.9-32z"/><path class="st2" d="M266.5 662.5l-18.4-170.7c-1.1-10.1 2.2-20.3 9-27.9 6.8-7.6 16.6-12 26.8-12h55.8c-.7 15.1-.8 30.1-.7 44.5 0 2 0 12.1.1 24.9.1 26.4.1 62.1.2 69.2h-23.1c-9.6 0-17.4 7.8-17.4 17.4v13.4c0 2.2 1.8 4 4 4h28.7v69.2h-29.1c-18.5.1-33.9-13.7-35.9-32z"/><path class="st0" d="M275.7 694.6c-18.4 0-33.8-13.8-35.8-32.1l-21.3-197.7c-1.1-10.1 2.2-20.3 9-27.9 6.8-7.6 16.6-12 26.8-12h87.3c-.7 6.3-1.2 12.7-1.6 19h-56.2c-12.5 0-24.4 5.3-32.7 14.6s-12.3 21.7-11 34.1l18.4 170.7c1.4 13 8.4 24.2 18.4 31.3h-1.3z"/><ellipse transform="rotate(-11.304 463.668 1020.718)" class="st2" cx="463.5" cy="1020.7" rx="14.6" ry="14.6"/><path class="st0" d="M560.1 996.7c0-.2.1-.4.1-.6 0-.6 0-1.1-.1-1.7v-16.5h17.1c.7 0 1.3.3 1.7.7s.7 1.1.7 1.8c0 2.7 1 5.3 2.9 7.3 2 2 4.7 3.2 7.5 3.2h29.7c.9 0 1.9-.4 2.6-1 .9-.7 1.4-1.8 1.4-2.9.3-10.2 6.2-18.9 14.6-23.2.1 0 .2-.1.3-.2 2.5-1.2 5.1-2.1 8-2.5v24.6c0 1.2.6 2.4 1.6 3.2l45.2 34.4H560.1v-26.6zm-86.8-398.1c5.2 0 9.4 4.2 9.4 9.4s-4.2 9.4-9.4 9.4H306.8V608c0-5.2 4.2-9.4 9.4-9.4h157.1zM438.8 499l51.1 48.6c.2.2.5.4.8.6l102.6 57.7c1.8 1 4.1.5 5.2-1.2l4.8-6.9c1-1.4 2.4-2.3 4-2.6 1.6-.3 3.3.1 4.7 1 2.8 2 3.5 5.9 1.6 8.7l-3.5 5c-.7.9-.9 2.1-.6 3.2s1 2.1 2 2.6l9.8 5.3c3.6 2 6.3 5.4 7.2 9.4 1 4 .1 8.3-2.2 11.7-3.9 5.7-11.4 7.8-17.7 5l-54.7-23.7-89.6-38.7-75.2-52.6 49.7-33.1z"/><path class="st0" d="M516.9 667.9c-.5 0-1 .1-1.4.3H362.1v-42.7h111.2c9.6 0 17.4-7.8 17.4-17.4 0-1.1-.1-2.2-.3-3.2l57.9 25.1v38l-31.4-.1zm-162.8-42.5V757h-14.7V625.4h14.7zm8 120.9c2.9 4.2 6.6 7.8 10.8 10.8h-10.8v-10.8zm315.4-221l16.3 5.5-6.6 40.2-29.7-8.5-68.6-35.6 41.1-27.4c.1 0 .1-.1.2-.1l46.7 25.6.6.3z"/><path class="st0" d="M366.2 375.7c11.8-10.8 27.1-16.7 43.1-16.7h14c2.3 14.6 15 25.8 30.3 25.8s27.9-11.2 30.3-25.8h14.7c32.7 0 52 25 70.7 49.2 18 23.3 35.3 49.5 55.7 84.4-.1.2-.1.5-.2.7-8.5 5.7-30.2 20.2-45.2 30.1-.6.2-1.2.6-1.6 1.1-4.2 2.8-7.8 5.2-10.3 6.8L556.3 514v-93.3c0-2.2-1.8-4-4-4s-4 1.8-4 4v150.5l-53.2-29.9-53.8-51.3c-.3-.3-.6-.5-.9-.7-16.4-28.1-31.5-51.9-45-70.9-1.3-1.8-3.8-2.2-5.6-1-1.8 1.2-2.2 3.8-1 5.6 13.2 18.7 28.1 42.2 44.3 69.9l-60.8 40.8c-1.8 1.2-2.3 3.7-1.1 5.5.8 1.2 2 1.8 3.3 1.8.8 0 1.5-.2 2.2-.7l5.3-3.5 76.7 53.7H347.2c-.1-6.7-.2-44.1-.2-69.2 0-12.9 0-22.9-.1-25-.2-26 .2-53.8 4-80.8 2.1-14.6 4.3-29.8 15.3-39.8zm-48.8 326.9h14v54.5h-5.2l-8.8-54.5zM280.8 784c0-10.5 8.5-19 19-19h232.7l3.6 37.9H299.7c-10.4.1-18.9-8.4-18.9-18.9zM457 811h14.7v157.6H457V811zm-62.8 166.4h139.3c8.9 0 16.4 6.3 18.2 14.7H376c1.8-8.4 9.3-14.7 18.2-14.7z"/><circle class="st2" cx="371.5" cy="1020.7" r="14.6"/><path class="st2" d="M541.4 1020.7c0-6.7 4.5-12.3 10.6-14v28.1c-6.1-1.9-10.6-7.5-10.6-14.1z"/><path class="st0" d="M560.1 1031.2h139.6c-.1.7-.4 1.4-.8 2-.6.9-1.8 2-4 2H560.1v-4zm147.3 4.1c.1-.2.2-.4.2-.6.4-1.1.6-2.3.7-3.5h114.3c-.1.7-.4 1.4-.8 2-.6.9-1.8 2-4 2l-110.4.1zm63.7-46.5l45.2 34.4H705.9c-.7-1-1.6-1.8-2.6-2.6l-20.3-15.4v-27.3h17.1c.7 0 1.3.3 1.7.7s.7 1.1.7 1.8c0 2.7 1 5.3 2.9 7.3 2 2 4.7 3.2 7.5 3.2h29.8c.9 0 1.9-.4 2.6-1 .9-.7 1.4-1.8 1.4-2.9.3-10.2 6.2-18.9 14.6-23.2.1 0 .2-.1.3-.2 2.5-1.2 5.1-2.1 8-2.5v24.6c-.1 1.2.5 2.4 1.5 3.1zM572.4 235.9c0 13.6-11.1 24.7-24.7 24.7-1.6 0-3.2-.2-4.8-.5v-3.2c.1-1.4.1-2.8.1-4.2 0-.3 0-.6-.1-.9V220c.1-.3.1-.6.1-.9v-.3c0-1.1 0-2.2-.1-3.4v-3.7c1.6-.3 3.1-.5 4.8-.5 13.7 0 24.7 11.1 24.7 24.7zm-236 0c0-13.6 11.1-24.7 24.7-24.7s24.7 11.1 24.7 24.7c0 12.2-9 22.4-20.7 24.3v-24.3c0-2.2-1.8-4-4-4s-4 1.8-4 4v24.3c-11.7-1.9-20.7-12.1-20.7-24.3z"/><path class="st2" d="M572.4 235.9c0 13.6-11.1 24.7-24.7 24.7-1.6 0-3.2-.2-4.8-.5v-3.2c.1-1.4.1-2.8.1-4.2 0-.3 0-.6-.1-.9V220c.1-.3.1-.6.1-.9v-.3c0-1.1 0-2.2-.1-3.4v-3.7c1.6-.3 3.1-.5 4.8-.5 13.7 0 24.7 11.1 24.7 24.7zm-236 0c0-13.6 11.1-24.7 24.7-24.7s24.7 11.1 24.7 24.7c0 12.2-9 22.4-20.7 24.3v-24.3c0-2.2-1.8-4-4-4s-4 1.8-4 4v24.3c-11.7-1.9-20.7-12.1-20.7-24.3z"/><path class="st0" d="M453.2 341.8h.8c7.7 0 15.1-1 22.2-2.8v15.1c0 12.5-10.2 22.7-22.7 22.7s-22.7-10.2-22.7-22.7v-15.2c7.2 1.9 14.7 2.9 22.4 2.9zm-62.8-37.9h10.8c1.5 2.7 4.3 4.5 7.6 4.5h7.7c4.8 0 8.7-3.9 8.7-8.7 0-4.8-3.9-8.7-8.7-8.7h-7.8c-3.4 0-6.4 2-7.8 4.9h-16.3c-5.6-8.9-9.6-18.9-11.4-29.7 12-4.8 20.5-16.6 20.5-30.3 0-7.8-2.7-14.9-7.3-20.5 9.4-5.4 15.8-11.1 18.9-17 3-5.6 5.3-11.4 7.2-17.4.8 2.3 1.6 4.5 2.6 6.7.5 1.1 2 4.5 5.6 5.1 2.1.4 5.1-.1 7.9-4.5l2.7-4.5c1.7 4.1 3.9 7.9 6.7 11.3.8 1.1 2.2 1.6 3.5 1.5 1.4-.1 2.5-1 3.2-2.2 2.5-5 4.6-10.2 6.2-15.5 3 9.2 6.3 18 14.9 25.4 1.1.9 2.6 1.2 4 .8 1.4-.5 2.4-1.6 2.6-3.1l3.4-18.7c1.3 3.8 2.9 7.5 4.7 11.1.6 1.2 1.8 2 3.2 2.2 1.4.1 2.7-.4 3.5-1.5 2.7-3.4 5-7.3 6.7-11.3l2.7 4.5c2.8 4.4 5.8 4.8 7.9 4.5 3.6-.6 5.1-4 5.6-5.1 1-2.2 1.9-4.4 2.6-6.7 1.9 5.9 4.2 11.8 7.2 17.4.6 1.1 1.2 2.2 1.8 3.5 3.3 6.4 7.4 14.3 12.5 18.6.2.2.5.3.7.5v35.8c-2.1 42.8-37.6 77.1-81 77.1h-.8c-24.9-.1-47.7-11.7-62.7-30z"/><path class="st0" d="M380.4 209.6c-2.2-1.6-4.6-3-7.2-4 6.6-38.7 40.7-67.6 80.3-67.6 21.8 0 41.7 8.7 56.4 22.8-1.1.7-1.8 1.8-1.9 3.1-.5 6.9-2.1 13.6-4.9 19.9-2.5-3.9-4.7-8-6.7-12.2-.7-1.6-2.4-2.5-4.2-2.3-1.7.2-3.1 1.6-3.4 3.3-.7 4.2-2.1 8.2-4.1 11.9-2.7-6.7-4.6-13.7-5.5-21-.3-2-1.9-3.4-3.9-3.5-2 0-3.7 1.3-4 3.3l-5.3 29.4c-4-5.5-6-11.8-8.3-18.8-1.2-3.6-2.4-7.4-3.9-11.3-.7-1.7-2.4-2.7-4.2-2.5-1.8.2-3.2 1.6-3.5 3.4-1 7.2-2.8 14.3-5.5 21-2-3.7-3.4-7.7-4.1-11.9-.3-1.7-1.7-3.1-3.4-3.3-1.7-.2-3.4.7-4.2 2.3-2 4.2-4.2 8.3-6.7 12.2-2.8-6.3-4.4-13-4.9-19.9-.1-1.9-1.7-3.5-3.6-3.7-1.9-.2-3.7 1.1-4.2 2.9-2.9 10.7-5.8 21.8-11.1 31.5-2.6 4.9-8.9 10-18 15zm153.9-1.6c-2-3.1-3.8-6.6-5.4-9.8-.7-1.3-1.3-2.5-1.9-3.6-4.3-7.9-7-16.8-9.4-25.5 8.7 11 14.6 24.3 16.7 38.9z"/><path class="st3" d="M380.4 209.6c-2.2-1.6-4.6-3-7.2-4 6.6-38.7 40.7-67.6 80.3-67.6 21.8 0 41.7 8.7 56.4 22.8-1.1.7-1.8 1.8-1.9 3.1-.5 6.9-2.1 13.6-4.9 19.9-2.5-3.9-4.7-8-6.7-12.2-.7-1.6-2.4-2.5-4.2-2.3-1.7.2-3.1 1.6-3.4 3.3-.7 4.2-2.1 8.2-4.1 11.9-2.7-6.7-4.6-13.7-5.5-21-.3-2-1.9-3.4-3.9-3.5-2 0-3.7 1.3-4 3.3l-5.3 29.4c-4-5.5-6-11.8-8.3-18.8-1.2-3.6-2.4-7.4-3.9-11.3-.7-1.7-2.4-2.7-4.2-2.5-1.8.2-3.2 1.6-3.5 3.4-1 7.2-2.8 14.3-5.5 21-2-3.7-3.4-7.7-4.1-11.9-.3-1.7-1.7-3.1-3.4-3.3-1.7-.2-3.4.7-4.2 2.3-2 4.2-4.2 8.3-6.7 12.2-2.8-6.3-4.4-13-4.9-19.9-.1-1.9-1.7-3.5-3.6-3.7-1.9-.2-3.7 1.1-4.2 2.9-2.9 10.7-5.8 21.8-11.1 31.5-2.6 4.9-8.9 10-18 15zm153.9-1.6c-2-3.1-3.8-6.6-5.4-9.8-.7-1.3-1.3-2.5-1.9-3.6-4.3-7.9-7-16.8-9.4-25.5 8.7 11 14.6 24.3 16.7 38.9zm-55 128.5c-8.1 2.5-16.7 3.9-25.6 3.9h-.8c-7.9 0-15.6-1.1-22.8-3.1l-1.8 1.4v12.1c7.8 2.3 16 3.6 24.6 3.6h.8c9.8 0 19.2-1.7 27.9-4.7v-11l-2.3-2.2zM911 587.3h20.9v-49.9l-10.5 3.7-1.4 33.8h-16.8l7.8 12.4z"/><path class="st4" d="M819.4 563c-15.3 0-27.7 12.4-27.7 27.7s12.4 27.7 27.7 27.7 27.7-12.4 27.7-27.7-12.6-27.7-27.7-27.7zm0 47.3c-10.8 0-19.7-8.8-19.7-19.7s8.8-19.7 19.7-19.7 19.7 8.8 19.7 19.7-9 19.7-19.7 19.7zM494.8 293.4c.6-2.7 0-5.4-1.7-7.6-1.8-2.2-4.4-3.5-7.2-3.5h-42.8c-2.8 0-5.4 1.3-7.2 3.5-1.7 2.2-2.3 4.9-1.7 7.6 3.3 14.2 15.8 24.1 30.3 24.1 14.6 0 26.9-9.9 30.3-24.1zm-45.4 10.5h30.1c-4.1 3.5-9.3 5.6-15.1 5.6-5.6 0-10.9-2.1-15-5.6zm36.5-13.5h.4c.3.1.4.2.6.4.1.2.3.5.2 1-.3 1.4-.8 2.8-1.4 4.2h-42.1c-.6-1.3-1.1-2.7-1.4-4.2-.1-.5.1-.8.2-1 .1-.1.3-.3.6-.4h42.9zm-17-24.2h-12.5c-2.2 0-4 1.8-4 4s1.8 4 4 4h12.5c3.6 0 6.9-2 8.6-5.2s1.4-7.1-.7-10c-2.5-3.6-4-6.9-4.8-10.3-.5-2.2-2.6-3.5-4.8-3.1-2.2.5-3.5 2.6-3.1 4.8 1 4.6 2.9 8.8 6 13.2.5.7.3 1.4.1 1.7 0 .3-.4.9-1.3.9z"/><circle class="st4" cx="432.2" cy="227.1" r="7.1"/><path class="st4" d="M494.8 234.2c3.9 0 7.1-3.2 7.1-7.1 0-3.9-3.2-7.1-7.1-7.1s-7.1 3.2-7.1 7.1 3.2 7.1 7.1 7.1z"/><path class="st4" d="M458.3 231.3h11.1c1.9 9.3 10.1 16.4 20 16.4h11.5c9.9 0 18.1-7.1 20-16.4h6.9c2.2 0 4-1.8 4-4s-1.8-4-4-4h-6.9c-1.9-9.3-10.1-16.4-20-16.4h-11.5c-9.9 0-18.1 7.1-20 16.4h-11.1c-1.8-9.3-10.1-16.4-20-16.4h-11.5c-9.9 0-18.1 7.1-20 16.4h-6.9c-2.2 0-4 1.8-4 4s1.8 4 4 4h6.9c1.9 9.3 10.1 16.4 20 16.4h11.5c9.9 0 18.2-7.1 20-16.4zm31.1-16.4h11.5c6.8 0 12.4 5.6 12.4 12.4s-5.6 12.4-12.4 12.4h-11.5c-6.8 0-12.4-5.6-12.4-12.4s5.5-12.4 12.4-12.4zm-74.9 12.4c0-6.8 5.6-12.4 12.4-12.4h11.5c6.8 0 12.4 5.6 12.4 12.4s-5.6 12.4-12.4 12.4h-11.5c-6.8 0-12.4-5.6-12.4-12.4z"/><path class="st4" d="M968.1 564.8l-.7-1.9-12.8-33.6c.2-.3.3-.7.3-1.1l2.9-18.8c.8-4.9-.6-9.9-3.8-13.7-3.2-3.8-7.9-6-12.9-6H714.9c-8.3 0-15.3 6-16.7 14.2l-3.1 18.9-14.7-4.9-46.4-25.4c-21.6-37.1-39.6-64.5-58.5-89-19.9-25.7-40.4-52.4-77-52.4h-14.3v-14.5c29.7-10.7 52.1-36.8 57.6-68.6 2 .4 4 .6 6 .6 18 0 32.7-14.7 32.7-32.7 0-17-13.1-31.1-29.8-32.5-1.2-24.7-11.5-47.7-29.3-65-18.3-17.8-42.4-27.6-67.9-27.6s-49.7 9.8-67.9 27.6c-17.8 17.4-28.2 40.5-29.3 65.3-15.7 2.4-27.8 15.9-27.8 32.3 0 16.7 12.5 30.4 28.7 32.4V288c0 8.8 7.2 16 16 16h7.2c10.5 14.8 25.3 26.3 42.5 32.5v14.6h-13.6c-18 0-35.2 6.7-48.5 18.8-13.1 11.9-15.6 29.3-17.7 44.7l-.3 2.4h-88.4c-12.5 0-24.4 5.3-32.7 14.6s-12.3 21.7-11 34.1l21.4 197.7c2.4 22.4 21.2 39.3 43.7 39.3h33.6l8.7 54.4h-18.4c-14.9 0-27 12.1-27 27s12.1 27 27 27H449v158.4h-54.8c-14.7 0-26.7 12-26.7 26.7 0 .8.2 1.6.7 2.2-10.9 1.6-19.3 11-19.3 22.4 0 12.5 10.1 22.6 22.6 22.6s22.6-10.1 22.6-22.6c0-9.1-5.4-17-13.3-20.6h73.3c-7.8 3.6-13.3 11.4-13.3 20.6 0 12.5 10.1 22.6 22.6 22.6s22.6-10.1 22.6-22.6c0-9.1-5.4-17-13.3-20.6h74c-7.8 3.6-13.3 11.4-13.3 20.6 0 12.5 10.1 22.6 22.6 22.6h139.6c.6 0 1.2 0 1.8-.1.3.1.6.1.9.1h120.2c5.5 0 10.2-3.4 11.9-8.6 1.8-5.2.1-10.7-4.3-14.1l-48.6-37v-27c0-2.2-1.8-4-4-4-3.4 0-6.7.5-9.8 1.4v-246c0-4.6-.7-9-2.1-13.3h151.5c8.3 0 15.3-6 16.7-14.2l13.5-82.6 9.9-3.8 1.9-.7c5.6-2.1 10-6.3 12.4-11.7s2.7-11.5.6-17zm-490 455.9c0 8-6.5 14.6-14.6 14.6-8 0-14.6-6.5-14.6-14.6s6.5-14.6 14.6-14.6c7.9 0 14.6 6.5 14.6 14.6zm465-452.9c-2.1.8-3.1 3.1-2.3 5.2l5.8 15.3-28.8 11-7.7-20.3h8.8c2.2 0 4-1.8 4-4v-32.4l24.6-9.4 11 28.8-15.4 5.8zm-79.4 3.1v-51.2h51.2v51.2h-51.2zM535.9 686.8c-6.8 0-12.5-4.5-14.3-10.7h1.6c.5 0 1-.1 1.4-.3H670l-1.8 11H535.9zm16.6 8.3h44.3c19.9 0 36 16.1 36 36v226.4c-9 5.3-15.4 14.4-16.8 25.3h-26c-.7 0-1.4-.3-1.8-.8-.3-.3-.6-.8-.6-1.5 0-2.8-1-5.5-3-7.5s-4.6-3.1-7.5-3.1h-17l-19.7-206.3c0-.4-.1-.7-.3-1.1.2-.5.3-1 .3-1.5 0-2.2-1.8-4-4-4H398.1c-19.9 0-36-16.1-36-36v-44.9h151.4c2 10.6 11.4 18.7 22.5 18.7h15.3c.4.2.9.3 1.2.3zm7.6 301.6c0-.2.1-.4.1-.6 0-.6 0-1.1-.1-1.7v-16.5h17.1c.7 0 1.3.3 1.7.7s.7 1.1.7 1.8c0 2.7 1 5.3 2.9 7.3 2 2 4.7 3.2 7.5 3.2h29.7c.9 0 1.9-.4 2.6-1 .9-.7 1.4-1.8 1.4-2.9.3-10.2 6.2-18.9 14.6-23.2.1 0 .2-.1.3-.2 2.5-1.2 5.1-2.1 8-2.5v24.6c0 1.2.6 2.4 1.6 3.2l45.2 34.4H560.1v-26.6zm114.8-22.8v25.2l-20.2-15.4v-27c0-2.2-1.8-4-4-4-3.4 0-6.7.5-9.8 1.4V811h18.9l15.4 161.5c-.1.4-.3.9-.3 1.4zm-34-170.9v-35h14.8l3.3 35h-18.1zM473.3 598.6c5.2 0 9.4 4.2 9.4 9.4s-4.2 9.4-9.4 9.4H306.8V608c0-5.2 4.2-9.4 9.4-9.4h157.1zM438.8 499l51.1 48.6c.2.2.5.4.8.6l102.6 57.7c1.8 1 4.1.5 5.2-1.2l4.8-6.9c1-1.4 2.4-2.3 4-2.6 1.6-.3 3.3.1 4.7 1 2.8 2 3.5 5.9 1.6 8.7l-3.5 5c-.7.9-.9 2.1-.6 3.2s1 2.1 2 2.6l9.8 5.3c3.6 2 6.3 5.4 7.2 9.4 1 4 .1 8.3-2.2 11.7-3.9 5.7-11.4 7.8-17.7 5l-54.7-23.7-89.6-38.7-75.2-52.6 49.7-33.1zm78.1 168.9c-.5 0-1 .1-1.4.3H362.1v-42.7h111.2c9.6 0 17.4-7.8 17.4-17.4 0-1.1-.1-2.2-.3-3.2l57.9 25.1v38l-31.4-.1zm-162.8-42.5V757h-14.7V625.4h14.7zm8 120.9c2.9 4.2 6.6 7.8 10.8 10.8h-10.8v-10.8zm309.3-78.4H556.3v-34.5l49.1 21.3c2.9 1.3 5.9 1.9 8.9 1.9 7.2 0 14.2-3.5 18.6-9.7 3.7-5.3 4.9-11.9 3.4-18.1-1.5-6.2-5.6-11.6-11.2-14.6l-5.8-3.2.9-1.3c4.5-6.5 2.9-15.4-3.6-19.9-3.1-2.2-6.9-3-10.7-2.3s-7 2.8-9.2 5.9l-2.7 3.9-37.8-21.3v-47.3l6.9 10.5c.6.9 1.5 1.5 2.5 1.7s2.1 0 3-.6l12.5-8.3 72.9 37.8c.2.1.5.2.7.3l31 8.8-14.3 89zm6.1-142.6l16.3 5.5-6.6 40.2-29.7-8.5-68.6-35.6 41.1-27.4c.1 0 .1-.1.2-.1l46.7 25.6.6.3zM380.4 209.6c-2.2-1.6-4.6-3-7.2-4 6.6-38.7 40.7-67.6 80.3-67.6 21.8 0 41.7 8.7 56.4 22.8-1.1.7-1.8 1.8-1.9 3.1-.5 6.9-2.1 13.6-4.9 19.9-2.5-3.9-4.7-8-6.7-12.2-.7-1.6-2.4-2.5-4.2-2.3-1.7.2-3.1 1.6-3.4 3.3-.7 4.2-2.1 8.2-4.1 11.9-2.7-6.7-4.6-13.7-5.5-21-.3-2-1.9-3.4-3.9-3.5-2 0-3.7 1.3-4 3.3l-5.3 29.4c-4-5.5-6-11.8-8.3-18.8-1.2-3.6-2.4-7.4-3.9-11.3-.7-1.7-2.4-2.7-4.2-2.5-1.8.2-3.2 1.6-3.5 3.4-1 7.2-2.8 14.3-5.5 21-2-3.7-3.4-7.7-4.1-11.9-.3-1.7-1.7-3.1-3.4-3.3-1.7-.2-3.4.7-4.2 2.3-2 4.2-4.2 8.3-6.7 12.2-2.8-6.3-4.4-13-4.9-19.9-.1-1.9-1.7-3.5-3.6-3.7-1.9-.2-3.7 1.1-4.2 2.9-2.9 10.7-5.8 21.8-11.1 31.5-2.6 4.9-8.9 10-18 15zm192 26.3c0 13.6-11.1 24.7-24.7 24.7-1.6 0-3.2-.2-4.8-.5v-3.2c.1-1.4.1-2.8.1-4.2 0-.3 0-.6-.1-.9V220c.1-.3.1-.6.1-.9v-.3c0-1.1 0-2.2-.1-3.4v-3.7c1.6-.3 3.1-.5 4.8-.5 13.7 0 24.7 11.1 24.7 24.7zm-181.3-91.8c16.8-16.4 38.9-25.4 62.3-25.4s45.6 9 62.3 25.4c16.3 15.9 25.8 37 26.9 59.6-.3 0-.6.1-.9.2-7.4-41.9-44.2-73.9-88.1-73.9-43.3 0-80.5 31.4-88.1 73.6-.4-.1-.8-.1-1.3-.2 1.2-22.5 10.7-43.5 26.9-59.3zM534.3 208c-2-3.1-3.8-6.6-5.4-9.8-.7-1.3-1.3-2.5-1.9-3.6-4.3-7.9-7-16.8-9.4-25.5 8.7 11 14.6 24.3 16.7 38.9zm-197.9 27.9c0-13.6 11.1-24.7 24.7-24.7s24.7 11.1 24.7 24.7c0 12.2-9 22.4-20.7 24.3v-24.3c0-2.2-1.8-4-4-4s-4 1.8-4 4v24.3c-11.7-1.9-20.7-12.1-20.7-24.3zm36.7 60c-4.4 0-8-3.6-8-8v-19.6h.3c1.7 9.9 5.1 19.2 9.8 27.7h-2.1v-.1zm17.3 8h10.8c1.5 2.7 4.3 4.5 7.6 4.5h7.7c4.8 0 8.7-3.9 8.7-8.7 0-4.8-3.9-8.7-8.7-8.7h-7.8c-3.4 0-6.4 2-7.8 4.9h-16.3c-5.6-8.9-9.6-18.9-11.4-29.7 12-4.8 20.5-16.6 20.5-30.3 0-7.8-2.7-14.9-7.3-20.5 9.4-5.4 15.8-11.1 18.9-17 3-5.6 5.3-11.4 7.2-17.4.8 2.3 1.6 4.5 2.6 6.7.5 1.1 2 4.5 5.6 5.1 2.1.4 5.1-.1 7.9-4.5l2.7-4.5c1.7 4.1 3.9 7.9 6.7 11.3.8 1.1 2.2 1.6 3.5 1.5 1.4-.1 2.5-1 3.2-2.2 2.5-5 4.6-10.2 6.2-15.5 3 9.2 6.3 18 14.9 25.4 1.1.9 2.6 1.2 4 .8 1.4-.5 2.4-1.6 2.6-3.1l3.4-18.7c1.3 3.8 2.9 7.5 4.7 11.1.6 1.2 1.8 2 3.2 2.2 1.4.1 2.7-.4 3.5-1.5 2.7-3.4 5-7.3 6.7-11.3l2.7 4.5c2.8 4.4 5.8 4.8 7.9 4.5 3.6-.6 5.1-4 5.6-5.1 1-2.2 1.9-4.4 2.6-6.7 1.9 5.9 4.2 11.8 7.2 17.4.6 1.1 1.2 2.2 1.8 3.5 3.3 6.4 7.4 14.3 12.5 18.6.2.2.5.3.7.5v35.8c-2.1 42.8-37.6 77.1-81 77.1h-.8c-24.9-.1-47.7-11.7-62.7-30zm62.8 37.9h.8c7.7 0 15.1-1 22.2-2.8v15.1c0 12.5-10.2 22.7-22.7 22.7s-22.7-10.2-22.7-22.7v-15.2c7.2 1.9 14.7 2.9 22.4 2.9zm-87 33.9c11.8-10.8 27.1-16.7 43.1-16.7h14c2.3 14.6 15 25.8 30.3 25.8s27.9-11.2 30.3-25.8h14.7c32.7 0 52 25 70.7 49.2 18 23.3 35.3 49.5 55.7 84.4-.1.2-.1.5-.2.7-8.5 5.7-30.2 20.2-45.2 30.1-.6.2-1.2.6-1.6 1.1-4.2 2.8-7.8 5.2-10.3 6.8L556.3 514v-93.3c0-2.2-1.8-4-4-4s-4 1.8-4 4v150.5l-53.2-29.9-53.8-51.3c-.3-.3-.6-.5-.9-.7-16.4-28.1-31.5-51.9-45-70.9-1.3-1.8-3.8-2.2-5.6-1-1.8 1.2-2.2 3.8-1 5.6 13.2 18.7 28.1 42.2 44.3 69.9l-60.8 40.8c-1.8 1.2-2.3 3.7-1.1 5.5.8 1.2 2 1.8 3.3 1.8.8 0 1.5-.2 2.2-.7l5.3-3.5 76.7 53.7H347.2c-.1-6.7-.2-44.1-.2-69.2 0-12.9 0-22.9-.1-25-.2-26 .2-53.8 4-80.8 2.1-14.6 4.3-29.8 15.3-39.8zm-90.5 318.9c-18.4 0-33.8-13.8-35.8-32.1l-21.3-197.7c-1.1-10.1 2.2-20.3 9-27.9 6.8-7.6 16.6-12 26.8-12h87.3c-.7 6.3-1.2 12.7-1.6 19h-56.2c-12.5 0-24.4 5.3-32.7 14.6s-12.3 21.7-11 34.1l18.4 170.7c1.4 13 8.4 24.2 18.4 31.3h-1.3zm-9.2-32.1l-18.4-170.7c-1.1-10.1 2.2-20.3 9-27.9 6.8-7.6 16.6-12 26.8-12h55.8c-.7 15.1-.8 30.1-.7 44.5 0 2 0 12.1.1 24.9.1 26.4.1 62.1.2 69.2h-23.1c-9.6 0-17.4 7.8-17.4 17.4v13.4c0 2.2 1.8 4 4 4h28.7v69.2h-29.1c-18.5.1-33.9-13.7-35.9-32zm50.9 40.1h14V757h-5.3l-8.7-54.4zM280.8 784c0-10.5 8.5-19 19-19h232.7l3.6 37.9H299.7c-10.4.1-18.9-8.4-18.9-18.9zm190.9 27v157.6H457V811h14.7zm8 0h57.2l15.4 161.5c-.2.4-.3.9-.3 1.4v3.1c-4.8-4.7-11.4-7.6-18.6-7.6h-53.7V811zm-85.5 166.4h139.3c8.9 0 16.4 6.3 18.2 14.7H376c1.8-8.4 9.3-14.7 18.2-14.7zm-8.1 43.3c0 8-6.5 14.6-14.6 14.6s-14.6-6.5-14.6-14.6 6.5-14.6 14.6-14.6 14.6 6.5 14.6 14.6zm155.3 0c0-6.7 4.5-12.3 10.6-14v28.1c-6.1-1.9-10.6-7.5-10.6-14.1zm18.7 10.5h139.6c-.1.7-.4 1.4-.8 2-.6.9-1.8 2-4 2H560.1v-4zm147.3 4.1c.1-.2.2-.4.2-.6.4-1.1.6-2.3.7-3.5h114.3c-.1.7-.4 1.4-.8 2-.6.9-1.8 2-4 2l-110.4.1zm63.7-46.5l45.2 34.4H705.9c-.7-1-1.6-1.8-2.6-2.6l-20.3-15.4v-27.3h17.1c.7 0 1.3.3 1.7.7s.7 1.1.7 1.8c0 2.7 1 5.3 2.9 7.3 2 2 4.7 3.2 7.5 3.2h29.8c.9 0 1.9-.4 2.6-1 .9-.7 1.4-1.8 1.4-2.9.3-10.2 6.2-18.9 14.6-23.2.1 0 .2-.1.3-.2 2.5-1.2 5.1-2.1 8-2.5v24.6c-.1 1.2.5 2.4 1.5 3.1zM753.4 695c1.6 4.2 2.5 8.6 2.5 13.1v249.3c-9 5.3-15.4 14.4-16.8 25.3h-26c-.7 0-1.4-.3-1.8-.8-.3-.3-.6-.8-.6-1.5 0-2.8-1-5.5-3-7.5s-4.6-3.1-7.5-3.1h-17l-19.7-206.3c-.2-2.1-1.9-3.6-4-3.6H641V731c0-15-7.6-28.3-19.1-36.2h131.5v.2zM922 679.4c-.7 4.3-4.4 7.5-8.8 7.5H676.4l25.7-157.3s0-.1.1-.1c.2-.5.2-.9.2-1.4l3.7-22.8c.7-4.3 4.4-7.5 8.8-7.5h226.4c2.6 0 5.1 1.1 6.8 3.1s2.4 4.6 2 7.2l-2.6 16.5-24.5 9.3v-18.2c0-2.2-1.8-4-4-4h-59.2c-2.2 0-4 1.8-4 4v59.2c0 2.2 1.8 4 4 4h41.9l10.2 26.9c.1.2.2.4.3.7 0 .1.1.1.1.2.1.2.2.3.3.4 0 .1.1.1.1.1l.4.4.1.1c.2.1.4.3.6.4h.1c.2.1.4.1.6.2h.2c.2 0 .5.1.7.1.5 0 1-.1 1.4-.3l17.8-6.8-12.6 78.1zm38.4-100.8c-1.3 2.9-3.5 5.2-6.2 6.7l-4.4-11.4 11.4-4.4c.8 3 .4 6.2-.8 9.1z"/><path class="st4" d="M643.7 225.5H668L657.7 253c-.6 1.6-.1 3.5 1.3 4.6.7.6 1.6.8 2.5.8.8 0 1.6-.2 2.3-.7l46-32.2h55.1c2.2 0 4-1.8 4-4v-92.8c0-2.2-1.8-4-4-4H643.7c-2.2 0-4 1.8-4 4v92.8c0 2.2 1.7 4 4 4zm4-92.9h113.2v84.8h-52.4c-.8 0-1.6.3-2.3.7l-36.5 25.6 7.8-20.8c.5-1.2.3-2.6-.5-3.7-.7-1.1-2-1.7-3.3-1.7h-26v-84.9z"/><circle class="st4" cx="674.9" cy="176.8" r="7.3"/><circle class="st4" cx="704.3" cy="176.8" r="7.3"/><circle class="st4" cx="733.5" cy="176.8" r="7.3"/><path class="st4" d="M456.1 1020.7c0 4 3.3 7.3 7.3 7.3s7.3-3.3 7.3-7.3-3.3-7.3-7.3-7.3c-4-.1-7.3 3.2-7.3 7.3zm-91.9 0c0 4 3.3 7.3 7.3 7.3s7.3-3.3 7.3-7.3-3.3-7.3-7.3-7.3c-4-.1-7.3 3.2-7.3 7.3z"/><path class="st0" d="M819.4 610.3c-10.8 0-19.7-8.8-19.7-19.7s8.8-19.7 19.7-19.7 19.7 8.8 19.7 19.7-9 19.7-19.7 19.7z"/></svg>