<?xml version="1.0" encoding="utf-8"?>
<!-- Generator: Adobe Illustrator 22.0.1, SVG Export Plug-In . SVG Version: 6.00 Build 0)  -->
<svg version="1.1" id="Layer_1" xmlns="http://www.w3.org/2000/svg" xmlns:xlink="http://www.w3.org/1999/xlink" x="0px" y="0px"
	 viewBox="0 0 313 215" style="enable-background:new 0 0 313 215;" xml:space="preserve">
<path d="M33.7,73c-0.2-1,0-1.8,0.2-2.7c1-4.6,2.6-8.9,5.4-12.7c1-1.4,2-2.9,3.1-4.3s2.3-2.9,3.5-4.2c1.3-1.4,2.8-2.5,4.6-3.3
	c2.5-1.2,5-2.2,7.5-3.1c2.4-0.8,4.9-1.6,7.4-2.3c1-0.3,2.2-0.4,3.3-0.4c4-0.1,8.1-0.1,12.1,0s8.1,0.6,12,1.6
	c2.9,0.7,5.2,2.2,7.7,3.8c0.6,0.4,1.2,0.8,1.8,1.3c0.6,0.5,1.2,1,1.5,1.6c0.9,1.6,2.1,3,3.4,4.3c1.9,2,3.2,4.4,4.6,6.7
	c0.5,0.9,1.1,1.7,1.6,2.6c0.3,0.6,0.6,1.2,0.8,1.8c0.2,0.6,0.3,1.3,0.5,1.9c0.6,0,0.7-0.3,0.8-0.7c0.7-1.9,1.7-3.6,2.6-5.3
	c1.6-3.2,3.8-5.9,5.8-8.8c1.4-2.1,3-4,4.7-5.9c1.6-1.8,3.7-2.9,5.8-4c1.8-0.9,3.4-2.1,4.4-3.8c0.5-0.8,1-1.5,1.4-2.3
	c1.1-1.9,2.6-3.4,4.3-4.7c1.2-1,2.6-1,4-0.9c0.4,0,0.9,0.3,1.2,0.5c0.6,0.5,1.1,1.1,1.7,1.7c0.5,0.6,0.8,1.2,0.6,2
	c-0.1,0.6-0.2,1.2,0.2,1.8c0.3,0,0.6,0.1,1,0.1c3.2,0.1,6.3,0.1,9.5,0.6c1.2,0.2,2.5-0.1,3.7,0.3c0.4,0.1,1-0.1,1.5-0.2
	c0.9-0.2,1.7-0.4,2.6-0.6c1.3-0.3,2.6-0.3,3.9,0.4c0.9,0.5,2,0.3,2.8,1.1c1.1,0.9,2.1,1.8,2.1,3.4c0,0.8,0.5,1.3,1.2,1.7
	c0.9,0.5,1.7,1.1,2.6,1.6c2.2,1.3,4.2,2.9,5.8,5c2.2,3.1,4,6.5,5,10.2c0.3,1.1,0.4,2.2,0.6,3.2c0.1,0.6,0.3,1.2,0.6,2.2
	c0.9-2,1.7-3.6,2.5-5.3c1.5-3.1,2.8-6.3,5.1-9c0.3-0.4,0.5-0.9,0.8-1.3c0.4-0.6,0.8-1.2,1.4-1.7c2.3-2.1,4.6-4.4,7.1-6.2
	c3.3-2.4,6.8-4.3,11-4.9c0.7-0.1,1.3-0.2,2-0.2c1.9-0.1,3.8-0.1,5.7-0.2c3.7-0.1,7.4-0.3,11-0.2c3.7,0,7.3,0.6,10.8,1.8
	c2.7,0.9,5.2,2.5,7.5,4.2c0.9,0.6,1.8,1.3,2.5,2.1c0.8,0.8,1.4,1.6,2.4,2.2c0.8,0.4,0.8,1.3,1.4,1.9c1,1,1.8,2.3,2.6,3.5
	c3.6,5.1,5.2,10.8,5.3,17c0,1.2,0.4,2.3-0.1,3.6c-0.6,0.1-1.2,0.2-1.9,0.2c-4.6,0.3-9.2,0.6-13.9,0.9c-1.4,0.1-2.8,0-4.2,0
	c-10.3-0.4-20.6-0.3-30.9,0.3c-3.5,0.2-6.9,0.1-10.3-0.4c-1.7-0.2-3.4-0.2-5.1-0.3c-4.4-0.1-8.8-0.1-13.2-0.2
	c-6.5-0.2-13.1,0-19.6,0.1c-4.6,0.1-9.1,0.4-13.7,0.6c-5.9,0.3-11.7,0.8-17.6,1.1c-0.7,0-1.5,0-2.2-0.3c-2.3-0.8-4.7-1-7.2-1.2
	c-5.4-0.4-10.9-0.2-16.3-0.1c-3.5,0.1-7.1,0.1-10.6,0.5c-2.6,0.3-5.1,0.5-7.6,1.3c-1.2,0.4-2.5,0.3-3.7,0.3
	c-5.4,0.1-10.7,0-16.1,0.2c-5.5,0.2-11-0.3-16.5-0.6c-8.2-0.4-16.3-0.7-24.5-0.7h-4C34.6,73.1,34.2,73,33.7,73 M137,56
	c0.1,0.7,0.2,1.3,0.3,2c0.2,1.7,0.5,3.5,0.6,5.2c0.1,1.4,0.9,2.5,1.6,3.6c0.2,0.3,0.7,0.6,1.1,0.7c1.3,0.3,2.6,0.6,3.9,0.8
	c1.2,0.2,2.3-0.1,3.2-1c0.9-0.8,1.9-1.7,2.9-2.4c1.4-0.9,2.2-2.1,2.8-3.6c0.2-0.4,0.1-0.8,0.2-1.3c-0.6-0.2-1.1-0.4-1.6-0.4
	c-1.1-0.2-1.4-0.1-1.9,1c-0.6,1.3-1.5,2.4-2.6,3.2c-1,0.8-2.1,0.9-3,0.1c-0.7-0.6-1.4-1.3-1.9-2.1c-1.5-2.6-1.5-5.5-0.9-8.3
	c0.2-1.2,1.1-1.9,2.4-2c0.2,0.3,0.5,0.6,0.6,1c0.8,1.6,2.1,2.6,3.6,3.4c2.3,1.3,4.9,2,7.5,2.6c1.1,0.3,2.3,0.6,3.4,0.1
	c0.4-0.2,1-0.2,1.5-0.1c2.1,0.2,4.1-0.4,6-1.2c1.3-0.6,2.7-1.2,4-1.9c0.5-0.3,0.9-0.7,1.4-1.1c1.5-1.3,2.6-3,3.8-4.5
	c1.2-1.6,1.9-3.3,1.7-5.3l-0.6-3.9c-0.1-0.6-0.5-1.1-1-1.4c-0.4-0.2-0.7-0.5-1.1-0.7c-1.3-0.8-2.6-0.9-3.9-0.2
	c-2.8,1.5-5.2,3.3-6.5,6.5c-1.1,2.8-2.4,5.5-2.4,8.6c0,0.1-0.1,0.3-0.2,0.5c-1.5,0.4-3.1,0.9-4.8,0.5c-0.9-1-1.6-2-1.8-3.3
	c-0.2-1-0.9-1.5-1.7-1.9c-1.6-0.8-3.3-1.1-5.1-0.8c-0.5,0.1-0.9,0-1.4,0c0-1,0.2-1.8,0.7-2.6c0.7-1.3,1.3-2.7,1.7-4.1
	c0.6-2.2,0.9-4.5,1.2-6.7c0.1-0.6,0-1.3-0.1-2c-0.1-0.8-0.5-1.1-1.3-1.3c-1.6-0.4-2.9-0.1-3.9,1.3c-0.6,0.9-1.1,1.7-1.7,2.5
	c-1.9,2.3-3.1,5-4.2,7.7c-0.8,1.9-1.5,3.8-1.9,5.8c-0.3,1.3-1,1.9-2.1,2.3c-0.9,0.4-1.9,0.7-2.9,1.1c-1.4,0.6-2.7,1.1-4.2,1.1
	c-0.2,0-0.6-0.1-0.6,0.5C130.5,55.8,133.7,56.2,137,56 M163.7,61.5c0.8,0.9,1.3,1.6,2,2.1c2,1.7,4.2,2.6,6.9,1.6
	c1.2-0.4,2.4-0.6,3.6-0.9c1.6-0.3,2.9-1.1,3.9-2.3c2-2.4,3.4-5.2,3.4-8.4c0-0.3-0.1-0.5-0.2-0.8c-0.8,0.2-1,0.8-1.2,1.3
	c-0.6,1.4-1.4,2.7-2.6,3.8c-1.4,1.3-2.9,2.4-4.6,2.9c-1.8,0.5-3.8,0.5-5.4-0.8c-0.3-0.2-0.5-0.5-0.9-0.7c-0.3-0.1-0.7-0.3-1-0.2
	C166.1,59.7,164.8,60.4,163.7,61.5 M197.1,147.5c0.8-0.5,1.6-0.4,2.3-0.4c11.1,0.1,22.2,0.2,33.3,0.2c10.7,0,21.5-0.1,32.2-0.2
	c2.2,0,4.4,0,6.6-0.1c0.3,0,0.6,0.1,1,0.1c0.1,0.3,0.4,0.6,0.4,1c-0.1,1.5-0.2,3.1-0.4,4.6c-0.2,1.6-0.4,3.2-0.8,4.8
	c-0.4,1.7-1.1,3.3-1.6,5c-1.7,2.3-3,4.9-4.9,7c-0.9,1-1.6,2.1-2.5,3.1c-1.2,1.3-4.2,3.6-5.8,4.6c-0.9,0.5-1.6,1.3-2.5,1.8
	c-3.1,2-6.4,3.7-10,4.5c-2.2,0.5-4.5,0.7-6.8,0.7c-3.7,0-7.5-0.3-11.2-0.6c-1.6-0.1-3.2-0.4-4.8-0.7c-4.7-1-8.4-3.7-11.4-7.4
	c-2.2-2.7-4-5.5-5.6-8.6c-0.7-1.4-1.6-2.6-2.4-3.9c-0.4-0.8-0.9-1.5-1.2-2.4c-1.4-3.6-2.8-7.2-3.6-11.1
	C197.3,148.9,197.2,148.2,197.1,147.5 M37.6,144.3c0.4,0,0.8-0.1,1.1-0.1c5.1-0.3,10.1-0.5,15.2-0.8c4.6-0.2,9.1-0.4,13.7-0.5
	c1.2,0,2.4,0,3-1.3c2.7-2.1,5.6-3.8,9.3-3.1c1.5,0.3,2.6,0.9,3.4,2.2c0.5,0.8,1,1.6,1.4,2.5c1.8,0.5,3.5,0.7,5.3,0.5
	c3.3-0.3,6.6-0.6,9.9-1c0.8-0.1,1.6-0.2,2.4-0.2c4.8,0,9.6-0.1,14.3-0.1c0.4,0,0.7,0.1,1.2,0.1c0.1,0.5,0.3,1,0.3,1.5
	c0,2.3-0.1,4.6-0.3,6.8c-0.2,2-0.9,3.9-2.3,5.4c-1,1.2-2,2.3-3,3.5c-3.4,3.9-6.8,7.7-11,10.8c-0.5,0.4-1,0.9-1.5,1.3
	c-1.4,1.1-2.7,2.4-4.6,3.2c1.4,1.7,3.4,2.1,5,3.2c0,1.8-0.1,2-1.5,2.5c-1.8,0.6-3.7,1-5.6,0.7c-1.5-0.2-2.9-0.2-4.4-0.5
	c-1.3-0.3-2.5-0.7-3.8-1.2c-0.7-0.3-1.4-0.4-2.1-0.1c-4.1,1.5-8.3,1.5-12.6,1.4c-2.8-0.1-5.4-0.8-7.9-1.8c-2.3-0.9-4.7-1.8-7-2.7
	c-2.3-1-4.2-2.5-5.8-4.3c-1.5-1.6-3-3.2-4.3-4.9c-2.1-2.7-4.1-5.6-5.3-8.9l-1.8-4.5c-1.1-2.9-1.4-5.8-1.1-8.9
	C37.4,144.9,37.5,144.6,37.6,144.3 M83.2,142.6c-0.5-0.3-0.9-0.6-1.2-0.8c-1.6-1.3-3.5-1-5.3-0.8c-0.5,0.1-1.1,0.4-1.5,0.8
	c-1.8,2.2-3.4,4.5-3.3,7.5c0.1,1.2-0.4,1.9-1.4,2.5c-2.2,1.4-4.1,3.1-5.8,5.1c-2.5,2.9-3.3,6.4-3.1,10.1c0,0.8,0.4,1.7,0.7,2.5
	c0.4,1,1.4,1.5,1.9,2.3c0.8,1.1,1.8,1.4,3,1.4c1.2,0.1,2.3-0.1,3.5-0.5c2-0.7,3.6-1.9,5.5-2.8c1.3-0.7,1.2-1.6,0.5-2.5
	c-0.2-0.3-0.5-0.6-0.8-0.8c-0.6-0.5-1.1-0.4-1.8,0c-0.8,0.5-1.5,1.1-2.4,1.5c-2.1,0.9-4.1-0.6-3.8-2.9c0.3-2,1-4,2.5-5.5
	c0.9-0.9,1.8-1.8,2.6-2.7c1.9-2.1,4-3.8,6.4-5.3c1.5-0.9,2.6-2.3,3.3-4C83.5,146.1,83.4,144.4,83.2,142.6 M97.9,179
	c-0.8-0.4-1.3-0.7-1.8-0.9c-0.7-0.4-1.5-0.7-2.2-1.1c-2.9-1.9-5.7-3.9-8.2-6.3c-1.3-1.3-2.5-2.6-2.8-4.6c-0.1-0.9,0-1.5,0.4-2.2
	c1.2-1.9,1.9-4.1,2.6-6.3c0.1-0.4,0.1-0.9,0.1-1.3c0-0.3-0.2-0.6-0.4-1.1c-0.7,0.8-1.2,1.4-1.8,2c-0.9,0.9-1.8,1.8-2.7,2.6
	c-0.6,0.6-1.3,0.9-2.2,1c-0.6-1.3-1.2-2.5-1.4-3.9c-0.1-0.9-1-1.1-1.6-0.5c-0.7,0.7-1.6,1.3-2,2.2c0.2,0.6,0.3,1.2,0.5,1.8
	c0.7,2.1,1.4,4.3,2.9,6.1c1.2,1.5,2.3,3.1,3.5,4.6c2.3,2.9,5.1,5,8.6,6.2c0.9,0.3,1.8,0.7,2.7,1.1c1.4,0.6,2.9,1,4.5,0.9
	C96.9,179.3,97.3,179.2,97.9,179 M254.8,132.6c-2.5,0.3-4.8,0.6-7.1,0.9c-1-3.3-1.8-6.5-2.8-9.6c-0.9-3.1-1.9-6.1-3-9.6
	c-0.4,1.3-0.5,2.2-0.6,3.1c-0.2,3.5-0.8,6.9-1.5,10.2c-0.4,1.9-0.5,3.9-0.8,5.9c-0.1,0.7-0.1,1.5-0.6,2.1c-1.9,0.4-4.1-0.2-6,0.7
	c-0.1-0.2-0.3-0.4-0.3-0.6c-0.4-3.4-0.6-6.9-0.7-10.3c-0.1-3.9,0.1-7.8,0.4-11.7c0.1-1.5,0-3.1,0-4.6c-0.1-4.6-0.4-9.1-0.3-13.7
	c0-3.8,0.3-7.6,0.5-11.5c0-0.4,0.2-0.7,0.2-1.1c2.6-0.5,5.1-1,7.7-1.5c0.2,0.3,0.4,0.6,0.6,1c0.3,0.8,0.5,1.5,0.7,2.3
	c0.8,4.3,1.6,8.7,2.3,13c0.2,1,0.4,2,0.7,3c0.2,0.8,0.6,1.5,0.8,2.2c0.6,0,0.5-0.3,0.5-0.6c0-1.2-0.1-2.5-0.1-3.7
	c0.1-2.5,0.2-5,0.4-7.5c0.1-0.9,0.1-1.8-0.2-2.6c-0.5-1.3-0.6-2.7-0.6-4.1c0-1.5,0.1-3.1,0.3-4.6c0.1-1.1,0.5-1.4,1.6-1.4
	c1.2,0,2.5,0.1,3.8,0c1,0,1.3,1,2.2,1.3c0.5,0.2,0.5,0.8,0.5,1.4c0,1,0.1,1.9,0.1,2.9c-0.2,2.9,0,5.9,0.3,8.8
	c0.4,3.7,0.8,7.3,0.7,11c0,6.8,0.2,13.5,0.5,20.3c0.1,2.4,0.1,4.7,0.1,7.1C255.1,131.5,255,132,254.8,132.6 M170.4,144
	c2.2-0.4,4.1-0.8,5.9-1.2c1.1-0.3,2.2-0.1,3.3,0c0.6,0,0.9,0.5,1.2,0.9c0.7,1.1,1.3,2.1,1.9,3.2c0.5,0.9,0.9,1.8,1.9,2.9
	c-0.1-3.8-0.5-7.2,0.3-10.8c0.5,0,0.9-0.1,1.4-0.1c2.3,0.2,4.7,0.5,7,0.7c0.3,0,0.6,0,0.9,0.1c0.6,0.2,1.1,0.5,1.1,1.2
	c0.2,1.4,0.4,2.8,0.4,4.2c0.2,5.1,0.4,10.1,0.6,15.2c0.2,4.3,0.3,8.5,0.4,12.8c0,0.8,0,1.7,0.3,2.4c0.6,1.5,0.5,3-0.1,4.5
	c-1.2,0.7-5.1,2-6.7,2.3c-0.2-0.3-0.5-0.7-0.7-1c-0.9-1.8-1.8-3.5-2.7-5.3c-1.4-2.6-3.2-4.9-5-7.2c-0.2-0.2-0.5-0.3-0.7-0.5
	c-1.1,0.7-1.3,1.7-1.3,2.9c0.1,2.4,0,4.9,0,7.3c0,1.2-0.1,2.4-0.2,3.5c-0.1,0.7-0.1,1.3,0.3,1.9c0.4,0.6,0,1.3-0.6,1.6
	c-0.3,0.1-0.7,0.2-1.1,0.2c-3.2-0.2-6.3-0.4-9.5-0.7c-1-0.1-1.2-0.4-1.1-1.4c0.1-1.4,0.1-2.8,0.2-4.2c0-1.4,0.2-2.8,0.9-4.1
	c1.9-3.6,2.2-7.6,2.2-11.6l-0.3-10.8c-0.1-2.1-0.2-4.3-0.2-6.4L170.4,144"/>
<path d="M141.3,151.3c1.5-0.1,2.9-0.2,4.4-0.4c0.6-2.5-0.1-5.1,1.2-7.5c2.2-0.4,4.3-0.6,6.5,0c0.8,0.8,0.9,1.7,0.9,2.7
	c-0.1,2.1-0.2,4.1-0.3,6.2c-0.2,3.9-0.4,7.8-0.5,11.7c-0.1,1.4,0.2,2.8,0.9,4c0.2,0.4,0.8,0.5,1.1,0.2c0.4-0.3,0.8-0.7,0.9-1.2
	c0.3-0.9,0.6-1.8,0.8-2.7c0.3-1.1,0.4-2.3,0.8-3.4c0.6-2.1,0.9-4.3,1-6.5c0.2-4.1-0.2-8.1-0.6-12.1c-0.1-1.2-0.3-2.3-0.1-3.5
	c3-0.4,5.8-0.3,8.7,0.1c0.2,0,0.4,0.1,0.6,0.2c0.9,0.3,1.2,0.6,1.2,1.6c0,1.5,0.1,3.1,0.1,4.6c-0.1,4.9-0.1,9.7,0.2,14.5
	c0.1,2.1-0.1,4.2-0.5,6.3c-0.6,3.3-1.5,6.4-2.6,9.5c-0.7,2-1.7,3.9-2.9,5.6c-3.2,4.7-10.2,6.6-15.8,2.4c-1.4-1-2.6-2.1-3.9-3.2
	c-0.3-0.2-0.5-0.6-0.6-0.9c-1.3-2.1-2.1-4.3-2.2-6.8c-0.2-4.4,0.1-8.8,0.3-13.2c0.1-2.1,0.5-4.2,0.3-6.4
	C141.1,152.6,141.2,152,141.3,151.3 M191.1,110.3c0,1.2-0.1,2.5,0,3.7c0.2,2.5,0.2,5,0,7.5c-0.2,2.2-0.2,4.4,0.1,6.6
	c0.2,2,0.6,4.1,0.2,6.1c-1.8,0.4-6.2,0.7-8.3,0.6c-0.1-0.4-0.2-0.8-0.2-1.2c0.1-4.1,0.1-8.2,0.3-12.3c0.4-8.7,0.5-17.5,0.5-26.3
	c0-3.8-0.3-7.5-0.7-11.2c-0.2-2.1-0.3-4.2,0.1-6.5l1.2-0.3c0.9-0.1,1.7-0.2,2.6-0.4c2.9-0.5,5.7-0.4,8.6,0.2
	c3.2,0.7,5.2,2.7,5.9,5.8c0.5,2.2,0.8,4.5,1,6.8c0.1,2,0,4.1,0,6.2s-0.4,4.1-1.6,5.9c-0.8,1.3-1.5,2.7-2.2,4.1
	c-0.4,0.7-0.4,1.1,0.2,1.6c1.8,1.5,2.6,3.6,2.9,5.8c0.7,5,1.6,10,1.7,15.1c0.1,1.9,0,3.8-0.1,5.7c0,0.4-0.1,0.9-0.1,1.3
	c-1.7,0.2-5.2-0.1-6.7-0.5c0-0.5-0.1-0.9-0.1-1.4c0.4-4.3,0.2-8.7-0.3-13c-0.1-1.4-0.6-2.8-1.1-4c-0.8-1.9-1.9-3.7-2.8-5.5
	C192,110,191.6,110,191.1,110.3 M191.1,99.8c3.2-1.9,4.7-4.5,4.6-7.9c-0.9-2.8-1.3-5.2-3.8-6C191.5,90.4,190.2,94.9,191.1,99.8
	 M71.5,106.1l1.3,1.3c0.8,0.8,1.5,1.6,2.3,2.4c1.2,1.3,1.8,2.9,2,4.6c0.4,4.5,0.7,9.1,0.1,13.6c-0.1,0.6-0.2,1.1-0.4,1.8
	c-1.9,0.1-3.8,0.1-5.6,0.2c-0.5-0.7-0.3-1.5-0.3-2.2c0-2.1-0.1-4.3-0.5-6.4c-0.6-3.1-2.1-5.6-4.2-7.9c-0.2-0.3-0.5-0.5-0.9-0.7
	c-0.2-0.2-0.5-0.2-0.7-0.3c-1,0.4-1.3,1.1-1.3,2.1c0,2.6,0.1,5.3,0,7.9c-0.1,3.1-0.3,6.2-0.5,9.2c0,0.4-0.2,0.8-0.3,1.3
	c-2,0.3-4,0.3-6,0.2c-0.1-0.4-0.3-0.7-0.3-1.1c-0.2-5-0.6-10-0.7-15c-0.1-4.9,0-9.8,0-14.8c0-4.8-0.1-9.6-0.2-14.3
	c0-1.4-0.3-2.8-0.4-4.2c-0.1-0.9-0.3-1.9,0-2.8c0.2-0.1,0.3-0.3,0.4-0.3c3.6-0.4,7.3-1,11-0.8c1.8,0.1,3.5,0.7,5,1.5
	c2.2,1.1,4.1,2.6,4.9,5.1c0.2,0.5,0.4,1.1,0.5,1.7c0.3,3.7,0.1,7.3-0.5,11c-0.3,1.8-1.1,3.4-2.4,4.6C73,104.6,72.3,105.2,71.5,106.1
	 M62,87.8c0,2.4,0.5,4.6,0.7,6.8c0.2,2.3,0.2,4.6,0.7,7c2.5-0.8,4.3-2.1,5.3-4.4c1.3-3.1,1.1-6-0.6-8.8c-0.7-1.1-1.7-1.6-3-1.6
	c-0.3,0-0.9,0.1-1,0.3C63.7,87.9,62.9,87.5,62,87.8 M81.3,81.4c0.3-0.2,0.3-0.3,0.4-0.3c3.1-0.2,6.2-0.5,9.2-0.5
	c3.2,0,6,1.2,8.5,3.1c0.8,0.6,1.1,1.4,1.3,2.4c0.6,3.7,0.3,7.5,0.3,11.2c0,1.8-0.7,3.4-1.7,5c-0.8,1.2-1.8,2.3-2.2,3.7
	c0,0.2-0.4,0.2-0.6,0.4c0.4,0.7,0.7,1.2,1,1.6c0.6,0.8,1.2,1.5,1.8,2.2c1.4,1.6,2.2,3.5,2.3,5.6c0.3,4,0.4,8.1-0.5,12.1
	c-0.1,0.4-0.2,0.9-0.4,1.3c-0.1,0.3-0.3,0.5-0.5,0.8c-1.8-0.1-3.5-0.3-5.4-0.4v-1.4c0.1-2.3,0.2-4.6,0.2-6.8c0-1.9-0.6-3.7-1.4-5.5
	c-0.8-1.9-2.3-3.1-3.9-4.6c0,0.5-0.1,0.9-0.1,1.4c-0.3-0.1-0.5-0.2-0.8-0.4c-0.1,0.1-0.3,0.2-0.3,0.2c0,1-0.1,2.1,0.1,3.1
	c0.4,2.2,0.3,4.4,0.2,6.6c-0.1,2.9-0.3,5.9-0.5,8.8c-0.1,1.1-0.2,2.2-0.5,3.3c-2.2,0.1-4.3,0-6.4-0.3c-0.1-0.5-0.2-0.8-0.2-1.2
	c0-3.1,0.1-6.2,0.1-9.3c0-3.5-0.2-6.9-0.3-10.4c0-1-0.1-2.1-0.1-3.1c-0.3-5.7-0.5-11.5-0.5-17.2c0-1.3,0.1-2.6,0.5-3.9
	c0.3-1,0.4-2,0.4-3V81.4 M90.9,102.2c2.4-1.4,3.9-3.2,3.7-5.9c-0.1-1.4-0.4-2.9-0.9-4.3c-0.2-0.6-0.7-1.2-1.2-1.4
	c-1-0.4-2.1-0.7-3.2-0.5c-0.2,1.2-0.4,8.7-0.3,10.4c0.4,0.1,0.8,0.1,1.2,0.2C90.4,101.1,90.6,101.5,90.9,102.2"/>
<path d="M132.2,166c-0.1,0.8-0.2,1.5-0.2,2.2l0.3,9c0,1,0,2.1,0.2,3.1c0.2,1.7-1.1,2.8-2.5,3.1c-0.6,0.1-1.2,0.1-1.8,0
	c-2.3-0.4-4.6-0.8-7-1.2c-0.7-0.1-1.4-0.3-2.1-0.8c-0.4-1.5-0.1-3,0-4.5c0-4.8,0.2-9.6,0.3-14.3c0.1-3.8,0.2-7.5,0.3-11.2
	c0.1-3.4,0.2-6.8,0.4-10.1c0-0.8,0.2-1.6,0.3-2.4c0.4-0.1,0.8-0.3,1.1-0.3c4.3-0.3,8.5-0.6,12.8-0.7c2.5-0.1,5,0.1,7.5,0.2
	c0.5,0,1,0.1,1.5,0.2s0.8,0.4,0.8,0.9v0.2c0,2.7,0.1,5.4,0.1,8.2c0,0.9-0.1,1.9-0.2,2.9c-0.5,0-0.9,0.1-1.3,0.1
	c-1.3,0.1-2.6,0.1-4,0.2c-0.8,0-1.5,0.1-2.3-0.4c-1.5-0.8-2.9,0.2-3.2,1.9c-0.3,1.2-0.2,2.5-0.3,3.7c1.2,0.8,2.6,0.2,3.7,0.6
	c0.4,0.9,0.6,1.8,0.5,2.8c-0.2,1.7-0.2,3.4-0.2,5.1c0,0.5-0.2,1-0.2,1.5C135.3,166.1,133.9,165.6,132.2,166 M224.4,111
	c-2.3,0.2-4.5-0.3-6.8,0.2c0,0.4-0.1,0.8-0.1,1.3c-0.1,2.1-0.2,4.3-0.3,6.4c0,1.3,0,2.6,0.5,4c0.4,0,0.7,0.2,1,0.1
	c1.1-0.4,2.2-0.3,3.3-0.1c1.4,0.2,2.8,0.2,4.3,0.3c0.1,0.4,0.2,0.7,0.2,1c-0.1,2.9-0.2,5.9-0.3,8.8c0,1-0.1,2-0.2,3.1
	c-1,0.4-1.8,0.1-2.7-0.1c-2.1-0.4-4.2-0.7-6.4-0.6c-1.1,0-2.2,0-3.3,0.2c-1.3,0.3-2.5,0.1-3.6-0.5c-0.2-0.1-0.4-0.2-0.8-0.3
	c-0.1-1-0.3-2.1-0.4-3.1c-0.1-2.4,0-4.7,0-7.1s0.2-4.7,0.1-7c-0.1-3.8,0.5-7.6,0.6-11.4c0.1-3.1,0.3-6.2,0.3-9.3
	c0-3.5-0.2-7.1-0.4-10.6c-0.1-2.1-0.5-4.2-0.7-6.3c0-0.4-0.1-0.8-0.1-1.4c2-0.5,3.8-0.7,5.7-0.4c3.1,0.4,6.1,0.7,9.2,0.7
	c1.2,0,2.5-0.1,3.8,0.4c0.5,1.8-0.2,3.5-0.2,5.2s-0.4,3.3-0.6,4.8c-1,0.8-2,0.7-2.9,0.7c-0.8,0-1.6-0.2-2.4-0.3
	c-0.9-0.1-1.7-0.1-2.5-0.2c-0.2,0.2-0.3,0.4-0.3,0.5c-0.1,3.4-0.2,6.7-0.4,10c0.5,0.6,1.2,0.4,1.7,0.4c1.4,0,2.8-0.1,4.1,0.2
	C224.2,102.1,224.5,108.1,224.4,111 M125.5,123.7c0,2.4,0.1,4.9,0.1,7.4c0,0.2,0,0.4-0.1,0.7c-0.1,0.8-0.5,1.1-1.4,1
	c-0.7,0-1.3-0.1-2-0.1c-3.9-0.4-7.8-0.5-11.7-0.4c-0.6,0-1.3,0-2.1-0.1c-0.1-0.5-0.1-0.8-0.1-1.2c-0.1-7.7-0.5-15.3-1.1-22.9
	c-0.4-5.5-0.3-11-0.2-16.5c0.1-2.7,0.1-5.4-0.5-8.1c-0.4-1.7-0.1-3.4,1-4.9c1.8-0.3,3.6,0,5.5-0.1c2.2,0,4.4,0,6.6-0.1
	c0.7,0,1.4-0.3,2.1-0.5c0.9-0.3,1.8-0.6,2.7-0.4c0.1,0.2,0.2,0.3,0.2,0.4c0.1,3,0.2,6,0.2,9.1c-2.7,0.4-5.4-0.2-8,0.6v1.7
	c-0.4,0.1-0.8,0.3-1.3,0.5c0.1,2-0.7,4-0.1,6.2c1.5-0.1,2.9-0.3,4.4-0.3c1.4,0,2.8-0.1,4.1,0.2c0.5,0.6,0.4,1.2,0.4,1.8
	c-0.3,2.6-0.2,5.3,0,7.9c0.1,1.3-0.3,1.7-1.6,1.8c-1.5,0.1-3.1,0.2-4.6,0.2c-0.8,0-1.6-0.1-2.5-0.1c0,0.5-0.1,0.9-0.1,1.3
	c0.3,3.6,0.6,7.2,1,10.8c0.1,1.6,0.4,1.9,2,2.1c0.9,0.1,1.9,0.2,2.9,0.3C123,122.1,124.3,122.6,125.5,123.7 M146.6,133.3
	c-3.4,0.5-6.8,0.2-10.4,0.2c-0.1-0.6-0.2-1-0.2-1.5c-0.3-5.1-0.4-10.1-0.8-15.2c-0.4-5.6-0.8-11.2-1.4-16.7c-0.4-3.4-1-6.8-2.1-10.1
	c-0.3-0.9-0.6-1.8-1-2.7c-1-2.1-0.8-4.3-0.7-6.6c2.2-0.4,4.3-0.9,6.5-1.3c0.7,1,1.1,2,1.5,3c1.4,3.8,2.5,7.7,2.6,11.8
	c0,0.7,0.2,1.5,0.4,2.2c0.7,2.6,1.5,5.2,1.8,7.9c0,0.3,0.3,0.6,0.5,1.3c0.4-2.2,0.6-4,1.1-5.8c1.1-4.4,1-8.9,1.2-13.4
	c0-1.5-0.2-2.9-0.3-4.4v-2.3h1.2c1.2,0.1,2.3,0.5,3.5,0.1c0.4-0.1,0.9,0.1,1.3,0.2c0.9,0.2,1.9,0.4,2.9,0.6c0,0.4,0.2,0.9,0.1,1.4
	c-0.2,1.4-0.3,2.8-0.7,4.1c-1.7,5.5-2.6,11.2-3.5,16.8c-1,5.9-1.8,11.8-2.5,17.7c-0.4,3-0.3,6-0.4,9
	C147.1,130.9,147.1,132.1,146.6,133.3 M159.7,132.3c-0.6-0.7-0.7-1.5-0.7-2.4c0.1-4.9,0.3-9.8,0.7-14.8c0.4-4.9,0.6-9.8,0.8-14.8
	c0.1-2.1,0-4.3,0-6.4c-0.1-4.4-0.3-8.8-1.2-13.2c-0.1-0.3,0-0.6,0.1-1c0.7-0.2,1.4-0.4,2.1-0.5c0.7-0.1,1.4-0.3,2.2-0.3
	c3-0.2,6-0.3,9-0.4c1.2-0.1,2.5-0.1,3.7-0.2h2.9c0.6,1.3,0.2,2.7,0.1,3.9c0,1.2-0.3,2.5-0.4,3.6c-0.8,0.7-1.7,0.8-2.6,0.8
	c-1.3,0-2.6-0.1-4-0.1c-1,0-2-0.2-2.9,0.6c-0.4,0.3-1.3,0.1-2,0.2c0,0.5-0.1,0.9-0.1,1.3c0,2.6,0.1,5.3,0.1,7.9c0,0.4,0,0.7,0.1,1.1
	c0.2,1.4,0.6,1.7,2.1,1.6c1.4-0.1,2.8-0.2,4.3-0.3c0.1,0.5,0.3,0.9,0.3,1.3c0.1,2.3,0.2,4.7,0.3,7c-1.7,2.2-4.3,2-6.7,2.5
	c0,0.5-0.1,0.9-0.1,1.3v6.4c0.1,1.5,0.3,3.1,0.4,4.6c0.1,0.7,0.4,1,1.1,1.2c1.8,0.4,3.7,0.4,5.5,0.3h2.4c1.1,0.1,1.4,0.4,1.3,1.3
	c0,2.6-0.1,5.3-0.1,7.9c0,0.2-0.1,0.4-0.2,0.6C175.5,133.9,162.6,133,159.7,132.3 M273.9,133.6c-2.5,0.5-5,0.4-7.6,0.4
	c-0.1-0.5-0.2-0.8-0.2-1.2l0.3-13.9v-7.1c0-5.3-0.4-10.6-1.1-15.8c-0.3-2.2,0.2-2.8-3.2-3.3c-1.2-0.2-2-0.8-2.9-1.5
	c-0.1-3.6,0.8-7.3,0.2-11c0.4-0.1,0.8-0.3,1.2-0.3c2.1,0,4.3,0.1,6.4,0.1h1.8c3.1-0.4,6.2,0.1,9.2,0.1c0.2,0,0.4,0.1,0.7,0.2
	c0.1,0.3,0.2,0.5,0.2,0.8c0.1,2.6,0.2,5.1,0.3,7.7c0,0.7,0,1.4-0.4,2.1c-0.7,1.2-1.6,1.6-2.8,1.8c-0.7,0.1-1.5,0.1-2.2,0.2
	c-0.6,0.7-0.3,1.6-0.2,2.3c0.6,5.8,1.2,11.5,1.2,17.4c0,4.6-0.1,9.1-0.1,13.7c0,1.8-0.2,3.7-0.4,5.5
	C274.3,132.4,274.1,133,273.9,133.6 M48.5,133.3c-3.7-0.1-7.2,0.2-10.8,0.3c0-1.7,0.1-3.3,0.1-4.8c0.1-3.5,0.2-7,0.3-10.6
	c0.1-6.9,0.1-13.8,0.2-20.7v-0.9c-0.1-2.7,0-5.4,0.4-8.1c0.4-2.9,0.4-5.7,0.2-8.6c0-0.3,0-0.6,0.1-1c0.5,0,9.5,1.9,9.9,1.9
	c0,0,63305584-272214144,0,0c0.1,1.2,0.3,2.5,0.4,3.7c0,5.5,0.1,11,0,16.5c0,2.4-0.2,4.8-0.3,7.3c-0.1,2.3-0.2,4.7-0.2,7
	c0,3.5-0.1,6.9,0.2,10.4c0.2,2.1,0,4.3-0.1,6.4C48.8,132.5,48.6,132.8,48.5,133.3 M169.2,185.8v0.1H169v-0.2
	C169.1,185.8,169.1,185.8,169.2,185.8 M169.5,49.8c0.1-0.4,0.2-1,0.4-1.5c0.5-1.1,1.2-2.2,1.7-3.3c0.4-0.9,1.1-1.3,1.9-1.7
	c0.4-0.2,0.8-0.2,1.2,0.2c0.4,0.3,0.5,0.7,0.4,1.2c-0.1,0.3-0.2,0.5-0.3,0.8c-0.4,0.9-0.8,1.9-1.2,2.8c-0.5,1.2-1.2,2.2-2.2,3
	c-0.9,0.7-1.7,0.4-1.9-0.8L169.5,49.8 M151.1,52.6c-0.7-0.3-1.3-0.4-1.7-0.7c-0.4-0.2-0.6-0.7-0.3-1.1c0.2-0.4,0.8-0.7,1.3-0.4
	C151.1,50.7,151.4,51.4,151.1,52.6 M77.2,148c-0.5-0.3-0.9-0.8-0.8-1.4c0.1-0.9,0.2-1.9,0.5-2.8c0.1-0.6,0.6-1,1.3-1
	c0.6,0,1.3,0.1,1.9,0.3c0.9,0.3,1.2,1.3,0.7,2.1C79.9,146.5,78.8,147.5,77.2,148"/>
</svg>
