<svg xmlns="http://www.w3.org/2000/svg" viewBox="0 0 491.4 483.9"><path d="M484.8 363.3c-39.9 21.8-86.3 34.2-134.7 33.2C205 393.7 90.2 276.1 93 134.7c.9-47.4 15.2-92 39.9-130C55.1 48.4 2 129 .1 222.9c-2.8 141.4 112.9 258 257.1 260.9 95.7 1.9 180.2-46.5 227.6-120.5" fill="#203244"/><path d="M347.2 367.1h4.7c38 0 74.9-9.5 108.1-26.6 19.9-33.2 31.3-72.1 31.3-113.8C491.4 101.5 390.9 0 265.7 0c-38.9 0-75.9 10.4-108.1 27.5-20.9 33.2-32.3 72.1-33.2 111-2.9 123.3 97.6 225.8 222.8 228.6" fill="#3e95be"/></svg>