<?xml version="1.0" encoding="utf-8"?>
<!-- Generator: Adobe Illustrator 22.0.1, SVG Export Plug-In . SVG Version: 6.00 Build 0)  -->
<svg version="1.1" id="Layer_1" xmlns="http://www.w3.org/2000/svg" xmlns:xlink="http://www.w3.org/1999/xlink" x="0px" y="0px"
	 viewBox="0 0 528.6 520.4" style="enable-background:new 0 0 528.6 520.4;" xml:space="preserve">
<style type="text/css">
	.st0{fill:#FFFFFF;}
	.st1{fill:#3E95BE;}
</style>
<g id="mark_7_">
	<path class="st0" d="M521.4,390.8c-42.9,23.5-92.8,36.7-144.9,35.7C220.4,423.4,97,296.9,100,144.9c1-51,16.3-99,42.9-139.8
		C59.2,52,2.1,138.8,0.1,239.8c-3.1,152,121.4,277.5,276.5,280.6C379.6,522.4,470.4,470.4,521.4,390.8"/>
	<path class="st1" d="M373.5,394.9c2,0,3.1,0,5.1,0c40.8,0,80.6-10.2,116.3-28.6c21.4-35.7,33.7-77.5,33.7-122.4
		C528.6,109.2,420.4,0,285.7,0c-41.8,0-81.6,11.2-116.3,29.6C147,65.3,134.7,107.1,133.7,149C130.6,281.6,238.8,391.8,373.5,394.9"
		/>
</g>
</svg>
