<?xml version="1.0" encoding="utf-8"?>
<!-- Generator: Adobe Illustrator 22.0.1, SVG Export Plug-In . SVG Version: 6.00 Build 0)  -->
<svg version="1.1" id="Layer_1" xmlns="http://www.w3.org/2000/svg" xmlns:xlink="http://www.w3.org/1999/xlink" x="0px" y="0px"
	 viewBox="0 0 471.3 89.3" enable-background="new 0 0 471.3 89.3" xml:space="preserve">
<g>
	<g>
		<g>
			<g>
				<path fill="#FFFFFF" d="M95.4,23.3h15.8c15.3,0,28.2,6.5,28.2,24c0,15.4-12.6,23.7-26.8,23.7H95.4V23.3z M105.9,61.2h5.5
					c9.8,0,17.1-3.7,17.1-14.5c0-9.4-7.5-13.7-16.4-13.7h-6.2V61.2z"/>
				<path fill="#FFFFFF" d="M144.8,38.2h10.1v5.3h0.1c2.2-4,5-6.1,9.4-6.1c1.1,0,2.4,0.1,3.4,0.3v9.2c-1.4-0.4-2.8-0.7-4.3-0.7
					c-7.7,0-8.6,4.4-8.6,11v13.7h-10.1V38.2z"/>
				<path fill="#FFFFFF" d="M202.1,65.3c-3.2,4.1-8.5,6.5-13.8,6.5c-10.1,0-18.2-6.7-18.2-17.2c0-10.4,8.1-17.2,18.2-17.2
					c9.4,0,15.3,6.7,15.3,17.2v3.2h-23.4c0.8,3.8,3.7,6.3,7.6,6.3c3.3,0,5.5-1.7,7.2-4L202.1,65.3z M193.5,50.8
					c0.1-3.4-2.6-6.2-6.2-6.2c-4.4,0-6.9,3-7.1,6.2H193.5z"/>
				<path fill="#FFFFFF" d="M229.1,66.8h-0.1c-2.2,3.5-6.3,4.9-10.4,4.9c-6.1,0-11.6-3.5-11.6-10.1c0-11.3,13.7-11.5,22.1-11.5
					c0-3.6-3-5.9-6.5-5.9c-3.3,0-6.1,1.5-8.2,3.9l-5.4-5.5c3.7-3.5,9.1-5.3,14.4-5.3c11.8,0,14.9,6,14.9,16.9v16.6h-9.3V66.8z
					 M226.6,56.6c-3.1,0-10,0.3-10,4.7c0,2.4,2.6,3.6,4.8,3.6c4,0,7.7-2.1,7.7-6.1v-2.2H226.6z"/>
				<path fill="#FFFFFF" d="M244.7,38.2h9.7v4.4h0.1c1.3-2.6,4.6-5.3,9.6-5.3c4.6,0,8.3,1.9,10.1,5.9c2.4-4.2,5.5-5.9,10.4-5.9
					c8.9,0,11.6,6.3,11.6,14.2v19.3H286v-19c0-3-1.1-5.6-4.4-5.6c-4.6,0-6.1,3.3-6.1,7.3v17.3h-10.1V53.6c0-2.4,0.1-7.3-4.5-7.3
					c-5.3,0-6.1,4.1-6.1,8.3v16.3h-10.1V38.2z"/>
				<path fill="#FFFFFF" d="M302.5,23.3H313V41h20.4V23.3h10.5v47.7h-10.5V50.3H313v20.6h-10.5V23.3z"/>
				<path fill="#FFFFFF" d="M366.6,37.4c10.1,0,18.2,6.7,18.2,17.2c0,10.4-8.1,17.2-18.2,17.2c-10.1,0-18.2-6.7-18.2-17.2
					C348.4,44.1,356.5,37.4,366.6,37.4z M366.6,62.8c5,0,8.1-3.4,8.1-8.3c0-4.9-3-8.3-8.1-8.3c-5,0-8.1,3.4-8.1,8.3
					C358.5,59.5,361.6,62.8,366.6,62.8z"/>
				<path fill="#FFFFFF" d="M407.9,47.8c-1.5-1.8-3.4-2.8-5.9-2.8c-1.7,0-3.7,0.7-3.7,2.7c0,4.8,17,0.7,17,13.2
					c0,8.3-8.1,10.8-15.1,10.8c-4.6,0-9.6-1.1-12.9-4.4l6.1-6.8c1.9,2.3,4.1,3.6,7.1,3.6c2.3,0,4.6-0.6,4.6-2.4
					c0-5.3-17-0.8-17-13.3c0-7.7,6.9-11,13.7-11c4.3,0,9.1,1.1,12.1,4.3L407.9,47.8z"/>
				<path fill="#FFFFFF" d="M442.5,46.3h-8.9v10.9c0,3.5,0.4,6.1,4.8,6.1c1.1,0,3.2-0.1,4.1-0.9v8.4c-2.2,0.8-4.7,1-7.1,1
					c-6.7,0-11.9-2.8-11.9-9.9V46.3H417v-8.1h6.5v-9.7h10.1v9.7h8.9V46.3z"/>
			</g>
			<g id="mark_1_">
				<path fill="#FFFFFF" d="M77.3,60c-4.9,2.7-10.5,4.2-16.5,4.1C43,63.7,29,49.4,29.3,32c0.1-5.9,1.9-11.4,4.9-16
					c-9.5,5.3-16,15.2-16.2,26.7C17.6,60,31.7,74.4,49.4,74.8C61.2,75,71.5,69.1,77.3,60"/>
				<path fill="#0073EC" d="M51.3,14.6c-4.8,0-9.3,1.2-13.3,3.4c-2.5,4.1-3.9,8.8-4.1,13.6c-0.3,15.1,12,27.6,27.3,27.9l0,0
					c4.6,0,9.8-1.1,13.8-3.3c2.4-4.1,3.8-8.9,3.8-14C79,27,66.6,14.6,51.3,14.6z"/>
			</g>
		</g>
	</g>
	<g>
		<path fill="#FFFFFF" d="M446,23.5c0-0.5,0.1-1,0.3-1.5c0.2-0.5,0.5-0.8,0.8-1.2c0.3-0.3,0.7-0.6,1.2-0.8c0.4-0.2,0.9-0.3,1.4-0.3
			c0.5,0,1,0.1,1.4,0.3c0.4,0.2,0.8,0.4,1.2,0.8c0.3,0.3,0.6,0.7,0.8,1.2c0.2,0.5,0.3,0.9,0.3,1.5c0,0.5-0.1,1-0.3,1.5
			c-0.2,0.4-0.5,0.8-0.8,1.2c-0.3,0.3-0.7,0.6-1.2,0.8c-0.4,0.2-0.9,0.3-1.4,0.3c-0.5,0-1-0.1-1.4-0.3c-0.4-0.2-0.8-0.4-1.2-0.8
			c-0.3-0.3-0.6-0.7-0.8-1.2C446.1,24.5,446,24,446,23.5z M446.7,23.5c0,0.4,0.1,0.9,0.2,1.2c0.2,0.4,0.4,0.7,0.6,1
			c0.3,0.3,0.6,0.5,1,0.7c0.4,0.2,0.8,0.2,1.2,0.2c0.4,0,0.8-0.1,1.2-0.2c0.4-0.2,0.7-0.4,1-0.7c0.3-0.3,0.5-0.6,0.6-1
			c0.2-0.4,0.2-0.8,0.2-1.2c0-0.4-0.1-0.9-0.2-1.2c-0.2-0.4-0.4-0.7-0.6-1c-0.3-0.3-0.6-0.5-1-0.7c-0.4-0.2-0.8-0.2-1.2-0.2
			c-0.4,0-0.8,0.1-1.2,0.2c-0.4,0.2-0.7,0.4-1,0.7c-0.3,0.3-0.5,0.6-0.6,1C446.7,22.6,446.7,23,446.7,23.5z M448.3,21.3l1.6,0
			c1,0,1.5,0.4,1.5,1.2c0,0.4-0.1,0.7-0.3,0.9c-0.2,0.2-0.5,0.3-0.8,0.3l1.2,1.9h-0.7l-1.2-1.9h-0.7v1.9h-0.7L448.3,21.3z
			 M448.9,23.2h0.7c0.1,0,0.3,0,0.4,0c0.1,0,0.3,0,0.4-0.1c0.1,0,0.2-0.1,0.3-0.2c0.1-0.1,0.1-0.2,0.1-0.4c0-0.1,0-0.3-0.1-0.4
			c-0.1-0.1-0.1-0.2-0.2-0.2c-0.1,0-0.2-0.1-0.3-0.1c-0.1,0-0.2,0-0.3,0h-0.9L448.9,23.2z"/>
	</g>
</g>
</svg>
